G04 #@! TF.GenerationSoftware,KiCad,Pcbnew,(5.1.6)-1*
G04 #@! TF.CreationDate,2020-11-04T20:11:43-06:00*
G04 #@! TF.ProjectId,ControlBoardnRF_22PinSound_PowerAmp,436f6e74-726f-46c4-926f-6172646e5246,rev?*
G04 #@! TF.SameCoordinates,Original*
G04 #@! TF.FileFunction,Copper,L1,Top*
G04 #@! TF.FilePolarity,Positive*
%FSLAX46Y46*%
G04 Gerber Fmt 4.6, Leading zero omitted, Abs format (unit mm)*
G04 Created by KiCad (PCBNEW (5.1.6)-1) date 2020-11-04 20:11:43*
%MOMM*%
%LPD*%
G01*
G04 APERTURE LIST*
G04 #@! TA.AperFunction,WasherPad*
%ADD10C,3.250000*%
G04 #@! TD*
G04 #@! TA.AperFunction,ComponentPad*
%ADD11C,1.500000*%
G04 #@! TD*
G04 #@! TA.AperFunction,ComponentPad*
%ADD12R,1.500000X1.500000*%
G04 #@! TD*
G04 #@! TA.AperFunction,ComponentPad*
%ADD13O,1.259000X2.362000*%
G04 #@! TD*
G04 #@! TA.AperFunction,ComponentPad*
%ADD14R,1.700000X1.700000*%
G04 #@! TD*
G04 #@! TA.AperFunction,ComponentPad*
%ADD15O,1.700000X1.700000*%
G04 #@! TD*
G04 #@! TA.AperFunction,ComponentPad*
%ADD16C,1.600000*%
G04 #@! TD*
G04 #@! TA.AperFunction,ComponentPad*
%ADD17R,1.600000X1.600000*%
G04 #@! TD*
G04 #@! TA.AperFunction,ComponentPad*
%ADD18R,2.286000X2.286000*%
G04 #@! TD*
G04 #@! TA.AperFunction,ComponentPad*
%ADD19C,2.286000*%
G04 #@! TD*
G04 #@! TA.AperFunction,ComponentPad*
%ADD20C,0.100000*%
G04 #@! TD*
G04 #@! TA.AperFunction,SMDPad,CuDef*
%ADD21C,0.100000*%
G04 #@! TD*
G04 #@! TA.AperFunction,SMDPad,CuDef*
%ADD22R,1.500000X1.500000*%
G04 #@! TD*
G04 #@! TA.AperFunction,ComponentPad*
%ADD23C,1.524000*%
G04 #@! TD*
G04 #@! TA.AperFunction,ComponentPad*
%ADD24C,0.800000*%
G04 #@! TD*
G04 #@! TA.AperFunction,ViaPad*
%ADD25C,0.800000*%
G04 #@! TD*
G04 #@! TA.AperFunction,Conductor*
%ADD26C,0.250000*%
G04 #@! TD*
G04 #@! TA.AperFunction,Conductor*
%ADD27C,1.000000*%
G04 #@! TD*
G04 #@! TA.AperFunction,Conductor*
%ADD28C,0.254000*%
G04 #@! TD*
G04 APERTURE END LIST*
D10*
X177318320Y-76359180D03*
X164618320Y-76359180D03*
D11*
X174529020Y-80679180D03*
X173509020Y-78899180D03*
X172499020Y-80679180D03*
X171479020Y-78899180D03*
X170469020Y-80679180D03*
X169449020Y-78899180D03*
X168439020Y-80679180D03*
D12*
X167419020Y-78899180D03*
D13*
X179098320Y-79261130D03*
X162838320Y-79261130D03*
D14*
X116600000Y-88100000D03*
D15*
X137100000Y-88100000D03*
X116600000Y-90640000D03*
X137100000Y-90640000D03*
X116600000Y-93180000D03*
X137100000Y-93180000D03*
X116600000Y-95720000D03*
X137100000Y-95720000D03*
X116600000Y-98260000D03*
X137100000Y-98260000D03*
X116600000Y-100800000D03*
X137100000Y-100800000D03*
X116600000Y-103340000D03*
X137100000Y-103340000D03*
X116600000Y-105880000D03*
X137100000Y-105880000D03*
X116600000Y-108420000D03*
X137100000Y-108420000D03*
X116600000Y-110960000D03*
X137100000Y-110960000D03*
X116600000Y-113500000D03*
X137100000Y-113500000D03*
X173720000Y-121300000D03*
X171180000Y-121300000D03*
X168640000Y-121300000D03*
D14*
X166100000Y-121300000D03*
D16*
X140267940Y-123678940D03*
X140267940Y-121138940D03*
X140267940Y-118598940D03*
X140267940Y-116058940D03*
X140267940Y-113518940D03*
X140267940Y-110978940D03*
X140267940Y-108438940D03*
X140267940Y-105898940D03*
X140267940Y-103358940D03*
X140267940Y-100818940D03*
X140267940Y-98278940D03*
X140267940Y-95738940D03*
X140267940Y-93198940D03*
D17*
X140267940Y-90658940D03*
D16*
X160567940Y-128758940D03*
X160567940Y-126218940D03*
X160567940Y-123678940D03*
X160567940Y-121138940D03*
X160567940Y-118598940D03*
X160567940Y-116058940D03*
X160567940Y-113518940D03*
X160567940Y-110978940D03*
X160567940Y-108438940D03*
X160567940Y-105898940D03*
X160567940Y-103358940D03*
X160567940Y-100818940D03*
X140267940Y-126218940D03*
X140267940Y-128758940D03*
D18*
X125700000Y-72800000D03*
D19*
X130780000Y-72800000D03*
D17*
X122000000Y-129800000D03*
D16*
X125500000Y-129800000D03*
D14*
X154500000Y-76900000D03*
D15*
X157040000Y-76900000D03*
G04 #@! TA.AperFunction,ComponentPad*
D20*
G36*
X116200000Y-148616446D02*
G01*
X114583554Y-147000000D01*
X116200000Y-145383554D01*
X117816446Y-147000000D01*
X116200000Y-148616446D01*
G37*
G04 #@! TD.AperFunction*
D19*
X119792102Y-143407898D03*
G04 #@! TA.AperFunction,SMDPad,CuDef*
D21*
G36*
X176850000Y-138675000D02*
G01*
X176850000Y-139825000D01*
X176100000Y-139325000D01*
X175350000Y-139825000D01*
X175350000Y-138675000D01*
X176850000Y-138675000D01*
G37*
G04 #@! TD.AperFunction*
G04 #@! TA.AperFunction,SMDPad,CuDef*
G36*
X176100000Y-139625000D02*
G01*
X176850000Y-140125000D01*
X176850000Y-141125000D01*
X175350000Y-141125000D01*
X175350000Y-140125000D01*
X176100000Y-139625000D01*
G37*
G04 #@! TD.AperFunction*
D22*
X176100000Y-146900000D03*
D23*
X127650500Y-136936500D03*
X127650500Y-154716500D03*
X168290500Y-136936500D03*
X168290500Y-154716500D03*
D14*
X166100000Y-95900000D03*
D15*
X168640000Y-95900000D03*
X171180000Y-95900000D03*
X173720000Y-95900000D03*
D14*
X166100000Y-100980000D03*
D15*
X168640000Y-100980000D03*
X171180000Y-100980000D03*
X171180000Y-106060000D03*
X168640000Y-106060000D03*
D14*
X166100000Y-106060000D03*
X166100000Y-116220000D03*
D15*
X168640000Y-116220000D03*
X171180000Y-116220000D03*
D14*
X113200000Y-88000000D03*
D15*
X113200000Y-85460000D03*
X113200000Y-82920000D03*
D14*
X113200000Y-108400000D03*
D15*
X113200000Y-105860000D03*
X113200000Y-103320000D03*
X113200000Y-123720000D03*
X113200000Y-126260000D03*
D14*
X113200000Y-128800000D03*
X166100000Y-111140000D03*
D15*
X168640000Y-111140000D03*
X171180000Y-111140000D03*
D24*
X126543575Y-93112850D03*
X127756425Y-93112850D03*
X127756425Y-90687150D03*
X126543575Y-90687150D03*
X128362850Y-91900000D03*
X125937150Y-91900000D03*
X127150000Y-91900000D03*
D22*
X143200000Y-79800000D03*
D25*
X161200000Y-94900000D03*
X146573939Y-92073939D03*
X133556040Y-115228360D03*
X117700000Y-77300000D03*
X164100000Y-85800000D03*
X174800000Y-112600000D03*
X166300000Y-113500000D03*
X133266878Y-95982382D03*
X133258494Y-93923386D03*
X124131502Y-96679602D03*
X129196423Y-96679718D03*
X133245721Y-91066901D03*
X132058980Y-91177000D03*
X124900000Y-115800000D03*
X161300000Y-98100000D03*
X160400000Y-97000000D03*
X163400000Y-73800000D03*
X120800000Y-69800000D03*
X136445097Y-70209314D03*
X162200000Y-109700000D03*
D26*
X142171530Y-105898940D02*
X160567940Y-105898940D01*
X140770470Y-107300000D02*
X142171530Y-105898940D01*
X139741878Y-107300000D02*
X140770470Y-107300000D01*
X166808941Y-129883941D02*
X139727939Y-129883941D01*
X176100000Y-139175000D02*
X166808941Y-129883941D01*
X139727939Y-129883941D02*
X139142939Y-129298941D01*
X139142939Y-129298941D02*
X139142939Y-107898939D01*
X139142939Y-107898939D02*
X139741878Y-107300000D01*
X161200000Y-94900000D02*
X158373939Y-92073939D01*
X158373939Y-92073939D02*
X146573939Y-92073939D01*
X133266878Y-95982382D02*
X133266878Y-93931770D01*
X133266878Y-93931770D02*
X133258494Y-93923386D01*
X129196307Y-96679602D02*
X129196423Y-96679718D01*
X124131502Y-96679602D02*
X129196307Y-96679602D01*
X133258494Y-91079674D02*
X133245721Y-91066901D01*
X133258494Y-93923386D02*
X133258494Y-91079674D01*
X143200000Y-90266880D02*
X140267940Y-93198940D01*
X143200000Y-79800000D02*
X143200000Y-90266880D01*
X148833120Y-95900000D02*
X143200000Y-90266880D01*
X166100000Y-95900000D02*
X148833120Y-95900000D01*
X171979000Y-140625000D02*
X176100000Y-140625000D01*
X168290500Y-136936500D02*
X171979000Y-140625000D01*
D27*
X126263500Y-136936500D02*
X127650500Y-136936500D01*
X119792102Y-143407898D02*
X126263500Y-136936500D01*
X132100000Y-108600000D02*
X124900000Y-115800000D01*
X132100000Y-91200000D02*
X132100000Y-108600000D01*
X132058980Y-91177000D02*
X132077000Y-91177000D01*
X132077000Y-91177000D02*
X132100000Y-91200000D01*
X122000000Y-118700000D02*
X124900000Y-115800000D01*
X122000000Y-129800000D02*
X122000000Y-118700000D01*
D26*
X149012941Y-120013939D02*
X140267940Y-128758940D01*
X166585063Y-120013939D02*
X149012941Y-120013939D01*
X172355001Y-97075001D02*
X172355001Y-113115999D01*
X171180000Y-95900000D02*
X172355001Y-97075001D01*
X169815001Y-116784001D02*
X166585063Y-120013939D01*
X172355001Y-113115999D02*
X169815001Y-115655999D01*
X169815001Y-115655999D02*
X169815001Y-116784001D01*
X166006062Y-123678940D02*
X160567940Y-123678940D01*
X167275001Y-122410001D02*
X166006062Y-123678940D01*
X173720000Y-115580000D02*
X169175001Y-120124999D01*
X173720000Y-95900000D02*
X173720000Y-115580000D01*
X168075999Y-120124999D02*
X167275001Y-120925997D01*
X169175001Y-120124999D02*
X168075999Y-120124999D01*
X167275001Y-120925997D02*
X167275001Y-122410001D01*
X141682939Y-104483941D02*
X140267940Y-105898940D01*
X171180000Y-100980000D02*
X167676059Y-104483941D01*
X167676059Y-104483941D02*
X141682939Y-104483941D01*
X141392941Y-107313939D02*
X140267940Y-108438940D01*
X168640000Y-106060000D02*
X167386061Y-107313939D01*
X167386061Y-107313939D02*
X141392941Y-107313939D01*
X141392941Y-114643941D02*
X140267940Y-113518940D01*
X168640000Y-116220000D02*
X167063941Y-114643941D01*
X167063941Y-114643941D02*
X141392941Y-114643941D01*
X156041060Y-103358940D02*
X140267940Y-103358940D01*
X161300000Y-98100000D02*
X156041060Y-103358940D01*
X140267940Y-100818940D02*
X156581060Y-100818940D01*
X156581060Y-100818940D02*
X160400000Y-97000000D01*
X166379840Y-73800000D02*
X171479020Y-78899180D01*
X163400000Y-73800000D02*
X166379840Y-73800000D01*
X120800000Y-69800000D02*
X121209314Y-70209314D01*
X121209314Y-70209314D02*
X136445097Y-70209314D01*
X147989964Y-81754181D02*
X136445097Y-70209314D01*
X170469020Y-80679180D02*
X169394019Y-81754181D01*
X169394019Y-81754181D02*
X147989964Y-81754181D01*
X141546880Y-109700000D02*
X140267940Y-110978940D01*
X162200000Y-109700000D02*
X141546880Y-109700000D01*
X160567940Y-118558940D02*
X160358940Y-118558940D01*
D28*
G36*
X119804774Y-69498102D02*
G01*
X119765000Y-69698061D01*
X119765000Y-69901939D01*
X119804774Y-70101898D01*
X119882795Y-70290256D01*
X119996063Y-70459774D01*
X120140226Y-70603937D01*
X120309744Y-70717205D01*
X120498102Y-70795226D01*
X120698061Y-70835000D01*
X120773721Y-70835000D01*
X120785038Y-70844288D01*
X120917067Y-70914860D01*
X121060328Y-70958317D01*
X121171981Y-70969314D01*
X121171990Y-70969314D01*
X121209313Y-70972990D01*
X121246636Y-70969314D01*
X135741386Y-70969314D01*
X135785323Y-71013251D01*
X135954841Y-71126519D01*
X136143199Y-71204540D01*
X136343158Y-71244314D01*
X136405296Y-71244314D01*
X143572909Y-78411928D01*
X142450000Y-78411928D01*
X142325518Y-78424188D01*
X142205820Y-78460498D01*
X142095506Y-78519463D01*
X141998815Y-78598815D01*
X141919463Y-78695506D01*
X141860498Y-78805820D01*
X141824188Y-78925518D01*
X141811928Y-79050000D01*
X141811928Y-80550000D01*
X141824188Y-80674482D01*
X141860498Y-80794180D01*
X141919463Y-80904494D01*
X141998815Y-81001185D01*
X142095506Y-81080537D01*
X142205820Y-81139502D01*
X142325518Y-81175812D01*
X142440000Y-81187087D01*
X142440001Y-89952077D01*
X141706012Y-90686066D01*
X141706012Y-89858940D01*
X141693752Y-89734458D01*
X141657442Y-89614760D01*
X141598477Y-89504446D01*
X141519125Y-89407755D01*
X141422434Y-89328403D01*
X141312120Y-89269438D01*
X141192422Y-89233128D01*
X141067940Y-89220868D01*
X139467940Y-89220868D01*
X139343458Y-89233128D01*
X139223760Y-89269438D01*
X139113446Y-89328403D01*
X139016755Y-89407755D01*
X138937403Y-89504446D01*
X138878438Y-89614760D01*
X138842128Y-89734458D01*
X138829868Y-89858940D01*
X138829868Y-91458940D01*
X138842128Y-91583422D01*
X138878438Y-91703120D01*
X138937403Y-91813434D01*
X139016755Y-91910125D01*
X139113446Y-91989477D01*
X139223760Y-92048442D01*
X139343458Y-92084752D01*
X139351901Y-92085583D01*
X139153303Y-92284181D01*
X138996260Y-92519213D01*
X138888087Y-92780366D01*
X138832940Y-93057605D01*
X138832940Y-93340275D01*
X138888087Y-93617514D01*
X138996260Y-93878667D01*
X139153303Y-94113699D01*
X139353181Y-94313577D01*
X139585699Y-94468940D01*
X139353181Y-94624303D01*
X139153303Y-94824181D01*
X138996260Y-95059213D01*
X138888087Y-95320366D01*
X138832940Y-95597605D01*
X138832940Y-95880275D01*
X138888087Y-96157514D01*
X138996260Y-96418667D01*
X139153303Y-96653699D01*
X139353181Y-96853577D01*
X139588213Y-97010620D01*
X139849366Y-97118793D01*
X140126605Y-97173940D01*
X140409275Y-97173940D01*
X140686514Y-97118793D01*
X140947667Y-97010620D01*
X141182699Y-96853577D01*
X141382577Y-96653699D01*
X141539620Y-96418667D01*
X141647793Y-96157514D01*
X141702940Y-95880275D01*
X141702940Y-95597605D01*
X141647793Y-95320366D01*
X141539620Y-95059213D01*
X141382577Y-94824181D01*
X141182699Y-94624303D01*
X140950181Y-94468940D01*
X141182699Y-94313577D01*
X141382577Y-94113699D01*
X141539620Y-93878667D01*
X141647793Y-93617514D01*
X141702940Y-93340275D01*
X141702940Y-93057605D01*
X141666628Y-92875054D01*
X143200000Y-91341681D01*
X148269320Y-96411002D01*
X148293119Y-96440001D01*
X148408844Y-96534974D01*
X148540873Y-96605546D01*
X148684134Y-96649003D01*
X148795787Y-96660000D01*
X148795795Y-96660000D01*
X148833120Y-96663676D01*
X148870445Y-96660000D01*
X159420556Y-96660000D01*
X159404774Y-96698102D01*
X159365000Y-96898061D01*
X159365000Y-96960198D01*
X156266259Y-100058940D01*
X141485983Y-100058940D01*
X141382577Y-99904181D01*
X141182699Y-99704303D01*
X140947667Y-99547260D01*
X140686514Y-99439087D01*
X140409275Y-99383940D01*
X140126605Y-99383940D01*
X139849366Y-99439087D01*
X139588213Y-99547260D01*
X139353181Y-99704303D01*
X139153303Y-99904181D01*
X138996260Y-100139213D01*
X138888087Y-100400366D01*
X138832940Y-100677605D01*
X138832940Y-100960275D01*
X138888087Y-101237514D01*
X138996260Y-101498667D01*
X139153303Y-101733699D01*
X139353181Y-101933577D01*
X139585699Y-102088940D01*
X139353181Y-102244303D01*
X139153303Y-102444181D01*
X138996260Y-102679213D01*
X138888087Y-102940366D01*
X138832940Y-103217605D01*
X138832940Y-103500275D01*
X138888087Y-103777514D01*
X138996260Y-104038667D01*
X139153303Y-104273699D01*
X139353181Y-104473577D01*
X139585699Y-104628940D01*
X139353181Y-104784303D01*
X139153303Y-104984181D01*
X138996260Y-105219213D01*
X138888087Y-105480366D01*
X138832940Y-105757605D01*
X138832940Y-106040275D01*
X138888087Y-106317514D01*
X138996260Y-106578667D01*
X139153303Y-106813699D01*
X139153340Y-106813736D01*
X138631937Y-107335140D01*
X138602939Y-107358938D01*
X138579141Y-107387936D01*
X138579140Y-107387937D01*
X138507965Y-107474663D01*
X138437393Y-107606693D01*
X138407783Y-107704307D01*
X138253475Y-107473368D01*
X138046632Y-107266525D01*
X137872240Y-107150000D01*
X138046632Y-107033475D01*
X138253475Y-106826632D01*
X138415990Y-106583411D01*
X138527932Y-106313158D01*
X138585000Y-106026260D01*
X138585000Y-105733740D01*
X138527932Y-105446842D01*
X138415990Y-105176589D01*
X138253475Y-104933368D01*
X138046632Y-104726525D01*
X137872240Y-104610000D01*
X138046632Y-104493475D01*
X138253475Y-104286632D01*
X138415990Y-104043411D01*
X138527932Y-103773158D01*
X138585000Y-103486260D01*
X138585000Y-103193740D01*
X138527932Y-102906842D01*
X138415990Y-102636589D01*
X138253475Y-102393368D01*
X138046632Y-102186525D01*
X137872240Y-102070000D01*
X138046632Y-101953475D01*
X138253475Y-101746632D01*
X138415990Y-101503411D01*
X138527932Y-101233158D01*
X138585000Y-100946260D01*
X138585000Y-100653740D01*
X138527932Y-100366842D01*
X138415990Y-100096589D01*
X138253475Y-99853368D01*
X138046632Y-99646525D01*
X137872240Y-99530000D01*
X138046632Y-99413475D01*
X138253475Y-99206632D01*
X138415990Y-98963411D01*
X138527932Y-98693158D01*
X138585000Y-98406260D01*
X138585000Y-98113740D01*
X138527932Y-97826842D01*
X138415990Y-97556589D01*
X138253475Y-97313368D01*
X138046632Y-97106525D01*
X137872240Y-96990000D01*
X138046632Y-96873475D01*
X138253475Y-96666632D01*
X138415990Y-96423411D01*
X138527932Y-96153158D01*
X138585000Y-95866260D01*
X138585000Y-95573740D01*
X138527932Y-95286842D01*
X138415990Y-95016589D01*
X138253475Y-94773368D01*
X138046632Y-94566525D01*
X137872240Y-94450000D01*
X138046632Y-94333475D01*
X138253475Y-94126632D01*
X138415990Y-93883411D01*
X138527932Y-93613158D01*
X138585000Y-93326260D01*
X138585000Y-93033740D01*
X138527932Y-92746842D01*
X138415990Y-92476589D01*
X138253475Y-92233368D01*
X138046632Y-92026525D01*
X137803411Y-91864010D01*
X137533158Y-91752068D01*
X137246260Y-91695000D01*
X136953740Y-91695000D01*
X136666842Y-91752068D01*
X136396589Y-91864010D01*
X136153368Y-92026525D01*
X135946525Y-92233368D01*
X135784010Y-92476589D01*
X135672068Y-92746842D01*
X135615000Y-93033740D01*
X135615000Y-93326260D01*
X135672068Y-93613158D01*
X135784010Y-93883411D01*
X135946525Y-94126632D01*
X136153368Y-94333475D01*
X136327760Y-94450000D01*
X136153368Y-94566525D01*
X135946525Y-94773368D01*
X135784010Y-95016589D01*
X135672068Y-95286842D01*
X135615000Y-95573740D01*
X135615000Y-95866260D01*
X135672068Y-96153158D01*
X135784010Y-96423411D01*
X135946525Y-96666632D01*
X136153368Y-96873475D01*
X136327760Y-96990000D01*
X136153368Y-97106525D01*
X135946525Y-97313368D01*
X135784010Y-97556589D01*
X135672068Y-97826842D01*
X135615000Y-98113740D01*
X135615000Y-98406260D01*
X135672068Y-98693158D01*
X135784010Y-98963411D01*
X135946525Y-99206632D01*
X136153368Y-99413475D01*
X136327760Y-99530000D01*
X136153368Y-99646525D01*
X135946525Y-99853368D01*
X135784010Y-100096589D01*
X135672068Y-100366842D01*
X135615000Y-100653740D01*
X135615000Y-100946260D01*
X135672068Y-101233158D01*
X135784010Y-101503411D01*
X135946525Y-101746632D01*
X136153368Y-101953475D01*
X136327760Y-102070000D01*
X136153368Y-102186525D01*
X135946525Y-102393368D01*
X135784010Y-102636589D01*
X135672068Y-102906842D01*
X135615000Y-103193740D01*
X135615000Y-103486260D01*
X135672068Y-103773158D01*
X135784010Y-104043411D01*
X135946525Y-104286632D01*
X136153368Y-104493475D01*
X136327760Y-104610000D01*
X136153368Y-104726525D01*
X135946525Y-104933368D01*
X135784010Y-105176589D01*
X135672068Y-105446842D01*
X135615000Y-105733740D01*
X135615000Y-106026260D01*
X135672068Y-106313158D01*
X135784010Y-106583411D01*
X135946525Y-106826632D01*
X136153368Y-107033475D01*
X136327760Y-107150000D01*
X136153368Y-107266525D01*
X135946525Y-107473368D01*
X135784010Y-107716589D01*
X135672068Y-107986842D01*
X135615000Y-108273740D01*
X135615000Y-108566260D01*
X135672068Y-108853158D01*
X135784010Y-109123411D01*
X135946525Y-109366632D01*
X136153368Y-109573475D01*
X136327760Y-109690000D01*
X136153368Y-109806525D01*
X135946525Y-110013368D01*
X135784010Y-110256589D01*
X135672068Y-110526842D01*
X135615000Y-110813740D01*
X135615000Y-111106260D01*
X135672068Y-111393158D01*
X135784010Y-111663411D01*
X135946525Y-111906632D01*
X136153368Y-112113475D01*
X136327760Y-112230000D01*
X136153368Y-112346525D01*
X135946525Y-112553368D01*
X135784010Y-112796589D01*
X135672068Y-113066842D01*
X135615000Y-113353740D01*
X135615000Y-113646260D01*
X135672068Y-113933158D01*
X135784010Y-114203411D01*
X135946525Y-114446632D01*
X136153368Y-114653475D01*
X136396589Y-114815990D01*
X136666842Y-114927932D01*
X136953740Y-114985000D01*
X137246260Y-114985000D01*
X137533158Y-114927932D01*
X137803411Y-114815990D01*
X138046632Y-114653475D01*
X138253475Y-114446632D01*
X138382940Y-114252874D01*
X138382939Y-129261619D01*
X138379263Y-129298941D01*
X138382939Y-129336263D01*
X138382939Y-129336273D01*
X138393936Y-129447926D01*
X138416593Y-129522616D01*
X138437393Y-129591187D01*
X138507965Y-129723217D01*
X138547810Y-129771767D01*
X138602938Y-129838942D01*
X138631941Y-129862744D01*
X139164139Y-130394943D01*
X139187938Y-130423942D01*
X139216936Y-130447740D01*
X139303662Y-130518915D01*
X139435692Y-130589487D01*
X139578953Y-130632944D01*
X139690606Y-130643941D01*
X139690616Y-130643941D01*
X139727939Y-130647617D01*
X139765262Y-130643941D01*
X166494140Y-130643941D01*
X174711928Y-138861730D01*
X174711928Y-139825000D01*
X174715847Y-139865000D01*
X172293802Y-139865000D01*
X169656872Y-137228071D01*
X169687500Y-137074092D01*
X169687500Y-136798908D01*
X169633814Y-136529010D01*
X169528505Y-136274773D01*
X169375620Y-136045965D01*
X169181035Y-135851380D01*
X168952227Y-135698495D01*
X168697990Y-135593186D01*
X168428092Y-135539500D01*
X168152908Y-135539500D01*
X167883010Y-135593186D01*
X167628773Y-135698495D01*
X167399965Y-135851380D01*
X167205380Y-136045965D01*
X167052495Y-136274773D01*
X166947186Y-136529010D01*
X166893500Y-136798908D01*
X166893500Y-137074092D01*
X166947186Y-137343990D01*
X167052495Y-137598227D01*
X167205380Y-137827035D01*
X167399965Y-138021620D01*
X167628773Y-138174505D01*
X167883010Y-138279814D01*
X168152908Y-138333500D01*
X168428092Y-138333500D01*
X168582071Y-138302872D01*
X171415201Y-141136003D01*
X171438999Y-141165001D01*
X171554724Y-141259974D01*
X171686753Y-141330546D01*
X171830014Y-141374003D01*
X171941667Y-141385000D01*
X171941675Y-141385000D01*
X171979000Y-141388676D01*
X172016325Y-141385000D01*
X174768954Y-141385000D01*
X174819463Y-141479494D01*
X174898815Y-141576185D01*
X174995506Y-141655537D01*
X175105820Y-141714502D01*
X175225518Y-141750812D01*
X175350000Y-141763072D01*
X176850000Y-141763072D01*
X176974482Y-141750812D01*
X177094180Y-141714502D01*
X177204494Y-141655537D01*
X177301185Y-141576185D01*
X177380537Y-141479494D01*
X177439502Y-141369180D01*
X177475812Y-141249482D01*
X177488072Y-141125000D01*
X177488072Y-140125000D01*
X177475681Y-139999864D01*
X177468091Y-139974936D01*
X177475812Y-139949482D01*
X177488072Y-139825000D01*
X177488072Y-138675000D01*
X177475812Y-138550518D01*
X177439502Y-138430820D01*
X177380537Y-138320506D01*
X177301185Y-138223815D01*
X177204494Y-138144463D01*
X177094180Y-138085498D01*
X176974482Y-138049188D01*
X176850000Y-138036928D01*
X176036730Y-138036928D01*
X167372745Y-129372944D01*
X167348942Y-129343940D01*
X167233217Y-129248967D01*
X167101188Y-129178395D01*
X166957927Y-129134938D01*
X166846274Y-129123941D01*
X166846263Y-129123941D01*
X166808941Y-129120265D01*
X166771619Y-129123941D01*
X161958449Y-129123941D01*
X162002940Y-128900275D01*
X162002940Y-128617605D01*
X161947793Y-128340366D01*
X161839620Y-128079213D01*
X161682577Y-127844181D01*
X161482699Y-127644303D01*
X161250181Y-127488940D01*
X161482699Y-127333577D01*
X161682577Y-127133699D01*
X161839620Y-126898667D01*
X161947793Y-126637514D01*
X162002940Y-126360275D01*
X162002940Y-126077605D01*
X161947793Y-125800366D01*
X161839620Y-125539213D01*
X161682577Y-125304181D01*
X161482699Y-125104303D01*
X161250181Y-124948940D01*
X161482699Y-124793577D01*
X161682577Y-124593699D01*
X161785983Y-124438940D01*
X165968740Y-124438940D01*
X166006062Y-124442616D01*
X166043384Y-124438940D01*
X166043395Y-124438940D01*
X166155048Y-124427943D01*
X166298309Y-124384486D01*
X166430338Y-124313914D01*
X166546063Y-124218941D01*
X166569866Y-124189937D01*
X167786004Y-122973800D01*
X167815002Y-122950002D01*
X167909975Y-122834277D01*
X167980547Y-122702248D01*
X167998885Y-122641794D01*
X168206842Y-122727932D01*
X168493740Y-122785000D01*
X168786260Y-122785000D01*
X169073158Y-122727932D01*
X169343411Y-122615990D01*
X169586632Y-122453475D01*
X169793475Y-122246632D01*
X169910000Y-122072240D01*
X170026525Y-122246632D01*
X170233368Y-122453475D01*
X170476589Y-122615990D01*
X170746842Y-122727932D01*
X171033740Y-122785000D01*
X171326260Y-122785000D01*
X171613158Y-122727932D01*
X171883411Y-122615990D01*
X172126632Y-122453475D01*
X172333475Y-122246632D01*
X172450000Y-122072240D01*
X172566525Y-122246632D01*
X172773368Y-122453475D01*
X173016589Y-122615990D01*
X173286842Y-122727932D01*
X173573740Y-122785000D01*
X173866260Y-122785000D01*
X174153158Y-122727932D01*
X174423411Y-122615990D01*
X174666632Y-122453475D01*
X174873475Y-122246632D01*
X175035990Y-122003411D01*
X175147932Y-121733158D01*
X175205000Y-121446260D01*
X175205000Y-121153740D01*
X175147932Y-120866842D01*
X175035990Y-120596589D01*
X174873475Y-120353368D01*
X174666632Y-120146525D01*
X174423411Y-119984010D01*
X174153158Y-119872068D01*
X173866260Y-119815000D01*
X173573740Y-119815000D01*
X173286842Y-119872068D01*
X173016589Y-119984010D01*
X172773368Y-120146525D01*
X172566525Y-120353368D01*
X172450000Y-120527760D01*
X172333475Y-120353368D01*
X172126632Y-120146525D01*
X171883411Y-119984010D01*
X171613158Y-119872068D01*
X171326260Y-119815000D01*
X171033740Y-119815000D01*
X170746842Y-119872068D01*
X170476589Y-119984010D01*
X170233368Y-120146525D01*
X170026525Y-120353368D01*
X169910000Y-120527760D01*
X169884782Y-120490019D01*
X174231003Y-116143799D01*
X174260001Y-116120001D01*
X174354974Y-116004276D01*
X174425546Y-115872247D01*
X174469003Y-115728986D01*
X174480000Y-115617333D01*
X174480000Y-115617324D01*
X174483676Y-115580001D01*
X174480000Y-115542678D01*
X174480000Y-97178178D01*
X174666632Y-97053475D01*
X174873475Y-96846632D01*
X175035990Y-96603411D01*
X175147932Y-96333158D01*
X175205000Y-96046260D01*
X175205000Y-95753740D01*
X175147932Y-95466842D01*
X175035990Y-95196589D01*
X174873475Y-94953368D01*
X174666632Y-94746525D01*
X174423411Y-94584010D01*
X174153158Y-94472068D01*
X173866260Y-94415000D01*
X173573740Y-94415000D01*
X173286842Y-94472068D01*
X173016589Y-94584010D01*
X172773368Y-94746525D01*
X172566525Y-94953368D01*
X172450000Y-95127760D01*
X172333475Y-94953368D01*
X172126632Y-94746525D01*
X171883411Y-94584010D01*
X171613158Y-94472068D01*
X171326260Y-94415000D01*
X171033740Y-94415000D01*
X170746842Y-94472068D01*
X170476589Y-94584010D01*
X170233368Y-94746525D01*
X170026525Y-94953368D01*
X169864010Y-95196589D01*
X169752068Y-95466842D01*
X169695000Y-95753740D01*
X169695000Y-96046260D01*
X169752068Y-96333158D01*
X169864010Y-96603411D01*
X170026525Y-96846632D01*
X170233368Y-97053475D01*
X170476589Y-97215990D01*
X170746842Y-97327932D01*
X171033740Y-97385000D01*
X171326260Y-97385000D01*
X171546408Y-97341210D01*
X171595001Y-97389803D01*
X171595001Y-99548456D01*
X171326260Y-99495000D01*
X171033740Y-99495000D01*
X170746842Y-99552068D01*
X170476589Y-99664010D01*
X170233368Y-99826525D01*
X170026525Y-100033368D01*
X169864010Y-100276589D01*
X169752068Y-100546842D01*
X169695000Y-100833740D01*
X169695000Y-101126260D01*
X169738790Y-101346408D01*
X167361258Y-103723941D01*
X161958449Y-103723941D01*
X162002940Y-103500275D01*
X162002940Y-103217605D01*
X161947793Y-102940366D01*
X161839620Y-102679213D01*
X161682577Y-102444181D01*
X161482699Y-102244303D01*
X161250181Y-102088940D01*
X161482699Y-101933577D01*
X161682577Y-101733699D01*
X161839620Y-101498667D01*
X161947793Y-101237514D01*
X162002940Y-100960275D01*
X162002940Y-100677605D01*
X161947793Y-100400366D01*
X161839620Y-100139213D01*
X161833465Y-100130000D01*
X164611928Y-100130000D01*
X164611928Y-101830000D01*
X164624188Y-101954482D01*
X164660498Y-102074180D01*
X164719463Y-102184494D01*
X164798815Y-102281185D01*
X164895506Y-102360537D01*
X165005820Y-102419502D01*
X165125518Y-102455812D01*
X165250000Y-102468072D01*
X166950000Y-102468072D01*
X167074482Y-102455812D01*
X167194180Y-102419502D01*
X167304494Y-102360537D01*
X167401185Y-102281185D01*
X167480537Y-102184494D01*
X167539502Y-102074180D01*
X167575812Y-101954482D01*
X167588072Y-101830000D01*
X167588072Y-100130000D01*
X167575812Y-100005518D01*
X167539502Y-99885820D01*
X167480537Y-99775506D01*
X167401185Y-99678815D01*
X167304494Y-99599463D01*
X167194180Y-99540498D01*
X167074482Y-99504188D01*
X166950000Y-99491928D01*
X165250000Y-99491928D01*
X165125518Y-99504188D01*
X165005820Y-99540498D01*
X164895506Y-99599463D01*
X164798815Y-99678815D01*
X164719463Y-99775506D01*
X164660498Y-99885820D01*
X164624188Y-100005518D01*
X164611928Y-100130000D01*
X161833465Y-100130000D01*
X161682577Y-99904181D01*
X161482699Y-99704303D01*
X161247667Y-99547260D01*
X161021304Y-99453498D01*
X161339802Y-99135000D01*
X161401939Y-99135000D01*
X161601898Y-99095226D01*
X161790256Y-99017205D01*
X161959774Y-98903937D01*
X162103937Y-98759774D01*
X162217205Y-98590256D01*
X162295226Y-98401898D01*
X162335000Y-98201939D01*
X162335000Y-97998061D01*
X162295226Y-97798102D01*
X162217205Y-97609744D01*
X162103937Y-97440226D01*
X161959774Y-97296063D01*
X161790256Y-97182795D01*
X161601898Y-97104774D01*
X161435000Y-97071576D01*
X161435000Y-96898061D01*
X161395226Y-96698102D01*
X161379444Y-96660000D01*
X164611928Y-96660000D01*
X164611928Y-96750000D01*
X164624188Y-96874482D01*
X164660498Y-96994180D01*
X164719463Y-97104494D01*
X164798815Y-97201185D01*
X164895506Y-97280537D01*
X165005820Y-97339502D01*
X165125518Y-97375812D01*
X165250000Y-97388072D01*
X166950000Y-97388072D01*
X167074482Y-97375812D01*
X167194180Y-97339502D01*
X167304494Y-97280537D01*
X167401185Y-97201185D01*
X167480537Y-97104494D01*
X167539502Y-96994180D01*
X167575812Y-96874482D01*
X167588072Y-96750000D01*
X167588072Y-95050000D01*
X167575812Y-94925518D01*
X167539502Y-94805820D01*
X167480537Y-94695506D01*
X167401185Y-94598815D01*
X167304494Y-94519463D01*
X167194180Y-94460498D01*
X167074482Y-94424188D01*
X166950000Y-94411928D01*
X165250000Y-94411928D01*
X165125518Y-94424188D01*
X165005820Y-94460498D01*
X164895506Y-94519463D01*
X164798815Y-94598815D01*
X164719463Y-94695506D01*
X164660498Y-94805820D01*
X164624188Y-94925518D01*
X164611928Y-95050000D01*
X164611928Y-95140000D01*
X162207538Y-95140000D01*
X162235000Y-95001939D01*
X162235000Y-94798061D01*
X162195226Y-94598102D01*
X162117205Y-94409744D01*
X162003937Y-94240226D01*
X161859774Y-94096063D01*
X161690256Y-93982795D01*
X161501898Y-93904774D01*
X161301939Y-93865000D01*
X161239802Y-93865000D01*
X158937743Y-91562942D01*
X158913940Y-91533938D01*
X158798215Y-91438965D01*
X158666186Y-91368393D01*
X158522925Y-91324936D01*
X158411272Y-91313939D01*
X158411261Y-91313939D01*
X158373939Y-91310263D01*
X158336617Y-91313939D01*
X147277650Y-91313939D01*
X147233713Y-91270002D01*
X147064195Y-91156734D01*
X146875837Y-91078713D01*
X146675878Y-91038939D01*
X146472000Y-91038939D01*
X146272041Y-91078713D01*
X146083683Y-91156734D01*
X145914165Y-91270002D01*
X145770002Y-91414165D01*
X145656734Y-91583683D01*
X145637658Y-91629737D01*
X143960000Y-89952079D01*
X143960000Y-81187087D01*
X144074482Y-81175812D01*
X144194180Y-81139502D01*
X144304494Y-81080537D01*
X144401185Y-81001185D01*
X144480537Y-80904494D01*
X144539502Y-80794180D01*
X144575812Y-80674482D01*
X144588072Y-80550000D01*
X144588072Y-79427092D01*
X147426169Y-82265189D01*
X147449963Y-82294182D01*
X147478956Y-82317976D01*
X147478960Y-82317980D01*
X147549649Y-82375992D01*
X147565688Y-82389155D01*
X147697717Y-82459727D01*
X147840978Y-82503184D01*
X147952631Y-82514181D01*
X147952640Y-82514181D01*
X147989963Y-82517857D01*
X148027286Y-82514181D01*
X169356697Y-82514181D01*
X169394019Y-82517857D01*
X169431341Y-82514181D01*
X169431352Y-82514181D01*
X169543005Y-82503184D01*
X169686266Y-82459727D01*
X169818295Y-82389155D01*
X169934020Y-82294182D01*
X169957823Y-82265179D01*
X170187655Y-82035347D01*
X170332609Y-82064180D01*
X170605431Y-82064180D01*
X170873009Y-82010955D01*
X171125063Y-81906551D01*
X171351906Y-81754979D01*
X171484020Y-81622865D01*
X171616134Y-81754979D01*
X171842977Y-81906551D01*
X172095031Y-82010955D01*
X172362609Y-82064180D01*
X172635431Y-82064180D01*
X172903009Y-82010955D01*
X173155063Y-81906551D01*
X173381906Y-81754979D01*
X173514020Y-81622865D01*
X173646134Y-81754979D01*
X173872977Y-81906551D01*
X174125031Y-82010955D01*
X174392609Y-82064180D01*
X174665431Y-82064180D01*
X174933009Y-82010955D01*
X175185063Y-81906551D01*
X175411906Y-81754979D01*
X175604819Y-81562066D01*
X175756391Y-81335223D01*
X175860795Y-81083169D01*
X175914020Y-80815591D01*
X175914020Y-80542769D01*
X175860795Y-80275191D01*
X175756391Y-80023137D01*
X175604819Y-79796294D01*
X175411906Y-79603381D01*
X175185063Y-79451809D01*
X174933009Y-79347405D01*
X174830886Y-79327091D01*
X174840795Y-79303169D01*
X174894020Y-79035591D01*
X174894020Y-78762769D01*
X174840795Y-78495191D01*
X174736391Y-78243137D01*
X174584819Y-78016294D01*
X174391906Y-77823381D01*
X174165063Y-77671809D01*
X173913009Y-77567405D01*
X173645431Y-77514180D01*
X173372609Y-77514180D01*
X173105031Y-77567405D01*
X172852977Y-77671809D01*
X172626134Y-77823381D01*
X172494020Y-77955495D01*
X172361906Y-77823381D01*
X172135063Y-77671809D01*
X171883009Y-77567405D01*
X171615431Y-77514180D01*
X171342609Y-77514180D01*
X171197655Y-77543013D01*
X166943644Y-73289003D01*
X166919841Y-73259999D01*
X166804116Y-73165026D01*
X166672087Y-73094454D01*
X166528826Y-73050997D01*
X166417173Y-73040000D01*
X166417162Y-73040000D01*
X166379840Y-73036324D01*
X166342518Y-73040000D01*
X164103711Y-73040000D01*
X164059774Y-72996063D01*
X163890256Y-72882795D01*
X163701898Y-72804774D01*
X163501939Y-72765000D01*
X163298061Y-72765000D01*
X163098102Y-72804774D01*
X162909744Y-72882795D01*
X162740226Y-72996063D01*
X162596063Y-73140226D01*
X162482795Y-73309744D01*
X162404774Y-73498102D01*
X162365000Y-73698061D01*
X162365000Y-73901939D01*
X162404774Y-74101898D01*
X162482795Y-74290256D01*
X162596063Y-74459774D01*
X162740226Y-74603937D01*
X162909744Y-74717205D01*
X163018942Y-74762436D01*
X162862864Y-74918514D01*
X162615534Y-75288669D01*
X162445171Y-75699962D01*
X162358320Y-76136589D01*
X162358320Y-76581771D01*
X162445171Y-77018398D01*
X162615534Y-77429691D01*
X162635134Y-77459024D01*
X162590435Y-77463427D01*
X162352076Y-77535732D01*
X162132402Y-77653150D01*
X161939857Y-77811167D01*
X161781840Y-78003713D01*
X161664422Y-78223387D01*
X161592117Y-78461746D01*
X161573820Y-78647515D01*
X161573820Y-79874746D01*
X161592117Y-80060515D01*
X161664422Y-80298874D01*
X161781840Y-80518548D01*
X161939858Y-80711093D01*
X162132403Y-80869110D01*
X162352077Y-80986528D01*
X162377306Y-80994181D01*
X148304767Y-80994181D01*
X143360586Y-76050000D01*
X153011928Y-76050000D01*
X153011928Y-77750000D01*
X153024188Y-77874482D01*
X153060498Y-77994180D01*
X153119463Y-78104494D01*
X153198815Y-78201185D01*
X153295506Y-78280537D01*
X153405820Y-78339502D01*
X153525518Y-78375812D01*
X153650000Y-78388072D01*
X155350000Y-78388072D01*
X155474482Y-78375812D01*
X155594180Y-78339502D01*
X155704494Y-78280537D01*
X155801185Y-78201185D01*
X155880537Y-78104494D01*
X155939502Y-77994180D01*
X155975812Y-77874482D01*
X155988072Y-77750000D01*
X155988072Y-76050000D01*
X155975812Y-75925518D01*
X155939502Y-75805820D01*
X155880537Y-75695506D01*
X155801185Y-75598815D01*
X155704494Y-75519463D01*
X155594180Y-75460498D01*
X155474482Y-75424188D01*
X155350000Y-75411928D01*
X153650000Y-75411928D01*
X153525518Y-75424188D01*
X153405820Y-75460498D01*
X153295506Y-75519463D01*
X153198815Y-75598815D01*
X153119463Y-75695506D01*
X153060498Y-75805820D01*
X153024188Y-75925518D01*
X153011928Y-76050000D01*
X143360586Y-76050000D01*
X137480097Y-70169513D01*
X137480097Y-70107375D01*
X137440323Y-69907416D01*
X137362302Y-69719058D01*
X137249034Y-69549540D01*
X137193494Y-69494000D01*
X175644608Y-69494000D01*
X176456249Y-69566437D01*
X177213774Y-69773672D01*
X177922625Y-70111777D01*
X178560404Y-70570067D01*
X179106946Y-71134055D01*
X179544977Y-71785913D01*
X179860651Y-72505038D01*
X180045206Y-73273768D01*
X180094001Y-73938221D01*
X180094001Y-77929628D01*
X179996783Y-77811167D01*
X179804237Y-77653150D01*
X179584563Y-77535732D01*
X179346204Y-77463427D01*
X179301506Y-77459025D01*
X179321106Y-77429691D01*
X179491469Y-77018398D01*
X179578320Y-76581771D01*
X179578320Y-76136589D01*
X179491469Y-75699962D01*
X179321106Y-75288669D01*
X179073776Y-74918514D01*
X178758986Y-74603724D01*
X178388831Y-74356394D01*
X177977538Y-74186031D01*
X177540911Y-74099180D01*
X177095729Y-74099180D01*
X176659102Y-74186031D01*
X176247809Y-74356394D01*
X175877654Y-74603724D01*
X175562864Y-74918514D01*
X175315534Y-75288669D01*
X175145171Y-75699962D01*
X175058320Y-76136589D01*
X175058320Y-76581771D01*
X175145171Y-77018398D01*
X175315534Y-77429691D01*
X175562864Y-77799846D01*
X175877654Y-78114636D01*
X176247809Y-78361966D01*
X176659102Y-78532329D01*
X177095729Y-78619180D01*
X177540911Y-78619180D01*
X177842520Y-78559186D01*
X177833820Y-78647515D01*
X177833820Y-79874746D01*
X177852117Y-80060515D01*
X177924422Y-80298874D01*
X178041840Y-80518548D01*
X178199858Y-80711093D01*
X178392403Y-80869110D01*
X178612077Y-80986528D01*
X178850436Y-81058833D01*
X179098320Y-81083248D01*
X179346205Y-81058833D01*
X179584564Y-80986528D01*
X179804238Y-80869110D01*
X179996783Y-80711093D01*
X180094001Y-80592632D01*
X180094000Y-152846078D01*
X180021486Y-153657675D01*
X179814175Y-154415185D01*
X179476001Y-155124002D01*
X179017650Y-155761731D01*
X178453607Y-156308220D01*
X177801710Y-156746184D01*
X177082546Y-157061790D01*
X176313798Y-157246270D01*
X175649335Y-157295000D01*
X123312892Y-157295000D01*
X122501251Y-157222563D01*
X121743726Y-157015328D01*
X121034873Y-156677221D01*
X120382977Y-156208787D01*
X120149539Y-155991862D01*
X118047398Y-153889721D01*
X174865000Y-153889721D01*
X174865000Y-154310279D01*
X174947047Y-154722756D01*
X175107988Y-155111302D01*
X175341637Y-155460983D01*
X175639017Y-155758363D01*
X175988698Y-155992012D01*
X176377244Y-156152953D01*
X176789721Y-156235000D01*
X177210279Y-156235000D01*
X177622756Y-156152953D01*
X178011302Y-155992012D01*
X178360983Y-155758363D01*
X178658363Y-155460983D01*
X178892012Y-155111302D01*
X179052953Y-154722756D01*
X179135000Y-154310279D01*
X179135000Y-153889721D01*
X179052953Y-153477244D01*
X178892012Y-153088698D01*
X178658363Y-152739017D01*
X178360983Y-152441637D01*
X178011302Y-152207988D01*
X177622756Y-152047047D01*
X177210279Y-151965000D01*
X176789721Y-151965000D01*
X176377244Y-152047047D01*
X175988698Y-152207988D01*
X175639017Y-152441637D01*
X175341637Y-152739017D01*
X175107988Y-153088698D01*
X174947047Y-153477244D01*
X174865000Y-153889721D01*
X118047398Y-153889721D01*
X110178879Y-146021203D01*
X109656176Y-145396057D01*
X109267061Y-144713866D01*
X109004905Y-143973561D01*
X108883597Y-143232780D01*
X118014102Y-143232780D01*
X118014102Y-143583016D01*
X118082430Y-143926521D01*
X118216459Y-144250097D01*
X118411039Y-144541307D01*
X118658693Y-144788961D01*
X118949903Y-144983541D01*
X119273479Y-145117570D01*
X119616984Y-145185898D01*
X119967220Y-145185898D01*
X120310725Y-145117570D01*
X120634301Y-144983541D01*
X120925511Y-144788961D01*
X121173165Y-144541307D01*
X121367745Y-144250097D01*
X121501774Y-143926521D01*
X121570102Y-143583016D01*
X121570102Y-143235029D01*
X126733632Y-138071500D01*
X126834616Y-138071500D01*
X126988773Y-138174505D01*
X127243010Y-138279814D01*
X127512908Y-138333500D01*
X127788092Y-138333500D01*
X128057990Y-138279814D01*
X128312227Y-138174505D01*
X128541035Y-138021620D01*
X128735620Y-137827035D01*
X128888505Y-137598227D01*
X128993814Y-137343990D01*
X129047500Y-137074092D01*
X129047500Y-136798908D01*
X128993814Y-136529010D01*
X128888505Y-136274773D01*
X128735620Y-136045965D01*
X128541035Y-135851380D01*
X128312227Y-135698495D01*
X128057990Y-135593186D01*
X127788092Y-135539500D01*
X127512908Y-135539500D01*
X127243010Y-135593186D01*
X126988773Y-135698495D01*
X126834616Y-135801500D01*
X126319252Y-135801500D01*
X126263500Y-135796009D01*
X126207748Y-135801500D01*
X126041001Y-135817923D01*
X125827053Y-135882824D01*
X125629877Y-135988216D01*
X125457051Y-136130051D01*
X125421509Y-136173359D01*
X119964971Y-141629898D01*
X119616984Y-141629898D01*
X119273479Y-141698226D01*
X118949903Y-141832255D01*
X118658693Y-142026835D01*
X118411039Y-142274489D01*
X118216459Y-142565699D01*
X118082430Y-142889275D01*
X118014102Y-143232780D01*
X108883597Y-143232780D01*
X108875178Y-143181369D01*
X108863499Y-142862876D01*
X108863599Y-129000000D01*
X120561928Y-129000000D01*
X120561928Y-130600000D01*
X120574188Y-130724482D01*
X120610498Y-130844180D01*
X120669463Y-130954494D01*
X120748815Y-131051185D01*
X120845506Y-131130537D01*
X120955820Y-131189502D01*
X121075518Y-131225812D01*
X121200000Y-131238072D01*
X122800000Y-131238072D01*
X122924482Y-131225812D01*
X123044180Y-131189502D01*
X123154494Y-131130537D01*
X123251185Y-131051185D01*
X123330537Y-130954494D01*
X123389502Y-130844180D01*
X123425812Y-130724482D01*
X123438072Y-130600000D01*
X123438072Y-129000000D01*
X123425812Y-128875518D01*
X123389502Y-128755820D01*
X123330537Y-128645506D01*
X123251185Y-128548815D01*
X123154494Y-128469463D01*
X123135000Y-128459043D01*
X123135000Y-119170131D01*
X125741988Y-116563144D01*
X125741992Y-116563139D01*
X132863146Y-109441987D01*
X132906449Y-109406449D01*
X133048284Y-109233623D01*
X133153676Y-109036447D01*
X133218577Y-108822499D01*
X133235000Y-108655752D01*
X133240491Y-108600000D01*
X133235000Y-108544248D01*
X133235000Y-97017382D01*
X133368817Y-97017382D01*
X133568776Y-96977608D01*
X133757134Y-96899587D01*
X133926652Y-96786319D01*
X134070815Y-96642156D01*
X134184083Y-96472638D01*
X134262104Y-96284280D01*
X134301878Y-96084321D01*
X134301878Y-95880443D01*
X134262104Y-95680484D01*
X134184083Y-95492126D01*
X134070815Y-95322608D01*
X134026878Y-95278671D01*
X134026878Y-94618713D01*
X134062431Y-94583160D01*
X134175699Y-94413642D01*
X134253720Y-94225284D01*
X134293494Y-94025325D01*
X134293494Y-93821447D01*
X134253720Y-93621488D01*
X134175699Y-93433130D01*
X134062431Y-93263612D01*
X134018494Y-93219675D01*
X134018494Y-91757839D01*
X134049658Y-91726675D01*
X134162926Y-91557157D01*
X134240947Y-91368799D01*
X134280721Y-91168840D01*
X134280721Y-90964962D01*
X134240947Y-90765003D01*
X134162926Y-90576645D01*
X134049658Y-90407127D01*
X133905495Y-90262964D01*
X133735977Y-90149696D01*
X133547619Y-90071675D01*
X133347660Y-90031901D01*
X133143782Y-90031901D01*
X132943823Y-90071675D01*
X132755465Y-90149696D01*
X132669833Y-90206913D01*
X132513447Y-90123324D01*
X132299499Y-90058423D01*
X132132752Y-90042000D01*
X132132751Y-90042000D01*
X132077000Y-90036509D01*
X132021249Y-90042000D01*
X132003228Y-90042000D01*
X131836481Y-90058423D01*
X131622533Y-90123324D01*
X131425357Y-90228716D01*
X131252531Y-90370551D01*
X131110696Y-90543377D01*
X131005304Y-90740553D01*
X130940403Y-90954501D01*
X130918489Y-91177000D01*
X130940403Y-91399499D01*
X130965000Y-91480584D01*
X130965001Y-108129866D01*
X124136861Y-114958008D01*
X124136856Y-114958012D01*
X121236860Y-117858009D01*
X121193552Y-117893551D01*
X121051717Y-118066377D01*
X121015217Y-118134664D01*
X120946324Y-118263554D01*
X120881423Y-118477502D01*
X120859509Y-118700000D01*
X120865001Y-118755761D01*
X120865000Y-128459043D01*
X120845506Y-128469463D01*
X120748815Y-128548815D01*
X120669463Y-128645506D01*
X120610498Y-128755820D01*
X120574188Y-128875518D01*
X120561928Y-129000000D01*
X108863599Y-129000000D01*
X108863639Y-123573740D01*
X111715000Y-123573740D01*
X111715000Y-123866260D01*
X111772068Y-124153158D01*
X111884010Y-124423411D01*
X112046525Y-124666632D01*
X112253368Y-124873475D01*
X112427760Y-124990000D01*
X112253368Y-125106525D01*
X112046525Y-125313368D01*
X111884010Y-125556589D01*
X111772068Y-125826842D01*
X111715000Y-126113740D01*
X111715000Y-126406260D01*
X111772068Y-126693158D01*
X111884010Y-126963411D01*
X112046525Y-127206632D01*
X112253368Y-127413475D01*
X112496589Y-127575990D01*
X112766842Y-127687932D01*
X113053740Y-127745000D01*
X113346260Y-127745000D01*
X113633158Y-127687932D01*
X113903411Y-127575990D01*
X114146632Y-127413475D01*
X114353475Y-127206632D01*
X114515990Y-126963411D01*
X114627932Y-126693158D01*
X114685000Y-126406260D01*
X114685000Y-126113740D01*
X114627932Y-125826842D01*
X114515990Y-125556589D01*
X114353475Y-125313368D01*
X114146632Y-125106525D01*
X113972240Y-124990000D01*
X114146632Y-124873475D01*
X114353475Y-124666632D01*
X114515990Y-124423411D01*
X114627932Y-124153158D01*
X114685000Y-123866260D01*
X114685000Y-123573740D01*
X114627932Y-123286842D01*
X114515990Y-123016589D01*
X114353475Y-122773368D01*
X114146632Y-122566525D01*
X113903411Y-122404010D01*
X113633158Y-122292068D01*
X113346260Y-122235000D01*
X113053740Y-122235000D01*
X112766842Y-122292068D01*
X112496589Y-122404010D01*
X112253368Y-122566525D01*
X112046525Y-122773368D01*
X111884010Y-123016589D01*
X111772068Y-123286842D01*
X111715000Y-123573740D01*
X108863639Y-123573740D01*
X108863787Y-103173740D01*
X111715000Y-103173740D01*
X111715000Y-103466260D01*
X111772068Y-103753158D01*
X111884010Y-104023411D01*
X112046525Y-104266632D01*
X112253368Y-104473475D01*
X112427760Y-104590000D01*
X112253368Y-104706525D01*
X112046525Y-104913368D01*
X111884010Y-105156589D01*
X111772068Y-105426842D01*
X111715000Y-105713740D01*
X111715000Y-106006260D01*
X111772068Y-106293158D01*
X111884010Y-106563411D01*
X112046525Y-106806632D01*
X112253368Y-107013475D01*
X112496589Y-107175990D01*
X112766842Y-107287932D01*
X113053740Y-107345000D01*
X113346260Y-107345000D01*
X113633158Y-107287932D01*
X113903411Y-107175990D01*
X114146632Y-107013475D01*
X114353475Y-106806632D01*
X114515990Y-106563411D01*
X114627932Y-106293158D01*
X114685000Y-106006260D01*
X114685000Y-105713740D01*
X114627932Y-105426842D01*
X114515990Y-105156589D01*
X114353475Y-104913368D01*
X114146632Y-104706525D01*
X113972240Y-104590000D01*
X114146632Y-104473475D01*
X114353475Y-104266632D01*
X114515990Y-104023411D01*
X114627932Y-103753158D01*
X114685000Y-103466260D01*
X114685000Y-103173740D01*
X114627932Y-102886842D01*
X114515990Y-102616589D01*
X114353475Y-102373368D01*
X114146632Y-102166525D01*
X113903411Y-102004010D01*
X113633158Y-101892068D01*
X113346260Y-101835000D01*
X113053740Y-101835000D01*
X112766842Y-101892068D01*
X112496589Y-102004010D01*
X112253368Y-102166525D01*
X112046525Y-102373368D01*
X111884010Y-102616589D01*
X111772068Y-102886842D01*
X111715000Y-103173740D01*
X108863787Y-103173740D01*
X108863902Y-87250000D01*
X115111928Y-87250000D01*
X115111928Y-88950000D01*
X115124188Y-89074482D01*
X115160498Y-89194180D01*
X115219463Y-89304494D01*
X115298815Y-89401185D01*
X115395506Y-89480537D01*
X115505820Y-89539502D01*
X115578380Y-89561513D01*
X115446525Y-89693368D01*
X115284010Y-89936589D01*
X115172068Y-90206842D01*
X115115000Y-90493740D01*
X115115000Y-90786260D01*
X115172068Y-91073158D01*
X115284010Y-91343411D01*
X115446525Y-91586632D01*
X115653368Y-91793475D01*
X115827760Y-91910000D01*
X115653368Y-92026525D01*
X115446525Y-92233368D01*
X115284010Y-92476589D01*
X115172068Y-92746842D01*
X115115000Y-93033740D01*
X115115000Y-93326260D01*
X115172068Y-93613158D01*
X115284010Y-93883411D01*
X115446525Y-94126632D01*
X115653368Y-94333475D01*
X115827760Y-94450000D01*
X115653368Y-94566525D01*
X115446525Y-94773368D01*
X115284010Y-95016589D01*
X115172068Y-95286842D01*
X115115000Y-95573740D01*
X115115000Y-95866260D01*
X115172068Y-96153158D01*
X115284010Y-96423411D01*
X115446525Y-96666632D01*
X115653368Y-96873475D01*
X115827760Y-96990000D01*
X115653368Y-97106525D01*
X115446525Y-97313368D01*
X115284010Y-97556589D01*
X115172068Y-97826842D01*
X115115000Y-98113740D01*
X115115000Y-98406260D01*
X115172068Y-98693158D01*
X115284010Y-98963411D01*
X115446525Y-99206632D01*
X115653368Y-99413475D01*
X115827760Y-99530000D01*
X115653368Y-99646525D01*
X115446525Y-99853368D01*
X115284010Y-100096589D01*
X115172068Y-100366842D01*
X115115000Y-100653740D01*
X115115000Y-100946260D01*
X115172068Y-101233158D01*
X115284010Y-101503411D01*
X115446525Y-101746632D01*
X115653368Y-101953475D01*
X115827760Y-102070000D01*
X115653368Y-102186525D01*
X115446525Y-102393368D01*
X115284010Y-102636589D01*
X115172068Y-102906842D01*
X115115000Y-103193740D01*
X115115000Y-103486260D01*
X115172068Y-103773158D01*
X115284010Y-104043411D01*
X115446525Y-104286632D01*
X115653368Y-104493475D01*
X115827760Y-104610000D01*
X115653368Y-104726525D01*
X115446525Y-104933368D01*
X115284010Y-105176589D01*
X115172068Y-105446842D01*
X115115000Y-105733740D01*
X115115000Y-106026260D01*
X115172068Y-106313158D01*
X115284010Y-106583411D01*
X115446525Y-106826632D01*
X115653368Y-107033475D01*
X115827760Y-107150000D01*
X115653368Y-107266525D01*
X115446525Y-107473368D01*
X115284010Y-107716589D01*
X115172068Y-107986842D01*
X115115000Y-108273740D01*
X115115000Y-108566260D01*
X115172068Y-108853158D01*
X115284010Y-109123411D01*
X115446525Y-109366632D01*
X115653368Y-109573475D01*
X115827760Y-109690000D01*
X115653368Y-109806525D01*
X115446525Y-110013368D01*
X115284010Y-110256589D01*
X115172068Y-110526842D01*
X115115000Y-110813740D01*
X115115000Y-111106260D01*
X115172068Y-111393158D01*
X115284010Y-111663411D01*
X115446525Y-111906632D01*
X115653368Y-112113475D01*
X115827760Y-112230000D01*
X115653368Y-112346525D01*
X115446525Y-112553368D01*
X115284010Y-112796589D01*
X115172068Y-113066842D01*
X115115000Y-113353740D01*
X115115000Y-113646260D01*
X115172068Y-113933158D01*
X115284010Y-114203411D01*
X115446525Y-114446632D01*
X115653368Y-114653475D01*
X115896589Y-114815990D01*
X116166842Y-114927932D01*
X116453740Y-114985000D01*
X116746260Y-114985000D01*
X117033158Y-114927932D01*
X117303411Y-114815990D01*
X117546632Y-114653475D01*
X117753475Y-114446632D01*
X117915990Y-114203411D01*
X118027932Y-113933158D01*
X118085000Y-113646260D01*
X118085000Y-113353740D01*
X118027932Y-113066842D01*
X117915990Y-112796589D01*
X117753475Y-112553368D01*
X117546632Y-112346525D01*
X117372240Y-112230000D01*
X117546632Y-112113475D01*
X117753475Y-111906632D01*
X117915990Y-111663411D01*
X118027932Y-111393158D01*
X118085000Y-111106260D01*
X118085000Y-110813740D01*
X118027932Y-110526842D01*
X117915990Y-110256589D01*
X117753475Y-110013368D01*
X117546632Y-109806525D01*
X117372240Y-109690000D01*
X117546632Y-109573475D01*
X117753475Y-109366632D01*
X117915990Y-109123411D01*
X118027932Y-108853158D01*
X118085000Y-108566260D01*
X118085000Y-108273740D01*
X118027932Y-107986842D01*
X117915990Y-107716589D01*
X117753475Y-107473368D01*
X117546632Y-107266525D01*
X117372240Y-107150000D01*
X117546632Y-107033475D01*
X117753475Y-106826632D01*
X117915990Y-106583411D01*
X118027932Y-106313158D01*
X118085000Y-106026260D01*
X118085000Y-105733740D01*
X118027932Y-105446842D01*
X117915990Y-105176589D01*
X117753475Y-104933368D01*
X117546632Y-104726525D01*
X117372240Y-104610000D01*
X117546632Y-104493475D01*
X117753475Y-104286632D01*
X117915990Y-104043411D01*
X118027932Y-103773158D01*
X118085000Y-103486260D01*
X118085000Y-103193740D01*
X118027932Y-102906842D01*
X117915990Y-102636589D01*
X117753475Y-102393368D01*
X117546632Y-102186525D01*
X117372240Y-102070000D01*
X117546632Y-101953475D01*
X117753475Y-101746632D01*
X117915990Y-101503411D01*
X118027932Y-101233158D01*
X118085000Y-100946260D01*
X118085000Y-100653740D01*
X118027932Y-100366842D01*
X117915990Y-100096589D01*
X117753475Y-99853368D01*
X117546632Y-99646525D01*
X117372240Y-99530000D01*
X117546632Y-99413475D01*
X117753475Y-99206632D01*
X117915990Y-98963411D01*
X118027932Y-98693158D01*
X118085000Y-98406260D01*
X118085000Y-98113740D01*
X118027932Y-97826842D01*
X117915990Y-97556589D01*
X117753475Y-97313368D01*
X117546632Y-97106525D01*
X117372240Y-96990000D01*
X117546632Y-96873475D01*
X117753475Y-96666632D01*
X117812922Y-96577663D01*
X123096502Y-96577663D01*
X123096502Y-96781541D01*
X123136276Y-96981500D01*
X123214297Y-97169858D01*
X123327565Y-97339376D01*
X123471728Y-97483539D01*
X123641246Y-97596807D01*
X123829604Y-97674828D01*
X124029563Y-97714602D01*
X124233441Y-97714602D01*
X124433400Y-97674828D01*
X124621758Y-97596807D01*
X124791276Y-97483539D01*
X124835213Y-97439602D01*
X128492596Y-97439602D01*
X128536649Y-97483655D01*
X128706167Y-97596923D01*
X128894525Y-97674944D01*
X129094484Y-97714718D01*
X129298362Y-97714718D01*
X129498321Y-97674944D01*
X129686679Y-97596923D01*
X129856197Y-97483655D01*
X130000360Y-97339492D01*
X130113628Y-97169974D01*
X130191649Y-96981616D01*
X130231423Y-96781657D01*
X130231423Y-96577779D01*
X130191649Y-96377820D01*
X130113628Y-96189462D01*
X130000360Y-96019944D01*
X129856197Y-95875781D01*
X129686679Y-95762513D01*
X129498321Y-95684492D01*
X129298362Y-95644718D01*
X129094484Y-95644718D01*
X128894525Y-95684492D01*
X128706167Y-95762513D01*
X128536649Y-95875781D01*
X128492828Y-95919602D01*
X124835213Y-95919602D01*
X124791276Y-95875665D01*
X124621758Y-95762397D01*
X124433400Y-95684376D01*
X124233441Y-95644602D01*
X124029563Y-95644602D01*
X123829604Y-95684376D01*
X123641246Y-95762397D01*
X123471728Y-95875665D01*
X123327565Y-96019828D01*
X123214297Y-96189346D01*
X123136276Y-96377704D01*
X123096502Y-96577663D01*
X117812922Y-96577663D01*
X117915990Y-96423411D01*
X118027932Y-96153158D01*
X118085000Y-95866260D01*
X118085000Y-95573740D01*
X118027932Y-95286842D01*
X117915990Y-95016589D01*
X117753475Y-94773368D01*
X117546632Y-94566525D01*
X117372240Y-94450000D01*
X117546632Y-94333475D01*
X117753475Y-94126632D01*
X117915990Y-93883411D01*
X118027932Y-93613158D01*
X118085000Y-93326260D01*
X118085000Y-93033740D01*
X118027932Y-92746842D01*
X117915990Y-92476589D01*
X117753475Y-92233368D01*
X117546632Y-92026525D01*
X117372240Y-91910000D01*
X117546632Y-91793475D01*
X117753475Y-91586632D01*
X117915990Y-91343411D01*
X118027932Y-91073158D01*
X118085000Y-90786260D01*
X118085000Y-90493740D01*
X118027932Y-90206842D01*
X117915990Y-89936589D01*
X117753475Y-89693368D01*
X117621620Y-89561513D01*
X117694180Y-89539502D01*
X117804494Y-89480537D01*
X117901185Y-89401185D01*
X117980537Y-89304494D01*
X118039502Y-89194180D01*
X118075812Y-89074482D01*
X118088072Y-88950000D01*
X118088072Y-87953740D01*
X135615000Y-87953740D01*
X135615000Y-88246260D01*
X135672068Y-88533158D01*
X135784010Y-88803411D01*
X135946525Y-89046632D01*
X136153368Y-89253475D01*
X136396589Y-89415990D01*
X136666842Y-89527932D01*
X136953740Y-89585000D01*
X137246260Y-89585000D01*
X137533158Y-89527932D01*
X137803411Y-89415990D01*
X138046632Y-89253475D01*
X138253475Y-89046632D01*
X138415990Y-88803411D01*
X138527932Y-88533158D01*
X138585000Y-88246260D01*
X138585000Y-87953740D01*
X138527932Y-87666842D01*
X138415990Y-87396589D01*
X138253475Y-87153368D01*
X138046632Y-86946525D01*
X137803411Y-86784010D01*
X137533158Y-86672068D01*
X137246260Y-86615000D01*
X136953740Y-86615000D01*
X136666842Y-86672068D01*
X136396589Y-86784010D01*
X136153368Y-86946525D01*
X135946525Y-87153368D01*
X135784010Y-87396589D01*
X135672068Y-87666842D01*
X135615000Y-87953740D01*
X118088072Y-87953740D01*
X118088072Y-87250000D01*
X118075812Y-87125518D01*
X118039502Y-87005820D01*
X117980537Y-86895506D01*
X117901185Y-86798815D01*
X117804494Y-86719463D01*
X117694180Y-86660498D01*
X117574482Y-86624188D01*
X117450000Y-86611928D01*
X115750000Y-86611928D01*
X115625518Y-86624188D01*
X115505820Y-86660498D01*
X115395506Y-86719463D01*
X115298815Y-86798815D01*
X115219463Y-86895506D01*
X115160498Y-87005820D01*
X115124188Y-87125518D01*
X115111928Y-87250000D01*
X108863902Y-87250000D01*
X108863935Y-82773740D01*
X111715000Y-82773740D01*
X111715000Y-83066260D01*
X111772068Y-83353158D01*
X111884010Y-83623411D01*
X112046525Y-83866632D01*
X112253368Y-84073475D01*
X112427760Y-84190000D01*
X112253368Y-84306525D01*
X112046525Y-84513368D01*
X111884010Y-84756589D01*
X111772068Y-85026842D01*
X111715000Y-85313740D01*
X111715000Y-85606260D01*
X111772068Y-85893158D01*
X111884010Y-86163411D01*
X112046525Y-86406632D01*
X112253368Y-86613475D01*
X112496589Y-86775990D01*
X112766842Y-86887932D01*
X113053740Y-86945000D01*
X113346260Y-86945000D01*
X113633158Y-86887932D01*
X113903411Y-86775990D01*
X114146632Y-86613475D01*
X114353475Y-86406632D01*
X114515990Y-86163411D01*
X114627932Y-85893158D01*
X114685000Y-85606260D01*
X114685000Y-85313740D01*
X114627932Y-85026842D01*
X114515990Y-84756589D01*
X114353475Y-84513368D01*
X114146632Y-84306525D01*
X113972240Y-84190000D01*
X114146632Y-84073475D01*
X114353475Y-83866632D01*
X114515990Y-83623411D01*
X114627932Y-83353158D01*
X114685000Y-83066260D01*
X114685000Y-82773740D01*
X114627932Y-82486842D01*
X114515990Y-82216589D01*
X114353475Y-81973368D01*
X114146632Y-81766525D01*
X113903411Y-81604010D01*
X113633158Y-81492068D01*
X113346260Y-81435000D01*
X113053740Y-81435000D01*
X112766842Y-81492068D01*
X112496589Y-81604010D01*
X112253368Y-81766525D01*
X112046525Y-81973368D01*
X111884010Y-82216589D01*
X111772068Y-82486842D01*
X111715000Y-82773740D01*
X108863935Y-82773740D01*
X108864000Y-73943397D01*
X108936437Y-73131751D01*
X109121924Y-72453721D01*
X109899000Y-72453721D01*
X109899000Y-72874279D01*
X109981047Y-73286756D01*
X110141988Y-73675302D01*
X110375637Y-74024983D01*
X110673017Y-74322363D01*
X111022698Y-74556012D01*
X111411244Y-74716953D01*
X111823721Y-74799000D01*
X112244279Y-74799000D01*
X112656756Y-74716953D01*
X113045302Y-74556012D01*
X113394983Y-74322363D01*
X113692363Y-74024983D01*
X113926012Y-73675302D01*
X114086953Y-73286756D01*
X114169000Y-72874279D01*
X114169000Y-72453721D01*
X114086953Y-72041244D01*
X113927794Y-71657000D01*
X123918928Y-71657000D01*
X123918928Y-73943000D01*
X123931188Y-74067482D01*
X123967498Y-74187180D01*
X124026463Y-74297494D01*
X124105815Y-74394185D01*
X124202506Y-74473537D01*
X124312820Y-74532502D01*
X124432518Y-74568812D01*
X124557000Y-74581072D01*
X126843000Y-74581072D01*
X126967482Y-74568812D01*
X127087180Y-74532502D01*
X127197494Y-74473537D01*
X127294185Y-74394185D01*
X127373537Y-74297494D01*
X127432502Y-74187180D01*
X127468812Y-74067482D01*
X127481072Y-73943000D01*
X127481072Y-72624882D01*
X129002000Y-72624882D01*
X129002000Y-72975118D01*
X129070328Y-73318623D01*
X129204357Y-73642199D01*
X129398937Y-73933409D01*
X129646591Y-74181063D01*
X129937801Y-74375643D01*
X130261377Y-74509672D01*
X130604882Y-74578000D01*
X130955118Y-74578000D01*
X131298623Y-74509672D01*
X131622199Y-74375643D01*
X131913409Y-74181063D01*
X132161063Y-73933409D01*
X132355643Y-73642199D01*
X132489672Y-73318623D01*
X132558000Y-72975118D01*
X132558000Y-72624882D01*
X132489672Y-72281377D01*
X132355643Y-71957801D01*
X132161063Y-71666591D01*
X131913409Y-71418937D01*
X131622199Y-71224357D01*
X131298623Y-71090328D01*
X130955118Y-71022000D01*
X130604882Y-71022000D01*
X130261377Y-71090328D01*
X129937801Y-71224357D01*
X129646591Y-71418937D01*
X129398937Y-71666591D01*
X129204357Y-71957801D01*
X129070328Y-72281377D01*
X129002000Y-72624882D01*
X127481072Y-72624882D01*
X127481072Y-71657000D01*
X127468812Y-71532518D01*
X127432502Y-71412820D01*
X127373537Y-71302506D01*
X127294185Y-71205815D01*
X127197494Y-71126463D01*
X127087180Y-71067498D01*
X126967482Y-71031188D01*
X126843000Y-71018928D01*
X124557000Y-71018928D01*
X124432518Y-71031188D01*
X124312820Y-71067498D01*
X124202506Y-71126463D01*
X124105815Y-71205815D01*
X124026463Y-71302506D01*
X123967498Y-71412820D01*
X123931188Y-71532518D01*
X123918928Y-71657000D01*
X113927794Y-71657000D01*
X113926012Y-71652698D01*
X113692363Y-71303017D01*
X113394983Y-71005637D01*
X113045302Y-70771988D01*
X112656756Y-70611047D01*
X112244279Y-70529000D01*
X111823721Y-70529000D01*
X111411244Y-70611047D01*
X111022698Y-70771988D01*
X110673017Y-71005637D01*
X110375637Y-71303017D01*
X110141988Y-71652698D01*
X109981047Y-72041244D01*
X109899000Y-72453721D01*
X109121924Y-72453721D01*
X109143672Y-72374226D01*
X109481777Y-71665375D01*
X109940067Y-71027596D01*
X110504055Y-70481054D01*
X111155913Y-70043023D01*
X111875038Y-69727349D01*
X112643768Y-69542794D01*
X113308207Y-69494000D01*
X119806473Y-69494000D01*
X119804774Y-69498102D01*
G37*
X119804774Y-69498102D02*
X119765000Y-69698061D01*
X119765000Y-69901939D01*
X119804774Y-70101898D01*
X119882795Y-70290256D01*
X119996063Y-70459774D01*
X120140226Y-70603937D01*
X120309744Y-70717205D01*
X120498102Y-70795226D01*
X120698061Y-70835000D01*
X120773721Y-70835000D01*
X120785038Y-70844288D01*
X120917067Y-70914860D01*
X121060328Y-70958317D01*
X121171981Y-70969314D01*
X121171990Y-70969314D01*
X121209313Y-70972990D01*
X121246636Y-70969314D01*
X135741386Y-70969314D01*
X135785323Y-71013251D01*
X135954841Y-71126519D01*
X136143199Y-71204540D01*
X136343158Y-71244314D01*
X136405296Y-71244314D01*
X143572909Y-78411928D01*
X142450000Y-78411928D01*
X142325518Y-78424188D01*
X142205820Y-78460498D01*
X142095506Y-78519463D01*
X141998815Y-78598815D01*
X141919463Y-78695506D01*
X141860498Y-78805820D01*
X141824188Y-78925518D01*
X141811928Y-79050000D01*
X141811928Y-80550000D01*
X141824188Y-80674482D01*
X141860498Y-80794180D01*
X141919463Y-80904494D01*
X141998815Y-81001185D01*
X142095506Y-81080537D01*
X142205820Y-81139502D01*
X142325518Y-81175812D01*
X142440000Y-81187087D01*
X142440001Y-89952077D01*
X141706012Y-90686066D01*
X141706012Y-89858940D01*
X141693752Y-89734458D01*
X141657442Y-89614760D01*
X141598477Y-89504446D01*
X141519125Y-89407755D01*
X141422434Y-89328403D01*
X141312120Y-89269438D01*
X141192422Y-89233128D01*
X141067940Y-89220868D01*
X139467940Y-89220868D01*
X139343458Y-89233128D01*
X139223760Y-89269438D01*
X139113446Y-89328403D01*
X139016755Y-89407755D01*
X138937403Y-89504446D01*
X138878438Y-89614760D01*
X138842128Y-89734458D01*
X138829868Y-89858940D01*
X138829868Y-91458940D01*
X138842128Y-91583422D01*
X138878438Y-91703120D01*
X138937403Y-91813434D01*
X139016755Y-91910125D01*
X139113446Y-91989477D01*
X139223760Y-92048442D01*
X139343458Y-92084752D01*
X139351901Y-92085583D01*
X139153303Y-92284181D01*
X138996260Y-92519213D01*
X138888087Y-92780366D01*
X138832940Y-93057605D01*
X138832940Y-93340275D01*
X138888087Y-93617514D01*
X138996260Y-93878667D01*
X139153303Y-94113699D01*
X139353181Y-94313577D01*
X139585699Y-94468940D01*
X139353181Y-94624303D01*
X139153303Y-94824181D01*
X138996260Y-95059213D01*
X138888087Y-95320366D01*
X138832940Y-95597605D01*
X138832940Y-95880275D01*
X138888087Y-96157514D01*
X138996260Y-96418667D01*
X139153303Y-96653699D01*
X139353181Y-96853577D01*
X139588213Y-97010620D01*
X139849366Y-97118793D01*
X140126605Y-97173940D01*
X140409275Y-97173940D01*
X140686514Y-97118793D01*
X140947667Y-97010620D01*
X141182699Y-96853577D01*
X141382577Y-96653699D01*
X141539620Y-96418667D01*
X141647793Y-96157514D01*
X141702940Y-95880275D01*
X141702940Y-95597605D01*
X141647793Y-95320366D01*
X141539620Y-95059213D01*
X141382577Y-94824181D01*
X141182699Y-94624303D01*
X140950181Y-94468940D01*
X141182699Y-94313577D01*
X141382577Y-94113699D01*
X141539620Y-93878667D01*
X141647793Y-93617514D01*
X141702940Y-93340275D01*
X141702940Y-93057605D01*
X141666628Y-92875054D01*
X143200000Y-91341681D01*
X148269320Y-96411002D01*
X148293119Y-96440001D01*
X148408844Y-96534974D01*
X148540873Y-96605546D01*
X148684134Y-96649003D01*
X148795787Y-96660000D01*
X148795795Y-96660000D01*
X148833120Y-96663676D01*
X148870445Y-96660000D01*
X159420556Y-96660000D01*
X159404774Y-96698102D01*
X159365000Y-96898061D01*
X159365000Y-96960198D01*
X156266259Y-100058940D01*
X141485983Y-100058940D01*
X141382577Y-99904181D01*
X141182699Y-99704303D01*
X140947667Y-99547260D01*
X140686514Y-99439087D01*
X140409275Y-99383940D01*
X140126605Y-99383940D01*
X139849366Y-99439087D01*
X139588213Y-99547260D01*
X139353181Y-99704303D01*
X139153303Y-99904181D01*
X138996260Y-100139213D01*
X138888087Y-100400366D01*
X138832940Y-100677605D01*
X138832940Y-100960275D01*
X138888087Y-101237514D01*
X138996260Y-101498667D01*
X139153303Y-101733699D01*
X139353181Y-101933577D01*
X139585699Y-102088940D01*
X139353181Y-102244303D01*
X139153303Y-102444181D01*
X138996260Y-102679213D01*
X138888087Y-102940366D01*
X138832940Y-103217605D01*
X138832940Y-103500275D01*
X138888087Y-103777514D01*
X138996260Y-104038667D01*
X139153303Y-104273699D01*
X139353181Y-104473577D01*
X139585699Y-104628940D01*
X139353181Y-104784303D01*
X139153303Y-104984181D01*
X138996260Y-105219213D01*
X138888087Y-105480366D01*
X138832940Y-105757605D01*
X138832940Y-106040275D01*
X138888087Y-106317514D01*
X138996260Y-106578667D01*
X139153303Y-106813699D01*
X139153340Y-106813736D01*
X138631937Y-107335140D01*
X138602939Y-107358938D01*
X138579141Y-107387936D01*
X138579140Y-107387937D01*
X138507965Y-107474663D01*
X138437393Y-107606693D01*
X138407783Y-107704307D01*
X138253475Y-107473368D01*
X138046632Y-107266525D01*
X137872240Y-107150000D01*
X138046632Y-107033475D01*
X138253475Y-106826632D01*
X138415990Y-106583411D01*
X138527932Y-106313158D01*
X138585000Y-106026260D01*
X138585000Y-105733740D01*
X138527932Y-105446842D01*
X138415990Y-105176589D01*
X138253475Y-104933368D01*
X138046632Y-104726525D01*
X137872240Y-104610000D01*
X138046632Y-104493475D01*
X138253475Y-104286632D01*
X138415990Y-104043411D01*
X138527932Y-103773158D01*
X138585000Y-103486260D01*
X138585000Y-103193740D01*
X138527932Y-102906842D01*
X138415990Y-102636589D01*
X138253475Y-102393368D01*
X138046632Y-102186525D01*
X137872240Y-102070000D01*
X138046632Y-101953475D01*
X138253475Y-101746632D01*
X138415990Y-101503411D01*
X138527932Y-101233158D01*
X138585000Y-100946260D01*
X138585000Y-100653740D01*
X138527932Y-100366842D01*
X138415990Y-100096589D01*
X138253475Y-99853368D01*
X138046632Y-99646525D01*
X137872240Y-99530000D01*
X138046632Y-99413475D01*
X138253475Y-99206632D01*
X138415990Y-98963411D01*
X138527932Y-98693158D01*
X138585000Y-98406260D01*
X138585000Y-98113740D01*
X138527932Y-97826842D01*
X138415990Y-97556589D01*
X138253475Y-97313368D01*
X138046632Y-97106525D01*
X137872240Y-96990000D01*
X138046632Y-96873475D01*
X138253475Y-96666632D01*
X138415990Y-96423411D01*
X138527932Y-96153158D01*
X138585000Y-95866260D01*
X138585000Y-95573740D01*
X138527932Y-95286842D01*
X138415990Y-95016589D01*
X138253475Y-94773368D01*
X138046632Y-94566525D01*
X137872240Y-94450000D01*
X138046632Y-94333475D01*
X138253475Y-94126632D01*
X138415990Y-93883411D01*
X138527932Y-93613158D01*
X138585000Y-93326260D01*
X138585000Y-93033740D01*
X138527932Y-92746842D01*
X138415990Y-92476589D01*
X138253475Y-92233368D01*
X138046632Y-92026525D01*
X137803411Y-91864010D01*
X137533158Y-91752068D01*
X137246260Y-91695000D01*
X136953740Y-91695000D01*
X136666842Y-91752068D01*
X136396589Y-91864010D01*
X136153368Y-92026525D01*
X135946525Y-92233368D01*
X135784010Y-92476589D01*
X135672068Y-92746842D01*
X135615000Y-93033740D01*
X135615000Y-93326260D01*
X135672068Y-93613158D01*
X135784010Y-93883411D01*
X135946525Y-94126632D01*
X136153368Y-94333475D01*
X136327760Y-94450000D01*
X136153368Y-94566525D01*
X135946525Y-94773368D01*
X135784010Y-95016589D01*
X135672068Y-95286842D01*
X135615000Y-95573740D01*
X135615000Y-95866260D01*
X135672068Y-96153158D01*
X135784010Y-96423411D01*
X135946525Y-96666632D01*
X136153368Y-96873475D01*
X136327760Y-96990000D01*
X136153368Y-97106525D01*
X135946525Y-97313368D01*
X135784010Y-97556589D01*
X135672068Y-97826842D01*
X135615000Y-98113740D01*
X135615000Y-98406260D01*
X135672068Y-98693158D01*
X135784010Y-98963411D01*
X135946525Y-99206632D01*
X136153368Y-99413475D01*
X136327760Y-99530000D01*
X136153368Y-99646525D01*
X135946525Y-99853368D01*
X135784010Y-100096589D01*
X135672068Y-100366842D01*
X135615000Y-100653740D01*
X135615000Y-100946260D01*
X135672068Y-101233158D01*
X135784010Y-101503411D01*
X135946525Y-101746632D01*
X136153368Y-101953475D01*
X136327760Y-102070000D01*
X136153368Y-102186525D01*
X135946525Y-102393368D01*
X135784010Y-102636589D01*
X135672068Y-102906842D01*
X135615000Y-103193740D01*
X135615000Y-103486260D01*
X135672068Y-103773158D01*
X135784010Y-104043411D01*
X135946525Y-104286632D01*
X136153368Y-104493475D01*
X136327760Y-104610000D01*
X136153368Y-104726525D01*
X135946525Y-104933368D01*
X135784010Y-105176589D01*
X135672068Y-105446842D01*
X135615000Y-105733740D01*
X135615000Y-106026260D01*
X135672068Y-106313158D01*
X135784010Y-106583411D01*
X135946525Y-106826632D01*
X136153368Y-107033475D01*
X136327760Y-107150000D01*
X136153368Y-107266525D01*
X135946525Y-107473368D01*
X135784010Y-107716589D01*
X135672068Y-107986842D01*
X135615000Y-108273740D01*
X135615000Y-108566260D01*
X135672068Y-108853158D01*
X135784010Y-109123411D01*
X135946525Y-109366632D01*
X136153368Y-109573475D01*
X136327760Y-109690000D01*
X136153368Y-109806525D01*
X135946525Y-110013368D01*
X135784010Y-110256589D01*
X135672068Y-110526842D01*
X135615000Y-110813740D01*
X135615000Y-111106260D01*
X135672068Y-111393158D01*
X135784010Y-111663411D01*
X135946525Y-111906632D01*
X136153368Y-112113475D01*
X136327760Y-112230000D01*
X136153368Y-112346525D01*
X135946525Y-112553368D01*
X135784010Y-112796589D01*
X135672068Y-113066842D01*
X135615000Y-113353740D01*
X135615000Y-113646260D01*
X135672068Y-113933158D01*
X135784010Y-114203411D01*
X135946525Y-114446632D01*
X136153368Y-114653475D01*
X136396589Y-114815990D01*
X136666842Y-114927932D01*
X136953740Y-114985000D01*
X137246260Y-114985000D01*
X137533158Y-114927932D01*
X137803411Y-114815990D01*
X138046632Y-114653475D01*
X138253475Y-114446632D01*
X138382940Y-114252874D01*
X138382939Y-129261619D01*
X138379263Y-129298941D01*
X138382939Y-129336263D01*
X138382939Y-129336273D01*
X138393936Y-129447926D01*
X138416593Y-129522616D01*
X138437393Y-129591187D01*
X138507965Y-129723217D01*
X138547810Y-129771767D01*
X138602938Y-129838942D01*
X138631941Y-129862744D01*
X139164139Y-130394943D01*
X139187938Y-130423942D01*
X139216936Y-130447740D01*
X139303662Y-130518915D01*
X139435692Y-130589487D01*
X139578953Y-130632944D01*
X139690606Y-130643941D01*
X139690616Y-130643941D01*
X139727939Y-130647617D01*
X139765262Y-130643941D01*
X166494140Y-130643941D01*
X174711928Y-138861730D01*
X174711928Y-139825000D01*
X174715847Y-139865000D01*
X172293802Y-139865000D01*
X169656872Y-137228071D01*
X169687500Y-137074092D01*
X169687500Y-136798908D01*
X169633814Y-136529010D01*
X169528505Y-136274773D01*
X169375620Y-136045965D01*
X169181035Y-135851380D01*
X168952227Y-135698495D01*
X168697990Y-135593186D01*
X168428092Y-135539500D01*
X168152908Y-135539500D01*
X167883010Y-135593186D01*
X167628773Y-135698495D01*
X167399965Y-135851380D01*
X167205380Y-136045965D01*
X167052495Y-136274773D01*
X166947186Y-136529010D01*
X166893500Y-136798908D01*
X166893500Y-137074092D01*
X166947186Y-137343990D01*
X167052495Y-137598227D01*
X167205380Y-137827035D01*
X167399965Y-138021620D01*
X167628773Y-138174505D01*
X167883010Y-138279814D01*
X168152908Y-138333500D01*
X168428092Y-138333500D01*
X168582071Y-138302872D01*
X171415201Y-141136003D01*
X171438999Y-141165001D01*
X171554724Y-141259974D01*
X171686753Y-141330546D01*
X171830014Y-141374003D01*
X171941667Y-141385000D01*
X171941675Y-141385000D01*
X171979000Y-141388676D01*
X172016325Y-141385000D01*
X174768954Y-141385000D01*
X174819463Y-141479494D01*
X174898815Y-141576185D01*
X174995506Y-141655537D01*
X175105820Y-141714502D01*
X175225518Y-141750812D01*
X175350000Y-141763072D01*
X176850000Y-141763072D01*
X176974482Y-141750812D01*
X177094180Y-141714502D01*
X177204494Y-141655537D01*
X177301185Y-141576185D01*
X177380537Y-141479494D01*
X177439502Y-141369180D01*
X177475812Y-141249482D01*
X177488072Y-141125000D01*
X177488072Y-140125000D01*
X177475681Y-139999864D01*
X177468091Y-139974936D01*
X177475812Y-139949482D01*
X177488072Y-139825000D01*
X177488072Y-138675000D01*
X177475812Y-138550518D01*
X177439502Y-138430820D01*
X177380537Y-138320506D01*
X177301185Y-138223815D01*
X177204494Y-138144463D01*
X177094180Y-138085498D01*
X176974482Y-138049188D01*
X176850000Y-138036928D01*
X176036730Y-138036928D01*
X167372745Y-129372944D01*
X167348942Y-129343940D01*
X167233217Y-129248967D01*
X167101188Y-129178395D01*
X166957927Y-129134938D01*
X166846274Y-129123941D01*
X166846263Y-129123941D01*
X166808941Y-129120265D01*
X166771619Y-129123941D01*
X161958449Y-129123941D01*
X162002940Y-128900275D01*
X162002940Y-128617605D01*
X161947793Y-128340366D01*
X161839620Y-128079213D01*
X161682577Y-127844181D01*
X161482699Y-127644303D01*
X161250181Y-127488940D01*
X161482699Y-127333577D01*
X161682577Y-127133699D01*
X161839620Y-126898667D01*
X161947793Y-126637514D01*
X162002940Y-126360275D01*
X162002940Y-126077605D01*
X161947793Y-125800366D01*
X161839620Y-125539213D01*
X161682577Y-125304181D01*
X161482699Y-125104303D01*
X161250181Y-124948940D01*
X161482699Y-124793577D01*
X161682577Y-124593699D01*
X161785983Y-124438940D01*
X165968740Y-124438940D01*
X166006062Y-124442616D01*
X166043384Y-124438940D01*
X166043395Y-124438940D01*
X166155048Y-124427943D01*
X166298309Y-124384486D01*
X166430338Y-124313914D01*
X166546063Y-124218941D01*
X166569866Y-124189937D01*
X167786004Y-122973800D01*
X167815002Y-122950002D01*
X167909975Y-122834277D01*
X167980547Y-122702248D01*
X167998885Y-122641794D01*
X168206842Y-122727932D01*
X168493740Y-122785000D01*
X168786260Y-122785000D01*
X169073158Y-122727932D01*
X169343411Y-122615990D01*
X169586632Y-122453475D01*
X169793475Y-122246632D01*
X169910000Y-122072240D01*
X170026525Y-122246632D01*
X170233368Y-122453475D01*
X170476589Y-122615990D01*
X170746842Y-122727932D01*
X171033740Y-122785000D01*
X171326260Y-122785000D01*
X171613158Y-122727932D01*
X171883411Y-122615990D01*
X172126632Y-122453475D01*
X172333475Y-122246632D01*
X172450000Y-122072240D01*
X172566525Y-122246632D01*
X172773368Y-122453475D01*
X173016589Y-122615990D01*
X173286842Y-122727932D01*
X173573740Y-122785000D01*
X173866260Y-122785000D01*
X174153158Y-122727932D01*
X174423411Y-122615990D01*
X174666632Y-122453475D01*
X174873475Y-122246632D01*
X175035990Y-122003411D01*
X175147932Y-121733158D01*
X175205000Y-121446260D01*
X175205000Y-121153740D01*
X175147932Y-120866842D01*
X175035990Y-120596589D01*
X174873475Y-120353368D01*
X174666632Y-120146525D01*
X174423411Y-119984010D01*
X174153158Y-119872068D01*
X173866260Y-119815000D01*
X173573740Y-119815000D01*
X173286842Y-119872068D01*
X173016589Y-119984010D01*
X172773368Y-120146525D01*
X172566525Y-120353368D01*
X172450000Y-120527760D01*
X172333475Y-120353368D01*
X172126632Y-120146525D01*
X171883411Y-119984010D01*
X171613158Y-119872068D01*
X171326260Y-119815000D01*
X171033740Y-119815000D01*
X170746842Y-119872068D01*
X170476589Y-119984010D01*
X170233368Y-120146525D01*
X170026525Y-120353368D01*
X169910000Y-120527760D01*
X169884782Y-120490019D01*
X174231003Y-116143799D01*
X174260001Y-116120001D01*
X174354974Y-116004276D01*
X174425546Y-115872247D01*
X174469003Y-115728986D01*
X174480000Y-115617333D01*
X174480000Y-115617324D01*
X174483676Y-115580001D01*
X174480000Y-115542678D01*
X174480000Y-97178178D01*
X174666632Y-97053475D01*
X174873475Y-96846632D01*
X175035990Y-96603411D01*
X175147932Y-96333158D01*
X175205000Y-96046260D01*
X175205000Y-95753740D01*
X175147932Y-95466842D01*
X175035990Y-95196589D01*
X174873475Y-94953368D01*
X174666632Y-94746525D01*
X174423411Y-94584010D01*
X174153158Y-94472068D01*
X173866260Y-94415000D01*
X173573740Y-94415000D01*
X173286842Y-94472068D01*
X173016589Y-94584010D01*
X172773368Y-94746525D01*
X172566525Y-94953368D01*
X172450000Y-95127760D01*
X172333475Y-94953368D01*
X172126632Y-94746525D01*
X171883411Y-94584010D01*
X171613158Y-94472068D01*
X171326260Y-94415000D01*
X171033740Y-94415000D01*
X170746842Y-94472068D01*
X170476589Y-94584010D01*
X170233368Y-94746525D01*
X170026525Y-94953368D01*
X169864010Y-95196589D01*
X169752068Y-95466842D01*
X169695000Y-95753740D01*
X169695000Y-96046260D01*
X169752068Y-96333158D01*
X169864010Y-96603411D01*
X170026525Y-96846632D01*
X170233368Y-97053475D01*
X170476589Y-97215990D01*
X170746842Y-97327932D01*
X171033740Y-97385000D01*
X171326260Y-97385000D01*
X171546408Y-97341210D01*
X171595001Y-97389803D01*
X171595001Y-99548456D01*
X171326260Y-99495000D01*
X171033740Y-99495000D01*
X170746842Y-99552068D01*
X170476589Y-99664010D01*
X170233368Y-99826525D01*
X170026525Y-100033368D01*
X169864010Y-100276589D01*
X169752068Y-100546842D01*
X169695000Y-100833740D01*
X169695000Y-101126260D01*
X169738790Y-101346408D01*
X167361258Y-103723941D01*
X161958449Y-103723941D01*
X162002940Y-103500275D01*
X162002940Y-103217605D01*
X161947793Y-102940366D01*
X161839620Y-102679213D01*
X161682577Y-102444181D01*
X161482699Y-102244303D01*
X161250181Y-102088940D01*
X161482699Y-101933577D01*
X161682577Y-101733699D01*
X161839620Y-101498667D01*
X161947793Y-101237514D01*
X162002940Y-100960275D01*
X162002940Y-100677605D01*
X161947793Y-100400366D01*
X161839620Y-100139213D01*
X161833465Y-100130000D01*
X164611928Y-100130000D01*
X164611928Y-101830000D01*
X164624188Y-101954482D01*
X164660498Y-102074180D01*
X164719463Y-102184494D01*
X164798815Y-102281185D01*
X164895506Y-102360537D01*
X165005820Y-102419502D01*
X165125518Y-102455812D01*
X165250000Y-102468072D01*
X166950000Y-102468072D01*
X167074482Y-102455812D01*
X167194180Y-102419502D01*
X167304494Y-102360537D01*
X167401185Y-102281185D01*
X167480537Y-102184494D01*
X167539502Y-102074180D01*
X167575812Y-101954482D01*
X167588072Y-101830000D01*
X167588072Y-100130000D01*
X167575812Y-100005518D01*
X167539502Y-99885820D01*
X167480537Y-99775506D01*
X167401185Y-99678815D01*
X167304494Y-99599463D01*
X167194180Y-99540498D01*
X167074482Y-99504188D01*
X166950000Y-99491928D01*
X165250000Y-99491928D01*
X165125518Y-99504188D01*
X165005820Y-99540498D01*
X164895506Y-99599463D01*
X164798815Y-99678815D01*
X164719463Y-99775506D01*
X164660498Y-99885820D01*
X164624188Y-100005518D01*
X164611928Y-100130000D01*
X161833465Y-100130000D01*
X161682577Y-99904181D01*
X161482699Y-99704303D01*
X161247667Y-99547260D01*
X161021304Y-99453498D01*
X161339802Y-99135000D01*
X161401939Y-99135000D01*
X161601898Y-99095226D01*
X161790256Y-99017205D01*
X161959774Y-98903937D01*
X162103937Y-98759774D01*
X162217205Y-98590256D01*
X162295226Y-98401898D01*
X162335000Y-98201939D01*
X162335000Y-97998061D01*
X162295226Y-97798102D01*
X162217205Y-97609744D01*
X162103937Y-97440226D01*
X161959774Y-97296063D01*
X161790256Y-97182795D01*
X161601898Y-97104774D01*
X161435000Y-97071576D01*
X161435000Y-96898061D01*
X161395226Y-96698102D01*
X161379444Y-96660000D01*
X164611928Y-96660000D01*
X164611928Y-96750000D01*
X164624188Y-96874482D01*
X164660498Y-96994180D01*
X164719463Y-97104494D01*
X164798815Y-97201185D01*
X164895506Y-97280537D01*
X165005820Y-97339502D01*
X165125518Y-97375812D01*
X165250000Y-97388072D01*
X166950000Y-97388072D01*
X167074482Y-97375812D01*
X167194180Y-97339502D01*
X167304494Y-97280537D01*
X167401185Y-97201185D01*
X167480537Y-97104494D01*
X167539502Y-96994180D01*
X167575812Y-96874482D01*
X167588072Y-96750000D01*
X167588072Y-95050000D01*
X167575812Y-94925518D01*
X167539502Y-94805820D01*
X167480537Y-94695506D01*
X167401185Y-94598815D01*
X167304494Y-94519463D01*
X167194180Y-94460498D01*
X167074482Y-94424188D01*
X166950000Y-94411928D01*
X165250000Y-94411928D01*
X165125518Y-94424188D01*
X165005820Y-94460498D01*
X164895506Y-94519463D01*
X164798815Y-94598815D01*
X164719463Y-94695506D01*
X164660498Y-94805820D01*
X164624188Y-94925518D01*
X164611928Y-95050000D01*
X164611928Y-95140000D01*
X162207538Y-95140000D01*
X162235000Y-95001939D01*
X162235000Y-94798061D01*
X162195226Y-94598102D01*
X162117205Y-94409744D01*
X162003937Y-94240226D01*
X161859774Y-94096063D01*
X161690256Y-93982795D01*
X161501898Y-93904774D01*
X161301939Y-93865000D01*
X161239802Y-93865000D01*
X158937743Y-91562942D01*
X158913940Y-91533938D01*
X158798215Y-91438965D01*
X158666186Y-91368393D01*
X158522925Y-91324936D01*
X158411272Y-91313939D01*
X158411261Y-91313939D01*
X158373939Y-91310263D01*
X158336617Y-91313939D01*
X147277650Y-91313939D01*
X147233713Y-91270002D01*
X147064195Y-91156734D01*
X146875837Y-91078713D01*
X146675878Y-91038939D01*
X146472000Y-91038939D01*
X146272041Y-91078713D01*
X146083683Y-91156734D01*
X145914165Y-91270002D01*
X145770002Y-91414165D01*
X145656734Y-91583683D01*
X145637658Y-91629737D01*
X143960000Y-89952079D01*
X143960000Y-81187087D01*
X144074482Y-81175812D01*
X144194180Y-81139502D01*
X144304494Y-81080537D01*
X144401185Y-81001185D01*
X144480537Y-80904494D01*
X144539502Y-80794180D01*
X144575812Y-80674482D01*
X144588072Y-80550000D01*
X144588072Y-79427092D01*
X147426169Y-82265189D01*
X147449963Y-82294182D01*
X147478956Y-82317976D01*
X147478960Y-82317980D01*
X147549649Y-82375992D01*
X147565688Y-82389155D01*
X147697717Y-82459727D01*
X147840978Y-82503184D01*
X147952631Y-82514181D01*
X147952640Y-82514181D01*
X147989963Y-82517857D01*
X148027286Y-82514181D01*
X169356697Y-82514181D01*
X169394019Y-82517857D01*
X169431341Y-82514181D01*
X169431352Y-82514181D01*
X169543005Y-82503184D01*
X169686266Y-82459727D01*
X169818295Y-82389155D01*
X169934020Y-82294182D01*
X169957823Y-82265179D01*
X170187655Y-82035347D01*
X170332609Y-82064180D01*
X170605431Y-82064180D01*
X170873009Y-82010955D01*
X171125063Y-81906551D01*
X171351906Y-81754979D01*
X171484020Y-81622865D01*
X171616134Y-81754979D01*
X171842977Y-81906551D01*
X172095031Y-82010955D01*
X172362609Y-82064180D01*
X172635431Y-82064180D01*
X172903009Y-82010955D01*
X173155063Y-81906551D01*
X173381906Y-81754979D01*
X173514020Y-81622865D01*
X173646134Y-81754979D01*
X173872977Y-81906551D01*
X174125031Y-82010955D01*
X174392609Y-82064180D01*
X174665431Y-82064180D01*
X174933009Y-82010955D01*
X175185063Y-81906551D01*
X175411906Y-81754979D01*
X175604819Y-81562066D01*
X175756391Y-81335223D01*
X175860795Y-81083169D01*
X175914020Y-80815591D01*
X175914020Y-80542769D01*
X175860795Y-80275191D01*
X175756391Y-80023137D01*
X175604819Y-79796294D01*
X175411906Y-79603381D01*
X175185063Y-79451809D01*
X174933009Y-79347405D01*
X174830886Y-79327091D01*
X174840795Y-79303169D01*
X174894020Y-79035591D01*
X174894020Y-78762769D01*
X174840795Y-78495191D01*
X174736391Y-78243137D01*
X174584819Y-78016294D01*
X174391906Y-77823381D01*
X174165063Y-77671809D01*
X173913009Y-77567405D01*
X173645431Y-77514180D01*
X173372609Y-77514180D01*
X173105031Y-77567405D01*
X172852977Y-77671809D01*
X172626134Y-77823381D01*
X172494020Y-77955495D01*
X172361906Y-77823381D01*
X172135063Y-77671809D01*
X171883009Y-77567405D01*
X171615431Y-77514180D01*
X171342609Y-77514180D01*
X171197655Y-77543013D01*
X166943644Y-73289003D01*
X166919841Y-73259999D01*
X166804116Y-73165026D01*
X166672087Y-73094454D01*
X166528826Y-73050997D01*
X166417173Y-73040000D01*
X166417162Y-73040000D01*
X166379840Y-73036324D01*
X166342518Y-73040000D01*
X164103711Y-73040000D01*
X164059774Y-72996063D01*
X163890256Y-72882795D01*
X163701898Y-72804774D01*
X163501939Y-72765000D01*
X163298061Y-72765000D01*
X163098102Y-72804774D01*
X162909744Y-72882795D01*
X162740226Y-72996063D01*
X162596063Y-73140226D01*
X162482795Y-73309744D01*
X162404774Y-73498102D01*
X162365000Y-73698061D01*
X162365000Y-73901939D01*
X162404774Y-74101898D01*
X162482795Y-74290256D01*
X162596063Y-74459774D01*
X162740226Y-74603937D01*
X162909744Y-74717205D01*
X163018942Y-74762436D01*
X162862864Y-74918514D01*
X162615534Y-75288669D01*
X162445171Y-75699962D01*
X162358320Y-76136589D01*
X162358320Y-76581771D01*
X162445171Y-77018398D01*
X162615534Y-77429691D01*
X162635134Y-77459024D01*
X162590435Y-77463427D01*
X162352076Y-77535732D01*
X162132402Y-77653150D01*
X161939857Y-77811167D01*
X161781840Y-78003713D01*
X161664422Y-78223387D01*
X161592117Y-78461746D01*
X161573820Y-78647515D01*
X161573820Y-79874746D01*
X161592117Y-80060515D01*
X161664422Y-80298874D01*
X161781840Y-80518548D01*
X161939858Y-80711093D01*
X162132403Y-80869110D01*
X162352077Y-80986528D01*
X162377306Y-80994181D01*
X148304767Y-80994181D01*
X143360586Y-76050000D01*
X153011928Y-76050000D01*
X153011928Y-77750000D01*
X153024188Y-77874482D01*
X153060498Y-77994180D01*
X153119463Y-78104494D01*
X153198815Y-78201185D01*
X153295506Y-78280537D01*
X153405820Y-78339502D01*
X153525518Y-78375812D01*
X153650000Y-78388072D01*
X155350000Y-78388072D01*
X155474482Y-78375812D01*
X155594180Y-78339502D01*
X155704494Y-78280537D01*
X155801185Y-78201185D01*
X155880537Y-78104494D01*
X155939502Y-77994180D01*
X155975812Y-77874482D01*
X155988072Y-77750000D01*
X155988072Y-76050000D01*
X155975812Y-75925518D01*
X155939502Y-75805820D01*
X155880537Y-75695506D01*
X155801185Y-75598815D01*
X155704494Y-75519463D01*
X155594180Y-75460498D01*
X155474482Y-75424188D01*
X155350000Y-75411928D01*
X153650000Y-75411928D01*
X153525518Y-75424188D01*
X153405820Y-75460498D01*
X153295506Y-75519463D01*
X153198815Y-75598815D01*
X153119463Y-75695506D01*
X153060498Y-75805820D01*
X153024188Y-75925518D01*
X153011928Y-76050000D01*
X143360586Y-76050000D01*
X137480097Y-70169513D01*
X137480097Y-70107375D01*
X137440323Y-69907416D01*
X137362302Y-69719058D01*
X137249034Y-69549540D01*
X137193494Y-69494000D01*
X175644608Y-69494000D01*
X176456249Y-69566437D01*
X177213774Y-69773672D01*
X177922625Y-70111777D01*
X178560404Y-70570067D01*
X179106946Y-71134055D01*
X179544977Y-71785913D01*
X179860651Y-72505038D01*
X180045206Y-73273768D01*
X180094001Y-73938221D01*
X180094001Y-77929628D01*
X179996783Y-77811167D01*
X179804237Y-77653150D01*
X179584563Y-77535732D01*
X179346204Y-77463427D01*
X179301506Y-77459025D01*
X179321106Y-77429691D01*
X179491469Y-77018398D01*
X179578320Y-76581771D01*
X179578320Y-76136589D01*
X179491469Y-75699962D01*
X179321106Y-75288669D01*
X179073776Y-74918514D01*
X178758986Y-74603724D01*
X178388831Y-74356394D01*
X177977538Y-74186031D01*
X177540911Y-74099180D01*
X177095729Y-74099180D01*
X176659102Y-74186031D01*
X176247809Y-74356394D01*
X175877654Y-74603724D01*
X175562864Y-74918514D01*
X175315534Y-75288669D01*
X175145171Y-75699962D01*
X175058320Y-76136589D01*
X175058320Y-76581771D01*
X175145171Y-77018398D01*
X175315534Y-77429691D01*
X175562864Y-77799846D01*
X175877654Y-78114636D01*
X176247809Y-78361966D01*
X176659102Y-78532329D01*
X177095729Y-78619180D01*
X177540911Y-78619180D01*
X177842520Y-78559186D01*
X177833820Y-78647515D01*
X177833820Y-79874746D01*
X177852117Y-80060515D01*
X177924422Y-80298874D01*
X178041840Y-80518548D01*
X178199858Y-80711093D01*
X178392403Y-80869110D01*
X178612077Y-80986528D01*
X178850436Y-81058833D01*
X179098320Y-81083248D01*
X179346205Y-81058833D01*
X179584564Y-80986528D01*
X179804238Y-80869110D01*
X179996783Y-80711093D01*
X180094001Y-80592632D01*
X180094000Y-152846078D01*
X180021486Y-153657675D01*
X179814175Y-154415185D01*
X179476001Y-155124002D01*
X179017650Y-155761731D01*
X178453607Y-156308220D01*
X177801710Y-156746184D01*
X177082546Y-157061790D01*
X176313798Y-157246270D01*
X175649335Y-157295000D01*
X123312892Y-157295000D01*
X122501251Y-157222563D01*
X121743726Y-157015328D01*
X121034873Y-156677221D01*
X120382977Y-156208787D01*
X120149539Y-155991862D01*
X118047398Y-153889721D01*
X174865000Y-153889721D01*
X174865000Y-154310279D01*
X174947047Y-154722756D01*
X175107988Y-155111302D01*
X175341637Y-155460983D01*
X175639017Y-155758363D01*
X175988698Y-155992012D01*
X176377244Y-156152953D01*
X176789721Y-156235000D01*
X177210279Y-156235000D01*
X177622756Y-156152953D01*
X178011302Y-155992012D01*
X178360983Y-155758363D01*
X178658363Y-155460983D01*
X178892012Y-155111302D01*
X179052953Y-154722756D01*
X179135000Y-154310279D01*
X179135000Y-153889721D01*
X179052953Y-153477244D01*
X178892012Y-153088698D01*
X178658363Y-152739017D01*
X178360983Y-152441637D01*
X178011302Y-152207988D01*
X177622756Y-152047047D01*
X177210279Y-151965000D01*
X176789721Y-151965000D01*
X176377244Y-152047047D01*
X175988698Y-152207988D01*
X175639017Y-152441637D01*
X175341637Y-152739017D01*
X175107988Y-153088698D01*
X174947047Y-153477244D01*
X174865000Y-153889721D01*
X118047398Y-153889721D01*
X110178879Y-146021203D01*
X109656176Y-145396057D01*
X109267061Y-144713866D01*
X109004905Y-143973561D01*
X108883597Y-143232780D01*
X118014102Y-143232780D01*
X118014102Y-143583016D01*
X118082430Y-143926521D01*
X118216459Y-144250097D01*
X118411039Y-144541307D01*
X118658693Y-144788961D01*
X118949903Y-144983541D01*
X119273479Y-145117570D01*
X119616984Y-145185898D01*
X119967220Y-145185898D01*
X120310725Y-145117570D01*
X120634301Y-144983541D01*
X120925511Y-144788961D01*
X121173165Y-144541307D01*
X121367745Y-144250097D01*
X121501774Y-143926521D01*
X121570102Y-143583016D01*
X121570102Y-143235029D01*
X126733632Y-138071500D01*
X126834616Y-138071500D01*
X126988773Y-138174505D01*
X127243010Y-138279814D01*
X127512908Y-138333500D01*
X127788092Y-138333500D01*
X128057990Y-138279814D01*
X128312227Y-138174505D01*
X128541035Y-138021620D01*
X128735620Y-137827035D01*
X128888505Y-137598227D01*
X128993814Y-137343990D01*
X129047500Y-137074092D01*
X129047500Y-136798908D01*
X128993814Y-136529010D01*
X128888505Y-136274773D01*
X128735620Y-136045965D01*
X128541035Y-135851380D01*
X128312227Y-135698495D01*
X128057990Y-135593186D01*
X127788092Y-135539500D01*
X127512908Y-135539500D01*
X127243010Y-135593186D01*
X126988773Y-135698495D01*
X126834616Y-135801500D01*
X126319252Y-135801500D01*
X126263500Y-135796009D01*
X126207748Y-135801500D01*
X126041001Y-135817923D01*
X125827053Y-135882824D01*
X125629877Y-135988216D01*
X125457051Y-136130051D01*
X125421509Y-136173359D01*
X119964971Y-141629898D01*
X119616984Y-141629898D01*
X119273479Y-141698226D01*
X118949903Y-141832255D01*
X118658693Y-142026835D01*
X118411039Y-142274489D01*
X118216459Y-142565699D01*
X118082430Y-142889275D01*
X118014102Y-143232780D01*
X108883597Y-143232780D01*
X108875178Y-143181369D01*
X108863499Y-142862876D01*
X108863599Y-129000000D01*
X120561928Y-129000000D01*
X120561928Y-130600000D01*
X120574188Y-130724482D01*
X120610498Y-130844180D01*
X120669463Y-130954494D01*
X120748815Y-131051185D01*
X120845506Y-131130537D01*
X120955820Y-131189502D01*
X121075518Y-131225812D01*
X121200000Y-131238072D01*
X122800000Y-131238072D01*
X122924482Y-131225812D01*
X123044180Y-131189502D01*
X123154494Y-131130537D01*
X123251185Y-131051185D01*
X123330537Y-130954494D01*
X123389502Y-130844180D01*
X123425812Y-130724482D01*
X123438072Y-130600000D01*
X123438072Y-129000000D01*
X123425812Y-128875518D01*
X123389502Y-128755820D01*
X123330537Y-128645506D01*
X123251185Y-128548815D01*
X123154494Y-128469463D01*
X123135000Y-128459043D01*
X123135000Y-119170131D01*
X125741988Y-116563144D01*
X125741992Y-116563139D01*
X132863146Y-109441987D01*
X132906449Y-109406449D01*
X133048284Y-109233623D01*
X133153676Y-109036447D01*
X133218577Y-108822499D01*
X133235000Y-108655752D01*
X133240491Y-108600000D01*
X133235000Y-108544248D01*
X133235000Y-97017382D01*
X133368817Y-97017382D01*
X133568776Y-96977608D01*
X133757134Y-96899587D01*
X133926652Y-96786319D01*
X134070815Y-96642156D01*
X134184083Y-96472638D01*
X134262104Y-96284280D01*
X134301878Y-96084321D01*
X134301878Y-95880443D01*
X134262104Y-95680484D01*
X134184083Y-95492126D01*
X134070815Y-95322608D01*
X134026878Y-95278671D01*
X134026878Y-94618713D01*
X134062431Y-94583160D01*
X134175699Y-94413642D01*
X134253720Y-94225284D01*
X134293494Y-94025325D01*
X134293494Y-93821447D01*
X134253720Y-93621488D01*
X134175699Y-93433130D01*
X134062431Y-93263612D01*
X134018494Y-93219675D01*
X134018494Y-91757839D01*
X134049658Y-91726675D01*
X134162926Y-91557157D01*
X134240947Y-91368799D01*
X134280721Y-91168840D01*
X134280721Y-90964962D01*
X134240947Y-90765003D01*
X134162926Y-90576645D01*
X134049658Y-90407127D01*
X133905495Y-90262964D01*
X133735977Y-90149696D01*
X133547619Y-90071675D01*
X133347660Y-90031901D01*
X133143782Y-90031901D01*
X132943823Y-90071675D01*
X132755465Y-90149696D01*
X132669833Y-90206913D01*
X132513447Y-90123324D01*
X132299499Y-90058423D01*
X132132752Y-90042000D01*
X132132751Y-90042000D01*
X132077000Y-90036509D01*
X132021249Y-90042000D01*
X132003228Y-90042000D01*
X131836481Y-90058423D01*
X131622533Y-90123324D01*
X131425357Y-90228716D01*
X131252531Y-90370551D01*
X131110696Y-90543377D01*
X131005304Y-90740553D01*
X130940403Y-90954501D01*
X130918489Y-91177000D01*
X130940403Y-91399499D01*
X130965000Y-91480584D01*
X130965001Y-108129866D01*
X124136861Y-114958008D01*
X124136856Y-114958012D01*
X121236860Y-117858009D01*
X121193552Y-117893551D01*
X121051717Y-118066377D01*
X121015217Y-118134664D01*
X120946324Y-118263554D01*
X120881423Y-118477502D01*
X120859509Y-118700000D01*
X120865001Y-118755761D01*
X120865000Y-128459043D01*
X120845506Y-128469463D01*
X120748815Y-128548815D01*
X120669463Y-128645506D01*
X120610498Y-128755820D01*
X120574188Y-128875518D01*
X120561928Y-129000000D01*
X108863599Y-129000000D01*
X108863639Y-123573740D01*
X111715000Y-123573740D01*
X111715000Y-123866260D01*
X111772068Y-124153158D01*
X111884010Y-124423411D01*
X112046525Y-124666632D01*
X112253368Y-124873475D01*
X112427760Y-124990000D01*
X112253368Y-125106525D01*
X112046525Y-125313368D01*
X111884010Y-125556589D01*
X111772068Y-125826842D01*
X111715000Y-126113740D01*
X111715000Y-126406260D01*
X111772068Y-126693158D01*
X111884010Y-126963411D01*
X112046525Y-127206632D01*
X112253368Y-127413475D01*
X112496589Y-127575990D01*
X112766842Y-127687932D01*
X113053740Y-127745000D01*
X113346260Y-127745000D01*
X113633158Y-127687932D01*
X113903411Y-127575990D01*
X114146632Y-127413475D01*
X114353475Y-127206632D01*
X114515990Y-126963411D01*
X114627932Y-126693158D01*
X114685000Y-126406260D01*
X114685000Y-126113740D01*
X114627932Y-125826842D01*
X114515990Y-125556589D01*
X114353475Y-125313368D01*
X114146632Y-125106525D01*
X113972240Y-124990000D01*
X114146632Y-124873475D01*
X114353475Y-124666632D01*
X114515990Y-124423411D01*
X114627932Y-124153158D01*
X114685000Y-123866260D01*
X114685000Y-123573740D01*
X114627932Y-123286842D01*
X114515990Y-123016589D01*
X114353475Y-122773368D01*
X114146632Y-122566525D01*
X113903411Y-122404010D01*
X113633158Y-122292068D01*
X113346260Y-122235000D01*
X113053740Y-122235000D01*
X112766842Y-122292068D01*
X112496589Y-122404010D01*
X112253368Y-122566525D01*
X112046525Y-122773368D01*
X111884010Y-123016589D01*
X111772068Y-123286842D01*
X111715000Y-123573740D01*
X108863639Y-123573740D01*
X108863787Y-103173740D01*
X111715000Y-103173740D01*
X111715000Y-103466260D01*
X111772068Y-103753158D01*
X111884010Y-104023411D01*
X112046525Y-104266632D01*
X112253368Y-104473475D01*
X112427760Y-104590000D01*
X112253368Y-104706525D01*
X112046525Y-104913368D01*
X111884010Y-105156589D01*
X111772068Y-105426842D01*
X111715000Y-105713740D01*
X111715000Y-106006260D01*
X111772068Y-106293158D01*
X111884010Y-106563411D01*
X112046525Y-106806632D01*
X112253368Y-107013475D01*
X112496589Y-107175990D01*
X112766842Y-107287932D01*
X113053740Y-107345000D01*
X113346260Y-107345000D01*
X113633158Y-107287932D01*
X113903411Y-107175990D01*
X114146632Y-107013475D01*
X114353475Y-106806632D01*
X114515990Y-106563411D01*
X114627932Y-106293158D01*
X114685000Y-106006260D01*
X114685000Y-105713740D01*
X114627932Y-105426842D01*
X114515990Y-105156589D01*
X114353475Y-104913368D01*
X114146632Y-104706525D01*
X113972240Y-104590000D01*
X114146632Y-104473475D01*
X114353475Y-104266632D01*
X114515990Y-104023411D01*
X114627932Y-103753158D01*
X114685000Y-103466260D01*
X114685000Y-103173740D01*
X114627932Y-102886842D01*
X114515990Y-102616589D01*
X114353475Y-102373368D01*
X114146632Y-102166525D01*
X113903411Y-102004010D01*
X113633158Y-101892068D01*
X113346260Y-101835000D01*
X113053740Y-101835000D01*
X112766842Y-101892068D01*
X112496589Y-102004010D01*
X112253368Y-102166525D01*
X112046525Y-102373368D01*
X111884010Y-102616589D01*
X111772068Y-102886842D01*
X111715000Y-103173740D01*
X108863787Y-103173740D01*
X108863902Y-87250000D01*
X115111928Y-87250000D01*
X115111928Y-88950000D01*
X115124188Y-89074482D01*
X115160498Y-89194180D01*
X115219463Y-89304494D01*
X115298815Y-89401185D01*
X115395506Y-89480537D01*
X115505820Y-89539502D01*
X115578380Y-89561513D01*
X115446525Y-89693368D01*
X115284010Y-89936589D01*
X115172068Y-90206842D01*
X115115000Y-90493740D01*
X115115000Y-90786260D01*
X115172068Y-91073158D01*
X115284010Y-91343411D01*
X115446525Y-91586632D01*
X115653368Y-91793475D01*
X115827760Y-91910000D01*
X115653368Y-92026525D01*
X115446525Y-92233368D01*
X115284010Y-92476589D01*
X115172068Y-92746842D01*
X115115000Y-93033740D01*
X115115000Y-93326260D01*
X115172068Y-93613158D01*
X115284010Y-93883411D01*
X115446525Y-94126632D01*
X115653368Y-94333475D01*
X115827760Y-94450000D01*
X115653368Y-94566525D01*
X115446525Y-94773368D01*
X115284010Y-95016589D01*
X115172068Y-95286842D01*
X115115000Y-95573740D01*
X115115000Y-95866260D01*
X115172068Y-96153158D01*
X115284010Y-96423411D01*
X115446525Y-96666632D01*
X115653368Y-96873475D01*
X115827760Y-96990000D01*
X115653368Y-97106525D01*
X115446525Y-97313368D01*
X115284010Y-97556589D01*
X115172068Y-97826842D01*
X115115000Y-98113740D01*
X115115000Y-98406260D01*
X115172068Y-98693158D01*
X115284010Y-98963411D01*
X115446525Y-99206632D01*
X115653368Y-99413475D01*
X115827760Y-99530000D01*
X115653368Y-99646525D01*
X115446525Y-99853368D01*
X115284010Y-100096589D01*
X115172068Y-100366842D01*
X115115000Y-100653740D01*
X115115000Y-100946260D01*
X115172068Y-101233158D01*
X115284010Y-101503411D01*
X115446525Y-101746632D01*
X115653368Y-101953475D01*
X115827760Y-102070000D01*
X115653368Y-102186525D01*
X115446525Y-102393368D01*
X115284010Y-102636589D01*
X115172068Y-102906842D01*
X115115000Y-103193740D01*
X115115000Y-103486260D01*
X115172068Y-103773158D01*
X115284010Y-104043411D01*
X115446525Y-104286632D01*
X115653368Y-104493475D01*
X115827760Y-104610000D01*
X115653368Y-104726525D01*
X115446525Y-104933368D01*
X115284010Y-105176589D01*
X115172068Y-105446842D01*
X115115000Y-105733740D01*
X115115000Y-106026260D01*
X115172068Y-106313158D01*
X115284010Y-106583411D01*
X115446525Y-106826632D01*
X115653368Y-107033475D01*
X115827760Y-107150000D01*
X115653368Y-107266525D01*
X115446525Y-107473368D01*
X115284010Y-107716589D01*
X115172068Y-107986842D01*
X115115000Y-108273740D01*
X115115000Y-108566260D01*
X115172068Y-108853158D01*
X115284010Y-109123411D01*
X115446525Y-109366632D01*
X115653368Y-109573475D01*
X115827760Y-109690000D01*
X115653368Y-109806525D01*
X115446525Y-110013368D01*
X115284010Y-110256589D01*
X115172068Y-110526842D01*
X115115000Y-110813740D01*
X115115000Y-111106260D01*
X115172068Y-111393158D01*
X115284010Y-111663411D01*
X115446525Y-111906632D01*
X115653368Y-112113475D01*
X115827760Y-112230000D01*
X115653368Y-112346525D01*
X115446525Y-112553368D01*
X115284010Y-112796589D01*
X115172068Y-113066842D01*
X115115000Y-113353740D01*
X115115000Y-113646260D01*
X115172068Y-113933158D01*
X115284010Y-114203411D01*
X115446525Y-114446632D01*
X115653368Y-114653475D01*
X115896589Y-114815990D01*
X116166842Y-114927932D01*
X116453740Y-114985000D01*
X116746260Y-114985000D01*
X117033158Y-114927932D01*
X117303411Y-114815990D01*
X117546632Y-114653475D01*
X117753475Y-114446632D01*
X117915990Y-114203411D01*
X118027932Y-113933158D01*
X118085000Y-113646260D01*
X118085000Y-113353740D01*
X118027932Y-113066842D01*
X117915990Y-112796589D01*
X117753475Y-112553368D01*
X117546632Y-112346525D01*
X117372240Y-112230000D01*
X117546632Y-112113475D01*
X117753475Y-111906632D01*
X117915990Y-111663411D01*
X118027932Y-111393158D01*
X118085000Y-111106260D01*
X118085000Y-110813740D01*
X118027932Y-110526842D01*
X117915990Y-110256589D01*
X117753475Y-110013368D01*
X117546632Y-109806525D01*
X117372240Y-109690000D01*
X117546632Y-109573475D01*
X117753475Y-109366632D01*
X117915990Y-109123411D01*
X118027932Y-108853158D01*
X118085000Y-108566260D01*
X118085000Y-108273740D01*
X118027932Y-107986842D01*
X117915990Y-107716589D01*
X117753475Y-107473368D01*
X117546632Y-107266525D01*
X117372240Y-107150000D01*
X117546632Y-107033475D01*
X117753475Y-106826632D01*
X117915990Y-106583411D01*
X118027932Y-106313158D01*
X118085000Y-106026260D01*
X118085000Y-105733740D01*
X118027932Y-105446842D01*
X117915990Y-105176589D01*
X117753475Y-104933368D01*
X117546632Y-104726525D01*
X117372240Y-104610000D01*
X117546632Y-104493475D01*
X117753475Y-104286632D01*
X117915990Y-104043411D01*
X118027932Y-103773158D01*
X118085000Y-103486260D01*
X118085000Y-103193740D01*
X118027932Y-102906842D01*
X117915990Y-102636589D01*
X117753475Y-102393368D01*
X117546632Y-102186525D01*
X117372240Y-102070000D01*
X117546632Y-101953475D01*
X117753475Y-101746632D01*
X117915990Y-101503411D01*
X118027932Y-101233158D01*
X118085000Y-100946260D01*
X118085000Y-100653740D01*
X118027932Y-100366842D01*
X117915990Y-100096589D01*
X117753475Y-99853368D01*
X117546632Y-99646525D01*
X117372240Y-99530000D01*
X117546632Y-99413475D01*
X117753475Y-99206632D01*
X117915990Y-98963411D01*
X118027932Y-98693158D01*
X118085000Y-98406260D01*
X118085000Y-98113740D01*
X118027932Y-97826842D01*
X117915990Y-97556589D01*
X117753475Y-97313368D01*
X117546632Y-97106525D01*
X117372240Y-96990000D01*
X117546632Y-96873475D01*
X117753475Y-96666632D01*
X117812922Y-96577663D01*
X123096502Y-96577663D01*
X123096502Y-96781541D01*
X123136276Y-96981500D01*
X123214297Y-97169858D01*
X123327565Y-97339376D01*
X123471728Y-97483539D01*
X123641246Y-97596807D01*
X123829604Y-97674828D01*
X124029563Y-97714602D01*
X124233441Y-97714602D01*
X124433400Y-97674828D01*
X124621758Y-97596807D01*
X124791276Y-97483539D01*
X124835213Y-97439602D01*
X128492596Y-97439602D01*
X128536649Y-97483655D01*
X128706167Y-97596923D01*
X128894525Y-97674944D01*
X129094484Y-97714718D01*
X129298362Y-97714718D01*
X129498321Y-97674944D01*
X129686679Y-97596923D01*
X129856197Y-97483655D01*
X130000360Y-97339492D01*
X130113628Y-97169974D01*
X130191649Y-96981616D01*
X130231423Y-96781657D01*
X130231423Y-96577779D01*
X130191649Y-96377820D01*
X130113628Y-96189462D01*
X130000360Y-96019944D01*
X129856197Y-95875781D01*
X129686679Y-95762513D01*
X129498321Y-95684492D01*
X129298362Y-95644718D01*
X129094484Y-95644718D01*
X128894525Y-95684492D01*
X128706167Y-95762513D01*
X128536649Y-95875781D01*
X128492828Y-95919602D01*
X124835213Y-95919602D01*
X124791276Y-95875665D01*
X124621758Y-95762397D01*
X124433400Y-95684376D01*
X124233441Y-95644602D01*
X124029563Y-95644602D01*
X123829604Y-95684376D01*
X123641246Y-95762397D01*
X123471728Y-95875665D01*
X123327565Y-96019828D01*
X123214297Y-96189346D01*
X123136276Y-96377704D01*
X123096502Y-96577663D01*
X117812922Y-96577663D01*
X117915990Y-96423411D01*
X118027932Y-96153158D01*
X118085000Y-95866260D01*
X118085000Y-95573740D01*
X118027932Y-95286842D01*
X117915990Y-95016589D01*
X117753475Y-94773368D01*
X117546632Y-94566525D01*
X117372240Y-94450000D01*
X117546632Y-94333475D01*
X117753475Y-94126632D01*
X117915990Y-93883411D01*
X118027932Y-93613158D01*
X118085000Y-93326260D01*
X118085000Y-93033740D01*
X118027932Y-92746842D01*
X117915990Y-92476589D01*
X117753475Y-92233368D01*
X117546632Y-92026525D01*
X117372240Y-91910000D01*
X117546632Y-91793475D01*
X117753475Y-91586632D01*
X117915990Y-91343411D01*
X118027932Y-91073158D01*
X118085000Y-90786260D01*
X118085000Y-90493740D01*
X118027932Y-90206842D01*
X117915990Y-89936589D01*
X117753475Y-89693368D01*
X117621620Y-89561513D01*
X117694180Y-89539502D01*
X117804494Y-89480537D01*
X117901185Y-89401185D01*
X117980537Y-89304494D01*
X118039502Y-89194180D01*
X118075812Y-89074482D01*
X118088072Y-88950000D01*
X118088072Y-87953740D01*
X135615000Y-87953740D01*
X135615000Y-88246260D01*
X135672068Y-88533158D01*
X135784010Y-88803411D01*
X135946525Y-89046632D01*
X136153368Y-89253475D01*
X136396589Y-89415990D01*
X136666842Y-89527932D01*
X136953740Y-89585000D01*
X137246260Y-89585000D01*
X137533158Y-89527932D01*
X137803411Y-89415990D01*
X138046632Y-89253475D01*
X138253475Y-89046632D01*
X138415990Y-88803411D01*
X138527932Y-88533158D01*
X138585000Y-88246260D01*
X138585000Y-87953740D01*
X138527932Y-87666842D01*
X138415990Y-87396589D01*
X138253475Y-87153368D01*
X138046632Y-86946525D01*
X137803411Y-86784010D01*
X137533158Y-86672068D01*
X137246260Y-86615000D01*
X136953740Y-86615000D01*
X136666842Y-86672068D01*
X136396589Y-86784010D01*
X136153368Y-86946525D01*
X135946525Y-87153368D01*
X135784010Y-87396589D01*
X135672068Y-87666842D01*
X135615000Y-87953740D01*
X118088072Y-87953740D01*
X118088072Y-87250000D01*
X118075812Y-87125518D01*
X118039502Y-87005820D01*
X117980537Y-86895506D01*
X117901185Y-86798815D01*
X117804494Y-86719463D01*
X117694180Y-86660498D01*
X117574482Y-86624188D01*
X117450000Y-86611928D01*
X115750000Y-86611928D01*
X115625518Y-86624188D01*
X115505820Y-86660498D01*
X115395506Y-86719463D01*
X115298815Y-86798815D01*
X115219463Y-86895506D01*
X115160498Y-87005820D01*
X115124188Y-87125518D01*
X115111928Y-87250000D01*
X108863902Y-87250000D01*
X108863935Y-82773740D01*
X111715000Y-82773740D01*
X111715000Y-83066260D01*
X111772068Y-83353158D01*
X111884010Y-83623411D01*
X112046525Y-83866632D01*
X112253368Y-84073475D01*
X112427760Y-84190000D01*
X112253368Y-84306525D01*
X112046525Y-84513368D01*
X111884010Y-84756589D01*
X111772068Y-85026842D01*
X111715000Y-85313740D01*
X111715000Y-85606260D01*
X111772068Y-85893158D01*
X111884010Y-86163411D01*
X112046525Y-86406632D01*
X112253368Y-86613475D01*
X112496589Y-86775990D01*
X112766842Y-86887932D01*
X113053740Y-86945000D01*
X113346260Y-86945000D01*
X113633158Y-86887932D01*
X113903411Y-86775990D01*
X114146632Y-86613475D01*
X114353475Y-86406632D01*
X114515990Y-86163411D01*
X114627932Y-85893158D01*
X114685000Y-85606260D01*
X114685000Y-85313740D01*
X114627932Y-85026842D01*
X114515990Y-84756589D01*
X114353475Y-84513368D01*
X114146632Y-84306525D01*
X113972240Y-84190000D01*
X114146632Y-84073475D01*
X114353475Y-83866632D01*
X114515990Y-83623411D01*
X114627932Y-83353158D01*
X114685000Y-83066260D01*
X114685000Y-82773740D01*
X114627932Y-82486842D01*
X114515990Y-82216589D01*
X114353475Y-81973368D01*
X114146632Y-81766525D01*
X113903411Y-81604010D01*
X113633158Y-81492068D01*
X113346260Y-81435000D01*
X113053740Y-81435000D01*
X112766842Y-81492068D01*
X112496589Y-81604010D01*
X112253368Y-81766525D01*
X112046525Y-81973368D01*
X111884010Y-82216589D01*
X111772068Y-82486842D01*
X111715000Y-82773740D01*
X108863935Y-82773740D01*
X108864000Y-73943397D01*
X108936437Y-73131751D01*
X109121924Y-72453721D01*
X109899000Y-72453721D01*
X109899000Y-72874279D01*
X109981047Y-73286756D01*
X110141988Y-73675302D01*
X110375637Y-74024983D01*
X110673017Y-74322363D01*
X111022698Y-74556012D01*
X111411244Y-74716953D01*
X111823721Y-74799000D01*
X112244279Y-74799000D01*
X112656756Y-74716953D01*
X113045302Y-74556012D01*
X113394983Y-74322363D01*
X113692363Y-74024983D01*
X113926012Y-73675302D01*
X114086953Y-73286756D01*
X114169000Y-72874279D01*
X114169000Y-72453721D01*
X114086953Y-72041244D01*
X113927794Y-71657000D01*
X123918928Y-71657000D01*
X123918928Y-73943000D01*
X123931188Y-74067482D01*
X123967498Y-74187180D01*
X124026463Y-74297494D01*
X124105815Y-74394185D01*
X124202506Y-74473537D01*
X124312820Y-74532502D01*
X124432518Y-74568812D01*
X124557000Y-74581072D01*
X126843000Y-74581072D01*
X126967482Y-74568812D01*
X127087180Y-74532502D01*
X127197494Y-74473537D01*
X127294185Y-74394185D01*
X127373537Y-74297494D01*
X127432502Y-74187180D01*
X127468812Y-74067482D01*
X127481072Y-73943000D01*
X127481072Y-72624882D01*
X129002000Y-72624882D01*
X129002000Y-72975118D01*
X129070328Y-73318623D01*
X129204357Y-73642199D01*
X129398937Y-73933409D01*
X129646591Y-74181063D01*
X129937801Y-74375643D01*
X130261377Y-74509672D01*
X130604882Y-74578000D01*
X130955118Y-74578000D01*
X131298623Y-74509672D01*
X131622199Y-74375643D01*
X131913409Y-74181063D01*
X132161063Y-73933409D01*
X132355643Y-73642199D01*
X132489672Y-73318623D01*
X132558000Y-72975118D01*
X132558000Y-72624882D01*
X132489672Y-72281377D01*
X132355643Y-71957801D01*
X132161063Y-71666591D01*
X131913409Y-71418937D01*
X131622199Y-71224357D01*
X131298623Y-71090328D01*
X130955118Y-71022000D01*
X130604882Y-71022000D01*
X130261377Y-71090328D01*
X129937801Y-71224357D01*
X129646591Y-71418937D01*
X129398937Y-71666591D01*
X129204357Y-71957801D01*
X129070328Y-72281377D01*
X129002000Y-72624882D01*
X127481072Y-72624882D01*
X127481072Y-71657000D01*
X127468812Y-71532518D01*
X127432502Y-71412820D01*
X127373537Y-71302506D01*
X127294185Y-71205815D01*
X127197494Y-71126463D01*
X127087180Y-71067498D01*
X126967482Y-71031188D01*
X126843000Y-71018928D01*
X124557000Y-71018928D01*
X124432518Y-71031188D01*
X124312820Y-71067498D01*
X124202506Y-71126463D01*
X124105815Y-71205815D01*
X124026463Y-71302506D01*
X123967498Y-71412820D01*
X123931188Y-71532518D01*
X123918928Y-71657000D01*
X113927794Y-71657000D01*
X113926012Y-71652698D01*
X113692363Y-71303017D01*
X113394983Y-71005637D01*
X113045302Y-70771988D01*
X112656756Y-70611047D01*
X112244279Y-70529000D01*
X111823721Y-70529000D01*
X111411244Y-70611047D01*
X111022698Y-70771988D01*
X110673017Y-71005637D01*
X110375637Y-71303017D01*
X110141988Y-71652698D01*
X109981047Y-72041244D01*
X109899000Y-72453721D01*
X109121924Y-72453721D01*
X109143672Y-72374226D01*
X109481777Y-71665375D01*
X109940067Y-71027596D01*
X110504055Y-70481054D01*
X111155913Y-70043023D01*
X111875038Y-69727349D01*
X112643768Y-69542794D01*
X113308207Y-69494000D01*
X119806473Y-69494000D01*
X119804774Y-69498102D01*
G36*
X166525998Y-120777012D02*
G01*
X166515001Y-120888665D01*
X166515001Y-120888675D01*
X166511325Y-120925997D01*
X166515001Y-120963320D01*
X166515002Y-122095198D01*
X165691261Y-122918940D01*
X161785983Y-122918940D01*
X161682577Y-122764181D01*
X161482699Y-122564303D01*
X161250181Y-122408940D01*
X161482699Y-122253577D01*
X161682577Y-122053699D01*
X161839620Y-121818667D01*
X161947793Y-121557514D01*
X162002940Y-121280275D01*
X162002940Y-120997605D01*
X161958449Y-120773939D01*
X166526930Y-120773939D01*
X166525998Y-120777012D01*
G37*
X166525998Y-120777012D02*
X166515001Y-120888665D01*
X166515001Y-120888675D01*
X166511325Y-120925997D01*
X166515001Y-120963320D01*
X166515002Y-122095198D01*
X165691261Y-122918940D01*
X161785983Y-122918940D01*
X161682577Y-122764181D01*
X161482699Y-122564303D01*
X161250181Y-122408940D01*
X161482699Y-122253577D01*
X161682577Y-122053699D01*
X161839620Y-121818667D01*
X161947793Y-121557514D01*
X162002940Y-121280275D01*
X162002940Y-120997605D01*
X161958449Y-120773939D01*
X166526930Y-120773939D01*
X166525998Y-120777012D01*
G36*
X172960001Y-115265197D02*
G01*
X168860200Y-119364999D01*
X168308804Y-119364999D01*
X170326004Y-117347800D01*
X170355002Y-117324002D01*
X170381333Y-117291918D01*
X170449975Y-117208278D01*
X170520547Y-117076248D01*
X170522442Y-117070000D01*
X170564004Y-116932987D01*
X170575001Y-116821334D01*
X170575001Y-116821325D01*
X170578677Y-116784002D01*
X170575001Y-116746679D01*
X170575001Y-115970800D01*
X172866009Y-113679794D01*
X172895002Y-113656000D01*
X172918796Y-113627007D01*
X172918800Y-113627003D01*
X172960001Y-113576799D01*
X172960001Y-115265197D01*
G37*
X172960001Y-115265197D02*
X168860200Y-119364999D01*
X168308804Y-119364999D01*
X170326004Y-117347800D01*
X170355002Y-117324002D01*
X170381333Y-117291918D01*
X170449975Y-117208278D01*
X170520547Y-117076248D01*
X170522442Y-117070000D01*
X170564004Y-116932987D01*
X170575001Y-116821334D01*
X170575001Y-116821325D01*
X170578677Y-116784002D01*
X170575001Y-116746679D01*
X170575001Y-115970800D01*
X172866009Y-113679794D01*
X172895002Y-113656000D01*
X172918796Y-113627007D01*
X172918800Y-113627003D01*
X172960001Y-113576799D01*
X172960001Y-115265197D01*
G36*
X171595002Y-112801195D02*
G01*
X169432597Y-114963602D01*
X169343411Y-114904010D01*
X169073158Y-114792068D01*
X168786260Y-114735000D01*
X168493740Y-114735000D01*
X168273592Y-114778791D01*
X167627745Y-114132944D01*
X167603942Y-114103940D01*
X167488217Y-114008967D01*
X167356188Y-113938395D01*
X167212927Y-113894938D01*
X167101274Y-113883941D01*
X167101263Y-113883941D01*
X167063941Y-113880265D01*
X167026619Y-113883941D01*
X161958449Y-113883941D01*
X162002940Y-113660275D01*
X162002940Y-113377605D01*
X161947793Y-113100366D01*
X161839620Y-112839213D01*
X161682577Y-112604181D01*
X161482699Y-112404303D01*
X161250181Y-112248940D01*
X161482699Y-112093577D01*
X161682577Y-111893699D01*
X161839620Y-111658667D01*
X161947793Y-111397514D01*
X162002940Y-111120275D01*
X162002940Y-110837605D01*
X161977771Y-110711073D01*
X162098061Y-110735000D01*
X162301939Y-110735000D01*
X162501898Y-110695226D01*
X162690256Y-110617205D01*
X162859774Y-110503937D01*
X163003937Y-110359774D01*
X163050558Y-110290000D01*
X164611928Y-110290000D01*
X164611928Y-111990000D01*
X164624188Y-112114482D01*
X164660498Y-112234180D01*
X164719463Y-112344494D01*
X164798815Y-112441185D01*
X164895506Y-112520537D01*
X165005820Y-112579502D01*
X165125518Y-112615812D01*
X165250000Y-112628072D01*
X166950000Y-112628072D01*
X167074482Y-112615812D01*
X167194180Y-112579502D01*
X167304494Y-112520537D01*
X167401185Y-112441185D01*
X167480537Y-112344494D01*
X167539502Y-112234180D01*
X167561513Y-112161620D01*
X167693368Y-112293475D01*
X167936589Y-112455990D01*
X168206842Y-112567932D01*
X168493740Y-112625000D01*
X168786260Y-112625000D01*
X169073158Y-112567932D01*
X169343411Y-112455990D01*
X169586632Y-112293475D01*
X169793475Y-112086632D01*
X169955990Y-111843411D01*
X170067932Y-111573158D01*
X170125000Y-111286260D01*
X170125000Y-110993740D01*
X170067932Y-110706842D01*
X169955990Y-110436589D01*
X169793475Y-110193368D01*
X169586632Y-109986525D01*
X169343411Y-109824010D01*
X169073158Y-109712068D01*
X168786260Y-109655000D01*
X168493740Y-109655000D01*
X168206842Y-109712068D01*
X167936589Y-109824010D01*
X167693368Y-109986525D01*
X167561513Y-110118380D01*
X167539502Y-110045820D01*
X167480537Y-109935506D01*
X167401185Y-109838815D01*
X167304494Y-109759463D01*
X167194180Y-109700498D01*
X167074482Y-109664188D01*
X166950000Y-109651928D01*
X165250000Y-109651928D01*
X165125518Y-109664188D01*
X165005820Y-109700498D01*
X164895506Y-109759463D01*
X164798815Y-109838815D01*
X164719463Y-109935506D01*
X164660498Y-110045820D01*
X164624188Y-110165518D01*
X164611928Y-110290000D01*
X163050558Y-110290000D01*
X163117205Y-110190256D01*
X163195226Y-110001898D01*
X163235000Y-109801939D01*
X163235000Y-109598061D01*
X163195226Y-109398102D01*
X163117205Y-109209744D01*
X163003937Y-109040226D01*
X162859774Y-108896063D01*
X162690256Y-108782795D01*
X162501898Y-108704774D01*
X162301939Y-108665000D01*
X162098061Y-108665000D01*
X161981474Y-108688190D01*
X162002940Y-108580275D01*
X162002940Y-108297605D01*
X161958449Y-108073939D01*
X167348739Y-108073939D01*
X167386061Y-108077615D01*
X167423383Y-108073939D01*
X167423394Y-108073939D01*
X167535047Y-108062942D01*
X167678308Y-108019485D01*
X167810337Y-107948913D01*
X167926062Y-107853940D01*
X167949865Y-107824936D01*
X168273592Y-107501209D01*
X168493740Y-107545000D01*
X168786260Y-107545000D01*
X169073158Y-107487932D01*
X169343411Y-107375990D01*
X169586632Y-107213475D01*
X169793475Y-107006632D01*
X169955990Y-106763411D01*
X170067932Y-106493158D01*
X170125000Y-106206260D01*
X170125000Y-105913740D01*
X170067932Y-105626842D01*
X169955990Y-105356589D01*
X169793475Y-105113368D01*
X169586632Y-104906525D01*
X169343411Y-104744010D01*
X169073158Y-104632068D01*
X168786260Y-104575000D01*
X168659801Y-104575000D01*
X170813592Y-102421210D01*
X171033740Y-102465000D01*
X171326260Y-102465000D01*
X171595001Y-102411544D01*
X171595002Y-112801195D01*
G37*
X171595002Y-112801195D02*
X169432597Y-114963602D01*
X169343411Y-114904010D01*
X169073158Y-114792068D01*
X168786260Y-114735000D01*
X168493740Y-114735000D01*
X168273592Y-114778791D01*
X167627745Y-114132944D01*
X167603942Y-114103940D01*
X167488217Y-114008967D01*
X167356188Y-113938395D01*
X167212927Y-113894938D01*
X167101274Y-113883941D01*
X167101263Y-113883941D01*
X167063941Y-113880265D01*
X167026619Y-113883941D01*
X161958449Y-113883941D01*
X162002940Y-113660275D01*
X162002940Y-113377605D01*
X161947793Y-113100366D01*
X161839620Y-112839213D01*
X161682577Y-112604181D01*
X161482699Y-112404303D01*
X161250181Y-112248940D01*
X161482699Y-112093577D01*
X161682577Y-111893699D01*
X161839620Y-111658667D01*
X161947793Y-111397514D01*
X162002940Y-111120275D01*
X162002940Y-110837605D01*
X161977771Y-110711073D01*
X162098061Y-110735000D01*
X162301939Y-110735000D01*
X162501898Y-110695226D01*
X162690256Y-110617205D01*
X162859774Y-110503937D01*
X163003937Y-110359774D01*
X163050558Y-110290000D01*
X164611928Y-110290000D01*
X164611928Y-111990000D01*
X164624188Y-112114482D01*
X164660498Y-112234180D01*
X164719463Y-112344494D01*
X164798815Y-112441185D01*
X164895506Y-112520537D01*
X165005820Y-112579502D01*
X165125518Y-112615812D01*
X165250000Y-112628072D01*
X166950000Y-112628072D01*
X167074482Y-112615812D01*
X167194180Y-112579502D01*
X167304494Y-112520537D01*
X167401185Y-112441185D01*
X167480537Y-112344494D01*
X167539502Y-112234180D01*
X167561513Y-112161620D01*
X167693368Y-112293475D01*
X167936589Y-112455990D01*
X168206842Y-112567932D01*
X168493740Y-112625000D01*
X168786260Y-112625000D01*
X169073158Y-112567932D01*
X169343411Y-112455990D01*
X169586632Y-112293475D01*
X169793475Y-112086632D01*
X169955990Y-111843411D01*
X170067932Y-111573158D01*
X170125000Y-111286260D01*
X170125000Y-110993740D01*
X170067932Y-110706842D01*
X169955990Y-110436589D01*
X169793475Y-110193368D01*
X169586632Y-109986525D01*
X169343411Y-109824010D01*
X169073158Y-109712068D01*
X168786260Y-109655000D01*
X168493740Y-109655000D01*
X168206842Y-109712068D01*
X167936589Y-109824010D01*
X167693368Y-109986525D01*
X167561513Y-110118380D01*
X167539502Y-110045820D01*
X167480537Y-109935506D01*
X167401185Y-109838815D01*
X167304494Y-109759463D01*
X167194180Y-109700498D01*
X167074482Y-109664188D01*
X166950000Y-109651928D01*
X165250000Y-109651928D01*
X165125518Y-109664188D01*
X165005820Y-109700498D01*
X164895506Y-109759463D01*
X164798815Y-109838815D01*
X164719463Y-109935506D01*
X164660498Y-110045820D01*
X164624188Y-110165518D01*
X164611928Y-110290000D01*
X163050558Y-110290000D01*
X163117205Y-110190256D01*
X163195226Y-110001898D01*
X163235000Y-109801939D01*
X163235000Y-109598061D01*
X163195226Y-109398102D01*
X163117205Y-109209744D01*
X163003937Y-109040226D01*
X162859774Y-108896063D01*
X162690256Y-108782795D01*
X162501898Y-108704774D01*
X162301939Y-108665000D01*
X162098061Y-108665000D01*
X161981474Y-108688190D01*
X162002940Y-108580275D01*
X162002940Y-108297605D01*
X161958449Y-108073939D01*
X167348739Y-108073939D01*
X167386061Y-108077615D01*
X167423383Y-108073939D01*
X167423394Y-108073939D01*
X167535047Y-108062942D01*
X167678308Y-108019485D01*
X167810337Y-107948913D01*
X167926062Y-107853940D01*
X167949865Y-107824936D01*
X168273592Y-107501209D01*
X168493740Y-107545000D01*
X168786260Y-107545000D01*
X169073158Y-107487932D01*
X169343411Y-107375990D01*
X169586632Y-107213475D01*
X169793475Y-107006632D01*
X169955990Y-106763411D01*
X170067932Y-106493158D01*
X170125000Y-106206260D01*
X170125000Y-105913740D01*
X170067932Y-105626842D01*
X169955990Y-105356589D01*
X169793475Y-105113368D01*
X169586632Y-104906525D01*
X169343411Y-104744010D01*
X169073158Y-104632068D01*
X168786260Y-104575000D01*
X168659801Y-104575000D01*
X170813592Y-102421210D01*
X171033740Y-102465000D01*
X171326260Y-102465000D01*
X171595001Y-102411544D01*
X171595002Y-112801195D01*
G36*
X169067895Y-77562857D02*
G01*
X169045031Y-77567405D01*
X168792977Y-77671809D01*
X168566134Y-77823381D01*
X168373221Y-78016294D01*
X168221649Y-78243137D01*
X168117245Y-78495191D01*
X168064020Y-78762769D01*
X168064020Y-79035591D01*
X168117245Y-79303169D01*
X168127915Y-79328929D01*
X168035031Y-79347405D01*
X167782977Y-79451809D01*
X167556134Y-79603381D01*
X167363221Y-79796294D01*
X167211649Y-80023137D01*
X167107245Y-80275191D01*
X167054020Y-80542769D01*
X167054020Y-80815591D01*
X167089544Y-80994181D01*
X163299335Y-80994181D01*
X163324564Y-80986528D01*
X163544238Y-80869110D01*
X163736783Y-80711093D01*
X163894800Y-80518548D01*
X164012218Y-80298874D01*
X164084523Y-80060515D01*
X164102820Y-79874746D01*
X164102820Y-78647514D01*
X164094120Y-78559186D01*
X164395729Y-78619180D01*
X164840911Y-78619180D01*
X165277538Y-78532329D01*
X165688831Y-78361966D01*
X166058986Y-78114636D01*
X166373776Y-77799846D01*
X166621106Y-77429691D01*
X166791469Y-77018398D01*
X166878320Y-76581771D01*
X166878320Y-76136589D01*
X166791469Y-75699962D01*
X166621106Y-75288669D01*
X166373776Y-74918514D01*
X166058986Y-74603724D01*
X165993548Y-74560000D01*
X166065039Y-74560000D01*
X169067895Y-77562857D01*
G37*
X169067895Y-77562857D02*
X169045031Y-77567405D01*
X168792977Y-77671809D01*
X168566134Y-77823381D01*
X168373221Y-78016294D01*
X168221649Y-78243137D01*
X168117245Y-78495191D01*
X168064020Y-78762769D01*
X168064020Y-79035591D01*
X168117245Y-79303169D01*
X168127915Y-79328929D01*
X168035031Y-79347405D01*
X167782977Y-79451809D01*
X167556134Y-79603381D01*
X167363221Y-79796294D01*
X167211649Y-80023137D01*
X167107245Y-80275191D01*
X167054020Y-80542769D01*
X167054020Y-80815591D01*
X167089544Y-80994181D01*
X163299335Y-80994181D01*
X163324564Y-80986528D01*
X163544238Y-80869110D01*
X163736783Y-80711093D01*
X163894800Y-80518548D01*
X164012218Y-80298874D01*
X164084523Y-80060515D01*
X164102820Y-79874746D01*
X164102820Y-78647514D01*
X164094120Y-78559186D01*
X164395729Y-78619180D01*
X164840911Y-78619180D01*
X165277538Y-78532329D01*
X165688831Y-78361966D01*
X166058986Y-78114636D01*
X166373776Y-77799846D01*
X166621106Y-77429691D01*
X166791469Y-77018398D01*
X166878320Y-76581771D01*
X166878320Y-76136589D01*
X166791469Y-75699962D01*
X166621106Y-75288669D01*
X166373776Y-74918514D01*
X166058986Y-74603724D01*
X165993548Y-74560000D01*
X166065039Y-74560000D01*
X169067895Y-77562857D01*
M02*
