G04 #@! TF.GenerationSoftware,KiCad,Pcbnew,(5.1.6)-1*
G04 #@! TF.CreationDate,2021-01-04T14:19:30-06:00*
G04 #@! TF.ProjectId,ControlBoardnRF_22PinSound_PowerAmp,436f6e74-726f-46c4-926f-6172646e5246,rev?*
G04 #@! TF.SameCoordinates,Original*
G04 #@! TF.FileFunction,Copper,L1,Top*
G04 #@! TF.FilePolarity,Positive*
%FSLAX46Y46*%
G04 Gerber Fmt 4.6, Leading zero omitted, Abs format (unit mm)*
G04 Created by KiCad (PCBNEW (5.1.6)-1) date 2021-01-04 14:19:30*
%MOMM*%
%LPD*%
G01*
G04 APERTURE LIST*
G04 #@! TA.AperFunction,ComponentPad*
%ADD10C,1.600000*%
G04 #@! TD*
G04 #@! TA.AperFunction,ComponentPad*
%ADD11R,1.600000X1.600000*%
G04 #@! TD*
G04 #@! TA.AperFunction,ComponentPad*
%ADD12R,1.700000X1.700000*%
G04 #@! TD*
G04 #@! TA.AperFunction,ComponentPad*
%ADD13O,1.700000X1.700000*%
G04 #@! TD*
G04 #@! TA.AperFunction,WasherPad*
%ADD14C,3.250000*%
G04 #@! TD*
G04 #@! TA.AperFunction,ComponentPad*
%ADD15C,1.500000*%
G04 #@! TD*
G04 #@! TA.AperFunction,ComponentPad*
%ADD16C,0.100000*%
G04 #@! TD*
G04 #@! TA.AperFunction,ComponentPad*
%ADD17C,2.286000*%
G04 #@! TD*
G04 #@! TA.AperFunction,SMDPad,CuDef*
%ADD18R,1.500000X1.500000*%
G04 #@! TD*
G04 #@! TA.AperFunction,ComponentPad*
%ADD19C,0.800000*%
G04 #@! TD*
G04 #@! TA.AperFunction,ViaPad*
%ADD20C,0.800000*%
G04 #@! TD*
G04 #@! TA.AperFunction,Conductor*
%ADD21C,0.250000*%
G04 #@! TD*
G04 #@! TA.AperFunction,Conductor*
%ADD22C,1.000000*%
G04 #@! TD*
G04 #@! TA.AperFunction,Conductor*
%ADD23C,0.254000*%
G04 #@! TD*
G04 APERTURE END LIST*
D10*
X141067940Y-135378940D03*
X141067940Y-132838940D03*
X141067940Y-130298940D03*
X141067940Y-127758940D03*
X141067940Y-125218940D03*
X141067940Y-122678940D03*
X141067940Y-120138940D03*
X141067940Y-117598940D03*
X141067940Y-115058940D03*
X141067940Y-112518940D03*
X141067940Y-109978940D03*
X141067940Y-107438940D03*
X141067940Y-104898940D03*
D11*
X141067940Y-102358940D03*
D10*
X161367940Y-140458940D03*
X161367940Y-137918940D03*
X161367940Y-135378940D03*
X161367940Y-132838940D03*
X161367940Y-130298940D03*
X161367940Y-127758940D03*
X161367940Y-125218940D03*
X161367940Y-122678940D03*
X161367940Y-120138940D03*
X161367940Y-117598940D03*
X161367940Y-115058940D03*
X161367940Y-112518940D03*
X141067940Y-137918940D03*
X141067940Y-140458940D03*
D12*
X136000000Y-135400000D03*
D13*
X133460000Y-135400000D03*
X130920000Y-135400000D03*
X128380000Y-135400000D03*
X171180000Y-105900000D03*
X168640000Y-105900000D03*
D12*
X166100000Y-105900000D03*
X166100000Y-110980000D03*
D13*
X168640000Y-110980000D03*
X171180000Y-110980000D03*
D14*
X172661601Y-79202715D03*
X160727505Y-83546371D03*
D15*
X171518043Y-84216184D03*
X169950761Y-82892392D03*
X169610467Y-84910485D03*
X168043185Y-83586692D03*
X167702891Y-85604786D03*
X166135609Y-84280993D03*
X165795315Y-86299087D03*
G04 #@! TA.AperFunction,ComponentPad*
D16*
G36*
X164676287Y-84014009D02*
G01*
X165189318Y-85423548D01*
X163779779Y-85936579D01*
X163266748Y-84527040D01*
X164676287Y-84014009D01*
G37*
G04 #@! TD.AperFunction*
G04 #@! TA.AperFunction,ComponentPad*
G36*
G01*
X174923867Y-82054402D02*
X174546618Y-81017922D01*
G75*
G02*
X174922853Y-80211083I591537J215302D01*
G01*
X174922853Y-80211083D01*
G75*
G02*
X175729692Y-80587318I215302J-591537D01*
G01*
X176106940Y-81623798D01*
G75*
G02*
X175730705Y-82430637I-591537J-215302D01*
G01*
X175730705Y-82430637D01*
G75*
G02*
X174923866Y-82054402I-215302J591537D01*
G01*
G37*
G04 #@! TD.AperFunction*
G04 #@! TA.AperFunction,ComponentPad*
G36*
G01*
X159644465Y-87615650D02*
X159267216Y-86579170D01*
G75*
G02*
X159643451Y-85772331I591537J215302D01*
G01*
X159643451Y-85772331D01*
G75*
G02*
X160450290Y-86148566I215302J-591537D01*
G01*
X160827538Y-87185046D01*
G75*
G02*
X160451303Y-87991885I-591537J-215302D01*
G01*
X160451303Y-87991885D01*
G75*
G02*
X159644464Y-87615650I-215302J591537D01*
G01*
G37*
G04 #@! TD.AperFunction*
D12*
X116600000Y-93100000D03*
D13*
X137100000Y-93100000D03*
X116600000Y-95640000D03*
X137100000Y-95640000D03*
X116600000Y-98180000D03*
X137100000Y-98180000D03*
X116600000Y-100720000D03*
X137100000Y-100720000D03*
X116600000Y-103260000D03*
X137100000Y-103260000D03*
X116600000Y-105800000D03*
X137100000Y-105800000D03*
X116600000Y-108340000D03*
X137100000Y-108340000D03*
X116600000Y-110880000D03*
X137100000Y-110880000D03*
X116600000Y-113420000D03*
X137100000Y-113420000D03*
X116600000Y-115960000D03*
X137100000Y-115960000D03*
X116600000Y-118500000D03*
X137100000Y-118500000D03*
X173720000Y-144000000D03*
X171180000Y-144000000D03*
X168640000Y-144000000D03*
D12*
X166100000Y-144000000D03*
G04 #@! TA.AperFunction,ComponentPad*
D16*
G36*
X126200000Y-79616446D02*
G01*
X124583554Y-78000000D01*
X126200000Y-76383554D01*
X127816446Y-78000000D01*
X126200000Y-79616446D01*
G37*
G04 #@! TD.AperFunction*
D17*
X129792102Y-74407898D03*
D11*
X118500000Y-132200000D03*
D10*
X122000000Y-132200000D03*
D12*
X150300000Y-82100000D03*
D13*
X152840000Y-82100000D03*
G04 #@! TA.AperFunction,ComponentPad*
D16*
G36*
X116200000Y-148616446D02*
G01*
X114583554Y-147000000D01*
X116200000Y-145383554D01*
X117816446Y-147000000D01*
X116200000Y-148616446D01*
G37*
G04 #@! TD.AperFunction*
D17*
X119792102Y-143407898D03*
D18*
X146100000Y-149800000D03*
D12*
X166100000Y-121140000D03*
D13*
X168640000Y-121140000D03*
X171180000Y-121140000D03*
X173720000Y-121140000D03*
D12*
X166100000Y-126220000D03*
D13*
X168640000Y-126220000D03*
X171180000Y-126220000D03*
X171180000Y-131300000D03*
X168640000Y-131300000D03*
D12*
X166100000Y-131300000D03*
X113200000Y-83000000D03*
D13*
X113200000Y-80460000D03*
X113200000Y-77920000D03*
D12*
X113200000Y-103400000D03*
D13*
X113200000Y-100860000D03*
X113200000Y-98320000D03*
X113200000Y-118720000D03*
X113200000Y-121260000D03*
D12*
X113200000Y-123800000D03*
X166100000Y-136380000D03*
D13*
X168640000Y-136380000D03*
X171180000Y-136380000D03*
D19*
X126543575Y-98112850D03*
X127756425Y-98112850D03*
X127756425Y-95687150D03*
X126543575Y-95687150D03*
X128362850Y-96900000D03*
X125937150Y-96900000D03*
X127150000Y-96900000D03*
D18*
X142800000Y-87500000D03*
D13*
X178800000Y-105900000D03*
D12*
X176260000Y-105900000D03*
X176260000Y-110980000D03*
D13*
X178800000Y-110980000D03*
D18*
X141300000Y-149800000D03*
D20*
X162100000Y-89079858D03*
X163217941Y-124818939D03*
X156774903Y-101991210D03*
X133556040Y-120228360D03*
X117700000Y-82300000D03*
X134493000Y-97075000D03*
X138800000Y-76700000D03*
X147600000Y-75900000D03*
X137600000Y-86500000D03*
X146300000Y-91800000D03*
X156500000Y-94200000D03*
X133266878Y-100982382D03*
X133258494Y-98923386D03*
X124131502Y-101679602D03*
X129196423Y-101679718D03*
X133245721Y-96066901D03*
X157989766Y-92415086D03*
X132058980Y-96177000D03*
X123268199Y-120851401D03*
X151300000Y-110400000D03*
X163100000Y-132725000D03*
X155300000Y-95400000D03*
X163703939Y-119431068D03*
X155300000Y-94300000D03*
X164696084Y-119305885D03*
X168691527Y-101381208D03*
X167100000Y-134100000D03*
X172725000Y-98275000D03*
X130800000Y-102600000D03*
X147700000Y-111500000D03*
X159634339Y-92009668D03*
X165650000Y-109425000D03*
X147200000Y-105200000D03*
X147100000Y-104100000D03*
X161375000Y-90600000D03*
X167657631Y-101389785D03*
X160649990Y-92000000D03*
X166350000Y-107875000D03*
D21*
X133460000Y-141960000D02*
X141300000Y-149800000D01*
X133460000Y-135400000D02*
X133460000Y-141960000D01*
X163014544Y-89079858D02*
X165795315Y-86299087D01*
X162100000Y-89079858D02*
X163014544Y-89079858D01*
X163217941Y-124818939D02*
X162528926Y-124129924D01*
X162528926Y-124129924D02*
X162528926Y-118759926D01*
X162528926Y-118759926D02*
X161367940Y-117598940D01*
X159608238Y-105026705D02*
X156774903Y-102193370D01*
X161367940Y-117598940D02*
X159608238Y-115839238D01*
X156774903Y-102193370D02*
X156774903Y-101991210D01*
X159608238Y-115839238D02*
X159608238Y-105026705D01*
X133266878Y-100982382D02*
X133266878Y-98931770D01*
X133266878Y-98931770D02*
X133258494Y-98923386D01*
X129196307Y-101679602D02*
X129196423Y-101679718D01*
X124131502Y-101679602D02*
X129196307Y-101679602D01*
X133258494Y-96079674D02*
X133245721Y-96066901D01*
X133258494Y-98923386D02*
X133258494Y-96079674D01*
X133245721Y-96066901D02*
X133245721Y-95215277D01*
X140960998Y-87500000D02*
X142800000Y-87500000D01*
X133245721Y-95215277D02*
X140960998Y-87500000D01*
X162941738Y-86897429D02*
X157989766Y-91849401D01*
X157989766Y-91849401D02*
X157989766Y-92415086D01*
X162941738Y-84392415D02*
X162941738Y-86897429D01*
X169950761Y-82892392D02*
X169200762Y-82142393D01*
X165191760Y-82142393D02*
X162941738Y-84392415D01*
X169200762Y-82142393D02*
X165191760Y-82142393D01*
X168640000Y-138920000D02*
X166100000Y-136380000D01*
X168640000Y-144000000D02*
X168640000Y-138920000D01*
X166100000Y-136380000D02*
X166100000Y-131300000D01*
X166100000Y-131300000D02*
X166100000Y-126220000D01*
X166100000Y-126220000D02*
X166100000Y-121140000D01*
X157989766Y-92415086D02*
X163474985Y-97900305D01*
X163474985Y-97900305D02*
X163474985Y-106832808D01*
X163474985Y-106832808D02*
X164365235Y-107723058D01*
X164365235Y-117949716D02*
X166100000Y-119684481D01*
X164365235Y-107723058D02*
X164365235Y-117949716D01*
X166100000Y-119684481D02*
X166100000Y-121140000D01*
D22*
X132058980Y-96177000D02*
X132077000Y-96177000D01*
X132077000Y-96177000D02*
X132100000Y-96200000D01*
X132058980Y-96177000D02*
X132058980Y-112060620D01*
X132058980Y-112060620D02*
X123268199Y-120851401D01*
X123268199Y-127431801D02*
X118500000Y-132200000D01*
X123268199Y-120851401D02*
X123268199Y-127431801D01*
D21*
X161617943Y-128883941D02*
X163100000Y-130365998D01*
X146974999Y-115031001D02*
X160827939Y-128883941D01*
X146974999Y-111151999D02*
X146974999Y-115031001D01*
X148425001Y-111151999D02*
X148048001Y-110774999D01*
X150548001Y-111151999D02*
X148425001Y-111151999D01*
X151300000Y-110400000D02*
X150548001Y-111151999D01*
X163100000Y-130365998D02*
X163100000Y-132725000D01*
X147351999Y-110774999D02*
X146974999Y-111151999D01*
X160827939Y-128883941D02*
X161617943Y-128883941D01*
X148048001Y-110774999D02*
X147351999Y-110774999D01*
X166100000Y-105900000D02*
X166550000Y-105900000D01*
X162124952Y-107392008D02*
X162978937Y-108245993D01*
X162978937Y-108245993D02*
X162978937Y-123378937D01*
X164275002Y-133603248D02*
X162499310Y-135378940D01*
X164275002Y-124675002D02*
X164275002Y-133603248D01*
X162499310Y-135378940D02*
X161367940Y-135378940D01*
X162978937Y-123378937D02*
X164275002Y-124675002D01*
X150300000Y-82100000D02*
X150300000Y-91473002D01*
X162124952Y-103297954D02*
X162124952Y-107392008D01*
X150300000Y-91473002D02*
X162124952Y-103297954D01*
X162574963Y-102674963D02*
X162574963Y-107205609D01*
X163465214Y-119192343D02*
X163703939Y-119431068D01*
X162574963Y-107205609D02*
X163465214Y-108095860D01*
X163465214Y-108095860D02*
X163465214Y-119192343D01*
X155300000Y-95400000D02*
X162574963Y-102674963D01*
X163915223Y-118525024D02*
X164696084Y-119305885D01*
X163024974Y-102024974D02*
X163024974Y-107019209D01*
X163915223Y-107909458D02*
X163915223Y-118525024D01*
X155300000Y-94300000D02*
X163024974Y-102024974D01*
X163024974Y-107019209D02*
X163915223Y-107909458D01*
X158700000Y-120011000D02*
X161367940Y-122678940D01*
X155599891Y-98214889D02*
X155599891Y-102525611D01*
X158700000Y-105625720D02*
X158700000Y-120011000D01*
X137845002Y-80460000D02*
X155599891Y-98214889D01*
X155599891Y-102525611D02*
X158700000Y-105625720D01*
X113200000Y-80460000D02*
X137845002Y-80460000D01*
X156049902Y-98028490D02*
X137962868Y-79941456D01*
X137962868Y-79941456D02*
X115221456Y-79941456D01*
X156049902Y-102339211D02*
X156049902Y-98028490D01*
X159150009Y-105439318D02*
X156049902Y-102339211D01*
X115221456Y-79941456D02*
X113200000Y-77920000D01*
X161367940Y-120138940D02*
X159150009Y-117921009D01*
X159150009Y-117921009D02*
X159150009Y-105439318D01*
X167275001Y-102797734D02*
X168691527Y-101381208D01*
X167100000Y-134100000D02*
X167275001Y-133924999D01*
X167275001Y-133924999D02*
X167275001Y-102797734D01*
X169610467Y-84910485D02*
X169489999Y-85030953D01*
X169489999Y-85030953D02*
X169489999Y-105050001D01*
X169489999Y-105050001D02*
X168640000Y-105900000D01*
X170004999Y-109615001D02*
X168640000Y-110980000D01*
X172725000Y-98275000D02*
X170004999Y-100995001D01*
X170004999Y-100995001D02*
X170004999Y-109615001D01*
X123978898Y-102600000D02*
X130800000Y-102600000D01*
X113200000Y-98320000D02*
X114235001Y-99355001D01*
X120733899Y-99355001D02*
X123978898Y-102600000D01*
X114235001Y-99355001D02*
X120733899Y-99355001D01*
X161367940Y-125167940D02*
X161367940Y-125218940D01*
X147700000Y-111500000D02*
X161367940Y-125167940D01*
X160242939Y-131423941D02*
X161367940Y-130298940D01*
X140817937Y-131423941D02*
X160242939Y-131423941D01*
X114375001Y-119895001D02*
X114375001Y-130175001D01*
X113200000Y-118720000D02*
X114375001Y-119895001D01*
X114375001Y-130175001D02*
X117525001Y-133325001D01*
X117525001Y-133325001D02*
X138916877Y-133325001D01*
X138916877Y-133325001D02*
X140817937Y-131423941D01*
X160242939Y-133963941D02*
X161367940Y-132838940D01*
X112024999Y-128546412D02*
X117442528Y-133963941D01*
X117442528Y-133963941D02*
X160242939Y-133963941D01*
X113200000Y-121260000D02*
X112024999Y-122435001D01*
X112024999Y-122435001D02*
X112024999Y-128546412D01*
X159634339Y-92009668D02*
X164474988Y-96850317D01*
X164474988Y-96850317D02*
X164474988Y-107196401D01*
X164474988Y-107196401D02*
X165650000Y-108371413D01*
X165650000Y-108371413D02*
X165650000Y-109425000D01*
X147200000Y-105200000D02*
X146524988Y-105875012D01*
X146524988Y-119761892D02*
X141067940Y-125218940D01*
X146524988Y-105875012D02*
X146524988Y-119761892D01*
X141067940Y-122678940D02*
X142192941Y-121553939D01*
X142192941Y-121553939D02*
X142192941Y-109007059D01*
X142192941Y-109007059D02*
X147100000Y-104100000D01*
X167657631Y-96882631D02*
X167657631Y-101389785D01*
X161375000Y-90600000D02*
X167657631Y-96882631D01*
X160649990Y-92000000D02*
X164924999Y-96275009D01*
X164924999Y-96275009D02*
X164924999Y-107010001D01*
X164924999Y-107010001D02*
X165789998Y-107875000D01*
X165789998Y-107875000D02*
X166350000Y-107875000D01*
D23*
G36*
X176456249Y-69566437D02*
G01*
X177213774Y-69773672D01*
X177922625Y-70111777D01*
X178560404Y-70570067D01*
X179106946Y-71134055D01*
X179544977Y-71785913D01*
X179860651Y-72505038D01*
X180045206Y-73273768D01*
X180094001Y-73938221D01*
X180094001Y-105163680D01*
X179953475Y-104953368D01*
X179746632Y-104746525D01*
X179503411Y-104584010D01*
X179233158Y-104472068D01*
X178946260Y-104415000D01*
X178653740Y-104415000D01*
X178366842Y-104472068D01*
X178096589Y-104584010D01*
X177853368Y-104746525D01*
X177721513Y-104878380D01*
X177699502Y-104805820D01*
X177640537Y-104695506D01*
X177561185Y-104598815D01*
X177464494Y-104519463D01*
X177354180Y-104460498D01*
X177234482Y-104424188D01*
X177110000Y-104411928D01*
X175410000Y-104411928D01*
X175285518Y-104424188D01*
X175165820Y-104460498D01*
X175055506Y-104519463D01*
X174958815Y-104598815D01*
X174879463Y-104695506D01*
X174820498Y-104805820D01*
X174784188Y-104925518D01*
X174771928Y-105050000D01*
X174771928Y-106750000D01*
X174784188Y-106874482D01*
X174820498Y-106994180D01*
X174879463Y-107104494D01*
X174958815Y-107201185D01*
X175055506Y-107280537D01*
X175165820Y-107339502D01*
X175285518Y-107375812D01*
X175410000Y-107388072D01*
X177110000Y-107388072D01*
X177234482Y-107375812D01*
X177354180Y-107339502D01*
X177464494Y-107280537D01*
X177561185Y-107201185D01*
X177640537Y-107104494D01*
X177699502Y-106994180D01*
X177721513Y-106921620D01*
X177853368Y-107053475D01*
X178096589Y-107215990D01*
X178366842Y-107327932D01*
X178653740Y-107385000D01*
X178946260Y-107385000D01*
X179233158Y-107327932D01*
X179503411Y-107215990D01*
X179746632Y-107053475D01*
X179953475Y-106846632D01*
X180094001Y-106636320D01*
X180094001Y-110243679D01*
X179953475Y-110033368D01*
X179746632Y-109826525D01*
X179503411Y-109664010D01*
X179233158Y-109552068D01*
X178946260Y-109495000D01*
X178653740Y-109495000D01*
X178366842Y-109552068D01*
X178096589Y-109664010D01*
X177853368Y-109826525D01*
X177721513Y-109958380D01*
X177699502Y-109885820D01*
X177640537Y-109775506D01*
X177561185Y-109678815D01*
X177464494Y-109599463D01*
X177354180Y-109540498D01*
X177234482Y-109504188D01*
X177110000Y-109491928D01*
X175410000Y-109491928D01*
X175285518Y-109504188D01*
X175165820Y-109540498D01*
X175055506Y-109599463D01*
X174958815Y-109678815D01*
X174879463Y-109775506D01*
X174820498Y-109885820D01*
X174784188Y-110005518D01*
X174771928Y-110130000D01*
X174771928Y-111830000D01*
X174784188Y-111954482D01*
X174820498Y-112074180D01*
X174879463Y-112184494D01*
X174958815Y-112281185D01*
X175055506Y-112360537D01*
X175165820Y-112419502D01*
X175285518Y-112455812D01*
X175410000Y-112468072D01*
X177110000Y-112468072D01*
X177234482Y-112455812D01*
X177354180Y-112419502D01*
X177464494Y-112360537D01*
X177561185Y-112281185D01*
X177640537Y-112184494D01*
X177699502Y-112074180D01*
X177721513Y-112001620D01*
X177853368Y-112133475D01*
X178096589Y-112295990D01*
X178366842Y-112407932D01*
X178653740Y-112465000D01*
X178946260Y-112465000D01*
X179233158Y-112407932D01*
X179503411Y-112295990D01*
X179746632Y-112133475D01*
X179953475Y-111926632D01*
X180094001Y-111716321D01*
X180094000Y-152846078D01*
X180021486Y-153657675D01*
X179814175Y-154415185D01*
X179476001Y-155124002D01*
X179017650Y-155761731D01*
X178453607Y-156308220D01*
X177801710Y-156746184D01*
X177082546Y-157061790D01*
X176313798Y-157246270D01*
X175649335Y-157295000D01*
X123312892Y-157295000D01*
X122501251Y-157222563D01*
X121743726Y-157015328D01*
X121034873Y-156677221D01*
X120382977Y-156208787D01*
X120149539Y-155991862D01*
X118172021Y-154014344D01*
X120815000Y-154014344D01*
X120815000Y-154385656D01*
X120887439Y-154749834D01*
X121029534Y-155092882D01*
X121235825Y-155401618D01*
X121498382Y-155664175D01*
X121807118Y-155870466D01*
X122150166Y-156012561D01*
X122514344Y-156085000D01*
X122885656Y-156085000D01*
X123249834Y-156012561D01*
X123592882Y-155870466D01*
X123901618Y-155664175D01*
X124164175Y-155401618D01*
X124370466Y-155092882D01*
X124512561Y-154749834D01*
X124585000Y-154385656D01*
X124585000Y-154014344D01*
X175115000Y-154014344D01*
X175115000Y-154385656D01*
X175187439Y-154749834D01*
X175329534Y-155092882D01*
X175535825Y-155401618D01*
X175798382Y-155664175D01*
X176107118Y-155870466D01*
X176450166Y-156012561D01*
X176814344Y-156085000D01*
X177185656Y-156085000D01*
X177549834Y-156012561D01*
X177892882Y-155870466D01*
X178201618Y-155664175D01*
X178464175Y-155401618D01*
X178670466Y-155092882D01*
X178812561Y-154749834D01*
X178885000Y-154385656D01*
X178885000Y-154014344D01*
X178812561Y-153650166D01*
X178670466Y-153307118D01*
X178464175Y-152998382D01*
X178201618Y-152735825D01*
X177892882Y-152529534D01*
X177549834Y-152387439D01*
X177185656Y-152315000D01*
X176814344Y-152315000D01*
X176450166Y-152387439D01*
X176107118Y-152529534D01*
X175798382Y-152735825D01*
X175535825Y-152998382D01*
X175329534Y-153307118D01*
X175187439Y-153650166D01*
X175115000Y-154014344D01*
X124585000Y-154014344D01*
X124512561Y-153650166D01*
X124370466Y-153307118D01*
X124164175Y-152998382D01*
X123901618Y-152735825D01*
X123592882Y-152529534D01*
X123249834Y-152387439D01*
X122885656Y-152315000D01*
X122514344Y-152315000D01*
X122150166Y-152387439D01*
X121807118Y-152529534D01*
X121498382Y-152735825D01*
X121235825Y-152998382D01*
X121029534Y-153307118D01*
X120887439Y-153650166D01*
X120815000Y-154014344D01*
X118172021Y-154014344D01*
X111331021Y-147173344D01*
X130343100Y-147173344D01*
X130343100Y-147544656D01*
X130415539Y-147908834D01*
X130557634Y-148251882D01*
X130763925Y-148560618D01*
X131026482Y-148823175D01*
X131335218Y-149029466D01*
X131678266Y-149171561D01*
X132042444Y-149244000D01*
X132413756Y-149244000D01*
X132777934Y-149171561D01*
X133120982Y-149029466D01*
X133429718Y-148823175D01*
X133692275Y-148560618D01*
X133898566Y-148251882D01*
X134040661Y-147908834D01*
X134113100Y-147544656D01*
X134113100Y-147173344D01*
X134040661Y-146809166D01*
X133898566Y-146466118D01*
X133692275Y-146157382D01*
X133429718Y-145894825D01*
X133120982Y-145688534D01*
X132777934Y-145546439D01*
X132413756Y-145474000D01*
X132042444Y-145474000D01*
X131678266Y-145546439D01*
X131335218Y-145688534D01*
X131026482Y-145894825D01*
X130763925Y-146157382D01*
X130557634Y-146466118D01*
X130415539Y-146809166D01*
X130343100Y-147173344D01*
X111331021Y-147173344D01*
X110178879Y-146021203D01*
X109656176Y-145396057D01*
X109267061Y-144713866D01*
X109004905Y-143973561D01*
X108883597Y-143232780D01*
X118014102Y-143232780D01*
X118014102Y-143583016D01*
X118082430Y-143926521D01*
X118216459Y-144250097D01*
X118411039Y-144541307D01*
X118658693Y-144788961D01*
X118949903Y-144983541D01*
X119273479Y-145117570D01*
X119616984Y-145185898D01*
X119967220Y-145185898D01*
X120310725Y-145117570D01*
X120634301Y-144983541D01*
X120925511Y-144788961D01*
X121173165Y-144541307D01*
X121367745Y-144250097D01*
X121501774Y-143926521D01*
X121570102Y-143583016D01*
X121570102Y-143232780D01*
X121501774Y-142889275D01*
X121367745Y-142565699D01*
X121173165Y-142274489D01*
X120925511Y-142026835D01*
X120634301Y-141832255D01*
X120310725Y-141698226D01*
X119967220Y-141629898D01*
X119616984Y-141629898D01*
X119273479Y-141698226D01*
X118949903Y-141832255D01*
X118658693Y-142026835D01*
X118411039Y-142274489D01*
X118216459Y-142565699D01*
X118082430Y-142889275D01*
X118014102Y-143232780D01*
X108883597Y-143232780D01*
X108875178Y-143181369D01*
X108863499Y-142862876D01*
X108863647Y-122435001D01*
X111261323Y-122435001D01*
X111264999Y-122472324D01*
X111265000Y-128509080D01*
X111261323Y-128546412D01*
X111275997Y-128695397D01*
X111319453Y-128838658D01*
X111390025Y-128970688D01*
X111441103Y-129032926D01*
X111484999Y-129086413D01*
X111513997Y-129110211D01*
X116878729Y-134474944D01*
X116902527Y-134503942D01*
X116931525Y-134527740D01*
X117018251Y-134598915D01*
X117088236Y-134636323D01*
X117150281Y-134669487D01*
X117293542Y-134712944D01*
X117405195Y-134723941D01*
X117405205Y-134723941D01*
X117442528Y-134727617D01*
X117479850Y-134723941D01*
X127052680Y-134723941D01*
X126952068Y-134966842D01*
X126895000Y-135253740D01*
X126895000Y-135546260D01*
X126952068Y-135833158D01*
X127064010Y-136103411D01*
X127226525Y-136346632D01*
X127433368Y-136553475D01*
X127676589Y-136715990D01*
X127946842Y-136827932D01*
X128233740Y-136885000D01*
X128526260Y-136885000D01*
X128813158Y-136827932D01*
X129083411Y-136715990D01*
X129326632Y-136553475D01*
X129533475Y-136346632D01*
X129650000Y-136172240D01*
X129766525Y-136346632D01*
X129973368Y-136553475D01*
X130216589Y-136715990D01*
X130486842Y-136827932D01*
X130773740Y-136885000D01*
X131066260Y-136885000D01*
X131353158Y-136827932D01*
X131623411Y-136715990D01*
X131866632Y-136553475D01*
X132073475Y-136346632D01*
X132190000Y-136172240D01*
X132306525Y-136346632D01*
X132513368Y-136553475D01*
X132700000Y-136678179D01*
X132700001Y-141922668D01*
X132696324Y-141960000D01*
X132710998Y-142108985D01*
X132754454Y-142252246D01*
X132825026Y-142384276D01*
X132896201Y-142471002D01*
X132920000Y-142500001D01*
X132948998Y-142523799D01*
X139911928Y-149486730D01*
X139911928Y-150550000D01*
X139924188Y-150674482D01*
X139960498Y-150794180D01*
X140019463Y-150904494D01*
X140098815Y-151001185D01*
X140195506Y-151080537D01*
X140305820Y-151139502D01*
X140425518Y-151175812D01*
X140550000Y-151188072D01*
X142050000Y-151188072D01*
X142174482Y-151175812D01*
X142294180Y-151139502D01*
X142404494Y-151080537D01*
X142501185Y-151001185D01*
X142580537Y-150904494D01*
X142639502Y-150794180D01*
X142675812Y-150674482D01*
X142688072Y-150550000D01*
X142688072Y-149050000D01*
X142675812Y-148925518D01*
X142639502Y-148805820D01*
X142580537Y-148695506D01*
X142501185Y-148598815D01*
X142404494Y-148519463D01*
X142294180Y-148460498D01*
X142174482Y-148424188D01*
X142050000Y-148411928D01*
X140986730Y-148411928D01*
X134220000Y-141645199D01*
X134220000Y-136678178D01*
X134406632Y-136553475D01*
X134613475Y-136346632D01*
X134775990Y-136103411D01*
X134887932Y-135833158D01*
X134945000Y-135546260D01*
X134945000Y-135253740D01*
X134887932Y-134966842D01*
X134787320Y-134723941D01*
X139786017Y-134723941D01*
X139688087Y-134960366D01*
X139632940Y-135237605D01*
X139632940Y-135520275D01*
X139688087Y-135797514D01*
X139796260Y-136058667D01*
X139953303Y-136293699D01*
X140153181Y-136493577D01*
X140385699Y-136648940D01*
X140153181Y-136804303D01*
X139953303Y-137004181D01*
X139796260Y-137239213D01*
X139688087Y-137500366D01*
X139632940Y-137777605D01*
X139632940Y-138060275D01*
X139688087Y-138337514D01*
X139796260Y-138598667D01*
X139953303Y-138833699D01*
X140153181Y-139033577D01*
X140385699Y-139188940D01*
X140153181Y-139344303D01*
X139953303Y-139544181D01*
X139796260Y-139779213D01*
X139688087Y-140040366D01*
X139632940Y-140317605D01*
X139632940Y-140600275D01*
X139688087Y-140877514D01*
X139796260Y-141138667D01*
X139953303Y-141373699D01*
X140153181Y-141573577D01*
X140388213Y-141730620D01*
X140649366Y-141838793D01*
X140926605Y-141893940D01*
X141209275Y-141893940D01*
X141486514Y-141838793D01*
X141747667Y-141730620D01*
X141982699Y-141573577D01*
X142182577Y-141373699D01*
X142339620Y-141138667D01*
X142447793Y-140877514D01*
X142502940Y-140600275D01*
X142502940Y-140317605D01*
X142447793Y-140040366D01*
X142339620Y-139779213D01*
X142182577Y-139544181D01*
X141982699Y-139344303D01*
X141750181Y-139188940D01*
X141982699Y-139033577D01*
X142182577Y-138833699D01*
X142339620Y-138598667D01*
X142447793Y-138337514D01*
X142502940Y-138060275D01*
X142502940Y-137777605D01*
X142447793Y-137500366D01*
X142339620Y-137239213D01*
X142182577Y-137004181D01*
X141982699Y-136804303D01*
X141750181Y-136648940D01*
X141982699Y-136493577D01*
X142182577Y-136293699D01*
X142339620Y-136058667D01*
X142447793Y-135797514D01*
X142502940Y-135520275D01*
X142502940Y-135237605D01*
X142447793Y-134960366D01*
X142349863Y-134723941D01*
X160086017Y-134723941D01*
X159988087Y-134960366D01*
X159932940Y-135237605D01*
X159932940Y-135520275D01*
X159988087Y-135797514D01*
X160096260Y-136058667D01*
X160253303Y-136293699D01*
X160453181Y-136493577D01*
X160685699Y-136648940D01*
X160453181Y-136804303D01*
X160253303Y-137004181D01*
X160096260Y-137239213D01*
X159988087Y-137500366D01*
X159932940Y-137777605D01*
X159932940Y-138060275D01*
X159988087Y-138337514D01*
X160096260Y-138598667D01*
X160253303Y-138833699D01*
X160453181Y-139033577D01*
X160685699Y-139188940D01*
X160453181Y-139344303D01*
X160253303Y-139544181D01*
X160096260Y-139779213D01*
X159988087Y-140040366D01*
X159932940Y-140317605D01*
X159932940Y-140600275D01*
X159988087Y-140877514D01*
X160096260Y-141138667D01*
X160253303Y-141373699D01*
X160453181Y-141573577D01*
X160688213Y-141730620D01*
X160949366Y-141838793D01*
X161226605Y-141893940D01*
X161509275Y-141893940D01*
X161786514Y-141838793D01*
X162047667Y-141730620D01*
X162282699Y-141573577D01*
X162482577Y-141373699D01*
X162639620Y-141138667D01*
X162747793Y-140877514D01*
X162802940Y-140600275D01*
X162802940Y-140317605D01*
X162747793Y-140040366D01*
X162639620Y-139779213D01*
X162482577Y-139544181D01*
X162282699Y-139344303D01*
X162050181Y-139188940D01*
X162282699Y-139033577D01*
X162482577Y-138833699D01*
X162639620Y-138598667D01*
X162747793Y-138337514D01*
X162802940Y-138060275D01*
X162802940Y-137777605D01*
X162747793Y-137500366D01*
X162639620Y-137239213D01*
X162482577Y-137004181D01*
X162282699Y-136804303D01*
X162050181Y-136648940D01*
X162282699Y-136493577D01*
X162482577Y-136293699D01*
X162589459Y-136133738D01*
X162648296Y-136127943D01*
X162791557Y-136084486D01*
X162923586Y-136013914D01*
X163039311Y-135918941D01*
X163063114Y-135889937D01*
X164786005Y-134167047D01*
X164815003Y-134143249D01*
X164909976Y-134027524D01*
X164980548Y-133895495D01*
X165024005Y-133752234D01*
X165035002Y-133640581D01*
X165035002Y-133640573D01*
X165038678Y-133603248D01*
X165035002Y-133565923D01*
X165035002Y-132748354D01*
X165125518Y-132775812D01*
X165250000Y-132788072D01*
X165340001Y-132788072D01*
X165340000Y-134891928D01*
X165250000Y-134891928D01*
X165125518Y-134904188D01*
X165005820Y-134940498D01*
X164895506Y-134999463D01*
X164798815Y-135078815D01*
X164719463Y-135175506D01*
X164660498Y-135285820D01*
X164624188Y-135405518D01*
X164611928Y-135530000D01*
X164611928Y-137230000D01*
X164624188Y-137354482D01*
X164660498Y-137474180D01*
X164719463Y-137584494D01*
X164798815Y-137681185D01*
X164895506Y-137760537D01*
X165005820Y-137819502D01*
X165125518Y-137855812D01*
X165250000Y-137868072D01*
X166513270Y-137868072D01*
X167880001Y-139234804D01*
X167880000Y-142721821D01*
X167693368Y-142846525D01*
X167486525Y-143053368D01*
X167324010Y-143296589D01*
X167212068Y-143566842D01*
X167155000Y-143853740D01*
X167155000Y-144146260D01*
X167212068Y-144433158D01*
X167324010Y-144703411D01*
X167486525Y-144946632D01*
X167693368Y-145153475D01*
X167936589Y-145315990D01*
X168206842Y-145427932D01*
X168493740Y-145485000D01*
X168786260Y-145485000D01*
X169073158Y-145427932D01*
X169343411Y-145315990D01*
X169586632Y-145153475D01*
X169793475Y-144946632D01*
X169910000Y-144772240D01*
X170026525Y-144946632D01*
X170233368Y-145153475D01*
X170476589Y-145315990D01*
X170746842Y-145427932D01*
X171033740Y-145485000D01*
X171326260Y-145485000D01*
X171613158Y-145427932D01*
X171883411Y-145315990D01*
X172126632Y-145153475D01*
X172333475Y-144946632D01*
X172450000Y-144772240D01*
X172566525Y-144946632D01*
X172773368Y-145153475D01*
X173016589Y-145315990D01*
X173286842Y-145427932D01*
X173573740Y-145485000D01*
X173866260Y-145485000D01*
X174153158Y-145427932D01*
X174423411Y-145315990D01*
X174666632Y-145153475D01*
X174873475Y-144946632D01*
X175035990Y-144703411D01*
X175147932Y-144433158D01*
X175205000Y-144146260D01*
X175205000Y-143853740D01*
X175147932Y-143566842D01*
X175035990Y-143296589D01*
X174873475Y-143053368D01*
X174666632Y-142846525D01*
X174423411Y-142684010D01*
X174153158Y-142572068D01*
X173866260Y-142515000D01*
X173573740Y-142515000D01*
X173286842Y-142572068D01*
X173016589Y-142684010D01*
X172773368Y-142846525D01*
X172566525Y-143053368D01*
X172450000Y-143227760D01*
X172333475Y-143053368D01*
X172126632Y-142846525D01*
X171883411Y-142684010D01*
X171613158Y-142572068D01*
X171326260Y-142515000D01*
X171033740Y-142515000D01*
X170746842Y-142572068D01*
X170476589Y-142684010D01*
X170233368Y-142846525D01*
X170026525Y-143053368D01*
X169910000Y-143227760D01*
X169793475Y-143053368D01*
X169586632Y-142846525D01*
X169400000Y-142721822D01*
X169400000Y-138957322D01*
X169403676Y-138919999D01*
X169400000Y-138882676D01*
X169400000Y-138882667D01*
X169389003Y-138771014D01*
X169345546Y-138627753D01*
X169274974Y-138495724D01*
X169261811Y-138479685D01*
X169203799Y-138408996D01*
X169203795Y-138408992D01*
X169180001Y-138379999D01*
X169151008Y-138356205D01*
X168659803Y-137865000D01*
X168786260Y-137865000D01*
X169073158Y-137807932D01*
X169343411Y-137695990D01*
X169586632Y-137533475D01*
X169793475Y-137326632D01*
X169955990Y-137083411D01*
X170067932Y-136813158D01*
X170125000Y-136526260D01*
X170125000Y-136233740D01*
X170067932Y-135946842D01*
X169955990Y-135676589D01*
X169793475Y-135433368D01*
X169586632Y-135226525D01*
X169343411Y-135064010D01*
X169073158Y-134952068D01*
X168786260Y-134895000D01*
X168493740Y-134895000D01*
X168206842Y-134952068D01*
X167936589Y-135064010D01*
X167693368Y-135226525D01*
X167561513Y-135358380D01*
X167539502Y-135285820D01*
X167480537Y-135175506D01*
X167411417Y-135091283D01*
X167590256Y-135017205D01*
X167759774Y-134903937D01*
X167903937Y-134759774D01*
X168017205Y-134590256D01*
X168095226Y-134401898D01*
X168135000Y-134201939D01*
X168135000Y-133998061D01*
X168095226Y-133798102D01*
X168035001Y-133652707D01*
X168035001Y-132656753D01*
X168206842Y-132727932D01*
X168493740Y-132785000D01*
X168786260Y-132785000D01*
X169073158Y-132727932D01*
X169343411Y-132615990D01*
X169586632Y-132453475D01*
X169793475Y-132246632D01*
X169955990Y-132003411D01*
X170067932Y-131733158D01*
X170125000Y-131446260D01*
X170125000Y-131153740D01*
X170067932Y-130866842D01*
X169955990Y-130596589D01*
X169793475Y-130353368D01*
X169586632Y-130146525D01*
X169343411Y-129984010D01*
X169073158Y-129872068D01*
X168786260Y-129815000D01*
X168493740Y-129815000D01*
X168206842Y-129872068D01*
X168035001Y-129943247D01*
X168035001Y-126073740D01*
X169695000Y-126073740D01*
X169695000Y-126366260D01*
X169752068Y-126653158D01*
X169864010Y-126923411D01*
X170026525Y-127166632D01*
X170233368Y-127373475D01*
X170476589Y-127535990D01*
X170746842Y-127647932D01*
X171033740Y-127705000D01*
X171326260Y-127705000D01*
X171613158Y-127647932D01*
X171883411Y-127535990D01*
X172126632Y-127373475D01*
X172333475Y-127166632D01*
X172495990Y-126923411D01*
X172607932Y-126653158D01*
X172665000Y-126366260D01*
X172665000Y-126073740D01*
X172607932Y-125786842D01*
X172495990Y-125516589D01*
X172333475Y-125273368D01*
X172126632Y-125066525D01*
X171883411Y-124904010D01*
X171613158Y-124792068D01*
X171326260Y-124735000D01*
X171033740Y-124735000D01*
X170746842Y-124792068D01*
X170476589Y-124904010D01*
X170233368Y-125066525D01*
X170026525Y-125273368D01*
X169864010Y-125516589D01*
X169752068Y-125786842D01*
X169695000Y-126073740D01*
X168035001Y-126073740D01*
X168035001Y-120993740D01*
X169695000Y-120993740D01*
X169695000Y-121286260D01*
X169752068Y-121573158D01*
X169864010Y-121843411D01*
X170026525Y-122086632D01*
X170233368Y-122293475D01*
X170476589Y-122455990D01*
X170746842Y-122567932D01*
X171033740Y-122625000D01*
X171326260Y-122625000D01*
X171613158Y-122567932D01*
X171883411Y-122455990D01*
X172126632Y-122293475D01*
X172333475Y-122086632D01*
X172450000Y-121912240D01*
X172566525Y-122086632D01*
X172773368Y-122293475D01*
X173016589Y-122455990D01*
X173286842Y-122567932D01*
X173573740Y-122625000D01*
X173866260Y-122625000D01*
X174153158Y-122567932D01*
X174423411Y-122455990D01*
X174666632Y-122293475D01*
X174873475Y-122086632D01*
X175035990Y-121843411D01*
X175147932Y-121573158D01*
X175205000Y-121286260D01*
X175205000Y-120993740D01*
X175147932Y-120706842D01*
X175035990Y-120436589D01*
X174873475Y-120193368D01*
X174666632Y-119986525D01*
X174423411Y-119824010D01*
X174153158Y-119712068D01*
X173866260Y-119655000D01*
X173573740Y-119655000D01*
X173286842Y-119712068D01*
X173016589Y-119824010D01*
X172773368Y-119986525D01*
X172566525Y-120193368D01*
X172450000Y-120367760D01*
X172333475Y-120193368D01*
X172126632Y-119986525D01*
X171883411Y-119824010D01*
X171613158Y-119712068D01*
X171326260Y-119655000D01*
X171033740Y-119655000D01*
X170746842Y-119712068D01*
X170476589Y-119824010D01*
X170233368Y-119986525D01*
X170026525Y-120193368D01*
X169864010Y-120436589D01*
X169752068Y-120706842D01*
X169695000Y-120993740D01*
X168035001Y-120993740D01*
X168035001Y-112336753D01*
X168206842Y-112407932D01*
X168493740Y-112465000D01*
X168786260Y-112465000D01*
X169073158Y-112407932D01*
X169343411Y-112295990D01*
X169586632Y-112133475D01*
X169793475Y-111926632D01*
X169910000Y-111752240D01*
X170026525Y-111926632D01*
X170233368Y-112133475D01*
X170476589Y-112295990D01*
X170746842Y-112407932D01*
X171033740Y-112465000D01*
X171326260Y-112465000D01*
X171613158Y-112407932D01*
X171883411Y-112295990D01*
X172126632Y-112133475D01*
X172333475Y-111926632D01*
X172495990Y-111683411D01*
X172607932Y-111413158D01*
X172665000Y-111126260D01*
X172665000Y-110833740D01*
X172607932Y-110546842D01*
X172495990Y-110276589D01*
X172333475Y-110033368D01*
X172126632Y-109826525D01*
X171883411Y-109664010D01*
X171613158Y-109552068D01*
X171326260Y-109495000D01*
X171033740Y-109495000D01*
X170764999Y-109548456D01*
X170764999Y-107331544D01*
X171033740Y-107385000D01*
X171326260Y-107385000D01*
X171613158Y-107327932D01*
X171883411Y-107215990D01*
X172126632Y-107053475D01*
X172333475Y-106846632D01*
X172495990Y-106603411D01*
X172607932Y-106333158D01*
X172665000Y-106046260D01*
X172665000Y-105753740D01*
X172607932Y-105466842D01*
X172495990Y-105196589D01*
X172333475Y-104953368D01*
X172126632Y-104746525D01*
X171883411Y-104584010D01*
X171613158Y-104472068D01*
X171326260Y-104415000D01*
X171033740Y-104415000D01*
X170764999Y-104468456D01*
X170764999Y-101309802D01*
X172764802Y-99310000D01*
X172826939Y-99310000D01*
X173026898Y-99270226D01*
X173215256Y-99192205D01*
X173384774Y-99078937D01*
X173528937Y-98934774D01*
X173642205Y-98765256D01*
X173720226Y-98576898D01*
X173760000Y-98376939D01*
X173760000Y-98173061D01*
X173720226Y-97973102D01*
X173642205Y-97784744D01*
X173528937Y-97615226D01*
X173384774Y-97471063D01*
X173215256Y-97357795D01*
X173026898Y-97279774D01*
X172826939Y-97240000D01*
X172623061Y-97240000D01*
X172423102Y-97279774D01*
X172234744Y-97357795D01*
X172065226Y-97471063D01*
X171921063Y-97615226D01*
X171807795Y-97784744D01*
X171729774Y-97973102D01*
X171690000Y-98173061D01*
X171690000Y-98235198D01*
X170249999Y-99675200D01*
X170249999Y-86144695D01*
X170266510Y-86137856D01*
X170493353Y-85986284D01*
X170686266Y-85793371D01*
X170837838Y-85566528D01*
X170884854Y-85453021D01*
X171114054Y-85547959D01*
X171381632Y-85601184D01*
X171654454Y-85601184D01*
X171922032Y-85547959D01*
X172174086Y-85443555D01*
X172400929Y-85291983D01*
X172593842Y-85099070D01*
X172745414Y-84872227D01*
X172849818Y-84620173D01*
X172903043Y-84352595D01*
X172903043Y-84079773D01*
X172849818Y-83812195D01*
X172745414Y-83560141D01*
X172593842Y-83333298D01*
X172400929Y-83140385D01*
X172174086Y-82988813D01*
X171922032Y-82884409D01*
X171654454Y-82831184D01*
X171381632Y-82831184D01*
X171335761Y-82840308D01*
X171335761Y-82755981D01*
X171282536Y-82488403D01*
X171178132Y-82236349D01*
X171026560Y-82009506D01*
X170833647Y-81816593D01*
X170606804Y-81665021D01*
X170354750Y-81560617D01*
X170087172Y-81507392D01*
X169814350Y-81507392D01*
X169661945Y-81537708D01*
X169625038Y-81507419D01*
X169493009Y-81436847D01*
X169349748Y-81393390D01*
X169238095Y-81382393D01*
X169238084Y-81382393D01*
X169200762Y-81378717D01*
X169163440Y-81382393D01*
X165229093Y-81382393D01*
X165191760Y-81378716D01*
X165154427Y-81382393D01*
X165042774Y-81393390D01*
X164899513Y-81436847D01*
X164767484Y-81507419D01*
X164651759Y-81602392D01*
X164627961Y-81631390D01*
X162978889Y-83280463D01*
X162900654Y-82887153D01*
X162730291Y-82475860D01*
X162482961Y-82105705D01*
X162168171Y-81790915D01*
X161798016Y-81543585D01*
X161386723Y-81373222D01*
X160950096Y-81286371D01*
X160504914Y-81286371D01*
X160068287Y-81373222D01*
X159656994Y-81543585D01*
X159286839Y-81790915D01*
X158972049Y-82105705D01*
X158724719Y-82475860D01*
X158554356Y-82887153D01*
X158467505Y-83323780D01*
X158467505Y-83768962D01*
X158554356Y-84205589D01*
X158724719Y-84616882D01*
X158972049Y-84987037D01*
X159242184Y-85257172D01*
X159199591Y-85277602D01*
X159000337Y-85427071D01*
X158834070Y-85612540D01*
X158707182Y-85826882D01*
X158624549Y-86061860D01*
X158589345Y-86308446D01*
X158602924Y-86557158D01*
X158649267Y-86737982D01*
X159069005Y-87891202D01*
X159149735Y-88059510D01*
X159299204Y-88258764D01*
X159484673Y-88425031D01*
X159699015Y-88551919D01*
X159933992Y-88634552D01*
X160105349Y-88659016D01*
X157478769Y-91285597D01*
X157449765Y-91309400D01*
X157396180Y-91374694D01*
X157354792Y-91425125D01*
X157330984Y-91469667D01*
X157284220Y-91557155D01*
X157240780Y-91700361D01*
X157185829Y-91755312D01*
X157072561Y-91924830D01*
X156994540Y-92113188D01*
X156954766Y-92313147D01*
X156954766Y-92517025D01*
X156994540Y-92716984D01*
X157072561Y-92905342D01*
X157185829Y-93074860D01*
X157329992Y-93219023D01*
X157499510Y-93332291D01*
X157687868Y-93410312D01*
X157887827Y-93450086D01*
X157949965Y-93450086D01*
X162714985Y-98215107D01*
X162714985Y-100640183D01*
X156335000Y-94260199D01*
X156335000Y-94198061D01*
X156295226Y-93998102D01*
X156217205Y-93809744D01*
X156103937Y-93640226D01*
X155959774Y-93496063D01*
X155790256Y-93382795D01*
X155601898Y-93304774D01*
X155401939Y-93265000D01*
X155198061Y-93265000D01*
X154998102Y-93304774D01*
X154809744Y-93382795D01*
X154640226Y-93496063D01*
X154496063Y-93640226D01*
X154382795Y-93809744D01*
X154304774Y-93998102D01*
X154265000Y-94198061D01*
X154265000Y-94363200D01*
X151060000Y-91158201D01*
X151060000Y-83588072D01*
X151150000Y-83588072D01*
X151274482Y-83575812D01*
X151394180Y-83539502D01*
X151504494Y-83480537D01*
X151601185Y-83401185D01*
X151680537Y-83304494D01*
X151739502Y-83194180D01*
X151775812Y-83074482D01*
X151788072Y-82950000D01*
X151788072Y-81250000D01*
X151775812Y-81125518D01*
X151739502Y-81005820D01*
X151680537Y-80895506D01*
X151601185Y-80798815D01*
X151504494Y-80719463D01*
X151394180Y-80660498D01*
X151274482Y-80624188D01*
X151150000Y-80611928D01*
X149450000Y-80611928D01*
X149325518Y-80624188D01*
X149205820Y-80660498D01*
X149095506Y-80719463D01*
X148998815Y-80798815D01*
X148919463Y-80895506D01*
X148860498Y-81005820D01*
X148824188Y-81125518D01*
X148811928Y-81250000D01*
X148811928Y-82950000D01*
X148824188Y-83074482D01*
X148860498Y-83194180D01*
X148919463Y-83304494D01*
X148998815Y-83401185D01*
X149095506Y-83480537D01*
X149205820Y-83539502D01*
X149325518Y-83575812D01*
X149450000Y-83588072D01*
X149540000Y-83588072D01*
X149540001Y-90443787D01*
X138526672Y-79430459D01*
X138502869Y-79401455D01*
X138387144Y-79306482D01*
X138255115Y-79235910D01*
X138111854Y-79192453D01*
X138000201Y-79181456D01*
X138000190Y-79181456D01*
X137962868Y-79177780D01*
X137925546Y-79181456D01*
X127537360Y-79181456D01*
X127738692Y-78980124D01*
X170401601Y-78980124D01*
X170401601Y-79425306D01*
X170488452Y-79861933D01*
X170658815Y-80273226D01*
X170906145Y-80643381D01*
X171220935Y-80958171D01*
X171591090Y-81205501D01*
X172002383Y-81375864D01*
X172439010Y-81462715D01*
X172884192Y-81462715D01*
X173320819Y-81375864D01*
X173732112Y-81205501D01*
X173906225Y-81089162D01*
X173928669Y-81176734D01*
X174348407Y-82329954D01*
X174429137Y-82498262D01*
X174578606Y-82697516D01*
X174764075Y-82863783D01*
X174978417Y-82990671D01*
X175213394Y-83073304D01*
X175459979Y-83108508D01*
X175708693Y-83094929D01*
X175949980Y-83033090D01*
X176174565Y-82925366D01*
X176373819Y-82775897D01*
X176540086Y-82590428D01*
X176666974Y-82376086D01*
X176749607Y-82141108D01*
X176784811Y-81894522D01*
X176771232Y-81645809D01*
X176724889Y-81464985D01*
X176305151Y-80311766D01*
X176224421Y-80143458D01*
X176074952Y-79944204D01*
X175889483Y-79777937D01*
X175675141Y-79651049D01*
X175440163Y-79568416D01*
X175193577Y-79533212D01*
X174944865Y-79546791D01*
X174894888Y-79559599D01*
X174921601Y-79425306D01*
X174921601Y-78980124D01*
X174834750Y-78543497D01*
X174664387Y-78132204D01*
X174417057Y-77762049D01*
X174102267Y-77447259D01*
X173732112Y-77199929D01*
X173320819Y-77029566D01*
X172884192Y-76942715D01*
X172439010Y-76942715D01*
X172002383Y-77029566D01*
X171591090Y-77199929D01*
X171220935Y-77447259D01*
X170906145Y-77762049D01*
X170658815Y-78132204D01*
X170488452Y-78543497D01*
X170401601Y-78980124D01*
X127738692Y-78980124D01*
X128267631Y-78451185D01*
X128346983Y-78354494D01*
X128405948Y-78244180D01*
X128442258Y-78124482D01*
X128454518Y-78000000D01*
X128442258Y-77875518D01*
X128405948Y-77755820D01*
X128346983Y-77645506D01*
X128267631Y-77548815D01*
X126651185Y-75932369D01*
X126554494Y-75853017D01*
X126444180Y-75794052D01*
X126324482Y-75757742D01*
X126200000Y-75745482D01*
X126075518Y-75757742D01*
X125955820Y-75794052D01*
X125845506Y-75853017D01*
X125748815Y-75932369D01*
X124132369Y-77548815D01*
X124053017Y-77645506D01*
X123994052Y-77755820D01*
X123957742Y-77875518D01*
X123945482Y-78000000D01*
X123957742Y-78124482D01*
X123994052Y-78244180D01*
X124053017Y-78354494D01*
X124132369Y-78451185D01*
X124862640Y-79181456D01*
X115536259Y-79181456D01*
X114641210Y-78286408D01*
X114685000Y-78066260D01*
X114685000Y-77773740D01*
X114627932Y-77486842D01*
X114515990Y-77216589D01*
X114353475Y-76973368D01*
X114146632Y-76766525D01*
X113903411Y-76604010D01*
X113633158Y-76492068D01*
X113346260Y-76435000D01*
X113053740Y-76435000D01*
X112766842Y-76492068D01*
X112496589Y-76604010D01*
X112253368Y-76766525D01*
X112046525Y-76973368D01*
X111884010Y-77216589D01*
X111772068Y-77486842D01*
X111715000Y-77773740D01*
X111715000Y-78066260D01*
X111772068Y-78353158D01*
X111884010Y-78623411D01*
X112046525Y-78866632D01*
X112253368Y-79073475D01*
X112427760Y-79190000D01*
X112253368Y-79306525D01*
X112046525Y-79513368D01*
X111884010Y-79756589D01*
X111772068Y-80026842D01*
X111715000Y-80313740D01*
X111715000Y-80606260D01*
X111772068Y-80893158D01*
X111884010Y-81163411D01*
X112046525Y-81406632D01*
X112253368Y-81613475D01*
X112496589Y-81775990D01*
X112766842Y-81887932D01*
X113053740Y-81945000D01*
X113346260Y-81945000D01*
X113633158Y-81887932D01*
X113903411Y-81775990D01*
X114146632Y-81613475D01*
X114353475Y-81406632D01*
X114478178Y-81220000D01*
X137530201Y-81220000D01*
X142422129Y-86111928D01*
X142050000Y-86111928D01*
X141925518Y-86124188D01*
X141805820Y-86160498D01*
X141695506Y-86219463D01*
X141598815Y-86298815D01*
X141519463Y-86395506D01*
X141460498Y-86505820D01*
X141424188Y-86625518D01*
X141412913Y-86740000D01*
X140998320Y-86740000D01*
X140960997Y-86736324D01*
X140923674Y-86740000D01*
X140923665Y-86740000D01*
X140812012Y-86750997D01*
X140668751Y-86794454D01*
X140536722Y-86865026D01*
X140420997Y-86959999D01*
X140397199Y-86988997D01*
X132734719Y-94651478D01*
X132705721Y-94675276D01*
X132681923Y-94704274D01*
X132681922Y-94704275D01*
X132610747Y-94791001D01*
X132540175Y-94923031D01*
X132509901Y-95022835D01*
X132496719Y-95066291D01*
X132491749Y-95116742D01*
X132299499Y-95058423D01*
X132132752Y-95042000D01*
X132132751Y-95042000D01*
X132077000Y-95036509D01*
X132067990Y-95037396D01*
X132058980Y-95036509D01*
X132003228Y-95042000D01*
X131836481Y-95058423D01*
X131622533Y-95123324D01*
X131425357Y-95228716D01*
X131252531Y-95370551D01*
X131110696Y-95543377D01*
X131005304Y-95740553D01*
X130940403Y-95954501D01*
X130918489Y-96177000D01*
X130923980Y-96232752D01*
X130923980Y-101569384D01*
X130901939Y-101565000D01*
X130698061Y-101565000D01*
X130498102Y-101604774D01*
X130309744Y-101682795D01*
X130231423Y-101735127D01*
X130231423Y-101577779D01*
X130191649Y-101377820D01*
X130113628Y-101189462D01*
X130000360Y-101019944D01*
X129856197Y-100875781D01*
X129686679Y-100762513D01*
X129498321Y-100684492D01*
X129298362Y-100644718D01*
X129094484Y-100644718D01*
X128894525Y-100684492D01*
X128706167Y-100762513D01*
X128536649Y-100875781D01*
X128492828Y-100919602D01*
X124835213Y-100919602D01*
X124791276Y-100875665D01*
X124621758Y-100762397D01*
X124433400Y-100684376D01*
X124233441Y-100644602D01*
X124029563Y-100644602D01*
X123829604Y-100684376D01*
X123641246Y-100762397D01*
X123471728Y-100875665D01*
X123400546Y-100946847D01*
X121297703Y-98844004D01*
X121273900Y-98815000D01*
X121158175Y-98720027D01*
X121026146Y-98649455D01*
X120882885Y-98605998D01*
X120771232Y-98595001D01*
X120771221Y-98595001D01*
X120733899Y-98591325D01*
X120696577Y-98595001D01*
X118031544Y-98595001D01*
X118085000Y-98326260D01*
X118085000Y-98033740D01*
X118027932Y-97746842D01*
X117915990Y-97476589D01*
X117753475Y-97233368D01*
X117546632Y-97026525D01*
X117372240Y-96910000D01*
X117546632Y-96793475D01*
X117753475Y-96586632D01*
X117915990Y-96343411D01*
X118027932Y-96073158D01*
X118085000Y-95786260D01*
X118085000Y-95493740D01*
X118027932Y-95206842D01*
X117915990Y-94936589D01*
X117753475Y-94693368D01*
X117621620Y-94561513D01*
X117694180Y-94539502D01*
X117804494Y-94480537D01*
X117901185Y-94401185D01*
X117980537Y-94304494D01*
X118039502Y-94194180D01*
X118075812Y-94074482D01*
X118088072Y-93950000D01*
X118088072Y-92250000D01*
X118075812Y-92125518D01*
X118039502Y-92005820D01*
X117980537Y-91895506D01*
X117901185Y-91798815D01*
X117804494Y-91719463D01*
X117694180Y-91660498D01*
X117574482Y-91624188D01*
X117450000Y-91611928D01*
X115750000Y-91611928D01*
X115625518Y-91624188D01*
X115505820Y-91660498D01*
X115395506Y-91719463D01*
X115298815Y-91798815D01*
X115219463Y-91895506D01*
X115160498Y-92005820D01*
X115124188Y-92125518D01*
X115111928Y-92250000D01*
X115111928Y-93950000D01*
X115124188Y-94074482D01*
X115160498Y-94194180D01*
X115219463Y-94304494D01*
X115298815Y-94401185D01*
X115395506Y-94480537D01*
X115505820Y-94539502D01*
X115578380Y-94561513D01*
X115446525Y-94693368D01*
X115284010Y-94936589D01*
X115172068Y-95206842D01*
X115115000Y-95493740D01*
X115115000Y-95786260D01*
X115172068Y-96073158D01*
X115284010Y-96343411D01*
X115446525Y-96586632D01*
X115653368Y-96793475D01*
X115827760Y-96910000D01*
X115653368Y-97026525D01*
X115446525Y-97233368D01*
X115284010Y-97476589D01*
X115172068Y-97746842D01*
X115115000Y-98033740D01*
X115115000Y-98326260D01*
X115168456Y-98595001D01*
X114659392Y-98595001D01*
X114685000Y-98466260D01*
X114685000Y-98173740D01*
X114627932Y-97886842D01*
X114515990Y-97616589D01*
X114353475Y-97373368D01*
X114146632Y-97166525D01*
X113903411Y-97004010D01*
X113633158Y-96892068D01*
X113346260Y-96835000D01*
X113053740Y-96835000D01*
X112766842Y-96892068D01*
X112496589Y-97004010D01*
X112253368Y-97166525D01*
X112046525Y-97373368D01*
X111884010Y-97616589D01*
X111772068Y-97886842D01*
X111715000Y-98173740D01*
X111715000Y-98466260D01*
X111772068Y-98753158D01*
X111884010Y-99023411D01*
X112046525Y-99266632D01*
X112253368Y-99473475D01*
X112427760Y-99590000D01*
X112253368Y-99706525D01*
X112046525Y-99913368D01*
X111884010Y-100156589D01*
X111772068Y-100426842D01*
X111715000Y-100713740D01*
X111715000Y-101006260D01*
X111772068Y-101293158D01*
X111884010Y-101563411D01*
X112046525Y-101806632D01*
X112253368Y-102013475D01*
X112496589Y-102175990D01*
X112766842Y-102287932D01*
X113053740Y-102345000D01*
X113346260Y-102345000D01*
X113633158Y-102287932D01*
X113903411Y-102175990D01*
X114146632Y-102013475D01*
X114353475Y-101806632D01*
X114515990Y-101563411D01*
X114627932Y-101293158D01*
X114685000Y-101006260D01*
X114685000Y-100713740D01*
X114627932Y-100426842D01*
X114515990Y-100156589D01*
X114488202Y-100115001D01*
X115243247Y-100115001D01*
X115172068Y-100286842D01*
X115115000Y-100573740D01*
X115115000Y-100866260D01*
X115172068Y-101153158D01*
X115284010Y-101423411D01*
X115446525Y-101666632D01*
X115653368Y-101873475D01*
X115827760Y-101990000D01*
X115653368Y-102106525D01*
X115446525Y-102313368D01*
X115284010Y-102556589D01*
X115172068Y-102826842D01*
X115115000Y-103113740D01*
X115115000Y-103406260D01*
X115172068Y-103693158D01*
X115284010Y-103963411D01*
X115446525Y-104206632D01*
X115653368Y-104413475D01*
X115827760Y-104530000D01*
X115653368Y-104646525D01*
X115446525Y-104853368D01*
X115284010Y-105096589D01*
X115172068Y-105366842D01*
X115115000Y-105653740D01*
X115115000Y-105946260D01*
X115172068Y-106233158D01*
X115284010Y-106503411D01*
X115446525Y-106746632D01*
X115653368Y-106953475D01*
X115827760Y-107070000D01*
X115653368Y-107186525D01*
X115446525Y-107393368D01*
X115284010Y-107636589D01*
X115172068Y-107906842D01*
X115115000Y-108193740D01*
X115115000Y-108486260D01*
X115172068Y-108773158D01*
X115284010Y-109043411D01*
X115446525Y-109286632D01*
X115653368Y-109493475D01*
X115827760Y-109610000D01*
X115653368Y-109726525D01*
X115446525Y-109933368D01*
X115284010Y-110176589D01*
X115172068Y-110446842D01*
X115115000Y-110733740D01*
X115115000Y-111026260D01*
X115172068Y-111313158D01*
X115284010Y-111583411D01*
X115446525Y-111826632D01*
X115653368Y-112033475D01*
X115827760Y-112150000D01*
X115653368Y-112266525D01*
X115446525Y-112473368D01*
X115284010Y-112716589D01*
X115172068Y-112986842D01*
X115115000Y-113273740D01*
X115115000Y-113566260D01*
X115172068Y-113853158D01*
X115284010Y-114123411D01*
X115446525Y-114366632D01*
X115653368Y-114573475D01*
X115827760Y-114690000D01*
X115653368Y-114806525D01*
X115446525Y-115013368D01*
X115284010Y-115256589D01*
X115172068Y-115526842D01*
X115115000Y-115813740D01*
X115115000Y-116106260D01*
X115172068Y-116393158D01*
X115284010Y-116663411D01*
X115446525Y-116906632D01*
X115653368Y-117113475D01*
X115827760Y-117230000D01*
X115653368Y-117346525D01*
X115446525Y-117553368D01*
X115284010Y-117796589D01*
X115172068Y-118066842D01*
X115115000Y-118353740D01*
X115115000Y-118646260D01*
X115172068Y-118933158D01*
X115284010Y-119203411D01*
X115446525Y-119446632D01*
X115653368Y-119653475D01*
X115896589Y-119815990D01*
X116166842Y-119927932D01*
X116453740Y-119985000D01*
X116746260Y-119985000D01*
X117033158Y-119927932D01*
X117303411Y-119815990D01*
X117546632Y-119653475D01*
X117753475Y-119446632D01*
X117915990Y-119203411D01*
X118027932Y-118933158D01*
X118085000Y-118646260D01*
X118085000Y-118353740D01*
X118027932Y-118066842D01*
X117915990Y-117796589D01*
X117753475Y-117553368D01*
X117546632Y-117346525D01*
X117372240Y-117230000D01*
X117546632Y-117113475D01*
X117753475Y-116906632D01*
X117915990Y-116663411D01*
X118027932Y-116393158D01*
X118085000Y-116106260D01*
X118085000Y-115813740D01*
X118027932Y-115526842D01*
X117915990Y-115256589D01*
X117753475Y-115013368D01*
X117546632Y-114806525D01*
X117372240Y-114690000D01*
X117546632Y-114573475D01*
X117753475Y-114366632D01*
X117915990Y-114123411D01*
X118027932Y-113853158D01*
X118085000Y-113566260D01*
X118085000Y-113273740D01*
X118027932Y-112986842D01*
X117915990Y-112716589D01*
X117753475Y-112473368D01*
X117546632Y-112266525D01*
X117372240Y-112150000D01*
X117546632Y-112033475D01*
X117753475Y-111826632D01*
X117915990Y-111583411D01*
X118027932Y-111313158D01*
X118085000Y-111026260D01*
X118085000Y-110733740D01*
X118027932Y-110446842D01*
X117915990Y-110176589D01*
X117753475Y-109933368D01*
X117546632Y-109726525D01*
X117372240Y-109610000D01*
X117546632Y-109493475D01*
X117753475Y-109286632D01*
X117915990Y-109043411D01*
X118027932Y-108773158D01*
X118085000Y-108486260D01*
X118085000Y-108193740D01*
X118027932Y-107906842D01*
X117915990Y-107636589D01*
X117753475Y-107393368D01*
X117546632Y-107186525D01*
X117372240Y-107070000D01*
X117546632Y-106953475D01*
X117753475Y-106746632D01*
X117915990Y-106503411D01*
X118027932Y-106233158D01*
X118085000Y-105946260D01*
X118085000Y-105653740D01*
X118027932Y-105366842D01*
X117915990Y-105096589D01*
X117753475Y-104853368D01*
X117546632Y-104646525D01*
X117372240Y-104530000D01*
X117546632Y-104413475D01*
X117753475Y-104206632D01*
X117915990Y-103963411D01*
X118027932Y-103693158D01*
X118085000Y-103406260D01*
X118085000Y-103113740D01*
X118027932Y-102826842D01*
X117915990Y-102556589D01*
X117753475Y-102313368D01*
X117546632Y-102106525D01*
X117372240Y-101990000D01*
X117546632Y-101873475D01*
X117753475Y-101666632D01*
X117915990Y-101423411D01*
X118027932Y-101153158D01*
X118085000Y-100866260D01*
X118085000Y-100573740D01*
X118027932Y-100286842D01*
X117956753Y-100115001D01*
X120419098Y-100115001D01*
X123415099Y-103111003D01*
X123438897Y-103140001D01*
X123467895Y-103163799D01*
X123554622Y-103234974D01*
X123686651Y-103305546D01*
X123829912Y-103349003D01*
X123978898Y-103363677D01*
X124016231Y-103360000D01*
X130096289Y-103360000D01*
X130140226Y-103403937D01*
X130309744Y-103517205D01*
X130498102Y-103595226D01*
X130698061Y-103635000D01*
X130901939Y-103635000D01*
X130923980Y-103630616D01*
X130923981Y-111590486D01*
X122505064Y-120009405D01*
X122461750Y-120044952D01*
X122319915Y-120217778D01*
X122265569Y-120319454D01*
X122214523Y-120414955D01*
X122149622Y-120628903D01*
X122127708Y-120851401D01*
X122133199Y-120907153D01*
X122133200Y-126961667D01*
X118332941Y-130761928D01*
X117700000Y-130761928D01*
X117575518Y-130774188D01*
X117455820Y-130810498D01*
X117345506Y-130869463D01*
X117248815Y-130948815D01*
X117169463Y-131045506D01*
X117110498Y-131155820D01*
X117074188Y-131275518D01*
X117061928Y-131400000D01*
X117061928Y-131787126D01*
X115135001Y-129860200D01*
X115135001Y-119932323D01*
X115138677Y-119895000D01*
X115135001Y-119857677D01*
X115135001Y-119857668D01*
X115124004Y-119746015D01*
X115080547Y-119602754D01*
X115009975Y-119470725D01*
X114915002Y-119355000D01*
X114886005Y-119331203D01*
X114641210Y-119086408D01*
X114685000Y-118866260D01*
X114685000Y-118573740D01*
X114627932Y-118286842D01*
X114515990Y-118016589D01*
X114353475Y-117773368D01*
X114146632Y-117566525D01*
X113903411Y-117404010D01*
X113633158Y-117292068D01*
X113346260Y-117235000D01*
X113053740Y-117235000D01*
X112766842Y-117292068D01*
X112496589Y-117404010D01*
X112253368Y-117566525D01*
X112046525Y-117773368D01*
X111884010Y-118016589D01*
X111772068Y-118286842D01*
X111715000Y-118573740D01*
X111715000Y-118866260D01*
X111772068Y-119153158D01*
X111884010Y-119423411D01*
X112046525Y-119666632D01*
X112253368Y-119873475D01*
X112427760Y-119990000D01*
X112253368Y-120106525D01*
X112046525Y-120313368D01*
X111884010Y-120556589D01*
X111772068Y-120826842D01*
X111715000Y-121113740D01*
X111715000Y-121406260D01*
X111758791Y-121626408D01*
X111514002Y-121871197D01*
X111484998Y-121895000D01*
X111429870Y-121962175D01*
X111390025Y-122010725D01*
X111334565Y-122114482D01*
X111319453Y-122142755D01*
X111275996Y-122286016D01*
X111264999Y-122397669D01*
X111264999Y-122397679D01*
X111261323Y-122435001D01*
X108863647Y-122435001D01*
X108864000Y-73943397D01*
X108936437Y-73131751D01*
X109105340Y-72514344D01*
X110315000Y-72514344D01*
X110315000Y-72885656D01*
X110387439Y-73249834D01*
X110529534Y-73592882D01*
X110735825Y-73901618D01*
X110998382Y-74164175D01*
X111307118Y-74370466D01*
X111650166Y-74512561D01*
X112014344Y-74585000D01*
X112385656Y-74585000D01*
X112749834Y-74512561D01*
X113092882Y-74370466D01*
X113298943Y-74232780D01*
X128014102Y-74232780D01*
X128014102Y-74583016D01*
X128082430Y-74926521D01*
X128216459Y-75250097D01*
X128411039Y-75541307D01*
X128658693Y-75788961D01*
X128949903Y-75983541D01*
X129273479Y-76117570D01*
X129616984Y-76185898D01*
X129967220Y-76185898D01*
X130310725Y-76117570D01*
X130634301Y-75983541D01*
X130925511Y-75788961D01*
X131173165Y-75541307D01*
X131367745Y-75250097D01*
X131501774Y-74926521D01*
X131570102Y-74583016D01*
X131570102Y-74232780D01*
X131501774Y-73889275D01*
X131367745Y-73565699D01*
X131173165Y-73274489D01*
X130925511Y-73026835D01*
X130634301Y-72832255D01*
X130310725Y-72698226D01*
X129967220Y-72629898D01*
X129616984Y-72629898D01*
X129273479Y-72698226D01*
X128949903Y-72832255D01*
X128658693Y-73026835D01*
X128411039Y-73274489D01*
X128216459Y-73565699D01*
X128082430Y-73889275D01*
X128014102Y-74232780D01*
X113298943Y-74232780D01*
X113401618Y-74164175D01*
X113664175Y-73901618D01*
X113870466Y-73592882D01*
X114012561Y-73249834D01*
X114085000Y-72885656D01*
X114085000Y-72514344D01*
X175115000Y-72514344D01*
X175115000Y-72885656D01*
X175187439Y-73249834D01*
X175329534Y-73592882D01*
X175535825Y-73901618D01*
X175798382Y-74164175D01*
X176107118Y-74370466D01*
X176450166Y-74512561D01*
X176814344Y-74585000D01*
X177185656Y-74585000D01*
X177549834Y-74512561D01*
X177892882Y-74370466D01*
X178201618Y-74164175D01*
X178464175Y-73901618D01*
X178670466Y-73592882D01*
X178812561Y-73249834D01*
X178885000Y-72885656D01*
X178885000Y-72514344D01*
X178812561Y-72150166D01*
X178670466Y-71807118D01*
X178464175Y-71498382D01*
X178201618Y-71235825D01*
X177892882Y-71029534D01*
X177549834Y-70887439D01*
X177185656Y-70815000D01*
X176814344Y-70815000D01*
X176450166Y-70887439D01*
X176107118Y-71029534D01*
X175798382Y-71235825D01*
X175535825Y-71498382D01*
X175329534Y-71807118D01*
X175187439Y-72150166D01*
X175115000Y-72514344D01*
X114085000Y-72514344D01*
X114012561Y-72150166D01*
X113870466Y-71807118D01*
X113664175Y-71498382D01*
X113401618Y-71235825D01*
X113092882Y-71029534D01*
X112749834Y-70887439D01*
X112385656Y-70815000D01*
X112014344Y-70815000D01*
X111650166Y-70887439D01*
X111307118Y-71029534D01*
X110998382Y-71235825D01*
X110735825Y-71498382D01*
X110529534Y-71807118D01*
X110387439Y-72150166D01*
X110315000Y-72514344D01*
X109105340Y-72514344D01*
X109143672Y-72374226D01*
X109481777Y-71665375D01*
X109940067Y-71027596D01*
X110504055Y-70481054D01*
X111155913Y-70043023D01*
X111875038Y-69727349D01*
X112643768Y-69542794D01*
X113308207Y-69494000D01*
X175644608Y-69494000D01*
X176456249Y-69566437D01*
G37*
X176456249Y-69566437D02*
X177213774Y-69773672D01*
X177922625Y-70111777D01*
X178560404Y-70570067D01*
X179106946Y-71134055D01*
X179544977Y-71785913D01*
X179860651Y-72505038D01*
X180045206Y-73273768D01*
X180094001Y-73938221D01*
X180094001Y-105163680D01*
X179953475Y-104953368D01*
X179746632Y-104746525D01*
X179503411Y-104584010D01*
X179233158Y-104472068D01*
X178946260Y-104415000D01*
X178653740Y-104415000D01*
X178366842Y-104472068D01*
X178096589Y-104584010D01*
X177853368Y-104746525D01*
X177721513Y-104878380D01*
X177699502Y-104805820D01*
X177640537Y-104695506D01*
X177561185Y-104598815D01*
X177464494Y-104519463D01*
X177354180Y-104460498D01*
X177234482Y-104424188D01*
X177110000Y-104411928D01*
X175410000Y-104411928D01*
X175285518Y-104424188D01*
X175165820Y-104460498D01*
X175055506Y-104519463D01*
X174958815Y-104598815D01*
X174879463Y-104695506D01*
X174820498Y-104805820D01*
X174784188Y-104925518D01*
X174771928Y-105050000D01*
X174771928Y-106750000D01*
X174784188Y-106874482D01*
X174820498Y-106994180D01*
X174879463Y-107104494D01*
X174958815Y-107201185D01*
X175055506Y-107280537D01*
X175165820Y-107339502D01*
X175285518Y-107375812D01*
X175410000Y-107388072D01*
X177110000Y-107388072D01*
X177234482Y-107375812D01*
X177354180Y-107339502D01*
X177464494Y-107280537D01*
X177561185Y-107201185D01*
X177640537Y-107104494D01*
X177699502Y-106994180D01*
X177721513Y-106921620D01*
X177853368Y-107053475D01*
X178096589Y-107215990D01*
X178366842Y-107327932D01*
X178653740Y-107385000D01*
X178946260Y-107385000D01*
X179233158Y-107327932D01*
X179503411Y-107215990D01*
X179746632Y-107053475D01*
X179953475Y-106846632D01*
X180094001Y-106636320D01*
X180094001Y-110243679D01*
X179953475Y-110033368D01*
X179746632Y-109826525D01*
X179503411Y-109664010D01*
X179233158Y-109552068D01*
X178946260Y-109495000D01*
X178653740Y-109495000D01*
X178366842Y-109552068D01*
X178096589Y-109664010D01*
X177853368Y-109826525D01*
X177721513Y-109958380D01*
X177699502Y-109885820D01*
X177640537Y-109775506D01*
X177561185Y-109678815D01*
X177464494Y-109599463D01*
X177354180Y-109540498D01*
X177234482Y-109504188D01*
X177110000Y-109491928D01*
X175410000Y-109491928D01*
X175285518Y-109504188D01*
X175165820Y-109540498D01*
X175055506Y-109599463D01*
X174958815Y-109678815D01*
X174879463Y-109775506D01*
X174820498Y-109885820D01*
X174784188Y-110005518D01*
X174771928Y-110130000D01*
X174771928Y-111830000D01*
X174784188Y-111954482D01*
X174820498Y-112074180D01*
X174879463Y-112184494D01*
X174958815Y-112281185D01*
X175055506Y-112360537D01*
X175165820Y-112419502D01*
X175285518Y-112455812D01*
X175410000Y-112468072D01*
X177110000Y-112468072D01*
X177234482Y-112455812D01*
X177354180Y-112419502D01*
X177464494Y-112360537D01*
X177561185Y-112281185D01*
X177640537Y-112184494D01*
X177699502Y-112074180D01*
X177721513Y-112001620D01*
X177853368Y-112133475D01*
X178096589Y-112295990D01*
X178366842Y-112407932D01*
X178653740Y-112465000D01*
X178946260Y-112465000D01*
X179233158Y-112407932D01*
X179503411Y-112295990D01*
X179746632Y-112133475D01*
X179953475Y-111926632D01*
X180094001Y-111716321D01*
X180094000Y-152846078D01*
X180021486Y-153657675D01*
X179814175Y-154415185D01*
X179476001Y-155124002D01*
X179017650Y-155761731D01*
X178453607Y-156308220D01*
X177801710Y-156746184D01*
X177082546Y-157061790D01*
X176313798Y-157246270D01*
X175649335Y-157295000D01*
X123312892Y-157295000D01*
X122501251Y-157222563D01*
X121743726Y-157015328D01*
X121034873Y-156677221D01*
X120382977Y-156208787D01*
X120149539Y-155991862D01*
X118172021Y-154014344D01*
X120815000Y-154014344D01*
X120815000Y-154385656D01*
X120887439Y-154749834D01*
X121029534Y-155092882D01*
X121235825Y-155401618D01*
X121498382Y-155664175D01*
X121807118Y-155870466D01*
X122150166Y-156012561D01*
X122514344Y-156085000D01*
X122885656Y-156085000D01*
X123249834Y-156012561D01*
X123592882Y-155870466D01*
X123901618Y-155664175D01*
X124164175Y-155401618D01*
X124370466Y-155092882D01*
X124512561Y-154749834D01*
X124585000Y-154385656D01*
X124585000Y-154014344D01*
X175115000Y-154014344D01*
X175115000Y-154385656D01*
X175187439Y-154749834D01*
X175329534Y-155092882D01*
X175535825Y-155401618D01*
X175798382Y-155664175D01*
X176107118Y-155870466D01*
X176450166Y-156012561D01*
X176814344Y-156085000D01*
X177185656Y-156085000D01*
X177549834Y-156012561D01*
X177892882Y-155870466D01*
X178201618Y-155664175D01*
X178464175Y-155401618D01*
X178670466Y-155092882D01*
X178812561Y-154749834D01*
X178885000Y-154385656D01*
X178885000Y-154014344D01*
X178812561Y-153650166D01*
X178670466Y-153307118D01*
X178464175Y-152998382D01*
X178201618Y-152735825D01*
X177892882Y-152529534D01*
X177549834Y-152387439D01*
X177185656Y-152315000D01*
X176814344Y-152315000D01*
X176450166Y-152387439D01*
X176107118Y-152529534D01*
X175798382Y-152735825D01*
X175535825Y-152998382D01*
X175329534Y-153307118D01*
X175187439Y-153650166D01*
X175115000Y-154014344D01*
X124585000Y-154014344D01*
X124512561Y-153650166D01*
X124370466Y-153307118D01*
X124164175Y-152998382D01*
X123901618Y-152735825D01*
X123592882Y-152529534D01*
X123249834Y-152387439D01*
X122885656Y-152315000D01*
X122514344Y-152315000D01*
X122150166Y-152387439D01*
X121807118Y-152529534D01*
X121498382Y-152735825D01*
X121235825Y-152998382D01*
X121029534Y-153307118D01*
X120887439Y-153650166D01*
X120815000Y-154014344D01*
X118172021Y-154014344D01*
X111331021Y-147173344D01*
X130343100Y-147173344D01*
X130343100Y-147544656D01*
X130415539Y-147908834D01*
X130557634Y-148251882D01*
X130763925Y-148560618D01*
X131026482Y-148823175D01*
X131335218Y-149029466D01*
X131678266Y-149171561D01*
X132042444Y-149244000D01*
X132413756Y-149244000D01*
X132777934Y-149171561D01*
X133120982Y-149029466D01*
X133429718Y-148823175D01*
X133692275Y-148560618D01*
X133898566Y-148251882D01*
X134040661Y-147908834D01*
X134113100Y-147544656D01*
X134113100Y-147173344D01*
X134040661Y-146809166D01*
X133898566Y-146466118D01*
X133692275Y-146157382D01*
X133429718Y-145894825D01*
X133120982Y-145688534D01*
X132777934Y-145546439D01*
X132413756Y-145474000D01*
X132042444Y-145474000D01*
X131678266Y-145546439D01*
X131335218Y-145688534D01*
X131026482Y-145894825D01*
X130763925Y-146157382D01*
X130557634Y-146466118D01*
X130415539Y-146809166D01*
X130343100Y-147173344D01*
X111331021Y-147173344D01*
X110178879Y-146021203D01*
X109656176Y-145396057D01*
X109267061Y-144713866D01*
X109004905Y-143973561D01*
X108883597Y-143232780D01*
X118014102Y-143232780D01*
X118014102Y-143583016D01*
X118082430Y-143926521D01*
X118216459Y-144250097D01*
X118411039Y-144541307D01*
X118658693Y-144788961D01*
X118949903Y-144983541D01*
X119273479Y-145117570D01*
X119616984Y-145185898D01*
X119967220Y-145185898D01*
X120310725Y-145117570D01*
X120634301Y-144983541D01*
X120925511Y-144788961D01*
X121173165Y-144541307D01*
X121367745Y-144250097D01*
X121501774Y-143926521D01*
X121570102Y-143583016D01*
X121570102Y-143232780D01*
X121501774Y-142889275D01*
X121367745Y-142565699D01*
X121173165Y-142274489D01*
X120925511Y-142026835D01*
X120634301Y-141832255D01*
X120310725Y-141698226D01*
X119967220Y-141629898D01*
X119616984Y-141629898D01*
X119273479Y-141698226D01*
X118949903Y-141832255D01*
X118658693Y-142026835D01*
X118411039Y-142274489D01*
X118216459Y-142565699D01*
X118082430Y-142889275D01*
X118014102Y-143232780D01*
X108883597Y-143232780D01*
X108875178Y-143181369D01*
X108863499Y-142862876D01*
X108863647Y-122435001D01*
X111261323Y-122435001D01*
X111264999Y-122472324D01*
X111265000Y-128509080D01*
X111261323Y-128546412D01*
X111275997Y-128695397D01*
X111319453Y-128838658D01*
X111390025Y-128970688D01*
X111441103Y-129032926D01*
X111484999Y-129086413D01*
X111513997Y-129110211D01*
X116878729Y-134474944D01*
X116902527Y-134503942D01*
X116931525Y-134527740D01*
X117018251Y-134598915D01*
X117088236Y-134636323D01*
X117150281Y-134669487D01*
X117293542Y-134712944D01*
X117405195Y-134723941D01*
X117405205Y-134723941D01*
X117442528Y-134727617D01*
X117479850Y-134723941D01*
X127052680Y-134723941D01*
X126952068Y-134966842D01*
X126895000Y-135253740D01*
X126895000Y-135546260D01*
X126952068Y-135833158D01*
X127064010Y-136103411D01*
X127226525Y-136346632D01*
X127433368Y-136553475D01*
X127676589Y-136715990D01*
X127946842Y-136827932D01*
X128233740Y-136885000D01*
X128526260Y-136885000D01*
X128813158Y-136827932D01*
X129083411Y-136715990D01*
X129326632Y-136553475D01*
X129533475Y-136346632D01*
X129650000Y-136172240D01*
X129766525Y-136346632D01*
X129973368Y-136553475D01*
X130216589Y-136715990D01*
X130486842Y-136827932D01*
X130773740Y-136885000D01*
X131066260Y-136885000D01*
X131353158Y-136827932D01*
X131623411Y-136715990D01*
X131866632Y-136553475D01*
X132073475Y-136346632D01*
X132190000Y-136172240D01*
X132306525Y-136346632D01*
X132513368Y-136553475D01*
X132700000Y-136678179D01*
X132700001Y-141922668D01*
X132696324Y-141960000D01*
X132710998Y-142108985D01*
X132754454Y-142252246D01*
X132825026Y-142384276D01*
X132896201Y-142471002D01*
X132920000Y-142500001D01*
X132948998Y-142523799D01*
X139911928Y-149486730D01*
X139911928Y-150550000D01*
X139924188Y-150674482D01*
X139960498Y-150794180D01*
X140019463Y-150904494D01*
X140098815Y-151001185D01*
X140195506Y-151080537D01*
X140305820Y-151139502D01*
X140425518Y-151175812D01*
X140550000Y-151188072D01*
X142050000Y-151188072D01*
X142174482Y-151175812D01*
X142294180Y-151139502D01*
X142404494Y-151080537D01*
X142501185Y-151001185D01*
X142580537Y-150904494D01*
X142639502Y-150794180D01*
X142675812Y-150674482D01*
X142688072Y-150550000D01*
X142688072Y-149050000D01*
X142675812Y-148925518D01*
X142639502Y-148805820D01*
X142580537Y-148695506D01*
X142501185Y-148598815D01*
X142404494Y-148519463D01*
X142294180Y-148460498D01*
X142174482Y-148424188D01*
X142050000Y-148411928D01*
X140986730Y-148411928D01*
X134220000Y-141645199D01*
X134220000Y-136678178D01*
X134406632Y-136553475D01*
X134613475Y-136346632D01*
X134775990Y-136103411D01*
X134887932Y-135833158D01*
X134945000Y-135546260D01*
X134945000Y-135253740D01*
X134887932Y-134966842D01*
X134787320Y-134723941D01*
X139786017Y-134723941D01*
X139688087Y-134960366D01*
X139632940Y-135237605D01*
X139632940Y-135520275D01*
X139688087Y-135797514D01*
X139796260Y-136058667D01*
X139953303Y-136293699D01*
X140153181Y-136493577D01*
X140385699Y-136648940D01*
X140153181Y-136804303D01*
X139953303Y-137004181D01*
X139796260Y-137239213D01*
X139688087Y-137500366D01*
X139632940Y-137777605D01*
X139632940Y-138060275D01*
X139688087Y-138337514D01*
X139796260Y-138598667D01*
X139953303Y-138833699D01*
X140153181Y-139033577D01*
X140385699Y-139188940D01*
X140153181Y-139344303D01*
X139953303Y-139544181D01*
X139796260Y-139779213D01*
X139688087Y-140040366D01*
X139632940Y-140317605D01*
X139632940Y-140600275D01*
X139688087Y-140877514D01*
X139796260Y-141138667D01*
X139953303Y-141373699D01*
X140153181Y-141573577D01*
X140388213Y-141730620D01*
X140649366Y-141838793D01*
X140926605Y-141893940D01*
X141209275Y-141893940D01*
X141486514Y-141838793D01*
X141747667Y-141730620D01*
X141982699Y-141573577D01*
X142182577Y-141373699D01*
X142339620Y-141138667D01*
X142447793Y-140877514D01*
X142502940Y-140600275D01*
X142502940Y-140317605D01*
X142447793Y-140040366D01*
X142339620Y-139779213D01*
X142182577Y-139544181D01*
X141982699Y-139344303D01*
X141750181Y-139188940D01*
X141982699Y-139033577D01*
X142182577Y-138833699D01*
X142339620Y-138598667D01*
X142447793Y-138337514D01*
X142502940Y-138060275D01*
X142502940Y-137777605D01*
X142447793Y-137500366D01*
X142339620Y-137239213D01*
X142182577Y-137004181D01*
X141982699Y-136804303D01*
X141750181Y-136648940D01*
X141982699Y-136493577D01*
X142182577Y-136293699D01*
X142339620Y-136058667D01*
X142447793Y-135797514D01*
X142502940Y-135520275D01*
X142502940Y-135237605D01*
X142447793Y-134960366D01*
X142349863Y-134723941D01*
X160086017Y-134723941D01*
X159988087Y-134960366D01*
X159932940Y-135237605D01*
X159932940Y-135520275D01*
X159988087Y-135797514D01*
X160096260Y-136058667D01*
X160253303Y-136293699D01*
X160453181Y-136493577D01*
X160685699Y-136648940D01*
X160453181Y-136804303D01*
X160253303Y-137004181D01*
X160096260Y-137239213D01*
X159988087Y-137500366D01*
X159932940Y-137777605D01*
X159932940Y-138060275D01*
X159988087Y-138337514D01*
X160096260Y-138598667D01*
X160253303Y-138833699D01*
X160453181Y-139033577D01*
X160685699Y-139188940D01*
X160453181Y-139344303D01*
X160253303Y-139544181D01*
X160096260Y-139779213D01*
X159988087Y-140040366D01*
X159932940Y-140317605D01*
X159932940Y-140600275D01*
X159988087Y-140877514D01*
X160096260Y-141138667D01*
X160253303Y-141373699D01*
X160453181Y-141573577D01*
X160688213Y-141730620D01*
X160949366Y-141838793D01*
X161226605Y-141893940D01*
X161509275Y-141893940D01*
X161786514Y-141838793D01*
X162047667Y-141730620D01*
X162282699Y-141573577D01*
X162482577Y-141373699D01*
X162639620Y-141138667D01*
X162747793Y-140877514D01*
X162802940Y-140600275D01*
X162802940Y-140317605D01*
X162747793Y-140040366D01*
X162639620Y-139779213D01*
X162482577Y-139544181D01*
X162282699Y-139344303D01*
X162050181Y-139188940D01*
X162282699Y-139033577D01*
X162482577Y-138833699D01*
X162639620Y-138598667D01*
X162747793Y-138337514D01*
X162802940Y-138060275D01*
X162802940Y-137777605D01*
X162747793Y-137500366D01*
X162639620Y-137239213D01*
X162482577Y-137004181D01*
X162282699Y-136804303D01*
X162050181Y-136648940D01*
X162282699Y-136493577D01*
X162482577Y-136293699D01*
X162589459Y-136133738D01*
X162648296Y-136127943D01*
X162791557Y-136084486D01*
X162923586Y-136013914D01*
X163039311Y-135918941D01*
X163063114Y-135889937D01*
X164786005Y-134167047D01*
X164815003Y-134143249D01*
X164909976Y-134027524D01*
X164980548Y-133895495D01*
X165024005Y-133752234D01*
X165035002Y-133640581D01*
X165035002Y-133640573D01*
X165038678Y-133603248D01*
X165035002Y-133565923D01*
X165035002Y-132748354D01*
X165125518Y-132775812D01*
X165250000Y-132788072D01*
X165340001Y-132788072D01*
X165340000Y-134891928D01*
X165250000Y-134891928D01*
X165125518Y-134904188D01*
X165005820Y-134940498D01*
X164895506Y-134999463D01*
X164798815Y-135078815D01*
X164719463Y-135175506D01*
X164660498Y-135285820D01*
X164624188Y-135405518D01*
X164611928Y-135530000D01*
X164611928Y-137230000D01*
X164624188Y-137354482D01*
X164660498Y-137474180D01*
X164719463Y-137584494D01*
X164798815Y-137681185D01*
X164895506Y-137760537D01*
X165005820Y-137819502D01*
X165125518Y-137855812D01*
X165250000Y-137868072D01*
X166513270Y-137868072D01*
X167880001Y-139234804D01*
X167880000Y-142721821D01*
X167693368Y-142846525D01*
X167486525Y-143053368D01*
X167324010Y-143296589D01*
X167212068Y-143566842D01*
X167155000Y-143853740D01*
X167155000Y-144146260D01*
X167212068Y-144433158D01*
X167324010Y-144703411D01*
X167486525Y-144946632D01*
X167693368Y-145153475D01*
X167936589Y-145315990D01*
X168206842Y-145427932D01*
X168493740Y-145485000D01*
X168786260Y-145485000D01*
X169073158Y-145427932D01*
X169343411Y-145315990D01*
X169586632Y-145153475D01*
X169793475Y-144946632D01*
X169910000Y-144772240D01*
X170026525Y-144946632D01*
X170233368Y-145153475D01*
X170476589Y-145315990D01*
X170746842Y-145427932D01*
X171033740Y-145485000D01*
X171326260Y-145485000D01*
X171613158Y-145427932D01*
X171883411Y-145315990D01*
X172126632Y-145153475D01*
X172333475Y-144946632D01*
X172450000Y-144772240D01*
X172566525Y-144946632D01*
X172773368Y-145153475D01*
X173016589Y-145315990D01*
X173286842Y-145427932D01*
X173573740Y-145485000D01*
X173866260Y-145485000D01*
X174153158Y-145427932D01*
X174423411Y-145315990D01*
X174666632Y-145153475D01*
X174873475Y-144946632D01*
X175035990Y-144703411D01*
X175147932Y-144433158D01*
X175205000Y-144146260D01*
X175205000Y-143853740D01*
X175147932Y-143566842D01*
X175035990Y-143296589D01*
X174873475Y-143053368D01*
X174666632Y-142846525D01*
X174423411Y-142684010D01*
X174153158Y-142572068D01*
X173866260Y-142515000D01*
X173573740Y-142515000D01*
X173286842Y-142572068D01*
X173016589Y-142684010D01*
X172773368Y-142846525D01*
X172566525Y-143053368D01*
X172450000Y-143227760D01*
X172333475Y-143053368D01*
X172126632Y-142846525D01*
X171883411Y-142684010D01*
X171613158Y-142572068D01*
X171326260Y-142515000D01*
X171033740Y-142515000D01*
X170746842Y-142572068D01*
X170476589Y-142684010D01*
X170233368Y-142846525D01*
X170026525Y-143053368D01*
X169910000Y-143227760D01*
X169793475Y-143053368D01*
X169586632Y-142846525D01*
X169400000Y-142721822D01*
X169400000Y-138957322D01*
X169403676Y-138919999D01*
X169400000Y-138882676D01*
X169400000Y-138882667D01*
X169389003Y-138771014D01*
X169345546Y-138627753D01*
X169274974Y-138495724D01*
X169261811Y-138479685D01*
X169203799Y-138408996D01*
X169203795Y-138408992D01*
X169180001Y-138379999D01*
X169151008Y-138356205D01*
X168659803Y-137865000D01*
X168786260Y-137865000D01*
X169073158Y-137807932D01*
X169343411Y-137695990D01*
X169586632Y-137533475D01*
X169793475Y-137326632D01*
X169955990Y-137083411D01*
X170067932Y-136813158D01*
X170125000Y-136526260D01*
X170125000Y-136233740D01*
X170067932Y-135946842D01*
X169955990Y-135676589D01*
X169793475Y-135433368D01*
X169586632Y-135226525D01*
X169343411Y-135064010D01*
X169073158Y-134952068D01*
X168786260Y-134895000D01*
X168493740Y-134895000D01*
X168206842Y-134952068D01*
X167936589Y-135064010D01*
X167693368Y-135226525D01*
X167561513Y-135358380D01*
X167539502Y-135285820D01*
X167480537Y-135175506D01*
X167411417Y-135091283D01*
X167590256Y-135017205D01*
X167759774Y-134903937D01*
X167903937Y-134759774D01*
X168017205Y-134590256D01*
X168095226Y-134401898D01*
X168135000Y-134201939D01*
X168135000Y-133998061D01*
X168095226Y-133798102D01*
X168035001Y-133652707D01*
X168035001Y-132656753D01*
X168206842Y-132727932D01*
X168493740Y-132785000D01*
X168786260Y-132785000D01*
X169073158Y-132727932D01*
X169343411Y-132615990D01*
X169586632Y-132453475D01*
X169793475Y-132246632D01*
X169955990Y-132003411D01*
X170067932Y-131733158D01*
X170125000Y-131446260D01*
X170125000Y-131153740D01*
X170067932Y-130866842D01*
X169955990Y-130596589D01*
X169793475Y-130353368D01*
X169586632Y-130146525D01*
X169343411Y-129984010D01*
X169073158Y-129872068D01*
X168786260Y-129815000D01*
X168493740Y-129815000D01*
X168206842Y-129872068D01*
X168035001Y-129943247D01*
X168035001Y-126073740D01*
X169695000Y-126073740D01*
X169695000Y-126366260D01*
X169752068Y-126653158D01*
X169864010Y-126923411D01*
X170026525Y-127166632D01*
X170233368Y-127373475D01*
X170476589Y-127535990D01*
X170746842Y-127647932D01*
X171033740Y-127705000D01*
X171326260Y-127705000D01*
X171613158Y-127647932D01*
X171883411Y-127535990D01*
X172126632Y-127373475D01*
X172333475Y-127166632D01*
X172495990Y-126923411D01*
X172607932Y-126653158D01*
X172665000Y-126366260D01*
X172665000Y-126073740D01*
X172607932Y-125786842D01*
X172495990Y-125516589D01*
X172333475Y-125273368D01*
X172126632Y-125066525D01*
X171883411Y-124904010D01*
X171613158Y-124792068D01*
X171326260Y-124735000D01*
X171033740Y-124735000D01*
X170746842Y-124792068D01*
X170476589Y-124904010D01*
X170233368Y-125066525D01*
X170026525Y-125273368D01*
X169864010Y-125516589D01*
X169752068Y-125786842D01*
X169695000Y-126073740D01*
X168035001Y-126073740D01*
X168035001Y-120993740D01*
X169695000Y-120993740D01*
X169695000Y-121286260D01*
X169752068Y-121573158D01*
X169864010Y-121843411D01*
X170026525Y-122086632D01*
X170233368Y-122293475D01*
X170476589Y-122455990D01*
X170746842Y-122567932D01*
X171033740Y-122625000D01*
X171326260Y-122625000D01*
X171613158Y-122567932D01*
X171883411Y-122455990D01*
X172126632Y-122293475D01*
X172333475Y-122086632D01*
X172450000Y-121912240D01*
X172566525Y-122086632D01*
X172773368Y-122293475D01*
X173016589Y-122455990D01*
X173286842Y-122567932D01*
X173573740Y-122625000D01*
X173866260Y-122625000D01*
X174153158Y-122567932D01*
X174423411Y-122455990D01*
X174666632Y-122293475D01*
X174873475Y-122086632D01*
X175035990Y-121843411D01*
X175147932Y-121573158D01*
X175205000Y-121286260D01*
X175205000Y-120993740D01*
X175147932Y-120706842D01*
X175035990Y-120436589D01*
X174873475Y-120193368D01*
X174666632Y-119986525D01*
X174423411Y-119824010D01*
X174153158Y-119712068D01*
X173866260Y-119655000D01*
X173573740Y-119655000D01*
X173286842Y-119712068D01*
X173016589Y-119824010D01*
X172773368Y-119986525D01*
X172566525Y-120193368D01*
X172450000Y-120367760D01*
X172333475Y-120193368D01*
X172126632Y-119986525D01*
X171883411Y-119824010D01*
X171613158Y-119712068D01*
X171326260Y-119655000D01*
X171033740Y-119655000D01*
X170746842Y-119712068D01*
X170476589Y-119824010D01*
X170233368Y-119986525D01*
X170026525Y-120193368D01*
X169864010Y-120436589D01*
X169752068Y-120706842D01*
X169695000Y-120993740D01*
X168035001Y-120993740D01*
X168035001Y-112336753D01*
X168206842Y-112407932D01*
X168493740Y-112465000D01*
X168786260Y-112465000D01*
X169073158Y-112407932D01*
X169343411Y-112295990D01*
X169586632Y-112133475D01*
X169793475Y-111926632D01*
X169910000Y-111752240D01*
X170026525Y-111926632D01*
X170233368Y-112133475D01*
X170476589Y-112295990D01*
X170746842Y-112407932D01*
X171033740Y-112465000D01*
X171326260Y-112465000D01*
X171613158Y-112407932D01*
X171883411Y-112295990D01*
X172126632Y-112133475D01*
X172333475Y-111926632D01*
X172495990Y-111683411D01*
X172607932Y-111413158D01*
X172665000Y-111126260D01*
X172665000Y-110833740D01*
X172607932Y-110546842D01*
X172495990Y-110276589D01*
X172333475Y-110033368D01*
X172126632Y-109826525D01*
X171883411Y-109664010D01*
X171613158Y-109552068D01*
X171326260Y-109495000D01*
X171033740Y-109495000D01*
X170764999Y-109548456D01*
X170764999Y-107331544D01*
X171033740Y-107385000D01*
X171326260Y-107385000D01*
X171613158Y-107327932D01*
X171883411Y-107215990D01*
X172126632Y-107053475D01*
X172333475Y-106846632D01*
X172495990Y-106603411D01*
X172607932Y-106333158D01*
X172665000Y-106046260D01*
X172665000Y-105753740D01*
X172607932Y-105466842D01*
X172495990Y-105196589D01*
X172333475Y-104953368D01*
X172126632Y-104746525D01*
X171883411Y-104584010D01*
X171613158Y-104472068D01*
X171326260Y-104415000D01*
X171033740Y-104415000D01*
X170764999Y-104468456D01*
X170764999Y-101309802D01*
X172764802Y-99310000D01*
X172826939Y-99310000D01*
X173026898Y-99270226D01*
X173215256Y-99192205D01*
X173384774Y-99078937D01*
X173528937Y-98934774D01*
X173642205Y-98765256D01*
X173720226Y-98576898D01*
X173760000Y-98376939D01*
X173760000Y-98173061D01*
X173720226Y-97973102D01*
X173642205Y-97784744D01*
X173528937Y-97615226D01*
X173384774Y-97471063D01*
X173215256Y-97357795D01*
X173026898Y-97279774D01*
X172826939Y-97240000D01*
X172623061Y-97240000D01*
X172423102Y-97279774D01*
X172234744Y-97357795D01*
X172065226Y-97471063D01*
X171921063Y-97615226D01*
X171807795Y-97784744D01*
X171729774Y-97973102D01*
X171690000Y-98173061D01*
X171690000Y-98235198D01*
X170249999Y-99675200D01*
X170249999Y-86144695D01*
X170266510Y-86137856D01*
X170493353Y-85986284D01*
X170686266Y-85793371D01*
X170837838Y-85566528D01*
X170884854Y-85453021D01*
X171114054Y-85547959D01*
X171381632Y-85601184D01*
X171654454Y-85601184D01*
X171922032Y-85547959D01*
X172174086Y-85443555D01*
X172400929Y-85291983D01*
X172593842Y-85099070D01*
X172745414Y-84872227D01*
X172849818Y-84620173D01*
X172903043Y-84352595D01*
X172903043Y-84079773D01*
X172849818Y-83812195D01*
X172745414Y-83560141D01*
X172593842Y-83333298D01*
X172400929Y-83140385D01*
X172174086Y-82988813D01*
X171922032Y-82884409D01*
X171654454Y-82831184D01*
X171381632Y-82831184D01*
X171335761Y-82840308D01*
X171335761Y-82755981D01*
X171282536Y-82488403D01*
X171178132Y-82236349D01*
X171026560Y-82009506D01*
X170833647Y-81816593D01*
X170606804Y-81665021D01*
X170354750Y-81560617D01*
X170087172Y-81507392D01*
X169814350Y-81507392D01*
X169661945Y-81537708D01*
X169625038Y-81507419D01*
X169493009Y-81436847D01*
X169349748Y-81393390D01*
X169238095Y-81382393D01*
X169238084Y-81382393D01*
X169200762Y-81378717D01*
X169163440Y-81382393D01*
X165229093Y-81382393D01*
X165191760Y-81378716D01*
X165154427Y-81382393D01*
X165042774Y-81393390D01*
X164899513Y-81436847D01*
X164767484Y-81507419D01*
X164651759Y-81602392D01*
X164627961Y-81631390D01*
X162978889Y-83280463D01*
X162900654Y-82887153D01*
X162730291Y-82475860D01*
X162482961Y-82105705D01*
X162168171Y-81790915D01*
X161798016Y-81543585D01*
X161386723Y-81373222D01*
X160950096Y-81286371D01*
X160504914Y-81286371D01*
X160068287Y-81373222D01*
X159656994Y-81543585D01*
X159286839Y-81790915D01*
X158972049Y-82105705D01*
X158724719Y-82475860D01*
X158554356Y-82887153D01*
X158467505Y-83323780D01*
X158467505Y-83768962D01*
X158554356Y-84205589D01*
X158724719Y-84616882D01*
X158972049Y-84987037D01*
X159242184Y-85257172D01*
X159199591Y-85277602D01*
X159000337Y-85427071D01*
X158834070Y-85612540D01*
X158707182Y-85826882D01*
X158624549Y-86061860D01*
X158589345Y-86308446D01*
X158602924Y-86557158D01*
X158649267Y-86737982D01*
X159069005Y-87891202D01*
X159149735Y-88059510D01*
X159299204Y-88258764D01*
X159484673Y-88425031D01*
X159699015Y-88551919D01*
X159933992Y-88634552D01*
X160105349Y-88659016D01*
X157478769Y-91285597D01*
X157449765Y-91309400D01*
X157396180Y-91374694D01*
X157354792Y-91425125D01*
X157330984Y-91469667D01*
X157284220Y-91557155D01*
X157240780Y-91700361D01*
X157185829Y-91755312D01*
X157072561Y-91924830D01*
X156994540Y-92113188D01*
X156954766Y-92313147D01*
X156954766Y-92517025D01*
X156994540Y-92716984D01*
X157072561Y-92905342D01*
X157185829Y-93074860D01*
X157329992Y-93219023D01*
X157499510Y-93332291D01*
X157687868Y-93410312D01*
X157887827Y-93450086D01*
X157949965Y-93450086D01*
X162714985Y-98215107D01*
X162714985Y-100640183D01*
X156335000Y-94260199D01*
X156335000Y-94198061D01*
X156295226Y-93998102D01*
X156217205Y-93809744D01*
X156103937Y-93640226D01*
X155959774Y-93496063D01*
X155790256Y-93382795D01*
X155601898Y-93304774D01*
X155401939Y-93265000D01*
X155198061Y-93265000D01*
X154998102Y-93304774D01*
X154809744Y-93382795D01*
X154640226Y-93496063D01*
X154496063Y-93640226D01*
X154382795Y-93809744D01*
X154304774Y-93998102D01*
X154265000Y-94198061D01*
X154265000Y-94363200D01*
X151060000Y-91158201D01*
X151060000Y-83588072D01*
X151150000Y-83588072D01*
X151274482Y-83575812D01*
X151394180Y-83539502D01*
X151504494Y-83480537D01*
X151601185Y-83401185D01*
X151680537Y-83304494D01*
X151739502Y-83194180D01*
X151775812Y-83074482D01*
X151788072Y-82950000D01*
X151788072Y-81250000D01*
X151775812Y-81125518D01*
X151739502Y-81005820D01*
X151680537Y-80895506D01*
X151601185Y-80798815D01*
X151504494Y-80719463D01*
X151394180Y-80660498D01*
X151274482Y-80624188D01*
X151150000Y-80611928D01*
X149450000Y-80611928D01*
X149325518Y-80624188D01*
X149205820Y-80660498D01*
X149095506Y-80719463D01*
X148998815Y-80798815D01*
X148919463Y-80895506D01*
X148860498Y-81005820D01*
X148824188Y-81125518D01*
X148811928Y-81250000D01*
X148811928Y-82950000D01*
X148824188Y-83074482D01*
X148860498Y-83194180D01*
X148919463Y-83304494D01*
X148998815Y-83401185D01*
X149095506Y-83480537D01*
X149205820Y-83539502D01*
X149325518Y-83575812D01*
X149450000Y-83588072D01*
X149540000Y-83588072D01*
X149540001Y-90443787D01*
X138526672Y-79430459D01*
X138502869Y-79401455D01*
X138387144Y-79306482D01*
X138255115Y-79235910D01*
X138111854Y-79192453D01*
X138000201Y-79181456D01*
X138000190Y-79181456D01*
X137962868Y-79177780D01*
X137925546Y-79181456D01*
X127537360Y-79181456D01*
X127738692Y-78980124D01*
X170401601Y-78980124D01*
X170401601Y-79425306D01*
X170488452Y-79861933D01*
X170658815Y-80273226D01*
X170906145Y-80643381D01*
X171220935Y-80958171D01*
X171591090Y-81205501D01*
X172002383Y-81375864D01*
X172439010Y-81462715D01*
X172884192Y-81462715D01*
X173320819Y-81375864D01*
X173732112Y-81205501D01*
X173906225Y-81089162D01*
X173928669Y-81176734D01*
X174348407Y-82329954D01*
X174429137Y-82498262D01*
X174578606Y-82697516D01*
X174764075Y-82863783D01*
X174978417Y-82990671D01*
X175213394Y-83073304D01*
X175459979Y-83108508D01*
X175708693Y-83094929D01*
X175949980Y-83033090D01*
X176174565Y-82925366D01*
X176373819Y-82775897D01*
X176540086Y-82590428D01*
X176666974Y-82376086D01*
X176749607Y-82141108D01*
X176784811Y-81894522D01*
X176771232Y-81645809D01*
X176724889Y-81464985D01*
X176305151Y-80311766D01*
X176224421Y-80143458D01*
X176074952Y-79944204D01*
X175889483Y-79777937D01*
X175675141Y-79651049D01*
X175440163Y-79568416D01*
X175193577Y-79533212D01*
X174944865Y-79546791D01*
X174894888Y-79559599D01*
X174921601Y-79425306D01*
X174921601Y-78980124D01*
X174834750Y-78543497D01*
X174664387Y-78132204D01*
X174417057Y-77762049D01*
X174102267Y-77447259D01*
X173732112Y-77199929D01*
X173320819Y-77029566D01*
X172884192Y-76942715D01*
X172439010Y-76942715D01*
X172002383Y-77029566D01*
X171591090Y-77199929D01*
X171220935Y-77447259D01*
X170906145Y-77762049D01*
X170658815Y-78132204D01*
X170488452Y-78543497D01*
X170401601Y-78980124D01*
X127738692Y-78980124D01*
X128267631Y-78451185D01*
X128346983Y-78354494D01*
X128405948Y-78244180D01*
X128442258Y-78124482D01*
X128454518Y-78000000D01*
X128442258Y-77875518D01*
X128405948Y-77755820D01*
X128346983Y-77645506D01*
X128267631Y-77548815D01*
X126651185Y-75932369D01*
X126554494Y-75853017D01*
X126444180Y-75794052D01*
X126324482Y-75757742D01*
X126200000Y-75745482D01*
X126075518Y-75757742D01*
X125955820Y-75794052D01*
X125845506Y-75853017D01*
X125748815Y-75932369D01*
X124132369Y-77548815D01*
X124053017Y-77645506D01*
X123994052Y-77755820D01*
X123957742Y-77875518D01*
X123945482Y-78000000D01*
X123957742Y-78124482D01*
X123994052Y-78244180D01*
X124053017Y-78354494D01*
X124132369Y-78451185D01*
X124862640Y-79181456D01*
X115536259Y-79181456D01*
X114641210Y-78286408D01*
X114685000Y-78066260D01*
X114685000Y-77773740D01*
X114627932Y-77486842D01*
X114515990Y-77216589D01*
X114353475Y-76973368D01*
X114146632Y-76766525D01*
X113903411Y-76604010D01*
X113633158Y-76492068D01*
X113346260Y-76435000D01*
X113053740Y-76435000D01*
X112766842Y-76492068D01*
X112496589Y-76604010D01*
X112253368Y-76766525D01*
X112046525Y-76973368D01*
X111884010Y-77216589D01*
X111772068Y-77486842D01*
X111715000Y-77773740D01*
X111715000Y-78066260D01*
X111772068Y-78353158D01*
X111884010Y-78623411D01*
X112046525Y-78866632D01*
X112253368Y-79073475D01*
X112427760Y-79190000D01*
X112253368Y-79306525D01*
X112046525Y-79513368D01*
X111884010Y-79756589D01*
X111772068Y-80026842D01*
X111715000Y-80313740D01*
X111715000Y-80606260D01*
X111772068Y-80893158D01*
X111884010Y-81163411D01*
X112046525Y-81406632D01*
X112253368Y-81613475D01*
X112496589Y-81775990D01*
X112766842Y-81887932D01*
X113053740Y-81945000D01*
X113346260Y-81945000D01*
X113633158Y-81887932D01*
X113903411Y-81775990D01*
X114146632Y-81613475D01*
X114353475Y-81406632D01*
X114478178Y-81220000D01*
X137530201Y-81220000D01*
X142422129Y-86111928D01*
X142050000Y-86111928D01*
X141925518Y-86124188D01*
X141805820Y-86160498D01*
X141695506Y-86219463D01*
X141598815Y-86298815D01*
X141519463Y-86395506D01*
X141460498Y-86505820D01*
X141424188Y-86625518D01*
X141412913Y-86740000D01*
X140998320Y-86740000D01*
X140960997Y-86736324D01*
X140923674Y-86740000D01*
X140923665Y-86740000D01*
X140812012Y-86750997D01*
X140668751Y-86794454D01*
X140536722Y-86865026D01*
X140420997Y-86959999D01*
X140397199Y-86988997D01*
X132734719Y-94651478D01*
X132705721Y-94675276D01*
X132681923Y-94704274D01*
X132681922Y-94704275D01*
X132610747Y-94791001D01*
X132540175Y-94923031D01*
X132509901Y-95022835D01*
X132496719Y-95066291D01*
X132491749Y-95116742D01*
X132299499Y-95058423D01*
X132132752Y-95042000D01*
X132132751Y-95042000D01*
X132077000Y-95036509D01*
X132067990Y-95037396D01*
X132058980Y-95036509D01*
X132003228Y-95042000D01*
X131836481Y-95058423D01*
X131622533Y-95123324D01*
X131425357Y-95228716D01*
X131252531Y-95370551D01*
X131110696Y-95543377D01*
X131005304Y-95740553D01*
X130940403Y-95954501D01*
X130918489Y-96177000D01*
X130923980Y-96232752D01*
X130923980Y-101569384D01*
X130901939Y-101565000D01*
X130698061Y-101565000D01*
X130498102Y-101604774D01*
X130309744Y-101682795D01*
X130231423Y-101735127D01*
X130231423Y-101577779D01*
X130191649Y-101377820D01*
X130113628Y-101189462D01*
X130000360Y-101019944D01*
X129856197Y-100875781D01*
X129686679Y-100762513D01*
X129498321Y-100684492D01*
X129298362Y-100644718D01*
X129094484Y-100644718D01*
X128894525Y-100684492D01*
X128706167Y-100762513D01*
X128536649Y-100875781D01*
X128492828Y-100919602D01*
X124835213Y-100919602D01*
X124791276Y-100875665D01*
X124621758Y-100762397D01*
X124433400Y-100684376D01*
X124233441Y-100644602D01*
X124029563Y-100644602D01*
X123829604Y-100684376D01*
X123641246Y-100762397D01*
X123471728Y-100875665D01*
X123400546Y-100946847D01*
X121297703Y-98844004D01*
X121273900Y-98815000D01*
X121158175Y-98720027D01*
X121026146Y-98649455D01*
X120882885Y-98605998D01*
X120771232Y-98595001D01*
X120771221Y-98595001D01*
X120733899Y-98591325D01*
X120696577Y-98595001D01*
X118031544Y-98595001D01*
X118085000Y-98326260D01*
X118085000Y-98033740D01*
X118027932Y-97746842D01*
X117915990Y-97476589D01*
X117753475Y-97233368D01*
X117546632Y-97026525D01*
X117372240Y-96910000D01*
X117546632Y-96793475D01*
X117753475Y-96586632D01*
X117915990Y-96343411D01*
X118027932Y-96073158D01*
X118085000Y-95786260D01*
X118085000Y-95493740D01*
X118027932Y-95206842D01*
X117915990Y-94936589D01*
X117753475Y-94693368D01*
X117621620Y-94561513D01*
X117694180Y-94539502D01*
X117804494Y-94480537D01*
X117901185Y-94401185D01*
X117980537Y-94304494D01*
X118039502Y-94194180D01*
X118075812Y-94074482D01*
X118088072Y-93950000D01*
X118088072Y-92250000D01*
X118075812Y-92125518D01*
X118039502Y-92005820D01*
X117980537Y-91895506D01*
X117901185Y-91798815D01*
X117804494Y-91719463D01*
X117694180Y-91660498D01*
X117574482Y-91624188D01*
X117450000Y-91611928D01*
X115750000Y-91611928D01*
X115625518Y-91624188D01*
X115505820Y-91660498D01*
X115395506Y-91719463D01*
X115298815Y-91798815D01*
X115219463Y-91895506D01*
X115160498Y-92005820D01*
X115124188Y-92125518D01*
X115111928Y-92250000D01*
X115111928Y-93950000D01*
X115124188Y-94074482D01*
X115160498Y-94194180D01*
X115219463Y-94304494D01*
X115298815Y-94401185D01*
X115395506Y-94480537D01*
X115505820Y-94539502D01*
X115578380Y-94561513D01*
X115446525Y-94693368D01*
X115284010Y-94936589D01*
X115172068Y-95206842D01*
X115115000Y-95493740D01*
X115115000Y-95786260D01*
X115172068Y-96073158D01*
X115284010Y-96343411D01*
X115446525Y-96586632D01*
X115653368Y-96793475D01*
X115827760Y-96910000D01*
X115653368Y-97026525D01*
X115446525Y-97233368D01*
X115284010Y-97476589D01*
X115172068Y-97746842D01*
X115115000Y-98033740D01*
X115115000Y-98326260D01*
X115168456Y-98595001D01*
X114659392Y-98595001D01*
X114685000Y-98466260D01*
X114685000Y-98173740D01*
X114627932Y-97886842D01*
X114515990Y-97616589D01*
X114353475Y-97373368D01*
X114146632Y-97166525D01*
X113903411Y-97004010D01*
X113633158Y-96892068D01*
X113346260Y-96835000D01*
X113053740Y-96835000D01*
X112766842Y-96892068D01*
X112496589Y-97004010D01*
X112253368Y-97166525D01*
X112046525Y-97373368D01*
X111884010Y-97616589D01*
X111772068Y-97886842D01*
X111715000Y-98173740D01*
X111715000Y-98466260D01*
X111772068Y-98753158D01*
X111884010Y-99023411D01*
X112046525Y-99266632D01*
X112253368Y-99473475D01*
X112427760Y-99590000D01*
X112253368Y-99706525D01*
X112046525Y-99913368D01*
X111884010Y-100156589D01*
X111772068Y-100426842D01*
X111715000Y-100713740D01*
X111715000Y-101006260D01*
X111772068Y-101293158D01*
X111884010Y-101563411D01*
X112046525Y-101806632D01*
X112253368Y-102013475D01*
X112496589Y-102175990D01*
X112766842Y-102287932D01*
X113053740Y-102345000D01*
X113346260Y-102345000D01*
X113633158Y-102287932D01*
X113903411Y-102175990D01*
X114146632Y-102013475D01*
X114353475Y-101806632D01*
X114515990Y-101563411D01*
X114627932Y-101293158D01*
X114685000Y-101006260D01*
X114685000Y-100713740D01*
X114627932Y-100426842D01*
X114515990Y-100156589D01*
X114488202Y-100115001D01*
X115243247Y-100115001D01*
X115172068Y-100286842D01*
X115115000Y-100573740D01*
X115115000Y-100866260D01*
X115172068Y-101153158D01*
X115284010Y-101423411D01*
X115446525Y-101666632D01*
X115653368Y-101873475D01*
X115827760Y-101990000D01*
X115653368Y-102106525D01*
X115446525Y-102313368D01*
X115284010Y-102556589D01*
X115172068Y-102826842D01*
X115115000Y-103113740D01*
X115115000Y-103406260D01*
X115172068Y-103693158D01*
X115284010Y-103963411D01*
X115446525Y-104206632D01*
X115653368Y-104413475D01*
X115827760Y-104530000D01*
X115653368Y-104646525D01*
X115446525Y-104853368D01*
X115284010Y-105096589D01*
X115172068Y-105366842D01*
X115115000Y-105653740D01*
X115115000Y-105946260D01*
X115172068Y-106233158D01*
X115284010Y-106503411D01*
X115446525Y-106746632D01*
X115653368Y-106953475D01*
X115827760Y-107070000D01*
X115653368Y-107186525D01*
X115446525Y-107393368D01*
X115284010Y-107636589D01*
X115172068Y-107906842D01*
X115115000Y-108193740D01*
X115115000Y-108486260D01*
X115172068Y-108773158D01*
X115284010Y-109043411D01*
X115446525Y-109286632D01*
X115653368Y-109493475D01*
X115827760Y-109610000D01*
X115653368Y-109726525D01*
X115446525Y-109933368D01*
X115284010Y-110176589D01*
X115172068Y-110446842D01*
X115115000Y-110733740D01*
X115115000Y-111026260D01*
X115172068Y-111313158D01*
X115284010Y-111583411D01*
X115446525Y-111826632D01*
X115653368Y-112033475D01*
X115827760Y-112150000D01*
X115653368Y-112266525D01*
X115446525Y-112473368D01*
X115284010Y-112716589D01*
X115172068Y-112986842D01*
X115115000Y-113273740D01*
X115115000Y-113566260D01*
X115172068Y-113853158D01*
X115284010Y-114123411D01*
X115446525Y-114366632D01*
X115653368Y-114573475D01*
X115827760Y-114690000D01*
X115653368Y-114806525D01*
X115446525Y-115013368D01*
X115284010Y-115256589D01*
X115172068Y-115526842D01*
X115115000Y-115813740D01*
X115115000Y-116106260D01*
X115172068Y-116393158D01*
X115284010Y-116663411D01*
X115446525Y-116906632D01*
X115653368Y-117113475D01*
X115827760Y-117230000D01*
X115653368Y-117346525D01*
X115446525Y-117553368D01*
X115284010Y-117796589D01*
X115172068Y-118066842D01*
X115115000Y-118353740D01*
X115115000Y-118646260D01*
X115172068Y-118933158D01*
X115284010Y-119203411D01*
X115446525Y-119446632D01*
X115653368Y-119653475D01*
X115896589Y-119815990D01*
X116166842Y-119927932D01*
X116453740Y-119985000D01*
X116746260Y-119985000D01*
X117033158Y-119927932D01*
X117303411Y-119815990D01*
X117546632Y-119653475D01*
X117753475Y-119446632D01*
X117915990Y-119203411D01*
X118027932Y-118933158D01*
X118085000Y-118646260D01*
X118085000Y-118353740D01*
X118027932Y-118066842D01*
X117915990Y-117796589D01*
X117753475Y-117553368D01*
X117546632Y-117346525D01*
X117372240Y-117230000D01*
X117546632Y-117113475D01*
X117753475Y-116906632D01*
X117915990Y-116663411D01*
X118027932Y-116393158D01*
X118085000Y-116106260D01*
X118085000Y-115813740D01*
X118027932Y-115526842D01*
X117915990Y-115256589D01*
X117753475Y-115013368D01*
X117546632Y-114806525D01*
X117372240Y-114690000D01*
X117546632Y-114573475D01*
X117753475Y-114366632D01*
X117915990Y-114123411D01*
X118027932Y-113853158D01*
X118085000Y-113566260D01*
X118085000Y-113273740D01*
X118027932Y-112986842D01*
X117915990Y-112716589D01*
X117753475Y-112473368D01*
X117546632Y-112266525D01*
X117372240Y-112150000D01*
X117546632Y-112033475D01*
X117753475Y-111826632D01*
X117915990Y-111583411D01*
X118027932Y-111313158D01*
X118085000Y-111026260D01*
X118085000Y-110733740D01*
X118027932Y-110446842D01*
X117915990Y-110176589D01*
X117753475Y-109933368D01*
X117546632Y-109726525D01*
X117372240Y-109610000D01*
X117546632Y-109493475D01*
X117753475Y-109286632D01*
X117915990Y-109043411D01*
X118027932Y-108773158D01*
X118085000Y-108486260D01*
X118085000Y-108193740D01*
X118027932Y-107906842D01*
X117915990Y-107636589D01*
X117753475Y-107393368D01*
X117546632Y-107186525D01*
X117372240Y-107070000D01*
X117546632Y-106953475D01*
X117753475Y-106746632D01*
X117915990Y-106503411D01*
X118027932Y-106233158D01*
X118085000Y-105946260D01*
X118085000Y-105653740D01*
X118027932Y-105366842D01*
X117915990Y-105096589D01*
X117753475Y-104853368D01*
X117546632Y-104646525D01*
X117372240Y-104530000D01*
X117546632Y-104413475D01*
X117753475Y-104206632D01*
X117915990Y-103963411D01*
X118027932Y-103693158D01*
X118085000Y-103406260D01*
X118085000Y-103113740D01*
X118027932Y-102826842D01*
X117915990Y-102556589D01*
X117753475Y-102313368D01*
X117546632Y-102106525D01*
X117372240Y-101990000D01*
X117546632Y-101873475D01*
X117753475Y-101666632D01*
X117915990Y-101423411D01*
X118027932Y-101153158D01*
X118085000Y-100866260D01*
X118085000Y-100573740D01*
X118027932Y-100286842D01*
X117956753Y-100115001D01*
X120419098Y-100115001D01*
X123415099Y-103111003D01*
X123438897Y-103140001D01*
X123467895Y-103163799D01*
X123554622Y-103234974D01*
X123686651Y-103305546D01*
X123829912Y-103349003D01*
X123978898Y-103363677D01*
X124016231Y-103360000D01*
X130096289Y-103360000D01*
X130140226Y-103403937D01*
X130309744Y-103517205D01*
X130498102Y-103595226D01*
X130698061Y-103635000D01*
X130901939Y-103635000D01*
X130923980Y-103630616D01*
X130923981Y-111590486D01*
X122505064Y-120009405D01*
X122461750Y-120044952D01*
X122319915Y-120217778D01*
X122265569Y-120319454D01*
X122214523Y-120414955D01*
X122149622Y-120628903D01*
X122127708Y-120851401D01*
X122133199Y-120907153D01*
X122133200Y-126961667D01*
X118332941Y-130761928D01*
X117700000Y-130761928D01*
X117575518Y-130774188D01*
X117455820Y-130810498D01*
X117345506Y-130869463D01*
X117248815Y-130948815D01*
X117169463Y-131045506D01*
X117110498Y-131155820D01*
X117074188Y-131275518D01*
X117061928Y-131400000D01*
X117061928Y-131787126D01*
X115135001Y-129860200D01*
X115135001Y-119932323D01*
X115138677Y-119895000D01*
X115135001Y-119857677D01*
X115135001Y-119857668D01*
X115124004Y-119746015D01*
X115080547Y-119602754D01*
X115009975Y-119470725D01*
X114915002Y-119355000D01*
X114886005Y-119331203D01*
X114641210Y-119086408D01*
X114685000Y-118866260D01*
X114685000Y-118573740D01*
X114627932Y-118286842D01*
X114515990Y-118016589D01*
X114353475Y-117773368D01*
X114146632Y-117566525D01*
X113903411Y-117404010D01*
X113633158Y-117292068D01*
X113346260Y-117235000D01*
X113053740Y-117235000D01*
X112766842Y-117292068D01*
X112496589Y-117404010D01*
X112253368Y-117566525D01*
X112046525Y-117773368D01*
X111884010Y-118016589D01*
X111772068Y-118286842D01*
X111715000Y-118573740D01*
X111715000Y-118866260D01*
X111772068Y-119153158D01*
X111884010Y-119423411D01*
X112046525Y-119666632D01*
X112253368Y-119873475D01*
X112427760Y-119990000D01*
X112253368Y-120106525D01*
X112046525Y-120313368D01*
X111884010Y-120556589D01*
X111772068Y-120826842D01*
X111715000Y-121113740D01*
X111715000Y-121406260D01*
X111758791Y-121626408D01*
X111514002Y-121871197D01*
X111484998Y-121895000D01*
X111429870Y-121962175D01*
X111390025Y-122010725D01*
X111334565Y-122114482D01*
X111319453Y-122142755D01*
X111275996Y-122286016D01*
X111264999Y-122397669D01*
X111264999Y-122397679D01*
X111261323Y-122435001D01*
X108863647Y-122435001D01*
X108864000Y-73943397D01*
X108936437Y-73131751D01*
X109105340Y-72514344D01*
X110315000Y-72514344D01*
X110315000Y-72885656D01*
X110387439Y-73249834D01*
X110529534Y-73592882D01*
X110735825Y-73901618D01*
X110998382Y-74164175D01*
X111307118Y-74370466D01*
X111650166Y-74512561D01*
X112014344Y-74585000D01*
X112385656Y-74585000D01*
X112749834Y-74512561D01*
X113092882Y-74370466D01*
X113298943Y-74232780D01*
X128014102Y-74232780D01*
X128014102Y-74583016D01*
X128082430Y-74926521D01*
X128216459Y-75250097D01*
X128411039Y-75541307D01*
X128658693Y-75788961D01*
X128949903Y-75983541D01*
X129273479Y-76117570D01*
X129616984Y-76185898D01*
X129967220Y-76185898D01*
X130310725Y-76117570D01*
X130634301Y-75983541D01*
X130925511Y-75788961D01*
X131173165Y-75541307D01*
X131367745Y-75250097D01*
X131501774Y-74926521D01*
X131570102Y-74583016D01*
X131570102Y-74232780D01*
X131501774Y-73889275D01*
X131367745Y-73565699D01*
X131173165Y-73274489D01*
X130925511Y-73026835D01*
X130634301Y-72832255D01*
X130310725Y-72698226D01*
X129967220Y-72629898D01*
X129616984Y-72629898D01*
X129273479Y-72698226D01*
X128949903Y-72832255D01*
X128658693Y-73026835D01*
X128411039Y-73274489D01*
X128216459Y-73565699D01*
X128082430Y-73889275D01*
X128014102Y-74232780D01*
X113298943Y-74232780D01*
X113401618Y-74164175D01*
X113664175Y-73901618D01*
X113870466Y-73592882D01*
X114012561Y-73249834D01*
X114085000Y-72885656D01*
X114085000Y-72514344D01*
X175115000Y-72514344D01*
X175115000Y-72885656D01*
X175187439Y-73249834D01*
X175329534Y-73592882D01*
X175535825Y-73901618D01*
X175798382Y-74164175D01*
X176107118Y-74370466D01*
X176450166Y-74512561D01*
X176814344Y-74585000D01*
X177185656Y-74585000D01*
X177549834Y-74512561D01*
X177892882Y-74370466D01*
X178201618Y-74164175D01*
X178464175Y-73901618D01*
X178670466Y-73592882D01*
X178812561Y-73249834D01*
X178885000Y-72885656D01*
X178885000Y-72514344D01*
X178812561Y-72150166D01*
X178670466Y-71807118D01*
X178464175Y-71498382D01*
X178201618Y-71235825D01*
X177892882Y-71029534D01*
X177549834Y-70887439D01*
X177185656Y-70815000D01*
X176814344Y-70815000D01*
X176450166Y-70887439D01*
X176107118Y-71029534D01*
X175798382Y-71235825D01*
X175535825Y-71498382D01*
X175329534Y-71807118D01*
X175187439Y-72150166D01*
X175115000Y-72514344D01*
X114085000Y-72514344D01*
X114012561Y-72150166D01*
X113870466Y-71807118D01*
X113664175Y-71498382D01*
X113401618Y-71235825D01*
X113092882Y-71029534D01*
X112749834Y-70887439D01*
X112385656Y-70815000D01*
X112014344Y-70815000D01*
X111650166Y-70887439D01*
X111307118Y-71029534D01*
X110998382Y-71235825D01*
X110735825Y-71498382D01*
X110529534Y-71807118D01*
X110387439Y-72150166D01*
X110315000Y-72514344D01*
X109105340Y-72514344D01*
X109143672Y-72374226D01*
X109481777Y-71665375D01*
X109940067Y-71027596D01*
X110504055Y-70481054D01*
X111155913Y-70043023D01*
X111875038Y-69727349D01*
X112643768Y-69542794D01*
X113308207Y-69494000D01*
X175644608Y-69494000D01*
X176456249Y-69566437D01*
G36*
X154839891Y-98529691D02*
G01*
X154839892Y-102488279D01*
X154836215Y-102525611D01*
X154839892Y-102562944D01*
X154850889Y-102674597D01*
X154851000Y-102674962D01*
X154894345Y-102817857D01*
X154964917Y-102949887D01*
X155036092Y-103036613D01*
X155059891Y-103065612D01*
X155088889Y-103089410D01*
X157940000Y-105940522D01*
X157940001Y-119973668D01*
X157936324Y-120011000D01*
X157940001Y-120048333D01*
X157950998Y-120159986D01*
X157960596Y-120191627D01*
X157994454Y-120303246D01*
X158065026Y-120435276D01*
X158122269Y-120505026D01*
X158160000Y-120551001D01*
X158188998Y-120574799D01*
X159969252Y-122355054D01*
X159932940Y-122537605D01*
X159932940Y-122658138D01*
X149186800Y-111911999D01*
X150510679Y-111911999D01*
X150548001Y-111915675D01*
X150585323Y-111911999D01*
X150585334Y-111911999D01*
X150696987Y-111901002D01*
X150840248Y-111857545D01*
X150972277Y-111786973D01*
X151088002Y-111692000D01*
X151111804Y-111662997D01*
X151339801Y-111435000D01*
X151401939Y-111435000D01*
X151601898Y-111395226D01*
X151790256Y-111317205D01*
X151959774Y-111203937D01*
X152103937Y-111059774D01*
X152217205Y-110890256D01*
X152295226Y-110701898D01*
X152335000Y-110501939D01*
X152335000Y-110298061D01*
X152295226Y-110098102D01*
X152217205Y-109909744D01*
X152103937Y-109740226D01*
X151959774Y-109596063D01*
X151790256Y-109482795D01*
X151601898Y-109404774D01*
X151401939Y-109365000D01*
X151198061Y-109365000D01*
X150998102Y-109404774D01*
X150809744Y-109482795D01*
X150640226Y-109596063D01*
X150496063Y-109740226D01*
X150382795Y-109909744D01*
X150304774Y-110098102D01*
X150265000Y-110298061D01*
X150265000Y-110360199D01*
X150233200Y-110391999D01*
X148739802Y-110391999D01*
X148611805Y-110264002D01*
X148588002Y-110234998D01*
X148472277Y-110140025D01*
X148340248Y-110069453D01*
X148196987Y-110025996D01*
X148085334Y-110014999D01*
X148085323Y-110014999D01*
X148048001Y-110011323D01*
X148010679Y-110014999D01*
X147389332Y-110014999D01*
X147351999Y-110011322D01*
X147314666Y-110014999D01*
X147284988Y-110017922D01*
X147284988Y-106235000D01*
X147301939Y-106235000D01*
X147501898Y-106195226D01*
X147690256Y-106117205D01*
X147859774Y-106003937D01*
X148003937Y-105859774D01*
X148117205Y-105690256D01*
X148195226Y-105501898D01*
X148235000Y-105301939D01*
X148235000Y-105098061D01*
X148195226Y-104898102D01*
X148117205Y-104709744D01*
X148024920Y-104571630D01*
X148095226Y-104401898D01*
X148135000Y-104201939D01*
X148135000Y-103998061D01*
X148095226Y-103798102D01*
X148017205Y-103609744D01*
X147903937Y-103440226D01*
X147759774Y-103296063D01*
X147590256Y-103182795D01*
X147401898Y-103104774D01*
X147201939Y-103065000D01*
X146998061Y-103065000D01*
X146798102Y-103104774D01*
X146609744Y-103182795D01*
X146440226Y-103296063D01*
X146296063Y-103440226D01*
X146182795Y-103609744D01*
X146104774Y-103798102D01*
X146065000Y-103998061D01*
X146065000Y-104060197D01*
X142492515Y-107632683D01*
X142502940Y-107580275D01*
X142502940Y-107297605D01*
X142447793Y-107020366D01*
X142339620Y-106759213D01*
X142182577Y-106524181D01*
X141982699Y-106324303D01*
X141750181Y-106168940D01*
X141982699Y-106013577D01*
X142182577Y-105813699D01*
X142339620Y-105578667D01*
X142447793Y-105317514D01*
X142502940Y-105040275D01*
X142502940Y-104757605D01*
X142447793Y-104480366D01*
X142339620Y-104219213D01*
X142182577Y-103984181D01*
X141983979Y-103785583D01*
X141992422Y-103784752D01*
X142112120Y-103748442D01*
X142222434Y-103689477D01*
X142319125Y-103610125D01*
X142398477Y-103513434D01*
X142457442Y-103403120D01*
X142493752Y-103283422D01*
X142506012Y-103158940D01*
X142506012Y-101558940D01*
X142493752Y-101434458D01*
X142457442Y-101314760D01*
X142398477Y-101204446D01*
X142319125Y-101107755D01*
X142222434Y-101028403D01*
X142112120Y-100969438D01*
X141992422Y-100933128D01*
X141867940Y-100920868D01*
X140267940Y-100920868D01*
X140143458Y-100933128D01*
X140023760Y-100969438D01*
X139913446Y-101028403D01*
X139816755Y-101107755D01*
X139737403Y-101204446D01*
X139678438Y-101314760D01*
X139642128Y-101434458D01*
X139629868Y-101558940D01*
X139629868Y-103158940D01*
X139642128Y-103283422D01*
X139678438Y-103403120D01*
X139737403Y-103513434D01*
X139816755Y-103610125D01*
X139913446Y-103689477D01*
X140023760Y-103748442D01*
X140143458Y-103784752D01*
X140151901Y-103785583D01*
X139953303Y-103984181D01*
X139796260Y-104219213D01*
X139688087Y-104480366D01*
X139632940Y-104757605D01*
X139632940Y-105040275D01*
X139688087Y-105317514D01*
X139796260Y-105578667D01*
X139953303Y-105813699D01*
X140153181Y-106013577D01*
X140385699Y-106168940D01*
X140153181Y-106324303D01*
X139953303Y-106524181D01*
X139796260Y-106759213D01*
X139688087Y-107020366D01*
X139632940Y-107297605D01*
X139632940Y-107580275D01*
X139688087Y-107857514D01*
X139796260Y-108118667D01*
X139953303Y-108353699D01*
X140153181Y-108553577D01*
X140388213Y-108710620D01*
X140649366Y-108818793D01*
X140926605Y-108873940D01*
X141209275Y-108873940D01*
X141453885Y-108825283D01*
X141443939Y-108858073D01*
X141436341Y-108935212D01*
X141429265Y-109007059D01*
X141432942Y-109044391D01*
X141432942Y-111128431D01*
X141209275Y-111083940D01*
X140926605Y-111083940D01*
X140649366Y-111139087D01*
X140388213Y-111247260D01*
X140153181Y-111404303D01*
X139953303Y-111604181D01*
X139796260Y-111839213D01*
X139688087Y-112100366D01*
X139632940Y-112377605D01*
X139632940Y-112660275D01*
X139688087Y-112937514D01*
X139796260Y-113198667D01*
X139953303Y-113433699D01*
X140153181Y-113633577D01*
X140385699Y-113788940D01*
X140153181Y-113944303D01*
X139953303Y-114144181D01*
X139796260Y-114379213D01*
X139688087Y-114640366D01*
X139632940Y-114917605D01*
X139632940Y-115200275D01*
X139688087Y-115477514D01*
X139796260Y-115738667D01*
X139953303Y-115973699D01*
X140153181Y-116173577D01*
X140385699Y-116328940D01*
X140153181Y-116484303D01*
X139953303Y-116684181D01*
X139796260Y-116919213D01*
X139688087Y-117180366D01*
X139632940Y-117457605D01*
X139632940Y-117740275D01*
X139688087Y-118017514D01*
X139796260Y-118278667D01*
X139953303Y-118513699D01*
X140153181Y-118713577D01*
X140385699Y-118868940D01*
X140153181Y-119024303D01*
X139953303Y-119224181D01*
X139796260Y-119459213D01*
X139688087Y-119720366D01*
X139632940Y-119997605D01*
X139632940Y-120280275D01*
X139688087Y-120557514D01*
X139796260Y-120818667D01*
X139953303Y-121053699D01*
X140153181Y-121253577D01*
X140385699Y-121408940D01*
X140153181Y-121564303D01*
X139953303Y-121764181D01*
X139796260Y-121999213D01*
X139688087Y-122260366D01*
X139632940Y-122537605D01*
X139632940Y-122820275D01*
X139688087Y-123097514D01*
X139796260Y-123358667D01*
X139953303Y-123593699D01*
X140153181Y-123793577D01*
X140385699Y-123948940D01*
X140153181Y-124104303D01*
X139953303Y-124304181D01*
X139796260Y-124539213D01*
X139688087Y-124800366D01*
X139632940Y-125077605D01*
X139632940Y-125360275D01*
X139688087Y-125637514D01*
X139796260Y-125898667D01*
X139953303Y-126133699D01*
X140153181Y-126333577D01*
X140385699Y-126488940D01*
X140153181Y-126644303D01*
X139953303Y-126844181D01*
X139796260Y-127079213D01*
X139688087Y-127340366D01*
X139632940Y-127617605D01*
X139632940Y-127900275D01*
X139688087Y-128177514D01*
X139796260Y-128438667D01*
X139953303Y-128673699D01*
X140153181Y-128873577D01*
X140385699Y-129028940D01*
X140153181Y-129184303D01*
X139953303Y-129384181D01*
X139796260Y-129619213D01*
X139688087Y-129880366D01*
X139632940Y-130157605D01*
X139632940Y-130440275D01*
X139688087Y-130717514D01*
X139796260Y-130978667D01*
X139953303Y-131213699D01*
X139953340Y-131213736D01*
X138602076Y-132565001D01*
X119938072Y-132565001D01*
X119938072Y-132367059D01*
X124031345Y-128273788D01*
X124074648Y-128238250D01*
X124159434Y-128134939D01*
X124216483Y-128065424D01*
X124321875Y-127868248D01*
X124386776Y-127654300D01*
X124408690Y-127431801D01*
X124403199Y-127376049D01*
X124403199Y-121321532D01*
X132822126Y-112902607D01*
X132865429Y-112867069D01*
X133007264Y-112694243D01*
X133112656Y-112497067D01*
X133177557Y-112283119D01*
X133193980Y-112116372D01*
X133199471Y-112060620D01*
X133193980Y-112004868D01*
X133193980Y-102017382D01*
X133368817Y-102017382D01*
X133568776Y-101977608D01*
X133757134Y-101899587D01*
X133926652Y-101786319D01*
X134070815Y-101642156D01*
X134184083Y-101472638D01*
X134262104Y-101284280D01*
X134301878Y-101084321D01*
X134301878Y-100880443D01*
X134262104Y-100680484D01*
X134184083Y-100492126D01*
X134070815Y-100322608D01*
X134026878Y-100278671D01*
X134026878Y-99618713D01*
X134062431Y-99583160D01*
X134175699Y-99413642D01*
X134253720Y-99225284D01*
X134293494Y-99025325D01*
X134293494Y-98821447D01*
X134253720Y-98621488D01*
X134175699Y-98433130D01*
X134062431Y-98263612D01*
X134018494Y-98219675D01*
X134018494Y-98033740D01*
X135615000Y-98033740D01*
X135615000Y-98326260D01*
X135672068Y-98613158D01*
X135784010Y-98883411D01*
X135946525Y-99126632D01*
X136153368Y-99333475D01*
X136327760Y-99450000D01*
X136153368Y-99566525D01*
X135946525Y-99773368D01*
X135784010Y-100016589D01*
X135672068Y-100286842D01*
X135615000Y-100573740D01*
X135615000Y-100866260D01*
X135672068Y-101153158D01*
X135784010Y-101423411D01*
X135946525Y-101666632D01*
X136153368Y-101873475D01*
X136327760Y-101990000D01*
X136153368Y-102106525D01*
X135946525Y-102313368D01*
X135784010Y-102556589D01*
X135672068Y-102826842D01*
X135615000Y-103113740D01*
X135615000Y-103406260D01*
X135672068Y-103693158D01*
X135784010Y-103963411D01*
X135946525Y-104206632D01*
X136153368Y-104413475D01*
X136327760Y-104530000D01*
X136153368Y-104646525D01*
X135946525Y-104853368D01*
X135784010Y-105096589D01*
X135672068Y-105366842D01*
X135615000Y-105653740D01*
X135615000Y-105946260D01*
X135672068Y-106233158D01*
X135784010Y-106503411D01*
X135946525Y-106746632D01*
X136153368Y-106953475D01*
X136327760Y-107070000D01*
X136153368Y-107186525D01*
X135946525Y-107393368D01*
X135784010Y-107636589D01*
X135672068Y-107906842D01*
X135615000Y-108193740D01*
X135615000Y-108486260D01*
X135672068Y-108773158D01*
X135784010Y-109043411D01*
X135946525Y-109286632D01*
X136153368Y-109493475D01*
X136327760Y-109610000D01*
X136153368Y-109726525D01*
X135946525Y-109933368D01*
X135784010Y-110176589D01*
X135672068Y-110446842D01*
X135615000Y-110733740D01*
X135615000Y-111026260D01*
X135672068Y-111313158D01*
X135784010Y-111583411D01*
X135946525Y-111826632D01*
X136153368Y-112033475D01*
X136327760Y-112150000D01*
X136153368Y-112266525D01*
X135946525Y-112473368D01*
X135784010Y-112716589D01*
X135672068Y-112986842D01*
X135615000Y-113273740D01*
X135615000Y-113566260D01*
X135672068Y-113853158D01*
X135784010Y-114123411D01*
X135946525Y-114366632D01*
X136153368Y-114573475D01*
X136327760Y-114690000D01*
X136153368Y-114806525D01*
X135946525Y-115013368D01*
X135784010Y-115256589D01*
X135672068Y-115526842D01*
X135615000Y-115813740D01*
X135615000Y-116106260D01*
X135672068Y-116393158D01*
X135784010Y-116663411D01*
X135946525Y-116906632D01*
X136153368Y-117113475D01*
X136327760Y-117230000D01*
X136153368Y-117346525D01*
X135946525Y-117553368D01*
X135784010Y-117796589D01*
X135672068Y-118066842D01*
X135615000Y-118353740D01*
X135615000Y-118646260D01*
X135672068Y-118933158D01*
X135784010Y-119203411D01*
X135946525Y-119446632D01*
X136153368Y-119653475D01*
X136396589Y-119815990D01*
X136666842Y-119927932D01*
X136953740Y-119985000D01*
X137246260Y-119985000D01*
X137533158Y-119927932D01*
X137803411Y-119815990D01*
X138046632Y-119653475D01*
X138253475Y-119446632D01*
X138415990Y-119203411D01*
X138527932Y-118933158D01*
X138585000Y-118646260D01*
X138585000Y-118353740D01*
X138527932Y-118066842D01*
X138415990Y-117796589D01*
X138253475Y-117553368D01*
X138046632Y-117346525D01*
X137872240Y-117230000D01*
X138046632Y-117113475D01*
X138253475Y-116906632D01*
X138415990Y-116663411D01*
X138527932Y-116393158D01*
X138585000Y-116106260D01*
X138585000Y-115813740D01*
X138527932Y-115526842D01*
X138415990Y-115256589D01*
X138253475Y-115013368D01*
X138046632Y-114806525D01*
X137872240Y-114690000D01*
X138046632Y-114573475D01*
X138253475Y-114366632D01*
X138415990Y-114123411D01*
X138527932Y-113853158D01*
X138585000Y-113566260D01*
X138585000Y-113273740D01*
X138527932Y-112986842D01*
X138415990Y-112716589D01*
X138253475Y-112473368D01*
X138046632Y-112266525D01*
X137872240Y-112150000D01*
X138046632Y-112033475D01*
X138253475Y-111826632D01*
X138415990Y-111583411D01*
X138527932Y-111313158D01*
X138585000Y-111026260D01*
X138585000Y-110733740D01*
X138527932Y-110446842D01*
X138415990Y-110176589D01*
X138253475Y-109933368D01*
X138046632Y-109726525D01*
X137872240Y-109610000D01*
X138046632Y-109493475D01*
X138253475Y-109286632D01*
X138415990Y-109043411D01*
X138527932Y-108773158D01*
X138585000Y-108486260D01*
X138585000Y-108193740D01*
X138527932Y-107906842D01*
X138415990Y-107636589D01*
X138253475Y-107393368D01*
X138046632Y-107186525D01*
X137872240Y-107070000D01*
X138046632Y-106953475D01*
X138253475Y-106746632D01*
X138415990Y-106503411D01*
X138527932Y-106233158D01*
X138585000Y-105946260D01*
X138585000Y-105653740D01*
X138527932Y-105366842D01*
X138415990Y-105096589D01*
X138253475Y-104853368D01*
X138046632Y-104646525D01*
X137872240Y-104530000D01*
X138046632Y-104413475D01*
X138253475Y-104206632D01*
X138415990Y-103963411D01*
X138527932Y-103693158D01*
X138585000Y-103406260D01*
X138585000Y-103113740D01*
X138527932Y-102826842D01*
X138415990Y-102556589D01*
X138253475Y-102313368D01*
X138046632Y-102106525D01*
X137872240Y-101990000D01*
X138046632Y-101873475D01*
X138253475Y-101666632D01*
X138415990Y-101423411D01*
X138527932Y-101153158D01*
X138585000Y-100866260D01*
X138585000Y-100573740D01*
X138527932Y-100286842D01*
X138415990Y-100016589D01*
X138253475Y-99773368D01*
X138046632Y-99566525D01*
X137872240Y-99450000D01*
X138046632Y-99333475D01*
X138253475Y-99126632D01*
X138415990Y-98883411D01*
X138527932Y-98613158D01*
X138585000Y-98326260D01*
X138585000Y-98033740D01*
X138527932Y-97746842D01*
X138415990Y-97476589D01*
X138253475Y-97233368D01*
X138046632Y-97026525D01*
X137803411Y-96864010D01*
X137533158Y-96752068D01*
X137246260Y-96695000D01*
X136953740Y-96695000D01*
X136666842Y-96752068D01*
X136396589Y-96864010D01*
X136153368Y-97026525D01*
X135946525Y-97233368D01*
X135784010Y-97476589D01*
X135672068Y-97746842D01*
X135615000Y-98033740D01*
X134018494Y-98033740D01*
X134018494Y-96757839D01*
X134049658Y-96726675D01*
X134162926Y-96557157D01*
X134240947Y-96368799D01*
X134280721Y-96168840D01*
X134280721Y-95964962D01*
X134240947Y-95765003D01*
X134162926Y-95576645D01*
X134081307Y-95454493D01*
X135768890Y-93766909D01*
X135784010Y-93803411D01*
X135946525Y-94046632D01*
X136153368Y-94253475D01*
X136396589Y-94415990D01*
X136666842Y-94527932D01*
X136953740Y-94585000D01*
X137246260Y-94585000D01*
X137533158Y-94527932D01*
X137803411Y-94415990D01*
X138046632Y-94253475D01*
X138253475Y-94046632D01*
X138415990Y-93803411D01*
X138527932Y-93533158D01*
X138585000Y-93246260D01*
X138585000Y-92953740D01*
X138527932Y-92666842D01*
X138415990Y-92396589D01*
X138253475Y-92153368D01*
X138046632Y-91946525D01*
X137803411Y-91784010D01*
X137766909Y-91768890D01*
X141275800Y-88260000D01*
X141412913Y-88260000D01*
X141424188Y-88374482D01*
X141460498Y-88494180D01*
X141519463Y-88604494D01*
X141598815Y-88701185D01*
X141695506Y-88780537D01*
X141805820Y-88839502D01*
X141925518Y-88875812D01*
X142050000Y-88888072D01*
X143550000Y-88888072D01*
X143674482Y-88875812D01*
X143794180Y-88839502D01*
X143904494Y-88780537D01*
X144001185Y-88701185D01*
X144080537Y-88604494D01*
X144139502Y-88494180D01*
X144175812Y-88374482D01*
X144188072Y-88250000D01*
X144188072Y-87877871D01*
X154839891Y-98529691D01*
G37*
X154839891Y-98529691D02*
X154839892Y-102488279D01*
X154836215Y-102525611D01*
X154839892Y-102562944D01*
X154850889Y-102674597D01*
X154851000Y-102674962D01*
X154894345Y-102817857D01*
X154964917Y-102949887D01*
X155036092Y-103036613D01*
X155059891Y-103065612D01*
X155088889Y-103089410D01*
X157940000Y-105940522D01*
X157940001Y-119973668D01*
X157936324Y-120011000D01*
X157940001Y-120048333D01*
X157950998Y-120159986D01*
X157960596Y-120191627D01*
X157994454Y-120303246D01*
X158065026Y-120435276D01*
X158122269Y-120505026D01*
X158160000Y-120551001D01*
X158188998Y-120574799D01*
X159969252Y-122355054D01*
X159932940Y-122537605D01*
X159932940Y-122658138D01*
X149186800Y-111911999D01*
X150510679Y-111911999D01*
X150548001Y-111915675D01*
X150585323Y-111911999D01*
X150585334Y-111911999D01*
X150696987Y-111901002D01*
X150840248Y-111857545D01*
X150972277Y-111786973D01*
X151088002Y-111692000D01*
X151111804Y-111662997D01*
X151339801Y-111435000D01*
X151401939Y-111435000D01*
X151601898Y-111395226D01*
X151790256Y-111317205D01*
X151959774Y-111203937D01*
X152103937Y-111059774D01*
X152217205Y-110890256D01*
X152295226Y-110701898D01*
X152335000Y-110501939D01*
X152335000Y-110298061D01*
X152295226Y-110098102D01*
X152217205Y-109909744D01*
X152103937Y-109740226D01*
X151959774Y-109596063D01*
X151790256Y-109482795D01*
X151601898Y-109404774D01*
X151401939Y-109365000D01*
X151198061Y-109365000D01*
X150998102Y-109404774D01*
X150809744Y-109482795D01*
X150640226Y-109596063D01*
X150496063Y-109740226D01*
X150382795Y-109909744D01*
X150304774Y-110098102D01*
X150265000Y-110298061D01*
X150265000Y-110360199D01*
X150233200Y-110391999D01*
X148739802Y-110391999D01*
X148611805Y-110264002D01*
X148588002Y-110234998D01*
X148472277Y-110140025D01*
X148340248Y-110069453D01*
X148196987Y-110025996D01*
X148085334Y-110014999D01*
X148085323Y-110014999D01*
X148048001Y-110011323D01*
X148010679Y-110014999D01*
X147389332Y-110014999D01*
X147351999Y-110011322D01*
X147314666Y-110014999D01*
X147284988Y-110017922D01*
X147284988Y-106235000D01*
X147301939Y-106235000D01*
X147501898Y-106195226D01*
X147690256Y-106117205D01*
X147859774Y-106003937D01*
X148003937Y-105859774D01*
X148117205Y-105690256D01*
X148195226Y-105501898D01*
X148235000Y-105301939D01*
X148235000Y-105098061D01*
X148195226Y-104898102D01*
X148117205Y-104709744D01*
X148024920Y-104571630D01*
X148095226Y-104401898D01*
X148135000Y-104201939D01*
X148135000Y-103998061D01*
X148095226Y-103798102D01*
X148017205Y-103609744D01*
X147903937Y-103440226D01*
X147759774Y-103296063D01*
X147590256Y-103182795D01*
X147401898Y-103104774D01*
X147201939Y-103065000D01*
X146998061Y-103065000D01*
X146798102Y-103104774D01*
X146609744Y-103182795D01*
X146440226Y-103296063D01*
X146296063Y-103440226D01*
X146182795Y-103609744D01*
X146104774Y-103798102D01*
X146065000Y-103998061D01*
X146065000Y-104060197D01*
X142492515Y-107632683D01*
X142502940Y-107580275D01*
X142502940Y-107297605D01*
X142447793Y-107020366D01*
X142339620Y-106759213D01*
X142182577Y-106524181D01*
X141982699Y-106324303D01*
X141750181Y-106168940D01*
X141982699Y-106013577D01*
X142182577Y-105813699D01*
X142339620Y-105578667D01*
X142447793Y-105317514D01*
X142502940Y-105040275D01*
X142502940Y-104757605D01*
X142447793Y-104480366D01*
X142339620Y-104219213D01*
X142182577Y-103984181D01*
X141983979Y-103785583D01*
X141992422Y-103784752D01*
X142112120Y-103748442D01*
X142222434Y-103689477D01*
X142319125Y-103610125D01*
X142398477Y-103513434D01*
X142457442Y-103403120D01*
X142493752Y-103283422D01*
X142506012Y-103158940D01*
X142506012Y-101558940D01*
X142493752Y-101434458D01*
X142457442Y-101314760D01*
X142398477Y-101204446D01*
X142319125Y-101107755D01*
X142222434Y-101028403D01*
X142112120Y-100969438D01*
X141992422Y-100933128D01*
X141867940Y-100920868D01*
X140267940Y-100920868D01*
X140143458Y-100933128D01*
X140023760Y-100969438D01*
X139913446Y-101028403D01*
X139816755Y-101107755D01*
X139737403Y-101204446D01*
X139678438Y-101314760D01*
X139642128Y-101434458D01*
X139629868Y-101558940D01*
X139629868Y-103158940D01*
X139642128Y-103283422D01*
X139678438Y-103403120D01*
X139737403Y-103513434D01*
X139816755Y-103610125D01*
X139913446Y-103689477D01*
X140023760Y-103748442D01*
X140143458Y-103784752D01*
X140151901Y-103785583D01*
X139953303Y-103984181D01*
X139796260Y-104219213D01*
X139688087Y-104480366D01*
X139632940Y-104757605D01*
X139632940Y-105040275D01*
X139688087Y-105317514D01*
X139796260Y-105578667D01*
X139953303Y-105813699D01*
X140153181Y-106013577D01*
X140385699Y-106168940D01*
X140153181Y-106324303D01*
X139953303Y-106524181D01*
X139796260Y-106759213D01*
X139688087Y-107020366D01*
X139632940Y-107297605D01*
X139632940Y-107580275D01*
X139688087Y-107857514D01*
X139796260Y-108118667D01*
X139953303Y-108353699D01*
X140153181Y-108553577D01*
X140388213Y-108710620D01*
X140649366Y-108818793D01*
X140926605Y-108873940D01*
X141209275Y-108873940D01*
X141453885Y-108825283D01*
X141443939Y-108858073D01*
X141436341Y-108935212D01*
X141429265Y-109007059D01*
X141432942Y-109044391D01*
X141432942Y-111128431D01*
X141209275Y-111083940D01*
X140926605Y-111083940D01*
X140649366Y-111139087D01*
X140388213Y-111247260D01*
X140153181Y-111404303D01*
X139953303Y-111604181D01*
X139796260Y-111839213D01*
X139688087Y-112100366D01*
X139632940Y-112377605D01*
X139632940Y-112660275D01*
X139688087Y-112937514D01*
X139796260Y-113198667D01*
X139953303Y-113433699D01*
X140153181Y-113633577D01*
X140385699Y-113788940D01*
X140153181Y-113944303D01*
X139953303Y-114144181D01*
X139796260Y-114379213D01*
X139688087Y-114640366D01*
X139632940Y-114917605D01*
X139632940Y-115200275D01*
X139688087Y-115477514D01*
X139796260Y-115738667D01*
X139953303Y-115973699D01*
X140153181Y-116173577D01*
X140385699Y-116328940D01*
X140153181Y-116484303D01*
X139953303Y-116684181D01*
X139796260Y-116919213D01*
X139688087Y-117180366D01*
X139632940Y-117457605D01*
X139632940Y-117740275D01*
X139688087Y-118017514D01*
X139796260Y-118278667D01*
X139953303Y-118513699D01*
X140153181Y-118713577D01*
X140385699Y-118868940D01*
X140153181Y-119024303D01*
X139953303Y-119224181D01*
X139796260Y-119459213D01*
X139688087Y-119720366D01*
X139632940Y-119997605D01*
X139632940Y-120280275D01*
X139688087Y-120557514D01*
X139796260Y-120818667D01*
X139953303Y-121053699D01*
X140153181Y-121253577D01*
X140385699Y-121408940D01*
X140153181Y-121564303D01*
X139953303Y-121764181D01*
X139796260Y-121999213D01*
X139688087Y-122260366D01*
X139632940Y-122537605D01*
X139632940Y-122820275D01*
X139688087Y-123097514D01*
X139796260Y-123358667D01*
X139953303Y-123593699D01*
X140153181Y-123793577D01*
X140385699Y-123948940D01*
X140153181Y-124104303D01*
X139953303Y-124304181D01*
X139796260Y-124539213D01*
X139688087Y-124800366D01*
X139632940Y-125077605D01*
X139632940Y-125360275D01*
X139688087Y-125637514D01*
X139796260Y-125898667D01*
X139953303Y-126133699D01*
X140153181Y-126333577D01*
X140385699Y-126488940D01*
X140153181Y-126644303D01*
X139953303Y-126844181D01*
X139796260Y-127079213D01*
X139688087Y-127340366D01*
X139632940Y-127617605D01*
X139632940Y-127900275D01*
X139688087Y-128177514D01*
X139796260Y-128438667D01*
X139953303Y-128673699D01*
X140153181Y-128873577D01*
X140385699Y-129028940D01*
X140153181Y-129184303D01*
X139953303Y-129384181D01*
X139796260Y-129619213D01*
X139688087Y-129880366D01*
X139632940Y-130157605D01*
X139632940Y-130440275D01*
X139688087Y-130717514D01*
X139796260Y-130978667D01*
X139953303Y-131213699D01*
X139953340Y-131213736D01*
X138602076Y-132565001D01*
X119938072Y-132565001D01*
X119938072Y-132367059D01*
X124031345Y-128273788D01*
X124074648Y-128238250D01*
X124159434Y-128134939D01*
X124216483Y-128065424D01*
X124321875Y-127868248D01*
X124386776Y-127654300D01*
X124408690Y-127431801D01*
X124403199Y-127376049D01*
X124403199Y-121321532D01*
X132822126Y-112902607D01*
X132865429Y-112867069D01*
X133007264Y-112694243D01*
X133112656Y-112497067D01*
X133177557Y-112283119D01*
X133193980Y-112116372D01*
X133199471Y-112060620D01*
X133193980Y-112004868D01*
X133193980Y-102017382D01*
X133368817Y-102017382D01*
X133568776Y-101977608D01*
X133757134Y-101899587D01*
X133926652Y-101786319D01*
X134070815Y-101642156D01*
X134184083Y-101472638D01*
X134262104Y-101284280D01*
X134301878Y-101084321D01*
X134301878Y-100880443D01*
X134262104Y-100680484D01*
X134184083Y-100492126D01*
X134070815Y-100322608D01*
X134026878Y-100278671D01*
X134026878Y-99618713D01*
X134062431Y-99583160D01*
X134175699Y-99413642D01*
X134253720Y-99225284D01*
X134293494Y-99025325D01*
X134293494Y-98821447D01*
X134253720Y-98621488D01*
X134175699Y-98433130D01*
X134062431Y-98263612D01*
X134018494Y-98219675D01*
X134018494Y-98033740D01*
X135615000Y-98033740D01*
X135615000Y-98326260D01*
X135672068Y-98613158D01*
X135784010Y-98883411D01*
X135946525Y-99126632D01*
X136153368Y-99333475D01*
X136327760Y-99450000D01*
X136153368Y-99566525D01*
X135946525Y-99773368D01*
X135784010Y-100016589D01*
X135672068Y-100286842D01*
X135615000Y-100573740D01*
X135615000Y-100866260D01*
X135672068Y-101153158D01*
X135784010Y-101423411D01*
X135946525Y-101666632D01*
X136153368Y-101873475D01*
X136327760Y-101990000D01*
X136153368Y-102106525D01*
X135946525Y-102313368D01*
X135784010Y-102556589D01*
X135672068Y-102826842D01*
X135615000Y-103113740D01*
X135615000Y-103406260D01*
X135672068Y-103693158D01*
X135784010Y-103963411D01*
X135946525Y-104206632D01*
X136153368Y-104413475D01*
X136327760Y-104530000D01*
X136153368Y-104646525D01*
X135946525Y-104853368D01*
X135784010Y-105096589D01*
X135672068Y-105366842D01*
X135615000Y-105653740D01*
X135615000Y-105946260D01*
X135672068Y-106233158D01*
X135784010Y-106503411D01*
X135946525Y-106746632D01*
X136153368Y-106953475D01*
X136327760Y-107070000D01*
X136153368Y-107186525D01*
X135946525Y-107393368D01*
X135784010Y-107636589D01*
X135672068Y-107906842D01*
X135615000Y-108193740D01*
X135615000Y-108486260D01*
X135672068Y-108773158D01*
X135784010Y-109043411D01*
X135946525Y-109286632D01*
X136153368Y-109493475D01*
X136327760Y-109610000D01*
X136153368Y-109726525D01*
X135946525Y-109933368D01*
X135784010Y-110176589D01*
X135672068Y-110446842D01*
X135615000Y-110733740D01*
X135615000Y-111026260D01*
X135672068Y-111313158D01*
X135784010Y-111583411D01*
X135946525Y-111826632D01*
X136153368Y-112033475D01*
X136327760Y-112150000D01*
X136153368Y-112266525D01*
X135946525Y-112473368D01*
X135784010Y-112716589D01*
X135672068Y-112986842D01*
X135615000Y-113273740D01*
X135615000Y-113566260D01*
X135672068Y-113853158D01*
X135784010Y-114123411D01*
X135946525Y-114366632D01*
X136153368Y-114573475D01*
X136327760Y-114690000D01*
X136153368Y-114806525D01*
X135946525Y-115013368D01*
X135784010Y-115256589D01*
X135672068Y-115526842D01*
X135615000Y-115813740D01*
X135615000Y-116106260D01*
X135672068Y-116393158D01*
X135784010Y-116663411D01*
X135946525Y-116906632D01*
X136153368Y-117113475D01*
X136327760Y-117230000D01*
X136153368Y-117346525D01*
X135946525Y-117553368D01*
X135784010Y-117796589D01*
X135672068Y-118066842D01*
X135615000Y-118353740D01*
X135615000Y-118646260D01*
X135672068Y-118933158D01*
X135784010Y-119203411D01*
X135946525Y-119446632D01*
X136153368Y-119653475D01*
X136396589Y-119815990D01*
X136666842Y-119927932D01*
X136953740Y-119985000D01*
X137246260Y-119985000D01*
X137533158Y-119927932D01*
X137803411Y-119815990D01*
X138046632Y-119653475D01*
X138253475Y-119446632D01*
X138415990Y-119203411D01*
X138527932Y-118933158D01*
X138585000Y-118646260D01*
X138585000Y-118353740D01*
X138527932Y-118066842D01*
X138415990Y-117796589D01*
X138253475Y-117553368D01*
X138046632Y-117346525D01*
X137872240Y-117230000D01*
X138046632Y-117113475D01*
X138253475Y-116906632D01*
X138415990Y-116663411D01*
X138527932Y-116393158D01*
X138585000Y-116106260D01*
X138585000Y-115813740D01*
X138527932Y-115526842D01*
X138415990Y-115256589D01*
X138253475Y-115013368D01*
X138046632Y-114806525D01*
X137872240Y-114690000D01*
X138046632Y-114573475D01*
X138253475Y-114366632D01*
X138415990Y-114123411D01*
X138527932Y-113853158D01*
X138585000Y-113566260D01*
X138585000Y-113273740D01*
X138527932Y-112986842D01*
X138415990Y-112716589D01*
X138253475Y-112473368D01*
X138046632Y-112266525D01*
X137872240Y-112150000D01*
X138046632Y-112033475D01*
X138253475Y-111826632D01*
X138415990Y-111583411D01*
X138527932Y-111313158D01*
X138585000Y-111026260D01*
X138585000Y-110733740D01*
X138527932Y-110446842D01*
X138415990Y-110176589D01*
X138253475Y-109933368D01*
X138046632Y-109726525D01*
X137872240Y-109610000D01*
X138046632Y-109493475D01*
X138253475Y-109286632D01*
X138415990Y-109043411D01*
X138527932Y-108773158D01*
X138585000Y-108486260D01*
X138585000Y-108193740D01*
X138527932Y-107906842D01*
X138415990Y-107636589D01*
X138253475Y-107393368D01*
X138046632Y-107186525D01*
X137872240Y-107070000D01*
X138046632Y-106953475D01*
X138253475Y-106746632D01*
X138415990Y-106503411D01*
X138527932Y-106233158D01*
X138585000Y-105946260D01*
X138585000Y-105653740D01*
X138527932Y-105366842D01*
X138415990Y-105096589D01*
X138253475Y-104853368D01*
X138046632Y-104646525D01*
X137872240Y-104530000D01*
X138046632Y-104413475D01*
X138253475Y-104206632D01*
X138415990Y-103963411D01*
X138527932Y-103693158D01*
X138585000Y-103406260D01*
X138585000Y-103113740D01*
X138527932Y-102826842D01*
X138415990Y-102556589D01*
X138253475Y-102313368D01*
X138046632Y-102106525D01*
X137872240Y-101990000D01*
X138046632Y-101873475D01*
X138253475Y-101666632D01*
X138415990Y-101423411D01*
X138527932Y-101153158D01*
X138585000Y-100866260D01*
X138585000Y-100573740D01*
X138527932Y-100286842D01*
X138415990Y-100016589D01*
X138253475Y-99773368D01*
X138046632Y-99566525D01*
X137872240Y-99450000D01*
X138046632Y-99333475D01*
X138253475Y-99126632D01*
X138415990Y-98883411D01*
X138527932Y-98613158D01*
X138585000Y-98326260D01*
X138585000Y-98033740D01*
X138527932Y-97746842D01*
X138415990Y-97476589D01*
X138253475Y-97233368D01*
X138046632Y-97026525D01*
X137803411Y-96864010D01*
X137533158Y-96752068D01*
X137246260Y-96695000D01*
X136953740Y-96695000D01*
X136666842Y-96752068D01*
X136396589Y-96864010D01*
X136153368Y-97026525D01*
X135946525Y-97233368D01*
X135784010Y-97476589D01*
X135672068Y-97746842D01*
X135615000Y-98033740D01*
X134018494Y-98033740D01*
X134018494Y-96757839D01*
X134049658Y-96726675D01*
X134162926Y-96557157D01*
X134240947Y-96368799D01*
X134280721Y-96168840D01*
X134280721Y-95964962D01*
X134240947Y-95765003D01*
X134162926Y-95576645D01*
X134081307Y-95454493D01*
X135768890Y-93766909D01*
X135784010Y-93803411D01*
X135946525Y-94046632D01*
X136153368Y-94253475D01*
X136396589Y-94415990D01*
X136666842Y-94527932D01*
X136953740Y-94585000D01*
X137246260Y-94585000D01*
X137533158Y-94527932D01*
X137803411Y-94415990D01*
X138046632Y-94253475D01*
X138253475Y-94046632D01*
X138415990Y-93803411D01*
X138527932Y-93533158D01*
X138585000Y-93246260D01*
X138585000Y-92953740D01*
X138527932Y-92666842D01*
X138415990Y-92396589D01*
X138253475Y-92153368D01*
X138046632Y-91946525D01*
X137803411Y-91784010D01*
X137766909Y-91768890D01*
X141275800Y-88260000D01*
X141412913Y-88260000D01*
X141424188Y-88374482D01*
X141460498Y-88494180D01*
X141519463Y-88604494D01*
X141598815Y-88701185D01*
X141695506Y-88780537D01*
X141805820Y-88839502D01*
X141925518Y-88875812D01*
X142050000Y-88888072D01*
X143550000Y-88888072D01*
X143674482Y-88875812D01*
X143794180Y-88839502D01*
X143904494Y-88780537D01*
X144001185Y-88701185D01*
X144080537Y-88604494D01*
X144139502Y-88494180D01*
X144175812Y-88374482D01*
X144188072Y-88250000D01*
X144188072Y-87877871D01*
X154839891Y-98529691D01*
G36*
X113615002Y-129061614D02*
G01*
X112784999Y-128231611D01*
X112784999Y-122749802D01*
X112833592Y-122701209D01*
X113053740Y-122745000D01*
X113346260Y-122745000D01*
X113615001Y-122691544D01*
X113615002Y-129061614D01*
G37*
X113615002Y-129061614D02*
X112784999Y-128231611D01*
X112784999Y-122749802D01*
X112833592Y-122701209D01*
X113053740Y-122745000D01*
X113346260Y-122745000D01*
X113615001Y-122691544D01*
X113615002Y-129061614D01*
G36*
X165731620Y-82949218D02*
G01*
X165479566Y-83053622D01*
X165252723Y-83205194D01*
X165059810Y-83398107D01*
X164908238Y-83624950D01*
X164803834Y-83877004D01*
X164750609Y-84144582D01*
X164750609Y-84417404D01*
X164803834Y-84684982D01*
X164908238Y-84937036D01*
X165041763Y-85136870D01*
X164912429Y-85223288D01*
X164719516Y-85416201D01*
X164567944Y-85643044D01*
X164463540Y-85895098D01*
X164410315Y-86162676D01*
X164410315Y-86435498D01*
X164439148Y-86580452D01*
X162750126Y-88269475D01*
X162686804Y-88227164D01*
X163452741Y-87461228D01*
X163481739Y-87437430D01*
X163552659Y-87351014D01*
X163576712Y-87321706D01*
X163647284Y-87189676D01*
X163649621Y-87181973D01*
X163690741Y-87046415D01*
X163701738Y-86934762D01*
X163701738Y-86934752D01*
X163705414Y-86897429D01*
X163701738Y-86860106D01*
X163701738Y-84707216D01*
X165506562Y-82902393D01*
X165967023Y-82902393D01*
X165731620Y-82949218D01*
G37*
X165731620Y-82949218D02*
X165479566Y-83053622D01*
X165252723Y-83205194D01*
X165059810Y-83398107D01*
X164908238Y-83624950D01*
X164803834Y-83877004D01*
X164750609Y-84144582D01*
X164750609Y-84417404D01*
X164803834Y-84684982D01*
X164908238Y-84937036D01*
X165041763Y-85136870D01*
X164912429Y-85223288D01*
X164719516Y-85416201D01*
X164567944Y-85643044D01*
X164463540Y-85895098D01*
X164410315Y-86162676D01*
X164410315Y-86435498D01*
X164439148Y-86580452D01*
X162750126Y-88269475D01*
X162686804Y-88227164D01*
X163452741Y-87461228D01*
X163481739Y-87437430D01*
X163552659Y-87351014D01*
X163576712Y-87321706D01*
X163647284Y-87189676D01*
X163649621Y-87181973D01*
X163690741Y-87046415D01*
X163701738Y-86934762D01*
X163701738Y-86934752D01*
X163705414Y-86897429D01*
X163701738Y-86860106D01*
X163701738Y-84707216D01*
X165506562Y-82902393D01*
X165967023Y-82902393D01*
X165731620Y-82949218D01*
M02*
