G04 #@! TF.GenerationSoftware,KiCad,Pcbnew,(6.0.7)*
G04 #@! TF.CreationDate,2023-06-14T22:42:32-05:00*
G04 #@! TF.ProjectId,ControlBoardT4_DFminiSound_PowerAmp,436f6e74-726f-46c4-926f-61726454345f,rev?*
G04 #@! TF.SameCoordinates,Original*
G04 #@! TF.FileFunction,Soldermask,Bot*
G04 #@! TF.FilePolarity,Negative*
%FSLAX46Y46*%
G04 Gerber Fmt 4.6, Leading zero omitted, Abs format (unit mm)*
G04 Created by KiCad (PCBNEW (6.0.7)) date 2023-06-14 22:42:32*
%MOMM*%
%LPD*%
G01*
G04 APERTURE LIST*
G04 Aperture macros list*
%AMRoundRect*
0 Rectangle with rounded corners*
0 $1 Rounding radius*
0 $2 $3 $4 $5 $6 $7 $8 $9 X,Y pos of 4 corners*
0 Add a 4 corners polygon primitive as box body*
4,1,4,$2,$3,$4,$5,$6,$7,$8,$9,$2,$3,0*
0 Add four circle primitives for the rounded corners*
1,1,$1+$1,$2,$3*
1,1,$1+$1,$4,$5*
1,1,$1+$1,$6,$7*
1,1,$1+$1,$8,$9*
0 Add four rect primitives between the rounded corners*
20,1,$1+$1,$2,$3,$4,$5,0*
20,1,$1+$1,$4,$5,$6,$7,0*
20,1,$1+$1,$6,$7,$8,$9,0*
20,1,$1+$1,$8,$9,$2,$3,0*%
%AMHorizOval*
0 Thick line with rounded ends*
0 $1 width*
0 $2 $3 position (X,Y) of the first rounded end (center of the circle)*
0 $4 $5 position (X,Y) of the second rounded end (center of the circle)*
0 Add line between two ends*
20,1,$1,$2,$3,$4,$5,0*
0 Add two circle primitives to create the rounded ends*
1,1,$1,$2,$3*
1,1,$1,$4,$5*%
%AMRotRect*
0 Rectangle, with rotation*
0 The origin of the aperture is its center*
0 $1 length*
0 $2 width*
0 $3 Rotation angle, in degrees counterclockwise*
0 Add horizontal line*
21,1,$1,$2,0,0,$3*%
G04 Aperture macros list end*
%ADD10RotRect,2.286000X2.286000X45.000000*%
%ADD11C,2.286000*%
%ADD12RotRect,2.286000X2.286000X225.000000*%
%ADD13R,1.700000X1.700000*%
%ADD14O,1.700000X1.700000*%
%ADD15HorizOval,2.500000X0.000000X0.000000X0.000000X0.000000X0*%
%ADD16C,3.250000*%
%ADD17R,1.500000X1.500000*%
%ADD18C,1.500000*%
%ADD19O,1.259000X2.362000*%
%ADD20R,1.600000X1.600000*%
%ADD21C,1.600000*%
%ADD22C,2.500000*%
%ADD23RoundRect,0.250000X-0.450000X0.325000X-0.450000X-0.325000X0.450000X-0.325000X0.450000X0.325000X0*%
%ADD24R,0.254000X0.965200*%
%ADD25R,0.965200X0.254000*%
%ADD26R,4.851400X4.851400*%
%ADD27C,0.800000*%
%ADD28RoundRect,0.250000X0.450000X-0.325000X0.450000X0.325000X-0.450000X0.325000X-0.450000X-0.325000X0*%
%ADD29R,2.200000X1.200000*%
%ADD30R,6.400000X5.800000*%
%ADD31RoundRect,0.250000X0.325000X0.450000X-0.325000X0.450000X-0.325000X-0.450000X0.325000X-0.450000X0*%
%ADD32RoundRect,0.250000X-0.325000X-0.450000X0.325000X-0.450000X0.325000X0.450000X-0.325000X0.450000X0*%
%ADD33RoundRect,0.250000X-0.262500X-0.450000X0.262500X-0.450000X0.262500X0.450000X-0.262500X0.450000X0*%
%ADD34RoundRect,0.250000X0.262500X0.450000X-0.262500X0.450000X-0.262500X-0.450000X0.262500X-0.450000X0*%
%ADD35R,0.254000X0.812800*%
%ADD36R,0.304800X1.092200*%
%ADD37R,0.254000X0.508000*%
%ADD38R,1.954000X0.584000*%
%ADD39R,0.254000X0.711200*%
%ADD40R,0.711200X0.254000*%
%ADD41R,1.092200X0.304800*%
%ADD42R,0.406400X0.254000*%
%ADD43RoundRect,0.250000X0.250000X0.475000X-0.250000X0.475000X-0.250000X-0.475000X0.250000X-0.475000X0*%
%ADD44RoundRect,0.250000X-0.475000X0.250000X-0.475000X-0.250000X0.475000X-0.250000X0.475000X0.250000X0*%
%ADD45RoundRect,0.150000X-0.825000X-0.150000X0.825000X-0.150000X0.825000X0.150000X-0.825000X0.150000X0*%
G04 APERTURE END LIST*
D10*
X116200000Y-147000000D03*
D11*
X119792102Y-143407898D03*
D12*
X129812051Y-74403949D03*
D11*
X126219949Y-77996051D03*
D13*
X113200000Y-83000000D03*
D14*
X113200000Y-80460000D03*
X113200000Y-77920000D03*
D13*
X113200000Y-103400000D03*
D14*
X113200000Y-100860000D03*
X113200000Y-98320000D03*
D13*
X113200000Y-123800000D03*
D14*
X113200000Y-121260000D03*
X113200000Y-118720000D03*
D15*
X132228100Y-147359000D03*
D13*
X136000000Y-135400000D03*
D14*
X133460000Y-135400000D03*
X130920000Y-135400000D03*
X128380000Y-135400000D03*
D16*
X159578320Y-81379180D03*
X172278320Y-81379180D03*
D17*
X162379020Y-83919180D03*
D18*
X163399020Y-85699180D03*
X164409020Y-83919180D03*
X165429020Y-85699180D03*
X166439020Y-83919180D03*
X167459020Y-85699180D03*
X168469020Y-83919180D03*
X169489020Y-85699180D03*
D19*
X174058320Y-84281130D03*
X157798320Y-84281130D03*
D13*
X166100000Y-144000000D03*
D14*
X168640000Y-144000000D03*
X171180000Y-144000000D03*
X173720000Y-144000000D03*
D20*
X143357000Y-98638000D03*
D21*
X143357000Y-101178000D03*
X143357000Y-103718000D03*
X143357000Y-106258000D03*
X143357000Y-108798000D03*
X143357000Y-111338000D03*
X143357000Y-113878000D03*
X143357000Y-116418000D03*
X143357000Y-118958000D03*
X143357000Y-121498000D03*
X143357000Y-124038000D03*
X143357000Y-126578000D03*
X143357000Y-129118000D03*
X143357000Y-131658000D03*
X158597000Y-131658000D03*
X158597000Y-129118000D03*
X158597000Y-126578000D03*
X158597000Y-124038000D03*
X158597000Y-121498000D03*
X158597000Y-118958000D03*
X158597000Y-116418000D03*
X158597000Y-113878000D03*
X158597000Y-111338000D03*
X158597000Y-108798000D03*
X158597000Y-106258000D03*
X158597000Y-103718000D03*
X158597000Y-101178000D03*
X158597000Y-98638000D03*
D13*
X150109000Y-89916000D03*
D14*
X152649000Y-89916000D03*
D13*
X148750000Y-136130000D03*
D14*
X151290000Y-136130000D03*
X153830000Y-136130000D03*
X156370000Y-136130000D03*
D13*
X166100000Y-103360000D03*
D14*
X168640000Y-103360000D03*
X171180000Y-103360000D03*
X173720000Y-103360000D03*
D13*
X166100000Y-113520000D03*
D14*
X168640000Y-113520000D03*
X171180000Y-113520000D03*
D13*
X166100000Y-123680000D03*
D14*
X168640000Y-123680000D03*
X171180000Y-123680000D03*
D13*
X166100000Y-133840000D03*
D14*
X168640000Y-133840000D03*
X171180000Y-133840000D03*
D13*
X136977200Y-122921000D03*
D14*
X119197200Y-122921000D03*
X136977200Y-120381000D03*
X119197200Y-120381000D03*
X136977200Y-117841000D03*
X119197200Y-117841000D03*
X136977200Y-115301000D03*
X119197200Y-115301000D03*
X136977200Y-112761000D03*
X119197200Y-112761000D03*
X136977200Y-110221000D03*
X119197200Y-110221000D03*
X136977200Y-107681000D03*
X119197200Y-107681000D03*
X136977200Y-105141000D03*
X119197200Y-105141000D03*
D22*
X177000000Y-154200000D03*
D20*
X118500000Y-132200000D03*
D21*
X122000000Y-132200000D03*
D13*
X147470000Y-82770000D03*
D14*
X150010000Y-82770000D03*
X152550000Y-82770000D03*
D13*
X148855000Y-141980000D03*
D14*
X148855000Y-144520000D03*
X151395000Y-141980000D03*
X151395000Y-144520000D03*
X153935000Y-141980000D03*
X153935000Y-144520000D03*
D22*
X112200000Y-72700000D03*
X177000000Y-72700000D03*
X122700000Y-154200000D03*
D23*
X129400000Y-121485000D03*
X129400000Y-123535000D03*
D24*
X123738000Y-112699800D03*
X124237999Y-112699800D03*
X124738000Y-112699800D03*
X125237999Y-112699800D03*
X125738001Y-112699800D03*
X126238000Y-112699800D03*
X126737999Y-112699800D03*
X127238001Y-112699800D03*
X127738000Y-112699800D03*
X128238001Y-112699800D03*
X128738000Y-112699800D03*
D25*
X129616200Y-113578000D03*
X129616200Y-114077999D03*
X129616200Y-114578000D03*
X129616200Y-115077999D03*
X129616200Y-115578001D03*
X129616200Y-116078000D03*
X129616200Y-116577999D03*
X129616200Y-117078001D03*
X129616200Y-117578000D03*
X129616200Y-118078001D03*
X129616200Y-118578000D03*
D24*
X128738000Y-119456200D03*
X128238001Y-119456200D03*
X127738000Y-119456200D03*
X127238001Y-119456200D03*
X126737999Y-119456200D03*
X126238000Y-119456200D03*
X125738001Y-119456200D03*
X125237999Y-119456200D03*
X124738000Y-119456200D03*
X124237999Y-119456200D03*
X123738000Y-119456200D03*
D25*
X122859800Y-118578000D03*
X122859800Y-118078001D03*
X122859800Y-117578000D03*
X122859800Y-117078001D03*
X122859800Y-116577999D03*
X122859800Y-116078000D03*
X122859800Y-115578001D03*
X122859800Y-115077999D03*
X122859800Y-114578000D03*
X122859800Y-114077999D03*
X122859800Y-113578000D03*
D26*
X126238000Y-116078000D03*
D27*
X126238000Y-116078000D03*
X126238000Y-117290850D03*
X127450850Y-115471575D03*
X126238000Y-114865150D03*
X125025150Y-115471575D03*
X125025150Y-116684425D03*
X127450850Y-116684425D03*
D28*
X132334000Y-112531000D03*
X132334000Y-110481000D03*
D29*
X127372000Y-130804000D03*
X127372000Y-126244000D03*
D30*
X133672000Y-128524000D03*
D23*
X132334000Y-114291000D03*
X132334000Y-116341000D03*
D31*
X133613000Y-83820000D03*
X131563000Y-83820000D03*
X127526000Y-121666000D03*
X125476000Y-121666000D03*
D28*
X128524000Y-89163000D03*
X128524000Y-87113000D03*
D23*
X132334000Y-118355000D03*
X132334000Y-120405000D03*
D28*
X132334000Y-89163000D03*
X132334000Y-87113000D03*
D31*
X123707000Y-128270000D03*
X121657000Y-128270000D03*
X129286000Y-81026000D03*
X127236000Y-81026000D03*
D28*
X134620000Y-114309000D03*
X134620000Y-112259000D03*
D23*
X134620000Y-117085000D03*
X134620000Y-119135000D03*
D32*
X127245000Y-83820000D03*
X129295000Y-83820000D03*
D23*
X125600000Y-107975000D03*
X125600000Y-110025000D03*
D31*
X133613000Y-81026000D03*
X131563000Y-81026000D03*
D33*
X123873500Y-138102000D03*
X125698500Y-138102000D03*
D34*
X123580500Y-140058000D03*
X121755500Y-140058000D03*
D35*
X125958000Y-140338000D03*
D36*
X126607999Y-140478000D03*
X127258000Y-140478000D03*
D37*
X127908000Y-140186000D03*
X128758001Y-140186000D03*
X129608000Y-140186000D03*
D38*
X128758000Y-140732000D03*
D37*
X129608000Y-143278000D03*
X128758001Y-143278000D03*
X127908000Y-143278000D03*
D38*
X128758000Y-142732000D03*
D36*
X127258000Y-142986000D03*
X126607999Y-142986000D03*
D39*
X125958000Y-143176000D03*
D40*
X125064000Y-142982000D03*
X125064000Y-142482001D03*
D41*
X125254000Y-141982000D03*
X125254000Y-141482000D03*
D40*
X125064000Y-140981999D03*
X125064000Y-140482000D03*
D42*
X126933000Y-141482000D03*
X126933000Y-141982000D03*
D33*
X127315500Y-138102000D03*
X129140500Y-138102000D03*
D43*
X127438000Y-144872000D03*
X125538000Y-144872000D03*
D44*
X123368000Y-141836000D03*
X123368000Y-143736000D03*
D45*
X139495000Y-146010000D03*
X139495000Y-144740000D03*
X139495000Y-143470000D03*
X139495000Y-142200000D03*
X139495000Y-140930000D03*
X139495000Y-139660000D03*
X139495000Y-138390000D03*
X144445000Y-138390000D03*
X144445000Y-139660000D03*
X144445000Y-140930000D03*
X144445000Y-142200000D03*
X144445000Y-143470000D03*
X144445000Y-144740000D03*
X144445000Y-146010000D03*
M02*
