%TF.GenerationSoftware,KiCad,Pcbnew,(6.0.7)*%
%TF.CreationDate,2023-04-27T15:35:22-05:00*%
%TF.ProjectId,ControlBoardT4_DFminiSound_PowerAmp,436f6e74-726f-46c4-926f-61726454345f,rev?*%
%TF.SameCoordinates,Original*%
%TF.FileFunction,Drillmap*%
%TF.FilePolarity,Positive*%
%FSLAX45Y45*%
G04 Gerber Fmt 4.5, Leading zero omitted, Abs format (unit mm)*
G04 Created by KiCad (PCBNEW (6.0.7)) date 2023-04-27 15:35:22*
%MOMM*%
%LPD*%
G01*
G04 APERTURE LIST*
%ADD10C,0.050000*%
%ADD11C,0.200000*%
%ADD12C,0.250000*%
%ADD13C,0.320000*%
G04 APERTURE END LIST*
D10*
X18075400Y-7391400D02*
G75*
G03*
X17567400Y-6883400I-508000J0D01*
G01*
X11328400Y-6883400D02*
X17567400Y-6883400D01*
X10820400Y-7391400D02*
X10820350Y-14287500D01*
X18075400Y-15287500D02*
X18075400Y-7391400D01*
X17567350Y-15795500D02*
G75*
G03*
X18075400Y-15287500I50J508000D01*
G01*
X10820350Y-14287500D02*
G75*
G03*
X10969140Y-14646710I508000J0D01*
G01*
X11328400Y-6883400D02*
G75*
G03*
X10820400Y-7391400I0J-508000D01*
G01*
X12328350Y-15795500D02*
X17567350Y-15795500D01*
X11969140Y-15646710D02*
G75*
G03*
X12328350Y-15795500I359210J359210D01*
G01*
X10969140Y-14646710D02*
X11969140Y-15646710D01*
D11*
D12*
X11095000Y-7145000D02*
X11345000Y-7395000D01*
X11345000Y-7145000D02*
X11095000Y-7395000D01*
X12145000Y-15295000D02*
X12395000Y-15545000D01*
X12395000Y-15295000D02*
X12145000Y-15545000D01*
X13097810Y-14610900D02*
X13347810Y-14860900D01*
X13347810Y-14610900D02*
X13097810Y-14860900D01*
D11*
X13102069Y-14768252D02*
X13102069Y-14768252D01*
X13343551Y-14703548D02*
X13343551Y-14703548D01*
X13102069Y-14768252D02*
G75*
G03*
X13343551Y-14703548I120741J32352D01*
G01*
X13343551Y-14703548D02*
G75*
G03*
X13102069Y-14768252I-120741J-32352D01*
G01*
D12*
X17575000Y-7145000D02*
X17825000Y-7395000D01*
X17825000Y-7145000D02*
X17575000Y-7395000D01*
X17575000Y-15295000D02*
X17825000Y-15545000D01*
X17825000Y-15295000D02*
X17575000Y-15545000D01*
D13*
X17426160Y-7920271D02*
G75*
G03*
X17426160Y-7920271I-160000J0D01*
G01*
X16072750Y-8194637D02*
X16072750Y-8514637D01*
X15912750Y-8354637D02*
X16232750Y-8354637D01*
D11*
X11075469Y-16108476D02*
X11075469Y-15908476D01*
X11123088Y-15908476D01*
X11151660Y-15918000D01*
X11170707Y-15937048D01*
X11180231Y-15956095D01*
X11189755Y-15994190D01*
X11189755Y-16022762D01*
X11180231Y-16060857D01*
X11170707Y-16079905D01*
X11151660Y-16098952D01*
X11123088Y-16108476D01*
X11075469Y-16108476D01*
X11275469Y-16108476D02*
X11275469Y-15975143D01*
X11275469Y-16013238D02*
X11284993Y-15994190D01*
X11294517Y-15984667D01*
X11313564Y-15975143D01*
X11332612Y-15975143D01*
X11399278Y-16108476D02*
X11399278Y-15975143D01*
X11399278Y-15908476D02*
X11389755Y-15918000D01*
X11399278Y-15927524D01*
X11408802Y-15918000D01*
X11399278Y-15908476D01*
X11399278Y-15927524D01*
X11523088Y-16108476D02*
X11504040Y-16098952D01*
X11494517Y-16079905D01*
X11494517Y-15908476D01*
X11627850Y-16108476D02*
X11608802Y-16098952D01*
X11599278Y-16079905D01*
X11599278Y-15908476D01*
X11856421Y-16108476D02*
X11856421Y-15908476D01*
X11923088Y-16051333D01*
X11989755Y-15908476D01*
X11989755Y-16108476D01*
X12170707Y-16108476D02*
X12170707Y-16003714D01*
X12161183Y-15984667D01*
X12142136Y-15975143D01*
X12104040Y-15975143D01*
X12084993Y-15984667D01*
X12170707Y-16098952D02*
X12151659Y-16108476D01*
X12104040Y-16108476D01*
X12084993Y-16098952D01*
X12075469Y-16079905D01*
X12075469Y-16060857D01*
X12084993Y-16041809D01*
X12104040Y-16032286D01*
X12151659Y-16032286D01*
X12170707Y-16022762D01*
X12265945Y-15975143D02*
X12265945Y-16175143D01*
X12265945Y-15984667D02*
X12284993Y-15975143D01*
X12323088Y-15975143D01*
X12342136Y-15984667D01*
X12351659Y-15994190D01*
X12361183Y-16013238D01*
X12361183Y-16070381D01*
X12351659Y-16089428D01*
X12342136Y-16098952D01*
X12323088Y-16108476D01*
X12284993Y-16108476D01*
X12265945Y-16098952D01*
X12446898Y-16089428D02*
X12456421Y-16098952D01*
X12446898Y-16108476D01*
X12437374Y-16098952D01*
X12446898Y-16089428D01*
X12446898Y-16108476D01*
X12446898Y-15984667D02*
X12456421Y-15994190D01*
X12446898Y-16003714D01*
X12437374Y-15994190D01*
X12446898Y-15984667D01*
X12446898Y-16003714D01*
X10617850Y-16338000D02*
X10817850Y-16538000D01*
X10817850Y-16338000D02*
X10617850Y-16538000D01*
X11065945Y-16347524D02*
X11075469Y-16338000D01*
X11094517Y-16328476D01*
X11142136Y-16328476D01*
X11161183Y-16338000D01*
X11170707Y-16347524D01*
X11180231Y-16366571D01*
X11180231Y-16385619D01*
X11170707Y-16414190D01*
X11056421Y-16528476D01*
X11180231Y-16528476D01*
X11265945Y-16509428D02*
X11275469Y-16518952D01*
X11265945Y-16528476D01*
X11256421Y-16518952D01*
X11265945Y-16509428D01*
X11265945Y-16528476D01*
X11456421Y-16328476D02*
X11361183Y-16328476D01*
X11351659Y-16423714D01*
X11361183Y-16414190D01*
X11380231Y-16404667D01*
X11427850Y-16404667D01*
X11446898Y-16414190D01*
X11456421Y-16423714D01*
X11465945Y-16442762D01*
X11465945Y-16490381D01*
X11456421Y-16509428D01*
X11446898Y-16518952D01*
X11427850Y-16528476D01*
X11380231Y-16528476D01*
X11361183Y-16518952D01*
X11351659Y-16509428D01*
X11589755Y-16328476D02*
X11608802Y-16328476D01*
X11627850Y-16338000D01*
X11637374Y-16347524D01*
X11646898Y-16366571D01*
X11656421Y-16404667D01*
X11656421Y-16452286D01*
X11646898Y-16490381D01*
X11637374Y-16509428D01*
X11627850Y-16518952D01*
X11608802Y-16528476D01*
X11589755Y-16528476D01*
X11570707Y-16518952D01*
X11561183Y-16509428D01*
X11551659Y-16490381D01*
X11542136Y-16452286D01*
X11542136Y-16404667D01*
X11551659Y-16366571D01*
X11561183Y-16347524D01*
X11570707Y-16338000D01*
X11589755Y-16328476D01*
X11780231Y-16328476D02*
X11799278Y-16328476D01*
X11818326Y-16338000D01*
X11827850Y-16347524D01*
X11837374Y-16366571D01*
X11846898Y-16404667D01*
X11846898Y-16452286D01*
X11837374Y-16490381D01*
X11827850Y-16509428D01*
X11818326Y-16518952D01*
X11799278Y-16528476D01*
X11780231Y-16528476D01*
X11761183Y-16518952D01*
X11751659Y-16509428D01*
X11742136Y-16490381D01*
X11732612Y-16452286D01*
X11732612Y-16404667D01*
X11742136Y-16366571D01*
X11751659Y-16347524D01*
X11761183Y-16338000D01*
X11780231Y-16328476D01*
X11932612Y-16528476D02*
X11932612Y-16395143D01*
X11932612Y-16414190D02*
X11942136Y-16404667D01*
X11961183Y-16395143D01*
X11989755Y-16395143D01*
X12008802Y-16404667D01*
X12018326Y-16423714D01*
X12018326Y-16528476D01*
X12018326Y-16423714D02*
X12027850Y-16404667D01*
X12046898Y-16395143D01*
X12075469Y-16395143D01*
X12094517Y-16404667D01*
X12104040Y-16423714D01*
X12104040Y-16528476D01*
X12199278Y-16528476D02*
X12199278Y-16395143D01*
X12199278Y-16414190D02*
X12208802Y-16404667D01*
X12227850Y-16395143D01*
X12256421Y-16395143D01*
X12275469Y-16404667D01*
X12284993Y-16423714D01*
X12284993Y-16528476D01*
X12284993Y-16423714D02*
X12294517Y-16404667D01*
X12313564Y-16395143D01*
X12342136Y-16395143D01*
X12361183Y-16404667D01*
X12370707Y-16423714D01*
X12370707Y-16528476D01*
X12761183Y-16318952D02*
X12589755Y-16576095D01*
X13018326Y-16328476D02*
X13037374Y-16328476D01*
X13056421Y-16338000D01*
X13065945Y-16347524D01*
X13075469Y-16366571D01*
X13084993Y-16404667D01*
X13084993Y-16452286D01*
X13075469Y-16490381D01*
X13065945Y-16509428D01*
X13056421Y-16518952D01*
X13037374Y-16528476D01*
X13018326Y-16528476D01*
X12999278Y-16518952D01*
X12989755Y-16509428D01*
X12980231Y-16490381D01*
X12970707Y-16452286D01*
X12970707Y-16404667D01*
X12980231Y-16366571D01*
X12989755Y-16347524D01*
X12999278Y-16338000D01*
X13018326Y-16328476D01*
X13170707Y-16509428D02*
X13180231Y-16518952D01*
X13170707Y-16528476D01*
X13161183Y-16518952D01*
X13170707Y-16509428D01*
X13170707Y-16528476D01*
X13304040Y-16328476D02*
X13323088Y-16328476D01*
X13342136Y-16338000D01*
X13351659Y-16347524D01*
X13361183Y-16366571D01*
X13370707Y-16404667D01*
X13370707Y-16452286D01*
X13361183Y-16490381D01*
X13351659Y-16509428D01*
X13342136Y-16518952D01*
X13323088Y-16528476D01*
X13304040Y-16528476D01*
X13284993Y-16518952D01*
X13275469Y-16509428D01*
X13265945Y-16490381D01*
X13256421Y-16452286D01*
X13256421Y-16404667D01*
X13265945Y-16366571D01*
X13275469Y-16347524D01*
X13284993Y-16338000D01*
X13304040Y-16328476D01*
X13465945Y-16528476D02*
X13504040Y-16528476D01*
X13523088Y-16518952D01*
X13532612Y-16509428D01*
X13551659Y-16480857D01*
X13561183Y-16442762D01*
X13561183Y-16366571D01*
X13551659Y-16347524D01*
X13542136Y-16338000D01*
X13523088Y-16328476D01*
X13484993Y-16328476D01*
X13465945Y-16338000D01*
X13456421Y-16347524D01*
X13446898Y-16366571D01*
X13446898Y-16414190D01*
X13456421Y-16433238D01*
X13465945Y-16442762D01*
X13484993Y-16452286D01*
X13523088Y-16452286D01*
X13542136Y-16442762D01*
X13551659Y-16433238D01*
X13561183Y-16414190D01*
X13675469Y-16414190D02*
X13656421Y-16404667D01*
X13646898Y-16395143D01*
X13637374Y-16376095D01*
X13637374Y-16366571D01*
X13646898Y-16347524D01*
X13656421Y-16338000D01*
X13675469Y-16328476D01*
X13713564Y-16328476D01*
X13732612Y-16338000D01*
X13742136Y-16347524D01*
X13751659Y-16366571D01*
X13751659Y-16376095D01*
X13742136Y-16395143D01*
X13732612Y-16404667D01*
X13713564Y-16414190D01*
X13675469Y-16414190D01*
X13656421Y-16423714D01*
X13646898Y-16433238D01*
X13637374Y-16452286D01*
X13637374Y-16490381D01*
X13646898Y-16509428D01*
X13656421Y-16518952D01*
X13675469Y-16528476D01*
X13713564Y-16528476D01*
X13732612Y-16518952D01*
X13742136Y-16509428D01*
X13751659Y-16490381D01*
X13751659Y-16452286D01*
X13742136Y-16433238D01*
X13732612Y-16423714D01*
X13713564Y-16414190D01*
X13923088Y-16395143D02*
X13923088Y-16528476D01*
X13875469Y-16318952D02*
X13827850Y-16461809D01*
X13951659Y-16461809D01*
X14018326Y-16328476D02*
X14018326Y-16366571D01*
X14094517Y-16328476D02*
X14094517Y-16366571D01*
X14389755Y-16604667D02*
X14380231Y-16595143D01*
X14361183Y-16566571D01*
X14351659Y-16547524D01*
X14342136Y-16518952D01*
X14332612Y-16471333D01*
X14332612Y-16433238D01*
X14342136Y-16385619D01*
X14351659Y-16357048D01*
X14361183Y-16338000D01*
X14380231Y-16309428D01*
X14389755Y-16299905D01*
X14551659Y-16395143D02*
X14551659Y-16528476D01*
X14504040Y-16318952D02*
X14456421Y-16461809D01*
X14580231Y-16461809D01*
X14808802Y-16528476D02*
X14808802Y-16328476D01*
X14894517Y-16528476D02*
X14894517Y-16423714D01*
X14884993Y-16404667D01*
X14865945Y-16395143D01*
X14837374Y-16395143D01*
X14818326Y-16404667D01*
X14808802Y-16414190D01*
X15018326Y-16528476D02*
X14999278Y-16518952D01*
X14989755Y-16509428D01*
X14980231Y-16490381D01*
X14980231Y-16433238D01*
X14989755Y-16414190D01*
X14999278Y-16404667D01*
X15018326Y-16395143D01*
X15046898Y-16395143D01*
X15065945Y-16404667D01*
X15075469Y-16414190D01*
X15084993Y-16433238D01*
X15084993Y-16490381D01*
X15075469Y-16509428D01*
X15065945Y-16518952D01*
X15046898Y-16528476D01*
X15018326Y-16528476D01*
X15199278Y-16528476D02*
X15180231Y-16518952D01*
X15170707Y-16499905D01*
X15170707Y-16328476D01*
X15351659Y-16518952D02*
X15332612Y-16528476D01*
X15294517Y-16528476D01*
X15275469Y-16518952D01*
X15265945Y-16499905D01*
X15265945Y-16423714D01*
X15275469Y-16404667D01*
X15294517Y-16395143D01*
X15332612Y-16395143D01*
X15351659Y-16404667D01*
X15361183Y-16423714D01*
X15361183Y-16442762D01*
X15265945Y-16461809D01*
X15437374Y-16518952D02*
X15456421Y-16528476D01*
X15494517Y-16528476D01*
X15513564Y-16518952D01*
X15523088Y-16499905D01*
X15523088Y-16490381D01*
X15513564Y-16471333D01*
X15494517Y-16461809D01*
X15465945Y-16461809D01*
X15446898Y-16452286D01*
X15437374Y-16433238D01*
X15437374Y-16423714D01*
X15446898Y-16404667D01*
X15465945Y-16395143D01*
X15494517Y-16395143D01*
X15513564Y-16404667D01*
X15761183Y-16452286D02*
X15913564Y-16452286D01*
X15837374Y-16528476D02*
X15837374Y-16376095D01*
X16265945Y-16528476D02*
X16151659Y-16528476D01*
X16208802Y-16528476D02*
X16208802Y-16328476D01*
X16189755Y-16357048D01*
X16170707Y-16376095D01*
X16151659Y-16385619D01*
X16494517Y-16518952D02*
X16513564Y-16528476D01*
X16551659Y-16528476D01*
X16570707Y-16518952D01*
X16580231Y-16499905D01*
X16580231Y-16490381D01*
X16570707Y-16471333D01*
X16551659Y-16461809D01*
X16523088Y-16461809D01*
X16504040Y-16452286D01*
X16494517Y-16433238D01*
X16494517Y-16423714D01*
X16504040Y-16404667D01*
X16523088Y-16395143D01*
X16551659Y-16395143D01*
X16570707Y-16404667D01*
X16694517Y-16528476D02*
X16675469Y-16518952D01*
X16665945Y-16499905D01*
X16665945Y-16328476D01*
X16799279Y-16528476D02*
X16780231Y-16518952D01*
X16770707Y-16509428D01*
X16761183Y-16490381D01*
X16761183Y-16433238D01*
X16770707Y-16414190D01*
X16780231Y-16404667D01*
X16799279Y-16395143D01*
X16827850Y-16395143D01*
X16846898Y-16404667D01*
X16856421Y-16414190D01*
X16865945Y-16433238D01*
X16865945Y-16490381D01*
X16856421Y-16509428D01*
X16846898Y-16518952D01*
X16827850Y-16528476D01*
X16799279Y-16528476D01*
X16923088Y-16395143D02*
X16999279Y-16395143D01*
X16951660Y-16328476D02*
X16951660Y-16499905D01*
X16961183Y-16518952D01*
X16980231Y-16528476D01*
X16999279Y-16528476D01*
X17046898Y-16604667D02*
X17056421Y-16595143D01*
X17075469Y-16566571D01*
X17084993Y-16547524D01*
X17094517Y-16518952D01*
X17104040Y-16471333D01*
X17104040Y-16433238D01*
X17094517Y-16385619D01*
X17084993Y-16357048D01*
X17075469Y-16338000D01*
X17056421Y-16309428D01*
X17046898Y-16299905D01*
X17408802Y-16604667D02*
X17399279Y-16595143D01*
X17380231Y-16566571D01*
X17370707Y-16547524D01*
X17361183Y-16518952D01*
X17351660Y-16471333D01*
X17351660Y-16433238D01*
X17361183Y-16385619D01*
X17370707Y-16357048D01*
X17380231Y-16338000D01*
X17399279Y-16309428D01*
X17408802Y-16299905D01*
X17484993Y-16395143D02*
X17484993Y-16528476D01*
X17484993Y-16414190D02*
X17494517Y-16404667D01*
X17513564Y-16395143D01*
X17542136Y-16395143D01*
X17561183Y-16404667D01*
X17570707Y-16423714D01*
X17570707Y-16528476D01*
X17694517Y-16528476D02*
X17675469Y-16518952D01*
X17665945Y-16509428D01*
X17656421Y-16490381D01*
X17656421Y-16433238D01*
X17665945Y-16414190D01*
X17675469Y-16404667D01*
X17694517Y-16395143D01*
X17723088Y-16395143D01*
X17742136Y-16404667D01*
X17751660Y-16414190D01*
X17761183Y-16433238D01*
X17761183Y-16490381D01*
X17751660Y-16509428D01*
X17742136Y-16518952D01*
X17723088Y-16528476D01*
X17694517Y-16528476D01*
X17818326Y-16395143D02*
X17894517Y-16395143D01*
X17846898Y-16328476D02*
X17846898Y-16499905D01*
X17856421Y-16518952D01*
X17875469Y-16528476D01*
X17894517Y-16528476D01*
X18113564Y-16395143D02*
X18113564Y-16595143D01*
X18113564Y-16404667D02*
X18132612Y-16395143D01*
X18170707Y-16395143D01*
X18189755Y-16404667D01*
X18199279Y-16414190D01*
X18208802Y-16433238D01*
X18208802Y-16490381D01*
X18199279Y-16509428D01*
X18189755Y-16518952D01*
X18170707Y-16528476D01*
X18132612Y-16528476D01*
X18113564Y-16518952D01*
X18323088Y-16528476D02*
X18304040Y-16518952D01*
X18294517Y-16499905D01*
X18294517Y-16328476D01*
X18484993Y-16528476D02*
X18484993Y-16423714D01*
X18475469Y-16404667D01*
X18456421Y-16395143D01*
X18418326Y-16395143D01*
X18399279Y-16404667D01*
X18484993Y-16518952D02*
X18465945Y-16528476D01*
X18418326Y-16528476D01*
X18399279Y-16518952D01*
X18389755Y-16499905D01*
X18389755Y-16480857D01*
X18399279Y-16461809D01*
X18418326Y-16452286D01*
X18465945Y-16452286D01*
X18484993Y-16442762D01*
X18551660Y-16395143D02*
X18627850Y-16395143D01*
X18580231Y-16328476D02*
X18580231Y-16499905D01*
X18589755Y-16518952D01*
X18608802Y-16528476D01*
X18627850Y-16528476D01*
X18770707Y-16518952D02*
X18751660Y-16528476D01*
X18713564Y-16528476D01*
X18694517Y-16518952D01*
X18684993Y-16499905D01*
X18684993Y-16423714D01*
X18694517Y-16404667D01*
X18713564Y-16395143D01*
X18751660Y-16395143D01*
X18770707Y-16404667D01*
X18780231Y-16423714D01*
X18780231Y-16442762D01*
X18684993Y-16461809D01*
X18951660Y-16528476D02*
X18951660Y-16328476D01*
X18951660Y-16518952D02*
X18932612Y-16528476D01*
X18894517Y-16528476D01*
X18875469Y-16518952D01*
X18865945Y-16509428D01*
X18856421Y-16490381D01*
X18856421Y-16433238D01*
X18865945Y-16414190D01*
X18875469Y-16404667D01*
X18894517Y-16395143D01*
X18932612Y-16395143D01*
X18951660Y-16404667D01*
X19027850Y-16604667D02*
X19037374Y-16595143D01*
X19056421Y-16566571D01*
X19065945Y-16547524D01*
X19075469Y-16518952D01*
X19084993Y-16471333D01*
X19084993Y-16433238D01*
X19075469Y-16385619D01*
X19065945Y-16357048D01*
X19056421Y-16338000D01*
X19037374Y-16309428D01*
X19027850Y-16299905D01*
X10817850Y-16758000D02*
G75*
G03*
X10817850Y-16758000I-100000J0D01*
G01*
X11056421Y-16648476D02*
X11180231Y-16648476D01*
X11113564Y-16724667D01*
X11142136Y-16724667D01*
X11161183Y-16734190D01*
X11170707Y-16743714D01*
X11180231Y-16762762D01*
X11180231Y-16810381D01*
X11170707Y-16829429D01*
X11161183Y-16838952D01*
X11142136Y-16848476D01*
X11084993Y-16848476D01*
X11065945Y-16838952D01*
X11056421Y-16829429D01*
X11265945Y-16829429D02*
X11275469Y-16838952D01*
X11265945Y-16848476D01*
X11256421Y-16838952D01*
X11265945Y-16829429D01*
X11265945Y-16848476D01*
X11351659Y-16667524D02*
X11361183Y-16658000D01*
X11380231Y-16648476D01*
X11427850Y-16648476D01*
X11446898Y-16658000D01*
X11456421Y-16667524D01*
X11465945Y-16686571D01*
X11465945Y-16705619D01*
X11456421Y-16734190D01*
X11342136Y-16848476D01*
X11465945Y-16848476D01*
X11589755Y-16648476D02*
X11608802Y-16648476D01*
X11627850Y-16658000D01*
X11637374Y-16667524D01*
X11646898Y-16686571D01*
X11656421Y-16724667D01*
X11656421Y-16772286D01*
X11646898Y-16810381D01*
X11637374Y-16829429D01*
X11627850Y-16838952D01*
X11608802Y-16848476D01*
X11589755Y-16848476D01*
X11570707Y-16838952D01*
X11561183Y-16829429D01*
X11551659Y-16810381D01*
X11542136Y-16772286D01*
X11542136Y-16724667D01*
X11551659Y-16686571D01*
X11561183Y-16667524D01*
X11570707Y-16658000D01*
X11589755Y-16648476D01*
X11780231Y-16648476D02*
X11799278Y-16648476D01*
X11818326Y-16658000D01*
X11827850Y-16667524D01*
X11837374Y-16686571D01*
X11846898Y-16724667D01*
X11846898Y-16772286D01*
X11837374Y-16810381D01*
X11827850Y-16829429D01*
X11818326Y-16838952D01*
X11799278Y-16848476D01*
X11780231Y-16848476D01*
X11761183Y-16838952D01*
X11751659Y-16829429D01*
X11742136Y-16810381D01*
X11732612Y-16772286D01*
X11732612Y-16724667D01*
X11742136Y-16686571D01*
X11751659Y-16667524D01*
X11761183Y-16658000D01*
X11780231Y-16648476D01*
X11932612Y-16848476D02*
X11932612Y-16715143D01*
X11932612Y-16734190D02*
X11942136Y-16724667D01*
X11961183Y-16715143D01*
X11989755Y-16715143D01*
X12008802Y-16724667D01*
X12018326Y-16743714D01*
X12018326Y-16848476D01*
X12018326Y-16743714D02*
X12027850Y-16724667D01*
X12046898Y-16715143D01*
X12075469Y-16715143D01*
X12094517Y-16724667D01*
X12104040Y-16743714D01*
X12104040Y-16848476D01*
X12199278Y-16848476D02*
X12199278Y-16715143D01*
X12199278Y-16734190D02*
X12208802Y-16724667D01*
X12227850Y-16715143D01*
X12256421Y-16715143D01*
X12275469Y-16724667D01*
X12284993Y-16743714D01*
X12284993Y-16848476D01*
X12284993Y-16743714D02*
X12294517Y-16724667D01*
X12313564Y-16715143D01*
X12342136Y-16715143D01*
X12361183Y-16724667D01*
X12370707Y-16743714D01*
X12370707Y-16848476D01*
X12761183Y-16638952D02*
X12589755Y-16896095D01*
X13018326Y-16648476D02*
X13037374Y-16648476D01*
X13056421Y-16658000D01*
X13065945Y-16667524D01*
X13075469Y-16686571D01*
X13084993Y-16724667D01*
X13084993Y-16772286D01*
X13075469Y-16810381D01*
X13065945Y-16829429D01*
X13056421Y-16838952D01*
X13037374Y-16848476D01*
X13018326Y-16848476D01*
X12999278Y-16838952D01*
X12989755Y-16829429D01*
X12980231Y-16810381D01*
X12970707Y-16772286D01*
X12970707Y-16724667D01*
X12980231Y-16686571D01*
X12989755Y-16667524D01*
X12999278Y-16658000D01*
X13018326Y-16648476D01*
X13170707Y-16829429D02*
X13180231Y-16838952D01*
X13170707Y-16848476D01*
X13161183Y-16838952D01*
X13170707Y-16829429D01*
X13170707Y-16848476D01*
X13370707Y-16848476D02*
X13256421Y-16848476D01*
X13313564Y-16848476D02*
X13313564Y-16648476D01*
X13294517Y-16677048D01*
X13275469Y-16696095D01*
X13256421Y-16705619D01*
X13446898Y-16667524D02*
X13456421Y-16658000D01*
X13475469Y-16648476D01*
X13523088Y-16648476D01*
X13542136Y-16658000D01*
X13551659Y-16667524D01*
X13561183Y-16686571D01*
X13561183Y-16705619D01*
X13551659Y-16734190D01*
X13437374Y-16848476D01*
X13561183Y-16848476D01*
X13732612Y-16648476D02*
X13694517Y-16648476D01*
X13675469Y-16658000D01*
X13665945Y-16667524D01*
X13646898Y-16696095D01*
X13637374Y-16734190D01*
X13637374Y-16810381D01*
X13646898Y-16829429D01*
X13656421Y-16838952D01*
X13675469Y-16848476D01*
X13713564Y-16848476D01*
X13732612Y-16838952D01*
X13742136Y-16829429D01*
X13751659Y-16810381D01*
X13751659Y-16762762D01*
X13742136Y-16743714D01*
X13732612Y-16734190D01*
X13713564Y-16724667D01*
X13675469Y-16724667D01*
X13656421Y-16734190D01*
X13646898Y-16743714D01*
X13637374Y-16762762D01*
X13875469Y-16648476D02*
X13894517Y-16648476D01*
X13913564Y-16658000D01*
X13923088Y-16667524D01*
X13932612Y-16686571D01*
X13942136Y-16724667D01*
X13942136Y-16772286D01*
X13932612Y-16810381D01*
X13923088Y-16829429D01*
X13913564Y-16838952D01*
X13894517Y-16848476D01*
X13875469Y-16848476D01*
X13856421Y-16838952D01*
X13846898Y-16829429D01*
X13837374Y-16810381D01*
X13827850Y-16772286D01*
X13827850Y-16724667D01*
X13837374Y-16686571D01*
X13846898Y-16667524D01*
X13856421Y-16658000D01*
X13875469Y-16648476D01*
X14018326Y-16648476D02*
X14018326Y-16686571D01*
X14094517Y-16648476D02*
X14094517Y-16686571D01*
X14389755Y-16924667D02*
X14380231Y-16915143D01*
X14361183Y-16886571D01*
X14351659Y-16867524D01*
X14342136Y-16838952D01*
X14332612Y-16791333D01*
X14332612Y-16753238D01*
X14342136Y-16705619D01*
X14351659Y-16677048D01*
X14361183Y-16658000D01*
X14380231Y-16629428D01*
X14389755Y-16619905D01*
X14570707Y-16848476D02*
X14456421Y-16848476D01*
X14513564Y-16848476D02*
X14513564Y-16648476D01*
X14494517Y-16677048D01*
X14475469Y-16696095D01*
X14456421Y-16705619D01*
X14808802Y-16848476D02*
X14808802Y-16648476D01*
X14894517Y-16848476D02*
X14894517Y-16743714D01*
X14884993Y-16724667D01*
X14865945Y-16715143D01*
X14837374Y-16715143D01*
X14818326Y-16724667D01*
X14808802Y-16734190D01*
X15018326Y-16848476D02*
X14999278Y-16838952D01*
X14989755Y-16829429D01*
X14980231Y-16810381D01*
X14980231Y-16753238D01*
X14989755Y-16734190D01*
X14999278Y-16724667D01*
X15018326Y-16715143D01*
X15046898Y-16715143D01*
X15065945Y-16724667D01*
X15075469Y-16734190D01*
X15084993Y-16753238D01*
X15084993Y-16810381D01*
X15075469Y-16829429D01*
X15065945Y-16838952D01*
X15046898Y-16848476D01*
X15018326Y-16848476D01*
X15199278Y-16848476D02*
X15180231Y-16838952D01*
X15170707Y-16819905D01*
X15170707Y-16648476D01*
X15351659Y-16838952D02*
X15332612Y-16848476D01*
X15294517Y-16848476D01*
X15275469Y-16838952D01*
X15265945Y-16819905D01*
X15265945Y-16743714D01*
X15275469Y-16724667D01*
X15294517Y-16715143D01*
X15332612Y-16715143D01*
X15351659Y-16724667D01*
X15361183Y-16743714D01*
X15361183Y-16762762D01*
X15265945Y-16781810D01*
X15427850Y-16924667D02*
X15437374Y-16915143D01*
X15456421Y-16886571D01*
X15465945Y-16867524D01*
X15475469Y-16838952D01*
X15484993Y-16791333D01*
X15484993Y-16753238D01*
X15475469Y-16705619D01*
X15465945Y-16677048D01*
X15456421Y-16658000D01*
X15437374Y-16629428D01*
X15427850Y-16619905D01*
X15789755Y-16924667D02*
X15780231Y-16915143D01*
X15761183Y-16886571D01*
X15751659Y-16867524D01*
X15742136Y-16838952D01*
X15732612Y-16791333D01*
X15732612Y-16753238D01*
X15742136Y-16705619D01*
X15751659Y-16677048D01*
X15761183Y-16658000D01*
X15780231Y-16629428D01*
X15789755Y-16619905D01*
X15865945Y-16715143D02*
X15865945Y-16848476D01*
X15865945Y-16734190D02*
X15875469Y-16724667D01*
X15894517Y-16715143D01*
X15923088Y-16715143D01*
X15942136Y-16724667D01*
X15951659Y-16743714D01*
X15951659Y-16848476D01*
X16075469Y-16848476D02*
X16056421Y-16838952D01*
X16046898Y-16829429D01*
X16037374Y-16810381D01*
X16037374Y-16753238D01*
X16046898Y-16734190D01*
X16056421Y-16724667D01*
X16075469Y-16715143D01*
X16104040Y-16715143D01*
X16123088Y-16724667D01*
X16132612Y-16734190D01*
X16142136Y-16753238D01*
X16142136Y-16810381D01*
X16132612Y-16829429D01*
X16123088Y-16838952D01*
X16104040Y-16848476D01*
X16075469Y-16848476D01*
X16199278Y-16715143D02*
X16275469Y-16715143D01*
X16227850Y-16648476D02*
X16227850Y-16819905D01*
X16237374Y-16838952D01*
X16256421Y-16848476D01*
X16275469Y-16848476D01*
X16494517Y-16715143D02*
X16494517Y-16915143D01*
X16494517Y-16724667D02*
X16513564Y-16715143D01*
X16551659Y-16715143D01*
X16570707Y-16724667D01*
X16580231Y-16734190D01*
X16589755Y-16753238D01*
X16589755Y-16810381D01*
X16580231Y-16829429D01*
X16570707Y-16838952D01*
X16551659Y-16848476D01*
X16513564Y-16848476D01*
X16494517Y-16838952D01*
X16704040Y-16848476D02*
X16684993Y-16838952D01*
X16675469Y-16819905D01*
X16675469Y-16648476D01*
X16865945Y-16848476D02*
X16865945Y-16743714D01*
X16856421Y-16724667D01*
X16837374Y-16715143D01*
X16799279Y-16715143D01*
X16780231Y-16724667D01*
X16865945Y-16838952D02*
X16846898Y-16848476D01*
X16799279Y-16848476D01*
X16780231Y-16838952D01*
X16770707Y-16819905D01*
X16770707Y-16800857D01*
X16780231Y-16781810D01*
X16799279Y-16772286D01*
X16846898Y-16772286D01*
X16865945Y-16762762D01*
X16932612Y-16715143D02*
X17008802Y-16715143D01*
X16961183Y-16648476D02*
X16961183Y-16819905D01*
X16970707Y-16838952D01*
X16989755Y-16848476D01*
X17008802Y-16848476D01*
X17151660Y-16838952D02*
X17132612Y-16848476D01*
X17094517Y-16848476D01*
X17075469Y-16838952D01*
X17065945Y-16819905D01*
X17065945Y-16743714D01*
X17075469Y-16724667D01*
X17094517Y-16715143D01*
X17132612Y-16715143D01*
X17151660Y-16724667D01*
X17161183Y-16743714D01*
X17161183Y-16762762D01*
X17065945Y-16781810D01*
X17332612Y-16848476D02*
X17332612Y-16648476D01*
X17332612Y-16838952D02*
X17313564Y-16848476D01*
X17275469Y-16848476D01*
X17256421Y-16838952D01*
X17246898Y-16829429D01*
X17237374Y-16810381D01*
X17237374Y-16753238D01*
X17246898Y-16734190D01*
X17256421Y-16724667D01*
X17275469Y-16715143D01*
X17313564Y-16715143D01*
X17332612Y-16724667D01*
X17408802Y-16924667D02*
X17418326Y-16915143D01*
X17437374Y-16886571D01*
X17446898Y-16867524D01*
X17456421Y-16838952D01*
X17465945Y-16791333D01*
X17465945Y-16753238D01*
X17456421Y-16705619D01*
X17446898Y-16677048D01*
X17437374Y-16658000D01*
X17418326Y-16629428D01*
X17408802Y-16619905D01*
X10717850Y-16978000D02*
X10717850Y-17178000D01*
X10617850Y-17078000D02*
X10817850Y-17078000D01*
X11056421Y-16968476D02*
X11180231Y-16968476D01*
X11113564Y-17044667D01*
X11142136Y-17044667D01*
X11161183Y-17054190D01*
X11170707Y-17063714D01*
X11180231Y-17082762D01*
X11180231Y-17130381D01*
X11170707Y-17149429D01*
X11161183Y-17158952D01*
X11142136Y-17168476D01*
X11084993Y-17168476D01*
X11065945Y-17158952D01*
X11056421Y-17149429D01*
X11265945Y-17149429D02*
X11275469Y-17158952D01*
X11265945Y-17168476D01*
X11256421Y-17158952D01*
X11265945Y-17149429D01*
X11265945Y-17168476D01*
X11351659Y-16987524D02*
X11361183Y-16978000D01*
X11380231Y-16968476D01*
X11427850Y-16968476D01*
X11446898Y-16978000D01*
X11456421Y-16987524D01*
X11465945Y-17006571D01*
X11465945Y-17025619D01*
X11456421Y-17054190D01*
X11342136Y-17168476D01*
X11465945Y-17168476D01*
X11589755Y-16968476D02*
X11608802Y-16968476D01*
X11627850Y-16978000D01*
X11637374Y-16987524D01*
X11646898Y-17006571D01*
X11656421Y-17044667D01*
X11656421Y-17092286D01*
X11646898Y-17130381D01*
X11637374Y-17149429D01*
X11627850Y-17158952D01*
X11608802Y-17168476D01*
X11589755Y-17168476D01*
X11570707Y-17158952D01*
X11561183Y-17149429D01*
X11551659Y-17130381D01*
X11542136Y-17092286D01*
X11542136Y-17044667D01*
X11551659Y-17006571D01*
X11561183Y-16987524D01*
X11570707Y-16978000D01*
X11589755Y-16968476D01*
X11780231Y-16968476D02*
X11799278Y-16968476D01*
X11818326Y-16978000D01*
X11827850Y-16987524D01*
X11837374Y-17006571D01*
X11846898Y-17044667D01*
X11846898Y-17092286D01*
X11837374Y-17130381D01*
X11827850Y-17149429D01*
X11818326Y-17158952D01*
X11799278Y-17168476D01*
X11780231Y-17168476D01*
X11761183Y-17158952D01*
X11751659Y-17149429D01*
X11742136Y-17130381D01*
X11732612Y-17092286D01*
X11732612Y-17044667D01*
X11742136Y-17006571D01*
X11751659Y-16987524D01*
X11761183Y-16978000D01*
X11780231Y-16968476D01*
X11932612Y-17168476D02*
X11932612Y-17035143D01*
X11932612Y-17054190D02*
X11942136Y-17044667D01*
X11961183Y-17035143D01*
X11989755Y-17035143D01*
X12008802Y-17044667D01*
X12018326Y-17063714D01*
X12018326Y-17168476D01*
X12018326Y-17063714D02*
X12027850Y-17044667D01*
X12046898Y-17035143D01*
X12075469Y-17035143D01*
X12094517Y-17044667D01*
X12104040Y-17063714D01*
X12104040Y-17168476D01*
X12199278Y-17168476D02*
X12199278Y-17035143D01*
X12199278Y-17054190D02*
X12208802Y-17044667D01*
X12227850Y-17035143D01*
X12256421Y-17035143D01*
X12275469Y-17044667D01*
X12284993Y-17063714D01*
X12284993Y-17168476D01*
X12284993Y-17063714D02*
X12294517Y-17044667D01*
X12313564Y-17035143D01*
X12342136Y-17035143D01*
X12361183Y-17044667D01*
X12370707Y-17063714D01*
X12370707Y-17168476D01*
X12761183Y-16958952D02*
X12589755Y-17216095D01*
X13018326Y-16968476D02*
X13037374Y-16968476D01*
X13056421Y-16978000D01*
X13065945Y-16987524D01*
X13075469Y-17006571D01*
X13084993Y-17044667D01*
X13084993Y-17092286D01*
X13075469Y-17130381D01*
X13065945Y-17149429D01*
X13056421Y-17158952D01*
X13037374Y-17168476D01*
X13018326Y-17168476D01*
X12999278Y-17158952D01*
X12989755Y-17149429D01*
X12980231Y-17130381D01*
X12970707Y-17092286D01*
X12970707Y-17044667D01*
X12980231Y-17006571D01*
X12989755Y-16987524D01*
X12999278Y-16978000D01*
X13018326Y-16968476D01*
X13170707Y-17149429D02*
X13180231Y-17158952D01*
X13170707Y-17168476D01*
X13161183Y-17158952D01*
X13170707Y-17149429D01*
X13170707Y-17168476D01*
X13370707Y-17168476D02*
X13256421Y-17168476D01*
X13313564Y-17168476D02*
X13313564Y-16968476D01*
X13294517Y-16997048D01*
X13275469Y-17016095D01*
X13256421Y-17025619D01*
X13446898Y-16987524D02*
X13456421Y-16978000D01*
X13475469Y-16968476D01*
X13523088Y-16968476D01*
X13542136Y-16978000D01*
X13551659Y-16987524D01*
X13561183Y-17006571D01*
X13561183Y-17025619D01*
X13551659Y-17054190D01*
X13437374Y-17168476D01*
X13561183Y-17168476D01*
X13732612Y-16968476D02*
X13694517Y-16968476D01*
X13675469Y-16978000D01*
X13665945Y-16987524D01*
X13646898Y-17016095D01*
X13637374Y-17054190D01*
X13637374Y-17130381D01*
X13646898Y-17149429D01*
X13656421Y-17158952D01*
X13675469Y-17168476D01*
X13713564Y-17168476D01*
X13732612Y-17158952D01*
X13742136Y-17149429D01*
X13751659Y-17130381D01*
X13751659Y-17082762D01*
X13742136Y-17063714D01*
X13732612Y-17054190D01*
X13713564Y-17044667D01*
X13675469Y-17044667D01*
X13656421Y-17054190D01*
X13646898Y-17063714D01*
X13637374Y-17082762D01*
X13875469Y-16968476D02*
X13894517Y-16968476D01*
X13913564Y-16978000D01*
X13923088Y-16987524D01*
X13932612Y-17006571D01*
X13942136Y-17044667D01*
X13942136Y-17092286D01*
X13932612Y-17130381D01*
X13923088Y-17149429D01*
X13913564Y-17158952D01*
X13894517Y-17168476D01*
X13875469Y-17168476D01*
X13856421Y-17158952D01*
X13846898Y-17149429D01*
X13837374Y-17130381D01*
X13827850Y-17092286D01*
X13827850Y-17044667D01*
X13837374Y-17006571D01*
X13846898Y-16987524D01*
X13856421Y-16978000D01*
X13875469Y-16968476D01*
X14018326Y-16968476D02*
X14018326Y-17006571D01*
X14094517Y-16968476D02*
X14094517Y-17006571D01*
X14389755Y-17244667D02*
X14380231Y-17235143D01*
X14361183Y-17206571D01*
X14351659Y-17187524D01*
X14342136Y-17158952D01*
X14332612Y-17111333D01*
X14332612Y-17073238D01*
X14342136Y-17025619D01*
X14351659Y-16997048D01*
X14361183Y-16978000D01*
X14380231Y-16949429D01*
X14389755Y-16939905D01*
X14570707Y-17168476D02*
X14456421Y-17168476D01*
X14513564Y-17168476D02*
X14513564Y-16968476D01*
X14494517Y-16997048D01*
X14475469Y-17016095D01*
X14456421Y-17025619D01*
X14808802Y-17168476D02*
X14808802Y-16968476D01*
X14894517Y-17168476D02*
X14894517Y-17063714D01*
X14884993Y-17044667D01*
X14865945Y-17035143D01*
X14837374Y-17035143D01*
X14818326Y-17044667D01*
X14808802Y-17054190D01*
X15018326Y-17168476D02*
X14999278Y-17158952D01*
X14989755Y-17149429D01*
X14980231Y-17130381D01*
X14980231Y-17073238D01*
X14989755Y-17054190D01*
X14999278Y-17044667D01*
X15018326Y-17035143D01*
X15046898Y-17035143D01*
X15065945Y-17044667D01*
X15075469Y-17054190D01*
X15084993Y-17073238D01*
X15084993Y-17130381D01*
X15075469Y-17149429D01*
X15065945Y-17158952D01*
X15046898Y-17168476D01*
X15018326Y-17168476D01*
X15199278Y-17168476D02*
X15180231Y-17158952D01*
X15170707Y-17139905D01*
X15170707Y-16968476D01*
X15351659Y-17158952D02*
X15332612Y-17168476D01*
X15294517Y-17168476D01*
X15275469Y-17158952D01*
X15265945Y-17139905D01*
X15265945Y-17063714D01*
X15275469Y-17044667D01*
X15294517Y-17035143D01*
X15332612Y-17035143D01*
X15351659Y-17044667D01*
X15361183Y-17063714D01*
X15361183Y-17082762D01*
X15265945Y-17101810D01*
X15427850Y-17244667D02*
X15437374Y-17235143D01*
X15456421Y-17206571D01*
X15465945Y-17187524D01*
X15475469Y-17158952D01*
X15484993Y-17111333D01*
X15484993Y-17073238D01*
X15475469Y-17025619D01*
X15465945Y-16997048D01*
X15456421Y-16978000D01*
X15437374Y-16949429D01*
X15427850Y-16939905D01*
X15789755Y-17244667D02*
X15780231Y-17235143D01*
X15761183Y-17206571D01*
X15751659Y-17187524D01*
X15742136Y-17158952D01*
X15732612Y-17111333D01*
X15732612Y-17073238D01*
X15742136Y-17025619D01*
X15751659Y-16997048D01*
X15761183Y-16978000D01*
X15780231Y-16949429D01*
X15789755Y-16939905D01*
X15865945Y-17035143D02*
X15865945Y-17168476D01*
X15865945Y-17054190D02*
X15875469Y-17044667D01*
X15894517Y-17035143D01*
X15923088Y-17035143D01*
X15942136Y-17044667D01*
X15951659Y-17063714D01*
X15951659Y-17168476D01*
X16075469Y-17168476D02*
X16056421Y-17158952D01*
X16046898Y-17149429D01*
X16037374Y-17130381D01*
X16037374Y-17073238D01*
X16046898Y-17054190D01*
X16056421Y-17044667D01*
X16075469Y-17035143D01*
X16104040Y-17035143D01*
X16123088Y-17044667D01*
X16132612Y-17054190D01*
X16142136Y-17073238D01*
X16142136Y-17130381D01*
X16132612Y-17149429D01*
X16123088Y-17158952D01*
X16104040Y-17168476D01*
X16075469Y-17168476D01*
X16199278Y-17035143D02*
X16275469Y-17035143D01*
X16227850Y-16968476D02*
X16227850Y-17139905D01*
X16237374Y-17158952D01*
X16256421Y-17168476D01*
X16275469Y-17168476D01*
X16494517Y-17035143D02*
X16494517Y-17235143D01*
X16494517Y-17044667D02*
X16513564Y-17035143D01*
X16551659Y-17035143D01*
X16570707Y-17044667D01*
X16580231Y-17054190D01*
X16589755Y-17073238D01*
X16589755Y-17130381D01*
X16580231Y-17149429D01*
X16570707Y-17158952D01*
X16551659Y-17168476D01*
X16513564Y-17168476D01*
X16494517Y-17158952D01*
X16704040Y-17168476D02*
X16684993Y-17158952D01*
X16675469Y-17139905D01*
X16675469Y-16968476D01*
X16865945Y-17168476D02*
X16865945Y-17063714D01*
X16856421Y-17044667D01*
X16837374Y-17035143D01*
X16799279Y-17035143D01*
X16780231Y-17044667D01*
X16865945Y-17158952D02*
X16846898Y-17168476D01*
X16799279Y-17168476D01*
X16780231Y-17158952D01*
X16770707Y-17139905D01*
X16770707Y-17120857D01*
X16780231Y-17101810D01*
X16799279Y-17092286D01*
X16846898Y-17092286D01*
X16865945Y-17082762D01*
X16932612Y-17035143D02*
X17008802Y-17035143D01*
X16961183Y-16968476D02*
X16961183Y-17139905D01*
X16970707Y-17158952D01*
X16989755Y-17168476D01*
X17008802Y-17168476D01*
X17151660Y-17158952D02*
X17132612Y-17168476D01*
X17094517Y-17168476D01*
X17075469Y-17158952D01*
X17065945Y-17139905D01*
X17065945Y-17063714D01*
X17075469Y-17044667D01*
X17094517Y-17035143D01*
X17132612Y-17035143D01*
X17151660Y-17044667D01*
X17161183Y-17063714D01*
X17161183Y-17082762D01*
X17065945Y-17101810D01*
X17332612Y-17168476D02*
X17332612Y-16968476D01*
X17332612Y-17158952D02*
X17313564Y-17168476D01*
X17275469Y-17168476D01*
X17256421Y-17158952D01*
X17246898Y-17149429D01*
X17237374Y-17130381D01*
X17237374Y-17073238D01*
X17246898Y-17054190D01*
X17256421Y-17044667D01*
X17275469Y-17035143D01*
X17313564Y-17035143D01*
X17332612Y-17044667D01*
X17408802Y-17244667D02*
X17418326Y-17235143D01*
X17437374Y-17206571D01*
X17446898Y-17187524D01*
X17456421Y-17158952D01*
X17465945Y-17111333D01*
X17465945Y-17073238D01*
X17456421Y-17025619D01*
X17446898Y-16997048D01*
X17437374Y-16978000D01*
X17418326Y-16949429D01*
X17408802Y-16939905D01*
M02*
