G04 #@! TF.GenerationSoftware,KiCad,Pcbnew,(6.0.7)*
G04 #@! TF.CreationDate,2023-06-14T22:42:32-05:00*
G04 #@! TF.ProjectId,ControlBoardT4_DFminiSound_PowerAmp,436f6e74-726f-46c4-926f-61726454345f,rev?*
G04 #@! TF.SameCoordinates,Original*
G04 #@! TF.FileFunction,Legend,Bot*
G04 #@! TF.FilePolarity,Positive*
%FSLAX46Y46*%
G04 Gerber Fmt 4.6, Leading zero omitted, Abs format (unit mm)*
G04 Created by KiCad (PCBNEW (6.0.7)) date 2023-06-14 22:42:32*
%MOMM*%
%LPD*%
G01*
G04 APERTURE LIST*
%ADD10C,0.125000*%
%ADD11C,0.150000*%
%ADD12C,0.120000*%
%ADD13C,0.152400*%
G04 APERTURE END LIST*
D10*
X132751904Y-111757619D02*
X132370952Y-111490952D01*
X132751904Y-111300476D02*
X131951904Y-111300476D01*
X131951904Y-111605238D01*
X131990000Y-111681428D01*
X132028095Y-111719523D01*
X132104285Y-111757619D01*
X132218571Y-111757619D01*
X132294761Y-111719523D01*
X132332857Y-111681428D01*
X132370952Y-111605238D01*
X132370952Y-111300476D01*
X132685714Y-119627619D02*
X132723809Y-119589523D01*
X132761904Y-119475238D01*
X132761904Y-119399047D01*
X132723809Y-119284761D01*
X132647619Y-119208571D01*
X132571428Y-119170476D01*
X132419047Y-119132380D01*
X132304761Y-119132380D01*
X132152380Y-119170476D01*
X132076190Y-119208571D01*
X132000000Y-119284761D01*
X131961904Y-119399047D01*
X131961904Y-119475238D01*
X132000000Y-119589523D01*
X132038095Y-119627619D01*
X134975714Y-113557619D02*
X135013809Y-113519523D01*
X135051904Y-113405238D01*
X135051904Y-113329047D01*
X135013809Y-113214761D01*
X134937619Y-113138571D01*
X134861428Y-113100476D01*
X134709047Y-113062380D01*
X134594761Y-113062380D01*
X134442380Y-113100476D01*
X134366190Y-113138571D01*
X134290000Y-113214761D01*
X134251904Y-113329047D01*
X134251904Y-113405238D01*
X134290000Y-113519523D01*
X134328095Y-113557619D01*
X129831904Y-122272380D02*
X129450952Y-122539047D01*
X129831904Y-122729523D02*
X129031904Y-122729523D01*
X129031904Y-122424761D01*
X129070000Y-122348571D01*
X129108095Y-122310476D01*
X129184285Y-122272380D01*
X129298571Y-122272380D01*
X129374761Y-122310476D01*
X129412857Y-122348571D01*
X129450952Y-122424761D01*
X129450952Y-122729523D01*
X128002380Y-81335714D02*
X128040476Y-81373809D01*
X128154761Y-81411904D01*
X128230952Y-81411904D01*
X128345238Y-81373809D01*
X128421428Y-81297619D01*
X128459523Y-81221428D01*
X128497619Y-81069047D01*
X128497619Y-80954761D01*
X128459523Y-80802380D01*
X128421428Y-80726190D01*
X128345238Y-80650000D01*
X128230952Y-80611904D01*
X128154761Y-80611904D01*
X128040476Y-80650000D01*
X128002380Y-80688095D01*
X125925714Y-109247619D02*
X125963809Y-109209523D01*
X126001904Y-109095238D01*
X126001904Y-109019047D01*
X125963809Y-108904761D01*
X125887619Y-108828571D01*
X125811428Y-108790476D01*
X125659047Y-108752380D01*
X125544761Y-108752380D01*
X125392380Y-108790476D01*
X125316190Y-108828571D01*
X125240000Y-108904761D01*
X125201904Y-109019047D01*
X125201904Y-109095238D01*
X125240000Y-109209523D01*
X125278095Y-109247619D01*
X132515714Y-83782857D02*
X132782380Y-83782857D01*
X132782380Y-84201904D02*
X132782380Y-83401904D01*
X132401428Y-83401904D01*
X134622857Y-118244285D02*
X134622857Y-117977619D01*
X135041904Y-117977619D02*
X134241904Y-117977619D01*
X134241904Y-118358571D01*
X128185714Y-83772857D02*
X128452380Y-83772857D01*
X128452380Y-84191904D02*
X128452380Y-83391904D01*
X128071428Y-83391904D01*
X132705714Y-88357619D02*
X132743809Y-88319523D01*
X132781904Y-88205238D01*
X132781904Y-88129047D01*
X132743809Y-88014761D01*
X132667619Y-87938571D01*
X132591428Y-87900476D01*
X132439047Y-87862380D01*
X132324761Y-87862380D01*
X132172380Y-87900476D01*
X132096190Y-87938571D01*
X132020000Y-88014761D01*
X131981904Y-88129047D01*
X131981904Y-88205238D01*
X132020000Y-88319523D01*
X132058095Y-88357619D01*
X132362380Y-81345714D02*
X132400476Y-81383809D01*
X132514761Y-81421904D01*
X132590952Y-81421904D01*
X132705238Y-81383809D01*
X132781428Y-81307619D01*
X132819523Y-81231428D01*
X132857619Y-81079047D01*
X132857619Y-80964761D01*
X132819523Y-80812380D01*
X132781428Y-80736190D01*
X132705238Y-80660000D01*
X132590952Y-80621904D01*
X132514761Y-80621904D01*
X132400476Y-80660000D01*
X132362380Y-80698095D01*
X132761904Y-115547619D02*
X132380952Y-115280952D01*
X132761904Y-115090476D02*
X131961904Y-115090476D01*
X131961904Y-115395238D01*
X132000000Y-115471428D01*
X132038095Y-115509523D01*
X132114285Y-115547619D01*
X132228571Y-115547619D01*
X132304761Y-115509523D01*
X132342857Y-115471428D01*
X132380952Y-115395238D01*
X132380952Y-115090476D01*
X128885714Y-88357619D02*
X128923809Y-88319523D01*
X128961904Y-88205238D01*
X128961904Y-88129047D01*
X128923809Y-88014761D01*
X128847619Y-87938571D01*
X128771428Y-87900476D01*
X128619047Y-87862380D01*
X128504761Y-87862380D01*
X128352380Y-87900476D01*
X128276190Y-87938571D01*
X128200000Y-88014761D01*
X128161904Y-88129047D01*
X128161904Y-88205238D01*
X128200000Y-88319523D01*
X128238095Y-88357619D01*
X126727619Y-121314285D02*
X126689523Y-121276190D01*
X126575238Y-121238095D01*
X126499047Y-121238095D01*
X126384761Y-121276190D01*
X126308571Y-121352380D01*
X126270476Y-121428571D01*
X126232380Y-121580952D01*
X126232380Y-121695238D01*
X126270476Y-121847619D01*
X126308571Y-121923809D01*
X126384761Y-122000000D01*
X126499047Y-122038095D01*
X126575238Y-122038095D01*
X126689523Y-122000000D01*
X126727619Y-121961904D01*
D11*
X127782857Y-124762380D02*
X128116190Y-124286190D01*
X128354285Y-124762380D02*
X128354285Y-123762380D01*
X127973333Y-123762380D01*
X127878095Y-123810000D01*
X127830476Y-123857619D01*
X127782857Y-123952857D01*
X127782857Y-124095714D01*
X127830476Y-124190952D01*
X127878095Y-124238571D01*
X127973333Y-124286190D01*
X128354285Y-124286190D01*
X126830476Y-124762380D02*
X127401904Y-124762380D01*
X127116190Y-124762380D02*
X127116190Y-123762380D01*
X127211428Y-123905238D01*
X127306666Y-124000476D01*
X127401904Y-124048095D01*
X126211428Y-123762380D02*
X126116190Y-123762380D01*
X126020952Y-123810000D01*
X125973333Y-123857619D01*
X125925714Y-123952857D01*
X125878095Y-124143333D01*
X125878095Y-124381428D01*
X125925714Y-124571904D01*
X125973333Y-124667142D01*
X126020952Y-124714761D01*
X126116190Y-124762380D01*
X126211428Y-124762380D01*
X126306666Y-124714761D01*
X126354285Y-124667142D01*
X126401904Y-124571904D01*
X126449523Y-124381428D01*
X126449523Y-124143333D01*
X126401904Y-123952857D01*
X126354285Y-123857619D01*
X126306666Y-123810000D01*
X126211428Y-123762380D01*
X132500476Y-124762380D02*
X133071904Y-124762380D01*
X132786190Y-124762380D02*
X132786190Y-123762380D01*
X132881428Y-123905238D01*
X132976666Y-124000476D01*
X133071904Y-124048095D01*
X131881428Y-123762380D02*
X131786190Y-123762380D01*
X131690952Y-123810000D01*
X131643333Y-123857619D01*
X131595714Y-123952857D01*
X131548095Y-124143333D01*
X131548095Y-124381428D01*
X131595714Y-124571904D01*
X131643333Y-124667142D01*
X131690952Y-124714761D01*
X131786190Y-124762380D01*
X131881428Y-124762380D01*
X131976666Y-124714761D01*
X132024285Y-124667142D01*
X132071904Y-124571904D01*
X132119523Y-124381428D01*
X132119523Y-124143333D01*
X132071904Y-123952857D01*
X132024285Y-123857619D01*
X131976666Y-123810000D01*
X131881428Y-123762380D01*
X131119523Y-124762380D02*
X131119523Y-123762380D01*
X130548095Y-124762380D02*
X130976666Y-124190952D01*
X130548095Y-123762380D02*
X131119523Y-124333809D01*
X123697904Y-110704380D02*
X123697904Y-111513904D01*
X123650285Y-111609142D01*
X123602666Y-111656761D01*
X123507428Y-111704380D01*
X123316952Y-111704380D01*
X123221714Y-111656761D01*
X123174095Y-111609142D01*
X123126476Y-111513904D01*
X123126476Y-110704380D01*
X122221714Y-111037714D02*
X122221714Y-111704380D01*
X122459809Y-110656761D02*
X122697904Y-111371047D01*
X122078857Y-111371047D01*
X121610380Y-112935142D02*
X120610380Y-112935142D01*
X121324666Y-113268476D01*
X120610380Y-113601809D01*
X121610380Y-113601809D01*
X121324666Y-114030380D02*
X121324666Y-114506571D01*
X121610380Y-113935142D02*
X120610380Y-114268476D01*
X121610380Y-114601809D01*
X120610380Y-114839904D02*
X121610380Y-115506571D01*
X120610380Y-115506571D02*
X121610380Y-114839904D01*
X121610380Y-115935142D02*
X121610380Y-116125619D01*
X121562761Y-116220857D01*
X121515142Y-116268476D01*
X121372285Y-116363714D01*
X121181809Y-116411333D01*
X120800857Y-116411333D01*
X120705619Y-116363714D01*
X120658000Y-116316095D01*
X120610380Y-116220857D01*
X120610380Y-116030380D01*
X120658000Y-115935142D01*
X120705619Y-115887523D01*
X120800857Y-115839904D01*
X121038952Y-115839904D01*
X121134190Y-115887523D01*
X121181809Y-115935142D01*
X121229428Y-116030380D01*
X121229428Y-116220857D01*
X121181809Y-116316095D01*
X121134190Y-116363714D01*
X121038952Y-116411333D01*
X120610380Y-116744666D02*
X120610380Y-117411333D01*
X121610380Y-116982761D01*
X120943714Y-118220857D02*
X121610380Y-118220857D01*
X120562761Y-117982761D02*
X121277047Y-117744666D01*
X121277047Y-118363714D01*
X120943714Y-119173238D02*
X121610380Y-119173238D01*
X120562761Y-118935142D02*
X121277047Y-118697047D01*
X121277047Y-119316095D01*
X131176666Y-107432380D02*
X131510000Y-106956190D01*
X131748095Y-107432380D02*
X131748095Y-106432380D01*
X131367142Y-106432380D01*
X131271904Y-106480000D01*
X131224285Y-106527619D01*
X131176666Y-106622857D01*
X131176666Y-106765714D01*
X131224285Y-106860952D01*
X131271904Y-106908571D01*
X131367142Y-106956190D01*
X131748095Y-106956190D01*
X130843333Y-106432380D02*
X130176666Y-106432380D01*
X130605238Y-107432380D01*
X134821904Y-106577619D02*
X134774285Y-106530000D01*
X134679047Y-106482380D01*
X134440952Y-106482380D01*
X134345714Y-106530000D01*
X134298095Y-106577619D01*
X134250476Y-106672857D01*
X134250476Y-106768095D01*
X134298095Y-106910952D01*
X134869523Y-107482380D01*
X134250476Y-107482380D01*
X133631428Y-106482380D02*
X133536190Y-106482380D01*
X133440952Y-106530000D01*
X133393333Y-106577619D01*
X133345714Y-106672857D01*
X133298095Y-106863333D01*
X133298095Y-107101428D01*
X133345714Y-107291904D01*
X133393333Y-107387142D01*
X133440952Y-107434761D01*
X133536190Y-107482380D01*
X133631428Y-107482380D01*
X133726666Y-107434761D01*
X133774285Y-107387142D01*
X133821904Y-107291904D01*
X133869523Y-107101428D01*
X133869523Y-106863333D01*
X133821904Y-106672857D01*
X133774285Y-106577619D01*
X133726666Y-106530000D01*
X133631428Y-106482380D01*
X132869523Y-107482380D02*
X132869523Y-106482380D01*
X132298095Y-107482380D02*
X132726666Y-106910952D01*
X132298095Y-106482380D02*
X132869523Y-107053809D01*
X128810559Y-128401821D02*
X128762940Y-128306583D01*
X128667701Y-128211345D01*
X128524844Y-128068488D01*
X128477225Y-127973250D01*
X128477225Y-127878012D01*
X128715320Y-127925631D02*
X128667701Y-127830393D01*
X128572463Y-127735155D01*
X128381987Y-127687536D01*
X128048654Y-127687536D01*
X127858178Y-127735155D01*
X127762940Y-127830393D01*
X127715320Y-127925631D01*
X127715320Y-128116107D01*
X127762940Y-128211345D01*
X127858178Y-128306583D01*
X128048654Y-128354202D01*
X128381987Y-128354202D01*
X128572463Y-128306583D01*
X128667701Y-128211345D01*
X128715320Y-128116107D01*
X128715320Y-127925631D01*
X128715320Y-129306583D02*
X128715320Y-128735155D01*
X128715320Y-129020869D02*
X127715320Y-129020869D01*
X127858178Y-128925631D01*
X127953416Y-128830393D01*
X128001035Y-128735155D01*
X131176666Y-108962380D02*
X131510000Y-108486190D01*
X131748095Y-108962380D02*
X131748095Y-107962380D01*
X131367142Y-107962380D01*
X131271904Y-108010000D01*
X131224285Y-108057619D01*
X131176666Y-108152857D01*
X131176666Y-108295714D01*
X131224285Y-108390952D01*
X131271904Y-108438571D01*
X131367142Y-108486190D01*
X131748095Y-108486190D01*
X130271904Y-107962380D02*
X130748095Y-107962380D01*
X130795714Y-108438571D01*
X130748095Y-108390952D01*
X130652857Y-108343333D01*
X130414761Y-108343333D01*
X130319523Y-108390952D01*
X130271904Y-108438571D01*
X130224285Y-108533809D01*
X130224285Y-108771904D01*
X130271904Y-108867142D01*
X130319523Y-108914761D01*
X130414761Y-108962380D01*
X130652857Y-108962380D01*
X130748095Y-108914761D01*
X130795714Y-108867142D01*
X134811904Y-108127619D02*
X134764285Y-108080000D01*
X134669047Y-108032380D01*
X134430952Y-108032380D01*
X134335714Y-108080000D01*
X134288095Y-108127619D01*
X134240476Y-108222857D01*
X134240476Y-108318095D01*
X134288095Y-108460952D01*
X134859523Y-109032380D01*
X134240476Y-109032380D01*
X133621428Y-108032380D02*
X133526190Y-108032380D01*
X133430952Y-108080000D01*
X133383333Y-108127619D01*
X133335714Y-108222857D01*
X133288095Y-108413333D01*
X133288095Y-108651428D01*
X133335714Y-108841904D01*
X133383333Y-108937142D01*
X133430952Y-108984761D01*
X133526190Y-109032380D01*
X133621428Y-109032380D01*
X133716666Y-108984761D01*
X133764285Y-108937142D01*
X133811904Y-108841904D01*
X133859523Y-108651428D01*
X133859523Y-108413333D01*
X133811904Y-108222857D01*
X133764285Y-108127619D01*
X133716666Y-108080000D01*
X133621428Y-108032380D01*
X132859523Y-109032380D02*
X132859523Y-108032380D01*
X132288095Y-109032380D02*
X132716666Y-108460952D01*
X132288095Y-108032380D02*
X132859523Y-108603809D01*
X136723333Y-83748571D02*
X137056666Y-83748571D01*
X137056666Y-84272380D02*
X137056666Y-83272380D01*
X136580476Y-83272380D01*
X135866190Y-83748571D02*
X135723333Y-83796190D01*
X135675714Y-83843809D01*
X135628095Y-83939047D01*
X135628095Y-84081904D01*
X135675714Y-84177142D01*
X135723333Y-84224761D01*
X135818571Y-84272380D01*
X136199523Y-84272380D01*
X136199523Y-83272380D01*
X135866190Y-83272380D01*
X135770952Y-83320000D01*
X135723333Y-83367619D01*
X135675714Y-83462857D01*
X135675714Y-83558095D01*
X135723333Y-83653333D01*
X135770952Y-83700952D01*
X135866190Y-83748571D01*
X136199523Y-83748571D01*
X135247142Y-83367619D02*
X135199523Y-83320000D01*
X135104285Y-83272380D01*
X134866190Y-83272380D01*
X134770952Y-83320000D01*
X134723333Y-83367619D01*
X134675714Y-83462857D01*
X134675714Y-83558095D01*
X134723333Y-83700952D01*
X135294761Y-84272380D01*
X134675714Y-84272380D01*
X123806666Y-121677142D02*
X123854285Y-121724761D01*
X123997142Y-121772380D01*
X124092380Y-121772380D01*
X124235238Y-121724761D01*
X124330476Y-121629523D01*
X124378095Y-121534285D01*
X124425714Y-121343809D01*
X124425714Y-121200952D01*
X124378095Y-121010476D01*
X124330476Y-120915238D01*
X124235238Y-120820000D01*
X124092380Y-120772380D01*
X123997142Y-120772380D01*
X123854285Y-120820000D01*
X123806666Y-120867619D01*
X123473333Y-120772380D02*
X122806666Y-120772380D01*
X123235238Y-121772380D01*
X124274285Y-121932380D02*
X124179047Y-121932380D01*
X124083809Y-121980000D01*
X124036190Y-122027619D01*
X123988571Y-122122857D01*
X123940952Y-122313333D01*
X123940952Y-122551428D01*
X123988571Y-122741904D01*
X124036190Y-122837142D01*
X124083809Y-122884761D01*
X124179047Y-122932380D01*
X124274285Y-122932380D01*
X124369523Y-122884761D01*
X124417142Y-122837142D01*
X124464761Y-122741904D01*
X124512380Y-122551428D01*
X124512380Y-122313333D01*
X124464761Y-122122857D01*
X124417142Y-122027619D01*
X124369523Y-121980000D01*
X124274285Y-121932380D01*
X123512380Y-122837142D02*
X123464761Y-122884761D01*
X123512380Y-122932380D01*
X123560000Y-122884761D01*
X123512380Y-122837142D01*
X123512380Y-122932380D01*
X122512380Y-122932380D02*
X123083809Y-122932380D01*
X122798095Y-122932380D02*
X122798095Y-121932380D01*
X122893333Y-122075238D01*
X122988571Y-122170476D01*
X123083809Y-122218095D01*
X122083809Y-122265714D02*
X122083809Y-123265714D01*
X121607619Y-122789523D02*
X121559999Y-122884761D01*
X121464761Y-122932380D01*
X122083809Y-122789523D02*
X122036190Y-122884761D01*
X121940952Y-122932380D01*
X121750476Y-122932380D01*
X121655238Y-122884761D01*
X121607619Y-122789523D01*
X121607619Y-122265714D01*
X120702857Y-122408571D02*
X121036190Y-122408571D01*
X121036190Y-122932380D02*
X121036190Y-121932380D01*
X120560000Y-121932380D01*
X126626857Y-87479142D02*
X126674476Y-87526761D01*
X126817333Y-87574380D01*
X126912571Y-87574380D01*
X127055428Y-87526761D01*
X127150666Y-87431523D01*
X127198285Y-87336285D01*
X127245904Y-87145809D01*
X127245904Y-87002952D01*
X127198285Y-86812476D01*
X127150666Y-86717238D01*
X127055428Y-86622000D01*
X126912571Y-86574380D01*
X126817333Y-86574380D01*
X126674476Y-86622000D01*
X126626857Y-86669619D01*
X125674476Y-87574380D02*
X126245904Y-87574380D01*
X125960190Y-87574380D02*
X125960190Y-86574380D01*
X126055428Y-86717238D01*
X126150666Y-86812476D01*
X126245904Y-86860095D01*
X125055428Y-86574380D02*
X124960190Y-86574380D01*
X124864952Y-86622000D01*
X124817333Y-86669619D01*
X124769714Y-86764857D01*
X124722095Y-86955333D01*
X124722095Y-87193428D01*
X124769714Y-87383904D01*
X124817333Y-87479142D01*
X124864952Y-87526761D01*
X124960190Y-87574380D01*
X125055428Y-87574380D01*
X125150666Y-87526761D01*
X125198285Y-87479142D01*
X125245904Y-87383904D01*
X125293523Y-87193428D01*
X125293523Y-86955333D01*
X125245904Y-86764857D01*
X125198285Y-86669619D01*
X125150666Y-86622000D01*
X125055428Y-86574380D01*
X127190285Y-88098380D02*
X127095047Y-88098380D01*
X126999809Y-88146000D01*
X126952190Y-88193619D01*
X126904571Y-88288857D01*
X126856952Y-88479333D01*
X126856952Y-88717428D01*
X126904571Y-88907904D01*
X126952190Y-89003142D01*
X126999809Y-89050761D01*
X127095047Y-89098380D01*
X127190285Y-89098380D01*
X127285523Y-89050761D01*
X127333142Y-89003142D01*
X127380761Y-88907904D01*
X127428380Y-88717428D01*
X127428380Y-88479333D01*
X127380761Y-88288857D01*
X127333142Y-88193619D01*
X127285523Y-88146000D01*
X127190285Y-88098380D01*
X126428380Y-89003142D02*
X126380761Y-89050761D01*
X126428380Y-89098380D01*
X126476000Y-89050761D01*
X126428380Y-89003142D01*
X126428380Y-89098380D01*
X125428380Y-89098380D02*
X125999809Y-89098380D01*
X125714095Y-89098380D02*
X125714095Y-88098380D01*
X125809333Y-88241238D01*
X125904571Y-88336476D01*
X125999809Y-88384095D01*
X124999809Y-88431714D02*
X124999809Y-89431714D01*
X124523619Y-88955523D02*
X124475999Y-89050761D01*
X124380761Y-89098380D01*
X124999809Y-88955523D02*
X124952190Y-89050761D01*
X124856952Y-89098380D01*
X124666476Y-89098380D01*
X124571238Y-89050761D01*
X124523619Y-88955523D01*
X124523619Y-88431714D01*
X123618857Y-88574571D02*
X123952190Y-88574571D01*
X123952190Y-89098380D02*
X123952190Y-88098380D01*
X123476000Y-88098380D01*
X134506666Y-121057142D02*
X134554285Y-121104761D01*
X134697142Y-121152380D01*
X134792380Y-121152380D01*
X134935238Y-121104761D01*
X135030476Y-121009523D01*
X135078095Y-120914285D01*
X135125714Y-120723809D01*
X135125714Y-120580952D01*
X135078095Y-120390476D01*
X135030476Y-120295238D01*
X134935238Y-120200000D01*
X134792380Y-120152380D01*
X134697142Y-120152380D01*
X134554285Y-120200000D01*
X134506666Y-120247619D01*
X133935238Y-120580952D02*
X134030476Y-120533333D01*
X134078095Y-120485714D01*
X134125714Y-120390476D01*
X134125714Y-120342857D01*
X134078095Y-120247619D01*
X134030476Y-120200000D01*
X133935238Y-120152380D01*
X133744761Y-120152380D01*
X133649523Y-120200000D01*
X133601904Y-120247619D01*
X133554285Y-120342857D01*
X133554285Y-120390476D01*
X133601904Y-120485714D01*
X133649523Y-120533333D01*
X133744761Y-120580952D01*
X133935238Y-120580952D01*
X134030476Y-120628571D01*
X134078095Y-120676190D01*
X134125714Y-120771428D01*
X134125714Y-120961904D01*
X134078095Y-121057142D01*
X134030476Y-121104761D01*
X133935238Y-121152380D01*
X133744761Y-121152380D01*
X133649523Y-121104761D01*
X133601904Y-121057142D01*
X133554285Y-120961904D01*
X133554285Y-120771428D01*
X133601904Y-120676190D01*
X133649523Y-120628571D01*
X133744761Y-120580952D01*
X135732380Y-121567619D02*
X135684761Y-121520000D01*
X135589523Y-121472380D01*
X135351428Y-121472380D01*
X135256190Y-121520000D01*
X135208571Y-121567619D01*
X135160952Y-121662857D01*
X135160952Y-121758095D01*
X135208571Y-121900952D01*
X135780000Y-122472380D01*
X135160952Y-122472380D01*
X134732380Y-122377142D02*
X134684761Y-122424761D01*
X134732380Y-122472380D01*
X134780000Y-122424761D01*
X134732380Y-122377142D01*
X134732380Y-122472380D01*
X134303809Y-121567619D02*
X134256190Y-121520000D01*
X134160952Y-121472380D01*
X133922857Y-121472380D01*
X133827619Y-121520000D01*
X133780000Y-121567619D01*
X133732380Y-121662857D01*
X133732380Y-121758095D01*
X133780000Y-121900952D01*
X134351428Y-122472380D01*
X133732380Y-122472380D01*
X133303809Y-121805714D02*
X133303809Y-122805714D01*
X132827619Y-122329523D02*
X132779999Y-122424761D01*
X132684761Y-122472380D01*
X133303809Y-122329523D02*
X133256190Y-122424761D01*
X133160952Y-122472380D01*
X132970476Y-122472380D01*
X132875238Y-122424761D01*
X132827619Y-122329523D01*
X132827619Y-121805714D01*
X131922857Y-121948571D02*
X132256190Y-121948571D01*
X132256190Y-122472380D02*
X132256190Y-121472380D01*
X131780000Y-121472380D01*
X135040666Y-87479142D02*
X135088285Y-87526761D01*
X135231142Y-87574380D01*
X135326380Y-87574380D01*
X135469238Y-87526761D01*
X135564476Y-87431523D01*
X135612095Y-87336285D01*
X135659714Y-87145809D01*
X135659714Y-87002952D01*
X135612095Y-86812476D01*
X135564476Y-86717238D01*
X135469238Y-86622000D01*
X135326380Y-86574380D01*
X135231142Y-86574380D01*
X135088285Y-86622000D01*
X135040666Y-86669619D01*
X134564476Y-87574380D02*
X134374000Y-87574380D01*
X134278761Y-87526761D01*
X134231142Y-87479142D01*
X134135904Y-87336285D01*
X134088285Y-87145809D01*
X134088285Y-86764857D01*
X134135904Y-86669619D01*
X134183523Y-86622000D01*
X134278761Y-86574380D01*
X134469238Y-86574380D01*
X134564476Y-86622000D01*
X134612095Y-86669619D01*
X134659714Y-86764857D01*
X134659714Y-87002952D01*
X134612095Y-87098190D01*
X134564476Y-87145809D01*
X134469238Y-87193428D01*
X134278761Y-87193428D01*
X134183523Y-87145809D01*
X134135904Y-87098190D01*
X134088285Y-87002952D01*
X137604285Y-88352380D02*
X137509047Y-88352380D01*
X137413809Y-88400000D01*
X137366190Y-88447619D01*
X137318571Y-88542857D01*
X137270952Y-88733333D01*
X137270952Y-88971428D01*
X137318571Y-89161904D01*
X137366190Y-89257142D01*
X137413809Y-89304761D01*
X137509047Y-89352380D01*
X137604285Y-89352380D01*
X137699523Y-89304761D01*
X137747142Y-89257142D01*
X137794761Y-89161904D01*
X137842380Y-88971428D01*
X137842380Y-88733333D01*
X137794761Y-88542857D01*
X137747142Y-88447619D01*
X137699523Y-88400000D01*
X137604285Y-88352380D01*
X136842380Y-89257142D02*
X136794761Y-89304761D01*
X136842380Y-89352380D01*
X136890000Y-89304761D01*
X136842380Y-89257142D01*
X136842380Y-89352380D01*
X135842380Y-89352380D02*
X136413809Y-89352380D01*
X136128095Y-89352380D02*
X136128095Y-88352380D01*
X136223333Y-88495238D01*
X136318571Y-88590476D01*
X136413809Y-88638095D01*
X135413809Y-88685714D02*
X135413809Y-89685714D01*
X134937619Y-89209523D02*
X134890000Y-89304761D01*
X134794761Y-89352380D01*
X135413809Y-89209523D02*
X135366190Y-89304761D01*
X135270952Y-89352380D01*
X135080476Y-89352380D01*
X134985238Y-89304761D01*
X134937619Y-89209523D01*
X134937619Y-88685714D01*
X134032857Y-88828571D02*
X134366190Y-88828571D01*
X134366190Y-89352380D02*
X134366190Y-88352380D01*
X133890000Y-88352380D01*
X122589326Y-127183422D02*
X122636945Y-127231041D01*
X122779802Y-127278660D01*
X122875040Y-127278660D01*
X123017898Y-127231041D01*
X123113136Y-127135803D01*
X123160755Y-127040565D01*
X123208374Y-126850089D01*
X123208374Y-126707232D01*
X123160755Y-126516756D01*
X123113136Y-126421518D01*
X123017898Y-126326280D01*
X122875040Y-126278660D01*
X122779802Y-126278660D01*
X122636945Y-126326280D01*
X122589326Y-126373899D01*
X121732183Y-126611994D02*
X121732183Y-127278660D01*
X121970279Y-126231041D02*
X122208374Y-126945327D01*
X121589326Y-126945327D01*
X123562857Y-130412380D02*
X124134285Y-130412380D01*
X123848571Y-130412380D02*
X123848571Y-129412380D01*
X123943809Y-129555238D01*
X124039047Y-129650476D01*
X124134285Y-129698095D01*
X122943809Y-129412380D02*
X122848571Y-129412380D01*
X122753333Y-129460000D01*
X122705714Y-129507619D01*
X122658095Y-129602857D01*
X122610476Y-129793333D01*
X122610476Y-130031428D01*
X122658095Y-130221904D01*
X122705714Y-130317142D01*
X122753333Y-130364761D01*
X122848571Y-130412380D01*
X122943809Y-130412380D01*
X123039047Y-130364761D01*
X123086666Y-130317142D01*
X123134285Y-130221904D01*
X123181904Y-130031428D01*
X123181904Y-129793333D01*
X123134285Y-129602857D01*
X123086666Y-129507619D01*
X123039047Y-129460000D01*
X122943809Y-129412380D01*
X122181904Y-129745714D02*
X122181904Y-130745714D01*
X121705714Y-130269523D02*
X121658095Y-130364761D01*
X121562857Y-130412380D01*
X122181904Y-130269523D02*
X122134285Y-130364761D01*
X122039047Y-130412380D01*
X121848571Y-130412380D01*
X121753333Y-130364761D01*
X121705714Y-130269523D01*
X121705714Y-129745714D01*
X120800952Y-129888571D02*
X121134285Y-129888571D01*
X121134285Y-130412380D02*
X121134285Y-129412380D01*
X120658095Y-129412380D01*
X125610857Y-80621142D02*
X125658476Y-80668761D01*
X125801333Y-80716380D01*
X125896571Y-80716380D01*
X126039428Y-80668761D01*
X126134666Y-80573523D01*
X126182285Y-80478285D01*
X126229904Y-80287809D01*
X126229904Y-80144952D01*
X126182285Y-79954476D01*
X126134666Y-79859238D01*
X126039428Y-79764000D01*
X125896571Y-79716380D01*
X125801333Y-79716380D01*
X125658476Y-79764000D01*
X125610857Y-79811619D01*
X124658476Y-80716380D02*
X125229904Y-80716380D01*
X124944190Y-80716380D02*
X124944190Y-79716380D01*
X125039428Y-79859238D01*
X125134666Y-79954476D01*
X125229904Y-80002095D01*
X124325142Y-79716380D02*
X123706095Y-79716380D01*
X124039428Y-80097333D01*
X123896571Y-80097333D01*
X123801333Y-80144952D01*
X123753714Y-80192571D01*
X123706095Y-80287809D01*
X123706095Y-80525904D01*
X123753714Y-80621142D01*
X123801333Y-80668761D01*
X123896571Y-80716380D01*
X124182285Y-80716380D01*
X124277523Y-80668761D01*
X124325142Y-80621142D01*
X125594857Y-81319714D02*
X125594857Y-81986380D01*
X125832952Y-80938761D02*
X126071047Y-81653047D01*
X125452000Y-81653047D01*
X125166285Y-80986380D02*
X124499619Y-80986380D01*
X124928190Y-81986380D01*
X123928190Y-80986380D02*
X123832952Y-80986380D01*
X123737714Y-81034000D01*
X123690095Y-81081619D01*
X123642476Y-81176857D01*
X123594857Y-81367333D01*
X123594857Y-81605428D01*
X123642476Y-81795904D01*
X123690095Y-81891142D01*
X123737714Y-81938761D01*
X123832952Y-81986380D01*
X123928190Y-81986380D01*
X124023428Y-81938761D01*
X124071047Y-81891142D01*
X124118666Y-81795904D01*
X124166285Y-81605428D01*
X124166285Y-81367333D01*
X124118666Y-81176857D01*
X124071047Y-81081619D01*
X124023428Y-81034000D01*
X123928190Y-80986380D01*
X123166285Y-81319714D02*
X123166285Y-82319714D01*
X123166285Y-81367333D02*
X123071047Y-81319714D01*
X122880571Y-81319714D01*
X122785333Y-81367333D01*
X122737714Y-81414952D01*
X122690095Y-81510190D01*
X122690095Y-81795904D01*
X122737714Y-81891142D01*
X122785333Y-81938761D01*
X122880571Y-81986380D01*
X123071047Y-81986380D01*
X123166285Y-81938761D01*
X121928190Y-81462571D02*
X122261523Y-81462571D01*
X122261523Y-81986380D02*
X122261523Y-80986380D01*
X121785333Y-80986380D01*
X134906666Y-111167142D02*
X134954285Y-111214761D01*
X135097142Y-111262380D01*
X135192380Y-111262380D01*
X135335238Y-111214761D01*
X135430476Y-111119523D01*
X135478095Y-111024285D01*
X135525714Y-110833809D01*
X135525714Y-110690952D01*
X135478095Y-110500476D01*
X135430476Y-110405238D01*
X135335238Y-110310000D01*
X135192380Y-110262380D01*
X135097142Y-110262380D01*
X134954285Y-110310000D01*
X134906666Y-110357619D01*
X133954285Y-111262380D02*
X134525714Y-111262380D01*
X134240000Y-111262380D02*
X134240000Y-110262380D01*
X134335238Y-110405238D01*
X134430476Y-110500476D01*
X134525714Y-110548095D01*
X142341428Y-112157142D02*
X142255714Y-112157142D01*
X142170000Y-112200000D01*
X142127142Y-112242857D01*
X142084285Y-112328571D01*
X142041428Y-112500000D01*
X142041428Y-112714285D01*
X142084285Y-112885714D01*
X142127142Y-112971428D01*
X142170000Y-113014285D01*
X142255714Y-113057142D01*
X142341428Y-113057142D01*
X142427142Y-113014285D01*
X142470000Y-112971428D01*
X142512857Y-112885714D01*
X142555714Y-112714285D01*
X142555714Y-112500000D01*
X142512857Y-112328571D01*
X142470000Y-112242857D01*
X142427142Y-112200000D01*
X142341428Y-112157142D01*
X141655714Y-112971428D02*
X141612857Y-113014285D01*
X141655714Y-113057142D01*
X141698571Y-113014285D01*
X141655714Y-112971428D01*
X141655714Y-113057142D01*
X140841428Y-112457142D02*
X140841428Y-113057142D01*
X141055714Y-112114285D02*
X141270000Y-112757142D01*
X140712857Y-112757142D01*
X140455714Y-112157142D02*
X139855714Y-112157142D01*
X140241428Y-113057142D01*
X139512857Y-112457142D02*
X139512857Y-113357142D01*
X139084285Y-112928571D02*
X139041428Y-113014285D01*
X138955714Y-113057142D01*
X139512857Y-112928571D02*
X139470000Y-113014285D01*
X139384285Y-113057142D01*
X139212857Y-113057142D01*
X139127142Y-113014285D01*
X139084285Y-112928571D01*
X139084285Y-112457142D01*
X138270000Y-112585714D02*
X138570000Y-112585714D01*
X138570000Y-113057142D02*
X138570000Y-112157142D01*
X138141428Y-112157142D01*
X140633333Y-117938571D02*
X140966666Y-117938571D01*
X140966666Y-118462380D02*
X140966666Y-117462380D01*
X140490476Y-117462380D01*
X139776190Y-117938571D02*
X139633333Y-117986190D01*
X139585714Y-118033809D01*
X139538095Y-118129047D01*
X139538095Y-118271904D01*
X139585714Y-118367142D01*
X139633333Y-118414761D01*
X139728571Y-118462380D01*
X140109523Y-118462380D01*
X140109523Y-117462380D01*
X139776190Y-117462380D01*
X139680952Y-117510000D01*
X139633333Y-117557619D01*
X139585714Y-117652857D01*
X139585714Y-117748095D01*
X139633333Y-117843333D01*
X139680952Y-117890952D01*
X139776190Y-117938571D01*
X140109523Y-117938571D01*
X138585714Y-118462380D02*
X139157142Y-118462380D01*
X138871428Y-118462380D02*
X138871428Y-117462380D01*
X138966666Y-117605238D01*
X139061904Y-117700476D01*
X139157142Y-117748095D01*
X125801333Y-83748571D02*
X126134666Y-83748571D01*
X126134666Y-84272380D02*
X126134666Y-83272380D01*
X125658476Y-83272380D01*
X124944190Y-83748571D02*
X124801333Y-83796190D01*
X124753714Y-83843809D01*
X124706095Y-83939047D01*
X124706095Y-84081904D01*
X124753714Y-84177142D01*
X124801333Y-84224761D01*
X124896571Y-84272380D01*
X125277523Y-84272380D01*
X125277523Y-83272380D01*
X124944190Y-83272380D01*
X124848952Y-83320000D01*
X124801333Y-83367619D01*
X124753714Y-83462857D01*
X124753714Y-83558095D01*
X124801333Y-83653333D01*
X124848952Y-83700952D01*
X124944190Y-83748571D01*
X125277523Y-83748571D01*
X124372761Y-83272380D02*
X123753714Y-83272380D01*
X124087047Y-83653333D01*
X123944190Y-83653333D01*
X123848952Y-83700952D01*
X123801333Y-83748571D01*
X123753714Y-83843809D01*
X123753714Y-84081904D01*
X123801333Y-84177142D01*
X123848952Y-84224761D01*
X123944190Y-84272380D01*
X124229904Y-84272380D01*
X124325142Y-84224761D01*
X124372761Y-84177142D01*
X123756666Y-107457142D02*
X123804285Y-107504761D01*
X123947142Y-107552380D01*
X124042380Y-107552380D01*
X124185238Y-107504761D01*
X124280476Y-107409523D01*
X124328095Y-107314285D01*
X124375714Y-107123809D01*
X124375714Y-106980952D01*
X124328095Y-106790476D01*
X124280476Y-106695238D01*
X124185238Y-106600000D01*
X124042380Y-106552380D01*
X123947142Y-106552380D01*
X123804285Y-106600000D01*
X123756666Y-106647619D01*
X122899523Y-106552380D02*
X123090000Y-106552380D01*
X123185238Y-106600000D01*
X123232857Y-106647619D01*
X123328095Y-106790476D01*
X123375714Y-106980952D01*
X123375714Y-107361904D01*
X123328095Y-107457142D01*
X123280476Y-107504761D01*
X123185238Y-107552380D01*
X122994761Y-107552380D01*
X122899523Y-107504761D01*
X122851904Y-107457142D01*
X122804285Y-107361904D01*
X122804285Y-107123809D01*
X122851904Y-107028571D01*
X122899523Y-106980952D01*
X122994761Y-106933333D01*
X123185238Y-106933333D01*
X123280476Y-106980952D01*
X123328095Y-107028571D01*
X123375714Y-107123809D01*
X124144285Y-107902380D02*
X124049047Y-107902380D01*
X123953809Y-107950000D01*
X123906190Y-107997619D01*
X123858571Y-108092857D01*
X123810952Y-108283333D01*
X123810952Y-108521428D01*
X123858571Y-108711904D01*
X123906190Y-108807142D01*
X123953809Y-108854761D01*
X124049047Y-108902380D01*
X124144285Y-108902380D01*
X124239523Y-108854761D01*
X124287142Y-108807142D01*
X124334761Y-108711904D01*
X124382380Y-108521428D01*
X124382380Y-108283333D01*
X124334761Y-108092857D01*
X124287142Y-107997619D01*
X124239523Y-107950000D01*
X124144285Y-107902380D01*
X123382380Y-108807142D02*
X123334761Y-108854761D01*
X123382380Y-108902380D01*
X123430000Y-108854761D01*
X123382380Y-108807142D01*
X123382380Y-108902380D01*
X122382380Y-108902380D02*
X122953809Y-108902380D01*
X122668095Y-108902380D02*
X122668095Y-107902380D01*
X122763333Y-108045238D01*
X122858571Y-108140476D01*
X122953809Y-108188095D01*
X121953809Y-108235714D02*
X121953809Y-109235714D01*
X121477619Y-108759523D02*
X121429999Y-108854761D01*
X121334761Y-108902380D01*
X121953809Y-108759523D02*
X121906190Y-108854761D01*
X121810952Y-108902380D01*
X121620476Y-108902380D01*
X121525238Y-108854761D01*
X121477619Y-108759523D01*
X121477619Y-108235714D01*
X120572857Y-108378571D02*
X120906190Y-108378571D01*
X120906190Y-108902380D02*
X120906190Y-107902380D01*
X120430000Y-107902380D01*
X136532857Y-80367142D02*
X136580476Y-80414761D01*
X136723333Y-80462380D01*
X136818571Y-80462380D01*
X136961428Y-80414761D01*
X137056666Y-80319523D01*
X137104285Y-80224285D01*
X137151904Y-80033809D01*
X137151904Y-79890952D01*
X137104285Y-79700476D01*
X137056666Y-79605238D01*
X136961428Y-79510000D01*
X136818571Y-79462380D01*
X136723333Y-79462380D01*
X136580476Y-79510000D01*
X136532857Y-79557619D01*
X135580476Y-80462380D02*
X136151904Y-80462380D01*
X135866190Y-80462380D02*
X135866190Y-79462380D01*
X135961428Y-79605238D01*
X136056666Y-79700476D01*
X136151904Y-79748095D01*
X135199523Y-79557619D02*
X135151904Y-79510000D01*
X135056666Y-79462380D01*
X134818571Y-79462380D01*
X134723333Y-79510000D01*
X134675714Y-79557619D01*
X134628095Y-79652857D01*
X134628095Y-79748095D01*
X134675714Y-79890952D01*
X135247142Y-80462380D01*
X134628095Y-80462380D01*
X138294857Y-81319714D02*
X138294857Y-81986380D01*
X138532952Y-80938761D02*
X138771047Y-81653047D01*
X138152000Y-81653047D01*
X137866285Y-80986380D02*
X137199619Y-80986380D01*
X137628190Y-81986380D01*
X136628190Y-80986380D02*
X136532952Y-80986380D01*
X136437714Y-81034000D01*
X136390095Y-81081619D01*
X136342476Y-81176857D01*
X136294857Y-81367333D01*
X136294857Y-81605428D01*
X136342476Y-81795904D01*
X136390095Y-81891142D01*
X136437714Y-81938761D01*
X136532952Y-81986380D01*
X136628190Y-81986380D01*
X136723428Y-81938761D01*
X136771047Y-81891142D01*
X136818666Y-81795904D01*
X136866285Y-81605428D01*
X136866285Y-81367333D01*
X136818666Y-81176857D01*
X136771047Y-81081619D01*
X136723428Y-81034000D01*
X136628190Y-80986380D01*
X135866285Y-81319714D02*
X135866285Y-82319714D01*
X135866285Y-81367333D02*
X135771047Y-81319714D01*
X135580571Y-81319714D01*
X135485333Y-81367333D01*
X135437714Y-81414952D01*
X135390095Y-81510190D01*
X135390095Y-81795904D01*
X135437714Y-81891142D01*
X135485333Y-81938761D01*
X135580571Y-81986380D01*
X135771047Y-81986380D01*
X135866285Y-81938761D01*
X134628190Y-81462571D02*
X134961523Y-81462571D01*
X134961523Y-81986380D02*
X134961523Y-80986380D01*
X134485333Y-80986380D01*
X124866666Y-136932380D02*
X125200000Y-136456190D01*
X125438095Y-136932380D02*
X125438095Y-135932380D01*
X125057142Y-135932380D01*
X124961904Y-135980000D01*
X124914285Y-136027619D01*
X124866666Y-136122857D01*
X124866666Y-136265714D01*
X124914285Y-136360952D01*
X124961904Y-136408571D01*
X125057142Y-136456190D01*
X125438095Y-136456190D01*
X123914285Y-136932380D02*
X124485714Y-136932380D01*
X124200000Y-136932380D02*
X124200000Y-135932380D01*
X124295238Y-136075238D01*
X124390476Y-136170476D01*
X124485714Y-136218095D01*
X122506666Y-138372380D02*
X123078095Y-138372380D01*
X122792380Y-138372380D02*
X122792380Y-137372380D01*
X122887619Y-137515238D01*
X122982857Y-137610476D01*
X123078095Y-137658095D01*
X121887619Y-137372380D02*
X121792380Y-137372380D01*
X121697142Y-137420000D01*
X121649523Y-137467619D01*
X121601904Y-137562857D01*
X121554285Y-137753333D01*
X121554285Y-137991428D01*
X121601904Y-138181904D01*
X121649523Y-138277142D01*
X121697142Y-138324761D01*
X121792380Y-138372380D01*
X121887619Y-138372380D01*
X121982857Y-138324761D01*
X122030476Y-138277142D01*
X122078095Y-138181904D01*
X122125714Y-137991428D01*
X122125714Y-137753333D01*
X122078095Y-137562857D01*
X122030476Y-137467619D01*
X121982857Y-137420000D01*
X121887619Y-137372380D01*
X120935238Y-137372380D02*
X120840000Y-137372380D01*
X120744761Y-137420000D01*
X120697142Y-137467619D01*
X120649523Y-137562857D01*
X120601904Y-137753333D01*
X120601904Y-137991428D01*
X120649523Y-138181904D01*
X120697142Y-138277142D01*
X120744761Y-138324761D01*
X120840000Y-138372380D01*
X120935238Y-138372380D01*
X121030476Y-138324761D01*
X121078095Y-138277142D01*
X121125714Y-138181904D01*
X121173333Y-137991428D01*
X121173333Y-137753333D01*
X121125714Y-137562857D01*
X121078095Y-137467619D01*
X121030476Y-137420000D01*
X120935238Y-137372380D01*
X120173333Y-138372380D02*
X120173333Y-137372380D01*
X119601904Y-138372380D02*
X120030476Y-137800952D01*
X119601904Y-137372380D02*
X120173333Y-137943809D01*
X120096666Y-140452380D02*
X120430000Y-139976190D01*
X120668095Y-140452380D02*
X120668095Y-139452380D01*
X120287142Y-139452380D01*
X120191904Y-139500000D01*
X120144285Y-139547619D01*
X120096666Y-139642857D01*
X120096666Y-139785714D01*
X120144285Y-139880952D01*
X120191904Y-139928571D01*
X120287142Y-139976190D01*
X120668095Y-139976190D01*
X119763333Y-139452380D02*
X119144285Y-139452380D01*
X119477619Y-139833333D01*
X119334761Y-139833333D01*
X119239523Y-139880952D01*
X119191904Y-139928571D01*
X119144285Y-140023809D01*
X119144285Y-140261904D01*
X119191904Y-140357142D01*
X119239523Y-140404761D01*
X119334761Y-140452380D01*
X119620476Y-140452380D01*
X119715714Y-140404761D01*
X119763333Y-140357142D01*
X120006666Y-141762380D02*
X120578095Y-141762380D01*
X120292380Y-141762380D02*
X120292380Y-140762380D01*
X120387619Y-140905238D01*
X120482857Y-141000476D01*
X120578095Y-141048095D01*
X119387619Y-140762380D02*
X119292380Y-140762380D01*
X119197142Y-140810000D01*
X119149523Y-140857619D01*
X119101904Y-140952857D01*
X119054285Y-141143333D01*
X119054285Y-141381428D01*
X119101904Y-141571904D01*
X119149523Y-141667142D01*
X119197142Y-141714761D01*
X119292380Y-141762380D01*
X119387619Y-141762380D01*
X119482857Y-141714761D01*
X119530476Y-141667142D01*
X119578095Y-141571904D01*
X119625714Y-141381428D01*
X119625714Y-141143333D01*
X119578095Y-140952857D01*
X119530476Y-140857619D01*
X119482857Y-140810000D01*
X119387619Y-140762380D01*
X118435238Y-140762380D02*
X118340000Y-140762380D01*
X118244761Y-140810000D01*
X118197142Y-140857619D01*
X118149523Y-140952857D01*
X118101904Y-141143333D01*
X118101904Y-141381428D01*
X118149523Y-141571904D01*
X118197142Y-141667142D01*
X118244761Y-141714761D01*
X118340000Y-141762380D01*
X118435238Y-141762380D01*
X118530476Y-141714761D01*
X118578095Y-141667142D01*
X118625714Y-141571904D01*
X118673333Y-141381428D01*
X118673333Y-141143333D01*
X118625714Y-140952857D01*
X118578095Y-140857619D01*
X118530476Y-140810000D01*
X118435238Y-140762380D01*
X117673333Y-141762380D02*
X117673333Y-140762380D01*
X117101904Y-141762380D02*
X117530476Y-141190952D01*
X117101904Y-140762380D02*
X117673333Y-141333809D01*
X129561904Y-141242380D02*
X129561904Y-142051904D01*
X129514285Y-142147142D01*
X129466666Y-142194761D01*
X129371428Y-142242380D01*
X129180952Y-142242380D01*
X129085714Y-142194761D01*
X129038095Y-142147142D01*
X128990476Y-142051904D01*
X128990476Y-141242380D01*
X128561904Y-141337619D02*
X128514285Y-141290000D01*
X128419047Y-141242380D01*
X128180952Y-141242380D01*
X128085714Y-141290000D01*
X128038095Y-141337619D01*
X127990476Y-141432857D01*
X127990476Y-141528095D01*
X128038095Y-141670952D01*
X128609523Y-142242380D01*
X127990476Y-142242380D01*
X130996666Y-137742380D02*
X131330000Y-137266190D01*
X131568095Y-137742380D02*
X131568095Y-136742380D01*
X131187142Y-136742380D01*
X131091904Y-136790000D01*
X131044285Y-136837619D01*
X130996666Y-136932857D01*
X130996666Y-137075714D01*
X131044285Y-137170952D01*
X131091904Y-137218571D01*
X131187142Y-137266190D01*
X131568095Y-137266190D01*
X130615714Y-136837619D02*
X130568095Y-136790000D01*
X130472857Y-136742380D01*
X130234761Y-136742380D01*
X130139523Y-136790000D01*
X130091904Y-136837619D01*
X130044285Y-136932857D01*
X130044285Y-137028095D01*
X130091904Y-137170952D01*
X130663333Y-137742380D01*
X130044285Y-137742380D01*
X133294761Y-138992380D02*
X133866190Y-138992380D01*
X133580476Y-138992380D02*
X133580476Y-137992380D01*
X133675714Y-138135238D01*
X133770952Y-138230476D01*
X133866190Y-138278095D01*
X132818571Y-138992380D02*
X132628095Y-138992380D01*
X132532857Y-138944761D01*
X132485238Y-138897142D01*
X132390000Y-138754285D01*
X132342380Y-138563809D01*
X132342380Y-138182857D01*
X132390000Y-138087619D01*
X132437619Y-138040000D01*
X132532857Y-137992380D01*
X132723333Y-137992380D01*
X132818571Y-138040000D01*
X132866190Y-138087619D01*
X132913809Y-138182857D01*
X132913809Y-138420952D01*
X132866190Y-138516190D01*
X132818571Y-138563809D01*
X132723333Y-138611428D01*
X132532857Y-138611428D01*
X132437619Y-138563809D01*
X132390000Y-138516190D01*
X132342380Y-138420952D01*
X131913809Y-138897142D02*
X131866190Y-138944761D01*
X131913809Y-138992380D01*
X131961428Y-138944761D01*
X131913809Y-138897142D01*
X131913809Y-138992380D01*
X130913809Y-138992380D02*
X131485238Y-138992380D01*
X131199523Y-138992380D02*
X131199523Y-137992380D01*
X131294761Y-138135238D01*
X131390000Y-138230476D01*
X131485238Y-138278095D01*
X130485238Y-138992380D02*
X130485238Y-137992380D01*
X129913809Y-138992380D02*
X130342380Y-138420952D01*
X129913809Y-137992380D02*
X130485238Y-138563809D01*
X127130857Y-147037142D02*
X127178476Y-147084761D01*
X127321333Y-147132380D01*
X127416571Y-147132380D01*
X127559428Y-147084761D01*
X127654666Y-146989523D01*
X127702285Y-146894285D01*
X127749904Y-146703809D01*
X127749904Y-146560952D01*
X127702285Y-146370476D01*
X127654666Y-146275238D01*
X127559428Y-146180000D01*
X127416571Y-146132380D01*
X127321333Y-146132380D01*
X127178476Y-146180000D01*
X127130857Y-146227619D01*
X126178476Y-147132380D02*
X126749904Y-147132380D01*
X126464190Y-147132380D02*
X126464190Y-146132380D01*
X126559428Y-146275238D01*
X126654666Y-146370476D01*
X126749904Y-146418095D01*
X125226095Y-147132380D02*
X125797523Y-147132380D01*
X125511809Y-147132380D02*
X125511809Y-146132380D01*
X125607047Y-146275238D01*
X125702285Y-146370476D01*
X125797523Y-146418095D01*
X131712857Y-144397619D02*
X131665238Y-144350000D01*
X131570000Y-144302380D01*
X131331904Y-144302380D01*
X131236666Y-144350000D01*
X131189047Y-144397619D01*
X131141428Y-144492857D01*
X131141428Y-144588095D01*
X131189047Y-144730952D01*
X131760476Y-145302380D01*
X131141428Y-145302380D01*
X130760476Y-144397619D02*
X130712857Y-144350000D01*
X130617619Y-144302380D01*
X130379523Y-144302380D01*
X130284285Y-144350000D01*
X130236666Y-144397619D01*
X130189047Y-144492857D01*
X130189047Y-144588095D01*
X130236666Y-144730952D01*
X130808095Y-145302380D01*
X130189047Y-145302380D01*
X129331904Y-144635714D02*
X129331904Y-145302380D01*
X129760476Y-144635714D02*
X129760476Y-145159523D01*
X129712857Y-145254761D01*
X129617619Y-145302380D01*
X129474761Y-145302380D01*
X129379523Y-145254761D01*
X129331904Y-145207142D01*
X128522380Y-144778571D02*
X128855714Y-144778571D01*
X128855714Y-145302380D02*
X128855714Y-144302380D01*
X128379523Y-144302380D01*
X121946666Y-145067142D02*
X121994285Y-145114761D01*
X122137142Y-145162380D01*
X122232380Y-145162380D01*
X122375238Y-145114761D01*
X122470476Y-145019523D01*
X122518095Y-144924285D01*
X122565714Y-144733809D01*
X122565714Y-144590952D01*
X122518095Y-144400476D01*
X122470476Y-144305238D01*
X122375238Y-144210000D01*
X122232380Y-144162380D01*
X122137142Y-144162380D01*
X121994285Y-144210000D01*
X121946666Y-144257619D01*
X121565714Y-144257619D02*
X121518095Y-144210000D01*
X121422857Y-144162380D01*
X121184761Y-144162380D01*
X121089523Y-144210000D01*
X121041904Y-144257619D01*
X120994285Y-144352857D01*
X120994285Y-144448095D01*
X121041904Y-144590952D01*
X121613333Y-145162380D01*
X120994285Y-145162380D01*
X123121428Y-146522380D02*
X123692857Y-146522380D01*
X123407142Y-146522380D02*
X123407142Y-145522380D01*
X123502380Y-145665238D01*
X123597619Y-145760476D01*
X123692857Y-145808095D01*
X122502380Y-145522380D02*
X122407142Y-145522380D01*
X122311904Y-145570000D01*
X122264285Y-145617619D01*
X122216666Y-145712857D01*
X122169047Y-145903333D01*
X122169047Y-146141428D01*
X122216666Y-146331904D01*
X122264285Y-146427142D01*
X122311904Y-146474761D01*
X122407142Y-146522380D01*
X122502380Y-146522380D01*
X122597619Y-146474761D01*
X122645238Y-146427142D01*
X122692857Y-146331904D01*
X122740476Y-146141428D01*
X122740476Y-145903333D01*
X122692857Y-145712857D01*
X122645238Y-145617619D01*
X122597619Y-145570000D01*
X122502380Y-145522380D01*
X121311904Y-145855714D02*
X121311904Y-146522380D01*
X121740476Y-145855714D02*
X121740476Y-146379523D01*
X121692857Y-146474761D01*
X121597619Y-146522380D01*
X121454761Y-146522380D01*
X121359523Y-146474761D01*
X121311904Y-146427142D01*
X120502380Y-145998571D02*
X120835714Y-145998571D01*
X120835714Y-146522380D02*
X120835714Y-145522380D01*
X120359523Y-145522380D01*
X142731904Y-146932380D02*
X142731904Y-147741904D01*
X142684285Y-147837142D01*
X142636666Y-147884761D01*
X142541428Y-147932380D01*
X142350952Y-147932380D01*
X142255714Y-147884761D01*
X142208095Y-147837142D01*
X142160476Y-147741904D01*
X142160476Y-146932380D01*
X141779523Y-146932380D02*
X141160476Y-146932380D01*
X141493809Y-147313333D01*
X141350952Y-147313333D01*
X141255714Y-147360952D01*
X141208095Y-147408571D01*
X141160476Y-147503809D01*
X141160476Y-147741904D01*
X141208095Y-147837142D01*
X141255714Y-147884761D01*
X141350952Y-147932380D01*
X141636666Y-147932380D01*
X141731904Y-147884761D01*
X141779523Y-147837142D01*
D12*
X130110000Y-122248748D02*
X130110000Y-122771252D01*
X128690000Y-122248748D02*
X128690000Y-122771252D01*
D13*
X129921000Y-112395000D02*
X129921000Y-113118260D01*
X129197740Y-112395000D02*
X129921000Y-112395000D01*
X128428501Y-111963200D02*
X128047501Y-111963200D01*
X130606800Y-117768500D02*
X130352800Y-117768500D01*
X125047499Y-120446800D02*
X125428499Y-120446800D01*
X128428501Y-111709200D02*
X128428501Y-111963200D01*
X128047501Y-111963200D02*
X128047501Y-111709200D01*
X122123200Y-115768501D02*
X122123200Y-115387501D01*
X122555000Y-119761000D02*
X122555000Y-119037740D01*
X122555000Y-113118260D02*
X122555000Y-112395000D01*
X121869200Y-115387501D02*
X121869200Y-115768501D01*
X125428499Y-120192800D02*
X125047499Y-120192800D01*
X125428499Y-120446800D02*
X125428499Y-120192800D01*
X128047501Y-111709200D02*
X128428501Y-111709200D01*
X122555000Y-112395000D02*
X123278260Y-112395000D01*
X122123200Y-115387501D02*
X121869200Y-115387501D01*
X130352800Y-117387500D02*
X130606800Y-117387500D01*
X130606800Y-117387500D02*
X130606800Y-117768500D01*
X129921000Y-119761000D02*
X129197740Y-119761000D01*
X130352800Y-117768500D02*
X130352800Y-117387500D01*
X129921000Y-119037740D02*
X129921000Y-119761000D01*
X123278260Y-119761000D02*
X122555000Y-119761000D01*
X125047499Y-120192800D02*
X125047499Y-120446800D01*
X121869200Y-115768501D02*
X122123200Y-115768501D01*
D12*
X123169135Y-112798860D02*
G75*
G03*
X123169135Y-112798860I-230595J0D01*
G01*
X131624000Y-111767252D02*
X131624000Y-111244748D01*
X133044000Y-111767252D02*
X133044000Y-111244748D01*
X129102000Y-131974000D02*
X129102000Y-131704000D01*
X129102000Y-125344000D02*
X128002000Y-125344000D01*
X130602000Y-131974000D02*
X129102000Y-131974000D01*
X129102000Y-131704000D02*
X126272000Y-131704000D01*
X129102000Y-125074000D02*
X129102000Y-125344000D01*
X130602000Y-125074000D02*
X129102000Y-125074000D01*
X133044000Y-115054748D02*
X133044000Y-115577252D01*
X131624000Y-115054748D02*
X131624000Y-115577252D01*
X132849252Y-84530000D02*
X132326748Y-84530000D01*
X132849252Y-83110000D02*
X132326748Y-83110000D01*
X126762252Y-120956000D02*
X126239748Y-120956000D01*
X126762252Y-122376000D02*
X126239748Y-122376000D01*
X129234000Y-88399252D02*
X129234000Y-87876748D01*
X127814000Y-88399252D02*
X127814000Y-87876748D01*
X133044000Y-119118748D02*
X133044000Y-119641252D01*
X131624000Y-119118748D02*
X131624000Y-119641252D01*
X131624000Y-88399252D02*
X131624000Y-87876748D01*
X133044000Y-88399252D02*
X133044000Y-87876748D01*
X122943252Y-128980000D02*
X122420748Y-128980000D01*
X122943252Y-127560000D02*
X122420748Y-127560000D01*
X128522252Y-80316000D02*
X127999748Y-80316000D01*
X128522252Y-81736000D02*
X127999748Y-81736000D01*
X135330000Y-113545252D02*
X135330000Y-113022748D01*
X133910000Y-113545252D02*
X133910000Y-113022748D01*
X133910000Y-117848748D02*
X133910000Y-118371252D01*
X135330000Y-117848748D02*
X135330000Y-118371252D01*
X128008748Y-84530000D02*
X128531252Y-84530000D01*
X128008748Y-83110000D02*
X128531252Y-83110000D01*
X126310000Y-108738748D02*
X126310000Y-109261252D01*
X124890000Y-108738748D02*
X124890000Y-109261252D01*
X132849252Y-81736000D02*
X132326748Y-81736000D01*
X132849252Y-80316000D02*
X132326748Y-80316000D01*
X124558936Y-138837000D02*
X125013064Y-138837000D01*
X124558936Y-137367000D02*
X125013064Y-137367000D01*
X122895064Y-139323000D02*
X122440936Y-139323000D01*
X122895064Y-140793000D02*
X122440936Y-140793000D01*
D13*
X130187700Y-143408400D02*
X130187700Y-140055600D01*
D12*
X125222000Y-139700000D02*
G75*
G03*
X125222000Y-139700000I-254000J0D01*
G01*
X128000936Y-137367000D02*
X128455064Y-137367000D01*
X128000936Y-138837000D02*
X128455064Y-138837000D01*
X126749252Y-145607000D02*
X126226748Y-145607000D01*
X126749252Y-144137000D02*
X126226748Y-144137000D01*
X122633000Y-142524748D02*
X122633000Y-143047252D01*
X124103000Y-142524748D02*
X124103000Y-143047252D01*
X141970000Y-146635000D02*
X143920000Y-146635000D01*
X141970000Y-146635000D02*
X138520000Y-146635000D01*
X141970000Y-137765000D02*
X143920000Y-137765000D01*
X141970000Y-137765000D02*
X140020000Y-137765000D01*
X138072445Y-146949800D02*
G75*
G03*
X138072445Y-146949800I-420445J0D01*
G01*
G36*
X137855200Y-146594200D02*
G01*
X138058400Y-146899000D01*
X137931400Y-147229200D01*
X137702800Y-147356200D01*
X137575800Y-147330800D01*
X137423400Y-147280000D01*
X137245600Y-147000600D01*
X137296400Y-146746600D01*
X137499600Y-146568800D01*
X137855200Y-146594200D01*
G37*
X137855200Y-146594200D02*
X138058400Y-146899000D01*
X137931400Y-147229200D01*
X137702800Y-147356200D01*
X137575800Y-147330800D01*
X137423400Y-147280000D01*
X137245600Y-147000600D01*
X137296400Y-146746600D01*
X137499600Y-146568800D01*
X137855200Y-146594200D01*
M02*
