%TF.GenerationSoftware,KiCad,Pcbnew,(6.0.7)*%
%TF.CreationDate,2023-03-19T23:02:41-05:00*%
%TF.ProjectId,Magic_Wand_Timer,4d616769-635f-4576-916e-645f54696d65,rev?*%
%TF.SameCoordinates,Original*%
%TF.FileFunction,Legend,Top*%
%TF.FilePolarity,Positive*%
%FSLAX46Y46*%
G04 Gerber Fmt 4.6, Leading zero omitted, Abs format (unit mm)*
G04 Created by KiCad (PCBNEW (6.0.7)) date 2023-03-19 23:02:41*
%MOMM*%
%LPD*%
G01*
G04 APERTURE LIST*
%ADD10C,0.150000*%
%ADD11C,0.120000*%
%ADD12C,0.100000*%
%ADD13C,0.152400*%
G04 APERTURE END LIST*
D10*
X153519761Y-106073380D02*
X153519761Y-105073380D01*
X153853095Y-105787666D01*
X154186428Y-105073380D01*
X154186428Y-106073380D01*
X155091190Y-106073380D02*
X155091190Y-105549571D01*
X155043571Y-105454333D01*
X154948333Y-105406714D01*
X154757857Y-105406714D01*
X154662619Y-105454333D01*
X155091190Y-106025761D02*
X154995952Y-106073380D01*
X154757857Y-106073380D01*
X154662619Y-106025761D01*
X154615000Y-105930523D01*
X154615000Y-105835285D01*
X154662619Y-105740047D01*
X154757857Y-105692428D01*
X154995952Y-105692428D01*
X155091190Y-105644809D01*
X155995952Y-105406714D02*
X155995952Y-106216238D01*
X155948333Y-106311476D01*
X155900714Y-106359095D01*
X155805476Y-106406714D01*
X155662619Y-106406714D01*
X155567380Y-106359095D01*
X155995952Y-106025761D02*
X155900714Y-106073380D01*
X155710238Y-106073380D01*
X155615000Y-106025761D01*
X155567380Y-105978142D01*
X155519761Y-105882904D01*
X155519761Y-105597190D01*
X155567380Y-105501952D01*
X155615000Y-105454333D01*
X155710238Y-105406714D01*
X155900714Y-105406714D01*
X155995952Y-105454333D01*
X156472142Y-106073380D02*
X156472142Y-105406714D01*
X156472142Y-105073380D02*
X156424523Y-105121000D01*
X156472142Y-105168619D01*
X156519761Y-105121000D01*
X156472142Y-105073380D01*
X156472142Y-105168619D01*
X157376904Y-106025761D02*
X157281666Y-106073380D01*
X157091190Y-106073380D01*
X156995952Y-106025761D01*
X156948333Y-105978142D01*
X156900714Y-105882904D01*
X156900714Y-105597190D01*
X156948333Y-105501952D01*
X156995952Y-105454333D01*
X157091190Y-105406714D01*
X157281666Y-105406714D01*
X157376904Y-105454333D01*
X158472142Y-105073380D02*
X158710238Y-106073380D01*
X158900714Y-105359095D01*
X159091190Y-106073380D01*
X159329285Y-105073380D01*
X160138809Y-106073380D02*
X160138809Y-105549571D01*
X160091190Y-105454333D01*
X159995952Y-105406714D01*
X159805476Y-105406714D01*
X159710238Y-105454333D01*
X160138809Y-106025761D02*
X160043571Y-106073380D01*
X159805476Y-106073380D01*
X159710238Y-106025761D01*
X159662619Y-105930523D01*
X159662619Y-105835285D01*
X159710238Y-105740047D01*
X159805476Y-105692428D01*
X160043571Y-105692428D01*
X160138809Y-105644809D01*
X160615000Y-105406714D02*
X160615000Y-106073380D01*
X160615000Y-105501952D02*
X160662619Y-105454333D01*
X160757857Y-105406714D01*
X160900714Y-105406714D01*
X160995952Y-105454333D01*
X161043571Y-105549571D01*
X161043571Y-106073380D01*
X161948333Y-106073380D02*
X161948333Y-105073380D01*
X161948333Y-106025761D02*
X161853095Y-106073380D01*
X161662619Y-106073380D01*
X161567380Y-106025761D01*
X161519761Y-105978142D01*
X161472142Y-105882904D01*
X161472142Y-105597190D01*
X161519761Y-105501952D01*
X161567380Y-105454333D01*
X161662619Y-105406714D01*
X161853095Y-105406714D01*
X161948333Y-105454333D01*
X154900714Y-106683380D02*
X155472142Y-106683380D01*
X155186428Y-107683380D02*
X155186428Y-106683380D01*
X155805476Y-107683380D02*
X155805476Y-107016714D01*
X155805476Y-106683380D02*
X155757857Y-106731000D01*
X155805476Y-106778619D01*
X155853095Y-106731000D01*
X155805476Y-106683380D01*
X155805476Y-106778619D01*
X156281666Y-107683380D02*
X156281666Y-107016714D01*
X156281666Y-107111952D02*
X156329285Y-107064333D01*
X156424523Y-107016714D01*
X156567380Y-107016714D01*
X156662619Y-107064333D01*
X156710238Y-107159571D01*
X156710238Y-107683380D01*
X156710238Y-107159571D02*
X156757857Y-107064333D01*
X156853095Y-107016714D01*
X156995952Y-107016714D01*
X157091190Y-107064333D01*
X157138809Y-107159571D01*
X157138809Y-107683380D01*
X157995952Y-107635761D02*
X157900714Y-107683380D01*
X157710238Y-107683380D01*
X157615000Y-107635761D01*
X157567380Y-107540523D01*
X157567380Y-107159571D01*
X157615000Y-107064333D01*
X157710238Y-107016714D01*
X157900714Y-107016714D01*
X157995952Y-107064333D01*
X158043571Y-107159571D01*
X158043571Y-107254809D01*
X157567380Y-107350047D01*
X158472142Y-107683380D02*
X158472142Y-107016714D01*
X158472142Y-107207190D02*
X158519761Y-107111952D01*
X158567380Y-107064333D01*
X158662619Y-107016714D01*
X158757857Y-107016714D01*
X159710238Y-106683380D02*
X160043571Y-107683380D01*
X160376904Y-106683380D01*
X161234047Y-107683380D02*
X160662619Y-107683380D01*
X160948333Y-107683380D02*
X160948333Y-106683380D01*
X160853095Y-106826238D01*
X160757857Y-106921476D01*
X160662619Y-106969095D01*
X158432666Y-124293380D02*
X157956476Y-124293380D01*
X157908857Y-124769571D01*
X157956476Y-124721952D01*
X158051714Y-124674333D01*
X158289809Y-124674333D01*
X158385047Y-124721952D01*
X158432666Y-124769571D01*
X158480285Y-124864809D01*
X158480285Y-125102904D01*
X158432666Y-125198142D01*
X158385047Y-125245761D01*
X158289809Y-125293380D01*
X158051714Y-125293380D01*
X157956476Y-125245761D01*
X157908857Y-125198142D01*
X158766000Y-124293380D02*
X159099333Y-125293380D01*
X159432666Y-124293380D01*
X160527904Y-125293380D02*
X160527904Y-124293380D01*
X161004095Y-125293380D02*
X161004095Y-124293380D01*
X161575523Y-125293380D01*
X161575523Y-124293380D01*
X166743142Y-110942380D02*
X166171714Y-110942380D01*
X166457428Y-110942380D02*
X166457428Y-109942380D01*
X166362190Y-110085238D01*
X166266952Y-110180476D01*
X166171714Y-110228095D01*
X167362190Y-109942380D02*
X167457428Y-109942380D01*
X167552666Y-109990000D01*
X167600285Y-110037619D01*
X167647904Y-110132857D01*
X167695523Y-110323333D01*
X167695523Y-110561428D01*
X167647904Y-110751904D01*
X167600285Y-110847142D01*
X167552666Y-110894761D01*
X167457428Y-110942380D01*
X167362190Y-110942380D01*
X167266952Y-110894761D01*
X167219333Y-110847142D01*
X167171714Y-110751904D01*
X167124095Y-110561428D01*
X167124095Y-110323333D01*
X167171714Y-110132857D01*
X167219333Y-110037619D01*
X167266952Y-109990000D01*
X167362190Y-109942380D01*
X168552666Y-110275714D02*
X168552666Y-110942380D01*
X168124095Y-110275714D02*
X168124095Y-110799523D01*
X168171714Y-110894761D01*
X168266952Y-110942380D01*
X168409809Y-110942380D01*
X168505047Y-110894761D01*
X168552666Y-110847142D01*
X155519666Y-86812380D02*
X155519666Y-85812380D01*
X155853000Y-86526666D01*
X156186333Y-85812380D01*
X156186333Y-86812380D01*
X156805380Y-86812380D02*
X156710142Y-86764761D01*
X156662523Y-86717142D01*
X156614904Y-86621904D01*
X156614904Y-86336190D01*
X156662523Y-86240952D01*
X156710142Y-86193333D01*
X156805380Y-86145714D01*
X156948238Y-86145714D01*
X157043476Y-86193333D01*
X157091095Y-86240952D01*
X157138714Y-86336190D01*
X157138714Y-86621904D01*
X157091095Y-86717142D01*
X157043476Y-86764761D01*
X156948238Y-86812380D01*
X156805380Y-86812380D01*
X157424428Y-86145714D02*
X157805380Y-86145714D01*
X157567285Y-85812380D02*
X157567285Y-86669523D01*
X157614904Y-86764761D01*
X157710142Y-86812380D01*
X157805380Y-86812380D01*
X158281571Y-86812380D02*
X158186333Y-86764761D01*
X158138714Y-86717142D01*
X158091095Y-86621904D01*
X158091095Y-86336190D01*
X158138714Y-86240952D01*
X158186333Y-86193333D01*
X158281571Y-86145714D01*
X158424428Y-86145714D01*
X158519666Y-86193333D01*
X158567285Y-86240952D01*
X158614904Y-86336190D01*
X158614904Y-86621904D01*
X158567285Y-86717142D01*
X158519666Y-86764761D01*
X158424428Y-86812380D01*
X158281571Y-86812380D01*
X159043476Y-86812380D02*
X159043476Y-86145714D01*
X159043476Y-86336190D02*
X159091095Y-86240952D01*
X159138714Y-86193333D01*
X159233952Y-86145714D01*
X159329190Y-86145714D01*
X170553142Y-103576380D02*
X169981714Y-103576380D01*
X170267428Y-103576380D02*
X170267428Y-102576380D01*
X170172190Y-102719238D01*
X170076952Y-102814476D01*
X169981714Y-102862095D01*
X171172190Y-102576380D02*
X171267428Y-102576380D01*
X171362666Y-102624000D01*
X171410285Y-102671619D01*
X171457904Y-102766857D01*
X171505523Y-102957333D01*
X171505523Y-103195428D01*
X171457904Y-103385904D01*
X171410285Y-103481142D01*
X171362666Y-103528761D01*
X171267428Y-103576380D01*
X171172190Y-103576380D01*
X171076952Y-103528761D01*
X171029333Y-103481142D01*
X170981714Y-103385904D01*
X170934095Y-103195428D01*
X170934095Y-102957333D01*
X170981714Y-102766857D01*
X171029333Y-102671619D01*
X171076952Y-102624000D01*
X171172190Y-102576380D01*
X172362666Y-102909714D02*
X172362666Y-103576380D01*
X171934095Y-102909714D02*
X171934095Y-103433523D01*
X171981714Y-103528761D01*
X172076952Y-103576380D01*
X172219809Y-103576380D01*
X172315047Y-103528761D01*
X172362666Y-103481142D01*
X173855142Y-101798380D02*
X173283714Y-101798380D01*
X173569428Y-101798380D02*
X173569428Y-100798380D01*
X173474190Y-100941238D01*
X173378952Y-101036476D01*
X173283714Y-101084095D01*
X174474190Y-100798380D02*
X174569428Y-100798380D01*
X174664666Y-100846000D01*
X174712285Y-100893619D01*
X174759904Y-100988857D01*
X174807523Y-101179333D01*
X174807523Y-101417428D01*
X174759904Y-101607904D01*
X174712285Y-101703142D01*
X174664666Y-101750761D01*
X174569428Y-101798380D01*
X174474190Y-101798380D01*
X174378952Y-101750761D01*
X174331333Y-101703142D01*
X174283714Y-101607904D01*
X174236095Y-101417428D01*
X174236095Y-101179333D01*
X174283714Y-100988857D01*
X174331333Y-100893619D01*
X174378952Y-100846000D01*
X174474190Y-100798380D01*
X175236095Y-101131714D02*
X175236095Y-101798380D01*
X175236095Y-101226952D02*
X175283714Y-101179333D01*
X175378952Y-101131714D01*
X175521809Y-101131714D01*
X175617047Y-101179333D01*
X175664666Y-101274571D01*
X175664666Y-101798380D01*
X174553714Y-107751619D02*
X174601333Y-107704000D01*
X174696571Y-107656380D01*
X174934666Y-107656380D01*
X175029904Y-107704000D01*
X175077523Y-107751619D01*
X175125142Y-107846857D01*
X175125142Y-107942095D01*
X175077523Y-108084952D01*
X174506095Y-108656380D01*
X175125142Y-108656380D01*
X175506095Y-107751619D02*
X175553714Y-107704000D01*
X175648952Y-107656380D01*
X175887047Y-107656380D01*
X175982285Y-107704000D01*
X176029904Y-107751619D01*
X176077523Y-107846857D01*
X176077523Y-107942095D01*
X176029904Y-108084952D01*
X175458476Y-108656380D01*
X176077523Y-108656380D01*
X176934666Y-107989714D02*
X176934666Y-108656380D01*
X176506095Y-107989714D02*
X176506095Y-108513523D01*
X176553714Y-108608761D01*
X176648952Y-108656380D01*
X176791809Y-108656380D01*
X176887047Y-108608761D01*
X176934666Y-108561142D01*
X164187333Y-113863380D02*
X163615904Y-113863380D01*
X163901619Y-113863380D02*
X163901619Y-112863380D01*
X163806380Y-113006238D01*
X163711142Y-113101476D01*
X163615904Y-113149095D01*
X164806380Y-112863380D02*
X164901619Y-112863380D01*
X164996857Y-112911000D01*
X165044476Y-112958619D01*
X165092095Y-113053857D01*
X165139714Y-113244333D01*
X165139714Y-113482428D01*
X165092095Y-113672904D01*
X165044476Y-113768142D01*
X164996857Y-113815761D01*
X164901619Y-113863380D01*
X164806380Y-113863380D01*
X164711142Y-113815761D01*
X164663523Y-113768142D01*
X164615904Y-113672904D01*
X164568285Y-113482428D01*
X164568285Y-113244333D01*
X164615904Y-113053857D01*
X164663523Y-112958619D01*
X164711142Y-112911000D01*
X164806380Y-112863380D01*
X165758761Y-112863380D02*
X165854000Y-112863380D01*
X165949238Y-112911000D01*
X165996857Y-112958619D01*
X166044476Y-113053857D01*
X166092095Y-113244333D01*
X166092095Y-113482428D01*
X166044476Y-113672904D01*
X165996857Y-113768142D01*
X165949238Y-113815761D01*
X165854000Y-113863380D01*
X165758761Y-113863380D01*
X165663523Y-113815761D01*
X165615904Y-113768142D01*
X165568285Y-113672904D01*
X165520666Y-113482428D01*
X165520666Y-113244333D01*
X165568285Y-113053857D01*
X165615904Y-112958619D01*
X165663523Y-112911000D01*
X165758761Y-112863380D01*
X166520666Y-113863380D02*
X166520666Y-112863380D01*
X167092095Y-113863380D02*
X166663523Y-113291952D01*
X167092095Y-112863380D02*
X166520666Y-113434809D01*
X162536333Y-101290380D02*
X161964904Y-101290380D01*
X162250619Y-101290380D02*
X162250619Y-100290380D01*
X162155380Y-100433238D01*
X162060142Y-100528476D01*
X161964904Y-100576095D01*
X163155380Y-100290380D02*
X163250619Y-100290380D01*
X163345857Y-100338000D01*
X163393476Y-100385619D01*
X163441095Y-100480857D01*
X163488714Y-100671333D01*
X163488714Y-100909428D01*
X163441095Y-101099904D01*
X163393476Y-101195142D01*
X163345857Y-101242761D01*
X163250619Y-101290380D01*
X163155380Y-101290380D01*
X163060142Y-101242761D01*
X163012523Y-101195142D01*
X162964904Y-101099904D01*
X162917285Y-100909428D01*
X162917285Y-100671333D01*
X162964904Y-100480857D01*
X163012523Y-100385619D01*
X163060142Y-100338000D01*
X163155380Y-100290380D01*
X164107761Y-100290380D02*
X164203000Y-100290380D01*
X164298238Y-100338000D01*
X164345857Y-100385619D01*
X164393476Y-100480857D01*
X164441095Y-100671333D01*
X164441095Y-100909428D01*
X164393476Y-101099904D01*
X164345857Y-101195142D01*
X164298238Y-101242761D01*
X164203000Y-101290380D01*
X164107761Y-101290380D01*
X164012523Y-101242761D01*
X163964904Y-101195142D01*
X163917285Y-101099904D01*
X163869666Y-100909428D01*
X163869666Y-100671333D01*
X163917285Y-100480857D01*
X163964904Y-100385619D01*
X164012523Y-100338000D01*
X164107761Y-100290380D01*
X164869666Y-101290380D02*
X164869666Y-100290380D01*
X165441095Y-101290380D02*
X165012523Y-100718952D01*
X165441095Y-100290380D02*
X164869666Y-100861809D01*
X162631523Y-94940380D02*
X162060095Y-94940380D01*
X162345809Y-94940380D02*
X162345809Y-93940380D01*
X162250571Y-94083238D01*
X162155333Y-94178476D01*
X162060095Y-94226095D01*
X163250571Y-93940380D02*
X163345809Y-93940380D01*
X163441047Y-93988000D01*
X163488666Y-94035619D01*
X163536285Y-94130857D01*
X163583904Y-94321333D01*
X163583904Y-94559428D01*
X163536285Y-94749904D01*
X163488666Y-94845142D01*
X163441047Y-94892761D01*
X163345809Y-94940380D01*
X163250571Y-94940380D01*
X163155333Y-94892761D01*
X163107714Y-94845142D01*
X163060095Y-94749904D01*
X163012476Y-94559428D01*
X163012476Y-94321333D01*
X163060095Y-94130857D01*
X163107714Y-94035619D01*
X163155333Y-93988000D01*
X163250571Y-93940380D01*
X164012476Y-94940380D02*
X164012476Y-93940380D01*
X164583904Y-94940380D02*
X164155333Y-94368952D01*
X164583904Y-93940380D02*
X164012476Y-94511809D01*
X157496095Y-110307380D02*
X156924666Y-110307380D01*
X157210380Y-110307380D02*
X157210380Y-109307380D01*
X157115142Y-109450238D01*
X157019904Y-109545476D01*
X156924666Y-109593095D01*
X157877047Y-109402619D02*
X157924666Y-109355000D01*
X158019904Y-109307380D01*
X158258000Y-109307380D01*
X158353238Y-109355000D01*
X158400857Y-109402619D01*
X158448476Y-109497857D01*
X158448476Y-109593095D01*
X158400857Y-109735952D01*
X157829428Y-110307380D01*
X158448476Y-110307380D01*
X158734190Y-109307380D02*
X159067523Y-110307380D01*
X159400857Y-109307380D01*
X160496095Y-110307380D02*
X160496095Y-109307380D01*
X160972285Y-110307380D02*
X160972285Y-109307380D01*
X161543714Y-110307380D01*
X161543714Y-109307380D01*
X172767857Y-124769571D02*
X172910714Y-124817190D01*
X172958333Y-124864809D01*
X173005952Y-124960047D01*
X173005952Y-125102904D01*
X172958333Y-125198142D01*
X172910714Y-125245761D01*
X172815476Y-125293380D01*
X172434523Y-125293380D01*
X172434523Y-124293380D01*
X172767857Y-124293380D01*
X172863095Y-124341000D01*
X172910714Y-124388619D01*
X172958333Y-124483857D01*
X172958333Y-124579095D01*
X172910714Y-124674333D01*
X172863095Y-124721952D01*
X172767857Y-124769571D01*
X172434523Y-124769571D01*
X173863095Y-124626714D02*
X173863095Y-125293380D01*
X173434523Y-124626714D02*
X173434523Y-125150523D01*
X173482142Y-125245761D01*
X173577380Y-125293380D01*
X173720238Y-125293380D01*
X173815476Y-125245761D01*
X173863095Y-125198142D01*
X174196428Y-124626714D02*
X174577380Y-124626714D01*
X174339285Y-124293380D02*
X174339285Y-125150523D01*
X174386904Y-125245761D01*
X174482142Y-125293380D01*
X174577380Y-125293380D01*
X174767857Y-124626714D02*
X175148809Y-124626714D01*
X174910714Y-124293380D02*
X174910714Y-125150523D01*
X174958333Y-125245761D01*
X175053571Y-125293380D01*
X175148809Y-125293380D01*
X175625000Y-125293380D02*
X175529761Y-125245761D01*
X175482142Y-125198142D01*
X175434523Y-125102904D01*
X175434523Y-124817190D01*
X175482142Y-124721952D01*
X175529761Y-124674333D01*
X175625000Y-124626714D01*
X175767857Y-124626714D01*
X175863095Y-124674333D01*
X175910714Y-124721952D01*
X175958333Y-124817190D01*
X175958333Y-125102904D01*
X175910714Y-125198142D01*
X175863095Y-125245761D01*
X175767857Y-125293380D01*
X175625000Y-125293380D01*
X176386904Y-124626714D02*
X176386904Y-125293380D01*
X176386904Y-124721952D02*
X176434523Y-124674333D01*
X176529761Y-124626714D01*
X176672619Y-124626714D01*
X176767857Y-124674333D01*
X176815476Y-124769571D01*
X176815476Y-125293380D01*
X176014238Y-116022380D02*
X175442809Y-116022380D01*
X175728523Y-116022380D02*
X175728523Y-115022380D01*
X175633285Y-115165238D01*
X175538047Y-115260476D01*
X175442809Y-115308095D01*
X176490428Y-116022380D02*
X176680904Y-116022380D01*
X176776142Y-115974761D01*
X176823761Y-115927142D01*
X176919000Y-115784285D01*
X176966619Y-115593809D01*
X176966619Y-115212857D01*
X176919000Y-115117619D01*
X176871380Y-115070000D01*
X176776142Y-115022380D01*
X176585666Y-115022380D01*
X176490428Y-115070000D01*
X176442809Y-115117619D01*
X176395190Y-115212857D01*
X176395190Y-115450952D01*
X176442809Y-115546190D01*
X176490428Y-115593809D01*
X176585666Y-115641428D01*
X176776142Y-115641428D01*
X176871380Y-115593809D01*
X176919000Y-115546190D01*
X176966619Y-115450952D01*
X177395190Y-115927142D02*
X177442809Y-115974761D01*
X177395190Y-116022380D01*
X177347571Y-115974761D01*
X177395190Y-115927142D01*
X177395190Y-116022380D01*
X178395190Y-116022380D02*
X177823761Y-116022380D01*
X178109476Y-116022380D02*
X178109476Y-115022380D01*
X178014238Y-115165238D01*
X177919000Y-115260476D01*
X177823761Y-115308095D01*
X178823761Y-116022380D02*
X178823761Y-115022380D01*
X179395190Y-116022380D02*
X178966619Y-115450952D01*
X179395190Y-115022380D02*
X178823761Y-115593809D01*
X171775523Y-91130380D02*
X171204095Y-91130380D01*
X171489809Y-91130380D02*
X171489809Y-90130380D01*
X171394571Y-90273238D01*
X171299333Y-90368476D01*
X171204095Y-90416095D01*
X172394571Y-90130380D02*
X172489809Y-90130380D01*
X172585047Y-90178000D01*
X172632666Y-90225619D01*
X172680285Y-90320857D01*
X172727904Y-90511333D01*
X172727904Y-90749428D01*
X172680285Y-90939904D01*
X172632666Y-91035142D01*
X172585047Y-91082761D01*
X172489809Y-91130380D01*
X172394571Y-91130380D01*
X172299333Y-91082761D01*
X172251714Y-91035142D01*
X172204095Y-90939904D01*
X172156476Y-90749428D01*
X172156476Y-90511333D01*
X172204095Y-90320857D01*
X172251714Y-90225619D01*
X172299333Y-90178000D01*
X172394571Y-90130380D01*
X173156476Y-91130380D02*
X173156476Y-90130380D01*
X173727904Y-91130380D02*
X173299333Y-90558952D01*
X173727904Y-90130380D02*
X173156476Y-90701809D01*
X165965333Y-116022380D02*
X165393904Y-116022380D01*
X165679619Y-116022380D02*
X165679619Y-115022380D01*
X165584380Y-115165238D01*
X165489142Y-115260476D01*
X165393904Y-115308095D01*
X166584380Y-115022380D02*
X166679619Y-115022380D01*
X166774857Y-115070000D01*
X166822476Y-115117619D01*
X166870095Y-115212857D01*
X166917714Y-115403333D01*
X166917714Y-115641428D01*
X166870095Y-115831904D01*
X166822476Y-115927142D01*
X166774857Y-115974761D01*
X166679619Y-116022380D01*
X166584380Y-116022380D01*
X166489142Y-115974761D01*
X166441523Y-115927142D01*
X166393904Y-115831904D01*
X166346285Y-115641428D01*
X166346285Y-115403333D01*
X166393904Y-115212857D01*
X166441523Y-115117619D01*
X166489142Y-115070000D01*
X166584380Y-115022380D01*
X167536761Y-115022380D02*
X167632000Y-115022380D01*
X167727238Y-115070000D01*
X167774857Y-115117619D01*
X167822476Y-115212857D01*
X167870095Y-115403333D01*
X167870095Y-115641428D01*
X167822476Y-115831904D01*
X167774857Y-115927142D01*
X167727238Y-115974761D01*
X167632000Y-116022380D01*
X167536761Y-116022380D01*
X167441523Y-115974761D01*
X167393904Y-115927142D01*
X167346285Y-115831904D01*
X167298666Y-115641428D01*
X167298666Y-115403333D01*
X167346285Y-115212857D01*
X167393904Y-115117619D01*
X167441523Y-115070000D01*
X167536761Y-115022380D01*
X168298666Y-116022380D02*
X168298666Y-115022380D01*
X168870095Y-116022380D02*
X168441523Y-115450952D01*
X168870095Y-115022380D02*
X168298666Y-115593809D01*
%TO.C,J2*%
X169846666Y-124547380D02*
X169846666Y-125261666D01*
X169799047Y-125404523D01*
X169703809Y-125499761D01*
X169560952Y-125547380D01*
X169465714Y-125547380D01*
X170275238Y-124642619D02*
X170322857Y-124595000D01*
X170418095Y-124547380D01*
X170656190Y-124547380D01*
X170751428Y-124595000D01*
X170799047Y-124642619D01*
X170846666Y-124737857D01*
X170846666Y-124833095D01*
X170799047Y-124975952D01*
X170227619Y-125547380D01*
X170846666Y-125547380D01*
%TO.C,C4*%
X169251333Y-102211142D02*
X169203714Y-102258761D01*
X169060857Y-102306380D01*
X168965619Y-102306380D01*
X168822761Y-102258761D01*
X168727523Y-102163523D01*
X168679904Y-102068285D01*
X168632285Y-101877809D01*
X168632285Y-101734952D01*
X168679904Y-101544476D01*
X168727523Y-101449238D01*
X168822761Y-101354000D01*
X168965619Y-101306380D01*
X169060857Y-101306380D01*
X169203714Y-101354000D01*
X169251333Y-101401619D01*
X170108476Y-101639714D02*
X170108476Y-102306380D01*
X169870380Y-101258761D02*
X169632285Y-101973047D01*
X170251333Y-101973047D01*
%TO.C,Q1*%
X158654761Y-98694119D02*
X158559523Y-98646500D01*
X158464285Y-98551261D01*
X158321428Y-98408404D01*
X158226190Y-98360785D01*
X158130952Y-98360785D01*
X158178571Y-98598880D02*
X158083333Y-98551261D01*
X157988095Y-98456023D01*
X157940476Y-98265547D01*
X157940476Y-97932214D01*
X157988095Y-97741738D01*
X158083333Y-97646500D01*
X158178571Y-97598880D01*
X158369047Y-97598880D01*
X158464285Y-97646500D01*
X158559523Y-97741738D01*
X158607142Y-97932214D01*
X158607142Y-98265547D01*
X158559523Y-98456023D01*
X158464285Y-98551261D01*
X158369047Y-98598880D01*
X158178571Y-98598880D01*
X159559523Y-98598880D02*
X158988095Y-98598880D01*
X159273809Y-98598880D02*
X159273809Y-97598880D01*
X159178571Y-97741738D01*
X159083333Y-97836976D01*
X158988095Y-97884595D01*
%TO.C,J3*%
X153971666Y-124547380D02*
X153971666Y-125261666D01*
X153924047Y-125404523D01*
X153828809Y-125499761D01*
X153685952Y-125547380D01*
X153590714Y-125547380D01*
X154352619Y-124547380D02*
X154971666Y-124547380D01*
X154638333Y-124928333D01*
X154781190Y-124928333D01*
X154876428Y-124975952D01*
X154924047Y-125023571D01*
X154971666Y-125118809D01*
X154971666Y-125356904D01*
X154924047Y-125452142D01*
X154876428Y-125499761D01*
X154781190Y-125547380D01*
X154495476Y-125547380D01*
X154400238Y-125499761D01*
X154352619Y-125452142D01*
%TO.C,R5*%
X166330333Y-104592380D02*
X165997000Y-104116190D01*
X165758904Y-104592380D02*
X165758904Y-103592380D01*
X166139857Y-103592380D01*
X166235095Y-103640000D01*
X166282714Y-103687619D01*
X166330333Y-103782857D01*
X166330333Y-103925714D01*
X166282714Y-104020952D01*
X166235095Y-104068571D01*
X166139857Y-104116190D01*
X165758904Y-104116190D01*
X167235095Y-103592380D02*
X166758904Y-103592380D01*
X166711285Y-104068571D01*
X166758904Y-104020952D01*
X166854142Y-103973333D01*
X167092238Y-103973333D01*
X167187476Y-104020952D01*
X167235095Y-104068571D01*
X167282714Y-104163809D01*
X167282714Y-104401904D01*
X167235095Y-104497142D01*
X167187476Y-104544761D01*
X167092238Y-104592380D01*
X166854142Y-104592380D01*
X166758904Y-104544761D01*
X166711285Y-104497142D01*
%TO.C,R2*%
X173696333Y-116911380D02*
X173363000Y-116435190D01*
X173124904Y-116911380D02*
X173124904Y-115911380D01*
X173505857Y-115911380D01*
X173601095Y-115959000D01*
X173648714Y-116006619D01*
X173696333Y-116101857D01*
X173696333Y-116244714D01*
X173648714Y-116339952D01*
X173601095Y-116387571D01*
X173505857Y-116435190D01*
X173124904Y-116435190D01*
X174077285Y-116006619D02*
X174124904Y-115959000D01*
X174220142Y-115911380D01*
X174458238Y-115911380D01*
X174553476Y-115959000D01*
X174601095Y-116006619D01*
X174648714Y-116101857D01*
X174648714Y-116197095D01*
X174601095Y-116339952D01*
X174029666Y-116911380D01*
X174648714Y-116911380D01*
%TO.C,D1*%
X154835904Y-97226380D02*
X154835904Y-96226380D01*
X155074000Y-96226380D01*
X155216857Y-96274000D01*
X155312095Y-96369238D01*
X155359714Y-96464476D01*
X155407333Y-96654952D01*
X155407333Y-96797809D01*
X155359714Y-96988285D01*
X155312095Y-97083523D01*
X155216857Y-97178761D01*
X155074000Y-97226380D01*
X154835904Y-97226380D01*
X156359714Y-97226380D02*
X155788285Y-97226380D01*
X156074000Y-97226380D02*
X156074000Y-96226380D01*
X155978761Y-96369238D01*
X155883523Y-96464476D01*
X155788285Y-96512095D01*
%TO.C,R6*%
X164933333Y-98115380D02*
X164600000Y-97639190D01*
X164361904Y-98115380D02*
X164361904Y-97115380D01*
X164742857Y-97115380D01*
X164838095Y-97163000D01*
X164885714Y-97210619D01*
X164933333Y-97305857D01*
X164933333Y-97448714D01*
X164885714Y-97543952D01*
X164838095Y-97591571D01*
X164742857Y-97639190D01*
X164361904Y-97639190D01*
X165790476Y-97115380D02*
X165600000Y-97115380D01*
X165504761Y-97163000D01*
X165457142Y-97210619D01*
X165361904Y-97353476D01*
X165314285Y-97543952D01*
X165314285Y-97924904D01*
X165361904Y-98020142D01*
X165409523Y-98067761D01*
X165504761Y-98115380D01*
X165695238Y-98115380D01*
X165790476Y-98067761D01*
X165838095Y-98020142D01*
X165885714Y-97924904D01*
X165885714Y-97686809D01*
X165838095Y-97591571D01*
X165790476Y-97543952D01*
X165695238Y-97496333D01*
X165504761Y-97496333D01*
X165409523Y-97543952D01*
X165361904Y-97591571D01*
X165314285Y-97686809D01*
%TO.C,J1*%
X153971666Y-109307380D02*
X153971666Y-110021666D01*
X153924047Y-110164523D01*
X153828809Y-110259761D01*
X153685952Y-110307380D01*
X153590714Y-110307380D01*
X154971666Y-110307380D02*
X154400238Y-110307380D01*
X154685952Y-110307380D02*
X154685952Y-109307380D01*
X154590714Y-109450238D01*
X154495476Y-109545476D01*
X154400238Y-109593095D01*
%TO.C,J4*%
X161591666Y-87717380D02*
X161591666Y-88431666D01*
X161544047Y-88574523D01*
X161448809Y-88669761D01*
X161305952Y-88717380D01*
X161210714Y-88717380D01*
X162496428Y-88050714D02*
X162496428Y-88717380D01*
X162258333Y-87669761D02*
X162020238Y-88384047D01*
X162639285Y-88384047D01*
%TO.C,C3*%
X171791333Y-107164142D02*
X171743714Y-107211761D01*
X171600857Y-107259380D01*
X171505619Y-107259380D01*
X171362761Y-107211761D01*
X171267523Y-107116523D01*
X171219904Y-107021285D01*
X171172285Y-106830809D01*
X171172285Y-106687952D01*
X171219904Y-106497476D01*
X171267523Y-106402238D01*
X171362761Y-106307000D01*
X171505619Y-106259380D01*
X171600857Y-106259380D01*
X171743714Y-106307000D01*
X171791333Y-106354619D01*
X172124666Y-106259380D02*
X172743714Y-106259380D01*
X172410380Y-106640333D01*
X172553238Y-106640333D01*
X172648476Y-106687952D01*
X172696095Y-106735571D01*
X172743714Y-106830809D01*
X172743714Y-107068904D01*
X172696095Y-107164142D01*
X172648476Y-107211761D01*
X172553238Y-107259380D01*
X172267523Y-107259380D01*
X172172285Y-107211761D01*
X172124666Y-107164142D01*
%TO.C,U1*%
X176530095Y-110958380D02*
X176530095Y-111767904D01*
X176577714Y-111863142D01*
X176625333Y-111910761D01*
X176720571Y-111958380D01*
X176911047Y-111958380D01*
X177006285Y-111910761D01*
X177053904Y-111863142D01*
X177101523Y-111767904D01*
X177101523Y-110958380D01*
X178101523Y-111958380D02*
X177530095Y-111958380D01*
X177815809Y-111958380D02*
X177815809Y-110958380D01*
X177720571Y-111101238D01*
X177625333Y-111196476D01*
X177530095Y-111244095D01*
%TO.C,C1*%
X176744333Y-100179142D02*
X176696714Y-100226761D01*
X176553857Y-100274380D01*
X176458619Y-100274380D01*
X176315761Y-100226761D01*
X176220523Y-100131523D01*
X176172904Y-100036285D01*
X176125285Y-99845809D01*
X176125285Y-99702952D01*
X176172904Y-99512476D01*
X176220523Y-99417238D01*
X176315761Y-99322000D01*
X176458619Y-99274380D01*
X176553857Y-99274380D01*
X176696714Y-99322000D01*
X176744333Y-99369619D01*
X177696714Y-100274380D02*
X177125285Y-100274380D01*
X177411000Y-100274380D02*
X177411000Y-99274380D01*
X177315761Y-99417238D01*
X177220523Y-99512476D01*
X177125285Y-99560095D01*
%TO.C,U2*%
X174498095Y-91781380D02*
X174498095Y-92590904D01*
X174545714Y-92686142D01*
X174593333Y-92733761D01*
X174688571Y-92781380D01*
X174879047Y-92781380D01*
X174974285Y-92733761D01*
X175021904Y-92686142D01*
X175069523Y-92590904D01*
X175069523Y-91781380D01*
X175498095Y-91876619D02*
X175545714Y-91829000D01*
X175640952Y-91781380D01*
X175879047Y-91781380D01*
X175974285Y-91829000D01*
X176021904Y-91876619D01*
X176069523Y-91971857D01*
X176069523Y-92067095D01*
X176021904Y-92209952D01*
X175450476Y-92781380D01*
X176069523Y-92781380D01*
%TO.C,R3*%
X166076333Y-112593380D02*
X165743000Y-112117190D01*
X165504904Y-112593380D02*
X165504904Y-111593380D01*
X165885857Y-111593380D01*
X165981095Y-111641000D01*
X166028714Y-111688619D01*
X166076333Y-111783857D01*
X166076333Y-111926714D01*
X166028714Y-112021952D01*
X165981095Y-112069571D01*
X165885857Y-112117190D01*
X165504904Y-112117190D01*
X166409666Y-111593380D02*
X167028714Y-111593380D01*
X166695380Y-111974333D01*
X166838238Y-111974333D01*
X166933476Y-112021952D01*
X166981095Y-112069571D01*
X167028714Y-112164809D01*
X167028714Y-112402904D01*
X166981095Y-112498142D01*
X166933476Y-112545761D01*
X166838238Y-112593380D01*
X166552523Y-112593380D01*
X166457285Y-112545761D01*
X166409666Y-112498142D01*
%TO.C,R1*%
X170417833Y-116911380D02*
X170084500Y-116435190D01*
X169846404Y-116911380D02*
X169846404Y-115911380D01*
X170227357Y-115911380D01*
X170322595Y-115959000D01*
X170370214Y-116006619D01*
X170417833Y-116101857D01*
X170417833Y-116244714D01*
X170370214Y-116339952D01*
X170322595Y-116387571D01*
X170227357Y-116435190D01*
X169846404Y-116435190D01*
X171370214Y-116911380D02*
X170798785Y-116911380D01*
X171084500Y-116911380D02*
X171084500Y-115911380D01*
X170989261Y-116054238D01*
X170894023Y-116149476D01*
X170798785Y-116197095D01*
%TO.C,R4*%
X169759333Y-92654380D02*
X169426000Y-92178190D01*
X169187904Y-92654380D02*
X169187904Y-91654380D01*
X169568857Y-91654380D01*
X169664095Y-91702000D01*
X169711714Y-91749619D01*
X169759333Y-91844857D01*
X169759333Y-91987714D01*
X169711714Y-92082952D01*
X169664095Y-92130571D01*
X169568857Y-92178190D01*
X169187904Y-92178190D01*
X170616476Y-91987714D02*
X170616476Y-92654380D01*
X170378380Y-91606761D02*
X170140285Y-92321047D01*
X170759333Y-92321047D01*
%TO.C,C2*%
X167600333Y-109577142D02*
X167552714Y-109624761D01*
X167409857Y-109672380D01*
X167314619Y-109672380D01*
X167171761Y-109624761D01*
X167076523Y-109529523D01*
X167028904Y-109434285D01*
X166981285Y-109243809D01*
X166981285Y-109100952D01*
X167028904Y-108910476D01*
X167076523Y-108815238D01*
X167171761Y-108720000D01*
X167314619Y-108672380D01*
X167409857Y-108672380D01*
X167552714Y-108720000D01*
X167600333Y-108767619D01*
X167981285Y-108767619D02*
X168028904Y-108720000D01*
X168124142Y-108672380D01*
X168362238Y-108672380D01*
X168457476Y-108720000D01*
X168505095Y-108767619D01*
X168552714Y-108862857D01*
X168552714Y-108958095D01*
X168505095Y-109100952D01*
X167933666Y-109672380D01*
X168552714Y-109672380D01*
D11*
%TO.C,J2*%
X169605000Y-123635000D02*
X179725000Y-123635000D01*
X171415000Y-122875000D02*
X169615000Y-122875000D01*
X180015000Y-123925000D02*
X180015000Y-122675000D01*
X178965000Y-118425000D02*
X174665000Y-118425000D01*
X169605000Y-117665000D02*
X169605000Y-123635000D01*
X172915000Y-123625000D02*
X176415000Y-123625000D01*
X169615000Y-123625000D02*
X171415000Y-123625000D01*
X179725000Y-123635000D02*
X179725000Y-117665000D01*
X170365000Y-118425000D02*
X174665000Y-118425000D01*
X177915000Y-122875000D02*
X177915000Y-123625000D01*
X178965000Y-121375000D02*
X178965000Y-118425000D01*
X179715000Y-121375000D02*
X178965000Y-121375000D01*
X170365000Y-121375000D02*
X170365000Y-118425000D01*
X171415000Y-123625000D02*
X171415000Y-122875000D01*
X172915000Y-122875000D02*
X172915000Y-123625000D01*
X176415000Y-123625000D02*
X176415000Y-122875000D01*
X169615000Y-122875000D02*
X169615000Y-123625000D01*
X177915000Y-123625000D02*
X179715000Y-123625000D01*
X179715000Y-122875000D02*
X177915000Y-122875000D01*
X176415000Y-122875000D02*
X172915000Y-122875000D01*
X178765000Y-123925000D02*
X180015000Y-123925000D01*
X179715000Y-123625000D02*
X179715000Y-122875000D01*
X169615000Y-121375000D02*
X170365000Y-121375000D01*
X179725000Y-117665000D02*
X169605000Y-117665000D01*
%TO.C,C4*%
X170461000Y-100637748D02*
X170461000Y-101160252D01*
X171931000Y-100637748D02*
X171931000Y-101160252D01*
%TO.C,Q1*%
X160274000Y-98159000D02*
X159624000Y-98159000D01*
X160274000Y-98159000D02*
X161949000Y-98159000D01*
X160274000Y-95039000D02*
X159624000Y-95039000D01*
X160274000Y-95039000D02*
X160924000Y-95039000D01*
%TO.C,J3*%
X156405000Y-123735000D02*
X159905000Y-123735000D01*
X153105000Y-123735000D02*
X154905000Y-123735000D01*
X163205000Y-123735000D02*
X163205000Y-122985000D01*
X163205000Y-122985000D02*
X161405000Y-122985000D01*
X153105000Y-122985000D02*
X153105000Y-123735000D01*
X162455000Y-121485000D02*
X162455000Y-118535000D01*
X163215000Y-117775000D02*
X153095000Y-117775000D01*
X156405000Y-122985000D02*
X156405000Y-123735000D01*
X161405000Y-123735000D02*
X163205000Y-123735000D01*
X162255000Y-124035000D02*
X163505000Y-124035000D01*
X159905000Y-123735000D02*
X159905000Y-122985000D01*
X163505000Y-124035000D02*
X163505000Y-122785000D01*
X163215000Y-123745000D02*
X163215000Y-117775000D01*
X153105000Y-121485000D02*
X153855000Y-121485000D01*
X154905000Y-123735000D02*
X154905000Y-122985000D01*
X162455000Y-118535000D02*
X158155000Y-118535000D01*
X153095000Y-117775000D02*
X153095000Y-123745000D01*
X153855000Y-121485000D02*
X153855000Y-118535000D01*
X154905000Y-122985000D02*
X153105000Y-122985000D01*
X159905000Y-122985000D02*
X156405000Y-122985000D01*
X163205000Y-121485000D02*
X162455000Y-121485000D01*
X153855000Y-118535000D02*
X158155000Y-118535000D01*
X153095000Y-123745000D02*
X163215000Y-123745000D01*
X161405000Y-122985000D02*
X161405000Y-123735000D01*
%TO.C,R5*%
X167232000Y-101396436D02*
X167232000Y-101850564D01*
X165762000Y-101396436D02*
X165762000Y-101850564D01*
%TO.C,R2*%
X173635936Y-114200000D02*
X174090064Y-114200000D01*
X173635936Y-115670000D02*
X174090064Y-115670000D01*
D12*
%TO.C,D1*%
X156498999Y-94869000D02*
X156498999Y-95419000D01*
D11*
X154595000Y-93869000D02*
X154595000Y-95869000D01*
D12*
X156498999Y-94869000D02*
X156498999Y-94319000D01*
D11*
X154595000Y-93869000D02*
X158495000Y-93869000D01*
D12*
X156098999Y-94869000D02*
X156498999Y-94869000D01*
X156498999Y-94869000D02*
X157099000Y-94469000D01*
X157099000Y-94469000D02*
X157099000Y-95269000D01*
X157099000Y-94869000D02*
X157598999Y-94869000D01*
D11*
X154595000Y-95869000D02*
X158495000Y-95869000D01*
D12*
X157099000Y-95269000D02*
X156498999Y-94869000D01*
D11*
%TO.C,R6*%
X164057000Y-96849564D02*
X164057000Y-96395436D01*
X162587000Y-96849564D02*
X162587000Y-96395436D01*
%TO.C,J1*%
X161405000Y-116000000D02*
X161405000Y-116750000D01*
X153105000Y-116000000D02*
X153105000Y-116750000D01*
X153105000Y-114500000D02*
X153855000Y-114500000D01*
X153105000Y-116750000D02*
X154905000Y-116750000D01*
X163215000Y-116760000D02*
X163215000Y-110790000D01*
X163205000Y-116750000D02*
X163205000Y-116000000D01*
X156405000Y-116750000D02*
X159905000Y-116750000D01*
X163205000Y-114500000D02*
X162455000Y-114500000D01*
X163205000Y-116000000D02*
X161405000Y-116000000D01*
X162255000Y-117050000D02*
X163505000Y-117050000D01*
X163505000Y-117050000D02*
X163505000Y-115800000D01*
X161405000Y-116750000D02*
X163205000Y-116750000D01*
X153855000Y-114500000D02*
X153855000Y-111550000D01*
X153095000Y-110790000D02*
X153095000Y-116760000D01*
X159905000Y-116750000D02*
X159905000Y-116000000D01*
X154905000Y-116750000D02*
X154905000Y-116000000D01*
X156405000Y-116000000D02*
X156405000Y-116750000D01*
X153855000Y-111550000D02*
X158155000Y-111550000D01*
X154905000Y-116000000D02*
X153105000Y-116000000D01*
X162455000Y-114500000D02*
X162455000Y-111550000D01*
X163215000Y-110790000D02*
X153095000Y-110790000D01*
X159905000Y-116000000D02*
X156405000Y-116000000D01*
X162455000Y-111550000D02*
X158155000Y-111550000D01*
X153095000Y-116760000D02*
X163215000Y-116760000D01*
%TO.C,J4*%
X153815000Y-88055000D02*
X156865000Y-88055000D01*
X157365000Y-92505000D02*
X156365000Y-92505000D01*
X153065000Y-93255000D02*
X154865000Y-93255000D01*
X159715000Y-93555000D02*
X160965000Y-93555000D01*
X159915000Y-91005000D02*
X159915000Y-88055000D01*
X153065000Y-91005000D02*
X153815000Y-91005000D01*
X158865000Y-92505000D02*
X158865000Y-93255000D01*
X153065000Y-92505000D02*
X153065000Y-93255000D01*
X159915000Y-88055000D02*
X156865000Y-88055000D01*
X160665000Y-93255000D02*
X160665000Y-92505000D01*
X153815000Y-91005000D02*
X153815000Y-88055000D01*
X157365000Y-93255000D02*
X157365000Y-92505000D01*
X154865000Y-92505000D02*
X153065000Y-92505000D01*
X160675000Y-93265000D02*
X160675000Y-87295000D01*
X153055000Y-87295000D02*
X153055000Y-93265000D01*
X156365000Y-93255000D02*
X157365000Y-93255000D01*
X153055000Y-93265000D02*
X160675000Y-93265000D01*
X158865000Y-93255000D02*
X160665000Y-93255000D01*
X160665000Y-92505000D02*
X158865000Y-92505000D01*
X160965000Y-93555000D02*
X160965000Y-92305000D01*
X160665000Y-91005000D02*
X159915000Y-91005000D01*
X156365000Y-92505000D02*
X156365000Y-93255000D01*
X154865000Y-93255000D02*
X154865000Y-92505000D01*
X160675000Y-87295000D02*
X153055000Y-87295000D01*
%TO.C,C3*%
X172943752Y-107596000D02*
X172421248Y-107596000D01*
X172943752Y-109066000D02*
X172421248Y-109066000D01*
D13*
%TO.C,U1*%
X176185195Y-109702600D02*
X176185195Y-113055400D01*
D11*
X171219495Y-113411000D02*
G75*
G03*
X171219495Y-113411000I-254000J0D01*
G01*
%TO.C,C1*%
X173921748Y-100557000D02*
X174444252Y-100557000D01*
X173921748Y-99087000D02*
X174444252Y-99087000D01*
%TO.C,U2*%
X172466000Y-98445000D02*
X170516000Y-98445000D01*
X172466000Y-93325000D02*
X174416000Y-93325000D01*
X172466000Y-93325000D02*
X169016000Y-93325000D01*
X172466000Y-98445000D02*
X174416000Y-98445000D01*
X168656000Y-93980000D02*
G75*
G03*
X168656000Y-93980000I-381000J0D01*
G01*
%TO.C,R3*%
X169010064Y-112168000D02*
X168555936Y-112168000D01*
X169010064Y-113638000D02*
X168555936Y-113638000D01*
%TO.C,R1*%
X170206936Y-115670000D02*
X170661064Y-115670000D01*
X170206936Y-114200000D02*
X170661064Y-114200000D01*
%TO.C,R4*%
X172693064Y-92937000D02*
X172238936Y-92937000D01*
X172693064Y-91467000D02*
X172238936Y-91467000D01*
%TO.C,C2*%
X170176500Y-110436252D02*
X170176500Y-109913748D01*
X168706500Y-110436252D02*
X168706500Y-109913748D01*
%TD*%
M02*
