%TF.GenerationSoftware,KiCad,Pcbnew,(6.0.6)*%
%TF.CreationDate,2023-03-16T19:41:57-05:00*%
%TF.ProjectId,Magic_Wand_Timer,4d616769-635f-4576-916e-645f54696d65,rev?*%
%TF.SameCoordinates,Original*%
%TF.FileFunction,Soldermask,Top*%
%TF.FilePolarity,Negative*%
%FSLAX46Y46*%
G04 Gerber Fmt 4.6, Leading zero omitted, Abs format (unit mm)*
G04 Created by KiCad (PCBNEW (6.0.6)) date 2023-03-16 19:41:57*
%MOMM*%
%LPD*%
G01*
G04 APERTURE LIST*
G04 Aperture macros list*
%AMRoundRect*
0 Rectangle with rounded corners*
0 $1 Rounding radius*
0 $2 $3 $4 $5 $6 $7 $8 $9 X,Y pos of 4 corners*
0 Add a 4 corners polygon primitive as box body*
4,1,4,$2,$3,$4,$5,$6,$7,$8,$9,$2,$3,0*
0 Add four circle primitives for the rounded corners*
1,1,$1+$1,$2,$3*
1,1,$1+$1,$4,$5*
1,1,$1+$1,$6,$7*
1,1,$1+$1,$8,$9*
0 Add four rect primitives between the rounded corners*
20,1,$1+$1,$2,$3,$4,$5,0*
20,1,$1+$1,$4,$5,$6,$7,0*
20,1,$1+$1,$6,$7,$8,$9,0*
20,1,$1+$1,$8,$9,$2,$3,0*%
G04 Aperture macros list end*
%ADD10R,1.700000X1.700000*%
%ADD11O,1.700000X1.700000*%
%ADD12RoundRect,0.250000X-0.475000X0.250000X-0.475000X-0.250000X0.475000X-0.250000X0.475000X0.250000X0*%
%ADD13RoundRect,0.150000X0.587500X0.150000X-0.587500X0.150000X-0.587500X-0.150000X0.587500X-0.150000X0*%
%ADD14C,5.000000*%
%ADD15RoundRect,0.250000X-0.450000X0.262500X-0.450000X-0.262500X0.450000X-0.262500X0.450000X0.262500X0*%
%ADD16RoundRect,0.250000X-0.262500X-0.450000X0.262500X-0.450000X0.262500X0.450000X-0.262500X0.450000X0*%
%ADD17R,0.900000X1.200000*%
%ADD18RoundRect,0.250000X0.450000X-0.262500X0.450000X0.262500X-0.450000X0.262500X-0.450000X-0.262500X0*%
%ADD19RoundRect,0.250000X0.600000X0.750000X-0.600000X0.750000X-0.600000X-0.750000X0.600000X-0.750000X0*%
%ADD20O,1.700000X2.000000*%
%ADD21RoundRect,0.250000X0.250000X0.475000X-0.250000X0.475000X-0.250000X-0.475000X0.250000X-0.475000X0*%
%ADD22R,0.254000X0.812800*%
%ADD23R,0.304800X1.092200*%
%ADD24R,0.254000X0.508000*%
%ADD25R,1.954000X0.584000*%
%ADD26R,0.254000X0.711200*%
%ADD27R,0.711200X0.254000*%
%ADD28R,1.092200X0.304800*%
%ADD29R,0.406400X0.254000*%
%ADD30RoundRect,0.250000X-0.250000X-0.475000X0.250000X-0.475000X0.250000X0.475000X-0.250000X0.475000X0*%
%ADD31RoundRect,0.150000X-0.825000X-0.150000X0.825000X-0.150000X0.825000X0.150000X-0.825000X0.150000X0*%
%ADD32RoundRect,0.250000X0.262500X0.450000X-0.262500X0.450000X-0.262500X-0.450000X0.262500X-0.450000X0*%
%ADD33RoundRect,0.250000X0.475000X-0.250000X0.475000X0.250000X-0.475000X0.250000X-0.475000X-0.250000X0*%
%ADD34C,1.620000*%
G04 APERTURE END LIST*
D10*
%TO.C,J2*%
X177165000Y-121175000D03*
D11*
X174625000Y-121175000D03*
X172085000Y-121175000D03*
%TD*%
D12*
%TO.C,C4*%
X171196000Y-99949000D03*
X171196000Y-101849000D03*
%TD*%
D13*
%TO.C,Q1*%
X161211500Y-97549000D03*
X161211500Y-95649000D03*
X159336500Y-96599000D03*
%TD*%
D14*
%TO.C,H2*%
X166370000Y-91440000D03*
%TD*%
D10*
%TO.C,J3*%
X160655000Y-121285000D03*
D11*
X158115000Y-121285000D03*
X155575000Y-121285000D03*
%TD*%
D15*
%TO.C,R5*%
X166497000Y-100711000D03*
X166497000Y-102536000D03*
%TD*%
D16*
%TO.C,R2*%
X172950500Y-114935000D03*
X174775500Y-114935000D03*
%TD*%
D17*
%TO.C,D1*%
X155195000Y-94869000D03*
X158495000Y-94869000D03*
%TD*%
D18*
%TO.C,R6*%
X163322000Y-97535000D03*
X163322000Y-95710000D03*
%TD*%
D10*
%TO.C,J1*%
X160655000Y-114300000D03*
D11*
X158115000Y-114300000D03*
X155575000Y-114300000D03*
%TD*%
D19*
%TO.C,J4*%
X158115000Y-90805000D03*
D20*
X155615000Y-90805000D03*
%TD*%
D21*
%TO.C,C3*%
X173632500Y-108331000D03*
X171732500Y-108331000D03*
%TD*%
D22*
%TO.C,U1*%
X171955495Y-112773000D03*
D23*
X172605494Y-112633000D03*
X173255495Y-112633000D03*
D24*
X173905495Y-112925000D03*
X174755496Y-112925000D03*
X175605495Y-112925000D03*
D25*
X174755495Y-112379000D03*
D24*
X175605495Y-109833000D03*
X174755496Y-109833000D03*
X173905495Y-109833000D03*
D25*
X174755495Y-110379000D03*
D23*
X173255495Y-110125000D03*
X172605494Y-110125000D03*
D26*
X171955495Y-109935000D03*
D27*
X171061495Y-110129000D03*
X171061495Y-110628999D03*
D28*
X171251495Y-111129000D03*
X171251495Y-111629000D03*
D27*
X171061495Y-112129001D03*
X171061495Y-112629000D03*
D29*
X172930495Y-111629000D03*
X172930495Y-111129000D03*
%TD*%
D30*
%TO.C,C1*%
X173233000Y-99822000D03*
X175133000Y-99822000D03*
%TD*%
D31*
%TO.C,U2*%
X169991000Y-93980000D03*
X169991000Y-95250000D03*
X169991000Y-96520000D03*
X169991000Y-97790000D03*
X174941000Y-97790000D03*
X174941000Y-96520000D03*
X174941000Y-95250000D03*
X174941000Y-93980000D03*
%TD*%
D32*
%TO.C,R3*%
X169695500Y-112903000D03*
X167870500Y-112903000D03*
%TD*%
D14*
%TO.C,H1*%
X166370000Y-119380000D03*
%TD*%
D16*
%TO.C,R1*%
X169521500Y-114935000D03*
X171346500Y-114935000D03*
%TD*%
D32*
%TO.C,R4*%
X173378500Y-92202000D03*
X171553500Y-92202000D03*
%TD*%
D33*
%TO.C,C2*%
X169441500Y-111125000D03*
X169441500Y-109225000D03*
%TD*%
D34*
%TO.C,RV1*%
X168870000Y-104989000D03*
X163870000Y-102489000D03*
X168870000Y-99989000D03*
%TD*%
M02*
