M48
; DRILL file {KiCad (5.1.5)-3} date 7/18/2021 9:53:42 AM
; FORMAT={-:-/ absolute / inch / decimal}
; #@! TF.CreationDate,2021-07-18T09:53:42-05:00
; #@! TF.GenerationSoftware,Kicad,Pcbnew,(5.1.5)-3
; #@! TF.FileFunction,Plated,1,2,PTH
FMAT,2
INCH
T1C0.0157
T2C0.0197
T3C0.0299
T4C0.0394
%
G90
G05
T1
X5.3263Y-3.6566
X5.37Y-4.0988
X5.3714Y-3.8845
X5.3748Y-4.0525
X5.3843Y-3.4055
X5.4544Y-3.4329
X5.5692Y-3.9
X5.7041Y-3.6544
X5.7384Y-3.5233
X5.8488Y-3.9186
X5.8905Y-3.8803
X5.9679Y-3.8783
X5.9716Y-3.6573
X5.9773Y-3.6115
X5.9903Y-3.692
X6.042Y-3.6124
X6.0805Y-3.8835
X6.125Y-4.0363
X6.1652Y-3.9672
X6.1774Y-3.5649
X6.2445Y-3.486
X6.2837Y-3.4557
T3
X5.7729Y-4.1212
X5.8131Y-4.1913
X5.8529Y-4.1212
X5.893Y-4.1913
X5.9328Y-4.1212
X5.9729Y-4.1913
X6.0127Y-4.1212
X6.0529Y-4.1913
T4
X6.3366Y-4.05
X6.4366Y-4.05
X6.5366Y-4.05
X6.6366Y-4.05
X6.3366Y-3.65
X6.4366Y-3.65
X6.5366Y-3.65
X6.6366Y-3.65
X6.3366Y-3.85
X6.4366Y-3.85
X6.5366Y-3.85
X6.6366Y-3.85
X6.3366Y-3.55
X6.4366Y-3.55
X6.5366Y-3.55
X6.6366Y-3.55
X6.3366Y-4.15
X6.4366Y-4.15
X6.5366Y-4.15
X6.6366Y-4.15
X6.3366Y-3.75
X6.4366Y-3.75
X6.5366Y-3.75
X6.6366Y-3.75
T2
G00X5.593Y-4.1987
M15
G01X5.593Y-4.1554
M16
G05
G00X6.2332Y-4.1987
M15
G01X6.2332Y-4.1554
M16
G05
T0
M30
