M48
; DRILL file {KiCad 7.0.1} date Mon Aug 14 23:43:27 2023
; FORMAT={-:-/ absolute / inch / decimal}
; #@! TF.CreationDate,2023-08-14T23:43:27-05:00
; #@! TF.GenerationSoftware,Kicad,Pcbnew,7.0.1
; #@! TF.FileFunction,Plated,1,2,PTH
FMAT,2
INCH
; #@! TA.AperFunction,Plated,PTH,ViaDrill
T1C0.0157
; #@! TA.AperFunction,Plated,PTH,ComponentDrill
T2C0.0197
; #@! TA.AperFunction,Plated,PTH,ComponentDrill
T3C0.0295
; #@! TA.AperFunction,Plated,PTH,ComponentDrill
T4C0.0299
; #@! TA.AperFunction,Plated,PTH,ComponentDrill
T5C0.0374
; #@! TA.AperFunction,Plated,PTH,ComponentDrill
T6C0.0394
; #@! TA.AperFunction,Plated,PTH,ComponentDrill
T7C0.0402
; #@! TA.AperFunction,Plated,PTH,ComponentDrill
T8C0.0420
%
G90
G05
T1
X4.2Y-3.65
X4.2Y-3.85
X4.2Y-4.05
X4.2Y-4.25
X4.2Y-4.45
X4.2Y-4.65
X4.2Y-4.85
X4.2Y-5.05
X4.2Y-5.25
X4.2Y-5.45
X4.2Y-5.65
X4.2Y-5.85
X4.3819Y-4.7441
X4.4Y-3.65
X4.4Y-4.25
X4.4Y-5.05
X4.4Y-5.25
X4.4Y-5.45
X4.4Y-5.85
X4.4Y-6.05
X4.4606Y-3.9646
X4.4764Y-4.563
X4.6Y-3.65
X4.6Y-3.85
X4.6Y-4.25
X4.6Y-5.25
X4.6Y-5.45
X4.6Y-5.65
X4.6Y-5.85
X4.6Y-6.05
X4.6535Y-4.7677
X4.6654Y-5.3701
X4.8Y-3.65
X4.8Y-5.05
X4.8Y-5.25
X4.8Y-5.65
X4.8Y-5.85
X4.8Y-6.05
X4.8189Y-4.7717
X4.82Y-4.17
X4.8307Y-4.9291
X4.85Y-4.25
X4.94Y-3.98
X4.9488Y-4.4724
X4.97Y-4.8
X5.0Y-3.65
X5.0Y-5.45
X5.0Y-5.65
X5.0Y-6.05
X5.0472Y-4.5669
X5.0984Y-4.7087
X5.0984Y-5.1614
X5.15Y-4.45
X5.2Y-3.65
X5.2Y-3.85
X5.2Y-5.45
X5.2Y-5.65
X5.2Y-5.85
X5.2Y-6.05
X5.2087Y-4.1969
X5.25Y-5.15
X5.27Y-4.54
X5.31Y-4.28
X5.4Y-3.65
X5.4Y-4.05
X5.4Y-4.25
X5.4Y-4.45
X5.4Y-5.05
X5.4Y-5.25
X5.4Y-5.45
X5.4Y-5.85
X5.4Y-6.05
X5.6Y-3.65
X5.6Y-6.05
X5.6299Y-5.626
X5.7165Y-4.9252
X5.8Y-3.65
X5.8Y-4.65
X5.8Y-5.25
X5.8Y-5.65
X5.8Y-6.05
X6.0Y-3.65
X6.0Y-4.25
X6.0Y-4.45
X6.0Y-4.85
X6.0Y-5.45
X6.0Y-6.05
X6.0827Y-5.2913
X6.2Y-3.65
X6.2Y-6.05
X6.4Y-3.65
X6.4Y-3.85
X6.4Y-4.05
X6.4Y-4.45
X6.4Y-4.65
X6.4Y-5.05
X6.4Y-5.25
X6.4Y-5.45
X6.4Y-5.65
X6.4Y-6.05
X6.6Y-3.65
X6.6Y-3.85
X6.6Y-4.05
X6.6Y-4.45
X6.6Y-4.65
X6.6Y-4.85
X6.6Y-5.05
X6.6Y-5.25
X6.6Y-5.45
X6.6Y-5.65
X6.6Y-6.05
X6.8Y-3.65
X6.8Y-3.85
X6.8Y-4.25
X6.8Y-4.45
X6.8Y-4.65
X6.8Y-4.85
X6.8Y-5.05
X6.8Y-5.25
X6.8Y-5.45
X6.8Y-5.65
X6.8Y-6.05
X7.0Y-3.65
X7.0Y-3.85
X7.0Y-4.05
X7.0Y-4.45
X7.0Y-4.65
X7.0Y-4.85
X7.0Y-5.05
X7.0Y-5.25
X7.0Y-5.45
X7.0Y-6.05
X7.2Y-3.65
X7.2Y-3.85
X7.2Y-4.05
X7.2Y-4.25
X7.2Y-4.65
X7.2Y-4.85
X7.2Y-5.05
X7.2Y-5.25
X7.2Y-6.05
X7.4Y-3.65
X7.4Y-3.85
X7.4Y-4.05
X7.4Y-4.25
X7.4Y-4.45
X7.4Y-4.85
X7.4Y-5.05
X7.4Y-5.85
X7.4Y-6.05
X7.6Y-3.65
X7.6Y-3.85
X7.6Y-4.05
X7.6Y-4.25
X7.6Y-4.45
X7.6Y-4.65
X7.6Y-4.85
X7.6Y-5.05
X7.6Y-5.25
X7.6Y-5.45
X7.6Y-5.65
X7.6Y-5.85
T3
X4.4925Y-5.0
X4.5713Y-5.0
X4.65Y-5.0
X4.7287Y-5.0
T4
X4.5603Y-3.95
X4.6004Y-4.0201
X4.6402Y-3.95
X4.6803Y-4.0201
X4.7201Y-3.95
X4.7603Y-4.0201
X4.8Y-3.95
X4.8402Y-4.0201
T5
X4.5024Y-4.6793
X4.6008Y-4.6793
X4.6992Y-4.6793
X4.7976Y-4.6793
T6
X4.45Y-4.45
X4.55Y-4.45
X4.65Y-4.45
X4.75Y-4.45
X4.8485Y-5.3192
X4.9485Y-5.3192
X5.0485Y-5.3192
X5.1485Y-5.3192
X6.7011Y-4.0661
X6.7011Y-4.1661
X6.7011Y-4.2661
X6.7011Y-4.3661
X6.7011Y-4.4661
X6.7011Y-4.5661
X6.7011Y-4.6661
X6.7011Y-4.7661
X6.7011Y-4.8661
X6.7011Y-4.9661
X6.7011Y-5.0661
X6.7011Y-5.1661
X6.7011Y-5.2661
X6.7011Y-5.3661
X6.7011Y-5.4661
X6.7011Y-5.5661
X7.5003Y-4.4661
X7.5003Y-4.5661
X7.5003Y-4.6661
X7.5003Y-4.7661
X7.5003Y-4.8661
X7.5003Y-4.9661
X7.5003Y-5.0661
X7.5003Y-5.1661
X7.5003Y-5.2661
X7.5003Y-5.3661
X7.5003Y-5.4661
X7.5003Y-5.5661
T7
X5.55Y-3.85
X5.55Y-3.95
X5.55Y-4.05
X5.55Y-4.15
X5.55Y-4.25
X5.55Y-4.35
X5.55Y-4.45
X5.55Y-4.55
X5.55Y-4.65
X5.55Y-4.75
X5.55Y-4.85
X5.55Y-4.95
X5.55Y-5.05
X5.55Y-5.15
X5.55Y-5.25
X5.55Y-5.35
X5.55Y-5.45
X5.55Y-5.55
X5.55Y-5.65
X5.55Y-5.75
X5.8Y-5.7409
X5.9Y-5.7409
X6.0Y-5.7409
X6.25Y-3.85
X6.25Y-3.95
X6.25Y-4.05
X6.25Y-4.15
X6.25Y-4.25
X6.25Y-4.35
X6.25Y-4.45
X6.25Y-4.55
X6.25Y-4.65
X6.25Y-4.75
X6.25Y-4.85
X6.25Y-4.95
X6.25Y-5.05
X6.25Y-5.15
X6.25Y-5.25
X6.25Y-5.35
X6.25Y-5.45
X6.25Y-5.55
X6.25Y-5.65
X6.25Y-5.75
T8
X4.319Y-5.6759
X4.519Y-5.6759
T2
G00X4.3799Y-3.9426
M15
G01X4.3799Y-3.9859
M16
G05
G00X5.0201Y-3.9426
M15
G01X5.0201Y-3.9859
M16
G05
T0
M30
