%TF.GenerationSoftware,KiCad,Pcbnew,(6.0.0)*%
%TF.CreationDate,2022-07-24T20:05:13-05:00*%
%TF.ProjectId,DriveByWireMrSensor,44726976-6542-4795-9769-72654d725365,rev?*%
%TF.SameCoordinates,Original*%
%TF.FileFunction,Copper,L1,Top*%
%TF.FilePolarity,Positive*%
%FSLAX46Y46*%
G04 Gerber Fmt 4.6, Leading zero omitted, Abs format (unit mm)*
G04 Created by KiCad (PCBNEW (6.0.0)) date 2022-07-24 20:05:13*
%MOMM*%
%LPD*%
G01*
G04 APERTURE LIST*
%TA.AperFunction,ViaPad*%
%ADD10C,0.800000*%
%TD*%
%TA.AperFunction,Conductor*%
%ADD11C,0.228600*%
%TD*%
G04 APERTURE END LIST*
D10*
%TO.N,+3V3*%
X99970000Y-78570000D03*
X94630000Y-79530000D03*
%TO.N,GND*%
X104820000Y-79510000D03*
%TO.N,SourceSignal1*%
X103351183Y-79964951D03*
X102350000Y-74890000D03*
%TO.N,AnalogSignal1*%
X100260537Y-81331071D03*
X92410000Y-78540000D03*
%TO.N,LM358_InM2*%
X99260000Y-75110000D03*
X97600000Y-77420000D03*
%TO.N,LM358_InP2*%
X103150000Y-83550000D03*
X94760000Y-80750000D03*
%TD*%
D11*
%TO.N,+3V3*%
X94630000Y-79530000D02*
X95590000Y-78570000D01*
X95590000Y-78570000D02*
X99970000Y-78570000D01*
%TO.N,SourceSignal1*%
X102350000Y-78963768D02*
X103351183Y-79964951D01*
X102350000Y-74890000D02*
X102350000Y-78963768D01*
%TO.N,AnalogSignal1*%
X99880606Y-81711002D02*
X100260537Y-81331071D01*
X92410000Y-78540000D02*
X92410000Y-79409468D01*
X92410000Y-79409468D02*
X94711534Y-81711002D01*
X94711534Y-81711002D02*
X99880606Y-81711002D01*
%TO.N,LM358_InM2*%
X97600000Y-77420000D02*
X99260000Y-75760000D01*
X99260000Y-75760000D02*
X99260000Y-75110000D01*
%TO.N,LM358_InP2*%
X103150000Y-83550000D02*
X100974338Y-81374338D01*
X100974338Y-81374338D02*
X100974338Y-81035404D01*
X100974338Y-81035404D02*
X100556204Y-80617270D01*
X94892730Y-80617270D02*
X94760000Y-80750000D01*
X100556204Y-80617270D02*
X94892730Y-80617270D01*
%TD*%
%TA.AperFunction,Conductor*%
%TO.N,GND*%
G36*
X113156057Y-70630500D02*
G01*
X113170858Y-70632805D01*
X113170861Y-70632805D01*
X113179730Y-70634186D01*
X113202360Y-70631227D01*
X113222901Y-70630234D01*
X113749001Y-70647824D01*
X113757403Y-70648387D01*
X114313677Y-70704348D01*
X114322023Y-70705470D01*
X114873330Y-70798464D01*
X114881581Y-70800141D01*
X115425451Y-70929752D01*
X115433573Y-70931977D01*
X115967575Y-71097625D01*
X115975509Y-71100381D01*
X116123134Y-71157237D01*
X116497260Y-71301329D01*
X116505013Y-71304617D01*
X117012151Y-71539954D01*
X117019666Y-71543751D01*
X117509979Y-71812450D01*
X117517224Y-71816742D01*
X117820156Y-72010126D01*
X117988461Y-72117568D01*
X117995404Y-72122333D01*
X118445531Y-72453990D01*
X118452139Y-72459209D01*
X118879094Y-72820176D01*
X118885322Y-72825808D01*
X119287231Y-73214505D01*
X119293069Y-73220542D01*
X119634380Y-73597912D01*
X119668109Y-73635204D01*
X119673539Y-73641626D01*
X119973290Y-74021206D01*
X120020043Y-74080410D01*
X120025034Y-74087183D01*
X120182243Y-74316197D01*
X120341454Y-74548128D01*
X120345985Y-74555225D01*
X120630919Y-75036288D01*
X120634965Y-75043673D01*
X120887112Y-75542655D01*
X120890657Y-75550293D01*
X121108928Y-76065036D01*
X121111951Y-76072887D01*
X121281848Y-76562168D01*
X121295347Y-76601044D01*
X121297839Y-76609075D01*
X121406071Y-77004183D01*
X121445555Y-77148323D01*
X121447506Y-77156511D01*
X121558221Y-77701206D01*
X121558869Y-77704396D01*
X121560268Y-77712686D01*
X121593461Y-77959497D01*
X121634790Y-78266810D01*
X121635633Y-78275188D01*
X121672977Y-78833042D01*
X121673258Y-78841458D01*
X121673258Y-79400542D01*
X121672977Y-79408957D01*
X121671319Y-79433725D01*
X121635633Y-79966812D01*
X121634790Y-79975190D01*
X121627926Y-80026228D01*
X121563296Y-80506803D01*
X121560270Y-80529301D01*
X121558871Y-80537590D01*
X121476036Y-80945128D01*
X121447507Y-81085485D01*
X121445556Y-81093673D01*
X121317911Y-81559652D01*
X121297842Y-81632914D01*
X121295350Y-81640945D01*
X121118301Y-82150828D01*
X121111954Y-82169106D01*
X121108931Y-82176956D01*
X121041765Y-82335353D01*
X120890657Y-82691707D01*
X120887112Y-82699345D01*
X120634965Y-83198327D01*
X120630919Y-83205712D01*
X120345985Y-83686775D01*
X120341454Y-83693872D01*
X120305529Y-83746206D01*
X120071548Y-84087058D01*
X120025038Y-84154811D01*
X120020047Y-84161584D01*
X119687752Y-84582376D01*
X119673546Y-84600365D01*
X119668116Y-84606788D01*
X119293069Y-85021458D01*
X119287231Y-85027495D01*
X118885322Y-85416192D01*
X118879094Y-85421824D01*
X118624414Y-85637142D01*
X118452139Y-85782791D01*
X118445531Y-85788010D01*
X118032338Y-86092454D01*
X117995404Y-86119667D01*
X117988463Y-86124430D01*
X117612322Y-86364550D01*
X117517224Y-86425258D01*
X117509979Y-86429550D01*
X117019666Y-86698249D01*
X117012151Y-86702046D01*
X116505013Y-86937383D01*
X116497260Y-86940671D01*
X115975509Y-87141619D01*
X115967575Y-87144375D01*
X115570074Y-87267680D01*
X115433573Y-87310023D01*
X115425451Y-87312248D01*
X114881581Y-87441859D01*
X114873330Y-87443536D01*
X114322023Y-87536530D01*
X114313677Y-87537652D01*
X114210271Y-87548055D01*
X113757387Y-87593615D01*
X113749016Y-87594176D01*
X113421495Y-87605127D01*
X113230446Y-87611514D01*
X113206852Y-87610084D01*
X113201145Y-87609195D01*
X113201138Y-87609195D01*
X113192270Y-87607814D01*
X113183368Y-87608978D01*
X113183365Y-87608978D01*
X113160749Y-87611936D01*
X113144411Y-87613000D01*
X91373669Y-87613000D01*
X91305548Y-87592998D01*
X91259055Y-87539342D01*
X91255977Y-87531996D01*
X91086731Y-87089320D01*
X91085089Y-87084764D01*
X90900745Y-86540789D01*
X90796830Y-86234150D01*
X90795370Y-86229553D01*
X90764196Y-86124432D01*
X90583914Y-85516523D01*
X90540013Y-85368487D01*
X90538726Y-85363819D01*
X90339450Y-84582931D01*
X90318287Y-84500000D01*
X94886526Y-84500000D01*
X94906391Y-84752403D01*
X94965495Y-84998591D01*
X95062384Y-85232502D01*
X95194672Y-85448376D01*
X95359102Y-85640898D01*
X95551624Y-85805328D01*
X95767498Y-85937616D01*
X95772068Y-85939509D01*
X95772072Y-85939511D01*
X95996836Y-86032611D01*
X96001409Y-86034505D01*
X96086032Y-86054821D01*
X96242784Y-86092454D01*
X96242790Y-86092455D01*
X96247597Y-86093609D01*
X96347416Y-86101465D01*
X96434345Y-86108307D01*
X96434352Y-86108307D01*
X96436801Y-86108500D01*
X96563199Y-86108500D01*
X96565648Y-86108307D01*
X96565655Y-86108307D01*
X96652584Y-86101465D01*
X96752403Y-86093609D01*
X96757210Y-86092455D01*
X96757216Y-86092454D01*
X96913968Y-86054821D01*
X96998591Y-86034505D01*
X97003164Y-86032611D01*
X97227928Y-85939511D01*
X97227932Y-85939509D01*
X97232502Y-85937616D01*
X97448376Y-85805328D01*
X97640898Y-85640898D01*
X97805328Y-85448376D01*
X97937616Y-85232502D01*
X98034505Y-84998591D01*
X98093609Y-84752403D01*
X98113474Y-84500000D01*
X98093609Y-84247597D01*
X98090045Y-84232749D01*
X98035660Y-84006221D01*
X98034505Y-84001409D01*
X98028426Y-83986732D01*
X97939511Y-83772072D01*
X97939509Y-83772068D01*
X97937616Y-83767498D01*
X97805328Y-83551624D01*
X97640898Y-83359102D01*
X97448376Y-83194672D01*
X97232502Y-83062384D01*
X97227932Y-83060491D01*
X97227928Y-83060489D01*
X97003164Y-82967389D01*
X97003162Y-82967388D01*
X96998591Y-82965495D01*
X96913968Y-82945179D01*
X96757216Y-82907546D01*
X96757210Y-82907545D01*
X96752403Y-82906391D01*
X96652584Y-82898535D01*
X96565655Y-82891693D01*
X96565648Y-82891693D01*
X96563199Y-82891500D01*
X96436801Y-82891500D01*
X96434352Y-82891693D01*
X96434345Y-82891693D01*
X96347416Y-82898535D01*
X96247597Y-82906391D01*
X96242790Y-82907545D01*
X96242784Y-82907546D01*
X96086032Y-82945179D01*
X96001409Y-82965495D01*
X95996838Y-82967388D01*
X95996836Y-82967389D01*
X95772072Y-83060489D01*
X95772068Y-83060491D01*
X95767498Y-83062384D01*
X95551624Y-83194672D01*
X95359102Y-83359102D01*
X95194672Y-83551624D01*
X95062384Y-83767498D01*
X95060491Y-83772068D01*
X95060489Y-83772072D01*
X94971574Y-83986732D01*
X94965495Y-84001409D01*
X94964340Y-84006221D01*
X94909956Y-84232749D01*
X94906391Y-84247597D01*
X94886526Y-84500000D01*
X90318287Y-84500000D01*
X90316653Y-84493596D01*
X90315548Y-84488895D01*
X90311021Y-84467800D01*
X90230333Y-84091852D01*
X90127075Y-83610743D01*
X90126150Y-83605989D01*
X89971564Y-82721251D01*
X89970823Y-82716465D01*
X89901083Y-82201237D01*
X89850356Y-81826472D01*
X89849801Y-81821683D01*
X89831605Y-81632914D01*
X89763621Y-80927662D01*
X89763251Y-80922854D01*
X89762826Y-80915476D01*
X89711493Y-80026197D01*
X89711308Y-80021378D01*
X89711236Y-80017594D01*
X89701981Y-79536153D01*
X89694048Y-79123422D01*
X89694048Y-79118580D01*
X89704466Y-78576565D01*
X89705169Y-78540000D01*
X91496496Y-78540000D01*
X91497186Y-78546565D01*
X91513922Y-78705795D01*
X91516458Y-78729928D01*
X91575473Y-78911556D01*
X91578776Y-78917278D01*
X91578777Y-78917279D01*
X91596098Y-78947279D01*
X91670960Y-79076944D01*
X91675378Y-79081851D01*
X91675379Y-79081852D01*
X91754836Y-79170098D01*
X91785554Y-79234105D01*
X91787200Y-79254408D01*
X91787200Y-79332116D01*
X91786687Y-79343006D01*
X91785036Y-79350391D01*
X91785285Y-79358316D01*
X91785285Y-79358317D01*
X91787138Y-79417273D01*
X91787200Y-79421231D01*
X91787200Y-79448651D01*
X91787696Y-79452580D01*
X91787716Y-79452894D01*
X91788616Y-79464321D01*
X91789979Y-79507670D01*
X91794559Y-79523435D01*
X91795488Y-79526632D01*
X91799497Y-79545993D01*
X91801972Y-79565583D01*
X91804891Y-79572955D01*
X91804891Y-79572956D01*
X91817939Y-79605913D01*
X91821784Y-79617143D01*
X91824623Y-79626915D01*
X91833880Y-79658778D01*
X91837915Y-79665602D01*
X91837916Y-79665603D01*
X91843928Y-79675769D01*
X91852627Y-79693526D01*
X91859898Y-79711889D01*
X91864557Y-79718301D01*
X91885390Y-79746976D01*
X91891904Y-79756893D01*
X91913980Y-79794220D01*
X91927941Y-79808181D01*
X91940781Y-79823214D01*
X91952390Y-79839192D01*
X91958496Y-79844243D01*
X91985813Y-79866842D01*
X91994592Y-79874832D01*
X94216443Y-82096683D01*
X94223789Y-82104756D01*
X94227844Y-82111145D01*
X94271403Y-82152049D01*
X94276642Y-82156969D01*
X94279484Y-82159724D01*
X94298855Y-82179095D01*
X94301990Y-82181527D01*
X94302158Y-82181675D01*
X94310933Y-82189171D01*
X94342552Y-82218862D01*
X94359860Y-82228378D01*
X94376380Y-82239229D01*
X94391984Y-82251333D01*
X94399261Y-82254482D01*
X94431788Y-82268558D01*
X94442445Y-82273779D01*
X94480444Y-82294669D01*
X94498160Y-82299218D01*
X94499570Y-82299580D01*
X94518268Y-82305982D01*
X94536397Y-82313827D01*
X94569248Y-82319030D01*
X94579230Y-82320611D01*
X94590853Y-82323018D01*
X94613413Y-82328810D01*
X94632856Y-82333802D01*
X94652602Y-82333802D01*
X94672312Y-82335353D01*
X94683986Y-82337202D01*
X94683987Y-82337202D01*
X94691816Y-82338442D01*
X94699708Y-82337696D01*
X94718010Y-82335966D01*
X94734990Y-82334361D01*
X94746847Y-82333802D01*
X99803254Y-82333802D01*
X99814144Y-82334315D01*
X99821529Y-82335966D01*
X99829454Y-82335717D01*
X99829455Y-82335717D01*
X99888411Y-82333864D01*
X99892369Y-82333802D01*
X99919789Y-82333802D01*
X99923718Y-82333306D01*
X99924032Y-82333286D01*
X99935459Y-82332386D01*
X99978808Y-82331023D01*
X99997771Y-82325514D01*
X100017131Y-82321505D01*
X100028854Y-82320024D01*
X100028855Y-82320024D01*
X100036721Y-82319030D01*
X100044094Y-82316111D01*
X100077051Y-82303063D01*
X100088281Y-82299218D01*
X100122306Y-82289333D01*
X100122307Y-82289333D01*
X100129916Y-82287122D01*
X100136741Y-82283086D01*
X100146907Y-82277074D01*
X100164664Y-82268375D01*
X100183027Y-82261104D01*
X100189443Y-82256442D01*
X100191781Y-82255157D01*
X100252484Y-82239571D01*
X100356024Y-82239571D01*
X100362476Y-82238199D01*
X100362481Y-82238199D01*
X100453452Y-82218862D01*
X100542825Y-82199865D01*
X100566840Y-82189173D01*
X100711255Y-82124876D01*
X100711259Y-82124874D01*
X100717289Y-82122189D01*
X100717715Y-82123146D01*
X100780733Y-82107852D01*
X100847827Y-82131068D01*
X100863843Y-82144615D01*
X102201101Y-83481873D01*
X102235127Y-83544185D01*
X102237315Y-83557791D01*
X102256458Y-83739928D01*
X102315473Y-83921556D01*
X102410960Y-84086944D01*
X102538747Y-84228866D01*
X102693248Y-84341118D01*
X102699276Y-84343802D01*
X102699278Y-84343803D01*
X102699384Y-84343850D01*
X102867712Y-84418794D01*
X102961113Y-84438647D01*
X103048056Y-84457128D01*
X103048061Y-84457128D01*
X103054513Y-84458500D01*
X103245487Y-84458500D01*
X103251939Y-84457128D01*
X103251944Y-84457128D01*
X103338887Y-84438647D01*
X103432288Y-84418794D01*
X103600616Y-84343850D01*
X103600722Y-84343803D01*
X103600724Y-84343802D01*
X103606752Y-84341118D01*
X103761253Y-84228866D01*
X103889040Y-84086944D01*
X103984527Y-83921556D01*
X104043542Y-83739928D01*
X104063504Y-83550000D01*
X104060391Y-83520381D01*
X104044232Y-83366635D01*
X104044232Y-83366633D01*
X104043542Y-83360072D01*
X103984527Y-83178444D01*
X103968700Y-83151030D01*
X103947314Y-83113990D01*
X103889040Y-83013056D01*
X103794039Y-82907546D01*
X103765675Y-82876045D01*
X103765674Y-82876044D01*
X103761253Y-82871134D01*
X103606752Y-82758882D01*
X103600724Y-82756198D01*
X103600722Y-82756197D01*
X103438319Y-82683891D01*
X103438318Y-82683891D01*
X103432288Y-82681206D01*
X103338888Y-82661353D01*
X103251944Y-82642872D01*
X103251939Y-82642872D01*
X103245487Y-82641500D01*
X103174462Y-82641500D01*
X103106341Y-82621498D01*
X103085367Y-82604595D01*
X101635358Y-81154585D01*
X101601332Y-81092273D01*
X101598515Y-81069447D01*
X101597200Y-81027598D01*
X101597138Y-81023641D01*
X101597138Y-80996221D01*
X101596642Y-80992292D01*
X101596622Y-80991978D01*
X101595721Y-80980544D01*
X101594608Y-80945128D01*
X101594359Y-80937203D01*
X101588851Y-80918244D01*
X101584841Y-80898882D01*
X101583359Y-80887150D01*
X101582366Y-80879289D01*
X101566400Y-80838963D01*
X101562555Y-80827733D01*
X101552670Y-80793708D01*
X101552669Y-80793706D01*
X101550458Y-80786095D01*
X101540407Y-80769099D01*
X101531711Y-80751347D01*
X101527358Y-80740353D01*
X101524440Y-80732983D01*
X101498946Y-80697893D01*
X101492430Y-80687973D01*
X101474396Y-80657479D01*
X101474394Y-80657477D01*
X101470358Y-80650652D01*
X101456397Y-80636691D01*
X101443556Y-80621657D01*
X101436608Y-80612094D01*
X101431948Y-80605680D01*
X101398537Y-80578040D01*
X101389756Y-80570050D01*
X101051287Y-80231580D01*
X101043946Y-80223513D01*
X101039894Y-80217127D01*
X100991112Y-80171318D01*
X100988271Y-80168564D01*
X100968884Y-80149177D01*
X100965750Y-80146746D01*
X100965565Y-80146583D01*
X100956793Y-80139091D01*
X100930964Y-80114836D01*
X100925186Y-80109410D01*
X100907882Y-80099897D01*
X100891365Y-80089047D01*
X100882015Y-80081795D01*
X100875755Y-80076939D01*
X100835936Y-80059707D01*
X100825306Y-80054500D01*
X100787294Y-80033603D01*
X100779616Y-80031632D01*
X100779609Y-80031629D01*
X100768170Y-80028692D01*
X100749465Y-80022288D01*
X100738618Y-80017594D01*
X100738617Y-80017594D01*
X100731341Y-80014445D01*
X100688508Y-80007661D01*
X100676885Y-80005254D01*
X100651003Y-79998609D01*
X100634882Y-79994470D01*
X100615136Y-79994470D01*
X100595426Y-79992919D01*
X100583752Y-79991070D01*
X100583751Y-79991070D01*
X100575922Y-79989830D01*
X100568030Y-79990576D01*
X100532748Y-79993911D01*
X100520891Y-79994470D01*
X95607762Y-79994470D01*
X95539641Y-79974468D01*
X95493148Y-79920812D01*
X95483044Y-79850538D01*
X95487929Y-79829534D01*
X95521502Y-79726206D01*
X95523542Y-79719928D01*
X95525162Y-79704520D01*
X95536071Y-79600717D01*
X95542684Y-79537798D01*
X95569697Y-79472142D01*
X95578899Y-79461873D01*
X95811069Y-79229704D01*
X95873381Y-79195679D01*
X95900164Y-79192800D01*
X99252167Y-79192800D01*
X99320288Y-79212802D01*
X99345799Y-79234486D01*
X99358747Y-79248866D01*
X99416734Y-79290996D01*
X99498484Y-79350391D01*
X99513248Y-79361118D01*
X99519276Y-79363802D01*
X99519278Y-79363803D01*
X99681681Y-79436109D01*
X99687712Y-79438794D01*
X99779899Y-79458389D01*
X99868056Y-79477128D01*
X99868061Y-79477128D01*
X99874513Y-79478500D01*
X100065487Y-79478500D01*
X100071939Y-79477128D01*
X100071944Y-79477128D01*
X100160101Y-79458389D01*
X100252288Y-79438794D01*
X100258319Y-79436109D01*
X100420722Y-79363803D01*
X100420724Y-79363802D01*
X100426752Y-79361118D01*
X100441517Y-79350391D01*
X100523266Y-79290996D01*
X100581253Y-79248866D01*
X100598507Y-79229704D01*
X100704621Y-79111852D01*
X100704622Y-79111851D01*
X100709040Y-79106944D01*
X100777627Y-78988148D01*
X100801223Y-78947279D01*
X100801224Y-78947278D01*
X100804527Y-78941556D01*
X100863542Y-78759928D01*
X100883504Y-78570000D01*
X100879661Y-78533435D01*
X100864232Y-78386635D01*
X100864232Y-78386633D01*
X100863542Y-78380072D01*
X100804527Y-78198444D01*
X100792745Y-78178036D01*
X100735907Y-78079591D01*
X100709040Y-78033056D01*
X100701388Y-78024557D01*
X100585675Y-77896045D01*
X100585674Y-77896044D01*
X100581253Y-77891134D01*
X100426752Y-77778882D01*
X100420724Y-77776198D01*
X100420722Y-77776197D01*
X100258319Y-77703891D01*
X100258318Y-77703891D01*
X100252288Y-77701206D01*
X100158887Y-77681353D01*
X100071944Y-77662872D01*
X100071939Y-77662872D01*
X100065487Y-77661500D01*
X99874513Y-77661500D01*
X99868061Y-77662872D01*
X99868056Y-77662872D01*
X99781113Y-77681353D01*
X99687712Y-77701206D01*
X99681682Y-77703891D01*
X99681681Y-77703891D01*
X99519278Y-77776197D01*
X99519276Y-77776198D01*
X99513248Y-77778882D01*
X99358747Y-77891134D01*
X99345801Y-77905512D01*
X99285358Y-77942750D01*
X99252167Y-77947200D01*
X98557379Y-77947200D01*
X98489258Y-77927198D01*
X98442765Y-77873542D01*
X98432661Y-77803268D01*
X98437545Y-77782268D01*
X98493542Y-77609928D01*
X98512685Y-77427797D01*
X98539697Y-77362141D01*
X98548899Y-77351873D01*
X99645681Y-76255091D01*
X99653754Y-76247745D01*
X99660143Y-76243690D01*
X99705967Y-76194892D01*
X99708722Y-76192050D01*
X99728093Y-76172679D01*
X99730525Y-76169544D01*
X99730673Y-76169376D01*
X99738171Y-76160598D01*
X99762435Y-76134759D01*
X99767860Y-76128982D01*
X99777376Y-76111674D01*
X99788228Y-76095153D01*
X99789123Y-76094000D01*
X99800331Y-76079550D01*
X99813478Y-76049170D01*
X99817556Y-76039746D01*
X99822778Y-76029086D01*
X99839849Y-75998035D01*
X99839849Y-75998034D01*
X99843667Y-75991090D01*
X99848578Y-75971964D01*
X99854981Y-75953263D01*
X99859676Y-75942413D01*
X99862825Y-75935137D01*
X99869609Y-75892304D01*
X99872016Y-75880681D01*
X99880828Y-75846358D01*
X99882800Y-75838678D01*
X99882800Y-75824408D01*
X99902802Y-75756287D01*
X99915164Y-75740098D01*
X99994621Y-75651852D01*
X99994622Y-75651851D01*
X99999040Y-75646944D01*
X100094527Y-75481556D01*
X100153542Y-75299928D01*
X100173504Y-75110000D01*
X100153542Y-74920072D01*
X100143771Y-74890000D01*
X101436496Y-74890000D01*
X101456458Y-75079928D01*
X101515473Y-75261556D01*
X101610960Y-75426944D01*
X101615378Y-75431851D01*
X101615379Y-75431852D01*
X101694836Y-75520098D01*
X101725554Y-75584105D01*
X101727200Y-75604408D01*
X101727200Y-78886416D01*
X101726687Y-78897306D01*
X101725036Y-78904691D01*
X101725285Y-78912616D01*
X101725285Y-78912617D01*
X101727138Y-78971573D01*
X101727200Y-78975531D01*
X101727200Y-79002951D01*
X101727696Y-79006880D01*
X101727716Y-79007194D01*
X101728616Y-79018621D01*
X101729979Y-79061970D01*
X101735488Y-79080932D01*
X101739497Y-79100293D01*
X101739795Y-79102647D01*
X101741972Y-79119883D01*
X101744891Y-79127255D01*
X101744891Y-79127256D01*
X101757939Y-79160213D01*
X101761784Y-79171443D01*
X101763497Y-79177339D01*
X101773880Y-79213078D01*
X101777915Y-79219902D01*
X101777916Y-79219903D01*
X101783928Y-79230069D01*
X101792627Y-79247826D01*
X101794577Y-79252749D01*
X101795234Y-79254408D01*
X101799898Y-79266189D01*
X101804557Y-79272601D01*
X101825390Y-79301276D01*
X101831906Y-79311195D01*
X101844279Y-79332116D01*
X101853980Y-79348520D01*
X101867941Y-79362481D01*
X101880781Y-79377514D01*
X101892390Y-79393492D01*
X101898496Y-79398543D01*
X101925813Y-79421142D01*
X101934592Y-79429132D01*
X102402284Y-79896824D01*
X102436310Y-79959136D01*
X102438498Y-79972742D01*
X102444687Y-80031629D01*
X102455982Y-80139091D01*
X102457641Y-80154879D01*
X102516656Y-80336507D01*
X102612143Y-80501895D01*
X102616561Y-80506802D01*
X102616562Y-80506803D01*
X102719977Y-80621657D01*
X102739930Y-80643817D01*
X102808204Y-80693421D01*
X102887932Y-80751347D01*
X102894431Y-80756069D01*
X102900459Y-80758753D01*
X102900461Y-80758754D01*
X103062864Y-80831060D01*
X103068895Y-80833745D01*
X103162295Y-80853598D01*
X103249239Y-80872079D01*
X103249244Y-80872079D01*
X103255696Y-80873451D01*
X103446670Y-80873451D01*
X103453122Y-80872079D01*
X103453127Y-80872079D01*
X103540071Y-80853598D01*
X103633471Y-80833745D01*
X103639502Y-80831060D01*
X103801905Y-80758754D01*
X103801907Y-80758753D01*
X103807935Y-80756069D01*
X103814435Y-80751347D01*
X103894162Y-80693421D01*
X103962436Y-80643817D01*
X103982389Y-80621657D01*
X104085804Y-80506803D01*
X104085805Y-80506802D01*
X104090223Y-80501895D01*
X104185710Y-80336507D01*
X104244725Y-80154879D01*
X104246385Y-80139091D01*
X104263997Y-79971516D01*
X104264687Y-79964951D01*
X104254773Y-79870621D01*
X104245415Y-79781586D01*
X104245415Y-79781584D01*
X104244725Y-79775023D01*
X104185710Y-79593395D01*
X104090223Y-79428007D01*
X104069292Y-79404760D01*
X104002750Y-79330858D01*
X107691870Y-79330858D01*
X107692090Y-79333475D01*
X107692090Y-79333481D01*
X107701049Y-79440166D01*
X107730505Y-79790957D01*
X107730947Y-79793570D01*
X107805032Y-80231580D01*
X107807506Y-80246209D01*
X107922330Y-80693421D01*
X107923198Y-80695915D01*
X107923200Y-80695920D01*
X108007224Y-80937203D01*
X108074174Y-81129457D01*
X108261972Y-81551258D01*
X108484406Y-81955864D01*
X108485858Y-81958050D01*
X108485862Y-81958056D01*
X108738459Y-82338245D01*
X108739917Y-82340439D01*
X109026712Y-82702285D01*
X109219465Y-82907546D01*
X109318546Y-83013056D01*
X109342780Y-83038863D01*
X109685903Y-83347812D01*
X109687987Y-83349394D01*
X109687992Y-83349398D01*
X110029186Y-83608378D01*
X110053676Y-83626967D01*
X110055910Y-83628385D01*
X110055919Y-83628391D01*
X110331565Y-83803321D01*
X110443517Y-83874368D01*
X110445844Y-83875584D01*
X110445850Y-83875588D01*
X110850355Y-84087058D01*
X110850360Y-84087060D01*
X110852693Y-84088280D01*
X111278334Y-84267203D01*
X111280834Y-84268015D01*
X111280844Y-84268019D01*
X111714939Y-84409064D01*
X111714943Y-84409065D01*
X111717454Y-84409881D01*
X111924742Y-84458500D01*
X112164405Y-84514713D01*
X112164412Y-84514714D01*
X112166973Y-84515315D01*
X112623738Y-84582764D01*
X112626379Y-84582930D01*
X112626387Y-84582931D01*
X112874942Y-84598569D01*
X113084545Y-84611756D01*
X113087177Y-84611701D01*
X113087184Y-84611701D01*
X113253562Y-84608215D01*
X113546162Y-84602086D01*
X113548784Y-84601810D01*
X113548791Y-84601810D01*
X114002719Y-84554101D01*
X114002728Y-84554100D01*
X114005351Y-84553824D01*
X114458891Y-84467306D01*
X114461423Y-84466599D01*
X114461436Y-84466596D01*
X114901062Y-84343850D01*
X114901070Y-84343847D01*
X114903600Y-84343141D01*
X115173452Y-84242784D01*
X115333887Y-84183119D01*
X115333893Y-84183116D01*
X115336360Y-84182199D01*
X115754135Y-83985609D01*
X116153995Y-83754750D01*
X116533134Y-83491241D01*
X116882646Y-83202100D01*
X116886865Y-83198610D01*
X116886871Y-83198604D01*
X116888894Y-83196931D01*
X116893838Y-83192090D01*
X117216906Y-82875718D01*
X117218779Y-82873884D01*
X117220492Y-82871899D01*
X117220499Y-82871892D01*
X117352571Y-82718884D01*
X117520475Y-82524366D01*
X117522027Y-82522230D01*
X117522034Y-82522221D01*
X117790315Y-82152963D01*
X117790317Y-82152960D01*
X117791866Y-82150828D01*
X117809211Y-82122189D01*
X117979644Y-81840770D01*
X118031049Y-81755891D01*
X118236345Y-81342324D01*
X118406315Y-80913030D01*
X118539766Y-80471018D01*
X118542482Y-80458244D01*
X118633161Y-80031629D01*
X118635763Y-80019389D01*
X118693631Y-79561312D01*
X118694617Y-79537799D01*
X118712855Y-79102647D01*
X118712966Y-79099999D01*
X118709594Y-79019546D01*
X118693742Y-78641332D01*
X118693742Y-78641330D01*
X118693631Y-78638686D01*
X118635763Y-78180609D01*
X118608406Y-78051906D01*
X118540312Y-77731547D01*
X118540310Y-77731539D01*
X118539766Y-77728980D01*
X118406315Y-77286968D01*
X118236345Y-76857674D01*
X118031049Y-76444107D01*
X117805858Y-76072273D01*
X117793230Y-76051422D01*
X117793228Y-76051420D01*
X117791866Y-76049170D01*
X117777274Y-76029086D01*
X117522034Y-75677777D01*
X117522027Y-75677768D01*
X117520475Y-75675632D01*
X117253912Y-75366816D01*
X117220499Y-75328106D01*
X117220492Y-75328099D01*
X117218779Y-75326114D01*
X116888894Y-75003067D01*
X116886871Y-75001394D01*
X116886865Y-75001388D01*
X116650841Y-74806133D01*
X116533134Y-74708757D01*
X116153995Y-74445248D01*
X115754135Y-74214389D01*
X115336360Y-74017799D01*
X115333893Y-74016882D01*
X115333887Y-74016879D01*
X114906060Y-73857772D01*
X114903600Y-73856857D01*
X114901070Y-73856151D01*
X114901062Y-73856148D01*
X114461436Y-73733402D01*
X114461423Y-73733399D01*
X114458891Y-73732692D01*
X114005351Y-73646174D01*
X114002728Y-73645898D01*
X114002719Y-73645897D01*
X113548791Y-73598188D01*
X113548784Y-73598188D01*
X113546162Y-73597912D01*
X113253562Y-73591783D01*
X113087184Y-73588297D01*
X113087177Y-73588297D01*
X113084545Y-73588242D01*
X112874942Y-73601429D01*
X112626387Y-73617067D01*
X112626379Y-73617068D01*
X112623738Y-73617234D01*
X112166973Y-73684683D01*
X112164412Y-73685284D01*
X112164405Y-73685285D01*
X111989382Y-73726337D01*
X111717454Y-73790117D01*
X111714943Y-73790933D01*
X111714939Y-73790934D01*
X111280844Y-73931979D01*
X111280834Y-73931983D01*
X111278334Y-73932795D01*
X110852693Y-74111718D01*
X110850360Y-74112938D01*
X110850355Y-74112940D01*
X110445850Y-74324410D01*
X110445844Y-74324414D01*
X110443517Y-74325630D01*
X110441289Y-74327044D01*
X110055919Y-74571607D01*
X110055910Y-74571613D01*
X110053676Y-74573031D01*
X110051569Y-74574630D01*
X110051568Y-74574631D01*
X109714243Y-74830675D01*
X109685903Y-74852186D01*
X109342780Y-75161135D01*
X109340976Y-75163056D01*
X109340972Y-75163060D01*
X109254380Y-75255271D01*
X109026712Y-75497713D01*
X108739917Y-75859559D01*
X108738463Y-75861748D01*
X108738459Y-75861753D01*
X108488541Y-76237911D01*
X108484406Y-76244134D01*
X108261972Y-76648740D01*
X108074174Y-77070541D01*
X108073306Y-77073034D01*
X107954766Y-77413435D01*
X107922330Y-77506577D01*
X107807506Y-77953789D01*
X107807067Y-77956385D01*
X107807065Y-77956394D01*
X107741541Y-78343794D01*
X107730505Y-78409041D01*
X107710999Y-78641332D01*
X107692970Y-78856045D01*
X107691870Y-78869140D01*
X107691870Y-79330858D01*
X104002750Y-79330858D01*
X103966858Y-79290996D01*
X103966857Y-79290995D01*
X103962436Y-79286085D01*
X103838003Y-79195679D01*
X103813277Y-79177714D01*
X103813276Y-79177713D01*
X103807935Y-79173833D01*
X103801907Y-79171149D01*
X103801905Y-79171148D01*
X103639502Y-79098842D01*
X103639501Y-79098842D01*
X103633471Y-79096157D01*
X103516181Y-79071226D01*
X103453127Y-79057823D01*
X103453122Y-79057823D01*
X103446670Y-79056451D01*
X103375646Y-79056451D01*
X103307525Y-79036449D01*
X103286550Y-79019546D01*
X103009704Y-78742699D01*
X102975679Y-78680387D01*
X102972800Y-78653604D01*
X102972800Y-75604408D01*
X102992802Y-75536287D01*
X103005164Y-75520098D01*
X103084621Y-75431852D01*
X103084622Y-75431851D01*
X103089040Y-75426944D01*
X103184527Y-75261556D01*
X103243542Y-75079928D01*
X103263504Y-74890000D01*
X103244455Y-74708757D01*
X103244232Y-74706635D01*
X103244232Y-74706633D01*
X103243542Y-74700072D01*
X103184527Y-74518444D01*
X103089040Y-74353056D01*
X102961253Y-74211134D01*
X102806752Y-74098882D01*
X102800724Y-74096198D01*
X102800722Y-74096197D01*
X102638319Y-74023891D01*
X102638318Y-74023891D01*
X102632288Y-74021206D01*
X102538888Y-74001353D01*
X102451944Y-73982872D01*
X102451939Y-73982872D01*
X102445487Y-73981500D01*
X102254513Y-73981500D01*
X102248061Y-73982872D01*
X102248056Y-73982872D01*
X102161112Y-74001353D01*
X102067712Y-74021206D01*
X102061682Y-74023891D01*
X102061681Y-74023891D01*
X101899278Y-74096197D01*
X101899276Y-74096198D01*
X101893248Y-74098882D01*
X101738747Y-74211134D01*
X101610960Y-74353056D01*
X101515473Y-74518444D01*
X101456458Y-74700072D01*
X101455768Y-74706633D01*
X101455768Y-74706635D01*
X101455545Y-74708757D01*
X101436496Y-74890000D01*
X100143771Y-74890000D01*
X100094527Y-74738444D01*
X100084413Y-74720925D01*
X100034008Y-74633623D01*
X99999040Y-74573056D01*
X99979726Y-74551605D01*
X99875675Y-74436045D01*
X99875674Y-74436044D01*
X99871253Y-74431134D01*
X99716752Y-74318882D01*
X99710724Y-74316198D01*
X99710722Y-74316197D01*
X99548319Y-74243891D01*
X99548318Y-74243891D01*
X99542288Y-74241206D01*
X99448887Y-74221353D01*
X99361944Y-74202872D01*
X99361939Y-74202872D01*
X99355487Y-74201500D01*
X99164513Y-74201500D01*
X99158061Y-74202872D01*
X99158056Y-74202872D01*
X98980415Y-74240631D01*
X98909624Y-74235229D01*
X98852991Y-74192412D01*
X98828498Y-74125774D01*
X98830665Y-74092673D01*
X98844422Y-74023891D01*
X99040000Y-73046000D01*
X99033991Y-73035985D01*
X99033991Y-73035984D01*
X98284290Y-71786483D01*
X98284289Y-71786482D01*
X98278000Y-71776000D01*
X97262000Y-71014000D01*
X95992000Y-71014000D01*
X95976479Y-71024347D01*
X95976477Y-71024348D01*
X94483907Y-72019395D01*
X94483906Y-72019396D01*
X94468000Y-72030000D01*
X94238191Y-72604523D01*
X93993030Y-73217426D01*
X93960000Y-73300000D01*
X93962843Y-73317058D01*
X93962843Y-73317059D01*
X94200788Y-74744729D01*
X94214000Y-74824000D01*
X94222900Y-74830675D01*
X95182391Y-75550293D01*
X95230000Y-75586000D01*
X95992000Y-76094000D01*
X96001513Y-76091622D01*
X96001514Y-76091622D01*
X98006424Y-75590394D01*
X98024000Y-75586000D01*
X98164085Y-75352525D01*
X98216283Y-75304404D01*
X98286213Y-75292143D01*
X98351671Y-75319634D01*
X98391961Y-75378417D01*
X98425473Y-75481556D01*
X98428776Y-75487278D01*
X98428777Y-75487279D01*
X98462122Y-75545034D01*
X98478860Y-75614029D01*
X98455640Y-75681121D01*
X98442098Y-75697129D01*
X97664631Y-76474596D01*
X97602319Y-76508621D01*
X97575536Y-76511500D01*
X97504513Y-76511500D01*
X97498061Y-76512872D01*
X97498056Y-76512872D01*
X97411112Y-76531353D01*
X97317712Y-76551206D01*
X97311682Y-76553891D01*
X97311681Y-76553891D01*
X97149278Y-76626197D01*
X97149276Y-76626198D01*
X97143248Y-76628882D01*
X96988747Y-76741134D01*
X96984326Y-76746044D01*
X96984325Y-76746045D01*
X96881604Y-76860129D01*
X96860960Y-76883056D01*
X96765473Y-77048444D01*
X96706458Y-77230072D01*
X96705768Y-77236633D01*
X96705768Y-77236635D01*
X96700735Y-77284522D01*
X96686496Y-77420000D01*
X96687186Y-77426565D01*
X96695596Y-77506577D01*
X96706458Y-77609928D01*
X96762454Y-77782265D01*
X96764482Y-77853231D01*
X96727819Y-77914029D01*
X96664107Y-77945355D01*
X96642621Y-77947200D01*
X95667352Y-77947200D01*
X95656462Y-77946687D01*
X95649077Y-77945036D01*
X95641152Y-77945285D01*
X95641151Y-77945285D01*
X95582195Y-77947138D01*
X95578237Y-77947200D01*
X95550817Y-77947200D01*
X95546888Y-77947696D01*
X95546574Y-77947716D01*
X95535147Y-77948616D01*
X95491798Y-77949979D01*
X95472836Y-77955488D01*
X95453475Y-77959497D01*
X95441752Y-77960978D01*
X95441751Y-77960978D01*
X95433885Y-77961972D01*
X95426513Y-77964891D01*
X95426512Y-77964891D01*
X95393555Y-77977939D01*
X95382325Y-77981784D01*
X95348300Y-77991669D01*
X95340690Y-77993880D01*
X95333866Y-77997915D01*
X95333865Y-77997916D01*
X95323699Y-78003928D01*
X95305942Y-78012627D01*
X95300908Y-78014621D01*
X95294948Y-78016980D01*
X95294946Y-78016981D01*
X95287579Y-78019898D01*
X95276224Y-78028148D01*
X95252492Y-78045390D01*
X95242575Y-78051904D01*
X95205248Y-78073980D01*
X95191287Y-78087941D01*
X95176254Y-78100781D01*
X95160276Y-78112390D01*
X95155225Y-78118496D01*
X95132631Y-78145807D01*
X95124641Y-78154587D01*
X94694631Y-78584596D01*
X94632319Y-78618621D01*
X94605536Y-78621500D01*
X94534513Y-78621500D01*
X94528061Y-78622872D01*
X94528056Y-78622872D01*
X94441211Y-78641332D01*
X94347712Y-78661206D01*
X94341682Y-78663891D01*
X94341681Y-78663891D01*
X94179278Y-78736197D01*
X94179276Y-78736198D01*
X94173248Y-78738882D01*
X94018747Y-78851134D01*
X94014326Y-78856044D01*
X94014325Y-78856045D01*
X93906740Y-78975531D01*
X93890960Y-78993056D01*
X93842527Y-79076944D01*
X93818489Y-79118580D01*
X93795473Y-79158444D01*
X93736458Y-79340072D01*
X93735768Y-79346633D01*
X93735768Y-79346635D01*
X93723656Y-79461873D01*
X93716496Y-79530000D01*
X93716809Y-79532976D01*
X93697184Y-79599812D01*
X93643528Y-79646305D01*
X93573254Y-79656409D01*
X93508674Y-79626915D01*
X93502091Y-79620786D01*
X93143192Y-79261887D01*
X93109166Y-79199575D01*
X93114231Y-79128760D01*
X93138649Y-79088485D01*
X93149040Y-79076944D01*
X93223902Y-78947279D01*
X93241223Y-78917279D01*
X93241224Y-78917278D01*
X93244527Y-78911556D01*
X93303542Y-78729928D01*
X93306079Y-78705795D01*
X93322814Y-78546565D01*
X93323504Y-78540000D01*
X93322814Y-78533435D01*
X93304232Y-78356635D01*
X93304232Y-78356633D01*
X93303542Y-78350072D01*
X93244527Y-78168444D01*
X93231458Y-78145807D01*
X93187658Y-78069944D01*
X93149040Y-78003056D01*
X93109820Y-77959497D01*
X93025675Y-77866045D01*
X93025674Y-77866044D01*
X93021253Y-77861134D01*
X92866752Y-77748882D01*
X92860724Y-77746198D01*
X92860722Y-77746197D01*
X92698319Y-77673891D01*
X92698318Y-77673891D01*
X92692288Y-77671206D01*
X92598887Y-77651353D01*
X92511944Y-77632872D01*
X92511939Y-77632872D01*
X92505487Y-77631500D01*
X92314513Y-77631500D01*
X92308061Y-77632872D01*
X92308056Y-77632872D01*
X92221113Y-77651353D01*
X92127712Y-77671206D01*
X92121682Y-77673891D01*
X92121681Y-77673891D01*
X91959278Y-77746197D01*
X91959276Y-77746198D01*
X91953248Y-77748882D01*
X91798747Y-77861134D01*
X91794326Y-77866044D01*
X91794325Y-77866045D01*
X91710181Y-77959497D01*
X91670960Y-78003056D01*
X91632342Y-78069944D01*
X91588543Y-78145807D01*
X91575473Y-78168444D01*
X91516458Y-78350072D01*
X91515768Y-78356633D01*
X91515768Y-78356635D01*
X91497186Y-78533435D01*
X91496496Y-78540000D01*
X89705169Y-78540000D01*
X89711309Y-78220603D01*
X89711494Y-78215783D01*
X89712495Y-78198444D01*
X89763253Y-77319125D01*
X89763623Y-77314318D01*
X89849803Y-76420297D01*
X89850359Y-76415507D01*
X89865927Y-76300498D01*
X89915428Y-75934783D01*
X89970823Y-75525536D01*
X89971564Y-75520750D01*
X90126153Y-74635987D01*
X90127069Y-74631281D01*
X90315557Y-73753067D01*
X90316651Y-73748411D01*
X90320663Y-73732692D01*
X90452153Y-73217426D01*
X90538723Y-72878189D01*
X90540010Y-72873520D01*
X90762782Y-72122333D01*
X90795375Y-72012430D01*
X90796835Y-72007832D01*
X90841020Y-71877450D01*
X91035745Y-71302841D01*
X91085088Y-71157237D01*
X91086730Y-71152681D01*
X91255976Y-70710005D01*
X91298986Y-70653519D01*
X91365707Y-70629253D01*
X91373668Y-70629001D01*
X110936978Y-70629000D01*
X113136672Y-70629000D01*
X113156057Y-70630500D01*
G37*
%TD.AperFunction*%
%TD*%
M02*
