M48
; DRILL file {KiCad (5.1.5)-3} date 3/29/2022 11:54:11 PM
; FORMAT={-:-/ absolute / inch / decimal}
; #@! TF.CreationDate,2022-03-29T23:54:11-05:00
; #@! TF.GenerationSoftware,Kicad,Pcbnew,(5.1.5)-3
; #@! TF.FileFunction,Plated,1,2,PTH
FMAT,2
INCH
T1C0.0157
T2C0.0197
T3C0.0299
T4C0.0315
T5C0.0374
T6C0.0394
T7C0.0420
T8C0.0433
%
G90
G05
T1
X4.3068Y-3.9217
X4.8531Y-4.7579
X4.8871Y-4.0031
X5.0865Y-4.0031
X5.1449Y-4.0484
X5.1992Y-3.7865
X5.2459Y-3.7822
X5.2464Y-3.8946
X5.2467Y-3.9757
X5.261Y-4.0606
X5.295Y-3.8219
X5.3406Y-3.5445
X5.3909Y-3.5008
X5.4728Y-4.7531
X5.4799Y-3.0165
X5.5126Y-3.602
X5.5579Y-3.5602
X5.6933Y-3.5909
X5.8028Y-3.5358
X6.0752Y-4.689
X6.0854Y-3.9815
X6.1531Y-4.6945
X6.245Y-3.68
X4.9582Y-3.815
X4.982Y-3.7672
X4.982Y-3.8627
X5.0059Y-3.815
X5.0298Y-3.7672
X5.0298Y-3.8627
X5.0537Y-3.815
T3
X6.4657Y-3.3455
X6.5274Y-3.3976
X6.5408Y-3.3181
X6.6025Y-3.3703
X6.6159Y-3.2908
X6.6776Y-3.3429
X6.691Y-3.2635
X6.7527Y-3.3156
T4
X4.6654Y-5.2047
X4.8031Y-5.2047
T5
X6.5394Y-4.0693
X6.6394Y-4.0693
X6.7394Y-4.0693
X6.8394Y-4.0693
X6.5394Y-5.2693
X6.6394Y-5.2693
X6.7394Y-5.2693
X6.5394Y-4.8693
X6.6394Y-4.8693
X6.7394Y-4.8693
X6.5394Y-4.4693
X6.6394Y-4.4693
X6.7394Y-4.4693
T6
X5.0543Y-5.3307
X5.1543Y-5.3307
X5.2543Y-5.3307
X5.3543Y-5.3307
X5.7699Y-5.3627
X5.8699Y-5.3627
X5.9699Y-5.3627
X6.0699Y-5.3627
X5.9173Y-3.2323
X6.0173Y-3.2323
X4.5906Y-3.6654
X4.5906Y-3.7654
X4.5906Y-3.8654
X4.5906Y-3.9654
X4.5906Y-4.0654
X4.5906Y-4.1654
X4.5906Y-4.2654
X4.5906Y-4.3654
X4.5906Y-4.4654
X4.5906Y-4.5654
X4.5906Y-4.6654
X5.3976Y-3.6654
X5.3976Y-3.7654
X5.3976Y-3.8654
X5.3976Y-3.9654
X5.3976Y-4.0654
X5.3976Y-4.1654
X5.3976Y-4.2654
X5.3976Y-4.3654
X5.3976Y-4.4654
X5.3976Y-4.5654
X5.3976Y-4.6654
X5.6894Y-5.5693
X5.6894Y-5.6693
X5.7894Y-5.5693
X5.7894Y-5.6693
X5.8894Y-5.5693
X5.8894Y-5.6693
X5.9894Y-5.5693
X5.9894Y-5.6693
X6.0894Y-5.5693
X6.0894Y-5.6693
X6.1894Y-5.5693
X6.1894Y-5.6693
X4.4567Y-3.0677
X4.4567Y-3.1677
X4.4567Y-3.2677
X6.5394Y-5.6693
X6.6394Y-5.6693
X6.7394Y-5.6693
X6.8394Y-5.6693
X4.4567Y-4.674
X4.4567Y-4.774
X4.4567Y-4.874
X4.4567Y-3.8709
X4.4567Y-3.9709
X4.4567Y-4.0709
T7
X4.9685Y-3.0709
X5.1099Y-2.9294
X4.5748Y-5.7874
X4.7162Y-5.646
T8
X5.644Y-3.8834
X5.644Y-3.9834
X5.644Y-4.0834
X5.644Y-4.1834
X5.644Y-4.2834
X5.644Y-4.3834
X5.644Y-4.4834
X5.644Y-4.5834
X5.644Y-4.6834
X5.644Y-4.7834
X5.644Y-4.8834
X5.644Y-4.9834
X5.644Y-5.0834
X5.644Y-5.1834
X6.244Y-3.8834
X6.244Y-3.9834
X6.244Y-4.0834
X6.244Y-4.1834
X6.244Y-4.2834
X6.244Y-4.3834
X6.244Y-4.4834
X6.244Y-4.5834
X6.244Y-4.6834
X6.244Y-4.7834
X6.244Y-4.8834
X6.244Y-4.9834
X6.244Y-5.0834
X6.244Y-5.1834
T2
G00X6.2937Y-3.4002
M15
G01X6.3085Y-3.4409
M16
G05
G00X6.8952Y-3.1813
M15
G01X6.91Y-3.222
M16
G05
T0
M30
