M48
; DRILL file {KiCad 7.0.6} date Sun May 19 20:47:06 2024
; FORMAT={-:-/ absolute / inch / decimal}
; #@! TF.CreationDate,2024-05-19T20:47:06-05:00
; #@! TF.GenerationSoftware,Kicad,Pcbnew,7.0.6
; #@! TF.FileFunction,Plated,1,4,PTH
FMAT,2
INCH
; #@! TA.AperFunction,Plated,PTH,ViaDrill
T1C0.0157
; #@! TA.AperFunction,Plated,PTH,ComponentDrill
T2C0.0315
; #@! TA.AperFunction,Plated,PTH,ComponentDrill
T3C0.0374
; #@! TA.AperFunction,Plated,PTH,ComponentDrill
T4C0.0394
; #@! TA.AperFunction,Plated,PTH,ComponentDrill
T5C0.0984
%
G90
G05
T1
X6.05Y-3.5
X6.05Y-3.7
X6.05Y-3.9
X6.05Y-4.1
X6.05Y-4.3
X6.05Y-4.5
X6.05Y-4.7
X6.05Y-4.9
X6.1Y-3.35
X6.145Y-4.505
X6.145Y-4.545
X6.145Y-4.605
X6.145Y-4.65
X6.145Y-4.705
X6.145Y-4.75
X6.25Y-4.95
X6.275Y-3.78
X6.275Y-3.825
X6.275Y-3.87
X6.3Y-3.35
X6.32Y-3.73
X6.32Y-3.78
X6.32Y-3.825
X6.32Y-3.87
X6.3453Y-4.4053
X6.375Y-4.69
X6.375Y-4.735
X6.38Y-4.25
X6.405Y-3.735
X6.405Y-3.775
X6.41Y-4.125
X6.41Y-4.165
X6.41Y-4.42
X6.43Y-4.6
X6.43Y-4.8305
X6.445Y-3.695
X6.445Y-3.735
X6.445Y-3.775
X6.4469Y-4.25
X6.4498Y-4.42
X6.45Y-4.125
X6.45Y-4.165
X6.45Y-4.95
X6.485Y-3.735
X6.49Y-4.125
X6.49Y-4.165
X6.5Y-3.35
X6.525Y-4.02
X6.525Y-4.06
X6.5485Y-3.775
X6.61Y-4.0
X6.63Y-4.595
X6.65Y-4.95
X6.655Y-4.0
X6.658Y-3.824
X6.665Y-4.42
X6.67Y-4.595
X6.67Y-4.635
X6.67Y-4.83
X6.695Y-3.665
X6.7Y-3.35
X6.725Y-4.69
X6.725Y-4.735
X6.7913Y-3.89
X6.825Y-3.695
X6.84Y-3.89
X6.845Y-4.505
X6.845Y-4.545
X6.845Y-4.605
X6.845Y-4.65
X6.845Y-4.705
X6.845Y-4.75
X6.85Y-4.95
X6.855Y-4.175
X6.875Y-4.075
X6.9Y-3.35
X6.915Y-4.075
X6.975Y-3.54
X6.975Y-3.71
X6.975Y-4.055
X6.976Y-3.468
X7.02Y-3.935
X7.02Y-3.97
X7.05Y-3.5
X7.05Y-3.7
X7.05Y-3.9
X7.05Y-4.1
X7.05Y-4.3
X7.05Y-4.5
X7.05Y-4.7
X7.05Y-4.9
T2
X6.1624Y-4.3
X6.2411Y-4.3
X6.8624Y-4.3
X6.9411Y-4.3
T3
X6.2207Y-4.5297
X6.2207Y-4.6281
X6.2207Y-4.7266
X6.2207Y-4.825
X6.9207Y-4.5297
X6.9207Y-4.6281
X6.9207Y-4.7266
X6.9207Y-4.825
T4
X6.2207Y-3.4766
X6.2207Y-3.575
T5
X6.55Y-3.6
X6.55Y-4.7
T0
M30
