%TF.GenerationSoftware,KiCad,Pcbnew,7.0.6*%
%TF.CreationDate,2024-05-19T20:46:52-05:00*%
%TF.ProjectId,Magic_Wand_Timer,4d616769-635f-4576-916e-645f54696d65,rev?*%
%TF.SameCoordinates,Original*%
%TF.FileFunction,Copper,L3,Inr*%
%TF.FilePolarity,Positive*%
%FSLAX46Y46*%
G04 Gerber Fmt 4.6, Leading zero omitted, Abs format (unit mm)*
G04 Created by KiCad (PCBNEW 7.0.6) date 2024-05-19 20:46:52*
%MOMM*%
%LPD*%
G01*
G04 APERTURE LIST*
G04 Aperture macros list*
%AMRoundRect*
0 Rectangle with rounded corners*
0 $1 Rounding radius*
0 $2 $3 $4 $5 $6 $7 $8 $9 X,Y pos of 4 corners*
0 Add a 4 corners polygon primitive as box body*
4,1,4,$2,$3,$4,$5,$6,$7,$8,$9,$2,$3,0*
0 Add four circle primitives for the rounded corners*
1,1,$1+$1,$2,$3*
1,1,$1+$1,$4,$5*
1,1,$1+$1,$6,$7*
1,1,$1+$1,$8,$9*
0 Add four rect primitives between the rounded corners*
20,1,$1+$1,$2,$3,$4,$5,0*
20,1,$1+$1,$4,$5,$6,$7,0*
20,1,$1+$1,$6,$7,$8,$9,0*
20,1,$1+$1,$8,$9,$2,$3,0*%
G04 Aperture macros list end*
%TA.AperFunction,ComponentPad*%
%ADD10C,5.000000*%
%TD*%
%TA.AperFunction,ComponentPad*%
%ADD11RoundRect,0.250000X-0.725000X0.600000X-0.725000X-0.600000X0.725000X-0.600000X0.725000X0.600000X0*%
%TD*%
%TA.AperFunction,ComponentPad*%
%ADD12O,1.950000X1.700000*%
%TD*%
%TA.AperFunction,ComponentPad*%
%ADD13R,1.600000X1.600000*%
%TD*%
%TA.AperFunction,ComponentPad*%
%ADD14C,1.600000*%
%TD*%
%TA.AperFunction,ComponentPad*%
%ADD15RoundRect,0.250000X-0.750000X0.600000X-0.750000X-0.600000X0.750000X-0.600000X0.750000X0.600000X0*%
%TD*%
%TA.AperFunction,ComponentPad*%
%ADD16O,2.000000X1.700000*%
%TD*%
%TA.AperFunction,ViaPad*%
%ADD17C,0.800000*%
%TD*%
%TA.AperFunction,Profile*%
%ADD18C,0.100000*%
%TD*%
G04 APERTURE END LIST*
D10*
%TO.N,GND*%
%TO.C,H2*%
X166370000Y-91440000D03*
%TD*%
D11*
%TO.N,+12V*%
%TO.C,J1*%
X158005000Y-115055000D03*
D12*
%TO.N,+5V*%
X158005000Y-117555000D03*
%TO.N,GND*%
X158005000Y-120055000D03*
%TO.N,Trigger*%
X158005000Y-122555000D03*
%TD*%
D13*
%TO.N,+12V*%
%TO.C,C5*%
X174304888Y-109220000D03*
D14*
%TO.N,GND*%
X176304888Y-109220000D03*
%TD*%
D15*
%TO.N,Net-(D2-A)*%
%TO.C,J3*%
X158005000Y-88305000D03*
D16*
%TO.N,Net-(D2-K)*%
X158005000Y-90805000D03*
%TD*%
D11*
%TO.N,+12V*%
%TO.C,J2*%
X175785000Y-115055000D03*
D12*
%TO.N,+5V*%
X175785000Y-117555000D03*
%TO.N,GND*%
X175785000Y-120055000D03*
%TO.N,Caddy_Trigger*%
X175785000Y-122555000D03*
%TD*%
D13*
%TO.N,+12V*%
%TO.C,C2*%
X156524888Y-109220000D03*
D14*
%TO.N,GND*%
X158524888Y-109220000D03*
%TD*%
D10*
%TO.N,GND*%
%TO.C,H1*%
X166370000Y-119380000D03*
%TD*%
D17*
%TO.N,+12V*%
X156083000Y-114427000D03*
X156083000Y-115443000D03*
X173863000Y-114427000D03*
X173863000Y-115443000D03*
%TO.N,+5V*%
X173863000Y-116967000D03*
X173863000Y-118110000D03*
X156083000Y-116967000D03*
X156083000Y-118110000D03*
%TO.N,GND*%
X173736000Y-98806000D03*
X172500000Y-98806000D03*
X179070000Y-88900000D03*
X163830000Y-125730000D03*
X165735000Y-103124000D03*
X179070000Y-114300000D03*
X164719000Y-94869000D03*
X163322000Y-122695000D03*
X162052000Y-107950000D03*
X153670000Y-88900000D03*
X168402000Y-116713000D03*
X174625000Y-103505000D03*
X165735000Y-102108000D03*
X162687000Y-94869000D03*
X153670000Y-93980000D03*
X163703000Y-93853000D03*
X153670000Y-119380000D03*
X177165000Y-89916000D03*
X169037000Y-101600000D03*
X173863000Y-120650000D03*
X167894000Y-101600000D03*
X177165000Y-102997000D03*
X160020000Y-85090000D03*
X156083000Y-119507000D03*
X169418000Y-117729000D03*
X154940000Y-85090000D03*
X169291000Y-112268000D03*
X175260000Y-85090000D03*
X179070000Y-99060000D03*
X179070000Y-93980000D03*
X168910000Y-125730000D03*
X163703000Y-95885000D03*
X173990000Y-125730000D03*
X153670000Y-124460000D03*
X179070000Y-109220000D03*
X162687000Y-95885000D03*
X179070000Y-104140000D03*
X163703000Y-94869000D03*
X169418000Y-122682000D03*
X153670000Y-99060000D03*
X163322000Y-116840000D03*
X177165000Y-94234000D03*
X153670000Y-114300000D03*
X170180000Y-85090000D03*
X153670000Y-109220000D03*
X165100000Y-85090000D03*
X175641000Y-103505000D03*
X163750000Y-107950000D03*
X156083000Y-120650000D03*
X179070000Y-119380000D03*
X179070000Y-124460000D03*
X153670000Y-104140000D03*
X173863000Y-119507000D03*
X158750000Y-125730000D03*
X169418000Y-116713000D03*
%TO.N,+5V*%
X170815000Y-119126000D03*
X178308000Y-100838000D03*
X170815000Y-120269000D03*
X161925000Y-120269000D03*
X162814000Y-112268000D03*
X163830000Y-105791000D03*
X162814000Y-105791000D03*
X163825228Y-112268000D03*
X169113200Y-97129600D03*
X163830000Y-104775000D03*
X164846000Y-104775000D03*
X161925000Y-119126000D03*
X162814000Y-104775000D03*
X177190400Y-88087200D03*
X174117000Y-106045000D03*
X164846000Y-105791000D03*
X178308000Y-99949000D03*
%TO.N,Trigger*%
X170053000Y-93091000D03*
X161169500Y-111893500D03*
%TO.N,Net-(D2-A)*%
X160528000Y-98298000D03*
X159385000Y-96012000D03*
X160528000Y-94742000D03*
X159385000Y-98298000D03*
X160528000Y-96012000D03*
X160528000Y-97155000D03*
X159385000Y-97155000D03*
%TO.N,ON_Delay*%
X166332500Y-95885000D03*
X173355000Y-93853000D03*
%TD*%
%TA.AperFunction,Conductor*%
%TO.N,+5V*%
G36*
X177801737Y-83820598D02*
G01*
X177835041Y-83822467D01*
X177915603Y-83826992D01*
X178087691Y-83837401D01*
X178094297Y-83838160D01*
X178165907Y-83850327D01*
X178230343Y-83861277D01*
X178323462Y-83878340D01*
X178379227Y-83888560D01*
X178385198Y-83889963D01*
X178522032Y-83929384D01*
X178662850Y-83973265D01*
X178668092Y-83975164D01*
X178801420Y-84030391D01*
X178934609Y-84090334D01*
X178939147Y-84092605D01*
X179012221Y-84132991D01*
X179066422Y-84162947D01*
X179066439Y-84162956D01*
X179190935Y-84238217D01*
X179194739Y-84240711D01*
X179312726Y-84324427D01*
X179315072Y-84326176D01*
X179410416Y-84400874D01*
X179428332Y-84414910D01*
X179431409Y-84417486D01*
X179539430Y-84514018D01*
X179541957Y-84516408D01*
X179643590Y-84618041D01*
X179645980Y-84620568D01*
X179742512Y-84728589D01*
X179745088Y-84731666D01*
X179833811Y-84844912D01*
X179835571Y-84847272D01*
X179919287Y-84965259D01*
X179921781Y-84969063D01*
X179997043Y-85093560D01*
X180067393Y-85220851D01*
X180069668Y-85225398D01*
X180129609Y-85358581D01*
X180184831Y-85491899D01*
X180186744Y-85497183D01*
X180196100Y-85527205D01*
X180230631Y-85638021D01*
X180270032Y-85774790D01*
X180271440Y-85780781D01*
X180298722Y-85929656D01*
X180321835Y-86065683D01*
X180322599Y-86072330D01*
X180333012Y-86244475D01*
X180339402Y-86358263D01*
X180339500Y-86361741D01*
X180339500Y-124458258D01*
X180339402Y-124461736D01*
X180333012Y-124575524D01*
X180322599Y-124747668D01*
X180321835Y-124754315D01*
X180298722Y-124890343D01*
X180271440Y-125039217D01*
X180270032Y-125045208D01*
X180230625Y-125182001D01*
X180186744Y-125322815D01*
X180184831Y-125328099D01*
X180129609Y-125461418D01*
X180069668Y-125594600D01*
X180067394Y-125599147D01*
X179997043Y-125726439D01*
X179921781Y-125850936D01*
X179919287Y-125854739D01*
X179835571Y-125972726D01*
X179833811Y-125975086D01*
X179745088Y-126088332D01*
X179742512Y-126091409D01*
X179645980Y-126199430D01*
X179643590Y-126201957D01*
X179541957Y-126303590D01*
X179539430Y-126305980D01*
X179431409Y-126402512D01*
X179428332Y-126405088D01*
X179315086Y-126493811D01*
X179312726Y-126495571D01*
X179194739Y-126579287D01*
X179190936Y-126581781D01*
X179066439Y-126657043D01*
X178939147Y-126727394D01*
X178934600Y-126729668D01*
X178801418Y-126789609D01*
X178668099Y-126844831D01*
X178662815Y-126846744D01*
X178545231Y-126883385D01*
X178521990Y-126890627D01*
X178385208Y-126930032D01*
X178379217Y-126931440D01*
X178230343Y-126958722D01*
X178094315Y-126981835D01*
X178087668Y-126982599D01*
X177915524Y-126993012D01*
X177801736Y-126999402D01*
X177798258Y-126999500D01*
X154941742Y-126999500D01*
X154938265Y-126999402D01*
X154824475Y-126993012D01*
X154652330Y-126982599D01*
X154645683Y-126981835D01*
X154509656Y-126958722D01*
X154360781Y-126931440D01*
X154354790Y-126930032D01*
X154218021Y-126890631D01*
X154150634Y-126869633D01*
X154077183Y-126846744D01*
X154071899Y-126844831D01*
X153938581Y-126789609D01*
X153805398Y-126729668D01*
X153800851Y-126727393D01*
X153673560Y-126657043D01*
X153549063Y-126581781D01*
X153545259Y-126579287D01*
X153427272Y-126495571D01*
X153424912Y-126493811D01*
X153311666Y-126405088D01*
X153308589Y-126402512D01*
X153200568Y-126305980D01*
X153198041Y-126303590D01*
X153096408Y-126201957D01*
X153094018Y-126199430D01*
X152997486Y-126091409D01*
X152994910Y-126088332D01*
X152980874Y-126070416D01*
X152906176Y-125975072D01*
X152904427Y-125972726D01*
X152844155Y-125887781D01*
X152820710Y-125854738D01*
X152818217Y-125850935D01*
X152745109Y-125730000D01*
X158090693Y-125730000D01*
X158109850Y-125887781D01*
X158166214Y-126036397D01*
X158204186Y-126091409D01*
X158256502Y-126167201D01*
X158256504Y-126167203D01*
X158256506Y-126167205D01*
X158375469Y-126272598D01*
X158375471Y-126272599D01*
X158516207Y-126346463D01*
X158560130Y-126357289D01*
X158670528Y-126384500D01*
X158670529Y-126384500D01*
X158829472Y-126384500D01*
X158880911Y-126371820D01*
X158983793Y-126346463D01*
X159124529Y-126272599D01*
X159243498Y-126167201D01*
X159333787Y-126036395D01*
X159390149Y-125887782D01*
X159409307Y-125730000D01*
X163170693Y-125730000D01*
X163189850Y-125887781D01*
X163246214Y-126036397D01*
X163284186Y-126091409D01*
X163336502Y-126167201D01*
X163336504Y-126167203D01*
X163336506Y-126167205D01*
X163455469Y-126272598D01*
X163455471Y-126272599D01*
X163596207Y-126346463D01*
X163640130Y-126357289D01*
X163750528Y-126384500D01*
X163750529Y-126384500D01*
X163909472Y-126384500D01*
X163960911Y-126371821D01*
X164063793Y-126346463D01*
X164204529Y-126272599D01*
X164323498Y-126167201D01*
X164413787Y-126036395D01*
X164470149Y-125887782D01*
X164489307Y-125730000D01*
X168250693Y-125730000D01*
X168269850Y-125887781D01*
X168326214Y-126036397D01*
X168364186Y-126091409D01*
X168416502Y-126167201D01*
X168416504Y-126167203D01*
X168416506Y-126167205D01*
X168535469Y-126272598D01*
X168535471Y-126272599D01*
X168676207Y-126346463D01*
X168720130Y-126357289D01*
X168830528Y-126384500D01*
X168830529Y-126384500D01*
X168989472Y-126384500D01*
X169040911Y-126371820D01*
X169143793Y-126346463D01*
X169284529Y-126272599D01*
X169403498Y-126167201D01*
X169493787Y-126036395D01*
X169550149Y-125887782D01*
X169569307Y-125730000D01*
X173330693Y-125730000D01*
X173349850Y-125887781D01*
X173406214Y-126036397D01*
X173444186Y-126091409D01*
X173496502Y-126167201D01*
X173496504Y-126167203D01*
X173496506Y-126167205D01*
X173615469Y-126272598D01*
X173615471Y-126272599D01*
X173756207Y-126346463D01*
X173800130Y-126357289D01*
X173910528Y-126384500D01*
X173910529Y-126384500D01*
X174069472Y-126384500D01*
X174120911Y-126371821D01*
X174223793Y-126346463D01*
X174364529Y-126272599D01*
X174483498Y-126167201D01*
X174573787Y-126036395D01*
X174630149Y-125887782D01*
X174649307Y-125730000D01*
X174630149Y-125572218D01*
X174573787Y-125423605D01*
X174483498Y-125292799D01*
X174483495Y-125292796D01*
X174483493Y-125292794D01*
X174364530Y-125187401D01*
X174223791Y-125113536D01*
X174069472Y-125075500D01*
X174069471Y-125075500D01*
X173910529Y-125075500D01*
X173910528Y-125075500D01*
X173756208Y-125113536D01*
X173615469Y-125187401D01*
X173496506Y-125292794D01*
X173496500Y-125292801D01*
X173406214Y-125423602D01*
X173349850Y-125572218D01*
X173330693Y-125729999D01*
X173330693Y-125730000D01*
X169569307Y-125730000D01*
X169550149Y-125572218D01*
X169493787Y-125423605D01*
X169403498Y-125292799D01*
X169403495Y-125292796D01*
X169403493Y-125292794D01*
X169284530Y-125187401D01*
X169143791Y-125113536D01*
X168989472Y-125075500D01*
X168989471Y-125075500D01*
X168830529Y-125075500D01*
X168830528Y-125075500D01*
X168676208Y-125113536D01*
X168535469Y-125187401D01*
X168416506Y-125292794D01*
X168416500Y-125292801D01*
X168326214Y-125423602D01*
X168269850Y-125572218D01*
X168250693Y-125729999D01*
X168250693Y-125730000D01*
X164489307Y-125730000D01*
X164470149Y-125572218D01*
X164413787Y-125423605D01*
X164323498Y-125292799D01*
X164323495Y-125292796D01*
X164323493Y-125292794D01*
X164204530Y-125187401D01*
X164063791Y-125113536D01*
X163909472Y-125075500D01*
X163909471Y-125075500D01*
X163750529Y-125075500D01*
X163750528Y-125075500D01*
X163596208Y-125113536D01*
X163455469Y-125187401D01*
X163336506Y-125292794D01*
X163336500Y-125292801D01*
X163246214Y-125423602D01*
X163189850Y-125572218D01*
X163170693Y-125729999D01*
X163170693Y-125730000D01*
X159409307Y-125730000D01*
X159390149Y-125572218D01*
X159333787Y-125423605D01*
X159243498Y-125292799D01*
X159243495Y-125292796D01*
X159243493Y-125292794D01*
X159124530Y-125187401D01*
X158983791Y-125113536D01*
X158829472Y-125075500D01*
X158829471Y-125075500D01*
X158670529Y-125075500D01*
X158670528Y-125075500D01*
X158516208Y-125113536D01*
X158375469Y-125187401D01*
X158256506Y-125292794D01*
X158256500Y-125292801D01*
X158166214Y-125423602D01*
X158109850Y-125572218D01*
X158090693Y-125729999D01*
X158090693Y-125730000D01*
X152745109Y-125730000D01*
X152742956Y-125726439D01*
X152672605Y-125599147D01*
X152670330Y-125594600D01*
X152610390Y-125461418D01*
X152555167Y-125328099D01*
X152553265Y-125322850D01*
X152509375Y-125182001D01*
X152469963Y-125045198D01*
X152468560Y-125039227D01*
X152442534Y-124897205D01*
X152441277Y-124890343D01*
X152430327Y-124825907D01*
X152418160Y-124754297D01*
X152417401Y-124747691D01*
X152406994Y-124575652D01*
X152400596Y-124461717D01*
X152400548Y-124460000D01*
X153010693Y-124460000D01*
X153029850Y-124617781D01*
X153070427Y-124724773D01*
X153086213Y-124766395D01*
X153176502Y-124897201D01*
X153176504Y-124897203D01*
X153176506Y-124897205D01*
X153295469Y-125002598D01*
X153295471Y-125002599D01*
X153436207Y-125076463D01*
X153513368Y-125095481D01*
X153590528Y-125114500D01*
X153590529Y-125114500D01*
X153749472Y-125114500D01*
X153800911Y-125101820D01*
X153903793Y-125076463D01*
X154044529Y-125002599D01*
X154163498Y-124897201D01*
X154253787Y-124766395D01*
X154310149Y-124617782D01*
X154329307Y-124460000D01*
X178410693Y-124460000D01*
X178429850Y-124617781D01*
X178470427Y-124724773D01*
X178486213Y-124766395D01*
X178576502Y-124897201D01*
X178576504Y-124897203D01*
X178576506Y-124897205D01*
X178695469Y-125002598D01*
X178695471Y-125002599D01*
X178836207Y-125076463D01*
X178913367Y-125095481D01*
X178990528Y-125114500D01*
X178990529Y-125114500D01*
X179149472Y-125114500D01*
X179200911Y-125101821D01*
X179303793Y-125076463D01*
X179444529Y-125002599D01*
X179563498Y-124897201D01*
X179653787Y-124766395D01*
X179710149Y-124617782D01*
X179729307Y-124460000D01*
X179729095Y-124458258D01*
X179710149Y-124302218D01*
X179710148Y-124302218D01*
X179653787Y-124153605D01*
X179563498Y-124022799D01*
X179563495Y-124022796D01*
X179563493Y-124022794D01*
X179444530Y-123917401D01*
X179303791Y-123843536D01*
X179149472Y-123805500D01*
X179149471Y-123805500D01*
X178990529Y-123805500D01*
X178990528Y-123805500D01*
X178836208Y-123843536D01*
X178695469Y-123917401D01*
X178576506Y-124022794D01*
X178576500Y-124022801D01*
X178486214Y-124153602D01*
X178429850Y-124302218D01*
X178410693Y-124459999D01*
X178410693Y-124460000D01*
X154329307Y-124460000D01*
X154329095Y-124458258D01*
X154310149Y-124302218D01*
X154310148Y-124302218D01*
X154253787Y-124153605D01*
X154163498Y-124022799D01*
X154163495Y-124022796D01*
X154163493Y-124022794D01*
X154044530Y-123917401D01*
X153903791Y-123843536D01*
X153749472Y-123805500D01*
X153749471Y-123805500D01*
X153590529Y-123805500D01*
X153590528Y-123805500D01*
X153436208Y-123843536D01*
X153295469Y-123917401D01*
X153176506Y-124022794D01*
X153176500Y-124022801D01*
X153086214Y-124153602D01*
X153029850Y-124302218D01*
X153010693Y-124459999D01*
X153010693Y-124460000D01*
X152400548Y-124460000D01*
X152400500Y-124458294D01*
X152400500Y-122502210D01*
X156771733Y-122502210D01*
X156781768Y-122712899D01*
X156831498Y-122917886D01*
X156831498Y-122917888D01*
X156919123Y-123109762D01*
X156919127Y-123109768D01*
X157041473Y-123281579D01*
X157041478Y-123281584D01*
X157194138Y-123427145D01*
X157371587Y-123541184D01*
X157567411Y-123619580D01*
X157774533Y-123659500D01*
X158182618Y-123659500D01*
X158324944Y-123645908D01*
X158339979Y-123644473D01*
X158542368Y-123585047D01*
X158729854Y-123488391D01*
X158895659Y-123358000D01*
X159033792Y-123198587D01*
X159139259Y-123015913D01*
X159208248Y-122816580D01*
X159225729Y-122695000D01*
X162662693Y-122695000D01*
X162681850Y-122852781D01*
X162706543Y-122917890D01*
X162733283Y-122988397D01*
X162738214Y-123001397D01*
X162813013Y-123109762D01*
X162828502Y-123132201D01*
X162828504Y-123132203D01*
X162828506Y-123132205D01*
X162947469Y-123237598D01*
X162947471Y-123237599D01*
X163088207Y-123311463D01*
X163165367Y-123330481D01*
X163242528Y-123349500D01*
X163242529Y-123349500D01*
X163401472Y-123349500D01*
X163454214Y-123336500D01*
X163555793Y-123311463D01*
X163696529Y-123237599D01*
X163815498Y-123132201D01*
X163905787Y-123001395D01*
X163962149Y-122852782D01*
X163981307Y-122695000D01*
X163979728Y-122682000D01*
X168758693Y-122682000D01*
X168777850Y-122839781D01*
X168834214Y-122988397D01*
X168853207Y-123015913D01*
X168924502Y-123119201D01*
X168924504Y-123119203D01*
X168924506Y-123119205D01*
X169043469Y-123224598D01*
X169043471Y-123224599D01*
X169184207Y-123298463D01*
X169236950Y-123311463D01*
X169338528Y-123336500D01*
X169338529Y-123336500D01*
X169497472Y-123336500D01*
X169548911Y-123323820D01*
X169651793Y-123298463D01*
X169792529Y-123224599D01*
X169911498Y-123119201D01*
X170001787Y-122988395D01*
X170058149Y-122839782D01*
X170077307Y-122682000D01*
X170058149Y-122524218D01*
X170049802Y-122502210D01*
X174551733Y-122502210D01*
X174561768Y-122712899D01*
X174611498Y-122917886D01*
X174611498Y-122917888D01*
X174699123Y-123109762D01*
X174699127Y-123109768D01*
X174821473Y-123281579D01*
X174821478Y-123281584D01*
X174974138Y-123427145D01*
X175151587Y-123541184D01*
X175347411Y-123619580D01*
X175554533Y-123659500D01*
X175962618Y-123659500D01*
X176104944Y-123645908D01*
X176119979Y-123644473D01*
X176322368Y-123585047D01*
X176509854Y-123488391D01*
X176675659Y-123358000D01*
X176813792Y-123198587D01*
X176919259Y-123015913D01*
X176988248Y-122816580D01*
X177018267Y-122607793D01*
X177008231Y-122397098D01*
X176958501Y-122192110D01*
X176906634Y-122078537D01*
X176870876Y-122000237D01*
X176870872Y-122000231D01*
X176748526Y-121828420D01*
X176748520Y-121828414D01*
X176595864Y-121682857D01*
X176595862Y-121682855D01*
X176418413Y-121568816D01*
X176222589Y-121490420D01*
X176015467Y-121450500D01*
X175607387Y-121450500D01*
X175607382Y-121450500D01*
X175450031Y-121465525D01*
X175450014Y-121465528D01*
X175247635Y-121524951D01*
X175060141Y-121621611D01*
X174894343Y-121751997D01*
X174894339Y-121752001D01*
X174756205Y-121911415D01*
X174650741Y-122094085D01*
X174581753Y-122293414D01*
X174581752Y-122293419D01*
X174581752Y-122293420D01*
X174566846Y-122397098D01*
X174551733Y-122502210D01*
X170049802Y-122502210D01*
X170001787Y-122375605D01*
X169911498Y-122244799D01*
X169911495Y-122244796D01*
X169911493Y-122244794D01*
X169792530Y-122139401D01*
X169651791Y-122065536D01*
X169497472Y-122027500D01*
X169497471Y-122027500D01*
X169338529Y-122027500D01*
X169338528Y-122027500D01*
X169184208Y-122065536D01*
X169043469Y-122139401D01*
X168924506Y-122244794D01*
X168924500Y-122244801D01*
X168834214Y-122375602D01*
X168777850Y-122524218D01*
X168758693Y-122681999D01*
X168758693Y-122682000D01*
X163979728Y-122682000D01*
X163979728Y-122681999D01*
X163962149Y-122537218D01*
X163948871Y-122502207D01*
X163905787Y-122388605D01*
X163815498Y-122257799D01*
X163815495Y-122257796D01*
X163815493Y-122257794D01*
X163696530Y-122152401D01*
X163555791Y-122078536D01*
X163401472Y-122040500D01*
X163401471Y-122040500D01*
X163242529Y-122040500D01*
X163242528Y-122040500D01*
X163088208Y-122078536D01*
X162947469Y-122152401D01*
X162828506Y-122257794D01*
X162828500Y-122257801D01*
X162738214Y-122388602D01*
X162681850Y-122537218D01*
X162662693Y-122694999D01*
X162662693Y-122695000D01*
X159225729Y-122695000D01*
X159238267Y-122607793D01*
X159228231Y-122397098D01*
X159178501Y-122192110D01*
X159126634Y-122078537D01*
X159090876Y-122000237D01*
X159090872Y-122000231D01*
X158968526Y-121828420D01*
X158968520Y-121828414D01*
X158815864Y-121682857D01*
X158815862Y-121682855D01*
X158638413Y-121568816D01*
X158442589Y-121490420D01*
X158235467Y-121450500D01*
X157827387Y-121450500D01*
X157827382Y-121450500D01*
X157670031Y-121465525D01*
X157670014Y-121465528D01*
X157467635Y-121524951D01*
X157280141Y-121621611D01*
X157114343Y-121751997D01*
X157114339Y-121752001D01*
X156976205Y-121911415D01*
X156870741Y-122094085D01*
X156801753Y-122293414D01*
X156801752Y-122293419D01*
X156801752Y-122293420D01*
X156786846Y-122397098D01*
X156771733Y-122502210D01*
X152400500Y-122502210D01*
X152400500Y-120650000D01*
X155423693Y-120650000D01*
X155442850Y-120807781D01*
X155461896Y-120858000D01*
X155499213Y-120956395D01*
X155589502Y-121087201D01*
X155589504Y-121087203D01*
X155589506Y-121087205D01*
X155708469Y-121192598D01*
X155708471Y-121192599D01*
X155849207Y-121266463D01*
X155926368Y-121285481D01*
X156003528Y-121304500D01*
X156003529Y-121304500D01*
X156162472Y-121304500D01*
X156213911Y-121291820D01*
X156316793Y-121266463D01*
X156457529Y-121192599D01*
X156576498Y-121087201D01*
X156666787Y-120956395D01*
X156723149Y-120807782D01*
X156733682Y-120721033D01*
X156761302Y-120656858D01*
X156819236Y-120617800D01*
X156889088Y-120616265D01*
X156948683Y-120652738D01*
X156957784Y-120664054D01*
X157041473Y-120781579D01*
X157041478Y-120781584D01*
X157194138Y-120927145D01*
X157371587Y-121041184D01*
X157567411Y-121119580D01*
X157774533Y-121159500D01*
X158182618Y-121159500D01*
X158324944Y-121145908D01*
X158339979Y-121144473D01*
X158542368Y-121085047D01*
X158729854Y-120988391D01*
X158895659Y-120858000D01*
X159033792Y-120698587D01*
X159139259Y-120515913D01*
X159208248Y-120316580D01*
X159238267Y-120107793D01*
X159228231Y-119897098D01*
X159178501Y-119692110D01*
X159108022Y-119537782D01*
X159090876Y-119500237D01*
X159090872Y-119500231D01*
X159005256Y-119380000D01*
X163610465Y-119380000D01*
X163630584Y-119712619D01*
X163630584Y-119712624D01*
X163630585Y-119712625D01*
X163690652Y-120040400D01*
X163690653Y-120040404D01*
X163690654Y-120040408D01*
X163789783Y-120358526D01*
X163789787Y-120358537D01*
X163789788Y-120358540D01*
X163789790Y-120358545D01*
X163926553Y-120662420D01*
X164086585Y-120927145D01*
X164098946Y-120947593D01*
X164098952Y-120947602D01*
X164304460Y-121209913D01*
X164540086Y-121445539D01*
X164764822Y-121621609D01*
X164802405Y-121651053D01*
X165087580Y-121823447D01*
X165391455Y-121960210D01*
X165391465Y-121960213D01*
X165391473Y-121960216D01*
X165519906Y-122000237D01*
X165709600Y-122059348D01*
X166037375Y-122119415D01*
X166370000Y-122139535D01*
X166702625Y-122119415D01*
X167030400Y-122059348D01*
X167348545Y-121960210D01*
X167652420Y-121823447D01*
X167937595Y-121651053D01*
X168199910Y-121445542D01*
X168435542Y-121209910D01*
X168641053Y-120947595D01*
X168813447Y-120662420D01*
X168819037Y-120650000D01*
X173203693Y-120650000D01*
X173222850Y-120807781D01*
X173241896Y-120858000D01*
X173279213Y-120956395D01*
X173369502Y-121087201D01*
X173369504Y-121087203D01*
X173369506Y-121087205D01*
X173488469Y-121192598D01*
X173488471Y-121192599D01*
X173629207Y-121266463D01*
X173706368Y-121285481D01*
X173783528Y-121304500D01*
X173783529Y-121304500D01*
X173942472Y-121304500D01*
X173993911Y-121291820D01*
X174096793Y-121266463D01*
X174237529Y-121192599D01*
X174356498Y-121087201D01*
X174446787Y-120956395D01*
X174503149Y-120807782D01*
X174513682Y-120721033D01*
X174541302Y-120656858D01*
X174599236Y-120617800D01*
X174669088Y-120616265D01*
X174728683Y-120652738D01*
X174737784Y-120664054D01*
X174821473Y-120781579D01*
X174821478Y-120781584D01*
X174974138Y-120927145D01*
X175151587Y-121041184D01*
X175347411Y-121119580D01*
X175554533Y-121159500D01*
X175962618Y-121159500D01*
X176104944Y-121145908D01*
X176119979Y-121144473D01*
X176322368Y-121085047D01*
X176509854Y-120988391D01*
X176675659Y-120858000D01*
X176813792Y-120698587D01*
X176919259Y-120515913D01*
X176988248Y-120316580D01*
X177018267Y-120107793D01*
X177008231Y-119897098D01*
X176958501Y-119692110D01*
X176888022Y-119537782D01*
X176870876Y-119500237D01*
X176870872Y-119500231D01*
X176785256Y-119380000D01*
X178410693Y-119380000D01*
X178429850Y-119537781D01*
X178486214Y-119686397D01*
X178504314Y-119712619D01*
X178576502Y-119817201D01*
X178576504Y-119817203D01*
X178576506Y-119817205D01*
X178695469Y-119922598D01*
X178695471Y-119922599D01*
X178836207Y-119996463D01*
X178913367Y-120015481D01*
X178990528Y-120034500D01*
X178990529Y-120034500D01*
X179149472Y-120034500D01*
X179200911Y-120021820D01*
X179303793Y-119996463D01*
X179444529Y-119922599D01*
X179563498Y-119817201D01*
X179653787Y-119686395D01*
X179710149Y-119537782D01*
X179729307Y-119380000D01*
X179725569Y-119349218D01*
X179710149Y-119222218D01*
X179695220Y-119182855D01*
X179653787Y-119073605D01*
X179651156Y-119069794D01*
X179620205Y-119024953D01*
X179563498Y-118942799D01*
X179563495Y-118942796D01*
X179563493Y-118942794D01*
X179444530Y-118837401D01*
X179303791Y-118763536D01*
X179149472Y-118725500D01*
X179149471Y-118725500D01*
X178990529Y-118725500D01*
X178990528Y-118725500D01*
X178836208Y-118763536D01*
X178695469Y-118837401D01*
X178576506Y-118942794D01*
X178576500Y-118942801D01*
X178486214Y-119073602D01*
X178429850Y-119222218D01*
X178410693Y-119379999D01*
X178410693Y-119380000D01*
X176785256Y-119380000D01*
X176748526Y-119328420D01*
X176748520Y-119328414D01*
X176614478Y-119200605D01*
X176595862Y-119182855D01*
X176418413Y-119068816D01*
X176408402Y-119064808D01*
X176382772Y-119054547D01*
X176327851Y-119011356D01*
X176304999Y-118945329D01*
X176321472Y-118877429D01*
X176372040Y-118829214D01*
X176376455Y-118827048D01*
X176587573Y-118728602D01*
X176587579Y-118728599D01*
X176781073Y-118593113D01*
X176781079Y-118593108D01*
X176948105Y-118426082D01*
X177083600Y-118232578D01*
X177183429Y-118018492D01*
X177183432Y-118018486D01*
X177240636Y-117805000D01*
X176188969Y-117805000D01*
X176221519Y-117754351D01*
X176260000Y-117623295D01*
X176260000Y-117486705D01*
X176221519Y-117355649D01*
X176188969Y-117305000D01*
X177240636Y-117305000D01*
X177240635Y-117304999D01*
X177183432Y-117091513D01*
X177183429Y-117091507D01*
X177083600Y-116877422D01*
X177083599Y-116877420D01*
X176948113Y-116683926D01*
X176948108Y-116683920D01*
X176781079Y-116516891D01*
X176781073Y-116516886D01*
X176587575Y-116381397D01*
X176586417Y-116380729D01*
X176586009Y-116380301D01*
X176583144Y-116378295D01*
X176583547Y-116377718D01*
X176538204Y-116330158D01*
X176524986Y-116261550D01*
X176550959Y-116196688D01*
X176607876Y-116156163D01*
X176617324Y-116153420D01*
X176693826Y-116124885D01*
X176754267Y-116102342D01*
X176870404Y-116015404D01*
X176957342Y-115899267D01*
X177008040Y-115763342D01*
X177010800Y-115737664D01*
X177014499Y-115703271D01*
X177014499Y-115703264D01*
X177014500Y-115703255D01*
X177014499Y-114406746D01*
X177008040Y-114346658D01*
X176990637Y-114300000D01*
X178410693Y-114300000D01*
X178429850Y-114457781D01*
X178470427Y-114564773D01*
X178486213Y-114606395D01*
X178576502Y-114737201D01*
X178576504Y-114737203D01*
X178576506Y-114737205D01*
X178695469Y-114842598D01*
X178695471Y-114842599D01*
X178836207Y-114916463D01*
X178913367Y-114935481D01*
X178990528Y-114954500D01*
X178990529Y-114954500D01*
X179149472Y-114954500D01*
X179200911Y-114941821D01*
X179303793Y-114916463D01*
X179444529Y-114842599D01*
X179563498Y-114737201D01*
X179653787Y-114606395D01*
X179710149Y-114457782D01*
X179729307Y-114300000D01*
X179725569Y-114269218D01*
X179710149Y-114142218D01*
X179659117Y-114007660D01*
X179653787Y-113993605D01*
X179651156Y-113989794D01*
X179563499Y-113862801D01*
X179563498Y-113862799D01*
X179563495Y-113862796D01*
X179563493Y-113862794D01*
X179444530Y-113757401D01*
X179303791Y-113683536D01*
X179149472Y-113645500D01*
X179149471Y-113645500D01*
X178990529Y-113645500D01*
X178990528Y-113645500D01*
X178836208Y-113683536D01*
X178695469Y-113757401D01*
X178576506Y-113862794D01*
X178576500Y-113862801D01*
X178486214Y-113993602D01*
X178429850Y-114142218D01*
X178410693Y-114299999D01*
X178410693Y-114300000D01*
X176990637Y-114300000D01*
X176957342Y-114210733D01*
X176894844Y-114127244D01*
X176870404Y-114094595D01*
X176793126Y-114036747D01*
X176754267Y-114007658D01*
X176618342Y-113956960D01*
X176618338Y-113956959D01*
X176558262Y-113950500D01*
X175011748Y-113950500D01*
X175011742Y-113950501D01*
X174951655Y-113956960D01*
X174815738Y-114007655D01*
X174815730Y-114007660D01*
X174699594Y-114094596D01*
X174660455Y-114146881D01*
X174604522Y-114188753D01*
X174534830Y-114193737D01*
X174473507Y-114160252D01*
X174451684Y-114126502D01*
X174450271Y-114127244D01*
X174446789Y-114120611D01*
X174446787Y-114120605D01*
X174356498Y-113989799D01*
X174356495Y-113989796D01*
X174356493Y-113989794D01*
X174237530Y-113884401D01*
X174096791Y-113810536D01*
X173942472Y-113772500D01*
X173942471Y-113772500D01*
X173783529Y-113772500D01*
X173783528Y-113772500D01*
X173629208Y-113810536D01*
X173488469Y-113884401D01*
X173369506Y-113989794D01*
X173369500Y-113989801D01*
X173279214Y-114120602D01*
X173222850Y-114269218D01*
X173203693Y-114426999D01*
X173203693Y-114427000D01*
X173222850Y-114584781D01*
X173279214Y-114733397D01*
X173369749Y-114864560D01*
X173391632Y-114930915D01*
X173374166Y-114998566D01*
X173369749Y-115005440D01*
X173279214Y-115136602D01*
X173222850Y-115285218D01*
X173203693Y-115442999D01*
X173203693Y-115443000D01*
X173222850Y-115600781D01*
X173261714Y-115703254D01*
X173279213Y-115749395D01*
X173369502Y-115880201D01*
X173369504Y-115880203D01*
X173369506Y-115880205D01*
X173488469Y-115985598D01*
X173488471Y-115985599D01*
X173629207Y-116059463D01*
X173706368Y-116078481D01*
X173783528Y-116097500D01*
X173783529Y-116097500D01*
X173942472Y-116097500D01*
X173993911Y-116084821D01*
X174096793Y-116059463D01*
X174237529Y-115985599D01*
X174356498Y-115880201D01*
X174383067Y-115841708D01*
X174437350Y-115797717D01*
X174506799Y-115790057D01*
X174569364Y-115821160D01*
X174601297Y-115868810D01*
X174612658Y-115899267D01*
X174641747Y-115938126D01*
X174699595Y-116015404D01*
X174757166Y-116058500D01*
X174815733Y-116102342D01*
X174951658Y-116153040D01*
X174951661Y-116153040D01*
X174958926Y-116155750D01*
X174958326Y-116157357D01*
X175010808Y-116187243D01*
X175043193Y-116249154D01*
X175036966Y-116318745D01*
X174994104Y-116373923D01*
X174983583Y-116380729D01*
X174982424Y-116381397D01*
X174788926Y-116516886D01*
X174788920Y-116516891D01*
X174621894Y-116683917D01*
X174486399Y-116877421D01*
X174386570Y-117091507D01*
X174386567Y-117091513D01*
X174329364Y-117304999D01*
X174329364Y-117305000D01*
X175381031Y-117305000D01*
X175348481Y-117355649D01*
X175310000Y-117486705D01*
X175310000Y-117623295D01*
X175348481Y-117754351D01*
X175381031Y-117805000D01*
X174329364Y-117805000D01*
X174386567Y-118018486D01*
X174386570Y-118018492D01*
X174486399Y-118232577D01*
X174486400Y-118232579D01*
X174621886Y-118426073D01*
X174621891Y-118426079D01*
X174788920Y-118593108D01*
X174788926Y-118593113D01*
X174982420Y-118728599D01*
X174982422Y-118728600D01*
X175194476Y-118827483D01*
X175246915Y-118873655D01*
X175266067Y-118940849D01*
X175245851Y-119007730D01*
X175198891Y-119050080D01*
X175060145Y-119121608D01*
X174894343Y-119251997D01*
X174894339Y-119252001D01*
X174756205Y-119411415D01*
X174739072Y-119441091D01*
X174688504Y-119489306D01*
X174619897Y-119502527D01*
X174555033Y-119476558D01*
X174514505Y-119419643D01*
X174508591Y-119394039D01*
X174503149Y-119349218D01*
X174446787Y-119200605D01*
X174356498Y-119069799D01*
X174356495Y-119069796D01*
X174356493Y-119069794D01*
X174237530Y-118964401D01*
X174096791Y-118890536D01*
X173942472Y-118852500D01*
X173942471Y-118852500D01*
X173783529Y-118852500D01*
X173783528Y-118852500D01*
X173629208Y-118890536D01*
X173488469Y-118964401D01*
X173369506Y-119069794D01*
X173369500Y-119069801D01*
X173279214Y-119200602D01*
X173222850Y-119349218D01*
X173203693Y-119506999D01*
X173203693Y-119507000D01*
X173222850Y-119664781D01*
X173263427Y-119771773D01*
X173271637Y-119793420D01*
X173279214Y-119813397D01*
X173354591Y-119922599D01*
X173369502Y-119944201D01*
X173369504Y-119944203D01*
X173369507Y-119944206D01*
X173416327Y-119985686D01*
X173453453Y-120044876D01*
X173452685Y-120114741D01*
X173416327Y-120171314D01*
X173369507Y-120212793D01*
X173369500Y-120212801D01*
X173279214Y-120343602D01*
X173222850Y-120492218D01*
X173203693Y-120649999D01*
X173203693Y-120650000D01*
X168819037Y-120650000D01*
X168950210Y-120358545D01*
X168954866Y-120343605D01*
X168995594Y-120212902D01*
X169049348Y-120040400D01*
X169109415Y-119712625D01*
X169129535Y-119380000D01*
X169109415Y-119047375D01*
X169049348Y-118719600D01*
X169009933Y-118593113D01*
X168972660Y-118473498D01*
X168971508Y-118403638D01*
X169008309Y-118344246D01*
X169071378Y-118314178D01*
X169140691Y-118322980D01*
X169148671Y-118326812D01*
X169184207Y-118345463D01*
X169184206Y-118345463D01*
X169338528Y-118383500D01*
X169338529Y-118383500D01*
X169497472Y-118383500D01*
X169548911Y-118370820D01*
X169651793Y-118345463D01*
X169792529Y-118271599D01*
X169911498Y-118166201D01*
X170001787Y-118035395D01*
X170058149Y-117886782D01*
X170077307Y-117729000D01*
X170074069Y-117702336D01*
X170058149Y-117571218D01*
X170050136Y-117550090D01*
X170001787Y-117422605D01*
X169911498Y-117291799D01*
X169911497Y-117291798D01*
X169911250Y-117291440D01*
X169889367Y-117225086D01*
X169906832Y-117157434D01*
X169911250Y-117150560D01*
X169939970Y-117108952D01*
X170001787Y-117019395D01*
X170058149Y-116870782D01*
X170077307Y-116713000D01*
X170073569Y-116682218D01*
X170058149Y-116555218D01*
X170043611Y-116516886D01*
X170001787Y-116406605D01*
X169999156Y-116402794D01*
X169949019Y-116330158D01*
X169911498Y-116275799D01*
X169911495Y-116275796D01*
X169911493Y-116275794D01*
X169792530Y-116170401D01*
X169651791Y-116096536D01*
X169497472Y-116058500D01*
X169497471Y-116058500D01*
X169338529Y-116058500D01*
X169338528Y-116058500D01*
X169184208Y-116096536D01*
X169043469Y-116170401D01*
X168992227Y-116215799D01*
X168928994Y-116245521D01*
X168859731Y-116236337D01*
X168827773Y-116215799D01*
X168776530Y-116170401D01*
X168635791Y-116096536D01*
X168481472Y-116058500D01*
X168481471Y-116058500D01*
X168322529Y-116058500D01*
X168322528Y-116058500D01*
X168168208Y-116096536D01*
X168027469Y-116170401D01*
X167908506Y-116275794D01*
X167908500Y-116275801D01*
X167818214Y-116406602D01*
X167761850Y-116555218D01*
X167742693Y-116712999D01*
X167742693Y-116713001D01*
X167750123Y-116774200D01*
X167738662Y-116843123D01*
X167691757Y-116894909D01*
X167624301Y-116913115D01*
X167576138Y-116902221D01*
X167348545Y-116799790D01*
X167348540Y-116799788D01*
X167348537Y-116799787D01*
X167348526Y-116799783D01*
X167030408Y-116700654D01*
X167030404Y-116700653D01*
X167030400Y-116700652D01*
X166702625Y-116640585D01*
X166702624Y-116640584D01*
X166702619Y-116640584D01*
X166370000Y-116620465D01*
X166037380Y-116640584D01*
X166037374Y-116640585D01*
X166037375Y-116640585D01*
X165709600Y-116700652D01*
X165709597Y-116700652D01*
X165709591Y-116700654D01*
X165391473Y-116799783D01*
X165391462Y-116799787D01*
X165087584Y-116936551D01*
X165087582Y-116936552D01*
X164802406Y-117108946D01*
X164802397Y-117108952D01*
X164540086Y-117314460D01*
X164304460Y-117550086D01*
X164098952Y-117812397D01*
X164098946Y-117812406D01*
X164010506Y-117958705D01*
X163967407Y-118030000D01*
X163926552Y-118097582D01*
X163926551Y-118097584D01*
X163789787Y-118401462D01*
X163789783Y-118401473D01*
X163690654Y-118719591D01*
X163690652Y-118719597D01*
X163690652Y-118719600D01*
X163661729Y-118877429D01*
X163630584Y-119047380D01*
X163610465Y-119380000D01*
X159005256Y-119380000D01*
X158968526Y-119328420D01*
X158968520Y-119328414D01*
X158834478Y-119200605D01*
X158815862Y-119182855D01*
X158638413Y-119068816D01*
X158628402Y-119064808D01*
X158602772Y-119054547D01*
X158547851Y-119011356D01*
X158524999Y-118945329D01*
X158541472Y-118877429D01*
X158592040Y-118829214D01*
X158596455Y-118827048D01*
X158807573Y-118728602D01*
X158807579Y-118728599D01*
X159001073Y-118593113D01*
X159001079Y-118593108D01*
X159168105Y-118426082D01*
X159303600Y-118232578D01*
X159403429Y-118018492D01*
X159403432Y-118018486D01*
X159460636Y-117805000D01*
X158408969Y-117805000D01*
X158441519Y-117754351D01*
X158480000Y-117623295D01*
X158480000Y-117486705D01*
X158441519Y-117355649D01*
X158408969Y-117305000D01*
X159460636Y-117305000D01*
X159460635Y-117304999D01*
X159403432Y-117091513D01*
X159403429Y-117091507D01*
X159303600Y-116877422D01*
X159303599Y-116877420D01*
X159277397Y-116840000D01*
X162662693Y-116840000D01*
X162681850Y-116997781D01*
X162738214Y-117146397D01*
X162803336Y-117240742D01*
X162828502Y-117277201D01*
X162828504Y-117277203D01*
X162828506Y-117277205D01*
X162947469Y-117382598D01*
X162947471Y-117382599D01*
X163088207Y-117456463D01*
X163128450Y-117466382D01*
X163242528Y-117494500D01*
X163242529Y-117494500D01*
X163401472Y-117494500D01*
X163452911Y-117481821D01*
X163555793Y-117456463D01*
X163696529Y-117382599D01*
X163815498Y-117277201D01*
X163905787Y-117146395D01*
X163962149Y-116997782D01*
X163981307Y-116840000D01*
X163962149Y-116682218D01*
X163905787Y-116533605D01*
X163815498Y-116402799D01*
X163815495Y-116402796D01*
X163815493Y-116402794D01*
X163696530Y-116297401D01*
X163555791Y-116223536D01*
X163401472Y-116185500D01*
X163401471Y-116185500D01*
X163242529Y-116185500D01*
X163242528Y-116185500D01*
X163088208Y-116223536D01*
X162947469Y-116297401D01*
X162828506Y-116402794D01*
X162828500Y-116402801D01*
X162738214Y-116533602D01*
X162681850Y-116682218D01*
X162662693Y-116839999D01*
X162662693Y-116840000D01*
X159277397Y-116840000D01*
X159168113Y-116683926D01*
X159168108Y-116683920D01*
X159001079Y-116516891D01*
X159001073Y-116516886D01*
X158807575Y-116381397D01*
X158806417Y-116380729D01*
X158806009Y-116380301D01*
X158803144Y-116378295D01*
X158803547Y-116377718D01*
X158758204Y-116330158D01*
X158744986Y-116261550D01*
X158770959Y-116196688D01*
X158827876Y-116156163D01*
X158837324Y-116153420D01*
X158913826Y-116124885D01*
X158974267Y-116102342D01*
X159090404Y-116015404D01*
X159177342Y-115899267D01*
X159228040Y-115763342D01*
X159230800Y-115737664D01*
X159234499Y-115703271D01*
X159234499Y-115703264D01*
X159234500Y-115703255D01*
X159234499Y-114406746D01*
X159228040Y-114346658D01*
X159177342Y-114210733D01*
X159114844Y-114127244D01*
X159090404Y-114094595D01*
X159013126Y-114036747D01*
X158974267Y-114007658D01*
X158838342Y-113956960D01*
X158838338Y-113956959D01*
X158778262Y-113950500D01*
X157231748Y-113950500D01*
X157231742Y-113950501D01*
X157171655Y-113956960D01*
X157035738Y-114007655D01*
X157035730Y-114007660D01*
X156919594Y-114094596D01*
X156880455Y-114146881D01*
X156824522Y-114188753D01*
X156754830Y-114193737D01*
X156693507Y-114160252D01*
X156671684Y-114126502D01*
X156670271Y-114127244D01*
X156666789Y-114120611D01*
X156666787Y-114120605D01*
X156576498Y-113989799D01*
X156576495Y-113989796D01*
X156576493Y-113989794D01*
X156457530Y-113884401D01*
X156316791Y-113810536D01*
X156162472Y-113772500D01*
X156162471Y-113772500D01*
X156003529Y-113772500D01*
X156003528Y-113772500D01*
X155849208Y-113810536D01*
X155708469Y-113884401D01*
X155589506Y-113989794D01*
X155589500Y-113989801D01*
X155499214Y-114120602D01*
X155442850Y-114269218D01*
X155423693Y-114426999D01*
X155423693Y-114427000D01*
X155442850Y-114584781D01*
X155499214Y-114733397D01*
X155589749Y-114864560D01*
X155611632Y-114930915D01*
X155594166Y-114998566D01*
X155589749Y-115005440D01*
X155499214Y-115136602D01*
X155442850Y-115285218D01*
X155423693Y-115442999D01*
X155423693Y-115443000D01*
X155442850Y-115600781D01*
X155481714Y-115703254D01*
X155499213Y-115749395D01*
X155589502Y-115880201D01*
X155589504Y-115880203D01*
X155589506Y-115880205D01*
X155708469Y-115985598D01*
X155708471Y-115985599D01*
X155849207Y-116059463D01*
X155926368Y-116078481D01*
X156003528Y-116097500D01*
X156003529Y-116097500D01*
X156162472Y-116097500D01*
X156213911Y-116084821D01*
X156316793Y-116059463D01*
X156457529Y-115985599D01*
X156576498Y-115880201D01*
X156603067Y-115841708D01*
X156657350Y-115797717D01*
X156726799Y-115790057D01*
X156789364Y-115821160D01*
X156821297Y-115868810D01*
X156832658Y-115899267D01*
X156861747Y-115938126D01*
X156919595Y-116015404D01*
X156977166Y-116058500D01*
X157035733Y-116102342D01*
X157171658Y-116153040D01*
X157171661Y-116153040D01*
X157178926Y-116155750D01*
X157178326Y-116157357D01*
X157230808Y-116187243D01*
X157263193Y-116249154D01*
X157256966Y-116318745D01*
X157214104Y-116373923D01*
X157203583Y-116380729D01*
X157202424Y-116381397D01*
X157008926Y-116516886D01*
X157008920Y-116516891D01*
X156841894Y-116683917D01*
X156706399Y-116877421D01*
X156606570Y-117091507D01*
X156606567Y-117091513D01*
X156549364Y-117304999D01*
X156549364Y-117305000D01*
X157601031Y-117305000D01*
X157568481Y-117355649D01*
X157530000Y-117486705D01*
X157530000Y-117623295D01*
X157568481Y-117754351D01*
X157601031Y-117805000D01*
X156549364Y-117805000D01*
X156606567Y-118018486D01*
X156606570Y-118018492D01*
X156706399Y-118232577D01*
X156706400Y-118232579D01*
X156841886Y-118426073D01*
X156841891Y-118426079D01*
X157008920Y-118593108D01*
X157008926Y-118593113D01*
X157202420Y-118728599D01*
X157202422Y-118728600D01*
X157414476Y-118827483D01*
X157466915Y-118873655D01*
X157486067Y-118940849D01*
X157465851Y-119007730D01*
X157418891Y-119050080D01*
X157280145Y-119121608D01*
X157114343Y-119251997D01*
X157114339Y-119252001D01*
X156976205Y-119411415D01*
X156959072Y-119441091D01*
X156908504Y-119489306D01*
X156839897Y-119502527D01*
X156775033Y-119476558D01*
X156734505Y-119419643D01*
X156728591Y-119394039D01*
X156723149Y-119349218D01*
X156666787Y-119200605D01*
X156576498Y-119069799D01*
X156576495Y-119069796D01*
X156576493Y-119069794D01*
X156457530Y-118964401D01*
X156316791Y-118890536D01*
X156162472Y-118852500D01*
X156162471Y-118852500D01*
X156003529Y-118852500D01*
X156003528Y-118852500D01*
X155849208Y-118890536D01*
X155708469Y-118964401D01*
X155589506Y-119069794D01*
X155589500Y-119069801D01*
X155499214Y-119200602D01*
X155442850Y-119349218D01*
X155423693Y-119506999D01*
X155423693Y-119507000D01*
X155442850Y-119664781D01*
X155483427Y-119771773D01*
X155491637Y-119793420D01*
X155499214Y-119813397D01*
X155574591Y-119922599D01*
X155589502Y-119944201D01*
X155589504Y-119944203D01*
X155589506Y-119944205D01*
X155636326Y-119985684D01*
X155673453Y-120044873D01*
X155672685Y-120114739D01*
X155636328Y-120171312D01*
X155589508Y-120212792D01*
X155589500Y-120212801D01*
X155499214Y-120343602D01*
X155442850Y-120492218D01*
X155423693Y-120649999D01*
X155423693Y-120650000D01*
X152400500Y-120650000D01*
X152400500Y-119380000D01*
X153010693Y-119380000D01*
X153029850Y-119537781D01*
X153086214Y-119686397D01*
X153104314Y-119712619D01*
X153176502Y-119817201D01*
X153176504Y-119817203D01*
X153176506Y-119817205D01*
X153295469Y-119922598D01*
X153295471Y-119922599D01*
X153436207Y-119996463D01*
X153513368Y-120015481D01*
X153590528Y-120034500D01*
X153590529Y-120034500D01*
X153749472Y-120034500D01*
X153800911Y-120021820D01*
X153903793Y-119996463D01*
X154044529Y-119922599D01*
X154163498Y-119817201D01*
X154253787Y-119686395D01*
X154310149Y-119537782D01*
X154329307Y-119380000D01*
X154325569Y-119349218D01*
X154310149Y-119222218D01*
X154295220Y-119182855D01*
X154253787Y-119073605D01*
X154251156Y-119069794D01*
X154220205Y-119024953D01*
X154163498Y-118942799D01*
X154163495Y-118942796D01*
X154163493Y-118942794D01*
X154044530Y-118837401D01*
X153903791Y-118763536D01*
X153749472Y-118725500D01*
X153749471Y-118725500D01*
X153590529Y-118725500D01*
X153590528Y-118725500D01*
X153436208Y-118763536D01*
X153295469Y-118837401D01*
X153176506Y-118942794D01*
X153176500Y-118942801D01*
X153086214Y-119073602D01*
X153029850Y-119222218D01*
X153010693Y-119379999D01*
X153010693Y-119380000D01*
X152400500Y-119380000D01*
X152400500Y-114300000D01*
X153010693Y-114300000D01*
X153029850Y-114457781D01*
X153070427Y-114564773D01*
X153086213Y-114606395D01*
X153176502Y-114737201D01*
X153176504Y-114737203D01*
X153176506Y-114737205D01*
X153295469Y-114842598D01*
X153295471Y-114842599D01*
X153436207Y-114916463D01*
X153513368Y-114935481D01*
X153590528Y-114954500D01*
X153590529Y-114954500D01*
X153749472Y-114954500D01*
X153800911Y-114941820D01*
X153903793Y-114916463D01*
X154044529Y-114842599D01*
X154163498Y-114737201D01*
X154253787Y-114606395D01*
X154310149Y-114457782D01*
X154329307Y-114300000D01*
X154325569Y-114269218D01*
X154310149Y-114142218D01*
X154259117Y-114007660D01*
X154253787Y-113993605D01*
X154251156Y-113989794D01*
X154163499Y-113862801D01*
X154163498Y-113862799D01*
X154163495Y-113862796D01*
X154163493Y-113862794D01*
X154044530Y-113757401D01*
X153903791Y-113683536D01*
X153749472Y-113645500D01*
X153749471Y-113645500D01*
X153590529Y-113645500D01*
X153590528Y-113645500D01*
X153436208Y-113683536D01*
X153295469Y-113757401D01*
X153176506Y-113862794D01*
X153176500Y-113862801D01*
X153086214Y-113993602D01*
X153029850Y-114142218D01*
X153010693Y-114299999D01*
X153010693Y-114300000D01*
X152400500Y-114300000D01*
X152400500Y-111893500D01*
X160510193Y-111893500D01*
X160529350Y-112051281D01*
X160585714Y-112199897D01*
X160661843Y-112310189D01*
X160676002Y-112330701D01*
X160676004Y-112330703D01*
X160676006Y-112330705D01*
X160794969Y-112436098D01*
X160794971Y-112436099D01*
X160935707Y-112509963D01*
X161012867Y-112528981D01*
X161090028Y-112548000D01*
X161090029Y-112548000D01*
X161248972Y-112548000D01*
X161300411Y-112535320D01*
X161403293Y-112509963D01*
X161544029Y-112436099D01*
X161662998Y-112330701D01*
X161706277Y-112268000D01*
X168631693Y-112268000D01*
X168650850Y-112425781D01*
X168682777Y-112509963D01*
X168707213Y-112574395D01*
X168797502Y-112705201D01*
X168797504Y-112705203D01*
X168797506Y-112705205D01*
X168916469Y-112810598D01*
X168916471Y-112810599D01*
X169057207Y-112884463D01*
X169134367Y-112903481D01*
X169211528Y-112922500D01*
X169211529Y-112922500D01*
X169370472Y-112922500D01*
X169421911Y-112909821D01*
X169524793Y-112884463D01*
X169665529Y-112810599D01*
X169784498Y-112705201D01*
X169874787Y-112574395D01*
X169931149Y-112425782D01*
X169950307Y-112268000D01*
X169931149Y-112110218D01*
X169874787Y-111961605D01*
X169784498Y-111830799D01*
X169784495Y-111830796D01*
X169784493Y-111830794D01*
X169665530Y-111725401D01*
X169524791Y-111651536D01*
X169370472Y-111613500D01*
X169370471Y-111613500D01*
X169211529Y-111613500D01*
X169211528Y-111613500D01*
X169057208Y-111651536D01*
X168916469Y-111725401D01*
X168797506Y-111830794D01*
X168797500Y-111830801D01*
X168707214Y-111961602D01*
X168650850Y-112110218D01*
X168631693Y-112267999D01*
X168631693Y-112268000D01*
X161706277Y-112268000D01*
X161753287Y-112199895D01*
X161809649Y-112051282D01*
X161828807Y-111893500D01*
X161809649Y-111735718D01*
X161753287Y-111587105D01*
X161662998Y-111456299D01*
X161662995Y-111456296D01*
X161662993Y-111456294D01*
X161544030Y-111350901D01*
X161403291Y-111277036D01*
X161248972Y-111239000D01*
X161248971Y-111239000D01*
X161090029Y-111239000D01*
X161090028Y-111239000D01*
X160935708Y-111277036D01*
X160794969Y-111350901D01*
X160676006Y-111456294D01*
X160676000Y-111456301D01*
X160585714Y-111587102D01*
X160529350Y-111735718D01*
X160510193Y-111893499D01*
X160510193Y-111893500D01*
X152400500Y-111893500D01*
X152400500Y-110045063D01*
X155470388Y-110045063D01*
X155485154Y-110119301D01*
X155541403Y-110203484D01*
X155575122Y-110226014D01*
X155625587Y-110259734D01*
X155625590Y-110259734D01*
X155625591Y-110259735D01*
X155650554Y-110264700D01*
X155699821Y-110274500D01*
X157349954Y-110274499D01*
X157424189Y-110259734D01*
X157508372Y-110203484D01*
X157564622Y-110119301D01*
X157579388Y-110045067D01*
X157579387Y-110045062D01*
X157579531Y-110044344D01*
X157611916Y-109982433D01*
X157672631Y-109947858D01*
X157742401Y-109951597D01*
X157779814Y-109972681D01*
X157936205Y-110101027D01*
X157936208Y-110101028D01*
X157936210Y-110101030D01*
X158119391Y-110198943D01*
X158119393Y-110198943D01*
X158119396Y-110198945D01*
X158318170Y-110259242D01*
X158524888Y-110279602D01*
X158731606Y-110259242D01*
X158930380Y-110198945D01*
X159113571Y-110101027D01*
X159181764Y-110045063D01*
X173250388Y-110045063D01*
X173265154Y-110119301D01*
X173321403Y-110203484D01*
X173355122Y-110226014D01*
X173405587Y-110259734D01*
X173405590Y-110259734D01*
X173405591Y-110259735D01*
X173430554Y-110264700D01*
X173479821Y-110274500D01*
X175129954Y-110274499D01*
X175204189Y-110259734D01*
X175288372Y-110203484D01*
X175344622Y-110119301D01*
X175359388Y-110045067D01*
X175359387Y-110045062D01*
X175359531Y-110044344D01*
X175391916Y-109982433D01*
X175452631Y-109947858D01*
X175522401Y-109951597D01*
X175559814Y-109972681D01*
X175716205Y-110101027D01*
X175716208Y-110101028D01*
X175716210Y-110101030D01*
X175899391Y-110198943D01*
X175899393Y-110198943D01*
X175899396Y-110198945D01*
X176098170Y-110259242D01*
X176304888Y-110279602D01*
X176511606Y-110259242D01*
X176710380Y-110198945D01*
X176893571Y-110101027D01*
X177054140Y-109969252D01*
X177185915Y-109808683D01*
X177283833Y-109625492D01*
X177344130Y-109426718D01*
X177364490Y-109220000D01*
X178410693Y-109220000D01*
X178429850Y-109377781D01*
X178448409Y-109426716D01*
X178486213Y-109526395D01*
X178576502Y-109657201D01*
X178576504Y-109657203D01*
X178576506Y-109657205D01*
X178695469Y-109762598D01*
X178695471Y-109762599D01*
X178836207Y-109836463D01*
X178913367Y-109855481D01*
X178990528Y-109874500D01*
X178990529Y-109874500D01*
X179149472Y-109874500D01*
X179200911Y-109861820D01*
X179303793Y-109836463D01*
X179444529Y-109762599D01*
X179563498Y-109657201D01*
X179653787Y-109526395D01*
X179710149Y-109377782D01*
X179729307Y-109220000D01*
X179710149Y-109062218D01*
X179653787Y-108913605D01*
X179563498Y-108782799D01*
X179563495Y-108782796D01*
X179563493Y-108782794D01*
X179444530Y-108677401D01*
X179303791Y-108603536D01*
X179149472Y-108565500D01*
X179149471Y-108565500D01*
X178990529Y-108565500D01*
X178990528Y-108565500D01*
X178836208Y-108603536D01*
X178695469Y-108677401D01*
X178576506Y-108782794D01*
X178576500Y-108782801D01*
X178486214Y-108913602D01*
X178429850Y-109062218D01*
X178410693Y-109219999D01*
X178410693Y-109220000D01*
X177364490Y-109220000D01*
X177344130Y-109013282D01*
X177283833Y-108814508D01*
X177283831Y-108814505D01*
X177283831Y-108814503D01*
X177185918Y-108631322D01*
X177185916Y-108631320D01*
X177185915Y-108631317D01*
X177131901Y-108565500D01*
X177054140Y-108470747D01*
X176893572Y-108338974D01*
X176893565Y-108338969D01*
X176710384Y-108241056D01*
X176511604Y-108180757D01*
X176327471Y-108162622D01*
X176304888Y-108160398D01*
X176304887Y-108160398D01*
X176098171Y-108180757D01*
X175899391Y-108241056D01*
X175716210Y-108338969D01*
X175716204Y-108338973D01*
X175559812Y-108467320D01*
X175495502Y-108494632D01*
X175426635Y-108482841D01*
X175375075Y-108435688D01*
X175359530Y-108395655D01*
X175359387Y-108394934D01*
X175344622Y-108320699D01*
X175325956Y-108292764D01*
X175288372Y-108236515D01*
X175237907Y-108202796D01*
X175204189Y-108180266D01*
X175204187Y-108180265D01*
X175204184Y-108180264D01*
X175129957Y-108165500D01*
X173479824Y-108165500D01*
X173405586Y-108180266D01*
X173321403Y-108236515D01*
X173265154Y-108320699D01*
X173265152Y-108320703D01*
X173250388Y-108394928D01*
X173250388Y-110045063D01*
X159181764Y-110045063D01*
X159274140Y-109969252D01*
X159405915Y-109808683D01*
X159503833Y-109625492D01*
X159564130Y-109426718D01*
X159584490Y-109220000D01*
X159564130Y-109013282D01*
X159503833Y-108814508D01*
X159503831Y-108814505D01*
X159503831Y-108814503D01*
X159405918Y-108631322D01*
X159405916Y-108631320D01*
X159405915Y-108631317D01*
X159351901Y-108565500D01*
X159274140Y-108470747D01*
X159113572Y-108338974D01*
X159113565Y-108338969D01*
X158930384Y-108241056D01*
X158731604Y-108180757D01*
X158524888Y-108160398D01*
X158318171Y-108180757D01*
X158119391Y-108241056D01*
X157936210Y-108338969D01*
X157936204Y-108338973D01*
X157779812Y-108467320D01*
X157715502Y-108494632D01*
X157646635Y-108482841D01*
X157595075Y-108435688D01*
X157579530Y-108395655D01*
X157579387Y-108394934D01*
X157564622Y-108320699D01*
X157545956Y-108292765D01*
X157508372Y-108236515D01*
X157457907Y-108202796D01*
X157424189Y-108180266D01*
X157424187Y-108180265D01*
X157424184Y-108180264D01*
X157349957Y-108165500D01*
X155699824Y-108165500D01*
X155625586Y-108180266D01*
X155541403Y-108236515D01*
X155485154Y-108320699D01*
X155485152Y-108320703D01*
X155470388Y-108394928D01*
X155470388Y-110045063D01*
X152400500Y-110045063D01*
X152400500Y-109220000D01*
X153010693Y-109220000D01*
X153029850Y-109377781D01*
X153048409Y-109426716D01*
X153086213Y-109526395D01*
X153176502Y-109657201D01*
X153176504Y-109657203D01*
X153176506Y-109657205D01*
X153295469Y-109762598D01*
X153295471Y-109762599D01*
X153436207Y-109836463D01*
X153513368Y-109855481D01*
X153590528Y-109874500D01*
X153590529Y-109874500D01*
X153749472Y-109874500D01*
X153800911Y-109861820D01*
X153903793Y-109836463D01*
X154044529Y-109762599D01*
X154163498Y-109657201D01*
X154253787Y-109526395D01*
X154310149Y-109377782D01*
X154329307Y-109220000D01*
X154310149Y-109062218D01*
X154253787Y-108913605D01*
X154163498Y-108782799D01*
X154163495Y-108782796D01*
X154163493Y-108782794D01*
X154044530Y-108677401D01*
X153903791Y-108603536D01*
X153749472Y-108565500D01*
X153749471Y-108565500D01*
X153590529Y-108565500D01*
X153590528Y-108565500D01*
X153436208Y-108603536D01*
X153295469Y-108677401D01*
X153176506Y-108782794D01*
X153176500Y-108782801D01*
X153086214Y-108913602D01*
X153029850Y-109062218D01*
X153010693Y-109219999D01*
X153010693Y-109220000D01*
X152400500Y-109220000D01*
X152400500Y-107950000D01*
X161392693Y-107950000D01*
X161411850Y-108107781D01*
X161433741Y-108165501D01*
X161460673Y-108236515D01*
X161468214Y-108256397D01*
X161525213Y-108338974D01*
X161558502Y-108387201D01*
X161558504Y-108387203D01*
X161558506Y-108387205D01*
X161677469Y-108492598D01*
X161689639Y-108498985D01*
X161818207Y-108566463D01*
X161895367Y-108585481D01*
X161972528Y-108604500D01*
X161972529Y-108604500D01*
X162131472Y-108604500D01*
X162182911Y-108591821D01*
X162285793Y-108566463D01*
X162426529Y-108492599D01*
X162545498Y-108387201D01*
X162635787Y-108256395D01*
X162692149Y-108107782D01*
X162711307Y-107950000D01*
X163090693Y-107950000D01*
X163109850Y-108107781D01*
X163131741Y-108165501D01*
X163158673Y-108236515D01*
X163166214Y-108256397D01*
X163223213Y-108338974D01*
X163256502Y-108387201D01*
X163256504Y-108387203D01*
X163256506Y-108387205D01*
X163375469Y-108492598D01*
X163387639Y-108498985D01*
X163516207Y-108566463D01*
X163593368Y-108585481D01*
X163670528Y-108604500D01*
X163670529Y-108604500D01*
X163829472Y-108604500D01*
X163880911Y-108591821D01*
X163983793Y-108566463D01*
X164124529Y-108492599D01*
X164243498Y-108387201D01*
X164333787Y-108256395D01*
X164390149Y-108107782D01*
X164409307Y-107950000D01*
X164390149Y-107792218D01*
X164333787Y-107643605D01*
X164243498Y-107512799D01*
X164243495Y-107512796D01*
X164243493Y-107512794D01*
X164124530Y-107407401D01*
X163983791Y-107333536D01*
X163829472Y-107295500D01*
X163829471Y-107295500D01*
X163670529Y-107295500D01*
X163670528Y-107295500D01*
X163516208Y-107333536D01*
X163375469Y-107407401D01*
X163256506Y-107512794D01*
X163256500Y-107512801D01*
X163166214Y-107643602D01*
X163109850Y-107792218D01*
X163090693Y-107949999D01*
X163090693Y-107950000D01*
X162711307Y-107950000D01*
X162692149Y-107792218D01*
X162635787Y-107643605D01*
X162545498Y-107512799D01*
X162545495Y-107512796D01*
X162545493Y-107512794D01*
X162426530Y-107407401D01*
X162285791Y-107333536D01*
X162131472Y-107295500D01*
X162131471Y-107295500D01*
X161972529Y-107295500D01*
X161972528Y-107295500D01*
X161818208Y-107333536D01*
X161677469Y-107407401D01*
X161558506Y-107512794D01*
X161558500Y-107512801D01*
X161468214Y-107643602D01*
X161411850Y-107792218D01*
X161392693Y-107949999D01*
X161392693Y-107950000D01*
X152400500Y-107950000D01*
X152400500Y-104140000D01*
X153010693Y-104140000D01*
X153029850Y-104297781D01*
X153070427Y-104404773D01*
X153086213Y-104446395D01*
X153176502Y-104577201D01*
X153176504Y-104577203D01*
X153176506Y-104577205D01*
X153295469Y-104682598D01*
X153295471Y-104682599D01*
X153436207Y-104756463D01*
X153513368Y-104775481D01*
X153590528Y-104794500D01*
X153590529Y-104794500D01*
X153749472Y-104794500D01*
X153800911Y-104781820D01*
X153903793Y-104756463D01*
X154044529Y-104682599D01*
X154163498Y-104577201D01*
X154253787Y-104446395D01*
X154310149Y-104297782D01*
X154329307Y-104140000D01*
X154318087Y-104047598D01*
X154310149Y-103982218D01*
X154287004Y-103921191D01*
X154253787Y-103833605D01*
X154163498Y-103702799D01*
X154163495Y-103702796D01*
X154163493Y-103702794D01*
X154044530Y-103597401D01*
X153903791Y-103523536D01*
X153749472Y-103485500D01*
X153749471Y-103485500D01*
X153590529Y-103485500D01*
X153590528Y-103485500D01*
X153436208Y-103523536D01*
X153295469Y-103597401D01*
X153176506Y-103702794D01*
X153176500Y-103702801D01*
X153086214Y-103833602D01*
X153029850Y-103982218D01*
X153010693Y-104139999D01*
X153010693Y-104140000D01*
X152400500Y-104140000D01*
X152400500Y-103124000D01*
X165075693Y-103124000D01*
X165094850Y-103281781D01*
X165151214Y-103430397D01*
X165226591Y-103539599D01*
X165241502Y-103561201D01*
X165241504Y-103561203D01*
X165241506Y-103561205D01*
X165360469Y-103666598D01*
X165360471Y-103666599D01*
X165501207Y-103740463D01*
X165578368Y-103759481D01*
X165655528Y-103778500D01*
X165655529Y-103778500D01*
X165814472Y-103778500D01*
X165865911Y-103765820D01*
X165968793Y-103740463D01*
X166109529Y-103666599D01*
X166228498Y-103561201D01*
X166267291Y-103505000D01*
X173965693Y-103505000D01*
X173984850Y-103662781D01*
X174000028Y-103702801D01*
X174041213Y-103811395D01*
X174131502Y-103942201D01*
X174131504Y-103942203D01*
X174131506Y-103942205D01*
X174250469Y-104047598D01*
X174250471Y-104047599D01*
X174391207Y-104121463D01*
X174468368Y-104140481D01*
X174545528Y-104159500D01*
X174545529Y-104159500D01*
X174704472Y-104159500D01*
X174755911Y-104146820D01*
X174858793Y-104121463D01*
X174999529Y-104047599D01*
X175050772Y-104002200D01*
X175114004Y-103972479D01*
X175183268Y-103981661D01*
X175215228Y-104002201D01*
X175266469Y-104047598D01*
X175266471Y-104047599D01*
X175407207Y-104121463D01*
X175484367Y-104140481D01*
X175561528Y-104159500D01*
X175561529Y-104159500D01*
X175720472Y-104159500D01*
X175771911Y-104146821D01*
X175799585Y-104140000D01*
X178410693Y-104140000D01*
X178429850Y-104297781D01*
X178470427Y-104404773D01*
X178486213Y-104446395D01*
X178576502Y-104577201D01*
X178576504Y-104577203D01*
X178576506Y-104577205D01*
X178695469Y-104682598D01*
X178695471Y-104682599D01*
X178836207Y-104756463D01*
X178913367Y-104775481D01*
X178990528Y-104794500D01*
X178990529Y-104794500D01*
X179149472Y-104794500D01*
X179200911Y-104781821D01*
X179303793Y-104756463D01*
X179444529Y-104682599D01*
X179563498Y-104577201D01*
X179653787Y-104446395D01*
X179710149Y-104297782D01*
X179729307Y-104140000D01*
X179718087Y-104047598D01*
X179710149Y-103982218D01*
X179687004Y-103921191D01*
X179653787Y-103833605D01*
X179563498Y-103702799D01*
X179563495Y-103702796D01*
X179563493Y-103702794D01*
X179444530Y-103597401D01*
X179303791Y-103523536D01*
X179149472Y-103485500D01*
X179149471Y-103485500D01*
X178990529Y-103485500D01*
X178990528Y-103485500D01*
X178836208Y-103523536D01*
X178695469Y-103597401D01*
X178576506Y-103702794D01*
X178576500Y-103702801D01*
X178486214Y-103833602D01*
X178429850Y-103982218D01*
X178410693Y-104139999D01*
X178410693Y-104140000D01*
X175799585Y-104140000D01*
X175874793Y-104121463D01*
X176015529Y-104047599D01*
X176134498Y-103942201D01*
X176224787Y-103811395D01*
X176281149Y-103662782D01*
X176300307Y-103505000D01*
X176281149Y-103347218D01*
X176224787Y-103198605D01*
X176134498Y-103067799D01*
X176134495Y-103067796D01*
X176134493Y-103067794D01*
X176054584Y-102997000D01*
X176505693Y-102997000D01*
X176524850Y-103154781D01*
X176541470Y-103198602D01*
X176581213Y-103303395D01*
X176671502Y-103434201D01*
X176671504Y-103434203D01*
X176671506Y-103434205D01*
X176790469Y-103539598D01*
X176790471Y-103539599D01*
X176931207Y-103613463D01*
X177008367Y-103632481D01*
X177085528Y-103651500D01*
X177085529Y-103651500D01*
X177244472Y-103651500D01*
X177295911Y-103638820D01*
X177398793Y-103613463D01*
X177539529Y-103539599D01*
X177658498Y-103434201D01*
X177748787Y-103303395D01*
X177805149Y-103154782D01*
X177824307Y-102997000D01*
X177820569Y-102966218D01*
X177805149Y-102839218D01*
X177796951Y-102817601D01*
X177748787Y-102690605D01*
X177658498Y-102559799D01*
X177658495Y-102559796D01*
X177658493Y-102559794D01*
X177539530Y-102454401D01*
X177398791Y-102380536D01*
X177244472Y-102342500D01*
X177244471Y-102342500D01*
X177085529Y-102342500D01*
X177085528Y-102342500D01*
X176931208Y-102380536D01*
X176790469Y-102454401D01*
X176671506Y-102559794D01*
X176671500Y-102559801D01*
X176581214Y-102690602D01*
X176524850Y-102839218D01*
X176505693Y-102996999D01*
X176505693Y-102997000D01*
X176054584Y-102997000D01*
X176015530Y-102962401D01*
X175874791Y-102888536D01*
X175720472Y-102850500D01*
X175720471Y-102850500D01*
X175561529Y-102850500D01*
X175561528Y-102850500D01*
X175407208Y-102888536D01*
X175266469Y-102962401D01*
X175215227Y-103007799D01*
X175151994Y-103037521D01*
X175082731Y-103028337D01*
X175050773Y-103007799D01*
X174999530Y-102962401D01*
X174858791Y-102888536D01*
X174704472Y-102850500D01*
X174704471Y-102850500D01*
X174545529Y-102850500D01*
X174545528Y-102850500D01*
X174391208Y-102888536D01*
X174250469Y-102962401D01*
X174131506Y-103067794D01*
X174131500Y-103067801D01*
X174041214Y-103198602D01*
X173984850Y-103347218D01*
X173965693Y-103504999D01*
X173965693Y-103505000D01*
X166267291Y-103505000D01*
X166318787Y-103430395D01*
X166375149Y-103281782D01*
X166394307Y-103124000D01*
X166387482Y-103067794D01*
X166375149Y-102966218D01*
X166345688Y-102888537D01*
X166318787Y-102817605D01*
X166228498Y-102686799D01*
X166228497Y-102686798D01*
X166228250Y-102686440D01*
X166206367Y-102620086D01*
X166223832Y-102552434D01*
X166228250Y-102545560D01*
X166228498Y-102545201D01*
X166318787Y-102414395D01*
X166375149Y-102265782D01*
X166394307Y-102108000D01*
X166375149Y-101950218D01*
X166318787Y-101801605D01*
X166228498Y-101670799D01*
X166228495Y-101670796D01*
X166228493Y-101670794D01*
X166148584Y-101600000D01*
X167234693Y-101600000D01*
X167253850Y-101757781D01*
X167270470Y-101801602D01*
X167310213Y-101906395D01*
X167400502Y-102037201D01*
X167400504Y-102037203D01*
X167400506Y-102037205D01*
X167519469Y-102142598D01*
X167519471Y-102142599D01*
X167660207Y-102216463D01*
X167737367Y-102235481D01*
X167814528Y-102254500D01*
X167814529Y-102254500D01*
X167973472Y-102254500D01*
X168024911Y-102241821D01*
X168127793Y-102216463D01*
X168268529Y-102142599D01*
X168383274Y-102040942D01*
X168446505Y-102011222D01*
X168515769Y-102020405D01*
X168547724Y-102040941D01*
X168662471Y-102142599D01*
X168803207Y-102216463D01*
X168880367Y-102235481D01*
X168957528Y-102254500D01*
X168957529Y-102254500D01*
X169116472Y-102254500D01*
X169167911Y-102241820D01*
X169270793Y-102216463D01*
X169411529Y-102142599D01*
X169530498Y-102037201D01*
X169620787Y-101906395D01*
X169677149Y-101757782D01*
X169696307Y-101600000D01*
X169677149Y-101442218D01*
X169620787Y-101293605D01*
X169530498Y-101162799D01*
X169530495Y-101162796D01*
X169530493Y-101162794D01*
X169411530Y-101057401D01*
X169270791Y-100983536D01*
X169116472Y-100945500D01*
X169116471Y-100945500D01*
X168957529Y-100945500D01*
X168957528Y-100945500D01*
X168803208Y-100983536D01*
X168662469Y-101057401D01*
X168547727Y-101159055D01*
X168484494Y-101188777D01*
X168415231Y-101179593D01*
X168383273Y-101159055D01*
X168268530Y-101057401D01*
X168127791Y-100983536D01*
X167973472Y-100945500D01*
X167973471Y-100945500D01*
X167814529Y-100945500D01*
X167814528Y-100945500D01*
X167660208Y-100983536D01*
X167519469Y-101057401D01*
X167400506Y-101162794D01*
X167400500Y-101162801D01*
X167310214Y-101293602D01*
X167253850Y-101442218D01*
X167234693Y-101599999D01*
X167234693Y-101600000D01*
X166148584Y-101600000D01*
X166109530Y-101565401D01*
X165968791Y-101491536D01*
X165814472Y-101453500D01*
X165814471Y-101453500D01*
X165655529Y-101453500D01*
X165655528Y-101453500D01*
X165501208Y-101491536D01*
X165360469Y-101565401D01*
X165241506Y-101670794D01*
X165241500Y-101670801D01*
X165151214Y-101801602D01*
X165094850Y-101950218D01*
X165075693Y-102107999D01*
X165075693Y-102108000D01*
X165094850Y-102265781D01*
X165151214Y-102414397D01*
X165241749Y-102545559D01*
X165263632Y-102611913D01*
X165246167Y-102679565D01*
X165241749Y-102686438D01*
X165151216Y-102817598D01*
X165151214Y-102817601D01*
X165094850Y-102966218D01*
X165075693Y-103123999D01*
X165075693Y-103124000D01*
X152400500Y-103124000D01*
X152400500Y-99060000D01*
X153010693Y-99060000D01*
X153029850Y-99217781D01*
X153070427Y-99324773D01*
X153086213Y-99366395D01*
X153176502Y-99497201D01*
X153176504Y-99497203D01*
X153176506Y-99497205D01*
X153295469Y-99602598D01*
X153295471Y-99602599D01*
X153436207Y-99676463D01*
X153513368Y-99695481D01*
X153590528Y-99714500D01*
X153590529Y-99714500D01*
X153749472Y-99714500D01*
X153800911Y-99701820D01*
X153903793Y-99676463D01*
X154044529Y-99602599D01*
X154163498Y-99497201D01*
X154253787Y-99366395D01*
X154310149Y-99217782D01*
X154329307Y-99060000D01*
X154310149Y-98902218D01*
X154253787Y-98753605D01*
X154163498Y-98622799D01*
X154163495Y-98622796D01*
X154163493Y-98622794D01*
X154044530Y-98517401D01*
X153915961Y-98449923D01*
X153903793Y-98443537D01*
X153903792Y-98443536D01*
X153903791Y-98443536D01*
X153749472Y-98405500D01*
X153749471Y-98405500D01*
X153590529Y-98405500D01*
X153590528Y-98405500D01*
X153436208Y-98443536D01*
X153295469Y-98517401D01*
X153176506Y-98622794D01*
X153176500Y-98622801D01*
X153086214Y-98753602D01*
X153029850Y-98902218D01*
X153010693Y-99059999D01*
X153010693Y-99060000D01*
X152400500Y-99060000D01*
X152400500Y-98298000D01*
X158725693Y-98298000D01*
X158744850Y-98455781D01*
X158801214Y-98604397D01*
X158831462Y-98648218D01*
X158891502Y-98735201D01*
X158891504Y-98735203D01*
X158891506Y-98735205D01*
X159010469Y-98840598D01*
X159010471Y-98840599D01*
X159151207Y-98914463D01*
X159228367Y-98933481D01*
X159305528Y-98952500D01*
X159305529Y-98952500D01*
X159464472Y-98952500D01*
X159515911Y-98939820D01*
X159618793Y-98914463D01*
X159759529Y-98840599D01*
X159874274Y-98738942D01*
X159937505Y-98709222D01*
X160006769Y-98718405D01*
X160038724Y-98738941D01*
X160153471Y-98840599D01*
X160294207Y-98914463D01*
X160371367Y-98933481D01*
X160448528Y-98952500D01*
X160448529Y-98952500D01*
X160607472Y-98952500D01*
X160658911Y-98939820D01*
X160761793Y-98914463D01*
X160902529Y-98840599D01*
X160941583Y-98806000D01*
X171840693Y-98806000D01*
X171859850Y-98963781D01*
X171916214Y-99112397D01*
X171992343Y-99222689D01*
X172006502Y-99243201D01*
X172006504Y-99243203D01*
X172006506Y-99243205D01*
X172125469Y-99348598D01*
X172125471Y-99348599D01*
X172266207Y-99422463D01*
X172343367Y-99441481D01*
X172420528Y-99460500D01*
X172420529Y-99460500D01*
X172579472Y-99460500D01*
X172630911Y-99447821D01*
X172733793Y-99422463D01*
X172874529Y-99348599D01*
X172993498Y-99243201D01*
X173002835Y-99229673D01*
X173015950Y-99210674D01*
X173070232Y-99166683D01*
X173139681Y-99159023D01*
X173202246Y-99190126D01*
X173220050Y-99210674D01*
X173242497Y-99243195D01*
X173242506Y-99243205D01*
X173361469Y-99348598D01*
X173361471Y-99348599D01*
X173502207Y-99422463D01*
X173579367Y-99441481D01*
X173656528Y-99460500D01*
X173656529Y-99460500D01*
X173815472Y-99460500D01*
X173866911Y-99447820D01*
X173969793Y-99422463D01*
X174110529Y-99348599D01*
X174229498Y-99243201D01*
X174319787Y-99112395D01*
X174339658Y-99060000D01*
X178410693Y-99060000D01*
X178429850Y-99217781D01*
X178470427Y-99324773D01*
X178486213Y-99366395D01*
X178576502Y-99497201D01*
X178576504Y-99497203D01*
X178576506Y-99497205D01*
X178695469Y-99602598D01*
X178695471Y-99602599D01*
X178836207Y-99676463D01*
X178913367Y-99695481D01*
X178990528Y-99714500D01*
X178990529Y-99714500D01*
X179149472Y-99714500D01*
X179200911Y-99701820D01*
X179303793Y-99676463D01*
X179444529Y-99602599D01*
X179563498Y-99497201D01*
X179653787Y-99366395D01*
X179710149Y-99217782D01*
X179729307Y-99060000D01*
X179710149Y-98902218D01*
X179653787Y-98753605D01*
X179563498Y-98622799D01*
X179563495Y-98622796D01*
X179563493Y-98622794D01*
X179444530Y-98517401D01*
X179315961Y-98449923D01*
X179303793Y-98443537D01*
X179303792Y-98443536D01*
X179303791Y-98443536D01*
X179149472Y-98405500D01*
X179149471Y-98405500D01*
X178990529Y-98405500D01*
X178990528Y-98405500D01*
X178836208Y-98443536D01*
X178695469Y-98517401D01*
X178576506Y-98622794D01*
X178576500Y-98622801D01*
X178486214Y-98753602D01*
X178429850Y-98902218D01*
X178410693Y-99059999D01*
X178410693Y-99060000D01*
X174339658Y-99060000D01*
X174376149Y-98963782D01*
X174395307Y-98806000D01*
X174376149Y-98648218D01*
X174319787Y-98499605D01*
X174229498Y-98368799D01*
X174229495Y-98368796D01*
X174229493Y-98368794D01*
X174110530Y-98263401D01*
X173969791Y-98189536D01*
X173815472Y-98151500D01*
X173815471Y-98151500D01*
X173656529Y-98151500D01*
X173656528Y-98151500D01*
X173502208Y-98189536D01*
X173361469Y-98263401D01*
X173242506Y-98368794D01*
X173242496Y-98368805D01*
X173220047Y-98401328D01*
X173165764Y-98445317D01*
X173096315Y-98452975D01*
X173033751Y-98421871D01*
X173015951Y-98401328D01*
X172993498Y-98368799D01*
X172993497Y-98368798D01*
X172993493Y-98368794D01*
X172874530Y-98263401D01*
X172733791Y-98189536D01*
X172579472Y-98151500D01*
X172579471Y-98151500D01*
X172420529Y-98151500D01*
X172420528Y-98151500D01*
X172266208Y-98189536D01*
X172125469Y-98263401D01*
X172006506Y-98368794D01*
X172006500Y-98368801D01*
X171916214Y-98499602D01*
X171859850Y-98648218D01*
X171840693Y-98805999D01*
X171840693Y-98806000D01*
X160941583Y-98806000D01*
X161021498Y-98735201D01*
X161111787Y-98604395D01*
X161168149Y-98455782D01*
X161187307Y-98298000D01*
X161168149Y-98140218D01*
X161111787Y-97991605D01*
X161021498Y-97860799D01*
X161021495Y-97860796D01*
X161021493Y-97860794D01*
X160974673Y-97819315D01*
X160937546Y-97760126D01*
X160938314Y-97690260D01*
X160974673Y-97633685D01*
X161021493Y-97592205D01*
X161021498Y-97592201D01*
X161111787Y-97461395D01*
X161168149Y-97312782D01*
X161187307Y-97155000D01*
X161168149Y-96997218D01*
X161111787Y-96848605D01*
X161021498Y-96717799D01*
X161021495Y-96717796D01*
X161021493Y-96717794D01*
X160974673Y-96676315D01*
X160937546Y-96617126D01*
X160938314Y-96547260D01*
X160974673Y-96490685D01*
X161021493Y-96449205D01*
X161021498Y-96449201D01*
X161111787Y-96318395D01*
X161168149Y-96169782D01*
X161187307Y-96012000D01*
X161171887Y-95885000D01*
X162027693Y-95885000D01*
X162046850Y-96042781D01*
X162087427Y-96149773D01*
X162103213Y-96191395D01*
X162193502Y-96322201D01*
X162193504Y-96322203D01*
X162193506Y-96322205D01*
X162312469Y-96427598D01*
X162312471Y-96427599D01*
X162453207Y-96501463D01*
X162530368Y-96520481D01*
X162607528Y-96539500D01*
X162607529Y-96539500D01*
X162766472Y-96539500D01*
X162817911Y-96526821D01*
X162920793Y-96501463D01*
X163061529Y-96427599D01*
X163112772Y-96382200D01*
X163176004Y-96352479D01*
X163245268Y-96361661D01*
X163277228Y-96382201D01*
X163328469Y-96427598D01*
X163328471Y-96427599D01*
X163469207Y-96501463D01*
X163546368Y-96520481D01*
X163623528Y-96539500D01*
X163623529Y-96539500D01*
X163782472Y-96539500D01*
X163833911Y-96526821D01*
X163936793Y-96501463D01*
X164077529Y-96427599D01*
X164196498Y-96322201D01*
X164286787Y-96191395D01*
X164343149Y-96042782D01*
X164362307Y-95885000D01*
X165673193Y-95885000D01*
X165692350Y-96042781D01*
X165732927Y-96149773D01*
X165748713Y-96191395D01*
X165839002Y-96322201D01*
X165839004Y-96322203D01*
X165839006Y-96322205D01*
X165957969Y-96427598D01*
X165957971Y-96427599D01*
X166098707Y-96501463D01*
X166175867Y-96520481D01*
X166253028Y-96539500D01*
X166253029Y-96539500D01*
X166411972Y-96539500D01*
X166463411Y-96526821D01*
X166566293Y-96501463D01*
X166707029Y-96427599D01*
X166825998Y-96322201D01*
X166916287Y-96191395D01*
X166972649Y-96042782D01*
X166991807Y-95885000D01*
X166988069Y-95854218D01*
X166972649Y-95727218D01*
X166938817Y-95638012D01*
X166916287Y-95578605D01*
X166913656Y-95574794D01*
X166878251Y-95523500D01*
X166825998Y-95447799D01*
X166825995Y-95447796D01*
X166825993Y-95447794D01*
X166707030Y-95342401D01*
X166566291Y-95268536D01*
X166411972Y-95230500D01*
X166411971Y-95230500D01*
X166253029Y-95230500D01*
X166253028Y-95230500D01*
X166098708Y-95268536D01*
X165957969Y-95342401D01*
X165839006Y-95447794D01*
X165839000Y-95447801D01*
X165748714Y-95578602D01*
X165692350Y-95727218D01*
X165673193Y-95884999D01*
X165673193Y-95885000D01*
X164362307Y-95885000D01*
X164358569Y-95854218D01*
X164343149Y-95727218D01*
X164309317Y-95638012D01*
X164303950Y-95568348D01*
X164337097Y-95506842D01*
X164398235Y-95473021D01*
X164467953Y-95477622D01*
X164482877Y-95484240D01*
X164485207Y-95485463D01*
X164600948Y-95513990D01*
X164639528Y-95523500D01*
X164639529Y-95523500D01*
X164798472Y-95523500D01*
X164866055Y-95506842D01*
X164952793Y-95485463D01*
X165093529Y-95411599D01*
X165212498Y-95306201D01*
X165302787Y-95175395D01*
X165359149Y-95026782D01*
X165378307Y-94869000D01*
X165367087Y-94776598D01*
X165359149Y-94711218D01*
X165330053Y-94634500D01*
X165302787Y-94562605D01*
X165212498Y-94431799D01*
X165212495Y-94431796D01*
X165212493Y-94431794D01*
X165093530Y-94326401D01*
X164956973Y-94254731D01*
X164952793Y-94252537D01*
X164952792Y-94252536D01*
X164952791Y-94252536D01*
X164798472Y-94214500D01*
X164798471Y-94214500D01*
X164639529Y-94214500D01*
X164639528Y-94214500D01*
X164485206Y-94252536D01*
X164485206Y-94252537D01*
X164482878Y-94253759D01*
X164480985Y-94254137D01*
X164478199Y-94255195D01*
X164478023Y-94254731D01*
X164414369Y-94267480D01*
X164349317Y-94241984D01*
X164308377Y-94185366D01*
X164304545Y-94115601D01*
X164309317Y-94099988D01*
X164343149Y-94010782D01*
X164362307Y-93853000D01*
X164358569Y-93822218D01*
X164343149Y-93695218D01*
X164334951Y-93673602D01*
X164311780Y-93612507D01*
X164306414Y-93542847D01*
X164339561Y-93481340D01*
X164400699Y-93447519D01*
X164470417Y-93452120D01*
X164515404Y-93480857D01*
X164540086Y-93505539D01*
X164797822Y-93707463D01*
X164802405Y-93711053D01*
X165087580Y-93883447D01*
X165391455Y-94020210D01*
X165391465Y-94020213D01*
X165391473Y-94020216D01*
X165571191Y-94076218D01*
X165709600Y-94119348D01*
X166037375Y-94179415D01*
X166370000Y-94199535D01*
X166702625Y-94179415D01*
X167030400Y-94119348D01*
X167348545Y-94020210D01*
X167652420Y-93883447D01*
X167702786Y-93853000D01*
X172695693Y-93853000D01*
X172714850Y-94010781D01*
X172771214Y-94159397D01*
X172822709Y-94234000D01*
X172861502Y-94290201D01*
X172861504Y-94290203D01*
X172861506Y-94290205D01*
X172980469Y-94395598D01*
X172980471Y-94395599D01*
X173121207Y-94469463D01*
X173198367Y-94488481D01*
X173275528Y-94507500D01*
X173275529Y-94507500D01*
X173434472Y-94507500D01*
X173485911Y-94494821D01*
X173588793Y-94469463D01*
X173729529Y-94395599D01*
X173848498Y-94290201D01*
X173887291Y-94234000D01*
X176505693Y-94234000D01*
X176524850Y-94391781D01*
X176540028Y-94431801D01*
X176581213Y-94540395D01*
X176671502Y-94671201D01*
X176671504Y-94671203D01*
X176671506Y-94671205D01*
X176790469Y-94776598D01*
X176790471Y-94776599D01*
X176931207Y-94850463D01*
X177008367Y-94869481D01*
X177085528Y-94888500D01*
X177085529Y-94888500D01*
X177244472Y-94888500D01*
X177295911Y-94875820D01*
X177398793Y-94850463D01*
X177539529Y-94776599D01*
X177658498Y-94671201D01*
X177748787Y-94540395D01*
X177805149Y-94391782D01*
X177824307Y-94234000D01*
X177805149Y-94076218D01*
X177768658Y-93980000D01*
X178410693Y-93980000D01*
X178429850Y-94137781D01*
X178465264Y-94231157D01*
X178479039Y-94267480D01*
X178486214Y-94286397D01*
X178561591Y-94395599D01*
X178576502Y-94417201D01*
X178576504Y-94417203D01*
X178576506Y-94417205D01*
X178695469Y-94522598D01*
X178695471Y-94522599D01*
X178836207Y-94596463D01*
X178913367Y-94615481D01*
X178990528Y-94634500D01*
X178990529Y-94634500D01*
X179149472Y-94634500D01*
X179200911Y-94621821D01*
X179303793Y-94596463D01*
X179444529Y-94522599D01*
X179563498Y-94417201D01*
X179653787Y-94286395D01*
X179710149Y-94137782D01*
X179729307Y-93980000D01*
X179717583Y-93883447D01*
X179710149Y-93822218D01*
X179653787Y-93673605D01*
X179563498Y-93542799D01*
X179563495Y-93542796D01*
X179563493Y-93542794D01*
X179444530Y-93437401D01*
X179303791Y-93363536D01*
X179149472Y-93325500D01*
X179149471Y-93325500D01*
X178990529Y-93325500D01*
X178990528Y-93325500D01*
X178836208Y-93363536D01*
X178695469Y-93437401D01*
X178576506Y-93542794D01*
X178576500Y-93542801D01*
X178486214Y-93673602D01*
X178429850Y-93822218D01*
X178410693Y-93979999D01*
X178410693Y-93980000D01*
X177768658Y-93980000D01*
X177748787Y-93927605D01*
X177658498Y-93796799D01*
X177658495Y-93796796D01*
X177658493Y-93796794D01*
X177539530Y-93691401D01*
X177398791Y-93617536D01*
X177244472Y-93579500D01*
X177244471Y-93579500D01*
X177085529Y-93579500D01*
X177085528Y-93579500D01*
X176931208Y-93617536D01*
X176790469Y-93691401D01*
X176671506Y-93796794D01*
X176671500Y-93796801D01*
X176581214Y-93927602D01*
X176524850Y-94076218D01*
X176505693Y-94233999D01*
X176505693Y-94234000D01*
X173887291Y-94234000D01*
X173938787Y-94159395D01*
X173995149Y-94010782D01*
X174014307Y-93853000D01*
X174010569Y-93822218D01*
X173995149Y-93695218D01*
X173986951Y-93673602D01*
X173938787Y-93546605D01*
X173936156Y-93542794D01*
X173893404Y-93480857D01*
X173848498Y-93415799D01*
X173848495Y-93415796D01*
X173848493Y-93415794D01*
X173729530Y-93310401D01*
X173588791Y-93236536D01*
X173434472Y-93198500D01*
X173434471Y-93198500D01*
X173275529Y-93198500D01*
X173275528Y-93198500D01*
X173121208Y-93236536D01*
X172980469Y-93310401D01*
X172861506Y-93415794D01*
X172861500Y-93415801D01*
X172771214Y-93546602D01*
X172714850Y-93695218D01*
X172695693Y-93852999D01*
X172695693Y-93853000D01*
X167702786Y-93853000D01*
X167937595Y-93711053D01*
X168199910Y-93505542D01*
X168435542Y-93269910D01*
X168575709Y-93091000D01*
X169393693Y-93091000D01*
X169412850Y-93248781D01*
X169469214Y-93397397D01*
X169496827Y-93437401D01*
X169559502Y-93528201D01*
X169559504Y-93528203D01*
X169559506Y-93528205D01*
X169678469Y-93633598D01*
X169678471Y-93633599D01*
X169819207Y-93707463D01*
X169896368Y-93726481D01*
X169973528Y-93745500D01*
X169973529Y-93745500D01*
X170132472Y-93745500D01*
X170183911Y-93732821D01*
X170286793Y-93707463D01*
X170427529Y-93633599D01*
X170546498Y-93528201D01*
X170636787Y-93397395D01*
X170693149Y-93248782D01*
X170712307Y-93091000D01*
X170693149Y-92933218D01*
X170636787Y-92784605D01*
X170546498Y-92653799D01*
X170546495Y-92653796D01*
X170546493Y-92653794D01*
X170427530Y-92548401D01*
X170286791Y-92474536D01*
X170132472Y-92436500D01*
X170132471Y-92436500D01*
X169973529Y-92436500D01*
X169973528Y-92436500D01*
X169819208Y-92474536D01*
X169678469Y-92548401D01*
X169559506Y-92653794D01*
X169559500Y-92653801D01*
X169469214Y-92784602D01*
X169412850Y-92933218D01*
X169393693Y-93090999D01*
X169393693Y-93091000D01*
X168575709Y-93091000D01*
X168641053Y-93007595D01*
X168813447Y-92722420D01*
X168950210Y-92418545D01*
X169049348Y-92100400D01*
X169109415Y-91772625D01*
X169129535Y-91440000D01*
X169109415Y-91107375D01*
X169049348Y-90779600D01*
X168975752Y-90543421D01*
X168950216Y-90461473D01*
X168950212Y-90461462D01*
X168950210Y-90461455D01*
X168813447Y-90157580D01*
X168667407Y-89916000D01*
X176505693Y-89916000D01*
X176524850Y-90073781D01*
X176581214Y-90222397D01*
X176657343Y-90332689D01*
X176671502Y-90353201D01*
X176671504Y-90353203D01*
X176671506Y-90353205D01*
X176790469Y-90458598D01*
X176790471Y-90458599D01*
X176931207Y-90532463D01*
X177008368Y-90551481D01*
X177085528Y-90570500D01*
X177085529Y-90570500D01*
X177244472Y-90570500D01*
X177295911Y-90557820D01*
X177398793Y-90532463D01*
X177539529Y-90458599D01*
X177658498Y-90353201D01*
X177748787Y-90222395D01*
X177805149Y-90073782D01*
X177824307Y-89916000D01*
X177805149Y-89758218D01*
X177748787Y-89609605D01*
X177658498Y-89478799D01*
X177658495Y-89478796D01*
X177658493Y-89478794D01*
X177539530Y-89373401D01*
X177398791Y-89299536D01*
X177244472Y-89261500D01*
X177244471Y-89261500D01*
X177085529Y-89261500D01*
X177085528Y-89261500D01*
X176931208Y-89299536D01*
X176790469Y-89373401D01*
X176671506Y-89478794D01*
X176671500Y-89478801D01*
X176581214Y-89609602D01*
X176524850Y-89758218D01*
X176505693Y-89915999D01*
X176505693Y-89916000D01*
X168667407Y-89916000D01*
X168641053Y-89872405D01*
X168640429Y-89871609D01*
X168435539Y-89610086D01*
X168199913Y-89374460D01*
X167937602Y-89168952D01*
X167937597Y-89168949D01*
X167937595Y-89168947D01*
X167652420Y-88996553D01*
X167437888Y-88900000D01*
X178410693Y-88900000D01*
X178429850Y-89057781D01*
X178464545Y-89149261D01*
X178486213Y-89206395D01*
X178576502Y-89337201D01*
X178576504Y-89337203D01*
X178576506Y-89337205D01*
X178695469Y-89442598D01*
X178695471Y-89442599D01*
X178836207Y-89516463D01*
X178913368Y-89535481D01*
X178990528Y-89554500D01*
X178990529Y-89554500D01*
X179149472Y-89554500D01*
X179200911Y-89541820D01*
X179303793Y-89516463D01*
X179444529Y-89442599D01*
X179563498Y-89337201D01*
X179653787Y-89206395D01*
X179710149Y-89057782D01*
X179729307Y-88900000D01*
X179710149Y-88742218D01*
X179653787Y-88593605D01*
X179563498Y-88462799D01*
X179563495Y-88462796D01*
X179563493Y-88462794D01*
X179444530Y-88357401D01*
X179303791Y-88283536D01*
X179149472Y-88245500D01*
X179149471Y-88245500D01*
X178990529Y-88245500D01*
X178990528Y-88245500D01*
X178836208Y-88283536D01*
X178695469Y-88357401D01*
X178576506Y-88462794D01*
X178576500Y-88462801D01*
X178486214Y-88593602D01*
X178429850Y-88742218D01*
X178410693Y-88899999D01*
X178410693Y-88900000D01*
X167437888Y-88900000D01*
X167348545Y-88859790D01*
X167348540Y-88859788D01*
X167348537Y-88859787D01*
X167348526Y-88859783D01*
X167030408Y-88760654D01*
X167030404Y-88760653D01*
X167030400Y-88760652D01*
X166702625Y-88700585D01*
X166702624Y-88700584D01*
X166702619Y-88700584D01*
X166370000Y-88680465D01*
X166037380Y-88700584D01*
X166037374Y-88700585D01*
X166037375Y-88700585D01*
X165709600Y-88760652D01*
X165709597Y-88760652D01*
X165709591Y-88760654D01*
X165391473Y-88859783D01*
X165391462Y-88859787D01*
X165087584Y-88996551D01*
X165087582Y-88996552D01*
X164802406Y-89168946D01*
X164802397Y-89168952D01*
X164540086Y-89374460D01*
X164304460Y-89610086D01*
X164098952Y-89872397D01*
X164098946Y-89872406D01*
X164020606Y-90001997D01*
X163926553Y-90157580D01*
X163791076Y-90458599D01*
X163789787Y-90461462D01*
X163789783Y-90461473D01*
X163690654Y-90779591D01*
X163690652Y-90779597D01*
X163690652Y-90779600D01*
X163676323Y-90857793D01*
X163630584Y-91107380D01*
X163610465Y-91439999D01*
X163630584Y-91772619D01*
X163630584Y-91772624D01*
X163630585Y-91772625D01*
X163690652Y-92100400D01*
X163690653Y-92100404D01*
X163690654Y-92100408D01*
X163789783Y-92418526D01*
X163789787Y-92418537D01*
X163789788Y-92418540D01*
X163789790Y-92418545D01*
X163926553Y-92722420D01*
X164053985Y-92933218D01*
X164098946Y-93007593D01*
X164098952Y-93007602D01*
X164160556Y-93086233D01*
X164186405Y-93151145D01*
X164173056Y-93219728D01*
X164124748Y-93270207D01*
X164056818Y-93286555D01*
X164005320Y-93272503D01*
X164000945Y-93270207D01*
X163936793Y-93236537D01*
X163936792Y-93236536D01*
X163936791Y-93236536D01*
X163782472Y-93198500D01*
X163782471Y-93198500D01*
X163623529Y-93198500D01*
X163623528Y-93198500D01*
X163469208Y-93236536D01*
X163328469Y-93310401D01*
X163209506Y-93415794D01*
X163209500Y-93415801D01*
X163119214Y-93546602D01*
X163062850Y-93695218D01*
X163043693Y-93852999D01*
X163043693Y-93853000D01*
X163062851Y-94010782D01*
X163096682Y-94099988D01*
X163102049Y-94169651D01*
X163068901Y-94231157D01*
X163007763Y-94264979D01*
X162938045Y-94260377D01*
X162923116Y-94253756D01*
X162920793Y-94252537D01*
X162920793Y-94252536D01*
X162766472Y-94214500D01*
X162766471Y-94214500D01*
X162607529Y-94214500D01*
X162607528Y-94214500D01*
X162453208Y-94252536D01*
X162312469Y-94326401D01*
X162193506Y-94431794D01*
X162193500Y-94431801D01*
X162103214Y-94562602D01*
X162046850Y-94711218D01*
X162027693Y-94868999D01*
X162027693Y-94869000D01*
X162046850Y-95026781D01*
X162103214Y-95175397D01*
X162193749Y-95306559D01*
X162215632Y-95372913D01*
X162198167Y-95440565D01*
X162193749Y-95447438D01*
X162103216Y-95578598D01*
X162103214Y-95578601D01*
X162046850Y-95727218D01*
X162027693Y-95884999D01*
X162027693Y-95885000D01*
X161171887Y-95885000D01*
X161168149Y-95854218D01*
X161111787Y-95705605D01*
X161021498Y-95574799D01*
X161021495Y-95574796D01*
X161021493Y-95574794D01*
X160919284Y-95484245D01*
X160902995Y-95469814D01*
X160865869Y-95410626D01*
X160866637Y-95340760D01*
X160902996Y-95284185D01*
X160920660Y-95268536D01*
X161021498Y-95179201D01*
X161111787Y-95048395D01*
X161168149Y-94899782D01*
X161187307Y-94742000D01*
X161183569Y-94711218D01*
X161168149Y-94584218D01*
X161159951Y-94562602D01*
X161111787Y-94435605D01*
X161109156Y-94431794D01*
X161021499Y-94304801D01*
X161021498Y-94304799D01*
X161021495Y-94304796D01*
X161021493Y-94304794D01*
X160902530Y-94199401D01*
X160761791Y-94125536D01*
X160607472Y-94087500D01*
X160607471Y-94087500D01*
X160448529Y-94087500D01*
X160448528Y-94087500D01*
X160294208Y-94125536D01*
X160153469Y-94199401D01*
X160034506Y-94304794D01*
X160034500Y-94304801D01*
X159944214Y-94435602D01*
X159887850Y-94584218D01*
X159868693Y-94741999D01*
X159868693Y-94742000D01*
X159887850Y-94899781D01*
X159944214Y-95048397D01*
X160034500Y-95179198D01*
X160034502Y-95179201D01*
X160153004Y-95284185D01*
X160190130Y-95343375D01*
X160189362Y-95413240D01*
X160153003Y-95469815D01*
X160038727Y-95571055D01*
X159975494Y-95600777D01*
X159906231Y-95591593D01*
X159874273Y-95571055D01*
X159759530Y-95469401D01*
X159618791Y-95395536D01*
X159464472Y-95357500D01*
X159464471Y-95357500D01*
X159305529Y-95357500D01*
X159305528Y-95357500D01*
X159151208Y-95395536D01*
X159010469Y-95469401D01*
X158891506Y-95574794D01*
X158891500Y-95574801D01*
X158801214Y-95705602D01*
X158744850Y-95854218D01*
X158725693Y-96011999D01*
X158725693Y-96012000D01*
X158744850Y-96169781D01*
X158801214Y-96318397D01*
X158876591Y-96427599D01*
X158891502Y-96449201D01*
X158891504Y-96449203D01*
X158891506Y-96449205D01*
X158938326Y-96490684D01*
X158975453Y-96549873D01*
X158974685Y-96619739D01*
X158938328Y-96676312D01*
X158891508Y-96717792D01*
X158891500Y-96717801D01*
X158801214Y-96848602D01*
X158744850Y-96997218D01*
X158725693Y-97154999D01*
X158725693Y-97155000D01*
X158744850Y-97312781D01*
X158785427Y-97419773D01*
X158801213Y-97461395D01*
X158891502Y-97592201D01*
X158891504Y-97592203D01*
X158891507Y-97592206D01*
X158938327Y-97633686D01*
X158975453Y-97692876D01*
X158974685Y-97762741D01*
X158938327Y-97819314D01*
X158891507Y-97860793D01*
X158891500Y-97860801D01*
X158801214Y-97991602D01*
X158744850Y-98140218D01*
X158725693Y-98297999D01*
X158725693Y-98298000D01*
X152400500Y-98298000D01*
X152400500Y-93980000D01*
X153010693Y-93980000D01*
X153029850Y-94137781D01*
X153065264Y-94231157D01*
X153079039Y-94267480D01*
X153086214Y-94286397D01*
X153161591Y-94395599D01*
X153176502Y-94417201D01*
X153176504Y-94417203D01*
X153176506Y-94417205D01*
X153295469Y-94522598D01*
X153295471Y-94522599D01*
X153436207Y-94596463D01*
X153513368Y-94615481D01*
X153590528Y-94634500D01*
X153590529Y-94634500D01*
X153749472Y-94634500D01*
X153800911Y-94621820D01*
X153903793Y-94596463D01*
X154044529Y-94522599D01*
X154163498Y-94417201D01*
X154253787Y-94286395D01*
X154310149Y-94137782D01*
X154329307Y-93980000D01*
X154317583Y-93883447D01*
X154310149Y-93822218D01*
X154310148Y-93822218D01*
X154253787Y-93673605D01*
X154163498Y-93542799D01*
X154163495Y-93542796D01*
X154163493Y-93542794D01*
X154044530Y-93437401D01*
X153903791Y-93363536D01*
X153749472Y-93325500D01*
X153749471Y-93325500D01*
X153590529Y-93325500D01*
X153590528Y-93325500D01*
X153436208Y-93363536D01*
X153295469Y-93437401D01*
X153176506Y-93542794D01*
X153176500Y-93542801D01*
X153086214Y-93673602D01*
X153029850Y-93822218D01*
X153010693Y-93979999D01*
X153010693Y-93980000D01*
X152400500Y-93980000D01*
X152400500Y-90752210D01*
X156746733Y-90752210D01*
X156756768Y-90962899D01*
X156806498Y-91167886D01*
X156806498Y-91167888D01*
X156894123Y-91359762D01*
X156894127Y-91359768D01*
X157016473Y-91531579D01*
X157016478Y-91531584D01*
X157169138Y-91677145D01*
X157346587Y-91791184D01*
X157542411Y-91869580D01*
X157749533Y-91909500D01*
X158207618Y-91909500D01*
X158349944Y-91895908D01*
X158364979Y-91894473D01*
X158567368Y-91835047D01*
X158754854Y-91738391D01*
X158920659Y-91608000D01*
X159058792Y-91448587D01*
X159063751Y-91439999D01*
X159164258Y-91265914D01*
X159164259Y-91265913D01*
X159233248Y-91066580D01*
X159263267Y-90857793D01*
X159253231Y-90647098D01*
X159203501Y-90442110D01*
X159115876Y-90250238D01*
X159115876Y-90250237D01*
X159115872Y-90250231D01*
X158993526Y-90078420D01*
X158993520Y-90078414D01*
X158840864Y-89932857D01*
X158840862Y-89932855D01*
X158663413Y-89818816D01*
X158467589Y-89740420D01*
X158260467Y-89700500D01*
X157802387Y-89700500D01*
X157802382Y-89700500D01*
X157645031Y-89715525D01*
X157645014Y-89715528D01*
X157442635Y-89774951D01*
X157255141Y-89871611D01*
X157089343Y-90001997D01*
X157089339Y-90002001D01*
X156951205Y-90161415D01*
X156845741Y-90344085D01*
X156776753Y-90543414D01*
X156776752Y-90543419D01*
X156776752Y-90543420D01*
X156761846Y-90647098D01*
X156746733Y-90752210D01*
X152400500Y-90752210D01*
X152400500Y-88900000D01*
X153010693Y-88900000D01*
X153029850Y-89057781D01*
X153064545Y-89149261D01*
X153086213Y-89206395D01*
X153176502Y-89337201D01*
X153176504Y-89337203D01*
X153176506Y-89337205D01*
X153295469Y-89442598D01*
X153295471Y-89442599D01*
X153436207Y-89516463D01*
X153513368Y-89535481D01*
X153590528Y-89554500D01*
X153590529Y-89554500D01*
X153749472Y-89554500D01*
X153800911Y-89541820D01*
X153903793Y-89516463D01*
X154044529Y-89442599D01*
X154163498Y-89337201D01*
X154253787Y-89206395D01*
X154310149Y-89057782D01*
X154322841Y-88953251D01*
X156750500Y-88953251D01*
X156750501Y-88953257D01*
X156756960Y-89013344D01*
X156807655Y-89149261D01*
X156807656Y-89149264D01*
X156807658Y-89149267D01*
X156822390Y-89168947D01*
X156894595Y-89265404D01*
X156940193Y-89299537D01*
X157010733Y-89352342D01*
X157146658Y-89403040D01*
X157206745Y-89409500D01*
X158803254Y-89409499D01*
X158863342Y-89403040D01*
X158999267Y-89352342D01*
X159115404Y-89265404D01*
X159202342Y-89149267D01*
X159253040Y-89013342D01*
X159255800Y-88987664D01*
X159259499Y-88953271D01*
X159259499Y-88953264D01*
X159259500Y-88953255D01*
X159259499Y-87656746D01*
X159253040Y-87596658D01*
X159202342Y-87460733D01*
X159158707Y-87402443D01*
X159115404Y-87344595D01*
X159038126Y-87286747D01*
X158999267Y-87257658D01*
X158863342Y-87206960D01*
X158863338Y-87206959D01*
X158803262Y-87200500D01*
X157206748Y-87200500D01*
X157206742Y-87200501D01*
X157146655Y-87206960D01*
X157010738Y-87257655D01*
X157010730Y-87257660D01*
X156894595Y-87344595D01*
X156807660Y-87460730D01*
X156807658Y-87460733D01*
X156756960Y-87596658D01*
X156756959Y-87596662D01*
X156750500Y-87656728D01*
X156750500Y-88953251D01*
X154322841Y-88953251D01*
X154329307Y-88900000D01*
X154310149Y-88742218D01*
X154253787Y-88593605D01*
X154163498Y-88462799D01*
X154163495Y-88462796D01*
X154163493Y-88462794D01*
X154044530Y-88357401D01*
X153903791Y-88283536D01*
X153749472Y-88245500D01*
X153749471Y-88245500D01*
X153590529Y-88245500D01*
X153590528Y-88245500D01*
X153436208Y-88283536D01*
X153295469Y-88357401D01*
X153176506Y-88462794D01*
X153176500Y-88462801D01*
X153086214Y-88593602D01*
X153029850Y-88742218D01*
X153010693Y-88899999D01*
X153010693Y-88900000D01*
X152400500Y-88900000D01*
X152400500Y-86361704D01*
X152400596Y-86358283D01*
X152406998Y-86244283D01*
X152417401Y-86072304D01*
X152418160Y-86065706D01*
X152440576Y-85933780D01*
X152441277Y-85929656D01*
X152453432Y-85863324D01*
X152468562Y-85780763D01*
X152469961Y-85774810D01*
X152509387Y-85637956D01*
X152553270Y-85497135D01*
X152555158Y-85491921D01*
X152610397Y-85358565D01*
X152670343Y-85225370D01*
X152672599Y-85220861D01*
X152742958Y-85093557D01*
X152745108Y-85090000D01*
X154280693Y-85090000D01*
X154299850Y-85247781D01*
X154340427Y-85354773D01*
X154356213Y-85396395D01*
X154446502Y-85527201D01*
X154446504Y-85527203D01*
X154446506Y-85527205D01*
X154565469Y-85632598D01*
X154565471Y-85632599D01*
X154706207Y-85706463D01*
X154783368Y-85725481D01*
X154860528Y-85744500D01*
X154860529Y-85744500D01*
X155019472Y-85744500D01*
X155070911Y-85731821D01*
X155173793Y-85706463D01*
X155314529Y-85632599D01*
X155433498Y-85527201D01*
X155523787Y-85396395D01*
X155580149Y-85247782D01*
X155599307Y-85090000D01*
X159360693Y-85090000D01*
X159379850Y-85247781D01*
X159420427Y-85354773D01*
X159436213Y-85396395D01*
X159526502Y-85527201D01*
X159526504Y-85527203D01*
X159526506Y-85527205D01*
X159645469Y-85632598D01*
X159645471Y-85632599D01*
X159786207Y-85706463D01*
X159863368Y-85725481D01*
X159940528Y-85744500D01*
X159940529Y-85744500D01*
X160099472Y-85744500D01*
X160150911Y-85731820D01*
X160253793Y-85706463D01*
X160394529Y-85632599D01*
X160513498Y-85527201D01*
X160603787Y-85396395D01*
X160660149Y-85247782D01*
X160679307Y-85090000D01*
X164440693Y-85090000D01*
X164459850Y-85247781D01*
X164500427Y-85354773D01*
X164516213Y-85396395D01*
X164606502Y-85527201D01*
X164606504Y-85527203D01*
X164606506Y-85527205D01*
X164725469Y-85632598D01*
X164725471Y-85632599D01*
X164866207Y-85706463D01*
X164943368Y-85725481D01*
X165020528Y-85744500D01*
X165020529Y-85744500D01*
X165179472Y-85744500D01*
X165230911Y-85731821D01*
X165333793Y-85706463D01*
X165474529Y-85632599D01*
X165593498Y-85527201D01*
X165683787Y-85396395D01*
X165740149Y-85247782D01*
X165759307Y-85090000D01*
X169520693Y-85090000D01*
X169539850Y-85247781D01*
X169580427Y-85354773D01*
X169596213Y-85396395D01*
X169686502Y-85527201D01*
X169686504Y-85527203D01*
X169686506Y-85527205D01*
X169805469Y-85632598D01*
X169805471Y-85632599D01*
X169946207Y-85706463D01*
X170023368Y-85725481D01*
X170100528Y-85744500D01*
X170100529Y-85744500D01*
X170259472Y-85744500D01*
X170310911Y-85731820D01*
X170413793Y-85706463D01*
X170554529Y-85632599D01*
X170673498Y-85527201D01*
X170763787Y-85396395D01*
X170820149Y-85247782D01*
X170839307Y-85090000D01*
X174600693Y-85090000D01*
X174619850Y-85247781D01*
X174660427Y-85354773D01*
X174676213Y-85396395D01*
X174766502Y-85527201D01*
X174766504Y-85527203D01*
X174766506Y-85527205D01*
X174885469Y-85632598D01*
X174885471Y-85632599D01*
X175026207Y-85706463D01*
X175103368Y-85725481D01*
X175180528Y-85744500D01*
X175180529Y-85744500D01*
X175339472Y-85744500D01*
X175390911Y-85731821D01*
X175493793Y-85706463D01*
X175634529Y-85632599D01*
X175753498Y-85527201D01*
X175843787Y-85396395D01*
X175900149Y-85247782D01*
X175919307Y-85090000D01*
X175900149Y-84932218D01*
X175843787Y-84783605D01*
X175753498Y-84652799D01*
X175753495Y-84652796D01*
X175753493Y-84652794D01*
X175634530Y-84547401D01*
X175493791Y-84473536D01*
X175339472Y-84435500D01*
X175339471Y-84435500D01*
X175180529Y-84435500D01*
X175180528Y-84435500D01*
X175026208Y-84473536D01*
X174885469Y-84547401D01*
X174766506Y-84652794D01*
X174766500Y-84652801D01*
X174676214Y-84783602D01*
X174619850Y-84932218D01*
X174600693Y-85089999D01*
X174600693Y-85090000D01*
X170839307Y-85090000D01*
X170820149Y-84932218D01*
X170763787Y-84783605D01*
X170673498Y-84652799D01*
X170673495Y-84652796D01*
X170673493Y-84652794D01*
X170554530Y-84547401D01*
X170413791Y-84473536D01*
X170259472Y-84435500D01*
X170259471Y-84435500D01*
X170100529Y-84435500D01*
X170100528Y-84435500D01*
X169946208Y-84473536D01*
X169805469Y-84547401D01*
X169686506Y-84652794D01*
X169686500Y-84652801D01*
X169596214Y-84783602D01*
X169539850Y-84932218D01*
X169520693Y-85089999D01*
X169520693Y-85090000D01*
X165759307Y-85090000D01*
X165740149Y-84932218D01*
X165683787Y-84783605D01*
X165593498Y-84652799D01*
X165593495Y-84652796D01*
X165593493Y-84652794D01*
X165474530Y-84547401D01*
X165333791Y-84473536D01*
X165179472Y-84435500D01*
X165179471Y-84435500D01*
X165020529Y-84435500D01*
X165020528Y-84435500D01*
X164866208Y-84473536D01*
X164725469Y-84547401D01*
X164606506Y-84652794D01*
X164606500Y-84652801D01*
X164516214Y-84783602D01*
X164459850Y-84932218D01*
X164440693Y-85089999D01*
X164440693Y-85090000D01*
X160679307Y-85090000D01*
X160660149Y-84932218D01*
X160603787Y-84783605D01*
X160513498Y-84652799D01*
X160513495Y-84652796D01*
X160513493Y-84652794D01*
X160394530Y-84547401D01*
X160253791Y-84473536D01*
X160099472Y-84435500D01*
X160099471Y-84435500D01*
X159940529Y-84435500D01*
X159940528Y-84435500D01*
X159786208Y-84473536D01*
X159645469Y-84547401D01*
X159526506Y-84652794D01*
X159526500Y-84652801D01*
X159436214Y-84783602D01*
X159379850Y-84932218D01*
X159360693Y-85089999D01*
X159360693Y-85090000D01*
X155599307Y-85090000D01*
X155580149Y-84932218D01*
X155523787Y-84783605D01*
X155433498Y-84652799D01*
X155433495Y-84652796D01*
X155433493Y-84652794D01*
X155314530Y-84547401D01*
X155173791Y-84473536D01*
X155019472Y-84435500D01*
X155019471Y-84435500D01*
X154860529Y-84435500D01*
X154860528Y-84435500D01*
X154706208Y-84473536D01*
X154565469Y-84547401D01*
X154446506Y-84652794D01*
X154446500Y-84652801D01*
X154356214Y-84783602D01*
X154299850Y-84932218D01*
X154280693Y-85089999D01*
X154280693Y-85090000D01*
X152745108Y-85090000D01*
X152818228Y-84969044D01*
X152820693Y-84965286D01*
X152904461Y-84847226D01*
X152906145Y-84844967D01*
X152994932Y-84731638D01*
X152997472Y-84728605D01*
X153094052Y-84620531D01*
X153096373Y-84618077D01*
X153198077Y-84516373D01*
X153200531Y-84514052D01*
X153308605Y-84417472D01*
X153311638Y-84414932D01*
X153424967Y-84326145D01*
X153427226Y-84324461D01*
X153545286Y-84240693D01*
X153549044Y-84238228D01*
X153673561Y-84162956D01*
X153800861Y-84092599D01*
X153805370Y-84090343D01*
X153938565Y-84030397D01*
X154071921Y-83975158D01*
X154077135Y-83973270D01*
X154217956Y-83929387D01*
X154354810Y-83889961D01*
X154360763Y-83888562D01*
X154443324Y-83873432D01*
X154509656Y-83861277D01*
X154557941Y-83853072D01*
X154645706Y-83838160D01*
X154652304Y-83837401D01*
X154824333Y-83826995D01*
X154910782Y-83822140D01*
X154938263Y-83820598D01*
X154941740Y-83820500D01*
X177798260Y-83820500D01*
X177801737Y-83820598D01*
G37*
%TD.AperFunction*%
%TD*%
D18*
X152400000Y-124460000D02*
X152400000Y-86360000D01*
X152400000Y-124460000D02*
G75*
G03*
X154940000Y-127000000I2540000J0D01*
G01*
X177800000Y-127000000D02*
G75*
G03*
X180340000Y-124460000I0J2540000D01*
G01*
X177800000Y-127000000D02*
X154940000Y-127000000D01*
X180340000Y-86360000D02*
G75*
G03*
X177800000Y-83820000I-2540000J0D01*
G01*
X154940000Y-83820000D02*
G75*
G03*
X152400000Y-86360000I0J-2540000D01*
G01*
X180340000Y-86360000D02*
X180340000Y-124460000D01*
X177800000Y-83820000D02*
X154940000Y-83820000D01*
M02*
