%TF.GenerationSoftware,KiCad,Pcbnew,7.0.6*%
%TF.CreationDate,2024-05-19T20:46:52-05:00*%
%TF.ProjectId,Magic_Wand_Timer,4d616769-635f-4576-916e-645f54696d65,rev?*%
%TF.SameCoordinates,Original*%
%TF.FileFunction,Copper,L1,Top*%
%TF.FilePolarity,Positive*%
%FSLAX46Y46*%
G04 Gerber Fmt 4.6, Leading zero omitted, Abs format (unit mm)*
G04 Created by KiCad (PCBNEW 7.0.6) date 2024-05-19 20:46:52*
%MOMM*%
%LPD*%
G01*
G04 APERTURE LIST*
G04 Aperture macros list*
%AMRoundRect*
0 Rectangle with rounded corners*
0 $1 Rounding radius*
0 $2 $3 $4 $5 $6 $7 $8 $9 X,Y pos of 4 corners*
0 Add a 4 corners polygon primitive as box body*
4,1,4,$2,$3,$4,$5,$6,$7,$8,$9,$2,$3,0*
0 Add four circle primitives for the rounded corners*
1,1,$1+$1,$2,$3*
1,1,$1+$1,$4,$5*
1,1,$1+$1,$6,$7*
1,1,$1+$1,$8,$9*
0 Add four rect primitives between the rounded corners*
20,1,$1+$1,$2,$3,$4,$5,0*
20,1,$1+$1,$4,$5,$6,$7,0*
20,1,$1+$1,$6,$7,$8,$9,0*
20,1,$1+$1,$8,$9,$2,$3,0*%
G04 Aperture macros list end*
%TA.AperFunction,SMDPad,CuDef*%
%ADD10RoundRect,0.200000X0.275000X-0.200000X0.275000X0.200000X-0.275000X0.200000X-0.275000X-0.200000X0*%
%TD*%
%TA.AperFunction,SMDPad,CuDef*%
%ADD11RoundRect,0.250000X-0.475000X0.250000X-0.475000X-0.250000X0.475000X-0.250000X0.475000X0.250000X0*%
%TD*%
%TA.AperFunction,SMDPad,CuDef*%
%ADD12RoundRect,0.225000X-0.250000X0.225000X-0.250000X-0.225000X0.250000X-0.225000X0.250000X0.225000X0*%
%TD*%
%TA.AperFunction,SMDPad,CuDef*%
%ADD13RoundRect,0.150000X0.587500X0.150000X-0.587500X0.150000X-0.587500X-0.150000X0.587500X-0.150000X0*%
%TD*%
%TA.AperFunction,ComponentPad*%
%ADD14C,5.000000*%
%TD*%
%TA.AperFunction,SMDPad,CuDef*%
%ADD15RoundRect,0.150000X-0.587500X-0.150000X0.587500X-0.150000X0.587500X0.150000X-0.587500X0.150000X0*%
%TD*%
%TA.AperFunction,SMDPad,CuDef*%
%ADD16RoundRect,0.150000X0.150000X-0.587500X0.150000X0.587500X-0.150000X0.587500X-0.150000X-0.587500X0*%
%TD*%
%TA.AperFunction,ComponentPad*%
%ADD17RoundRect,0.250000X-0.725000X0.600000X-0.725000X-0.600000X0.725000X-0.600000X0.725000X0.600000X0*%
%TD*%
%TA.AperFunction,ComponentPad*%
%ADD18O,1.950000X1.700000*%
%TD*%
%TA.AperFunction,SMDPad,CuDef*%
%ADD19RoundRect,0.200000X0.200000X0.275000X-0.200000X0.275000X-0.200000X-0.275000X0.200000X-0.275000X0*%
%TD*%
%TA.AperFunction,SMDPad,CuDef*%
%ADD20RoundRect,0.225000X0.250000X-0.225000X0.250000X0.225000X-0.250000X0.225000X-0.250000X-0.225000X0*%
%TD*%
%TA.AperFunction,SMDPad,CuDef*%
%ADD21RoundRect,0.225000X-0.225000X-0.250000X0.225000X-0.250000X0.225000X0.250000X-0.225000X0.250000X0*%
%TD*%
%TA.AperFunction,ComponentPad*%
%ADD22R,1.600000X1.600000*%
%TD*%
%TA.AperFunction,ComponentPad*%
%ADD23C,1.600000*%
%TD*%
%TA.AperFunction,SMDPad,CuDef*%
%ADD24R,1.200000X0.900000*%
%TD*%
%TA.AperFunction,SMDPad,CuDef*%
%ADD25RoundRect,0.225000X0.225000X0.375000X-0.225000X0.375000X-0.225000X-0.375000X0.225000X-0.375000X0*%
%TD*%
%TA.AperFunction,SMDPad,CuDef*%
%ADD26RoundRect,0.200000X-0.275000X0.200000X-0.275000X-0.200000X0.275000X-0.200000X0.275000X0.200000X0*%
%TD*%
%TA.AperFunction,ComponentPad*%
%ADD27RoundRect,0.250000X-0.750000X0.600000X-0.750000X-0.600000X0.750000X-0.600000X0.750000X0.600000X0*%
%TD*%
%TA.AperFunction,ComponentPad*%
%ADD28O,2.000000X1.700000*%
%TD*%
%TA.AperFunction,SMDPad,CuDef*%
%ADD29RoundRect,0.250000X-1.075000X0.375000X-1.075000X-0.375000X1.075000X-0.375000X1.075000X0.375000X0*%
%TD*%
%TA.AperFunction,SMDPad,CuDef*%
%ADD30R,1.200000X1.200000*%
%TD*%
%TA.AperFunction,SMDPad,CuDef*%
%ADD31R,1.600000X1.500000*%
%TD*%
%TA.AperFunction,SMDPad,CuDef*%
%ADD32RoundRect,0.250000X-0.250000X-0.475000X0.250000X-0.475000X0.250000X0.475000X-0.250000X0.475000X0*%
%TD*%
%TA.AperFunction,SMDPad,CuDef*%
%ADD33RoundRect,0.150000X-0.150000X0.825000X-0.150000X-0.825000X0.150000X-0.825000X0.150000X0.825000X0*%
%TD*%
%TA.AperFunction,ViaPad*%
%ADD34C,0.800000*%
%TD*%
%TA.AperFunction,Conductor*%
%ADD35C,0.635000*%
%TD*%
%TA.AperFunction,Conductor*%
%ADD36C,0.250000*%
%TD*%
%TA.AperFunction,Conductor*%
%ADD37C,0.508000*%
%TD*%
%TA.AperFunction,Conductor*%
%ADD38C,0.254000*%
%TD*%
%TA.AperFunction,Profile*%
%ADD39C,0.100000*%
%TD*%
G04 APERTURE END LIST*
D10*
%TO.P,R5,2*%
%TO.N,Filtered_Input*%
X171450000Y-91440000D03*
%TO.P,R5,1*%
%TO.N,Trigger*%
X171450000Y-93090000D03*
%TD*%
D11*
%TO.P,C14,1*%
%TO.N,Net-(U1-DIS)*%
X175260000Y-100015000D03*
%TO.P,C14,2*%
%TO.N,GND*%
X175260000Y-101915000D03*
%TD*%
D12*
%TO.P,C11,2*%
%TO.N,Filtered_Input*%
X171450000Y-89675000D03*
%TO.P,C11,1*%
%TO.N,GND*%
X171450000Y-88125000D03*
%TD*%
D13*
%TO.P,Q3,1,G*%
%TO.N,Output*%
X164259500Y-98740000D03*
%TO.P,Q3,2,S*%
%TO.N,GND*%
X164259500Y-96840000D03*
%TO.P,Q3,3,D*%
%TO.N,Net-(D2-A)*%
X162384500Y-97790000D03*
%TD*%
D14*
%TO.P,H2,1,1*%
%TO.N,GND*%
X166370000Y-91440000D03*
%TD*%
D15*
%TO.P,Q1,1,G*%
%TO.N,Net-(Q1-G)*%
X167337500Y-110175000D03*
%TO.P,Q1,2,S*%
%TO.N,+5V*%
X167337500Y-112075000D03*
%TO.P,Q1,3,D*%
%TO.N,Caddy_Trigger*%
X169212500Y-111125000D03*
%TD*%
D16*
%TO.P,Q2,1,B*%
%TO.N,Net-(Q2-B)*%
X166690000Y-99665000D03*
%TO.P,Q2,2,E*%
%TO.N,GND*%
X168590000Y-99665000D03*
%TO.P,Q2,3,C*%
%TO.N,ON_Delay*%
X167640000Y-97790000D03*
%TD*%
D17*
%TO.P,J1,1,Pin_1*%
%TO.N,+12V*%
X158005000Y-115055000D03*
D18*
%TO.P,J1,2,Pin_2*%
%TO.N,+5V*%
X158005000Y-117555000D03*
%TO.P,J1,3,Pin_3*%
%TO.N,GND*%
X158005000Y-120055000D03*
%TO.P,J1,4,Pin_4*%
%TO.N,Trigger*%
X158005000Y-122555000D03*
%TD*%
D19*
%TO.P,R8,2*%
%TO.N,Net-(R8-Pad2)*%
X171260000Y-106045000D03*
%TO.P,R8,1*%
%TO.N,+5V*%
X172910000Y-106045000D03*
%TD*%
D20*
%TO.P,C8,2*%
%TO.N,GND*%
X161925000Y-116700000D03*
%TO.P,C8,1*%
%TO.N,+5V*%
X161925000Y-118250000D03*
%TD*%
D21*
%TO.P,C4,2*%
%TO.N,Caddy_Trigger*%
X170955000Y-115189000D03*
%TO.P,C4,1*%
%TO.N,GND*%
X169405000Y-115189000D03*
%TD*%
D12*
%TO.P,C13,2*%
%TO.N,Filtered_Input*%
X173990000Y-89675000D03*
%TO.P,C13,1*%
%TO.N,GND*%
X173990000Y-88125000D03*
%TD*%
D22*
%TO.P,C5,1*%
%TO.N,+12V*%
X174304888Y-109220000D03*
D23*
%TO.P,C5,2*%
%TO.N,GND*%
X176304888Y-109220000D03*
%TD*%
D24*
%TO.P,D2,1,K*%
%TO.N,Net-(D2-K)*%
X162052000Y-91185000D03*
%TO.P,D2,2,A*%
%TO.N,Net-(D2-A)*%
X162052000Y-87885000D03*
%TD*%
D25*
%TO.P,D1,1,K*%
%TO.N,Net-(D1-K)*%
X169544000Y-107950000D03*
%TO.P,D1,2,A*%
%TO.N,GND*%
X166244000Y-107950000D03*
%TD*%
D26*
%TO.P,R9,2*%
%TO.N,GND*%
X164338000Y-102171000D03*
%TO.P,R9,1*%
%TO.N,Output*%
X164338000Y-100521000D03*
%TD*%
D21*
%TO.P,C15,2*%
%TO.N,Net-(D2-A)*%
X159271000Y-94742000D03*
%TO.P,C15,1*%
%TO.N,Net-(D2-K)*%
X157721000Y-94742000D03*
%TD*%
D27*
%TO.P,J3,1,Pin_1*%
%TO.N,Net-(D2-A)*%
X158005000Y-88305000D03*
D28*
%TO.P,J3,2,Pin_2*%
%TO.N,Net-(D2-K)*%
X158005000Y-90805000D03*
%TD*%
D12*
%TO.P,C3,2*%
%TO.N,GND*%
X161925000Y-122695000D03*
%TO.P,C3,1*%
%TO.N,+5V*%
X161925000Y-121145000D03*
%TD*%
D17*
%TO.P,J2,1,Pin_1*%
%TO.N,+12V*%
X175785000Y-115055000D03*
D18*
%TO.P,J2,2,Pin_2*%
%TO.N,+5V*%
X175785000Y-117555000D03*
%TO.P,J2,3,Pin_3*%
%TO.N,GND*%
X175785000Y-120055000D03*
%TO.P,J2,4,Pin_4*%
%TO.N,Caddy_Trigger*%
X175785000Y-122555000D03*
%TD*%
D12*
%TO.P,C6,2*%
%TO.N,GND*%
X177165000Y-101486000D03*
%TO.P,C6,1*%
%TO.N,+5V*%
X177165000Y-99936000D03*
%TD*%
D29*
%TO.P,F2,2*%
%TO.N,+12V*%
X156845000Y-104905000D03*
%TO.P,F2,1*%
%TO.N,Net-(D2-K)*%
X156845000Y-102105000D03*
%TD*%
D12*
%TO.P,C1,2*%
%TO.N,Trigger*%
X162052000Y-111011000D03*
%TO.P,C1,1*%
%TO.N,GND*%
X162052000Y-109461000D03*
%TD*%
D30*
%TO.P,RV1,1,1*%
%TO.N,Net-(U1-DIS)*%
X173085000Y-100435000D03*
D31*
%TO.P,RV1,2,2*%
%TO.N,Net-(R8-Pad2)*%
X172085000Y-103685000D03*
D30*
%TO.P,RV1,3,3*%
%TO.N,unconnected-(RV1-Pad3)*%
X171085000Y-100435000D03*
%TD*%
D12*
%TO.P,C12,2*%
%TO.N,GND*%
X170815000Y-122695000D03*
%TO.P,C12,1*%
%TO.N,+5V*%
X170815000Y-121145000D03*
%TD*%
D10*
%TO.P,R2,2*%
%TO.N,Net-(Q1-G)*%
X165354000Y-110427000D03*
%TO.P,R2,1*%
%TO.N,+5V*%
X165354000Y-112077000D03*
%TD*%
D19*
%TO.P,R3,2*%
%TO.N,GND*%
X169355000Y-113665000D03*
%TO.P,R3,1*%
%TO.N,Caddy_Trigger*%
X171005000Y-113665000D03*
%TD*%
D22*
%TO.P,C2,1*%
%TO.N,+12V*%
X156524888Y-109220000D03*
D23*
%TO.P,C2,2*%
%TO.N,GND*%
X158524888Y-109220000D03*
%TD*%
D32*
%TO.P,C10,1*%
%TO.N,+5V*%
X167198000Y-105410000D03*
%TO.P,C10,2*%
%TO.N,Net-(D1-K)*%
X169098000Y-105410000D03*
%TD*%
D20*
%TO.P,C9,2*%
%TO.N,Net-(U1-CV)*%
X170815000Y-97015000D03*
%TO.P,C9,1*%
%TO.N,GND*%
X170815000Y-98565000D03*
%TD*%
D33*
%TO.P,U1,1,GND*%
%TO.N,GND*%
X177165000Y-92140000D03*
%TO.P,U1,2,TR*%
%TO.N,Filtered_Input*%
X175895000Y-92140000D03*
%TO.P,U1,3,Q*%
%TO.N,Output*%
X174625000Y-92140000D03*
%TO.P,U1,4,R*%
%TO.N,ON_Delay*%
X173355000Y-92140000D03*
%TO.P,U1,5,CV*%
%TO.N,Net-(U1-CV)*%
X173355000Y-97090000D03*
%TO.P,U1,6,THR*%
%TO.N,Net-(U1-DIS)*%
X174625000Y-97090000D03*
%TO.P,U1,7,DIS*%
X175895000Y-97090000D03*
%TO.P,U1,8,VCC*%
%TO.N,+5V*%
X177165000Y-97090000D03*
%TD*%
D29*
%TO.P,F1,2*%
%TO.N,+5V*%
X160655000Y-104905000D03*
%TO.P,F1,1*%
%TO.N,Net-(D2-K)*%
X160655000Y-102105000D03*
%TD*%
D14*
%TO.P,H1,1,1*%
%TO.N,GND*%
X166370000Y-119380000D03*
%TD*%
D20*
%TO.P,C7,2*%
%TO.N,GND*%
X170815000Y-116700000D03*
%TO.P,C7,1*%
%TO.N,+5V*%
X170815000Y-118250000D03*
%TD*%
D26*
%TO.P,R4,2*%
%TO.N,Filtered_Input*%
X175895000Y-89725000D03*
%TO.P,R4,1*%
%TO.N,+5V*%
X175895000Y-88075000D03*
%TD*%
D19*
%TO.P,R6,2*%
%TO.N,Net-(Q2-B)*%
X167323000Y-103124000D03*
%TO.P,R6,1*%
%TO.N,Net-(D1-K)*%
X168973000Y-103124000D03*
%TD*%
D10*
%TO.P,R1,2*%
%TO.N,Net-(Q1-G)*%
X163703000Y-109411000D03*
%TO.P,R1,1*%
%TO.N,Trigger*%
X163703000Y-111061000D03*
%TD*%
D19*
%TO.P,R7,2*%
%TO.N,ON_Delay*%
X167450000Y-95885000D03*
%TO.P,R7,1*%
%TO.N,+5V*%
X169100000Y-95885000D03*
%TD*%
D34*
%TO.N,+12V*%
X156083000Y-114427000D03*
X156083000Y-115443000D03*
X173863000Y-114427000D03*
X173863000Y-115443000D03*
%TO.N,+5V*%
X173863000Y-116967000D03*
X173863000Y-118110000D03*
X156083000Y-116967000D03*
X156083000Y-118110000D03*
%TO.N,GND*%
X173736000Y-98806000D03*
X172500000Y-98806000D03*
X179070000Y-88900000D03*
X163830000Y-125730000D03*
X165735000Y-103124000D03*
X179070000Y-114300000D03*
X164719000Y-94869000D03*
X163322000Y-122695000D03*
X162052000Y-107950000D03*
X153670000Y-88900000D03*
X168402000Y-116713000D03*
X174625000Y-103505000D03*
X165735000Y-102108000D03*
X162687000Y-94869000D03*
X153670000Y-93980000D03*
X163703000Y-93853000D03*
X153670000Y-119380000D03*
X177165000Y-89916000D03*
X169037000Y-101600000D03*
X173863000Y-120650000D03*
X167894000Y-101600000D03*
X177165000Y-102997000D03*
X160020000Y-85090000D03*
X156083000Y-119507000D03*
X169418000Y-117729000D03*
X154940000Y-85090000D03*
X169291000Y-112268000D03*
X175260000Y-85090000D03*
X179070000Y-99060000D03*
X179070000Y-93980000D03*
X168910000Y-125730000D03*
X163703000Y-95885000D03*
X173990000Y-125730000D03*
X153670000Y-124460000D03*
X179070000Y-109220000D03*
X162687000Y-95885000D03*
X179070000Y-104140000D03*
X163703000Y-94869000D03*
X169418000Y-122682000D03*
X153670000Y-99060000D03*
X163322000Y-116840000D03*
X177165000Y-94234000D03*
X153670000Y-114300000D03*
X170180000Y-85090000D03*
X153670000Y-109220000D03*
X165100000Y-85090000D03*
X175641000Y-103505000D03*
X163750000Y-107950000D03*
X156083000Y-120650000D03*
X179070000Y-119380000D03*
X179070000Y-124460000D03*
X153670000Y-104140000D03*
X173863000Y-119507000D03*
X158750000Y-125730000D03*
X169418000Y-116713000D03*
%TO.N,+5V*%
X170815000Y-119126000D03*
X178308000Y-100838000D03*
X170815000Y-120269000D03*
X161925000Y-120269000D03*
X162814000Y-112268000D03*
X163830000Y-105791000D03*
X162814000Y-105791000D03*
X163825228Y-112268000D03*
X169113200Y-97129600D03*
X163830000Y-104775000D03*
X164846000Y-104775000D03*
X161925000Y-119126000D03*
X162814000Y-104775000D03*
X177190400Y-88087200D03*
X174117000Y-106045000D03*
X164846000Y-105791000D03*
X178308000Y-99949000D03*
%TO.N,Trigger*%
X170053000Y-93091000D03*
X161169500Y-111893500D03*
%TO.N,Net-(D2-A)*%
X160528000Y-98298000D03*
X159385000Y-96012000D03*
X160528000Y-94742000D03*
X159385000Y-98298000D03*
X160528000Y-96012000D03*
X160528000Y-97155000D03*
X159385000Y-97155000D03*
%TO.N,ON_Delay*%
X166332500Y-95885000D03*
X173355000Y-93853000D03*
%TD*%
D35*
%TO.N,Caddy_Trigger*%
X173228000Y-122555000D02*
X175785000Y-122555000D01*
X172212000Y-115570000D02*
X172212000Y-121539000D01*
X171831000Y-115189000D02*
X172212000Y-115570000D01*
X172212000Y-121539000D02*
X173228000Y-122555000D01*
X170955000Y-115189000D02*
X171831000Y-115189000D01*
D36*
%TO.N,Trigger*%
X159512000Y-122555000D02*
X158005000Y-122555000D01*
X160528000Y-112535000D02*
X160528000Y-121539000D01*
X160528000Y-121539000D02*
X159512000Y-122555000D01*
X161169500Y-111893500D02*
X160528000Y-112535000D01*
D35*
%TO.N,GND*%
X169405000Y-115189000D02*
X169418000Y-115202000D01*
X161938000Y-116713000D02*
X161925000Y-116700000D01*
X169355000Y-115139000D02*
X169405000Y-115189000D01*
X170802000Y-122682000D02*
X170815000Y-122695000D01*
X170802000Y-116713000D02*
X170815000Y-116700000D01*
X169355000Y-113665000D02*
X169355000Y-115139000D01*
D36*
%TO.N,Net-(U1-CV)*%
X173355000Y-97090000D02*
X170890000Y-97090000D01*
X170890000Y-97090000D02*
X170815000Y-97015000D01*
D37*
%TO.N,+5V*%
X178295000Y-99936000D02*
X178308000Y-99949000D01*
X178308000Y-99949000D02*
X178308000Y-100838000D01*
X175907200Y-88087200D02*
X175895000Y-88075000D01*
D35*
X161925000Y-119126000D02*
X161925000Y-121145000D01*
X165354000Y-112077000D02*
X164656000Y-112077000D01*
X164656000Y-112077000D02*
X164465000Y-112268000D01*
X164465000Y-112268000D02*
X162814000Y-112268000D01*
D37*
X169113200Y-95898200D02*
X169100000Y-95885000D01*
D35*
X161925000Y-118250000D02*
X161925000Y-119126000D01*
D37*
X177165000Y-99936000D02*
X178295000Y-99936000D01*
X172910000Y-106045000D02*
X174117000Y-106045000D01*
D35*
X165356000Y-112075000D02*
X165354000Y-112077000D01*
X170815000Y-118250000D02*
X170815000Y-121145000D01*
D37*
X177190400Y-88087200D02*
X175907200Y-88087200D01*
X169113200Y-97129600D02*
X169113200Y-95898200D01*
X177165000Y-97090000D02*
X177165000Y-99936000D01*
D35*
X167337500Y-112075000D02*
X165356000Y-112075000D01*
D37*
%TO.N,Filtered_Input*%
X171450000Y-91440000D02*
X171450000Y-89675000D01*
X171450000Y-89675000D02*
X173990000Y-89675000D01*
X173990000Y-89675000D02*
X175845000Y-89675000D01*
X175845000Y-89675000D02*
X175895000Y-89725000D01*
X175895000Y-89725000D02*
X175895000Y-92140000D01*
D36*
%TO.N,Net-(U1-DIS)*%
X174625000Y-97090000D02*
X174625000Y-98552000D01*
X175006000Y-98933000D02*
X175514000Y-98933000D01*
X174625000Y-98552000D02*
X175006000Y-98933000D01*
X175067000Y-99822000D02*
X175260000Y-100015000D01*
X175006000Y-98933000D02*
X175006000Y-99761000D01*
X173698000Y-99822000D02*
X175067000Y-99822000D01*
X175895000Y-98552000D02*
X175895000Y-97090000D01*
X175006000Y-99761000D02*
X175260000Y-100015000D01*
X175514000Y-98933000D02*
X175895000Y-98552000D01*
X173085000Y-100435000D02*
X173698000Y-99822000D01*
%TO.N,Trigger*%
X161169500Y-111893500D02*
X162052000Y-111011000D01*
X163653000Y-111011000D02*
X163703000Y-111061000D01*
X171449000Y-93091000D02*
X171450000Y-93090000D01*
X162052000Y-111011000D02*
X163653000Y-111011000D01*
X170053000Y-93091000D02*
X171449000Y-93091000D01*
%TO.N,Output*%
X166116000Y-94742000D02*
X173736000Y-94742000D01*
X164259500Y-100442500D02*
X164338000Y-100521000D01*
X174625000Y-93853000D02*
X174625000Y-92140000D01*
X164259500Y-98740000D02*
X164658000Y-98740000D01*
X165608000Y-97790000D02*
X165608000Y-95250000D01*
X164658000Y-98740000D02*
X165608000Y-97790000D01*
X165608000Y-95250000D02*
X166116000Y-94742000D01*
X164259500Y-98740000D02*
X164259500Y-100442500D01*
X173736000Y-94742000D02*
X174625000Y-93853000D01*
D38*
%TO.N,Net-(D1-K)*%
X169098000Y-103249000D02*
X168973000Y-103124000D01*
X169098000Y-106487000D02*
X169544000Y-106933000D01*
X169544000Y-106933000D02*
X169544000Y-107950000D01*
X169098000Y-105410000D02*
X169098000Y-103249000D01*
X169098000Y-105410000D02*
X169098000Y-106487000D01*
D35*
%TO.N,Caddy_Trigger*%
X171005000Y-111950000D02*
X171005000Y-113665000D01*
X171005000Y-115139000D02*
X170955000Y-115189000D01*
X171005000Y-113665000D02*
X171005000Y-115139000D01*
X170180000Y-111125000D02*
X171005000Y-111950000D01*
X169212500Y-111125000D02*
X170180000Y-111125000D01*
D36*
%TO.N,Net-(Q1-G)*%
X166052000Y-110427000D02*
X166304000Y-110175000D01*
X165354000Y-110427000D02*
X166052000Y-110427000D01*
X163703000Y-109411000D02*
X164338000Y-109411000D01*
X164338000Y-109411000D02*
X165354000Y-110427000D01*
X166304000Y-110175000D02*
X167337500Y-110175000D01*
D38*
%TO.N,Net-(Q2-B)*%
X166690000Y-102491000D02*
X166690000Y-99665000D01*
X167323000Y-103124000D02*
X166690000Y-102491000D01*
%TO.N,ON_Delay*%
X167640000Y-96075000D02*
X167450000Y-95885000D01*
X173355000Y-92140000D02*
X173355000Y-93853000D01*
X167640000Y-97790000D02*
X167640000Y-96075000D01*
X166332500Y-95885000D02*
X167450000Y-95885000D01*
D36*
%TO.N,Net-(R8-Pad2)*%
X172085000Y-105220000D02*
X171260000Y-106045000D01*
X172085000Y-103685000D02*
X172085000Y-105220000D01*
%TD*%
%TA.AperFunction,Conductor*%
%TO.N,GND*%
G36*
X172989203Y-118365638D02*
G01*
X172995681Y-118371670D01*
X173394099Y-118770087D01*
X173394100Y-118770088D01*
X173404443Y-118779380D01*
X173404443Y-118779379D01*
X173430497Y-118800374D01*
X173430499Y-118800375D01*
X173520207Y-118847301D01*
X173520212Y-118847304D01*
X173570340Y-118862022D01*
X173587250Y-118866988D01*
X173587254Y-118866988D01*
X173587256Y-118866989D01*
X173599069Y-118868687D01*
X173660362Y-118877500D01*
X173660363Y-118877500D01*
X174628950Y-118877500D01*
X174695989Y-118897185D01*
X174741744Y-118949989D01*
X174751688Y-119019147D01*
X174722663Y-119082703D01*
X174716631Y-119089181D01*
X174621894Y-119183917D01*
X174486399Y-119377421D01*
X174386570Y-119591507D01*
X174386567Y-119591513D01*
X174329364Y-119804999D01*
X174329364Y-119805000D01*
X175381031Y-119805000D01*
X175348481Y-119855649D01*
X175310000Y-119986705D01*
X175310000Y-120123295D01*
X175348481Y-120254351D01*
X175381031Y-120305000D01*
X174329364Y-120305000D01*
X174386567Y-120518486D01*
X174386570Y-120518492D01*
X174486399Y-120732577D01*
X174486400Y-120732579D01*
X174621886Y-120926073D01*
X174621891Y-120926079D01*
X174788920Y-121093108D01*
X174788926Y-121093113D01*
X174982420Y-121228599D01*
X174982422Y-121228600D01*
X175194476Y-121327483D01*
X175246915Y-121373655D01*
X175266067Y-121440849D01*
X175245851Y-121507730D01*
X175198891Y-121550080D01*
X175060145Y-121621608D01*
X174894343Y-121751997D01*
X174894339Y-121752001D01*
X174756204Y-121911417D01*
X174750671Y-121921001D01*
X174700104Y-121969216D01*
X174643285Y-121983000D01*
X173516292Y-121983000D01*
X173449253Y-121963315D01*
X173428611Y-121946681D01*
X172820318Y-121338388D01*
X172786833Y-121277065D01*
X172784000Y-121250716D01*
X172784000Y-118459351D01*
X172803685Y-118392312D01*
X172856489Y-118346557D01*
X172925647Y-118336613D01*
X172989203Y-118365638D01*
G37*
%TD.AperFunction*%
%TA.AperFunction,Conductor*%
G36*
X164509500Y-97640000D02*
G01*
X164912644Y-97640000D01*
X164912624Y-97640001D01*
X164912553Y-97640006D01*
X164980935Y-97654348D01*
X165030708Y-97703384D01*
X165046069Y-97771544D01*
X165022141Y-97837189D01*
X165010003Y-97851302D01*
X164712125Y-98149181D01*
X164650802Y-98182666D01*
X164624444Y-98185500D01*
X163640164Y-98185500D01*
X163597896Y-98192194D01*
X163528603Y-98183238D01*
X163475151Y-98138241D01*
X163454513Y-98071489D01*
X163454500Y-98069720D01*
X163454500Y-97762191D01*
X163474185Y-97695152D01*
X163526989Y-97649397D01*
X163588230Y-97638573D01*
X163606356Y-97640000D01*
X164009500Y-97640000D01*
X164009500Y-97155000D01*
X164509500Y-97155000D01*
X164509500Y-97640000D01*
G37*
%TD.AperFunction*%
%TA.AperFunction,Conductor*%
G36*
X162845156Y-96678156D02*
G01*
X162813954Y-96660965D01*
X162093819Y-95940830D01*
X162076965Y-95909965D01*
X162845156Y-96678156D01*
G37*
%TD.AperFunction*%
%TA.AperFunction,Conductor*%
G36*
X165228500Y-95257824D02*
G01*
X165228500Y-95958807D01*
X165227000Y-95963915D01*
X165227000Y-95221576D01*
X165228500Y-95257824D01*
G37*
%TD.AperFunction*%
%TA.AperFunction,Conductor*%
G36*
X177801737Y-83820598D02*
G01*
X177835041Y-83822467D01*
X177915603Y-83826992D01*
X178087691Y-83837401D01*
X178094297Y-83838160D01*
X178165907Y-83850327D01*
X178230343Y-83861277D01*
X178323462Y-83878340D01*
X178379227Y-83888560D01*
X178385198Y-83889963D01*
X178522032Y-83929384D01*
X178662850Y-83973265D01*
X178668092Y-83975164D01*
X178801420Y-84030391D01*
X178934609Y-84090334D01*
X178939147Y-84092605D01*
X179012221Y-84132991D01*
X179066422Y-84162947D01*
X179066439Y-84162956D01*
X179190935Y-84238217D01*
X179194739Y-84240711D01*
X179312726Y-84324427D01*
X179315072Y-84326176D01*
X179410416Y-84400874D01*
X179428332Y-84414910D01*
X179431409Y-84417486D01*
X179539430Y-84514018D01*
X179541957Y-84516408D01*
X179643590Y-84618041D01*
X179645980Y-84620568D01*
X179742512Y-84728589D01*
X179745088Y-84731666D01*
X179833811Y-84844912D01*
X179835571Y-84847272D01*
X179919287Y-84965259D01*
X179921781Y-84969063D01*
X179997043Y-85093560D01*
X180067393Y-85220851D01*
X180069668Y-85225398D01*
X180129609Y-85358581D01*
X180184831Y-85491899D01*
X180186744Y-85497183D01*
X180209633Y-85570634D01*
X180230631Y-85638021D01*
X180270032Y-85774790D01*
X180271440Y-85780781D01*
X180298722Y-85929656D01*
X180321835Y-86065683D01*
X180322599Y-86072330D01*
X180333012Y-86244475D01*
X180339402Y-86358263D01*
X180339500Y-86361741D01*
X180339500Y-124458258D01*
X180339402Y-124461736D01*
X180333012Y-124575524D01*
X180322599Y-124747668D01*
X180321835Y-124754315D01*
X180298722Y-124890343D01*
X180271440Y-125039217D01*
X180270032Y-125045208D01*
X180230625Y-125182001D01*
X180186744Y-125322815D01*
X180184831Y-125328099D01*
X180129609Y-125461418D01*
X180069668Y-125594600D01*
X180067394Y-125599147D01*
X179997043Y-125726439D01*
X179921781Y-125850936D01*
X179919287Y-125854739D01*
X179835571Y-125972726D01*
X179833811Y-125975086D01*
X179745088Y-126088332D01*
X179742512Y-126091409D01*
X179645980Y-126199430D01*
X179643590Y-126201957D01*
X179541957Y-126303590D01*
X179539430Y-126305980D01*
X179431409Y-126402512D01*
X179428332Y-126405088D01*
X179315086Y-126493811D01*
X179312726Y-126495571D01*
X179194739Y-126579287D01*
X179190936Y-126581781D01*
X179066439Y-126657043D01*
X178939147Y-126727394D01*
X178934600Y-126729668D01*
X178801418Y-126789609D01*
X178668099Y-126844831D01*
X178662815Y-126846744D01*
X178545231Y-126883385D01*
X178521990Y-126890627D01*
X178385208Y-126930032D01*
X178379217Y-126931440D01*
X178230343Y-126958722D01*
X178094315Y-126981835D01*
X178087668Y-126982599D01*
X177915524Y-126993012D01*
X177801736Y-126999402D01*
X177798258Y-126999500D01*
X154941742Y-126999500D01*
X154938265Y-126999402D01*
X154824475Y-126993012D01*
X154652330Y-126982599D01*
X154645683Y-126981835D01*
X154509656Y-126958722D01*
X154360781Y-126931440D01*
X154354790Y-126930032D01*
X154218021Y-126890631D01*
X154150634Y-126869633D01*
X154077183Y-126846744D01*
X154071899Y-126844831D01*
X153938581Y-126789609D01*
X153805398Y-126729668D01*
X153800851Y-126727393D01*
X153673560Y-126657043D01*
X153549063Y-126581781D01*
X153545259Y-126579287D01*
X153427272Y-126495571D01*
X153424912Y-126493811D01*
X153311666Y-126405088D01*
X153308589Y-126402512D01*
X153200568Y-126305980D01*
X153198041Y-126303590D01*
X153096408Y-126201957D01*
X153094018Y-126199430D01*
X152997486Y-126091409D01*
X152994910Y-126088332D01*
X152980874Y-126070416D01*
X152906176Y-125975072D01*
X152904427Y-125972726D01*
X152820711Y-125854739D01*
X152818217Y-125850935D01*
X152742956Y-125726439D01*
X152672605Y-125599147D01*
X152670330Y-125594600D01*
X152610390Y-125461418D01*
X152555167Y-125328099D01*
X152553265Y-125322850D01*
X152509375Y-125182001D01*
X152469963Y-125045198D01*
X152468560Y-125039227D01*
X152458340Y-124983462D01*
X152441277Y-124890343D01*
X152430327Y-124825907D01*
X152418160Y-124754297D01*
X152417401Y-124747691D01*
X152406994Y-124575652D01*
X152400596Y-124461717D01*
X152400500Y-124458294D01*
X152400500Y-122502210D01*
X156771733Y-122502210D01*
X156781768Y-122712899D01*
X156831498Y-122917886D01*
X156831498Y-122917888D01*
X156919123Y-123109762D01*
X156919127Y-123109768D01*
X157041473Y-123281579D01*
X157041478Y-123281584D01*
X157194138Y-123427145D01*
X157371587Y-123541184D01*
X157567411Y-123619580D01*
X157774533Y-123659500D01*
X158182618Y-123659500D01*
X158324944Y-123645908D01*
X158339979Y-123644473D01*
X158542368Y-123585047D01*
X158729854Y-123488391D01*
X158895659Y-123358000D01*
X159033792Y-123198587D01*
X159045059Y-123179073D01*
X159139258Y-123015914D01*
X159139259Y-123015913D01*
X159139260Y-123015908D01*
X159141711Y-123010544D01*
X159143306Y-123011272D01*
X159179084Y-122961030D01*
X159219125Y-122945000D01*
X160950001Y-122945000D01*
X160950001Y-122968322D01*
X160960144Y-123067607D01*
X161013452Y-123228481D01*
X161013457Y-123228492D01*
X161102424Y-123372728D01*
X161102427Y-123372732D01*
X161222267Y-123492572D01*
X161222271Y-123492575D01*
X161366507Y-123581542D01*
X161366518Y-123581547D01*
X161527393Y-123634855D01*
X161626683Y-123644999D01*
X161674999Y-123644998D01*
X161675000Y-123644998D01*
X161675000Y-122945000D01*
X162175000Y-122945000D01*
X162175000Y-123644999D01*
X162223308Y-123644999D01*
X162223322Y-123644998D01*
X162322607Y-123634855D01*
X162483481Y-123581547D01*
X162483492Y-123581542D01*
X162627728Y-123492575D01*
X162627732Y-123492572D01*
X162747572Y-123372732D01*
X162747575Y-123372728D01*
X162836542Y-123228492D01*
X162836547Y-123228481D01*
X162889855Y-123067606D01*
X162899999Y-122968322D01*
X162900000Y-122968309D01*
X162900000Y-122945000D01*
X169840001Y-122945000D01*
X169840001Y-122968322D01*
X169850144Y-123067607D01*
X169903452Y-123228481D01*
X169903457Y-123228492D01*
X169992424Y-123372728D01*
X169992427Y-123372732D01*
X170112267Y-123492572D01*
X170112271Y-123492575D01*
X170256507Y-123581542D01*
X170256518Y-123581547D01*
X170417393Y-123634855D01*
X170516683Y-123644999D01*
X170564999Y-123644998D01*
X170565000Y-122945000D01*
X171065000Y-122945000D01*
X171065000Y-123644999D01*
X171113308Y-123644999D01*
X171113322Y-123644998D01*
X171212607Y-123634855D01*
X171373481Y-123581547D01*
X171373492Y-123581542D01*
X171517728Y-123492575D01*
X171517732Y-123492572D01*
X171637572Y-123372732D01*
X171637575Y-123372728D01*
X171726542Y-123228492D01*
X171726547Y-123228481D01*
X171779855Y-123067606D01*
X171789999Y-122968322D01*
X171790000Y-122968309D01*
X171790000Y-122945000D01*
X171065000Y-122945000D01*
X170565000Y-122945000D01*
X169840001Y-122945000D01*
X162900000Y-122945000D01*
X162175000Y-122945000D01*
X161675000Y-122945000D01*
X160950001Y-122945000D01*
X159219125Y-122945000D01*
X159243949Y-122935062D01*
X159255736Y-122934500D01*
X159459780Y-122934500D01*
X159485225Y-122937139D01*
X159489120Y-122937955D01*
X159496100Y-122939419D01*
X159514616Y-122937110D01*
X159531740Y-122934977D01*
X159539416Y-122934500D01*
X159543440Y-122934500D01*
X159543443Y-122934500D01*
X159560875Y-122931590D01*
X159566716Y-122930616D01*
X159572819Y-122929855D01*
X159621783Y-122923752D01*
X159621788Y-122923749D01*
X159629391Y-122921486D01*
X159636923Y-122918900D01*
X159636927Y-122918900D01*
X159685705Y-122892502D01*
X159735568Y-122868126D01*
X159735570Y-122868123D01*
X159742001Y-122863533D01*
X159748309Y-122858622D01*
X159748316Y-122858619D01*
X159785880Y-122817813D01*
X160759425Y-121844267D01*
X160779279Y-121828145D01*
X160788582Y-121822068D01*
X160810640Y-121793726D01*
X160815729Y-121787963D01*
X160818581Y-121785113D01*
X160832294Y-121765906D01*
X160866375Y-121722119D01*
X160866376Y-121722113D01*
X160870159Y-121715126D01*
X160873653Y-121707978D01*
X160889479Y-121654818D01*
X160900880Y-121621608D01*
X160907500Y-121602327D01*
X160907500Y-121602324D01*
X160908802Y-121594521D01*
X160909792Y-121586588D01*
X160907500Y-121531174D01*
X160907500Y-117482167D01*
X160927185Y-117415128D01*
X160979989Y-117369373D01*
X161049147Y-117359429D01*
X161112703Y-117388454D01*
X161119181Y-117394486D01*
X161222267Y-117497572D01*
X161222271Y-117497575D01*
X161276851Y-117531241D01*
X161323576Y-117583189D01*
X161334797Y-117652151D01*
X161311021Y-117711090D01*
X161249824Y-117792837D01*
X161249823Y-117792839D01*
X161201641Y-117922021D01*
X161201640Y-117922025D01*
X161201640Y-117922027D01*
X161195500Y-117979136D01*
X161195500Y-118520864D01*
X161201640Y-118577973D01*
X161201641Y-118577978D01*
X161249823Y-118707160D01*
X161249825Y-118707163D01*
X161297944Y-118771442D01*
X161322361Y-118836907D01*
X161314619Y-118889723D01*
X161284851Y-118968214D01*
X161284851Y-118968216D01*
X161265693Y-119125999D01*
X161265693Y-119126000D01*
X161284850Y-119283782D01*
X161343873Y-119439409D01*
X161341845Y-119440177D01*
X161353000Y-119485416D01*
X161353000Y-119909583D01*
X161341853Y-119954827D01*
X161343873Y-119955593D01*
X161341214Y-119962603D01*
X161341213Y-119962605D01*
X161336615Y-119974730D01*
X161284850Y-120111218D01*
X161265693Y-120268999D01*
X161265693Y-120269000D01*
X161284851Y-120426782D01*
X161314619Y-120505275D01*
X161319986Y-120574938D01*
X161297944Y-120623556D01*
X161249827Y-120687832D01*
X161249823Y-120687839D01*
X161201641Y-120817021D01*
X161201640Y-120817025D01*
X161201640Y-120817027D01*
X161195500Y-120874136D01*
X161195500Y-121415864D01*
X161200840Y-121465528D01*
X161201641Y-121472978D01*
X161249823Y-121602160D01*
X161249824Y-121602161D01*
X161249825Y-121602163D01*
X161301157Y-121670734D01*
X161311020Y-121683909D01*
X161335437Y-121749373D01*
X161320586Y-121817646D01*
X161276852Y-121863757D01*
X161222271Y-121897424D01*
X161222267Y-121897427D01*
X161102427Y-122017267D01*
X161102424Y-122017271D01*
X161013457Y-122161507D01*
X161013452Y-122161518D01*
X160960144Y-122322393D01*
X160950000Y-122421677D01*
X160950000Y-122445000D01*
X162899999Y-122445000D01*
X162899999Y-122421692D01*
X162899998Y-122421677D01*
X162889855Y-122322392D01*
X162836547Y-122161518D01*
X162836542Y-122161507D01*
X162747575Y-122017271D01*
X162747572Y-122017267D01*
X162627733Y-121897428D01*
X162573147Y-121863758D01*
X162526424Y-121811809D01*
X162515203Y-121742846D01*
X162538980Y-121683909D01*
X162600175Y-121602163D01*
X162648360Y-121472973D01*
X162654500Y-121415864D01*
X162654500Y-120874136D01*
X162648360Y-120817027D01*
X162616863Y-120732579D01*
X162600176Y-120687839D01*
X162600175Y-120687838D01*
X162600175Y-120687837D01*
X162552054Y-120623556D01*
X162527638Y-120558093D01*
X162535380Y-120505274D01*
X162565149Y-120426782D01*
X162584307Y-120269000D01*
X162565149Y-120111218D01*
X162508787Y-119962605D01*
X162508785Y-119962602D01*
X162506127Y-119955593D01*
X162508146Y-119954827D01*
X162497000Y-119909583D01*
X162497000Y-119485416D01*
X162508154Y-119440177D01*
X162506127Y-119439409D01*
X162528657Y-119380003D01*
X163364916Y-119380003D01*
X163385235Y-119728869D01*
X163385236Y-119728880D01*
X163445914Y-120073002D01*
X163445916Y-120073011D01*
X163546145Y-120407800D01*
X163684555Y-120728670D01*
X163684561Y-120728683D01*
X163859289Y-121031322D01*
X164067972Y-121311631D01*
X164067976Y-121311636D01*
X164076147Y-121320297D01*
X164076148Y-121320298D01*
X165323665Y-120072781D01*
X165462855Y-120247320D01*
X165632299Y-120395358D01*
X165679808Y-120423743D01*
X164432817Y-121670733D01*
X164432818Y-121670734D01*
X164575480Y-121790442D01*
X164867461Y-121982480D01*
X165179739Y-122139314D01*
X165179745Y-122139316D01*
X165508130Y-122258838D01*
X165508133Y-122258839D01*
X165848171Y-122339429D01*
X166195276Y-122379999D01*
X166195277Y-122380000D01*
X166544723Y-122380000D01*
X166544723Y-122379999D01*
X166891827Y-122339429D01*
X166891829Y-122339429D01*
X167231866Y-122258839D01*
X167231869Y-122258838D01*
X167560254Y-122139316D01*
X167560260Y-122139314D01*
X167872538Y-121982480D01*
X168164515Y-121790445D01*
X168307180Y-121670734D01*
X168307181Y-121670733D01*
X167060125Y-120423678D01*
X167195747Y-120325144D01*
X167351239Y-120162512D01*
X167412801Y-120069248D01*
X168663850Y-121320297D01*
X168672032Y-121311625D01*
X168880710Y-121031322D01*
X169055438Y-120728683D01*
X169055444Y-120728670D01*
X169193854Y-120407800D01*
X169294083Y-120073011D01*
X169294085Y-120073002D01*
X169354763Y-119728880D01*
X169354764Y-119728869D01*
X169375084Y-119380003D01*
X169375084Y-119379996D01*
X169354764Y-119031130D01*
X169354763Y-119031119D01*
X169294085Y-118686997D01*
X169294083Y-118686988D01*
X169193854Y-118352199D01*
X169055444Y-118031329D01*
X169055438Y-118031316D01*
X168880710Y-117728677D01*
X168672029Y-117448371D01*
X168663850Y-117439701D01*
X168663850Y-117439700D01*
X167416333Y-118687217D01*
X167277145Y-118512680D01*
X167107701Y-118364642D01*
X167060190Y-118336255D01*
X168307181Y-117089265D01*
X168307180Y-117089264D01*
X168164519Y-116969557D01*
X167872538Y-116777519D01*
X167560260Y-116620685D01*
X167560254Y-116620683D01*
X167231869Y-116501161D01*
X167231866Y-116501160D01*
X166891828Y-116420570D01*
X166544723Y-116380000D01*
X166195277Y-116380000D01*
X165848172Y-116420570D01*
X165848170Y-116420570D01*
X165508133Y-116501160D01*
X165508130Y-116501161D01*
X165179745Y-116620683D01*
X165179739Y-116620685D01*
X164867461Y-116777519D01*
X164575485Y-116969554D01*
X164432817Y-117089264D01*
X165679874Y-118336321D01*
X165544253Y-118434856D01*
X165388761Y-118597488D01*
X165327198Y-118690751D01*
X164076148Y-117439701D01*
X164076146Y-117439701D01*
X164067973Y-117448366D01*
X163859289Y-117728677D01*
X163684561Y-118031316D01*
X163684555Y-118031329D01*
X163546145Y-118352199D01*
X163445916Y-118686988D01*
X163445914Y-118686997D01*
X163385236Y-119031119D01*
X163385235Y-119031130D01*
X163364916Y-119379996D01*
X163364916Y-119380003D01*
X162528657Y-119380003D01*
X162565149Y-119283782D01*
X162584307Y-119126000D01*
X162584307Y-119125999D01*
X162565149Y-118968220D01*
X162565149Y-118968218D01*
X162535379Y-118889724D01*
X162530013Y-118820061D01*
X162552056Y-118771442D01*
X162600175Y-118707163D01*
X162648360Y-118577973D01*
X162654500Y-118520864D01*
X162654500Y-117979136D01*
X162648360Y-117922027D01*
X162600175Y-117792837D01*
X162538977Y-117711088D01*
X162514561Y-117645627D01*
X162529412Y-117577354D01*
X162573148Y-117531240D01*
X162627733Y-117497571D01*
X162747572Y-117377732D01*
X162747575Y-117377728D01*
X162836542Y-117233492D01*
X162836547Y-117233481D01*
X162889855Y-117072606D01*
X162899999Y-116973322D01*
X162900000Y-116973309D01*
X162900000Y-116950000D01*
X161799000Y-116950000D01*
X161731961Y-116930315D01*
X161686206Y-116877511D01*
X161675000Y-116826000D01*
X161675000Y-115750000D01*
X162175000Y-115750000D01*
X162175000Y-116450000D01*
X162899999Y-116450000D01*
X162899999Y-116426692D01*
X162899998Y-116426677D01*
X162889855Y-116327392D01*
X162836547Y-116166518D01*
X162836542Y-116166507D01*
X162747575Y-116022271D01*
X162747572Y-116022267D01*
X162627732Y-115902427D01*
X162627728Y-115902424D01*
X162483492Y-115813457D01*
X162483481Y-115813452D01*
X162322606Y-115760144D01*
X162223322Y-115750000D01*
X162175000Y-115750000D01*
X161675000Y-115750000D01*
X161674999Y-115749999D01*
X161626693Y-115750000D01*
X161626675Y-115750001D01*
X161527392Y-115760144D01*
X161366518Y-115813452D01*
X161366507Y-115813457D01*
X161222271Y-115902424D01*
X161119181Y-116005514D01*
X161057858Y-116038998D01*
X160988166Y-116034014D01*
X160932233Y-115992142D01*
X160907816Y-115926677D01*
X160907500Y-115917832D01*
X160907500Y-115439000D01*
X168455001Y-115439000D01*
X168455001Y-115487322D01*
X168465144Y-115586607D01*
X168518452Y-115747481D01*
X168518457Y-115747492D01*
X168607424Y-115891728D01*
X168607427Y-115891732D01*
X168727267Y-116011572D01*
X168727271Y-116011575D01*
X168871507Y-116100542D01*
X168871518Y-116100547D01*
X169032393Y-116153855D01*
X169131683Y-116163999D01*
X169155000Y-116163998D01*
X169155000Y-115439000D01*
X168455001Y-115439000D01*
X160907500Y-115439000D01*
X160907500Y-114939000D01*
X168455000Y-114939000D01*
X169155000Y-114939000D01*
X169155000Y-114680000D01*
X169141319Y-114666319D01*
X169107834Y-114604996D01*
X169105000Y-114578638D01*
X169105000Y-113915000D01*
X168455001Y-113915000D01*
X168455001Y-113996582D01*
X168461408Y-114067102D01*
X168461409Y-114067107D01*
X168511981Y-114229396D01*
X168598474Y-114372473D01*
X168616310Y-114440028D01*
X168597895Y-114501720D01*
X168518457Y-114630507D01*
X168518452Y-114630518D01*
X168465144Y-114791393D01*
X168455000Y-114890677D01*
X168455000Y-114939000D01*
X160907500Y-114939000D01*
X160907500Y-113415000D01*
X168455000Y-113415000D01*
X169105000Y-113415000D01*
X169105000Y-112690000D01*
X169104999Y-112689999D01*
X169098436Y-112690000D01*
X169098417Y-112690001D01*
X169027897Y-112696408D01*
X169027892Y-112696409D01*
X168865603Y-112746981D01*
X168720122Y-112834927D01*
X168599927Y-112955122D01*
X168511980Y-113100604D01*
X168461409Y-113262893D01*
X168455000Y-113333427D01*
X168455000Y-113415000D01*
X160907500Y-113415000D01*
X160907500Y-112743555D01*
X160927185Y-112676516D01*
X160943819Y-112655874D01*
X161015374Y-112584319D01*
X161076697Y-112550834D01*
X161103055Y-112548000D01*
X161248972Y-112548000D01*
X161300411Y-112535320D01*
X161403293Y-112509963D01*
X161544029Y-112436099D01*
X161662998Y-112330701D01*
X161753287Y-112199895D01*
X161809649Y-112051282D01*
X161828807Y-111893500D01*
X161824065Y-111854446D01*
X161835525Y-111785523D01*
X161882429Y-111733737D01*
X161947161Y-111715500D01*
X162163825Y-111715500D01*
X162230864Y-111735185D01*
X162276619Y-111787989D01*
X162286563Y-111857147D01*
X162265875Y-111909940D01*
X162230214Y-111961602D01*
X162173850Y-112110218D01*
X162154693Y-112267999D01*
X162154693Y-112268000D01*
X162173850Y-112425781D01*
X162197225Y-112487413D01*
X162223358Y-112556321D01*
X162230214Y-112574397D01*
X162270166Y-112632277D01*
X162320502Y-112705201D01*
X162320504Y-112705203D01*
X162320506Y-112705205D01*
X162439469Y-112810598D01*
X162439471Y-112810599D01*
X162580207Y-112884463D01*
X162657367Y-112903481D01*
X162734528Y-112922500D01*
X162734529Y-112922500D01*
X162893472Y-112922500D01*
X162944911Y-112909821D01*
X163047793Y-112884463D01*
X163093885Y-112860271D01*
X163105449Y-112854203D01*
X163163074Y-112840000D01*
X163476154Y-112840000D01*
X163533779Y-112854203D01*
X163553042Y-112864312D01*
X163591435Y-112884463D01*
X163668595Y-112903481D01*
X163745756Y-112922500D01*
X163745757Y-112922500D01*
X163904700Y-112922500D01*
X163956139Y-112909820D01*
X164059021Y-112884463D01*
X164105113Y-112860271D01*
X164116677Y-112854203D01*
X164174302Y-112840000D01*
X164423447Y-112840000D01*
X164431545Y-112840530D01*
X164451891Y-112843209D01*
X164464999Y-112844935D01*
X164465000Y-112844935D01*
X164500560Y-112840253D01*
X164500583Y-112840251D01*
X164502489Y-112840000D01*
X164502492Y-112840000D01*
X164614322Y-112825277D01*
X164753468Y-112767641D01*
X164810411Y-112723946D01*
X164875577Y-112698753D01*
X164926850Y-112705281D01*
X164993549Y-112728621D01*
X165024251Y-112731500D01*
X165683748Y-112731499D01*
X165714451Y-112728621D01*
X165843773Y-112683369D01*
X165860221Y-112671229D01*
X165925848Y-112647259D01*
X165933854Y-112647000D01*
X167374985Y-112647000D01*
X167374992Y-112647000D01*
X167486822Y-112632277D01*
X167486822Y-112632276D01*
X167494880Y-112631216D01*
X167494975Y-112631940D01*
X167513511Y-112629500D01*
X167956839Y-112629500D01*
X168051552Y-112614499D01*
X168051553Y-112614498D01*
X168051555Y-112614498D01*
X168165723Y-112556326D01*
X168256326Y-112465723D01*
X168314498Y-112351555D01*
X168314498Y-112351553D01*
X168314499Y-112351552D01*
X168329500Y-112256839D01*
X168329500Y-111893161D01*
X168313343Y-111791154D01*
X168322297Y-111721860D01*
X168367293Y-111668408D01*
X168434045Y-111647768D01*
X168492110Y-111661270D01*
X168498445Y-111664498D01*
X168498446Y-111664498D01*
X168498448Y-111664499D01*
X168498447Y-111664499D01*
X168593161Y-111679500D01*
X168593166Y-111679500D01*
X169036489Y-111679500D01*
X169055024Y-111681940D01*
X169055120Y-111681216D01*
X169063177Y-111682276D01*
X169063178Y-111682277D01*
X169175008Y-111697000D01*
X169891708Y-111697000D01*
X169958747Y-111716685D01*
X169979389Y-111733319D01*
X170396681Y-112150610D01*
X170430166Y-112211933D01*
X170433000Y-112238291D01*
X170433000Y-113045058D01*
X170413315Y-113112097D01*
X170360511Y-113157852D01*
X170291353Y-113167796D01*
X170227797Y-113138771D01*
X170203459Y-113106076D01*
X170201898Y-113107020D01*
X170110072Y-112955122D01*
X169989877Y-112834927D01*
X169844395Y-112746980D01*
X169844396Y-112746980D01*
X169682105Y-112696409D01*
X169682106Y-112696409D01*
X169611572Y-112690000D01*
X169605000Y-112690000D01*
X169605000Y-114173999D01*
X169618681Y-114187681D01*
X169652166Y-114249004D01*
X169655000Y-114275362D01*
X169655000Y-116163999D01*
X169678308Y-116163999D01*
X169678317Y-116163998D01*
X169721642Y-116159572D01*
X169790335Y-116172341D01*
X169841220Y-116220221D01*
X169858142Y-116288010D01*
X169851955Y-116321925D01*
X169850144Y-116327389D01*
X169850144Y-116327391D01*
X169840000Y-116426677D01*
X169840000Y-116450000D01*
X170941000Y-116450000D01*
X171008039Y-116469685D01*
X171053794Y-116522489D01*
X171065000Y-116574000D01*
X171065000Y-116826000D01*
X171045315Y-116893039D01*
X170992511Y-116938794D01*
X170941000Y-116950000D01*
X169840001Y-116950000D01*
X169840001Y-116973322D01*
X169850144Y-117072607D01*
X169903452Y-117233481D01*
X169903457Y-117233492D01*
X169992424Y-117377728D01*
X169992427Y-117377732D01*
X170112267Y-117497572D01*
X170112271Y-117497575D01*
X170166851Y-117531241D01*
X170213576Y-117583189D01*
X170224797Y-117652151D01*
X170201021Y-117711090D01*
X170139824Y-117792837D01*
X170139823Y-117792839D01*
X170091641Y-117922021D01*
X170091640Y-117922025D01*
X170091640Y-117922027D01*
X170085500Y-117979136D01*
X170085500Y-118520864D01*
X170091640Y-118577973D01*
X170091641Y-118577978D01*
X170139823Y-118707160D01*
X170139825Y-118707163D01*
X170187944Y-118771442D01*
X170212361Y-118836907D01*
X170204619Y-118889723D01*
X170174851Y-118968214D01*
X170174851Y-118968216D01*
X170155693Y-119125999D01*
X170155693Y-119126000D01*
X170174850Y-119283782D01*
X170233873Y-119439409D01*
X170231845Y-119440177D01*
X170243000Y-119485416D01*
X170243000Y-119909583D01*
X170231853Y-119954827D01*
X170233873Y-119955593D01*
X170231214Y-119962603D01*
X170231213Y-119962605D01*
X170226615Y-119974730D01*
X170174850Y-120111218D01*
X170155693Y-120268999D01*
X170155693Y-120269000D01*
X170174851Y-120426782D01*
X170204619Y-120505275D01*
X170209986Y-120574938D01*
X170187944Y-120623556D01*
X170139827Y-120687832D01*
X170139823Y-120687839D01*
X170091641Y-120817021D01*
X170091640Y-120817025D01*
X170091640Y-120817027D01*
X170085500Y-120874136D01*
X170085500Y-121415864D01*
X170090840Y-121465528D01*
X170091641Y-121472978D01*
X170139823Y-121602160D01*
X170139824Y-121602161D01*
X170139825Y-121602163D01*
X170191157Y-121670734D01*
X170201020Y-121683909D01*
X170225437Y-121749373D01*
X170210586Y-121817646D01*
X170166852Y-121863757D01*
X170112271Y-121897424D01*
X170112267Y-121897427D01*
X169992427Y-122017267D01*
X169992424Y-122017271D01*
X169903457Y-122161507D01*
X169903452Y-122161518D01*
X169850144Y-122322393D01*
X169840000Y-122421677D01*
X169840000Y-122445000D01*
X171789999Y-122445000D01*
X171789999Y-122421692D01*
X171789998Y-122421677D01*
X171779855Y-122322392D01*
X171742917Y-122210919D01*
X171740515Y-122141091D01*
X171776247Y-122081049D01*
X171838767Y-122049856D01*
X171908227Y-122057417D01*
X171948304Y-122084234D01*
X172794143Y-122930073D01*
X172799496Y-122936176D01*
X172820043Y-122962953D01*
X172820045Y-122962955D01*
X172848756Y-122984985D01*
X172848772Y-122984999D01*
X172881879Y-123010402D01*
X172939532Y-123054641D01*
X173078678Y-123112277D01*
X173210627Y-123129648D01*
X173227999Y-123131936D01*
X173228000Y-123131936D01*
X173228001Y-123131936D01*
X173247411Y-123129380D01*
X173261459Y-123127530D01*
X173269559Y-123127000D01*
X174647473Y-123127000D01*
X174714512Y-123146685D01*
X174748478Y-123179070D01*
X174821478Y-123281584D01*
X174974138Y-123427145D01*
X175151587Y-123541184D01*
X175347411Y-123619580D01*
X175554533Y-123659500D01*
X175962618Y-123659500D01*
X176104944Y-123645908D01*
X176119979Y-123644473D01*
X176322368Y-123585047D01*
X176509854Y-123488391D01*
X176675659Y-123358000D01*
X176813792Y-123198587D01*
X176825059Y-123179073D01*
X176919258Y-123015914D01*
X176919259Y-123015913D01*
X176988248Y-122816580D01*
X177018267Y-122607793D01*
X177008231Y-122397098D01*
X176958501Y-122192110D01*
X176870876Y-122000238D01*
X176870876Y-122000237D01*
X176870872Y-122000231D01*
X176748526Y-121828420D01*
X176748520Y-121828414D01*
X176595864Y-121682857D01*
X176595862Y-121682855D01*
X176418413Y-121568816D01*
X176408402Y-121564808D01*
X176382772Y-121554547D01*
X176327851Y-121511356D01*
X176304999Y-121445329D01*
X176321472Y-121377429D01*
X176372040Y-121329214D01*
X176376455Y-121327048D01*
X176587573Y-121228602D01*
X176587579Y-121228599D01*
X176781073Y-121093113D01*
X176781079Y-121093108D01*
X176948105Y-120926082D01*
X177083600Y-120732578D01*
X177183429Y-120518492D01*
X177183432Y-120518486D01*
X177240636Y-120305000D01*
X176188969Y-120305000D01*
X176221519Y-120254351D01*
X176260000Y-120123295D01*
X176260000Y-119986705D01*
X176221519Y-119855649D01*
X176188969Y-119805000D01*
X177240636Y-119805000D01*
X177240635Y-119804999D01*
X177183432Y-119591513D01*
X177183429Y-119591507D01*
X177083600Y-119377422D01*
X177083599Y-119377420D01*
X176948113Y-119183926D01*
X176948108Y-119183920D01*
X176777250Y-119013062D01*
X176779049Y-119011262D01*
X176746229Y-118962043D01*
X176745049Y-118892183D01*
X176781825Y-118832775D01*
X176805172Y-118816270D01*
X176817684Y-118809439D01*
X176876813Y-118765175D01*
X177317090Y-118324898D01*
X177318658Y-118323151D01*
X177326380Y-118314557D01*
X177326379Y-118314557D01*
X177347374Y-118288503D01*
X177394303Y-118198789D01*
X177413988Y-118131750D01*
X177424500Y-118058638D01*
X177424500Y-117011412D01*
X177423756Y-116997531D01*
X177420179Y-116964263D01*
X177389924Y-116867639D01*
X177367187Y-116826000D01*
X177356437Y-116806312D01*
X177312183Y-116747197D01*
X177312176Y-116747189D01*
X177312175Y-116747187D01*
X177312171Y-116747183D01*
X177312165Y-116747176D01*
X176921170Y-116356180D01*
X176887685Y-116294857D01*
X176892669Y-116225165D01*
X176921170Y-116180818D01*
X177317088Y-115784900D01*
X177326380Y-115774557D01*
X177326379Y-115774557D01*
X177347374Y-115748503D01*
X177394303Y-115658789D01*
X177413988Y-115591750D01*
X177424500Y-115518638D01*
X177424500Y-114471412D01*
X177423756Y-114457531D01*
X177420179Y-114424263D01*
X177389924Y-114327639D01*
X177356439Y-114266316D01*
X177356437Y-114266312D01*
X177312183Y-114207197D01*
X177312178Y-114207192D01*
X177312175Y-114207187D01*
X177312171Y-114207183D01*
X177312165Y-114207176D01*
X176871901Y-113766913D01*
X176871900Y-113766912D01*
X176861557Y-113757620D01*
X176861557Y-113757621D01*
X176835503Y-113736626D01*
X176835501Y-113736625D01*
X176835500Y-113736624D01*
X176745792Y-113689698D01*
X176745787Y-113689695D01*
X176678755Y-113670013D01*
X176678743Y-113670010D01*
X176605639Y-113659500D01*
X176605638Y-113659500D01*
X173653412Y-113659500D01*
X173639531Y-113660244D01*
X173626416Y-113661654D01*
X173606261Y-113663821D01*
X173606260Y-113663821D01*
X173509642Y-113694075D01*
X173509639Y-113694076D01*
X173509637Y-113694076D01*
X173509632Y-113694079D01*
X173448312Y-113727562D01*
X173389197Y-113771816D01*
X173389176Y-113771834D01*
X172948913Y-114212099D01*
X172948912Y-114212100D01*
X172939620Y-114222443D01*
X172939621Y-114222443D01*
X172918624Y-114248499D01*
X172871698Y-114338207D01*
X172871695Y-114338212D01*
X172852013Y-114405244D01*
X172852010Y-114405256D01*
X172841500Y-114478360D01*
X172841500Y-115085476D01*
X172821815Y-115152515D01*
X172769011Y-115198270D01*
X172699853Y-115208214D01*
X172636297Y-115179189D01*
X172623216Y-115165306D01*
X172619956Y-115162046D01*
X172593176Y-115141496D01*
X172587073Y-115136143D01*
X172536406Y-115085476D01*
X172264843Y-114813913D01*
X172259499Y-114807818D01*
X172246895Y-114791393D01*
X172238955Y-114781045D01*
X172119468Y-114689359D01*
X172119464Y-114689357D01*
X171980325Y-114631724D01*
X171980323Y-114631723D01*
X171980322Y-114631723D01*
X171905850Y-114621918D01*
X171864870Y-114616523D01*
X171864855Y-114616521D01*
X171838156Y-114613007D01*
X171831000Y-114612065D01*
X171830999Y-114612065D01*
X171830998Y-114612065D01*
X171812163Y-114614544D01*
X171797545Y-114616469D01*
X171789447Y-114617000D01*
X171701000Y-114617000D01*
X171633961Y-114597315D01*
X171588206Y-114544511D01*
X171577000Y-114493000D01*
X171577000Y-114242144D01*
X171596685Y-114175105D01*
X171601231Y-114168509D01*
X171606815Y-114160943D01*
X171611369Y-114154773D01*
X171656621Y-114025451D01*
X171659500Y-113994749D01*
X171659499Y-113335252D01*
X171656621Y-113304549D01*
X171611369Y-113175227D01*
X171601226Y-113161484D01*
X171577258Y-113095856D01*
X171577000Y-113087855D01*
X171577000Y-111991552D01*
X171577531Y-111983450D01*
X171580408Y-111961602D01*
X171581935Y-111950000D01*
X171581000Y-111942901D01*
X171577271Y-111914570D01*
X171577269Y-111914552D01*
X171574497Y-111893499D01*
X171562277Y-111800678D01*
X171504641Y-111661532D01*
X171491207Y-111644024D01*
X171435976Y-111572046D01*
X171435974Y-111572044D01*
X171412955Y-111542045D01*
X171400116Y-111532193D01*
X171386176Y-111521496D01*
X171380073Y-111516143D01*
X171045969Y-111182039D01*
X170613843Y-110749913D01*
X170608499Y-110743818D01*
X170587954Y-110717044D01*
X170549558Y-110687581D01*
X170468468Y-110625359D01*
X170468466Y-110625357D01*
X170329325Y-110567724D01*
X170329323Y-110567723D01*
X170329322Y-110567723D01*
X170322759Y-110566859D01*
X170263149Y-110559011D01*
X170213870Y-110552523D01*
X170213855Y-110552521D01*
X170187156Y-110549007D01*
X170180000Y-110548065D01*
X170179999Y-110548065D01*
X170179998Y-110548065D01*
X170161163Y-110550544D01*
X170146545Y-110552469D01*
X170138447Y-110553000D01*
X169175000Y-110553000D01*
X169055120Y-110568784D01*
X169055024Y-110568059D01*
X169036489Y-110570500D01*
X168593161Y-110570500D01*
X168498447Y-110585500D01*
X168498445Y-110585501D01*
X168492107Y-110588731D01*
X168423437Y-110601625D01*
X168358698Y-110575346D01*
X168318443Y-110518238D01*
X168313343Y-110458845D01*
X168315781Y-110443456D01*
X168319625Y-110419183D01*
X168329500Y-110356838D01*
X168329500Y-110045063D01*
X173250388Y-110045063D01*
X173265154Y-110119301D01*
X173321403Y-110203484D01*
X173331760Y-110210404D01*
X173405587Y-110259734D01*
X173405590Y-110259734D01*
X173405591Y-110259735D01*
X173430554Y-110264700D01*
X173479821Y-110274500D01*
X175129954Y-110274499D01*
X175204189Y-110259734D01*
X175288372Y-110203484D01*
X175288371Y-110203484D01*
X175298527Y-110196699D01*
X175300673Y-110199911D01*
X175342740Y-110176926D01*
X175412433Y-110181891D01*
X175456814Y-110210404D01*
X175466067Y-110219657D01*
X175652405Y-110350134D01*
X175858561Y-110446265D01*
X175858570Y-110446269D01*
X176078277Y-110505139D01*
X176078288Y-110505141D01*
X176304886Y-110524966D01*
X176304890Y-110524966D01*
X176531487Y-110505141D01*
X176531498Y-110505139D01*
X176751205Y-110446269D01*
X176751219Y-110446264D01*
X176957366Y-110350136D01*
X177030360Y-110299025D01*
X176349289Y-109617953D01*
X176430036Y-109605165D01*
X176542933Y-109547641D01*
X176632529Y-109458045D01*
X176690053Y-109345148D01*
X176702841Y-109264400D01*
X177383913Y-109945472D01*
X177435024Y-109872478D01*
X177531152Y-109666331D01*
X177531157Y-109666317D01*
X177590027Y-109446610D01*
X177590029Y-109446599D01*
X177609854Y-109220002D01*
X177609854Y-109219997D01*
X177590029Y-108993400D01*
X177590027Y-108993389D01*
X177531157Y-108773682D01*
X177531153Y-108773673D01*
X177435021Y-108567516D01*
X177435019Y-108567512D01*
X177383914Y-108494526D01*
X177383913Y-108494526D01*
X176702841Y-109175598D01*
X176690053Y-109094852D01*
X176632529Y-108981955D01*
X176542933Y-108892359D01*
X176430036Y-108834835D01*
X176349288Y-108822046D01*
X177030360Y-108140974D01*
X177030359Y-108140973D01*
X176957371Y-108089866D01*
X176957369Y-108089865D01*
X176751214Y-107993734D01*
X176751205Y-107993730D01*
X176531498Y-107934860D01*
X176531487Y-107934858D01*
X176304890Y-107915034D01*
X176304886Y-107915034D01*
X176078288Y-107934858D01*
X176078277Y-107934860D01*
X175858570Y-107993730D01*
X175858561Y-107993734D01*
X175652405Y-108089866D01*
X175466069Y-108220340D01*
X175456807Y-108229601D01*
X175395481Y-108263081D01*
X175325790Y-108258091D01*
X175299804Y-108241389D01*
X175298527Y-108243301D01*
X175261036Y-108218251D01*
X175204189Y-108180266D01*
X175204187Y-108180265D01*
X175204184Y-108180264D01*
X175129957Y-108165500D01*
X173479824Y-108165500D01*
X173405586Y-108180266D01*
X173321403Y-108236515D01*
X173265154Y-108320699D01*
X173265152Y-108320703D01*
X173250388Y-108394928D01*
X173250388Y-110045063D01*
X168329500Y-110045063D01*
X168329500Y-109993160D01*
X168314499Y-109898447D01*
X168301267Y-109872478D01*
X168256326Y-109784277D01*
X168256322Y-109784273D01*
X168256321Y-109784271D01*
X168165728Y-109693678D01*
X168165725Y-109693676D01*
X168165723Y-109693674D01*
X168051555Y-109635502D01*
X168051554Y-109635501D01*
X168051551Y-109635500D01*
X168051552Y-109635500D01*
X167956839Y-109620500D01*
X167956834Y-109620500D01*
X166718166Y-109620500D01*
X166718161Y-109620500D01*
X166623447Y-109635500D01*
X166562940Y-109666331D01*
X166509277Y-109693674D01*
X166509276Y-109693675D01*
X166509274Y-109693675D01*
X166443791Y-109759159D01*
X166382467Y-109792643D01*
X166330665Y-109792838D01*
X166319901Y-109790581D01*
X166319897Y-109790581D01*
X166284260Y-109795023D01*
X166276584Y-109795500D01*
X166272557Y-109795500D01*
X166264798Y-109796794D01*
X166249280Y-109799383D01*
X166194222Y-109806246D01*
X166186608Y-109808513D01*
X166179073Y-109811100D01*
X166130289Y-109837500D01*
X166080434Y-109861872D01*
X166073971Y-109866486D01*
X166066340Y-109872426D01*
X166061211Y-109874449D01*
X166059079Y-109876038D01*
X166058862Y-109876156D01*
X166058512Y-109875513D01*
X166001345Y-109898066D01*
X165932805Y-109884497D01*
X165916548Y-109874341D01*
X165874464Y-109843282D01*
X165843773Y-109820631D01*
X165843771Y-109820630D01*
X165714458Y-109775380D01*
X165714446Y-109775378D01*
X165683753Y-109772500D01*
X165683749Y-109772500D01*
X165287556Y-109772500D01*
X165220517Y-109752815D01*
X165199875Y-109736181D01*
X164643271Y-109179577D01*
X164627143Y-109159716D01*
X164621070Y-109150421D01*
X164621069Y-109150420D01*
X164621068Y-109150418D01*
X164592718Y-109128352D01*
X164586972Y-109123278D01*
X164584113Y-109120419D01*
X164581721Y-109118711D01*
X164564906Y-109106704D01*
X164521123Y-109072628D01*
X164521122Y-109072627D01*
X164521119Y-109072625D01*
X164521114Y-109072623D01*
X164514127Y-109068841D01*
X164506981Y-109065348D01*
X164506979Y-109065347D01*
X164495193Y-109061838D01*
X164453797Y-109049513D01*
X164449774Y-109048131D01*
X164392772Y-109007726D01*
X164390066Y-109003571D01*
X164389887Y-109003704D01*
X164382282Y-108993400D01*
X164364560Y-108969387D01*
X164303010Y-108885989D01*
X164213597Y-108820000D01*
X164192773Y-108804631D01*
X164192771Y-108804630D01*
X164063458Y-108759380D01*
X164063446Y-108759378D01*
X164032753Y-108756500D01*
X163373257Y-108756500D01*
X163357900Y-108757940D01*
X163342549Y-108759379D01*
X163342546Y-108759379D01*
X163342544Y-108759380D01*
X163213226Y-108804631D01*
X163213225Y-108804631D01*
X163097992Y-108889677D01*
X163032363Y-108913648D01*
X162964193Y-108898332D01*
X162918821Y-108855004D01*
X162874575Y-108783271D01*
X162874572Y-108783267D01*
X162754732Y-108663427D01*
X162754728Y-108663424D01*
X162610492Y-108574457D01*
X162610481Y-108574452D01*
X162449606Y-108521144D01*
X162350322Y-108511000D01*
X162302000Y-108511000D01*
X162302000Y-109587000D01*
X162282315Y-109654039D01*
X162229511Y-109699794D01*
X162178000Y-109711000D01*
X161077001Y-109711000D01*
X161077001Y-109734322D01*
X161087144Y-109833607D01*
X161140452Y-109994481D01*
X161140457Y-109994492D01*
X161229424Y-110138728D01*
X161229427Y-110138732D01*
X161349267Y-110258572D01*
X161349271Y-110258575D01*
X161403851Y-110292241D01*
X161450576Y-110344189D01*
X161461797Y-110413151D01*
X161438021Y-110472090D01*
X161376824Y-110553837D01*
X161376823Y-110553839D01*
X161328641Y-110683021D01*
X161328640Y-110683025D01*
X161328640Y-110683027D01*
X161322500Y-110740136D01*
X161322500Y-110740143D01*
X161322500Y-110740144D01*
X161322500Y-111115000D01*
X161302815Y-111182039D01*
X161250011Y-111227794D01*
X161198500Y-111239000D01*
X161090028Y-111239000D01*
X160935708Y-111277036D01*
X160794969Y-111350901D01*
X160676006Y-111456294D01*
X160676000Y-111456301D01*
X160585714Y-111587102D01*
X160529350Y-111735718D01*
X160510193Y-111893499D01*
X160510193Y-111893500D01*
X160512749Y-111914552D01*
X160516191Y-111942901D01*
X160504730Y-112011825D01*
X160480776Y-112045528D01*
X160296577Y-112229727D01*
X160276727Y-112245848D01*
X160267419Y-112251929D01*
X160245359Y-112280272D01*
X160240281Y-112286024D01*
X160237424Y-112288881D01*
X160237420Y-112288885D01*
X160237419Y-112288887D01*
X160223705Y-112308093D01*
X160206112Y-112330698D01*
X160189623Y-112351883D01*
X160185849Y-112358857D01*
X160182345Y-112366023D01*
X160166520Y-112419182D01*
X160148500Y-112471670D01*
X160147195Y-112479487D01*
X160146207Y-112487413D01*
X160148500Y-112542824D01*
X160148500Y-121330443D01*
X160128815Y-121397482D01*
X160112181Y-121418124D01*
X159391125Y-122139181D01*
X159329802Y-122172666D01*
X159303444Y-122175500D01*
X159250605Y-122175500D01*
X159183566Y-122155815D01*
X159137811Y-122103011D01*
X159090876Y-122000238D01*
X159078231Y-121982480D01*
X158968526Y-121828420D01*
X158968520Y-121828414D01*
X158815864Y-121682857D01*
X158815862Y-121682855D01*
X158638413Y-121568816D01*
X158442589Y-121490420D01*
X158235467Y-121450500D01*
X157827387Y-121450500D01*
X157827382Y-121450500D01*
X157670031Y-121465525D01*
X157670014Y-121465528D01*
X157467635Y-121524951D01*
X157280141Y-121621611D01*
X157114343Y-121751997D01*
X157114339Y-121752001D01*
X156976205Y-121911415D01*
X156870741Y-122094085D01*
X156801753Y-122293414D01*
X156801752Y-122293419D01*
X156801752Y-122293420D01*
X156783310Y-122421692D01*
X156771733Y-122502210D01*
X152400500Y-122502210D01*
X152400500Y-114636588D01*
X154172500Y-114636588D01*
X154173244Y-114650469D01*
X154173245Y-114650477D01*
X154176821Y-114683738D01*
X154176821Y-114683739D01*
X154178581Y-114689359D01*
X154207076Y-114780361D01*
X154207078Y-114780365D01*
X154207079Y-114780367D01*
X154240562Y-114841687D01*
X154284816Y-114900802D01*
X154284834Y-114900823D01*
X155564829Y-116180818D01*
X155598314Y-116242141D01*
X155593330Y-116311833D01*
X155564829Y-116356180D01*
X155168907Y-116752103D01*
X155168907Y-116752104D01*
X155159617Y-116762445D01*
X155159618Y-116762444D01*
X155138621Y-116788501D01*
X155091696Y-116878210D01*
X155072012Y-116945247D01*
X155072010Y-116945255D01*
X155061500Y-117018359D01*
X155061500Y-117018361D01*
X155061500Y-118065588D01*
X155062244Y-118079469D01*
X155062245Y-118079477D01*
X155065821Y-118112738D01*
X155065821Y-118112739D01*
X155075960Y-118145117D01*
X155096076Y-118209361D01*
X155096078Y-118209365D01*
X155096079Y-118209367D01*
X155129562Y-118270687D01*
X155173816Y-118329802D01*
X155173834Y-118329823D01*
X155614099Y-118770087D01*
X155614100Y-118770088D01*
X155624443Y-118779380D01*
X155624443Y-118779379D01*
X155650497Y-118800374D01*
X155650499Y-118800375D01*
X155740207Y-118847301D01*
X155740212Y-118847304D01*
X155790340Y-118862022D01*
X155807250Y-118866988D01*
X155807254Y-118866988D01*
X155807256Y-118866989D01*
X155819069Y-118868687D01*
X155880362Y-118877500D01*
X155880363Y-118877500D01*
X158832585Y-118877500D01*
X158832588Y-118877500D01*
X158846469Y-118876756D01*
X158879737Y-118873179D01*
X158976361Y-118842924D01*
X159037684Y-118809439D01*
X159037690Y-118809435D01*
X159069970Y-118785270D01*
X159096813Y-118765175D01*
X159537090Y-118324897D01*
X159537096Y-118324890D01*
X159537097Y-118324890D01*
X159546380Y-118314556D01*
X159546379Y-118314556D01*
X159567374Y-118288502D01*
X159614303Y-118198788D01*
X159633988Y-118131749D01*
X159644500Y-118058637D01*
X159644500Y-117011411D01*
X159643756Y-116997530D01*
X159640179Y-116964262D01*
X159609923Y-116867637D01*
X159601626Y-116852442D01*
X159576445Y-116806326D01*
X159576441Y-116806320D01*
X159576439Y-116806316D01*
X159532176Y-116747188D01*
X159532171Y-116747183D01*
X159532166Y-116747177D01*
X159141170Y-116356181D01*
X159107685Y-116294858D01*
X159112669Y-116225166D01*
X159141170Y-116180819D01*
X159283087Y-116038901D01*
X159283088Y-116038900D01*
X159292380Y-116028557D01*
X159292379Y-116028557D01*
X159313374Y-116002503D01*
X159360303Y-115912789D01*
X159379988Y-115845750D01*
X159390500Y-115772638D01*
X159390500Y-113582412D01*
X159389756Y-113568531D01*
X159386179Y-113535263D01*
X159355924Y-113438639D01*
X159322439Y-113377316D01*
X159322437Y-113377312D01*
X159278183Y-113318197D01*
X159278178Y-113318192D01*
X159278175Y-113318187D01*
X159278171Y-113318183D01*
X159278165Y-113318176D01*
X157648819Y-111688830D01*
X157615334Y-111627507D01*
X157612500Y-111601149D01*
X157612500Y-110406348D01*
X157632185Y-110339309D01*
X157684989Y-110293554D01*
X157754147Y-110283610D01*
X157807624Y-110304773D01*
X157872405Y-110350134D01*
X158078561Y-110446265D01*
X158078570Y-110446269D01*
X158298277Y-110505139D01*
X158298288Y-110505141D01*
X158524886Y-110524966D01*
X158524890Y-110524966D01*
X158751487Y-110505141D01*
X158751498Y-110505139D01*
X158971205Y-110446269D01*
X158971219Y-110446264D01*
X159177366Y-110350136D01*
X159250360Y-110299025D01*
X158569288Y-109617953D01*
X158650036Y-109605165D01*
X158762933Y-109547641D01*
X158852529Y-109458045D01*
X158910053Y-109345148D01*
X158922841Y-109264400D01*
X159603913Y-109945472D01*
X159655024Y-109872478D01*
X159751152Y-109666331D01*
X159751157Y-109666317D01*
X159810027Y-109446610D01*
X159810029Y-109446599D01*
X159829854Y-109220002D01*
X159829854Y-109219997D01*
X159829067Y-109211000D01*
X161077000Y-109211000D01*
X161802000Y-109211000D01*
X161802000Y-108511000D01*
X161801999Y-108510999D01*
X161753693Y-108511000D01*
X161753675Y-108511001D01*
X161654392Y-108521144D01*
X161493518Y-108574452D01*
X161493507Y-108574457D01*
X161349271Y-108663424D01*
X161349267Y-108663427D01*
X161229427Y-108783267D01*
X161229424Y-108783271D01*
X161140457Y-108927507D01*
X161140452Y-108927518D01*
X161087144Y-109088393D01*
X161077000Y-109187677D01*
X161077000Y-109211000D01*
X159829067Y-109211000D01*
X159810029Y-108993400D01*
X159810027Y-108993389D01*
X159751157Y-108773682D01*
X159751153Y-108773673D01*
X159655021Y-108567516D01*
X159655019Y-108567512D01*
X159603914Y-108494526D01*
X159603913Y-108494526D01*
X158922841Y-109175598D01*
X158910053Y-109094852D01*
X158852529Y-108981955D01*
X158762933Y-108892359D01*
X158650036Y-108834835D01*
X158569288Y-108822046D01*
X159191334Y-108200000D01*
X165294001Y-108200000D01*
X165294001Y-108373322D01*
X165304144Y-108472607D01*
X165357452Y-108633481D01*
X165357457Y-108633492D01*
X165446424Y-108777728D01*
X165446427Y-108777732D01*
X165566267Y-108897572D01*
X165566271Y-108897575D01*
X165710507Y-108986542D01*
X165710518Y-108986547D01*
X165871393Y-109039855D01*
X165970683Y-109049999D01*
X165994000Y-109049998D01*
X165994000Y-108200000D01*
X166494000Y-108200000D01*
X166494000Y-109049999D01*
X166517308Y-109049999D01*
X166517322Y-109049998D01*
X166616607Y-109039855D01*
X166777481Y-108986547D01*
X166777492Y-108986542D01*
X166921728Y-108897575D01*
X166921732Y-108897572D01*
X167041572Y-108777732D01*
X167041575Y-108777728D01*
X167130542Y-108633492D01*
X167130547Y-108633481D01*
X167183855Y-108472606D01*
X167193999Y-108373322D01*
X167194000Y-108373309D01*
X167194000Y-108200000D01*
X166494000Y-108200000D01*
X165994000Y-108200000D01*
X165294001Y-108200000D01*
X159191334Y-108200000D01*
X159250360Y-108140974D01*
X159250359Y-108140973D01*
X159177371Y-108089866D01*
X159177369Y-108089865D01*
X158971214Y-107993734D01*
X158971205Y-107993730D01*
X158751498Y-107934860D01*
X158751487Y-107934858D01*
X158524890Y-107915034D01*
X158524886Y-107915034D01*
X158298288Y-107934858D01*
X158298277Y-107934860D01*
X158078570Y-107993730D01*
X158078561Y-107993734D01*
X157872404Y-108089866D01*
X157872400Y-108089869D01*
X157807623Y-108135226D01*
X157741417Y-108157553D01*
X157673649Y-108140543D01*
X157625837Y-108089594D01*
X157612500Y-108033651D01*
X157612500Y-107346849D01*
X157632185Y-107279810D01*
X157648819Y-107259168D01*
X157872479Y-107035509D01*
X158648089Y-106259900D01*
X158648089Y-106259901D01*
X158657375Y-106249561D01*
X158657376Y-106249560D01*
X158657379Y-106249557D01*
X158678374Y-106223503D01*
X158725303Y-106133789D01*
X158726631Y-106129269D01*
X158733904Y-106104496D01*
X158744988Y-106066750D01*
X158747611Y-106048501D01*
X158776635Y-105984945D01*
X158835412Y-105947169D01*
X158905282Y-105947167D01*
X158964061Y-105984940D01*
X158969613Y-105991828D01*
X158983825Y-106010813D01*
X158983830Y-106010818D01*
X158983834Y-106010823D01*
X160059099Y-107086087D01*
X160059100Y-107086088D01*
X160069443Y-107095380D01*
X160069443Y-107095379D01*
X160095497Y-107116374D01*
X160095499Y-107116375D01*
X160185207Y-107163301D01*
X160185212Y-107163304D01*
X160235317Y-107178016D01*
X160252250Y-107182988D01*
X160252254Y-107182988D01*
X160252256Y-107182989D01*
X160264069Y-107184687D01*
X160325362Y-107193500D01*
X160325363Y-107193500D01*
X165055585Y-107193500D01*
X165055588Y-107193500D01*
X165069469Y-107192756D01*
X165102737Y-107189179D01*
X165184689Y-107163517D01*
X165254544Y-107162270D01*
X165313987Y-107198988D01*
X165344143Y-107262015D01*
X165339446Y-107320855D01*
X165304144Y-107427390D01*
X165304144Y-107427391D01*
X165294000Y-107526677D01*
X165294000Y-107700000D01*
X165994000Y-107700000D01*
X165994000Y-106850000D01*
X166494000Y-106850000D01*
X166494000Y-107700000D01*
X167193999Y-107700000D01*
X167193999Y-107526692D01*
X167193998Y-107526677D01*
X167183855Y-107427392D01*
X167130547Y-107266518D01*
X167130542Y-107266507D01*
X167041575Y-107122271D01*
X167041572Y-107122267D01*
X166921732Y-107002427D01*
X166921728Y-107002424D01*
X166777492Y-106913457D01*
X166777481Y-106913452D01*
X166616606Y-106860144D01*
X166517322Y-106850000D01*
X166494000Y-106850000D01*
X165994000Y-106850000D01*
X165994000Y-106849999D01*
X165970693Y-106850000D01*
X165970674Y-106850001D01*
X165871388Y-106860144D01*
X165864771Y-106861561D01*
X165864375Y-106859711D01*
X165803828Y-106861787D01*
X165743790Y-106826049D01*
X165712605Y-106763525D01*
X165720173Y-106694067D01*
X165746985Y-106654002D01*
X165933168Y-106467819D01*
X165994491Y-106434334D01*
X166020849Y-106431500D01*
X167595585Y-106431500D01*
X167595588Y-106431500D01*
X167609468Y-106430756D01*
X167639425Y-106427535D01*
X167640942Y-106427453D01*
X167642735Y-106427179D01*
X167642737Y-106427179D01*
X167642740Y-106427179D01*
X167739365Y-106396922D01*
X167800688Y-106363436D01*
X167859816Y-106319173D01*
X167919092Y-106259895D01*
X167919091Y-106259895D01*
X167919098Y-106259889D01*
X167919098Y-106259888D01*
X167928382Y-106249554D01*
X167928381Y-106249555D01*
X167937748Y-106237928D01*
X167949375Y-106223501D01*
X167996303Y-106133788D01*
X168015988Y-106066749D01*
X168026500Y-105993637D01*
X168026500Y-104819412D01*
X168025756Y-104805531D01*
X168022179Y-104772263D01*
X167991924Y-104675639D01*
X167958439Y-104614316D01*
X167958437Y-104614312D01*
X167914183Y-104555197D01*
X167914178Y-104555192D01*
X167914175Y-104555187D01*
X167914171Y-104555183D01*
X167914165Y-104555176D01*
X167854901Y-104495913D01*
X167854900Y-104495912D01*
X167844557Y-104486620D01*
X167844557Y-104486621D01*
X167818503Y-104465626D01*
X167818501Y-104465625D01*
X167818500Y-104465624D01*
X167728792Y-104418698D01*
X167728787Y-104418695D01*
X167661755Y-104399013D01*
X167661743Y-104399010D01*
X167588639Y-104388500D01*
X167588638Y-104388500D01*
X166020850Y-104388500D01*
X165953811Y-104368815D01*
X165933169Y-104352181D01*
X165314900Y-103733912D01*
X165304557Y-103724620D01*
X165304557Y-103724621D01*
X165278503Y-103703626D01*
X165278501Y-103703625D01*
X165278500Y-103703624D01*
X165188792Y-103656698D01*
X165188787Y-103656695D01*
X165121755Y-103637013D01*
X165121743Y-103637010D01*
X165048639Y-103626500D01*
X165048638Y-103626500D01*
X162067698Y-103626500D01*
X162000659Y-103606815D01*
X161954904Y-103554011D01*
X161944960Y-103484853D01*
X161973985Y-103421297D01*
X162032763Y-103383523D01*
X162054441Y-103379211D01*
X162054737Y-103379179D01*
X162151361Y-103348924D01*
X162212684Y-103315439D01*
X162271813Y-103271175D01*
X162585090Y-102957898D01*
X162586658Y-102956151D01*
X162594380Y-102947557D01*
X162594379Y-102947557D01*
X162615374Y-102921503D01*
X162662303Y-102831789D01*
X162681988Y-102764750D01*
X162692500Y-102691638D01*
X162692500Y-102421000D01*
X163363001Y-102421000D01*
X163363001Y-102427582D01*
X163369408Y-102498102D01*
X163369409Y-102498107D01*
X163419981Y-102660396D01*
X163507927Y-102805877D01*
X163628122Y-102926072D01*
X163773604Y-103014019D01*
X163773603Y-103014019D01*
X163935894Y-103064590D01*
X163935892Y-103064590D01*
X164006418Y-103070999D01*
X164087999Y-103070998D01*
X164088000Y-103070998D01*
X164088000Y-102421000D01*
X164588000Y-102421000D01*
X164588000Y-103070999D01*
X164669581Y-103070999D01*
X164740102Y-103064591D01*
X164740107Y-103064590D01*
X164902396Y-103014018D01*
X165047877Y-102926072D01*
X165168072Y-102805877D01*
X165256019Y-102660395D01*
X165306590Y-102498106D01*
X165313000Y-102427572D01*
X165313000Y-102421000D01*
X164588000Y-102421000D01*
X164088000Y-102421000D01*
X163363001Y-102421000D01*
X162692500Y-102421000D01*
X162692500Y-100247411D01*
X162691756Y-100233530D01*
X162688179Y-100200262D01*
X162657923Y-100103637D01*
X162649626Y-100088442D01*
X162624445Y-100042326D01*
X162624441Y-100042320D01*
X162624439Y-100042316D01*
X162580176Y-99983188D01*
X162580171Y-99983183D01*
X162580166Y-99983177D01*
X162266901Y-99669913D01*
X162266900Y-99669912D01*
X162256517Y-99660585D01*
X162257193Y-99661161D01*
X162218945Y-99602690D01*
X162218381Y-99532822D01*
X162255679Y-99473741D01*
X162263324Y-99467529D01*
X162271813Y-99461175D01*
X163055819Y-98677167D01*
X163117142Y-98643683D01*
X163186833Y-98648667D01*
X163242767Y-98690538D01*
X163267184Y-98756003D01*
X163267500Y-98764849D01*
X163267500Y-98921839D01*
X163282500Y-99016552D01*
X163282502Y-99016555D01*
X163340674Y-99130723D01*
X163340676Y-99130725D01*
X163340678Y-99130728D01*
X163431271Y-99221321D01*
X163431273Y-99221322D01*
X163431277Y-99221326D01*
X163545445Y-99279498D01*
X163545446Y-99279498D01*
X163545448Y-99279499D01*
X163545447Y-99279499D01*
X163640161Y-99294500D01*
X163640166Y-99294500D01*
X163756000Y-99294500D01*
X163823039Y-99314185D01*
X163868794Y-99366989D01*
X163880000Y-99418500D01*
X163880000Y-99828583D01*
X163860315Y-99895622D01*
X163829634Y-99928353D01*
X163737989Y-99995989D01*
X163656630Y-100106228D01*
X163611380Y-100235541D01*
X163611378Y-100235553D01*
X163608500Y-100266246D01*
X163608500Y-100775742D01*
X163608501Y-100775748D01*
X163611379Y-100806451D01*
X163611379Y-100806453D01*
X163611380Y-100806455D01*
X163656630Y-100935771D01*
X163656631Y-100935773D01*
X163668664Y-100952077D01*
X163737989Y-101046010D01*
X163801396Y-101092806D01*
X163820266Y-101106733D01*
X163820268Y-101106734D01*
X163862518Y-101162381D01*
X163867977Y-101232037D01*
X163834910Y-101293587D01*
X163783527Y-101324889D01*
X163773601Y-101327982D01*
X163628122Y-101415927D01*
X163507927Y-101536122D01*
X163419980Y-101681604D01*
X163369409Y-101843893D01*
X163363000Y-101914427D01*
X163363000Y-101921000D01*
X165312999Y-101921000D01*
X165312999Y-101920999D01*
X165312998Y-101914417D01*
X165306591Y-101843897D01*
X165306590Y-101843892D01*
X165256018Y-101681603D01*
X165168072Y-101536122D01*
X165047877Y-101415927D01*
X164902396Y-101327981D01*
X164892474Y-101324889D01*
X164834326Y-101286151D01*
X164806353Y-101222126D01*
X164817435Y-101153141D01*
X164855729Y-101106736D01*
X164938010Y-101046010D01*
X165019369Y-100935773D01*
X165050156Y-100847789D01*
X165064619Y-100806458D01*
X165064619Y-100806455D01*
X165064621Y-100806451D01*
X165067500Y-100775749D01*
X165067499Y-100266252D01*
X165064621Y-100235549D01*
X165019369Y-100106227D01*
X164972200Y-100042316D01*
X164938010Y-99995989D01*
X164874340Y-99948999D01*
X164827773Y-99914631D01*
X164773449Y-99895622D01*
X164722044Y-99877634D01*
X164665269Y-99836912D01*
X164639522Y-99771959D01*
X164639000Y-99760593D01*
X164639000Y-99418500D01*
X164658685Y-99351461D01*
X164711489Y-99305706D01*
X164763000Y-99294500D01*
X164878839Y-99294500D01*
X164973552Y-99279499D01*
X164973553Y-99279498D01*
X164973555Y-99279498D01*
X165087723Y-99221326D01*
X165178326Y-99130723D01*
X165236498Y-99016555D01*
X165236498Y-99016553D01*
X165236499Y-99016552D01*
X165251500Y-98921839D01*
X165251500Y-98734555D01*
X165271185Y-98667516D01*
X165287819Y-98646874D01*
X165555933Y-98378760D01*
X165839425Y-98095267D01*
X165859279Y-98079145D01*
X165868582Y-98073068D01*
X165890640Y-98044726D01*
X165895729Y-98038963D01*
X165898581Y-98036113D01*
X165912294Y-98016906D01*
X165946375Y-97973119D01*
X165946376Y-97973113D01*
X165950159Y-97966126D01*
X165953653Y-97958978D01*
X165969479Y-97905818D01*
X165975846Y-97887271D01*
X165987500Y-97853327D01*
X165987500Y-97853324D01*
X165988802Y-97845521D01*
X165989792Y-97837588D01*
X165987500Y-97782174D01*
X165987500Y-96632327D01*
X166007185Y-96565288D01*
X166059989Y-96519533D01*
X166129147Y-96509589D01*
X166141162Y-96511927D01*
X166253029Y-96539500D01*
X166253030Y-96539500D01*
X166411972Y-96539500D01*
X166492980Y-96519533D01*
X166566293Y-96501463D01*
X166707029Y-96427599D01*
X166711705Y-96423455D01*
X166774935Y-96393728D01*
X166844199Y-96402905D01*
X166893711Y-96442629D01*
X166924989Y-96485010D01*
X166958293Y-96509589D01*
X167035227Y-96566369D01*
X167073756Y-96579851D01*
X167171671Y-96614114D01*
X167170911Y-96616285D01*
X167222244Y-96644363D01*
X167255685Y-96705710D01*
X167258500Y-96731981D01*
X167258500Y-96810587D01*
X167238815Y-96877626D01*
X167222182Y-96898268D01*
X167158675Y-96961774D01*
X167158675Y-96961776D01*
X167100500Y-97075947D01*
X167085500Y-97170660D01*
X167085500Y-98409339D01*
X167100500Y-98504052D01*
X167100501Y-98504055D01*
X167103729Y-98510389D01*
X167116625Y-98579058D01*
X167090348Y-98643799D01*
X167033241Y-98684055D01*
X166973846Y-98689156D01*
X166871839Y-98673000D01*
X166871834Y-98673000D01*
X166508166Y-98673000D01*
X166508161Y-98673000D01*
X166413447Y-98688000D01*
X166339451Y-98725704D01*
X166299277Y-98746174D01*
X166299276Y-98746174D01*
X166299276Y-98746175D01*
X166299271Y-98746178D01*
X166208678Y-98836771D01*
X166208675Y-98836776D01*
X166208674Y-98836777D01*
X166199649Y-98854489D01*
X166150500Y-98950947D01*
X166135500Y-99045660D01*
X166135500Y-100284339D01*
X166150500Y-100379052D01*
X166150502Y-100379055D01*
X166208674Y-100493223D01*
X166208676Y-100493225D01*
X166208678Y-100493228D01*
X166272181Y-100556731D01*
X166305666Y-100618054D01*
X166308500Y-100644412D01*
X166308500Y-102438572D01*
X166305861Y-102464020D01*
X166303554Y-102475017D01*
X166308023Y-102510865D01*
X166308500Y-102518541D01*
X166308500Y-102522611D01*
X166311427Y-102540155D01*
X166312403Y-102546005D01*
X166319304Y-102601361D01*
X166321580Y-102609009D01*
X166324181Y-102616585D01*
X166350729Y-102665641D01*
X166375224Y-102715747D01*
X166379869Y-102722253D01*
X166384781Y-102728564D01*
X166425819Y-102766341D01*
X166632181Y-102972703D01*
X166665666Y-103034026D01*
X166668500Y-103060384D01*
X166668500Y-103453742D01*
X166668501Y-103453748D01*
X166671379Y-103484451D01*
X166671379Y-103484453D01*
X166671380Y-103484455D01*
X166710486Y-103596212D01*
X166716631Y-103613773D01*
X166729213Y-103630821D01*
X166797989Y-103724010D01*
X166853108Y-103764689D01*
X166908227Y-103805369D01*
X166947600Y-103819146D01*
X167037541Y-103850619D01*
X167037545Y-103850619D01*
X167037549Y-103850621D01*
X167068251Y-103853500D01*
X167577748Y-103853499D01*
X167608451Y-103850621D01*
X167737773Y-103805369D01*
X167848010Y-103724010D01*
X167929369Y-103613773D01*
X167960381Y-103525147D01*
X167974619Y-103484458D01*
X167974619Y-103484455D01*
X167974621Y-103484451D01*
X167977500Y-103453749D01*
X167977500Y-103453742D01*
X168318500Y-103453742D01*
X168318501Y-103453748D01*
X168321379Y-103484451D01*
X168321379Y-103484453D01*
X168321380Y-103484455D01*
X168360486Y-103596212D01*
X168366631Y-103613773D01*
X168379213Y-103630821D01*
X168447989Y-103724010D01*
X168529347Y-103784055D01*
X168558227Y-103805369D01*
X168633457Y-103831693D01*
X168690230Y-103872413D01*
X168715978Y-103937365D01*
X168716500Y-103948733D01*
X168716500Y-104359503D01*
X168696815Y-104426542D01*
X168644011Y-104472297D01*
X168635835Y-104475684D01*
X168603734Y-104487657D01*
X168603733Y-104487657D01*
X168487595Y-104574595D01*
X168401581Y-104689500D01*
X168400658Y-104690733D01*
X168349960Y-104826658D01*
X168349959Y-104826662D01*
X168343500Y-104886728D01*
X168343500Y-105933251D01*
X168343501Y-105933257D01*
X168349960Y-105993344D01*
X168400655Y-106129261D01*
X168400656Y-106129264D01*
X168400658Y-106129267D01*
X168429747Y-106168126D01*
X168487595Y-106245404D01*
X168603733Y-106332342D01*
X168603735Y-106332343D01*
X168631286Y-106342619D01*
X168687220Y-106384490D01*
X168711637Y-106449954D01*
X168711847Y-106463919D01*
X168711554Y-106471010D01*
X168716023Y-106506865D01*
X168716500Y-106514541D01*
X168716500Y-106518611D01*
X168719196Y-106534771D01*
X168720403Y-106542005D01*
X168727304Y-106597361D01*
X168729580Y-106605009D01*
X168732181Y-106612585D01*
X168758729Y-106661641D01*
X168783224Y-106711747D01*
X168787869Y-106718253D01*
X168792781Y-106724564D01*
X168833819Y-106762341D01*
X169062547Y-106991069D01*
X169096032Y-107052392D01*
X169091048Y-107122083D01*
X169049178Y-107178016D01*
X168976456Y-107232455D01*
X168893824Y-107342837D01*
X168893823Y-107342839D01*
X168845641Y-107472021D01*
X168845640Y-107472025D01*
X168845640Y-107472027D01*
X168839500Y-107529136D01*
X168839500Y-108370864D01*
X168845640Y-108427973D01*
X168845641Y-108427978D01*
X168893823Y-108557160D01*
X168893824Y-108557162D01*
X168906771Y-108574457D01*
X168976456Y-108667544D01*
X169086837Y-108750175D01*
X169086839Y-108750176D01*
X169216022Y-108798358D01*
X169216021Y-108798358D01*
X169216027Y-108798360D01*
X169273136Y-108804500D01*
X169273146Y-108804500D01*
X169814854Y-108804500D01*
X169814864Y-108804500D01*
X169871973Y-108798360D01*
X170001163Y-108750175D01*
X170111544Y-108667544D01*
X170194175Y-108557163D01*
X170242360Y-108427973D01*
X170248500Y-108370864D01*
X170248500Y-107529136D01*
X170242360Y-107472027D01*
X170225712Y-107427391D01*
X170194176Y-107342839D01*
X170194175Y-107342837D01*
X170177719Y-107320855D01*
X170111544Y-107232456D01*
X170001163Y-107149825D01*
X170001161Y-107149824D01*
X169993383Y-107145577D01*
X169994720Y-107143128D01*
X169950215Y-107109795D01*
X169925814Y-107044325D01*
X169925500Y-107035509D01*
X169925500Y-106985427D01*
X169928139Y-106959982D01*
X169928810Y-106956779D01*
X169930445Y-106948983D01*
X169926017Y-106913457D01*
X169925977Y-106913133D01*
X169925500Y-106905457D01*
X169925500Y-106901393D01*
X169925499Y-106901385D01*
X169921596Y-106877995D01*
X169914696Y-106822640D01*
X169914695Y-106822637D01*
X169912419Y-106814994D01*
X169909816Y-106807409D01*
X169883271Y-106758359D01*
X169863664Y-106718253D01*
X169858776Y-106708254D01*
X169858773Y-106708251D01*
X169854132Y-106701749D01*
X169849217Y-106695434D01*
X169808181Y-106657659D01*
X169630890Y-106480368D01*
X169597405Y-106419045D01*
X169600573Y-106374742D01*
X170605500Y-106374742D01*
X170605501Y-106374748D01*
X170608379Y-106405451D01*
X170608379Y-106405453D01*
X170608380Y-106405455D01*
X170653630Y-106534771D01*
X170653631Y-106534773D01*
X170667452Y-106553500D01*
X170734989Y-106645010D01*
X170757524Y-106661641D01*
X170845227Y-106726369D01*
X170884600Y-106740146D01*
X170974541Y-106771619D01*
X170974545Y-106771619D01*
X170974549Y-106771621D01*
X171005251Y-106774500D01*
X171514748Y-106774499D01*
X171545451Y-106771621D01*
X171674773Y-106726369D01*
X171785010Y-106645010D01*
X171866369Y-106534773D01*
X171896931Y-106447433D01*
X171911619Y-106405458D01*
X171911619Y-106405455D01*
X171911621Y-106405451D01*
X171914500Y-106374749D01*
X171914499Y-105978554D01*
X171934183Y-105911516D01*
X171950813Y-105890879D01*
X172043821Y-105797871D01*
X172105142Y-105764388D01*
X172174834Y-105769372D01*
X172230767Y-105811244D01*
X172255184Y-105876708D01*
X172255500Y-105885554D01*
X172255500Y-106374742D01*
X172255501Y-106374748D01*
X172258379Y-106405451D01*
X172258379Y-106405453D01*
X172258380Y-106405455D01*
X172303630Y-106534771D01*
X172303631Y-106534773D01*
X172317452Y-106553500D01*
X172384989Y-106645010D01*
X172407524Y-106661641D01*
X172495227Y-106726369D01*
X172534600Y-106740146D01*
X172624541Y-106771619D01*
X172624545Y-106771619D01*
X172624549Y-106771621D01*
X172655251Y-106774500D01*
X173164748Y-106774499D01*
X173195451Y-106771621D01*
X173324773Y-106726369D01*
X173435010Y-106645010D01*
X173465375Y-106603866D01*
X173521024Y-106561616D01*
X173565146Y-106553500D01*
X173656954Y-106553500D01*
X173723993Y-106573185D01*
X173739176Y-106584680D01*
X173742471Y-106587599D01*
X173883207Y-106661463D01*
X173960368Y-106680481D01*
X174037528Y-106699500D01*
X174037529Y-106699500D01*
X174196472Y-106699500D01*
X174247911Y-106686821D01*
X174350793Y-106661463D01*
X174491529Y-106587599D01*
X174610498Y-106482201D01*
X174700787Y-106351395D01*
X174757149Y-106202782D01*
X174776307Y-106045000D01*
X174770070Y-105993637D01*
X174757149Y-105887218D01*
X174753163Y-105876708D01*
X174700787Y-105738605D01*
X174610498Y-105607799D01*
X174610495Y-105607796D01*
X174610493Y-105607794D01*
X174491530Y-105502401D01*
X174350791Y-105428536D01*
X174196472Y-105390500D01*
X174196471Y-105390500D01*
X174037529Y-105390500D01*
X174037528Y-105390500D01*
X173883208Y-105428536D01*
X173742472Y-105502400D01*
X173739180Y-105505317D01*
X173675946Y-105535037D01*
X173656954Y-105536500D01*
X173565146Y-105536500D01*
X173498107Y-105516815D01*
X173465376Y-105486134D01*
X173435010Y-105444989D01*
X173360326Y-105389870D01*
X173324773Y-105363631D01*
X173324771Y-105363630D01*
X173195458Y-105318380D01*
X173195446Y-105318378D01*
X173164753Y-105315500D01*
X172655257Y-105315500D01*
X172636609Y-105317248D01*
X172624549Y-105318379D01*
X172624547Y-105318379D01*
X172624542Y-105318380D01*
X172617171Y-105319990D01*
X172616589Y-105317325D01*
X172559639Y-105320215D01*
X172499022Y-105285467D01*
X172466814Y-105223464D01*
X172464500Y-105199620D01*
X172464500Y-104813499D01*
X172484185Y-104746460D01*
X172536989Y-104700705D01*
X172588500Y-104689499D01*
X172910064Y-104689499D01*
X172910066Y-104689499D01*
X172984301Y-104674734D01*
X173068484Y-104618484D01*
X173124734Y-104534301D01*
X173139500Y-104460067D01*
X173139499Y-102909934D01*
X173124734Y-102835699D01*
X173078390Y-102766341D01*
X173068484Y-102751515D01*
X173010045Y-102712468D01*
X172984301Y-102695266D01*
X172984299Y-102695265D01*
X172984296Y-102695264D01*
X172910069Y-102680500D01*
X171259936Y-102680500D01*
X171185698Y-102695266D01*
X171101515Y-102751515D01*
X171045266Y-102835699D01*
X171045264Y-102835703D01*
X171030500Y-102909928D01*
X171030500Y-104460063D01*
X171045266Y-104534301D01*
X171101515Y-104618484D01*
X171135234Y-104641014D01*
X171185699Y-104674734D01*
X171185702Y-104674734D01*
X171185703Y-104674735D01*
X171210666Y-104679700D01*
X171259933Y-104689500D01*
X171581500Y-104689499D01*
X171648539Y-104709183D01*
X171694294Y-104761987D01*
X171705500Y-104813499D01*
X171705500Y-105011443D01*
X171685815Y-105078482D01*
X171669181Y-105099124D01*
X171489123Y-105279181D01*
X171427800Y-105312666D01*
X171401442Y-105315500D01*
X171005257Y-105315500D01*
X170989900Y-105316940D01*
X170974549Y-105318379D01*
X170974546Y-105318379D01*
X170974544Y-105318380D01*
X170845228Y-105363630D01*
X170734989Y-105444989D01*
X170653630Y-105555228D01*
X170608380Y-105684541D01*
X170608378Y-105684553D01*
X170605500Y-105715246D01*
X170605500Y-106374742D01*
X169600573Y-106374742D01*
X169602389Y-106349354D01*
X169644258Y-106293422D01*
X169708404Y-106245404D01*
X169795342Y-106129267D01*
X169846040Y-105993342D01*
X169850519Y-105951684D01*
X169852499Y-105933271D01*
X169852499Y-105933264D01*
X169852500Y-105933255D01*
X169852499Y-104886746D01*
X169846040Y-104826658D01*
X169845929Y-104826361D01*
X169795344Y-104690738D01*
X169795343Y-104690737D01*
X169795342Y-104690733D01*
X169738135Y-104614312D01*
X169708404Y-104574595D01*
X169592266Y-104487657D01*
X169560165Y-104475684D01*
X169504232Y-104433812D01*
X169479816Y-104368348D01*
X169479500Y-104359503D01*
X169479500Y-103789894D01*
X169499185Y-103722855D01*
X169503730Y-103716260D01*
X169544455Y-103661079D01*
X169579369Y-103613773D01*
X169610381Y-103525147D01*
X169624619Y-103484458D01*
X169624619Y-103484455D01*
X169624621Y-103484451D01*
X169627500Y-103453749D01*
X169627499Y-102794252D01*
X169624621Y-102763549D01*
X169579369Y-102634227D01*
X169514258Y-102546005D01*
X169498010Y-102523989D01*
X169389835Y-102444153D01*
X169387773Y-102442631D01*
X169387771Y-102442630D01*
X169258458Y-102397380D01*
X169258446Y-102397378D01*
X169227753Y-102394500D01*
X168718257Y-102394500D01*
X168702900Y-102395940D01*
X168687549Y-102397379D01*
X168687546Y-102397379D01*
X168687544Y-102397380D01*
X168558228Y-102442630D01*
X168447989Y-102523989D01*
X168366630Y-102634228D01*
X168321380Y-102763541D01*
X168321378Y-102763553D01*
X168318500Y-102794246D01*
X168318500Y-103453742D01*
X167977500Y-103453742D01*
X167977499Y-102794252D01*
X167974621Y-102763549D01*
X167929369Y-102634227D01*
X167864258Y-102546005D01*
X167848010Y-102523989D01*
X167739835Y-102444153D01*
X167737773Y-102442631D01*
X167737771Y-102442630D01*
X167608458Y-102397380D01*
X167608446Y-102397378D01*
X167577753Y-102394500D01*
X167577749Y-102394500D01*
X167195500Y-102394500D01*
X167128461Y-102374815D01*
X167082706Y-102322011D01*
X167071500Y-102270500D01*
X167071500Y-102165000D01*
X174035001Y-102165000D01*
X174035001Y-102214986D01*
X174045494Y-102317697D01*
X174100641Y-102484119D01*
X174100643Y-102484124D01*
X174192684Y-102633345D01*
X174316654Y-102757315D01*
X174465875Y-102849356D01*
X174465880Y-102849358D01*
X174632302Y-102904505D01*
X174632309Y-102904506D01*
X174735019Y-102914999D01*
X175009999Y-102914999D01*
X175009999Y-102914998D01*
X175010000Y-102165000D01*
X174035001Y-102165000D01*
X167071500Y-102165000D01*
X167071500Y-100644412D01*
X167091185Y-100577373D01*
X167107819Y-100556731D01*
X167171321Y-100493228D01*
X167171326Y-100493223D01*
X167229498Y-100379055D01*
X167229498Y-100379053D01*
X167229499Y-100379052D01*
X167244500Y-100284339D01*
X167244500Y-99915000D01*
X167790000Y-99915000D01*
X167790000Y-100318144D01*
X167792899Y-100354989D01*
X167792900Y-100354995D01*
X167838716Y-100512693D01*
X167838717Y-100512696D01*
X167922314Y-100654052D01*
X167922321Y-100654061D01*
X168038438Y-100770178D01*
X168038447Y-100770185D01*
X168179801Y-100853781D01*
X168337514Y-100899600D01*
X168337511Y-100899600D01*
X168339998Y-100899795D01*
X168340000Y-100899794D01*
X168340000Y-99915000D01*
X168840000Y-99915000D01*
X168840000Y-100899795D01*
X168840001Y-100899795D01*
X168842486Y-100899600D01*
X169000198Y-100853781D01*
X169141552Y-100770185D01*
X169141561Y-100770178D01*
X169257678Y-100654061D01*
X169257685Y-100654052D01*
X169341282Y-100512696D01*
X169341283Y-100512693D01*
X169387099Y-100354995D01*
X169387100Y-100354989D01*
X169390000Y-100318144D01*
X169390000Y-99915000D01*
X168840000Y-99915000D01*
X168340000Y-99915000D01*
X167790000Y-99915000D01*
X167244500Y-99915000D01*
X167244500Y-99045660D01*
X167229499Y-98950948D01*
X167229498Y-98950946D01*
X167229498Y-98950945D01*
X167226270Y-98944610D01*
X167213374Y-98875944D01*
X167239649Y-98811203D01*
X167296755Y-98770945D01*
X167356154Y-98765843D01*
X167363444Y-98766997D01*
X167363445Y-98766998D01*
X167384571Y-98770344D01*
X167458162Y-98782000D01*
X167683822Y-98782000D01*
X167750861Y-98801685D01*
X167796616Y-98854489D01*
X167806560Y-98923647D01*
X167802898Y-98940596D01*
X167792900Y-98975007D01*
X167792899Y-98975010D01*
X167790000Y-99011856D01*
X167790000Y-99415000D01*
X168340000Y-99415000D01*
X168340000Y-98430203D01*
X168840000Y-98430203D01*
X168840000Y-99415000D01*
X169390000Y-99415000D01*
X169390000Y-99011856D01*
X169387100Y-98975010D01*
X169387099Y-98975004D01*
X169341283Y-98817306D01*
X169341282Y-98817303D01*
X169339920Y-98815000D01*
X169840001Y-98815000D01*
X169840001Y-98838322D01*
X169850144Y-98937607D01*
X169903452Y-99098481D01*
X169903457Y-99098492D01*
X169992424Y-99242728D01*
X169992427Y-99242732D01*
X170112267Y-99362572D01*
X170112271Y-99362575D01*
X170256507Y-99451542D01*
X170263059Y-99454597D01*
X170261470Y-99458003D01*
X170305188Y-99486711D01*
X170333586Y-99550550D01*
X170322962Y-99619607D01*
X170307891Y-99641087D01*
X170308301Y-99641361D01*
X170245266Y-99735699D01*
X170245264Y-99735703D01*
X170230500Y-99809928D01*
X170230500Y-101060063D01*
X170245266Y-101134301D01*
X170301515Y-101218484D01*
X170321799Y-101232037D01*
X170385699Y-101274734D01*
X170385702Y-101274734D01*
X170385703Y-101274735D01*
X170410666Y-101279700D01*
X170459933Y-101289500D01*
X171710066Y-101289499D01*
X171784301Y-101274734D01*
X171868484Y-101218484D01*
X171924734Y-101134301D01*
X171939500Y-101060067D01*
X171939499Y-99809934D01*
X171924734Y-99735699D01*
X171906068Y-99707764D01*
X171868484Y-99651515D01*
X171803399Y-99608027D01*
X171784301Y-99595266D01*
X171784299Y-99595265D01*
X171784296Y-99595264D01*
X171710071Y-99580500D01*
X171598865Y-99580500D01*
X171531826Y-99560815D01*
X171486071Y-99508011D01*
X171476127Y-99438853D01*
X171505152Y-99375297D01*
X171512867Y-99367922D01*
X171512625Y-99367680D01*
X171637572Y-99242732D01*
X171637575Y-99242728D01*
X171726542Y-99098492D01*
X171726547Y-99098481D01*
X171779855Y-98937606D01*
X171789999Y-98838322D01*
X171790000Y-98838309D01*
X171790000Y-98815000D01*
X169840001Y-98815000D01*
X169339920Y-98815000D01*
X169257685Y-98675947D01*
X169257678Y-98675938D01*
X169141561Y-98559821D01*
X169141552Y-98559814D01*
X169000196Y-98476217D01*
X169000193Y-98476216D01*
X168842494Y-98430400D01*
X168842497Y-98430400D01*
X168840000Y-98430203D01*
X168340000Y-98430203D01*
X168331205Y-98430899D01*
X168331037Y-98428775D01*
X168271295Y-98422484D01*
X168216797Y-98378760D01*
X168195422Y-98315000D01*
X169840000Y-98315000D01*
X171789999Y-98315000D01*
X171789999Y-98291692D01*
X171789998Y-98291677D01*
X171779855Y-98192392D01*
X171726547Y-98031518D01*
X171726542Y-98031507D01*
X171637575Y-97887271D01*
X171637572Y-97887267D01*
X171517733Y-97767428D01*
X171463147Y-97733758D01*
X171416424Y-97681809D01*
X171405203Y-97612846D01*
X171428980Y-97553909D01*
X171454972Y-97519187D01*
X171510906Y-97477317D01*
X171554238Y-97469500D01*
X172676500Y-97469500D01*
X172743539Y-97489185D01*
X172789294Y-97541989D01*
X172800500Y-97593500D01*
X172800500Y-97946839D01*
X172815500Y-98041552D01*
X172829853Y-98069720D01*
X172873674Y-98155723D01*
X172873676Y-98155725D01*
X172873678Y-98155728D01*
X172964271Y-98246321D01*
X172964273Y-98246322D01*
X172964277Y-98246326D01*
X173078445Y-98304498D01*
X173078446Y-98304498D01*
X173078448Y-98304499D01*
X173078447Y-98304499D01*
X173173161Y-98319500D01*
X173173166Y-98319500D01*
X173536839Y-98319500D01*
X173631552Y-98304499D01*
X173631553Y-98304498D01*
X173631555Y-98304498D01*
X173745723Y-98246326D01*
X173836326Y-98155723D01*
X173879516Y-98070957D01*
X173927490Y-98020163D01*
X173995311Y-98003368D01*
X174061446Y-98025906D01*
X174100483Y-98070956D01*
X174143674Y-98155723D01*
X174143676Y-98155725D01*
X174143678Y-98155728D01*
X174209181Y-98221231D01*
X174242666Y-98282554D01*
X174245500Y-98308912D01*
X174245500Y-98499779D01*
X174242861Y-98525227D01*
X174240580Y-98536100D01*
X174245023Y-98571739D01*
X174245500Y-98579416D01*
X174245500Y-98583443D01*
X174248194Y-98599590D01*
X174249383Y-98606716D01*
X174256248Y-98661787D01*
X174258505Y-98669367D01*
X174261099Y-98676923D01*
X174261100Y-98676927D01*
X174261101Y-98676930D01*
X174261102Y-98676931D01*
X174287496Y-98725704D01*
X174311875Y-98775570D01*
X174316472Y-98782008D01*
X174321382Y-98788317D01*
X174362186Y-98825881D01*
X174590181Y-99053875D01*
X174623666Y-99115198D01*
X174626500Y-99141556D01*
X174626500Y-99199574D01*
X174606815Y-99266613D01*
X174554011Y-99312368D01*
X174545844Y-99315751D01*
X174543994Y-99316441D01*
X174540734Y-99317657D01*
X174540730Y-99317660D01*
X174424594Y-99404596D01*
X174423010Y-99406181D01*
X174421042Y-99407255D01*
X174417495Y-99409911D01*
X174417113Y-99409400D01*
X174361687Y-99439666D01*
X174335329Y-99442500D01*
X173750220Y-99442500D01*
X173724775Y-99439861D01*
X173713901Y-99437581D01*
X173713897Y-99437581D01*
X173678260Y-99442023D01*
X173670584Y-99442500D01*
X173666557Y-99442500D01*
X173649102Y-99445412D01*
X173643283Y-99446383D01*
X173588217Y-99453247D01*
X173580601Y-99455514D01*
X173573077Y-99458097D01*
X173524295Y-99484496D01*
X173474432Y-99508873D01*
X173467976Y-99513482D01*
X173461684Y-99518380D01*
X173441333Y-99540486D01*
X173381444Y-99576475D01*
X173350106Y-99580500D01*
X172459936Y-99580500D01*
X172385698Y-99595266D01*
X172301515Y-99651515D01*
X172245266Y-99735699D01*
X172245264Y-99735703D01*
X172230500Y-99809928D01*
X172230500Y-101060063D01*
X172245266Y-101134301D01*
X172301515Y-101218484D01*
X172321799Y-101232037D01*
X172385699Y-101274734D01*
X172385702Y-101274734D01*
X172385703Y-101274735D01*
X172410666Y-101279700D01*
X172459933Y-101289500D01*
X173710066Y-101289499D01*
X173784301Y-101274734D01*
X173868484Y-101218484D01*
X173924734Y-101134301D01*
X173939500Y-101060067D01*
X173939499Y-100325499D01*
X173959183Y-100258461D01*
X174011987Y-100212706D01*
X174063499Y-100201500D01*
X174157103Y-100201500D01*
X174224142Y-100221185D01*
X174269897Y-100273989D01*
X174280393Y-100312248D01*
X174286960Y-100373344D01*
X174337655Y-100509261D01*
X174337656Y-100509264D01*
X174337658Y-100509267D01*
X174340223Y-100512693D01*
X174424595Y-100625404D01*
X174463807Y-100654757D01*
X174540733Y-100712342D01*
X174540736Y-100712343D01*
X174556412Y-100718190D01*
X174612345Y-100760062D01*
X174636761Y-100825526D01*
X174621909Y-100893799D01*
X174572503Y-100943204D01*
X174552082Y-100952077D01*
X174465878Y-100980642D01*
X174465875Y-100980643D01*
X174316654Y-101072684D01*
X174192684Y-101196654D01*
X174100643Y-101345875D01*
X174100641Y-101345880D01*
X174045494Y-101512302D01*
X174045493Y-101512309D01*
X174035000Y-101615013D01*
X174035000Y-101665000D01*
X175386000Y-101665000D01*
X175453039Y-101684685D01*
X175498794Y-101737489D01*
X175510000Y-101789000D01*
X175510000Y-102914999D01*
X175784972Y-102914999D01*
X175784986Y-102914998D01*
X175887697Y-102904505D01*
X176054119Y-102849358D01*
X176054124Y-102849356D01*
X176203345Y-102757315D01*
X176327315Y-102633345D01*
X176419356Y-102484124D01*
X176419359Y-102484117D01*
X176432602Y-102444153D01*
X176472374Y-102386708D01*
X176536890Y-102359884D01*
X176602705Y-102370770D01*
X176606513Y-102372545D01*
X176767393Y-102425855D01*
X176866683Y-102435999D01*
X176914999Y-102435998D01*
X176915000Y-102435998D01*
X176915000Y-101360000D01*
X176934685Y-101292961D01*
X176987489Y-101247206D01*
X177039000Y-101236000D01*
X177291000Y-101236000D01*
X177358039Y-101255685D01*
X177403794Y-101308489D01*
X177415000Y-101360000D01*
X177415000Y-102435999D01*
X177463308Y-102435999D01*
X177463322Y-102435998D01*
X177562607Y-102425855D01*
X177723481Y-102372547D01*
X177723492Y-102372542D01*
X177867728Y-102283575D01*
X177867732Y-102283572D01*
X177987572Y-102163732D01*
X177987575Y-102163728D01*
X178076542Y-102019492D01*
X178076547Y-102019481D01*
X178129855Y-101858606D01*
X178139999Y-101759322D01*
X178139999Y-101616501D01*
X178159683Y-101549461D01*
X178212487Y-101503706D01*
X178263999Y-101492500D01*
X178387472Y-101492500D01*
X178438911Y-101479821D01*
X178541793Y-101454463D01*
X178682529Y-101380599D01*
X178801498Y-101275201D01*
X178891787Y-101144395D01*
X178948149Y-100995782D01*
X178967307Y-100838000D01*
X178965792Y-100825526D01*
X178948149Y-100680218D01*
X178930757Y-100634360D01*
X178891787Y-100531605D01*
X178872418Y-100503544D01*
X178845081Y-100463939D01*
X178823198Y-100397584D01*
X178840664Y-100329933D01*
X178845070Y-100323074D01*
X178891787Y-100255395D01*
X178948149Y-100106782D01*
X178967307Y-99949000D01*
X178948149Y-99791218D01*
X178891787Y-99642605D01*
X178801498Y-99511799D01*
X178801495Y-99511796D01*
X178801493Y-99511794D01*
X178682530Y-99406401D01*
X178541791Y-99332536D01*
X178387472Y-99294500D01*
X178387471Y-99294500D01*
X178228529Y-99294500D01*
X178228528Y-99294500D01*
X178074208Y-99332536D01*
X177926829Y-99409887D01*
X177926050Y-99408402D01*
X177868352Y-99427433D01*
X177864264Y-99427500D01*
X177863814Y-99427500D01*
X177796775Y-99407815D01*
X177764549Y-99377813D01*
X177757545Y-99368458D01*
X177757544Y-99368456D01*
X177757542Y-99368454D01*
X177757540Y-99368452D01*
X177723188Y-99342736D01*
X177681317Y-99286801D01*
X177673500Y-99243470D01*
X177673500Y-98132160D01*
X177687015Y-98075866D01*
X177704498Y-98041555D01*
X177704499Y-98041551D01*
X177719500Y-97946839D01*
X177719500Y-96233160D01*
X177704499Y-96138447D01*
X177704498Y-96138445D01*
X177646326Y-96024277D01*
X177646322Y-96024273D01*
X177646321Y-96024271D01*
X177555728Y-95933678D01*
X177555725Y-95933676D01*
X177555723Y-95933674D01*
X177441555Y-95875502D01*
X177441554Y-95875501D01*
X177441551Y-95875500D01*
X177441552Y-95875500D01*
X177346839Y-95860500D01*
X177346834Y-95860500D01*
X176983166Y-95860500D01*
X176983161Y-95860500D01*
X176888447Y-95875500D01*
X176831512Y-95904511D01*
X176774277Y-95933674D01*
X176774275Y-95933675D01*
X176774276Y-95933675D01*
X176774271Y-95933678D01*
X176683678Y-96024271D01*
X176683673Y-96024278D01*
X176640484Y-96109041D01*
X176592510Y-96159836D01*
X176524689Y-96176631D01*
X176458554Y-96154093D01*
X176419516Y-96109041D01*
X176377125Y-96025846D01*
X176376326Y-96024277D01*
X176376323Y-96024274D01*
X176376321Y-96024271D01*
X176285728Y-95933678D01*
X176285725Y-95933676D01*
X176285723Y-95933674D01*
X176171555Y-95875502D01*
X176171554Y-95875501D01*
X176171551Y-95875500D01*
X176171552Y-95875500D01*
X176076839Y-95860500D01*
X176076834Y-95860500D01*
X175713166Y-95860500D01*
X175713161Y-95860500D01*
X175618447Y-95875500D01*
X175561512Y-95904511D01*
X175504277Y-95933674D01*
X175504275Y-95933675D01*
X175504276Y-95933675D01*
X175504271Y-95933678D01*
X175413678Y-96024271D01*
X175413673Y-96024278D01*
X175370484Y-96109041D01*
X175322510Y-96159836D01*
X175254689Y-96176631D01*
X175188554Y-96154093D01*
X175149516Y-96109041D01*
X175107125Y-96025846D01*
X175106326Y-96024277D01*
X175106323Y-96024274D01*
X175106321Y-96024271D01*
X175015728Y-95933678D01*
X175015725Y-95933676D01*
X175015723Y-95933674D01*
X174901555Y-95875502D01*
X174901554Y-95875501D01*
X174901551Y-95875500D01*
X174901552Y-95875500D01*
X174806839Y-95860500D01*
X174806834Y-95860500D01*
X174443166Y-95860500D01*
X174443161Y-95860500D01*
X174348447Y-95875500D01*
X174291512Y-95904511D01*
X174234277Y-95933674D01*
X174234276Y-95933675D01*
X174234271Y-95933678D01*
X174143678Y-96024271D01*
X174143673Y-96024278D01*
X174100484Y-96109041D01*
X174052510Y-96159836D01*
X173984689Y-96176631D01*
X173918554Y-96154093D01*
X173879516Y-96109041D01*
X173837125Y-96025846D01*
X173836326Y-96024277D01*
X173836323Y-96024274D01*
X173836321Y-96024271D01*
X173745728Y-95933678D01*
X173745725Y-95933676D01*
X173745723Y-95933674D01*
X173631555Y-95875502D01*
X173631554Y-95875501D01*
X173631551Y-95875500D01*
X173631552Y-95875500D01*
X173536839Y-95860500D01*
X173536834Y-95860500D01*
X173173166Y-95860500D01*
X173173161Y-95860500D01*
X173078447Y-95875500D01*
X173021512Y-95904511D01*
X172964277Y-95933674D01*
X172964276Y-95933675D01*
X172964271Y-95933678D01*
X172873678Y-96024271D01*
X172873675Y-96024276D01*
X172873674Y-96024277D01*
X172872875Y-96025846D01*
X172815500Y-96138447D01*
X172800500Y-96233160D01*
X172800500Y-96586500D01*
X172780815Y-96653539D01*
X172728011Y-96699294D01*
X172676500Y-96710500D01*
X171633210Y-96710500D01*
X171566171Y-96690815D01*
X171520416Y-96638011D01*
X171517028Y-96629833D01*
X171490176Y-96557839D01*
X171490175Y-96557837D01*
X171469559Y-96530298D01*
X171407544Y-96447456D01*
X171297163Y-96364825D01*
X171297162Y-96364824D01*
X171297160Y-96364823D01*
X171167977Y-96316641D01*
X171167978Y-96316641D01*
X171167974Y-96316640D01*
X171167973Y-96316640D01*
X171110864Y-96310500D01*
X170519136Y-96310500D01*
X170462027Y-96316640D01*
X170462025Y-96316640D01*
X170462021Y-96316641D01*
X170332839Y-96364823D01*
X170332837Y-96364824D01*
X170222456Y-96447456D01*
X170139824Y-96557837D01*
X170139823Y-96557839D01*
X170091641Y-96687021D01*
X170091640Y-96687025D01*
X170091640Y-96687027D01*
X170085500Y-96744136D01*
X170085500Y-97285864D01*
X170091640Y-97342973D01*
X170091641Y-97342978D01*
X170139823Y-97472160D01*
X170139824Y-97472161D01*
X170139825Y-97472163D01*
X170152568Y-97489185D01*
X170201020Y-97553909D01*
X170225437Y-97619373D01*
X170210586Y-97687646D01*
X170166852Y-97733757D01*
X170112271Y-97767424D01*
X170112267Y-97767427D01*
X169992427Y-97887267D01*
X169992424Y-97887271D01*
X169903457Y-98031507D01*
X169903452Y-98031518D01*
X169850144Y-98192393D01*
X169840000Y-98291677D01*
X169840000Y-98315000D01*
X168195422Y-98315000D01*
X168194589Y-98312514D01*
X168194500Y-98307820D01*
X168194500Y-97170660D01*
X168179499Y-97075947D01*
X168179498Y-97075945D01*
X168121326Y-96961777D01*
X168121322Y-96961773D01*
X168121321Y-96961771D01*
X168057819Y-96898269D01*
X168024334Y-96836946D01*
X168021500Y-96810588D01*
X168021500Y-96462822D01*
X168041185Y-96395783D01*
X168045723Y-96389196D01*
X168056369Y-96374773D01*
X168101621Y-96245451D01*
X168104500Y-96214749D01*
X168104499Y-95555252D01*
X168101621Y-95524549D01*
X168056369Y-95395227D01*
X168056368Y-95395225D01*
X168000210Y-95319133D01*
X167976239Y-95253504D01*
X167991555Y-95185334D01*
X168041295Y-95136266D01*
X168099980Y-95121500D01*
X168450020Y-95121500D01*
X168517059Y-95141185D01*
X168562814Y-95193989D01*
X168572758Y-95263147D01*
X168549790Y-95319133D01*
X168493631Y-95395225D01*
X168493631Y-95395226D01*
X168448380Y-95524541D01*
X168448378Y-95524553D01*
X168445500Y-95555246D01*
X168445500Y-96214742D01*
X168445501Y-96214748D01*
X168448379Y-96245451D01*
X168448379Y-96245453D01*
X168448380Y-96245455D01*
X168490150Y-96364825D01*
X168493631Y-96374773D01*
X168558937Y-96463259D01*
X168580470Y-96492435D01*
X168604441Y-96558064D01*
X168604700Y-96566069D01*
X168604700Y-96675493D01*
X168585015Y-96742532D01*
X168582750Y-96745933D01*
X168529414Y-96823202D01*
X168473050Y-96971818D01*
X168453893Y-97129599D01*
X168453893Y-97129600D01*
X168473050Y-97287381D01*
X168529414Y-97435997D01*
X168566127Y-97489185D01*
X168619702Y-97566801D01*
X168619704Y-97566803D01*
X168619706Y-97566805D01*
X168738669Y-97672198D01*
X168738671Y-97672199D01*
X168879407Y-97746063D01*
X168944841Y-97762191D01*
X169033728Y-97784100D01*
X169033729Y-97784100D01*
X169192672Y-97784100D01*
X169260328Y-97767424D01*
X169346993Y-97746063D01*
X169487729Y-97672199D01*
X169606698Y-97566801D01*
X169696987Y-97435995D01*
X169753349Y-97287382D01*
X169772507Y-97129600D01*
X169753349Y-96971818D01*
X169696987Y-96823205D01*
X169643650Y-96745933D01*
X169621767Y-96679579D01*
X169621700Y-96675493D01*
X169621700Y-96530298D01*
X169641385Y-96463259D01*
X169645930Y-96456664D01*
X169655943Y-96443097D01*
X169706369Y-96374773D01*
X169751621Y-96245451D01*
X169754500Y-96214749D01*
X169754499Y-95555252D01*
X169751621Y-95524549D01*
X169706369Y-95395227D01*
X169706368Y-95395225D01*
X169650210Y-95319133D01*
X169626239Y-95253504D01*
X169641555Y-95185334D01*
X169691295Y-95136266D01*
X169749980Y-95121500D01*
X173683780Y-95121500D01*
X173709225Y-95124139D01*
X173713120Y-95124955D01*
X173720100Y-95126419D01*
X173738616Y-95124110D01*
X173755740Y-95121977D01*
X173763416Y-95121500D01*
X173767440Y-95121500D01*
X173767443Y-95121500D01*
X173784875Y-95118590D01*
X173790716Y-95117616D01*
X173796819Y-95116855D01*
X173845783Y-95110752D01*
X173845788Y-95110749D01*
X173853391Y-95108486D01*
X173860923Y-95105900D01*
X173860927Y-95105900D01*
X173909705Y-95079502D01*
X173959568Y-95055126D01*
X173959570Y-95055123D01*
X173966001Y-95050533D01*
X173972309Y-95045622D01*
X173972316Y-95045619D01*
X174009880Y-95004813D01*
X174856425Y-94158267D01*
X174876279Y-94142145D01*
X174885582Y-94136068D01*
X174907640Y-94107726D01*
X174912729Y-94101963D01*
X174915581Y-94099113D01*
X174929294Y-94079906D01*
X174963375Y-94036119D01*
X174963376Y-94036113D01*
X174967159Y-94029126D01*
X174970653Y-94021978D01*
X174973987Y-94010781D01*
X174986479Y-93968817D01*
X175004500Y-93916327D01*
X175004500Y-93916324D01*
X175005802Y-93908521D01*
X175006792Y-93900587D01*
X175004500Y-93845164D01*
X175004500Y-93612100D01*
X175004500Y-93358908D01*
X175024183Y-93291873D01*
X175040813Y-93271235D01*
X175106326Y-93205723D01*
X175149516Y-93120957D01*
X175197490Y-93070163D01*
X175265311Y-93053368D01*
X175331446Y-93075906D01*
X175370483Y-93120956D01*
X175413674Y-93205723D01*
X175413676Y-93205725D01*
X175413678Y-93205728D01*
X175504271Y-93296321D01*
X175504273Y-93296322D01*
X175504277Y-93296326D01*
X175618445Y-93354498D01*
X175618446Y-93354498D01*
X175618448Y-93354499D01*
X175618447Y-93354499D01*
X175713161Y-93369500D01*
X175713166Y-93369500D01*
X176076839Y-93369500D01*
X176171552Y-93354499D01*
X176171553Y-93354498D01*
X176171555Y-93354498D01*
X176285723Y-93296326D01*
X176285730Y-93296318D01*
X176293622Y-93290587D01*
X176295828Y-93293623D01*
X176340786Y-93269035D01*
X176410481Y-93273971D01*
X176466444Y-93315804D01*
X176473960Y-93327062D01*
X176497314Y-93366552D01*
X176497321Y-93366561D01*
X176613438Y-93482678D01*
X176613447Y-93482685D01*
X176754801Y-93566281D01*
X176912514Y-93612100D01*
X176912511Y-93612100D01*
X176914998Y-93612295D01*
X176915000Y-93612294D01*
X176915000Y-92390000D01*
X177415000Y-92390000D01*
X177415000Y-93612295D01*
X177415001Y-93612295D01*
X177417486Y-93612100D01*
X177575198Y-93566281D01*
X177716552Y-93482685D01*
X177716561Y-93482678D01*
X177832678Y-93366561D01*
X177832685Y-93366552D01*
X177916282Y-93225196D01*
X177916283Y-93225193D01*
X177962099Y-93067495D01*
X177962100Y-93067489D01*
X177965000Y-93030644D01*
X177965000Y-92390000D01*
X177415000Y-92390000D01*
X176915000Y-92390000D01*
X176915000Y-90667703D01*
X177415000Y-90667703D01*
X177415000Y-91890000D01*
X177965000Y-91890000D01*
X177965000Y-91249356D01*
X177962100Y-91212510D01*
X177962099Y-91212504D01*
X177916283Y-91054806D01*
X177916282Y-91054803D01*
X177832685Y-90913447D01*
X177832678Y-90913438D01*
X177716561Y-90797321D01*
X177716552Y-90797314D01*
X177575196Y-90713717D01*
X177575193Y-90713716D01*
X177417494Y-90667900D01*
X177417497Y-90667900D01*
X177415000Y-90667703D01*
X176915000Y-90667703D01*
X176912503Y-90667900D01*
X176754806Y-90713716D01*
X176754803Y-90713717D01*
X176613447Y-90797314D01*
X176607278Y-90802100D01*
X176606076Y-90800550D01*
X176553858Y-90829064D01*
X176484166Y-90824080D01*
X176428233Y-90782208D01*
X176403816Y-90716744D01*
X176403500Y-90707898D01*
X176403500Y-90380144D01*
X176423185Y-90313105D01*
X176453865Y-90280376D01*
X176495010Y-90250010D01*
X176576369Y-90139773D01*
X176621621Y-90010451D01*
X176624500Y-89979749D01*
X176624499Y-89470252D01*
X176621621Y-89439549D01*
X176576369Y-89310227D01*
X176533500Y-89252142D01*
X176495010Y-89199989D01*
X176420326Y-89144870D01*
X176384773Y-89118631D01*
X176384771Y-89118630D01*
X176255458Y-89073380D01*
X176255446Y-89073378D01*
X176224753Y-89070500D01*
X175565257Y-89070500D01*
X175549900Y-89071940D01*
X175534549Y-89073379D01*
X175534546Y-89073379D01*
X175534544Y-89073380D01*
X175405228Y-89118630D01*
X175405226Y-89118631D01*
X175405227Y-89118631D01*
X175373196Y-89142270D01*
X175307569Y-89166241D01*
X175299564Y-89166500D01*
X174734502Y-89166500D01*
X174667463Y-89146815D01*
X174621708Y-89094011D01*
X174611764Y-89024853D01*
X174640789Y-88961297D01*
X174669404Y-88936962D01*
X174692731Y-88922573D01*
X174812572Y-88802732D01*
X174812575Y-88802728D01*
X174901542Y-88658492D01*
X174901547Y-88658481D01*
X174954856Y-88497606D01*
X174957386Y-88472842D01*
X174983782Y-88408150D01*
X175040963Y-88367999D01*
X175110773Y-88365135D01*
X175171050Y-88400469D01*
X175197785Y-88444489D01*
X175213630Y-88489771D01*
X175294989Y-88600010D01*
X175331401Y-88626883D01*
X175405227Y-88681369D01*
X175444600Y-88695146D01*
X175534541Y-88726619D01*
X175534545Y-88726619D01*
X175534549Y-88726621D01*
X175565251Y-88729500D01*
X176224748Y-88729499D01*
X176255451Y-88726621D01*
X176384773Y-88681369D01*
X176468019Y-88619929D01*
X176533648Y-88595959D01*
X176541653Y-88595700D01*
X176730354Y-88595700D01*
X176797393Y-88615385D01*
X176812576Y-88626880D01*
X176815871Y-88629799D01*
X176956607Y-88703663D01*
X177033767Y-88722681D01*
X177110928Y-88741700D01*
X177110929Y-88741700D01*
X177269872Y-88741700D01*
X177343480Y-88723557D01*
X177424193Y-88703663D01*
X177564929Y-88629799D01*
X177683898Y-88524401D01*
X177774187Y-88393595D01*
X177830549Y-88244982D01*
X177849707Y-88087200D01*
X177830549Y-87929418D01*
X177774187Y-87780805D01*
X177683898Y-87649999D01*
X177683895Y-87649996D01*
X177683893Y-87649994D01*
X177564930Y-87544601D01*
X177424191Y-87470736D01*
X177269872Y-87432700D01*
X177269871Y-87432700D01*
X177110929Y-87432700D01*
X177110928Y-87432700D01*
X176956608Y-87470736D01*
X176815872Y-87544600D01*
X176815870Y-87544601D01*
X176815871Y-87544601D01*
X176812700Y-87547411D01*
X176812580Y-87547517D01*
X176749346Y-87577237D01*
X176730354Y-87578700D01*
X176574715Y-87578700D01*
X176507676Y-87559015D01*
X176501082Y-87554470D01*
X176384773Y-87468631D01*
X176255458Y-87423380D01*
X176255446Y-87423378D01*
X176224753Y-87420500D01*
X175565257Y-87420500D01*
X175549900Y-87421940D01*
X175534549Y-87423379D01*
X175534546Y-87423379D01*
X175534544Y-87423380D01*
X175405228Y-87468630D01*
X175294989Y-87549989D01*
X175213631Y-87660227D01*
X175185271Y-87741273D01*
X175144549Y-87798048D01*
X175079596Y-87823795D01*
X175011034Y-87810338D01*
X174960632Y-87761950D01*
X174950524Y-87739321D01*
X174901547Y-87591518D01*
X174901542Y-87591507D01*
X174812575Y-87447271D01*
X174812572Y-87447267D01*
X174692732Y-87327427D01*
X174692728Y-87327424D01*
X174548492Y-87238457D01*
X174548481Y-87238452D01*
X174387606Y-87185144D01*
X174288322Y-87175000D01*
X174240000Y-87175000D01*
X174240000Y-88251000D01*
X174220315Y-88318039D01*
X174167511Y-88363794D01*
X174116000Y-88375000D01*
X173015001Y-88375000D01*
X173015001Y-88398322D01*
X173025144Y-88497607D01*
X173078452Y-88658481D01*
X173078457Y-88658492D01*
X173167424Y-88802728D01*
X173167427Y-88802732D01*
X173287268Y-88922573D01*
X173310596Y-88936962D01*
X173357320Y-88988910D01*
X173368541Y-89057873D01*
X173340698Y-89121955D01*
X173282629Y-89160810D01*
X173245498Y-89166500D01*
X172194502Y-89166500D01*
X172127463Y-89146815D01*
X172081708Y-89094011D01*
X172071764Y-89024853D01*
X172100789Y-88961297D01*
X172129404Y-88936962D01*
X172152731Y-88922573D01*
X172272572Y-88802732D01*
X172272575Y-88802728D01*
X172361542Y-88658492D01*
X172361547Y-88658481D01*
X172414855Y-88497606D01*
X172424999Y-88398322D01*
X172425000Y-88398309D01*
X172425000Y-88375000D01*
X170475001Y-88375000D01*
X170475001Y-88398322D01*
X170485144Y-88497607D01*
X170538452Y-88658481D01*
X170538457Y-88658492D01*
X170627424Y-88802728D01*
X170627427Y-88802732D01*
X170747267Y-88922572D01*
X170747271Y-88922575D01*
X170801851Y-88956241D01*
X170848576Y-89008189D01*
X170859797Y-89077151D01*
X170836021Y-89136088D01*
X170827992Y-89146815D01*
X170774824Y-89217837D01*
X170774823Y-89217839D01*
X170726641Y-89347021D01*
X170726640Y-89347025D01*
X170726640Y-89347027D01*
X170720500Y-89404136D01*
X170720500Y-89945864D01*
X170724144Y-89979753D01*
X170726641Y-90002978D01*
X170774823Y-90132160D01*
X170774824Y-90132162D01*
X170774825Y-90132163D01*
X170857455Y-90242543D01*
X170857457Y-90242545D01*
X170891810Y-90268261D01*
X170933682Y-90324194D01*
X170941500Y-90367528D01*
X170941500Y-90784853D01*
X170921815Y-90851892D01*
X170891135Y-90884622D01*
X170849990Y-90914988D01*
X170768630Y-91025228D01*
X170723380Y-91154541D01*
X170723378Y-91154553D01*
X170720500Y-91185246D01*
X170720500Y-91694742D01*
X170720501Y-91694748D01*
X170723379Y-91725451D01*
X170723379Y-91725453D01*
X170723380Y-91725455D01*
X170745570Y-91788869D01*
X170768631Y-91854773D01*
X170794630Y-91890000D01*
X170849989Y-91965010D01*
X170905108Y-92005689D01*
X170960227Y-92046369D01*
X170999600Y-92060146D01*
X171089541Y-92091619D01*
X171089545Y-92091619D01*
X171089549Y-92091621D01*
X171120251Y-92094500D01*
X171779748Y-92094499D01*
X171810451Y-92091621D01*
X171939773Y-92046369D01*
X172050010Y-91965010D01*
X172131369Y-91854773D01*
X172176621Y-91725451D01*
X172179500Y-91694749D01*
X172179499Y-91185252D01*
X172176621Y-91154549D01*
X172131369Y-91025227D01*
X172073438Y-90946733D01*
X172050009Y-90914988D01*
X172008865Y-90884622D01*
X171966615Y-90828974D01*
X171958500Y-90784853D01*
X171958500Y-90367528D01*
X171978185Y-90300489D01*
X172008190Y-90268261D01*
X172010044Y-90266873D01*
X172042544Y-90242544D01*
X172049548Y-90233187D01*
X172105484Y-90191317D01*
X172148814Y-90183500D01*
X173291186Y-90183500D01*
X173358225Y-90203185D01*
X173390451Y-90233187D01*
X173397454Y-90242542D01*
X173397455Y-90242542D01*
X173397456Y-90242544D01*
X173429961Y-90266877D01*
X173507837Y-90325175D01*
X173507839Y-90325176D01*
X173588011Y-90355078D01*
X173608183Y-90362602D01*
X173637022Y-90373358D01*
X173637021Y-90373358D01*
X173637027Y-90373360D01*
X173694136Y-90379500D01*
X173694146Y-90379500D01*
X174285854Y-90379500D01*
X174285864Y-90379500D01*
X174342973Y-90373360D01*
X174472163Y-90325175D01*
X174582544Y-90242544D01*
X174589548Y-90233187D01*
X174645484Y-90191317D01*
X174688814Y-90183500D01*
X175183305Y-90183500D01*
X175250344Y-90203185D01*
X175283075Y-90233867D01*
X175294984Y-90250004D01*
X175294988Y-90250007D01*
X175294990Y-90250010D01*
X175336133Y-90280375D01*
X175378384Y-90336020D01*
X175386500Y-90380144D01*
X175386500Y-91097838D01*
X175372978Y-91154146D01*
X175370477Y-91159053D01*
X175322496Y-91209843D01*
X175254673Y-91226631D01*
X175188541Y-91204085D01*
X175149517Y-91159043D01*
X175106326Y-91074277D01*
X175106324Y-91074275D01*
X175106321Y-91074271D01*
X175015728Y-90983678D01*
X175015725Y-90983676D01*
X175015723Y-90983674D01*
X174901555Y-90925502D01*
X174901554Y-90925501D01*
X174901551Y-90925500D01*
X174901552Y-90925500D01*
X174806839Y-90910500D01*
X174806834Y-90910500D01*
X174443166Y-90910500D01*
X174443161Y-90910500D01*
X174348447Y-90925500D01*
X174272333Y-90964283D01*
X174234277Y-90983674D01*
X174234276Y-90983675D01*
X174234271Y-90983678D01*
X174143678Y-91074271D01*
X174143673Y-91074278D01*
X174100484Y-91159041D01*
X174052510Y-91209836D01*
X173984689Y-91226631D01*
X173918554Y-91204093D01*
X173879516Y-91159041D01*
X173844913Y-91091130D01*
X173836326Y-91074277D01*
X173836323Y-91074274D01*
X173836321Y-91074271D01*
X173745728Y-90983678D01*
X173745725Y-90983676D01*
X173745723Y-90983674D01*
X173631555Y-90925502D01*
X173631554Y-90925501D01*
X173631551Y-90925500D01*
X173631552Y-90925500D01*
X173536839Y-90910500D01*
X173536834Y-90910500D01*
X173173166Y-90910500D01*
X173173161Y-90910500D01*
X173078447Y-90925500D01*
X173002332Y-90964283D01*
X172964277Y-90983674D01*
X172964276Y-90983675D01*
X172964271Y-90983678D01*
X172873678Y-91074271D01*
X172873676Y-91074275D01*
X172873674Y-91074277D01*
X172865087Y-91091130D01*
X172815500Y-91188447D01*
X172800500Y-91283160D01*
X172800500Y-92996839D01*
X172815500Y-93091552D01*
X172815502Y-93091555D01*
X172873674Y-93205723D01*
X172873676Y-93205725D01*
X172873678Y-93205728D01*
X172886201Y-93218251D01*
X172919686Y-93279574D01*
X172914702Y-93349266D01*
X172880751Y-93398744D01*
X172861505Y-93415795D01*
X172861500Y-93415801D01*
X172771214Y-93546602D01*
X172714850Y-93695218D01*
X172695693Y-93852999D01*
X172695693Y-93853000D01*
X172714850Y-94010781D01*
X172741067Y-94079907D01*
X172770417Y-94157297D01*
X172771214Y-94159397D01*
X172777194Y-94168060D01*
X172799077Y-94234414D01*
X172781612Y-94302066D01*
X172730344Y-94349536D01*
X172675144Y-94362500D01*
X167758526Y-94362500D01*
X167691487Y-94342815D01*
X167645732Y-94290011D01*
X167635788Y-94220853D01*
X167664813Y-94157297D01*
X167702874Y-94127690D01*
X167872542Y-94042478D01*
X168164515Y-93850445D01*
X168307180Y-93730734D01*
X168307181Y-93730733D01*
X167060125Y-92483678D01*
X167195747Y-92385144D01*
X167351239Y-92222512D01*
X167412801Y-92129248D01*
X168663850Y-93380297D01*
X168672032Y-93371625D01*
X168880710Y-93091322D01*
X168880896Y-93091000D01*
X169393693Y-93091000D01*
X169412850Y-93248781D01*
X169469214Y-93397397D01*
X169533261Y-93490185D01*
X169559502Y-93528201D01*
X169559504Y-93528203D01*
X169559506Y-93528205D01*
X169678469Y-93633598D01*
X169678471Y-93633599D01*
X169819207Y-93707463D01*
X169835513Y-93711482D01*
X169973528Y-93745500D01*
X169973529Y-93745500D01*
X170132472Y-93745500D01*
X170183911Y-93732821D01*
X170286793Y-93707463D01*
X170427529Y-93633599D01*
X170546498Y-93528201D01*
X170549354Y-93524062D01*
X170603637Y-93480070D01*
X170651406Y-93470500D01*
X170680738Y-93470500D01*
X170747777Y-93490185D01*
X170780508Y-93520866D01*
X170849989Y-93615010D01*
X170875177Y-93633599D01*
X170960227Y-93696369D01*
X170991932Y-93707463D01*
X171089541Y-93741619D01*
X171089545Y-93741619D01*
X171089549Y-93741621D01*
X171120251Y-93744500D01*
X171779748Y-93744499D01*
X171810451Y-93741621D01*
X171939773Y-93696369D01*
X172050010Y-93615010D01*
X172131369Y-93504773D01*
X172162504Y-93415795D01*
X172176619Y-93375458D01*
X172176619Y-93375455D01*
X172176621Y-93375451D01*
X172179500Y-93344749D01*
X172179499Y-92835252D01*
X172176621Y-92804549D01*
X172131369Y-92675227D01*
X172054271Y-92570763D01*
X172050010Y-92564989D01*
X171975326Y-92509870D01*
X171939773Y-92483631D01*
X171939771Y-92483630D01*
X171810458Y-92438380D01*
X171810446Y-92438378D01*
X171779753Y-92435500D01*
X171120257Y-92435500D01*
X171104900Y-92436940D01*
X171089549Y-92438379D01*
X171089546Y-92438379D01*
X171089544Y-92438380D01*
X170960228Y-92483630D01*
X170849989Y-92564989D01*
X170779032Y-92661134D01*
X170723384Y-92703384D01*
X170679262Y-92711500D01*
X170651406Y-92711500D01*
X170584367Y-92691815D01*
X170549355Y-92657938D01*
X170546500Y-92653802D01*
X170546499Y-92653801D01*
X170546498Y-92653799D01*
X170546495Y-92653796D01*
X170546493Y-92653794D01*
X170427530Y-92548401D01*
X170286791Y-92474536D01*
X170132472Y-92436500D01*
X170132471Y-92436500D01*
X169973529Y-92436500D01*
X169973528Y-92436500D01*
X169819208Y-92474536D01*
X169678469Y-92548401D01*
X169559506Y-92653794D01*
X169559500Y-92653801D01*
X169469214Y-92784602D01*
X169412850Y-92933218D01*
X169393693Y-93090999D01*
X169393693Y-93091000D01*
X168880896Y-93091000D01*
X169055438Y-92788683D01*
X169055444Y-92788670D01*
X169193854Y-92467800D01*
X169294083Y-92133011D01*
X169294085Y-92133002D01*
X169354763Y-91788880D01*
X169354764Y-91788869D01*
X169375084Y-91440003D01*
X169375084Y-91439996D01*
X169354764Y-91091130D01*
X169354763Y-91091119D01*
X169294085Y-90746997D01*
X169294083Y-90746988D01*
X169193854Y-90412199D01*
X169055444Y-90091329D01*
X169055438Y-90091316D01*
X168880710Y-89788677D01*
X168672029Y-89508371D01*
X168663850Y-89499701D01*
X168663850Y-89499700D01*
X167416333Y-90747217D01*
X167277145Y-90572680D01*
X167107701Y-90424642D01*
X167060191Y-90396256D01*
X168307181Y-89149265D01*
X168307180Y-89149264D01*
X168164519Y-89029557D01*
X167872538Y-88837519D01*
X167560260Y-88680685D01*
X167560254Y-88680683D01*
X167231869Y-88561161D01*
X167231866Y-88561160D01*
X166891828Y-88480570D01*
X166544723Y-88440000D01*
X166195277Y-88440000D01*
X165848172Y-88480570D01*
X165848170Y-88480570D01*
X165508133Y-88561160D01*
X165508130Y-88561161D01*
X165179745Y-88680683D01*
X165179739Y-88680685D01*
X164867461Y-88837519D01*
X164575485Y-89029554D01*
X164432817Y-89149264D01*
X165679874Y-90396321D01*
X165544253Y-90494856D01*
X165388761Y-90657488D01*
X165327198Y-90750751D01*
X164076148Y-89499701D01*
X164076146Y-89499701D01*
X164067973Y-89508366D01*
X163859289Y-89788677D01*
X163684561Y-90091316D01*
X163684555Y-90091329D01*
X163546145Y-90412199D01*
X163445916Y-90746988D01*
X163445914Y-90746997D01*
X163385236Y-91091119D01*
X163385235Y-91091130D01*
X163364916Y-91439996D01*
X163364916Y-91440003D01*
X163385235Y-91788869D01*
X163385236Y-91788880D01*
X163445914Y-92133002D01*
X163445916Y-92133011D01*
X163546145Y-92467800D01*
X163684555Y-92788670D01*
X163684561Y-92788683D01*
X163859289Y-93091322D01*
X164067972Y-93371631D01*
X164067976Y-93371636D01*
X164076147Y-93380297D01*
X164076148Y-93380298D01*
X165323665Y-92132781D01*
X165462855Y-92307320D01*
X165632299Y-92455358D01*
X165679808Y-92483743D01*
X164432817Y-93730733D01*
X164432818Y-93730734D01*
X164575480Y-93850442D01*
X164867461Y-94042480D01*
X165179739Y-94199314D01*
X165179745Y-94199316D01*
X165508130Y-94318838D01*
X165508132Y-94318839D01*
X165691566Y-94362313D01*
X165752259Y-94396927D01*
X165784603Y-94458860D01*
X165778330Y-94528447D01*
X165750651Y-94570652D01*
X165376576Y-94944728D01*
X165356725Y-94960850D01*
X165347419Y-94966930D01*
X165325359Y-94995272D01*
X165320281Y-95001024D01*
X165317424Y-95003881D01*
X165317420Y-95003885D01*
X165317419Y-95003887D01*
X165303705Y-95023093D01*
X165282349Y-95050533D01*
X165269623Y-95066883D01*
X165265849Y-95073857D01*
X165262345Y-95081023D01*
X165246520Y-95134182D01*
X165228500Y-95186670D01*
X165227195Y-95194487D01*
X165227000Y-95196051D01*
X165227000Y-94742000D01*
X164465000Y-93980000D01*
X162687000Y-93980000D01*
X162057500Y-94609499D01*
X162057500Y-94532415D01*
X162057287Y-94528447D01*
X162056756Y-94518531D01*
X162053179Y-94485263D01*
X162022924Y-94388639D01*
X161989439Y-94327316D01*
X161989437Y-94327312D01*
X161945183Y-94268197D01*
X161945178Y-94268192D01*
X161945175Y-94268187D01*
X161945171Y-94268183D01*
X161945165Y-94268176D01*
X161504901Y-93827913D01*
X161504900Y-93827912D01*
X161494557Y-93818620D01*
X161494557Y-93818621D01*
X161468503Y-93797626D01*
X161468501Y-93797625D01*
X161468500Y-93797624D01*
X161378792Y-93750698D01*
X161378787Y-93750695D01*
X161311755Y-93731013D01*
X161311743Y-93731010D01*
X161238639Y-93720500D01*
X161238638Y-93720500D01*
X159048412Y-93720500D01*
X159034531Y-93721244D01*
X159021416Y-93722654D01*
X159001261Y-93724821D01*
X159001260Y-93724821D01*
X158904642Y-93755075D01*
X158904639Y-93755076D01*
X158904637Y-93755076D01*
X158904632Y-93755079D01*
X158843312Y-93788562D01*
X158784197Y-93832816D01*
X158784176Y-93832834D01*
X158713181Y-93903830D01*
X158651858Y-93937315D01*
X158582166Y-93932331D01*
X158526233Y-93890459D01*
X158501816Y-93824995D01*
X158501500Y-93816149D01*
X158501500Y-93630849D01*
X158521185Y-93563810D01*
X158537819Y-93543168D01*
X159202168Y-92878819D01*
X159263491Y-92845334D01*
X159289849Y-92842500D01*
X161880585Y-92842500D01*
X161880588Y-92842500D01*
X161894469Y-92841756D01*
X161927737Y-92838179D01*
X162024361Y-92807924D01*
X162085684Y-92774439D01*
X162144813Y-92730175D01*
X162966090Y-91908898D01*
X162967658Y-91907151D01*
X162975380Y-91898557D01*
X162975379Y-91898557D01*
X162996374Y-91872503D01*
X163043303Y-91782789D01*
X163062988Y-91715750D01*
X163073500Y-91642638D01*
X163073500Y-90355078D01*
X163070491Y-90315674D01*
X163070096Y-90313105D01*
X163064773Y-90278454D01*
X163062725Y-90266877D01*
X163062724Y-90266875D01*
X163062724Y-90266873D01*
X163023845Y-90173383D01*
X163023844Y-90173381D01*
X163023843Y-90173379D01*
X162984948Y-90115347D01*
X162984946Y-90115344D01*
X162935511Y-90060466D01*
X162332918Y-89558306D01*
X162294020Y-89500267D01*
X162292674Y-89430410D01*
X162324619Y-89375368D01*
X162966090Y-88733898D01*
X162970041Y-88729500D01*
X162975380Y-88723557D01*
X162975379Y-88723557D01*
X162996374Y-88697503D01*
X163043303Y-88607789D01*
X163062988Y-88540750D01*
X163073500Y-88467638D01*
X163073500Y-87875000D01*
X170475000Y-87875000D01*
X171199999Y-87875000D01*
X171200000Y-87175000D01*
X171700000Y-87175000D01*
X171700000Y-87875000D01*
X172424999Y-87875000D01*
X173015000Y-87875000D01*
X173740000Y-87875000D01*
X173740000Y-87175000D01*
X173739999Y-87174999D01*
X173691693Y-87175000D01*
X173691675Y-87175001D01*
X173592392Y-87185144D01*
X173431518Y-87238452D01*
X173431507Y-87238457D01*
X173287271Y-87327424D01*
X173287267Y-87327427D01*
X173167427Y-87447267D01*
X173167424Y-87447271D01*
X173078457Y-87591507D01*
X173078452Y-87591518D01*
X173025144Y-87752393D01*
X173015000Y-87851677D01*
X173015000Y-87875000D01*
X172424999Y-87875000D01*
X172424999Y-87851692D01*
X172424998Y-87851677D01*
X172414855Y-87752392D01*
X172361547Y-87591518D01*
X172361542Y-87591507D01*
X172272575Y-87447271D01*
X172272572Y-87447267D01*
X172152732Y-87327427D01*
X172152728Y-87327424D01*
X172008492Y-87238457D01*
X172008481Y-87238452D01*
X171847606Y-87185144D01*
X171748322Y-87175000D01*
X171700000Y-87175000D01*
X171200000Y-87175000D01*
X171199999Y-87174999D01*
X171151693Y-87175000D01*
X171151675Y-87175001D01*
X171052392Y-87185144D01*
X170891518Y-87238452D01*
X170891507Y-87238457D01*
X170747271Y-87327424D01*
X170747267Y-87327427D01*
X170627427Y-87447267D01*
X170627424Y-87447271D01*
X170538457Y-87591507D01*
X170538452Y-87591518D01*
X170485144Y-87752393D01*
X170475000Y-87851677D01*
X170475000Y-87875000D01*
X163073500Y-87875000D01*
X163073500Y-87547411D01*
X163072756Y-87533531D01*
X163069535Y-87503573D01*
X163069453Y-87502055D01*
X163069179Y-87500262D01*
X163069179Y-87500259D01*
X163038922Y-87403633D01*
X163005437Y-87342312D01*
X162961175Y-87283187D01*
X162901897Y-87223909D01*
X162891555Y-87214619D01*
X162891554Y-87214618D01*
X162891546Y-87214611D01*
X162891545Y-87214611D01*
X162865502Y-87193625D01*
X162865499Y-87193623D01*
X162775791Y-87146698D01*
X162775788Y-87146696D01*
X162708751Y-87127012D01*
X162708743Y-87127010D01*
X162635639Y-87116500D01*
X162635638Y-87116500D01*
X157143412Y-87116500D01*
X157129531Y-87117244D01*
X157116416Y-87118654D01*
X157096261Y-87120821D01*
X157096260Y-87120821D01*
X156999642Y-87151075D01*
X156999639Y-87151076D01*
X156999637Y-87151076D01*
X156999632Y-87151079D01*
X156938312Y-87184562D01*
X156879197Y-87228816D01*
X156879176Y-87228834D01*
X156692913Y-87415099D01*
X156692912Y-87415100D01*
X156683620Y-87425443D01*
X156683621Y-87425443D01*
X156662624Y-87451499D01*
X156615698Y-87541207D01*
X156615695Y-87541212D01*
X156596013Y-87608244D01*
X156596010Y-87608256D01*
X156585500Y-87681360D01*
X156585500Y-87681362D01*
X156585500Y-88855588D01*
X156586244Y-88869469D01*
X156586245Y-88869477D01*
X156589821Y-88902738D01*
X156589821Y-88902739D01*
X156606574Y-88956241D01*
X156620076Y-88999361D01*
X156620078Y-88999365D01*
X156620079Y-88999367D01*
X156653562Y-89060687D01*
X156697816Y-89119802D01*
X156697834Y-89119823D01*
X156768830Y-89190819D01*
X156802315Y-89252142D01*
X156797331Y-89321834D01*
X156755459Y-89377767D01*
X156689995Y-89402184D01*
X156681149Y-89402500D01*
X156254412Y-89402500D01*
X156240531Y-89403244D01*
X156232235Y-89404136D01*
X156207261Y-89406821D01*
X156207260Y-89406821D01*
X156110642Y-89437075D01*
X156110639Y-89437076D01*
X156110637Y-89437076D01*
X156110632Y-89437079D01*
X156049312Y-89470562D01*
X155990197Y-89514816D01*
X155990176Y-89514834D01*
X155041913Y-90463099D01*
X155041912Y-90463100D01*
X155032620Y-90473443D01*
X155032621Y-90473443D01*
X155011624Y-90499499D01*
X154964698Y-90589207D01*
X154964695Y-90589212D01*
X154945013Y-90656244D01*
X154945010Y-90656256D01*
X154936749Y-90713717D01*
X154934500Y-90729362D01*
X154934500Y-102698587D01*
X154935244Y-102712468D01*
X154935597Y-102715747D01*
X154938821Y-102745737D01*
X154938821Y-102745738D01*
X154954010Y-102794246D01*
X154969076Y-102842360D01*
X154969078Y-102842364D01*
X154969079Y-102842366D01*
X155002557Y-102903677D01*
X155002558Y-102903678D01*
X155002561Y-102903683D01*
X155046824Y-102962812D01*
X155360100Y-103276089D01*
X155360099Y-103276089D01*
X155366940Y-103282232D01*
X155370443Y-103285379D01*
X155385617Y-103297606D01*
X155396494Y-103306372D01*
X155396498Y-103306375D01*
X155486207Y-103353301D01*
X155486212Y-103353304D01*
X155536340Y-103368022D01*
X155553250Y-103372988D01*
X155553254Y-103372988D01*
X155553256Y-103372989D01*
X155600363Y-103379762D01*
X155663919Y-103408787D01*
X155701694Y-103467564D01*
X155701694Y-103537434D01*
X155663920Y-103596212D01*
X155600365Y-103625238D01*
X155582717Y-103626500D01*
X155365412Y-103626500D01*
X155351531Y-103627244D01*
X155338416Y-103628654D01*
X155318261Y-103630821D01*
X155318260Y-103630821D01*
X155221641Y-103661075D01*
X155221637Y-103661076D01*
X155160314Y-103694562D01*
X155101193Y-103738818D01*
X155101175Y-103738834D01*
X154279907Y-104560103D01*
X154279907Y-104560104D01*
X154270617Y-104570445D01*
X154270618Y-104570444D01*
X154249621Y-104596501D01*
X154202696Y-104686210D01*
X154183012Y-104753247D01*
X154183010Y-104753255D01*
X154172500Y-104826359D01*
X154172500Y-104826361D01*
X154172500Y-114636588D01*
X152400500Y-114636588D01*
X152400500Y-86361704D01*
X152400596Y-86358283D01*
X152406998Y-86244283D01*
X152417401Y-86072304D01*
X152418160Y-86065706D01*
X152440576Y-85933780D01*
X152441277Y-85929656D01*
X152453432Y-85863324D01*
X152468562Y-85780763D01*
X152469961Y-85774810D01*
X152509387Y-85637956D01*
X152553270Y-85497135D01*
X152555158Y-85491921D01*
X152610397Y-85358565D01*
X152670343Y-85225370D01*
X152672599Y-85220861D01*
X152742958Y-85093557D01*
X152818228Y-84969044D01*
X152820693Y-84965286D01*
X152904461Y-84847226D01*
X152906145Y-84844967D01*
X152994932Y-84731638D01*
X152997472Y-84728605D01*
X153094052Y-84620531D01*
X153096373Y-84618077D01*
X153198077Y-84516373D01*
X153200531Y-84514052D01*
X153308605Y-84417472D01*
X153311638Y-84414932D01*
X153424967Y-84326145D01*
X153427226Y-84324461D01*
X153545286Y-84240693D01*
X153549044Y-84238228D01*
X153673561Y-84162956D01*
X153800861Y-84092599D01*
X153805370Y-84090343D01*
X153938565Y-84030397D01*
X154071921Y-83975158D01*
X154077135Y-83973270D01*
X154217956Y-83929387D01*
X154354810Y-83889961D01*
X154360763Y-83888562D01*
X154443324Y-83873432D01*
X154509656Y-83861277D01*
X154557941Y-83853072D01*
X154645706Y-83838160D01*
X154652304Y-83837401D01*
X154824333Y-83826995D01*
X154910782Y-83822140D01*
X154938263Y-83820598D01*
X154941740Y-83820500D01*
X177798260Y-83820500D01*
X177801737Y-83820598D01*
G37*
%TD.AperFunction*%
%TD*%
%TA.AperFunction,Conductor*%
%TO.N,Net-(D2-A)*%
G36*
X162702677Y-87395685D02*
G01*
X162723318Y-87412318D01*
X162777681Y-87466681D01*
X162811166Y-87528002D01*
X162814000Y-87554361D01*
X162814000Y-88467638D01*
X162794315Y-88534677D01*
X162777681Y-88555319D01*
X162088319Y-89244681D01*
X162026996Y-89278166D01*
X162000638Y-89281000D01*
X157277362Y-89281000D01*
X157210323Y-89261315D01*
X157189681Y-89244681D01*
X156881319Y-88936319D01*
X156847834Y-88874996D01*
X156845000Y-88848638D01*
X156845000Y-87681362D01*
X156864685Y-87614323D01*
X156881319Y-87593681D01*
X157062681Y-87412319D01*
X157124004Y-87378834D01*
X157150362Y-87376000D01*
X162635638Y-87376000D01*
X162702677Y-87395685D01*
G37*
%TD.AperFunction*%
%TD*%
%TA.AperFunction,Conductor*%
%TO.N,+12V*%
G36*
X158130677Y-103905685D02*
G01*
X158151319Y-103922319D01*
X158459682Y-104230682D01*
X158493166Y-104292003D01*
X158496000Y-104318361D01*
X158496000Y-105993638D01*
X158476315Y-106060677D01*
X158459681Y-106081319D01*
X157353000Y-107187999D01*
X157353000Y-111760000D01*
X159094681Y-113501681D01*
X159128166Y-113563004D01*
X159131000Y-113589362D01*
X159131000Y-115772638D01*
X159111315Y-115839677D01*
X159094681Y-115860319D01*
X158913319Y-116041681D01*
X158851996Y-116075166D01*
X158825638Y-116078000D01*
X155880362Y-116078000D01*
X155813323Y-116058315D01*
X155792681Y-116041681D01*
X154468319Y-114717319D01*
X154434834Y-114655996D01*
X154432000Y-114629638D01*
X154432000Y-104826361D01*
X154451685Y-104759322D01*
X154468314Y-104738685D01*
X155284680Y-103922319D01*
X155346004Y-103888834D01*
X155372362Y-103886000D01*
X158063638Y-103886000D01*
X158130677Y-103905685D01*
G37*
%TD.AperFunction*%
%TD*%
%TA.AperFunction,Conductor*%
%TO.N,Net-(D2-A)*%
G36*
X161305677Y-93999685D02*
G01*
X161326319Y-94016319D01*
X161761681Y-94451681D01*
X161795166Y-94513004D01*
X161798000Y-94539362D01*
X161798000Y-96012000D01*
X163158681Y-97372681D01*
X163192166Y-97434004D01*
X163195000Y-97460362D01*
X163195000Y-98119638D01*
X163175315Y-98186677D01*
X163158681Y-98207319D01*
X162088319Y-99277681D01*
X162026996Y-99311166D01*
X162000638Y-99314000D01*
X159563362Y-99314000D01*
X159496323Y-99294315D01*
X159475681Y-99277681D01*
X158786319Y-98588319D01*
X158752834Y-98526996D01*
X158750000Y-98500638D01*
X158750000Y-94285362D01*
X158769685Y-94218323D01*
X158786319Y-94197681D01*
X158967681Y-94016319D01*
X159029004Y-93982834D01*
X159055362Y-93980000D01*
X161238638Y-93980000D01*
X161305677Y-93999685D01*
G37*
%TD.AperFunction*%
%TD*%
%TA.AperFunction,Conductor*%
%TO.N,Net-(D2-K)*%
G36*
X162074145Y-89681685D02*
G01*
X162086489Y-89690741D01*
X162769383Y-90259819D01*
X162808282Y-90317858D01*
X162814000Y-90355078D01*
X162814000Y-91642638D01*
X162794315Y-91709677D01*
X162777681Y-91730319D01*
X161961319Y-92546681D01*
X161899996Y-92580166D01*
X161873638Y-92583000D01*
X159130999Y-92583000D01*
X158242000Y-93471999D01*
X158242000Y-93472000D01*
X158242000Y-98806000D01*
X159258000Y-99822000D01*
X162000638Y-99822000D01*
X162067677Y-99841685D01*
X162088319Y-99858319D01*
X162396682Y-100166682D01*
X162430166Y-100228003D01*
X162433000Y-100254361D01*
X162433000Y-102691638D01*
X162413315Y-102758677D01*
X162396681Y-102779319D01*
X162088319Y-103087681D01*
X162026996Y-103121166D01*
X162000638Y-103124000D01*
X155626362Y-103124000D01*
X155559323Y-103104315D01*
X155538681Y-103087681D01*
X155230319Y-102779318D01*
X155196834Y-102717995D01*
X155194000Y-102691637D01*
X155194000Y-90729362D01*
X155213685Y-90662323D01*
X155230319Y-90641681D01*
X156173681Y-89698319D01*
X156235004Y-89664834D01*
X156261362Y-89662000D01*
X162007106Y-89662000D01*
X162074145Y-89681685D01*
G37*
%TD.AperFunction*%
%TD*%
%TA.AperFunction,Conductor*%
%TO.N,GND*%
G36*
X165227000Y-94742000D02*
G01*
X165227000Y-96901000D01*
X164973000Y-97155000D01*
X163322000Y-97155000D01*
X162052000Y-95885000D01*
X162052000Y-94615000D01*
X162687000Y-93980000D01*
X164465000Y-93980000D01*
X165227000Y-94742000D01*
G37*
%TD.AperFunction*%
%TD*%
%TA.AperFunction,Conductor*%
%TO.N,+5V*%
G36*
X165115677Y-103905685D02*
G01*
X165136319Y-103922319D01*
X165862000Y-104648000D01*
X167588638Y-104648000D01*
X167655677Y-104667685D01*
X167676319Y-104684319D01*
X167730681Y-104738681D01*
X167764166Y-104800004D01*
X167767000Y-104826362D01*
X167767000Y-105993637D01*
X167747315Y-106060676D01*
X167730682Y-106081317D01*
X167676320Y-106135680D01*
X167614997Y-106169166D01*
X167588638Y-106172000D01*
X165861999Y-106172000D01*
X165136319Y-106897681D01*
X165074996Y-106931166D01*
X165048638Y-106934000D01*
X160325362Y-106934000D01*
X160258323Y-106914315D01*
X160237681Y-106897681D01*
X159167319Y-105827319D01*
X159133834Y-105765996D01*
X159131000Y-105739638D01*
X159131000Y-104318362D01*
X159150685Y-104251323D01*
X159167319Y-104230681D01*
X159475681Y-103922319D01*
X159537004Y-103888834D01*
X159563362Y-103886000D01*
X165048638Y-103886000D01*
X165115677Y-103905685D01*
G37*
%TD.AperFunction*%
%TD*%
%TA.AperFunction,Conductor*%
%TO.N,+5V*%
G36*
X158892677Y-116478685D02*
G01*
X158913319Y-116495319D01*
X159348682Y-116930682D01*
X159382166Y-116992003D01*
X159385000Y-117018361D01*
X159385000Y-118058637D01*
X159365315Y-118125676D01*
X159348681Y-118146318D01*
X158913319Y-118581681D01*
X158851996Y-118615166D01*
X158825638Y-118618000D01*
X155880362Y-118618000D01*
X155813323Y-118598315D01*
X155792681Y-118581681D01*
X155357319Y-118146319D01*
X155323834Y-118084996D01*
X155321000Y-118058638D01*
X155321000Y-117018361D01*
X155340685Y-116951322D01*
X155357314Y-116930685D01*
X155792680Y-116495319D01*
X155854004Y-116461834D01*
X155880362Y-116459000D01*
X158825638Y-116459000D01*
X158892677Y-116478685D01*
G37*
%TD.AperFunction*%
%TD*%
%TA.AperFunction,Conductor*%
%TO.N,+5V*%
G36*
X176672677Y-116478685D02*
G01*
X176693319Y-116495319D01*
X177128681Y-116930681D01*
X177162166Y-116992004D01*
X177165000Y-117018362D01*
X177165000Y-118058638D01*
X177145315Y-118125677D01*
X177128681Y-118146319D01*
X176693319Y-118581681D01*
X176631996Y-118615166D01*
X176605638Y-118618000D01*
X173660362Y-118618000D01*
X173593323Y-118598315D01*
X173572681Y-118581681D01*
X173137319Y-118146319D01*
X173103834Y-118084996D01*
X173101000Y-118058638D01*
X173101000Y-117018362D01*
X173120685Y-116951323D01*
X173137319Y-116930681D01*
X173572681Y-116495319D01*
X173634004Y-116461834D01*
X173660362Y-116459000D01*
X176605638Y-116459000D01*
X176672677Y-116478685D01*
G37*
%TD.AperFunction*%
%TD*%
%TA.AperFunction,Conductor*%
%TO.N,+12V*%
G36*
X176672677Y-113938685D02*
G01*
X176693319Y-113955319D01*
X177128681Y-114390681D01*
X177162166Y-114452004D01*
X177165000Y-114478362D01*
X177165000Y-115518638D01*
X177145315Y-115585677D01*
X177128681Y-115606319D01*
X176693319Y-116041681D01*
X176631996Y-116075166D01*
X176605638Y-116078000D01*
X173660362Y-116078000D01*
X173593323Y-116058315D01*
X173572681Y-116041681D01*
X173137319Y-115606319D01*
X173103834Y-115544996D01*
X173101000Y-115518638D01*
X173101000Y-114478362D01*
X173120685Y-114411323D01*
X173137319Y-114390681D01*
X173572681Y-113955319D01*
X173634004Y-113921834D01*
X173660362Y-113919000D01*
X176605638Y-113919000D01*
X176672677Y-113938685D01*
G37*
%TD.AperFunction*%
%TD*%
D39*
X152400000Y-124460000D02*
X152400000Y-86360000D01*
X152400000Y-124460000D02*
G75*
G03*
X154940000Y-127000000I2540000J0D01*
G01*
X177800000Y-127000000D02*
G75*
G03*
X180340000Y-124460000I0J2540000D01*
G01*
X177800000Y-127000000D02*
X154940000Y-127000000D01*
X180340000Y-86360000D02*
G75*
G03*
X177800000Y-83820000I-2540000J0D01*
G01*
X154940000Y-83820000D02*
G75*
G03*
X152400000Y-86360000I0J-2540000D01*
G01*
X180340000Y-86360000D02*
X180340000Y-124460000D01*
X177800000Y-83820000D02*
X154940000Y-83820000D01*
M02*
