G04 #@! TF.GenerationSoftware,KiCad,Pcbnew,(5.1.2)-2*
G04 #@! TF.CreationDate,2019-10-21T22:22:42-05:00*
G04 #@! TF.ProjectId,PowerBreakout,506f7765-7242-4726-9561-6b6f75742e6b,rev?*
G04 #@! TF.SameCoordinates,Original*
G04 #@! TF.FileFunction,Soldermask,Bot*
G04 #@! TF.FilePolarity,Negative*
%FSLAX46Y46*%
G04 Gerber Fmt 4.6, Leading zero omitted, Abs format (unit mm)*
G04 Created by KiCad (PCBNEW (5.1.2)-2) date 2019-10-21 22:22:42*
%MOMM*%
%LPD*%
G04 APERTURE LIST*
%ADD10C,0.100000*%
G04 APERTURE END LIST*
D10*
G36*
X166921143Y-79288243D02*
G01*
X167069102Y-79349530D01*
X167202256Y-79438500D01*
X167315502Y-79551746D01*
X167404472Y-79684900D01*
X167465759Y-79832859D01*
X167497001Y-79989926D01*
X167497001Y-80150076D01*
X167465759Y-80307143D01*
X167404472Y-80455102D01*
X167315502Y-80588256D01*
X167202256Y-80701502D01*
X167069102Y-80790472D01*
X166921143Y-80851759D01*
X166764076Y-80883001D01*
X166603926Y-80883001D01*
X166446859Y-80851759D01*
X166298900Y-80790472D01*
X166165746Y-80701502D01*
X166052500Y-80588256D01*
X165963530Y-80455102D01*
X165902243Y-80307143D01*
X165871001Y-80150076D01*
X165871001Y-79989926D01*
X165902243Y-79832859D01*
X165963530Y-79684900D01*
X166052500Y-79551746D01*
X166165746Y-79438500D01*
X166298900Y-79349530D01*
X166446859Y-79288243D01*
X166603926Y-79257001D01*
X166764076Y-79257001D01*
X166921143Y-79288243D01*
X166921143Y-79288243D01*
G37*
G36*
X126281143Y-79288243D02*
G01*
X126429102Y-79349530D01*
X126562256Y-79438500D01*
X126675502Y-79551746D01*
X126764472Y-79684900D01*
X126825759Y-79832859D01*
X126857001Y-79989926D01*
X126857001Y-80150076D01*
X126825759Y-80307143D01*
X126764472Y-80455102D01*
X126675502Y-80588256D01*
X126562256Y-80701502D01*
X126429102Y-80790472D01*
X126281143Y-80851759D01*
X126124076Y-80883001D01*
X125963926Y-80883001D01*
X125806859Y-80851759D01*
X125658900Y-80790472D01*
X125525746Y-80701502D01*
X125412500Y-80588256D01*
X125323530Y-80455102D01*
X125262243Y-80307143D01*
X125231001Y-80150076D01*
X125231001Y-79989926D01*
X125262243Y-79832859D01*
X125323530Y-79684900D01*
X125412500Y-79551746D01*
X125525746Y-79438500D01*
X125658900Y-79349530D01*
X125806859Y-79288243D01*
X125963926Y-79257001D01*
X126124076Y-79257001D01*
X126281143Y-79288243D01*
X126281143Y-79288243D01*
G37*
G36*
X119363142Y-73894242D02*
G01*
X119511101Y-73955529D01*
X119644255Y-74044499D01*
X119757501Y-74157745D01*
X119846471Y-74290899D01*
X119907758Y-74438858D01*
X119939000Y-74595925D01*
X119939000Y-74756075D01*
X119907758Y-74913142D01*
X119846471Y-75061101D01*
X119757501Y-75194255D01*
X119644255Y-75307501D01*
X119511101Y-75396471D01*
X119363142Y-75457758D01*
X119206075Y-75489000D01*
X119045925Y-75489000D01*
X118888858Y-75457758D01*
X118740899Y-75396471D01*
X118607745Y-75307501D01*
X118494499Y-75194255D01*
X118405529Y-75061101D01*
X118344242Y-74913142D01*
X118313000Y-74756075D01*
X118313000Y-74595925D01*
X118344242Y-74438858D01*
X118405529Y-74290899D01*
X118494499Y-74157745D01*
X118607745Y-74044499D01*
X118740899Y-73955529D01*
X118888858Y-73894242D01*
X119045925Y-73863000D01*
X119206075Y-73863000D01*
X119363142Y-73894242D01*
X119363142Y-73894242D01*
G37*
G36*
X172097000Y-73545000D02*
G01*
X170295000Y-73545000D01*
X170295000Y-71743000D01*
X172097000Y-71743000D01*
X172097000Y-73545000D01*
X172097000Y-73545000D01*
G37*
G36*
X171306443Y-69209519D02*
G01*
X171372627Y-69216037D01*
X171542466Y-69267557D01*
X171542468Y-69267558D01*
X171586137Y-69290900D01*
X171698991Y-69351222D01*
X171734729Y-69380552D01*
X171836186Y-69463814D01*
X171919448Y-69565271D01*
X171948778Y-69601009D01*
X172032443Y-69757534D01*
X172083963Y-69927373D01*
X172101359Y-70104000D01*
X172083963Y-70280627D01*
X172032443Y-70450466D01*
X171948778Y-70606991D01*
X171919448Y-70642729D01*
X171836186Y-70744186D01*
X171734729Y-70827448D01*
X171698991Y-70856778D01*
X171542466Y-70940443D01*
X171372627Y-70991963D01*
X171306443Y-70998481D01*
X171240260Y-71005000D01*
X171151740Y-71005000D01*
X171085557Y-70998481D01*
X171019373Y-70991963D01*
X170849534Y-70940443D01*
X170693009Y-70856778D01*
X170657271Y-70827448D01*
X170555814Y-70744186D01*
X170472552Y-70642729D01*
X170443222Y-70606991D01*
X170359557Y-70450466D01*
X170308037Y-70280627D01*
X170290641Y-70104000D01*
X170308037Y-69927373D01*
X170359557Y-69757534D01*
X170443222Y-69601009D01*
X170472552Y-69565271D01*
X170555814Y-69463814D01*
X170657271Y-69380552D01*
X170693009Y-69351222D01*
X170805863Y-69290900D01*
X170849532Y-69267558D01*
X170849534Y-69267557D01*
X171019373Y-69216037D01*
X171085557Y-69209519D01*
X171151740Y-69203000D01*
X171240260Y-69203000D01*
X171306443Y-69209519D01*
X171306443Y-69209519D01*
G37*
G36*
X119363142Y-68894242D02*
G01*
X119511101Y-68955529D01*
X119644255Y-69044499D01*
X119757501Y-69157745D01*
X119846471Y-69290899D01*
X119907758Y-69438858D01*
X119939000Y-69595925D01*
X119939000Y-69756075D01*
X119907758Y-69913142D01*
X119846471Y-70061101D01*
X119757501Y-70194255D01*
X119644255Y-70307501D01*
X119511101Y-70396471D01*
X119363142Y-70457758D01*
X119206075Y-70489000D01*
X119045925Y-70489000D01*
X118888858Y-70457758D01*
X118740899Y-70396471D01*
X118607745Y-70307501D01*
X118494499Y-70194255D01*
X118405529Y-70061101D01*
X118344242Y-69913142D01*
X118313000Y-69756075D01*
X118313000Y-69595925D01*
X118344242Y-69438858D01*
X118405529Y-69290899D01*
X118494499Y-69157745D01*
X118607745Y-69044499D01*
X118740899Y-68955529D01*
X118888858Y-68894242D01*
X119045925Y-68863000D01*
X119206075Y-68863000D01*
X119363142Y-68894242D01*
X119363142Y-68894242D01*
G37*
G36*
X166921143Y-61508243D02*
G01*
X167069102Y-61569530D01*
X167202256Y-61658500D01*
X167315502Y-61771746D01*
X167404472Y-61904900D01*
X167465759Y-62052859D01*
X167497001Y-62209926D01*
X167497001Y-62370076D01*
X167465759Y-62527143D01*
X167404472Y-62675102D01*
X167315502Y-62808256D01*
X167202256Y-62921502D01*
X167069102Y-63010472D01*
X166921143Y-63071759D01*
X166764076Y-63103001D01*
X166603926Y-63103001D01*
X166446859Y-63071759D01*
X166298900Y-63010472D01*
X166165746Y-62921502D01*
X166052500Y-62808256D01*
X165963530Y-62675102D01*
X165902243Y-62527143D01*
X165871001Y-62370076D01*
X165871001Y-62209926D01*
X165902243Y-62052859D01*
X165963530Y-61904900D01*
X166052500Y-61771746D01*
X166165746Y-61658500D01*
X166298900Y-61569530D01*
X166446859Y-61508243D01*
X166603926Y-61477001D01*
X166764076Y-61477001D01*
X166921143Y-61508243D01*
X166921143Y-61508243D01*
G37*
G36*
X126281143Y-61508243D02*
G01*
X126429102Y-61569530D01*
X126562256Y-61658500D01*
X126675502Y-61771746D01*
X126764472Y-61904900D01*
X126825759Y-62052859D01*
X126857001Y-62209926D01*
X126857001Y-62370076D01*
X126825759Y-62527143D01*
X126764472Y-62675102D01*
X126675502Y-62808256D01*
X126562256Y-62921502D01*
X126429102Y-63010472D01*
X126281143Y-63071759D01*
X126124076Y-63103001D01*
X125963926Y-63103001D01*
X125806859Y-63071759D01*
X125658900Y-63010472D01*
X125525746Y-62921502D01*
X125412500Y-62808256D01*
X125323530Y-62675102D01*
X125262243Y-62527143D01*
X125231001Y-62370076D01*
X125231001Y-62209926D01*
X125262243Y-62052859D01*
X125323530Y-61904900D01*
X125412500Y-61771746D01*
X125525746Y-61658500D01*
X125658900Y-61569530D01*
X125806859Y-61508243D01*
X125963926Y-61477001D01*
X126124076Y-61477001D01*
X126281143Y-61508243D01*
X126281143Y-61508243D01*
G37*
M02*
