G04 #@! TF.GenerationSoftware,KiCad,Pcbnew,(6.0.0)*
G04 #@! TF.CreationDate,2022-07-24T20:25:18-05:00*
G04 #@! TF.ProjectId,RJ45Breakout,524a3435-4272-4656-916b-6f75742e6b69,rev?*
G04 #@! TF.SameCoordinates,Original*
G04 #@! TF.FileFunction,Legend,Top*
G04 #@! TF.FilePolarity,Positive*
%FSLAX46Y46*%
G04 Gerber Fmt 4.6, Leading zero omitted, Abs format (unit mm)*
G04 Created by KiCad (PCBNEW (6.0.0)) date 2022-07-24 20:25:18*
%MOMM*%
%LPD*%
G01*
G04 APERTURE LIST*
G04 #@! TA.AperFunction,Profile*
%ADD10C,0.050000*%
G04 #@! TD*
%ADD11C,0.300000*%
%ADD12C,0.150000*%
%ADD13C,0.120000*%
G04 APERTURE END LIST*
D10*
X161190000Y-92530000D02*
X161200000Y-114160000D01*
X140410000Y-114160000D02*
X140410000Y-92530000D01*
X161200000Y-114160000D02*
X140410000Y-114160000D01*
X140410000Y-92530000D02*
X161190000Y-92530000D01*
D11*
X141757142Y-96771428D02*
X141614285Y-96700000D01*
X141542857Y-96628571D01*
X141471428Y-96485714D01*
X141471428Y-96414285D01*
X141542857Y-96271428D01*
X141614285Y-96200000D01*
X141757142Y-96128571D01*
X142042857Y-96128571D01*
X142185714Y-96200000D01*
X142257142Y-96271428D01*
X142328571Y-96414285D01*
X142328571Y-96485714D01*
X142257142Y-96628571D01*
X142185714Y-96700000D01*
X142042857Y-96771428D01*
X141757142Y-96771428D01*
X141614285Y-96842857D01*
X141542857Y-96914285D01*
X141471428Y-97057142D01*
X141471428Y-97342857D01*
X141542857Y-97485714D01*
X141614285Y-97557142D01*
X141757142Y-97628571D01*
X142042857Y-97628571D01*
X142185714Y-97557142D01*
X142257142Y-97485714D01*
X142328571Y-97342857D01*
X142328571Y-97057142D01*
X142257142Y-96914285D01*
X142185714Y-96842857D01*
X142042857Y-96771428D01*
X143971428Y-96128571D02*
X144971428Y-96128571D01*
X144328571Y-97628571D01*
X147328571Y-96128571D02*
X147042857Y-96128571D01*
X146900000Y-96200000D01*
X146828571Y-96271428D01*
X146685714Y-96485714D01*
X146614285Y-96771428D01*
X146614285Y-97342857D01*
X146685714Y-97485714D01*
X146757142Y-97557142D01*
X146900000Y-97628571D01*
X147185714Y-97628571D01*
X147328571Y-97557142D01*
X147400000Y-97485714D01*
X147471428Y-97342857D01*
X147471428Y-96985714D01*
X147400000Y-96842857D01*
X147328571Y-96771428D01*
X147185714Y-96700000D01*
X146900000Y-96700000D01*
X146757142Y-96771428D01*
X146685714Y-96842857D01*
X146614285Y-96985714D01*
X149971428Y-96128571D02*
X149257142Y-96128571D01*
X149185714Y-96842857D01*
X149257142Y-96771428D01*
X149400000Y-96700000D01*
X149757142Y-96700000D01*
X149900000Y-96771428D01*
X149971428Y-96842857D01*
X150042857Y-96985714D01*
X150042857Y-97342857D01*
X149971428Y-97485714D01*
X149900000Y-97557142D01*
X149757142Y-97628571D01*
X149400000Y-97628571D01*
X149257142Y-97557142D01*
X149185714Y-97485714D01*
X152471428Y-96628571D02*
X152471428Y-97628571D01*
X152114285Y-96057142D02*
X151757142Y-97128571D01*
X152685714Y-97128571D01*
X154257142Y-96128571D02*
X155185714Y-96128571D01*
X154685714Y-96700000D01*
X154900000Y-96700000D01*
X155042857Y-96771428D01*
X155114285Y-96842857D01*
X155185714Y-96985714D01*
X155185714Y-97342857D01*
X155114285Y-97485714D01*
X155042857Y-97557142D01*
X154900000Y-97628571D01*
X154471428Y-97628571D01*
X154328571Y-97557142D01*
X154257142Y-97485714D01*
X156900000Y-96271428D02*
X156971428Y-96200000D01*
X157114285Y-96128571D01*
X157471428Y-96128571D01*
X157614285Y-96200000D01*
X157685714Y-96271428D01*
X157757142Y-96414285D01*
X157757142Y-96557142D01*
X157685714Y-96771428D01*
X156828571Y-97628571D01*
X157757142Y-97628571D01*
X160328571Y-97628571D02*
X159471428Y-97628571D01*
X159900000Y-97628571D02*
X159900000Y-96128571D01*
X159757142Y-96342857D01*
X159614285Y-96485714D01*
X159471428Y-96557142D01*
D12*
X150466466Y-109302300D02*
X150466466Y-110016586D01*
X150418847Y-110159443D01*
X150323609Y-110254681D01*
X150180752Y-110302300D01*
X150085514Y-110302300D01*
X151466466Y-110302300D02*
X150895038Y-110302300D01*
X151180752Y-110302300D02*
X151180752Y-109302300D01*
X151085514Y-109445158D01*
X150990276Y-109540396D01*
X150895038Y-109588015D01*
D13*
X142672460Y-98762820D02*
X142672460Y-104775000D01*
X151048720Y-113019840D02*
X150835360Y-113451640D01*
X142674340Y-107271820D02*
X142672460Y-114002820D01*
X142672460Y-114002820D02*
X159082460Y-114002820D01*
X151274780Y-113451640D02*
X151048720Y-113019840D01*
X150835360Y-113451640D02*
X151274780Y-113451640D01*
X142672460Y-98762820D02*
X159082460Y-98762820D01*
X159082460Y-98762820D02*
X159082460Y-104775000D01*
X159084340Y-107271820D02*
X159082460Y-114002820D01*
X158420000Y-93160000D02*
X140580000Y-93160000D01*
X140580000Y-93160000D02*
X140580000Y-95820000D01*
X161020000Y-94490000D02*
X161020000Y-95820000D01*
X158420000Y-95820000D02*
X140580000Y-95820000D01*
X158420000Y-93160000D02*
X158420000Y-95820000D01*
X161020000Y-95820000D02*
X159690000Y-95820000D01*
M02*
