G04 #@! TF.GenerationSoftware,KiCad,Pcbnew,(5.1.5)-3*
G04 #@! TF.CreationDate,2020-06-13T00:40:34-05:00*
G04 #@! TF.ProjectId,HeadphoneJack,48656164-7068-46f6-9e65-4a61636b2e6b,rev?*
G04 #@! TF.SameCoordinates,Original*
G04 #@! TF.FileFunction,Copper,L1,Top*
G04 #@! TF.FilePolarity,Positive*
%FSLAX46Y46*%
G04 Gerber Fmt 4.6, Leading zero omitted, Abs format (unit mm)*
G04 Created by KiCad (PCBNEW (5.1.5)-3) date 2020-06-13 00:40:34*
%MOMM*%
%LPD*%
G04 APERTURE LIST*
%ADD10C,0.050000*%
%ADD11O,1.140000X2.362000*%
%ADD12C,1.500000*%
%ADD13R,1.500000X1.500000*%
%ADD14R,1.700000X1.700000*%
%ADD15O,1.700000X1.700000*%
%ADD16O,1.400000X2.000000*%
%ADD17R,1.400000X2.000000*%
%ADD18C,0.250000*%
G04 APERTURE END LIST*
D10*
X123888500Y-86233000D02*
X128968500Y-86233000D01*
X175260000Y-86233000D02*
X180340000Y-86233000D01*
X171196000Y-90297000D02*
X169862500Y-104140000D01*
X133032500Y-90297000D02*
X134048500Y-104140000D01*
X171196000Y-90297000D02*
G75*
G02X175260000Y-86233000I4064000J0D01*
G01*
X184404000Y-82169000D02*
G75*
G02X180340000Y-86233000I-4064000J0D01*
G01*
X128968500Y-86233000D02*
G75*
G02X133032500Y-90297000I0J-4064000D01*
G01*
X123888500Y-86233000D02*
G75*
G02X119824500Y-82169000I0J4064000D01*
G01*
X184404000Y-75311000D02*
X184404000Y-82169000D01*
X119824500Y-75311000D02*
X119824500Y-82169000D01*
X138112500Y-108204000D02*
G75*
G02X134048500Y-104140000I0J4064000D01*
G01*
X165798500Y-108204000D02*
X138112500Y-108204000D01*
X169862500Y-104140000D02*
G75*
G02X165798500Y-108204000I-4064000J0D01*
G01*
X180340000Y-71247000D02*
X123888500Y-71247000D01*
X119824500Y-75311000D02*
G75*
G02X123888500Y-71247000I4064000J0D01*
G01*
X180340000Y-71247000D02*
G75*
G02X184404000Y-75311000I0J-4064000D01*
G01*
D11*
X159448500Y-102256451D03*
X144449800Y-102256451D03*
D12*
X156400500Y-90464501D03*
X155130500Y-93004501D03*
X153860500Y-90464501D03*
X152590500Y-93004501D03*
X151320500Y-90464501D03*
X150050500Y-93004501D03*
X148780500Y-90464501D03*
D13*
X147510500Y-93004501D03*
D14*
X141160500Y-90534501D03*
D15*
X141160500Y-93074501D03*
X162750500Y-93074501D03*
D14*
X162750500Y-90534501D03*
D15*
X137350500Y-93074501D03*
D14*
X137350500Y-90534501D03*
X166560500Y-90534501D03*
D15*
X166560500Y-93074501D03*
D16*
X134730001Y-75550000D03*
X134730001Y-78550000D03*
D17*
X134730001Y-82550000D03*
D16*
X130230001Y-84050000D03*
X139380001Y-84050000D03*
D17*
X143880001Y-82550000D03*
D16*
X143880001Y-78550000D03*
X143880001Y-75550000D03*
X150486501Y-84050000D03*
D17*
X154986501Y-82550000D03*
D16*
X154986501Y-78550000D03*
X154986501Y-75550000D03*
X164136501Y-75550000D03*
X164136501Y-78550000D03*
D17*
X164136501Y-82550000D03*
D16*
X159636501Y-84050000D03*
X168786501Y-84050000D03*
D17*
X173286501Y-82550000D03*
D16*
X173286501Y-78550000D03*
X173286501Y-75550000D03*
D18*
X149300501Y-93754500D02*
X150050500Y-93004501D01*
X149300501Y-93935912D02*
X149300501Y-93754500D01*
X148706902Y-94529511D02*
X149300501Y-93935912D01*
X138805511Y-94529512D02*
X148706902Y-94529511D01*
X137350500Y-93074501D02*
X138805511Y-94529512D01*
X152070499Y-91214500D02*
X151320500Y-90464501D01*
X152565501Y-91709502D02*
X152070499Y-91214500D01*
X163124503Y-91709502D02*
X152565501Y-91709502D01*
X164489502Y-93074501D02*
X163124503Y-91709502D01*
X166560500Y-93074501D02*
X164489502Y-93074501D01*
X130230001Y-84050000D02*
X139380001Y-84050000D01*
X139380001Y-84050000D02*
X150486501Y-84050000D01*
X150486501Y-84050000D02*
X159636501Y-84050000D01*
X159636501Y-84050000D02*
X168786501Y-84050000D01*
X138450500Y-90534501D02*
X141160500Y-90534501D01*
X137350500Y-90534501D02*
X138450500Y-90534501D01*
X131180001Y-84050000D02*
X130230001Y-84050000D01*
X131965999Y-84050000D02*
X131180001Y-84050000D01*
X137350500Y-89434501D02*
X131965999Y-84050000D01*
X137350500Y-90534501D02*
X137350500Y-89434501D01*
X162750500Y-90534501D02*
X166560500Y-90534501D01*
X167836501Y-84050000D02*
X168786501Y-84050000D01*
X166560500Y-85326001D02*
X167836501Y-84050000D01*
X166560500Y-90534501D02*
X166560500Y-85326001D01*
X143630500Y-93004501D02*
X141160500Y-90534501D01*
X147510500Y-93004501D02*
X143630500Y-93004501D01*
X161900501Y-93924500D02*
X162750500Y-93074501D01*
X161745499Y-94079502D02*
X161900501Y-93924500D01*
X152074499Y-94079502D02*
X161745499Y-94079502D01*
X151515499Y-93520502D02*
X152074499Y-94079502D01*
X151515499Y-92488500D02*
X151515499Y-93520502D01*
X150566501Y-91539502D02*
X151515499Y-92488500D01*
X149855501Y-91539502D02*
X150566501Y-91539502D01*
X148780500Y-90464501D02*
X149855501Y-91539502D01*
X142010499Y-93924500D02*
X141160500Y-93074501D01*
X142165501Y-94079502D02*
X142010499Y-93924500D01*
X148520501Y-94079502D02*
X142165501Y-94079502D01*
X148780500Y-93819503D02*
X148520501Y-94079502D01*
X148780500Y-90464501D02*
X148780500Y-93819503D01*
M02*
