G04 #@! TF.GenerationSoftware,KiCad,Pcbnew,(5.1.6)-1*
G04 #@! TF.CreationDate,2020-07-28T00:02:14-05:00*
G04 #@! TF.ProjectId,VL53L0XSensor,564c3533-4c30-4585-9365-6e736f722e6b,rev?*
G04 #@! TF.SameCoordinates,Original*
G04 #@! TF.FileFunction,Soldermask,Bot*
G04 #@! TF.FilePolarity,Negative*
%FSLAX46Y46*%
G04 Gerber Fmt 4.6, Leading zero omitted, Abs format (unit mm)*
G04 Created by KiCad (PCBNEW (5.1.6)-1) date 2020-07-28 00:02:14*
%MOMM*%
%LPD*%
G01*
G04 APERTURE LIST*
%ADD10C,0.100000*%
G04 APERTURE END LIST*
D10*
G36*
X139813512Y-86733927D02*
G01*
X139962812Y-86763624D01*
X140126784Y-86831544D01*
X140274354Y-86930147D01*
X140399853Y-87055646D01*
X140498456Y-87203216D01*
X140566376Y-87367188D01*
X140601000Y-87541259D01*
X140601000Y-87718741D01*
X140566376Y-87892812D01*
X140498456Y-88056784D01*
X140399853Y-88204354D01*
X140274354Y-88329853D01*
X140126784Y-88428456D01*
X139962812Y-88496376D01*
X139813512Y-88526073D01*
X139788742Y-88531000D01*
X139611258Y-88531000D01*
X139586488Y-88526073D01*
X139437188Y-88496376D01*
X139273216Y-88428456D01*
X139125646Y-88329853D01*
X139000147Y-88204354D01*
X138901544Y-88056784D01*
X138833624Y-87892812D01*
X138799000Y-87718741D01*
X138799000Y-87541259D01*
X138833624Y-87367188D01*
X138901544Y-87203216D01*
X139000147Y-87055646D01*
X139125646Y-86930147D01*
X139273216Y-86831544D01*
X139437188Y-86763624D01*
X139586488Y-86733927D01*
X139611258Y-86729000D01*
X139788742Y-86729000D01*
X139813512Y-86733927D01*
G37*
G36*
X135521000Y-88531000D02*
G01*
X133719000Y-88531000D01*
X133719000Y-86729000D01*
X135521000Y-86729000D01*
X135521000Y-88531000D01*
G37*
G36*
X137273512Y-86733927D02*
G01*
X137422812Y-86763624D01*
X137586784Y-86831544D01*
X137734354Y-86930147D01*
X137859853Y-87055646D01*
X137958456Y-87203216D01*
X138026376Y-87367188D01*
X138061000Y-87541259D01*
X138061000Y-87718741D01*
X138026376Y-87892812D01*
X137958456Y-88056784D01*
X137859853Y-88204354D01*
X137734354Y-88329853D01*
X137586784Y-88428456D01*
X137422812Y-88496376D01*
X137273512Y-88526073D01*
X137248742Y-88531000D01*
X137071258Y-88531000D01*
X137046488Y-88526073D01*
X136897188Y-88496376D01*
X136733216Y-88428456D01*
X136585646Y-88329853D01*
X136460147Y-88204354D01*
X136361544Y-88056784D01*
X136293624Y-87892812D01*
X136259000Y-87718741D01*
X136259000Y-87541259D01*
X136293624Y-87367188D01*
X136361544Y-87203216D01*
X136460147Y-87055646D01*
X136585646Y-86930147D01*
X136733216Y-86831544D01*
X136897188Y-86763624D01*
X137046488Y-86733927D01*
X137071258Y-86729000D01*
X137248742Y-86729000D01*
X137273512Y-86733927D01*
G37*
G36*
X123184228Y-86303703D02*
G01*
X123339100Y-86367853D01*
X123478481Y-86460985D01*
X123597015Y-86579519D01*
X123690147Y-86718900D01*
X123754297Y-86873772D01*
X123787000Y-87038184D01*
X123787000Y-87205816D01*
X123754297Y-87370228D01*
X123690147Y-87525100D01*
X123597015Y-87664481D01*
X123478481Y-87783015D01*
X123339100Y-87876147D01*
X123184228Y-87940297D01*
X123019816Y-87973000D01*
X122852184Y-87973000D01*
X122687772Y-87940297D01*
X122532900Y-87876147D01*
X122393519Y-87783015D01*
X122274985Y-87664481D01*
X122181853Y-87525100D01*
X122117703Y-87370228D01*
X122085000Y-87205816D01*
X122085000Y-87038184D01*
X122117703Y-86873772D01*
X122181853Y-86718900D01*
X122274985Y-86579519D01*
X122393519Y-86460985D01*
X122532900Y-86367853D01*
X122687772Y-86303703D01*
X122852184Y-86271000D01*
X123019816Y-86271000D01*
X123184228Y-86303703D01*
G37*
G36*
X144893512Y-84193927D02*
G01*
X145042812Y-84223624D01*
X145206784Y-84291544D01*
X145354354Y-84390147D01*
X145479853Y-84515646D01*
X145578456Y-84663216D01*
X145646376Y-84827188D01*
X145681000Y-85001259D01*
X145681000Y-85178741D01*
X145646376Y-85352812D01*
X145578456Y-85516784D01*
X145479853Y-85664354D01*
X145354354Y-85789853D01*
X145206784Y-85888456D01*
X145042812Y-85956376D01*
X144893512Y-85986073D01*
X144868742Y-85991000D01*
X144691258Y-85991000D01*
X144666488Y-85986073D01*
X144517188Y-85956376D01*
X144353216Y-85888456D01*
X144205646Y-85789853D01*
X144080147Y-85664354D01*
X143981544Y-85516784D01*
X143913624Y-85352812D01*
X143879000Y-85178741D01*
X143879000Y-85001259D01*
X143913624Y-84827188D01*
X143981544Y-84663216D01*
X144080147Y-84515646D01*
X144205646Y-84390147D01*
X144353216Y-84291544D01*
X144517188Y-84223624D01*
X144666488Y-84193927D01*
X144691258Y-84189000D01*
X144868742Y-84189000D01*
X144893512Y-84193927D01*
G37*
G36*
X148221000Y-85991000D02*
G01*
X146419000Y-85991000D01*
X146419000Y-84189000D01*
X148221000Y-84189000D01*
X148221000Y-85991000D01*
G37*
G36*
X123184228Y-83803703D02*
G01*
X123339100Y-83867853D01*
X123478481Y-83960985D01*
X123597015Y-84079519D01*
X123690147Y-84218900D01*
X123754297Y-84373772D01*
X123787000Y-84538184D01*
X123787000Y-84705816D01*
X123754297Y-84870228D01*
X123690147Y-85025100D01*
X123597015Y-85164481D01*
X123478481Y-85283015D01*
X123339100Y-85376147D01*
X123184228Y-85440297D01*
X123019816Y-85473000D01*
X122852184Y-85473000D01*
X122687772Y-85440297D01*
X122532900Y-85376147D01*
X122393519Y-85283015D01*
X122274985Y-85164481D01*
X122181853Y-85025100D01*
X122117703Y-84870228D01*
X122085000Y-84705816D01*
X122085000Y-84538184D01*
X122117703Y-84373772D01*
X122181853Y-84218900D01*
X122274985Y-84079519D01*
X122393519Y-83960985D01*
X122532900Y-83867853D01*
X122687772Y-83803703D01*
X122852184Y-83771000D01*
X123019816Y-83771000D01*
X123184228Y-83803703D01*
G37*
G36*
X139813512Y-81653927D02*
G01*
X139962812Y-81683624D01*
X140126784Y-81751544D01*
X140274354Y-81850147D01*
X140399853Y-81975646D01*
X140498456Y-82123216D01*
X140566376Y-82287188D01*
X140601000Y-82461259D01*
X140601000Y-82638741D01*
X140566376Y-82812812D01*
X140498456Y-82976784D01*
X140399853Y-83124354D01*
X140274354Y-83249853D01*
X140126784Y-83348456D01*
X139962812Y-83416376D01*
X139813512Y-83446073D01*
X139788742Y-83451000D01*
X139611258Y-83451000D01*
X139586488Y-83446073D01*
X139437188Y-83416376D01*
X139273216Y-83348456D01*
X139125646Y-83249853D01*
X139000147Y-83124354D01*
X138901544Y-82976784D01*
X138833624Y-82812812D01*
X138799000Y-82638741D01*
X138799000Y-82461259D01*
X138833624Y-82287188D01*
X138901544Y-82123216D01*
X139000147Y-81975646D01*
X139125646Y-81850147D01*
X139273216Y-81751544D01*
X139437188Y-81683624D01*
X139586488Y-81653927D01*
X139611258Y-81649000D01*
X139788742Y-81649000D01*
X139813512Y-81653927D01*
G37*
G36*
X137273512Y-81653927D02*
G01*
X137422812Y-81683624D01*
X137586784Y-81751544D01*
X137734354Y-81850147D01*
X137859853Y-81975646D01*
X137958456Y-82123216D01*
X138026376Y-82287188D01*
X138061000Y-82461259D01*
X138061000Y-82638741D01*
X138026376Y-82812812D01*
X137958456Y-82976784D01*
X137859853Y-83124354D01*
X137734354Y-83249853D01*
X137586784Y-83348456D01*
X137422812Y-83416376D01*
X137273512Y-83446073D01*
X137248742Y-83451000D01*
X137071258Y-83451000D01*
X137046488Y-83446073D01*
X136897188Y-83416376D01*
X136733216Y-83348456D01*
X136585646Y-83249853D01*
X136460147Y-83124354D01*
X136361544Y-82976784D01*
X136293624Y-82812812D01*
X136259000Y-82638741D01*
X136259000Y-82461259D01*
X136293624Y-82287188D01*
X136361544Y-82123216D01*
X136460147Y-81975646D01*
X136585646Y-81850147D01*
X136733216Y-81751544D01*
X136897188Y-81683624D01*
X137046488Y-81653927D01*
X137071258Y-81649000D01*
X137248742Y-81649000D01*
X137273512Y-81653927D01*
G37*
G36*
X135521000Y-83451000D02*
G01*
X133719000Y-83451000D01*
X133719000Y-81649000D01*
X135521000Y-81649000D01*
X135521000Y-83451000D01*
G37*
G36*
X144893512Y-81653927D02*
G01*
X145042812Y-81683624D01*
X145206784Y-81751544D01*
X145354354Y-81850147D01*
X145479853Y-81975646D01*
X145578456Y-82123216D01*
X145646376Y-82287188D01*
X145681000Y-82461259D01*
X145681000Y-82638741D01*
X145646376Y-82812812D01*
X145578456Y-82976784D01*
X145479853Y-83124354D01*
X145354354Y-83249853D01*
X145206784Y-83348456D01*
X145042812Y-83416376D01*
X144893512Y-83446073D01*
X144868742Y-83451000D01*
X144691258Y-83451000D01*
X144666488Y-83446073D01*
X144517188Y-83416376D01*
X144353216Y-83348456D01*
X144205646Y-83249853D01*
X144080147Y-83124354D01*
X143981544Y-82976784D01*
X143913624Y-82812812D01*
X143879000Y-82638741D01*
X143879000Y-82461259D01*
X143913624Y-82287188D01*
X143981544Y-82123216D01*
X144080147Y-81975646D01*
X144205646Y-81850147D01*
X144353216Y-81751544D01*
X144517188Y-81683624D01*
X144666488Y-81653927D01*
X144691258Y-81649000D01*
X144868742Y-81649000D01*
X144893512Y-81653927D01*
G37*
G36*
X148221000Y-83451000D02*
G01*
X146419000Y-83451000D01*
X146419000Y-81649000D01*
X148221000Y-81649000D01*
X148221000Y-83451000D01*
G37*
G36*
X123184228Y-81303703D02*
G01*
X123339100Y-81367853D01*
X123478481Y-81460985D01*
X123597015Y-81579519D01*
X123690147Y-81718900D01*
X123754297Y-81873772D01*
X123787000Y-82038184D01*
X123787000Y-82205816D01*
X123754297Y-82370228D01*
X123690147Y-82525100D01*
X123597015Y-82664481D01*
X123478481Y-82783015D01*
X123339100Y-82876147D01*
X123184228Y-82940297D01*
X123019816Y-82973000D01*
X122852184Y-82973000D01*
X122687772Y-82940297D01*
X122532900Y-82876147D01*
X122393519Y-82783015D01*
X122274985Y-82664481D01*
X122181853Y-82525100D01*
X122117703Y-82370228D01*
X122085000Y-82205816D01*
X122085000Y-82038184D01*
X122117703Y-81873772D01*
X122181853Y-81718900D01*
X122274985Y-81579519D01*
X122393519Y-81460985D01*
X122532900Y-81367853D01*
X122687772Y-81303703D01*
X122852184Y-81271000D01*
X123019816Y-81271000D01*
X123184228Y-81303703D01*
G37*
G36*
X145681000Y-80911000D02*
G01*
X143879000Y-80911000D01*
X143879000Y-79109000D01*
X145681000Y-79109000D01*
X145681000Y-80911000D01*
G37*
G36*
X147433512Y-79113927D02*
G01*
X147582812Y-79143624D01*
X147746784Y-79211544D01*
X147894354Y-79310147D01*
X148019853Y-79435646D01*
X148118456Y-79583216D01*
X148186376Y-79747188D01*
X148221000Y-79921259D01*
X148221000Y-80098741D01*
X148186376Y-80272812D01*
X148118456Y-80436784D01*
X148019853Y-80584354D01*
X147894354Y-80709853D01*
X147746784Y-80808456D01*
X147582812Y-80876376D01*
X147433512Y-80906073D01*
X147408742Y-80911000D01*
X147231258Y-80911000D01*
X147206488Y-80906073D01*
X147057188Y-80876376D01*
X146893216Y-80808456D01*
X146745646Y-80709853D01*
X146620147Y-80584354D01*
X146521544Y-80436784D01*
X146453624Y-80272812D01*
X146419000Y-80098741D01*
X146419000Y-79921259D01*
X146453624Y-79747188D01*
X146521544Y-79583216D01*
X146620147Y-79435646D01*
X146745646Y-79310147D01*
X146893216Y-79211544D01*
X147057188Y-79143624D01*
X147206488Y-79113927D01*
X147231258Y-79109000D01*
X147408742Y-79109000D01*
X147433512Y-79113927D01*
G37*
G36*
X128518228Y-76143703D02*
G01*
X128673100Y-76207853D01*
X128812481Y-76300985D01*
X128931015Y-76419519D01*
X129024147Y-76558900D01*
X129088297Y-76713772D01*
X129121000Y-76878184D01*
X129121000Y-77045816D01*
X129088297Y-77210228D01*
X129024147Y-77365100D01*
X128931015Y-77504481D01*
X128812481Y-77623015D01*
X128673100Y-77716147D01*
X128518228Y-77780297D01*
X128353816Y-77813000D01*
X128186184Y-77813000D01*
X128021772Y-77780297D01*
X127866900Y-77716147D01*
X127727519Y-77623015D01*
X127608985Y-77504481D01*
X127515853Y-77365100D01*
X127451703Y-77210228D01*
X127419000Y-77045816D01*
X127419000Y-76878184D01*
X127451703Y-76713772D01*
X127515853Y-76558900D01*
X127608985Y-76419519D01*
X127727519Y-76300985D01*
X127866900Y-76207853D01*
X128021772Y-76143703D01*
X128186184Y-76111000D01*
X128353816Y-76111000D01*
X128518228Y-76143703D01*
G37*
G36*
X125978228Y-76143703D02*
G01*
X126133100Y-76207853D01*
X126272481Y-76300985D01*
X126391015Y-76419519D01*
X126484147Y-76558900D01*
X126548297Y-76713772D01*
X126581000Y-76878184D01*
X126581000Y-77045816D01*
X126548297Y-77210228D01*
X126484147Y-77365100D01*
X126391015Y-77504481D01*
X126272481Y-77623015D01*
X126133100Y-77716147D01*
X125978228Y-77780297D01*
X125813816Y-77813000D01*
X125646184Y-77813000D01*
X125481772Y-77780297D01*
X125326900Y-77716147D01*
X125187519Y-77623015D01*
X125068985Y-77504481D01*
X124975853Y-77365100D01*
X124911703Y-77210228D01*
X124879000Y-77045816D01*
X124879000Y-76878184D01*
X124911703Y-76713772D01*
X124975853Y-76558900D01*
X125068985Y-76419519D01*
X125187519Y-76300985D01*
X125326900Y-76207853D01*
X125481772Y-76143703D01*
X125646184Y-76111000D01*
X125813816Y-76111000D01*
X125978228Y-76143703D01*
G37*
G36*
X123438228Y-76143703D02*
G01*
X123593100Y-76207853D01*
X123732481Y-76300985D01*
X123851015Y-76419519D01*
X123944147Y-76558900D01*
X124008297Y-76713772D01*
X124041000Y-76878184D01*
X124041000Y-77045816D01*
X124008297Y-77210228D01*
X123944147Y-77365100D01*
X123851015Y-77504481D01*
X123732481Y-77623015D01*
X123593100Y-77716147D01*
X123438228Y-77780297D01*
X123273816Y-77813000D01*
X123106184Y-77813000D01*
X122941772Y-77780297D01*
X122786900Y-77716147D01*
X122647519Y-77623015D01*
X122528985Y-77504481D01*
X122435853Y-77365100D01*
X122371703Y-77210228D01*
X122339000Y-77045816D01*
X122339000Y-76878184D01*
X122371703Y-76713772D01*
X122435853Y-76558900D01*
X122528985Y-76419519D01*
X122647519Y-76300985D01*
X122786900Y-76207853D01*
X122941772Y-76143703D01*
X123106184Y-76111000D01*
X123273816Y-76111000D01*
X123438228Y-76143703D01*
G37*
G36*
X147433512Y-74033927D02*
G01*
X147582812Y-74063624D01*
X147746784Y-74131544D01*
X147894354Y-74230147D01*
X148019853Y-74355646D01*
X148118456Y-74503216D01*
X148186376Y-74667188D01*
X148221000Y-74841259D01*
X148221000Y-75018741D01*
X148186376Y-75192812D01*
X148118456Y-75356784D01*
X148019853Y-75504354D01*
X147894354Y-75629853D01*
X147746784Y-75728456D01*
X147582812Y-75796376D01*
X147433512Y-75826073D01*
X147408742Y-75831000D01*
X147231258Y-75831000D01*
X147206488Y-75826073D01*
X147057188Y-75796376D01*
X146893216Y-75728456D01*
X146745646Y-75629853D01*
X146620147Y-75504354D01*
X146521544Y-75356784D01*
X146453624Y-75192812D01*
X146419000Y-75018741D01*
X146419000Y-74841259D01*
X146453624Y-74667188D01*
X146521544Y-74503216D01*
X146620147Y-74355646D01*
X146745646Y-74230147D01*
X146893216Y-74131544D01*
X147057188Y-74063624D01*
X147206488Y-74033927D01*
X147231258Y-74029000D01*
X147408742Y-74029000D01*
X147433512Y-74033927D01*
G37*
G36*
X147433512Y-71493927D02*
G01*
X147582812Y-71523624D01*
X147746784Y-71591544D01*
X147894354Y-71690147D01*
X148019853Y-71815646D01*
X148118456Y-71963216D01*
X148186376Y-72127188D01*
X148221000Y-72301259D01*
X148221000Y-72478741D01*
X148186376Y-72652812D01*
X148118456Y-72816784D01*
X148019853Y-72964354D01*
X147894354Y-73089853D01*
X147746784Y-73188456D01*
X147582812Y-73256376D01*
X147433512Y-73286073D01*
X147408742Y-73291000D01*
X147231258Y-73291000D01*
X147206488Y-73286073D01*
X147057188Y-73256376D01*
X146893216Y-73188456D01*
X146745646Y-73089853D01*
X146620147Y-72964354D01*
X146521544Y-72816784D01*
X146453624Y-72652812D01*
X146419000Y-72478741D01*
X146419000Y-72301259D01*
X146453624Y-72127188D01*
X146521544Y-71963216D01*
X146620147Y-71815646D01*
X146745646Y-71690147D01*
X146893216Y-71591544D01*
X147057188Y-71523624D01*
X147206488Y-71493927D01*
X147231258Y-71489000D01*
X147408742Y-71489000D01*
X147433512Y-71493927D01*
G37*
G36*
X147433512Y-68953927D02*
G01*
X147582812Y-68983624D01*
X147746784Y-69051544D01*
X147894354Y-69150147D01*
X148019853Y-69275646D01*
X148118456Y-69423216D01*
X148186376Y-69587188D01*
X148221000Y-69761259D01*
X148221000Y-69938741D01*
X148186376Y-70112812D01*
X148118456Y-70276784D01*
X148019853Y-70424354D01*
X147894354Y-70549853D01*
X147746784Y-70648456D01*
X147582812Y-70716376D01*
X147433512Y-70746073D01*
X147408742Y-70751000D01*
X147231258Y-70751000D01*
X147206488Y-70746073D01*
X147057188Y-70716376D01*
X146893216Y-70648456D01*
X146745646Y-70549853D01*
X146620147Y-70424354D01*
X146521544Y-70276784D01*
X146453624Y-70112812D01*
X146419000Y-69938741D01*
X146419000Y-69761259D01*
X146453624Y-69587188D01*
X146521544Y-69423216D01*
X146620147Y-69275646D01*
X146745646Y-69150147D01*
X146893216Y-69051544D01*
X147057188Y-68983624D01*
X147206488Y-68953927D01*
X147231258Y-68949000D01*
X147408742Y-68949000D01*
X147433512Y-68953927D01*
G37*
G36*
X148221000Y-68211000D02*
G01*
X146419000Y-68211000D01*
X146419000Y-66409000D01*
X148221000Y-66409000D01*
X148221000Y-68211000D01*
G37*
M02*
