G04 #@! TF.GenerationSoftware,KiCad,Pcbnew,7.0.2*
G04 #@! TF.CreationDate,2023-08-07T19:28:33-05:00*
G04 #@! TF.ProjectId,JoystickBoard,4a6f7973-7469-4636-9b42-6f6172642e6b,rev?*
G04 #@! TF.SameCoordinates,Original*
G04 #@! TF.FileFunction,Legend,Bot*
G04 #@! TF.FilePolarity,Positive*
%FSLAX46Y46*%
G04 Gerber Fmt 4.6, Leading zero omitted, Abs format (unit mm)*
G04 Created by KiCad (PCBNEW 7.0.2) date 2023-08-07 19:28:33*
%MOMM*%
%LPD*%
G01*
G04 APERTURE LIST*
%ADD10C,0.139700*%
%ADD11C,0.127000*%
%ADD12C,0.150000*%
%ADD13C,0.120000*%
G04 #@! TA.AperFunction,Profile*
%ADD14C,0.050000*%
G04 #@! TD*
G04 APERTURE END LIST*
D10*
X150101333Y-108227504D02*
X150634667Y-107427504D01*
X150634667Y-108227504D02*
X150101333Y-107427504D01*
D11*
X145542857Y-103604704D02*
X145695238Y-103604704D01*
X145695238Y-103604704D02*
X145771428Y-103566609D01*
X145771428Y-103566609D02*
X145847619Y-103490419D01*
X145847619Y-103490419D02*
X145885714Y-103338038D01*
X145885714Y-103338038D02*
X145885714Y-103071371D01*
X145885714Y-103071371D02*
X145847619Y-102918990D01*
X145847619Y-102918990D02*
X145771428Y-102842800D01*
X145771428Y-102842800D02*
X145695238Y-102804704D01*
X145695238Y-102804704D02*
X145542857Y-102804704D01*
X145542857Y-102804704D02*
X145466666Y-102842800D01*
X145466666Y-102842800D02*
X145390476Y-102918990D01*
X145390476Y-102918990D02*
X145352380Y-103071371D01*
X145352380Y-103071371D02*
X145352380Y-103338038D01*
X145352380Y-103338038D02*
X145390476Y-103490419D01*
X145390476Y-103490419D02*
X145466666Y-103566609D01*
X145466666Y-103566609D02*
X145542857Y-103604704D01*
X146114285Y-103338038D02*
X146419047Y-103338038D01*
X146228571Y-103604704D02*
X146228571Y-102918990D01*
X146228571Y-102918990D02*
X146266666Y-102842800D01*
X146266666Y-102842800D02*
X146342856Y-102804704D01*
X146342856Y-102804704D02*
X146419047Y-102804704D01*
X146685714Y-102804704D02*
X146685714Y-103604704D01*
X147028571Y-102804704D02*
X147028571Y-103223752D01*
X147028571Y-103223752D02*
X146990476Y-103299942D01*
X146990476Y-103299942D02*
X146914285Y-103338038D01*
X146914285Y-103338038D02*
X146799999Y-103338038D01*
X146799999Y-103338038D02*
X146723809Y-103299942D01*
X146723809Y-103299942D02*
X146685714Y-103261847D01*
X147714286Y-102842800D02*
X147638095Y-102804704D01*
X147638095Y-102804704D02*
X147485714Y-102804704D01*
X147485714Y-102804704D02*
X147409524Y-102842800D01*
X147409524Y-102842800D02*
X147371428Y-102918990D01*
X147371428Y-102918990D02*
X147371428Y-103223752D01*
X147371428Y-103223752D02*
X147409524Y-103299942D01*
X147409524Y-103299942D02*
X147485714Y-103338038D01*
X147485714Y-103338038D02*
X147638095Y-103338038D01*
X147638095Y-103338038D02*
X147714286Y-103299942D01*
X147714286Y-103299942D02*
X147752381Y-103223752D01*
X147752381Y-103223752D02*
X147752381Y-103147561D01*
X147752381Y-103147561D02*
X147371428Y-103071371D01*
X148095238Y-102804704D02*
X148095238Y-103338038D01*
X148095238Y-103185657D02*
X148133333Y-103261847D01*
X148133333Y-103261847D02*
X148171428Y-103299942D01*
X148171428Y-103299942D02*
X148247619Y-103338038D01*
X148247619Y-103338038D02*
X148323809Y-103338038D01*
D10*
X147675676Y-108227504D02*
X148170914Y-108227504D01*
X148170914Y-108227504D02*
X147904248Y-107922742D01*
X147904248Y-107922742D02*
X148018533Y-107922742D01*
X148018533Y-107922742D02*
X148094724Y-107884647D01*
X148094724Y-107884647D02*
X148132819Y-107846552D01*
X148132819Y-107846552D02*
X148170914Y-107770361D01*
X148170914Y-107770361D02*
X148170914Y-107579885D01*
X148170914Y-107579885D02*
X148132819Y-107503695D01*
X148132819Y-107503695D02*
X148094724Y-107465600D01*
X148094724Y-107465600D02*
X148018533Y-107427504D01*
X148018533Y-107427504D02*
X147789962Y-107427504D01*
X147789962Y-107427504D02*
X147713771Y-107465600D01*
X147713771Y-107465600D02*
X147675676Y-107503695D01*
X148399486Y-108227504D02*
X148666153Y-107427504D01*
X148666153Y-107427504D02*
X148932819Y-108227504D01*
X149326600Y-103033257D02*
X149326600Y-102652304D01*
X149059933Y-103452304D02*
X149326600Y-103033257D01*
X149326600Y-103033257D02*
X149593266Y-103452304D01*
X150749075Y-102563400D02*
X150863361Y-102525304D01*
X150863361Y-102525304D02*
X151053837Y-102525304D01*
X151053837Y-102525304D02*
X151130028Y-102563400D01*
X151130028Y-102563400D02*
X151168123Y-102601495D01*
X151168123Y-102601495D02*
X151206218Y-102677685D01*
X151206218Y-102677685D02*
X151206218Y-102753876D01*
X151206218Y-102753876D02*
X151168123Y-102830066D01*
X151168123Y-102830066D02*
X151130028Y-102868161D01*
X151130028Y-102868161D02*
X151053837Y-102906257D01*
X151053837Y-102906257D02*
X150901456Y-102944352D01*
X150901456Y-102944352D02*
X150825266Y-102982447D01*
X150825266Y-102982447D02*
X150787171Y-103020542D01*
X150787171Y-103020542D02*
X150749075Y-103096733D01*
X150749075Y-103096733D02*
X150749075Y-103172923D01*
X150749075Y-103172923D02*
X150787171Y-103249114D01*
X150787171Y-103249114D02*
X150825266Y-103287209D01*
X150825266Y-103287209D02*
X150901456Y-103325304D01*
X150901456Y-103325304D02*
X151091933Y-103325304D01*
X151091933Y-103325304D02*
X151206218Y-103287209D01*
X151510980Y-103249114D02*
X151549076Y-103287209D01*
X151549076Y-103287209D02*
X151625266Y-103325304D01*
X151625266Y-103325304D02*
X151815742Y-103325304D01*
X151815742Y-103325304D02*
X151891933Y-103287209D01*
X151891933Y-103287209D02*
X151930028Y-103249114D01*
X151930028Y-103249114D02*
X151968123Y-103172923D01*
X151968123Y-103172923D02*
X151968123Y-103096733D01*
X151968123Y-103096733D02*
X151930028Y-102982447D01*
X151930028Y-102982447D02*
X151472885Y-102525304D01*
X151472885Y-102525304D02*
X151968123Y-102525304D01*
X151790475Y-107465600D02*
X151904761Y-107427504D01*
X151904761Y-107427504D02*
X152095237Y-107427504D01*
X152095237Y-107427504D02*
X152171428Y-107465600D01*
X152171428Y-107465600D02*
X152209523Y-107503695D01*
X152209523Y-107503695D02*
X152247618Y-107579885D01*
X152247618Y-107579885D02*
X152247618Y-107656076D01*
X152247618Y-107656076D02*
X152209523Y-107732266D01*
X152209523Y-107732266D02*
X152171428Y-107770361D01*
X152171428Y-107770361D02*
X152095237Y-107808457D01*
X152095237Y-107808457D02*
X151942856Y-107846552D01*
X151942856Y-107846552D02*
X151866666Y-107884647D01*
X151866666Y-107884647D02*
X151828571Y-107922742D01*
X151828571Y-107922742D02*
X151790475Y-107998933D01*
X151790475Y-107998933D02*
X151790475Y-108075123D01*
X151790475Y-108075123D02*
X151828571Y-108151314D01*
X151828571Y-108151314D02*
X151866666Y-108189409D01*
X151866666Y-108189409D02*
X151942856Y-108227504D01*
X151942856Y-108227504D02*
X152133333Y-108227504D01*
X152133333Y-108227504D02*
X152247618Y-108189409D01*
X153009523Y-107427504D02*
X152552380Y-107427504D01*
X152780952Y-107427504D02*
X152780952Y-108227504D01*
X152780952Y-108227504D02*
X152704761Y-108113219D01*
X152704761Y-108113219D02*
X152628571Y-108037028D01*
X152628571Y-108037028D02*
X152552380Y-107998933D01*
D11*
X153917713Y-108189409D02*
X153841523Y-108227504D01*
X153841523Y-108227504D02*
X153727237Y-108227504D01*
X153727237Y-108227504D02*
X153612951Y-108189409D01*
X153612951Y-108189409D02*
X153536761Y-108113219D01*
X153536761Y-108113219D02*
X153498666Y-108037028D01*
X153498666Y-108037028D02*
X153460570Y-107884647D01*
X153460570Y-107884647D02*
X153460570Y-107770361D01*
X153460570Y-107770361D02*
X153498666Y-107617980D01*
X153498666Y-107617980D02*
X153536761Y-107541790D01*
X153536761Y-107541790D02*
X153612951Y-107465600D01*
X153612951Y-107465600D02*
X153727237Y-107427504D01*
X153727237Y-107427504D02*
X153803428Y-107427504D01*
X153803428Y-107427504D02*
X153917713Y-107465600D01*
X153917713Y-107465600D02*
X153955809Y-107503695D01*
X153955809Y-107503695D02*
X153955809Y-107770361D01*
X153955809Y-107770361D02*
X153803428Y-107770361D01*
X154298666Y-107960838D02*
X154298666Y-107427504D01*
X154298666Y-107884647D02*
X154336761Y-107922742D01*
X154336761Y-107922742D02*
X154412951Y-107960838D01*
X154412951Y-107960838D02*
X154527237Y-107960838D01*
X154527237Y-107960838D02*
X154603428Y-107922742D01*
X154603428Y-107922742D02*
X154641523Y-107846552D01*
X154641523Y-107846552D02*
X154641523Y-107427504D01*
X155365333Y-107427504D02*
X155365333Y-108227504D01*
X155365333Y-107465600D02*
X155289142Y-107427504D01*
X155289142Y-107427504D02*
X155136761Y-107427504D01*
X155136761Y-107427504D02*
X155060571Y-107465600D01*
X155060571Y-107465600D02*
X155022476Y-107503695D01*
X155022476Y-107503695D02*
X154984380Y-107579885D01*
X154984380Y-107579885D02*
X154984380Y-107808457D01*
X154984380Y-107808457D02*
X155022476Y-107884647D01*
X155022476Y-107884647D02*
X155060571Y-107922742D01*
X155060571Y-107922742D02*
X155136761Y-107960838D01*
X155136761Y-107960838D02*
X155289142Y-107960838D01*
X155289142Y-107960838D02*
X155365333Y-107922742D01*
D10*
X153416019Y-103299904D02*
X153035067Y-103299904D01*
X153035067Y-103299904D02*
X152996971Y-102918952D01*
X152996971Y-102918952D02*
X153035067Y-102957047D01*
X153035067Y-102957047D02*
X153111257Y-102995142D01*
X153111257Y-102995142D02*
X153301733Y-102995142D01*
X153301733Y-102995142D02*
X153377924Y-102957047D01*
X153377924Y-102957047D02*
X153416019Y-102918952D01*
X153416019Y-102918952D02*
X153454114Y-102842761D01*
X153454114Y-102842761D02*
X153454114Y-102652285D01*
X153454114Y-102652285D02*
X153416019Y-102576095D01*
X153416019Y-102576095D02*
X153377924Y-102538000D01*
X153377924Y-102538000D02*
X153301733Y-102499904D01*
X153301733Y-102499904D02*
X153111257Y-102499904D01*
X153111257Y-102499904D02*
X153035067Y-102538000D01*
X153035067Y-102538000D02*
X152996971Y-102576095D01*
X153682686Y-103299904D02*
X153949353Y-102499904D01*
X153949353Y-102499904D02*
X154216019Y-103299904D01*
D12*
X151312476Y-99014619D02*
X151883904Y-99014619D01*
X151598190Y-99014619D02*
X151598190Y-98014619D01*
X151598190Y-98014619D02*
X151693428Y-98157476D01*
X151693428Y-98157476D02*
X151788666Y-98252714D01*
X151788666Y-98252714D02*
X151883904Y-98300333D01*
X150693428Y-98014619D02*
X150598190Y-98014619D01*
X150598190Y-98014619D02*
X150502952Y-98062238D01*
X150502952Y-98062238D02*
X150455333Y-98109857D01*
X150455333Y-98109857D02*
X150407714Y-98205095D01*
X150407714Y-98205095D02*
X150360095Y-98395571D01*
X150360095Y-98395571D02*
X150360095Y-98633666D01*
X150360095Y-98633666D02*
X150407714Y-98824142D01*
X150407714Y-98824142D02*
X150455333Y-98919380D01*
X150455333Y-98919380D02*
X150502952Y-98967000D01*
X150502952Y-98967000D02*
X150598190Y-99014619D01*
X150598190Y-99014619D02*
X150693428Y-99014619D01*
X150693428Y-99014619D02*
X150788666Y-98967000D01*
X150788666Y-98967000D02*
X150836285Y-98919380D01*
X150836285Y-98919380D02*
X150883904Y-98824142D01*
X150883904Y-98824142D02*
X150931523Y-98633666D01*
X150931523Y-98633666D02*
X150931523Y-98395571D01*
X150931523Y-98395571D02*
X150883904Y-98205095D01*
X150883904Y-98205095D02*
X150836285Y-98109857D01*
X150836285Y-98109857D02*
X150788666Y-98062238D01*
X150788666Y-98062238D02*
X150693428Y-98014619D01*
X149931523Y-99014619D02*
X149931523Y-98014619D01*
X149360095Y-99014619D02*
X149788666Y-98443190D01*
X149360095Y-98014619D02*
X149931523Y-98586047D01*
D13*
X150849064Y-101065000D02*
X150394936Y-101065000D01*
X150849064Y-99595000D02*
X150394936Y-99595000D01*
D14*
X132588000Y-110680500D02*
G75*
G03*
X136652000Y-114744500I4064000J0D01*
G01*
X168402000Y-90678000D02*
X168402000Y-110680500D01*
X132588000Y-110680500D02*
X132588000Y-90678000D01*
X164338000Y-114744500D02*
X136652000Y-114744500D01*
X136652000Y-86614000D02*
G75*
G03*
X132588000Y-90678000I0J-4064000D01*
G01*
X164338000Y-86614000D02*
X136652000Y-86614000D01*
X168402000Y-90678000D02*
G75*
G03*
X164338000Y-86614000I-4064000J0D01*
G01*
X164338000Y-114744500D02*
G75*
G03*
X168402000Y-110680500I0J4064000D01*
G01*
M02*
