G04 #@! TF.GenerationSoftware,KiCad,Pcbnew,7.0.2*
G04 #@! TF.CreationDate,2023-08-07T19:28:33-05:00*
G04 #@! TF.ProjectId,JoystickBoard,4a6f7973-7469-4636-9b42-6f6172642e6b,rev?*
G04 #@! TF.SameCoordinates,Original*
G04 #@! TF.FileFunction,Legend,Top*
G04 #@! TF.FilePolarity,Positive*
%FSLAX46Y46*%
G04 Gerber Fmt 4.6, Leading zero omitted, Abs format (unit mm)*
G04 Created by KiCad (PCBNEW 7.0.2) date 2023-08-07 19:28:33*
%MOMM*%
%LPD*%
G01*
G04 APERTURE LIST*
%ADD10C,0.139700*%
%ADD11C,0.150000*%
%ADD12C,0.125000*%
%ADD13C,0.127000*%
%ADD14C,0.120000*%
G04 #@! TA.AperFunction,Profile*
%ADD15C,0.050000*%
G04 #@! TD*
G04 APERTURE END LIST*
D10*
X141914033Y-96643402D02*
X141829366Y-96601069D01*
X141829366Y-96601069D02*
X141702366Y-96601069D01*
X141702366Y-96601069D02*
X141575366Y-96643402D01*
X141575366Y-96643402D02*
X141490700Y-96728069D01*
X141490700Y-96728069D02*
X141448366Y-96812736D01*
X141448366Y-96812736D02*
X141406033Y-96982069D01*
X141406033Y-96982069D02*
X141406033Y-97109069D01*
X141406033Y-97109069D02*
X141448366Y-97278402D01*
X141448366Y-97278402D02*
X141490700Y-97363069D01*
X141490700Y-97363069D02*
X141575366Y-97447736D01*
X141575366Y-97447736D02*
X141702366Y-97490069D01*
X141702366Y-97490069D02*
X141787033Y-97490069D01*
X141787033Y-97490069D02*
X141914033Y-97447736D01*
X141914033Y-97447736D02*
X141956366Y-97405402D01*
X141956366Y-97405402D02*
X141956366Y-97109069D01*
X141956366Y-97109069D02*
X141787033Y-97109069D01*
X144589533Y-93397695D02*
X145122867Y-94197695D01*
X145122867Y-93397695D02*
X144589533Y-94197695D01*
X133760633Y-96592602D02*
X133675966Y-96550269D01*
X133675966Y-96550269D02*
X133548966Y-96550269D01*
X133548966Y-96550269D02*
X133421966Y-96592602D01*
X133421966Y-96592602D02*
X133337300Y-96677269D01*
X133337300Y-96677269D02*
X133294966Y-96761936D01*
X133294966Y-96761936D02*
X133252633Y-96931269D01*
X133252633Y-96931269D02*
X133252633Y-97058269D01*
X133252633Y-97058269D02*
X133294966Y-97227602D01*
X133294966Y-97227602D02*
X133337300Y-97312269D01*
X133337300Y-97312269D02*
X133421966Y-97396936D01*
X133421966Y-97396936D02*
X133548966Y-97439269D01*
X133548966Y-97439269D02*
X133633633Y-97439269D01*
X133633633Y-97439269D02*
X133760633Y-97396936D01*
X133760633Y-97396936D02*
X133802966Y-97354602D01*
X133802966Y-97354602D02*
X133802966Y-97058269D01*
X133802966Y-97058269D02*
X133633633Y-97058269D01*
D11*
X161379256Y-104745619D02*
X161379256Y-105459904D01*
X161379256Y-105459904D02*
X161331637Y-105602761D01*
X161331637Y-105602761D02*
X161236399Y-105698000D01*
X161236399Y-105698000D02*
X161093542Y-105745619D01*
X161093542Y-105745619D02*
X160998304Y-105745619D01*
X161998304Y-105745619D02*
X161903066Y-105698000D01*
X161903066Y-105698000D02*
X161855447Y-105650380D01*
X161855447Y-105650380D02*
X161807828Y-105555142D01*
X161807828Y-105555142D02*
X161807828Y-105269428D01*
X161807828Y-105269428D02*
X161855447Y-105174190D01*
X161855447Y-105174190D02*
X161903066Y-105126571D01*
X161903066Y-105126571D02*
X161998304Y-105078952D01*
X161998304Y-105078952D02*
X162141161Y-105078952D01*
X162141161Y-105078952D02*
X162236399Y-105126571D01*
X162236399Y-105126571D02*
X162284018Y-105174190D01*
X162284018Y-105174190D02*
X162331637Y-105269428D01*
X162331637Y-105269428D02*
X162331637Y-105555142D01*
X162331637Y-105555142D02*
X162284018Y-105650380D01*
X162284018Y-105650380D02*
X162236399Y-105698000D01*
X162236399Y-105698000D02*
X162141161Y-105745619D01*
X162141161Y-105745619D02*
X161998304Y-105745619D01*
X162664971Y-105078952D02*
X162903066Y-105745619D01*
X163141161Y-105078952D02*
X162903066Y-105745619D01*
X162903066Y-105745619D02*
X162807828Y-105983714D01*
X162807828Y-105983714D02*
X162760209Y-106031333D01*
X162760209Y-106031333D02*
X162664971Y-106078952D01*
X164855447Y-105745619D02*
X164522114Y-105269428D01*
X164284019Y-105745619D02*
X164284019Y-104745619D01*
X164284019Y-104745619D02*
X164664971Y-104745619D01*
X164664971Y-104745619D02*
X164760209Y-104793238D01*
X164760209Y-104793238D02*
X164807828Y-104840857D01*
X164807828Y-104840857D02*
X164855447Y-104936095D01*
X164855447Y-104936095D02*
X164855447Y-105078952D01*
X164855447Y-105078952D02*
X164807828Y-105174190D01*
X164807828Y-105174190D02*
X164760209Y-105221809D01*
X164760209Y-105221809D02*
X164664971Y-105269428D01*
X164664971Y-105269428D02*
X164284019Y-105269428D01*
X165664971Y-105698000D02*
X165569733Y-105745619D01*
X165569733Y-105745619D02*
X165379257Y-105745619D01*
X165379257Y-105745619D02*
X165284019Y-105698000D01*
X165284019Y-105698000D02*
X165236400Y-105602761D01*
X165236400Y-105602761D02*
X165236400Y-105221809D01*
X165236400Y-105221809D02*
X165284019Y-105126571D01*
X165284019Y-105126571D02*
X165379257Y-105078952D01*
X165379257Y-105078952D02*
X165569733Y-105078952D01*
X165569733Y-105078952D02*
X165664971Y-105126571D01*
X165664971Y-105126571D02*
X165712590Y-105221809D01*
X165712590Y-105221809D02*
X165712590Y-105317047D01*
X165712590Y-105317047D02*
X165236400Y-105412285D01*
X166045924Y-105078952D02*
X166284019Y-105745619D01*
X166284019Y-105745619D02*
X166522114Y-105078952D01*
X167331638Y-105078952D02*
X167331638Y-105745619D01*
X167093543Y-104698000D02*
X166855448Y-105412285D01*
X166855448Y-105412285D02*
X167474495Y-105412285D01*
D12*
X159804114Y-100916095D02*
X159423162Y-100916095D01*
X159423162Y-100916095D02*
X159385066Y-101297047D01*
X159385066Y-101297047D02*
X159423162Y-101258952D01*
X159423162Y-101258952D02*
X159499352Y-101220857D01*
X159499352Y-101220857D02*
X159689828Y-101220857D01*
X159689828Y-101220857D02*
X159766019Y-101258952D01*
X159766019Y-101258952D02*
X159804114Y-101297047D01*
X159804114Y-101297047D02*
X159842209Y-101373238D01*
X159842209Y-101373238D02*
X159842209Y-101563714D01*
X159842209Y-101563714D02*
X159804114Y-101639904D01*
X159804114Y-101639904D02*
X159766019Y-101678000D01*
X159766019Y-101678000D02*
X159689828Y-101716095D01*
X159689828Y-101716095D02*
X159499352Y-101716095D01*
X159499352Y-101716095D02*
X159423162Y-101678000D01*
X159423162Y-101678000D02*
X159385066Y-101639904D01*
X160108876Y-101182761D02*
X160299352Y-101716095D01*
X160299352Y-101716095D02*
X160489829Y-101182761D01*
D10*
X167722523Y-96458390D02*
X167646333Y-96420295D01*
X167646333Y-96420295D02*
X167532047Y-96420295D01*
X167532047Y-96420295D02*
X167417761Y-96458390D01*
X167417761Y-96458390D02*
X167341571Y-96534580D01*
X167341571Y-96534580D02*
X167303476Y-96610771D01*
X167303476Y-96610771D02*
X167265380Y-96763152D01*
X167265380Y-96763152D02*
X167265380Y-96877438D01*
X167265380Y-96877438D02*
X167303476Y-97029819D01*
X167303476Y-97029819D02*
X167341571Y-97106009D01*
X167341571Y-97106009D02*
X167417761Y-97182200D01*
X167417761Y-97182200D02*
X167532047Y-97220295D01*
X167532047Y-97220295D02*
X167608238Y-97220295D01*
X167608238Y-97220295D02*
X167722523Y-97182200D01*
X167722523Y-97182200D02*
X167760619Y-97144104D01*
X167760619Y-97144104D02*
X167760619Y-96877438D01*
X167760619Y-96877438D02*
X167608238Y-96877438D01*
X142449523Y-93435790D02*
X142373333Y-93397695D01*
X142373333Y-93397695D02*
X142259047Y-93397695D01*
X142259047Y-93397695D02*
X142144761Y-93435790D01*
X142144761Y-93435790D02*
X142068571Y-93511980D01*
X142068571Y-93511980D02*
X142030476Y-93588171D01*
X142030476Y-93588171D02*
X141992380Y-93740552D01*
X141992380Y-93740552D02*
X141992380Y-93854838D01*
X141992380Y-93854838D02*
X142030476Y-94007219D01*
X142030476Y-94007219D02*
X142068571Y-94083409D01*
X142068571Y-94083409D02*
X142144761Y-94159600D01*
X142144761Y-94159600D02*
X142259047Y-94197695D01*
X142259047Y-94197695D02*
X142335238Y-94197695D01*
X142335238Y-94197695D02*
X142449523Y-94159600D01*
X142449523Y-94159600D02*
X142487619Y-94121504D01*
X142487619Y-94121504D02*
X142487619Y-93854838D01*
X142487619Y-93854838D02*
X142335238Y-93854838D01*
X158292876Y-93524695D02*
X158788114Y-93524695D01*
X158788114Y-93524695D02*
X158521448Y-93829457D01*
X158521448Y-93829457D02*
X158635733Y-93829457D01*
X158635733Y-93829457D02*
X158711924Y-93867552D01*
X158711924Y-93867552D02*
X158750019Y-93905647D01*
X158750019Y-93905647D02*
X158788114Y-93981838D01*
X158788114Y-93981838D02*
X158788114Y-94172314D01*
X158788114Y-94172314D02*
X158750019Y-94248504D01*
X158750019Y-94248504D02*
X158711924Y-94286600D01*
X158711924Y-94286600D02*
X158635733Y-94324695D01*
X158635733Y-94324695D02*
X158407162Y-94324695D01*
X158407162Y-94324695D02*
X158330971Y-94286600D01*
X158330971Y-94286600D02*
X158292876Y-94248504D01*
X159016686Y-93524695D02*
X159283353Y-94324695D01*
X159283353Y-94324695D02*
X159550019Y-93524695D01*
X153854123Y-93664390D02*
X153777933Y-93626295D01*
X153777933Y-93626295D02*
X153663647Y-93626295D01*
X153663647Y-93626295D02*
X153549361Y-93664390D01*
X153549361Y-93664390D02*
X153473171Y-93740580D01*
X153473171Y-93740580D02*
X153435076Y-93816771D01*
X153435076Y-93816771D02*
X153396980Y-93969152D01*
X153396980Y-93969152D02*
X153396980Y-94083438D01*
X153396980Y-94083438D02*
X153435076Y-94235819D01*
X153435076Y-94235819D02*
X153473171Y-94312009D01*
X153473171Y-94312009D02*
X153549361Y-94388200D01*
X153549361Y-94388200D02*
X153663647Y-94426295D01*
X153663647Y-94426295D02*
X153739838Y-94426295D01*
X153739838Y-94426295D02*
X153854123Y-94388200D01*
X153854123Y-94388200D02*
X153892219Y-94350104D01*
X153892219Y-94350104D02*
X153892219Y-94083438D01*
X153892219Y-94083438D02*
X153739838Y-94083438D01*
X156311600Y-94045342D02*
X156311600Y-94426295D01*
X156044933Y-93626295D02*
X156311600Y-94045342D01*
X156311600Y-94045342D02*
X156578266Y-93626295D01*
X158984923Y-96458390D02*
X158908733Y-96420295D01*
X158908733Y-96420295D02*
X158794447Y-96420295D01*
X158794447Y-96420295D02*
X158680161Y-96458390D01*
X158680161Y-96458390D02*
X158603971Y-96534580D01*
X158603971Y-96534580D02*
X158565876Y-96610771D01*
X158565876Y-96610771D02*
X158527780Y-96763152D01*
X158527780Y-96763152D02*
X158527780Y-96877438D01*
X158527780Y-96877438D02*
X158565876Y-97029819D01*
X158565876Y-97029819D02*
X158603971Y-97106009D01*
X158603971Y-97106009D02*
X158680161Y-97182200D01*
X158680161Y-97182200D02*
X158794447Y-97220295D01*
X158794447Y-97220295D02*
X158870638Y-97220295D01*
X158870638Y-97220295D02*
X158984923Y-97182200D01*
X158984923Y-97182200D02*
X159023019Y-97144104D01*
X159023019Y-97144104D02*
X159023019Y-96877438D01*
X159023019Y-96877438D02*
X158870638Y-96877438D01*
X146786676Y-93423095D02*
X147281914Y-93423095D01*
X147281914Y-93423095D02*
X147015248Y-93727857D01*
X147015248Y-93727857D02*
X147129533Y-93727857D01*
X147129533Y-93727857D02*
X147205724Y-93765952D01*
X147205724Y-93765952D02*
X147243819Y-93804047D01*
X147243819Y-93804047D02*
X147281914Y-93880238D01*
X147281914Y-93880238D02*
X147281914Y-94070714D01*
X147281914Y-94070714D02*
X147243819Y-94146904D01*
X147243819Y-94146904D02*
X147205724Y-94185000D01*
X147205724Y-94185000D02*
X147129533Y-94223095D01*
X147129533Y-94223095D02*
X146900962Y-94223095D01*
X146900962Y-94223095D02*
X146824771Y-94185000D01*
X146824771Y-94185000D02*
X146786676Y-94146904D01*
X147510486Y-93423095D02*
X147777153Y-94223095D01*
X147777153Y-94223095D02*
X148043819Y-93423095D01*
D13*
X141742885Y-99522069D02*
X141440504Y-99522069D01*
X141440504Y-99522069D02*
X141410266Y-99945402D01*
X141410266Y-99945402D02*
X141440504Y-99903069D01*
X141440504Y-99903069D02*
X141500980Y-99860736D01*
X141500980Y-99860736D02*
X141652171Y-99860736D01*
X141652171Y-99860736D02*
X141712647Y-99903069D01*
X141712647Y-99903069D02*
X141742885Y-99945402D01*
X141742885Y-99945402D02*
X141773123Y-100030069D01*
X141773123Y-100030069D02*
X141773123Y-100241736D01*
X141773123Y-100241736D02*
X141742885Y-100326402D01*
X141742885Y-100326402D02*
X141712647Y-100368736D01*
X141712647Y-100368736D02*
X141652171Y-100411069D01*
X141652171Y-100411069D02*
X141500980Y-100411069D01*
X141500980Y-100411069D02*
X141440504Y-100368736D01*
X141440504Y-100368736D02*
X141410266Y-100326402D01*
X141984790Y-99818402D02*
X142135980Y-100411069D01*
X142135980Y-100411069D02*
X142287171Y-99818402D01*
D10*
X139128500Y-102773269D02*
X138705166Y-102773269D01*
X138705166Y-102773269D02*
X138705166Y-101884269D01*
X139424833Y-102307602D02*
X139721167Y-102307602D01*
X139848167Y-102773269D02*
X139424833Y-102773269D01*
X139424833Y-102773269D02*
X139424833Y-101884269D01*
X139424833Y-101884269D02*
X139848167Y-101884269D01*
X140229166Y-102773269D02*
X140229166Y-101884269D01*
X140229166Y-101884269D02*
X140440833Y-101884269D01*
X140440833Y-101884269D02*
X140567833Y-101926602D01*
X140567833Y-101926602D02*
X140652500Y-102011269D01*
X140652500Y-102011269D02*
X140694833Y-102095936D01*
X140694833Y-102095936D02*
X140737166Y-102265269D01*
X140737166Y-102265269D02*
X140737166Y-102392269D01*
X140737166Y-102392269D02*
X140694833Y-102561602D01*
X140694833Y-102561602D02*
X140652500Y-102646269D01*
X140652500Y-102646269D02*
X140567833Y-102730936D01*
X140567833Y-102730936D02*
X140440833Y-102773269D01*
X140440833Y-102773269D02*
X140229166Y-102773269D01*
D11*
X150466466Y-109312539D02*
X150466466Y-110026824D01*
X150466466Y-110026824D02*
X150418847Y-110169681D01*
X150418847Y-110169681D02*
X150323609Y-110264920D01*
X150323609Y-110264920D02*
X150180752Y-110312539D01*
X150180752Y-110312539D02*
X150085514Y-110312539D01*
X151466466Y-110312539D02*
X150895038Y-110312539D01*
X151180752Y-110312539D02*
X151180752Y-109312539D01*
X151180752Y-109312539D02*
X151085514Y-109455396D01*
X151085514Y-109455396D02*
X150990276Y-109550634D01*
X150990276Y-109550634D02*
X150895038Y-109598253D01*
X143867333Y-87854619D02*
X143867333Y-88568904D01*
X143867333Y-88568904D02*
X143819714Y-88711761D01*
X143819714Y-88711761D02*
X143724476Y-88807000D01*
X143724476Y-88807000D02*
X143581619Y-88854619D01*
X143581619Y-88854619D02*
X143486381Y-88854619D01*
X144486381Y-88854619D02*
X144391143Y-88807000D01*
X144391143Y-88807000D02*
X144343524Y-88759380D01*
X144343524Y-88759380D02*
X144295905Y-88664142D01*
X144295905Y-88664142D02*
X144295905Y-88378428D01*
X144295905Y-88378428D02*
X144343524Y-88283190D01*
X144343524Y-88283190D02*
X144391143Y-88235571D01*
X144391143Y-88235571D02*
X144486381Y-88187952D01*
X144486381Y-88187952D02*
X144629238Y-88187952D01*
X144629238Y-88187952D02*
X144724476Y-88235571D01*
X144724476Y-88235571D02*
X144772095Y-88283190D01*
X144772095Y-88283190D02*
X144819714Y-88378428D01*
X144819714Y-88378428D02*
X144819714Y-88664142D01*
X144819714Y-88664142D02*
X144772095Y-88759380D01*
X144772095Y-88759380D02*
X144724476Y-88807000D01*
X144724476Y-88807000D02*
X144629238Y-88854619D01*
X144629238Y-88854619D02*
X144486381Y-88854619D01*
X145153048Y-88187952D02*
X145391143Y-88854619D01*
X145629238Y-88187952D02*
X145391143Y-88854619D01*
X145391143Y-88854619D02*
X145295905Y-89092714D01*
X145295905Y-89092714D02*
X145248286Y-89140333D01*
X145248286Y-89140333D02*
X145153048Y-89187952D01*
X145914953Y-87854619D02*
X146581619Y-88854619D01*
X146581619Y-87854619D02*
X145914953Y-88854619D01*
X160647142Y-102824619D02*
X160170952Y-102824619D01*
X160170952Y-102824619D02*
X160170952Y-101824619D01*
X160980476Y-102300809D02*
X161313809Y-102300809D01*
X161456666Y-102824619D02*
X160980476Y-102824619D01*
X160980476Y-102824619D02*
X160980476Y-101824619D01*
X160980476Y-101824619D02*
X161456666Y-101824619D01*
X161885238Y-102824619D02*
X161885238Y-101824619D01*
X161885238Y-101824619D02*
X162123333Y-101824619D01*
X162123333Y-101824619D02*
X162266190Y-101872238D01*
X162266190Y-101872238D02*
X162361428Y-101967476D01*
X162361428Y-101967476D02*
X162409047Y-102062714D01*
X162409047Y-102062714D02*
X162456666Y-102253190D01*
X162456666Y-102253190D02*
X162456666Y-102396047D01*
X162456666Y-102396047D02*
X162409047Y-102586523D01*
X162409047Y-102586523D02*
X162361428Y-102681761D01*
X162361428Y-102681761D02*
X162266190Y-102777000D01*
X162266190Y-102777000D02*
X162123333Y-102824619D01*
X162123333Y-102824619D02*
X161885238Y-102824619D01*
X164338095Y-102777000D02*
X164480952Y-102824619D01*
X164480952Y-102824619D02*
X164719047Y-102824619D01*
X164719047Y-102824619D02*
X164814285Y-102777000D01*
X164814285Y-102777000D02*
X164861904Y-102729380D01*
X164861904Y-102729380D02*
X164909523Y-102634142D01*
X164909523Y-102634142D02*
X164909523Y-102538904D01*
X164909523Y-102538904D02*
X164861904Y-102443666D01*
X164861904Y-102443666D02*
X164814285Y-102396047D01*
X164814285Y-102396047D02*
X164719047Y-102348428D01*
X164719047Y-102348428D02*
X164528571Y-102300809D01*
X164528571Y-102300809D02*
X164433333Y-102253190D01*
X164433333Y-102253190D02*
X164385714Y-102205571D01*
X164385714Y-102205571D02*
X164338095Y-102110333D01*
X164338095Y-102110333D02*
X164338095Y-102015095D01*
X164338095Y-102015095D02*
X164385714Y-101919857D01*
X164385714Y-101919857D02*
X164433333Y-101872238D01*
X164433333Y-101872238D02*
X164528571Y-101824619D01*
X164528571Y-101824619D02*
X164766666Y-101824619D01*
X164766666Y-101824619D02*
X164909523Y-101872238D01*
X165290476Y-101919857D02*
X165338095Y-101872238D01*
X165338095Y-101872238D02*
X165433333Y-101824619D01*
X165433333Y-101824619D02*
X165671428Y-101824619D01*
X165671428Y-101824619D02*
X165766666Y-101872238D01*
X165766666Y-101872238D02*
X165814285Y-101919857D01*
X165814285Y-101919857D02*
X165861904Y-102015095D01*
X165861904Y-102015095D02*
X165861904Y-102110333D01*
X165861904Y-102110333D02*
X165814285Y-102253190D01*
X165814285Y-102253190D02*
X165242857Y-102824619D01*
X165242857Y-102824619D02*
X165861904Y-102824619D01*
X155090952Y-87854619D02*
X155090952Y-88568904D01*
X155090952Y-88568904D02*
X155043333Y-88711761D01*
X155043333Y-88711761D02*
X154948095Y-88807000D01*
X154948095Y-88807000D02*
X154805238Y-88854619D01*
X154805238Y-88854619D02*
X154710000Y-88854619D01*
X155710000Y-88854619D02*
X155614762Y-88807000D01*
X155614762Y-88807000D02*
X155567143Y-88759380D01*
X155567143Y-88759380D02*
X155519524Y-88664142D01*
X155519524Y-88664142D02*
X155519524Y-88378428D01*
X155519524Y-88378428D02*
X155567143Y-88283190D01*
X155567143Y-88283190D02*
X155614762Y-88235571D01*
X155614762Y-88235571D02*
X155710000Y-88187952D01*
X155710000Y-88187952D02*
X155852857Y-88187952D01*
X155852857Y-88187952D02*
X155948095Y-88235571D01*
X155948095Y-88235571D02*
X155995714Y-88283190D01*
X155995714Y-88283190D02*
X156043333Y-88378428D01*
X156043333Y-88378428D02*
X156043333Y-88664142D01*
X156043333Y-88664142D02*
X155995714Y-88759380D01*
X155995714Y-88759380D02*
X155948095Y-88807000D01*
X155948095Y-88807000D02*
X155852857Y-88854619D01*
X155852857Y-88854619D02*
X155710000Y-88854619D01*
X156376667Y-88187952D02*
X156614762Y-88854619D01*
X156852857Y-88187952D02*
X156614762Y-88854619D01*
X156614762Y-88854619D02*
X156519524Y-89092714D01*
X156519524Y-89092714D02*
X156471905Y-89140333D01*
X156471905Y-89140333D02*
X156376667Y-89187952D01*
X157424286Y-88378428D02*
X157424286Y-88854619D01*
X157090953Y-87854619D02*
X157424286Y-88378428D01*
X157424286Y-88378428D02*
X157757619Y-87854619D01*
X135128095Y-102777000D02*
X135270952Y-102824619D01*
X135270952Y-102824619D02*
X135509047Y-102824619D01*
X135509047Y-102824619D02*
X135604285Y-102777000D01*
X135604285Y-102777000D02*
X135651904Y-102729380D01*
X135651904Y-102729380D02*
X135699523Y-102634142D01*
X135699523Y-102634142D02*
X135699523Y-102538904D01*
X135699523Y-102538904D02*
X135651904Y-102443666D01*
X135651904Y-102443666D02*
X135604285Y-102396047D01*
X135604285Y-102396047D02*
X135509047Y-102348428D01*
X135509047Y-102348428D02*
X135318571Y-102300809D01*
X135318571Y-102300809D02*
X135223333Y-102253190D01*
X135223333Y-102253190D02*
X135175714Y-102205571D01*
X135175714Y-102205571D02*
X135128095Y-102110333D01*
X135128095Y-102110333D02*
X135128095Y-102015095D01*
X135128095Y-102015095D02*
X135175714Y-101919857D01*
X135175714Y-101919857D02*
X135223333Y-101872238D01*
X135223333Y-101872238D02*
X135318571Y-101824619D01*
X135318571Y-101824619D02*
X135556666Y-101824619D01*
X135556666Y-101824619D02*
X135699523Y-101872238D01*
X136651904Y-102824619D02*
X136080476Y-102824619D01*
X136366190Y-102824619D02*
X136366190Y-101824619D01*
X136366190Y-101824619D02*
X136270952Y-101967476D01*
X136270952Y-101967476D02*
X136175714Y-102062714D01*
X136175714Y-102062714D02*
X136080476Y-102110333D01*
D14*
X138370000Y-95745001D02*
X139700000Y-95745001D01*
X138370000Y-97075001D02*
X138370000Y-95745001D01*
X138370000Y-98345001D02*
X138370000Y-100945001D01*
X138370000Y-98345001D02*
X141030000Y-98345001D01*
X138370000Y-100945001D02*
X141030000Y-100945001D01*
X141030000Y-98345001D02*
X141030000Y-100945001D01*
X142672460Y-98762820D02*
X142672460Y-104775000D01*
X142672460Y-98762820D02*
X159082460Y-98762820D01*
X142672460Y-114002820D02*
X159082460Y-114002820D01*
X142674340Y-107271820D02*
X142672460Y-114002820D01*
X150835360Y-113451640D02*
X151274780Y-113451640D01*
X151048720Y-113019840D02*
X150835360Y-113451640D01*
X151274780Y-113451640D02*
X151048720Y-113019840D01*
X159082460Y-98762820D02*
X159082460Y-104775000D01*
X159084340Y-107271820D02*
X159082460Y-114002820D01*
X140910000Y-92770000D02*
X140910000Y-91440000D01*
X142240000Y-92770000D02*
X140910000Y-92770000D01*
X143510000Y-92770000D02*
X148650000Y-92770000D01*
X143510000Y-92770000D02*
X143510000Y-90110000D01*
X148650000Y-92770000D02*
X148650000Y-90110000D01*
X143510000Y-90110000D02*
X148650000Y-90110000D01*
X159960000Y-95745001D02*
X161290000Y-95745001D01*
X159960000Y-97075001D02*
X159960000Y-95745001D01*
X159960000Y-98345001D02*
X159960000Y-100945001D01*
X159960000Y-98345001D02*
X162620000Y-98345001D01*
X159960000Y-100945001D02*
X162620000Y-100945001D01*
X162620000Y-98345001D02*
X162620000Y-100945001D01*
X163770000Y-95745001D02*
X165100000Y-95745001D01*
X163770000Y-97075001D02*
X163770000Y-95745001D01*
X163770000Y-98345001D02*
X163770000Y-100945001D01*
X163770000Y-98345001D02*
X166430000Y-98345001D01*
X163770000Y-100945001D02*
X166430000Y-100945001D01*
X166430000Y-98345001D02*
X166430000Y-100945001D01*
X154940000Y-90110000D02*
X160080000Y-90110000D01*
X160080000Y-92770000D02*
X160080000Y-90110000D01*
X154940000Y-92770000D02*
X154940000Y-90110000D01*
X154940000Y-92770000D02*
X160080000Y-92770000D01*
X153670000Y-92770000D02*
X152340000Y-92770000D01*
X152340000Y-92770000D02*
X152340000Y-91440000D01*
X134560000Y-95745001D02*
X135890000Y-95745001D01*
X134560000Y-97075001D02*
X134560000Y-95745001D01*
X134560000Y-98345001D02*
X134560000Y-100945001D01*
X134560000Y-98345001D02*
X137220000Y-98345001D01*
X134560000Y-100945001D02*
X137220000Y-100945001D01*
X137220000Y-98345001D02*
X137220000Y-100945001D01*
D15*
X132588000Y-110680500D02*
G75*
G03*
X136652000Y-114744500I4064000J0D01*
G01*
X168402000Y-90678000D02*
X168402000Y-110680500D01*
X132588000Y-110680500D02*
X132588000Y-90678000D01*
X164338000Y-114744500D02*
X136652000Y-114744500D01*
X136652000Y-86614000D02*
G75*
G03*
X132588000Y-90678000I0J-4064000D01*
G01*
X164338000Y-86614000D02*
X136652000Y-86614000D01*
X168402000Y-90678000D02*
G75*
G03*
X164338000Y-86614000I-4064000J0D01*
G01*
X164338000Y-114744500D02*
G75*
G03*
X168402000Y-110680500I0J4064000D01*
G01*
M02*
