G04 #@! TF.GenerationSoftware,KiCad,Pcbnew,7.0.2*
G04 #@! TF.CreationDate,2023-08-07T19:28:33-05:00*
G04 #@! TF.ProjectId,JoystickBoard,4a6f7973-7469-4636-9b42-6f6172642e6b,rev?*
G04 #@! TF.SameCoordinates,Original*
G04 #@! TF.FileFunction,Copper,L2,Bot*
G04 #@! TF.FilePolarity,Positive*
%FSLAX46Y46*%
G04 Gerber Fmt 4.6, Leading zero omitted, Abs format (unit mm)*
G04 Created by KiCad (PCBNEW 7.0.2) date 2023-08-07 19:28:33*
%MOMM*%
%LPD*%
G01*
G04 APERTURE LIST*
G04 Aperture macros list*
%AMRoundRect*
0 Rectangle with rounded corners*
0 $1 Rounding radius*
0 $2 $3 $4 $5 $6 $7 $8 $9 X,Y pos of 4 corners*
0 Add a 4 corners polygon primitive as box body*
4,1,4,$2,$3,$4,$5,$6,$7,$8,$9,$2,$3,0*
0 Add four circle primitives for the rounded corners*
1,1,$1+$1,$2,$3*
1,1,$1+$1,$4,$5*
1,1,$1+$1,$6,$7*
1,1,$1+$1,$8,$9*
0 Add four rect primitives between the rounded corners*
20,1,$1+$1,$2,$3,$4,$5,0*
20,1,$1+$1,$4,$5,$6,$7,0*
20,1,$1+$1,$6,$7,$8,$9,0*
20,1,$1+$1,$8,$9,$2,$3,0*%
G04 Aperture macros list end*
G04 #@! TA.AperFunction,ComponentPad*
%ADD10R,1.700000X1.700000*%
G04 #@! TD*
G04 #@! TA.AperFunction,ComponentPad*
%ADD11O,1.700000X1.700000*%
G04 #@! TD*
G04 #@! TA.AperFunction,WasherPad*
%ADD12C,3.250000*%
G04 #@! TD*
G04 #@! TA.AperFunction,ComponentPad*
%ADD13R,1.500000X1.500000*%
G04 #@! TD*
G04 #@! TA.AperFunction,ComponentPad*
%ADD14C,1.500000*%
G04 #@! TD*
G04 #@! TA.AperFunction,ComponentPad*
%ADD15O,1.259000X2.362000*%
G04 #@! TD*
G04 #@! TA.AperFunction,SMDPad,CuDef*
%ADD16RoundRect,0.250000X0.350000X0.450000X-0.350000X0.450000X-0.350000X-0.450000X0.350000X-0.450000X0*%
G04 #@! TD*
G04 #@! TA.AperFunction,ViaPad*
%ADD17C,0.800000*%
G04 #@! TD*
G04 #@! TA.AperFunction,Conductor*
%ADD18C,0.250000*%
G04 #@! TD*
G04 #@! TA.AperFunction,Profile*
%ADD19C,0.050000*%
G04 #@! TD*
G04 APERTURE END LIST*
D10*
X139700000Y-97075001D03*
D11*
X139700000Y-99615001D03*
D12*
X144529080Y-108922820D03*
X157229080Y-108922820D03*
D13*
X154428380Y-106382820D03*
D14*
X153408380Y-104602820D03*
X152398380Y-106382820D03*
X151378380Y-104602820D03*
X150368380Y-106382820D03*
X149348380Y-104602820D03*
X148338380Y-106382820D03*
X147318380Y-104602820D03*
D15*
X142749080Y-106020870D03*
X159009080Y-106020870D03*
D10*
X142240000Y-91440000D03*
D11*
X144780000Y-91440000D03*
X147320000Y-91440000D03*
D10*
X161290000Y-97075001D03*
D11*
X161290000Y-99615001D03*
D10*
X165100000Y-97075001D03*
D11*
X165100000Y-99615001D03*
X158750000Y-91440000D03*
X156210000Y-91440000D03*
D10*
X153670000Y-91440000D03*
X135890000Y-97075001D03*
D11*
X135890000Y-99615001D03*
D16*
X151622000Y-100330000D03*
X149622000Y-100330000D03*
D17*
X163576000Y-103632000D03*
X157480000Y-113030000D03*
X156972000Y-95250000D03*
X148844000Y-94742000D03*
X140716000Y-112776000D03*
X150622000Y-88138000D03*
X153416000Y-100330000D03*
X138684000Y-103632000D03*
D18*
X151591200Y-100330000D02*
X151622000Y-100330000D01*
X147318380Y-104602820D02*
X151591200Y-100330000D01*
X147530820Y-106382820D02*
X148338380Y-106382820D01*
X149622000Y-100330000D02*
X146243380Y-103708620D01*
X146243380Y-105095380D02*
X147530820Y-106382820D01*
X146243380Y-103708620D02*
X146243380Y-105095380D01*
G04 #@! TA.AperFunction,Conductor*
G36*
X164340898Y-86639634D02*
G01*
X164704807Y-86656459D01*
X164716395Y-86657533D01*
X164816713Y-86671526D01*
X165074320Y-86707460D01*
X165085731Y-86709594D01*
X165437520Y-86792334D01*
X165448708Y-86795517D01*
X165791352Y-86910360D01*
X165802199Y-86914562D01*
X166132802Y-87060537D01*
X166143193Y-87065712D01*
X166458901Y-87241560D01*
X166468794Y-87247685D01*
X166766945Y-87451922D01*
X166776211Y-87458919D01*
X167054245Y-87689796D01*
X167062845Y-87697637D01*
X167318362Y-87953154D01*
X167326203Y-87961754D01*
X167557077Y-88239785D01*
X167564079Y-88249057D01*
X167643095Y-88364406D01*
X167768313Y-88547203D01*
X167774439Y-88557098D01*
X167950280Y-88872792D01*
X167955465Y-88883205D01*
X168003651Y-88992336D01*
X168101436Y-89213798D01*
X168105640Y-89224650D01*
X168220481Y-89567288D01*
X168223666Y-89578482D01*
X168306402Y-89930252D01*
X168308541Y-89941693D01*
X168358466Y-90299604D01*
X168359540Y-90311191D01*
X168370435Y-90546818D01*
X168376265Y-90672927D01*
X168376366Y-90675100D01*
X168376500Y-90680920D01*
X168376500Y-110677579D01*
X168376366Y-110683399D01*
X168359540Y-111047308D01*
X168358466Y-111058895D01*
X168308541Y-111416806D01*
X168306402Y-111428247D01*
X168223666Y-111780017D01*
X168220481Y-111791211D01*
X168105640Y-112133849D01*
X168101436Y-112144701D01*
X167955468Y-112475289D01*
X167950280Y-112485707D01*
X167774439Y-112801401D01*
X167768313Y-112811296D01*
X167564085Y-113109434D01*
X167557071Y-113118722D01*
X167326203Y-113396745D01*
X167318362Y-113405345D01*
X167062845Y-113660862D01*
X167054245Y-113668703D01*
X166776222Y-113899571D01*
X166766934Y-113906585D01*
X166468796Y-114110813D01*
X166458901Y-114116939D01*
X166143207Y-114292780D01*
X166132789Y-114297968D01*
X165802201Y-114443936D01*
X165791349Y-114448140D01*
X165448711Y-114562981D01*
X165437517Y-114566166D01*
X165085747Y-114648902D01*
X165074306Y-114651041D01*
X164716395Y-114700966D01*
X164704808Y-114702040D01*
X164352450Y-114718331D01*
X164340897Y-114718866D01*
X164335079Y-114719000D01*
X136654921Y-114719000D01*
X136649102Y-114718866D01*
X136637002Y-114718306D01*
X136285191Y-114702040D01*
X136273604Y-114700966D01*
X135915693Y-114651041D01*
X135904252Y-114648902D01*
X135552482Y-114566166D01*
X135541288Y-114562981D01*
X135198650Y-114448140D01*
X135187798Y-114443936D01*
X134966336Y-114346151D01*
X134857205Y-114297965D01*
X134846797Y-114292782D01*
X134688945Y-114204859D01*
X134531098Y-114116939D01*
X134521203Y-114110813D01*
X134423532Y-114043907D01*
X134223057Y-113906579D01*
X134213785Y-113899577D01*
X133935754Y-113668703D01*
X133927154Y-113660862D01*
X133671637Y-113405345D01*
X133663796Y-113396745D01*
X133580017Y-113295854D01*
X133432919Y-113118711D01*
X133425922Y-113109445D01*
X133221685Y-112811294D01*
X133215560Y-112801401D01*
X133039712Y-112485693D01*
X133034537Y-112475302D01*
X132888562Y-112144699D01*
X132884359Y-112133849D01*
X132882528Y-112128387D01*
X132769517Y-111791208D01*
X132766333Y-111780017D01*
X132764559Y-111772474D01*
X132683594Y-111428231D01*
X132681460Y-111416820D01*
X132631533Y-111058895D01*
X132630459Y-111047307D01*
X132619450Y-110809182D01*
X134887500Y-110809182D01*
X134926604Y-111068615D01*
X134926605Y-111068618D01*
X135003936Y-111319323D01*
X135117772Y-111555704D01*
X135265563Y-111772474D01*
X135265565Y-111772476D01*
X135265567Y-111772479D01*
X135444019Y-111964805D01*
X135649143Y-112128386D01*
X135876357Y-112259568D01*
X136120584Y-112355420D01*
X136376370Y-112413802D01*
X136572506Y-112428500D01*
X136574859Y-112428500D01*
X136701141Y-112428500D01*
X136703494Y-112428500D01*
X136899630Y-112413802D01*
X137155416Y-112355420D01*
X137399643Y-112259568D01*
X137626857Y-112128386D01*
X137831981Y-111964805D01*
X138010433Y-111772479D01*
X138158228Y-111555704D01*
X138272063Y-111319323D01*
X138349396Y-111068615D01*
X138388500Y-110809182D01*
X138388500Y-110546818D01*
X138349396Y-110287385D01*
X138272063Y-110036677D01*
X138268902Y-110030114D01*
X138217242Y-109922841D01*
X138158228Y-109800296D01*
X138010433Y-109583521D01*
X137831981Y-109391195D01*
X137626857Y-109227614D01*
X137399643Y-109096432D01*
X137399642Y-109096432D01*
X137155417Y-109000580D01*
X136899630Y-108942198D01*
X136705836Y-108927675D01*
X136705822Y-108927674D01*
X136703494Y-108927500D01*
X136572506Y-108927500D01*
X136570178Y-108927674D01*
X136570163Y-108927675D01*
X136376369Y-108942198D01*
X136120582Y-109000580D01*
X135876356Y-109096432D01*
X135665417Y-109218218D01*
X135649143Y-109227614D01*
X135444019Y-109391195D01*
X135305525Y-109540455D01*
X135265563Y-109583525D01*
X135117772Y-109800295D01*
X135003936Y-110036676D01*
X134930258Y-110275539D01*
X134926604Y-110287385D01*
X134887500Y-110546818D01*
X134887500Y-110809182D01*
X132619450Y-110809182D01*
X132613634Y-110683398D01*
X132613500Y-110677579D01*
X132613500Y-106624979D01*
X141611080Y-106624979D01*
X141625665Y-106782373D01*
X141625665Y-106782376D01*
X141625666Y-106782377D01*
X141683379Y-106985220D01*
X141777389Y-107174018D01*
X141817685Y-107227378D01*
X141904485Y-107342320D01*
X142060344Y-107484404D01*
X142239657Y-107595430D01*
X142436317Y-107671616D01*
X142577861Y-107698075D01*
X142641143Y-107730253D01*
X142676985Y-107791538D01*
X142674004Y-107862472D01*
X142666579Y-107879895D01*
X142567637Y-108070845D01*
X142566201Y-108074885D01*
X142566196Y-108074897D01*
X142471336Y-108341809D01*
X142471331Y-108341824D01*
X142469896Y-108345864D01*
X142469021Y-108350071D01*
X142469021Y-108350074D01*
X142411387Y-108627421D01*
X142411385Y-108627430D01*
X142410513Y-108631630D01*
X142390595Y-108922820D01*
X142410513Y-109214010D01*
X142411386Y-109218211D01*
X142411387Y-109218218D01*
X142462238Y-109462926D01*
X142469896Y-109499776D01*
X142471333Y-109503819D01*
X142471336Y-109503830D01*
X142566196Y-109770742D01*
X142566199Y-109770749D01*
X142567637Y-109774795D01*
X142701917Y-110033942D01*
X142704398Y-110037457D01*
X142704400Y-110037460D01*
X142867749Y-110268874D01*
X142867754Y-110268880D01*
X142870233Y-110272392D01*
X143069450Y-110485702D01*
X143295858Y-110669898D01*
X143545238Y-110821549D01*
X143812945Y-110937831D01*
X144093992Y-111016577D01*
X144383145Y-111056320D01*
X144387450Y-111056320D01*
X144670710Y-111056320D01*
X144675015Y-111056320D01*
X144964168Y-111016577D01*
X145245215Y-110937831D01*
X145512922Y-110821549D01*
X145762302Y-110669898D01*
X145988710Y-110485702D01*
X146187927Y-110272392D01*
X146356243Y-110033942D01*
X146490523Y-109774795D01*
X146588264Y-109499776D01*
X146647647Y-109214010D01*
X146667565Y-108922820D01*
X146647647Y-108631630D01*
X146588264Y-108345864D01*
X146490523Y-108070845D01*
X146356243Y-107811698D01*
X146241049Y-107648505D01*
X146190410Y-107576765D01*
X146190406Y-107576760D01*
X146187927Y-107573248D01*
X145988710Y-107359938D01*
X145785802Y-107194861D01*
X145765638Y-107178456D01*
X145765637Y-107178455D01*
X145762302Y-107175742D01*
X145758627Y-107173507D01*
X145758624Y-107173505D01*
X145516598Y-107026326D01*
X145516593Y-107026323D01*
X145512922Y-107024091D01*
X145508982Y-107022379D01*
X145508979Y-107022378D01*
X145249158Y-106909521D01*
X145249149Y-106909517D01*
X145245215Y-106907809D01*
X145219286Y-106900544D01*
X144968309Y-106830223D01*
X144968305Y-106830222D01*
X144964168Y-106829063D01*
X144959905Y-106828477D01*
X144959900Y-106828476D01*
X144679283Y-106789906D01*
X144679274Y-106789905D01*
X144675015Y-106789320D01*
X144383145Y-106789320D01*
X144378886Y-106789905D01*
X144378876Y-106789906D01*
X144098263Y-106828475D01*
X144098249Y-106828477D01*
X144093992Y-106829063D01*
X144089856Y-106830221D01*
X144089836Y-106830226D01*
X144038502Y-106844609D01*
X143967511Y-106843726D01*
X143908267Y-106804603D01*
X143879579Y-106739661D01*
X143879048Y-106711655D01*
X143887080Y-106624979D01*
X143887080Y-105416761D01*
X143872495Y-105259367D01*
X143814779Y-105056516D01*
X143720772Y-104867724D01*
X143593675Y-104699420D01*
X143437816Y-104557336D01*
X143387974Y-104526475D01*
X143258504Y-104446310D01*
X143061843Y-104370124D01*
X143061842Y-104370124D01*
X142854531Y-104331370D01*
X142643629Y-104331370D01*
X142488144Y-104360435D01*
X142436316Y-104370124D01*
X142239655Y-104446310D01*
X142060345Y-104557335D01*
X141904484Y-104699421D01*
X141777389Y-104867721D01*
X141683379Y-105056519D01*
X141625666Y-105259362D01*
X141625665Y-105259367D01*
X141611080Y-105416761D01*
X141611080Y-106624979D01*
X132613500Y-106624979D01*
X132613500Y-103688562D01*
X145605159Y-103688562D01*
X145609321Y-103732581D01*
X145609880Y-103744439D01*
X145609880Y-105011527D01*
X145607584Y-105032315D01*
X145609818Y-105103364D01*
X145609880Y-105107323D01*
X145609880Y-105135236D01*
X145610375Y-105139154D01*
X145610377Y-105139186D01*
X145610388Y-105139268D01*
X145611317Y-105151077D01*
X145612706Y-105195272D01*
X145618357Y-105214721D01*
X145622366Y-105234076D01*
X145624905Y-105254174D01*
X145641181Y-105295283D01*
X145645024Y-105306510D01*
X145657360Y-105348970D01*
X145667674Y-105366410D01*
X145676367Y-105384154D01*
X145683828Y-105402997D01*
X145683829Y-105402999D01*
X145709811Y-105438760D01*
X145716328Y-105448681D01*
X145738838Y-105486743D01*
X145753158Y-105501063D01*
X145765998Y-105516096D01*
X145777906Y-105532485D01*
X145811978Y-105560672D01*
X145820758Y-105568662D01*
X147023574Y-106771479D01*
X147036653Y-106787803D01*
X147088471Y-106836463D01*
X147091313Y-106839218D01*
X147111050Y-106858955D01*
X147114180Y-106861383D01*
X147114252Y-106861439D01*
X147123262Y-106869134D01*
X147155499Y-106899406D01*
X147166699Y-106905563D01*
X147216758Y-106955908D01*
X147220193Y-106962727D01*
X147244322Y-107014472D01*
X147370633Y-107194861D01*
X147526338Y-107350566D01*
X147526341Y-107350568D01*
X147526342Y-107350569D01*
X147706726Y-107476876D01*
X147906304Y-107569940D01*
X147956033Y-107583265D01*
X148119004Y-107626934D01*
X148119005Y-107626934D01*
X148119009Y-107626935D01*
X148338380Y-107646127D01*
X148557751Y-107626935D01*
X148770456Y-107569940D01*
X148970034Y-107476876D01*
X149150418Y-107350569D01*
X149264286Y-107236700D01*
X149326596Y-107202677D01*
X149397412Y-107207741D01*
X149442473Y-107236700D01*
X149556342Y-107350569D01*
X149736726Y-107476876D01*
X149936304Y-107569940D01*
X149986033Y-107583265D01*
X150149004Y-107626934D01*
X150149005Y-107626934D01*
X150149009Y-107626935D01*
X150368380Y-107646127D01*
X150587751Y-107626935D01*
X150800456Y-107569940D01*
X151000034Y-107476876D01*
X151180418Y-107350569D01*
X151188669Y-107342318D01*
X151294285Y-107236703D01*
X151356597Y-107202677D01*
X151427412Y-107207742D01*
X151472475Y-107236703D01*
X151586338Y-107350566D01*
X151586341Y-107350568D01*
X151586342Y-107350569D01*
X151766726Y-107476876D01*
X151966304Y-107569940D01*
X152016033Y-107583265D01*
X152179004Y-107626934D01*
X152179005Y-107626934D01*
X152179009Y-107626935D01*
X152398380Y-107646127D01*
X152617751Y-107626935D01*
X152830456Y-107569940D01*
X153030034Y-107476876D01*
X153108065Y-107422237D01*
X153175337Y-107399550D01*
X153244198Y-107416835D01*
X153281203Y-107449942D01*
X153315475Y-107495724D01*
X153432417Y-107583265D01*
X153569286Y-107634314D01*
X153626443Y-107640460D01*
X153633157Y-107640820D01*
X154174380Y-107640820D01*
X154174380Y-106666660D01*
X154245019Y-106721641D01*
X154364969Y-106762820D01*
X154459866Y-106762820D01*
X154553472Y-106747200D01*
X154665008Y-106686840D01*
X154682380Y-106667968D01*
X154682380Y-107640820D01*
X155223603Y-107640820D01*
X155230311Y-107640460D01*
X155272711Y-107635901D01*
X155342580Y-107648505D01*
X155394543Y-107696883D01*
X155412103Y-107765673D01*
X155398056Y-107819147D01*
X155267637Y-108070845D01*
X155266201Y-108074885D01*
X155266196Y-108074897D01*
X155171336Y-108341809D01*
X155171331Y-108341824D01*
X155169896Y-108345864D01*
X155169021Y-108350071D01*
X155169021Y-108350074D01*
X155111387Y-108627421D01*
X155111385Y-108627430D01*
X155110513Y-108631630D01*
X155090595Y-108922820D01*
X155110513Y-109214010D01*
X155111386Y-109218211D01*
X155111387Y-109218218D01*
X155162238Y-109462926D01*
X155169896Y-109499776D01*
X155171333Y-109503819D01*
X155171336Y-109503830D01*
X155266196Y-109770742D01*
X155266199Y-109770749D01*
X155267637Y-109774795D01*
X155401917Y-110033942D01*
X155404398Y-110037457D01*
X155404400Y-110037460D01*
X155567749Y-110268874D01*
X155567754Y-110268880D01*
X155570233Y-110272392D01*
X155769450Y-110485702D01*
X155995858Y-110669898D01*
X156245238Y-110821549D01*
X156512945Y-110937831D01*
X156793992Y-111016577D01*
X157083145Y-111056320D01*
X157087450Y-111056320D01*
X157370710Y-111056320D01*
X157375015Y-111056320D01*
X157664168Y-111016577D01*
X157945215Y-110937831D01*
X158212922Y-110821549D01*
X158233259Y-110809182D01*
X162587500Y-110809182D01*
X162626604Y-111068615D01*
X162626605Y-111068618D01*
X162703936Y-111319323D01*
X162817772Y-111555704D01*
X162965563Y-111772474D01*
X162965565Y-111772476D01*
X162965567Y-111772479D01*
X163144019Y-111964805D01*
X163349143Y-112128386D01*
X163576357Y-112259568D01*
X163820584Y-112355420D01*
X164076370Y-112413802D01*
X164272506Y-112428500D01*
X164274859Y-112428500D01*
X164401141Y-112428500D01*
X164403494Y-112428500D01*
X164599630Y-112413802D01*
X164855416Y-112355420D01*
X165099643Y-112259568D01*
X165326857Y-112128386D01*
X165531981Y-111964805D01*
X165710433Y-111772479D01*
X165858228Y-111555704D01*
X165972063Y-111319323D01*
X166049396Y-111068615D01*
X166088500Y-110809182D01*
X166088500Y-110546818D01*
X166049396Y-110287385D01*
X165972063Y-110036677D01*
X165968902Y-110030114D01*
X165917242Y-109922841D01*
X165858228Y-109800296D01*
X165710433Y-109583521D01*
X165531981Y-109391195D01*
X165326857Y-109227614D01*
X165099643Y-109096432D01*
X165099643Y-109096431D01*
X164855417Y-109000580D01*
X164599630Y-108942198D01*
X164405836Y-108927675D01*
X164405822Y-108927674D01*
X164403494Y-108927500D01*
X164272506Y-108927500D01*
X164270178Y-108927674D01*
X164270163Y-108927675D01*
X164076369Y-108942198D01*
X163820582Y-109000580D01*
X163576356Y-109096432D01*
X163365417Y-109218218D01*
X163349143Y-109227614D01*
X163144019Y-109391195D01*
X163005525Y-109540455D01*
X162965563Y-109583525D01*
X162817772Y-109800295D01*
X162703936Y-110036676D01*
X162630258Y-110275539D01*
X162626604Y-110287385D01*
X162587500Y-110546818D01*
X162587500Y-110809182D01*
X158233259Y-110809182D01*
X158462302Y-110669898D01*
X158688710Y-110485702D01*
X158887927Y-110272392D01*
X159056243Y-110033942D01*
X159190523Y-109774795D01*
X159288264Y-109499776D01*
X159347647Y-109214010D01*
X159367565Y-108922820D01*
X159347647Y-108631630D01*
X159288264Y-108345864D01*
X159190523Y-108070845D01*
X159091580Y-107879896D01*
X159078000Y-107810212D01*
X159104250Y-107744246D01*
X159161997Y-107702945D01*
X159180288Y-107698077D01*
X159321843Y-107671616D01*
X159518503Y-107595430D01*
X159697816Y-107484404D01*
X159853675Y-107342320D01*
X159980772Y-107174016D01*
X160074779Y-106985224D01*
X160132495Y-106782373D01*
X160147080Y-106624979D01*
X160147080Y-105416761D01*
X160132495Y-105259367D01*
X160074779Y-105056516D01*
X159980772Y-104867724D01*
X159853675Y-104699420D01*
X159697816Y-104557336D01*
X159647974Y-104526475D01*
X159518504Y-104446310D01*
X159321843Y-104370124D01*
X159321842Y-104370124D01*
X159114531Y-104331370D01*
X158903629Y-104331370D01*
X158748144Y-104360435D01*
X158696316Y-104370124D01*
X158499655Y-104446310D01*
X158320345Y-104557335D01*
X158164484Y-104699421D01*
X158037389Y-104867721D01*
X157943379Y-105056519D01*
X157885666Y-105259362D01*
X157885665Y-105259367D01*
X157871080Y-105416761D01*
X157871080Y-106624979D01*
X157871347Y-106627857D01*
X157871347Y-106627859D01*
X157879112Y-106711656D01*
X157865480Y-106781332D01*
X157816342Y-106832577D01*
X157747300Y-106849121D01*
X157719656Y-106844609D01*
X157668318Y-106830225D01*
X157668307Y-106830222D01*
X157664168Y-106829063D01*
X157659907Y-106828477D01*
X157659896Y-106828475D01*
X157379283Y-106789906D01*
X157379274Y-106789905D01*
X157375015Y-106789320D01*
X157083145Y-106789320D01*
X157078886Y-106789905D01*
X157078876Y-106789906D01*
X156798259Y-106828476D01*
X156798251Y-106828477D01*
X156793992Y-106829063D01*
X156789857Y-106830221D01*
X156789850Y-106830223D01*
X156517084Y-106906649D01*
X156517079Y-106906650D01*
X156512945Y-106907809D01*
X156509015Y-106909515D01*
X156509001Y-106909521D01*
X156249180Y-107022378D01*
X156249171Y-107022382D01*
X156245238Y-107024091D01*
X156241572Y-107026320D01*
X156241561Y-107026326D01*
X155999535Y-107173505D01*
X155999525Y-107173512D01*
X155995858Y-107175742D01*
X155992528Y-107178450D01*
X155992521Y-107178456D01*
X155891897Y-107260320D01*
X155826432Y-107287794D01*
X155756505Y-107275514D01*
X155704319Y-107227378D01*
X155686380Y-107162580D01*
X155686380Y-106636820D01*
X154711055Y-106636820D01*
X154750902Y-106593534D01*
X154801845Y-106477394D01*
X154812318Y-106351006D01*
X154781185Y-106228065D01*
X154716345Y-106128820D01*
X155686380Y-106128820D01*
X155686380Y-105587597D01*
X155686020Y-105580883D01*
X155679874Y-105523726D01*
X155628825Y-105386857D01*
X155541284Y-105269915D01*
X155424342Y-105182374D01*
X155287473Y-105131325D01*
X155230316Y-105125179D01*
X155223603Y-105124820D01*
X154735611Y-105124820D01*
X154667490Y-105104818D01*
X154620997Y-105051162D01*
X154610893Y-104980888D01*
X154613905Y-104966208D01*
X154652494Y-104822195D01*
X154652494Y-104822194D01*
X154652495Y-104822191D01*
X154671687Y-104602820D01*
X154652495Y-104383449D01*
X154595500Y-104170744D01*
X154502436Y-103971167D01*
X154376129Y-103790782D01*
X154376128Y-103790781D01*
X154376126Y-103790778D01*
X154220421Y-103635073D01*
X154040033Y-103508763D01*
X153840454Y-103415699D01*
X153627755Y-103358705D01*
X153452254Y-103343351D01*
X153408380Y-103339513D01*
X153408379Y-103339513D01*
X153189004Y-103358705D01*
X152976305Y-103415699D01*
X152776727Y-103508763D01*
X152596338Y-103635073D01*
X152482475Y-103748937D01*
X152420163Y-103782963D01*
X152349348Y-103777898D01*
X152304285Y-103748937D01*
X152190421Y-103635073D01*
X152010033Y-103508763D01*
X151810454Y-103415699D01*
X151597755Y-103358705D01*
X151378380Y-103339513D01*
X151159004Y-103358705D01*
X150946305Y-103415699D01*
X150746727Y-103508763D01*
X150566338Y-103635073D01*
X150452475Y-103748937D01*
X150390163Y-103782963D01*
X150319348Y-103777898D01*
X150274285Y-103748937D01*
X150160421Y-103635073D01*
X149980033Y-103508763D01*
X149873519Y-103459095D01*
X149780456Y-103415700D01*
X149760561Y-103410369D01*
X149692306Y-103392079D01*
X149631684Y-103355127D01*
X149600663Y-103291266D01*
X149609093Y-103220771D01*
X149635821Y-103181281D01*
X151241699Y-101575403D01*
X151304011Y-101541378D01*
X151330794Y-101538499D01*
X152019338Y-101538499D01*
X152022544Y-101538499D01*
X152126426Y-101527887D01*
X152294738Y-101472115D01*
X152445652Y-101379030D01*
X152571030Y-101253652D01*
X152664115Y-101102738D01*
X152719887Y-100934426D01*
X152730500Y-100830545D01*
X152730499Y-99829456D01*
X152719887Y-99725574D01*
X152683247Y-99615001D01*
X159926844Y-99615001D01*
X159945436Y-99839369D01*
X159945436Y-99839372D01*
X159945437Y-99839373D01*
X160000702Y-100057612D01*
X160091139Y-100263791D01*
X160214278Y-100452269D01*
X160366762Y-100617909D01*
X160544421Y-100756188D01*
X160544424Y-100756190D01*
X160742426Y-100863343D01*
X160955365Y-100936445D01*
X161177431Y-100973501D01*
X161177434Y-100973501D01*
X161402566Y-100973501D01*
X161402569Y-100973501D01*
X161624635Y-100936445D01*
X161837574Y-100863343D01*
X162035576Y-100756190D01*
X162213240Y-100617907D01*
X162365722Y-100452269D01*
X162488860Y-100263792D01*
X162579296Y-100057617D01*
X162634564Y-99839369D01*
X162653156Y-99615001D01*
X163736844Y-99615001D01*
X163755436Y-99839369D01*
X163755436Y-99839372D01*
X163755437Y-99839373D01*
X163810702Y-100057612D01*
X163901139Y-100263791D01*
X164024278Y-100452269D01*
X164176762Y-100617909D01*
X164354421Y-100756188D01*
X164354424Y-100756190D01*
X164552426Y-100863343D01*
X164765365Y-100936445D01*
X164987431Y-100973501D01*
X164987434Y-100973501D01*
X165212566Y-100973501D01*
X165212569Y-100973501D01*
X165434635Y-100936445D01*
X165647574Y-100863343D01*
X165845576Y-100756190D01*
X166023240Y-100617907D01*
X166175722Y-100452269D01*
X166298860Y-100263792D01*
X166389296Y-100057617D01*
X166444564Y-99839369D01*
X166463156Y-99615001D01*
X166444564Y-99390633D01*
X166389296Y-99172385D01*
X166298860Y-98966210D01*
X166175722Y-98777733D01*
X166032157Y-98621781D01*
X166000737Y-98558118D01*
X166008724Y-98487572D01*
X166053583Y-98432543D01*
X166080827Y-98418389D01*
X166195963Y-98375446D01*
X166312904Y-98287905D01*
X166400445Y-98170963D01*
X166451494Y-98034094D01*
X166457640Y-97976937D01*
X166458000Y-97970223D01*
X166458000Y-97329001D01*
X165531116Y-97329001D01*
X165559493Y-97284845D01*
X165600000Y-97146890D01*
X165600000Y-97003112D01*
X165559493Y-96865157D01*
X165531116Y-96821001D01*
X166458000Y-96821001D01*
X166458000Y-96179778D01*
X166457640Y-96173064D01*
X166451494Y-96115907D01*
X166400445Y-95979038D01*
X166312904Y-95862096D01*
X166195962Y-95774555D01*
X166059093Y-95723506D01*
X166001936Y-95717360D01*
X165995223Y-95717001D01*
X165354000Y-95717001D01*
X165354000Y-96641326D01*
X165242315Y-96590321D01*
X165135763Y-96575001D01*
X165064237Y-96575001D01*
X164957685Y-96590321D01*
X164846000Y-96641326D01*
X164846000Y-95717001D01*
X164204777Y-95717001D01*
X164198063Y-95717360D01*
X164140906Y-95723506D01*
X164004037Y-95774555D01*
X163887095Y-95862096D01*
X163799554Y-95979038D01*
X163748505Y-96115907D01*
X163742359Y-96173064D01*
X163742000Y-96179778D01*
X163742000Y-96821001D01*
X164668884Y-96821001D01*
X164640507Y-96865157D01*
X164600000Y-97003112D01*
X164600000Y-97146890D01*
X164640507Y-97284845D01*
X164668884Y-97329001D01*
X163742000Y-97329001D01*
X163742000Y-97970223D01*
X163742359Y-97976937D01*
X163748505Y-98034094D01*
X163799554Y-98170963D01*
X163887095Y-98287905D01*
X164004037Y-98375446D01*
X164119172Y-98418389D01*
X164176008Y-98460936D01*
X164200819Y-98527456D01*
X164185728Y-98596830D01*
X164167841Y-98621783D01*
X164024278Y-98777732D01*
X163901139Y-98966210D01*
X163810702Y-99172389D01*
X163761111Y-99368222D01*
X163755436Y-99390633D01*
X163736844Y-99615001D01*
X162653156Y-99615001D01*
X162634564Y-99390633D01*
X162579296Y-99172385D01*
X162488860Y-98966210D01*
X162365722Y-98777733D01*
X162222157Y-98621781D01*
X162190737Y-98558118D01*
X162198724Y-98487572D01*
X162243583Y-98432543D01*
X162270827Y-98418389D01*
X162385963Y-98375446D01*
X162502904Y-98287905D01*
X162590445Y-98170963D01*
X162641494Y-98034094D01*
X162647640Y-97976937D01*
X162648000Y-97970223D01*
X162648000Y-97329001D01*
X161721116Y-97329001D01*
X161749493Y-97284845D01*
X161790000Y-97146890D01*
X161790000Y-97003112D01*
X161749493Y-96865157D01*
X161721116Y-96821001D01*
X162648000Y-96821001D01*
X162648000Y-96179778D01*
X162647640Y-96173064D01*
X162641494Y-96115907D01*
X162590445Y-95979038D01*
X162502904Y-95862096D01*
X162385962Y-95774555D01*
X162249093Y-95723506D01*
X162191936Y-95717360D01*
X162185223Y-95717001D01*
X161544000Y-95717001D01*
X161544000Y-96641326D01*
X161432315Y-96590321D01*
X161325763Y-96575001D01*
X161254237Y-96575001D01*
X161147685Y-96590321D01*
X161036000Y-96641326D01*
X161036000Y-95717001D01*
X160394777Y-95717001D01*
X160388063Y-95717360D01*
X160330906Y-95723506D01*
X160194037Y-95774555D01*
X160077095Y-95862096D01*
X159989554Y-95979038D01*
X159938505Y-96115907D01*
X159932359Y-96173064D01*
X159932000Y-96179778D01*
X159932000Y-96821001D01*
X160858884Y-96821001D01*
X160830507Y-96865157D01*
X160790000Y-97003112D01*
X160790000Y-97146890D01*
X160830507Y-97284845D01*
X160858884Y-97329001D01*
X159932000Y-97329001D01*
X159932000Y-97970223D01*
X159932359Y-97976937D01*
X159938505Y-98034094D01*
X159989554Y-98170963D01*
X160077095Y-98287905D01*
X160194037Y-98375446D01*
X160309172Y-98418389D01*
X160366008Y-98460936D01*
X160390819Y-98527456D01*
X160375728Y-98596830D01*
X160357841Y-98621783D01*
X160214278Y-98777732D01*
X160091139Y-98966210D01*
X160000702Y-99172389D01*
X159951111Y-99368222D01*
X159945436Y-99390633D01*
X159926844Y-99615001D01*
X152683247Y-99615001D01*
X152664115Y-99557262D01*
X152571030Y-99406348D01*
X152571028Y-99406346D01*
X152571027Y-99406344D01*
X152445655Y-99280972D01*
X152445652Y-99280970D01*
X152294738Y-99187885D01*
X152126426Y-99132113D01*
X152126423Y-99132112D01*
X152126421Y-99132112D01*
X152025746Y-99121826D01*
X152025725Y-99121824D01*
X152022545Y-99121500D01*
X152019339Y-99121500D01*
X151224661Y-99121500D01*
X151224641Y-99121500D01*
X151221456Y-99121501D01*
X151218279Y-99121825D01*
X151218270Y-99121826D01*
X151117573Y-99132113D01*
X150949262Y-99187885D01*
X150798344Y-99280972D01*
X150711095Y-99368222D01*
X150648783Y-99402248D01*
X150577968Y-99397183D01*
X150532905Y-99368222D01*
X150445655Y-99280972D01*
X150445652Y-99280970D01*
X150294738Y-99187885D01*
X150126426Y-99132113D01*
X150126423Y-99132112D01*
X150126421Y-99132112D01*
X150025746Y-99121826D01*
X150025725Y-99121824D01*
X150022545Y-99121500D01*
X150019339Y-99121500D01*
X149224661Y-99121500D01*
X149224641Y-99121500D01*
X149221456Y-99121501D01*
X149218279Y-99121825D01*
X149218270Y-99121826D01*
X149117573Y-99132113D01*
X148949262Y-99187885D01*
X148798344Y-99280972D01*
X148672972Y-99406344D01*
X148672970Y-99406348D01*
X148579885Y-99557262D01*
X148524113Y-99725574D01*
X148524112Y-99725578D01*
X148513826Y-99826253D01*
X148513825Y-99826270D01*
X148513500Y-99829455D01*
X148513500Y-99832659D01*
X148513500Y-99832660D01*
X148513500Y-100490403D01*
X148493498Y-100558524D01*
X148476595Y-100579498D01*
X145854716Y-103201377D01*
X145838396Y-103214453D01*
X145789750Y-103266255D01*
X145787001Y-103269092D01*
X145770047Y-103286047D01*
X145770040Y-103286054D01*
X145767245Y-103288850D01*
X145764822Y-103291972D01*
X145764806Y-103291991D01*
X145764745Y-103292071D01*
X145757069Y-103301056D01*
X145726794Y-103333297D01*
X145717032Y-103351054D01*
X145706181Y-103367572D01*
X145693765Y-103383579D01*
X145676204Y-103424159D01*
X145670984Y-103434815D01*
X145649684Y-103473560D01*
X145644647Y-103493179D01*
X145638244Y-103511881D01*
X145630198Y-103530475D01*
X145623281Y-103574144D01*
X145620875Y-103585764D01*
X145609880Y-103628589D01*
X145609880Y-103648843D01*
X145608329Y-103668553D01*
X145605159Y-103688562D01*
X132613500Y-103688562D01*
X132613500Y-99615001D01*
X134526844Y-99615001D01*
X134545436Y-99839369D01*
X134545436Y-99839372D01*
X134545437Y-99839373D01*
X134600702Y-100057612D01*
X134691139Y-100263791D01*
X134814278Y-100452269D01*
X134966762Y-100617909D01*
X135144421Y-100756188D01*
X135144424Y-100756190D01*
X135342426Y-100863343D01*
X135555365Y-100936445D01*
X135777431Y-100973501D01*
X135777434Y-100973501D01*
X136002566Y-100973501D01*
X136002569Y-100973501D01*
X136224635Y-100936445D01*
X136437574Y-100863343D01*
X136635576Y-100756190D01*
X136813240Y-100617907D01*
X136965722Y-100452269D01*
X137088860Y-100263792D01*
X137179296Y-100057617D01*
X137234564Y-99839369D01*
X137253156Y-99615001D01*
X138336844Y-99615001D01*
X138355436Y-99839369D01*
X138355436Y-99839372D01*
X138355437Y-99839373D01*
X138410702Y-100057612D01*
X138501139Y-100263791D01*
X138624278Y-100452269D01*
X138776762Y-100617909D01*
X138954421Y-100756188D01*
X138954424Y-100756190D01*
X139152426Y-100863343D01*
X139365365Y-100936445D01*
X139587431Y-100973501D01*
X139587434Y-100973501D01*
X139812566Y-100973501D01*
X139812569Y-100973501D01*
X140034635Y-100936445D01*
X140247574Y-100863343D01*
X140445576Y-100756190D01*
X140623240Y-100617907D01*
X140775722Y-100452269D01*
X140898860Y-100263792D01*
X140989296Y-100057617D01*
X141044564Y-99839369D01*
X141063156Y-99615001D01*
X141044564Y-99390633D01*
X140989296Y-99172385D01*
X140898860Y-98966210D01*
X140775722Y-98777733D01*
X140632157Y-98621781D01*
X140600737Y-98558118D01*
X140608724Y-98487572D01*
X140653583Y-98432543D01*
X140680827Y-98418389D01*
X140795963Y-98375446D01*
X140912904Y-98287905D01*
X141000445Y-98170963D01*
X141051494Y-98034094D01*
X141057640Y-97976937D01*
X141058000Y-97970223D01*
X141058000Y-97329001D01*
X140131116Y-97329001D01*
X140159493Y-97284845D01*
X140200000Y-97146890D01*
X140200000Y-97003112D01*
X140159493Y-96865157D01*
X140131116Y-96821001D01*
X141058000Y-96821001D01*
X141058000Y-96179778D01*
X141057640Y-96173064D01*
X141051494Y-96115907D01*
X141000445Y-95979038D01*
X140912904Y-95862096D01*
X140795962Y-95774555D01*
X140659093Y-95723506D01*
X140601936Y-95717360D01*
X140595223Y-95717001D01*
X139954000Y-95717001D01*
X139954000Y-96641326D01*
X139842315Y-96590321D01*
X139735763Y-96575001D01*
X139664237Y-96575001D01*
X139557685Y-96590321D01*
X139446000Y-96641326D01*
X139446000Y-95717001D01*
X138804777Y-95717001D01*
X138798063Y-95717360D01*
X138740906Y-95723506D01*
X138604037Y-95774555D01*
X138487095Y-95862096D01*
X138399554Y-95979038D01*
X138348505Y-96115907D01*
X138342359Y-96173064D01*
X138342000Y-96179778D01*
X138342000Y-96821001D01*
X139268884Y-96821001D01*
X139240507Y-96865157D01*
X139200000Y-97003112D01*
X139200000Y-97146890D01*
X139240507Y-97284845D01*
X139268884Y-97329001D01*
X138342000Y-97329001D01*
X138342000Y-97970223D01*
X138342359Y-97976937D01*
X138348505Y-98034094D01*
X138399554Y-98170963D01*
X138487095Y-98287905D01*
X138604037Y-98375446D01*
X138719172Y-98418389D01*
X138776008Y-98460936D01*
X138800819Y-98527456D01*
X138785728Y-98596830D01*
X138767841Y-98621783D01*
X138624278Y-98777732D01*
X138501139Y-98966210D01*
X138410702Y-99172389D01*
X138361111Y-99368222D01*
X138355436Y-99390633D01*
X138336844Y-99615001D01*
X137253156Y-99615001D01*
X137234564Y-99390633D01*
X137179296Y-99172385D01*
X137088860Y-98966210D01*
X136965722Y-98777733D01*
X136822157Y-98621781D01*
X136790737Y-98558118D01*
X136798724Y-98487572D01*
X136843583Y-98432543D01*
X136870827Y-98418389D01*
X136985963Y-98375446D01*
X137102904Y-98287905D01*
X137190445Y-98170963D01*
X137241494Y-98034094D01*
X137247640Y-97976937D01*
X137248000Y-97970223D01*
X137248000Y-97329001D01*
X136321116Y-97329001D01*
X136349493Y-97284845D01*
X136390000Y-97146890D01*
X136390000Y-97003112D01*
X136349493Y-96865157D01*
X136321116Y-96821001D01*
X137248000Y-96821001D01*
X137248000Y-96179778D01*
X137247640Y-96173064D01*
X137241494Y-96115907D01*
X137190445Y-95979038D01*
X137102904Y-95862096D01*
X136985962Y-95774555D01*
X136849093Y-95723506D01*
X136791936Y-95717360D01*
X136785223Y-95717001D01*
X136144000Y-95717001D01*
X136144000Y-96641326D01*
X136032315Y-96590321D01*
X135925763Y-96575001D01*
X135854237Y-96575001D01*
X135747685Y-96590321D01*
X135636000Y-96641326D01*
X135636000Y-95717001D01*
X134994777Y-95717001D01*
X134988063Y-95717360D01*
X134930906Y-95723506D01*
X134794037Y-95774555D01*
X134677095Y-95862096D01*
X134589554Y-95979038D01*
X134538505Y-96115907D01*
X134532359Y-96173064D01*
X134532000Y-96179778D01*
X134532000Y-96821001D01*
X135458884Y-96821001D01*
X135430507Y-96865157D01*
X135390000Y-97003112D01*
X135390000Y-97146890D01*
X135430507Y-97284845D01*
X135458884Y-97329001D01*
X134532000Y-97329001D01*
X134532000Y-97970223D01*
X134532359Y-97976937D01*
X134538505Y-98034094D01*
X134589554Y-98170963D01*
X134677095Y-98287905D01*
X134794037Y-98375446D01*
X134909172Y-98418389D01*
X134966008Y-98460936D01*
X134990819Y-98527456D01*
X134975728Y-98596830D01*
X134957841Y-98621783D01*
X134814278Y-98777732D01*
X134691139Y-98966210D01*
X134600702Y-99172389D01*
X134551111Y-99368222D01*
X134545436Y-99390633D01*
X134526844Y-99615001D01*
X132613500Y-99615001D01*
X132613500Y-90809182D01*
X134887500Y-90809182D01*
X134926604Y-91068615D01*
X134926605Y-91068618D01*
X135003936Y-91319323D01*
X135117772Y-91555704D01*
X135265563Y-91772474D01*
X135265565Y-91772476D01*
X135265567Y-91772479D01*
X135444019Y-91964805D01*
X135649143Y-92128386D01*
X135876357Y-92259568D01*
X136120584Y-92355420D01*
X136376370Y-92413802D01*
X136572506Y-92428500D01*
X136574859Y-92428500D01*
X136701141Y-92428500D01*
X136703494Y-92428500D01*
X136899630Y-92413802D01*
X137155416Y-92355420D01*
X137206880Y-92335222D01*
X140882000Y-92335222D01*
X140882359Y-92341936D01*
X140888505Y-92399093D01*
X140939554Y-92535962D01*
X141027095Y-92652904D01*
X141144037Y-92740445D01*
X141280906Y-92791494D01*
X141338063Y-92797640D01*
X141344777Y-92798000D01*
X141986000Y-92798000D01*
X141986000Y-91873674D01*
X142097685Y-91924680D01*
X142204237Y-91940000D01*
X142275763Y-91940000D01*
X142382315Y-91924680D01*
X142494000Y-91873674D01*
X142494000Y-92798000D01*
X143135223Y-92798000D01*
X143141936Y-92797640D01*
X143199093Y-92791494D01*
X143335962Y-92740445D01*
X143452904Y-92652904D01*
X143540445Y-92535962D01*
X143584618Y-92417530D01*
X143627164Y-92360694D01*
X143693685Y-92335883D01*
X143763059Y-92350974D01*
X143795372Y-92376222D01*
X143816427Y-92399093D01*
X143856762Y-92442908D01*
X143976317Y-92535962D01*
X144034424Y-92581189D01*
X144232426Y-92688342D01*
X144445365Y-92761444D01*
X144667431Y-92798500D01*
X144667434Y-92798500D01*
X144892566Y-92798500D01*
X144892569Y-92798500D01*
X145114635Y-92761444D01*
X145327574Y-92688342D01*
X145525576Y-92581189D01*
X145703240Y-92442906D01*
X145855722Y-92277268D01*
X145944518Y-92141354D01*
X145998521Y-92095268D01*
X146068869Y-92085693D01*
X146133226Y-92115670D01*
X146155480Y-92141353D01*
X146232713Y-92259567D01*
X146244278Y-92277268D01*
X146396762Y-92442908D01*
X146516317Y-92535962D01*
X146574424Y-92581189D01*
X146772426Y-92688342D01*
X146985365Y-92761444D01*
X147207431Y-92798500D01*
X147207434Y-92798500D01*
X147432566Y-92798500D01*
X147432569Y-92798500D01*
X147654635Y-92761444D01*
X147867574Y-92688342D01*
X148065576Y-92581189D01*
X148243240Y-92442906D01*
X148342371Y-92335222D01*
X152312000Y-92335222D01*
X152312359Y-92341936D01*
X152318505Y-92399093D01*
X152369554Y-92535962D01*
X152457095Y-92652904D01*
X152574037Y-92740445D01*
X152710906Y-92791494D01*
X152768063Y-92797640D01*
X152774777Y-92798000D01*
X153416000Y-92798000D01*
X153416000Y-91873674D01*
X153527685Y-91924680D01*
X153634237Y-91940000D01*
X153705763Y-91940000D01*
X153812315Y-91924680D01*
X153924000Y-91873674D01*
X153924000Y-92798000D01*
X154565223Y-92798000D01*
X154571936Y-92797640D01*
X154629093Y-92791494D01*
X154765962Y-92740445D01*
X154882904Y-92652904D01*
X154970445Y-92535962D01*
X155014618Y-92417530D01*
X155057164Y-92360694D01*
X155123685Y-92335883D01*
X155193059Y-92350974D01*
X155225372Y-92376222D01*
X155246427Y-92399093D01*
X155286762Y-92442908D01*
X155406317Y-92535962D01*
X155464424Y-92581189D01*
X155662426Y-92688342D01*
X155875365Y-92761444D01*
X156097431Y-92798500D01*
X156097434Y-92798500D01*
X156322566Y-92798500D01*
X156322569Y-92798500D01*
X156544635Y-92761444D01*
X156757574Y-92688342D01*
X156955576Y-92581189D01*
X157133240Y-92442906D01*
X157285722Y-92277268D01*
X157374518Y-92141354D01*
X157428521Y-92095268D01*
X157498869Y-92085693D01*
X157563226Y-92115670D01*
X157585480Y-92141353D01*
X157662713Y-92259567D01*
X157674278Y-92277268D01*
X157826762Y-92442908D01*
X157946317Y-92535962D01*
X158004424Y-92581189D01*
X158202426Y-92688342D01*
X158415365Y-92761444D01*
X158637431Y-92798500D01*
X158637434Y-92798500D01*
X158862566Y-92798500D01*
X158862569Y-92798500D01*
X159084635Y-92761444D01*
X159297574Y-92688342D01*
X159495576Y-92581189D01*
X159673240Y-92442906D01*
X159825722Y-92277268D01*
X159948860Y-92088791D01*
X160039296Y-91882616D01*
X160094564Y-91664368D01*
X160113156Y-91440000D01*
X160094564Y-91215632D01*
X160039296Y-90997384D01*
X159956744Y-90809182D01*
X162587500Y-90809182D01*
X162626604Y-91068615D01*
X162626605Y-91068618D01*
X162703936Y-91319323D01*
X162817772Y-91555704D01*
X162965563Y-91772474D01*
X162965565Y-91772476D01*
X162965567Y-91772479D01*
X163144019Y-91964805D01*
X163349143Y-92128386D01*
X163576357Y-92259568D01*
X163820584Y-92355420D01*
X164076370Y-92413802D01*
X164272506Y-92428500D01*
X164274859Y-92428500D01*
X164401141Y-92428500D01*
X164403494Y-92428500D01*
X164599630Y-92413802D01*
X164855416Y-92355420D01*
X165099643Y-92259568D01*
X165326857Y-92128386D01*
X165531981Y-91964805D01*
X165710433Y-91772479D01*
X165858228Y-91555704D01*
X165972063Y-91319323D01*
X166049396Y-91068615D01*
X166088500Y-90809182D01*
X166088500Y-90546818D01*
X166049396Y-90287385D01*
X165972063Y-90036677D01*
X165858228Y-89800296D01*
X165710433Y-89583521D01*
X165531981Y-89391195D01*
X165326857Y-89227614D01*
X165099643Y-89096432D01*
X164855417Y-89000580D01*
X164599630Y-88942198D01*
X164405836Y-88927675D01*
X164405822Y-88927674D01*
X164403494Y-88927500D01*
X164272506Y-88927500D01*
X164270178Y-88927674D01*
X164270163Y-88927675D01*
X164076369Y-88942198D01*
X163820582Y-89000580D01*
X163576356Y-89096432D01*
X163349146Y-89227612D01*
X163349143Y-89227614D01*
X163144019Y-89391195D01*
X163005525Y-89540455D01*
X162965563Y-89583525D01*
X162817772Y-89800295D01*
X162703936Y-90036676D01*
X162626605Y-90287381D01*
X162626604Y-90287385D01*
X162587500Y-90546818D01*
X162587500Y-90809182D01*
X159956744Y-90809182D01*
X159948860Y-90791209D01*
X159825722Y-90602732D01*
X159673240Y-90437094D01*
X159673239Y-90437093D01*
X159673237Y-90437091D01*
X159495578Y-90298812D01*
X159297573Y-90191657D01*
X159145800Y-90139554D01*
X159084635Y-90118556D01*
X158862569Y-90081500D01*
X158637431Y-90081500D01*
X158415365Y-90118556D01*
X158415362Y-90118556D01*
X158415362Y-90118557D01*
X158202426Y-90191657D01*
X158004421Y-90298812D01*
X157826762Y-90437091D01*
X157674278Y-90602731D01*
X157585483Y-90738643D01*
X157531479Y-90784731D01*
X157461131Y-90794306D01*
X157396774Y-90764328D01*
X157374517Y-90738643D01*
X157331583Y-90672928D01*
X157285722Y-90602732D01*
X157133240Y-90437094D01*
X157133239Y-90437093D01*
X157133237Y-90437091D01*
X156955578Y-90298812D01*
X156757573Y-90191657D01*
X156605800Y-90139554D01*
X156544635Y-90118556D01*
X156322569Y-90081500D01*
X156097431Y-90081500D01*
X155875365Y-90118556D01*
X155875362Y-90118556D01*
X155875362Y-90118557D01*
X155662426Y-90191657D01*
X155464421Y-90298812D01*
X155286762Y-90437091D01*
X155225375Y-90503775D01*
X155164521Y-90540346D01*
X155093557Y-90538211D01*
X155035012Y-90498049D01*
X155014618Y-90462469D01*
X154970445Y-90344037D01*
X154882904Y-90227095D01*
X154765962Y-90139554D01*
X154629093Y-90088505D01*
X154571936Y-90082359D01*
X154565223Y-90082000D01*
X153924000Y-90082000D01*
X153924000Y-91006325D01*
X153812315Y-90955320D01*
X153705763Y-90940000D01*
X153634237Y-90940000D01*
X153527685Y-90955320D01*
X153416000Y-91006325D01*
X153416000Y-90082000D01*
X152774777Y-90082000D01*
X152768063Y-90082359D01*
X152710906Y-90088505D01*
X152574037Y-90139554D01*
X152457095Y-90227095D01*
X152369554Y-90344037D01*
X152318505Y-90480906D01*
X152312359Y-90538063D01*
X152312000Y-90544777D01*
X152312000Y-91186000D01*
X153238884Y-91186000D01*
X153210507Y-91230156D01*
X153170000Y-91368111D01*
X153170000Y-91511889D01*
X153210507Y-91649844D01*
X153238884Y-91694000D01*
X152312000Y-91694000D01*
X152312000Y-92335222D01*
X148342371Y-92335222D01*
X148395722Y-92277268D01*
X148518860Y-92088791D01*
X148609296Y-91882616D01*
X148664564Y-91664368D01*
X148683156Y-91440000D01*
X148664564Y-91215632D01*
X148609296Y-90997384D01*
X148518860Y-90791209D01*
X148395722Y-90602732D01*
X148243240Y-90437094D01*
X148243239Y-90437093D01*
X148243237Y-90437091D01*
X148065578Y-90298812D01*
X147867573Y-90191657D01*
X147715800Y-90139554D01*
X147654635Y-90118556D01*
X147432569Y-90081500D01*
X147207431Y-90081500D01*
X146985365Y-90118556D01*
X146985362Y-90118556D01*
X146985362Y-90118557D01*
X146772426Y-90191657D01*
X146574421Y-90298812D01*
X146396762Y-90437091D01*
X146244278Y-90602731D01*
X146155483Y-90738643D01*
X146101479Y-90784731D01*
X146031131Y-90794306D01*
X145966774Y-90764328D01*
X145944517Y-90738643D01*
X145901583Y-90672928D01*
X145855722Y-90602732D01*
X145703240Y-90437094D01*
X145703239Y-90437093D01*
X145703237Y-90437091D01*
X145525578Y-90298812D01*
X145327573Y-90191657D01*
X145175800Y-90139554D01*
X145114635Y-90118556D01*
X144892569Y-90081500D01*
X144667431Y-90081500D01*
X144445365Y-90118556D01*
X144445362Y-90118556D01*
X144445362Y-90118557D01*
X144232426Y-90191657D01*
X144034421Y-90298812D01*
X143856762Y-90437091D01*
X143795375Y-90503775D01*
X143734521Y-90540346D01*
X143663557Y-90538211D01*
X143605012Y-90498049D01*
X143584618Y-90462469D01*
X143540445Y-90344037D01*
X143452904Y-90227095D01*
X143335962Y-90139554D01*
X143199093Y-90088505D01*
X143141936Y-90082359D01*
X143135223Y-90082000D01*
X142494000Y-90082000D01*
X142494000Y-91006325D01*
X142382315Y-90955320D01*
X142275763Y-90940000D01*
X142204237Y-90940000D01*
X142097685Y-90955320D01*
X141986000Y-91006325D01*
X141986000Y-90082000D01*
X141344777Y-90082000D01*
X141338063Y-90082359D01*
X141280906Y-90088505D01*
X141144037Y-90139554D01*
X141027095Y-90227095D01*
X140939554Y-90344037D01*
X140888505Y-90480906D01*
X140882359Y-90538063D01*
X140882000Y-90544777D01*
X140882000Y-91186000D01*
X141808884Y-91186000D01*
X141780507Y-91230156D01*
X141740000Y-91368111D01*
X141740000Y-91511889D01*
X141780507Y-91649844D01*
X141808884Y-91694000D01*
X140882000Y-91694000D01*
X140882000Y-92335222D01*
X137206880Y-92335222D01*
X137399643Y-92259568D01*
X137626857Y-92128386D01*
X137831981Y-91964805D01*
X138010433Y-91772479D01*
X138158228Y-91555704D01*
X138272063Y-91319323D01*
X138349396Y-91068615D01*
X138388500Y-90809182D01*
X138388500Y-90546818D01*
X138349396Y-90287385D01*
X138272063Y-90036677D01*
X138158228Y-89800296D01*
X138010433Y-89583521D01*
X137831981Y-89391195D01*
X137626857Y-89227614D01*
X137399643Y-89096432D01*
X137399643Y-89096431D01*
X137155417Y-89000580D01*
X136899630Y-88942198D01*
X136705836Y-88927675D01*
X136705822Y-88927674D01*
X136703494Y-88927500D01*
X136572506Y-88927500D01*
X136570178Y-88927674D01*
X136570163Y-88927675D01*
X136376369Y-88942198D01*
X136120582Y-89000580D01*
X135876356Y-89096432D01*
X135649146Y-89227612D01*
X135649143Y-89227614D01*
X135444019Y-89391195D01*
X135305525Y-89540455D01*
X135265563Y-89583525D01*
X135117772Y-89800295D01*
X135003936Y-90036676D01*
X134926605Y-90287381D01*
X134926604Y-90287385D01*
X134887500Y-90546818D01*
X134887500Y-90809182D01*
X132613500Y-90809182D01*
X132613500Y-90680920D01*
X132613634Y-90675101D01*
X132630459Y-90311192D01*
X132631533Y-90299604D01*
X132641647Y-90227095D01*
X132681461Y-89941675D01*
X132683593Y-89930272D01*
X132766335Y-89578473D01*
X132769518Y-89567288D01*
X132883366Y-89227614D01*
X132884362Y-89224639D01*
X132888559Y-89213807D01*
X133034541Y-88883188D01*
X133039707Y-88872814D01*
X133215566Y-88557087D01*
X133221678Y-88547214D01*
X133425930Y-88249043D01*
X133432911Y-88239798D01*
X133663805Y-87961743D01*
X133671626Y-87953165D01*
X133927165Y-87697626D01*
X133935743Y-87689805D01*
X134213798Y-87458911D01*
X134223043Y-87451930D01*
X134521214Y-87247678D01*
X134531087Y-87241566D01*
X134846814Y-87065707D01*
X134857188Y-87060541D01*
X135187807Y-86914559D01*
X135198639Y-86910362D01*
X135541297Y-86795515D01*
X135552473Y-86792335D01*
X135904272Y-86709593D01*
X135915675Y-86707461D01*
X136225710Y-86664213D01*
X136273604Y-86657533D01*
X136285192Y-86656459D01*
X136649102Y-86639634D01*
X136654921Y-86639500D01*
X136660285Y-86639500D01*
X164329715Y-86639500D01*
X164335079Y-86639500D01*
X164340898Y-86639634D01*
G37*
G04 #@! TD.AperFunction*
D19*
X132588000Y-110680500D02*
G75*
G03*
X136652000Y-114744500I4064000J0D01*
G01*
X168402000Y-90678000D02*
X168402000Y-110680500D01*
X132588000Y-110680500D02*
X132588000Y-90678000D01*
X164338000Y-114744500D02*
X136652000Y-114744500D01*
X136652000Y-86614000D02*
G75*
G03*
X132588000Y-90678000I0J-4064000D01*
G01*
X164338000Y-86614000D02*
X136652000Y-86614000D01*
X168402000Y-90678000D02*
G75*
G03*
X164338000Y-86614000I-4064000J0D01*
G01*
X164338000Y-114744500D02*
G75*
G03*
X168402000Y-110680500I0J4064000D01*
G01*
M02*
