%TF.GenerationSoftware,KiCad,Pcbnew,7.0.2*%
%TF.CreationDate,2023-08-07T19:28:32-05:00*%
%TF.ProjectId,JoystickBoard,4a6f7973-7469-4636-9b42-6f6172642e6b,rev?*%
%TF.SameCoordinates,Original*%
%TF.FileFunction,Drillmap*%
%TF.FilePolarity,Positive*%
%FSLAX45Y45*%
G04 Gerber Fmt 4.5, Leading zero omitted, Abs format (unit mm)*
G04 Created by KiCad (PCBNEW 7.0.2) date 2023-08-07 19:28:32*
%MOMM*%
%LPD*%
G01*
G04 APERTURE LIST*
%ADD10C,0.050000*%
%ADD11C,0.200000*%
%ADD12C,0.040000*%
%ADD13C,0.076000*%
%ADD14C,0.100000*%
G04 APERTURE END LIST*
D10*
X13258800Y-11068050D02*
G75*
G03*
X13665200Y-11474450I406400J0D01*
G01*
X16840200Y-9067800D02*
X16840200Y-11068050D01*
X13258800Y-11068050D02*
X13258800Y-9067800D01*
X16433800Y-11474450D02*
X13665200Y-11474450D01*
X13665200Y-8661400D02*
G75*
G03*
X13258800Y-9067800I0J-406400D01*
G01*
X16433800Y-8661400D02*
X13665200Y-8661400D01*
X16840200Y-9067800D02*
G75*
G03*
X16433800Y-8661400I-406400J0D01*
G01*
X16433800Y-11474450D02*
G75*
G03*
X16840200Y-11068050I0J406400D01*
G01*
D11*
D12*
X13848400Y-10343200D02*
X13888400Y-10383200D01*
X13888400Y-10343200D02*
X13848400Y-10383200D01*
X14051600Y-11257600D02*
X14091600Y-11297600D01*
X14091600Y-11257600D02*
X14051600Y-11297600D01*
X14864400Y-9454200D02*
X14904400Y-9494200D01*
X14904400Y-9454200D02*
X14864400Y-9494200D01*
X15042200Y-8793800D02*
X15082200Y-8833800D01*
X15082200Y-8793800D02*
X15042200Y-8833800D01*
X15321600Y-10013000D02*
X15361600Y-10053000D01*
X15361600Y-10013000D02*
X15321600Y-10053000D01*
X15677200Y-9505000D02*
X15717200Y-9545000D01*
X15717200Y-9505000D02*
X15677200Y-9545000D01*
X15728000Y-11283000D02*
X15768000Y-11323000D01*
X15768000Y-11283000D02*
X15728000Y-11323000D01*
X16337600Y-10343200D02*
X16377600Y-10383200D01*
X16377600Y-10343200D02*
X16337600Y-10383200D01*
D10*
X14299908Y-10602087D02*
G75*
G03*
X14299908Y-10602087I-25000J0D01*
G01*
D11*
X14299908Y-10657087D02*
X14299908Y-10547087D01*
X14299908Y-10547087D02*
G75*
G03*
X14249908Y-10547087I-25000J0D01*
G01*
X14249908Y-10547087D02*
X14249908Y-10657087D01*
X14249908Y-10657087D02*
G75*
G03*
X14299908Y-10657087I25000J0D01*
G01*
D10*
X15925908Y-10602087D02*
G75*
G03*
X15925908Y-10602087I-25000J0D01*
G01*
D11*
X15925908Y-10657087D02*
X15925908Y-10547087D01*
X15925908Y-10547087D02*
G75*
G03*
X15875908Y-10547087I-25000J0D01*
G01*
X15875908Y-10547087D02*
X15875908Y-10657087D01*
X15875908Y-10657087D02*
G75*
G03*
X15925908Y-10657087I25000J0D01*
G01*
D13*
X14731838Y-10422282D02*
X14731838Y-10498282D01*
X14693838Y-10460282D02*
X14769838Y-10460282D01*
X14833838Y-10600282D02*
X14833838Y-10676282D01*
X14795838Y-10638282D02*
X14871838Y-10638282D01*
X14934838Y-10422282D02*
X14934838Y-10498282D01*
X14896838Y-10460282D02*
X14972838Y-10460282D01*
X15036838Y-10600282D02*
X15036838Y-10676282D01*
X14998838Y-10638282D02*
X15074838Y-10638282D01*
X15137838Y-10422282D02*
X15137838Y-10498282D01*
X15099838Y-10460282D02*
X15175838Y-10460282D01*
X15239838Y-10600282D02*
X15239838Y-10676282D01*
X15201838Y-10638282D02*
X15277838Y-10638282D01*
X15340838Y-10422282D02*
X15340838Y-10498282D01*
X15302838Y-10460282D02*
X15378838Y-10460282D01*
X15442838Y-10600282D02*
X15442838Y-10676282D01*
X15404838Y-10638282D02*
X15480838Y-10638282D01*
D14*
X13624356Y-9742856D02*
X13624356Y-9672144D01*
X13553644Y-9672144D01*
X13553644Y-9742856D01*
X13624356Y-9742856D01*
X13624356Y-9996856D02*
X13624356Y-9926144D01*
X13553644Y-9926144D01*
X13553644Y-9996856D01*
X13624356Y-9996856D01*
X14005356Y-9742856D02*
X14005356Y-9672144D01*
X13934644Y-9672144D01*
X13934644Y-9742856D01*
X14005356Y-9742856D01*
X14005356Y-9996856D02*
X14005356Y-9926144D01*
X13934644Y-9926144D01*
X13934644Y-9996856D01*
X14005356Y-9996856D01*
X14259356Y-9179356D02*
X14259356Y-9108644D01*
X14188644Y-9108644D01*
X14188644Y-9179356D01*
X14259356Y-9179356D01*
X14513356Y-9179356D02*
X14513356Y-9108644D01*
X14442644Y-9108644D01*
X14442644Y-9179356D01*
X14513356Y-9179356D01*
X14767356Y-9179356D02*
X14767356Y-9108644D01*
X14696644Y-9108644D01*
X14696644Y-9179356D01*
X14767356Y-9179356D01*
X15402356Y-9179356D02*
X15402356Y-9108644D01*
X15331644Y-9108644D01*
X15331644Y-9179356D01*
X15402356Y-9179356D01*
X15656356Y-9179356D02*
X15656356Y-9108644D01*
X15585644Y-9108644D01*
X15585644Y-9179356D01*
X15656356Y-9179356D01*
X15910356Y-9179356D02*
X15910356Y-9108644D01*
X15839644Y-9108644D01*
X15839644Y-9179356D01*
X15910356Y-9179356D01*
X16164356Y-9742856D02*
X16164356Y-9672144D01*
X16093644Y-9672144D01*
X16093644Y-9742856D01*
X16164356Y-9742856D01*
X16164356Y-9996856D02*
X16164356Y-9926144D01*
X16093644Y-9926144D01*
X16093644Y-9996856D01*
X16164356Y-9996856D01*
X16545356Y-9742856D02*
X16545356Y-9672144D01*
X16474644Y-9672144D01*
X16474644Y-9742856D01*
X16545356Y-9742856D01*
X16545356Y-9996856D02*
X16545356Y-9926144D01*
X16474644Y-9926144D01*
X16474644Y-9996856D01*
X16545356Y-9996856D01*
D11*
X13503919Y-11789474D02*
X13503919Y-11589474D01*
X13503919Y-11589474D02*
X13551538Y-11589474D01*
X13551538Y-11589474D02*
X13580109Y-11598998D01*
X13580109Y-11598998D02*
X13599157Y-11618045D01*
X13599157Y-11618045D02*
X13608681Y-11637093D01*
X13608681Y-11637093D02*
X13618205Y-11675188D01*
X13618205Y-11675188D02*
X13618205Y-11703759D01*
X13618205Y-11703759D02*
X13608681Y-11741855D01*
X13608681Y-11741855D02*
X13599157Y-11760902D01*
X13599157Y-11760902D02*
X13580109Y-11779950D01*
X13580109Y-11779950D02*
X13551538Y-11789474D01*
X13551538Y-11789474D02*
X13503919Y-11789474D01*
X13703919Y-11789474D02*
X13703919Y-11656140D01*
X13703919Y-11694236D02*
X13713443Y-11675188D01*
X13713443Y-11675188D02*
X13722967Y-11665664D01*
X13722967Y-11665664D02*
X13742014Y-11656140D01*
X13742014Y-11656140D02*
X13761062Y-11656140D01*
X13827728Y-11789474D02*
X13827728Y-11656140D01*
X13827728Y-11589474D02*
X13818205Y-11598998D01*
X13818205Y-11598998D02*
X13827728Y-11608521D01*
X13827728Y-11608521D02*
X13837252Y-11598998D01*
X13837252Y-11598998D02*
X13827728Y-11589474D01*
X13827728Y-11589474D02*
X13827728Y-11608521D01*
X13951538Y-11789474D02*
X13932490Y-11779950D01*
X13932490Y-11779950D02*
X13922967Y-11760902D01*
X13922967Y-11760902D02*
X13922967Y-11589474D01*
X14056300Y-11789474D02*
X14037252Y-11779950D01*
X14037252Y-11779950D02*
X14027728Y-11760902D01*
X14027728Y-11760902D02*
X14027728Y-11589474D01*
X14284871Y-11789474D02*
X14284871Y-11589474D01*
X14284871Y-11589474D02*
X14351538Y-11732331D01*
X14351538Y-11732331D02*
X14418205Y-11589474D01*
X14418205Y-11589474D02*
X14418205Y-11789474D01*
X14599157Y-11789474D02*
X14599157Y-11684712D01*
X14599157Y-11684712D02*
X14589633Y-11665664D01*
X14589633Y-11665664D02*
X14570586Y-11656140D01*
X14570586Y-11656140D02*
X14532490Y-11656140D01*
X14532490Y-11656140D02*
X14513443Y-11665664D01*
X14599157Y-11779950D02*
X14580109Y-11789474D01*
X14580109Y-11789474D02*
X14532490Y-11789474D01*
X14532490Y-11789474D02*
X14513443Y-11779950D01*
X14513443Y-11779950D02*
X14503919Y-11760902D01*
X14503919Y-11760902D02*
X14503919Y-11741855D01*
X14503919Y-11741855D02*
X14513443Y-11722807D01*
X14513443Y-11722807D02*
X14532490Y-11713283D01*
X14532490Y-11713283D02*
X14580109Y-11713283D01*
X14580109Y-11713283D02*
X14599157Y-11703759D01*
X14694395Y-11656140D02*
X14694395Y-11856140D01*
X14694395Y-11665664D02*
X14713443Y-11656140D01*
X14713443Y-11656140D02*
X14751538Y-11656140D01*
X14751538Y-11656140D02*
X14770586Y-11665664D01*
X14770586Y-11665664D02*
X14780109Y-11675188D01*
X14780109Y-11675188D02*
X14789633Y-11694236D01*
X14789633Y-11694236D02*
X14789633Y-11751378D01*
X14789633Y-11751378D02*
X14780109Y-11770426D01*
X14780109Y-11770426D02*
X14770586Y-11779950D01*
X14770586Y-11779950D02*
X14751538Y-11789474D01*
X14751538Y-11789474D02*
X14713443Y-11789474D01*
X14713443Y-11789474D02*
X14694395Y-11779950D01*
X14875348Y-11770426D02*
X14884871Y-11779950D01*
X14884871Y-11779950D02*
X14875348Y-11789474D01*
X14875348Y-11789474D02*
X14865824Y-11779950D01*
X14865824Y-11779950D02*
X14875348Y-11770426D01*
X14875348Y-11770426D02*
X14875348Y-11789474D01*
X14875348Y-11665664D02*
X14884871Y-11675188D01*
X14884871Y-11675188D02*
X14875348Y-11684712D01*
X14875348Y-11684712D02*
X14865824Y-11675188D01*
X14865824Y-11675188D02*
X14875348Y-11665664D01*
X14875348Y-11665664D02*
X14875348Y-11684712D01*
D12*
X13216300Y-12096950D02*
X13256300Y-12136950D01*
X13256300Y-12096950D02*
X13216300Y-12136950D01*
D11*
X13542014Y-12009474D02*
X13561062Y-12009474D01*
X13561062Y-12009474D02*
X13580109Y-12018998D01*
X13580109Y-12018998D02*
X13589633Y-12028521D01*
X13589633Y-12028521D02*
X13599157Y-12047569D01*
X13599157Y-12047569D02*
X13608681Y-12085664D01*
X13608681Y-12085664D02*
X13608681Y-12133283D01*
X13608681Y-12133283D02*
X13599157Y-12171378D01*
X13599157Y-12171378D02*
X13589633Y-12190426D01*
X13589633Y-12190426D02*
X13580109Y-12199950D01*
X13580109Y-12199950D02*
X13561062Y-12209474D01*
X13561062Y-12209474D02*
X13542014Y-12209474D01*
X13542014Y-12209474D02*
X13522967Y-12199950D01*
X13522967Y-12199950D02*
X13513443Y-12190426D01*
X13513443Y-12190426D02*
X13503919Y-12171378D01*
X13503919Y-12171378D02*
X13494395Y-12133283D01*
X13494395Y-12133283D02*
X13494395Y-12085664D01*
X13494395Y-12085664D02*
X13503919Y-12047569D01*
X13503919Y-12047569D02*
X13513443Y-12028521D01*
X13513443Y-12028521D02*
X13522967Y-12018998D01*
X13522967Y-12018998D02*
X13542014Y-12009474D01*
X13694395Y-12190426D02*
X13703919Y-12199950D01*
X13703919Y-12199950D02*
X13694395Y-12209474D01*
X13694395Y-12209474D02*
X13684871Y-12199950D01*
X13684871Y-12199950D02*
X13694395Y-12190426D01*
X13694395Y-12190426D02*
X13694395Y-12209474D01*
X13875348Y-12076140D02*
X13875348Y-12209474D01*
X13827728Y-11999950D02*
X13780109Y-12142807D01*
X13780109Y-12142807D02*
X13903919Y-12142807D01*
X14018205Y-12009474D02*
X14037252Y-12009474D01*
X14037252Y-12009474D02*
X14056300Y-12018998D01*
X14056300Y-12018998D02*
X14065824Y-12028521D01*
X14065824Y-12028521D02*
X14075348Y-12047569D01*
X14075348Y-12047569D02*
X14084871Y-12085664D01*
X14084871Y-12085664D02*
X14084871Y-12133283D01*
X14084871Y-12133283D02*
X14075348Y-12171378D01*
X14075348Y-12171378D02*
X14065824Y-12190426D01*
X14065824Y-12190426D02*
X14056300Y-12199950D01*
X14056300Y-12199950D02*
X14037252Y-12209474D01*
X14037252Y-12209474D02*
X14018205Y-12209474D01*
X14018205Y-12209474D02*
X13999157Y-12199950D01*
X13999157Y-12199950D02*
X13989633Y-12190426D01*
X13989633Y-12190426D02*
X13980109Y-12171378D01*
X13980109Y-12171378D02*
X13970586Y-12133283D01*
X13970586Y-12133283D02*
X13970586Y-12085664D01*
X13970586Y-12085664D02*
X13980109Y-12047569D01*
X13980109Y-12047569D02*
X13989633Y-12028521D01*
X13989633Y-12028521D02*
X13999157Y-12018998D01*
X13999157Y-12018998D02*
X14018205Y-12009474D01*
X14208681Y-12009474D02*
X14227729Y-12009474D01*
X14227729Y-12009474D02*
X14246776Y-12018998D01*
X14246776Y-12018998D02*
X14256300Y-12028521D01*
X14256300Y-12028521D02*
X14265824Y-12047569D01*
X14265824Y-12047569D02*
X14275348Y-12085664D01*
X14275348Y-12085664D02*
X14275348Y-12133283D01*
X14275348Y-12133283D02*
X14265824Y-12171378D01*
X14265824Y-12171378D02*
X14256300Y-12190426D01*
X14256300Y-12190426D02*
X14246776Y-12199950D01*
X14246776Y-12199950D02*
X14227729Y-12209474D01*
X14227729Y-12209474D02*
X14208681Y-12209474D01*
X14208681Y-12209474D02*
X14189633Y-12199950D01*
X14189633Y-12199950D02*
X14180109Y-12190426D01*
X14180109Y-12190426D02*
X14170586Y-12171378D01*
X14170586Y-12171378D02*
X14161062Y-12133283D01*
X14161062Y-12133283D02*
X14161062Y-12085664D01*
X14161062Y-12085664D02*
X14170586Y-12047569D01*
X14170586Y-12047569D02*
X14180109Y-12028521D01*
X14180109Y-12028521D02*
X14189633Y-12018998D01*
X14189633Y-12018998D02*
X14208681Y-12009474D01*
X14361062Y-12209474D02*
X14361062Y-12076140D01*
X14361062Y-12095188D02*
X14370586Y-12085664D01*
X14370586Y-12085664D02*
X14389633Y-12076140D01*
X14389633Y-12076140D02*
X14418205Y-12076140D01*
X14418205Y-12076140D02*
X14437252Y-12085664D01*
X14437252Y-12085664D02*
X14446776Y-12104712D01*
X14446776Y-12104712D02*
X14446776Y-12209474D01*
X14446776Y-12104712D02*
X14456300Y-12085664D01*
X14456300Y-12085664D02*
X14475348Y-12076140D01*
X14475348Y-12076140D02*
X14503919Y-12076140D01*
X14503919Y-12076140D02*
X14522967Y-12085664D01*
X14522967Y-12085664D02*
X14532490Y-12104712D01*
X14532490Y-12104712D02*
X14532490Y-12209474D01*
X14627729Y-12209474D02*
X14627729Y-12076140D01*
X14627729Y-12095188D02*
X14637252Y-12085664D01*
X14637252Y-12085664D02*
X14656300Y-12076140D01*
X14656300Y-12076140D02*
X14684871Y-12076140D01*
X14684871Y-12076140D02*
X14703919Y-12085664D01*
X14703919Y-12085664D02*
X14713443Y-12104712D01*
X14713443Y-12104712D02*
X14713443Y-12209474D01*
X14713443Y-12104712D02*
X14722967Y-12085664D01*
X14722967Y-12085664D02*
X14742014Y-12076140D01*
X14742014Y-12076140D02*
X14770586Y-12076140D01*
X14770586Y-12076140D02*
X14789633Y-12085664D01*
X14789633Y-12085664D02*
X14799157Y-12104712D01*
X14799157Y-12104712D02*
X14799157Y-12209474D01*
X15189633Y-11999950D02*
X15018205Y-12257093D01*
X15446776Y-12009474D02*
X15465824Y-12009474D01*
X15465824Y-12009474D02*
X15484872Y-12018998D01*
X15484872Y-12018998D02*
X15494395Y-12028521D01*
X15494395Y-12028521D02*
X15503919Y-12047569D01*
X15503919Y-12047569D02*
X15513443Y-12085664D01*
X15513443Y-12085664D02*
X15513443Y-12133283D01*
X15513443Y-12133283D02*
X15503919Y-12171378D01*
X15503919Y-12171378D02*
X15494395Y-12190426D01*
X15494395Y-12190426D02*
X15484872Y-12199950D01*
X15484872Y-12199950D02*
X15465824Y-12209474D01*
X15465824Y-12209474D02*
X15446776Y-12209474D01*
X15446776Y-12209474D02*
X15427729Y-12199950D01*
X15427729Y-12199950D02*
X15418205Y-12190426D01*
X15418205Y-12190426D02*
X15408681Y-12171378D01*
X15408681Y-12171378D02*
X15399157Y-12133283D01*
X15399157Y-12133283D02*
X15399157Y-12085664D01*
X15399157Y-12085664D02*
X15408681Y-12047569D01*
X15408681Y-12047569D02*
X15418205Y-12028521D01*
X15418205Y-12028521D02*
X15427729Y-12018998D01*
X15427729Y-12018998D02*
X15446776Y-12009474D01*
X15599157Y-12190426D02*
X15608681Y-12199950D01*
X15608681Y-12199950D02*
X15599157Y-12209474D01*
X15599157Y-12209474D02*
X15589633Y-12199950D01*
X15589633Y-12199950D02*
X15599157Y-12190426D01*
X15599157Y-12190426D02*
X15599157Y-12209474D01*
X15732491Y-12009474D02*
X15751538Y-12009474D01*
X15751538Y-12009474D02*
X15770586Y-12018998D01*
X15770586Y-12018998D02*
X15780110Y-12028521D01*
X15780110Y-12028521D02*
X15789633Y-12047569D01*
X15789633Y-12047569D02*
X15799157Y-12085664D01*
X15799157Y-12085664D02*
X15799157Y-12133283D01*
X15799157Y-12133283D02*
X15789633Y-12171378D01*
X15789633Y-12171378D02*
X15780110Y-12190426D01*
X15780110Y-12190426D02*
X15770586Y-12199950D01*
X15770586Y-12199950D02*
X15751538Y-12209474D01*
X15751538Y-12209474D02*
X15732491Y-12209474D01*
X15732491Y-12209474D02*
X15713443Y-12199950D01*
X15713443Y-12199950D02*
X15703919Y-12190426D01*
X15703919Y-12190426D02*
X15694395Y-12171378D01*
X15694395Y-12171378D02*
X15684872Y-12133283D01*
X15684872Y-12133283D02*
X15684872Y-12085664D01*
X15684872Y-12085664D02*
X15694395Y-12047569D01*
X15694395Y-12047569D02*
X15703919Y-12028521D01*
X15703919Y-12028521D02*
X15713443Y-12018998D01*
X15713443Y-12018998D02*
X15732491Y-12009474D01*
X15989633Y-12209474D02*
X15875348Y-12209474D01*
X15932491Y-12209474D02*
X15932491Y-12009474D01*
X15932491Y-12009474D02*
X15913443Y-12038045D01*
X15913443Y-12038045D02*
X15894395Y-12057093D01*
X15894395Y-12057093D02*
X15875348Y-12066617D01*
X16170586Y-12009474D02*
X16075348Y-12009474D01*
X16075348Y-12009474D02*
X16065824Y-12104712D01*
X16065824Y-12104712D02*
X16075348Y-12095188D01*
X16075348Y-12095188D02*
X16094395Y-12085664D01*
X16094395Y-12085664D02*
X16142014Y-12085664D01*
X16142014Y-12085664D02*
X16161062Y-12095188D01*
X16161062Y-12095188D02*
X16170586Y-12104712D01*
X16170586Y-12104712D02*
X16180110Y-12123759D01*
X16180110Y-12123759D02*
X16180110Y-12171378D01*
X16180110Y-12171378D02*
X16170586Y-12190426D01*
X16170586Y-12190426D02*
X16161062Y-12199950D01*
X16161062Y-12199950D02*
X16142014Y-12209474D01*
X16142014Y-12209474D02*
X16094395Y-12209474D01*
X16094395Y-12209474D02*
X16075348Y-12199950D01*
X16075348Y-12199950D02*
X16065824Y-12190426D01*
X16246776Y-12009474D02*
X16380110Y-12009474D01*
X16380110Y-12009474D02*
X16294395Y-12209474D01*
X16446776Y-12009474D02*
X16446776Y-12047569D01*
X16522967Y-12009474D02*
X16522967Y-12047569D01*
X16818205Y-12285664D02*
X16808681Y-12276140D01*
X16808681Y-12276140D02*
X16789634Y-12247569D01*
X16789634Y-12247569D02*
X16780110Y-12228521D01*
X16780110Y-12228521D02*
X16770586Y-12199950D01*
X16770586Y-12199950D02*
X16761062Y-12152331D01*
X16761062Y-12152331D02*
X16761062Y-12114236D01*
X16761062Y-12114236D02*
X16770586Y-12066617D01*
X16770586Y-12066617D02*
X16780110Y-12038045D01*
X16780110Y-12038045D02*
X16789634Y-12018998D01*
X16789634Y-12018998D02*
X16808681Y-11990426D01*
X16808681Y-11990426D02*
X16818205Y-11980902D01*
X16922967Y-12095188D02*
X16903919Y-12085664D01*
X16903919Y-12085664D02*
X16894396Y-12076140D01*
X16894396Y-12076140D02*
X16884872Y-12057093D01*
X16884872Y-12057093D02*
X16884872Y-12047569D01*
X16884872Y-12047569D02*
X16894396Y-12028521D01*
X16894396Y-12028521D02*
X16903919Y-12018998D01*
X16903919Y-12018998D02*
X16922967Y-12009474D01*
X16922967Y-12009474D02*
X16961062Y-12009474D01*
X16961062Y-12009474D02*
X16980110Y-12018998D01*
X16980110Y-12018998D02*
X16989634Y-12028521D01*
X16989634Y-12028521D02*
X16999157Y-12047569D01*
X16999157Y-12047569D02*
X16999157Y-12057093D01*
X16999157Y-12057093D02*
X16989634Y-12076140D01*
X16989634Y-12076140D02*
X16980110Y-12085664D01*
X16980110Y-12085664D02*
X16961062Y-12095188D01*
X16961062Y-12095188D02*
X16922967Y-12095188D01*
X16922967Y-12095188D02*
X16903919Y-12104712D01*
X16903919Y-12104712D02*
X16894396Y-12114236D01*
X16894396Y-12114236D02*
X16884872Y-12133283D01*
X16884872Y-12133283D02*
X16884872Y-12171378D01*
X16884872Y-12171378D02*
X16894396Y-12190426D01*
X16894396Y-12190426D02*
X16903919Y-12199950D01*
X16903919Y-12199950D02*
X16922967Y-12209474D01*
X16922967Y-12209474D02*
X16961062Y-12209474D01*
X16961062Y-12209474D02*
X16980110Y-12199950D01*
X16980110Y-12199950D02*
X16989634Y-12190426D01*
X16989634Y-12190426D02*
X16999157Y-12171378D01*
X16999157Y-12171378D02*
X16999157Y-12133283D01*
X16999157Y-12133283D02*
X16989634Y-12114236D01*
X16989634Y-12114236D02*
X16980110Y-12104712D01*
X16980110Y-12104712D02*
X16961062Y-12095188D01*
X17237253Y-12209474D02*
X17237253Y-12009474D01*
X17322967Y-12209474D02*
X17322967Y-12104712D01*
X17322967Y-12104712D02*
X17313443Y-12085664D01*
X17313443Y-12085664D02*
X17294396Y-12076140D01*
X17294396Y-12076140D02*
X17265824Y-12076140D01*
X17265824Y-12076140D02*
X17246777Y-12085664D01*
X17246777Y-12085664D02*
X17237253Y-12095188D01*
X17446777Y-12209474D02*
X17427729Y-12199950D01*
X17427729Y-12199950D02*
X17418205Y-12190426D01*
X17418205Y-12190426D02*
X17408681Y-12171378D01*
X17408681Y-12171378D02*
X17408681Y-12114236D01*
X17408681Y-12114236D02*
X17418205Y-12095188D01*
X17418205Y-12095188D02*
X17427729Y-12085664D01*
X17427729Y-12085664D02*
X17446777Y-12076140D01*
X17446777Y-12076140D02*
X17475348Y-12076140D01*
X17475348Y-12076140D02*
X17494396Y-12085664D01*
X17494396Y-12085664D02*
X17503919Y-12095188D01*
X17503919Y-12095188D02*
X17513443Y-12114236D01*
X17513443Y-12114236D02*
X17513443Y-12171378D01*
X17513443Y-12171378D02*
X17503919Y-12190426D01*
X17503919Y-12190426D02*
X17494396Y-12199950D01*
X17494396Y-12199950D02*
X17475348Y-12209474D01*
X17475348Y-12209474D02*
X17446777Y-12209474D01*
X17627729Y-12209474D02*
X17608681Y-12199950D01*
X17608681Y-12199950D02*
X17599158Y-12180902D01*
X17599158Y-12180902D02*
X17599158Y-12009474D01*
X17780110Y-12199950D02*
X17761062Y-12209474D01*
X17761062Y-12209474D02*
X17722967Y-12209474D01*
X17722967Y-12209474D02*
X17703919Y-12199950D01*
X17703919Y-12199950D02*
X17694396Y-12180902D01*
X17694396Y-12180902D02*
X17694396Y-12104712D01*
X17694396Y-12104712D02*
X17703919Y-12085664D01*
X17703919Y-12085664D02*
X17722967Y-12076140D01*
X17722967Y-12076140D02*
X17761062Y-12076140D01*
X17761062Y-12076140D02*
X17780110Y-12085664D01*
X17780110Y-12085664D02*
X17789634Y-12104712D01*
X17789634Y-12104712D02*
X17789634Y-12123759D01*
X17789634Y-12123759D02*
X17694396Y-12142807D01*
X17865824Y-12199950D02*
X17884872Y-12209474D01*
X17884872Y-12209474D02*
X17922967Y-12209474D01*
X17922967Y-12209474D02*
X17942015Y-12199950D01*
X17942015Y-12199950D02*
X17951539Y-12180902D01*
X17951539Y-12180902D02*
X17951539Y-12171378D01*
X17951539Y-12171378D02*
X17942015Y-12152331D01*
X17942015Y-12152331D02*
X17922967Y-12142807D01*
X17922967Y-12142807D02*
X17894396Y-12142807D01*
X17894396Y-12142807D02*
X17875348Y-12133283D01*
X17875348Y-12133283D02*
X17865824Y-12114236D01*
X17865824Y-12114236D02*
X17865824Y-12104712D01*
X17865824Y-12104712D02*
X17875348Y-12085664D01*
X17875348Y-12085664D02*
X17894396Y-12076140D01*
X17894396Y-12076140D02*
X17922967Y-12076140D01*
X17922967Y-12076140D02*
X17942015Y-12085664D01*
X18018205Y-12285664D02*
X18027729Y-12276140D01*
X18027729Y-12276140D02*
X18046777Y-12247569D01*
X18046777Y-12247569D02*
X18056300Y-12228521D01*
X18056300Y-12228521D02*
X18065824Y-12199950D01*
X18065824Y-12199950D02*
X18075348Y-12152331D01*
X18075348Y-12152331D02*
X18075348Y-12114236D01*
X18075348Y-12114236D02*
X18065824Y-12066617D01*
X18065824Y-12066617D02*
X18056300Y-12038045D01*
X18056300Y-12038045D02*
X18046777Y-12018998D01*
X18046777Y-12018998D02*
X18027729Y-11990426D01*
X18027729Y-11990426D02*
X18018205Y-11980902D01*
D10*
X13256300Y-12380950D02*
G75*
G03*
X13256300Y-12380950I-25000J0D01*
G01*
D11*
X13542014Y-12273474D02*
X13561062Y-12273474D01*
X13561062Y-12273474D02*
X13580109Y-12282998D01*
X13580109Y-12282998D02*
X13589633Y-12292521D01*
X13589633Y-12292521D02*
X13599157Y-12311569D01*
X13599157Y-12311569D02*
X13608681Y-12349664D01*
X13608681Y-12349664D02*
X13608681Y-12397283D01*
X13608681Y-12397283D02*
X13599157Y-12435378D01*
X13599157Y-12435378D02*
X13589633Y-12454426D01*
X13589633Y-12454426D02*
X13580109Y-12463950D01*
X13580109Y-12463950D02*
X13561062Y-12473474D01*
X13561062Y-12473474D02*
X13542014Y-12473474D01*
X13542014Y-12473474D02*
X13522967Y-12463950D01*
X13522967Y-12463950D02*
X13513443Y-12454426D01*
X13513443Y-12454426D02*
X13503919Y-12435378D01*
X13503919Y-12435378D02*
X13494395Y-12397283D01*
X13494395Y-12397283D02*
X13494395Y-12349664D01*
X13494395Y-12349664D02*
X13503919Y-12311569D01*
X13503919Y-12311569D02*
X13513443Y-12292521D01*
X13513443Y-12292521D02*
X13522967Y-12282998D01*
X13522967Y-12282998D02*
X13542014Y-12273474D01*
X13694395Y-12454426D02*
X13703919Y-12463950D01*
X13703919Y-12463950D02*
X13694395Y-12473474D01*
X13694395Y-12473474D02*
X13684871Y-12463950D01*
X13684871Y-12463950D02*
X13694395Y-12454426D01*
X13694395Y-12454426D02*
X13694395Y-12473474D01*
X13884871Y-12273474D02*
X13789633Y-12273474D01*
X13789633Y-12273474D02*
X13780109Y-12368712D01*
X13780109Y-12368712D02*
X13789633Y-12359188D01*
X13789633Y-12359188D02*
X13808681Y-12349664D01*
X13808681Y-12349664D02*
X13856300Y-12349664D01*
X13856300Y-12349664D02*
X13875348Y-12359188D01*
X13875348Y-12359188D02*
X13884871Y-12368712D01*
X13884871Y-12368712D02*
X13894395Y-12387759D01*
X13894395Y-12387759D02*
X13894395Y-12435378D01*
X13894395Y-12435378D02*
X13884871Y-12454426D01*
X13884871Y-12454426D02*
X13875348Y-12463950D01*
X13875348Y-12463950D02*
X13856300Y-12473474D01*
X13856300Y-12473474D02*
X13808681Y-12473474D01*
X13808681Y-12473474D02*
X13789633Y-12463950D01*
X13789633Y-12463950D02*
X13780109Y-12454426D01*
X14018205Y-12273474D02*
X14037252Y-12273474D01*
X14037252Y-12273474D02*
X14056300Y-12282998D01*
X14056300Y-12282998D02*
X14065824Y-12292521D01*
X14065824Y-12292521D02*
X14075348Y-12311569D01*
X14075348Y-12311569D02*
X14084871Y-12349664D01*
X14084871Y-12349664D02*
X14084871Y-12397283D01*
X14084871Y-12397283D02*
X14075348Y-12435378D01*
X14075348Y-12435378D02*
X14065824Y-12454426D01*
X14065824Y-12454426D02*
X14056300Y-12463950D01*
X14056300Y-12463950D02*
X14037252Y-12473474D01*
X14037252Y-12473474D02*
X14018205Y-12473474D01*
X14018205Y-12473474D02*
X13999157Y-12463950D01*
X13999157Y-12463950D02*
X13989633Y-12454426D01*
X13989633Y-12454426D02*
X13980109Y-12435378D01*
X13980109Y-12435378D02*
X13970586Y-12397283D01*
X13970586Y-12397283D02*
X13970586Y-12349664D01*
X13970586Y-12349664D02*
X13980109Y-12311569D01*
X13980109Y-12311569D02*
X13989633Y-12292521D01*
X13989633Y-12292521D02*
X13999157Y-12282998D01*
X13999157Y-12282998D02*
X14018205Y-12273474D01*
X14208681Y-12273474D02*
X14227729Y-12273474D01*
X14227729Y-12273474D02*
X14246776Y-12282998D01*
X14246776Y-12282998D02*
X14256300Y-12292521D01*
X14256300Y-12292521D02*
X14265824Y-12311569D01*
X14265824Y-12311569D02*
X14275348Y-12349664D01*
X14275348Y-12349664D02*
X14275348Y-12397283D01*
X14275348Y-12397283D02*
X14265824Y-12435378D01*
X14265824Y-12435378D02*
X14256300Y-12454426D01*
X14256300Y-12454426D02*
X14246776Y-12463950D01*
X14246776Y-12463950D02*
X14227729Y-12473474D01*
X14227729Y-12473474D02*
X14208681Y-12473474D01*
X14208681Y-12473474D02*
X14189633Y-12463950D01*
X14189633Y-12463950D02*
X14180109Y-12454426D01*
X14180109Y-12454426D02*
X14170586Y-12435378D01*
X14170586Y-12435378D02*
X14161062Y-12397283D01*
X14161062Y-12397283D02*
X14161062Y-12349664D01*
X14161062Y-12349664D02*
X14170586Y-12311569D01*
X14170586Y-12311569D02*
X14180109Y-12292521D01*
X14180109Y-12292521D02*
X14189633Y-12282998D01*
X14189633Y-12282998D02*
X14208681Y-12273474D01*
X14361062Y-12473474D02*
X14361062Y-12340140D01*
X14361062Y-12359188D02*
X14370586Y-12349664D01*
X14370586Y-12349664D02*
X14389633Y-12340140D01*
X14389633Y-12340140D02*
X14418205Y-12340140D01*
X14418205Y-12340140D02*
X14437252Y-12349664D01*
X14437252Y-12349664D02*
X14446776Y-12368712D01*
X14446776Y-12368712D02*
X14446776Y-12473474D01*
X14446776Y-12368712D02*
X14456300Y-12349664D01*
X14456300Y-12349664D02*
X14475348Y-12340140D01*
X14475348Y-12340140D02*
X14503919Y-12340140D01*
X14503919Y-12340140D02*
X14522967Y-12349664D01*
X14522967Y-12349664D02*
X14532490Y-12368712D01*
X14532490Y-12368712D02*
X14532490Y-12473474D01*
X14627729Y-12473474D02*
X14627729Y-12340140D01*
X14627729Y-12359188D02*
X14637252Y-12349664D01*
X14637252Y-12349664D02*
X14656300Y-12340140D01*
X14656300Y-12340140D02*
X14684871Y-12340140D01*
X14684871Y-12340140D02*
X14703919Y-12349664D01*
X14703919Y-12349664D02*
X14713443Y-12368712D01*
X14713443Y-12368712D02*
X14713443Y-12473474D01*
X14713443Y-12368712D02*
X14722967Y-12349664D01*
X14722967Y-12349664D02*
X14742014Y-12340140D01*
X14742014Y-12340140D02*
X14770586Y-12340140D01*
X14770586Y-12340140D02*
X14789633Y-12349664D01*
X14789633Y-12349664D02*
X14799157Y-12368712D01*
X14799157Y-12368712D02*
X14799157Y-12473474D01*
X15189633Y-12263950D02*
X15018205Y-12521093D01*
X15446776Y-12273474D02*
X15465824Y-12273474D01*
X15465824Y-12273474D02*
X15484872Y-12282998D01*
X15484872Y-12282998D02*
X15494395Y-12292521D01*
X15494395Y-12292521D02*
X15503919Y-12311569D01*
X15503919Y-12311569D02*
X15513443Y-12349664D01*
X15513443Y-12349664D02*
X15513443Y-12397283D01*
X15513443Y-12397283D02*
X15503919Y-12435378D01*
X15503919Y-12435378D02*
X15494395Y-12454426D01*
X15494395Y-12454426D02*
X15484872Y-12463950D01*
X15484872Y-12463950D02*
X15465824Y-12473474D01*
X15465824Y-12473474D02*
X15446776Y-12473474D01*
X15446776Y-12473474D02*
X15427729Y-12463950D01*
X15427729Y-12463950D02*
X15418205Y-12454426D01*
X15418205Y-12454426D02*
X15408681Y-12435378D01*
X15408681Y-12435378D02*
X15399157Y-12397283D01*
X15399157Y-12397283D02*
X15399157Y-12349664D01*
X15399157Y-12349664D02*
X15408681Y-12311569D01*
X15408681Y-12311569D02*
X15418205Y-12292521D01*
X15418205Y-12292521D02*
X15427729Y-12282998D01*
X15427729Y-12282998D02*
X15446776Y-12273474D01*
X15599157Y-12454426D02*
X15608681Y-12463950D01*
X15608681Y-12463950D02*
X15599157Y-12473474D01*
X15599157Y-12473474D02*
X15589633Y-12463950D01*
X15589633Y-12463950D02*
X15599157Y-12454426D01*
X15599157Y-12454426D02*
X15599157Y-12473474D01*
X15732491Y-12273474D02*
X15751538Y-12273474D01*
X15751538Y-12273474D02*
X15770586Y-12282998D01*
X15770586Y-12282998D02*
X15780110Y-12292521D01*
X15780110Y-12292521D02*
X15789633Y-12311569D01*
X15789633Y-12311569D02*
X15799157Y-12349664D01*
X15799157Y-12349664D02*
X15799157Y-12397283D01*
X15799157Y-12397283D02*
X15789633Y-12435378D01*
X15789633Y-12435378D02*
X15780110Y-12454426D01*
X15780110Y-12454426D02*
X15770586Y-12463950D01*
X15770586Y-12463950D02*
X15751538Y-12473474D01*
X15751538Y-12473474D02*
X15732491Y-12473474D01*
X15732491Y-12473474D02*
X15713443Y-12463950D01*
X15713443Y-12463950D02*
X15703919Y-12454426D01*
X15703919Y-12454426D02*
X15694395Y-12435378D01*
X15694395Y-12435378D02*
X15684872Y-12397283D01*
X15684872Y-12397283D02*
X15684872Y-12349664D01*
X15684872Y-12349664D02*
X15694395Y-12311569D01*
X15694395Y-12311569D02*
X15703919Y-12292521D01*
X15703919Y-12292521D02*
X15713443Y-12282998D01*
X15713443Y-12282998D02*
X15732491Y-12273474D01*
X15989633Y-12473474D02*
X15875348Y-12473474D01*
X15932491Y-12473474D02*
X15932491Y-12273474D01*
X15932491Y-12273474D02*
X15913443Y-12302045D01*
X15913443Y-12302045D02*
X15894395Y-12321093D01*
X15894395Y-12321093D02*
X15875348Y-12330617D01*
X16084872Y-12473474D02*
X16122967Y-12473474D01*
X16122967Y-12473474D02*
X16142014Y-12463950D01*
X16142014Y-12463950D02*
X16151538Y-12454426D01*
X16151538Y-12454426D02*
X16170586Y-12425855D01*
X16170586Y-12425855D02*
X16180110Y-12387759D01*
X16180110Y-12387759D02*
X16180110Y-12311569D01*
X16180110Y-12311569D02*
X16170586Y-12292521D01*
X16170586Y-12292521D02*
X16161062Y-12282998D01*
X16161062Y-12282998D02*
X16142014Y-12273474D01*
X16142014Y-12273474D02*
X16103919Y-12273474D01*
X16103919Y-12273474D02*
X16084872Y-12282998D01*
X16084872Y-12282998D02*
X16075348Y-12292521D01*
X16075348Y-12292521D02*
X16065824Y-12311569D01*
X16065824Y-12311569D02*
X16065824Y-12359188D01*
X16065824Y-12359188D02*
X16075348Y-12378236D01*
X16075348Y-12378236D02*
X16084872Y-12387759D01*
X16084872Y-12387759D02*
X16103919Y-12397283D01*
X16103919Y-12397283D02*
X16142014Y-12397283D01*
X16142014Y-12397283D02*
X16161062Y-12387759D01*
X16161062Y-12387759D02*
X16170586Y-12378236D01*
X16170586Y-12378236D02*
X16180110Y-12359188D01*
X16246776Y-12273474D02*
X16380110Y-12273474D01*
X16380110Y-12273474D02*
X16294395Y-12473474D01*
X16446776Y-12273474D02*
X16446776Y-12311569D01*
X16522967Y-12273474D02*
X16522967Y-12311569D01*
X16818205Y-12549664D02*
X16808681Y-12540140D01*
X16808681Y-12540140D02*
X16789634Y-12511569D01*
X16789634Y-12511569D02*
X16780110Y-12492521D01*
X16780110Y-12492521D02*
X16770586Y-12463950D01*
X16770586Y-12463950D02*
X16761062Y-12416331D01*
X16761062Y-12416331D02*
X16761062Y-12378236D01*
X16761062Y-12378236D02*
X16770586Y-12330617D01*
X16770586Y-12330617D02*
X16780110Y-12302045D01*
X16780110Y-12302045D02*
X16789634Y-12282998D01*
X16789634Y-12282998D02*
X16808681Y-12254426D01*
X16808681Y-12254426D02*
X16818205Y-12244902D01*
X16932491Y-12273474D02*
X16951538Y-12273474D01*
X16951538Y-12273474D02*
X16970586Y-12282998D01*
X16970586Y-12282998D02*
X16980110Y-12292521D01*
X16980110Y-12292521D02*
X16989634Y-12311569D01*
X16989634Y-12311569D02*
X16999157Y-12349664D01*
X16999157Y-12349664D02*
X16999157Y-12397283D01*
X16999157Y-12397283D02*
X16989634Y-12435378D01*
X16989634Y-12435378D02*
X16980110Y-12454426D01*
X16980110Y-12454426D02*
X16970586Y-12463950D01*
X16970586Y-12463950D02*
X16951538Y-12473474D01*
X16951538Y-12473474D02*
X16932491Y-12473474D01*
X16932491Y-12473474D02*
X16913443Y-12463950D01*
X16913443Y-12463950D02*
X16903919Y-12454426D01*
X16903919Y-12454426D02*
X16894396Y-12435378D01*
X16894396Y-12435378D02*
X16884872Y-12397283D01*
X16884872Y-12397283D02*
X16884872Y-12349664D01*
X16884872Y-12349664D02*
X16894396Y-12311569D01*
X16894396Y-12311569D02*
X16903919Y-12292521D01*
X16903919Y-12292521D02*
X16913443Y-12282998D01*
X16913443Y-12282998D02*
X16932491Y-12273474D01*
X17237253Y-12473474D02*
X17237253Y-12273474D01*
X17322967Y-12473474D02*
X17322967Y-12368712D01*
X17322967Y-12368712D02*
X17313443Y-12349664D01*
X17313443Y-12349664D02*
X17294396Y-12340140D01*
X17294396Y-12340140D02*
X17265824Y-12340140D01*
X17265824Y-12340140D02*
X17246777Y-12349664D01*
X17246777Y-12349664D02*
X17237253Y-12359188D01*
X17446777Y-12473474D02*
X17427729Y-12463950D01*
X17427729Y-12463950D02*
X17418205Y-12454426D01*
X17418205Y-12454426D02*
X17408681Y-12435378D01*
X17408681Y-12435378D02*
X17408681Y-12378236D01*
X17408681Y-12378236D02*
X17418205Y-12359188D01*
X17418205Y-12359188D02*
X17427729Y-12349664D01*
X17427729Y-12349664D02*
X17446777Y-12340140D01*
X17446777Y-12340140D02*
X17475348Y-12340140D01*
X17475348Y-12340140D02*
X17494396Y-12349664D01*
X17494396Y-12349664D02*
X17503919Y-12359188D01*
X17503919Y-12359188D02*
X17513443Y-12378236D01*
X17513443Y-12378236D02*
X17513443Y-12435378D01*
X17513443Y-12435378D02*
X17503919Y-12454426D01*
X17503919Y-12454426D02*
X17494396Y-12463950D01*
X17494396Y-12463950D02*
X17475348Y-12473474D01*
X17475348Y-12473474D02*
X17446777Y-12473474D01*
X17627729Y-12473474D02*
X17608681Y-12463950D01*
X17608681Y-12463950D02*
X17599158Y-12444902D01*
X17599158Y-12444902D02*
X17599158Y-12273474D01*
X17780110Y-12463950D02*
X17761062Y-12473474D01*
X17761062Y-12473474D02*
X17722967Y-12473474D01*
X17722967Y-12473474D02*
X17703919Y-12463950D01*
X17703919Y-12463950D02*
X17694396Y-12444902D01*
X17694396Y-12444902D02*
X17694396Y-12368712D01*
X17694396Y-12368712D02*
X17703919Y-12349664D01*
X17703919Y-12349664D02*
X17722967Y-12340140D01*
X17722967Y-12340140D02*
X17761062Y-12340140D01*
X17761062Y-12340140D02*
X17780110Y-12349664D01*
X17780110Y-12349664D02*
X17789634Y-12368712D01*
X17789634Y-12368712D02*
X17789634Y-12387759D01*
X17789634Y-12387759D02*
X17694396Y-12406807D01*
X17865824Y-12463950D02*
X17884872Y-12473474D01*
X17884872Y-12473474D02*
X17922967Y-12473474D01*
X17922967Y-12473474D02*
X17942015Y-12463950D01*
X17942015Y-12463950D02*
X17951539Y-12444902D01*
X17951539Y-12444902D02*
X17951539Y-12435378D01*
X17951539Y-12435378D02*
X17942015Y-12416331D01*
X17942015Y-12416331D02*
X17922967Y-12406807D01*
X17922967Y-12406807D02*
X17894396Y-12406807D01*
X17894396Y-12406807D02*
X17875348Y-12397283D01*
X17875348Y-12397283D02*
X17865824Y-12378236D01*
X17865824Y-12378236D02*
X17865824Y-12368712D01*
X17865824Y-12368712D02*
X17875348Y-12349664D01*
X17875348Y-12349664D02*
X17894396Y-12340140D01*
X17894396Y-12340140D02*
X17922967Y-12340140D01*
X17922967Y-12340140D02*
X17942015Y-12349664D01*
X18189634Y-12397283D02*
X18342015Y-12397283D01*
X18265824Y-12473474D02*
X18265824Y-12321093D01*
X18580110Y-12292521D02*
X18589634Y-12282998D01*
X18589634Y-12282998D02*
X18608681Y-12273474D01*
X18608681Y-12273474D02*
X18656301Y-12273474D01*
X18656301Y-12273474D02*
X18675348Y-12282998D01*
X18675348Y-12282998D02*
X18684872Y-12292521D01*
X18684872Y-12292521D02*
X18694396Y-12311569D01*
X18694396Y-12311569D02*
X18694396Y-12330617D01*
X18694396Y-12330617D02*
X18684872Y-12359188D01*
X18684872Y-12359188D02*
X18570586Y-12473474D01*
X18570586Y-12473474D02*
X18694396Y-12473474D01*
X18922967Y-12463950D02*
X18942015Y-12473474D01*
X18942015Y-12473474D02*
X18980110Y-12473474D01*
X18980110Y-12473474D02*
X18999158Y-12463950D01*
X18999158Y-12463950D02*
X19008682Y-12444902D01*
X19008682Y-12444902D02*
X19008682Y-12435378D01*
X19008682Y-12435378D02*
X18999158Y-12416331D01*
X18999158Y-12416331D02*
X18980110Y-12406807D01*
X18980110Y-12406807D02*
X18951539Y-12406807D01*
X18951539Y-12406807D02*
X18932491Y-12397283D01*
X18932491Y-12397283D02*
X18922967Y-12378236D01*
X18922967Y-12378236D02*
X18922967Y-12368712D01*
X18922967Y-12368712D02*
X18932491Y-12349664D01*
X18932491Y-12349664D02*
X18951539Y-12340140D01*
X18951539Y-12340140D02*
X18980110Y-12340140D01*
X18980110Y-12340140D02*
X18999158Y-12349664D01*
X19122967Y-12473474D02*
X19103920Y-12463950D01*
X19103920Y-12463950D02*
X19094396Y-12444902D01*
X19094396Y-12444902D02*
X19094396Y-12273474D01*
X19227729Y-12473474D02*
X19208682Y-12463950D01*
X19208682Y-12463950D02*
X19199158Y-12454426D01*
X19199158Y-12454426D02*
X19189634Y-12435378D01*
X19189634Y-12435378D02*
X19189634Y-12378236D01*
X19189634Y-12378236D02*
X19199158Y-12359188D01*
X19199158Y-12359188D02*
X19208682Y-12349664D01*
X19208682Y-12349664D02*
X19227729Y-12340140D01*
X19227729Y-12340140D02*
X19256301Y-12340140D01*
X19256301Y-12340140D02*
X19275348Y-12349664D01*
X19275348Y-12349664D02*
X19284872Y-12359188D01*
X19284872Y-12359188D02*
X19294396Y-12378236D01*
X19294396Y-12378236D02*
X19294396Y-12435378D01*
X19294396Y-12435378D02*
X19284872Y-12454426D01*
X19284872Y-12454426D02*
X19275348Y-12463950D01*
X19275348Y-12463950D02*
X19256301Y-12473474D01*
X19256301Y-12473474D02*
X19227729Y-12473474D01*
X19351539Y-12340140D02*
X19427729Y-12340140D01*
X19380110Y-12273474D02*
X19380110Y-12444902D01*
X19380110Y-12444902D02*
X19389634Y-12463950D01*
X19389634Y-12463950D02*
X19408682Y-12473474D01*
X19408682Y-12473474D02*
X19427729Y-12473474D01*
X19484872Y-12463950D02*
X19503920Y-12473474D01*
X19503920Y-12473474D02*
X19542015Y-12473474D01*
X19542015Y-12473474D02*
X19561063Y-12463950D01*
X19561063Y-12463950D02*
X19570586Y-12444902D01*
X19570586Y-12444902D02*
X19570586Y-12435378D01*
X19570586Y-12435378D02*
X19561063Y-12416331D01*
X19561063Y-12416331D02*
X19542015Y-12406807D01*
X19542015Y-12406807D02*
X19513443Y-12406807D01*
X19513443Y-12406807D02*
X19494396Y-12397283D01*
X19494396Y-12397283D02*
X19484872Y-12378236D01*
X19484872Y-12378236D02*
X19484872Y-12368712D01*
X19484872Y-12368712D02*
X19494396Y-12349664D01*
X19494396Y-12349664D02*
X19513443Y-12340140D01*
X19513443Y-12340140D02*
X19542015Y-12340140D01*
X19542015Y-12340140D02*
X19561063Y-12349664D01*
X19637253Y-12549664D02*
X19646777Y-12540140D01*
X19646777Y-12540140D02*
X19665824Y-12511569D01*
X19665824Y-12511569D02*
X19675348Y-12492521D01*
X19675348Y-12492521D02*
X19684872Y-12463950D01*
X19684872Y-12463950D02*
X19694396Y-12416331D01*
X19694396Y-12416331D02*
X19694396Y-12378236D01*
X19694396Y-12378236D02*
X19684872Y-12330617D01*
X19684872Y-12330617D02*
X19675348Y-12302045D01*
X19675348Y-12302045D02*
X19665824Y-12282998D01*
X19665824Y-12282998D02*
X19646777Y-12254426D01*
X19646777Y-12254426D02*
X19637253Y-12244902D01*
D13*
X13218300Y-12606950D02*
X13218300Y-12682950D01*
X13180300Y-12644950D02*
X13256300Y-12644950D01*
D11*
X13542014Y-12537474D02*
X13561062Y-12537474D01*
X13561062Y-12537474D02*
X13580109Y-12546998D01*
X13580109Y-12546998D02*
X13589633Y-12556521D01*
X13589633Y-12556521D02*
X13599157Y-12575569D01*
X13599157Y-12575569D02*
X13608681Y-12613664D01*
X13608681Y-12613664D02*
X13608681Y-12661283D01*
X13608681Y-12661283D02*
X13599157Y-12699378D01*
X13599157Y-12699378D02*
X13589633Y-12718426D01*
X13589633Y-12718426D02*
X13580109Y-12727950D01*
X13580109Y-12727950D02*
X13561062Y-12737474D01*
X13561062Y-12737474D02*
X13542014Y-12737474D01*
X13542014Y-12737474D02*
X13522967Y-12727950D01*
X13522967Y-12727950D02*
X13513443Y-12718426D01*
X13513443Y-12718426D02*
X13503919Y-12699378D01*
X13503919Y-12699378D02*
X13494395Y-12661283D01*
X13494395Y-12661283D02*
X13494395Y-12613664D01*
X13494395Y-12613664D02*
X13503919Y-12575569D01*
X13503919Y-12575569D02*
X13513443Y-12556521D01*
X13513443Y-12556521D02*
X13522967Y-12546998D01*
X13522967Y-12546998D02*
X13542014Y-12537474D01*
X13694395Y-12718426D02*
X13703919Y-12727950D01*
X13703919Y-12727950D02*
X13694395Y-12737474D01*
X13694395Y-12737474D02*
X13684871Y-12727950D01*
X13684871Y-12727950D02*
X13694395Y-12718426D01*
X13694395Y-12718426D02*
X13694395Y-12737474D01*
X13770586Y-12537474D02*
X13903919Y-12537474D01*
X13903919Y-12537474D02*
X13818205Y-12737474D01*
X14065824Y-12537474D02*
X14027728Y-12537474D01*
X14027728Y-12537474D02*
X14008681Y-12546998D01*
X14008681Y-12546998D02*
X13999157Y-12556521D01*
X13999157Y-12556521D02*
X13980109Y-12585093D01*
X13980109Y-12585093D02*
X13970586Y-12623188D01*
X13970586Y-12623188D02*
X13970586Y-12699378D01*
X13970586Y-12699378D02*
X13980109Y-12718426D01*
X13980109Y-12718426D02*
X13989633Y-12727950D01*
X13989633Y-12727950D02*
X14008681Y-12737474D01*
X14008681Y-12737474D02*
X14046776Y-12737474D01*
X14046776Y-12737474D02*
X14065824Y-12727950D01*
X14065824Y-12727950D02*
X14075348Y-12718426D01*
X14075348Y-12718426D02*
X14084871Y-12699378D01*
X14084871Y-12699378D02*
X14084871Y-12651759D01*
X14084871Y-12651759D02*
X14075348Y-12632712D01*
X14075348Y-12632712D02*
X14065824Y-12623188D01*
X14065824Y-12623188D02*
X14046776Y-12613664D01*
X14046776Y-12613664D02*
X14008681Y-12613664D01*
X14008681Y-12613664D02*
X13989633Y-12623188D01*
X13989633Y-12623188D02*
X13980109Y-12632712D01*
X13980109Y-12632712D02*
X13970586Y-12651759D01*
X14208681Y-12537474D02*
X14227729Y-12537474D01*
X14227729Y-12537474D02*
X14246776Y-12546998D01*
X14246776Y-12546998D02*
X14256300Y-12556521D01*
X14256300Y-12556521D02*
X14265824Y-12575569D01*
X14265824Y-12575569D02*
X14275348Y-12613664D01*
X14275348Y-12613664D02*
X14275348Y-12661283D01*
X14275348Y-12661283D02*
X14265824Y-12699378D01*
X14265824Y-12699378D02*
X14256300Y-12718426D01*
X14256300Y-12718426D02*
X14246776Y-12727950D01*
X14246776Y-12727950D02*
X14227729Y-12737474D01*
X14227729Y-12737474D02*
X14208681Y-12737474D01*
X14208681Y-12737474D02*
X14189633Y-12727950D01*
X14189633Y-12727950D02*
X14180109Y-12718426D01*
X14180109Y-12718426D02*
X14170586Y-12699378D01*
X14170586Y-12699378D02*
X14161062Y-12661283D01*
X14161062Y-12661283D02*
X14161062Y-12613664D01*
X14161062Y-12613664D02*
X14170586Y-12575569D01*
X14170586Y-12575569D02*
X14180109Y-12556521D01*
X14180109Y-12556521D02*
X14189633Y-12546998D01*
X14189633Y-12546998D02*
X14208681Y-12537474D01*
X14361062Y-12737474D02*
X14361062Y-12604140D01*
X14361062Y-12623188D02*
X14370586Y-12613664D01*
X14370586Y-12613664D02*
X14389633Y-12604140D01*
X14389633Y-12604140D02*
X14418205Y-12604140D01*
X14418205Y-12604140D02*
X14437252Y-12613664D01*
X14437252Y-12613664D02*
X14446776Y-12632712D01*
X14446776Y-12632712D02*
X14446776Y-12737474D01*
X14446776Y-12632712D02*
X14456300Y-12613664D01*
X14456300Y-12613664D02*
X14475348Y-12604140D01*
X14475348Y-12604140D02*
X14503919Y-12604140D01*
X14503919Y-12604140D02*
X14522967Y-12613664D01*
X14522967Y-12613664D02*
X14532490Y-12632712D01*
X14532490Y-12632712D02*
X14532490Y-12737474D01*
X14627729Y-12737474D02*
X14627729Y-12604140D01*
X14627729Y-12623188D02*
X14637252Y-12613664D01*
X14637252Y-12613664D02*
X14656300Y-12604140D01*
X14656300Y-12604140D02*
X14684871Y-12604140D01*
X14684871Y-12604140D02*
X14703919Y-12613664D01*
X14703919Y-12613664D02*
X14713443Y-12632712D01*
X14713443Y-12632712D02*
X14713443Y-12737474D01*
X14713443Y-12632712D02*
X14722967Y-12613664D01*
X14722967Y-12613664D02*
X14742014Y-12604140D01*
X14742014Y-12604140D02*
X14770586Y-12604140D01*
X14770586Y-12604140D02*
X14789633Y-12613664D01*
X14789633Y-12613664D02*
X14799157Y-12632712D01*
X14799157Y-12632712D02*
X14799157Y-12737474D01*
X15189633Y-12527950D02*
X15018205Y-12785093D01*
X15446776Y-12537474D02*
X15465824Y-12537474D01*
X15465824Y-12537474D02*
X15484872Y-12546998D01*
X15484872Y-12546998D02*
X15494395Y-12556521D01*
X15494395Y-12556521D02*
X15503919Y-12575569D01*
X15503919Y-12575569D02*
X15513443Y-12613664D01*
X15513443Y-12613664D02*
X15513443Y-12661283D01*
X15513443Y-12661283D02*
X15503919Y-12699378D01*
X15503919Y-12699378D02*
X15494395Y-12718426D01*
X15494395Y-12718426D02*
X15484872Y-12727950D01*
X15484872Y-12727950D02*
X15465824Y-12737474D01*
X15465824Y-12737474D02*
X15446776Y-12737474D01*
X15446776Y-12737474D02*
X15427729Y-12727950D01*
X15427729Y-12727950D02*
X15418205Y-12718426D01*
X15418205Y-12718426D02*
X15408681Y-12699378D01*
X15408681Y-12699378D02*
X15399157Y-12661283D01*
X15399157Y-12661283D02*
X15399157Y-12613664D01*
X15399157Y-12613664D02*
X15408681Y-12575569D01*
X15408681Y-12575569D02*
X15418205Y-12556521D01*
X15418205Y-12556521D02*
X15427729Y-12546998D01*
X15427729Y-12546998D02*
X15446776Y-12537474D01*
X15599157Y-12718426D02*
X15608681Y-12727950D01*
X15608681Y-12727950D02*
X15599157Y-12737474D01*
X15599157Y-12737474D02*
X15589633Y-12727950D01*
X15589633Y-12727950D02*
X15599157Y-12718426D01*
X15599157Y-12718426D02*
X15599157Y-12737474D01*
X15732491Y-12537474D02*
X15751538Y-12537474D01*
X15751538Y-12537474D02*
X15770586Y-12546998D01*
X15770586Y-12546998D02*
X15780110Y-12556521D01*
X15780110Y-12556521D02*
X15789633Y-12575569D01*
X15789633Y-12575569D02*
X15799157Y-12613664D01*
X15799157Y-12613664D02*
X15799157Y-12661283D01*
X15799157Y-12661283D02*
X15789633Y-12699378D01*
X15789633Y-12699378D02*
X15780110Y-12718426D01*
X15780110Y-12718426D02*
X15770586Y-12727950D01*
X15770586Y-12727950D02*
X15751538Y-12737474D01*
X15751538Y-12737474D02*
X15732491Y-12737474D01*
X15732491Y-12737474D02*
X15713443Y-12727950D01*
X15713443Y-12727950D02*
X15703919Y-12718426D01*
X15703919Y-12718426D02*
X15694395Y-12699378D01*
X15694395Y-12699378D02*
X15684872Y-12661283D01*
X15684872Y-12661283D02*
X15684872Y-12613664D01*
X15684872Y-12613664D02*
X15694395Y-12575569D01*
X15694395Y-12575569D02*
X15703919Y-12556521D01*
X15703919Y-12556521D02*
X15713443Y-12546998D01*
X15713443Y-12546998D02*
X15732491Y-12537474D01*
X15875348Y-12556521D02*
X15884872Y-12546998D01*
X15884872Y-12546998D02*
X15903919Y-12537474D01*
X15903919Y-12537474D02*
X15951538Y-12537474D01*
X15951538Y-12537474D02*
X15970586Y-12546998D01*
X15970586Y-12546998D02*
X15980110Y-12556521D01*
X15980110Y-12556521D02*
X15989633Y-12575569D01*
X15989633Y-12575569D02*
X15989633Y-12594617D01*
X15989633Y-12594617D02*
X15980110Y-12623188D01*
X15980110Y-12623188D02*
X15865824Y-12737474D01*
X15865824Y-12737474D02*
X15989633Y-12737474D01*
X16084872Y-12737474D02*
X16122967Y-12737474D01*
X16122967Y-12737474D02*
X16142014Y-12727950D01*
X16142014Y-12727950D02*
X16151538Y-12718426D01*
X16151538Y-12718426D02*
X16170586Y-12689855D01*
X16170586Y-12689855D02*
X16180110Y-12651759D01*
X16180110Y-12651759D02*
X16180110Y-12575569D01*
X16180110Y-12575569D02*
X16170586Y-12556521D01*
X16170586Y-12556521D02*
X16161062Y-12546998D01*
X16161062Y-12546998D02*
X16142014Y-12537474D01*
X16142014Y-12537474D02*
X16103919Y-12537474D01*
X16103919Y-12537474D02*
X16084872Y-12546998D01*
X16084872Y-12546998D02*
X16075348Y-12556521D01*
X16075348Y-12556521D02*
X16065824Y-12575569D01*
X16065824Y-12575569D02*
X16065824Y-12623188D01*
X16065824Y-12623188D02*
X16075348Y-12642236D01*
X16075348Y-12642236D02*
X16084872Y-12651759D01*
X16084872Y-12651759D02*
X16103919Y-12661283D01*
X16103919Y-12661283D02*
X16142014Y-12661283D01*
X16142014Y-12661283D02*
X16161062Y-12651759D01*
X16161062Y-12651759D02*
X16170586Y-12642236D01*
X16170586Y-12642236D02*
X16180110Y-12623188D01*
X16275348Y-12737474D02*
X16313443Y-12737474D01*
X16313443Y-12737474D02*
X16332491Y-12727950D01*
X16332491Y-12727950D02*
X16342014Y-12718426D01*
X16342014Y-12718426D02*
X16361062Y-12689855D01*
X16361062Y-12689855D02*
X16370586Y-12651759D01*
X16370586Y-12651759D02*
X16370586Y-12575569D01*
X16370586Y-12575569D02*
X16361062Y-12556521D01*
X16361062Y-12556521D02*
X16351538Y-12546998D01*
X16351538Y-12546998D02*
X16332491Y-12537474D01*
X16332491Y-12537474D02*
X16294395Y-12537474D01*
X16294395Y-12537474D02*
X16275348Y-12546998D01*
X16275348Y-12546998D02*
X16265824Y-12556521D01*
X16265824Y-12556521D02*
X16256300Y-12575569D01*
X16256300Y-12575569D02*
X16256300Y-12623188D01*
X16256300Y-12623188D02*
X16265824Y-12642236D01*
X16265824Y-12642236D02*
X16275348Y-12651759D01*
X16275348Y-12651759D02*
X16294395Y-12661283D01*
X16294395Y-12661283D02*
X16332491Y-12661283D01*
X16332491Y-12661283D02*
X16351538Y-12651759D01*
X16351538Y-12651759D02*
X16361062Y-12642236D01*
X16361062Y-12642236D02*
X16370586Y-12623188D01*
X16446776Y-12537474D02*
X16446776Y-12575569D01*
X16522967Y-12537474D02*
X16522967Y-12575569D01*
X16818205Y-12813664D02*
X16808681Y-12804140D01*
X16808681Y-12804140D02*
X16789634Y-12775569D01*
X16789634Y-12775569D02*
X16780110Y-12756521D01*
X16780110Y-12756521D02*
X16770586Y-12727950D01*
X16770586Y-12727950D02*
X16761062Y-12680331D01*
X16761062Y-12680331D02*
X16761062Y-12642236D01*
X16761062Y-12642236D02*
X16770586Y-12594617D01*
X16770586Y-12594617D02*
X16780110Y-12566045D01*
X16780110Y-12566045D02*
X16789634Y-12546998D01*
X16789634Y-12546998D02*
X16808681Y-12518426D01*
X16808681Y-12518426D02*
X16818205Y-12508902D01*
X16922967Y-12623188D02*
X16903919Y-12613664D01*
X16903919Y-12613664D02*
X16894396Y-12604140D01*
X16894396Y-12604140D02*
X16884872Y-12585093D01*
X16884872Y-12585093D02*
X16884872Y-12575569D01*
X16884872Y-12575569D02*
X16894396Y-12556521D01*
X16894396Y-12556521D02*
X16903919Y-12546998D01*
X16903919Y-12546998D02*
X16922967Y-12537474D01*
X16922967Y-12537474D02*
X16961062Y-12537474D01*
X16961062Y-12537474D02*
X16980110Y-12546998D01*
X16980110Y-12546998D02*
X16989634Y-12556521D01*
X16989634Y-12556521D02*
X16999157Y-12575569D01*
X16999157Y-12575569D02*
X16999157Y-12585093D01*
X16999157Y-12585093D02*
X16989634Y-12604140D01*
X16989634Y-12604140D02*
X16980110Y-12613664D01*
X16980110Y-12613664D02*
X16961062Y-12623188D01*
X16961062Y-12623188D02*
X16922967Y-12623188D01*
X16922967Y-12623188D02*
X16903919Y-12632712D01*
X16903919Y-12632712D02*
X16894396Y-12642236D01*
X16894396Y-12642236D02*
X16884872Y-12661283D01*
X16884872Y-12661283D02*
X16884872Y-12699378D01*
X16884872Y-12699378D02*
X16894396Y-12718426D01*
X16894396Y-12718426D02*
X16903919Y-12727950D01*
X16903919Y-12727950D02*
X16922967Y-12737474D01*
X16922967Y-12737474D02*
X16961062Y-12737474D01*
X16961062Y-12737474D02*
X16980110Y-12727950D01*
X16980110Y-12727950D02*
X16989634Y-12718426D01*
X16989634Y-12718426D02*
X16999157Y-12699378D01*
X16999157Y-12699378D02*
X16999157Y-12661283D01*
X16999157Y-12661283D02*
X16989634Y-12642236D01*
X16989634Y-12642236D02*
X16980110Y-12632712D01*
X16980110Y-12632712D02*
X16961062Y-12623188D01*
X17237253Y-12737474D02*
X17237253Y-12537474D01*
X17322967Y-12737474D02*
X17322967Y-12632712D01*
X17322967Y-12632712D02*
X17313443Y-12613664D01*
X17313443Y-12613664D02*
X17294396Y-12604140D01*
X17294396Y-12604140D02*
X17265824Y-12604140D01*
X17265824Y-12604140D02*
X17246777Y-12613664D01*
X17246777Y-12613664D02*
X17237253Y-12623188D01*
X17446777Y-12737474D02*
X17427729Y-12727950D01*
X17427729Y-12727950D02*
X17418205Y-12718426D01*
X17418205Y-12718426D02*
X17408681Y-12699378D01*
X17408681Y-12699378D02*
X17408681Y-12642236D01*
X17408681Y-12642236D02*
X17418205Y-12623188D01*
X17418205Y-12623188D02*
X17427729Y-12613664D01*
X17427729Y-12613664D02*
X17446777Y-12604140D01*
X17446777Y-12604140D02*
X17475348Y-12604140D01*
X17475348Y-12604140D02*
X17494396Y-12613664D01*
X17494396Y-12613664D02*
X17503919Y-12623188D01*
X17503919Y-12623188D02*
X17513443Y-12642236D01*
X17513443Y-12642236D02*
X17513443Y-12699378D01*
X17513443Y-12699378D02*
X17503919Y-12718426D01*
X17503919Y-12718426D02*
X17494396Y-12727950D01*
X17494396Y-12727950D02*
X17475348Y-12737474D01*
X17475348Y-12737474D02*
X17446777Y-12737474D01*
X17627729Y-12737474D02*
X17608681Y-12727950D01*
X17608681Y-12727950D02*
X17599158Y-12708902D01*
X17599158Y-12708902D02*
X17599158Y-12537474D01*
X17780110Y-12727950D02*
X17761062Y-12737474D01*
X17761062Y-12737474D02*
X17722967Y-12737474D01*
X17722967Y-12737474D02*
X17703919Y-12727950D01*
X17703919Y-12727950D02*
X17694396Y-12708902D01*
X17694396Y-12708902D02*
X17694396Y-12632712D01*
X17694396Y-12632712D02*
X17703919Y-12613664D01*
X17703919Y-12613664D02*
X17722967Y-12604140D01*
X17722967Y-12604140D02*
X17761062Y-12604140D01*
X17761062Y-12604140D02*
X17780110Y-12613664D01*
X17780110Y-12613664D02*
X17789634Y-12632712D01*
X17789634Y-12632712D02*
X17789634Y-12651759D01*
X17789634Y-12651759D02*
X17694396Y-12670807D01*
X17865824Y-12727950D02*
X17884872Y-12737474D01*
X17884872Y-12737474D02*
X17922967Y-12737474D01*
X17922967Y-12737474D02*
X17942015Y-12727950D01*
X17942015Y-12727950D02*
X17951539Y-12708902D01*
X17951539Y-12708902D02*
X17951539Y-12699378D01*
X17951539Y-12699378D02*
X17942015Y-12680331D01*
X17942015Y-12680331D02*
X17922967Y-12670807D01*
X17922967Y-12670807D02*
X17894396Y-12670807D01*
X17894396Y-12670807D02*
X17875348Y-12661283D01*
X17875348Y-12661283D02*
X17865824Y-12642236D01*
X17865824Y-12642236D02*
X17865824Y-12632712D01*
X17865824Y-12632712D02*
X17875348Y-12613664D01*
X17875348Y-12613664D02*
X17894396Y-12604140D01*
X17894396Y-12604140D02*
X17922967Y-12604140D01*
X17922967Y-12604140D02*
X17942015Y-12613664D01*
X18018205Y-12813664D02*
X18027729Y-12804140D01*
X18027729Y-12804140D02*
X18046777Y-12775569D01*
X18046777Y-12775569D02*
X18056300Y-12756521D01*
X18056300Y-12756521D02*
X18065824Y-12727950D01*
X18065824Y-12727950D02*
X18075348Y-12680331D01*
X18075348Y-12680331D02*
X18075348Y-12642236D01*
X18075348Y-12642236D02*
X18065824Y-12594617D01*
X18065824Y-12594617D02*
X18056300Y-12566045D01*
X18056300Y-12566045D02*
X18046777Y-12546998D01*
X18046777Y-12546998D02*
X18027729Y-12518426D01*
X18027729Y-12518426D02*
X18018205Y-12508902D01*
D14*
X13241656Y-12944306D02*
X13241656Y-12873594D01*
X13170944Y-12873594D01*
X13170944Y-12944306D01*
X13241656Y-12944306D01*
D11*
X13608681Y-13001474D02*
X13494395Y-13001474D01*
X13551538Y-13001474D02*
X13551538Y-12801474D01*
X13551538Y-12801474D02*
X13532490Y-12830045D01*
X13532490Y-12830045D02*
X13513443Y-12849093D01*
X13513443Y-12849093D02*
X13494395Y-12858617D01*
X13694395Y-12982426D02*
X13703919Y-12991950D01*
X13703919Y-12991950D02*
X13694395Y-13001474D01*
X13694395Y-13001474D02*
X13684871Y-12991950D01*
X13684871Y-12991950D02*
X13694395Y-12982426D01*
X13694395Y-12982426D02*
X13694395Y-13001474D01*
X13827728Y-12801474D02*
X13846776Y-12801474D01*
X13846776Y-12801474D02*
X13865824Y-12810998D01*
X13865824Y-12810998D02*
X13875348Y-12820521D01*
X13875348Y-12820521D02*
X13884871Y-12839569D01*
X13884871Y-12839569D02*
X13894395Y-12877664D01*
X13894395Y-12877664D02*
X13894395Y-12925283D01*
X13894395Y-12925283D02*
X13884871Y-12963378D01*
X13884871Y-12963378D02*
X13875348Y-12982426D01*
X13875348Y-12982426D02*
X13865824Y-12991950D01*
X13865824Y-12991950D02*
X13846776Y-13001474D01*
X13846776Y-13001474D02*
X13827728Y-13001474D01*
X13827728Y-13001474D02*
X13808681Y-12991950D01*
X13808681Y-12991950D02*
X13799157Y-12982426D01*
X13799157Y-12982426D02*
X13789633Y-12963378D01*
X13789633Y-12963378D02*
X13780109Y-12925283D01*
X13780109Y-12925283D02*
X13780109Y-12877664D01*
X13780109Y-12877664D02*
X13789633Y-12839569D01*
X13789633Y-12839569D02*
X13799157Y-12820521D01*
X13799157Y-12820521D02*
X13808681Y-12810998D01*
X13808681Y-12810998D02*
X13827728Y-12801474D01*
X14018205Y-12801474D02*
X14037252Y-12801474D01*
X14037252Y-12801474D02*
X14056300Y-12810998D01*
X14056300Y-12810998D02*
X14065824Y-12820521D01*
X14065824Y-12820521D02*
X14075348Y-12839569D01*
X14075348Y-12839569D02*
X14084871Y-12877664D01*
X14084871Y-12877664D02*
X14084871Y-12925283D01*
X14084871Y-12925283D02*
X14075348Y-12963378D01*
X14075348Y-12963378D02*
X14065824Y-12982426D01*
X14065824Y-12982426D02*
X14056300Y-12991950D01*
X14056300Y-12991950D02*
X14037252Y-13001474D01*
X14037252Y-13001474D02*
X14018205Y-13001474D01*
X14018205Y-13001474D02*
X13999157Y-12991950D01*
X13999157Y-12991950D02*
X13989633Y-12982426D01*
X13989633Y-12982426D02*
X13980109Y-12963378D01*
X13980109Y-12963378D02*
X13970586Y-12925283D01*
X13970586Y-12925283D02*
X13970586Y-12877664D01*
X13970586Y-12877664D02*
X13980109Y-12839569D01*
X13980109Y-12839569D02*
X13989633Y-12820521D01*
X13989633Y-12820521D02*
X13999157Y-12810998D01*
X13999157Y-12810998D02*
X14018205Y-12801474D01*
X14208681Y-12801474D02*
X14227729Y-12801474D01*
X14227729Y-12801474D02*
X14246776Y-12810998D01*
X14246776Y-12810998D02*
X14256300Y-12820521D01*
X14256300Y-12820521D02*
X14265824Y-12839569D01*
X14265824Y-12839569D02*
X14275348Y-12877664D01*
X14275348Y-12877664D02*
X14275348Y-12925283D01*
X14275348Y-12925283D02*
X14265824Y-12963378D01*
X14265824Y-12963378D02*
X14256300Y-12982426D01*
X14256300Y-12982426D02*
X14246776Y-12991950D01*
X14246776Y-12991950D02*
X14227729Y-13001474D01*
X14227729Y-13001474D02*
X14208681Y-13001474D01*
X14208681Y-13001474D02*
X14189633Y-12991950D01*
X14189633Y-12991950D02*
X14180109Y-12982426D01*
X14180109Y-12982426D02*
X14170586Y-12963378D01*
X14170586Y-12963378D02*
X14161062Y-12925283D01*
X14161062Y-12925283D02*
X14161062Y-12877664D01*
X14161062Y-12877664D02*
X14170586Y-12839569D01*
X14170586Y-12839569D02*
X14180109Y-12820521D01*
X14180109Y-12820521D02*
X14189633Y-12810998D01*
X14189633Y-12810998D02*
X14208681Y-12801474D01*
X14361062Y-13001474D02*
X14361062Y-12868140D01*
X14361062Y-12887188D02*
X14370586Y-12877664D01*
X14370586Y-12877664D02*
X14389633Y-12868140D01*
X14389633Y-12868140D02*
X14418205Y-12868140D01*
X14418205Y-12868140D02*
X14437252Y-12877664D01*
X14437252Y-12877664D02*
X14446776Y-12896712D01*
X14446776Y-12896712D02*
X14446776Y-13001474D01*
X14446776Y-12896712D02*
X14456300Y-12877664D01*
X14456300Y-12877664D02*
X14475348Y-12868140D01*
X14475348Y-12868140D02*
X14503919Y-12868140D01*
X14503919Y-12868140D02*
X14522967Y-12877664D01*
X14522967Y-12877664D02*
X14532490Y-12896712D01*
X14532490Y-12896712D02*
X14532490Y-13001474D01*
X14627729Y-13001474D02*
X14627729Y-12868140D01*
X14627729Y-12887188D02*
X14637252Y-12877664D01*
X14637252Y-12877664D02*
X14656300Y-12868140D01*
X14656300Y-12868140D02*
X14684871Y-12868140D01*
X14684871Y-12868140D02*
X14703919Y-12877664D01*
X14703919Y-12877664D02*
X14713443Y-12896712D01*
X14713443Y-12896712D02*
X14713443Y-13001474D01*
X14713443Y-12896712D02*
X14722967Y-12877664D01*
X14722967Y-12877664D02*
X14742014Y-12868140D01*
X14742014Y-12868140D02*
X14770586Y-12868140D01*
X14770586Y-12868140D02*
X14789633Y-12877664D01*
X14789633Y-12877664D02*
X14799157Y-12896712D01*
X14799157Y-12896712D02*
X14799157Y-13001474D01*
X15189633Y-12791950D02*
X15018205Y-13049093D01*
X15446776Y-12801474D02*
X15465824Y-12801474D01*
X15465824Y-12801474D02*
X15484872Y-12810998D01*
X15484872Y-12810998D02*
X15494395Y-12820521D01*
X15494395Y-12820521D02*
X15503919Y-12839569D01*
X15503919Y-12839569D02*
X15513443Y-12877664D01*
X15513443Y-12877664D02*
X15513443Y-12925283D01*
X15513443Y-12925283D02*
X15503919Y-12963378D01*
X15503919Y-12963378D02*
X15494395Y-12982426D01*
X15494395Y-12982426D02*
X15484872Y-12991950D01*
X15484872Y-12991950D02*
X15465824Y-13001474D01*
X15465824Y-13001474D02*
X15446776Y-13001474D01*
X15446776Y-13001474D02*
X15427729Y-12991950D01*
X15427729Y-12991950D02*
X15418205Y-12982426D01*
X15418205Y-12982426D02*
X15408681Y-12963378D01*
X15408681Y-12963378D02*
X15399157Y-12925283D01*
X15399157Y-12925283D02*
X15399157Y-12877664D01*
X15399157Y-12877664D02*
X15408681Y-12839569D01*
X15408681Y-12839569D02*
X15418205Y-12820521D01*
X15418205Y-12820521D02*
X15427729Y-12810998D01*
X15427729Y-12810998D02*
X15446776Y-12801474D01*
X15599157Y-12982426D02*
X15608681Y-12991950D01*
X15608681Y-12991950D02*
X15599157Y-13001474D01*
X15599157Y-13001474D02*
X15589633Y-12991950D01*
X15589633Y-12991950D02*
X15599157Y-12982426D01*
X15599157Y-12982426D02*
X15599157Y-13001474D01*
X15732491Y-12801474D02*
X15751538Y-12801474D01*
X15751538Y-12801474D02*
X15770586Y-12810998D01*
X15770586Y-12810998D02*
X15780110Y-12820521D01*
X15780110Y-12820521D02*
X15789633Y-12839569D01*
X15789633Y-12839569D02*
X15799157Y-12877664D01*
X15799157Y-12877664D02*
X15799157Y-12925283D01*
X15799157Y-12925283D02*
X15789633Y-12963378D01*
X15789633Y-12963378D02*
X15780110Y-12982426D01*
X15780110Y-12982426D02*
X15770586Y-12991950D01*
X15770586Y-12991950D02*
X15751538Y-13001474D01*
X15751538Y-13001474D02*
X15732491Y-13001474D01*
X15732491Y-13001474D02*
X15713443Y-12991950D01*
X15713443Y-12991950D02*
X15703919Y-12982426D01*
X15703919Y-12982426D02*
X15694395Y-12963378D01*
X15694395Y-12963378D02*
X15684872Y-12925283D01*
X15684872Y-12925283D02*
X15684872Y-12877664D01*
X15684872Y-12877664D02*
X15694395Y-12839569D01*
X15694395Y-12839569D02*
X15703919Y-12820521D01*
X15703919Y-12820521D02*
X15713443Y-12810998D01*
X15713443Y-12810998D02*
X15732491Y-12801474D01*
X15865824Y-12801474D02*
X15989633Y-12801474D01*
X15989633Y-12801474D02*
X15922967Y-12877664D01*
X15922967Y-12877664D02*
X15951538Y-12877664D01*
X15951538Y-12877664D02*
X15970586Y-12887188D01*
X15970586Y-12887188D02*
X15980110Y-12896712D01*
X15980110Y-12896712D02*
X15989633Y-12915759D01*
X15989633Y-12915759D02*
X15989633Y-12963378D01*
X15989633Y-12963378D02*
X15980110Y-12982426D01*
X15980110Y-12982426D02*
X15970586Y-12991950D01*
X15970586Y-12991950D02*
X15951538Y-13001474D01*
X15951538Y-13001474D02*
X15894395Y-13001474D01*
X15894395Y-13001474D02*
X15875348Y-12991950D01*
X15875348Y-12991950D02*
X15865824Y-12982426D01*
X16084872Y-13001474D02*
X16122967Y-13001474D01*
X16122967Y-13001474D02*
X16142014Y-12991950D01*
X16142014Y-12991950D02*
X16151538Y-12982426D01*
X16151538Y-12982426D02*
X16170586Y-12953855D01*
X16170586Y-12953855D02*
X16180110Y-12915759D01*
X16180110Y-12915759D02*
X16180110Y-12839569D01*
X16180110Y-12839569D02*
X16170586Y-12820521D01*
X16170586Y-12820521D02*
X16161062Y-12810998D01*
X16161062Y-12810998D02*
X16142014Y-12801474D01*
X16142014Y-12801474D02*
X16103919Y-12801474D01*
X16103919Y-12801474D02*
X16084872Y-12810998D01*
X16084872Y-12810998D02*
X16075348Y-12820521D01*
X16075348Y-12820521D02*
X16065824Y-12839569D01*
X16065824Y-12839569D02*
X16065824Y-12887188D01*
X16065824Y-12887188D02*
X16075348Y-12906236D01*
X16075348Y-12906236D02*
X16084872Y-12915759D01*
X16084872Y-12915759D02*
X16103919Y-12925283D01*
X16103919Y-12925283D02*
X16142014Y-12925283D01*
X16142014Y-12925283D02*
X16161062Y-12915759D01*
X16161062Y-12915759D02*
X16170586Y-12906236D01*
X16170586Y-12906236D02*
X16180110Y-12887188D01*
X16351538Y-12868140D02*
X16351538Y-13001474D01*
X16303919Y-12791950D02*
X16256300Y-12934807D01*
X16256300Y-12934807D02*
X16380110Y-12934807D01*
X16446776Y-12801474D02*
X16446776Y-12839569D01*
X16522967Y-12801474D02*
X16522967Y-12839569D01*
X16818205Y-13077664D02*
X16808681Y-13068140D01*
X16808681Y-13068140D02*
X16789634Y-13039569D01*
X16789634Y-13039569D02*
X16780110Y-13020521D01*
X16780110Y-13020521D02*
X16770586Y-12991950D01*
X16770586Y-12991950D02*
X16761062Y-12944331D01*
X16761062Y-12944331D02*
X16761062Y-12906236D01*
X16761062Y-12906236D02*
X16770586Y-12858617D01*
X16770586Y-12858617D02*
X16780110Y-12830045D01*
X16780110Y-12830045D02*
X16789634Y-12810998D01*
X16789634Y-12810998D02*
X16808681Y-12782426D01*
X16808681Y-12782426D02*
X16818205Y-12772902D01*
X16999157Y-13001474D02*
X16884872Y-13001474D01*
X16942015Y-13001474D02*
X16942015Y-12801474D01*
X16942015Y-12801474D02*
X16922967Y-12830045D01*
X16922967Y-12830045D02*
X16903919Y-12849093D01*
X16903919Y-12849093D02*
X16884872Y-12858617D01*
X17170586Y-12868140D02*
X17170586Y-13001474D01*
X17122967Y-12791950D02*
X17075348Y-12934807D01*
X17075348Y-12934807D02*
X17199157Y-12934807D01*
X17427729Y-13001474D02*
X17427729Y-12801474D01*
X17513443Y-13001474D02*
X17513443Y-12896712D01*
X17513443Y-12896712D02*
X17503919Y-12877664D01*
X17503919Y-12877664D02*
X17484872Y-12868140D01*
X17484872Y-12868140D02*
X17456300Y-12868140D01*
X17456300Y-12868140D02*
X17437253Y-12877664D01*
X17437253Y-12877664D02*
X17427729Y-12887188D01*
X17637253Y-13001474D02*
X17618205Y-12991950D01*
X17618205Y-12991950D02*
X17608681Y-12982426D01*
X17608681Y-12982426D02*
X17599158Y-12963378D01*
X17599158Y-12963378D02*
X17599158Y-12906236D01*
X17599158Y-12906236D02*
X17608681Y-12887188D01*
X17608681Y-12887188D02*
X17618205Y-12877664D01*
X17618205Y-12877664D02*
X17637253Y-12868140D01*
X17637253Y-12868140D02*
X17665824Y-12868140D01*
X17665824Y-12868140D02*
X17684872Y-12877664D01*
X17684872Y-12877664D02*
X17694396Y-12887188D01*
X17694396Y-12887188D02*
X17703919Y-12906236D01*
X17703919Y-12906236D02*
X17703919Y-12963378D01*
X17703919Y-12963378D02*
X17694396Y-12982426D01*
X17694396Y-12982426D02*
X17684872Y-12991950D01*
X17684872Y-12991950D02*
X17665824Y-13001474D01*
X17665824Y-13001474D02*
X17637253Y-13001474D01*
X17818205Y-13001474D02*
X17799158Y-12991950D01*
X17799158Y-12991950D02*
X17789634Y-12972902D01*
X17789634Y-12972902D02*
X17789634Y-12801474D01*
X17970586Y-12991950D02*
X17951539Y-13001474D01*
X17951539Y-13001474D02*
X17913443Y-13001474D01*
X17913443Y-13001474D02*
X17894396Y-12991950D01*
X17894396Y-12991950D02*
X17884872Y-12972902D01*
X17884872Y-12972902D02*
X17884872Y-12896712D01*
X17884872Y-12896712D02*
X17894396Y-12877664D01*
X17894396Y-12877664D02*
X17913443Y-12868140D01*
X17913443Y-12868140D02*
X17951539Y-12868140D01*
X17951539Y-12868140D02*
X17970586Y-12877664D01*
X17970586Y-12877664D02*
X17980110Y-12896712D01*
X17980110Y-12896712D02*
X17980110Y-12915759D01*
X17980110Y-12915759D02*
X17884872Y-12934807D01*
X18056300Y-12991950D02*
X18075348Y-13001474D01*
X18075348Y-13001474D02*
X18113443Y-13001474D01*
X18113443Y-13001474D02*
X18132491Y-12991950D01*
X18132491Y-12991950D02*
X18142015Y-12972902D01*
X18142015Y-12972902D02*
X18142015Y-12963378D01*
X18142015Y-12963378D02*
X18132491Y-12944331D01*
X18132491Y-12944331D02*
X18113443Y-12934807D01*
X18113443Y-12934807D02*
X18084872Y-12934807D01*
X18084872Y-12934807D02*
X18065824Y-12925283D01*
X18065824Y-12925283D02*
X18056300Y-12906236D01*
X18056300Y-12906236D02*
X18056300Y-12896712D01*
X18056300Y-12896712D02*
X18065824Y-12877664D01*
X18065824Y-12877664D02*
X18084872Y-12868140D01*
X18084872Y-12868140D02*
X18113443Y-12868140D01*
X18113443Y-12868140D02*
X18132491Y-12877664D01*
X18208681Y-13077664D02*
X18218205Y-13068140D01*
X18218205Y-13068140D02*
X18237253Y-13039569D01*
X18237253Y-13039569D02*
X18246777Y-13020521D01*
X18246777Y-13020521D02*
X18256300Y-12991950D01*
X18256300Y-12991950D02*
X18265824Y-12944331D01*
X18265824Y-12944331D02*
X18265824Y-12906236D01*
X18265824Y-12906236D02*
X18256300Y-12858617D01*
X18256300Y-12858617D02*
X18246777Y-12830045D01*
X18246777Y-12830045D02*
X18237253Y-12810998D01*
X18237253Y-12810998D02*
X18218205Y-12782426D01*
X18218205Y-12782426D02*
X18208681Y-12772902D01*
M02*
