G04 #@! TF.GenerationSoftware,KiCad,Pcbnew,(5.1.5)-3*
G04 #@! TF.CreationDate,2021-01-31T16:22:46-06:00*
G04 #@! TF.ProjectId,HallSensorSMD_9_Pos,48616c6c-5365-46e7-936f-72534d445f39,rev?*
G04 #@! TF.SameCoordinates,Original*
G04 #@! TF.FileFunction,Paste,Top*
G04 #@! TF.FilePolarity,Positive*
%FSLAX46Y46*%
G04 Gerber Fmt 4.6, Leading zero omitted, Abs format (unit mm)*
G04 Created by KiCad (PCBNEW (5.1.5)-3) date 2021-01-31 16:22:46*
%MOMM*%
%LPD*%
G04 APERTURE LIST*
%ADD10C,0.100000*%
%ADD11R,0.900000X0.800000*%
G04 APERTURE END LIST*
D10*
G36*
X143712806Y-59079964D02*
G01*
X144368127Y-58621103D01*
X144884346Y-59358340D01*
X144229025Y-59817201D01*
X143712806Y-59079964D01*
G37*
G36*
X141787459Y-57986558D02*
G01*
X142442780Y-57527697D01*
X142958999Y-58264934D01*
X142303678Y-58723795D01*
X141787459Y-57986558D01*
G37*
G36*
X143343848Y-56896762D02*
G01*
X143999169Y-56437901D01*
X144515388Y-57175138D01*
X143860067Y-57633999D01*
X143343848Y-56896762D01*
G37*
G36*
X141111078Y-56365280D02*
G01*
X141646382Y-55770764D01*
X142315212Y-56372982D01*
X141779908Y-56967498D01*
X141111078Y-56365280D01*
G37*
G36*
X138989114Y-55733006D02*
G01*
X139524418Y-55138490D01*
X140193248Y-55740708D01*
X139657944Y-56335224D01*
X138989114Y-55733006D01*
G37*
G36*
X140260462Y-54321031D02*
G01*
X140795766Y-53726515D01*
X141464596Y-54328733D01*
X140929292Y-54923249D01*
X140260462Y-54321031D01*
G37*
G36*
X115113280Y-59139903D02*
G01*
X114457959Y-58681042D01*
X114974178Y-57943805D01*
X115629499Y-58402666D01*
X115113280Y-59139903D01*
G37*
G36*
X116669669Y-60229699D02*
G01*
X116014348Y-59770838D01*
X116530567Y-59033601D01*
X117185888Y-59492462D01*
X116669669Y-60229699D01*
G37*
G36*
X117038627Y-58046497D02*
G01*
X116383306Y-57587636D01*
X116899525Y-56850399D01*
X117554846Y-57309260D01*
X117038627Y-58046497D01*
G37*
G36*
X119837514Y-55531051D02*
G01*
X119312667Y-54927284D01*
X119991906Y-54336831D01*
X120516753Y-54940598D01*
X119837514Y-55531051D01*
G37*
G36*
X118951350Y-57560143D02*
G01*
X118426503Y-56956376D01*
X119105742Y-56365923D01*
X119630589Y-56969690D01*
X118951350Y-57560143D01*
G37*
G36*
X117704838Y-56126195D02*
G01*
X117179991Y-55522428D01*
X117859230Y-54931975D01*
X118384077Y-55535742D01*
X117704838Y-56126195D01*
G37*
G36*
X120951516Y-53855112D02*
G01*
X120575939Y-53148754D01*
X121370592Y-52726230D01*
X121746169Y-53432588D01*
X120951516Y-53855112D01*
G37*
G36*
X121843512Y-55532713D02*
G01*
X121467935Y-54826355D01*
X122262588Y-54403831D01*
X122638165Y-55110189D01*
X121843512Y-55532713D01*
G37*
G36*
X123163410Y-53754969D02*
G01*
X122787833Y-53048611D01*
X123582486Y-52626087D01*
X123958063Y-53332445D01*
X123163410Y-53754969D01*
G37*
G36*
X124610014Y-52267124D02*
G01*
X124416476Y-51490888D01*
X125289742Y-51273158D01*
X125483280Y-52049394D01*
X124610014Y-52267124D01*
G37*
G36*
X125069666Y-54110686D02*
G01*
X124876128Y-53334450D01*
X125749394Y-53116720D01*
X125942932Y-53892956D01*
X125069666Y-54110686D01*
G37*
G36*
X126780432Y-52705061D02*
G01*
X126586894Y-51928825D01*
X127460160Y-51711095D01*
X127653698Y-52487331D01*
X126780432Y-52705061D01*
G37*
D11*
X131010000Y-51990000D03*
X129010000Y-52940000D03*
X129010000Y-51040000D03*
D10*
G36*
X134346894Y-52941175D02*
G01*
X134540432Y-52164939D01*
X135413698Y-52382669D01*
X135220160Y-53158905D01*
X134346894Y-52941175D01*
G37*
G36*
X132176476Y-53379112D02*
G01*
X132370014Y-52602876D01*
X133243280Y-52820606D01*
X133049742Y-53596842D01*
X132176476Y-53379112D01*
G37*
G36*
X132636128Y-51535550D02*
G01*
X132829666Y-50759314D01*
X133702932Y-50977044D01*
X133509394Y-51753280D01*
X132636128Y-51535550D01*
G37*
G36*
X136607935Y-52523645D02*
G01*
X136983512Y-51817287D01*
X137778165Y-52239811D01*
X137402588Y-52946169D01*
X136607935Y-52523645D01*
G37*
G36*
X135715939Y-54201246D02*
G01*
X136091516Y-53494888D01*
X136886169Y-53917412D01*
X136510592Y-54623770D01*
X135715939Y-54201246D01*
G37*
G36*
X137927833Y-54301389D02*
G01*
X138303410Y-53595031D01*
X139098063Y-54017555D01*
X138722486Y-54723913D01*
X137927833Y-54301389D01*
G37*
M02*
