M48
; DRILL file {KiCad (5.1.5)-3} date 10/23/2021 8:58:23 PM
; FORMAT={-:-/ absolute / inch / decimal}
; #@! TF.CreationDate,2021-10-23T20:58:23-05:00
; #@! TF.GenerationSoftware,Kicad,Pcbnew,(5.1.5)-3
; #@! TF.FileFunction,Plated,1,2,PTH
FMAT,2
INCH
T1C0.0157
T2C0.0197
T3C0.0299
T4C0.0394
T5C0.0420
T6C0.0433
%
G90
G05
T1
X4.361Y-4.2165
X4.9659Y-3.8903
X5.032Y-3.9578
X5.4907Y-5.2435
X5.53Y-5.3556
X5.7742Y-4.497
X6.4116Y-4.023
X6.4151Y-3.9056
X6.6296Y-4.3178
X6.7245Y-3.995
X6.727Y-4.2085
X7.0425Y-5.1162
X7.0459Y-4.8944
T3
X4.8011Y-4.0917
X4.8413Y-4.1618
X4.8811Y-4.0917
X4.9212Y-4.1618
X4.961Y-4.0917
X5.0011Y-4.1618
X5.0409Y-4.0917
X5.0811Y-4.1618
T4
X4.765Y-4.748
X4.865Y-4.748
X4.965Y-4.748
X5.065Y-4.748
X6.5511Y-4.0161
X6.5511Y-4.1161
X6.5511Y-4.2161
X6.5511Y-4.3161
X6.5511Y-4.4161
X6.5511Y-4.5161
X6.5511Y-4.6161
X6.5511Y-4.7161
X6.5511Y-4.8161
X6.5511Y-4.9161
X6.5511Y-5.0161
X6.5511Y-5.1161
X6.5511Y-5.2161
X6.5511Y-5.3161
X6.5511Y-5.4161
X6.5511Y-5.5161
X7.3503Y-4.4161
X7.3503Y-4.5161
X7.3503Y-4.6161
X7.3503Y-4.7161
X7.3503Y-4.8161
X7.3503Y-4.9161
X7.3503Y-5.0161
X7.3503Y-5.1161
X7.3503Y-5.2161
X7.3503Y-5.3161
X7.3503Y-5.4161
X7.3503Y-5.5161
X5.0543Y-5.3307
X5.1543Y-5.3307
X5.2543Y-5.3307
X5.3543Y-5.3307
X4.765Y-4.948
X4.865Y-4.948
X4.965Y-4.948
X5.065Y-4.948
T5
X4.5248Y-5.6874
X4.7248Y-5.6874
T6
X5.655Y-4.0133
X5.655Y-4.1133
X5.655Y-4.2133
X5.655Y-4.3133
X5.655Y-4.4133
X5.655Y-4.5133
X5.655Y-4.6133
X5.655Y-4.7133
X5.655Y-4.8133
X5.655Y-4.9133
X5.655Y-5.0133
X5.655Y-5.1133
X5.655Y-5.2133
X5.655Y-5.3133
X6.255Y-4.0133
X6.255Y-4.1133
X6.255Y-4.2133
X6.255Y-4.3133
X6.255Y-4.4133
X6.255Y-4.5133
X6.255Y-4.6133
X6.255Y-4.7133
X6.255Y-4.8133
X6.255Y-4.9133
X6.255Y-5.0133
X6.255Y-5.1133
X6.255Y-5.2133
X6.255Y-5.3133
T2
G00X4.6208Y-4.0843
M15
G01X4.6208Y-4.1276
M16
G05
G00X5.261Y-4.0843
M15
G01X5.261Y-4.1276
M16
G05
T0
M30
