%TF.GenerationSoftware,KiCad,Pcbnew,(6.0.0)*%
%TF.CreationDate,2022-07-24T21:51:42-05:00*%
%TF.ProjectId,5PinSHto5PinSh,3550696e-5348-4746-9f35-50696e53682e,rev?*%
%TF.SameCoordinates,Original*%
%TF.FileFunction,Copper,L1,Top*%
%TF.FilePolarity,Positive*%
%FSLAX46Y46*%
G04 Gerber Fmt 4.6, Leading zero omitted, Abs format (unit mm)*
G04 Created by KiCad (PCBNEW (6.0.0)) date 2022-07-24 21:51:42*
%MOMM*%
%LPD*%
G01*
G04 APERTURE LIST*
G04 Aperture macros list*
%AMRoundRect*
0 Rectangle with rounded corners*
0 $1 Rounding radius*
0 $2 $3 $4 $5 $6 $7 $8 $9 X,Y pos of 4 corners*
0 Add a 4 corners polygon primitive as box body*
4,1,4,$2,$3,$4,$5,$6,$7,$8,$9,$2,$3,0*
0 Add four circle primitives for the rounded corners*
1,1,$1+$1,$2,$3*
1,1,$1+$1,$4,$5*
1,1,$1+$1,$6,$7*
1,1,$1+$1,$8,$9*
0 Add four rect primitives between the rounded corners*
20,1,$1+$1,$2,$3,$4,$5,0*
20,1,$1+$1,$4,$5,$6,$7,0*
20,1,$1+$1,$6,$7,$8,$9,0*
20,1,$1+$1,$8,$9,$2,$3,0*%
G04 Aperture macros list end*
%TA.AperFunction,SMDPad,CuDef*%
%ADD10RoundRect,0.150000X0.150000X0.625000X-0.150000X0.625000X-0.150000X-0.625000X0.150000X-0.625000X0*%
%TD*%
%TA.AperFunction,SMDPad,CuDef*%
%ADD11RoundRect,0.250000X0.350000X0.650000X-0.350000X0.650000X-0.350000X-0.650000X0.350000X-0.650000X0*%
%TD*%
%TA.AperFunction,ViaPad*%
%ADD12C,0.800000*%
%TD*%
%TA.AperFunction,Conductor*%
%ADD13C,0.250000*%
%TD*%
G04 APERTURE END LIST*
D10*
%TO.P,J1,1,Pin_1*%
%TO.N,+3V3*%
X146940000Y-107205000D03*
%TO.P,J1,2,Pin_2*%
%TO.N,GND*%
X145940000Y-107205000D03*
%TO.P,J1,3,Pin_3*%
%TO.N,SWCLK*%
X144940000Y-107205000D03*
%TO.P,J1,4,Pin_4*%
%TO.N,SWDIO*%
X143940000Y-107205000D03*
%TO.P,J1,5,Pin_5*%
%TO.N,RESET*%
X142940000Y-107205000D03*
D11*
%TO.P,J1,MP*%
%TO.N,N/C*%
X148240000Y-109730000D03*
X141640000Y-109730000D03*
%TD*%
D12*
%TO.N,+3V3*%
X146940000Y-109110000D03*
%TO.N,GND*%
X145972758Y-109361886D03*
%TO.N,SWCLK*%
X144840000Y-109350000D03*
%TO.N,SWDIO*%
X143830000Y-109440000D03*
%TO.N,RESET*%
X142856329Y-109214234D03*
%TD*%
D13*
%TO.N,+3V3*%
X146940000Y-109110000D02*
X146940000Y-107205000D01*
%TO.N,GND*%
X145940000Y-107205000D02*
X145972758Y-107237758D01*
X145972758Y-107237758D02*
X145972758Y-109361886D01*
%TO.N,SWCLK*%
X144840000Y-107305000D02*
X144940000Y-107205000D01*
X144840000Y-109350000D02*
X144840000Y-107305000D01*
%TO.N,SWDIO*%
X143830000Y-107315000D02*
X143940000Y-107205000D01*
X143830000Y-109440000D02*
X143830000Y-107315000D01*
%TO.N,RESET*%
X142940000Y-109130563D02*
X142856329Y-109214234D01*
X142940000Y-107205000D02*
X142940000Y-109130563D01*
%TD*%
%TA.AperFunction,Conductor*%
%TO.N,GND*%
G36*
X144982317Y-99769273D02*
G01*
X145304813Y-99773213D01*
X145313160Y-99773592D01*
X145900849Y-99819845D01*
X145909152Y-99820777D01*
X146063772Y-99843333D01*
X146492468Y-99905873D01*
X146500665Y-99907348D01*
X147042821Y-100023575D01*
X147077095Y-100030923D01*
X147085202Y-100032945D01*
X147652133Y-100194440D01*
X147660088Y-100196994D01*
X147941795Y-100297859D01*
X148215080Y-100395709D01*
X148222838Y-100398781D01*
X148763458Y-100633851D01*
X148771005Y-100637434D01*
X149294838Y-100907804D01*
X149302131Y-100911880D01*
X149806902Y-101216377D01*
X149813909Y-101220928D01*
X150297374Y-101558197D01*
X150304062Y-101563200D01*
X150474644Y-101699862D01*
X150764133Y-101931787D01*
X150770476Y-101937224D01*
X151204813Y-102335219D01*
X151205093Y-102335476D01*
X151211063Y-102341322D01*
X151618332Y-102767506D01*
X151623901Y-102773734D01*
X151903103Y-103107655D01*
X152002037Y-103225979D01*
X152007181Y-103232563D01*
X152354515Y-103708877D01*
X152359211Y-103715788D01*
X152472510Y-103895009D01*
X152610427Y-104113171D01*
X152674203Y-104214055D01*
X152678426Y-104221253D01*
X152931528Y-104687408D01*
X152959717Y-104739325D01*
X152963456Y-104746791D01*
X152968841Y-104758500D01*
X153209785Y-105282351D01*
X153213023Y-105290053D01*
X153423322Y-105840770D01*
X153426042Y-105848670D01*
X153599374Y-106412098D01*
X153601564Y-106420160D01*
X153737181Y-106993855D01*
X153738833Y-107002046D01*
X153836126Y-107583452D01*
X153837231Y-107591734D01*
X153895779Y-108178309D01*
X153896333Y-108186645D01*
X153915897Y-108776384D01*
X153915928Y-108783640D01*
X153907792Y-109116565D01*
X153905342Y-109216800D01*
X153904957Y-109224036D01*
X153858200Y-109792749D01*
X153856609Y-109812104D01*
X153855649Y-109820404D01*
X153768515Y-110403426D01*
X153767007Y-110411644D01*
X153641425Y-110987617D01*
X153639375Y-110995717D01*
X153475900Y-111562089D01*
X153473318Y-111570035D01*
X153292430Y-112069735D01*
X153272667Y-112124329D01*
X153269564Y-112132087D01*
X153032615Y-112671869D01*
X153029015Y-112679383D01*
X152756797Y-113202312D01*
X152752722Y-113209545D01*
X152551229Y-113540941D01*
X152446451Y-113713270D01*
X152441876Y-113720261D01*
X152102912Y-114202557D01*
X152097884Y-114209229D01*
X151954496Y-114386932D01*
X151761144Y-114626557D01*
X151727702Y-114668002D01*
X151722248Y-114674320D01*
X151567802Y-114841692D01*
X151322477Y-115107548D01*
X151316611Y-115113497D01*
X151269390Y-115158308D01*
X150930181Y-115480206D01*
X150889000Y-115519285D01*
X150882752Y-115524832D01*
X150429196Y-115901381D01*
X150422594Y-115906502D01*
X149945076Y-116252168D01*
X149938149Y-116256840D01*
X149874549Y-116296736D01*
X149482809Y-116542474D01*
X149438780Y-116570093D01*
X149431562Y-116574294D01*
X149396190Y-116593340D01*
X148912517Y-116853771D01*
X148905044Y-116857481D01*
X148368600Y-117101953D01*
X148360919Y-117105150D01*
X147863769Y-117293008D01*
X147809470Y-117313526D01*
X147801560Y-117316219D01*
X147237507Y-117487591D01*
X147229437Y-117489753D01*
X146655293Y-117623360D01*
X146647097Y-117624983D01*
X146451100Y-117657079D01*
X146065337Y-117720250D01*
X146057072Y-117721324D01*
X145470282Y-117777825D01*
X145461951Y-117778350D01*
X145297938Y-117783217D01*
X144872693Y-117795838D01*
X144864338Y-117795808D01*
X144569801Y-117785008D01*
X144275253Y-117774207D01*
X144266939Y-117773627D01*
X143680531Y-117713027D01*
X143672277Y-117711897D01*
X143091199Y-117612571D01*
X143083013Y-117610891D01*
X142935448Y-117575464D01*
X142509794Y-117473274D01*
X142501756Y-117471059D01*
X141938916Y-117295754D01*
X141931039Y-117293011D01*
X141381055Y-117080789D01*
X141373382Y-117077532D01*
X140838663Y-116829325D01*
X140831205Y-116825557D01*
X140314144Y-116542474D01*
X140306952Y-116538221D01*
X139809778Y-116221486D01*
X139802884Y-116216766D01*
X139327787Y-115867773D01*
X139321221Y-115862606D01*
X139289474Y-115835873D01*
X138870294Y-115482890D01*
X138864092Y-115477305D01*
X138552866Y-115177805D01*
X138479969Y-115107655D01*
X143239858Y-115107655D01*
X143275104Y-115366638D01*
X143276412Y-115371124D01*
X143276412Y-115371126D01*
X143296098Y-115438664D01*
X143348243Y-115617567D01*
X143457668Y-115854928D01*
X143460231Y-115858837D01*
X143598410Y-116069596D01*
X143598414Y-116069601D01*
X143600976Y-116073509D01*
X143775018Y-116268506D01*
X143975970Y-116435637D01*
X143979973Y-116438066D01*
X144195422Y-116568804D01*
X144195426Y-116568806D01*
X144199419Y-116571229D01*
X144440455Y-116672303D01*
X144693783Y-116736641D01*
X144698434Y-116737109D01*
X144698438Y-116737110D01*
X144891308Y-116756531D01*
X144910867Y-116758500D01*
X145066354Y-116758500D01*
X145068679Y-116758327D01*
X145068685Y-116758327D01*
X145256000Y-116744407D01*
X145256004Y-116744406D01*
X145260652Y-116744061D01*
X145265200Y-116743032D01*
X145265206Y-116743031D01*
X145451601Y-116700853D01*
X145515577Y-116686377D01*
X145551769Y-116672303D01*
X145754824Y-116593340D01*
X145754827Y-116593339D01*
X145759177Y-116591647D01*
X145986098Y-116461951D01*
X146191357Y-116300138D01*
X146370443Y-116109763D01*
X146511451Y-115906502D01*
X146516759Y-115898851D01*
X146516761Y-115898848D01*
X146519424Y-115895009D01*
X146521492Y-115890816D01*
X146632960Y-115664781D01*
X146632961Y-115664778D01*
X146635025Y-115660593D01*
X146638167Y-115650779D01*
X146713280Y-115416123D01*
X146714707Y-115411665D01*
X146756721Y-115153693D01*
X146760142Y-114892345D01*
X146724896Y-114633362D01*
X146710473Y-114583877D01*
X146653068Y-114386932D01*
X146651757Y-114382433D01*
X146542332Y-114145072D01*
X146509519Y-114095024D01*
X146401590Y-113930404D01*
X146401586Y-113930399D01*
X146399024Y-113926491D01*
X146224982Y-113731494D01*
X146024030Y-113564363D01*
X145976844Y-113535730D01*
X145804578Y-113431196D01*
X145804574Y-113431194D01*
X145800581Y-113428771D01*
X145559545Y-113327697D01*
X145306217Y-113263359D01*
X145301566Y-113262891D01*
X145301562Y-113262890D01*
X145092271Y-113241816D01*
X145089133Y-113241500D01*
X144933646Y-113241500D01*
X144931321Y-113241673D01*
X144931315Y-113241673D01*
X144744000Y-113255593D01*
X144743996Y-113255594D01*
X144739348Y-113255939D01*
X144734800Y-113256968D01*
X144734794Y-113256969D01*
X144548399Y-113299147D01*
X144484423Y-113313623D01*
X144480071Y-113315315D01*
X144480069Y-113315316D01*
X144245176Y-113406660D01*
X144245173Y-113406661D01*
X144240823Y-113408353D01*
X144013902Y-113538049D01*
X143808643Y-113699862D01*
X143629557Y-113890237D01*
X143480576Y-114104991D01*
X143478510Y-114109181D01*
X143478508Y-114109184D01*
X143429172Y-114209229D01*
X143364975Y-114339407D01*
X143285293Y-114588335D01*
X143243279Y-114846307D01*
X143239858Y-115107655D01*
X138479969Y-115107655D01*
X138439326Y-115068543D01*
X138433530Y-115062583D01*
X138036760Y-114626539D01*
X138031360Y-114620194D01*
X137811547Y-114343852D01*
X137664376Y-114158832D01*
X137659399Y-114152130D01*
X137626759Y-114104991D01*
X137323813Y-113667482D01*
X137319290Y-113660463D01*
X137261776Y-113564363D01*
X137016565Y-113154646D01*
X137012514Y-113147339D01*
X136743965Y-112622548D01*
X136740408Y-112614988D01*
X136507241Y-112073580D01*
X136504192Y-112065801D01*
X136307411Y-111510108D01*
X136304885Y-111502144D01*
X136145368Y-110934646D01*
X136143375Y-110926532D01*
X136129035Y-110858483D01*
X136038824Y-110430400D01*
X140531500Y-110430400D01*
X140542474Y-110536166D01*
X140598450Y-110703946D01*
X140691522Y-110854348D01*
X140816697Y-110979305D01*
X140822927Y-110983145D01*
X140822928Y-110983146D01*
X140960090Y-111067694D01*
X140967262Y-111072115D01*
X141047005Y-111098564D01*
X141128611Y-111125632D01*
X141128613Y-111125632D01*
X141135139Y-111127797D01*
X141141975Y-111128497D01*
X141141978Y-111128498D01*
X141185031Y-111132909D01*
X141239600Y-111138500D01*
X142040400Y-111138500D01*
X142043646Y-111138163D01*
X142043650Y-111138163D01*
X142139308Y-111128238D01*
X142139312Y-111128237D01*
X142146166Y-111127526D01*
X142152702Y-111125345D01*
X142152704Y-111125345D01*
X142284806Y-111081272D01*
X142313946Y-111071550D01*
X142464348Y-110978478D01*
X142589305Y-110853303D01*
X142682115Y-110702738D01*
X142737797Y-110534861D01*
X142748500Y-110430400D01*
X142748500Y-110248734D01*
X142768502Y-110180613D01*
X142822158Y-110134120D01*
X142874500Y-110122734D01*
X142951816Y-110122734D01*
X142958268Y-110121362D01*
X142958273Y-110121362D01*
X143109280Y-110089264D01*
X143180071Y-110094666D01*
X143217497Y-110117478D01*
X143218747Y-110118866D01*
X143224086Y-110122745D01*
X143356286Y-110218794D01*
X143373248Y-110231118D01*
X143379276Y-110233802D01*
X143379278Y-110233803D01*
X143434749Y-110258500D01*
X143547712Y-110308794D01*
X143641113Y-110328647D01*
X143728056Y-110347128D01*
X143728061Y-110347128D01*
X143734513Y-110348500D01*
X143925487Y-110348500D01*
X143931939Y-110347128D01*
X143931944Y-110347128D01*
X144018887Y-110328647D01*
X144112288Y-110308794D01*
X144225251Y-110258500D01*
X144280722Y-110233803D01*
X144280724Y-110233802D01*
X144286752Y-110231118D01*
X144301826Y-110220166D01*
X144341371Y-110191435D01*
X144408239Y-110167576D01*
X144466678Y-110178263D01*
X144557712Y-110218794D01*
X144597433Y-110227237D01*
X144738056Y-110257128D01*
X144738061Y-110257128D01*
X144744513Y-110258500D01*
X144935487Y-110258500D01*
X144941939Y-110257128D01*
X144941944Y-110257128D01*
X145028887Y-110238647D01*
X145122288Y-110218794D01*
X145183738Y-110191435D01*
X145290722Y-110143803D01*
X145290724Y-110143802D01*
X145296752Y-110141118D01*
X145451253Y-110028866D01*
X145579040Y-109886944D01*
X145674527Y-109721556D01*
X145733542Y-109539928D01*
X145753504Y-109350000D01*
X145748241Y-109299928D01*
X145734232Y-109166635D01*
X145734232Y-109166633D01*
X145733542Y-109160072D01*
X145717272Y-109110000D01*
X146026496Y-109110000D01*
X146027186Y-109116565D01*
X146038483Y-109224046D01*
X146046458Y-109299928D01*
X146105473Y-109481556D01*
X146200960Y-109646944D01*
X146205378Y-109651851D01*
X146205379Y-109651852D01*
X146324325Y-109783955D01*
X146328747Y-109788866D01*
X146483248Y-109901118D01*
X146489276Y-109903802D01*
X146489278Y-109903803D01*
X146651681Y-109976109D01*
X146657712Y-109978794D01*
X146751112Y-109998647D01*
X146838056Y-110017128D01*
X146838061Y-110017128D01*
X146844513Y-110018500D01*
X147005500Y-110018500D01*
X147073621Y-110038502D01*
X147120114Y-110092158D01*
X147131500Y-110144500D01*
X147131500Y-110430400D01*
X147142474Y-110536166D01*
X147198450Y-110703946D01*
X147291522Y-110854348D01*
X147416697Y-110979305D01*
X147422927Y-110983145D01*
X147422928Y-110983146D01*
X147560090Y-111067694D01*
X147567262Y-111072115D01*
X147647005Y-111098564D01*
X147728611Y-111125632D01*
X147728613Y-111125632D01*
X147735139Y-111127797D01*
X147741975Y-111128497D01*
X147741978Y-111128498D01*
X147785031Y-111132909D01*
X147839600Y-111138500D01*
X148640400Y-111138500D01*
X148643646Y-111138163D01*
X148643650Y-111138163D01*
X148739308Y-111128238D01*
X148739312Y-111128237D01*
X148746166Y-111127526D01*
X148752702Y-111125345D01*
X148752704Y-111125345D01*
X148884806Y-111081272D01*
X148913946Y-111071550D01*
X149064348Y-110978478D01*
X149189305Y-110853303D01*
X149282115Y-110702738D01*
X149337797Y-110534861D01*
X149348500Y-110430400D01*
X149348500Y-109029600D01*
X149348163Y-109026350D01*
X149338238Y-108930692D01*
X149338237Y-108930688D01*
X149337526Y-108923834D01*
X149334177Y-108913794D01*
X149283868Y-108763002D01*
X149281550Y-108756054D01*
X149188478Y-108605652D01*
X149063303Y-108480695D01*
X149057072Y-108476854D01*
X148918968Y-108391725D01*
X148918966Y-108391724D01*
X148912738Y-108387885D01*
X148752254Y-108334655D01*
X148751389Y-108334368D01*
X148751387Y-108334368D01*
X148744861Y-108332203D01*
X148738025Y-108331503D01*
X148738022Y-108331502D01*
X148694969Y-108327091D01*
X148640400Y-108321500D01*
X147839600Y-108321500D01*
X147795144Y-108326113D01*
X147725325Y-108313249D01*
X147673542Y-108264678D01*
X147656239Y-108195823D01*
X147673686Y-108136649D01*
X147699145Y-108093601D01*
X147701356Y-108085990D01*
X147701357Y-108085988D01*
X147737130Y-107962855D01*
X147745562Y-107933831D01*
X147748500Y-107896502D01*
X147748500Y-106513498D01*
X147745562Y-106476169D01*
X147701357Y-106324011D01*
X147701356Y-106324010D01*
X147699145Y-106316399D01*
X147630463Y-106200264D01*
X147618491Y-106180020D01*
X147618489Y-106180017D01*
X147614453Y-106173193D01*
X147496807Y-106055547D01*
X147489983Y-106051511D01*
X147489980Y-106051509D01*
X147360427Y-105974892D01*
X147360425Y-105974891D01*
X147353601Y-105970855D01*
X147345990Y-105968644D01*
X147345988Y-105968643D01*
X147258142Y-105943122D01*
X147193831Y-105924438D01*
X147187426Y-105923934D01*
X147187421Y-105923933D01*
X147158958Y-105921693D01*
X147158950Y-105921693D01*
X147156502Y-105921500D01*
X146723498Y-105921500D01*
X146721050Y-105921693D01*
X146721042Y-105921693D01*
X146692579Y-105923933D01*
X146692574Y-105923934D01*
X146686169Y-105924438D01*
X146621858Y-105943122D01*
X146534012Y-105968643D01*
X146534010Y-105968644D01*
X146526399Y-105970855D01*
X146503649Y-105984310D01*
X146434835Y-106001770D01*
X146375370Y-105984311D01*
X146360221Y-105975352D01*
X146345790Y-105969107D01*
X146211395Y-105930061D01*
X146197294Y-105930101D01*
X146194000Y-105937370D01*
X146194000Y-106262430D01*
X146183885Y-106311275D01*
X146180855Y-106316399D01*
X146178645Y-106324007D01*
X146178643Y-106324011D01*
X146178643Y-106324012D01*
X146134438Y-106476169D01*
X146131500Y-106513498D01*
X146131500Y-107896502D01*
X146134438Y-107933831D01*
X146142870Y-107962855D01*
X146178643Y-108085989D01*
X146178645Y-108085993D01*
X146180855Y-108093601D01*
X146183885Y-108098725D01*
X146194000Y-108147570D01*
X146194000Y-108466875D01*
X146201812Y-108493479D01*
X146201813Y-108564476D01*
X146190036Y-108591978D01*
X146105473Y-108738444D01*
X146046458Y-108920072D01*
X146045768Y-108926633D01*
X146045768Y-108926635D01*
X146040924Y-108972721D01*
X146026496Y-109110000D01*
X145717272Y-109110000D01*
X145674527Y-108978444D01*
X145579040Y-108813056D01*
X145505863Y-108731785D01*
X145475147Y-108667779D01*
X145473500Y-108647476D01*
X145473500Y-108591072D01*
X145493502Y-108522951D01*
X145547158Y-108476458D01*
X145617432Y-108466354D01*
X145634654Y-108470075D01*
X145668605Y-108479939D01*
X145682706Y-108479899D01*
X145686000Y-108472630D01*
X145686000Y-108147570D01*
X145696115Y-108098725D01*
X145699145Y-108093601D01*
X145701355Y-108085993D01*
X145701357Y-108085989D01*
X145737130Y-107962855D01*
X145745562Y-107933831D01*
X145748500Y-107896502D01*
X145748500Y-106513498D01*
X145745562Y-106476169D01*
X145701357Y-106324012D01*
X145701357Y-106324011D01*
X145701355Y-106324007D01*
X145699145Y-106316399D01*
X145696115Y-106311275D01*
X145686000Y-106262430D01*
X145686000Y-105943122D01*
X145682027Y-105929591D01*
X145674129Y-105928456D01*
X145534210Y-105969107D01*
X145519779Y-105975352D01*
X145504630Y-105984311D01*
X145435814Y-106001770D01*
X145376352Y-105984310D01*
X145353601Y-105970855D01*
X145345990Y-105968644D01*
X145345988Y-105968643D01*
X145258142Y-105943122D01*
X145193831Y-105924438D01*
X145187426Y-105923934D01*
X145187421Y-105923933D01*
X145158958Y-105921693D01*
X145158950Y-105921693D01*
X145156502Y-105921500D01*
X144723498Y-105921500D01*
X144721050Y-105921693D01*
X144721042Y-105921693D01*
X144692579Y-105923933D01*
X144692574Y-105923934D01*
X144686169Y-105924438D01*
X144621858Y-105943122D01*
X144534012Y-105968643D01*
X144534010Y-105968644D01*
X144526399Y-105970855D01*
X144519576Y-105974890D01*
X144519574Y-105974891D01*
X144504137Y-105984020D01*
X144435321Y-106001478D01*
X144375863Y-105984020D01*
X144360426Y-105974891D01*
X144360424Y-105974890D01*
X144353601Y-105970855D01*
X144345990Y-105968644D01*
X144345988Y-105968643D01*
X144258142Y-105943122D01*
X144193831Y-105924438D01*
X144187426Y-105923934D01*
X144187421Y-105923933D01*
X144158958Y-105921693D01*
X144158950Y-105921693D01*
X144156502Y-105921500D01*
X143723498Y-105921500D01*
X143721050Y-105921693D01*
X143721042Y-105921693D01*
X143692579Y-105923933D01*
X143692574Y-105923934D01*
X143686169Y-105924438D01*
X143621858Y-105943122D01*
X143534012Y-105968643D01*
X143534010Y-105968644D01*
X143526399Y-105970855D01*
X143519576Y-105974890D01*
X143519574Y-105974891D01*
X143504137Y-105984020D01*
X143435321Y-106001478D01*
X143375863Y-105984020D01*
X143360426Y-105974891D01*
X143360424Y-105974890D01*
X143353601Y-105970855D01*
X143345990Y-105968644D01*
X143345988Y-105968643D01*
X143258142Y-105943122D01*
X143193831Y-105924438D01*
X143187426Y-105923934D01*
X143187421Y-105923933D01*
X143158958Y-105921693D01*
X143158950Y-105921693D01*
X143156502Y-105921500D01*
X142723498Y-105921500D01*
X142721050Y-105921693D01*
X142721042Y-105921693D01*
X142692579Y-105923933D01*
X142692574Y-105923934D01*
X142686169Y-105924438D01*
X142621858Y-105943122D01*
X142534012Y-105968643D01*
X142534010Y-105968644D01*
X142526399Y-105970855D01*
X142519575Y-105974891D01*
X142519573Y-105974892D01*
X142390020Y-106051509D01*
X142390017Y-106051511D01*
X142383193Y-106055547D01*
X142265547Y-106173193D01*
X142261511Y-106180017D01*
X142261509Y-106180020D01*
X142249537Y-106200264D01*
X142180855Y-106316399D01*
X142178644Y-106324010D01*
X142178644Y-106324011D01*
X142134438Y-106476169D01*
X142131500Y-106513498D01*
X142131500Y-107896502D01*
X142134438Y-107933831D01*
X142142870Y-107962855D01*
X142178643Y-108085988D01*
X142178644Y-108085990D01*
X142180855Y-108093601D01*
X142184891Y-108100425D01*
X142206276Y-108136586D01*
X142223735Y-108205402D01*
X142201217Y-108272734D01*
X142145872Y-108317202D01*
X142084980Y-108326068D01*
X142040400Y-108321500D01*
X141239600Y-108321500D01*
X141236354Y-108321837D01*
X141236350Y-108321837D01*
X141140692Y-108331762D01*
X141140688Y-108331763D01*
X141133834Y-108332474D01*
X141127298Y-108334655D01*
X141127296Y-108334655D01*
X140995194Y-108378728D01*
X140966054Y-108388450D01*
X140815652Y-108481522D01*
X140690695Y-108606697D01*
X140686855Y-108612927D01*
X140686854Y-108612928D01*
X140609485Y-108738444D01*
X140597885Y-108757262D01*
X140542203Y-108925139D01*
X140531500Y-109029600D01*
X140531500Y-110430400D01*
X136038824Y-110430400D01*
X136021816Y-110349693D01*
X136020368Y-110341480D01*
X136015912Y-110310166D01*
X135937306Y-109757854D01*
X135936404Y-109749549D01*
X135892206Y-109161722D01*
X135891856Y-109153375D01*
X135886711Y-108563901D01*
X135886915Y-108555548D01*
X135920848Y-107967032D01*
X135921605Y-107958711D01*
X135924704Y-107933831D01*
X135994470Y-107373722D01*
X135995775Y-107365480D01*
X136107247Y-106786619D01*
X136109098Y-106778472D01*
X136205214Y-106412098D01*
X136258689Y-106208262D01*
X136261067Y-106200282D01*
X136448128Y-105641218D01*
X136451038Y-105633396D01*
X136674721Y-105088001D01*
X136678145Y-105080381D01*
X136843410Y-104743031D01*
X136937495Y-104550979D01*
X136941413Y-104543611D01*
X136962773Y-104506466D01*
X137235275Y-104032572D01*
X137239678Y-104025472D01*
X137566744Y-103535057D01*
X137571607Y-103528263D01*
X137801097Y-103229186D01*
X137894351Y-103107655D01*
X143239858Y-103107655D01*
X143275104Y-103366638D01*
X143276412Y-103371124D01*
X143276412Y-103371126D01*
X143296098Y-103438664D01*
X143348243Y-103617567D01*
X143457668Y-103854928D01*
X143460231Y-103858837D01*
X143598410Y-104069596D01*
X143598414Y-104069601D01*
X143600976Y-104073509D01*
X143775018Y-104268506D01*
X143975970Y-104435637D01*
X143979973Y-104438066D01*
X144195422Y-104568804D01*
X144195426Y-104568806D01*
X144199419Y-104571229D01*
X144440455Y-104672303D01*
X144693783Y-104736641D01*
X144698434Y-104737109D01*
X144698438Y-104737110D01*
X144891308Y-104756531D01*
X144910867Y-104758500D01*
X145066354Y-104758500D01*
X145068679Y-104758327D01*
X145068685Y-104758327D01*
X145256000Y-104744407D01*
X145256004Y-104744406D01*
X145260652Y-104744061D01*
X145265200Y-104743032D01*
X145265206Y-104743031D01*
X145451601Y-104700853D01*
X145515577Y-104686377D01*
X145551769Y-104672303D01*
X145754824Y-104593340D01*
X145754827Y-104593339D01*
X145759177Y-104591647D01*
X145986098Y-104461951D01*
X146191357Y-104300138D01*
X146370443Y-104109763D01*
X146519424Y-103895009D01*
X146635025Y-103660593D01*
X146714707Y-103411665D01*
X146756721Y-103153693D01*
X146760142Y-102892345D01*
X146724896Y-102633362D01*
X146710473Y-102583877D01*
X146653068Y-102386932D01*
X146651757Y-102382433D01*
X146542332Y-102145072D01*
X146406061Y-101937224D01*
X146401590Y-101930404D01*
X146401586Y-101930399D01*
X146399024Y-101926491D01*
X146224982Y-101731494D01*
X146024030Y-101564363D01*
X145857589Y-101463364D01*
X145804578Y-101431196D01*
X145804574Y-101431194D01*
X145800581Y-101428771D01*
X145559545Y-101327697D01*
X145306217Y-101263359D01*
X145301566Y-101262891D01*
X145301562Y-101262890D01*
X145092271Y-101241816D01*
X145089133Y-101241500D01*
X144933646Y-101241500D01*
X144931321Y-101241673D01*
X144931315Y-101241673D01*
X144744000Y-101255593D01*
X144743996Y-101255594D01*
X144739348Y-101255939D01*
X144734800Y-101256968D01*
X144734794Y-101256969D01*
X144548399Y-101299147D01*
X144484423Y-101313623D01*
X144480071Y-101315315D01*
X144480069Y-101315316D01*
X144245176Y-101406660D01*
X144245173Y-101406661D01*
X144240823Y-101408353D01*
X144013902Y-101538049D01*
X143808643Y-101699862D01*
X143629557Y-101890237D01*
X143480576Y-102104991D01*
X143364975Y-102339407D01*
X143363553Y-102343850D01*
X143363552Y-102343852D01*
X143351202Y-102382433D01*
X143285293Y-102588335D01*
X143243279Y-102846307D01*
X143239858Y-103107655D01*
X137894351Y-103107655D01*
X137930490Y-103060558D01*
X137935787Y-103054110D01*
X138073793Y-102897022D01*
X138324846Y-102611254D01*
X138330560Y-102605168D01*
X138351926Y-102583877D01*
X138601196Y-102335476D01*
X138748135Y-102189049D01*
X138754246Y-102183351D01*
X139198462Y-101795836D01*
X139204926Y-101790563D01*
X139673876Y-101433319D01*
X139680672Y-101428491D01*
X140172246Y-101103124D01*
X140179348Y-101098754D01*
X140691438Y-100806663D01*
X140698811Y-100802777D01*
X141229093Y-100545286D01*
X141236722Y-100541889D01*
X141596730Y-100395705D01*
X141782914Y-100320103D01*
X141790753Y-100317219D01*
X142350436Y-100132122D01*
X142358451Y-100129763D01*
X142740635Y-100030923D01*
X142929187Y-99982160D01*
X142937325Y-99980342D01*
X143516586Y-99870889D01*
X143524817Y-99869615D01*
X143850853Y-99830161D01*
X144110040Y-99798796D01*
X144118363Y-99798067D01*
X144621685Y-99770807D01*
X144707011Y-99766186D01*
X144715360Y-99766011D01*
X144982317Y-99769273D01*
G37*
%TD.AperFunction*%
%TD*%
M02*
