M48
; DRILL file {KiCad 7.0.1} date Sun Aug 13 11:11:57 2023
; FORMAT={-:-/ absolute / inch / decimal}
; #@! TF.CreationDate,2023-08-13T11:11:57-05:00
; #@! TF.GenerationSoftware,Kicad,Pcbnew,7.0.1
; #@! TF.FileFunction,Plated,1,2,PTH
FMAT,2
INCH
; #@! TA.AperFunction,Plated,PTH,ViaDrill
T1C0.0157
; #@! TA.AperFunction,Plated,PTH,ComponentDrill
T2C0.0197
; #@! TA.AperFunction,Plated,PTH,ComponentDrill
T3C0.0295
; #@! TA.AperFunction,Plated,PTH,ComponentDrill
T4C0.0299
; #@! TA.AperFunction,Plated,PTH,ComponentDrill
T5C0.0374
; #@! TA.AperFunction,Plated,PTH,ComponentDrill
T6C0.0394
; #@! TA.AperFunction,Plated,PTH,ComponentDrill
T7C0.0402
; #@! TA.AperFunction,Plated,PTH,ComponentDrill
T8C0.0420
%
G90
G05
T1
X4.82Y-4.17
X4.85Y-4.25
X4.94Y-3.98
X4.97Y-4.8
X5.15Y-4.45
X5.25Y-5.15
X5.27Y-4.54
X5.31Y-4.28
T3
X4.4925Y-5.0
X4.5713Y-5.0
X4.65Y-5.0
X4.7287Y-5.0
T4
X4.5603Y-3.95
X4.6004Y-4.0201
X4.6402Y-3.95
X4.6803Y-4.0201
X4.7201Y-3.95
X4.7603Y-4.0201
X4.8Y-3.95
X4.8402Y-4.0201
T5
X4.5024Y-4.6793
X4.6008Y-4.6793
X4.6992Y-4.6793
X4.7976Y-4.6793
T6
X4.45Y-4.45
X4.55Y-4.45
X4.65Y-4.45
X4.75Y-4.45
X4.8485Y-5.3192
X4.9485Y-5.3192
X5.0485Y-5.3192
X5.1485Y-5.3192
X6.7011Y-4.0661
X6.7011Y-4.1661
X6.7011Y-4.2661
X6.7011Y-4.3661
X6.7011Y-4.4661
X6.7011Y-4.5661
X6.7011Y-4.6661
X6.7011Y-4.7661
X6.7011Y-4.8661
X6.7011Y-4.9661
X6.7011Y-5.0661
X6.7011Y-5.1661
X6.7011Y-5.2661
X6.7011Y-5.3661
X6.7011Y-5.4661
X6.7011Y-5.5661
X7.5003Y-4.4661
X7.5003Y-4.5661
X7.5003Y-4.6661
X7.5003Y-4.7661
X7.5003Y-4.8661
X7.5003Y-4.9661
X7.5003Y-5.0661
X7.5003Y-5.1661
X7.5003Y-5.2661
X7.5003Y-5.3661
X7.5003Y-5.4661
X7.5003Y-5.5661
T7
X5.55Y-3.85
X5.55Y-3.95
X5.55Y-4.05
X5.55Y-4.15
X5.55Y-4.25
X5.55Y-4.35
X5.55Y-4.45
X5.55Y-4.55
X5.55Y-4.65
X5.55Y-4.75
X5.55Y-4.85
X5.55Y-4.95
X5.55Y-5.05
X5.55Y-5.15
X5.55Y-5.25
X5.55Y-5.35
X5.55Y-5.45
X5.55Y-5.55
X5.55Y-5.65
X5.55Y-5.75
X5.8Y-5.7409
X5.9Y-5.7409
X6.0Y-5.7409
X6.25Y-3.85
X6.25Y-3.95
X6.25Y-4.05
X6.25Y-4.15
X6.25Y-4.25
X6.25Y-4.35
X6.25Y-4.45
X6.25Y-4.55
X6.25Y-4.65
X6.25Y-4.75
X6.25Y-4.85
X6.25Y-4.95
X6.25Y-5.05
X6.25Y-5.15
X6.25Y-5.25
X6.25Y-5.35
X6.25Y-5.45
X6.25Y-5.55
X6.25Y-5.65
X6.25Y-5.75
T8
X4.319Y-5.6759
X4.519Y-5.6759
T2
G00X4.3799Y-3.9426
M15
G01X4.3799Y-3.9859
M16
G05
G00X5.0201Y-3.9426
M15
G01X5.0201Y-3.9859
M16
G05
T0
M30
