G04 #@! TF.GenerationSoftware,KiCad,Pcbnew,(6.0.0)*
G04 #@! TF.CreationDate,2022-07-24T20:48:06-05:00*
G04 #@! TF.ProjectId,SWDAdapter,53574441-6461-4707-9465-722e6b696361,rev?*
G04 #@! TF.SameCoordinates,Original*
G04 #@! TF.FileFunction,Copper,L1,Top*
G04 #@! TF.FilePolarity,Positive*
%FSLAX46Y46*%
G04 Gerber Fmt 4.6, Leading zero omitted, Abs format (unit mm)*
G04 Created by KiCad (PCBNEW (6.0.0)) date 2022-07-24 20:48:06*
%MOMM*%
%LPD*%
G01*
G04 APERTURE LIST*
G04 Aperture macros list*
%AMRoundRect*
0 Rectangle with rounded corners*
0 $1 Rounding radius*
0 $2 $3 $4 $5 $6 $7 $8 $9 X,Y pos of 4 corners*
0 Add a 4 corners polygon primitive as box body*
4,1,4,$2,$3,$4,$5,$6,$7,$8,$9,$2,$3,0*
0 Add four circle primitives for the rounded corners*
1,1,$1+$1,$2,$3*
1,1,$1+$1,$4,$5*
1,1,$1+$1,$6,$7*
1,1,$1+$1,$8,$9*
0 Add four rect primitives between the rounded corners*
20,1,$1+$1,$2,$3,$4,$5,0*
20,1,$1+$1,$4,$5,$6,$7,0*
20,1,$1+$1,$6,$7,$8,$9,0*
20,1,$1+$1,$8,$9,$2,$3,0*%
G04 Aperture macros list end*
G04 #@! TA.AperFunction,SMDPad,CuDef*
%ADD10RoundRect,0.150000X0.625000X-0.150000X0.625000X0.150000X-0.625000X0.150000X-0.625000X-0.150000X0*%
G04 #@! TD*
G04 #@! TA.AperFunction,SMDPad,CuDef*
%ADD11RoundRect,0.250000X0.650000X-0.350000X0.650000X0.350000X-0.650000X0.350000X-0.650000X-0.350000X0*%
G04 #@! TD*
G04 #@! TA.AperFunction,ComponentPad*
%ADD12R,1.727200X1.727200*%
G04 #@! TD*
G04 #@! TA.AperFunction,ComponentPad*
%ADD13O,1.727200X1.727200*%
G04 #@! TD*
G04 #@! TA.AperFunction,SMDPad,CuDef*
%ADD14R,2.400000X0.740000*%
G04 #@! TD*
G04 #@! TA.AperFunction,ComponentPad*
%ADD15RoundRect,0.250000X-0.600000X0.600000X-0.600000X-0.600000X0.600000X-0.600000X0.600000X0.600000X0*%
G04 #@! TD*
G04 #@! TA.AperFunction,ComponentPad*
%ADD16C,1.700000*%
G04 #@! TD*
G04 #@! TA.AperFunction,ComponentPad*
%ADD17R,1.700000X1.700000*%
G04 #@! TD*
G04 #@! TA.AperFunction,ComponentPad*
%ADD18O,1.700000X1.700000*%
G04 #@! TD*
G04 #@! TA.AperFunction,ViaPad*
%ADD19C,0.800000*%
G04 #@! TD*
G04 #@! TA.AperFunction,Conductor*
%ADD20C,0.250000*%
G04 #@! TD*
G04 APERTURE END LIST*
D10*
X153265000Y-77450000D03*
X153265000Y-76450000D03*
X153265000Y-75450000D03*
X153265000Y-74450000D03*
X153265000Y-73450000D03*
D11*
X150740000Y-78750000D03*
X150740000Y-72150000D03*
D12*
X125990000Y-64110000D03*
D13*
X128530000Y-64110000D03*
X125990000Y-66650000D03*
X128530000Y-66650000D03*
X125990000Y-69190000D03*
X128530000Y-69190000D03*
X125990000Y-71730000D03*
X128530000Y-71730000D03*
X125990000Y-74270000D03*
X128530000Y-74270000D03*
D14*
X145600000Y-76710000D03*
X141700000Y-76710000D03*
X145600000Y-75440000D03*
X141700000Y-75440000D03*
X145600000Y-74170000D03*
X141700000Y-74170000D03*
X145600000Y-72900000D03*
X141700000Y-72900000D03*
X145600000Y-71630000D03*
X141700000Y-71630000D03*
D15*
X143450000Y-62090000D03*
D16*
X143450000Y-64630000D03*
X140910000Y-62090000D03*
X140910000Y-64630000D03*
X138370000Y-62090000D03*
X138370000Y-64630000D03*
D17*
X135495900Y-77420400D03*
D18*
X135495900Y-74880400D03*
X135495900Y-72340400D03*
D19*
X139640000Y-76440000D03*
X154810000Y-75820000D03*
X139580000Y-75120000D03*
X151217815Y-75095500D03*
X139840000Y-72070000D03*
X150780000Y-73490000D03*
D20*
X141430000Y-76440000D02*
X141700000Y-76710000D01*
X139640000Y-76440000D02*
X141430000Y-76440000D01*
X151572315Y-75450000D02*
X151217815Y-75095500D01*
X154810000Y-75548928D02*
X154810000Y-75820000D01*
X153711072Y-74450000D02*
X154810000Y-75548928D01*
X153265000Y-75450000D02*
X151572315Y-75450000D01*
X153265000Y-74450000D02*
X153711072Y-74450000D01*
X139580000Y-75120000D02*
X141380000Y-75120000D01*
X141380000Y-75120000D02*
X141700000Y-75440000D01*
X141260000Y-72070000D02*
X141700000Y-71630000D01*
X150820000Y-73450000D02*
X150780000Y-73490000D01*
X139840000Y-72070000D02*
X141260000Y-72070000D01*
X153265000Y-73450000D02*
X150820000Y-73450000D01*
X146340000Y-77450000D02*
X145600000Y-76710000D01*
X153265000Y-77450000D02*
X146340000Y-77450000D01*
X135495900Y-74880400D02*
X138020501Y-77405001D01*
X144904999Y-77405001D02*
X145600000Y-76710000D01*
X138020501Y-77405001D02*
X144904999Y-77405001D01*
X143675012Y-76184988D02*
X143150000Y-76710000D01*
X140910000Y-64630000D02*
X142085001Y-63454999D01*
X127341399Y-63539471D02*
X127959471Y-62921399D01*
X127341399Y-64680529D02*
X127341399Y-63539471D01*
X128530000Y-65869130D02*
X127341399Y-64680529D01*
X144625001Y-69784999D02*
X143675012Y-70734988D01*
X143150000Y-76710000D02*
X141700000Y-76710000D01*
X139545001Y-63265001D02*
X140910000Y-64630000D01*
X142085001Y-63454999D02*
X144014001Y-63454999D01*
X144625001Y-64065999D02*
X144625001Y-69784999D01*
X137805999Y-63265001D02*
X139545001Y-63265001D01*
X144014001Y-63454999D02*
X144625001Y-64065999D01*
X128530000Y-66650000D02*
X128530000Y-65869130D01*
X127959471Y-62921399D02*
X137462397Y-62921399D01*
X143675012Y-70734988D02*
X143675012Y-76184988D01*
X137462397Y-62921399D02*
X137805999Y-63265001D01*
X143450000Y-64630000D02*
X143450000Y-70323589D01*
X143150000Y-75440000D02*
X141700000Y-75440000D01*
X143450000Y-70323589D02*
X143225001Y-70548588D01*
X128530000Y-64110000D02*
X130225001Y-65805001D01*
X142274999Y-65805001D02*
X143450000Y-64630000D01*
X130225001Y-65805001D02*
X142274999Y-65805001D01*
X143225001Y-75364999D02*
X143150000Y-75440000D01*
X143225001Y-70548588D02*
X143225001Y-75364999D01*
X142274999Y-60914999D02*
X143450000Y-62090000D01*
X126134459Y-64110000D02*
X129329460Y-60914999D01*
X127178601Y-65298601D02*
X127178601Y-67057731D01*
X125990000Y-64110000D02*
X127178601Y-65298601D01*
X138071399Y-68001399D02*
X141700000Y-71630000D01*
X128122269Y-68001399D02*
X138071399Y-68001399D01*
X129329460Y-60914999D02*
X142274999Y-60914999D01*
X125990000Y-64110000D02*
X126134459Y-64110000D01*
X127178601Y-67057731D02*
X128122269Y-68001399D01*
X130459600Y-72340400D02*
X128530000Y-74270000D01*
X125990000Y-74270000D02*
X128530000Y-74270000D01*
X135495900Y-72340400D02*
X130459600Y-72340400D01*
G04 #@! TA.AperFunction,Conductor*
G36*
X155068056Y-57913500D02*
G01*
X155082858Y-57915805D01*
X155082860Y-57915805D01*
X155091729Y-57917186D01*
X155100629Y-57916022D01*
X155109605Y-57916132D01*
X155109595Y-57916950D01*
X155131086Y-57917241D01*
X155156778Y-57921310D01*
X155194270Y-57933492D01*
X155229517Y-57951451D01*
X155261410Y-57974623D01*
X155289377Y-58002590D01*
X155312549Y-58034483D01*
X155330508Y-58069730D01*
X155342690Y-58107221D01*
X155346624Y-58132059D01*
X155348054Y-58151768D01*
X155346814Y-58159731D01*
X155349614Y-58181142D01*
X155350936Y-58191252D01*
X155352000Y-58207590D01*
X155352000Y-74872814D01*
X155331998Y-74940935D01*
X155278342Y-74987428D01*
X155208068Y-74997532D01*
X155174753Y-74987921D01*
X155142274Y-74973461D01*
X155104425Y-74947449D01*
X154585404Y-74428427D01*
X154551379Y-74366115D01*
X154548500Y-74339332D01*
X154548500Y-74233498D01*
X154548307Y-74231042D01*
X154546067Y-74202579D01*
X154546066Y-74202574D01*
X154545562Y-74196169D01*
X154499145Y-74036399D01*
X154495109Y-74029574D01*
X154485980Y-74014137D01*
X154468522Y-73945321D01*
X154485980Y-73885863D01*
X154495109Y-73870426D01*
X154495110Y-73870424D01*
X154499145Y-73863601D01*
X154501564Y-73855277D01*
X154516528Y-73803769D01*
X154545562Y-73703831D01*
X154546676Y-73689684D01*
X154548307Y-73668958D01*
X154548307Y-73668950D01*
X154548500Y-73666502D01*
X154548500Y-73233498D01*
X154547744Y-73223889D01*
X154546067Y-73202579D01*
X154546066Y-73202574D01*
X154545562Y-73196169D01*
X154510774Y-73076425D01*
X154501357Y-73044012D01*
X154501356Y-73044010D01*
X154499145Y-73036399D01*
X154462183Y-72973900D01*
X154418491Y-72900020D01*
X154418489Y-72900017D01*
X154414453Y-72893193D01*
X154296807Y-72775547D01*
X154289983Y-72771511D01*
X154289980Y-72771509D01*
X154160427Y-72694892D01*
X154160425Y-72694891D01*
X154153601Y-72690855D01*
X154145990Y-72688644D01*
X154145988Y-72688643D01*
X154093769Y-72673472D01*
X153993831Y-72644438D01*
X153987426Y-72643934D01*
X153987421Y-72643933D01*
X153958958Y-72641693D01*
X153958950Y-72641693D01*
X153956502Y-72641500D01*
X152573498Y-72641500D01*
X152571050Y-72641693D01*
X152571042Y-72641693D01*
X152542579Y-72643933D01*
X152542574Y-72643934D01*
X152536169Y-72644438D01*
X152436231Y-72673472D01*
X152384012Y-72688643D01*
X152384010Y-72688644D01*
X152376399Y-72690855D01*
X152369575Y-72694891D01*
X152333414Y-72716276D01*
X152264598Y-72733735D01*
X152197266Y-72711217D01*
X152152798Y-72655872D01*
X152143932Y-72594980D01*
X152148500Y-72550400D01*
X152148500Y-71749600D01*
X152148163Y-71746350D01*
X152138238Y-71650692D01*
X152138237Y-71650688D01*
X152137526Y-71643834D01*
X152081550Y-71476054D01*
X151988478Y-71325652D01*
X151863303Y-71200695D01*
X151837059Y-71184518D01*
X151718968Y-71111725D01*
X151718966Y-71111724D01*
X151712738Y-71107885D01*
X151552254Y-71054655D01*
X151551389Y-71054368D01*
X151551387Y-71054368D01*
X151544861Y-71052203D01*
X151538025Y-71051503D01*
X151538022Y-71051502D01*
X151494969Y-71047091D01*
X151440400Y-71041500D01*
X150039600Y-71041500D01*
X150036354Y-71041837D01*
X150036350Y-71041837D01*
X149940692Y-71051762D01*
X149940688Y-71051763D01*
X149933834Y-71052474D01*
X149927298Y-71054655D01*
X149927296Y-71054655D01*
X149832904Y-71086147D01*
X149766054Y-71108450D01*
X149615652Y-71201522D01*
X149490695Y-71326697D01*
X149486855Y-71332927D01*
X149486854Y-71332928D01*
X149463063Y-71371525D01*
X149397885Y-71477262D01*
X149342203Y-71645139D01*
X149331500Y-71749600D01*
X149331500Y-72550400D01*
X149331837Y-72553646D01*
X149331837Y-72553650D01*
X149341205Y-72643933D01*
X149342474Y-72656166D01*
X149344655Y-72662702D01*
X149344655Y-72662704D01*
X149362528Y-72716276D01*
X149398450Y-72823946D01*
X149491522Y-72974348D01*
X149496704Y-72979521D01*
X149546843Y-73029573D01*
X149616697Y-73099305D01*
X149622927Y-73103145D01*
X149622928Y-73103146D01*
X149697950Y-73149390D01*
X149767262Y-73192115D01*
X149797167Y-73202034D01*
X149855524Y-73242462D01*
X149882762Y-73308026D01*
X149882808Y-73334796D01*
X149873209Y-73426131D01*
X149866496Y-73490000D01*
X149867186Y-73496565D01*
X149881894Y-73636500D01*
X149886458Y-73679928D01*
X149945473Y-73861556D01*
X150040960Y-74026944D01*
X150045378Y-74031851D01*
X150045379Y-74031852D01*
X150064436Y-74053017D01*
X150168747Y-74168866D01*
X150257705Y-74233498D01*
X150312576Y-74273364D01*
X150323248Y-74281118D01*
X150329276Y-74283802D01*
X150329278Y-74283803D01*
X150424498Y-74326197D01*
X150454000Y-74339332D01*
X150454159Y-74339403D01*
X150508254Y-74385383D01*
X150528904Y-74453310D01*
X150509552Y-74521618D01*
X150496553Y-74538812D01*
X150478775Y-74558556D01*
X150383288Y-74723944D01*
X150324273Y-74905572D01*
X150323583Y-74912133D01*
X150323583Y-74912135D01*
X150317138Y-74973461D01*
X150304311Y-75095500D01*
X150305001Y-75102065D01*
X150313521Y-75183124D01*
X150324273Y-75285428D01*
X150383288Y-75467056D01*
X150386591Y-75472778D01*
X150386592Y-75472779D01*
X150410095Y-75513487D01*
X150478775Y-75632444D01*
X150483193Y-75637351D01*
X150483194Y-75637352D01*
X150602140Y-75769455D01*
X150606562Y-75774366D01*
X150761063Y-75886618D01*
X150767091Y-75889302D01*
X150767093Y-75889303D01*
X150929496Y-75961609D01*
X150935527Y-75964294D01*
X151028928Y-75984147D01*
X151115871Y-76002628D01*
X151115876Y-76002628D01*
X151122328Y-76004000D01*
X151231316Y-76004000D01*
X151281354Y-76014361D01*
X151287864Y-76017179D01*
X151298502Y-76022391D01*
X151337255Y-76043695D01*
X151344930Y-76045666D01*
X151344931Y-76045666D01*
X151356877Y-76048733D01*
X151375582Y-76055137D01*
X151394170Y-76063181D01*
X151401993Y-76064420D01*
X151402003Y-76064423D01*
X151437839Y-76070099D01*
X151449459Y-76072505D01*
X151484604Y-76081528D01*
X151492285Y-76083500D01*
X151512539Y-76083500D01*
X151532249Y-76085051D01*
X151552258Y-76088220D01*
X151560150Y-76087474D01*
X151596276Y-76084059D01*
X151608134Y-76083500D01*
X151864149Y-76083500D01*
X151932270Y-76103502D01*
X151978763Y-76157158D01*
X151985316Y-76187079D01*
X151988480Y-76191971D01*
X151997370Y-76196000D01*
X152322430Y-76196000D01*
X152371275Y-76206115D01*
X152376399Y-76209145D01*
X152384007Y-76211355D01*
X152384011Y-76211357D01*
X152447095Y-76229684D01*
X152536169Y-76255562D01*
X152542574Y-76256066D01*
X152542579Y-76256067D01*
X152571042Y-76258307D01*
X152571050Y-76258307D01*
X152573498Y-76258500D01*
X153393000Y-76258500D01*
X153461121Y-76278502D01*
X153507614Y-76332158D01*
X153519000Y-76384500D01*
X153519000Y-76515500D01*
X153498998Y-76583621D01*
X153445342Y-76630114D01*
X153393000Y-76641500D01*
X152573498Y-76641500D01*
X152571050Y-76641693D01*
X152571042Y-76641693D01*
X152542579Y-76643933D01*
X152542574Y-76643934D01*
X152536169Y-76644438D01*
X152464422Y-76665282D01*
X152384011Y-76688643D01*
X152384007Y-76688645D01*
X152376399Y-76690855D01*
X152371275Y-76693885D01*
X152322430Y-76704000D01*
X152003122Y-76704000D01*
X151989591Y-76707973D01*
X151989525Y-76708433D01*
X151960032Y-76773013D01*
X151900305Y-76811396D01*
X151864808Y-76816500D01*
X147434500Y-76816500D01*
X147366379Y-76796498D01*
X147319886Y-76742842D01*
X147308500Y-76690500D01*
X147308500Y-76291866D01*
X147301745Y-76229684D01*
X147298973Y-76222288D01*
X147298971Y-76222282D01*
X147260071Y-76118517D01*
X147254888Y-76047710D01*
X147260071Y-76030059D01*
X147298478Y-75927609D01*
X147302105Y-75912351D01*
X147307631Y-75861486D01*
X147308000Y-75854672D01*
X147308000Y-75712115D01*
X147303525Y-75696876D01*
X147302135Y-75695671D01*
X147294452Y-75694000D01*
X145472000Y-75694000D01*
X145403879Y-75673998D01*
X145357386Y-75620342D01*
X145346000Y-75568000D01*
X145346000Y-75167885D01*
X145854000Y-75167885D01*
X145858475Y-75183124D01*
X145859865Y-75184329D01*
X145867548Y-75186000D01*
X147289884Y-75186000D01*
X147305123Y-75181525D01*
X147306328Y-75180135D01*
X147307999Y-75172452D01*
X147307999Y-75025331D01*
X147307629Y-75018510D01*
X147302105Y-74967648D01*
X147298478Y-74952394D01*
X147259804Y-74849229D01*
X147254621Y-74778422D01*
X147259804Y-74760771D01*
X147298478Y-74657609D01*
X147302105Y-74642351D01*
X147307631Y-74591486D01*
X147308000Y-74584672D01*
X147308000Y-74442115D01*
X147303525Y-74426876D01*
X147302135Y-74425671D01*
X147294452Y-74424000D01*
X145872115Y-74424000D01*
X145856876Y-74428475D01*
X145855671Y-74429865D01*
X145854000Y-74437548D01*
X145854000Y-75167885D01*
X145346000Y-75167885D01*
X145346000Y-74042000D01*
X145366002Y-73973879D01*
X145419658Y-73927386D01*
X145472000Y-73916000D01*
X147289884Y-73916000D01*
X147305123Y-73911525D01*
X147306328Y-73910135D01*
X147307999Y-73902452D01*
X147307999Y-73755331D01*
X147307629Y-73748510D01*
X147302105Y-73697648D01*
X147298478Y-73682393D01*
X147260071Y-73579941D01*
X147254888Y-73509134D01*
X147260071Y-73491483D01*
X147298971Y-73387718D01*
X147298973Y-73387712D01*
X147301745Y-73380316D01*
X147308500Y-73318134D01*
X147308500Y-72481866D01*
X147301745Y-72419684D01*
X147298973Y-72412288D01*
X147298971Y-72412282D01*
X147260071Y-72308517D01*
X147254888Y-72237710D01*
X147260071Y-72220059D01*
X147298478Y-72117609D01*
X147302105Y-72102351D01*
X147307631Y-72051486D01*
X147308000Y-72044672D01*
X147308000Y-71902115D01*
X147303525Y-71886876D01*
X147302135Y-71885671D01*
X147294452Y-71884000D01*
X145472000Y-71884000D01*
X145403879Y-71863998D01*
X145357386Y-71810342D01*
X145346000Y-71758000D01*
X145346000Y-71357885D01*
X145854000Y-71357885D01*
X145858475Y-71373124D01*
X145859865Y-71374329D01*
X145867548Y-71376000D01*
X147289884Y-71376000D01*
X147305123Y-71371525D01*
X147306328Y-71370135D01*
X147307999Y-71362452D01*
X147307999Y-71215331D01*
X147307629Y-71208510D01*
X147302105Y-71157648D01*
X147298479Y-71142396D01*
X147253324Y-71021946D01*
X147244786Y-71006351D01*
X147168285Y-70904276D01*
X147155724Y-70891715D01*
X147053649Y-70815214D01*
X147038054Y-70806676D01*
X146917606Y-70761522D01*
X146902351Y-70757895D01*
X146851486Y-70752369D01*
X146844672Y-70752000D01*
X145872115Y-70752000D01*
X145856876Y-70756475D01*
X145855671Y-70757865D01*
X145854000Y-70765548D01*
X145854000Y-71357885D01*
X145346000Y-71357885D01*
X145346000Y-70770116D01*
X145341525Y-70754877D01*
X145340135Y-70753672D01*
X145332452Y-70752001D01*
X144858093Y-70752001D01*
X144789972Y-70731999D01*
X144743479Y-70678343D01*
X144733375Y-70608069D01*
X144762869Y-70543489D01*
X144768998Y-70536906D01*
X145017248Y-70288656D01*
X145025538Y-70281112D01*
X145032019Y-70276999D01*
X145078660Y-70227331D01*
X145081414Y-70224490D01*
X145101135Y-70204769D01*
X145103613Y-70201574D01*
X145111319Y-70192552D01*
X145136159Y-70166100D01*
X145141587Y-70160320D01*
X145151347Y-70142567D01*
X145162200Y-70126044D01*
X145169754Y-70116305D01*
X145174614Y-70110040D01*
X145192177Y-70069456D01*
X145197384Y-70058826D01*
X145218696Y-70020059D01*
X145220667Y-70012382D01*
X145220669Y-70012377D01*
X145223733Y-70000441D01*
X145230139Y-69981729D01*
X145235035Y-69970416D01*
X145238182Y-69963144D01*
X145244874Y-69920897D01*
X145245098Y-69919480D01*
X145247505Y-69907859D01*
X145256529Y-69872710D01*
X145256529Y-69872709D01*
X145258501Y-69865029D01*
X145258501Y-69844768D01*
X145260052Y-69825057D01*
X145261980Y-69812884D01*
X145263220Y-69805056D01*
X145259060Y-69761045D01*
X145258501Y-69749188D01*
X145258501Y-64144762D01*
X145259028Y-64133578D01*
X145260702Y-64126090D01*
X145258563Y-64058031D01*
X145258501Y-64054074D01*
X145258501Y-64026143D01*
X145257995Y-64022137D01*
X145257062Y-64010291D01*
X145255923Y-63974036D01*
X145255674Y-63966109D01*
X145250023Y-63946657D01*
X145246015Y-63927305D01*
X145244469Y-63915067D01*
X145244468Y-63915065D01*
X145243475Y-63907202D01*
X145227195Y-63866085D01*
X145223360Y-63854884D01*
X145211019Y-63812405D01*
X145206986Y-63805586D01*
X145206984Y-63805581D01*
X145200708Y-63794970D01*
X145192011Y-63777220D01*
X145184553Y-63758382D01*
X145158572Y-63722622D01*
X145152054Y-63712700D01*
X145133579Y-63681459D01*
X145133575Y-63681454D01*
X145129543Y-63674636D01*
X145115219Y-63660312D01*
X145102377Y-63645277D01*
X145090473Y-63628892D01*
X145056407Y-63600710D01*
X145047628Y-63592721D01*
X144707874Y-63252967D01*
X144673848Y-63190655D01*
X144678913Y-63119840D01*
X144689709Y-63097756D01*
X144738275Y-63018968D01*
X144738276Y-63018966D01*
X144742115Y-63012738D01*
X144797797Y-62844861D01*
X144800271Y-62820720D01*
X144808172Y-62743598D01*
X144808500Y-62740400D01*
X144808500Y-61439600D01*
X144797526Y-61333834D01*
X144741550Y-61166054D01*
X144648478Y-61015652D01*
X144523303Y-60890695D01*
X144372738Y-60797885D01*
X144292995Y-60771436D01*
X144211389Y-60744368D01*
X144211387Y-60744368D01*
X144204861Y-60742203D01*
X144198025Y-60741503D01*
X144198022Y-60741502D01*
X144154969Y-60737091D01*
X144100400Y-60731500D01*
X143039595Y-60731500D01*
X142971474Y-60711498D01*
X142950500Y-60694595D01*
X142778651Y-60522746D01*
X142771111Y-60514460D01*
X142766999Y-60507981D01*
X142717347Y-60461355D01*
X142714506Y-60458601D01*
X142694769Y-60438864D01*
X142691572Y-60436384D01*
X142682550Y-60428679D01*
X142669121Y-60416068D01*
X142650320Y-60398413D01*
X142643374Y-60394594D01*
X142643371Y-60394592D01*
X142632565Y-60388651D01*
X142616046Y-60377800D01*
X142615582Y-60377440D01*
X142600040Y-60365385D01*
X142592771Y-60362240D01*
X142592767Y-60362237D01*
X142559462Y-60347825D01*
X142548812Y-60342608D01*
X142510059Y-60321304D01*
X142490436Y-60316266D01*
X142471733Y-60309862D01*
X142460419Y-60304966D01*
X142460418Y-60304966D01*
X142453144Y-60301818D01*
X142445321Y-60300579D01*
X142445311Y-60300576D01*
X142409475Y-60294900D01*
X142397855Y-60292494D01*
X142362710Y-60283471D01*
X142362709Y-60283471D01*
X142355029Y-60281499D01*
X142334775Y-60281499D01*
X142315064Y-60279948D01*
X142302885Y-60278019D01*
X142295056Y-60276779D01*
X142265785Y-60279546D01*
X142251038Y-60280940D01*
X142239180Y-60281499D01*
X129408228Y-60281499D01*
X129397045Y-60280972D01*
X129389552Y-60279297D01*
X129381626Y-60279546D01*
X129381625Y-60279546D01*
X129321462Y-60281437D01*
X129317504Y-60281499D01*
X129289604Y-60281499D01*
X129285614Y-60282003D01*
X129273780Y-60282935D01*
X129229571Y-60284325D01*
X129221957Y-60286537D01*
X129221952Y-60286538D01*
X129210119Y-60289976D01*
X129190756Y-60293987D01*
X129170663Y-60296525D01*
X129163296Y-60299442D01*
X129163291Y-60299443D01*
X129129552Y-60312801D01*
X129118325Y-60316645D01*
X129075867Y-60328981D01*
X129069041Y-60333018D01*
X129058432Y-60339292D01*
X129040684Y-60347987D01*
X129021843Y-60355447D01*
X129015427Y-60360109D01*
X129015426Y-60360109D01*
X128986073Y-60381435D01*
X128976153Y-60387951D01*
X128944925Y-60406419D01*
X128944922Y-60406421D01*
X128938098Y-60410457D01*
X128923777Y-60424778D01*
X128908744Y-60437618D01*
X128892353Y-60449527D01*
X128883677Y-60460015D01*
X128864162Y-60483604D01*
X128856172Y-60492383D01*
X126647559Y-62700995D01*
X126585247Y-62735021D01*
X126558464Y-62737900D01*
X125078266Y-62737900D01*
X125016084Y-62744655D01*
X124879695Y-62795785D01*
X124763139Y-62883139D01*
X124675785Y-62999695D01*
X124624655Y-63136084D01*
X124617900Y-63198266D01*
X124617900Y-65021734D01*
X124624655Y-65083916D01*
X124675785Y-65220305D01*
X124763139Y-65336861D01*
X124879695Y-65424215D01*
X124888103Y-65427367D01*
X124983446Y-65463110D01*
X125040210Y-65505752D01*
X125064910Y-65572314D01*
X125049702Y-65641662D01*
X125030312Y-65668140D01*
X124920024Y-65783550D01*
X124792878Y-65969940D01*
X124790704Y-65974624D01*
X124790702Y-65974627D01*
X124704932Y-66159404D01*
X124697881Y-66174593D01*
X124637585Y-66392013D01*
X124613609Y-66616362D01*
X124613906Y-66621514D01*
X124613906Y-66621518D01*
X124619618Y-66720578D01*
X124626597Y-66841614D01*
X124627734Y-66846660D01*
X124627735Y-66846666D01*
X124648984Y-66940952D01*
X124676200Y-67061720D01*
X124678142Y-67066502D01*
X124678143Y-67066506D01*
X124759142Y-67265982D01*
X124761086Y-67270769D01*
X124763785Y-67275173D01*
X124861252Y-67434225D01*
X124878975Y-67463147D01*
X125026702Y-67633687D01*
X125200299Y-67777810D01*
X125204751Y-67780412D01*
X125204756Y-67780415D01*
X125254555Y-67809515D01*
X125303278Y-67861154D01*
X125316349Y-67930937D01*
X125289617Y-67996709D01*
X125258131Y-68024920D01*
X125252471Y-68028485D01*
X125080373Y-68157700D01*
X125072666Y-68164543D01*
X124923984Y-68320129D01*
X124917498Y-68328139D01*
X124796232Y-68505908D01*
X124791134Y-68514882D01*
X124700530Y-68710071D01*
X124696967Y-68719758D01*
X124640536Y-68923239D01*
X124642233Y-68932609D01*
X124654610Y-68936000D01*
X129862367Y-68936000D01*
X129875898Y-68932027D01*
X129877203Y-68922946D01*
X129844210Y-68791594D01*
X129847014Y-68720653D01*
X129887727Y-68662490D01*
X129953422Y-68635571D01*
X129966414Y-68634899D01*
X137756805Y-68634899D01*
X137824926Y-68654901D01*
X137845900Y-68671804D01*
X140032374Y-70858278D01*
X140066400Y-70920590D01*
X140061335Y-70991405D01*
X140054357Y-71006661D01*
X140049385Y-71013295D01*
X140046236Y-71021696D01*
X140046235Y-71021697D01*
X140024480Y-71079729D01*
X139981839Y-71136494D01*
X139915278Y-71161194D01*
X139906498Y-71161500D01*
X139744513Y-71161500D01*
X139738061Y-71162872D01*
X139738056Y-71162872D01*
X139684416Y-71174274D01*
X139557712Y-71201206D01*
X139551682Y-71203891D01*
X139551681Y-71203891D01*
X139389278Y-71276197D01*
X139389276Y-71276198D01*
X139383248Y-71278882D01*
X139377907Y-71282762D01*
X139377906Y-71282763D01*
X139366126Y-71291322D01*
X139228747Y-71391134D01*
X139224326Y-71396044D01*
X139224325Y-71396045D01*
X139146447Y-71482538D01*
X139100960Y-71533056D01*
X139097659Y-71538774D01*
X139009639Y-71691229D01*
X139005473Y-71698444D01*
X138946458Y-71880072D01*
X138945768Y-71886633D01*
X138945768Y-71886635D01*
X138930529Y-72031632D01*
X138926496Y-72070000D01*
X138927186Y-72076565D01*
X138942268Y-72220059D01*
X138946458Y-72259928D01*
X139005473Y-72441556D01*
X139100960Y-72606944D01*
X139105378Y-72611851D01*
X139105379Y-72611852D01*
X139151166Y-72662704D01*
X139228747Y-72748866D01*
X139383248Y-72861118D01*
X139389276Y-72863802D01*
X139389278Y-72863803D01*
X139551681Y-72936109D01*
X139557712Y-72938794D01*
X139651113Y-72958647D01*
X139738056Y-72977128D01*
X139738061Y-72977128D01*
X139744513Y-72978500D01*
X139865500Y-72978500D01*
X139933621Y-72998502D01*
X139980114Y-73052158D01*
X139991500Y-73104500D01*
X139991500Y-73318134D01*
X139998255Y-73380316D01*
X140001027Y-73387712D01*
X140001029Y-73387718D01*
X140039662Y-73490771D01*
X140044845Y-73561578D01*
X140039662Y-73579229D01*
X140001029Y-73682282D01*
X140001027Y-73682288D01*
X139998255Y-73689684D01*
X139991500Y-73751866D01*
X139991500Y-74123073D01*
X139971498Y-74191194D01*
X139917842Y-74237687D01*
X139847568Y-74247791D01*
X139839303Y-74246320D01*
X139681944Y-74212872D01*
X139681939Y-74212872D01*
X139675487Y-74211500D01*
X139484513Y-74211500D01*
X139478061Y-74212872D01*
X139478056Y-74212872D01*
X139392660Y-74231024D01*
X139297712Y-74251206D01*
X139291682Y-74253891D01*
X139291681Y-74253891D01*
X139129278Y-74326197D01*
X139129276Y-74326198D01*
X139123248Y-74328882D01*
X138968747Y-74441134D01*
X138964326Y-74446044D01*
X138964325Y-74446045D01*
X138860863Y-74560952D01*
X138840960Y-74583056D01*
X138745473Y-74748444D01*
X138686458Y-74930072D01*
X138685768Y-74936633D01*
X138685768Y-74936635D01*
X138681898Y-74973461D01*
X138666496Y-75120000D01*
X138667186Y-75126565D01*
X138683553Y-75282285D01*
X138686458Y-75309928D01*
X138745473Y-75491556D01*
X138840960Y-75656944D01*
X138905848Y-75729010D01*
X138936564Y-75793015D01*
X138927801Y-75863468D01*
X138909046Y-75892649D01*
X138909261Y-75892805D01*
X138906527Y-75896568D01*
X138905842Y-75897634D01*
X138900960Y-75903056D01*
X138897658Y-75908775D01*
X138897656Y-75908778D01*
X138821965Y-76039879D01*
X138805473Y-76068444D01*
X138746458Y-76250072D01*
X138745768Y-76256633D01*
X138745768Y-76256635D01*
X138735225Y-76356944D01*
X138726496Y-76440000D01*
X138727186Y-76446565D01*
X138746458Y-76629928D01*
X138744073Y-76630179D01*
X138739508Y-76690084D01*
X138696696Y-76746721D01*
X138630061Y-76771221D01*
X138621659Y-76771501D01*
X138335095Y-76771501D01*
X138266974Y-76751499D01*
X138246000Y-76734596D01*
X136847118Y-75335713D01*
X136813092Y-75273401D01*
X136815655Y-75209989D01*
X136822944Y-75186000D01*
X136828270Y-75168469D01*
X136857429Y-74946990D01*
X136857682Y-74936635D01*
X136858974Y-74883765D01*
X136858974Y-74883761D01*
X136859056Y-74880400D01*
X136840752Y-74657761D01*
X136786331Y-74441102D01*
X136697254Y-74236240D01*
X136575914Y-74048677D01*
X136425570Y-73883451D01*
X136421519Y-73880252D01*
X136421515Y-73880248D01*
X136254314Y-73748200D01*
X136254310Y-73748198D01*
X136250259Y-73744998D01*
X136208953Y-73722196D01*
X136158984Y-73671764D01*
X136144212Y-73602321D01*
X136169328Y-73535916D01*
X136196680Y-73509309D01*
X136240503Y-73478050D01*
X136375760Y-73381573D01*
X136533996Y-73223889D01*
X136664353Y-73042477D01*
X136668511Y-73034065D01*
X136761036Y-72846853D01*
X136761037Y-72846851D01*
X136763330Y-72842211D01*
X136796288Y-72733735D01*
X136826765Y-72633423D01*
X136826765Y-72633421D01*
X136828270Y-72628469D01*
X136857429Y-72406990D01*
X136859056Y-72340400D01*
X136840752Y-72117761D01*
X136786331Y-71901102D01*
X136697254Y-71696240D01*
X136595385Y-71538774D01*
X136578722Y-71513017D01*
X136578720Y-71513014D01*
X136575914Y-71508677D01*
X136425570Y-71343451D01*
X136421519Y-71340252D01*
X136421515Y-71340248D01*
X136254314Y-71208200D01*
X136254310Y-71208198D01*
X136250259Y-71204998D01*
X136243963Y-71201522D01*
X136194602Y-71174274D01*
X136054689Y-71097038D01*
X136049820Y-71095314D01*
X136049816Y-71095312D01*
X135848987Y-71024195D01*
X135848983Y-71024194D01*
X135844112Y-71022469D01*
X135839019Y-71021562D01*
X135839016Y-71021561D01*
X135629273Y-70984200D01*
X135629267Y-70984199D01*
X135624184Y-70983294D01*
X135550352Y-70982392D01*
X135405981Y-70980628D01*
X135405979Y-70980628D01*
X135400811Y-70980565D01*
X135179991Y-71014355D01*
X134967656Y-71083757D01*
X134769507Y-71186907D01*
X134765374Y-71190010D01*
X134765371Y-71190012D01*
X134637122Y-71286304D01*
X134590865Y-71321035D01*
X134436529Y-71482538D01*
X134433615Y-71486810D01*
X134433614Y-71486811D01*
X134320995Y-71651904D01*
X134266084Y-71696907D01*
X134216907Y-71706900D01*
X130538363Y-71706900D01*
X130527179Y-71706373D01*
X130519691Y-71704699D01*
X130511768Y-71704948D01*
X130451633Y-71706838D01*
X130447675Y-71706900D01*
X130419744Y-71706900D01*
X130415829Y-71707395D01*
X130415825Y-71707395D01*
X130415767Y-71707403D01*
X130415738Y-71707406D01*
X130403896Y-71708339D01*
X130359710Y-71709727D01*
X130342344Y-71714772D01*
X130340258Y-71715378D01*
X130320906Y-71719386D01*
X130308668Y-71720932D01*
X130308666Y-71720933D01*
X130300803Y-71721926D01*
X130259686Y-71738206D01*
X130248485Y-71742041D01*
X130206006Y-71754382D01*
X130199187Y-71758415D01*
X130199182Y-71758417D01*
X130188571Y-71764693D01*
X130170821Y-71773390D01*
X130151983Y-71780848D01*
X130145567Y-71785509D01*
X130145566Y-71785510D01*
X130116225Y-71806828D01*
X130106304Y-71813345D01*
X130095814Y-71819549D01*
X130026998Y-71837010D01*
X129959666Y-71814494D01*
X129915196Y-71759151D01*
X129906097Y-71721421D01*
X129891081Y-71538774D01*
X129888315Y-71505132D01*
X129833349Y-71286304D01*
X129743380Y-71079391D01*
X129695282Y-71005043D01*
X129623634Y-70894291D01*
X129623632Y-70894288D01*
X129620826Y-70889951D01*
X129468977Y-70723071D01*
X129464926Y-70719872D01*
X129464922Y-70719868D01*
X129295966Y-70586434D01*
X129295962Y-70586432D01*
X129291911Y-70583232D01*
X129287387Y-70580734D01*
X129287383Y-70580732D01*
X129268048Y-70570058D01*
X129218079Y-70519625D01*
X129203308Y-70450182D01*
X129228426Y-70383777D01*
X129255776Y-70357172D01*
X129414136Y-70244216D01*
X129422003Y-70237567D01*
X129574445Y-70085656D01*
X129581122Y-70077811D01*
X129706702Y-69903047D01*
X129712013Y-69894208D01*
X129807358Y-69701292D01*
X129811156Y-69691699D01*
X129873716Y-69485791D01*
X129875893Y-69475721D01*
X129877705Y-69461960D01*
X129875493Y-69447778D01*
X129862336Y-69444000D01*
X124659283Y-69444000D01*
X124645752Y-69447973D01*
X124644315Y-69457966D01*
X124675542Y-69596528D01*
X124678621Y-69606356D01*
X124759589Y-69805756D01*
X124764232Y-69814947D01*
X124876682Y-69998448D01*
X124882765Y-70006759D01*
X125023665Y-70169417D01*
X125031032Y-70176633D01*
X125196606Y-70314095D01*
X125205057Y-70320013D01*
X125254545Y-70348932D01*
X125303268Y-70400570D01*
X125316339Y-70470353D01*
X125289607Y-70536125D01*
X125258932Y-70563608D01*
X125256335Y-70564960D01*
X125252202Y-70568063D01*
X125252199Y-70568065D01*
X125080040Y-70697325D01*
X125075905Y-70700430D01*
X124920024Y-70863550D01*
X124792878Y-71049940D01*
X124790704Y-71054624D01*
X124790702Y-71054627D01*
X124716106Y-71215331D01*
X124697881Y-71254593D01*
X124637585Y-71472013D01*
X124613609Y-71696362D01*
X124613906Y-71701514D01*
X124613906Y-71701518D01*
X124619978Y-71806828D01*
X124626597Y-71921614D01*
X124627734Y-71926660D01*
X124627735Y-71926666D01*
X124654329Y-72044672D01*
X124676200Y-72141720D01*
X124678142Y-72146502D01*
X124678143Y-72146506D01*
X124758242Y-72343765D01*
X124761086Y-72350769D01*
X124878975Y-72543147D01*
X125026702Y-72713687D01*
X125200299Y-72857810D01*
X125204751Y-72860412D01*
X125204756Y-72860415D01*
X125254069Y-72889231D01*
X125302792Y-72940870D01*
X125315863Y-73010653D01*
X125289131Y-73076425D01*
X125258595Y-73103783D01*
X125256335Y-73104960D01*
X125208217Y-73141088D01*
X125081848Y-73235968D01*
X125075905Y-73240430D01*
X124920024Y-73403550D01*
X124792878Y-73589940D01*
X124790704Y-73594624D01*
X124790702Y-73594627D01*
X124708487Y-73771745D01*
X124697881Y-73794593D01*
X124637585Y-74012013D01*
X124613609Y-74236362D01*
X124613906Y-74241514D01*
X124613906Y-74241518D01*
X124622455Y-74389786D01*
X124626597Y-74461614D01*
X124627734Y-74466660D01*
X124627735Y-74466666D01*
X124659095Y-74605821D01*
X124676200Y-74681720D01*
X124678142Y-74686502D01*
X124678143Y-74686506D01*
X124758242Y-74883765D01*
X124761086Y-74890769D01*
X124797571Y-74950308D01*
X124839366Y-75018510D01*
X124878975Y-75083147D01*
X125026702Y-75253687D01*
X125200299Y-75397810D01*
X125204751Y-75400412D01*
X125204756Y-75400415D01*
X125390645Y-75509040D01*
X125395103Y-75511645D01*
X125605884Y-75592134D01*
X125610952Y-75593165D01*
X125610955Y-75593166D01*
X125719404Y-75615230D01*
X125826981Y-75637117D01*
X125832156Y-75637307D01*
X125832158Y-75637307D01*
X126047292Y-75645196D01*
X126047296Y-75645196D01*
X126052456Y-75645385D01*
X126057576Y-75644729D01*
X126057578Y-75644729D01*
X126126985Y-75635838D01*
X126276253Y-75616716D01*
X126281202Y-75615231D01*
X126281208Y-75615230D01*
X126487413Y-75553365D01*
X126487412Y-75553365D01*
X126492363Y-75551880D01*
X126615500Y-75491556D01*
X126690331Y-75454897D01*
X126690336Y-75454894D01*
X126694982Y-75452618D01*
X126699192Y-75449615D01*
X126699197Y-75449612D01*
X126874455Y-75324601D01*
X126874459Y-75324597D01*
X126878667Y-75321596D01*
X127038487Y-75162333D01*
X127159370Y-74994107D01*
X127215364Y-74950459D01*
X127286068Y-74944013D01*
X127349032Y-74976816D01*
X127369123Y-75001796D01*
X127418975Y-75083147D01*
X127422364Y-75087060D01*
X127422366Y-75087062D01*
X127435362Y-75102065D01*
X127566702Y-75253687D01*
X127740299Y-75397810D01*
X127744751Y-75400412D01*
X127744756Y-75400415D01*
X127930645Y-75509040D01*
X127935103Y-75511645D01*
X128145884Y-75592134D01*
X128150952Y-75593165D01*
X128150955Y-75593166D01*
X128259404Y-75615230D01*
X128366981Y-75637117D01*
X128372156Y-75637307D01*
X128372158Y-75637307D01*
X128587292Y-75645196D01*
X128587296Y-75645196D01*
X128592456Y-75645385D01*
X128597576Y-75644729D01*
X128597578Y-75644729D01*
X128666985Y-75635838D01*
X128816253Y-75616716D01*
X128821202Y-75615231D01*
X128821208Y-75615230D01*
X129027413Y-75553365D01*
X129027412Y-75553365D01*
X129032363Y-75551880D01*
X129155500Y-75491556D01*
X129230331Y-75454897D01*
X129230336Y-75454894D01*
X129234982Y-75452618D01*
X129239192Y-75449615D01*
X129239197Y-75449612D01*
X129414455Y-75324601D01*
X129414459Y-75324597D01*
X129418667Y-75321596D01*
X129578487Y-75162333D01*
X129710150Y-74979105D01*
X129810118Y-74776835D01*
X129868992Y-74583056D01*
X129874206Y-74565896D01*
X129874206Y-74565895D01*
X129875708Y-74560952D01*
X129876669Y-74553654D01*
X129904721Y-74340578D01*
X129904722Y-74340572D01*
X129905158Y-74337256D01*
X129906802Y-74270000D01*
X129888315Y-74045132D01*
X129864420Y-73950000D01*
X129858029Y-73924556D01*
X129860834Y-73853615D01*
X129891138Y-73804766D01*
X130685099Y-73010805D01*
X130747411Y-72976779D01*
X130774194Y-72973900D01*
X134220174Y-72973900D01*
X134288295Y-72993902D01*
X134327607Y-73034065D01*
X134395887Y-73145488D01*
X134542150Y-73314338D01*
X134714026Y-73457032D01*
X134759210Y-73483435D01*
X134787345Y-73499876D01*
X134836069Y-73551514D01*
X134849140Y-73621297D01*
X134822409Y-73687069D01*
X134781955Y-73720427D01*
X134769507Y-73726907D01*
X134765374Y-73730010D01*
X134765371Y-73730012D01*
X134597587Y-73855988D01*
X134590865Y-73861035D01*
X134436529Y-74022538D01*
X134433615Y-74026810D01*
X134433614Y-74026811D01*
X134392709Y-74086775D01*
X134310643Y-74207080D01*
X134281437Y-74270000D01*
X134218860Y-74404811D01*
X134216588Y-74409705D01*
X134156889Y-74624970D01*
X134133151Y-74847095D01*
X134133448Y-74852248D01*
X134133448Y-74852251D01*
X134143428Y-75025331D01*
X134146010Y-75070115D01*
X134147147Y-75075161D01*
X134147148Y-75075167D01*
X134167019Y-75163339D01*
X134195122Y-75288039D01*
X134238355Y-75394510D01*
X134270137Y-75472779D01*
X134279166Y-75495016D01*
X134314012Y-75551880D01*
X134355966Y-75620342D01*
X134395887Y-75685488D01*
X134542150Y-75854338D01*
X134546130Y-75857642D01*
X134550881Y-75861587D01*
X134590516Y-75920490D01*
X134592013Y-75991471D01*
X134554897Y-76051993D01*
X134514625Y-76076512D01*
X134486702Y-76086980D01*
X134399195Y-76119785D01*
X134282639Y-76207139D01*
X134195285Y-76323695D01*
X134144155Y-76460084D01*
X134137400Y-76522266D01*
X134137400Y-78318534D01*
X134144155Y-78380716D01*
X134195285Y-78517105D01*
X134282639Y-78633661D01*
X134399195Y-78721015D01*
X134535584Y-78772145D01*
X134597766Y-78778900D01*
X136394034Y-78778900D01*
X136456216Y-78772145D01*
X136592605Y-78721015D01*
X136709161Y-78633661D01*
X136796515Y-78517105D01*
X136847645Y-78380716D01*
X136854400Y-78318534D01*
X136854400Y-77438995D01*
X136874402Y-77370874D01*
X136928058Y-77324381D01*
X136998332Y-77314277D01*
X137062912Y-77343771D01*
X137069495Y-77349900D01*
X137516849Y-77797254D01*
X137524389Y-77805540D01*
X137528501Y-77812019D01*
X137534278Y-77817444D01*
X137578152Y-77858644D01*
X137580994Y-77861399D01*
X137600731Y-77881136D01*
X137603928Y-77883616D01*
X137612948Y-77891319D01*
X137645180Y-77921587D01*
X137652126Y-77925406D01*
X137652129Y-77925408D01*
X137662935Y-77931349D01*
X137679454Y-77942200D01*
X137695460Y-77954615D01*
X137702729Y-77957760D01*
X137702733Y-77957763D01*
X137736038Y-77972175D01*
X137746688Y-77977392D01*
X137785441Y-77998696D01*
X137793116Y-78000667D01*
X137793117Y-78000667D01*
X137805063Y-78003734D01*
X137823768Y-78010138D01*
X137842356Y-78018182D01*
X137850179Y-78019421D01*
X137850189Y-78019424D01*
X137886025Y-78025100D01*
X137897645Y-78027506D01*
X137929460Y-78035674D01*
X137940471Y-78038501D01*
X137960725Y-78038501D01*
X137980435Y-78040052D01*
X138000444Y-78043221D01*
X138008336Y-78042475D01*
X138027081Y-78040703D01*
X138044463Y-78039060D01*
X138056320Y-78038501D01*
X144826232Y-78038501D01*
X144837415Y-78039028D01*
X144844908Y-78040703D01*
X144852834Y-78040454D01*
X144852835Y-78040454D01*
X144912985Y-78038563D01*
X144916944Y-78038501D01*
X144944855Y-78038501D01*
X144948790Y-78038004D01*
X144948855Y-78037996D01*
X144960692Y-78037063D01*
X144992950Y-78036049D01*
X144996969Y-78035923D01*
X145004888Y-78035674D01*
X145024342Y-78030022D01*
X145043699Y-78026014D01*
X145055929Y-78024469D01*
X145055930Y-78024469D01*
X145063796Y-78023475D01*
X145071167Y-78020556D01*
X145071169Y-78020556D01*
X145104911Y-78007197D01*
X145116141Y-78003352D01*
X145150982Y-77993230D01*
X145150983Y-77993230D01*
X145158592Y-77991019D01*
X145165411Y-77986986D01*
X145165416Y-77986984D01*
X145176027Y-77980708D01*
X145193775Y-77972013D01*
X145212616Y-77964553D01*
X145248386Y-77938565D01*
X145258306Y-77932049D01*
X145289534Y-77913581D01*
X145289537Y-77913579D01*
X145296361Y-77909543D01*
X145310682Y-77895222D01*
X145325716Y-77882381D01*
X145335692Y-77875133D01*
X145342106Y-77870473D01*
X145370287Y-77836408D01*
X145378277Y-77827628D01*
X145510905Y-77695000D01*
X145573217Y-77660974D01*
X145644032Y-77666039D01*
X145689095Y-77695000D01*
X145836348Y-77842253D01*
X145843888Y-77850539D01*
X145848000Y-77857018D01*
X145853777Y-77862443D01*
X145897651Y-77903643D01*
X145900493Y-77906398D01*
X145920230Y-77926135D01*
X145923427Y-77928615D01*
X145932447Y-77936318D01*
X145964679Y-77966586D01*
X145971625Y-77970405D01*
X145971628Y-77970407D01*
X145982434Y-77976348D01*
X145998953Y-77987199D01*
X146014959Y-77999614D01*
X146022228Y-78002759D01*
X146022232Y-78002762D01*
X146055537Y-78017174D01*
X146066187Y-78022391D01*
X146104940Y-78043695D01*
X146112615Y-78045666D01*
X146112616Y-78045666D01*
X146124562Y-78048733D01*
X146143267Y-78055137D01*
X146161855Y-78063181D01*
X146169678Y-78064420D01*
X146169688Y-78064423D01*
X146205524Y-78070099D01*
X146217144Y-78072505D01*
X146252289Y-78081528D01*
X146259970Y-78083500D01*
X146280224Y-78083500D01*
X146299934Y-78085051D01*
X146319943Y-78088220D01*
X146327835Y-78087474D01*
X146363961Y-78084059D01*
X146375819Y-78083500D01*
X149221746Y-78083500D01*
X149289867Y-78103502D01*
X149336360Y-78157158D01*
X149346464Y-78227432D01*
X149344947Y-78235912D01*
X149344369Y-78238610D01*
X149342203Y-78245139D01*
X149331500Y-78349600D01*
X149331500Y-79150400D01*
X149342474Y-79256166D01*
X149398450Y-79423946D01*
X149491522Y-79574348D01*
X149616697Y-79699305D01*
X149622927Y-79703145D01*
X149622928Y-79703146D01*
X149760090Y-79787694D01*
X149767262Y-79792115D01*
X149847005Y-79818564D01*
X149928611Y-79845632D01*
X149928613Y-79845632D01*
X149935139Y-79847797D01*
X149941975Y-79848497D01*
X149941978Y-79848498D01*
X149985031Y-79852909D01*
X150039600Y-79858500D01*
X151440400Y-79858500D01*
X151443646Y-79858163D01*
X151443650Y-79858163D01*
X151539308Y-79848238D01*
X151539312Y-79848237D01*
X151546166Y-79847526D01*
X151552702Y-79845345D01*
X151552704Y-79845345D01*
X151684806Y-79801272D01*
X151713946Y-79791550D01*
X151864348Y-79698478D01*
X151989305Y-79573303D01*
X152082115Y-79422738D01*
X152137797Y-79254861D01*
X152148500Y-79150400D01*
X152148500Y-78349600D01*
X152143887Y-78305144D01*
X152156751Y-78235325D01*
X152205322Y-78183542D01*
X152274177Y-78166239D01*
X152333351Y-78183686D01*
X152376399Y-78209145D01*
X152384010Y-78211356D01*
X152384012Y-78211357D01*
X152436231Y-78226528D01*
X152536169Y-78255562D01*
X152542574Y-78256066D01*
X152542579Y-78256067D01*
X152571042Y-78258307D01*
X152571050Y-78258307D01*
X152573498Y-78258500D01*
X153956502Y-78258500D01*
X153958950Y-78258307D01*
X153958958Y-78258307D01*
X153987421Y-78256067D01*
X153987426Y-78256066D01*
X153993831Y-78255562D01*
X154093769Y-78226528D01*
X154145988Y-78211357D01*
X154145990Y-78211356D01*
X154153601Y-78209145D01*
X154241506Y-78157158D01*
X154289980Y-78128491D01*
X154289983Y-78128489D01*
X154296807Y-78124453D01*
X154414453Y-78006807D01*
X154418489Y-77999983D01*
X154418491Y-77999980D01*
X154487341Y-77883560D01*
X154499145Y-77863601D01*
X154545562Y-77703831D01*
X154546258Y-77695000D01*
X154548307Y-77668958D01*
X154548307Y-77668950D01*
X154548500Y-77666502D01*
X154548500Y-77233498D01*
X154545562Y-77196169D01*
X154499145Y-77036399D01*
X154485690Y-77013649D01*
X154468230Y-76944835D01*
X154485689Y-76885370D01*
X154494648Y-76870221D01*
X154500894Y-76855788D01*
X154515482Y-76805576D01*
X154553695Y-76745740D01*
X154618192Y-76716063D01*
X154662675Y-76717482D01*
X154701882Y-76725815D01*
X154714513Y-76728500D01*
X154905487Y-76728500D01*
X154911939Y-76727128D01*
X154911944Y-76727128D01*
X155002058Y-76707973D01*
X155092288Y-76688794D01*
X155174752Y-76652079D01*
X155245118Y-76642645D01*
X155309415Y-76672751D01*
X155347229Y-76732840D01*
X155352000Y-76767186D01*
X155352000Y-80976671D01*
X155350500Y-80996055D01*
X155346814Y-81019729D01*
X155347978Y-81028629D01*
X155347868Y-81037605D01*
X155347050Y-81037595D01*
X155346759Y-81059086D01*
X155342690Y-81084778D01*
X155330508Y-81122270D01*
X155312549Y-81157517D01*
X155289377Y-81189410D01*
X155261410Y-81217377D01*
X155229517Y-81240549D01*
X155194270Y-81258508D01*
X155156779Y-81270690D01*
X155131941Y-81274624D01*
X155112232Y-81276054D01*
X155104269Y-81274814D01*
X155072748Y-81278936D01*
X155056410Y-81280000D01*
X122223329Y-81280000D01*
X122203944Y-81278500D01*
X122189142Y-81276195D01*
X122189140Y-81276195D01*
X122180271Y-81274814D01*
X122171371Y-81275978D01*
X122162395Y-81275868D01*
X122162405Y-81275050D01*
X122140914Y-81274759D01*
X122115222Y-81270690D01*
X122077730Y-81258508D01*
X122042483Y-81240549D01*
X122010590Y-81217377D01*
X121982623Y-81189410D01*
X121959451Y-81157517D01*
X121941492Y-81122270D01*
X121929310Y-81084779D01*
X121925376Y-81059941D01*
X121923946Y-81040232D01*
X121925186Y-81032269D01*
X121921064Y-81000747D01*
X121920000Y-80984410D01*
X121920000Y-58215329D01*
X121921500Y-58195944D01*
X121923805Y-58181142D01*
X121923805Y-58181140D01*
X121925186Y-58172271D01*
X121924022Y-58163371D01*
X121924132Y-58154395D01*
X121924950Y-58154405D01*
X121925241Y-58132914D01*
X121929310Y-58107222D01*
X121941492Y-58069730D01*
X121959451Y-58034483D01*
X121982623Y-58002590D01*
X122010590Y-57974623D01*
X122042483Y-57951451D01*
X122077730Y-57933492D01*
X122115221Y-57921310D01*
X122140059Y-57917376D01*
X122159768Y-57915946D01*
X122167731Y-57917186D01*
X122199253Y-57913064D01*
X122215590Y-57912000D01*
X155048671Y-57912000D01*
X155068056Y-57913500D01*
G37*
G04 #@! TD.AperFunction*
M02*
