M48
; DRILL file {KiCad (6.0.0)} date Sun Jul 24 20:48:08 2022
; FORMAT={-:-/ absolute / inch / decimal}
; #@! TF.CreationDate,2022-07-24T20:48:08-05:00
; #@! TF.GenerationSoftware,Kicad,Pcbnew,(6.0.0)
; #@! TF.FileFunction,Plated,1,2,PTH
FMAT,2
INCH
; #@! TA.AperFunction,Plated,PTH,ViaDrill
T1C0.0157
; #@! TA.AperFunction,Plated,PTH,ComponentDrill
T2C0.0394
; #@! TA.AperFunction,Plated,PTH,ComponentDrill
T3C0.0400
%
G90
G05
T1
X5.4953Y-2.9575
X5.4976Y-3.0094
X5.5055Y-2.8374
X5.9362Y-2.8933
X5.9535Y-2.9565
X6.0949Y-2.985
T2
X5.3345Y-2.848
X5.3345Y-2.948
X5.3345Y-3.048
X5.4476Y-2.4445
X5.4476Y-2.5445
X5.5476Y-2.4445
X5.5476Y-2.5445
X5.6476Y-2.4445
X5.6476Y-2.5445
T3
X4.9602Y-2.524
X4.9602Y-2.624
X4.9602Y-2.724
X4.9602Y-2.824
X4.9602Y-2.924
X5.0602Y-2.524
X5.0602Y-2.624
X5.0602Y-2.724
X5.0602Y-2.824
X5.0602Y-2.924
T0
M30
