M48
; DRILL file {KiCad (5.1.5)-3} date 6/13/2020 12:38:33 AM
; FORMAT={-:-/ absolute / inch / decimal}
; #@! TF.CreationDate,2020-06-13T00:38:33-05:00
; #@! TF.GenerationSoftware,Kicad,Pcbnew,(5.1.5)-3
; #@! TF.FileFunction,Plated,1,2,PTH
FMAT,2
INCH
T1C0.0150
T2C0.0236
T3C0.0299
T4C0.0300
T5C0.0394
T6C0.0420
%
G90
G05
T3
X6.26Y-3.1675
X6.31Y-3.0675
X6.36Y-3.1675
X6.41Y-3.0675
X6.46Y-3.1675
X6.51Y-3.0675
X6.56Y-3.1675
X6.61Y-3.0675
T4
X5.32Y-2.1575
X5.32Y-2.8575
X6.92Y-2.1575
X6.92Y-2.8575
T5
X7.055Y-2.0975
X7.055Y-2.1975
X7.055Y-2.2975
X7.055Y-2.3975
X7.055Y-2.4975
X7.055Y-2.5975
X7.055Y-2.6975
X7.055Y-2.7975
X7.055Y-2.8975
X7.055Y-2.9975
X7.055Y-3.0975
X7.055Y-3.1975
X7.055Y-3.2975
X7.055Y-3.3975
X7.8621Y-2.0975
X7.8621Y-2.1975
X7.8621Y-2.2975
X7.8621Y-2.3975
X7.8621Y-2.4975
X7.8621Y-2.5975
X7.8621Y-2.6975
X7.8621Y-2.7975
X7.8621Y-2.8975
X7.8621Y-2.9975
X7.8621Y-3.0975
X7.8621Y-3.1975
X7.8621Y-3.2975
X7.8621Y-3.3975
X6.8675Y-3.07
X6.8675Y-3.17
T6
X5.5675Y-3.1575
X5.7675Y-3.1575
X5.9675Y-3.1575
T1
G00X6.1395Y-3.5078
M15
G01X6.1395Y-3.5557
M16
G05
G00X6.73Y-3.5078
M15
G01X6.73Y-3.5557
M16
G05
T2
G00X7.2878Y-3.3143
M15
G01X7.2878Y-3.2907
M16
G05
G00X7.2878Y-3.4718
M15
G01X7.2878Y-3.4482
M16
G05
G00X7.2878Y-3.5899
M15
G01X7.2878Y-3.5663
M16
G05
G00X7.465Y-3.2553
M15
G01X7.465Y-3.2316
M16
G05
T0
M30
