G04 #@! TF.GenerationSoftware,KiCad,Pcbnew,(5.1.6)-1*
G04 #@! TF.CreationDate,2020-07-28T00:02:14-05:00*
G04 #@! TF.ProjectId,VL53L0XSensor,564c3533-4c30-4585-9365-6e736f722e6b,rev?*
G04 #@! TF.SameCoordinates,Original*
G04 #@! TF.FileFunction,Copper,L1,Top*
G04 #@! TF.FilePolarity,Positive*
%FSLAX46Y46*%
G04 Gerber Fmt 4.6, Leading zero omitted, Abs format (unit mm)*
G04 Created by KiCad (PCBNEW (5.1.6)-1) date 2020-07-28 00:02:14*
%MOMM*%
%LPD*%
G01*
G04 APERTURE LIST*
G04 #@! TA.AperFunction,ComponentPad*
%ADD10O,1.700000X1.700000*%
G04 #@! TD*
G04 #@! TA.AperFunction,ComponentPad*
%ADD11R,1.700000X1.700000*%
G04 #@! TD*
G04 #@! TA.AperFunction,ComponentPad*
%ADD12C,1.600000*%
G04 #@! TD*
G04 #@! TA.AperFunction,ViaPad*
%ADD13C,0.800000*%
G04 #@! TD*
G04 #@! TA.AperFunction,Conductor*
%ADD14C,0.250000*%
G04 #@! TD*
G04 APERTURE END LIST*
G04 #@! TA.AperFunction,SMDPad,CuDef*
G36*
G01*
X122565000Y-67323000D02*
X123815000Y-67323000D01*
G75*
G02*
X124065000Y-67573000I0J-250000D01*
G01*
X124065000Y-68323000D01*
G75*
G02*
X123815000Y-68573000I-250000J0D01*
G01*
X122565000Y-68573000D01*
G75*
G02*
X122315000Y-68323000I0J250000D01*
G01*
X122315000Y-67573000D01*
G75*
G02*
X122565000Y-67323000I250000J0D01*
G01*
G37*
G04 #@! TD.AperFunction*
G04 #@! TA.AperFunction,SMDPad,CuDef*
G36*
G01*
X122565000Y-64523000D02*
X123815000Y-64523000D01*
G75*
G02*
X124065000Y-64773000I0J-250000D01*
G01*
X124065000Y-65523000D01*
G75*
G02*
X123815000Y-65773000I-250000J0D01*
G01*
X122565000Y-65773000D01*
G75*
G02*
X122315000Y-65523000I0J250000D01*
G01*
X122315000Y-64773000D01*
G75*
G02*
X122565000Y-64523000I250000J0D01*
G01*
G37*
G04 #@! TD.AperFunction*
G04 #@! TA.AperFunction,SMDPad,CuDef*
G36*
G01*
X127391000Y-64523000D02*
X128641000Y-64523000D01*
G75*
G02*
X128891000Y-64773000I0J-250000D01*
G01*
X128891000Y-65523000D01*
G75*
G02*
X128641000Y-65773000I-250000J0D01*
G01*
X127391000Y-65773000D01*
G75*
G02*
X127141000Y-65523000I0J250000D01*
G01*
X127141000Y-64773000D01*
G75*
G02*
X127391000Y-64523000I250000J0D01*
G01*
G37*
G04 #@! TD.AperFunction*
G04 #@! TA.AperFunction,SMDPad,CuDef*
G36*
G01*
X127391000Y-67323000D02*
X128641000Y-67323000D01*
G75*
G02*
X128891000Y-67573000I0J-250000D01*
G01*
X128891000Y-68323000D01*
G75*
G02*
X128641000Y-68573000I-250000J0D01*
G01*
X127391000Y-68573000D01*
G75*
G02*
X127141000Y-68323000I0J250000D01*
G01*
X127141000Y-67573000D01*
G75*
G02*
X127391000Y-67323000I250000J0D01*
G01*
G37*
G04 #@! TD.AperFunction*
D10*
X139700000Y-82550000D03*
X137160000Y-82550000D03*
D11*
X134620000Y-82550000D03*
X147320000Y-67310000D03*
D10*
X147320000Y-69850000D03*
X147320000Y-72390000D03*
X147320000Y-74930000D03*
D11*
X144780000Y-80010000D03*
D10*
X147320000Y-80010000D03*
D11*
X134620000Y-87630000D03*
D10*
X137160000Y-87630000D03*
X139700000Y-87630000D03*
X144780000Y-85090000D03*
D11*
X147320000Y-85090000D03*
D10*
X144780000Y-82550000D03*
D11*
X147320000Y-82550000D03*
G04 #@! TA.AperFunction,SMDPad,CuDef*
G36*
G01*
X122565000Y-69857000D02*
X123815000Y-69857000D01*
G75*
G02*
X124065000Y-70107000I0J-250000D01*
G01*
X124065000Y-70857000D01*
G75*
G02*
X123815000Y-71107000I-250000J0D01*
G01*
X122565000Y-71107000D01*
G75*
G02*
X122315000Y-70857000I0J250000D01*
G01*
X122315000Y-70107000D01*
G75*
G02*
X122565000Y-69857000I250000J0D01*
G01*
G37*
G04 #@! TD.AperFunction*
G04 #@! TA.AperFunction,SMDPad,CuDef*
G36*
G01*
X122565000Y-72657000D02*
X123815000Y-72657000D01*
G75*
G02*
X124065000Y-72907000I0J-250000D01*
G01*
X124065000Y-73657000D01*
G75*
G02*
X123815000Y-73907000I-250000J0D01*
G01*
X122565000Y-73907000D01*
G75*
G02*
X122315000Y-73657000I0J250000D01*
G01*
X122315000Y-72907000D01*
G75*
G02*
X122565000Y-72657000I250000J0D01*
G01*
G37*
G04 #@! TD.AperFunction*
G04 #@! TA.AperFunction,SMDPad,CuDef*
G36*
G01*
X128641000Y-71107000D02*
X127391000Y-71107000D01*
G75*
G02*
X127141000Y-70857000I0J250000D01*
G01*
X127141000Y-70107000D01*
G75*
G02*
X127391000Y-69857000I250000J0D01*
G01*
X128641000Y-69857000D01*
G75*
G02*
X128891000Y-70107000I0J-250000D01*
G01*
X128891000Y-70857000D01*
G75*
G02*
X128641000Y-71107000I-250000J0D01*
G01*
G37*
G04 #@! TD.AperFunction*
G04 #@! TA.AperFunction,SMDPad,CuDef*
G36*
G01*
X128641000Y-73907000D02*
X127391000Y-73907000D01*
G75*
G02*
X127141000Y-73657000I0J250000D01*
G01*
X127141000Y-72907000D01*
G75*
G02*
X127391000Y-72657000I250000J0D01*
G01*
X128641000Y-72657000D01*
G75*
G02*
X128891000Y-72907000I0J-250000D01*
G01*
X128891000Y-73657000D01*
G75*
G02*
X128641000Y-73907000I-250000J0D01*
G01*
G37*
G04 #@! TD.AperFunction*
D12*
X122936000Y-82122000D03*
X122936000Y-84622000D03*
X122936000Y-87122000D03*
X123190000Y-76962000D03*
X125730000Y-76962000D03*
X128270000Y-76962000D03*
G04 #@! TA.AperFunction,SMDPad,CuDef*
G36*
G01*
X132865000Y-75779000D02*
X132565000Y-75779000D01*
G75*
G02*
X132415000Y-75629000I0J150000D01*
G01*
X132415000Y-73879000D01*
G75*
G02*
X132565000Y-73729000I150000J0D01*
G01*
X132865000Y-73729000D01*
G75*
G02*
X133015000Y-73879000I0J-150000D01*
G01*
X133015000Y-75629000D01*
G75*
G02*
X132865000Y-75779000I-150000J0D01*
G01*
G37*
G04 #@! TD.AperFunction*
G04 #@! TA.AperFunction,SMDPad,CuDef*
G36*
G01*
X134135000Y-75779000D02*
X133835000Y-75779000D01*
G75*
G02*
X133685000Y-75629000I0J150000D01*
G01*
X133685000Y-73879000D01*
G75*
G02*
X133835000Y-73729000I150000J0D01*
G01*
X134135000Y-73729000D01*
G75*
G02*
X134285000Y-73879000I0J-150000D01*
G01*
X134285000Y-75629000D01*
G75*
G02*
X134135000Y-75779000I-150000J0D01*
G01*
G37*
G04 #@! TD.AperFunction*
G04 #@! TA.AperFunction,SMDPad,CuDef*
G36*
G01*
X135405000Y-75779000D02*
X135105000Y-75779000D01*
G75*
G02*
X134955000Y-75629000I0J150000D01*
G01*
X134955000Y-73879000D01*
G75*
G02*
X135105000Y-73729000I150000J0D01*
G01*
X135405000Y-73729000D01*
G75*
G02*
X135555000Y-73879000I0J-150000D01*
G01*
X135555000Y-75629000D01*
G75*
G02*
X135405000Y-75779000I-150000J0D01*
G01*
G37*
G04 #@! TD.AperFunction*
G04 #@! TA.AperFunction,SMDPad,CuDef*
G36*
G01*
X136675000Y-75779000D02*
X136375000Y-75779000D01*
G75*
G02*
X136225000Y-75629000I0J150000D01*
G01*
X136225000Y-73879000D01*
G75*
G02*
X136375000Y-73729000I150000J0D01*
G01*
X136675000Y-73729000D01*
G75*
G02*
X136825000Y-73879000I0J-150000D01*
G01*
X136825000Y-75629000D01*
G75*
G02*
X136675000Y-75779000I-150000J0D01*
G01*
G37*
G04 #@! TD.AperFunction*
G04 #@! TA.AperFunction,SMDPad,CuDef*
G36*
G01*
X137945000Y-75779000D02*
X137645000Y-75779000D01*
G75*
G02*
X137495000Y-75629000I0J150000D01*
G01*
X137495000Y-73879000D01*
G75*
G02*
X137645000Y-73729000I150000J0D01*
G01*
X137945000Y-73729000D01*
G75*
G02*
X138095000Y-73879000I0J-150000D01*
G01*
X138095000Y-75629000D01*
G75*
G02*
X137945000Y-75779000I-150000J0D01*
G01*
G37*
G04 #@! TD.AperFunction*
G04 #@! TA.AperFunction,SMDPad,CuDef*
G36*
G01*
X139215000Y-75779000D02*
X138915000Y-75779000D01*
G75*
G02*
X138765000Y-75629000I0J150000D01*
G01*
X138765000Y-73879000D01*
G75*
G02*
X138915000Y-73729000I150000J0D01*
G01*
X139215000Y-73729000D01*
G75*
G02*
X139365000Y-73879000I0J-150000D01*
G01*
X139365000Y-75629000D01*
G75*
G02*
X139215000Y-75779000I-150000J0D01*
G01*
G37*
G04 #@! TD.AperFunction*
G04 #@! TA.AperFunction,SMDPad,CuDef*
G36*
G01*
X140485000Y-75779000D02*
X140185000Y-75779000D01*
G75*
G02*
X140035000Y-75629000I0J150000D01*
G01*
X140035000Y-73879000D01*
G75*
G02*
X140185000Y-73729000I150000J0D01*
G01*
X140485000Y-73729000D01*
G75*
G02*
X140635000Y-73879000I0J-150000D01*
G01*
X140635000Y-75629000D01*
G75*
G02*
X140485000Y-75779000I-150000J0D01*
G01*
G37*
G04 #@! TD.AperFunction*
G04 #@! TA.AperFunction,SMDPad,CuDef*
G36*
G01*
X141755000Y-75779000D02*
X141455000Y-75779000D01*
G75*
G02*
X141305000Y-75629000I0J150000D01*
G01*
X141305000Y-73879000D01*
G75*
G02*
X141455000Y-73729000I150000J0D01*
G01*
X141755000Y-73729000D01*
G75*
G02*
X141905000Y-73879000I0J-150000D01*
G01*
X141905000Y-75629000D01*
G75*
G02*
X141755000Y-75779000I-150000J0D01*
G01*
G37*
G04 #@! TD.AperFunction*
G04 #@! TA.AperFunction,SMDPad,CuDef*
G36*
G01*
X143025000Y-75779000D02*
X142725000Y-75779000D01*
G75*
G02*
X142575000Y-75629000I0J150000D01*
G01*
X142575000Y-73879000D01*
G75*
G02*
X142725000Y-73729000I150000J0D01*
G01*
X143025000Y-73729000D01*
G75*
G02*
X143175000Y-73879000I0J-150000D01*
G01*
X143175000Y-75629000D01*
G75*
G02*
X143025000Y-75779000I-150000J0D01*
G01*
G37*
G04 #@! TD.AperFunction*
G04 #@! TA.AperFunction,SMDPad,CuDef*
G36*
G01*
X144295000Y-75779000D02*
X143995000Y-75779000D01*
G75*
G02*
X143845000Y-75629000I0J150000D01*
G01*
X143845000Y-73879000D01*
G75*
G02*
X143995000Y-73729000I150000J0D01*
G01*
X144295000Y-73729000D01*
G75*
G02*
X144445000Y-73879000I0J-150000D01*
G01*
X144445000Y-75629000D01*
G75*
G02*
X144295000Y-75779000I-150000J0D01*
G01*
G37*
G04 #@! TD.AperFunction*
G04 #@! TA.AperFunction,SMDPad,CuDef*
G36*
G01*
X144295000Y-66479000D02*
X143995000Y-66479000D01*
G75*
G02*
X143845000Y-66329000I0J150000D01*
G01*
X143845000Y-64579000D01*
G75*
G02*
X143995000Y-64429000I150000J0D01*
G01*
X144295000Y-64429000D01*
G75*
G02*
X144445000Y-64579000I0J-150000D01*
G01*
X144445000Y-66329000D01*
G75*
G02*
X144295000Y-66479000I-150000J0D01*
G01*
G37*
G04 #@! TD.AperFunction*
G04 #@! TA.AperFunction,SMDPad,CuDef*
G36*
G01*
X143025000Y-66479000D02*
X142725000Y-66479000D01*
G75*
G02*
X142575000Y-66329000I0J150000D01*
G01*
X142575000Y-64579000D01*
G75*
G02*
X142725000Y-64429000I150000J0D01*
G01*
X143025000Y-64429000D01*
G75*
G02*
X143175000Y-64579000I0J-150000D01*
G01*
X143175000Y-66329000D01*
G75*
G02*
X143025000Y-66479000I-150000J0D01*
G01*
G37*
G04 #@! TD.AperFunction*
G04 #@! TA.AperFunction,SMDPad,CuDef*
G36*
G01*
X141755000Y-66479000D02*
X141455000Y-66479000D01*
G75*
G02*
X141305000Y-66329000I0J150000D01*
G01*
X141305000Y-64579000D01*
G75*
G02*
X141455000Y-64429000I150000J0D01*
G01*
X141755000Y-64429000D01*
G75*
G02*
X141905000Y-64579000I0J-150000D01*
G01*
X141905000Y-66329000D01*
G75*
G02*
X141755000Y-66479000I-150000J0D01*
G01*
G37*
G04 #@! TD.AperFunction*
G04 #@! TA.AperFunction,SMDPad,CuDef*
G36*
G01*
X140485000Y-66479000D02*
X140185000Y-66479000D01*
G75*
G02*
X140035000Y-66329000I0J150000D01*
G01*
X140035000Y-64579000D01*
G75*
G02*
X140185000Y-64429000I150000J0D01*
G01*
X140485000Y-64429000D01*
G75*
G02*
X140635000Y-64579000I0J-150000D01*
G01*
X140635000Y-66329000D01*
G75*
G02*
X140485000Y-66479000I-150000J0D01*
G01*
G37*
G04 #@! TD.AperFunction*
G04 #@! TA.AperFunction,SMDPad,CuDef*
G36*
G01*
X139215000Y-66479000D02*
X138915000Y-66479000D01*
G75*
G02*
X138765000Y-66329000I0J150000D01*
G01*
X138765000Y-64579000D01*
G75*
G02*
X138915000Y-64429000I150000J0D01*
G01*
X139215000Y-64429000D01*
G75*
G02*
X139365000Y-64579000I0J-150000D01*
G01*
X139365000Y-66329000D01*
G75*
G02*
X139215000Y-66479000I-150000J0D01*
G01*
G37*
G04 #@! TD.AperFunction*
G04 #@! TA.AperFunction,SMDPad,CuDef*
G36*
G01*
X137945000Y-66479000D02*
X137645000Y-66479000D01*
G75*
G02*
X137495000Y-66329000I0J150000D01*
G01*
X137495000Y-64579000D01*
G75*
G02*
X137645000Y-64429000I150000J0D01*
G01*
X137945000Y-64429000D01*
G75*
G02*
X138095000Y-64579000I0J-150000D01*
G01*
X138095000Y-66329000D01*
G75*
G02*
X137945000Y-66479000I-150000J0D01*
G01*
G37*
G04 #@! TD.AperFunction*
G04 #@! TA.AperFunction,SMDPad,CuDef*
G36*
G01*
X136675000Y-66479000D02*
X136375000Y-66479000D01*
G75*
G02*
X136225000Y-66329000I0J150000D01*
G01*
X136225000Y-64579000D01*
G75*
G02*
X136375000Y-64429000I150000J0D01*
G01*
X136675000Y-64429000D01*
G75*
G02*
X136825000Y-64579000I0J-150000D01*
G01*
X136825000Y-66329000D01*
G75*
G02*
X136675000Y-66479000I-150000J0D01*
G01*
G37*
G04 #@! TD.AperFunction*
G04 #@! TA.AperFunction,SMDPad,CuDef*
G36*
G01*
X135405000Y-66479000D02*
X135105000Y-66479000D01*
G75*
G02*
X134955000Y-66329000I0J150000D01*
G01*
X134955000Y-64579000D01*
G75*
G02*
X135105000Y-64429000I150000J0D01*
G01*
X135405000Y-64429000D01*
G75*
G02*
X135555000Y-64579000I0J-150000D01*
G01*
X135555000Y-66329000D01*
G75*
G02*
X135405000Y-66479000I-150000J0D01*
G01*
G37*
G04 #@! TD.AperFunction*
G04 #@! TA.AperFunction,SMDPad,CuDef*
G36*
G01*
X134135000Y-66479000D02*
X133835000Y-66479000D01*
G75*
G02*
X133685000Y-66329000I0J150000D01*
G01*
X133685000Y-64579000D01*
G75*
G02*
X133835000Y-64429000I150000J0D01*
G01*
X134135000Y-64429000D01*
G75*
G02*
X134285000Y-64579000I0J-150000D01*
G01*
X134285000Y-66329000D01*
G75*
G02*
X134135000Y-66479000I-150000J0D01*
G01*
G37*
G04 #@! TD.AperFunction*
G04 #@! TA.AperFunction,SMDPad,CuDef*
G36*
G01*
X132865000Y-66479000D02*
X132565000Y-66479000D01*
G75*
G02*
X132415000Y-66329000I0J150000D01*
G01*
X132415000Y-64579000D01*
G75*
G02*
X132565000Y-64429000I150000J0D01*
G01*
X132865000Y-64429000D01*
G75*
G02*
X133015000Y-64579000I0J-150000D01*
G01*
X133015000Y-66329000D01*
G75*
G02*
X132865000Y-66479000I-150000J0D01*
G01*
G37*
G04 #@! TD.AperFunction*
D13*
X135850000Y-77724000D03*
X138493500Y-67881500D03*
X136525000Y-67183000D03*
X139954000Y-72644000D03*
D14*
X123190000Y-67948000D02*
X123190000Y-70482000D01*
X123190000Y-65148000D02*
X128016000Y-65148000D01*
X132409000Y-65148000D02*
X132715000Y-65454000D01*
X128016000Y-65148000D02*
X132409000Y-65148000D01*
X137160000Y-83752081D02*
X137160000Y-87630000D01*
X137160000Y-82550000D02*
X137160000Y-83752081D01*
X122136001Y-82921999D02*
X122936000Y-82122000D01*
X121810999Y-83247001D02*
X122136001Y-82921999D01*
X121810999Y-87662001D02*
X121810999Y-83247001D01*
X122953999Y-88805001D02*
X121810999Y-87662001D01*
X135984999Y-88805001D02*
X122953999Y-88805001D01*
X137160000Y-87630000D02*
X135984999Y-88805001D01*
X122936000Y-77216000D02*
X123190000Y-76962000D01*
X122936000Y-82122000D02*
X122936000Y-77216000D01*
X124315001Y-75836999D02*
X123989999Y-76162001D01*
X127274191Y-75836999D02*
X124315001Y-75836999D01*
X129216010Y-73895180D02*
X127274191Y-75836999D01*
X129216010Y-72668820D02*
X129216010Y-73895180D01*
X123989999Y-76162001D02*
X123190000Y-76962000D01*
X126746000Y-71881980D02*
X128429170Y-71881980D01*
X126746000Y-69329000D02*
X126746000Y-71881980D01*
X128429170Y-71881980D02*
X129216010Y-72668820D01*
X123190000Y-65773000D02*
X126746000Y-69329000D01*
X123190000Y-65148000D02*
X123190000Y-65773000D01*
X132715000Y-66479000D02*
X136086000Y-69850000D01*
X136086000Y-69850000D02*
X147320000Y-69850000D01*
X132715000Y-65454000D02*
X132715000Y-66479000D01*
X128016000Y-67948000D02*
X128016000Y-70482000D01*
X123190000Y-87376000D02*
X122936000Y-87122000D01*
X134620000Y-87630000D02*
X134620000Y-82550000D01*
X123444000Y-87630000D02*
X122936000Y-87122000D01*
X134620000Y-87630000D02*
X123444000Y-87630000D01*
X123735999Y-86322001D02*
X122936000Y-87122000D01*
X127470001Y-82587999D02*
X123735999Y-86322001D01*
X127470001Y-77761999D02*
X127470001Y-82587999D01*
X128270000Y-76962000D02*
X127470001Y-77761999D01*
X134695001Y-81374999D02*
X134620000Y-81450000D01*
X137724001Y-81374999D02*
X134695001Y-81374999D01*
X138335001Y-81985999D02*
X137724001Y-81374999D01*
X134620000Y-81450000D02*
X134620000Y-82550000D01*
X138335001Y-83114001D02*
X138335001Y-81985999D01*
X140311000Y-85090000D02*
X138335001Y-83114001D01*
X144780000Y-85090000D02*
X140311000Y-85090000D01*
X130507000Y-76962000D02*
X132715000Y-74754000D01*
X128270000Y-76962000D02*
X130507000Y-76962000D01*
X148495001Y-68485001D02*
X147320000Y-67310000D01*
X147884001Y-71025001D02*
X148495001Y-70414001D01*
X132715000Y-73729000D02*
X135418999Y-71025001D01*
X148495001Y-70414001D02*
X148495001Y-68485001D01*
X135418999Y-71025001D02*
X147884001Y-71025001D01*
X132715000Y-74754000D02*
X132715000Y-73729000D01*
X144445000Y-65754000D02*
X144445000Y-65867000D01*
X144145000Y-65454000D02*
X144445000Y-65754000D01*
X147320000Y-72390000D02*
X150114000Y-69596000D01*
X149747500Y-65454000D02*
X144145000Y-65454000D01*
X150114000Y-65820500D02*
X149747500Y-65454000D01*
X150114000Y-69596000D02*
X150114000Y-65820500D01*
X144321000Y-74930000D02*
X144145000Y-74754000D01*
X147320000Y-74930000D02*
X144321000Y-74930000D01*
X143680000Y-80010000D02*
X144780000Y-80010000D01*
X141605000Y-77935000D02*
X143680000Y-80010000D01*
X141605000Y-74754000D02*
X141605000Y-77935000D01*
X142875000Y-75565000D02*
X142875000Y-74754000D01*
X147320000Y-80010000D02*
X142875000Y-75565000D01*
X137795000Y-75779000D02*
X135850000Y-77724000D01*
X137795000Y-74754000D02*
X137795000Y-75779000D01*
X135850000Y-77724000D02*
X135850000Y-77724000D01*
X147320000Y-82550000D02*
X147320000Y-85090000D01*
X137795000Y-65454000D02*
X137795000Y-65880768D01*
X137795000Y-65454000D02*
X137795000Y-67183000D01*
X137795000Y-67183000D02*
X138493500Y-67881500D01*
X138493500Y-67881500D02*
X138493500Y-67881500D01*
X142875000Y-64429000D02*
X142875000Y-65454000D01*
X142099980Y-63653980D02*
X142875000Y-64429000D01*
X123190000Y-73282000D02*
X122315000Y-73282000D01*
X122315000Y-73282000D02*
X121539980Y-72506980D01*
X121539980Y-64348420D02*
X122234419Y-63653981D01*
X121539980Y-72506980D02*
X121539980Y-64348420D01*
X122234419Y-63653981D02*
X142099980Y-63653980D01*
X141605000Y-64429000D02*
X141605000Y-65454000D01*
X141279990Y-64103990D02*
X141605000Y-64429000D01*
X121989990Y-64534820D02*
X122420820Y-64103990D01*
X128016000Y-72657000D02*
X127690990Y-72331990D01*
X127690990Y-72331990D02*
X123226800Y-72331990D01*
X123226800Y-72331990D02*
X121989990Y-71095180D01*
X122420820Y-64103990D02*
X141279990Y-64103990D01*
X128016000Y-73282000D02*
X128016000Y-72657000D01*
X121989990Y-71095180D02*
X121989990Y-64534820D01*
X136525000Y-65454000D02*
X136525000Y-67183000D01*
X136525000Y-67183000D02*
X136525000Y-67183000D01*
X140335000Y-74754000D02*
X140335000Y-73025000D01*
X140335000Y-73025000D02*
X139954000Y-72644000D01*
X139954000Y-72644000D02*
X139954000Y-72644000D01*
X139700000Y-82550000D02*
X144780000Y-82550000D01*
M02*
