G04 #@! TF.GenerationSoftware,KiCad,Pcbnew,(5.1.5)-3*
G04 #@! TF.CreationDate,2022-03-29T23:14:45-05:00*
G04 #@! TF.ProjectId,ThrottleReverseBrake,5468726f-7474-46c6-9552-657665727365,rev?*
G04 #@! TF.SameCoordinates,Original*
G04 #@! TF.FileFunction,Copper,L2,Bot*
G04 #@! TF.FilePolarity,Positive*
%FSLAX46Y46*%
G04 Gerber Fmt 4.6, Leading zero omitted, Abs format (unit mm)*
G04 Created by KiCad (PCBNEW (5.1.5)-3) date 2022-03-29 23:14:45*
%MOMM*%
%LPD*%
G04 APERTURE LIST*
%ADD10O,1.700000X1.700000*%
%ADD11R,1.700000X1.700000*%
%ADD12C,1.700000*%
%ADD13R,2.200000X2.200000*%
%ADD14O,2.200000X2.200000*%
%ADD15C,0.100000*%
%ADD16O,1.700000X2.000000*%
%ADD17R,2.286000X2.286000*%
%ADD18C,2.286000*%
%ADD19R,1.905000X2.000000*%
%ADD20O,1.905000X2.000000*%
%ADD21C,0.254000*%
G04 APERTURE END LIST*
D10*
X143857980Y-89166700D03*
X143857980Y-86626700D03*
X143857980Y-91706700D03*
X143857980Y-94246700D03*
X143857980Y-84086700D03*
X126077980Y-96786700D03*
X126077980Y-94246700D03*
X126077980Y-91706700D03*
X126077980Y-89166700D03*
X126077980Y-86626700D03*
X126077980Y-84086700D03*
D11*
X126077980Y-81546700D03*
D10*
X171450000Y-88900000D03*
X171450000Y-83820000D03*
X171450000Y-78740000D03*
X171450000Y-81280000D03*
D12*
X171450000Y-76200000D03*
D10*
X171450000Y-86360000D03*
X158750000Y-88900000D03*
X158750000Y-86360000D03*
X158750000Y-83820000D03*
X158750000Y-81280000D03*
X158750000Y-78740000D03*
D11*
X158750000Y-76200000D03*
D13*
X149860000Y-63500000D03*
D14*
X160020000Y-63500000D03*
D11*
X104140000Y-66040000D03*
D10*
X106680000Y-66040000D03*
X109220000Y-66040000D03*
G04 #@! TA.AperFunction,ComponentPad*
D15*
G36*
X99684504Y-77741204D02*
G01*
X99708773Y-77744804D01*
X99732571Y-77750765D01*
X99755671Y-77759030D01*
X99777849Y-77769520D01*
X99798893Y-77782133D01*
X99818598Y-77796747D01*
X99836777Y-77813223D01*
X99853253Y-77831402D01*
X99867867Y-77851107D01*
X99880480Y-77872151D01*
X99890970Y-77894329D01*
X99899235Y-77917429D01*
X99905196Y-77941227D01*
X99908796Y-77965496D01*
X99910000Y-77990000D01*
X99910000Y-79490000D01*
X99908796Y-79514504D01*
X99905196Y-79538773D01*
X99899235Y-79562571D01*
X99890970Y-79585671D01*
X99880480Y-79607849D01*
X99867867Y-79628893D01*
X99853253Y-79648598D01*
X99836777Y-79666777D01*
X99818598Y-79683253D01*
X99798893Y-79697867D01*
X99777849Y-79710480D01*
X99755671Y-79720970D01*
X99732571Y-79729235D01*
X99708773Y-79735196D01*
X99684504Y-79738796D01*
X99660000Y-79740000D01*
X98460000Y-79740000D01*
X98435496Y-79738796D01*
X98411227Y-79735196D01*
X98387429Y-79729235D01*
X98364329Y-79720970D01*
X98342151Y-79710480D01*
X98321107Y-79697867D01*
X98301402Y-79683253D01*
X98283223Y-79666777D01*
X98266747Y-79648598D01*
X98252133Y-79628893D01*
X98239520Y-79607849D01*
X98229030Y-79585671D01*
X98220765Y-79562571D01*
X98214804Y-79538773D01*
X98211204Y-79514504D01*
X98210000Y-79490000D01*
X98210000Y-77990000D01*
X98211204Y-77965496D01*
X98214804Y-77941227D01*
X98220765Y-77917429D01*
X98229030Y-77894329D01*
X98239520Y-77872151D01*
X98252133Y-77851107D01*
X98266747Y-77831402D01*
X98283223Y-77813223D01*
X98301402Y-77796747D01*
X98321107Y-77782133D01*
X98342151Y-77769520D01*
X98364329Y-77759030D01*
X98387429Y-77750765D01*
X98411227Y-77744804D01*
X98435496Y-77741204D01*
X98460000Y-77740000D01*
X99660000Y-77740000D01*
X99684504Y-77741204D01*
G37*
G04 #@! TD.AperFunction*
D16*
X96520000Y-78740000D03*
X114300000Y-78740000D03*
G04 #@! TA.AperFunction,ComponentPad*
D15*
G36*
X117464504Y-77741204D02*
G01*
X117488773Y-77744804D01*
X117512571Y-77750765D01*
X117535671Y-77759030D01*
X117557849Y-77769520D01*
X117578893Y-77782133D01*
X117598598Y-77796747D01*
X117616777Y-77813223D01*
X117633253Y-77831402D01*
X117647867Y-77851107D01*
X117660480Y-77872151D01*
X117670970Y-77894329D01*
X117679235Y-77917429D01*
X117685196Y-77941227D01*
X117688796Y-77965496D01*
X117690000Y-77990000D01*
X117690000Y-79490000D01*
X117688796Y-79514504D01*
X117685196Y-79538773D01*
X117679235Y-79562571D01*
X117670970Y-79585671D01*
X117660480Y-79607849D01*
X117647867Y-79628893D01*
X117633253Y-79648598D01*
X117616777Y-79666777D01*
X117598598Y-79683253D01*
X117578893Y-79697867D01*
X117557849Y-79710480D01*
X117535671Y-79720970D01*
X117512571Y-79729235D01*
X117488773Y-79735196D01*
X117464504Y-79738796D01*
X117440000Y-79740000D01*
X116240000Y-79740000D01*
X116215496Y-79738796D01*
X116191227Y-79735196D01*
X116167429Y-79729235D01*
X116144329Y-79720970D01*
X116122151Y-79710480D01*
X116101107Y-79697867D01*
X116081402Y-79683253D01*
X116063223Y-79666777D01*
X116046747Y-79648598D01*
X116032133Y-79628893D01*
X116019520Y-79607849D01*
X116009030Y-79585671D01*
X116000765Y-79562571D01*
X115994804Y-79538773D01*
X115991204Y-79514504D01*
X115990000Y-79490000D01*
X115990000Y-77990000D01*
X115991204Y-77965496D01*
X115994804Y-77941227D01*
X116000765Y-77917429D01*
X116009030Y-77894329D01*
X116019520Y-77872151D01*
X116032133Y-77851107D01*
X116046747Y-77831402D01*
X116063223Y-77813223D01*
X116081402Y-77796747D01*
X116101107Y-77782133D01*
X116122151Y-77769520D01*
X116144329Y-77759030D01*
X116167429Y-77750765D01*
X116191227Y-77744804D01*
X116215496Y-77741204D01*
X116240000Y-77740000D01*
X117440000Y-77740000D01*
X117464504Y-77741204D01*
G37*
G04 #@! TD.AperFunction*
G04 #@! TA.AperFunction,ComponentPad*
G36*
X99684504Y-90441204D02*
G01*
X99708773Y-90444804D01*
X99732571Y-90450765D01*
X99755671Y-90459030D01*
X99777849Y-90469520D01*
X99798893Y-90482133D01*
X99818598Y-90496747D01*
X99836777Y-90513223D01*
X99853253Y-90531402D01*
X99867867Y-90551107D01*
X99880480Y-90572151D01*
X99890970Y-90594329D01*
X99899235Y-90617429D01*
X99905196Y-90641227D01*
X99908796Y-90665496D01*
X99910000Y-90690000D01*
X99910000Y-92190000D01*
X99908796Y-92214504D01*
X99905196Y-92238773D01*
X99899235Y-92262571D01*
X99890970Y-92285671D01*
X99880480Y-92307849D01*
X99867867Y-92328893D01*
X99853253Y-92348598D01*
X99836777Y-92366777D01*
X99818598Y-92383253D01*
X99798893Y-92397867D01*
X99777849Y-92410480D01*
X99755671Y-92420970D01*
X99732571Y-92429235D01*
X99708773Y-92435196D01*
X99684504Y-92438796D01*
X99660000Y-92440000D01*
X98460000Y-92440000D01*
X98435496Y-92438796D01*
X98411227Y-92435196D01*
X98387429Y-92429235D01*
X98364329Y-92420970D01*
X98342151Y-92410480D01*
X98321107Y-92397867D01*
X98301402Y-92383253D01*
X98283223Y-92366777D01*
X98266747Y-92348598D01*
X98252133Y-92328893D01*
X98239520Y-92307849D01*
X98229030Y-92285671D01*
X98220765Y-92262571D01*
X98214804Y-92238773D01*
X98211204Y-92214504D01*
X98210000Y-92190000D01*
X98210000Y-90690000D01*
X98211204Y-90665496D01*
X98214804Y-90641227D01*
X98220765Y-90617429D01*
X98229030Y-90594329D01*
X98239520Y-90572151D01*
X98252133Y-90551107D01*
X98266747Y-90531402D01*
X98283223Y-90513223D01*
X98301402Y-90496747D01*
X98321107Y-90482133D01*
X98342151Y-90469520D01*
X98364329Y-90459030D01*
X98387429Y-90450765D01*
X98411227Y-90444804D01*
X98435496Y-90441204D01*
X98460000Y-90440000D01*
X99660000Y-90440000D01*
X99684504Y-90441204D01*
G37*
G04 #@! TD.AperFunction*
D16*
X96520000Y-91440000D03*
X114300000Y-91440000D03*
G04 #@! TA.AperFunction,ComponentPad*
D15*
G36*
X117464504Y-90441204D02*
G01*
X117488773Y-90444804D01*
X117512571Y-90450765D01*
X117535671Y-90459030D01*
X117557849Y-90469520D01*
X117578893Y-90482133D01*
X117598598Y-90496747D01*
X117616777Y-90513223D01*
X117633253Y-90531402D01*
X117647867Y-90551107D01*
X117660480Y-90572151D01*
X117670970Y-90594329D01*
X117679235Y-90617429D01*
X117685196Y-90641227D01*
X117688796Y-90665496D01*
X117690000Y-90690000D01*
X117690000Y-92190000D01*
X117688796Y-92214504D01*
X117685196Y-92238773D01*
X117679235Y-92262571D01*
X117670970Y-92285671D01*
X117660480Y-92307849D01*
X117647867Y-92328893D01*
X117633253Y-92348598D01*
X117616777Y-92366777D01*
X117598598Y-92383253D01*
X117578893Y-92397867D01*
X117557849Y-92410480D01*
X117535671Y-92420970D01*
X117512571Y-92429235D01*
X117488773Y-92435196D01*
X117464504Y-92438796D01*
X117440000Y-92440000D01*
X116240000Y-92440000D01*
X116215496Y-92438796D01*
X116191227Y-92435196D01*
X116167429Y-92429235D01*
X116144329Y-92420970D01*
X116122151Y-92410480D01*
X116101107Y-92397867D01*
X116081402Y-92383253D01*
X116063223Y-92366777D01*
X116046747Y-92348598D01*
X116032133Y-92328893D01*
X116019520Y-92307849D01*
X116009030Y-92285671D01*
X116000765Y-92262571D01*
X115994804Y-92238773D01*
X115991204Y-92214504D01*
X115990000Y-92190000D01*
X115990000Y-90690000D01*
X115991204Y-90665496D01*
X115994804Y-90641227D01*
X116000765Y-90617429D01*
X116009030Y-90594329D01*
X116019520Y-90572151D01*
X116032133Y-90551107D01*
X116046747Y-90531402D01*
X116063223Y-90513223D01*
X116081402Y-90496747D01*
X116101107Y-90482133D01*
X116122151Y-90469520D01*
X116144329Y-90459030D01*
X116167429Y-90450765D01*
X116191227Y-90444804D01*
X116215496Y-90441204D01*
X116240000Y-90440000D01*
X117440000Y-90440000D01*
X117464504Y-90441204D01*
G37*
G04 #@! TD.AperFunction*
D16*
X170180000Y-104140000D03*
G04 #@! TA.AperFunction,ComponentPad*
D15*
G36*
X173344504Y-103141204D02*
G01*
X173368773Y-103144804D01*
X173392571Y-103150765D01*
X173415671Y-103159030D01*
X173437849Y-103169520D01*
X173458893Y-103182133D01*
X173478598Y-103196747D01*
X173496777Y-103213223D01*
X173513253Y-103231402D01*
X173527867Y-103251107D01*
X173540480Y-103272151D01*
X173550970Y-103294329D01*
X173559235Y-103317429D01*
X173565196Y-103341227D01*
X173568796Y-103365496D01*
X173570000Y-103390000D01*
X173570000Y-104890000D01*
X173568796Y-104914504D01*
X173565196Y-104938773D01*
X173559235Y-104962571D01*
X173550970Y-104985671D01*
X173540480Y-105007849D01*
X173527867Y-105028893D01*
X173513253Y-105048598D01*
X173496777Y-105066777D01*
X173478598Y-105083253D01*
X173458893Y-105097867D01*
X173437849Y-105110480D01*
X173415671Y-105120970D01*
X173392571Y-105129235D01*
X173368773Y-105135196D01*
X173344504Y-105138796D01*
X173320000Y-105140000D01*
X172120000Y-105140000D01*
X172095496Y-105138796D01*
X172071227Y-105135196D01*
X172047429Y-105129235D01*
X172024329Y-105120970D01*
X172002151Y-105110480D01*
X171981107Y-105097867D01*
X171961402Y-105083253D01*
X171943223Y-105066777D01*
X171926747Y-105048598D01*
X171912133Y-105028893D01*
X171899520Y-105007849D01*
X171889030Y-104985671D01*
X171880765Y-104962571D01*
X171874804Y-104938773D01*
X171871204Y-104914504D01*
X171870000Y-104890000D01*
X171870000Y-103390000D01*
X171871204Y-103365496D01*
X171874804Y-103341227D01*
X171880765Y-103317429D01*
X171889030Y-103294329D01*
X171899520Y-103272151D01*
X171912133Y-103251107D01*
X171926747Y-103231402D01*
X171943223Y-103213223D01*
X171961402Y-103196747D01*
X171981107Y-103182133D01*
X172002151Y-103169520D01*
X172024329Y-103159030D01*
X172047429Y-103150765D01*
X172071227Y-103144804D01*
X172095496Y-103141204D01*
X172120000Y-103140000D01*
X173320000Y-103140000D01*
X173344504Y-103141204D01*
G37*
G04 #@! TD.AperFunction*
D16*
X170180000Y-116840000D03*
G04 #@! TA.AperFunction,ComponentPad*
D15*
G36*
X173344504Y-115841204D02*
G01*
X173368773Y-115844804D01*
X173392571Y-115850765D01*
X173415671Y-115859030D01*
X173437849Y-115869520D01*
X173458893Y-115882133D01*
X173478598Y-115896747D01*
X173496777Y-115913223D01*
X173513253Y-115931402D01*
X173527867Y-115951107D01*
X173540480Y-115972151D01*
X173550970Y-115994329D01*
X173559235Y-116017429D01*
X173565196Y-116041227D01*
X173568796Y-116065496D01*
X173570000Y-116090000D01*
X173570000Y-117590000D01*
X173568796Y-117614504D01*
X173565196Y-117638773D01*
X173559235Y-117662571D01*
X173550970Y-117685671D01*
X173540480Y-117707849D01*
X173527867Y-117728893D01*
X173513253Y-117748598D01*
X173496777Y-117766777D01*
X173478598Y-117783253D01*
X173458893Y-117797867D01*
X173437849Y-117810480D01*
X173415671Y-117820970D01*
X173392571Y-117829235D01*
X173368773Y-117835196D01*
X173344504Y-117838796D01*
X173320000Y-117840000D01*
X172120000Y-117840000D01*
X172095496Y-117838796D01*
X172071227Y-117835196D01*
X172047429Y-117829235D01*
X172024329Y-117820970D01*
X172002151Y-117810480D01*
X171981107Y-117797867D01*
X171961402Y-117783253D01*
X171943223Y-117766777D01*
X171926747Y-117748598D01*
X171912133Y-117728893D01*
X171899520Y-117707849D01*
X171889030Y-117685671D01*
X171880765Y-117662571D01*
X171874804Y-117638773D01*
X171871204Y-117614504D01*
X171870000Y-117590000D01*
X171870000Y-116090000D01*
X171871204Y-116065496D01*
X171874804Y-116041227D01*
X171880765Y-116017429D01*
X171889030Y-115994329D01*
X171899520Y-115972151D01*
X171912133Y-115951107D01*
X171926747Y-115931402D01*
X171943223Y-115913223D01*
X171961402Y-115896747D01*
X171981107Y-115882133D01*
X172002151Y-115869520D01*
X172024329Y-115859030D01*
X172047429Y-115850765D01*
X172071227Y-115844804D01*
X172095496Y-115841204D01*
X172120000Y-115840000D01*
X173320000Y-115840000D01*
X173344504Y-115841204D01*
G37*
G04 #@! TD.AperFunction*
G04 #@! TA.AperFunction,ComponentPad*
G36*
X155564504Y-103141204D02*
G01*
X155588773Y-103144804D01*
X155612571Y-103150765D01*
X155635671Y-103159030D01*
X155657849Y-103169520D01*
X155678893Y-103182133D01*
X155698598Y-103196747D01*
X155716777Y-103213223D01*
X155733253Y-103231402D01*
X155747867Y-103251107D01*
X155760480Y-103272151D01*
X155770970Y-103294329D01*
X155779235Y-103317429D01*
X155785196Y-103341227D01*
X155788796Y-103365496D01*
X155790000Y-103390000D01*
X155790000Y-104890000D01*
X155788796Y-104914504D01*
X155785196Y-104938773D01*
X155779235Y-104962571D01*
X155770970Y-104985671D01*
X155760480Y-105007849D01*
X155747867Y-105028893D01*
X155733253Y-105048598D01*
X155716777Y-105066777D01*
X155698598Y-105083253D01*
X155678893Y-105097867D01*
X155657849Y-105110480D01*
X155635671Y-105120970D01*
X155612571Y-105129235D01*
X155588773Y-105135196D01*
X155564504Y-105138796D01*
X155540000Y-105140000D01*
X154340000Y-105140000D01*
X154315496Y-105138796D01*
X154291227Y-105135196D01*
X154267429Y-105129235D01*
X154244329Y-105120970D01*
X154222151Y-105110480D01*
X154201107Y-105097867D01*
X154181402Y-105083253D01*
X154163223Y-105066777D01*
X154146747Y-105048598D01*
X154132133Y-105028893D01*
X154119520Y-105007849D01*
X154109030Y-104985671D01*
X154100765Y-104962571D01*
X154094804Y-104938773D01*
X154091204Y-104914504D01*
X154090000Y-104890000D01*
X154090000Y-103390000D01*
X154091204Y-103365496D01*
X154094804Y-103341227D01*
X154100765Y-103317429D01*
X154109030Y-103294329D01*
X154119520Y-103272151D01*
X154132133Y-103251107D01*
X154146747Y-103231402D01*
X154163223Y-103213223D01*
X154181402Y-103196747D01*
X154201107Y-103182133D01*
X154222151Y-103169520D01*
X154244329Y-103159030D01*
X154267429Y-103150765D01*
X154291227Y-103144804D01*
X154315496Y-103141204D01*
X154340000Y-103140000D01*
X155540000Y-103140000D01*
X155564504Y-103141204D01*
G37*
G04 #@! TD.AperFunction*
D16*
X152400000Y-104140000D03*
G04 #@! TA.AperFunction,ComponentPad*
D15*
G36*
X155564504Y-115841204D02*
G01*
X155588773Y-115844804D01*
X155612571Y-115850765D01*
X155635671Y-115859030D01*
X155657849Y-115869520D01*
X155678893Y-115882133D01*
X155698598Y-115896747D01*
X155716777Y-115913223D01*
X155733253Y-115931402D01*
X155747867Y-115951107D01*
X155760480Y-115972151D01*
X155770970Y-115994329D01*
X155779235Y-116017429D01*
X155785196Y-116041227D01*
X155788796Y-116065496D01*
X155790000Y-116090000D01*
X155790000Y-117590000D01*
X155788796Y-117614504D01*
X155785196Y-117638773D01*
X155779235Y-117662571D01*
X155770970Y-117685671D01*
X155760480Y-117707849D01*
X155747867Y-117728893D01*
X155733253Y-117748598D01*
X155716777Y-117766777D01*
X155698598Y-117783253D01*
X155678893Y-117797867D01*
X155657849Y-117810480D01*
X155635671Y-117820970D01*
X155612571Y-117829235D01*
X155588773Y-117835196D01*
X155564504Y-117838796D01*
X155540000Y-117840000D01*
X154340000Y-117840000D01*
X154315496Y-117838796D01*
X154291227Y-117835196D01*
X154267429Y-117829235D01*
X154244329Y-117820970D01*
X154222151Y-117810480D01*
X154201107Y-117797867D01*
X154181402Y-117783253D01*
X154163223Y-117766777D01*
X154146747Y-117748598D01*
X154132133Y-117728893D01*
X154119520Y-117707849D01*
X154109030Y-117685671D01*
X154100765Y-117662571D01*
X154094804Y-117638773D01*
X154091204Y-117614504D01*
X154090000Y-117590000D01*
X154090000Y-116090000D01*
X154091204Y-116065496D01*
X154094804Y-116041227D01*
X154100765Y-116017429D01*
X154109030Y-115994329D01*
X154119520Y-115972151D01*
X154132133Y-115951107D01*
X154146747Y-115931402D01*
X154163223Y-115913223D01*
X154181402Y-115896747D01*
X154201107Y-115882133D01*
X154222151Y-115869520D01*
X154244329Y-115859030D01*
X154267429Y-115850765D01*
X154291227Y-115844804D01*
X154315496Y-115841204D01*
X154340000Y-115840000D01*
X155540000Y-115840000D01*
X155564504Y-115841204D01*
G37*
G04 #@! TD.AperFunction*
D16*
X152400000Y-116840000D03*
D17*
X153670000Y-53340000D03*
D18*
X158750000Y-53340000D03*
D10*
X125730000Y-54610000D03*
X123190000Y-54610000D03*
D11*
X120650000Y-54610000D03*
D18*
X143510000Y-53340000D03*
D17*
X138430000Y-53340000D03*
G04 #@! TA.AperFunction,ComponentPad*
D15*
G36*
X132704504Y-114571204D02*
G01*
X132728773Y-114574804D01*
X132752571Y-114580765D01*
X132775671Y-114589030D01*
X132797849Y-114599520D01*
X132818893Y-114612133D01*
X132838598Y-114626747D01*
X132856777Y-114643223D01*
X132873253Y-114661402D01*
X132887867Y-114681107D01*
X132900480Y-114702151D01*
X132910970Y-114724329D01*
X132919235Y-114747429D01*
X132925196Y-114771227D01*
X132928796Y-114795496D01*
X132930000Y-114820000D01*
X132930000Y-116320000D01*
X132928796Y-116344504D01*
X132925196Y-116368773D01*
X132919235Y-116392571D01*
X132910970Y-116415671D01*
X132900480Y-116437849D01*
X132887867Y-116458893D01*
X132873253Y-116478598D01*
X132856777Y-116496777D01*
X132838598Y-116513253D01*
X132818893Y-116527867D01*
X132797849Y-116540480D01*
X132775671Y-116550970D01*
X132752571Y-116559235D01*
X132728773Y-116565196D01*
X132704504Y-116568796D01*
X132680000Y-116570000D01*
X131480000Y-116570000D01*
X131455496Y-116568796D01*
X131431227Y-116565196D01*
X131407429Y-116559235D01*
X131384329Y-116550970D01*
X131362151Y-116540480D01*
X131341107Y-116527867D01*
X131321402Y-116513253D01*
X131303223Y-116496777D01*
X131286747Y-116478598D01*
X131272133Y-116458893D01*
X131259520Y-116437849D01*
X131249030Y-116415671D01*
X131240765Y-116392571D01*
X131234804Y-116368773D01*
X131231204Y-116344504D01*
X131230000Y-116320000D01*
X131230000Y-114820000D01*
X131231204Y-114795496D01*
X131234804Y-114771227D01*
X131240765Y-114747429D01*
X131249030Y-114724329D01*
X131259520Y-114702151D01*
X131272133Y-114681107D01*
X131286747Y-114661402D01*
X131303223Y-114643223D01*
X131321402Y-114626747D01*
X131341107Y-114612133D01*
X131362151Y-114599520D01*
X131384329Y-114589030D01*
X131407429Y-114580765D01*
X131431227Y-114574804D01*
X131455496Y-114571204D01*
X131480000Y-114570000D01*
X132680000Y-114570000D01*
X132704504Y-114571204D01*
G37*
G04 #@! TD.AperFunction*
D16*
X129540000Y-115570000D03*
X111760000Y-115570000D03*
G04 #@! TA.AperFunction,ComponentPad*
D15*
G36*
X114924504Y-114571204D02*
G01*
X114948773Y-114574804D01*
X114972571Y-114580765D01*
X114995671Y-114589030D01*
X115017849Y-114599520D01*
X115038893Y-114612133D01*
X115058598Y-114626747D01*
X115076777Y-114643223D01*
X115093253Y-114661402D01*
X115107867Y-114681107D01*
X115120480Y-114702151D01*
X115130970Y-114724329D01*
X115139235Y-114747429D01*
X115145196Y-114771227D01*
X115148796Y-114795496D01*
X115150000Y-114820000D01*
X115150000Y-116320000D01*
X115148796Y-116344504D01*
X115145196Y-116368773D01*
X115139235Y-116392571D01*
X115130970Y-116415671D01*
X115120480Y-116437849D01*
X115107867Y-116458893D01*
X115093253Y-116478598D01*
X115076777Y-116496777D01*
X115058598Y-116513253D01*
X115038893Y-116527867D01*
X115017849Y-116540480D01*
X114995671Y-116550970D01*
X114972571Y-116559235D01*
X114948773Y-116565196D01*
X114924504Y-116568796D01*
X114900000Y-116570000D01*
X113700000Y-116570000D01*
X113675496Y-116568796D01*
X113651227Y-116565196D01*
X113627429Y-116559235D01*
X113604329Y-116550970D01*
X113582151Y-116540480D01*
X113561107Y-116527867D01*
X113541402Y-116513253D01*
X113523223Y-116496777D01*
X113506747Y-116478598D01*
X113492133Y-116458893D01*
X113479520Y-116437849D01*
X113469030Y-116415671D01*
X113460765Y-116392571D01*
X113454804Y-116368773D01*
X113451204Y-116344504D01*
X113450000Y-116320000D01*
X113450000Y-114820000D01*
X113451204Y-114795496D01*
X113454804Y-114771227D01*
X113460765Y-114747429D01*
X113469030Y-114724329D01*
X113479520Y-114702151D01*
X113492133Y-114681107D01*
X113506747Y-114661402D01*
X113523223Y-114643223D01*
X113541402Y-114626747D01*
X113561107Y-114612133D01*
X113582151Y-114599520D01*
X113604329Y-114589030D01*
X113627429Y-114580765D01*
X113651227Y-114574804D01*
X113675496Y-114571204D01*
X113700000Y-114570000D01*
X114900000Y-114570000D01*
X114924504Y-114571204D01*
G37*
G04 #@! TD.AperFunction*
D19*
X134620000Y-64770000D03*
D20*
X137160000Y-64770000D03*
X139700000Y-64770000D03*
D21*
G36*
X173502249Y-46452437D02*
G01*
X174259774Y-46659672D01*
X174968625Y-46997777D01*
X175606404Y-47456067D01*
X176152946Y-48020055D01*
X176590977Y-48671913D01*
X176906651Y-49391038D01*
X177091206Y-50159768D01*
X177140001Y-50824221D01*
X177140000Y-126970608D01*
X177067563Y-127782249D01*
X176860328Y-128539774D01*
X176522221Y-129248627D01*
X176063928Y-129886410D01*
X175499945Y-130432946D01*
X174848085Y-130870978D01*
X174128963Y-131186651D01*
X173360232Y-131371206D01*
X172695792Y-131420000D01*
X96549392Y-131420000D01*
X95737751Y-131347563D01*
X94980226Y-131140328D01*
X94271373Y-130802221D01*
X93633590Y-130343928D01*
X93087054Y-129779945D01*
X92649022Y-129128085D01*
X92333349Y-128408963D01*
X92148794Y-127640232D01*
X92100000Y-126975792D01*
X92100000Y-126779872D01*
X94285000Y-126779872D01*
X94285000Y-127220128D01*
X94370890Y-127651925D01*
X94539369Y-128058669D01*
X94783962Y-128424729D01*
X95095271Y-128736038D01*
X95461331Y-128980631D01*
X95868075Y-129149110D01*
X96299872Y-129235000D01*
X96740128Y-129235000D01*
X97171925Y-129149110D01*
X97578669Y-128980631D01*
X97944729Y-128736038D01*
X98256038Y-128424729D01*
X98500631Y-128058669D01*
X98669110Y-127651925D01*
X98755000Y-127220128D01*
X98755000Y-126779872D01*
X170485000Y-126779872D01*
X170485000Y-127220128D01*
X170570890Y-127651925D01*
X170739369Y-128058669D01*
X170983962Y-128424729D01*
X171295271Y-128736038D01*
X171661331Y-128980631D01*
X172068075Y-129149110D01*
X172499872Y-129235000D01*
X172940128Y-129235000D01*
X173371925Y-129149110D01*
X173778669Y-128980631D01*
X174144729Y-128736038D01*
X174456038Y-128424729D01*
X174700631Y-128058669D01*
X174869110Y-127651925D01*
X174955000Y-127220128D01*
X174955000Y-126779872D01*
X174869110Y-126348075D01*
X174700631Y-125941331D01*
X174456038Y-125575271D01*
X174144729Y-125263962D01*
X173778669Y-125019369D01*
X173371925Y-124850890D01*
X172940128Y-124765000D01*
X172499872Y-124765000D01*
X172068075Y-124850890D01*
X171661331Y-125019369D01*
X171295271Y-125263962D01*
X170983962Y-125575271D01*
X170739369Y-125941331D01*
X170570890Y-126348075D01*
X170485000Y-126779872D01*
X98755000Y-126779872D01*
X98669110Y-126348075D01*
X98500631Y-125941331D01*
X98256038Y-125575271D01*
X97944729Y-125263962D01*
X97578669Y-125019369D01*
X97171925Y-124850890D01*
X96740128Y-124765000D01*
X96299872Y-124765000D01*
X95868075Y-124850890D01*
X95461331Y-125019369D01*
X95095271Y-125263962D01*
X94783962Y-125575271D01*
X94539369Y-125941331D01*
X94370890Y-126348075D01*
X94285000Y-126779872D01*
X92100000Y-126779872D01*
X92100000Y-115347050D01*
X110275000Y-115347050D01*
X110275000Y-115792949D01*
X110296487Y-116011110D01*
X110381401Y-116291033D01*
X110519294Y-116549013D01*
X110704866Y-116775134D01*
X110930986Y-116960706D01*
X111188966Y-117098599D01*
X111468889Y-117183513D01*
X111760000Y-117212185D01*
X112051110Y-117183513D01*
X112331033Y-117098599D01*
X112589013Y-116960706D01*
X112815134Y-116775134D01*
X112839607Y-116745313D01*
X112860498Y-116814180D01*
X112919463Y-116924494D01*
X112998815Y-117021185D01*
X113095506Y-117100537D01*
X113205820Y-117159502D01*
X113325518Y-117195812D01*
X113450000Y-117208072D01*
X114014250Y-117205000D01*
X114173000Y-117046250D01*
X114173000Y-115697000D01*
X114427000Y-115697000D01*
X114427000Y-117046250D01*
X114585750Y-117205000D01*
X115150000Y-117208072D01*
X115274482Y-117195812D01*
X115394180Y-117159502D01*
X115504494Y-117100537D01*
X115601185Y-117021185D01*
X115680537Y-116924494D01*
X115739502Y-116814180D01*
X115775812Y-116694482D01*
X115788072Y-116570000D01*
X115785000Y-115855750D01*
X115626250Y-115697000D01*
X114427000Y-115697000D01*
X114173000Y-115697000D01*
X114153000Y-115697000D01*
X114153000Y-115443000D01*
X114173000Y-115443000D01*
X114173000Y-114093750D01*
X114427000Y-114093750D01*
X114427000Y-115443000D01*
X115626250Y-115443000D01*
X115722200Y-115347050D01*
X128055000Y-115347050D01*
X128055000Y-115792949D01*
X128076487Y-116011110D01*
X128161401Y-116291033D01*
X128299294Y-116549013D01*
X128484866Y-116775134D01*
X128710986Y-116960706D01*
X128968966Y-117098599D01*
X129248889Y-117183513D01*
X129540000Y-117212185D01*
X129831110Y-117183513D01*
X130111033Y-117098599D01*
X130369013Y-116960706D01*
X130595134Y-116775134D01*
X130619607Y-116745313D01*
X130640498Y-116814180D01*
X130699463Y-116924494D01*
X130778815Y-117021185D01*
X130875506Y-117100537D01*
X130985820Y-117159502D01*
X131105518Y-117195812D01*
X131230000Y-117208072D01*
X131794250Y-117205000D01*
X131953000Y-117046250D01*
X131953000Y-115697000D01*
X132207000Y-115697000D01*
X132207000Y-117046250D01*
X132365750Y-117205000D01*
X132930000Y-117208072D01*
X133054482Y-117195812D01*
X133174180Y-117159502D01*
X133284494Y-117100537D01*
X133381185Y-117021185D01*
X133460537Y-116924494D01*
X133519502Y-116814180D01*
X133555812Y-116694482D01*
X133563438Y-116617050D01*
X150915000Y-116617050D01*
X150915000Y-117062949D01*
X150936487Y-117281110D01*
X151021401Y-117561033D01*
X151159294Y-117819013D01*
X151344866Y-118045134D01*
X151570986Y-118230706D01*
X151828966Y-118368599D01*
X152108889Y-118453513D01*
X152400000Y-118482185D01*
X152691110Y-118453513D01*
X152971033Y-118368599D01*
X153229013Y-118230706D01*
X153455134Y-118045134D01*
X153479607Y-118015313D01*
X153500498Y-118084180D01*
X153559463Y-118194494D01*
X153638815Y-118291185D01*
X153735506Y-118370537D01*
X153845820Y-118429502D01*
X153965518Y-118465812D01*
X154090000Y-118478072D01*
X154654250Y-118475000D01*
X154813000Y-118316250D01*
X154813000Y-116967000D01*
X155067000Y-116967000D01*
X155067000Y-118316250D01*
X155225750Y-118475000D01*
X155790000Y-118478072D01*
X155914482Y-118465812D01*
X156034180Y-118429502D01*
X156144494Y-118370537D01*
X156241185Y-118291185D01*
X156320537Y-118194494D01*
X156379502Y-118084180D01*
X156415812Y-117964482D01*
X156428072Y-117840000D01*
X156425000Y-117125750D01*
X156266250Y-116967000D01*
X155067000Y-116967000D01*
X154813000Y-116967000D01*
X154793000Y-116967000D01*
X154793000Y-116713000D01*
X154813000Y-116713000D01*
X154813000Y-115363750D01*
X155067000Y-115363750D01*
X155067000Y-116713000D01*
X156266250Y-116713000D01*
X156362200Y-116617050D01*
X168695000Y-116617050D01*
X168695000Y-117062949D01*
X168716487Y-117281110D01*
X168801401Y-117561033D01*
X168939294Y-117819013D01*
X169124866Y-118045134D01*
X169350986Y-118230706D01*
X169608966Y-118368599D01*
X169888889Y-118453513D01*
X170180000Y-118482185D01*
X170471110Y-118453513D01*
X170751033Y-118368599D01*
X171009013Y-118230706D01*
X171235134Y-118045134D01*
X171259607Y-118015313D01*
X171280498Y-118084180D01*
X171339463Y-118194494D01*
X171418815Y-118291185D01*
X171515506Y-118370537D01*
X171625820Y-118429502D01*
X171745518Y-118465812D01*
X171870000Y-118478072D01*
X172434250Y-118475000D01*
X172593000Y-118316250D01*
X172593000Y-116967000D01*
X172847000Y-116967000D01*
X172847000Y-118316250D01*
X173005750Y-118475000D01*
X173570000Y-118478072D01*
X173694482Y-118465812D01*
X173814180Y-118429502D01*
X173924494Y-118370537D01*
X174021185Y-118291185D01*
X174100537Y-118194494D01*
X174159502Y-118084180D01*
X174195812Y-117964482D01*
X174208072Y-117840000D01*
X174205000Y-117125750D01*
X174046250Y-116967000D01*
X172847000Y-116967000D01*
X172593000Y-116967000D01*
X172573000Y-116967000D01*
X172573000Y-116713000D01*
X172593000Y-116713000D01*
X172593000Y-115363750D01*
X172847000Y-115363750D01*
X172847000Y-116713000D01*
X174046250Y-116713000D01*
X174205000Y-116554250D01*
X174208072Y-115840000D01*
X174195812Y-115715518D01*
X174159502Y-115595820D01*
X174100537Y-115485506D01*
X174021185Y-115388815D01*
X173924494Y-115309463D01*
X173814180Y-115250498D01*
X173694482Y-115214188D01*
X173570000Y-115201928D01*
X173005750Y-115205000D01*
X172847000Y-115363750D01*
X172593000Y-115363750D01*
X172434250Y-115205000D01*
X171870000Y-115201928D01*
X171745518Y-115214188D01*
X171625820Y-115250498D01*
X171515506Y-115309463D01*
X171418815Y-115388815D01*
X171339463Y-115485506D01*
X171280498Y-115595820D01*
X171259607Y-115664687D01*
X171235134Y-115634866D01*
X171009014Y-115449294D01*
X170751034Y-115311401D01*
X170471111Y-115226487D01*
X170180000Y-115197815D01*
X169888890Y-115226487D01*
X169608967Y-115311401D01*
X169350987Y-115449294D01*
X169124866Y-115634866D01*
X168939294Y-115860986D01*
X168801401Y-116118966D01*
X168716487Y-116398889D01*
X168695000Y-116617050D01*
X156362200Y-116617050D01*
X156425000Y-116554250D01*
X156428072Y-115840000D01*
X156415812Y-115715518D01*
X156379502Y-115595820D01*
X156320537Y-115485506D01*
X156241185Y-115388815D01*
X156144494Y-115309463D01*
X156034180Y-115250498D01*
X155914482Y-115214188D01*
X155790000Y-115201928D01*
X155225750Y-115205000D01*
X155067000Y-115363750D01*
X154813000Y-115363750D01*
X154654250Y-115205000D01*
X154090000Y-115201928D01*
X153965518Y-115214188D01*
X153845820Y-115250498D01*
X153735506Y-115309463D01*
X153638815Y-115388815D01*
X153559463Y-115485506D01*
X153500498Y-115595820D01*
X153479607Y-115664687D01*
X153455134Y-115634866D01*
X153229014Y-115449294D01*
X152971034Y-115311401D01*
X152691111Y-115226487D01*
X152400000Y-115197815D01*
X152108890Y-115226487D01*
X151828967Y-115311401D01*
X151570987Y-115449294D01*
X151344866Y-115634866D01*
X151159294Y-115860986D01*
X151021401Y-116118966D01*
X150936487Y-116398889D01*
X150915000Y-116617050D01*
X133563438Y-116617050D01*
X133568072Y-116570000D01*
X133565000Y-115855750D01*
X133406250Y-115697000D01*
X132207000Y-115697000D01*
X131953000Y-115697000D01*
X131933000Y-115697000D01*
X131933000Y-115443000D01*
X131953000Y-115443000D01*
X131953000Y-114093750D01*
X132207000Y-114093750D01*
X132207000Y-115443000D01*
X133406250Y-115443000D01*
X133565000Y-115284250D01*
X133568072Y-114570000D01*
X133555812Y-114445518D01*
X133519502Y-114325820D01*
X133460537Y-114215506D01*
X133381185Y-114118815D01*
X133284494Y-114039463D01*
X133174180Y-113980498D01*
X133054482Y-113944188D01*
X132930000Y-113931928D01*
X132365750Y-113935000D01*
X132207000Y-114093750D01*
X131953000Y-114093750D01*
X131794250Y-113935000D01*
X131230000Y-113931928D01*
X131105518Y-113944188D01*
X130985820Y-113980498D01*
X130875506Y-114039463D01*
X130778815Y-114118815D01*
X130699463Y-114215506D01*
X130640498Y-114325820D01*
X130619607Y-114394687D01*
X130595134Y-114364866D01*
X130369014Y-114179294D01*
X130111034Y-114041401D01*
X129831111Y-113956487D01*
X129540000Y-113927815D01*
X129248890Y-113956487D01*
X128968967Y-114041401D01*
X128710987Y-114179294D01*
X128484866Y-114364866D01*
X128299294Y-114590986D01*
X128161401Y-114848966D01*
X128076487Y-115128889D01*
X128055000Y-115347050D01*
X115722200Y-115347050D01*
X115785000Y-115284250D01*
X115788072Y-114570000D01*
X115775812Y-114445518D01*
X115739502Y-114325820D01*
X115680537Y-114215506D01*
X115601185Y-114118815D01*
X115504494Y-114039463D01*
X115394180Y-113980498D01*
X115274482Y-113944188D01*
X115150000Y-113931928D01*
X114585750Y-113935000D01*
X114427000Y-114093750D01*
X114173000Y-114093750D01*
X114014250Y-113935000D01*
X113450000Y-113931928D01*
X113325518Y-113944188D01*
X113205820Y-113980498D01*
X113095506Y-114039463D01*
X112998815Y-114118815D01*
X112919463Y-114215506D01*
X112860498Y-114325820D01*
X112839607Y-114394687D01*
X112815134Y-114364866D01*
X112589014Y-114179294D01*
X112331034Y-114041401D01*
X112051111Y-113956487D01*
X111760000Y-113927815D01*
X111468890Y-113956487D01*
X111188967Y-114041401D01*
X110930987Y-114179294D01*
X110704866Y-114364866D01*
X110519294Y-114590986D01*
X110381401Y-114848966D01*
X110296487Y-115128889D01*
X110275000Y-115347050D01*
X92100000Y-115347050D01*
X92100000Y-103917050D01*
X150915000Y-103917050D01*
X150915000Y-104362949D01*
X150936487Y-104581110D01*
X151021401Y-104861033D01*
X151159294Y-105119013D01*
X151344866Y-105345134D01*
X151570986Y-105530706D01*
X151828966Y-105668599D01*
X152108889Y-105753513D01*
X152400000Y-105782185D01*
X152691110Y-105753513D01*
X152971033Y-105668599D01*
X153229013Y-105530706D01*
X153455134Y-105345134D01*
X153479607Y-105315313D01*
X153500498Y-105384180D01*
X153559463Y-105494494D01*
X153638815Y-105591185D01*
X153735506Y-105670537D01*
X153845820Y-105729502D01*
X153965518Y-105765812D01*
X154090000Y-105778072D01*
X154654250Y-105775000D01*
X154813000Y-105616250D01*
X154813000Y-104267000D01*
X155067000Y-104267000D01*
X155067000Y-105616250D01*
X155225750Y-105775000D01*
X155790000Y-105778072D01*
X155914482Y-105765812D01*
X156034180Y-105729502D01*
X156144494Y-105670537D01*
X156241185Y-105591185D01*
X156320537Y-105494494D01*
X156379502Y-105384180D01*
X156415812Y-105264482D01*
X156428072Y-105140000D01*
X156425000Y-104425750D01*
X156266250Y-104267000D01*
X155067000Y-104267000D01*
X154813000Y-104267000D01*
X154793000Y-104267000D01*
X154793000Y-104013000D01*
X154813000Y-104013000D01*
X154813000Y-102663750D01*
X155067000Y-102663750D01*
X155067000Y-104013000D01*
X156266250Y-104013000D01*
X156362200Y-103917050D01*
X168695000Y-103917050D01*
X168695000Y-104362949D01*
X168716487Y-104581110D01*
X168801401Y-104861033D01*
X168939294Y-105119013D01*
X169124866Y-105345134D01*
X169350986Y-105530706D01*
X169608966Y-105668599D01*
X169888889Y-105753513D01*
X170180000Y-105782185D01*
X170471110Y-105753513D01*
X170751033Y-105668599D01*
X171009013Y-105530706D01*
X171235134Y-105345134D01*
X171259607Y-105315313D01*
X171280498Y-105384180D01*
X171339463Y-105494494D01*
X171418815Y-105591185D01*
X171515506Y-105670537D01*
X171625820Y-105729502D01*
X171745518Y-105765812D01*
X171870000Y-105778072D01*
X172434250Y-105775000D01*
X172593000Y-105616250D01*
X172593000Y-104267000D01*
X172847000Y-104267000D01*
X172847000Y-105616250D01*
X173005750Y-105775000D01*
X173570000Y-105778072D01*
X173694482Y-105765812D01*
X173814180Y-105729502D01*
X173924494Y-105670537D01*
X174021185Y-105591185D01*
X174100537Y-105494494D01*
X174159502Y-105384180D01*
X174195812Y-105264482D01*
X174208072Y-105140000D01*
X174205000Y-104425750D01*
X174046250Y-104267000D01*
X172847000Y-104267000D01*
X172593000Y-104267000D01*
X172573000Y-104267000D01*
X172573000Y-104013000D01*
X172593000Y-104013000D01*
X172593000Y-102663750D01*
X172847000Y-102663750D01*
X172847000Y-104013000D01*
X174046250Y-104013000D01*
X174205000Y-103854250D01*
X174208072Y-103140000D01*
X174195812Y-103015518D01*
X174159502Y-102895820D01*
X174100537Y-102785506D01*
X174021185Y-102688815D01*
X173924494Y-102609463D01*
X173814180Y-102550498D01*
X173694482Y-102514188D01*
X173570000Y-102501928D01*
X173005750Y-102505000D01*
X172847000Y-102663750D01*
X172593000Y-102663750D01*
X172434250Y-102505000D01*
X171870000Y-102501928D01*
X171745518Y-102514188D01*
X171625820Y-102550498D01*
X171515506Y-102609463D01*
X171418815Y-102688815D01*
X171339463Y-102785506D01*
X171280498Y-102895820D01*
X171259607Y-102964687D01*
X171235134Y-102934866D01*
X171009014Y-102749294D01*
X170751034Y-102611401D01*
X170471111Y-102526487D01*
X170180000Y-102497815D01*
X169888890Y-102526487D01*
X169608967Y-102611401D01*
X169350987Y-102749294D01*
X169124866Y-102934866D01*
X168939294Y-103160986D01*
X168801401Y-103418966D01*
X168716487Y-103698889D01*
X168695000Y-103917050D01*
X156362200Y-103917050D01*
X156425000Y-103854250D01*
X156428072Y-103140000D01*
X156415812Y-103015518D01*
X156379502Y-102895820D01*
X156320537Y-102785506D01*
X156241185Y-102688815D01*
X156144494Y-102609463D01*
X156034180Y-102550498D01*
X155914482Y-102514188D01*
X155790000Y-102501928D01*
X155225750Y-102505000D01*
X155067000Y-102663750D01*
X154813000Y-102663750D01*
X154654250Y-102505000D01*
X154090000Y-102501928D01*
X153965518Y-102514188D01*
X153845820Y-102550498D01*
X153735506Y-102609463D01*
X153638815Y-102688815D01*
X153559463Y-102785506D01*
X153500498Y-102895820D01*
X153479607Y-102964687D01*
X153455134Y-102934866D01*
X153229014Y-102749294D01*
X152971034Y-102611401D01*
X152691111Y-102526487D01*
X152400000Y-102497815D01*
X152108890Y-102526487D01*
X151828967Y-102611401D01*
X151570987Y-102749294D01*
X151344866Y-102934866D01*
X151159294Y-103160986D01*
X151021401Y-103418966D01*
X150936487Y-103698889D01*
X150915000Y-103917050D01*
X92100000Y-103917050D01*
X92100000Y-91217050D01*
X95035000Y-91217050D01*
X95035000Y-91662949D01*
X95056487Y-91881110D01*
X95141401Y-92161033D01*
X95279294Y-92419013D01*
X95464866Y-92645134D01*
X95690986Y-92830706D01*
X95948966Y-92968599D01*
X96228889Y-93053513D01*
X96520000Y-93082185D01*
X96811110Y-93053513D01*
X97091033Y-92968599D01*
X97349013Y-92830706D01*
X97575134Y-92645134D01*
X97599607Y-92615313D01*
X97620498Y-92684180D01*
X97679463Y-92794494D01*
X97758815Y-92891185D01*
X97855506Y-92970537D01*
X97965820Y-93029502D01*
X98085518Y-93065812D01*
X98210000Y-93078072D01*
X98774250Y-93075000D01*
X98933000Y-92916250D01*
X98933000Y-91567000D01*
X99187000Y-91567000D01*
X99187000Y-92916250D01*
X99345750Y-93075000D01*
X99910000Y-93078072D01*
X100034482Y-93065812D01*
X100154180Y-93029502D01*
X100264494Y-92970537D01*
X100361185Y-92891185D01*
X100440537Y-92794494D01*
X100499502Y-92684180D01*
X100535812Y-92564482D01*
X100548072Y-92440000D01*
X100545000Y-91725750D01*
X100386250Y-91567000D01*
X99187000Y-91567000D01*
X98933000Y-91567000D01*
X98913000Y-91567000D01*
X98913000Y-91313000D01*
X98933000Y-91313000D01*
X98933000Y-89963750D01*
X99187000Y-89963750D01*
X99187000Y-91313000D01*
X100386250Y-91313000D01*
X100482200Y-91217050D01*
X112815000Y-91217050D01*
X112815000Y-91662949D01*
X112836487Y-91881110D01*
X112921401Y-92161033D01*
X113059294Y-92419013D01*
X113244866Y-92645134D01*
X113470986Y-92830706D01*
X113728966Y-92968599D01*
X114008889Y-93053513D01*
X114300000Y-93082185D01*
X114591110Y-93053513D01*
X114871033Y-92968599D01*
X115129013Y-92830706D01*
X115355134Y-92645134D01*
X115379607Y-92615313D01*
X115400498Y-92684180D01*
X115459463Y-92794494D01*
X115538815Y-92891185D01*
X115635506Y-92970537D01*
X115745820Y-93029502D01*
X115865518Y-93065812D01*
X115990000Y-93078072D01*
X116554250Y-93075000D01*
X116713000Y-92916250D01*
X116713000Y-91567000D01*
X116967000Y-91567000D01*
X116967000Y-92916250D01*
X117125750Y-93075000D01*
X117690000Y-93078072D01*
X117814482Y-93065812D01*
X117934180Y-93029502D01*
X118044494Y-92970537D01*
X118141185Y-92891185D01*
X118220537Y-92794494D01*
X118279502Y-92684180D01*
X118315812Y-92564482D01*
X118328072Y-92440000D01*
X118325000Y-91725750D01*
X118166250Y-91567000D01*
X116967000Y-91567000D01*
X116713000Y-91567000D01*
X116693000Y-91567000D01*
X116693000Y-91313000D01*
X116713000Y-91313000D01*
X116713000Y-89963750D01*
X116967000Y-89963750D01*
X116967000Y-91313000D01*
X118166250Y-91313000D01*
X118325000Y-91154250D01*
X118328072Y-90440000D01*
X118315812Y-90315518D01*
X118279502Y-90195820D01*
X118220537Y-90085506D01*
X118141185Y-89988815D01*
X118044494Y-89909463D01*
X117934180Y-89850498D01*
X117814482Y-89814188D01*
X117690000Y-89801928D01*
X117125750Y-89805000D01*
X116967000Y-89963750D01*
X116713000Y-89963750D01*
X116554250Y-89805000D01*
X115990000Y-89801928D01*
X115865518Y-89814188D01*
X115745820Y-89850498D01*
X115635506Y-89909463D01*
X115538815Y-89988815D01*
X115459463Y-90085506D01*
X115400498Y-90195820D01*
X115379607Y-90264687D01*
X115355134Y-90234866D01*
X115129014Y-90049294D01*
X114871034Y-89911401D01*
X114591111Y-89826487D01*
X114300000Y-89797815D01*
X114008890Y-89826487D01*
X113728967Y-89911401D01*
X113470987Y-90049294D01*
X113244866Y-90234866D01*
X113059294Y-90460986D01*
X112921401Y-90718966D01*
X112836487Y-90998889D01*
X112815000Y-91217050D01*
X100482200Y-91217050D01*
X100545000Y-91154250D01*
X100548072Y-90440000D01*
X100535812Y-90315518D01*
X100499502Y-90195820D01*
X100440537Y-90085506D01*
X100361185Y-89988815D01*
X100264494Y-89909463D01*
X100154180Y-89850498D01*
X100034482Y-89814188D01*
X99910000Y-89801928D01*
X99345750Y-89805000D01*
X99187000Y-89963750D01*
X98933000Y-89963750D01*
X98774250Y-89805000D01*
X98210000Y-89801928D01*
X98085518Y-89814188D01*
X97965820Y-89850498D01*
X97855506Y-89909463D01*
X97758815Y-89988815D01*
X97679463Y-90085506D01*
X97620498Y-90195820D01*
X97599607Y-90264687D01*
X97575134Y-90234866D01*
X97349014Y-90049294D01*
X97091034Y-89911401D01*
X96811111Y-89826487D01*
X96520000Y-89797815D01*
X96228890Y-89826487D01*
X95948967Y-89911401D01*
X95690987Y-90049294D01*
X95464866Y-90234866D01*
X95279294Y-90460986D01*
X95141401Y-90718966D01*
X95056487Y-90998889D01*
X95035000Y-91217050D01*
X92100000Y-91217050D01*
X92100000Y-82396700D01*
X124589908Y-82396700D01*
X124602168Y-82521182D01*
X124638478Y-82640880D01*
X124697443Y-82751194D01*
X124776795Y-82847885D01*
X124873486Y-82927237D01*
X124983800Y-82986202D01*
X125056360Y-83008213D01*
X124924505Y-83140068D01*
X124761990Y-83383289D01*
X124650048Y-83653542D01*
X124592980Y-83940440D01*
X124592980Y-84232960D01*
X124650048Y-84519858D01*
X124761990Y-84790111D01*
X124924505Y-85033332D01*
X125131348Y-85240175D01*
X125305740Y-85356700D01*
X125131348Y-85473225D01*
X124924505Y-85680068D01*
X124761990Y-85923289D01*
X124650048Y-86193542D01*
X124592980Y-86480440D01*
X124592980Y-86772960D01*
X124650048Y-87059858D01*
X124761990Y-87330111D01*
X124924505Y-87573332D01*
X125131348Y-87780175D01*
X125305740Y-87896700D01*
X125131348Y-88013225D01*
X124924505Y-88220068D01*
X124761990Y-88463289D01*
X124650048Y-88733542D01*
X124592980Y-89020440D01*
X124592980Y-89312960D01*
X124650048Y-89599858D01*
X124761990Y-89870111D01*
X124924505Y-90113332D01*
X125131348Y-90320175D01*
X125305740Y-90436700D01*
X125131348Y-90553225D01*
X124924505Y-90760068D01*
X124761990Y-91003289D01*
X124650048Y-91273542D01*
X124592980Y-91560440D01*
X124592980Y-91852960D01*
X124650048Y-92139858D01*
X124761990Y-92410111D01*
X124924505Y-92653332D01*
X125131348Y-92860175D01*
X125305740Y-92976700D01*
X125131348Y-93093225D01*
X124924505Y-93300068D01*
X124761990Y-93543289D01*
X124650048Y-93813542D01*
X124592980Y-94100440D01*
X124592980Y-94392960D01*
X124650048Y-94679858D01*
X124761990Y-94950111D01*
X124924505Y-95193332D01*
X125131348Y-95400175D01*
X125305740Y-95516700D01*
X125131348Y-95633225D01*
X124924505Y-95840068D01*
X124761990Y-96083289D01*
X124650048Y-96353542D01*
X124592980Y-96640440D01*
X124592980Y-96932960D01*
X124650048Y-97219858D01*
X124761990Y-97490111D01*
X124924505Y-97733332D01*
X125131348Y-97940175D01*
X125374569Y-98102690D01*
X125644822Y-98214632D01*
X125931720Y-98271700D01*
X126224240Y-98271700D01*
X126511138Y-98214632D01*
X126781391Y-98102690D01*
X127024612Y-97940175D01*
X127231455Y-97733332D01*
X127393970Y-97490111D01*
X127505912Y-97219858D01*
X127562980Y-96932960D01*
X127562980Y-96640440D01*
X127505912Y-96353542D01*
X127393970Y-96083289D01*
X127231455Y-95840068D01*
X127024612Y-95633225D01*
X126850220Y-95516700D01*
X127024612Y-95400175D01*
X127231455Y-95193332D01*
X127393970Y-94950111D01*
X127505912Y-94679858D01*
X127562980Y-94392960D01*
X127562980Y-94100440D01*
X142372980Y-94100440D01*
X142372980Y-94392960D01*
X142430048Y-94679858D01*
X142541990Y-94950111D01*
X142704505Y-95193332D01*
X142911348Y-95400175D01*
X143154569Y-95562690D01*
X143424822Y-95674632D01*
X143711720Y-95731700D01*
X144004240Y-95731700D01*
X144291138Y-95674632D01*
X144561391Y-95562690D01*
X144804612Y-95400175D01*
X145011455Y-95193332D01*
X145173970Y-94950111D01*
X145285912Y-94679858D01*
X145342980Y-94392960D01*
X145342980Y-94100440D01*
X145285912Y-93813542D01*
X145173970Y-93543289D01*
X145011455Y-93300068D01*
X144804612Y-93093225D01*
X144622446Y-92971505D01*
X144739335Y-92901878D01*
X144955568Y-92706969D01*
X145129621Y-92473620D01*
X145254805Y-92210799D01*
X145299456Y-92063590D01*
X145178135Y-91833700D01*
X143984980Y-91833700D01*
X143984980Y-91853700D01*
X143730980Y-91853700D01*
X143730980Y-91833700D01*
X142537825Y-91833700D01*
X142416504Y-92063590D01*
X142461155Y-92210799D01*
X142586339Y-92473620D01*
X142760392Y-92706969D01*
X142976625Y-92901878D01*
X143093514Y-92971505D01*
X142911348Y-93093225D01*
X142704505Y-93300068D01*
X142541990Y-93543289D01*
X142430048Y-93813542D01*
X142372980Y-94100440D01*
X127562980Y-94100440D01*
X127505912Y-93813542D01*
X127393970Y-93543289D01*
X127231455Y-93300068D01*
X127024612Y-93093225D01*
X126850220Y-92976700D01*
X127024612Y-92860175D01*
X127231455Y-92653332D01*
X127393970Y-92410111D01*
X127505912Y-92139858D01*
X127562980Y-91852960D01*
X127562980Y-91560440D01*
X127505912Y-91273542D01*
X127393970Y-91003289D01*
X127231455Y-90760068D01*
X127024612Y-90553225D01*
X126850220Y-90436700D01*
X127024612Y-90320175D01*
X127231455Y-90113332D01*
X127393970Y-89870111D01*
X127505912Y-89599858D01*
X127562980Y-89312960D01*
X127562980Y-89020440D01*
X127505912Y-88733542D01*
X127393970Y-88463289D01*
X127231455Y-88220068D01*
X127024612Y-88013225D01*
X126850220Y-87896700D01*
X127024612Y-87780175D01*
X127231455Y-87573332D01*
X127393970Y-87330111D01*
X127505912Y-87059858D01*
X127562980Y-86772960D01*
X127562980Y-86480440D01*
X127505912Y-86193542D01*
X127393970Y-85923289D01*
X127231455Y-85680068D01*
X127024612Y-85473225D01*
X126850220Y-85356700D01*
X127024612Y-85240175D01*
X127231455Y-85033332D01*
X127393970Y-84790111D01*
X127505912Y-84519858D01*
X127562980Y-84232960D01*
X127562980Y-83940440D01*
X142372980Y-83940440D01*
X142372980Y-84232960D01*
X142430048Y-84519858D01*
X142541990Y-84790111D01*
X142704505Y-85033332D01*
X142911348Y-85240175D01*
X143085740Y-85356700D01*
X142911348Y-85473225D01*
X142704505Y-85680068D01*
X142541990Y-85923289D01*
X142430048Y-86193542D01*
X142372980Y-86480440D01*
X142372980Y-86772960D01*
X142430048Y-87059858D01*
X142541990Y-87330111D01*
X142704505Y-87573332D01*
X142911348Y-87780175D01*
X143085740Y-87896700D01*
X142911348Y-88013225D01*
X142704505Y-88220068D01*
X142541990Y-88463289D01*
X142430048Y-88733542D01*
X142372980Y-89020440D01*
X142372980Y-89312960D01*
X142430048Y-89599858D01*
X142541990Y-89870111D01*
X142704505Y-90113332D01*
X142911348Y-90320175D01*
X143093514Y-90441895D01*
X142976625Y-90511522D01*
X142760392Y-90706431D01*
X142586339Y-90939780D01*
X142461155Y-91202601D01*
X142416504Y-91349810D01*
X142537825Y-91579700D01*
X143730980Y-91579700D01*
X143730980Y-91559700D01*
X143984980Y-91559700D01*
X143984980Y-91579700D01*
X145178135Y-91579700D01*
X145299456Y-91349810D01*
X145254805Y-91202601D01*
X145129621Y-90939780D01*
X144955568Y-90706431D01*
X144739335Y-90511522D01*
X144622446Y-90441895D01*
X144804612Y-90320175D01*
X145011455Y-90113332D01*
X145173970Y-89870111D01*
X145285912Y-89599858D01*
X145342980Y-89312960D01*
X145342980Y-89020440D01*
X145285912Y-88733542D01*
X145173970Y-88463289D01*
X145011455Y-88220068D01*
X144804612Y-88013225D01*
X144630220Y-87896700D01*
X144804612Y-87780175D01*
X145011455Y-87573332D01*
X145173970Y-87330111D01*
X145285912Y-87059858D01*
X145342980Y-86772960D01*
X145342980Y-86480440D01*
X145285912Y-86193542D01*
X145173970Y-85923289D01*
X145011455Y-85680068D01*
X144804612Y-85473225D01*
X144630220Y-85356700D01*
X144804612Y-85240175D01*
X145011455Y-85033332D01*
X145173970Y-84790111D01*
X145285912Y-84519858D01*
X145342980Y-84232960D01*
X145342980Y-83940440D01*
X145285912Y-83653542D01*
X145173970Y-83383289D01*
X145011455Y-83140068D01*
X144804612Y-82933225D01*
X144561391Y-82770710D01*
X144291138Y-82658768D01*
X144004240Y-82601700D01*
X143711720Y-82601700D01*
X143424822Y-82658768D01*
X143154569Y-82770710D01*
X142911348Y-82933225D01*
X142704505Y-83140068D01*
X142541990Y-83383289D01*
X142430048Y-83653542D01*
X142372980Y-83940440D01*
X127562980Y-83940440D01*
X127505912Y-83653542D01*
X127393970Y-83383289D01*
X127231455Y-83140068D01*
X127099600Y-83008213D01*
X127172160Y-82986202D01*
X127282474Y-82927237D01*
X127379165Y-82847885D01*
X127458517Y-82751194D01*
X127517482Y-82640880D01*
X127553792Y-82521182D01*
X127566052Y-82396700D01*
X127562980Y-81832450D01*
X127404230Y-81673700D01*
X126204980Y-81673700D01*
X126204980Y-81693700D01*
X125950980Y-81693700D01*
X125950980Y-81673700D01*
X124751730Y-81673700D01*
X124592980Y-81832450D01*
X124589908Y-82396700D01*
X92100000Y-82396700D01*
X92100000Y-80696700D01*
X124589908Y-80696700D01*
X124592980Y-81260950D01*
X124751730Y-81419700D01*
X125950980Y-81419700D01*
X125950980Y-80220450D01*
X126204980Y-80220450D01*
X126204980Y-81419700D01*
X127404230Y-81419700D01*
X127562980Y-81260950D01*
X127563672Y-81133740D01*
X157265000Y-81133740D01*
X157265000Y-81426260D01*
X157322068Y-81713158D01*
X157434010Y-81983411D01*
X157596525Y-82226632D01*
X157803368Y-82433475D01*
X157977760Y-82550000D01*
X157803368Y-82666525D01*
X157596525Y-82873368D01*
X157434010Y-83116589D01*
X157322068Y-83386842D01*
X157265000Y-83673740D01*
X157265000Y-83966260D01*
X157322068Y-84253158D01*
X157434010Y-84523411D01*
X157596525Y-84766632D01*
X157803368Y-84973475D01*
X157977760Y-85090000D01*
X157803368Y-85206525D01*
X157596525Y-85413368D01*
X157434010Y-85656589D01*
X157322068Y-85926842D01*
X157265000Y-86213740D01*
X157265000Y-86506260D01*
X157322068Y-86793158D01*
X157434010Y-87063411D01*
X157596525Y-87306632D01*
X157803368Y-87513475D01*
X157977760Y-87630000D01*
X157803368Y-87746525D01*
X157596525Y-87953368D01*
X157434010Y-88196589D01*
X157322068Y-88466842D01*
X157265000Y-88753740D01*
X157265000Y-89046260D01*
X157322068Y-89333158D01*
X157434010Y-89603411D01*
X157596525Y-89846632D01*
X157803368Y-90053475D01*
X158046589Y-90215990D01*
X158316842Y-90327932D01*
X158603740Y-90385000D01*
X158896260Y-90385000D01*
X159183158Y-90327932D01*
X159453411Y-90215990D01*
X159696632Y-90053475D01*
X159903475Y-89846632D01*
X160065990Y-89603411D01*
X160177932Y-89333158D01*
X160235000Y-89046260D01*
X160235000Y-88753740D01*
X160177932Y-88466842D01*
X160065990Y-88196589D01*
X159903475Y-87953368D01*
X159696632Y-87746525D01*
X159522240Y-87630000D01*
X159696632Y-87513475D01*
X159903475Y-87306632D01*
X160065990Y-87063411D01*
X160177932Y-86793158D01*
X160235000Y-86506260D01*
X160235000Y-86213740D01*
X160177932Y-85926842D01*
X160065990Y-85656589D01*
X159903475Y-85413368D01*
X159696632Y-85206525D01*
X159522240Y-85090000D01*
X159696632Y-84973475D01*
X159903475Y-84766632D01*
X160065990Y-84523411D01*
X160177932Y-84253158D01*
X160235000Y-83966260D01*
X160235000Y-83673740D01*
X160177932Y-83386842D01*
X160065990Y-83116589D01*
X159903475Y-82873368D01*
X159696632Y-82666525D01*
X159522240Y-82550000D01*
X159696632Y-82433475D01*
X159903475Y-82226632D01*
X160065990Y-81983411D01*
X160177932Y-81713158D01*
X160235000Y-81426260D01*
X160235000Y-81133740D01*
X160177932Y-80846842D01*
X160065990Y-80576589D01*
X159903475Y-80333368D01*
X159696632Y-80126525D01*
X159514466Y-80004805D01*
X159631355Y-79935178D01*
X159847588Y-79740269D01*
X160021641Y-79506920D01*
X160146825Y-79244099D01*
X160191476Y-79096890D01*
X160070155Y-78867000D01*
X158877000Y-78867000D01*
X158877000Y-78887000D01*
X158623000Y-78887000D01*
X158623000Y-78867000D01*
X157429845Y-78867000D01*
X157308524Y-79096890D01*
X157353175Y-79244099D01*
X157478359Y-79506920D01*
X157652412Y-79740269D01*
X157868645Y-79935178D01*
X157985534Y-80004805D01*
X157803368Y-80126525D01*
X157596525Y-80333368D01*
X157434010Y-80576589D01*
X157322068Y-80846842D01*
X157265000Y-81133740D01*
X127563672Y-81133740D01*
X127566052Y-80696700D01*
X127553792Y-80572218D01*
X127517482Y-80452520D01*
X127458517Y-80342206D01*
X127379165Y-80245515D01*
X127282474Y-80166163D01*
X127172160Y-80107198D01*
X127052462Y-80070888D01*
X126927980Y-80058628D01*
X126363730Y-80061700D01*
X126204980Y-80220450D01*
X125950980Y-80220450D01*
X125792230Y-80061700D01*
X125227980Y-80058628D01*
X125103498Y-80070888D01*
X124983800Y-80107198D01*
X124873486Y-80166163D01*
X124776795Y-80245515D01*
X124697443Y-80342206D01*
X124638478Y-80452520D01*
X124602168Y-80572218D01*
X124589908Y-80696700D01*
X92100000Y-80696700D01*
X92100000Y-78517050D01*
X95035000Y-78517050D01*
X95035000Y-78962949D01*
X95056487Y-79181110D01*
X95141401Y-79461033D01*
X95279294Y-79719013D01*
X95464866Y-79945134D01*
X95690986Y-80130706D01*
X95948966Y-80268599D01*
X96228889Y-80353513D01*
X96520000Y-80382185D01*
X96811110Y-80353513D01*
X97091033Y-80268599D01*
X97349013Y-80130706D01*
X97575134Y-79945134D01*
X97599607Y-79915313D01*
X97620498Y-79984180D01*
X97679463Y-80094494D01*
X97758815Y-80191185D01*
X97855506Y-80270537D01*
X97965820Y-80329502D01*
X98085518Y-80365812D01*
X98210000Y-80378072D01*
X98774250Y-80375000D01*
X98933000Y-80216250D01*
X98933000Y-78867000D01*
X99187000Y-78867000D01*
X99187000Y-80216250D01*
X99345750Y-80375000D01*
X99910000Y-80378072D01*
X100034482Y-80365812D01*
X100154180Y-80329502D01*
X100264494Y-80270537D01*
X100361185Y-80191185D01*
X100440537Y-80094494D01*
X100499502Y-79984180D01*
X100535812Y-79864482D01*
X100548072Y-79740000D01*
X100545000Y-79025750D01*
X100386250Y-78867000D01*
X99187000Y-78867000D01*
X98933000Y-78867000D01*
X98913000Y-78867000D01*
X98913000Y-78613000D01*
X98933000Y-78613000D01*
X98933000Y-77263750D01*
X99187000Y-77263750D01*
X99187000Y-78613000D01*
X100386250Y-78613000D01*
X100482200Y-78517050D01*
X112815000Y-78517050D01*
X112815000Y-78962949D01*
X112836487Y-79181110D01*
X112921401Y-79461033D01*
X113059294Y-79719013D01*
X113244866Y-79945134D01*
X113470986Y-80130706D01*
X113728966Y-80268599D01*
X114008889Y-80353513D01*
X114300000Y-80382185D01*
X114591110Y-80353513D01*
X114871033Y-80268599D01*
X115129013Y-80130706D01*
X115355134Y-79945134D01*
X115379607Y-79915313D01*
X115400498Y-79984180D01*
X115459463Y-80094494D01*
X115538815Y-80191185D01*
X115635506Y-80270537D01*
X115745820Y-80329502D01*
X115865518Y-80365812D01*
X115990000Y-80378072D01*
X116554250Y-80375000D01*
X116713000Y-80216250D01*
X116713000Y-78867000D01*
X116967000Y-78867000D01*
X116967000Y-80216250D01*
X117125750Y-80375000D01*
X117690000Y-80378072D01*
X117814482Y-80365812D01*
X117934180Y-80329502D01*
X118044494Y-80270537D01*
X118141185Y-80191185D01*
X118220537Y-80094494D01*
X118279502Y-79984180D01*
X118315812Y-79864482D01*
X118328072Y-79740000D01*
X118325000Y-79025750D01*
X118166250Y-78867000D01*
X116967000Y-78867000D01*
X116713000Y-78867000D01*
X116693000Y-78867000D01*
X116693000Y-78613000D01*
X116713000Y-78613000D01*
X116713000Y-77263750D01*
X116967000Y-77263750D01*
X116967000Y-78613000D01*
X118166250Y-78613000D01*
X118325000Y-78454250D01*
X118328072Y-77740000D01*
X118315812Y-77615518D01*
X118279502Y-77495820D01*
X118220537Y-77385506D01*
X118141185Y-77288815D01*
X118044494Y-77209463D01*
X117934180Y-77150498D01*
X117814482Y-77114188D01*
X117690000Y-77101928D01*
X117125750Y-77105000D01*
X116967000Y-77263750D01*
X116713000Y-77263750D01*
X116554250Y-77105000D01*
X115990000Y-77101928D01*
X115865518Y-77114188D01*
X115745820Y-77150498D01*
X115635506Y-77209463D01*
X115538815Y-77288815D01*
X115459463Y-77385506D01*
X115400498Y-77495820D01*
X115379607Y-77564687D01*
X115355134Y-77534866D01*
X115129014Y-77349294D01*
X114871034Y-77211401D01*
X114591111Y-77126487D01*
X114300000Y-77097815D01*
X114008890Y-77126487D01*
X113728967Y-77211401D01*
X113470987Y-77349294D01*
X113244866Y-77534866D01*
X113059294Y-77760986D01*
X112921401Y-78018966D01*
X112836487Y-78298889D01*
X112815000Y-78517050D01*
X100482200Y-78517050D01*
X100545000Y-78454250D01*
X100548072Y-77740000D01*
X100535812Y-77615518D01*
X100499502Y-77495820D01*
X100440537Y-77385506D01*
X100361185Y-77288815D01*
X100264494Y-77209463D01*
X100154180Y-77150498D01*
X100034482Y-77114188D01*
X99910000Y-77101928D01*
X99345750Y-77105000D01*
X99187000Y-77263750D01*
X98933000Y-77263750D01*
X98774250Y-77105000D01*
X98210000Y-77101928D01*
X98085518Y-77114188D01*
X97965820Y-77150498D01*
X97855506Y-77209463D01*
X97758815Y-77288815D01*
X97679463Y-77385506D01*
X97620498Y-77495820D01*
X97599607Y-77564687D01*
X97575134Y-77534866D01*
X97349014Y-77349294D01*
X97091034Y-77211401D01*
X96811111Y-77126487D01*
X96520000Y-77097815D01*
X96228890Y-77126487D01*
X95948967Y-77211401D01*
X95690987Y-77349294D01*
X95464866Y-77534866D01*
X95279294Y-77760986D01*
X95141401Y-78018966D01*
X95056487Y-78298889D01*
X95035000Y-78517050D01*
X92100000Y-78517050D01*
X92100000Y-75350000D01*
X157261928Y-75350000D01*
X157261928Y-77050000D01*
X157274188Y-77174482D01*
X157310498Y-77294180D01*
X157369463Y-77404494D01*
X157448815Y-77501185D01*
X157545506Y-77580537D01*
X157655820Y-77639502D01*
X157736466Y-77663966D01*
X157652412Y-77739731D01*
X157478359Y-77973080D01*
X157353175Y-78235901D01*
X157308524Y-78383110D01*
X157429845Y-78613000D01*
X158623000Y-78613000D01*
X158623000Y-78593000D01*
X158877000Y-78593000D01*
X158877000Y-78613000D01*
X160070155Y-78613000D01*
X160080319Y-78593740D01*
X169965000Y-78593740D01*
X169965000Y-78886260D01*
X170022068Y-79173158D01*
X170134010Y-79443411D01*
X170296525Y-79686632D01*
X170503368Y-79893475D01*
X170677760Y-80010000D01*
X170503368Y-80126525D01*
X170296525Y-80333368D01*
X170134010Y-80576589D01*
X170022068Y-80846842D01*
X169965000Y-81133740D01*
X169965000Y-81426260D01*
X170022068Y-81713158D01*
X170134010Y-81983411D01*
X170296525Y-82226632D01*
X170503368Y-82433475D01*
X170677760Y-82550000D01*
X170503368Y-82666525D01*
X170296525Y-82873368D01*
X170134010Y-83116589D01*
X170022068Y-83386842D01*
X169965000Y-83673740D01*
X169965000Y-83966260D01*
X170022068Y-84253158D01*
X170134010Y-84523411D01*
X170296525Y-84766632D01*
X170503368Y-84973475D01*
X170677760Y-85090000D01*
X170503368Y-85206525D01*
X170296525Y-85413368D01*
X170134010Y-85656589D01*
X170022068Y-85926842D01*
X169965000Y-86213740D01*
X169965000Y-86506260D01*
X170022068Y-86793158D01*
X170134010Y-87063411D01*
X170296525Y-87306632D01*
X170503368Y-87513475D01*
X170677760Y-87630000D01*
X170503368Y-87746525D01*
X170296525Y-87953368D01*
X170134010Y-88196589D01*
X170022068Y-88466842D01*
X169965000Y-88753740D01*
X169965000Y-89046260D01*
X170022068Y-89333158D01*
X170134010Y-89603411D01*
X170296525Y-89846632D01*
X170503368Y-90053475D01*
X170746589Y-90215990D01*
X171016842Y-90327932D01*
X171303740Y-90385000D01*
X171596260Y-90385000D01*
X171883158Y-90327932D01*
X172153411Y-90215990D01*
X172396632Y-90053475D01*
X172603475Y-89846632D01*
X172765990Y-89603411D01*
X172877932Y-89333158D01*
X172935000Y-89046260D01*
X172935000Y-88753740D01*
X172877932Y-88466842D01*
X172765990Y-88196589D01*
X172603475Y-87953368D01*
X172396632Y-87746525D01*
X172222240Y-87630000D01*
X172396632Y-87513475D01*
X172603475Y-87306632D01*
X172765990Y-87063411D01*
X172877932Y-86793158D01*
X172935000Y-86506260D01*
X172935000Y-86213740D01*
X172877932Y-85926842D01*
X172765990Y-85656589D01*
X172603475Y-85413368D01*
X172396632Y-85206525D01*
X172222240Y-85090000D01*
X172396632Y-84973475D01*
X172603475Y-84766632D01*
X172765990Y-84523411D01*
X172877932Y-84253158D01*
X172935000Y-83966260D01*
X172935000Y-83673740D01*
X172877932Y-83386842D01*
X172765990Y-83116589D01*
X172603475Y-82873368D01*
X172396632Y-82666525D01*
X172222240Y-82550000D01*
X172396632Y-82433475D01*
X172603475Y-82226632D01*
X172765990Y-81983411D01*
X172877932Y-81713158D01*
X172935000Y-81426260D01*
X172935000Y-81133740D01*
X172877932Y-80846842D01*
X172765990Y-80576589D01*
X172603475Y-80333368D01*
X172396632Y-80126525D01*
X172222240Y-80010000D01*
X172396632Y-79893475D01*
X172603475Y-79686632D01*
X172765990Y-79443411D01*
X172877932Y-79173158D01*
X172935000Y-78886260D01*
X172935000Y-78593740D01*
X172877932Y-78306842D01*
X172765990Y-78036589D01*
X172603475Y-77793368D01*
X172396632Y-77586525D01*
X172223271Y-77470689D01*
X172298792Y-77228397D01*
X171450000Y-76379605D01*
X170601208Y-77228397D01*
X170676729Y-77470689D01*
X170503368Y-77586525D01*
X170296525Y-77793368D01*
X170134010Y-78036589D01*
X170022068Y-78306842D01*
X169965000Y-78593740D01*
X160080319Y-78593740D01*
X160191476Y-78383110D01*
X160146825Y-78235901D01*
X160021641Y-77973080D01*
X159847588Y-77739731D01*
X159763534Y-77663966D01*
X159844180Y-77639502D01*
X159954494Y-77580537D01*
X160051185Y-77501185D01*
X160130537Y-77404494D01*
X160189502Y-77294180D01*
X160225812Y-77174482D01*
X160238072Y-77050000D01*
X160238072Y-76268531D01*
X169959389Y-76268531D01*
X170001401Y-76558019D01*
X170099081Y-76833747D01*
X170172528Y-76971157D01*
X170421603Y-77048792D01*
X171270395Y-76200000D01*
X171629605Y-76200000D01*
X172478397Y-77048792D01*
X172727472Y-76971157D01*
X172853371Y-76707117D01*
X172925339Y-76423589D01*
X172940611Y-76131469D01*
X172898599Y-75841981D01*
X172800919Y-75566253D01*
X172727472Y-75428843D01*
X172478397Y-75351208D01*
X171629605Y-76200000D01*
X171270395Y-76200000D01*
X170421603Y-75351208D01*
X170172528Y-75428843D01*
X170046629Y-75692883D01*
X169974661Y-75976411D01*
X169959389Y-76268531D01*
X160238072Y-76268531D01*
X160238072Y-75350000D01*
X160225812Y-75225518D01*
X160209458Y-75171603D01*
X170601208Y-75171603D01*
X171450000Y-76020395D01*
X172298792Y-75171603D01*
X172221157Y-74922528D01*
X171957117Y-74796629D01*
X171673589Y-74724661D01*
X171381469Y-74709389D01*
X171091981Y-74751401D01*
X170816253Y-74849081D01*
X170678843Y-74922528D01*
X170601208Y-75171603D01*
X160209458Y-75171603D01*
X160189502Y-75105820D01*
X160130537Y-74995506D01*
X160051185Y-74898815D01*
X159954494Y-74819463D01*
X159844180Y-74760498D01*
X159724482Y-74724188D01*
X159600000Y-74711928D01*
X157900000Y-74711928D01*
X157775518Y-74724188D01*
X157655820Y-74760498D01*
X157545506Y-74819463D01*
X157448815Y-74898815D01*
X157369463Y-74995506D01*
X157310498Y-75105820D01*
X157274188Y-75225518D01*
X157261928Y-75350000D01*
X92100000Y-75350000D01*
X92100000Y-65190000D01*
X102651928Y-65190000D01*
X102651928Y-66890000D01*
X102664188Y-67014482D01*
X102700498Y-67134180D01*
X102759463Y-67244494D01*
X102838815Y-67341185D01*
X102935506Y-67420537D01*
X103045820Y-67479502D01*
X103165518Y-67515812D01*
X103290000Y-67528072D01*
X104990000Y-67528072D01*
X105114482Y-67515812D01*
X105234180Y-67479502D01*
X105344494Y-67420537D01*
X105441185Y-67341185D01*
X105520537Y-67244494D01*
X105579502Y-67134180D01*
X105602498Y-67058374D01*
X105798645Y-67235178D01*
X106048748Y-67384157D01*
X106323109Y-67481481D01*
X106553000Y-67360814D01*
X106553000Y-66167000D01*
X106533000Y-66167000D01*
X106533000Y-65913000D01*
X106553000Y-65913000D01*
X106553000Y-64719186D01*
X106807000Y-64719186D01*
X106807000Y-65913000D01*
X106827000Y-65913000D01*
X106827000Y-66167000D01*
X106807000Y-66167000D01*
X106807000Y-67360814D01*
X107036891Y-67481481D01*
X107311252Y-67384157D01*
X107561355Y-67235178D01*
X107777588Y-67040269D01*
X107948900Y-66810594D01*
X108066525Y-66986632D01*
X108273368Y-67193475D01*
X108516589Y-67355990D01*
X108786842Y-67467932D01*
X109073740Y-67525000D01*
X109366260Y-67525000D01*
X109653158Y-67467932D01*
X109923411Y-67355990D01*
X110166632Y-67193475D01*
X110373475Y-66986632D01*
X110535990Y-66743411D01*
X110647932Y-66473158D01*
X110705000Y-66186260D01*
X110705000Y-65893740D01*
X110647932Y-65606842D01*
X110535990Y-65336589D01*
X110373475Y-65093368D01*
X110166632Y-64886525D01*
X109923411Y-64724010D01*
X109653158Y-64612068D01*
X109366260Y-64555000D01*
X109073740Y-64555000D01*
X108786842Y-64612068D01*
X108516589Y-64724010D01*
X108273368Y-64886525D01*
X108066525Y-65093368D01*
X107948900Y-65269406D01*
X107777588Y-65039731D01*
X107561355Y-64844822D01*
X107311252Y-64695843D01*
X107036891Y-64598519D01*
X106807000Y-64719186D01*
X106553000Y-64719186D01*
X106323109Y-64598519D01*
X106048748Y-64695843D01*
X105798645Y-64844822D01*
X105602498Y-65021626D01*
X105579502Y-64945820D01*
X105520537Y-64835506D01*
X105441185Y-64738815D01*
X105344494Y-64659463D01*
X105234180Y-64600498D01*
X105114482Y-64564188D01*
X104990000Y-64551928D01*
X103290000Y-64551928D01*
X103165518Y-64564188D01*
X103045820Y-64600498D01*
X102935506Y-64659463D01*
X102838815Y-64738815D01*
X102759463Y-64835506D01*
X102700498Y-64945820D01*
X102664188Y-65065518D01*
X102651928Y-65190000D01*
X92100000Y-65190000D01*
X92100000Y-63770000D01*
X133029428Y-63770000D01*
X133029428Y-65770000D01*
X133041688Y-65894482D01*
X133077998Y-66014180D01*
X133136963Y-66124494D01*
X133216315Y-66221185D01*
X133313006Y-66300537D01*
X133423320Y-66359502D01*
X133543018Y-66395812D01*
X133667500Y-66408072D01*
X135572500Y-66408072D01*
X135696982Y-66395812D01*
X135816680Y-66359502D01*
X135926994Y-66300537D01*
X136023685Y-66221185D01*
X136103037Y-66124494D01*
X136147905Y-66040553D01*
X136273766Y-66143845D01*
X136549552Y-66291255D01*
X136848797Y-66382030D01*
X137160000Y-66412681D01*
X137471204Y-66382030D01*
X137770449Y-66291255D01*
X138046235Y-66143845D01*
X138287963Y-65945463D01*
X138435162Y-65766100D01*
X138590563Y-65951315D01*
X138833077Y-66145969D01*
X139108906Y-66289571D01*
X139327020Y-66360563D01*
X139573000Y-66240594D01*
X139573000Y-64897000D01*
X139827000Y-64897000D01*
X139827000Y-66240594D01*
X140072980Y-66360563D01*
X140291094Y-66289571D01*
X140566923Y-66145969D01*
X140809437Y-65951315D01*
X141009316Y-65713089D01*
X141158879Y-65440446D01*
X141252378Y-65143863D01*
X141125570Y-64897000D01*
X139827000Y-64897000D01*
X139573000Y-64897000D01*
X139553000Y-64897000D01*
X139553000Y-64643000D01*
X139573000Y-64643000D01*
X139573000Y-63299406D01*
X139827000Y-63299406D01*
X139827000Y-64643000D01*
X141125570Y-64643000D01*
X141252378Y-64396137D01*
X141158879Y-64099554D01*
X141009316Y-63826911D01*
X140809437Y-63588685D01*
X140566923Y-63394031D01*
X140291094Y-63250429D01*
X140072980Y-63179437D01*
X139827000Y-63299406D01*
X139573000Y-63299406D01*
X139327020Y-63179437D01*
X139108906Y-63250429D01*
X138833077Y-63394031D01*
X138590563Y-63588685D01*
X138435163Y-63773899D01*
X138287963Y-63594537D01*
X138046234Y-63396155D01*
X137770448Y-63248745D01*
X137471203Y-63157970D01*
X137160000Y-63127319D01*
X136848796Y-63157970D01*
X136549551Y-63248745D01*
X136273765Y-63396155D01*
X136147905Y-63499446D01*
X136103037Y-63415506D01*
X136023685Y-63318815D01*
X135926994Y-63239463D01*
X135816680Y-63180498D01*
X135696982Y-63144188D01*
X135572500Y-63131928D01*
X133667500Y-63131928D01*
X133543018Y-63144188D01*
X133423320Y-63180498D01*
X133313006Y-63239463D01*
X133216315Y-63318815D01*
X133136963Y-63415506D01*
X133077998Y-63525820D01*
X133041688Y-63645518D01*
X133029428Y-63770000D01*
X92100000Y-63770000D01*
X92100000Y-62400000D01*
X148121928Y-62400000D01*
X148121928Y-64600000D01*
X148134188Y-64724482D01*
X148170498Y-64844180D01*
X148229463Y-64954494D01*
X148308815Y-65051185D01*
X148405506Y-65130537D01*
X148515820Y-65189502D01*
X148635518Y-65225812D01*
X148760000Y-65238072D01*
X150960000Y-65238072D01*
X151084482Y-65225812D01*
X151204180Y-65189502D01*
X151314494Y-65130537D01*
X151411185Y-65051185D01*
X151490537Y-64954494D01*
X151549502Y-64844180D01*
X151585812Y-64724482D01*
X151598072Y-64600000D01*
X151598072Y-63329117D01*
X158285000Y-63329117D01*
X158285000Y-63670883D01*
X158351675Y-64006081D01*
X158482463Y-64321831D01*
X158672337Y-64605998D01*
X158914002Y-64847663D01*
X159198169Y-65037537D01*
X159513919Y-65168325D01*
X159849117Y-65235000D01*
X160190883Y-65235000D01*
X160526081Y-65168325D01*
X160841831Y-65037537D01*
X161125998Y-64847663D01*
X161367663Y-64605998D01*
X161557537Y-64321831D01*
X161688325Y-64006081D01*
X161755000Y-63670883D01*
X161755000Y-63329117D01*
X161688325Y-62993919D01*
X161557537Y-62678169D01*
X161367663Y-62394002D01*
X161125998Y-62152337D01*
X160841831Y-61962463D01*
X160526081Y-61831675D01*
X160190883Y-61765000D01*
X159849117Y-61765000D01*
X159513919Y-61831675D01*
X159198169Y-61962463D01*
X158914002Y-62152337D01*
X158672337Y-62394002D01*
X158482463Y-62678169D01*
X158351675Y-62993919D01*
X158285000Y-63329117D01*
X151598072Y-63329117D01*
X151598072Y-62400000D01*
X151585812Y-62275518D01*
X151549502Y-62155820D01*
X151490537Y-62045506D01*
X151411185Y-61948815D01*
X151314494Y-61869463D01*
X151204180Y-61810498D01*
X151084482Y-61774188D01*
X150960000Y-61761928D01*
X148760000Y-61761928D01*
X148635518Y-61774188D01*
X148515820Y-61810498D01*
X148405506Y-61869463D01*
X148308815Y-61948815D01*
X148229463Y-62045506D01*
X148170498Y-62155820D01*
X148134188Y-62275518D01*
X148121928Y-62400000D01*
X92100000Y-62400000D01*
X92100000Y-53760000D01*
X119161928Y-53760000D01*
X119161928Y-55460000D01*
X119174188Y-55584482D01*
X119210498Y-55704180D01*
X119269463Y-55814494D01*
X119348815Y-55911185D01*
X119445506Y-55990537D01*
X119555820Y-56049502D01*
X119675518Y-56085812D01*
X119800000Y-56098072D01*
X121500000Y-56098072D01*
X121624482Y-56085812D01*
X121744180Y-56049502D01*
X121854494Y-55990537D01*
X121951185Y-55911185D01*
X122030537Y-55814494D01*
X122089502Y-55704180D01*
X122111513Y-55631620D01*
X122243368Y-55763475D01*
X122486589Y-55925990D01*
X122756842Y-56037932D01*
X123043740Y-56095000D01*
X123336260Y-56095000D01*
X123623158Y-56037932D01*
X123893411Y-55925990D01*
X124136632Y-55763475D01*
X124343475Y-55556632D01*
X124461100Y-55380594D01*
X124632412Y-55610269D01*
X124848645Y-55805178D01*
X125098748Y-55954157D01*
X125373109Y-56051481D01*
X125603000Y-55930814D01*
X125603000Y-54737000D01*
X125857000Y-54737000D01*
X125857000Y-55930814D01*
X126086891Y-56051481D01*
X126361252Y-55954157D01*
X126611355Y-55805178D01*
X126827588Y-55610269D01*
X127001641Y-55376920D01*
X127126825Y-55114099D01*
X127171476Y-54966890D01*
X127050155Y-54737000D01*
X125857000Y-54737000D01*
X125603000Y-54737000D01*
X125583000Y-54737000D01*
X125583000Y-54483000D01*
X125603000Y-54483000D01*
X125603000Y-53289186D01*
X125857000Y-53289186D01*
X125857000Y-54483000D01*
X127050155Y-54483000D01*
X127171476Y-54253110D01*
X127126825Y-54105901D01*
X127001641Y-53843080D01*
X126827588Y-53609731D01*
X126611355Y-53414822D01*
X126361252Y-53265843D01*
X126086891Y-53168519D01*
X125857000Y-53289186D01*
X125603000Y-53289186D01*
X125373109Y-53168519D01*
X125098748Y-53265843D01*
X124848645Y-53414822D01*
X124632412Y-53609731D01*
X124461100Y-53839406D01*
X124343475Y-53663368D01*
X124136632Y-53456525D01*
X123893411Y-53294010D01*
X123623158Y-53182068D01*
X123336260Y-53125000D01*
X123043740Y-53125000D01*
X122756842Y-53182068D01*
X122486589Y-53294010D01*
X122243368Y-53456525D01*
X122111513Y-53588380D01*
X122089502Y-53515820D01*
X122030537Y-53405506D01*
X121951185Y-53308815D01*
X121854494Y-53229463D01*
X121744180Y-53170498D01*
X121624482Y-53134188D01*
X121500000Y-53121928D01*
X119800000Y-53121928D01*
X119675518Y-53134188D01*
X119555820Y-53170498D01*
X119445506Y-53229463D01*
X119348815Y-53308815D01*
X119269463Y-53405506D01*
X119210498Y-53515820D01*
X119174188Y-53635518D01*
X119161928Y-53760000D01*
X92100000Y-53760000D01*
X92100000Y-50829392D01*
X92122269Y-50579872D01*
X94285000Y-50579872D01*
X94285000Y-51020128D01*
X94370890Y-51451925D01*
X94539369Y-51858669D01*
X94783962Y-52224729D01*
X95095271Y-52536038D01*
X95461331Y-52780631D01*
X95868075Y-52949110D01*
X96299872Y-53035000D01*
X96740128Y-53035000D01*
X97171925Y-52949110D01*
X97578669Y-52780631D01*
X97944729Y-52536038D01*
X98256038Y-52224729D01*
X98274565Y-52197000D01*
X136648928Y-52197000D01*
X136648928Y-54483000D01*
X136661188Y-54607482D01*
X136697498Y-54727180D01*
X136756463Y-54837494D01*
X136835815Y-54934185D01*
X136932506Y-55013537D01*
X137042820Y-55072502D01*
X137162518Y-55108812D01*
X137287000Y-55121072D01*
X139573000Y-55121072D01*
X139697482Y-55108812D01*
X139817180Y-55072502D01*
X139927494Y-55013537D01*
X140024185Y-54934185D01*
X140103537Y-54837494D01*
X140162502Y-54727180D01*
X140198812Y-54607482D01*
X140201778Y-54577360D01*
X142452245Y-54577360D01*
X142565264Y-54856384D01*
X142879249Y-55011556D01*
X143217473Y-55102491D01*
X143566938Y-55125694D01*
X143914216Y-55080275D01*
X144245960Y-54967977D01*
X144454736Y-54856384D01*
X144567755Y-54577360D01*
X143510000Y-53519605D01*
X142452245Y-54577360D01*
X140201778Y-54577360D01*
X140211072Y-54483000D01*
X140211072Y-53396938D01*
X141724306Y-53396938D01*
X141769725Y-53744216D01*
X141882023Y-54075960D01*
X141993616Y-54284736D01*
X142272640Y-54397755D01*
X143330395Y-53340000D01*
X143689605Y-53340000D01*
X144747360Y-54397755D01*
X145026384Y-54284736D01*
X145181556Y-53970751D01*
X145272491Y-53632527D01*
X145295694Y-53283062D01*
X145250275Y-52935784D01*
X145137977Y-52604040D01*
X145026384Y-52395264D01*
X144747360Y-52282245D01*
X143689605Y-53340000D01*
X143330395Y-53340000D01*
X142272640Y-52282245D01*
X141993616Y-52395264D01*
X141838444Y-52709249D01*
X141747509Y-53047473D01*
X141724306Y-53396938D01*
X140211072Y-53396938D01*
X140211072Y-52197000D01*
X140201779Y-52102640D01*
X142452245Y-52102640D01*
X143510000Y-53160395D01*
X144473395Y-52197000D01*
X151888928Y-52197000D01*
X151888928Y-54483000D01*
X151901188Y-54607482D01*
X151937498Y-54727180D01*
X151996463Y-54837494D01*
X152075815Y-54934185D01*
X152172506Y-55013537D01*
X152282820Y-55072502D01*
X152402518Y-55108812D01*
X152527000Y-55121072D01*
X154813000Y-55121072D01*
X154937482Y-55108812D01*
X155057180Y-55072502D01*
X155167494Y-55013537D01*
X155264185Y-54934185D01*
X155343537Y-54837494D01*
X155402502Y-54727180D01*
X155438812Y-54607482D01*
X155451072Y-54483000D01*
X155451072Y-53164882D01*
X156972000Y-53164882D01*
X156972000Y-53515118D01*
X157040328Y-53858623D01*
X157174357Y-54182199D01*
X157368937Y-54473409D01*
X157616591Y-54721063D01*
X157907801Y-54915643D01*
X158231377Y-55049672D01*
X158574882Y-55118000D01*
X158925118Y-55118000D01*
X159268623Y-55049672D01*
X159592199Y-54915643D01*
X159883409Y-54721063D01*
X160131063Y-54473409D01*
X160325643Y-54182199D01*
X160459672Y-53858623D01*
X160528000Y-53515118D01*
X160528000Y-53164882D01*
X160459672Y-52821377D01*
X160325643Y-52497801D01*
X160131063Y-52206591D01*
X159883409Y-51958937D01*
X159592199Y-51764357D01*
X159268623Y-51630328D01*
X158925118Y-51562000D01*
X158574882Y-51562000D01*
X158231377Y-51630328D01*
X157907801Y-51764357D01*
X157616591Y-51958937D01*
X157368937Y-52206591D01*
X157174357Y-52497801D01*
X157040328Y-52821377D01*
X156972000Y-53164882D01*
X155451072Y-53164882D01*
X155451072Y-52197000D01*
X155438812Y-52072518D01*
X155402502Y-51952820D01*
X155343537Y-51842506D01*
X155264185Y-51745815D01*
X155167494Y-51666463D01*
X155057180Y-51607498D01*
X154937482Y-51571188D01*
X154813000Y-51558928D01*
X152527000Y-51558928D01*
X152402518Y-51571188D01*
X152282820Y-51607498D01*
X152172506Y-51666463D01*
X152075815Y-51745815D01*
X151996463Y-51842506D01*
X151937498Y-51952820D01*
X151901188Y-52072518D01*
X151888928Y-52197000D01*
X144473395Y-52197000D01*
X144567755Y-52102640D01*
X144454736Y-51823616D01*
X144140751Y-51668444D01*
X143802527Y-51577509D01*
X143453062Y-51554306D01*
X143105784Y-51599725D01*
X142774040Y-51712023D01*
X142565264Y-51823616D01*
X142452245Y-52102640D01*
X140201779Y-52102640D01*
X140198812Y-52072518D01*
X140162502Y-51952820D01*
X140103537Y-51842506D01*
X140024185Y-51745815D01*
X139927494Y-51666463D01*
X139817180Y-51607498D01*
X139697482Y-51571188D01*
X139573000Y-51558928D01*
X137287000Y-51558928D01*
X137162518Y-51571188D01*
X137042820Y-51607498D01*
X136932506Y-51666463D01*
X136835815Y-51745815D01*
X136756463Y-51842506D01*
X136697498Y-51952820D01*
X136661188Y-52072518D01*
X136648928Y-52197000D01*
X98274565Y-52197000D01*
X98500631Y-51858669D01*
X98669110Y-51451925D01*
X98755000Y-51020128D01*
X98755000Y-50579872D01*
X170485000Y-50579872D01*
X170485000Y-51020128D01*
X170570890Y-51451925D01*
X170739369Y-51858669D01*
X170983962Y-52224729D01*
X171295271Y-52536038D01*
X171661331Y-52780631D01*
X172068075Y-52949110D01*
X172499872Y-53035000D01*
X172940128Y-53035000D01*
X173371925Y-52949110D01*
X173778669Y-52780631D01*
X174144729Y-52536038D01*
X174456038Y-52224729D01*
X174700631Y-51858669D01*
X174869110Y-51451925D01*
X174955000Y-51020128D01*
X174955000Y-50579872D01*
X174869110Y-50148075D01*
X174700631Y-49741331D01*
X174456038Y-49375271D01*
X174144729Y-49063962D01*
X173778669Y-48819369D01*
X173371925Y-48650890D01*
X172940128Y-48565000D01*
X172499872Y-48565000D01*
X172068075Y-48650890D01*
X171661331Y-48819369D01*
X171295271Y-49063962D01*
X170983962Y-49375271D01*
X170739369Y-49741331D01*
X170570890Y-50148075D01*
X170485000Y-50579872D01*
X98755000Y-50579872D01*
X98669110Y-50148075D01*
X98500631Y-49741331D01*
X98256038Y-49375271D01*
X97944729Y-49063962D01*
X97578669Y-48819369D01*
X97171925Y-48650890D01*
X96740128Y-48565000D01*
X96299872Y-48565000D01*
X95868075Y-48650890D01*
X95461331Y-48819369D01*
X95095271Y-49063962D01*
X94783962Y-49375271D01*
X94539369Y-49741331D01*
X94370890Y-50148075D01*
X94285000Y-50579872D01*
X92122269Y-50579872D01*
X92172437Y-50017751D01*
X92379672Y-49260226D01*
X92717777Y-48551375D01*
X93176067Y-47913596D01*
X93740055Y-47367054D01*
X94391913Y-46929023D01*
X95111038Y-46613349D01*
X95879768Y-46428794D01*
X96544207Y-46380000D01*
X172690608Y-46380000D01*
X173502249Y-46452437D01*
G37*
X173502249Y-46452437D02*
X174259774Y-46659672D01*
X174968625Y-46997777D01*
X175606404Y-47456067D01*
X176152946Y-48020055D01*
X176590977Y-48671913D01*
X176906651Y-49391038D01*
X177091206Y-50159768D01*
X177140001Y-50824221D01*
X177140000Y-126970608D01*
X177067563Y-127782249D01*
X176860328Y-128539774D01*
X176522221Y-129248627D01*
X176063928Y-129886410D01*
X175499945Y-130432946D01*
X174848085Y-130870978D01*
X174128963Y-131186651D01*
X173360232Y-131371206D01*
X172695792Y-131420000D01*
X96549392Y-131420000D01*
X95737751Y-131347563D01*
X94980226Y-131140328D01*
X94271373Y-130802221D01*
X93633590Y-130343928D01*
X93087054Y-129779945D01*
X92649022Y-129128085D01*
X92333349Y-128408963D01*
X92148794Y-127640232D01*
X92100000Y-126975792D01*
X92100000Y-126779872D01*
X94285000Y-126779872D01*
X94285000Y-127220128D01*
X94370890Y-127651925D01*
X94539369Y-128058669D01*
X94783962Y-128424729D01*
X95095271Y-128736038D01*
X95461331Y-128980631D01*
X95868075Y-129149110D01*
X96299872Y-129235000D01*
X96740128Y-129235000D01*
X97171925Y-129149110D01*
X97578669Y-128980631D01*
X97944729Y-128736038D01*
X98256038Y-128424729D01*
X98500631Y-128058669D01*
X98669110Y-127651925D01*
X98755000Y-127220128D01*
X98755000Y-126779872D01*
X170485000Y-126779872D01*
X170485000Y-127220128D01*
X170570890Y-127651925D01*
X170739369Y-128058669D01*
X170983962Y-128424729D01*
X171295271Y-128736038D01*
X171661331Y-128980631D01*
X172068075Y-129149110D01*
X172499872Y-129235000D01*
X172940128Y-129235000D01*
X173371925Y-129149110D01*
X173778669Y-128980631D01*
X174144729Y-128736038D01*
X174456038Y-128424729D01*
X174700631Y-128058669D01*
X174869110Y-127651925D01*
X174955000Y-127220128D01*
X174955000Y-126779872D01*
X174869110Y-126348075D01*
X174700631Y-125941331D01*
X174456038Y-125575271D01*
X174144729Y-125263962D01*
X173778669Y-125019369D01*
X173371925Y-124850890D01*
X172940128Y-124765000D01*
X172499872Y-124765000D01*
X172068075Y-124850890D01*
X171661331Y-125019369D01*
X171295271Y-125263962D01*
X170983962Y-125575271D01*
X170739369Y-125941331D01*
X170570890Y-126348075D01*
X170485000Y-126779872D01*
X98755000Y-126779872D01*
X98669110Y-126348075D01*
X98500631Y-125941331D01*
X98256038Y-125575271D01*
X97944729Y-125263962D01*
X97578669Y-125019369D01*
X97171925Y-124850890D01*
X96740128Y-124765000D01*
X96299872Y-124765000D01*
X95868075Y-124850890D01*
X95461331Y-125019369D01*
X95095271Y-125263962D01*
X94783962Y-125575271D01*
X94539369Y-125941331D01*
X94370890Y-126348075D01*
X94285000Y-126779872D01*
X92100000Y-126779872D01*
X92100000Y-115347050D01*
X110275000Y-115347050D01*
X110275000Y-115792949D01*
X110296487Y-116011110D01*
X110381401Y-116291033D01*
X110519294Y-116549013D01*
X110704866Y-116775134D01*
X110930986Y-116960706D01*
X111188966Y-117098599D01*
X111468889Y-117183513D01*
X111760000Y-117212185D01*
X112051110Y-117183513D01*
X112331033Y-117098599D01*
X112589013Y-116960706D01*
X112815134Y-116775134D01*
X112839607Y-116745313D01*
X112860498Y-116814180D01*
X112919463Y-116924494D01*
X112998815Y-117021185D01*
X113095506Y-117100537D01*
X113205820Y-117159502D01*
X113325518Y-117195812D01*
X113450000Y-117208072D01*
X114014250Y-117205000D01*
X114173000Y-117046250D01*
X114173000Y-115697000D01*
X114427000Y-115697000D01*
X114427000Y-117046250D01*
X114585750Y-117205000D01*
X115150000Y-117208072D01*
X115274482Y-117195812D01*
X115394180Y-117159502D01*
X115504494Y-117100537D01*
X115601185Y-117021185D01*
X115680537Y-116924494D01*
X115739502Y-116814180D01*
X115775812Y-116694482D01*
X115788072Y-116570000D01*
X115785000Y-115855750D01*
X115626250Y-115697000D01*
X114427000Y-115697000D01*
X114173000Y-115697000D01*
X114153000Y-115697000D01*
X114153000Y-115443000D01*
X114173000Y-115443000D01*
X114173000Y-114093750D01*
X114427000Y-114093750D01*
X114427000Y-115443000D01*
X115626250Y-115443000D01*
X115722200Y-115347050D01*
X128055000Y-115347050D01*
X128055000Y-115792949D01*
X128076487Y-116011110D01*
X128161401Y-116291033D01*
X128299294Y-116549013D01*
X128484866Y-116775134D01*
X128710986Y-116960706D01*
X128968966Y-117098599D01*
X129248889Y-117183513D01*
X129540000Y-117212185D01*
X129831110Y-117183513D01*
X130111033Y-117098599D01*
X130369013Y-116960706D01*
X130595134Y-116775134D01*
X130619607Y-116745313D01*
X130640498Y-116814180D01*
X130699463Y-116924494D01*
X130778815Y-117021185D01*
X130875506Y-117100537D01*
X130985820Y-117159502D01*
X131105518Y-117195812D01*
X131230000Y-117208072D01*
X131794250Y-117205000D01*
X131953000Y-117046250D01*
X131953000Y-115697000D01*
X132207000Y-115697000D01*
X132207000Y-117046250D01*
X132365750Y-117205000D01*
X132930000Y-117208072D01*
X133054482Y-117195812D01*
X133174180Y-117159502D01*
X133284494Y-117100537D01*
X133381185Y-117021185D01*
X133460537Y-116924494D01*
X133519502Y-116814180D01*
X133555812Y-116694482D01*
X133563438Y-116617050D01*
X150915000Y-116617050D01*
X150915000Y-117062949D01*
X150936487Y-117281110D01*
X151021401Y-117561033D01*
X151159294Y-117819013D01*
X151344866Y-118045134D01*
X151570986Y-118230706D01*
X151828966Y-118368599D01*
X152108889Y-118453513D01*
X152400000Y-118482185D01*
X152691110Y-118453513D01*
X152971033Y-118368599D01*
X153229013Y-118230706D01*
X153455134Y-118045134D01*
X153479607Y-118015313D01*
X153500498Y-118084180D01*
X153559463Y-118194494D01*
X153638815Y-118291185D01*
X153735506Y-118370537D01*
X153845820Y-118429502D01*
X153965518Y-118465812D01*
X154090000Y-118478072D01*
X154654250Y-118475000D01*
X154813000Y-118316250D01*
X154813000Y-116967000D01*
X155067000Y-116967000D01*
X155067000Y-118316250D01*
X155225750Y-118475000D01*
X155790000Y-118478072D01*
X155914482Y-118465812D01*
X156034180Y-118429502D01*
X156144494Y-118370537D01*
X156241185Y-118291185D01*
X156320537Y-118194494D01*
X156379502Y-118084180D01*
X156415812Y-117964482D01*
X156428072Y-117840000D01*
X156425000Y-117125750D01*
X156266250Y-116967000D01*
X155067000Y-116967000D01*
X154813000Y-116967000D01*
X154793000Y-116967000D01*
X154793000Y-116713000D01*
X154813000Y-116713000D01*
X154813000Y-115363750D01*
X155067000Y-115363750D01*
X155067000Y-116713000D01*
X156266250Y-116713000D01*
X156362200Y-116617050D01*
X168695000Y-116617050D01*
X168695000Y-117062949D01*
X168716487Y-117281110D01*
X168801401Y-117561033D01*
X168939294Y-117819013D01*
X169124866Y-118045134D01*
X169350986Y-118230706D01*
X169608966Y-118368599D01*
X169888889Y-118453513D01*
X170180000Y-118482185D01*
X170471110Y-118453513D01*
X170751033Y-118368599D01*
X171009013Y-118230706D01*
X171235134Y-118045134D01*
X171259607Y-118015313D01*
X171280498Y-118084180D01*
X171339463Y-118194494D01*
X171418815Y-118291185D01*
X171515506Y-118370537D01*
X171625820Y-118429502D01*
X171745518Y-118465812D01*
X171870000Y-118478072D01*
X172434250Y-118475000D01*
X172593000Y-118316250D01*
X172593000Y-116967000D01*
X172847000Y-116967000D01*
X172847000Y-118316250D01*
X173005750Y-118475000D01*
X173570000Y-118478072D01*
X173694482Y-118465812D01*
X173814180Y-118429502D01*
X173924494Y-118370537D01*
X174021185Y-118291185D01*
X174100537Y-118194494D01*
X174159502Y-118084180D01*
X174195812Y-117964482D01*
X174208072Y-117840000D01*
X174205000Y-117125750D01*
X174046250Y-116967000D01*
X172847000Y-116967000D01*
X172593000Y-116967000D01*
X172573000Y-116967000D01*
X172573000Y-116713000D01*
X172593000Y-116713000D01*
X172593000Y-115363750D01*
X172847000Y-115363750D01*
X172847000Y-116713000D01*
X174046250Y-116713000D01*
X174205000Y-116554250D01*
X174208072Y-115840000D01*
X174195812Y-115715518D01*
X174159502Y-115595820D01*
X174100537Y-115485506D01*
X174021185Y-115388815D01*
X173924494Y-115309463D01*
X173814180Y-115250498D01*
X173694482Y-115214188D01*
X173570000Y-115201928D01*
X173005750Y-115205000D01*
X172847000Y-115363750D01*
X172593000Y-115363750D01*
X172434250Y-115205000D01*
X171870000Y-115201928D01*
X171745518Y-115214188D01*
X171625820Y-115250498D01*
X171515506Y-115309463D01*
X171418815Y-115388815D01*
X171339463Y-115485506D01*
X171280498Y-115595820D01*
X171259607Y-115664687D01*
X171235134Y-115634866D01*
X171009014Y-115449294D01*
X170751034Y-115311401D01*
X170471111Y-115226487D01*
X170180000Y-115197815D01*
X169888890Y-115226487D01*
X169608967Y-115311401D01*
X169350987Y-115449294D01*
X169124866Y-115634866D01*
X168939294Y-115860986D01*
X168801401Y-116118966D01*
X168716487Y-116398889D01*
X168695000Y-116617050D01*
X156362200Y-116617050D01*
X156425000Y-116554250D01*
X156428072Y-115840000D01*
X156415812Y-115715518D01*
X156379502Y-115595820D01*
X156320537Y-115485506D01*
X156241185Y-115388815D01*
X156144494Y-115309463D01*
X156034180Y-115250498D01*
X155914482Y-115214188D01*
X155790000Y-115201928D01*
X155225750Y-115205000D01*
X155067000Y-115363750D01*
X154813000Y-115363750D01*
X154654250Y-115205000D01*
X154090000Y-115201928D01*
X153965518Y-115214188D01*
X153845820Y-115250498D01*
X153735506Y-115309463D01*
X153638815Y-115388815D01*
X153559463Y-115485506D01*
X153500498Y-115595820D01*
X153479607Y-115664687D01*
X153455134Y-115634866D01*
X153229014Y-115449294D01*
X152971034Y-115311401D01*
X152691111Y-115226487D01*
X152400000Y-115197815D01*
X152108890Y-115226487D01*
X151828967Y-115311401D01*
X151570987Y-115449294D01*
X151344866Y-115634866D01*
X151159294Y-115860986D01*
X151021401Y-116118966D01*
X150936487Y-116398889D01*
X150915000Y-116617050D01*
X133563438Y-116617050D01*
X133568072Y-116570000D01*
X133565000Y-115855750D01*
X133406250Y-115697000D01*
X132207000Y-115697000D01*
X131953000Y-115697000D01*
X131933000Y-115697000D01*
X131933000Y-115443000D01*
X131953000Y-115443000D01*
X131953000Y-114093750D01*
X132207000Y-114093750D01*
X132207000Y-115443000D01*
X133406250Y-115443000D01*
X133565000Y-115284250D01*
X133568072Y-114570000D01*
X133555812Y-114445518D01*
X133519502Y-114325820D01*
X133460537Y-114215506D01*
X133381185Y-114118815D01*
X133284494Y-114039463D01*
X133174180Y-113980498D01*
X133054482Y-113944188D01*
X132930000Y-113931928D01*
X132365750Y-113935000D01*
X132207000Y-114093750D01*
X131953000Y-114093750D01*
X131794250Y-113935000D01*
X131230000Y-113931928D01*
X131105518Y-113944188D01*
X130985820Y-113980498D01*
X130875506Y-114039463D01*
X130778815Y-114118815D01*
X130699463Y-114215506D01*
X130640498Y-114325820D01*
X130619607Y-114394687D01*
X130595134Y-114364866D01*
X130369014Y-114179294D01*
X130111034Y-114041401D01*
X129831111Y-113956487D01*
X129540000Y-113927815D01*
X129248890Y-113956487D01*
X128968967Y-114041401D01*
X128710987Y-114179294D01*
X128484866Y-114364866D01*
X128299294Y-114590986D01*
X128161401Y-114848966D01*
X128076487Y-115128889D01*
X128055000Y-115347050D01*
X115722200Y-115347050D01*
X115785000Y-115284250D01*
X115788072Y-114570000D01*
X115775812Y-114445518D01*
X115739502Y-114325820D01*
X115680537Y-114215506D01*
X115601185Y-114118815D01*
X115504494Y-114039463D01*
X115394180Y-113980498D01*
X115274482Y-113944188D01*
X115150000Y-113931928D01*
X114585750Y-113935000D01*
X114427000Y-114093750D01*
X114173000Y-114093750D01*
X114014250Y-113935000D01*
X113450000Y-113931928D01*
X113325518Y-113944188D01*
X113205820Y-113980498D01*
X113095506Y-114039463D01*
X112998815Y-114118815D01*
X112919463Y-114215506D01*
X112860498Y-114325820D01*
X112839607Y-114394687D01*
X112815134Y-114364866D01*
X112589014Y-114179294D01*
X112331034Y-114041401D01*
X112051111Y-113956487D01*
X111760000Y-113927815D01*
X111468890Y-113956487D01*
X111188967Y-114041401D01*
X110930987Y-114179294D01*
X110704866Y-114364866D01*
X110519294Y-114590986D01*
X110381401Y-114848966D01*
X110296487Y-115128889D01*
X110275000Y-115347050D01*
X92100000Y-115347050D01*
X92100000Y-103917050D01*
X150915000Y-103917050D01*
X150915000Y-104362949D01*
X150936487Y-104581110D01*
X151021401Y-104861033D01*
X151159294Y-105119013D01*
X151344866Y-105345134D01*
X151570986Y-105530706D01*
X151828966Y-105668599D01*
X152108889Y-105753513D01*
X152400000Y-105782185D01*
X152691110Y-105753513D01*
X152971033Y-105668599D01*
X153229013Y-105530706D01*
X153455134Y-105345134D01*
X153479607Y-105315313D01*
X153500498Y-105384180D01*
X153559463Y-105494494D01*
X153638815Y-105591185D01*
X153735506Y-105670537D01*
X153845820Y-105729502D01*
X153965518Y-105765812D01*
X154090000Y-105778072D01*
X154654250Y-105775000D01*
X154813000Y-105616250D01*
X154813000Y-104267000D01*
X155067000Y-104267000D01*
X155067000Y-105616250D01*
X155225750Y-105775000D01*
X155790000Y-105778072D01*
X155914482Y-105765812D01*
X156034180Y-105729502D01*
X156144494Y-105670537D01*
X156241185Y-105591185D01*
X156320537Y-105494494D01*
X156379502Y-105384180D01*
X156415812Y-105264482D01*
X156428072Y-105140000D01*
X156425000Y-104425750D01*
X156266250Y-104267000D01*
X155067000Y-104267000D01*
X154813000Y-104267000D01*
X154793000Y-104267000D01*
X154793000Y-104013000D01*
X154813000Y-104013000D01*
X154813000Y-102663750D01*
X155067000Y-102663750D01*
X155067000Y-104013000D01*
X156266250Y-104013000D01*
X156362200Y-103917050D01*
X168695000Y-103917050D01*
X168695000Y-104362949D01*
X168716487Y-104581110D01*
X168801401Y-104861033D01*
X168939294Y-105119013D01*
X169124866Y-105345134D01*
X169350986Y-105530706D01*
X169608966Y-105668599D01*
X169888889Y-105753513D01*
X170180000Y-105782185D01*
X170471110Y-105753513D01*
X170751033Y-105668599D01*
X171009013Y-105530706D01*
X171235134Y-105345134D01*
X171259607Y-105315313D01*
X171280498Y-105384180D01*
X171339463Y-105494494D01*
X171418815Y-105591185D01*
X171515506Y-105670537D01*
X171625820Y-105729502D01*
X171745518Y-105765812D01*
X171870000Y-105778072D01*
X172434250Y-105775000D01*
X172593000Y-105616250D01*
X172593000Y-104267000D01*
X172847000Y-104267000D01*
X172847000Y-105616250D01*
X173005750Y-105775000D01*
X173570000Y-105778072D01*
X173694482Y-105765812D01*
X173814180Y-105729502D01*
X173924494Y-105670537D01*
X174021185Y-105591185D01*
X174100537Y-105494494D01*
X174159502Y-105384180D01*
X174195812Y-105264482D01*
X174208072Y-105140000D01*
X174205000Y-104425750D01*
X174046250Y-104267000D01*
X172847000Y-104267000D01*
X172593000Y-104267000D01*
X172573000Y-104267000D01*
X172573000Y-104013000D01*
X172593000Y-104013000D01*
X172593000Y-102663750D01*
X172847000Y-102663750D01*
X172847000Y-104013000D01*
X174046250Y-104013000D01*
X174205000Y-103854250D01*
X174208072Y-103140000D01*
X174195812Y-103015518D01*
X174159502Y-102895820D01*
X174100537Y-102785506D01*
X174021185Y-102688815D01*
X173924494Y-102609463D01*
X173814180Y-102550498D01*
X173694482Y-102514188D01*
X173570000Y-102501928D01*
X173005750Y-102505000D01*
X172847000Y-102663750D01*
X172593000Y-102663750D01*
X172434250Y-102505000D01*
X171870000Y-102501928D01*
X171745518Y-102514188D01*
X171625820Y-102550498D01*
X171515506Y-102609463D01*
X171418815Y-102688815D01*
X171339463Y-102785506D01*
X171280498Y-102895820D01*
X171259607Y-102964687D01*
X171235134Y-102934866D01*
X171009014Y-102749294D01*
X170751034Y-102611401D01*
X170471111Y-102526487D01*
X170180000Y-102497815D01*
X169888890Y-102526487D01*
X169608967Y-102611401D01*
X169350987Y-102749294D01*
X169124866Y-102934866D01*
X168939294Y-103160986D01*
X168801401Y-103418966D01*
X168716487Y-103698889D01*
X168695000Y-103917050D01*
X156362200Y-103917050D01*
X156425000Y-103854250D01*
X156428072Y-103140000D01*
X156415812Y-103015518D01*
X156379502Y-102895820D01*
X156320537Y-102785506D01*
X156241185Y-102688815D01*
X156144494Y-102609463D01*
X156034180Y-102550498D01*
X155914482Y-102514188D01*
X155790000Y-102501928D01*
X155225750Y-102505000D01*
X155067000Y-102663750D01*
X154813000Y-102663750D01*
X154654250Y-102505000D01*
X154090000Y-102501928D01*
X153965518Y-102514188D01*
X153845820Y-102550498D01*
X153735506Y-102609463D01*
X153638815Y-102688815D01*
X153559463Y-102785506D01*
X153500498Y-102895820D01*
X153479607Y-102964687D01*
X153455134Y-102934866D01*
X153229014Y-102749294D01*
X152971034Y-102611401D01*
X152691111Y-102526487D01*
X152400000Y-102497815D01*
X152108890Y-102526487D01*
X151828967Y-102611401D01*
X151570987Y-102749294D01*
X151344866Y-102934866D01*
X151159294Y-103160986D01*
X151021401Y-103418966D01*
X150936487Y-103698889D01*
X150915000Y-103917050D01*
X92100000Y-103917050D01*
X92100000Y-91217050D01*
X95035000Y-91217050D01*
X95035000Y-91662949D01*
X95056487Y-91881110D01*
X95141401Y-92161033D01*
X95279294Y-92419013D01*
X95464866Y-92645134D01*
X95690986Y-92830706D01*
X95948966Y-92968599D01*
X96228889Y-93053513D01*
X96520000Y-93082185D01*
X96811110Y-93053513D01*
X97091033Y-92968599D01*
X97349013Y-92830706D01*
X97575134Y-92645134D01*
X97599607Y-92615313D01*
X97620498Y-92684180D01*
X97679463Y-92794494D01*
X97758815Y-92891185D01*
X97855506Y-92970537D01*
X97965820Y-93029502D01*
X98085518Y-93065812D01*
X98210000Y-93078072D01*
X98774250Y-93075000D01*
X98933000Y-92916250D01*
X98933000Y-91567000D01*
X99187000Y-91567000D01*
X99187000Y-92916250D01*
X99345750Y-93075000D01*
X99910000Y-93078072D01*
X100034482Y-93065812D01*
X100154180Y-93029502D01*
X100264494Y-92970537D01*
X100361185Y-92891185D01*
X100440537Y-92794494D01*
X100499502Y-92684180D01*
X100535812Y-92564482D01*
X100548072Y-92440000D01*
X100545000Y-91725750D01*
X100386250Y-91567000D01*
X99187000Y-91567000D01*
X98933000Y-91567000D01*
X98913000Y-91567000D01*
X98913000Y-91313000D01*
X98933000Y-91313000D01*
X98933000Y-89963750D01*
X99187000Y-89963750D01*
X99187000Y-91313000D01*
X100386250Y-91313000D01*
X100482200Y-91217050D01*
X112815000Y-91217050D01*
X112815000Y-91662949D01*
X112836487Y-91881110D01*
X112921401Y-92161033D01*
X113059294Y-92419013D01*
X113244866Y-92645134D01*
X113470986Y-92830706D01*
X113728966Y-92968599D01*
X114008889Y-93053513D01*
X114300000Y-93082185D01*
X114591110Y-93053513D01*
X114871033Y-92968599D01*
X115129013Y-92830706D01*
X115355134Y-92645134D01*
X115379607Y-92615313D01*
X115400498Y-92684180D01*
X115459463Y-92794494D01*
X115538815Y-92891185D01*
X115635506Y-92970537D01*
X115745820Y-93029502D01*
X115865518Y-93065812D01*
X115990000Y-93078072D01*
X116554250Y-93075000D01*
X116713000Y-92916250D01*
X116713000Y-91567000D01*
X116967000Y-91567000D01*
X116967000Y-92916250D01*
X117125750Y-93075000D01*
X117690000Y-93078072D01*
X117814482Y-93065812D01*
X117934180Y-93029502D01*
X118044494Y-92970537D01*
X118141185Y-92891185D01*
X118220537Y-92794494D01*
X118279502Y-92684180D01*
X118315812Y-92564482D01*
X118328072Y-92440000D01*
X118325000Y-91725750D01*
X118166250Y-91567000D01*
X116967000Y-91567000D01*
X116713000Y-91567000D01*
X116693000Y-91567000D01*
X116693000Y-91313000D01*
X116713000Y-91313000D01*
X116713000Y-89963750D01*
X116967000Y-89963750D01*
X116967000Y-91313000D01*
X118166250Y-91313000D01*
X118325000Y-91154250D01*
X118328072Y-90440000D01*
X118315812Y-90315518D01*
X118279502Y-90195820D01*
X118220537Y-90085506D01*
X118141185Y-89988815D01*
X118044494Y-89909463D01*
X117934180Y-89850498D01*
X117814482Y-89814188D01*
X117690000Y-89801928D01*
X117125750Y-89805000D01*
X116967000Y-89963750D01*
X116713000Y-89963750D01*
X116554250Y-89805000D01*
X115990000Y-89801928D01*
X115865518Y-89814188D01*
X115745820Y-89850498D01*
X115635506Y-89909463D01*
X115538815Y-89988815D01*
X115459463Y-90085506D01*
X115400498Y-90195820D01*
X115379607Y-90264687D01*
X115355134Y-90234866D01*
X115129014Y-90049294D01*
X114871034Y-89911401D01*
X114591111Y-89826487D01*
X114300000Y-89797815D01*
X114008890Y-89826487D01*
X113728967Y-89911401D01*
X113470987Y-90049294D01*
X113244866Y-90234866D01*
X113059294Y-90460986D01*
X112921401Y-90718966D01*
X112836487Y-90998889D01*
X112815000Y-91217050D01*
X100482200Y-91217050D01*
X100545000Y-91154250D01*
X100548072Y-90440000D01*
X100535812Y-90315518D01*
X100499502Y-90195820D01*
X100440537Y-90085506D01*
X100361185Y-89988815D01*
X100264494Y-89909463D01*
X100154180Y-89850498D01*
X100034482Y-89814188D01*
X99910000Y-89801928D01*
X99345750Y-89805000D01*
X99187000Y-89963750D01*
X98933000Y-89963750D01*
X98774250Y-89805000D01*
X98210000Y-89801928D01*
X98085518Y-89814188D01*
X97965820Y-89850498D01*
X97855506Y-89909463D01*
X97758815Y-89988815D01*
X97679463Y-90085506D01*
X97620498Y-90195820D01*
X97599607Y-90264687D01*
X97575134Y-90234866D01*
X97349014Y-90049294D01*
X97091034Y-89911401D01*
X96811111Y-89826487D01*
X96520000Y-89797815D01*
X96228890Y-89826487D01*
X95948967Y-89911401D01*
X95690987Y-90049294D01*
X95464866Y-90234866D01*
X95279294Y-90460986D01*
X95141401Y-90718966D01*
X95056487Y-90998889D01*
X95035000Y-91217050D01*
X92100000Y-91217050D01*
X92100000Y-82396700D01*
X124589908Y-82396700D01*
X124602168Y-82521182D01*
X124638478Y-82640880D01*
X124697443Y-82751194D01*
X124776795Y-82847885D01*
X124873486Y-82927237D01*
X124983800Y-82986202D01*
X125056360Y-83008213D01*
X124924505Y-83140068D01*
X124761990Y-83383289D01*
X124650048Y-83653542D01*
X124592980Y-83940440D01*
X124592980Y-84232960D01*
X124650048Y-84519858D01*
X124761990Y-84790111D01*
X124924505Y-85033332D01*
X125131348Y-85240175D01*
X125305740Y-85356700D01*
X125131348Y-85473225D01*
X124924505Y-85680068D01*
X124761990Y-85923289D01*
X124650048Y-86193542D01*
X124592980Y-86480440D01*
X124592980Y-86772960D01*
X124650048Y-87059858D01*
X124761990Y-87330111D01*
X124924505Y-87573332D01*
X125131348Y-87780175D01*
X125305740Y-87896700D01*
X125131348Y-88013225D01*
X124924505Y-88220068D01*
X124761990Y-88463289D01*
X124650048Y-88733542D01*
X124592980Y-89020440D01*
X124592980Y-89312960D01*
X124650048Y-89599858D01*
X124761990Y-89870111D01*
X124924505Y-90113332D01*
X125131348Y-90320175D01*
X125305740Y-90436700D01*
X125131348Y-90553225D01*
X124924505Y-90760068D01*
X124761990Y-91003289D01*
X124650048Y-91273542D01*
X124592980Y-91560440D01*
X124592980Y-91852960D01*
X124650048Y-92139858D01*
X124761990Y-92410111D01*
X124924505Y-92653332D01*
X125131348Y-92860175D01*
X125305740Y-92976700D01*
X125131348Y-93093225D01*
X124924505Y-93300068D01*
X124761990Y-93543289D01*
X124650048Y-93813542D01*
X124592980Y-94100440D01*
X124592980Y-94392960D01*
X124650048Y-94679858D01*
X124761990Y-94950111D01*
X124924505Y-95193332D01*
X125131348Y-95400175D01*
X125305740Y-95516700D01*
X125131348Y-95633225D01*
X124924505Y-95840068D01*
X124761990Y-96083289D01*
X124650048Y-96353542D01*
X124592980Y-96640440D01*
X124592980Y-96932960D01*
X124650048Y-97219858D01*
X124761990Y-97490111D01*
X124924505Y-97733332D01*
X125131348Y-97940175D01*
X125374569Y-98102690D01*
X125644822Y-98214632D01*
X125931720Y-98271700D01*
X126224240Y-98271700D01*
X126511138Y-98214632D01*
X126781391Y-98102690D01*
X127024612Y-97940175D01*
X127231455Y-97733332D01*
X127393970Y-97490111D01*
X127505912Y-97219858D01*
X127562980Y-96932960D01*
X127562980Y-96640440D01*
X127505912Y-96353542D01*
X127393970Y-96083289D01*
X127231455Y-95840068D01*
X127024612Y-95633225D01*
X126850220Y-95516700D01*
X127024612Y-95400175D01*
X127231455Y-95193332D01*
X127393970Y-94950111D01*
X127505912Y-94679858D01*
X127562980Y-94392960D01*
X127562980Y-94100440D01*
X142372980Y-94100440D01*
X142372980Y-94392960D01*
X142430048Y-94679858D01*
X142541990Y-94950111D01*
X142704505Y-95193332D01*
X142911348Y-95400175D01*
X143154569Y-95562690D01*
X143424822Y-95674632D01*
X143711720Y-95731700D01*
X144004240Y-95731700D01*
X144291138Y-95674632D01*
X144561391Y-95562690D01*
X144804612Y-95400175D01*
X145011455Y-95193332D01*
X145173970Y-94950111D01*
X145285912Y-94679858D01*
X145342980Y-94392960D01*
X145342980Y-94100440D01*
X145285912Y-93813542D01*
X145173970Y-93543289D01*
X145011455Y-93300068D01*
X144804612Y-93093225D01*
X144622446Y-92971505D01*
X144739335Y-92901878D01*
X144955568Y-92706969D01*
X145129621Y-92473620D01*
X145254805Y-92210799D01*
X145299456Y-92063590D01*
X145178135Y-91833700D01*
X143984980Y-91833700D01*
X143984980Y-91853700D01*
X143730980Y-91853700D01*
X143730980Y-91833700D01*
X142537825Y-91833700D01*
X142416504Y-92063590D01*
X142461155Y-92210799D01*
X142586339Y-92473620D01*
X142760392Y-92706969D01*
X142976625Y-92901878D01*
X143093514Y-92971505D01*
X142911348Y-93093225D01*
X142704505Y-93300068D01*
X142541990Y-93543289D01*
X142430048Y-93813542D01*
X142372980Y-94100440D01*
X127562980Y-94100440D01*
X127505912Y-93813542D01*
X127393970Y-93543289D01*
X127231455Y-93300068D01*
X127024612Y-93093225D01*
X126850220Y-92976700D01*
X127024612Y-92860175D01*
X127231455Y-92653332D01*
X127393970Y-92410111D01*
X127505912Y-92139858D01*
X127562980Y-91852960D01*
X127562980Y-91560440D01*
X127505912Y-91273542D01*
X127393970Y-91003289D01*
X127231455Y-90760068D01*
X127024612Y-90553225D01*
X126850220Y-90436700D01*
X127024612Y-90320175D01*
X127231455Y-90113332D01*
X127393970Y-89870111D01*
X127505912Y-89599858D01*
X127562980Y-89312960D01*
X127562980Y-89020440D01*
X127505912Y-88733542D01*
X127393970Y-88463289D01*
X127231455Y-88220068D01*
X127024612Y-88013225D01*
X126850220Y-87896700D01*
X127024612Y-87780175D01*
X127231455Y-87573332D01*
X127393970Y-87330111D01*
X127505912Y-87059858D01*
X127562980Y-86772960D01*
X127562980Y-86480440D01*
X127505912Y-86193542D01*
X127393970Y-85923289D01*
X127231455Y-85680068D01*
X127024612Y-85473225D01*
X126850220Y-85356700D01*
X127024612Y-85240175D01*
X127231455Y-85033332D01*
X127393970Y-84790111D01*
X127505912Y-84519858D01*
X127562980Y-84232960D01*
X127562980Y-83940440D01*
X142372980Y-83940440D01*
X142372980Y-84232960D01*
X142430048Y-84519858D01*
X142541990Y-84790111D01*
X142704505Y-85033332D01*
X142911348Y-85240175D01*
X143085740Y-85356700D01*
X142911348Y-85473225D01*
X142704505Y-85680068D01*
X142541990Y-85923289D01*
X142430048Y-86193542D01*
X142372980Y-86480440D01*
X142372980Y-86772960D01*
X142430048Y-87059858D01*
X142541990Y-87330111D01*
X142704505Y-87573332D01*
X142911348Y-87780175D01*
X143085740Y-87896700D01*
X142911348Y-88013225D01*
X142704505Y-88220068D01*
X142541990Y-88463289D01*
X142430048Y-88733542D01*
X142372980Y-89020440D01*
X142372980Y-89312960D01*
X142430048Y-89599858D01*
X142541990Y-89870111D01*
X142704505Y-90113332D01*
X142911348Y-90320175D01*
X143093514Y-90441895D01*
X142976625Y-90511522D01*
X142760392Y-90706431D01*
X142586339Y-90939780D01*
X142461155Y-91202601D01*
X142416504Y-91349810D01*
X142537825Y-91579700D01*
X143730980Y-91579700D01*
X143730980Y-91559700D01*
X143984980Y-91559700D01*
X143984980Y-91579700D01*
X145178135Y-91579700D01*
X145299456Y-91349810D01*
X145254805Y-91202601D01*
X145129621Y-90939780D01*
X144955568Y-90706431D01*
X144739335Y-90511522D01*
X144622446Y-90441895D01*
X144804612Y-90320175D01*
X145011455Y-90113332D01*
X145173970Y-89870111D01*
X145285912Y-89599858D01*
X145342980Y-89312960D01*
X145342980Y-89020440D01*
X145285912Y-88733542D01*
X145173970Y-88463289D01*
X145011455Y-88220068D01*
X144804612Y-88013225D01*
X144630220Y-87896700D01*
X144804612Y-87780175D01*
X145011455Y-87573332D01*
X145173970Y-87330111D01*
X145285912Y-87059858D01*
X145342980Y-86772960D01*
X145342980Y-86480440D01*
X145285912Y-86193542D01*
X145173970Y-85923289D01*
X145011455Y-85680068D01*
X144804612Y-85473225D01*
X144630220Y-85356700D01*
X144804612Y-85240175D01*
X145011455Y-85033332D01*
X145173970Y-84790111D01*
X145285912Y-84519858D01*
X145342980Y-84232960D01*
X145342980Y-83940440D01*
X145285912Y-83653542D01*
X145173970Y-83383289D01*
X145011455Y-83140068D01*
X144804612Y-82933225D01*
X144561391Y-82770710D01*
X144291138Y-82658768D01*
X144004240Y-82601700D01*
X143711720Y-82601700D01*
X143424822Y-82658768D01*
X143154569Y-82770710D01*
X142911348Y-82933225D01*
X142704505Y-83140068D01*
X142541990Y-83383289D01*
X142430048Y-83653542D01*
X142372980Y-83940440D01*
X127562980Y-83940440D01*
X127505912Y-83653542D01*
X127393970Y-83383289D01*
X127231455Y-83140068D01*
X127099600Y-83008213D01*
X127172160Y-82986202D01*
X127282474Y-82927237D01*
X127379165Y-82847885D01*
X127458517Y-82751194D01*
X127517482Y-82640880D01*
X127553792Y-82521182D01*
X127566052Y-82396700D01*
X127562980Y-81832450D01*
X127404230Y-81673700D01*
X126204980Y-81673700D01*
X126204980Y-81693700D01*
X125950980Y-81693700D01*
X125950980Y-81673700D01*
X124751730Y-81673700D01*
X124592980Y-81832450D01*
X124589908Y-82396700D01*
X92100000Y-82396700D01*
X92100000Y-80696700D01*
X124589908Y-80696700D01*
X124592980Y-81260950D01*
X124751730Y-81419700D01*
X125950980Y-81419700D01*
X125950980Y-80220450D01*
X126204980Y-80220450D01*
X126204980Y-81419700D01*
X127404230Y-81419700D01*
X127562980Y-81260950D01*
X127563672Y-81133740D01*
X157265000Y-81133740D01*
X157265000Y-81426260D01*
X157322068Y-81713158D01*
X157434010Y-81983411D01*
X157596525Y-82226632D01*
X157803368Y-82433475D01*
X157977760Y-82550000D01*
X157803368Y-82666525D01*
X157596525Y-82873368D01*
X157434010Y-83116589D01*
X157322068Y-83386842D01*
X157265000Y-83673740D01*
X157265000Y-83966260D01*
X157322068Y-84253158D01*
X157434010Y-84523411D01*
X157596525Y-84766632D01*
X157803368Y-84973475D01*
X157977760Y-85090000D01*
X157803368Y-85206525D01*
X157596525Y-85413368D01*
X157434010Y-85656589D01*
X157322068Y-85926842D01*
X157265000Y-86213740D01*
X157265000Y-86506260D01*
X157322068Y-86793158D01*
X157434010Y-87063411D01*
X157596525Y-87306632D01*
X157803368Y-87513475D01*
X157977760Y-87630000D01*
X157803368Y-87746525D01*
X157596525Y-87953368D01*
X157434010Y-88196589D01*
X157322068Y-88466842D01*
X157265000Y-88753740D01*
X157265000Y-89046260D01*
X157322068Y-89333158D01*
X157434010Y-89603411D01*
X157596525Y-89846632D01*
X157803368Y-90053475D01*
X158046589Y-90215990D01*
X158316842Y-90327932D01*
X158603740Y-90385000D01*
X158896260Y-90385000D01*
X159183158Y-90327932D01*
X159453411Y-90215990D01*
X159696632Y-90053475D01*
X159903475Y-89846632D01*
X160065990Y-89603411D01*
X160177932Y-89333158D01*
X160235000Y-89046260D01*
X160235000Y-88753740D01*
X160177932Y-88466842D01*
X160065990Y-88196589D01*
X159903475Y-87953368D01*
X159696632Y-87746525D01*
X159522240Y-87630000D01*
X159696632Y-87513475D01*
X159903475Y-87306632D01*
X160065990Y-87063411D01*
X160177932Y-86793158D01*
X160235000Y-86506260D01*
X160235000Y-86213740D01*
X160177932Y-85926842D01*
X160065990Y-85656589D01*
X159903475Y-85413368D01*
X159696632Y-85206525D01*
X159522240Y-85090000D01*
X159696632Y-84973475D01*
X159903475Y-84766632D01*
X160065990Y-84523411D01*
X160177932Y-84253158D01*
X160235000Y-83966260D01*
X160235000Y-83673740D01*
X160177932Y-83386842D01*
X160065990Y-83116589D01*
X159903475Y-82873368D01*
X159696632Y-82666525D01*
X159522240Y-82550000D01*
X159696632Y-82433475D01*
X159903475Y-82226632D01*
X160065990Y-81983411D01*
X160177932Y-81713158D01*
X160235000Y-81426260D01*
X160235000Y-81133740D01*
X160177932Y-80846842D01*
X160065990Y-80576589D01*
X159903475Y-80333368D01*
X159696632Y-80126525D01*
X159514466Y-80004805D01*
X159631355Y-79935178D01*
X159847588Y-79740269D01*
X160021641Y-79506920D01*
X160146825Y-79244099D01*
X160191476Y-79096890D01*
X160070155Y-78867000D01*
X158877000Y-78867000D01*
X158877000Y-78887000D01*
X158623000Y-78887000D01*
X158623000Y-78867000D01*
X157429845Y-78867000D01*
X157308524Y-79096890D01*
X157353175Y-79244099D01*
X157478359Y-79506920D01*
X157652412Y-79740269D01*
X157868645Y-79935178D01*
X157985534Y-80004805D01*
X157803368Y-80126525D01*
X157596525Y-80333368D01*
X157434010Y-80576589D01*
X157322068Y-80846842D01*
X157265000Y-81133740D01*
X127563672Y-81133740D01*
X127566052Y-80696700D01*
X127553792Y-80572218D01*
X127517482Y-80452520D01*
X127458517Y-80342206D01*
X127379165Y-80245515D01*
X127282474Y-80166163D01*
X127172160Y-80107198D01*
X127052462Y-80070888D01*
X126927980Y-80058628D01*
X126363730Y-80061700D01*
X126204980Y-80220450D01*
X125950980Y-80220450D01*
X125792230Y-80061700D01*
X125227980Y-80058628D01*
X125103498Y-80070888D01*
X124983800Y-80107198D01*
X124873486Y-80166163D01*
X124776795Y-80245515D01*
X124697443Y-80342206D01*
X124638478Y-80452520D01*
X124602168Y-80572218D01*
X124589908Y-80696700D01*
X92100000Y-80696700D01*
X92100000Y-78517050D01*
X95035000Y-78517050D01*
X95035000Y-78962949D01*
X95056487Y-79181110D01*
X95141401Y-79461033D01*
X95279294Y-79719013D01*
X95464866Y-79945134D01*
X95690986Y-80130706D01*
X95948966Y-80268599D01*
X96228889Y-80353513D01*
X96520000Y-80382185D01*
X96811110Y-80353513D01*
X97091033Y-80268599D01*
X97349013Y-80130706D01*
X97575134Y-79945134D01*
X97599607Y-79915313D01*
X97620498Y-79984180D01*
X97679463Y-80094494D01*
X97758815Y-80191185D01*
X97855506Y-80270537D01*
X97965820Y-80329502D01*
X98085518Y-80365812D01*
X98210000Y-80378072D01*
X98774250Y-80375000D01*
X98933000Y-80216250D01*
X98933000Y-78867000D01*
X99187000Y-78867000D01*
X99187000Y-80216250D01*
X99345750Y-80375000D01*
X99910000Y-80378072D01*
X100034482Y-80365812D01*
X100154180Y-80329502D01*
X100264494Y-80270537D01*
X100361185Y-80191185D01*
X100440537Y-80094494D01*
X100499502Y-79984180D01*
X100535812Y-79864482D01*
X100548072Y-79740000D01*
X100545000Y-79025750D01*
X100386250Y-78867000D01*
X99187000Y-78867000D01*
X98933000Y-78867000D01*
X98913000Y-78867000D01*
X98913000Y-78613000D01*
X98933000Y-78613000D01*
X98933000Y-77263750D01*
X99187000Y-77263750D01*
X99187000Y-78613000D01*
X100386250Y-78613000D01*
X100482200Y-78517050D01*
X112815000Y-78517050D01*
X112815000Y-78962949D01*
X112836487Y-79181110D01*
X112921401Y-79461033D01*
X113059294Y-79719013D01*
X113244866Y-79945134D01*
X113470986Y-80130706D01*
X113728966Y-80268599D01*
X114008889Y-80353513D01*
X114300000Y-80382185D01*
X114591110Y-80353513D01*
X114871033Y-80268599D01*
X115129013Y-80130706D01*
X115355134Y-79945134D01*
X115379607Y-79915313D01*
X115400498Y-79984180D01*
X115459463Y-80094494D01*
X115538815Y-80191185D01*
X115635506Y-80270537D01*
X115745820Y-80329502D01*
X115865518Y-80365812D01*
X115990000Y-80378072D01*
X116554250Y-80375000D01*
X116713000Y-80216250D01*
X116713000Y-78867000D01*
X116967000Y-78867000D01*
X116967000Y-80216250D01*
X117125750Y-80375000D01*
X117690000Y-80378072D01*
X117814482Y-80365812D01*
X117934180Y-80329502D01*
X118044494Y-80270537D01*
X118141185Y-80191185D01*
X118220537Y-80094494D01*
X118279502Y-79984180D01*
X118315812Y-79864482D01*
X118328072Y-79740000D01*
X118325000Y-79025750D01*
X118166250Y-78867000D01*
X116967000Y-78867000D01*
X116713000Y-78867000D01*
X116693000Y-78867000D01*
X116693000Y-78613000D01*
X116713000Y-78613000D01*
X116713000Y-77263750D01*
X116967000Y-77263750D01*
X116967000Y-78613000D01*
X118166250Y-78613000D01*
X118325000Y-78454250D01*
X118328072Y-77740000D01*
X118315812Y-77615518D01*
X118279502Y-77495820D01*
X118220537Y-77385506D01*
X118141185Y-77288815D01*
X118044494Y-77209463D01*
X117934180Y-77150498D01*
X117814482Y-77114188D01*
X117690000Y-77101928D01*
X117125750Y-77105000D01*
X116967000Y-77263750D01*
X116713000Y-77263750D01*
X116554250Y-77105000D01*
X115990000Y-77101928D01*
X115865518Y-77114188D01*
X115745820Y-77150498D01*
X115635506Y-77209463D01*
X115538815Y-77288815D01*
X115459463Y-77385506D01*
X115400498Y-77495820D01*
X115379607Y-77564687D01*
X115355134Y-77534866D01*
X115129014Y-77349294D01*
X114871034Y-77211401D01*
X114591111Y-77126487D01*
X114300000Y-77097815D01*
X114008890Y-77126487D01*
X113728967Y-77211401D01*
X113470987Y-77349294D01*
X113244866Y-77534866D01*
X113059294Y-77760986D01*
X112921401Y-78018966D01*
X112836487Y-78298889D01*
X112815000Y-78517050D01*
X100482200Y-78517050D01*
X100545000Y-78454250D01*
X100548072Y-77740000D01*
X100535812Y-77615518D01*
X100499502Y-77495820D01*
X100440537Y-77385506D01*
X100361185Y-77288815D01*
X100264494Y-77209463D01*
X100154180Y-77150498D01*
X100034482Y-77114188D01*
X99910000Y-77101928D01*
X99345750Y-77105000D01*
X99187000Y-77263750D01*
X98933000Y-77263750D01*
X98774250Y-77105000D01*
X98210000Y-77101928D01*
X98085518Y-77114188D01*
X97965820Y-77150498D01*
X97855506Y-77209463D01*
X97758815Y-77288815D01*
X97679463Y-77385506D01*
X97620498Y-77495820D01*
X97599607Y-77564687D01*
X97575134Y-77534866D01*
X97349014Y-77349294D01*
X97091034Y-77211401D01*
X96811111Y-77126487D01*
X96520000Y-77097815D01*
X96228890Y-77126487D01*
X95948967Y-77211401D01*
X95690987Y-77349294D01*
X95464866Y-77534866D01*
X95279294Y-77760986D01*
X95141401Y-78018966D01*
X95056487Y-78298889D01*
X95035000Y-78517050D01*
X92100000Y-78517050D01*
X92100000Y-75350000D01*
X157261928Y-75350000D01*
X157261928Y-77050000D01*
X157274188Y-77174482D01*
X157310498Y-77294180D01*
X157369463Y-77404494D01*
X157448815Y-77501185D01*
X157545506Y-77580537D01*
X157655820Y-77639502D01*
X157736466Y-77663966D01*
X157652412Y-77739731D01*
X157478359Y-77973080D01*
X157353175Y-78235901D01*
X157308524Y-78383110D01*
X157429845Y-78613000D01*
X158623000Y-78613000D01*
X158623000Y-78593000D01*
X158877000Y-78593000D01*
X158877000Y-78613000D01*
X160070155Y-78613000D01*
X160080319Y-78593740D01*
X169965000Y-78593740D01*
X169965000Y-78886260D01*
X170022068Y-79173158D01*
X170134010Y-79443411D01*
X170296525Y-79686632D01*
X170503368Y-79893475D01*
X170677760Y-80010000D01*
X170503368Y-80126525D01*
X170296525Y-80333368D01*
X170134010Y-80576589D01*
X170022068Y-80846842D01*
X169965000Y-81133740D01*
X169965000Y-81426260D01*
X170022068Y-81713158D01*
X170134010Y-81983411D01*
X170296525Y-82226632D01*
X170503368Y-82433475D01*
X170677760Y-82550000D01*
X170503368Y-82666525D01*
X170296525Y-82873368D01*
X170134010Y-83116589D01*
X170022068Y-83386842D01*
X169965000Y-83673740D01*
X169965000Y-83966260D01*
X170022068Y-84253158D01*
X170134010Y-84523411D01*
X170296525Y-84766632D01*
X170503368Y-84973475D01*
X170677760Y-85090000D01*
X170503368Y-85206525D01*
X170296525Y-85413368D01*
X170134010Y-85656589D01*
X170022068Y-85926842D01*
X169965000Y-86213740D01*
X169965000Y-86506260D01*
X170022068Y-86793158D01*
X170134010Y-87063411D01*
X170296525Y-87306632D01*
X170503368Y-87513475D01*
X170677760Y-87630000D01*
X170503368Y-87746525D01*
X170296525Y-87953368D01*
X170134010Y-88196589D01*
X170022068Y-88466842D01*
X169965000Y-88753740D01*
X169965000Y-89046260D01*
X170022068Y-89333158D01*
X170134010Y-89603411D01*
X170296525Y-89846632D01*
X170503368Y-90053475D01*
X170746589Y-90215990D01*
X171016842Y-90327932D01*
X171303740Y-90385000D01*
X171596260Y-90385000D01*
X171883158Y-90327932D01*
X172153411Y-90215990D01*
X172396632Y-90053475D01*
X172603475Y-89846632D01*
X172765990Y-89603411D01*
X172877932Y-89333158D01*
X172935000Y-89046260D01*
X172935000Y-88753740D01*
X172877932Y-88466842D01*
X172765990Y-88196589D01*
X172603475Y-87953368D01*
X172396632Y-87746525D01*
X172222240Y-87630000D01*
X172396632Y-87513475D01*
X172603475Y-87306632D01*
X172765990Y-87063411D01*
X172877932Y-86793158D01*
X172935000Y-86506260D01*
X172935000Y-86213740D01*
X172877932Y-85926842D01*
X172765990Y-85656589D01*
X172603475Y-85413368D01*
X172396632Y-85206525D01*
X172222240Y-85090000D01*
X172396632Y-84973475D01*
X172603475Y-84766632D01*
X172765990Y-84523411D01*
X172877932Y-84253158D01*
X172935000Y-83966260D01*
X172935000Y-83673740D01*
X172877932Y-83386842D01*
X172765990Y-83116589D01*
X172603475Y-82873368D01*
X172396632Y-82666525D01*
X172222240Y-82550000D01*
X172396632Y-82433475D01*
X172603475Y-82226632D01*
X172765990Y-81983411D01*
X172877932Y-81713158D01*
X172935000Y-81426260D01*
X172935000Y-81133740D01*
X172877932Y-80846842D01*
X172765990Y-80576589D01*
X172603475Y-80333368D01*
X172396632Y-80126525D01*
X172222240Y-80010000D01*
X172396632Y-79893475D01*
X172603475Y-79686632D01*
X172765990Y-79443411D01*
X172877932Y-79173158D01*
X172935000Y-78886260D01*
X172935000Y-78593740D01*
X172877932Y-78306842D01*
X172765990Y-78036589D01*
X172603475Y-77793368D01*
X172396632Y-77586525D01*
X172223271Y-77470689D01*
X172298792Y-77228397D01*
X171450000Y-76379605D01*
X170601208Y-77228397D01*
X170676729Y-77470689D01*
X170503368Y-77586525D01*
X170296525Y-77793368D01*
X170134010Y-78036589D01*
X170022068Y-78306842D01*
X169965000Y-78593740D01*
X160080319Y-78593740D01*
X160191476Y-78383110D01*
X160146825Y-78235901D01*
X160021641Y-77973080D01*
X159847588Y-77739731D01*
X159763534Y-77663966D01*
X159844180Y-77639502D01*
X159954494Y-77580537D01*
X160051185Y-77501185D01*
X160130537Y-77404494D01*
X160189502Y-77294180D01*
X160225812Y-77174482D01*
X160238072Y-77050000D01*
X160238072Y-76268531D01*
X169959389Y-76268531D01*
X170001401Y-76558019D01*
X170099081Y-76833747D01*
X170172528Y-76971157D01*
X170421603Y-77048792D01*
X171270395Y-76200000D01*
X171629605Y-76200000D01*
X172478397Y-77048792D01*
X172727472Y-76971157D01*
X172853371Y-76707117D01*
X172925339Y-76423589D01*
X172940611Y-76131469D01*
X172898599Y-75841981D01*
X172800919Y-75566253D01*
X172727472Y-75428843D01*
X172478397Y-75351208D01*
X171629605Y-76200000D01*
X171270395Y-76200000D01*
X170421603Y-75351208D01*
X170172528Y-75428843D01*
X170046629Y-75692883D01*
X169974661Y-75976411D01*
X169959389Y-76268531D01*
X160238072Y-76268531D01*
X160238072Y-75350000D01*
X160225812Y-75225518D01*
X160209458Y-75171603D01*
X170601208Y-75171603D01*
X171450000Y-76020395D01*
X172298792Y-75171603D01*
X172221157Y-74922528D01*
X171957117Y-74796629D01*
X171673589Y-74724661D01*
X171381469Y-74709389D01*
X171091981Y-74751401D01*
X170816253Y-74849081D01*
X170678843Y-74922528D01*
X170601208Y-75171603D01*
X160209458Y-75171603D01*
X160189502Y-75105820D01*
X160130537Y-74995506D01*
X160051185Y-74898815D01*
X159954494Y-74819463D01*
X159844180Y-74760498D01*
X159724482Y-74724188D01*
X159600000Y-74711928D01*
X157900000Y-74711928D01*
X157775518Y-74724188D01*
X157655820Y-74760498D01*
X157545506Y-74819463D01*
X157448815Y-74898815D01*
X157369463Y-74995506D01*
X157310498Y-75105820D01*
X157274188Y-75225518D01*
X157261928Y-75350000D01*
X92100000Y-75350000D01*
X92100000Y-65190000D01*
X102651928Y-65190000D01*
X102651928Y-66890000D01*
X102664188Y-67014482D01*
X102700498Y-67134180D01*
X102759463Y-67244494D01*
X102838815Y-67341185D01*
X102935506Y-67420537D01*
X103045820Y-67479502D01*
X103165518Y-67515812D01*
X103290000Y-67528072D01*
X104990000Y-67528072D01*
X105114482Y-67515812D01*
X105234180Y-67479502D01*
X105344494Y-67420537D01*
X105441185Y-67341185D01*
X105520537Y-67244494D01*
X105579502Y-67134180D01*
X105602498Y-67058374D01*
X105798645Y-67235178D01*
X106048748Y-67384157D01*
X106323109Y-67481481D01*
X106553000Y-67360814D01*
X106553000Y-66167000D01*
X106533000Y-66167000D01*
X106533000Y-65913000D01*
X106553000Y-65913000D01*
X106553000Y-64719186D01*
X106807000Y-64719186D01*
X106807000Y-65913000D01*
X106827000Y-65913000D01*
X106827000Y-66167000D01*
X106807000Y-66167000D01*
X106807000Y-67360814D01*
X107036891Y-67481481D01*
X107311252Y-67384157D01*
X107561355Y-67235178D01*
X107777588Y-67040269D01*
X107948900Y-66810594D01*
X108066525Y-66986632D01*
X108273368Y-67193475D01*
X108516589Y-67355990D01*
X108786842Y-67467932D01*
X109073740Y-67525000D01*
X109366260Y-67525000D01*
X109653158Y-67467932D01*
X109923411Y-67355990D01*
X110166632Y-67193475D01*
X110373475Y-66986632D01*
X110535990Y-66743411D01*
X110647932Y-66473158D01*
X110705000Y-66186260D01*
X110705000Y-65893740D01*
X110647932Y-65606842D01*
X110535990Y-65336589D01*
X110373475Y-65093368D01*
X110166632Y-64886525D01*
X109923411Y-64724010D01*
X109653158Y-64612068D01*
X109366260Y-64555000D01*
X109073740Y-64555000D01*
X108786842Y-64612068D01*
X108516589Y-64724010D01*
X108273368Y-64886525D01*
X108066525Y-65093368D01*
X107948900Y-65269406D01*
X107777588Y-65039731D01*
X107561355Y-64844822D01*
X107311252Y-64695843D01*
X107036891Y-64598519D01*
X106807000Y-64719186D01*
X106553000Y-64719186D01*
X106323109Y-64598519D01*
X106048748Y-64695843D01*
X105798645Y-64844822D01*
X105602498Y-65021626D01*
X105579502Y-64945820D01*
X105520537Y-64835506D01*
X105441185Y-64738815D01*
X105344494Y-64659463D01*
X105234180Y-64600498D01*
X105114482Y-64564188D01*
X104990000Y-64551928D01*
X103290000Y-64551928D01*
X103165518Y-64564188D01*
X103045820Y-64600498D01*
X102935506Y-64659463D01*
X102838815Y-64738815D01*
X102759463Y-64835506D01*
X102700498Y-64945820D01*
X102664188Y-65065518D01*
X102651928Y-65190000D01*
X92100000Y-65190000D01*
X92100000Y-63770000D01*
X133029428Y-63770000D01*
X133029428Y-65770000D01*
X133041688Y-65894482D01*
X133077998Y-66014180D01*
X133136963Y-66124494D01*
X133216315Y-66221185D01*
X133313006Y-66300537D01*
X133423320Y-66359502D01*
X133543018Y-66395812D01*
X133667500Y-66408072D01*
X135572500Y-66408072D01*
X135696982Y-66395812D01*
X135816680Y-66359502D01*
X135926994Y-66300537D01*
X136023685Y-66221185D01*
X136103037Y-66124494D01*
X136147905Y-66040553D01*
X136273766Y-66143845D01*
X136549552Y-66291255D01*
X136848797Y-66382030D01*
X137160000Y-66412681D01*
X137471204Y-66382030D01*
X137770449Y-66291255D01*
X138046235Y-66143845D01*
X138287963Y-65945463D01*
X138435162Y-65766100D01*
X138590563Y-65951315D01*
X138833077Y-66145969D01*
X139108906Y-66289571D01*
X139327020Y-66360563D01*
X139573000Y-66240594D01*
X139573000Y-64897000D01*
X139827000Y-64897000D01*
X139827000Y-66240594D01*
X140072980Y-66360563D01*
X140291094Y-66289571D01*
X140566923Y-66145969D01*
X140809437Y-65951315D01*
X141009316Y-65713089D01*
X141158879Y-65440446D01*
X141252378Y-65143863D01*
X141125570Y-64897000D01*
X139827000Y-64897000D01*
X139573000Y-64897000D01*
X139553000Y-64897000D01*
X139553000Y-64643000D01*
X139573000Y-64643000D01*
X139573000Y-63299406D01*
X139827000Y-63299406D01*
X139827000Y-64643000D01*
X141125570Y-64643000D01*
X141252378Y-64396137D01*
X141158879Y-64099554D01*
X141009316Y-63826911D01*
X140809437Y-63588685D01*
X140566923Y-63394031D01*
X140291094Y-63250429D01*
X140072980Y-63179437D01*
X139827000Y-63299406D01*
X139573000Y-63299406D01*
X139327020Y-63179437D01*
X139108906Y-63250429D01*
X138833077Y-63394031D01*
X138590563Y-63588685D01*
X138435163Y-63773899D01*
X138287963Y-63594537D01*
X138046234Y-63396155D01*
X137770448Y-63248745D01*
X137471203Y-63157970D01*
X137160000Y-63127319D01*
X136848796Y-63157970D01*
X136549551Y-63248745D01*
X136273765Y-63396155D01*
X136147905Y-63499446D01*
X136103037Y-63415506D01*
X136023685Y-63318815D01*
X135926994Y-63239463D01*
X135816680Y-63180498D01*
X135696982Y-63144188D01*
X135572500Y-63131928D01*
X133667500Y-63131928D01*
X133543018Y-63144188D01*
X133423320Y-63180498D01*
X133313006Y-63239463D01*
X133216315Y-63318815D01*
X133136963Y-63415506D01*
X133077998Y-63525820D01*
X133041688Y-63645518D01*
X133029428Y-63770000D01*
X92100000Y-63770000D01*
X92100000Y-62400000D01*
X148121928Y-62400000D01*
X148121928Y-64600000D01*
X148134188Y-64724482D01*
X148170498Y-64844180D01*
X148229463Y-64954494D01*
X148308815Y-65051185D01*
X148405506Y-65130537D01*
X148515820Y-65189502D01*
X148635518Y-65225812D01*
X148760000Y-65238072D01*
X150960000Y-65238072D01*
X151084482Y-65225812D01*
X151204180Y-65189502D01*
X151314494Y-65130537D01*
X151411185Y-65051185D01*
X151490537Y-64954494D01*
X151549502Y-64844180D01*
X151585812Y-64724482D01*
X151598072Y-64600000D01*
X151598072Y-63329117D01*
X158285000Y-63329117D01*
X158285000Y-63670883D01*
X158351675Y-64006081D01*
X158482463Y-64321831D01*
X158672337Y-64605998D01*
X158914002Y-64847663D01*
X159198169Y-65037537D01*
X159513919Y-65168325D01*
X159849117Y-65235000D01*
X160190883Y-65235000D01*
X160526081Y-65168325D01*
X160841831Y-65037537D01*
X161125998Y-64847663D01*
X161367663Y-64605998D01*
X161557537Y-64321831D01*
X161688325Y-64006081D01*
X161755000Y-63670883D01*
X161755000Y-63329117D01*
X161688325Y-62993919D01*
X161557537Y-62678169D01*
X161367663Y-62394002D01*
X161125998Y-62152337D01*
X160841831Y-61962463D01*
X160526081Y-61831675D01*
X160190883Y-61765000D01*
X159849117Y-61765000D01*
X159513919Y-61831675D01*
X159198169Y-61962463D01*
X158914002Y-62152337D01*
X158672337Y-62394002D01*
X158482463Y-62678169D01*
X158351675Y-62993919D01*
X158285000Y-63329117D01*
X151598072Y-63329117D01*
X151598072Y-62400000D01*
X151585812Y-62275518D01*
X151549502Y-62155820D01*
X151490537Y-62045506D01*
X151411185Y-61948815D01*
X151314494Y-61869463D01*
X151204180Y-61810498D01*
X151084482Y-61774188D01*
X150960000Y-61761928D01*
X148760000Y-61761928D01*
X148635518Y-61774188D01*
X148515820Y-61810498D01*
X148405506Y-61869463D01*
X148308815Y-61948815D01*
X148229463Y-62045506D01*
X148170498Y-62155820D01*
X148134188Y-62275518D01*
X148121928Y-62400000D01*
X92100000Y-62400000D01*
X92100000Y-53760000D01*
X119161928Y-53760000D01*
X119161928Y-55460000D01*
X119174188Y-55584482D01*
X119210498Y-55704180D01*
X119269463Y-55814494D01*
X119348815Y-55911185D01*
X119445506Y-55990537D01*
X119555820Y-56049502D01*
X119675518Y-56085812D01*
X119800000Y-56098072D01*
X121500000Y-56098072D01*
X121624482Y-56085812D01*
X121744180Y-56049502D01*
X121854494Y-55990537D01*
X121951185Y-55911185D01*
X122030537Y-55814494D01*
X122089502Y-55704180D01*
X122111513Y-55631620D01*
X122243368Y-55763475D01*
X122486589Y-55925990D01*
X122756842Y-56037932D01*
X123043740Y-56095000D01*
X123336260Y-56095000D01*
X123623158Y-56037932D01*
X123893411Y-55925990D01*
X124136632Y-55763475D01*
X124343475Y-55556632D01*
X124461100Y-55380594D01*
X124632412Y-55610269D01*
X124848645Y-55805178D01*
X125098748Y-55954157D01*
X125373109Y-56051481D01*
X125603000Y-55930814D01*
X125603000Y-54737000D01*
X125857000Y-54737000D01*
X125857000Y-55930814D01*
X126086891Y-56051481D01*
X126361252Y-55954157D01*
X126611355Y-55805178D01*
X126827588Y-55610269D01*
X127001641Y-55376920D01*
X127126825Y-55114099D01*
X127171476Y-54966890D01*
X127050155Y-54737000D01*
X125857000Y-54737000D01*
X125603000Y-54737000D01*
X125583000Y-54737000D01*
X125583000Y-54483000D01*
X125603000Y-54483000D01*
X125603000Y-53289186D01*
X125857000Y-53289186D01*
X125857000Y-54483000D01*
X127050155Y-54483000D01*
X127171476Y-54253110D01*
X127126825Y-54105901D01*
X127001641Y-53843080D01*
X126827588Y-53609731D01*
X126611355Y-53414822D01*
X126361252Y-53265843D01*
X126086891Y-53168519D01*
X125857000Y-53289186D01*
X125603000Y-53289186D01*
X125373109Y-53168519D01*
X125098748Y-53265843D01*
X124848645Y-53414822D01*
X124632412Y-53609731D01*
X124461100Y-53839406D01*
X124343475Y-53663368D01*
X124136632Y-53456525D01*
X123893411Y-53294010D01*
X123623158Y-53182068D01*
X123336260Y-53125000D01*
X123043740Y-53125000D01*
X122756842Y-53182068D01*
X122486589Y-53294010D01*
X122243368Y-53456525D01*
X122111513Y-53588380D01*
X122089502Y-53515820D01*
X122030537Y-53405506D01*
X121951185Y-53308815D01*
X121854494Y-53229463D01*
X121744180Y-53170498D01*
X121624482Y-53134188D01*
X121500000Y-53121928D01*
X119800000Y-53121928D01*
X119675518Y-53134188D01*
X119555820Y-53170498D01*
X119445506Y-53229463D01*
X119348815Y-53308815D01*
X119269463Y-53405506D01*
X119210498Y-53515820D01*
X119174188Y-53635518D01*
X119161928Y-53760000D01*
X92100000Y-53760000D01*
X92100000Y-50829392D01*
X92122269Y-50579872D01*
X94285000Y-50579872D01*
X94285000Y-51020128D01*
X94370890Y-51451925D01*
X94539369Y-51858669D01*
X94783962Y-52224729D01*
X95095271Y-52536038D01*
X95461331Y-52780631D01*
X95868075Y-52949110D01*
X96299872Y-53035000D01*
X96740128Y-53035000D01*
X97171925Y-52949110D01*
X97578669Y-52780631D01*
X97944729Y-52536038D01*
X98256038Y-52224729D01*
X98274565Y-52197000D01*
X136648928Y-52197000D01*
X136648928Y-54483000D01*
X136661188Y-54607482D01*
X136697498Y-54727180D01*
X136756463Y-54837494D01*
X136835815Y-54934185D01*
X136932506Y-55013537D01*
X137042820Y-55072502D01*
X137162518Y-55108812D01*
X137287000Y-55121072D01*
X139573000Y-55121072D01*
X139697482Y-55108812D01*
X139817180Y-55072502D01*
X139927494Y-55013537D01*
X140024185Y-54934185D01*
X140103537Y-54837494D01*
X140162502Y-54727180D01*
X140198812Y-54607482D01*
X140201778Y-54577360D01*
X142452245Y-54577360D01*
X142565264Y-54856384D01*
X142879249Y-55011556D01*
X143217473Y-55102491D01*
X143566938Y-55125694D01*
X143914216Y-55080275D01*
X144245960Y-54967977D01*
X144454736Y-54856384D01*
X144567755Y-54577360D01*
X143510000Y-53519605D01*
X142452245Y-54577360D01*
X140201778Y-54577360D01*
X140211072Y-54483000D01*
X140211072Y-53396938D01*
X141724306Y-53396938D01*
X141769725Y-53744216D01*
X141882023Y-54075960D01*
X141993616Y-54284736D01*
X142272640Y-54397755D01*
X143330395Y-53340000D01*
X143689605Y-53340000D01*
X144747360Y-54397755D01*
X145026384Y-54284736D01*
X145181556Y-53970751D01*
X145272491Y-53632527D01*
X145295694Y-53283062D01*
X145250275Y-52935784D01*
X145137977Y-52604040D01*
X145026384Y-52395264D01*
X144747360Y-52282245D01*
X143689605Y-53340000D01*
X143330395Y-53340000D01*
X142272640Y-52282245D01*
X141993616Y-52395264D01*
X141838444Y-52709249D01*
X141747509Y-53047473D01*
X141724306Y-53396938D01*
X140211072Y-53396938D01*
X140211072Y-52197000D01*
X140201779Y-52102640D01*
X142452245Y-52102640D01*
X143510000Y-53160395D01*
X144473395Y-52197000D01*
X151888928Y-52197000D01*
X151888928Y-54483000D01*
X151901188Y-54607482D01*
X151937498Y-54727180D01*
X151996463Y-54837494D01*
X152075815Y-54934185D01*
X152172506Y-55013537D01*
X152282820Y-55072502D01*
X152402518Y-55108812D01*
X152527000Y-55121072D01*
X154813000Y-55121072D01*
X154937482Y-55108812D01*
X155057180Y-55072502D01*
X155167494Y-55013537D01*
X155264185Y-54934185D01*
X155343537Y-54837494D01*
X155402502Y-54727180D01*
X155438812Y-54607482D01*
X155451072Y-54483000D01*
X155451072Y-53164882D01*
X156972000Y-53164882D01*
X156972000Y-53515118D01*
X157040328Y-53858623D01*
X157174357Y-54182199D01*
X157368937Y-54473409D01*
X157616591Y-54721063D01*
X157907801Y-54915643D01*
X158231377Y-55049672D01*
X158574882Y-55118000D01*
X158925118Y-55118000D01*
X159268623Y-55049672D01*
X159592199Y-54915643D01*
X159883409Y-54721063D01*
X160131063Y-54473409D01*
X160325643Y-54182199D01*
X160459672Y-53858623D01*
X160528000Y-53515118D01*
X160528000Y-53164882D01*
X160459672Y-52821377D01*
X160325643Y-52497801D01*
X160131063Y-52206591D01*
X159883409Y-51958937D01*
X159592199Y-51764357D01*
X159268623Y-51630328D01*
X158925118Y-51562000D01*
X158574882Y-51562000D01*
X158231377Y-51630328D01*
X157907801Y-51764357D01*
X157616591Y-51958937D01*
X157368937Y-52206591D01*
X157174357Y-52497801D01*
X157040328Y-52821377D01*
X156972000Y-53164882D01*
X155451072Y-53164882D01*
X155451072Y-52197000D01*
X155438812Y-52072518D01*
X155402502Y-51952820D01*
X155343537Y-51842506D01*
X155264185Y-51745815D01*
X155167494Y-51666463D01*
X155057180Y-51607498D01*
X154937482Y-51571188D01*
X154813000Y-51558928D01*
X152527000Y-51558928D01*
X152402518Y-51571188D01*
X152282820Y-51607498D01*
X152172506Y-51666463D01*
X152075815Y-51745815D01*
X151996463Y-51842506D01*
X151937498Y-51952820D01*
X151901188Y-52072518D01*
X151888928Y-52197000D01*
X144473395Y-52197000D01*
X144567755Y-52102640D01*
X144454736Y-51823616D01*
X144140751Y-51668444D01*
X143802527Y-51577509D01*
X143453062Y-51554306D01*
X143105784Y-51599725D01*
X142774040Y-51712023D01*
X142565264Y-51823616D01*
X142452245Y-52102640D01*
X140201779Y-52102640D01*
X140198812Y-52072518D01*
X140162502Y-51952820D01*
X140103537Y-51842506D01*
X140024185Y-51745815D01*
X139927494Y-51666463D01*
X139817180Y-51607498D01*
X139697482Y-51571188D01*
X139573000Y-51558928D01*
X137287000Y-51558928D01*
X137162518Y-51571188D01*
X137042820Y-51607498D01*
X136932506Y-51666463D01*
X136835815Y-51745815D01*
X136756463Y-51842506D01*
X136697498Y-51952820D01*
X136661188Y-52072518D01*
X136648928Y-52197000D01*
X98274565Y-52197000D01*
X98500631Y-51858669D01*
X98669110Y-51451925D01*
X98755000Y-51020128D01*
X98755000Y-50579872D01*
X170485000Y-50579872D01*
X170485000Y-51020128D01*
X170570890Y-51451925D01*
X170739369Y-51858669D01*
X170983962Y-52224729D01*
X171295271Y-52536038D01*
X171661331Y-52780631D01*
X172068075Y-52949110D01*
X172499872Y-53035000D01*
X172940128Y-53035000D01*
X173371925Y-52949110D01*
X173778669Y-52780631D01*
X174144729Y-52536038D01*
X174456038Y-52224729D01*
X174700631Y-51858669D01*
X174869110Y-51451925D01*
X174955000Y-51020128D01*
X174955000Y-50579872D01*
X174869110Y-50148075D01*
X174700631Y-49741331D01*
X174456038Y-49375271D01*
X174144729Y-49063962D01*
X173778669Y-48819369D01*
X173371925Y-48650890D01*
X172940128Y-48565000D01*
X172499872Y-48565000D01*
X172068075Y-48650890D01*
X171661331Y-48819369D01*
X171295271Y-49063962D01*
X170983962Y-49375271D01*
X170739369Y-49741331D01*
X170570890Y-50148075D01*
X170485000Y-50579872D01*
X98755000Y-50579872D01*
X98669110Y-50148075D01*
X98500631Y-49741331D01*
X98256038Y-49375271D01*
X97944729Y-49063962D01*
X97578669Y-48819369D01*
X97171925Y-48650890D01*
X96740128Y-48565000D01*
X96299872Y-48565000D01*
X95868075Y-48650890D01*
X95461331Y-48819369D01*
X95095271Y-49063962D01*
X94783962Y-49375271D01*
X94539369Y-49741331D01*
X94370890Y-50148075D01*
X94285000Y-50579872D01*
X92122269Y-50579872D01*
X92172437Y-50017751D01*
X92379672Y-49260226D01*
X92717777Y-48551375D01*
X93176067Y-47913596D01*
X93740055Y-47367054D01*
X94391913Y-46929023D01*
X95111038Y-46613349D01*
X95879768Y-46428794D01*
X96544207Y-46380000D01*
X172690608Y-46380000D01*
X173502249Y-46452437D01*
M02*
