G04 #@! TF.GenerationSoftware,KiCad,Pcbnew,7.0.1*
G04 #@! TF.CreationDate,2023-08-14T23:44:32-05:00*
G04 #@! TF.ProjectId,JoystickBoard,4a6f7973-7469-4636-9b42-6f6172642e6b,rev?*
G04 #@! TF.SameCoordinates,Original*
G04 #@! TF.FileFunction,Legend,Top*
G04 #@! TF.FilePolarity,Positive*
%FSLAX46Y46*%
G04 Gerber Fmt 4.6, Leading zero omitted, Abs format (unit mm)*
G04 Created by KiCad (PCBNEW 7.0.1) date 2023-08-14 23:44:32*
%MOMM*%
%LPD*%
G01*
G04 APERTURE LIST*
%ADD10C,0.139700*%
%ADD11C,0.150000*%
%ADD12C,0.120000*%
G04 #@! TA.AperFunction,Profile*
%ADD13C,0.050000*%
G04 #@! TD*
G04 APERTURE END LIST*
D10*
X156733333Y-99570095D02*
X157266667Y-100370095D01*
X157266667Y-99570095D02*
X156733333Y-100370095D01*
D11*
X148242856Y-96062619D02*
X148242856Y-96776904D01*
X148242856Y-96776904D02*
X148195237Y-96919761D01*
X148195237Y-96919761D02*
X148099999Y-97015000D01*
X148099999Y-97015000D02*
X147957142Y-97062619D01*
X147957142Y-97062619D02*
X147861904Y-97062619D01*
X148861904Y-97062619D02*
X148766666Y-97015000D01*
X148766666Y-97015000D02*
X148719047Y-96967380D01*
X148719047Y-96967380D02*
X148671428Y-96872142D01*
X148671428Y-96872142D02*
X148671428Y-96586428D01*
X148671428Y-96586428D02*
X148719047Y-96491190D01*
X148719047Y-96491190D02*
X148766666Y-96443571D01*
X148766666Y-96443571D02*
X148861904Y-96395952D01*
X148861904Y-96395952D02*
X149004761Y-96395952D01*
X149004761Y-96395952D02*
X149099999Y-96443571D01*
X149099999Y-96443571D02*
X149147618Y-96491190D01*
X149147618Y-96491190D02*
X149195237Y-96586428D01*
X149195237Y-96586428D02*
X149195237Y-96872142D01*
X149195237Y-96872142D02*
X149147618Y-96967380D01*
X149147618Y-96967380D02*
X149099999Y-97015000D01*
X149099999Y-97015000D02*
X149004761Y-97062619D01*
X149004761Y-97062619D02*
X148861904Y-97062619D01*
X149528571Y-96395952D02*
X149766666Y-97062619D01*
X150004761Y-96395952D02*
X149766666Y-97062619D01*
X149766666Y-97062619D02*
X149671428Y-97300714D01*
X149671428Y-97300714D02*
X149623809Y-97348333D01*
X149623809Y-97348333D02*
X149528571Y-97395952D01*
X151719047Y-97062619D02*
X151385714Y-96586428D01*
X151147619Y-97062619D02*
X151147619Y-96062619D01*
X151147619Y-96062619D02*
X151528571Y-96062619D01*
X151528571Y-96062619D02*
X151623809Y-96110238D01*
X151623809Y-96110238D02*
X151671428Y-96157857D01*
X151671428Y-96157857D02*
X151719047Y-96253095D01*
X151719047Y-96253095D02*
X151719047Y-96395952D01*
X151719047Y-96395952D02*
X151671428Y-96491190D01*
X151671428Y-96491190D02*
X151623809Y-96538809D01*
X151623809Y-96538809D02*
X151528571Y-96586428D01*
X151528571Y-96586428D02*
X151147619Y-96586428D01*
X152528571Y-97015000D02*
X152433333Y-97062619D01*
X152433333Y-97062619D02*
X152242857Y-97062619D01*
X152242857Y-97062619D02*
X152147619Y-97015000D01*
X152147619Y-97015000D02*
X152100000Y-96919761D01*
X152100000Y-96919761D02*
X152100000Y-96538809D01*
X152100000Y-96538809D02*
X152147619Y-96443571D01*
X152147619Y-96443571D02*
X152242857Y-96395952D01*
X152242857Y-96395952D02*
X152433333Y-96395952D01*
X152433333Y-96395952D02*
X152528571Y-96443571D01*
X152528571Y-96443571D02*
X152576190Y-96538809D01*
X152576190Y-96538809D02*
X152576190Y-96634047D01*
X152576190Y-96634047D02*
X152100000Y-96729285D01*
X152909524Y-96395952D02*
X153147619Y-97062619D01*
X153147619Y-97062619D02*
X153385714Y-96395952D01*
X154242857Y-96062619D02*
X153766667Y-96062619D01*
X153766667Y-96062619D02*
X153719048Y-96538809D01*
X153719048Y-96538809D02*
X153766667Y-96491190D01*
X153766667Y-96491190D02*
X153861905Y-96443571D01*
X153861905Y-96443571D02*
X154100000Y-96443571D01*
X154100000Y-96443571D02*
X154195238Y-96491190D01*
X154195238Y-96491190D02*
X154242857Y-96538809D01*
X154242857Y-96538809D02*
X154290476Y-96634047D01*
X154290476Y-96634047D02*
X154290476Y-96872142D01*
X154290476Y-96872142D02*
X154242857Y-96967380D01*
X154242857Y-96967380D02*
X154195238Y-97015000D01*
X154195238Y-97015000D02*
X154100000Y-97062619D01*
X154100000Y-97062619D02*
X153861905Y-97062619D01*
X153861905Y-97062619D02*
X153766667Y-97015000D01*
X153766667Y-97015000D02*
X153719048Y-96967380D01*
D10*
X151409523Y-99508190D02*
X151333333Y-99470095D01*
X151333333Y-99470095D02*
X151219047Y-99470095D01*
X151219047Y-99470095D02*
X151104761Y-99508190D01*
X151104761Y-99508190D02*
X151028571Y-99584380D01*
X151028571Y-99584380D02*
X150990476Y-99660571D01*
X150990476Y-99660571D02*
X150952380Y-99812952D01*
X150952380Y-99812952D02*
X150952380Y-99927238D01*
X150952380Y-99927238D02*
X150990476Y-100079619D01*
X150990476Y-100079619D02*
X151028571Y-100155809D01*
X151028571Y-100155809D02*
X151104761Y-100232000D01*
X151104761Y-100232000D02*
X151219047Y-100270095D01*
X151219047Y-100270095D02*
X151295238Y-100270095D01*
X151295238Y-100270095D02*
X151409523Y-100232000D01*
X151409523Y-100232000D02*
X151447619Y-100193904D01*
X151447619Y-100193904D02*
X151447619Y-99927238D01*
X151447619Y-99927238D02*
X151295238Y-99927238D01*
X183270095Y-67909523D02*
X183270095Y-67414285D01*
X183270095Y-67414285D02*
X183574857Y-67680951D01*
X183574857Y-67680951D02*
X183574857Y-67566666D01*
X183574857Y-67566666D02*
X183612952Y-67490475D01*
X183612952Y-67490475D02*
X183651047Y-67452380D01*
X183651047Y-67452380D02*
X183727238Y-67414285D01*
X183727238Y-67414285D02*
X183917714Y-67414285D01*
X183917714Y-67414285D02*
X183993904Y-67452380D01*
X183993904Y-67452380D02*
X184032000Y-67490475D01*
X184032000Y-67490475D02*
X184070095Y-67566666D01*
X184070095Y-67566666D02*
X184070095Y-67795237D01*
X184070095Y-67795237D02*
X184032000Y-67871428D01*
X184032000Y-67871428D02*
X183993904Y-67909523D01*
X183270095Y-67185713D02*
X184070095Y-66919046D01*
X184070095Y-66919046D02*
X183270095Y-66652380D01*
D11*
X187661904Y-91525238D02*
X187566666Y-91477619D01*
X187566666Y-91477619D02*
X187423809Y-91477619D01*
X187423809Y-91477619D02*
X187280952Y-91525238D01*
X187280952Y-91525238D02*
X187185714Y-91620476D01*
X187185714Y-91620476D02*
X187138095Y-91715714D01*
X187138095Y-91715714D02*
X187090476Y-91906190D01*
X187090476Y-91906190D02*
X187090476Y-92049047D01*
X187090476Y-92049047D02*
X187138095Y-92239523D01*
X187138095Y-92239523D02*
X187185714Y-92334761D01*
X187185714Y-92334761D02*
X187280952Y-92430000D01*
X187280952Y-92430000D02*
X187423809Y-92477619D01*
X187423809Y-92477619D02*
X187519047Y-92477619D01*
X187519047Y-92477619D02*
X187661904Y-92430000D01*
X187661904Y-92430000D02*
X187709523Y-92382380D01*
X187709523Y-92382380D02*
X187709523Y-92049047D01*
X187709523Y-92049047D02*
X187519047Y-92049047D01*
D10*
X183208190Y-78490476D02*
X183170095Y-78566666D01*
X183170095Y-78566666D02*
X183170095Y-78680952D01*
X183170095Y-78680952D02*
X183208190Y-78795238D01*
X183208190Y-78795238D02*
X183284380Y-78871428D01*
X183284380Y-78871428D02*
X183360571Y-78909523D01*
X183360571Y-78909523D02*
X183512952Y-78947619D01*
X183512952Y-78947619D02*
X183627238Y-78947619D01*
X183627238Y-78947619D02*
X183779619Y-78909523D01*
X183779619Y-78909523D02*
X183855809Y-78871428D01*
X183855809Y-78871428D02*
X183932000Y-78795238D01*
X183932000Y-78795238D02*
X183970095Y-78680952D01*
X183970095Y-78680952D02*
X183970095Y-78604761D01*
X183970095Y-78604761D02*
X183932000Y-78490476D01*
X183932000Y-78490476D02*
X183893904Y-78452380D01*
X183893904Y-78452380D02*
X183627238Y-78452380D01*
X183627238Y-78452380D02*
X183627238Y-78604761D01*
X183589142Y-73099999D02*
X183970095Y-73099999D01*
X183170095Y-73366666D02*
X183589142Y-73099999D01*
X183589142Y-73099999D02*
X183170095Y-72833333D01*
X162090476Y-99370095D02*
X162585714Y-99370095D01*
X162585714Y-99370095D02*
X162319048Y-99674857D01*
X162319048Y-99674857D02*
X162433333Y-99674857D01*
X162433333Y-99674857D02*
X162509524Y-99712952D01*
X162509524Y-99712952D02*
X162547619Y-99751047D01*
X162547619Y-99751047D02*
X162585714Y-99827238D01*
X162585714Y-99827238D02*
X162585714Y-100017714D01*
X162585714Y-100017714D02*
X162547619Y-100093904D01*
X162547619Y-100093904D02*
X162509524Y-100132000D01*
X162509524Y-100132000D02*
X162433333Y-100170095D01*
X162433333Y-100170095D02*
X162204762Y-100170095D01*
X162204762Y-100170095D02*
X162128571Y-100132000D01*
X162128571Y-100132000D02*
X162090476Y-100093904D01*
X162814286Y-99370095D02*
X163080953Y-100170095D01*
X163080953Y-100170095D02*
X163347619Y-99370095D01*
D11*
X154933333Y-104562619D02*
X154933333Y-105276904D01*
X154933333Y-105276904D02*
X154885714Y-105419761D01*
X154885714Y-105419761D02*
X154790476Y-105515000D01*
X154790476Y-105515000D02*
X154647619Y-105562619D01*
X154647619Y-105562619D02*
X154552381Y-105562619D01*
X155552381Y-105562619D02*
X155457143Y-105515000D01*
X155457143Y-105515000D02*
X155409524Y-105467380D01*
X155409524Y-105467380D02*
X155361905Y-105372142D01*
X155361905Y-105372142D02*
X155361905Y-105086428D01*
X155361905Y-105086428D02*
X155409524Y-104991190D01*
X155409524Y-104991190D02*
X155457143Y-104943571D01*
X155457143Y-104943571D02*
X155552381Y-104895952D01*
X155552381Y-104895952D02*
X155695238Y-104895952D01*
X155695238Y-104895952D02*
X155790476Y-104943571D01*
X155790476Y-104943571D02*
X155838095Y-104991190D01*
X155838095Y-104991190D02*
X155885714Y-105086428D01*
X155885714Y-105086428D02*
X155885714Y-105372142D01*
X155885714Y-105372142D02*
X155838095Y-105467380D01*
X155838095Y-105467380D02*
X155790476Y-105515000D01*
X155790476Y-105515000D02*
X155695238Y-105562619D01*
X155695238Y-105562619D02*
X155552381Y-105562619D01*
X156219048Y-104895952D02*
X156457143Y-105562619D01*
X156695238Y-104895952D02*
X156457143Y-105562619D01*
X156457143Y-105562619D02*
X156361905Y-105800714D01*
X156361905Y-105800714D02*
X156314286Y-105848333D01*
X156314286Y-105848333D02*
X156219048Y-105895952D01*
X156980953Y-104562619D02*
X157647619Y-105562619D01*
X157647619Y-104562619D02*
X156980953Y-105562619D01*
X188362619Y-74219047D02*
X189076904Y-74219047D01*
X189076904Y-74219047D02*
X189219761Y-74266666D01*
X189219761Y-74266666D02*
X189315000Y-74361904D01*
X189315000Y-74361904D02*
X189362619Y-74504761D01*
X189362619Y-74504761D02*
X189362619Y-74599999D01*
X189362619Y-73599999D02*
X189315000Y-73695237D01*
X189315000Y-73695237D02*
X189267380Y-73742856D01*
X189267380Y-73742856D02*
X189172142Y-73790475D01*
X189172142Y-73790475D02*
X188886428Y-73790475D01*
X188886428Y-73790475D02*
X188791190Y-73742856D01*
X188791190Y-73742856D02*
X188743571Y-73695237D01*
X188743571Y-73695237D02*
X188695952Y-73599999D01*
X188695952Y-73599999D02*
X188695952Y-73457142D01*
X188695952Y-73457142D02*
X188743571Y-73361904D01*
X188743571Y-73361904D02*
X188791190Y-73314285D01*
X188791190Y-73314285D02*
X188886428Y-73266666D01*
X188886428Y-73266666D02*
X189172142Y-73266666D01*
X189172142Y-73266666D02*
X189267380Y-73314285D01*
X189267380Y-73314285D02*
X189315000Y-73361904D01*
X189315000Y-73361904D02*
X189362619Y-73457142D01*
X189362619Y-73457142D02*
X189362619Y-73599999D01*
X188695952Y-72933332D02*
X189362619Y-72695237D01*
X188695952Y-72457142D02*
X189362619Y-72695237D01*
X189362619Y-72695237D02*
X189600714Y-72790475D01*
X189600714Y-72790475D02*
X189648333Y-72838094D01*
X189648333Y-72838094D02*
X189695952Y-72933332D01*
X188886428Y-71885713D02*
X189362619Y-71885713D01*
X188362619Y-72219046D02*
X188886428Y-71885713D01*
X188886428Y-71885713D02*
X188362619Y-71552380D01*
D12*
X148010000Y-103630000D02*
X165850000Y-103630000D01*
X148010000Y-103630000D02*
X148010000Y-100970000D01*
X165850000Y-103630000D02*
X165850000Y-100970000D01*
X148010000Y-100970000D02*
X165850000Y-100970000D01*
X187430000Y-81990000D02*
X187430000Y-64150000D01*
X187430000Y-81990000D02*
X184770000Y-81990000D01*
X187430000Y-64150000D02*
X184770000Y-64150000D01*
X184770000Y-81990000D02*
X184770000Y-64150000D01*
X179750000Y-104850000D02*
X181000000Y-104850000D01*
X180040000Y-104560000D02*
X186010000Y-104560000D01*
X186010000Y-104560000D02*
X186010000Y-89440000D01*
X180050000Y-104550000D02*
X180800000Y-104550000D01*
X180800000Y-104550000D02*
X180800000Y-102750000D01*
X182300000Y-104550000D02*
X182300000Y-103800000D01*
X182300000Y-103800000D02*
X185250000Y-103800000D01*
X185250000Y-103800000D02*
X185250000Y-97000000D01*
X179750000Y-103600000D02*
X179750000Y-104850000D01*
X180050000Y-102750000D02*
X180050000Y-104550000D01*
X180800000Y-102750000D02*
X180050000Y-102750000D01*
X180050000Y-101250000D02*
X180800000Y-101250000D01*
X180800000Y-101250000D02*
X180800000Y-92750000D01*
X180050000Y-92750000D02*
X180050000Y-101250000D01*
X180800000Y-92750000D02*
X180050000Y-92750000D01*
X180050000Y-91250000D02*
X180800000Y-91250000D01*
X180800000Y-91250000D02*
X180800000Y-89450000D01*
X182300000Y-90200000D02*
X185250000Y-90200000D01*
X185250000Y-90200000D02*
X185250000Y-97000000D01*
X180050000Y-89450000D02*
X180050000Y-91250000D01*
X180800000Y-89450000D02*
X180050000Y-89450000D01*
X182300000Y-89450000D02*
X182300000Y-90200000D01*
X180040000Y-89440000D02*
X180040000Y-104560000D01*
X186010000Y-89440000D02*
X180040000Y-89440000D01*
D13*
X147000000Y-107100000D02*
X187000000Y-107100000D01*
X147000000Y-95100000D02*
X178900000Y-95100000D01*
X178900000Y-63000000D02*
X187700000Y-63000000D01*
X189900000Y-68700000D02*
X187700000Y-63000000D01*
X178900000Y-95100000D02*
X178900000Y-63000000D01*
X189900000Y-104200000D02*
X189900000Y-68700000D01*
X187000000Y-107100000D02*
G75*
G03*
X189900000Y-104200000I0J2900000D01*
G01*
X147000000Y-107100000D02*
X147000000Y-95100000D01*
M02*
