%TF.GenerationSoftware,KiCad,Pcbnew,(6.0.0)*%
%TF.CreationDate,2022-07-24T19:50:36-05:00*%
%TF.ProjectId,DriveByWireMr360Sensor,44726976-6542-4795-9769-72654d723336,rev?*%
%TF.SameCoordinates,Original*%
%TF.FileFunction,Copper,L2,Bot*%
%TF.FilePolarity,Positive*%
%FSLAX46Y46*%
G04 Gerber Fmt 4.6, Leading zero omitted, Abs format (unit mm)*
G04 Created by KiCad (PCBNEW (6.0.0)) date 2022-07-24 19:50:36*
%MOMM*%
%LPD*%
G01*
G04 APERTURE LIST*
G04 Aperture macros list*
%AMRoundRect*
0 Rectangle with rounded corners*
0 $1 Rounding radius*
0 $2 $3 $4 $5 $6 $7 $8 $9 X,Y pos of 4 corners*
0 Add a 4 corners polygon primitive as box body*
4,1,4,$2,$3,$4,$5,$6,$7,$8,$9,$2,$3,0*
0 Add four circle primitives for the rounded corners*
1,1,$1+$1,$2,$3*
1,1,$1+$1,$4,$5*
1,1,$1+$1,$6,$7*
1,1,$1+$1,$8,$9*
0 Add four rect primitives between the rounded corners*
20,1,$1+$1,$2,$3,$4,$5,0*
20,1,$1+$1,$4,$5,$6,$7,0*
20,1,$1+$1,$6,$7,$8,$9,0*
20,1,$1+$1,$8,$9,$2,$3,0*%
G04 Aperture macros list end*
%TA.AperFunction,SMDPad,CuDef*%
%ADD10R,0.700000X1.525000*%
%TD*%
%TA.AperFunction,SMDPad,CuDef*%
%ADD11RoundRect,0.200000X-0.200000X-0.275000X0.200000X-0.275000X0.200000X0.275000X-0.200000X0.275000X0*%
%TD*%
%TA.AperFunction,SMDPad,CuDef*%
%ADD12RoundRect,0.200000X0.200000X0.275000X-0.200000X0.275000X-0.200000X-0.275000X0.200000X-0.275000X0*%
%TD*%
%TA.AperFunction,SMDPad,CuDef*%
%ADD13R,0.300000X0.750000*%
%TD*%
%TA.AperFunction,SMDPad,CuDef*%
%ADD14R,1.750000X0.450000*%
%TD*%
%TA.AperFunction,SMDPad,CuDef*%
%ADD15RoundRect,0.150000X0.625000X-0.150000X0.625000X0.150000X-0.625000X0.150000X-0.625000X-0.150000X0*%
%TD*%
%TA.AperFunction,SMDPad,CuDef*%
%ADD16RoundRect,0.250000X0.650000X-0.350000X0.650000X0.350000X-0.650000X0.350000X-0.650000X-0.350000X0*%
%TD*%
%TA.AperFunction,ViaPad*%
%ADD17C,0.800000*%
%TD*%
%TA.AperFunction,Conductor*%
%ADD18C,0.250000*%
%TD*%
%TA.AperFunction,Conductor*%
%ADD19C,0.228600*%
%TD*%
G04 APERTURE END LIST*
D10*
%TO.P,IC1,1,SIN_P*%
%TO.N,SourceSignal1*%
X101395000Y-76438000D03*
%TO.P,IC1,2,VDD_P*%
%TO.N,+3V3*%
X102665000Y-76438000D03*
%TO.P,IC1,3,COS_P*%
%TO.N,SourceSignal2*%
X103935000Y-76438000D03*
%TO.P,IC1,4,GND_P*%
%TO.N,GND*%
X105205000Y-76438000D03*
%TO.P,IC1,5,COS_N*%
%TO.N,LM358_InP2*%
X105205000Y-81862000D03*
%TO.P,IC1,6,VDD_N*%
%TO.N,+3V3*%
X103935000Y-81862000D03*
%TO.P,IC1,7,SIN_N*%
%TO.N,LM358_InP1*%
X102665000Y-81862000D03*
%TO.P,IC1,8,GND_N*%
%TO.N,GND*%
X101395000Y-81862000D03*
%TD*%
D11*
%TO.P,R4,1*%
%TO.N,LM358_InM2*%
X100035000Y-72970000D03*
%TO.P,R4,2*%
%TO.N,AnalogSignal2*%
X101685000Y-72970000D03*
%TD*%
D12*
%TO.P,R1,1*%
%TO.N,LM358_InM1*%
X104975000Y-85350000D03*
%TO.P,R1,2*%
%TO.N,SourceSignal1*%
X103325000Y-85350000D03*
%TD*%
%TO.P,R3,1*%
%TO.N,LM358_InM2*%
X105173000Y-72980000D03*
%TO.P,R3,2*%
%TO.N,SourceSignal2*%
X103523000Y-72980000D03*
%TD*%
D13*
%TO.P,U1,1*%
%TO.N,AnalogSignal1*%
X98830000Y-80410000D03*
%TO.P,U1,2,-*%
%TO.N,LM358_InM1*%
X98330000Y-80410000D03*
%TO.P,U1,3,+*%
%TO.N,LM358_InP1*%
X97830000Y-80410000D03*
%TO.P,U1,4,V-*%
%TO.N,GND*%
X97330000Y-80410000D03*
%TO.P,U1,5,+*%
%TO.N,LM358_InP2*%
X97330000Y-78410000D03*
%TO.P,U1,6,-*%
%TO.N,LM358_InM2*%
X97830000Y-78410000D03*
%TO.P,U1,7*%
%TO.N,AnalogSignal2*%
X98330000Y-78410000D03*
%TO.P,U1,8,V+*%
%TO.N,+3V3*%
X98830000Y-78410000D03*
D14*
%TO.P,U1,9*%
%TO.N,N/C*%
X98080000Y-79410000D03*
%TD*%
D11*
%TO.P,R2,1*%
%TO.N,LM358_InM1*%
X100095000Y-85310000D03*
%TO.P,R2,2*%
%TO.N,AnalogSignal1*%
X101745000Y-85310000D03*
%TD*%
D15*
%TO.P,J1,1,Pin_1*%
%TO.N,GND*%
X90865000Y-80530000D03*
%TO.P,J1,2,Pin_2*%
%TO.N,+3V3*%
X90865000Y-79530000D03*
%TO.P,J1,3,Pin_3*%
%TO.N,AnalogSignal1*%
X90865000Y-78530000D03*
%TO.P,J1,4,Pin_4*%
%TO.N,AnalogSignal2*%
X90865000Y-77530000D03*
D16*
%TO.P,J1,MP*%
%TO.N,N/C*%
X93390000Y-81830000D03*
X93390000Y-76230000D03*
%TD*%
D17*
%TO.N,GND*%
X94170000Y-70990000D03*
X98500000Y-70960000D03*
X99750000Y-77170000D03*
X90500000Y-82090000D03*
X95870000Y-76660000D03*
X91040000Y-72540000D03*
X92350000Y-87310000D03*
X98860000Y-86890000D03*
X107090000Y-86260000D03*
X107090000Y-71350000D03*
%TO.N,+3V3*%
X103920000Y-80200000D03*
X99970000Y-78570000D03*
X94630000Y-79530000D03*
%TO.N,GND*%
X104820000Y-79510000D03*
%TO.N,SourceSignal1*%
X103448546Y-78690999D03*
X102350000Y-74890000D03*
%TO.N,AnalogSignal1*%
X99995989Y-81152425D03*
X92410000Y-78540000D03*
%TO.N,LM358_InM2*%
X99260000Y-75110000D03*
X97600000Y-77420000D03*
%TO.N,LM358_InP2*%
X105280000Y-83640000D03*
X94760000Y-80750000D03*
%TD*%
D18*
%TO.N,LM358_InP1*%
X105810000Y-85800000D02*
X105000000Y-86610000D01*
X105000000Y-86610000D02*
X100020000Y-86610000D01*
X99190000Y-85780000D02*
X100020000Y-86610000D01*
X99190000Y-83060000D02*
X99190000Y-85780000D01*
X98964267Y-82834267D02*
X99190000Y-83060000D01*
X98964267Y-82317461D02*
X98964267Y-82834267D01*
D19*
%TO.N,LM358_InM1*%
X100095000Y-83691012D02*
X100095000Y-85310000D01*
X99628810Y-83224822D02*
X100095000Y-83691012D01*
X99628810Y-82878238D02*
X99628810Y-83224822D01*
X99503079Y-82235701D02*
X99503079Y-82752507D01*
X98330000Y-80410000D02*
X98330000Y-81062622D01*
%TO.N,AnalogSignal1*%
X100056921Y-81213357D02*
X99995989Y-81152425D01*
%TO.N,LM358_InM1*%
X99503079Y-82752507D02*
X99628810Y-82878238D01*
%TO.N,AnalogSignal1*%
X100056921Y-82906015D02*
X100056921Y-81213357D01*
X101745000Y-84594094D02*
X100056921Y-82906015D01*
%TO.N,LM358_InM1*%
X98330000Y-81062622D02*
X99503079Y-82235701D01*
%TO.N,AnalogSignal1*%
X101745000Y-85310000D02*
X101745000Y-84594094D01*
D18*
%TO.N,SourceSignal2*%
X103935000Y-73392000D02*
X103935000Y-76438000D01*
X103523000Y-72980000D02*
X103935000Y-73392000D01*
%TO.N,SourceSignal1*%
X101395000Y-75845000D02*
X102350000Y-74890000D01*
X101395000Y-76438000D02*
X101395000Y-75845000D01*
%TO.N,+3V3*%
X103935000Y-80215000D02*
X103920000Y-80200000D01*
X103935000Y-81862000D02*
X103935000Y-80215000D01*
%TO.N,GND*%
X104785499Y-79475499D02*
X104820000Y-79510000D01*
X103369001Y-79475499D02*
X104785499Y-79475499D01*
X101395000Y-81449500D02*
X103369001Y-79475499D01*
X101395000Y-81862000D02*
X101395000Y-81449500D01*
%TO.N,SourceSignal1*%
X102989001Y-78690999D02*
X103448546Y-78690999D01*
X100720489Y-80959511D02*
X102989001Y-78690999D01*
X101375000Y-83395000D02*
X101166478Y-83395000D01*
X101166478Y-83395000D02*
X100720489Y-82949011D01*
X103325000Y-85350000D02*
X101375000Y-83400000D01*
X100720489Y-82949011D02*
X100720489Y-80959511D01*
X101375000Y-83400000D02*
X101375000Y-83395000D01*
D19*
%TO.N,+3V3*%
X102665000Y-76850500D02*
X102665000Y-76438000D01*
X100945500Y-78570000D02*
X102665000Y-76850500D01*
X99970000Y-78570000D02*
X100945500Y-78570000D01*
D18*
%TO.N,GND*%
X104820000Y-79510000D02*
X105205000Y-79125000D01*
X105205000Y-79125000D02*
X105205000Y-76438000D01*
D19*
%TO.N,AnalogSignal1*%
X99253564Y-80410000D02*
X99995989Y-81152425D01*
X98830000Y-80410000D02*
X99253564Y-80410000D01*
D18*
%TO.N,LM358_InP1*%
X98964267Y-82317461D02*
X97830000Y-81183194D01*
X105810000Y-84950000D02*
X105810000Y-85800000D01*
X104940980Y-84550480D02*
X105410480Y-84550480D01*
X102665000Y-82274500D02*
X104940980Y-84550480D01*
X102665000Y-81862000D02*
X102665000Y-82274500D01*
X97830000Y-81183194D02*
X97830000Y-80410000D01*
X105410480Y-84550480D02*
X105810000Y-84950000D01*
%TO.N,LM358_InP2*%
X105205000Y-81862000D02*
X105205000Y-83565000D01*
X105205000Y-83565000D02*
X105280000Y-83640000D01*
D19*
%TO.N,+3V3*%
X99810000Y-78410000D02*
X99970000Y-78570000D01*
X90865000Y-79530000D02*
X94630000Y-79530000D01*
X98830000Y-78410000D02*
X99810000Y-78410000D01*
%TO.N,GND*%
X94996180Y-82743820D02*
X92506459Y-82743820D01*
X92506459Y-82743820D02*
X90865000Y-81102361D01*
X97330000Y-80410000D02*
X94996180Y-82743820D01*
X90865000Y-81102361D02*
X90865000Y-80530000D01*
%TO.N,AnalogSignal1*%
X90865000Y-78530000D02*
X92400000Y-78530000D01*
X92400000Y-78530000D02*
X92410000Y-78540000D01*
%TO.N,AnalogSignal2*%
X101685000Y-72970000D02*
X101685000Y-74115000D01*
X97895667Y-76706199D02*
X98330000Y-77140532D01*
X90865000Y-77530000D02*
X96470532Y-77530000D01*
X98330000Y-77470000D02*
X98330000Y-78410000D01*
X97294333Y-76706199D02*
X97895667Y-76706199D01*
X98330000Y-77140532D02*
X98330000Y-77470000D01*
X96470532Y-77530000D02*
X97294333Y-76706199D01*
X101685000Y-74115000D02*
X98330000Y-77470000D01*
%TO.N,LM358_InM1*%
X104186180Y-86138820D02*
X104975000Y-85350000D01*
X100095000Y-85310000D02*
X100923820Y-86138820D01*
X100923820Y-86138820D02*
X104186180Y-86138820D01*
%TO.N,LM358_InM2*%
X104374180Y-72181180D02*
X105173000Y-72980000D01*
X97830000Y-78410000D02*
X97830000Y-77650000D01*
X99260000Y-73745000D02*
X100035000Y-72970000D01*
X97830000Y-77650000D02*
X97600000Y-77420000D01*
X100823820Y-72181180D02*
X104374180Y-72181180D01*
X100035000Y-72970000D02*
X100823820Y-72181180D01*
X99260000Y-75110000D02*
X99260000Y-73745000D01*
%TO.N,LM358_InP2*%
X94760000Y-80750000D02*
X97100000Y-78410000D01*
X97100000Y-78410000D02*
X97330000Y-78410000D01*
%TD*%
%TA.AperFunction,Conductor*%
%TO.N,GND*%
G36*
X113156057Y-70630500D02*
G01*
X113170858Y-70632805D01*
X113170861Y-70632805D01*
X113179730Y-70634186D01*
X113202360Y-70631227D01*
X113222901Y-70630234D01*
X113749001Y-70647824D01*
X113757403Y-70648387D01*
X114313677Y-70704348D01*
X114322023Y-70705470D01*
X114873330Y-70798464D01*
X114881581Y-70800141D01*
X115425451Y-70929752D01*
X115433573Y-70931977D01*
X115967575Y-71097625D01*
X115975509Y-71100381D01*
X116123134Y-71157237D01*
X116497260Y-71301329D01*
X116505013Y-71304617D01*
X117012151Y-71539954D01*
X117019664Y-71543750D01*
X117238746Y-71663810D01*
X117509979Y-71812450D01*
X117517224Y-71816742D01*
X117902017Y-72062384D01*
X117988461Y-72117568D01*
X117995401Y-72122331D01*
X118018600Y-72139424D01*
X118445531Y-72453990D01*
X118452139Y-72459209D01*
X118879094Y-72820176D01*
X118885322Y-72825808D01*
X119287231Y-73214505D01*
X119293069Y-73220542D01*
X119658264Y-73624319D01*
X119668109Y-73635204D01*
X119673539Y-73641626D01*
X119997787Y-74052227D01*
X120020043Y-74080410D01*
X120025034Y-74087183D01*
X120127686Y-74236722D01*
X120341454Y-74548128D01*
X120345985Y-74555225D01*
X120630919Y-75036288D01*
X120634965Y-75043673D01*
X120887112Y-75542655D01*
X120890657Y-75550293D01*
X120989739Y-75783955D01*
X121059533Y-75948548D01*
X121108928Y-76065036D01*
X121111951Y-76072887D01*
X121281848Y-76562168D01*
X121295347Y-76601044D01*
X121297839Y-76609075D01*
X121406071Y-77004183D01*
X121445555Y-77148323D01*
X121447506Y-77156511D01*
X121558794Y-77704025D01*
X121558869Y-77704396D01*
X121560268Y-77712686D01*
X121601200Y-78017044D01*
X121634790Y-78266810D01*
X121635633Y-78275188D01*
X121672977Y-78833042D01*
X121673258Y-78841458D01*
X121673258Y-79400542D01*
X121672977Y-79408958D01*
X121635633Y-79966812D01*
X121634790Y-79975190D01*
X121619919Y-80085767D01*
X121564610Y-80497032D01*
X121560270Y-80529301D01*
X121558871Y-80537590D01*
X121484679Y-80902604D01*
X121447507Y-81085485D01*
X121445556Y-81093673D01*
X121303054Y-81613888D01*
X121297842Y-81632914D01*
X121295350Y-81640945D01*
X121118301Y-82150828D01*
X121111954Y-82169106D01*
X121108931Y-82176956D01*
X121041420Y-82336166D01*
X120890657Y-82691707D01*
X120887112Y-82699345D01*
X120634965Y-83198327D01*
X120630919Y-83205712D01*
X120345985Y-83686775D01*
X120341454Y-83693872D01*
X120029812Y-84147857D01*
X120025038Y-84154811D01*
X120020047Y-84161584D01*
X119676447Y-84596692D01*
X119673546Y-84600365D01*
X119668116Y-84606788D01*
X119293069Y-85021458D01*
X119287231Y-85027495D01*
X118885322Y-85416192D01*
X118879094Y-85421824D01*
X118624414Y-85637142D01*
X118452139Y-85782791D01*
X118445531Y-85788010D01*
X118348130Y-85859776D01*
X118032338Y-86092454D01*
X117995404Y-86119667D01*
X117988463Y-86124430D01*
X117808199Y-86239507D01*
X117517224Y-86425258D01*
X117509979Y-86429550D01*
X117019666Y-86698249D01*
X117012151Y-86702046D01*
X116505013Y-86937383D01*
X116497260Y-86940671D01*
X115975509Y-87141619D01*
X115967575Y-87144375D01*
X115635213Y-87247474D01*
X115433573Y-87310023D01*
X115425451Y-87312248D01*
X114881581Y-87441859D01*
X114873330Y-87443536D01*
X114322023Y-87536530D01*
X114313677Y-87537652D01*
X114210271Y-87548055D01*
X113757387Y-87593615D01*
X113749016Y-87594176D01*
X113421495Y-87605127D01*
X113230446Y-87611514D01*
X113206852Y-87610084D01*
X113201145Y-87609195D01*
X113201138Y-87609195D01*
X113192270Y-87607814D01*
X113183368Y-87608978D01*
X113183365Y-87608978D01*
X113160749Y-87611936D01*
X113144411Y-87613000D01*
X91373669Y-87613000D01*
X91305548Y-87592998D01*
X91259055Y-87539342D01*
X91255977Y-87531996D01*
X91086731Y-87089320D01*
X91085089Y-87084764D01*
X90900745Y-86540789D01*
X90796830Y-86234150D01*
X90795370Y-86229553D01*
X90793301Y-86222574D01*
X90583914Y-85516523D01*
X90540013Y-85368487D01*
X90538726Y-85363819D01*
X90366667Y-84689584D01*
X90318287Y-84500000D01*
X94886526Y-84500000D01*
X94906391Y-84752403D01*
X94907545Y-84757210D01*
X94907546Y-84757216D01*
X94929848Y-84850111D01*
X94965495Y-84998591D01*
X94967388Y-85003162D01*
X94967389Y-85003164D01*
X94977995Y-85028768D01*
X95062384Y-85232502D01*
X95194672Y-85448376D01*
X95359102Y-85640898D01*
X95551624Y-85805328D01*
X95767498Y-85937616D01*
X95772068Y-85939509D01*
X95772072Y-85939511D01*
X95955377Y-86015438D01*
X96001409Y-86034505D01*
X96070233Y-86051028D01*
X96242784Y-86092454D01*
X96242790Y-86092455D01*
X96247597Y-86093609D01*
X96347416Y-86101465D01*
X96434345Y-86108307D01*
X96434352Y-86108307D01*
X96436801Y-86108500D01*
X96563199Y-86108500D01*
X96565648Y-86108307D01*
X96565655Y-86108307D01*
X96652584Y-86101465D01*
X96752403Y-86093609D01*
X96757210Y-86092455D01*
X96757216Y-86092454D01*
X96929767Y-86051028D01*
X96998591Y-86034505D01*
X97044623Y-86015438D01*
X97227928Y-85939511D01*
X97227932Y-85939509D01*
X97232502Y-85937616D01*
X97448376Y-85805328D01*
X97640898Y-85640898D01*
X97805328Y-85448376D01*
X97937616Y-85232502D01*
X98022006Y-85028768D01*
X98032611Y-85003164D01*
X98032612Y-85003162D01*
X98034505Y-84998591D01*
X98070152Y-84850111D01*
X98092454Y-84757216D01*
X98092455Y-84757210D01*
X98093609Y-84752403D01*
X98113474Y-84500000D01*
X98093609Y-84247597D01*
X98087536Y-84222298D01*
X98035660Y-84006221D01*
X98034505Y-84001409D01*
X98028426Y-83986732D01*
X97939511Y-83772072D01*
X97939509Y-83772068D01*
X97937616Y-83767498D01*
X97805328Y-83551624D01*
X97640898Y-83359102D01*
X97448376Y-83194672D01*
X97232502Y-83062384D01*
X97227932Y-83060491D01*
X97227928Y-83060489D01*
X97003164Y-82967389D01*
X97003162Y-82967388D01*
X96998591Y-82965495D01*
X96913968Y-82945179D01*
X96757216Y-82907546D01*
X96757210Y-82907545D01*
X96752403Y-82906391D01*
X96652584Y-82898535D01*
X96565655Y-82891693D01*
X96565648Y-82891693D01*
X96563199Y-82891500D01*
X96436801Y-82891500D01*
X96434352Y-82891693D01*
X96434345Y-82891693D01*
X96347416Y-82898535D01*
X96247597Y-82906391D01*
X96242790Y-82907545D01*
X96242784Y-82907546D01*
X96086032Y-82945179D01*
X96001409Y-82965495D01*
X95996838Y-82967388D01*
X95996836Y-82967389D01*
X95772072Y-83060489D01*
X95772068Y-83060491D01*
X95767498Y-83062384D01*
X95551624Y-83194672D01*
X95359102Y-83359102D01*
X95194672Y-83551624D01*
X95062384Y-83767498D01*
X95060491Y-83772068D01*
X95060489Y-83772072D01*
X94971574Y-83986732D01*
X94965495Y-84001409D01*
X94964340Y-84006221D01*
X94912465Y-84222298D01*
X94906391Y-84247597D01*
X94886526Y-84500000D01*
X90318287Y-84500000D01*
X90316653Y-84493596D01*
X90315548Y-84488895D01*
X90312936Y-84476722D01*
X90240115Y-84137428D01*
X90127075Y-83610743D01*
X90126150Y-83605989D01*
X89971564Y-82721251D01*
X89970823Y-82716465D01*
X89905471Y-82233650D01*
X89850356Y-81826472D01*
X89849801Y-81821683D01*
X89838508Y-81704525D01*
X89811043Y-81419611D01*
X89824417Y-81349886D01*
X89873364Y-81298459D01*
X89942344Y-81281659D01*
X89976352Y-81289535D01*
X89976600Y-81288682D01*
X90130065Y-81333269D01*
X90142667Y-81335570D01*
X90171084Y-81337807D01*
X90176014Y-81338000D01*
X90592885Y-81338000D01*
X90608124Y-81333525D01*
X90609329Y-81332135D01*
X90611000Y-81324452D01*
X90611000Y-80464500D01*
X90631002Y-80396379D01*
X90684658Y-80349886D01*
X90737000Y-80338500D01*
X91556502Y-80338500D01*
X91558950Y-80338307D01*
X91558958Y-80338307D01*
X91587421Y-80336067D01*
X91587426Y-80336066D01*
X91593831Y-80335562D01*
X91665578Y-80314718D01*
X91745989Y-80291357D01*
X91745993Y-80291355D01*
X91753601Y-80289145D01*
X91758725Y-80286115D01*
X91807570Y-80276000D01*
X92126878Y-80276000D01*
X92140408Y-80272027D01*
X92142012Y-80260868D01*
X92171505Y-80196288D01*
X92231232Y-80157904D01*
X92266730Y-80152800D01*
X93837510Y-80152800D01*
X93905631Y-80172802D01*
X93952124Y-80226458D01*
X93962228Y-80296732D01*
X93946630Y-80341799D01*
X93925473Y-80378444D01*
X93923431Y-80384729D01*
X93885288Y-80502121D01*
X93866458Y-80560072D01*
X93865768Y-80566635D01*
X93865768Y-80566636D01*
X93861350Y-80608671D01*
X93834337Y-80674327D01*
X93776115Y-80714957D01*
X93736040Y-80721500D01*
X92689600Y-80721500D01*
X92686354Y-80721837D01*
X92686350Y-80721837D01*
X92590692Y-80731762D01*
X92590688Y-80731763D01*
X92583834Y-80732474D01*
X92577298Y-80734655D01*
X92577296Y-80734655D01*
X92531302Y-80750000D01*
X92416054Y-80788450D01*
X92349445Y-80829669D01*
X92325212Y-80844665D01*
X92256760Y-80863503D01*
X92188991Y-80842342D01*
X92153105Y-80805943D01*
X92141520Y-80788029D01*
X92132630Y-80784000D01*
X91137115Y-80784000D01*
X91121876Y-80788475D01*
X91120671Y-80789865D01*
X91119000Y-80797548D01*
X91119000Y-81319884D01*
X91123475Y-81335123D01*
X91124865Y-81336328D01*
X91132548Y-81337999D01*
X91553984Y-81337999D01*
X91558920Y-81337805D01*
X91587336Y-81335570D01*
X91599931Y-81333270D01*
X91745790Y-81290893D01*
X91760226Y-81284646D01*
X91796649Y-81263106D01*
X91865466Y-81245647D01*
X91932797Y-81268165D01*
X91977265Y-81323510D01*
X91986131Y-81384402D01*
X91981500Y-81429600D01*
X91981500Y-82230400D01*
X91992474Y-82336166D01*
X92048450Y-82503946D01*
X92141522Y-82654348D01*
X92146704Y-82659521D01*
X92187461Y-82700207D01*
X92266697Y-82779305D01*
X92272927Y-82783145D01*
X92272928Y-82783146D01*
X92410090Y-82867694D01*
X92417262Y-82872115D01*
X92475706Y-82891500D01*
X92578611Y-82925632D01*
X92578613Y-82925632D01*
X92585139Y-82927797D01*
X92591975Y-82928497D01*
X92591978Y-82928498D01*
X92627331Y-82932120D01*
X92689600Y-82938500D01*
X94090400Y-82938500D01*
X94093646Y-82938163D01*
X94093650Y-82938163D01*
X94189308Y-82928238D01*
X94189312Y-82928237D01*
X94196166Y-82927526D01*
X94202702Y-82925345D01*
X94202704Y-82925345D01*
X94353051Y-82875185D01*
X94363946Y-82871550D01*
X94514348Y-82778478D01*
X94639305Y-82653303D01*
X94668911Y-82605274D01*
X94728275Y-82508968D01*
X94728276Y-82508966D01*
X94732115Y-82502738D01*
X94787797Y-82334861D01*
X94798500Y-82230400D01*
X94798500Y-81772646D01*
X94818502Y-81704525D01*
X94872158Y-81658032D01*
X94898302Y-81649399D01*
X95042288Y-81618794D01*
X95075716Y-81603911D01*
X95210722Y-81543803D01*
X95210724Y-81543802D01*
X95216752Y-81541118D01*
X95236761Y-81526581D01*
X95296139Y-81483440D01*
X95371253Y-81428866D01*
X95453245Y-81337805D01*
X95494621Y-81291852D01*
X95494622Y-81291851D01*
X95499040Y-81286944D01*
X95588578Y-81131860D01*
X95591223Y-81127279D01*
X95591224Y-81127278D01*
X95594527Y-81121556D01*
X95653542Y-80939928D01*
X95655083Y-80925272D01*
X95663554Y-80844665D01*
X95672685Y-80757797D01*
X95699697Y-80692141D01*
X95708899Y-80681873D01*
X96456905Y-79933867D01*
X96519217Y-79899841D01*
X96590032Y-79904906D01*
X96646868Y-79947453D01*
X96671679Y-80013973D01*
X96672000Y-80022962D01*
X96672000Y-80241885D01*
X96676475Y-80257124D01*
X96677865Y-80258329D01*
X96685548Y-80260000D01*
X97045500Y-80260000D01*
X97113621Y-80280002D01*
X97160114Y-80333658D01*
X97171500Y-80386000D01*
X97171500Y-80434000D01*
X97151498Y-80502121D01*
X97097842Y-80548614D01*
X97045500Y-80560000D01*
X96690116Y-80560000D01*
X96674877Y-80564475D01*
X96673672Y-80565865D01*
X96672001Y-80573548D01*
X96672001Y-80829669D01*
X96672371Y-80836490D01*
X96677895Y-80887352D01*
X96681521Y-80902604D01*
X96726676Y-81023054D01*
X96735214Y-81038649D01*
X96811715Y-81140724D01*
X96824276Y-81153285D01*
X96926351Y-81229786D01*
X96941946Y-81238324D01*
X97062394Y-81283478D01*
X97077649Y-81287105D01*
X97119272Y-81291627D01*
X97184834Y-81318869D01*
X97222817Y-81370509D01*
X97227805Y-81383108D01*
X97231649Y-81394336D01*
X97243982Y-81436787D01*
X97248015Y-81443606D01*
X97248017Y-81443611D01*
X97254293Y-81454222D01*
X97262988Y-81471970D01*
X97270448Y-81490811D01*
X97275110Y-81497227D01*
X97275110Y-81497228D01*
X97296436Y-81526581D01*
X97302952Y-81536501D01*
X97316644Y-81559652D01*
X97325458Y-81574556D01*
X97339779Y-81588877D01*
X97352619Y-81603910D01*
X97364528Y-81620301D01*
X97370632Y-81625351D01*
X97370637Y-81625356D01*
X97398598Y-81648487D01*
X97407379Y-81656477D01*
X98293863Y-82542962D01*
X98327888Y-82605274D01*
X98330767Y-82632057D01*
X98330767Y-82755500D01*
X98330240Y-82766683D01*
X98328565Y-82774176D01*
X98328814Y-82782102D01*
X98328814Y-82782103D01*
X98330705Y-82842253D01*
X98330767Y-82846212D01*
X98330767Y-82874123D01*
X98331264Y-82878057D01*
X98331264Y-82878058D01*
X98331272Y-82878123D01*
X98332205Y-82889960D01*
X98333594Y-82934156D01*
X98339245Y-82953606D01*
X98343254Y-82972967D01*
X98345793Y-82993064D01*
X98348712Y-83000435D01*
X98348712Y-83000437D01*
X98362071Y-83034179D01*
X98365916Y-83045409D01*
X98378249Y-83087860D01*
X98382282Y-83094679D01*
X98382284Y-83094684D01*
X98388560Y-83105295D01*
X98397255Y-83123043D01*
X98404715Y-83141884D01*
X98409377Y-83148300D01*
X98409377Y-83148301D01*
X98430703Y-83177654D01*
X98437219Y-83187574D01*
X98459725Y-83225629D01*
X98474046Y-83239950D01*
X98486886Y-83254983D01*
X98498795Y-83271374D01*
X98504900Y-83276424D01*
X98504906Y-83276431D01*
X98510817Y-83281321D01*
X98550554Y-83340155D01*
X98556500Y-83378404D01*
X98556500Y-85701233D01*
X98555973Y-85712416D01*
X98554298Y-85719909D01*
X98554547Y-85727835D01*
X98554547Y-85727836D01*
X98556438Y-85787986D01*
X98556500Y-85791945D01*
X98556500Y-85819856D01*
X98556997Y-85823790D01*
X98556997Y-85823791D01*
X98557005Y-85823856D01*
X98557938Y-85835693D01*
X98559327Y-85879889D01*
X98564978Y-85899339D01*
X98568987Y-85918700D01*
X98571526Y-85938797D01*
X98574445Y-85946168D01*
X98574445Y-85946170D01*
X98587804Y-85979912D01*
X98591649Y-85991142D01*
X98601771Y-86025983D01*
X98603982Y-86033593D01*
X98608015Y-86040412D01*
X98608017Y-86040417D01*
X98614293Y-86051028D01*
X98622988Y-86068776D01*
X98630448Y-86087617D01*
X98635110Y-86094033D01*
X98635110Y-86094034D01*
X98656436Y-86123387D01*
X98662952Y-86133307D01*
X98667530Y-86141047D01*
X98685458Y-86171362D01*
X98699779Y-86185683D01*
X98712619Y-86200716D01*
X98724528Y-86217107D01*
X98751605Y-86239507D01*
X98758605Y-86245298D01*
X98767384Y-86253288D01*
X99516343Y-87002247D01*
X99523887Y-87010537D01*
X99528000Y-87017018D01*
X99533777Y-87022443D01*
X99577667Y-87063658D01*
X99580509Y-87066413D01*
X99600230Y-87086134D01*
X99603425Y-87088612D01*
X99612447Y-87096318D01*
X99644679Y-87126586D01*
X99651628Y-87130406D01*
X99662432Y-87136346D01*
X99678956Y-87147199D01*
X99694959Y-87159613D01*
X99735543Y-87177176D01*
X99746173Y-87182383D01*
X99784940Y-87203695D01*
X99792617Y-87205666D01*
X99792622Y-87205668D01*
X99804558Y-87208732D01*
X99823266Y-87215137D01*
X99841855Y-87223181D01*
X99849683Y-87224421D01*
X99849690Y-87224423D01*
X99885524Y-87230099D01*
X99897144Y-87232505D01*
X99928959Y-87240673D01*
X99939970Y-87243500D01*
X99960224Y-87243500D01*
X99979934Y-87245051D01*
X99999943Y-87248220D01*
X100007835Y-87247474D01*
X100026580Y-87245702D01*
X100043962Y-87244059D01*
X100055819Y-87243500D01*
X104921233Y-87243500D01*
X104932416Y-87244027D01*
X104939909Y-87245702D01*
X104947835Y-87245453D01*
X104947836Y-87245453D01*
X105007986Y-87243562D01*
X105011945Y-87243500D01*
X105039856Y-87243500D01*
X105043791Y-87243003D01*
X105043856Y-87242995D01*
X105055693Y-87242062D01*
X105087951Y-87241048D01*
X105091970Y-87240922D01*
X105099889Y-87240673D01*
X105119343Y-87235021D01*
X105138700Y-87231013D01*
X105150930Y-87229468D01*
X105150931Y-87229468D01*
X105158797Y-87228474D01*
X105166168Y-87225555D01*
X105166170Y-87225555D01*
X105199912Y-87212196D01*
X105211142Y-87208351D01*
X105245983Y-87198229D01*
X105245984Y-87198229D01*
X105253593Y-87196018D01*
X105260412Y-87191985D01*
X105260417Y-87191983D01*
X105271028Y-87185707D01*
X105288776Y-87177012D01*
X105307617Y-87169552D01*
X105327987Y-87154753D01*
X105343387Y-87143564D01*
X105353307Y-87137048D01*
X105384535Y-87118580D01*
X105384538Y-87118578D01*
X105391362Y-87114542D01*
X105405683Y-87100221D01*
X105420717Y-87087380D01*
X105422432Y-87086134D01*
X105437107Y-87075472D01*
X105442158Y-87069367D01*
X105442163Y-87069362D01*
X105465299Y-87041396D01*
X105473287Y-87032618D01*
X106202253Y-86303652D01*
X106210539Y-86296112D01*
X106217018Y-86292000D01*
X106263644Y-86242348D01*
X106266398Y-86239507D01*
X106286135Y-86219770D01*
X106288615Y-86216573D01*
X106296320Y-86207551D01*
X106321159Y-86181100D01*
X106326586Y-86175321D01*
X106330405Y-86168375D01*
X106330407Y-86168372D01*
X106336348Y-86157566D01*
X106347199Y-86141047D01*
X106354758Y-86131301D01*
X106359614Y-86125041D01*
X106362759Y-86117772D01*
X106362762Y-86117768D01*
X106377174Y-86084463D01*
X106382391Y-86073813D01*
X106403695Y-86035060D01*
X106408733Y-86015437D01*
X106415137Y-85996734D01*
X106420033Y-85985420D01*
X106420033Y-85985419D01*
X106423181Y-85978145D01*
X106424420Y-85970322D01*
X106424423Y-85970312D01*
X106430099Y-85934476D01*
X106432505Y-85922856D01*
X106441528Y-85887711D01*
X106441528Y-85887710D01*
X106443500Y-85880030D01*
X106443500Y-85859776D01*
X106445051Y-85840065D01*
X106446980Y-85827886D01*
X106448220Y-85820057D01*
X106444059Y-85776038D01*
X106443500Y-85764181D01*
X106443500Y-85028768D01*
X106444027Y-85017585D01*
X106445702Y-85010092D01*
X106443562Y-84942001D01*
X106443500Y-84938044D01*
X106443500Y-84910144D01*
X106442996Y-84906153D01*
X106442063Y-84894311D01*
X106440923Y-84858036D01*
X106440674Y-84850111D01*
X106435021Y-84830652D01*
X106431012Y-84811293D01*
X106430846Y-84809983D01*
X106428474Y-84791203D01*
X106425558Y-84783837D01*
X106425556Y-84783831D01*
X106412200Y-84750098D01*
X106408355Y-84738868D01*
X106398230Y-84704017D01*
X106398230Y-84704016D01*
X106396019Y-84696407D01*
X106385705Y-84678966D01*
X106377008Y-84661213D01*
X106372472Y-84649758D01*
X106369552Y-84642383D01*
X106343563Y-84606612D01*
X106337047Y-84596692D01*
X106328810Y-84582764D01*
X106314542Y-84558638D01*
X106308938Y-84553033D01*
X106300220Y-84544315D01*
X106287379Y-84529281D01*
X106280131Y-84519305D01*
X106280130Y-84519304D01*
X106275472Y-84512893D01*
X106241407Y-84484712D01*
X106232626Y-84476722D01*
X106055857Y-84299952D01*
X106021832Y-84237640D01*
X106026897Y-84166824D01*
X106035834Y-84147857D01*
X106111223Y-84017279D01*
X106111224Y-84017278D01*
X106114527Y-84011556D01*
X106173542Y-83829928D01*
X106176339Y-83803321D01*
X106192814Y-83646565D01*
X106193504Y-83640000D01*
X106184658Y-83555838D01*
X106174232Y-83456635D01*
X106174232Y-83456633D01*
X106173542Y-83450072D01*
X106114527Y-83268444D01*
X106102126Y-83246964D01*
X106074045Y-83198327D01*
X106019040Y-83103056D01*
X105986196Y-83066579D01*
X105955480Y-83002573D01*
X105964245Y-82932120D01*
X105979004Y-82906712D01*
X106005615Y-82871205D01*
X106056745Y-82734816D01*
X106063500Y-82672634D01*
X106063500Y-81051366D01*
X106056745Y-80989184D01*
X106005615Y-80852795D01*
X105918261Y-80736239D01*
X105801705Y-80648885D01*
X105665316Y-80597755D01*
X105603134Y-80591000D01*
X104921634Y-80591000D01*
X104853513Y-80570998D01*
X104807020Y-80517342D01*
X104796916Y-80447068D01*
X104801801Y-80426065D01*
X104811502Y-80396209D01*
X104811504Y-80396202D01*
X104813542Y-80389928D01*
X104824859Y-80282258D01*
X104832814Y-80206565D01*
X104833504Y-80200000D01*
X104813542Y-80010072D01*
X104754527Y-79828444D01*
X104734393Y-79793570D01*
X104703327Y-79739763D01*
X104659040Y-79663056D01*
X104567430Y-79561312D01*
X104535675Y-79526045D01*
X104535674Y-79526044D01*
X104531253Y-79521134D01*
X104376752Y-79408882D01*
X104370724Y-79406198D01*
X104370722Y-79406197D01*
X104271004Y-79361800D01*
X104234600Y-79330858D01*
X107691870Y-79330858D01*
X107692090Y-79333475D01*
X107692090Y-79333481D01*
X107701049Y-79440166D01*
X107730505Y-79790957D01*
X107730947Y-79793570D01*
X107806775Y-80241885D01*
X107807506Y-80246209D01*
X107922330Y-80693421D01*
X107923198Y-80695915D01*
X107923200Y-80695920D01*
X107977830Y-80852795D01*
X108074174Y-81129457D01*
X108261972Y-81551258D01*
X108484406Y-81955864D01*
X108485858Y-81958050D01*
X108485862Y-81958056D01*
X108736211Y-82334861D01*
X108739917Y-82340439D01*
X109026712Y-82702285D01*
X109218675Y-82906705D01*
X109306696Y-83000437D01*
X109342780Y-83038863D01*
X109685903Y-83347812D01*
X109687987Y-83349394D01*
X109687992Y-83349398D01*
X110029186Y-83608378D01*
X110053676Y-83626967D01*
X110055910Y-83628385D01*
X110055919Y-83628391D01*
X110331565Y-83803321D01*
X110443517Y-83874368D01*
X110445844Y-83875584D01*
X110445850Y-83875588D01*
X110850355Y-84087058D01*
X110850360Y-84087060D01*
X110852693Y-84088280D01*
X111278334Y-84267203D01*
X111280834Y-84268015D01*
X111280844Y-84268019D01*
X111714939Y-84409064D01*
X111714943Y-84409065D01*
X111717454Y-84409881D01*
X111942708Y-84462714D01*
X112164405Y-84514713D01*
X112164412Y-84514714D01*
X112166973Y-84515315D01*
X112623738Y-84582764D01*
X112626379Y-84582930D01*
X112626387Y-84582931D01*
X112874942Y-84598569D01*
X113084545Y-84611756D01*
X113087177Y-84611701D01*
X113087184Y-84611701D01*
X113253562Y-84608215D01*
X113546162Y-84602086D01*
X113548784Y-84601810D01*
X113548791Y-84601810D01*
X114002719Y-84554101D01*
X114002728Y-84554100D01*
X114005351Y-84553824D01*
X114458891Y-84467306D01*
X114461423Y-84466599D01*
X114461436Y-84466596D01*
X114901062Y-84343850D01*
X114901070Y-84343847D01*
X114903600Y-84343141D01*
X115187284Y-84237640D01*
X115333887Y-84183119D01*
X115333893Y-84183116D01*
X115336360Y-84182199D01*
X115754135Y-83985609D01*
X116153995Y-83754750D01*
X116533134Y-83491241D01*
X116778814Y-83287997D01*
X116886865Y-83198610D01*
X116886871Y-83198604D01*
X116888894Y-83196931D01*
X116893838Y-83192090D01*
X117102266Y-82987982D01*
X117218779Y-82873884D01*
X117220492Y-82871899D01*
X117220499Y-82871892D01*
X117352571Y-82718884D01*
X117520475Y-82524366D01*
X117522027Y-82522230D01*
X117522034Y-82522221D01*
X117790315Y-82152963D01*
X117790317Y-82152960D01*
X117791866Y-82150828D01*
X118031049Y-81755891D01*
X118236345Y-81342324D01*
X118406315Y-80913030D01*
X118539766Y-80471018D01*
X118541152Y-80464500D01*
X118634716Y-80024315D01*
X118635763Y-80019389D01*
X118637653Y-80004432D01*
X118645879Y-79939313D01*
X118693631Y-79561312D01*
X118699643Y-79417885D01*
X118712855Y-79102647D01*
X118712966Y-79099999D01*
X118695824Y-78690999D01*
X118693742Y-78641332D01*
X118693742Y-78641330D01*
X118693631Y-78638686D01*
X118636502Y-78186457D01*
X118636094Y-78183229D01*
X118635763Y-78180609D01*
X118599127Y-78008250D01*
X118540312Y-77731547D01*
X118540310Y-77731539D01*
X118539766Y-77728980D01*
X118406315Y-77286968D01*
X118236345Y-76857674D01*
X118031049Y-76444107D01*
X117859446Y-76160758D01*
X117793230Y-76051422D01*
X117793228Y-76051420D01*
X117791866Y-76049170D01*
X117769411Y-76018263D01*
X117522034Y-75677777D01*
X117522027Y-75677768D01*
X117520475Y-75675632D01*
X117292394Y-75411398D01*
X117220499Y-75328106D01*
X117220492Y-75328099D01*
X117218779Y-75326114D01*
X116980173Y-75092454D01*
X116890770Y-75004904D01*
X116890769Y-75004903D01*
X116888894Y-75003067D01*
X116886871Y-75001394D01*
X116886865Y-75001388D01*
X116649868Y-74805328D01*
X116533134Y-74708757D01*
X116153995Y-74445248D01*
X115754135Y-74214389D01*
X115336360Y-74017799D01*
X115333893Y-74016882D01*
X115333887Y-74016879D01*
X114996852Y-73891537D01*
X114903600Y-73856857D01*
X114901070Y-73856151D01*
X114901062Y-73856148D01*
X114461436Y-73733402D01*
X114461423Y-73733399D01*
X114458891Y-73732692D01*
X114005351Y-73646174D01*
X114002728Y-73645898D01*
X114002719Y-73645897D01*
X113548791Y-73598188D01*
X113548784Y-73598188D01*
X113546162Y-73597912D01*
X113253562Y-73591783D01*
X113087184Y-73588297D01*
X113087177Y-73588297D01*
X113084545Y-73588242D01*
X112874942Y-73601429D01*
X112626387Y-73617067D01*
X112626379Y-73617068D01*
X112623738Y-73617234D01*
X112166973Y-73684683D01*
X112164412Y-73685284D01*
X112164405Y-73685285D01*
X112027262Y-73717452D01*
X111717454Y-73790117D01*
X111714943Y-73790933D01*
X111714939Y-73790934D01*
X111280844Y-73931979D01*
X111280834Y-73931983D01*
X111278334Y-73932795D01*
X110852693Y-74111718D01*
X110850360Y-74112938D01*
X110850355Y-74112940D01*
X110445850Y-74324410D01*
X110445844Y-74324414D01*
X110443517Y-74325630D01*
X110441289Y-74327044D01*
X110055919Y-74571607D01*
X110055910Y-74571613D01*
X110053676Y-74573031D01*
X110051569Y-74574630D01*
X110051568Y-74574631D01*
X109874864Y-74708757D01*
X109685903Y-74852186D01*
X109342780Y-75161135D01*
X109340976Y-75163056D01*
X109340972Y-75163060D01*
X109303395Y-75203076D01*
X109026712Y-75497713D01*
X108739917Y-75859559D01*
X108738463Y-75861748D01*
X108738459Y-75861753D01*
X108506966Y-76210179D01*
X108484406Y-76244134D01*
X108261972Y-76648740D01*
X108074174Y-77070541D01*
X108073306Y-77073034D01*
X107943006Y-77447205D01*
X107922330Y-77506577D01*
X107807506Y-77953789D01*
X107807067Y-77956385D01*
X107807065Y-77956394D01*
X107741540Y-78343798D01*
X107730505Y-78409041D01*
X107710999Y-78641332D01*
X107692970Y-78856045D01*
X107691870Y-78869140D01*
X107691870Y-79330858D01*
X104234600Y-79330858D01*
X104216908Y-79315820D01*
X104196259Y-79247893D01*
X104213134Y-79183693D01*
X104279769Y-79068278D01*
X104279770Y-79068277D01*
X104283073Y-79062555D01*
X104342088Y-78880927D01*
X104343051Y-78871770D01*
X104361360Y-78697564D01*
X104362050Y-78690999D01*
X104354890Y-78622872D01*
X104342778Y-78507634D01*
X104342778Y-78507632D01*
X104342088Y-78501071D01*
X104283073Y-78319443D01*
X104265559Y-78289107D01*
X104241115Y-78246770D01*
X104187586Y-78154055D01*
X104171428Y-78136109D01*
X104064221Y-78017044D01*
X104064217Y-78017040D01*
X104059799Y-78012133D01*
X103956300Y-77936936D01*
X103912946Y-77880713D01*
X103906871Y-77809977D01*
X103940003Y-77747186D01*
X104001823Y-77712274D01*
X104030361Y-77709000D01*
X104333134Y-77709000D01*
X104395316Y-77702245D01*
X104526482Y-77653073D01*
X104597290Y-77647890D01*
X104614942Y-77653073D01*
X104737394Y-77698978D01*
X104752649Y-77702605D01*
X104803514Y-77708131D01*
X104810328Y-77708500D01*
X104932885Y-77708500D01*
X104948124Y-77704025D01*
X104949329Y-77702635D01*
X104951000Y-77694952D01*
X104951000Y-77690384D01*
X105459000Y-77690384D01*
X105463475Y-77705623D01*
X105464865Y-77706828D01*
X105472548Y-77708499D01*
X105599669Y-77708499D01*
X105606490Y-77708129D01*
X105657352Y-77702605D01*
X105672604Y-77698979D01*
X105793054Y-77653824D01*
X105808649Y-77645286D01*
X105910724Y-77568785D01*
X105923285Y-77556224D01*
X105999786Y-77454149D01*
X106008324Y-77438554D01*
X106053478Y-77318106D01*
X106057105Y-77302851D01*
X106062631Y-77251986D01*
X106063000Y-77245172D01*
X106063000Y-76710115D01*
X106058525Y-76694876D01*
X106057135Y-76693671D01*
X106049452Y-76692000D01*
X105477115Y-76692000D01*
X105461876Y-76696475D01*
X105460671Y-76697865D01*
X105459000Y-76705548D01*
X105459000Y-77690384D01*
X104951000Y-77690384D01*
X104951000Y-76165885D01*
X105459000Y-76165885D01*
X105463475Y-76181124D01*
X105464865Y-76182329D01*
X105472548Y-76184000D01*
X106044884Y-76184000D01*
X106060123Y-76179525D01*
X106061328Y-76178135D01*
X106062999Y-76170452D01*
X106062999Y-75630831D01*
X106062629Y-75624010D01*
X106057105Y-75573148D01*
X106053479Y-75557896D01*
X106008324Y-75437446D01*
X105999786Y-75421851D01*
X105923285Y-75319776D01*
X105910724Y-75307215D01*
X105808649Y-75230714D01*
X105793054Y-75222176D01*
X105672606Y-75177022D01*
X105657351Y-75173395D01*
X105606486Y-75167869D01*
X105599672Y-75167500D01*
X105477115Y-75167500D01*
X105461876Y-75171975D01*
X105460671Y-75173365D01*
X105459000Y-75181048D01*
X105459000Y-76165885D01*
X104951000Y-76165885D01*
X104951000Y-75185616D01*
X104946525Y-75170377D01*
X104945135Y-75169172D01*
X104937452Y-75167501D01*
X104810331Y-75167501D01*
X104803510Y-75167871D01*
X104752648Y-75173395D01*
X104729707Y-75178849D01*
X104729317Y-75177209D01*
X104667924Y-75181704D01*
X104605554Y-75147784D01*
X104571425Y-75085529D01*
X104568500Y-75058539D01*
X104568500Y-74042277D01*
X104588502Y-73974156D01*
X104642158Y-73927663D01*
X104712432Y-73917559D01*
X104732178Y-73922043D01*
X104842938Y-73956753D01*
X104916365Y-73963500D01*
X104919263Y-73963500D01*
X105173665Y-73963499D01*
X105429634Y-73963499D01*
X105432492Y-73963236D01*
X105432501Y-73963236D01*
X105468004Y-73959974D01*
X105503062Y-73956753D01*
X105509693Y-73954675D01*
X105659450Y-73907744D01*
X105659452Y-73907743D01*
X105666699Y-73905472D01*
X105813381Y-73816639D01*
X105934639Y-73695381D01*
X106023472Y-73548699D01*
X106037189Y-73504930D01*
X106066988Y-73409839D01*
X106074753Y-73385062D01*
X106081500Y-73311635D01*
X106081499Y-72648366D01*
X106080847Y-72641263D01*
X106075364Y-72581592D01*
X106074753Y-72574938D01*
X106023472Y-72411301D01*
X105934639Y-72264619D01*
X105813381Y-72143361D01*
X105666699Y-72054528D01*
X105659452Y-72052257D01*
X105659450Y-72052256D01*
X105593164Y-72031483D01*
X105503062Y-72003247D01*
X105429635Y-71996500D01*
X105410730Y-71996500D01*
X105122464Y-71996501D01*
X105054344Y-71976499D01*
X105033368Y-71959596D01*
X104965466Y-71891693D01*
X104869263Y-71795490D01*
X104861922Y-71787423D01*
X104857870Y-71781037D01*
X104809088Y-71735228D01*
X104806247Y-71732474D01*
X104786860Y-71713087D01*
X104783726Y-71710656D01*
X104783541Y-71710493D01*
X104774769Y-71703001D01*
X104748940Y-71678746D01*
X104743162Y-71673320D01*
X104725858Y-71663807D01*
X104709341Y-71652957D01*
X104699991Y-71645705D01*
X104693731Y-71640849D01*
X104653912Y-71623617D01*
X104643282Y-71618410D01*
X104605270Y-71597513D01*
X104597592Y-71595542D01*
X104597585Y-71595539D01*
X104586146Y-71592602D01*
X104567441Y-71586198D01*
X104556594Y-71581504D01*
X104556593Y-71581504D01*
X104549317Y-71578355D01*
X104506484Y-71571571D01*
X104494861Y-71569164D01*
X104468979Y-71562519D01*
X104452858Y-71558380D01*
X104433112Y-71558380D01*
X104413402Y-71556829D01*
X104401728Y-71554980D01*
X104401727Y-71554980D01*
X104393898Y-71553740D01*
X104361219Y-71556829D01*
X104350724Y-71557821D01*
X104338867Y-71558380D01*
X100901172Y-71558380D01*
X100890282Y-71557867D01*
X100882897Y-71556216D01*
X100874972Y-71556465D01*
X100874971Y-71556465D01*
X100816015Y-71558318D01*
X100812057Y-71558380D01*
X100784637Y-71558380D01*
X100780708Y-71558876D01*
X100780394Y-71558896D01*
X100768967Y-71559796D01*
X100725618Y-71561159D01*
X100706656Y-71566668D01*
X100687295Y-71570677D01*
X100675572Y-71572158D01*
X100675571Y-71572158D01*
X100667705Y-71573152D01*
X100660333Y-71576071D01*
X100660332Y-71576071D01*
X100627375Y-71589119D01*
X100616145Y-71592964D01*
X100607282Y-71595539D01*
X100574510Y-71605060D01*
X100567686Y-71609095D01*
X100567685Y-71609096D01*
X100557519Y-71615108D01*
X100539762Y-71623807D01*
X100534728Y-71625801D01*
X100528768Y-71628160D01*
X100528766Y-71628161D01*
X100521399Y-71631078D01*
X100501267Y-71645705D01*
X100486312Y-71656570D01*
X100476395Y-71663084D01*
X100439068Y-71685160D01*
X100425107Y-71699121D01*
X100410074Y-71711961D01*
X100394096Y-71723570D01*
X100389045Y-71729676D01*
X100366451Y-71756987D01*
X100358461Y-71765767D01*
X100174631Y-71949596D01*
X100112319Y-71983621D01*
X100085536Y-71986500D01*
X99797178Y-71986501D01*
X99778366Y-71986501D01*
X99775508Y-71986764D01*
X99775499Y-71986764D01*
X99739996Y-71990026D01*
X99704938Y-71993247D01*
X99698560Y-71995246D01*
X99698559Y-71995246D01*
X99548550Y-72042256D01*
X99548548Y-72042257D01*
X99541301Y-72044528D01*
X99394619Y-72133361D01*
X99273361Y-72254619D01*
X99184528Y-72401301D01*
X99133247Y-72564938D01*
X99126500Y-72638365D01*
X99126501Y-72803980D01*
X99126501Y-72945536D01*
X99106499Y-73013656D01*
X99089596Y-73034632D01*
X98874310Y-73249917D01*
X98866243Y-73257258D01*
X98859857Y-73261310D01*
X98854432Y-73267087D01*
X98814049Y-73310091D01*
X98811294Y-73312933D01*
X98791907Y-73332320D01*
X98789476Y-73335454D01*
X98789313Y-73335639D01*
X98781822Y-73344410D01*
X98752140Y-73376018D01*
X98743659Y-73391446D01*
X98742630Y-73393317D01*
X98731777Y-73409839D01*
X98719669Y-73425449D01*
X98702437Y-73465268D01*
X98697230Y-73475898D01*
X98676333Y-73513910D01*
X98674362Y-73521588D01*
X98674359Y-73521595D01*
X98671422Y-73533034D01*
X98665018Y-73551739D01*
X98657175Y-73569863D01*
X98655935Y-73577692D01*
X98650391Y-73612696D01*
X98647984Y-73624319D01*
X98643538Y-73641635D01*
X98637200Y-73666322D01*
X98637200Y-73686068D01*
X98635649Y-73705778D01*
X98632560Y-73725282D01*
X98633306Y-73733174D01*
X98636641Y-73768456D01*
X98637200Y-73780313D01*
X98637200Y-74395592D01*
X98617198Y-74463713D01*
X98604836Y-74479902D01*
X98540275Y-74551605D01*
X98520960Y-74573056D01*
X98485992Y-74633623D01*
X98435588Y-74720925D01*
X98425473Y-74738444D01*
X98366458Y-74920072D01*
X98346496Y-75110000D01*
X98347186Y-75116565D01*
X98364437Y-75280695D01*
X98366458Y-75299928D01*
X98425473Y-75481556D01*
X98520960Y-75646944D01*
X98648747Y-75788866D01*
X98743209Y-75857497D01*
X98803248Y-75901118D01*
X98802512Y-75902132D01*
X98846762Y-75948548D01*
X98860191Y-76018263D01*
X98833798Y-76084171D01*
X98823858Y-76095369D01*
X98583829Y-76335398D01*
X98521517Y-76369424D01*
X98450702Y-76364359D01*
X98405639Y-76335398D01*
X98390755Y-76320514D01*
X98383411Y-76312443D01*
X98379357Y-76306056D01*
X98330575Y-76260247D01*
X98327734Y-76257493D01*
X98308347Y-76238106D01*
X98305213Y-76235675D01*
X98305028Y-76235512D01*
X98296256Y-76228020D01*
X98277257Y-76210179D01*
X98264649Y-76198339D01*
X98247345Y-76188826D01*
X98230828Y-76177976D01*
X98221478Y-76170724D01*
X98215218Y-76165868D01*
X98175399Y-76148636D01*
X98164769Y-76143429D01*
X98126757Y-76122532D01*
X98119079Y-76120561D01*
X98119072Y-76120558D01*
X98107633Y-76117621D01*
X98088928Y-76111217D01*
X98078081Y-76106523D01*
X98078080Y-76106523D01*
X98070804Y-76103374D01*
X98031684Y-76097178D01*
X98027971Y-76096590D01*
X98016348Y-76094183D01*
X97990466Y-76087538D01*
X97974345Y-76083399D01*
X97954599Y-76083399D01*
X97934889Y-76081848D01*
X97923215Y-76079999D01*
X97923214Y-76079999D01*
X97915385Y-76078759D01*
X97907493Y-76079505D01*
X97872211Y-76082840D01*
X97860354Y-76083399D01*
X97371696Y-76083399D01*
X97360797Y-76082885D01*
X97353410Y-76081234D01*
X97345485Y-76081483D01*
X97345484Y-76081483D01*
X97286509Y-76083337D01*
X97282550Y-76083399D01*
X97255150Y-76083399D01*
X97251225Y-76083895D01*
X97250922Y-76083914D01*
X97239486Y-76084815D01*
X97209293Y-76085764D01*
X97204052Y-76085929D01*
X97204051Y-76085929D01*
X97196132Y-76086178D01*
X97177166Y-76091688D01*
X97157821Y-76095694D01*
X97138218Y-76098171D01*
X97130848Y-76101089D01*
X97130844Y-76101090D01*
X97097899Y-76114134D01*
X97086669Y-76117979D01*
X97052637Y-76127866D01*
X97052635Y-76127867D01*
X97045024Y-76130078D01*
X97028028Y-76140130D01*
X97010279Y-76148825D01*
X96991912Y-76156097D01*
X96985496Y-76160758D01*
X96985497Y-76160758D01*
X96956833Y-76181584D01*
X96946910Y-76188103D01*
X96916401Y-76206145D01*
X96916397Y-76206148D01*
X96909581Y-76210179D01*
X96895620Y-76224140D01*
X96880587Y-76236980D01*
X96864609Y-76248589D01*
X96859558Y-76254695D01*
X96836964Y-76282006D01*
X96828974Y-76290786D01*
X96249463Y-76870296D01*
X96187151Y-76904321D01*
X96160368Y-76907200D01*
X94905177Y-76907200D01*
X94837056Y-76887198D01*
X94790563Y-76833542D01*
X94780459Y-76763268D01*
X94785584Y-76741533D01*
X94785632Y-76741388D01*
X94787797Y-76734861D01*
X94790333Y-76710115D01*
X94796858Y-76646428D01*
X94798500Y-76630400D01*
X94798500Y-75829600D01*
X94798072Y-75825473D01*
X94788238Y-75730692D01*
X94788237Y-75730688D01*
X94787526Y-75723834D01*
X94771445Y-75675632D01*
X94733868Y-75563002D01*
X94731550Y-75556054D01*
X94638478Y-75405652D01*
X94513303Y-75280695D01*
X94496506Y-75270341D01*
X94368968Y-75191725D01*
X94368966Y-75191724D01*
X94362738Y-75187885D01*
X94202254Y-75134655D01*
X94201389Y-75134368D01*
X94201387Y-75134368D01*
X94194861Y-75132203D01*
X94188025Y-75131503D01*
X94188022Y-75131502D01*
X94144969Y-75127091D01*
X94090400Y-75121500D01*
X92689600Y-75121500D01*
X92686354Y-75121837D01*
X92686350Y-75121837D01*
X92590692Y-75131762D01*
X92590688Y-75131763D01*
X92583834Y-75132474D01*
X92577298Y-75134655D01*
X92577296Y-75134655D01*
X92473837Y-75169172D01*
X92416054Y-75188450D01*
X92265652Y-75281522D01*
X92140695Y-75406697D01*
X92136855Y-75412927D01*
X92136854Y-75412928D01*
X92084592Y-75497713D01*
X92047885Y-75557262D01*
X91992203Y-75725139D01*
X91981500Y-75829600D01*
X91981500Y-76630400D01*
X91986113Y-76674856D01*
X91973249Y-76744675D01*
X91924678Y-76796458D01*
X91855823Y-76813761D01*
X91796649Y-76796314D01*
X91753601Y-76770855D01*
X91745990Y-76768644D01*
X91745988Y-76768643D01*
X91693769Y-76753472D01*
X91593831Y-76724438D01*
X91587426Y-76723934D01*
X91587421Y-76723933D01*
X91558958Y-76721693D01*
X91558950Y-76721693D01*
X91556502Y-76721500D01*
X90173498Y-76721500D01*
X90171050Y-76721693D01*
X90171042Y-76721693D01*
X90142579Y-76723933D01*
X90142574Y-76723934D01*
X90136169Y-76724438D01*
X90129993Y-76726232D01*
X90129989Y-76726233D01*
X89989786Y-76766965D01*
X89918790Y-76766762D01*
X89859174Y-76728208D01*
X89829866Y-76663543D01*
X89829215Y-76633878D01*
X89832380Y-76601044D01*
X89849803Y-76420297D01*
X89850359Y-76415507D01*
X89857283Y-76364359D01*
X89919985Y-75901118D01*
X89970823Y-75525536D01*
X89971564Y-75520750D01*
X90126153Y-74635987D01*
X90127069Y-74631281D01*
X90315557Y-73753067D01*
X90316651Y-73748411D01*
X90316892Y-73747469D01*
X90380043Y-73500000D01*
X94886526Y-73500000D01*
X94906391Y-73752403D01*
X94907545Y-73757210D01*
X94907546Y-73757216D01*
X94940974Y-73896454D01*
X94965495Y-73998591D01*
X94967388Y-74003162D01*
X94967389Y-74003164D01*
X95055428Y-74215708D01*
X95062384Y-74232502D01*
X95194672Y-74448376D01*
X95306040Y-74578771D01*
X95352889Y-74633623D01*
X95359102Y-74640898D01*
X95551624Y-74805328D01*
X95767498Y-74937616D01*
X95772068Y-74939509D01*
X95772072Y-74939511D01*
X95996836Y-75032611D01*
X96001409Y-75034505D01*
X96039597Y-75043673D01*
X96242784Y-75092454D01*
X96242790Y-75092455D01*
X96247597Y-75093609D01*
X96347416Y-75101465D01*
X96434345Y-75108307D01*
X96434352Y-75108307D01*
X96436801Y-75108500D01*
X96563199Y-75108500D01*
X96565648Y-75108307D01*
X96565655Y-75108307D01*
X96652584Y-75101465D01*
X96752403Y-75093609D01*
X96757210Y-75092455D01*
X96757216Y-75092454D01*
X96960403Y-75043673D01*
X96998591Y-75034505D01*
X97003164Y-75032611D01*
X97227928Y-74939511D01*
X97227932Y-74939509D01*
X97232502Y-74937616D01*
X97448376Y-74805328D01*
X97640898Y-74640898D01*
X97647112Y-74633623D01*
X97693960Y-74578771D01*
X97805328Y-74448376D01*
X97937616Y-74232502D01*
X97944573Y-74215708D01*
X98032611Y-74003164D01*
X98032612Y-74003162D01*
X98034505Y-73998591D01*
X98059026Y-73896454D01*
X98092454Y-73757216D01*
X98092455Y-73757210D01*
X98093609Y-73752403D01*
X98113474Y-73500000D01*
X98093609Y-73247597D01*
X98085663Y-73214497D01*
X98035660Y-73006221D01*
X98034505Y-73001409D01*
X97959433Y-72820168D01*
X97939511Y-72772072D01*
X97939509Y-72772068D01*
X97937616Y-72767498D01*
X97805328Y-72551624D01*
X97640898Y-72359102D01*
X97448376Y-72194672D01*
X97232502Y-72062384D01*
X97227932Y-72060491D01*
X97227928Y-72060489D01*
X97003164Y-71967389D01*
X97003162Y-71967388D01*
X96998591Y-71965495D01*
X96913968Y-71945179D01*
X96757216Y-71907546D01*
X96757210Y-71907545D01*
X96752403Y-71906391D01*
X96652584Y-71898535D01*
X96565655Y-71891693D01*
X96565648Y-71891693D01*
X96563199Y-71891500D01*
X96436801Y-71891500D01*
X96434352Y-71891693D01*
X96434345Y-71891693D01*
X96347416Y-71898535D01*
X96247597Y-71906391D01*
X96242790Y-71907545D01*
X96242784Y-71907546D01*
X96086032Y-71945179D01*
X96001409Y-71965495D01*
X95996838Y-71967388D01*
X95996836Y-71967389D01*
X95772072Y-72060489D01*
X95772068Y-72060491D01*
X95767498Y-72062384D01*
X95551624Y-72194672D01*
X95359102Y-72359102D01*
X95194672Y-72551624D01*
X95062384Y-72767498D01*
X95060491Y-72772068D01*
X95060489Y-72772072D01*
X95040567Y-72820168D01*
X94965495Y-73001409D01*
X94964340Y-73006221D01*
X94914338Y-73214497D01*
X94906391Y-73247597D01*
X94886526Y-73500000D01*
X90380043Y-73500000D01*
X90452153Y-73217426D01*
X90538723Y-72878189D01*
X90540010Y-72873520D01*
X90691452Y-72362858D01*
X90795375Y-72012430D01*
X90796835Y-72007832D01*
X90798597Y-72002635D01*
X91035745Y-71302841D01*
X91085088Y-71157237D01*
X91086730Y-71152681D01*
X91255976Y-70710005D01*
X91298986Y-70653519D01*
X91365707Y-70629253D01*
X91373668Y-70629001D01*
X110936978Y-70629000D01*
X113136672Y-70629000D01*
X113156057Y-70630500D01*
G37*
%TD.AperFunction*%
%TA.AperFunction,Conductor*%
G36*
X100454532Y-76330406D02*
G01*
X100511368Y-76372953D01*
X100536179Y-76439473D01*
X100536500Y-76448462D01*
X100536500Y-77248634D01*
X100543255Y-77310816D01*
X100594385Y-77447205D01*
X100681739Y-77563761D01*
X100787933Y-77643349D01*
X100830445Y-77700205D01*
X100835471Y-77771023D01*
X100801460Y-77833267D01*
X100750737Y-77883990D01*
X100688425Y-77918016D01*
X100617610Y-77912951D01*
X100581366Y-77890979D01*
X100581253Y-77891134D01*
X100486381Y-77822205D01*
X100432094Y-77782763D01*
X100432093Y-77782762D01*
X100426752Y-77778882D01*
X100420724Y-77776198D01*
X100420722Y-77776197D01*
X100258319Y-77703891D01*
X100258318Y-77703891D01*
X100252288Y-77701206D01*
X100147427Y-77678917D01*
X100071944Y-77662872D01*
X100071939Y-77662872D01*
X100065487Y-77661500D01*
X99874513Y-77661500D01*
X99868061Y-77662872D01*
X99868056Y-77662872D01*
X99792573Y-77678917D01*
X99687712Y-77701206D01*
X99681682Y-77703891D01*
X99681681Y-77703891D01*
X99537806Y-77767948D01*
X99467439Y-77777382D01*
X99403142Y-77747275D01*
X99385731Y-77728407D01*
X99384272Y-77726460D01*
X99343261Y-77671739D01*
X99268507Y-77615714D01*
X99225993Y-77558856D01*
X99220967Y-77488038D01*
X99254978Y-77425794D01*
X100321405Y-76359367D01*
X100383717Y-76325341D01*
X100454532Y-76330406D01*
G37*
%TD.AperFunction*%
%TD*%
M02*
