%TF.GenerationSoftware,KiCad,Pcbnew,7.0.7*%
%TF.CreationDate,2023-09-01T18:47:46-05:00*%
%TF.ProjectId,ControlPanelSTM32QFN28,436f6e74-726f-46c5-9061-6e656c53544d,rev?*%
%TF.SameCoordinates,Original*%
%TF.FileFunction,Soldermask,Top*%
%TF.FilePolarity,Negative*%
%FSLAX46Y46*%
G04 Gerber Fmt 4.6, Leading zero omitted, Abs format (unit mm)*
G04 Created by KiCad (PCBNEW 7.0.7) date 2023-09-01 18:47:46*
%MOMM*%
%LPD*%
G01*
G04 APERTURE LIST*
G04 Aperture macros list*
%AMRoundRect*
0 Rectangle with rounded corners*
0 $1 Rounding radius*
0 $2 $3 $4 $5 $6 $7 $8 $9 X,Y pos of 4 corners*
0 Add a 4 corners polygon primitive as box body*
4,1,4,$2,$3,$4,$5,$6,$7,$8,$9,$2,$3,0*
0 Add four circle primitives for the rounded corners*
1,1,$1+$1,$2,$3*
1,1,$1+$1,$4,$5*
1,1,$1+$1,$6,$7*
1,1,$1+$1,$8,$9*
0 Add four rect primitives between the rounded corners*
20,1,$1+$1,$2,$3,$4,$5,0*
20,1,$1+$1,$4,$5,$6,$7,0*
20,1,$1+$1,$6,$7,$8,$9,0*
20,1,$1+$1,$8,$9,$2,$3,0*%
G04 Aperture macros list end*
%ADD10RoundRect,0.276000X-0.225000X-0.250000X0.225000X-0.250000X0.225000X0.250000X-0.225000X0.250000X0*%
%ADD11C,0.889400*%
%ADD12C,1.092600*%
%ADD13C,3.102000*%
%ADD14RoundRect,0.301000X-0.600000X-0.750000X0.600000X-0.750000X0.600000X0.750000X-0.600000X0.750000X0*%
%ADD15O,1.802000X2.102000*%
%ADD16RoundRect,0.301000X0.600000X0.750000X-0.600000X0.750000X-0.600000X-0.750000X0.600000X-0.750000X0*%
%ADD17C,3.352000*%
%ADD18RoundRect,0.051000X-0.750000X-0.750000X0.750000X-0.750000X0.750000X0.750000X-0.750000X0.750000X0*%
%ADD19C,1.602000*%
%ADD20O,1.361000X2.464000*%
%ADD21RoundRect,0.301000X0.750000X-0.600000X0.750000X0.600000X-0.750000X0.600000X-0.750000X-0.600000X0*%
%ADD22O,2.102000X1.802000*%
G04 APERTURE END LIST*
D10*
%TO.C,D1*%
X134581600Y-105333800D03*
X136131600Y-105333800D03*
%TD*%
D11*
%TO.C,J2*%
X134645400Y-98856800D03*
X135915400Y-98856800D03*
X134645400Y-100126800D03*
X135915400Y-100126800D03*
X134645400Y-101396800D03*
X135915400Y-101396800D03*
D12*
X135280400Y-102666800D03*
X134264400Y-97586800D03*
X136296400Y-97586800D03*
%TD*%
D13*
%TO.C,*%
X164338000Y-110678000D03*
%TD*%
%TO.C,*%
X136638000Y-110678000D03*
%TD*%
D14*
%TO.C,J11*%
X170700000Y-88500000D03*
D15*
X173200000Y-88500000D03*
%TD*%
D14*
%TO.C,J10*%
X162200000Y-88500000D03*
D15*
X164700000Y-88500000D03*
%TD*%
D16*
%TO.C,J8*%
X164700000Y-96400000D03*
D15*
X162200000Y-96400000D03*
%TD*%
D16*
%TO.C,J12*%
X173200000Y-96400000D03*
D15*
X170700000Y-96400000D03*
%TD*%
D16*
%TO.C,J13*%
X164800000Y-103300000D03*
D15*
X162300000Y-103300000D03*
%TD*%
D16*
%TO.C,J14*%
X173300000Y-103300000D03*
D15*
X170800000Y-103300000D03*
%TD*%
D16*
%TO.C,J15*%
X173300000Y-110200000D03*
D15*
X170800000Y-110200000D03*
%TD*%
D17*
%TO.C,J1*%
X143843280Y-108999020D03*
X156543280Y-108999020D03*
D18*
X153742580Y-106459020D03*
D19*
X152722580Y-104679020D03*
X151712580Y-106459020D03*
X150692580Y-104679020D03*
X149682580Y-106459020D03*
X148662580Y-104679020D03*
X147652580Y-106459020D03*
X146632580Y-104679020D03*
D20*
X142063280Y-106097070D03*
X158323280Y-106097070D03*
%TD*%
D21*
%TO.C,J5*%
X155250000Y-91200000D03*
D22*
X155250000Y-88700000D03*
%TD*%
D21*
%TO.C,J9*%
X134550000Y-91200000D03*
D22*
X134550000Y-88700000D03*
%TD*%
D21*
%TO.C,J7*%
X141450000Y-91200000D03*
D22*
X141450000Y-88700000D03*
%TD*%
D21*
%TO.C,J6*%
X148350000Y-91200000D03*
D22*
X148350000Y-88700000D03*
%TD*%
M02*
