G04 #@! TF.GenerationSoftware,KiCad,Pcbnew,(5.1.6)-1*
G04 #@! TF.CreationDate,2020-09-03T22:40:57-05:00*
G04 #@! TF.ProjectId,PotentiometerToServoWire,506f7465-6e74-4696-9f6d-65746572546f,rev?*
G04 #@! TF.SameCoordinates,Original*
G04 #@! TF.FileFunction,Legend,Top*
G04 #@! TF.FilePolarity,Positive*
%FSLAX46Y46*%
G04 Gerber Fmt 4.6, Leading zero omitted, Abs format (unit mm)*
G04 Created by KiCad (PCBNEW (5.1.6)-1) date 2020-09-03 22:40:57*
%MOMM*%
%LPD*%
G01*
G04 APERTURE LIST*
%ADD10C,0.133350*%
%ADD11C,0.203200*%
%ADD12C,0.139700*%
%ADD13C,0.150000*%
%ADD14C,0.120000*%
G04 APERTURE END LIST*
D10*
X136960428Y-98642714D02*
X136960428Y-97880714D01*
X137250714Y-97880714D01*
X137323285Y-97917000D01*
X137359571Y-97953285D01*
X137395857Y-98025857D01*
X137395857Y-98134714D01*
X137359571Y-98207285D01*
X137323285Y-98243571D01*
X137250714Y-98279857D01*
X136960428Y-98279857D01*
X137831285Y-98642714D02*
X137758714Y-98606428D01*
X137722428Y-98570142D01*
X137686142Y-98497571D01*
X137686142Y-98279857D01*
X137722428Y-98207285D01*
X137758714Y-98171000D01*
X137831285Y-98134714D01*
X137940142Y-98134714D01*
X138012714Y-98171000D01*
X138049000Y-98207285D01*
X138085285Y-98279857D01*
X138085285Y-98497571D01*
X138049000Y-98570142D01*
X138012714Y-98606428D01*
X137940142Y-98642714D01*
X137831285Y-98642714D01*
X138303000Y-98134714D02*
X138593285Y-98134714D01*
X138411857Y-97880714D02*
X138411857Y-98533857D01*
X138448142Y-98606428D01*
X138520714Y-98642714D01*
X138593285Y-98642714D01*
X139319000Y-98134714D02*
X139609285Y-98134714D01*
X139427857Y-97880714D02*
X139427857Y-98533857D01*
X139464142Y-98606428D01*
X139536714Y-98642714D01*
X139609285Y-98642714D01*
X139972142Y-98642714D02*
X139899571Y-98606428D01*
X139863285Y-98570142D01*
X139827000Y-98497571D01*
X139827000Y-98279857D01*
X139863285Y-98207285D01*
X139899571Y-98171000D01*
X139972142Y-98134714D01*
X140081000Y-98134714D01*
X140153571Y-98171000D01*
X140189857Y-98207285D01*
X140226142Y-98279857D01*
X140226142Y-98497571D01*
X140189857Y-98570142D01*
X140153571Y-98606428D01*
X140081000Y-98642714D01*
X139972142Y-98642714D01*
X141097000Y-98606428D02*
X141205857Y-98642714D01*
X141387285Y-98642714D01*
X141459857Y-98606428D01*
X141496142Y-98570142D01*
X141532428Y-98497571D01*
X141532428Y-98425000D01*
X141496142Y-98352428D01*
X141459857Y-98316142D01*
X141387285Y-98279857D01*
X141242142Y-98243571D01*
X141169571Y-98207285D01*
X141133285Y-98171000D01*
X141097000Y-98098428D01*
X141097000Y-98025857D01*
X141133285Y-97953285D01*
X141169571Y-97917000D01*
X141242142Y-97880714D01*
X141423571Y-97880714D01*
X141532428Y-97917000D01*
X141967857Y-98642714D02*
X141895285Y-98606428D01*
X141859000Y-98570142D01*
X141822714Y-98497571D01*
X141822714Y-98279857D01*
X141859000Y-98207285D01*
X141895285Y-98171000D01*
X141967857Y-98134714D01*
X142076714Y-98134714D01*
X142149285Y-98171000D01*
X142185571Y-98207285D01*
X142221857Y-98279857D01*
X142221857Y-98497571D01*
X142185571Y-98570142D01*
X142149285Y-98606428D01*
X142076714Y-98642714D01*
X141967857Y-98642714D01*
X142875000Y-98134714D02*
X142875000Y-98642714D01*
X142548428Y-98134714D02*
X142548428Y-98533857D01*
X142584714Y-98606428D01*
X142657285Y-98642714D01*
X142766142Y-98642714D01*
X142838714Y-98606428D01*
X142875000Y-98570142D01*
X143237857Y-98134714D02*
X143237857Y-98642714D01*
X143237857Y-98207285D02*
X143274142Y-98171000D01*
X143346714Y-98134714D01*
X143455571Y-98134714D01*
X143528142Y-98171000D01*
X143564428Y-98243571D01*
X143564428Y-98642714D01*
X144253857Y-98642714D02*
X144253857Y-97880714D01*
X144253857Y-98606428D02*
X144181285Y-98642714D01*
X144036142Y-98642714D01*
X143963571Y-98606428D01*
X143927285Y-98570142D01*
X143891000Y-98497571D01*
X143891000Y-98279857D01*
X143927285Y-98207285D01*
X143963571Y-98171000D01*
X144036142Y-98134714D01*
X144181285Y-98134714D01*
X144253857Y-98171000D01*
X145306142Y-98642714D02*
X145233571Y-98606428D01*
X145197285Y-98570142D01*
X145161000Y-98497571D01*
X145161000Y-98279857D01*
X145197285Y-98207285D01*
X145233571Y-98171000D01*
X145306142Y-98134714D01*
X145415000Y-98134714D01*
X145487571Y-98171000D01*
X145523857Y-98207285D01*
X145560142Y-98279857D01*
X145560142Y-98497571D01*
X145523857Y-98570142D01*
X145487571Y-98606428D01*
X145415000Y-98642714D01*
X145306142Y-98642714D01*
X145886714Y-98642714D02*
X145886714Y-98134714D01*
X145886714Y-98279857D02*
X145923000Y-98207285D01*
X145959285Y-98171000D01*
X146031857Y-98134714D01*
X146104428Y-98134714D01*
X146902714Y-98606428D02*
X147011571Y-98642714D01*
X147193000Y-98642714D01*
X147265571Y-98606428D01*
X147301857Y-98570142D01*
X147338142Y-98497571D01*
X147338142Y-98425000D01*
X147301857Y-98352428D01*
X147265571Y-98316142D01*
X147193000Y-98279857D01*
X147047857Y-98243571D01*
X146975285Y-98207285D01*
X146939000Y-98171000D01*
X146902714Y-98098428D01*
X146902714Y-98025857D01*
X146939000Y-97953285D01*
X146975285Y-97917000D01*
X147047857Y-97880714D01*
X147229285Y-97880714D01*
X147338142Y-97917000D01*
X147664714Y-98642714D02*
X147664714Y-98134714D01*
X147664714Y-97880714D02*
X147628428Y-97917000D01*
X147664714Y-97953285D01*
X147701000Y-97917000D01*
X147664714Y-97880714D01*
X147664714Y-97953285D01*
X148354142Y-98134714D02*
X148354142Y-98751571D01*
X148317857Y-98824142D01*
X148281571Y-98860428D01*
X148209000Y-98896714D01*
X148100142Y-98896714D01*
X148027571Y-98860428D01*
X148354142Y-98606428D02*
X148281571Y-98642714D01*
X148136428Y-98642714D01*
X148063857Y-98606428D01*
X148027571Y-98570142D01*
X147991285Y-98497571D01*
X147991285Y-98279857D01*
X148027571Y-98207285D01*
X148063857Y-98171000D01*
X148136428Y-98134714D01*
X148281571Y-98134714D01*
X148354142Y-98171000D01*
X148717000Y-98134714D02*
X148717000Y-98642714D01*
X148717000Y-98207285D02*
X148753285Y-98171000D01*
X148825857Y-98134714D01*
X148934714Y-98134714D01*
X149007285Y-98171000D01*
X149043571Y-98243571D01*
X149043571Y-98642714D01*
X149733000Y-98642714D02*
X149733000Y-98243571D01*
X149696714Y-98171000D01*
X149624142Y-98134714D01*
X149479000Y-98134714D01*
X149406428Y-98171000D01*
X149733000Y-98606428D02*
X149660428Y-98642714D01*
X149479000Y-98642714D01*
X149406428Y-98606428D01*
X149370142Y-98533857D01*
X149370142Y-98461285D01*
X149406428Y-98388714D01*
X149479000Y-98352428D01*
X149660428Y-98352428D01*
X149733000Y-98316142D01*
X150204714Y-98642714D02*
X150132142Y-98606428D01*
X150095857Y-98533857D01*
X150095857Y-97880714D01*
X150966714Y-97880714D02*
X151220714Y-98642714D01*
X151474714Y-97880714D01*
X151656142Y-97880714D02*
X152127857Y-97880714D01*
X151873857Y-98171000D01*
X151982714Y-98171000D01*
X152055285Y-98207285D01*
X152091571Y-98243571D01*
X152127857Y-98316142D01*
X152127857Y-98497571D01*
X152091571Y-98570142D01*
X152055285Y-98606428D01*
X151982714Y-98642714D01*
X151765000Y-98642714D01*
X151692428Y-98606428D01*
X151656142Y-98570142D01*
D11*
X139300857Y-97100571D02*
X139300857Y-95939428D01*
X139881428Y-96520000D02*
X138720285Y-96520000D01*
D12*
X139128500Y-85915500D02*
X139043833Y-85873166D01*
X138916833Y-85873166D01*
X138789833Y-85915500D01*
X138705166Y-86000166D01*
X138662833Y-86084833D01*
X138620500Y-86254166D01*
X138620500Y-86381166D01*
X138662833Y-86550500D01*
X138705166Y-86635166D01*
X138789833Y-86719833D01*
X138916833Y-86762166D01*
X139001500Y-86762166D01*
X139128500Y-86719833D01*
X139170833Y-86677500D01*
X139170833Y-86381166D01*
X139001500Y-86381166D01*
X139551833Y-86169500D02*
X139551833Y-86762166D01*
X139551833Y-86254166D02*
X139594166Y-86211833D01*
X139678833Y-86169500D01*
X139805833Y-86169500D01*
X139890500Y-86211833D01*
X139932833Y-86296500D01*
X139932833Y-86762166D01*
X140737166Y-86762166D02*
X140737166Y-85873166D01*
X140737166Y-86719833D02*
X140652500Y-86762166D01*
X140483166Y-86762166D01*
X140398500Y-86719833D01*
X140356166Y-86677500D01*
X140313833Y-86592833D01*
X140313833Y-86338833D01*
X140356166Y-86254166D01*
X140398500Y-86211833D01*
X140483166Y-86169500D01*
X140652500Y-86169500D01*
X140737166Y-86211833D01*
D10*
X138575142Y-91748428D02*
X138684000Y-91784714D01*
X138865428Y-91784714D01*
X138938000Y-91748428D01*
X138974285Y-91712142D01*
X139010571Y-91639571D01*
X139010571Y-91567000D01*
X138974285Y-91494428D01*
X138938000Y-91458142D01*
X138865428Y-91421857D01*
X138720285Y-91385571D01*
X138647714Y-91349285D01*
X138611428Y-91313000D01*
X138575142Y-91240428D01*
X138575142Y-91167857D01*
X138611428Y-91095285D01*
X138647714Y-91059000D01*
X138720285Y-91022714D01*
X138901714Y-91022714D01*
X139010571Y-91059000D01*
X139337142Y-91784714D02*
X139337142Y-91276714D01*
X139337142Y-91022714D02*
X139300857Y-91059000D01*
X139337142Y-91095285D01*
X139373428Y-91059000D01*
X139337142Y-91022714D01*
X139337142Y-91095285D01*
X140026571Y-91276714D02*
X140026571Y-91893571D01*
X139990285Y-91966142D01*
X139954000Y-92002428D01*
X139881428Y-92038714D01*
X139772571Y-92038714D01*
X139700000Y-92002428D01*
X140026571Y-91748428D02*
X139954000Y-91784714D01*
X139808857Y-91784714D01*
X139736285Y-91748428D01*
X139700000Y-91712142D01*
X139663714Y-91639571D01*
X139663714Y-91421857D01*
X139700000Y-91349285D01*
X139736285Y-91313000D01*
X139808857Y-91276714D01*
X139954000Y-91276714D01*
X140026571Y-91313000D01*
X140389428Y-91276714D02*
X140389428Y-91784714D01*
X140389428Y-91349285D02*
X140425714Y-91313000D01*
X140498285Y-91276714D01*
X140607142Y-91276714D01*
X140679714Y-91313000D01*
X140716000Y-91385571D01*
X140716000Y-91784714D01*
X141405428Y-91784714D02*
X141405428Y-91385571D01*
X141369142Y-91313000D01*
X141296571Y-91276714D01*
X141151428Y-91276714D01*
X141078857Y-91313000D01*
X141405428Y-91748428D02*
X141332857Y-91784714D01*
X141151428Y-91784714D01*
X141078857Y-91748428D01*
X141042571Y-91675857D01*
X141042571Y-91603285D01*
X141078857Y-91530714D01*
X141151428Y-91494428D01*
X141332857Y-91494428D01*
X141405428Y-91458142D01*
X141877142Y-91784714D02*
X141804571Y-91748428D01*
X141768285Y-91675857D01*
X141768285Y-91022714D01*
X152454428Y-96374857D02*
X152490714Y-96266000D01*
X152490714Y-96084571D01*
X152454428Y-96012000D01*
X152418142Y-95975714D01*
X152345571Y-95939428D01*
X152273000Y-95939428D01*
X152200428Y-95975714D01*
X152164142Y-96012000D01*
X152127857Y-96084571D01*
X152091571Y-96229714D01*
X152055285Y-96302285D01*
X152019000Y-96338571D01*
X151946428Y-96374857D01*
X151873857Y-96374857D01*
X151801285Y-96338571D01*
X151765000Y-96302285D01*
X151728714Y-96229714D01*
X151728714Y-96048285D01*
X151765000Y-95939428D01*
X152490714Y-95612857D02*
X151982714Y-95612857D01*
X151728714Y-95612857D02*
X151765000Y-95649142D01*
X151801285Y-95612857D01*
X151765000Y-95576571D01*
X151728714Y-95612857D01*
X151801285Y-95612857D01*
X151982714Y-94923428D02*
X152599571Y-94923428D01*
X152672142Y-94959714D01*
X152708428Y-94996000D01*
X152744714Y-95068571D01*
X152744714Y-95177428D01*
X152708428Y-95250000D01*
X152454428Y-94923428D02*
X152490714Y-94996000D01*
X152490714Y-95141142D01*
X152454428Y-95213714D01*
X152418142Y-95250000D01*
X152345571Y-95286285D01*
X152127857Y-95286285D01*
X152055285Y-95250000D01*
X152019000Y-95213714D01*
X151982714Y-95141142D01*
X151982714Y-94996000D01*
X152019000Y-94923428D01*
X151982714Y-94560571D02*
X152490714Y-94560571D01*
X152055285Y-94560571D02*
X152019000Y-94524285D01*
X151982714Y-94451714D01*
X151982714Y-94342857D01*
X152019000Y-94270285D01*
X152091571Y-94234000D01*
X152490714Y-94234000D01*
X152490714Y-93544571D02*
X152091571Y-93544571D01*
X152019000Y-93580857D01*
X151982714Y-93653428D01*
X151982714Y-93798571D01*
X152019000Y-93871142D01*
X152454428Y-93544571D02*
X152490714Y-93617142D01*
X152490714Y-93798571D01*
X152454428Y-93871142D01*
X152381857Y-93907428D01*
X152309285Y-93907428D01*
X152236714Y-93871142D01*
X152200428Y-93798571D01*
X152200428Y-93617142D01*
X152164142Y-93544571D01*
X152490714Y-93072857D02*
X152454428Y-93145428D01*
X152381857Y-93181714D01*
X151728714Y-93181714D01*
D11*
X152254857Y-92020571D02*
X152254857Y-90859428D01*
X152835428Y-91440000D02*
X151674285Y-91440000D01*
D12*
X151701500Y-88963500D02*
X151659166Y-89048166D01*
X151659166Y-89175166D01*
X151701500Y-89302166D01*
X151786166Y-89386833D01*
X151870833Y-89429166D01*
X152040166Y-89471500D01*
X152167166Y-89471500D01*
X152336500Y-89429166D01*
X152421166Y-89386833D01*
X152505833Y-89302166D01*
X152548166Y-89175166D01*
X152548166Y-89090500D01*
X152505833Y-88963500D01*
X152463500Y-88921166D01*
X152167166Y-88921166D01*
X152167166Y-89090500D01*
X151955500Y-88540166D02*
X152548166Y-88540166D01*
X152040166Y-88540166D02*
X151997833Y-88497833D01*
X151955500Y-88413166D01*
X151955500Y-88286166D01*
X151997833Y-88201500D01*
X152082500Y-88159166D01*
X152548166Y-88159166D01*
X152548166Y-87354833D02*
X151659166Y-87354833D01*
X152505833Y-87354833D02*
X152548166Y-87439500D01*
X152548166Y-87608833D01*
X152505833Y-87693500D01*
X152463500Y-87735833D01*
X152378833Y-87778166D01*
X152124833Y-87778166D01*
X152040166Y-87735833D01*
X151997833Y-87693500D01*
X151955500Y-87608833D01*
X151955500Y-87439500D01*
X151997833Y-87354833D01*
D13*
X145692761Y-93535238D02*
X145740380Y-93392380D01*
X145740380Y-93154285D01*
X145692761Y-93059047D01*
X145645142Y-93011428D01*
X145549904Y-92963809D01*
X145454666Y-92963809D01*
X145359428Y-93011428D01*
X145311809Y-93059047D01*
X145264190Y-93154285D01*
X145216571Y-93344761D01*
X145168952Y-93440000D01*
X145121333Y-93487619D01*
X145026095Y-93535238D01*
X144930857Y-93535238D01*
X144835619Y-93487619D01*
X144788000Y-93440000D01*
X144740380Y-93344761D01*
X144740380Y-93106666D01*
X144788000Y-92963809D01*
X145740380Y-92392380D02*
X145692761Y-92487619D01*
X145645142Y-92535238D01*
X145549904Y-92582857D01*
X145264190Y-92582857D01*
X145168952Y-92535238D01*
X145121333Y-92487619D01*
X145073714Y-92392380D01*
X145073714Y-92249523D01*
X145121333Y-92154285D01*
X145168952Y-92106666D01*
X145264190Y-92059047D01*
X145549904Y-92059047D01*
X145645142Y-92106666D01*
X145692761Y-92154285D01*
X145740380Y-92249523D01*
X145740380Y-92392380D01*
X145073714Y-91201904D02*
X145740380Y-91201904D01*
X145073714Y-91630476D02*
X145597523Y-91630476D01*
X145692761Y-91582857D01*
X145740380Y-91487619D01*
X145740380Y-91344761D01*
X145692761Y-91249523D01*
X145645142Y-91201904D01*
X145073714Y-90725714D02*
X145740380Y-90725714D01*
X145168952Y-90725714D02*
X145121333Y-90678095D01*
X145073714Y-90582857D01*
X145073714Y-90440000D01*
X145121333Y-90344761D01*
X145216571Y-90297142D01*
X145740380Y-90297142D01*
X145740380Y-89392380D02*
X144740380Y-89392380D01*
X145692761Y-89392380D02*
X145740380Y-89487619D01*
X145740380Y-89678095D01*
X145692761Y-89773333D01*
X145645142Y-89820952D01*
X145549904Y-89868571D01*
X145264190Y-89868571D01*
X145168952Y-89820952D01*
X145121333Y-89773333D01*
X145073714Y-89678095D01*
X145073714Y-89487619D01*
X145121333Y-89392380D01*
D14*
X135890000Y-88900000D02*
X133350000Y-88900000D01*
X135890000Y-93980000D02*
X135890000Y-88900000D01*
X133350000Y-93980000D02*
X135890000Y-93980000D01*
X133350000Y-88900000D02*
X133350000Y-93980000D01*
X142240000Y-85090000D02*
X134620000Y-85090000D01*
X142240000Y-97790000D02*
X142240000Y-85090000D01*
X134620000Y-97790000D02*
X142240000Y-97790000D01*
X134620000Y-85090000D02*
X134620000Y-97790000D01*
X148530000Y-95310000D02*
X151190000Y-95310000D01*
X148530000Y-90170000D02*
X148530000Y-95310000D01*
X151190000Y-90170000D02*
X151190000Y-95310000D01*
X148530000Y-90170000D02*
X151190000Y-90170000D01*
X148530000Y-88900000D02*
X148530000Y-87570000D01*
X148530000Y-87570000D02*
X149860000Y-87570000D01*
X145990000Y-87570000D02*
X147320000Y-87570000D01*
X145990000Y-88900000D02*
X145990000Y-87570000D01*
X145990000Y-90170000D02*
X148650000Y-90170000D01*
X148650000Y-90170000D02*
X148650000Y-95310000D01*
X145990000Y-90170000D02*
X145990000Y-95310000D01*
X145990000Y-95310000D02*
X148650000Y-95310000D01*
D13*
X136564761Y-94432380D02*
X136231428Y-93956190D01*
X135993333Y-94432380D02*
X135993333Y-93432380D01*
X136374285Y-93432380D01*
X136469523Y-93480000D01*
X136517142Y-93527619D01*
X136564761Y-93622857D01*
X136564761Y-93765714D01*
X136517142Y-93860952D01*
X136469523Y-93908571D01*
X136374285Y-93956190D01*
X135993333Y-93956190D01*
X136850476Y-93432380D02*
X137183809Y-94432380D01*
X137517142Y-93432380D01*
X138374285Y-94432380D02*
X137802857Y-94432380D01*
X138088571Y-94432380D02*
X138088571Y-93432380D01*
X137993333Y-93575238D01*
X137898095Y-93670476D01*
X137802857Y-93718095D01*
X149526666Y-86022380D02*
X149526666Y-86736666D01*
X149479047Y-86879523D01*
X149383809Y-86974761D01*
X149240952Y-87022380D01*
X149145714Y-87022380D01*
X150526666Y-87022380D02*
X149955238Y-87022380D01*
X150240952Y-87022380D02*
X150240952Y-86022380D01*
X150145714Y-86165238D01*
X150050476Y-86260476D01*
X149955238Y-86308095D01*
X146986666Y-86022380D02*
X146986666Y-86736666D01*
X146939047Y-86879523D01*
X146843809Y-86974761D01*
X146700952Y-87022380D01*
X146605714Y-87022380D01*
X147415238Y-86117619D02*
X147462857Y-86070000D01*
X147558095Y-86022380D01*
X147796190Y-86022380D01*
X147891428Y-86070000D01*
X147939047Y-86117619D01*
X147986666Y-86212857D01*
X147986666Y-86308095D01*
X147939047Y-86450952D01*
X147367619Y-87022380D01*
X147986666Y-87022380D01*
M02*
