G04 #@! TF.GenerationSoftware,KiCad,Pcbnew,(5.1.6)-1*
G04 #@! TF.CreationDate,2021-11-18T20:07:37-06:00*
G04 #@! TF.ProjectId,ControlPanelSTM32QFN28,436f6e74-726f-46c5-9061-6e656c53544d,rev?*
G04 #@! TF.SameCoordinates,Original*
G04 #@! TF.FileFunction,Copper,L1,Top*
G04 #@! TF.FilePolarity,Positive*
%FSLAX46Y46*%
G04 Gerber Fmt 4.6, Leading zero omitted, Abs format (unit mm)*
G04 Created by KiCad (PCBNEW (5.1.6)-1) date 2021-11-18 20:07:37*
%MOMM*%
%LPD*%
G01*
G04 APERTURE LIST*
G04 #@! TA.AperFunction,Profile*
%ADD10C,0.050000*%
G04 #@! TD*
G04 #@! TA.AperFunction,ComponentPad*
%ADD11R,1.700000X1.700000*%
G04 #@! TD*
G04 #@! TA.AperFunction,ComponentPad*
%ADD12O,1.700000X1.700000*%
G04 #@! TD*
G04 #@! TA.AperFunction,ComponentPad*
%ADD13O,1.700000X2.000000*%
G04 #@! TD*
G04 #@! TA.AperFunction,ComponentPad*
%ADD14O,2.000000X1.700000*%
G04 #@! TD*
G04 #@! TA.AperFunction,ComponentPad*
%ADD15O,1.259000X2.362000*%
G04 #@! TD*
G04 #@! TA.AperFunction,ComponentPad*
%ADD16R,1.500000X1.500000*%
G04 #@! TD*
G04 #@! TA.AperFunction,ComponentPad*
%ADD17C,1.500000*%
G04 #@! TD*
G04 #@! TA.AperFunction,WasherPad*
%ADD18C,3.250000*%
G04 #@! TD*
G04 #@! TA.AperFunction,ViaPad*
%ADD19C,0.800000*%
G04 #@! TD*
G04 #@! TA.AperFunction,Conductor*
%ADD20C,0.250000*%
G04 #@! TD*
G04 #@! TA.AperFunction,Conductor*
%ADD21C,0.254000*%
G04 #@! TD*
G04 APERTURE END LIST*
D10*
X175479873Y-85389743D02*
G75*
G02*
X176439940Y-86360000I-5095J-965162D01*
G01*
X131488000Y-86296602D02*
G75*
G02*
X132389685Y-85389720I901685J5182D01*
G01*
X131488000Y-110680500D02*
X131488000Y-86296602D01*
X135552000Y-114744500D02*
G75*
G02*
X131488000Y-110680500I0J4064000D01*
G01*
X172353080Y-114744500D02*
X135552000Y-114744500D01*
X176439940Y-86360000D02*
X176450164Y-110667800D01*
X176450164Y-110670340D02*
G75*
G02*
X172353080Y-114744500I-4074224J0D01*
G01*
X175479873Y-85389743D02*
X132389685Y-85389720D01*
D11*
X137400000Y-103400000D03*
D12*
X134860000Y-103400000D03*
X137400000Y-100860000D03*
X134860000Y-100860000D03*
X137400000Y-98320000D03*
D13*
X170800000Y-110200000D03*
G04 #@! TA.AperFunction,ComponentPad*
G36*
G01*
X174150000Y-109450000D02*
X174150000Y-110950000D01*
G75*
G02*
X173900000Y-111200000I-250000J0D01*
G01*
X172700000Y-111200000D01*
G75*
G02*
X172450000Y-110950000I0J250000D01*
G01*
X172450000Y-109450000D01*
G75*
G02*
X172700000Y-109200000I250000J0D01*
G01*
X173900000Y-109200000D01*
G75*
G02*
X174150000Y-109450000I0J-250000D01*
G01*
G37*
G04 #@! TD.AperFunction*
X170800000Y-103300000D03*
G04 #@! TA.AperFunction,ComponentPad*
G36*
G01*
X174150000Y-102550000D02*
X174150000Y-104050000D01*
G75*
G02*
X173900000Y-104300000I-250000J0D01*
G01*
X172700000Y-104300000D01*
G75*
G02*
X172450000Y-104050000I0J250000D01*
G01*
X172450000Y-102550000D01*
G75*
G02*
X172700000Y-102300000I250000J0D01*
G01*
X173900000Y-102300000D01*
G75*
G02*
X174150000Y-102550000I0J-250000D01*
G01*
G37*
G04 #@! TD.AperFunction*
X162300000Y-103300000D03*
G04 #@! TA.AperFunction,ComponentPad*
G36*
G01*
X165650000Y-102550000D02*
X165650000Y-104050000D01*
G75*
G02*
X165400000Y-104300000I-250000J0D01*
G01*
X164200000Y-104300000D01*
G75*
G02*
X163950000Y-104050000I0J250000D01*
G01*
X163950000Y-102550000D01*
G75*
G02*
X164200000Y-102300000I250000J0D01*
G01*
X165400000Y-102300000D01*
G75*
G02*
X165650000Y-102550000I0J-250000D01*
G01*
G37*
G04 #@! TD.AperFunction*
X170700000Y-96400000D03*
G04 #@! TA.AperFunction,ComponentPad*
G36*
G01*
X174050000Y-95650000D02*
X174050000Y-97150000D01*
G75*
G02*
X173800000Y-97400000I-250000J0D01*
G01*
X172600000Y-97400000D01*
G75*
G02*
X172350000Y-97150000I0J250000D01*
G01*
X172350000Y-95650000D01*
G75*
G02*
X172600000Y-95400000I250000J0D01*
G01*
X173800000Y-95400000D01*
G75*
G02*
X174050000Y-95650000I0J-250000D01*
G01*
G37*
G04 #@! TD.AperFunction*
X173200000Y-88500000D03*
G04 #@! TA.AperFunction,ComponentPad*
G36*
G01*
X169850000Y-89250000D02*
X169850000Y-87750000D01*
G75*
G02*
X170100000Y-87500000I250000J0D01*
G01*
X171300000Y-87500000D01*
G75*
G02*
X171550000Y-87750000I0J-250000D01*
G01*
X171550000Y-89250000D01*
G75*
G02*
X171300000Y-89500000I-250000J0D01*
G01*
X170100000Y-89500000D01*
G75*
G02*
X169850000Y-89250000I0J250000D01*
G01*
G37*
G04 #@! TD.AperFunction*
X164700000Y-88500000D03*
G04 #@! TA.AperFunction,ComponentPad*
G36*
G01*
X161350000Y-89250000D02*
X161350000Y-87750000D01*
G75*
G02*
X161600000Y-87500000I250000J0D01*
G01*
X162800000Y-87500000D01*
G75*
G02*
X163050000Y-87750000I0J-250000D01*
G01*
X163050000Y-89250000D01*
G75*
G02*
X162800000Y-89500000I-250000J0D01*
G01*
X161600000Y-89500000D01*
G75*
G02*
X161350000Y-89250000I0J250000D01*
G01*
G37*
G04 #@! TD.AperFunction*
D14*
X134550000Y-88700000D03*
G04 #@! TA.AperFunction,ComponentPad*
G36*
G01*
X135300000Y-92050000D02*
X133800000Y-92050000D01*
G75*
G02*
X133550000Y-91800000I0J250000D01*
G01*
X133550000Y-90600000D01*
G75*
G02*
X133800000Y-90350000I250000J0D01*
G01*
X135300000Y-90350000D01*
G75*
G02*
X135550000Y-90600000I0J-250000D01*
G01*
X135550000Y-91800000D01*
G75*
G02*
X135300000Y-92050000I-250000J0D01*
G01*
G37*
G04 #@! TD.AperFunction*
D13*
X162200000Y-96400000D03*
G04 #@! TA.AperFunction,ComponentPad*
G36*
G01*
X165550000Y-95650000D02*
X165550000Y-97150000D01*
G75*
G02*
X165300000Y-97400000I-250000J0D01*
G01*
X164100000Y-97400000D01*
G75*
G02*
X163850000Y-97150000I0J250000D01*
G01*
X163850000Y-95650000D01*
G75*
G02*
X164100000Y-95400000I250000J0D01*
G01*
X165300000Y-95400000D01*
G75*
G02*
X165550000Y-95650000I0J-250000D01*
G01*
G37*
G04 #@! TD.AperFunction*
D14*
X141450000Y-88700000D03*
G04 #@! TA.AperFunction,ComponentPad*
G36*
G01*
X142200000Y-92050000D02*
X140700000Y-92050000D01*
G75*
G02*
X140450000Y-91800000I0J250000D01*
G01*
X140450000Y-90600000D01*
G75*
G02*
X140700000Y-90350000I250000J0D01*
G01*
X142200000Y-90350000D01*
G75*
G02*
X142450000Y-90600000I0J-250000D01*
G01*
X142450000Y-91800000D01*
G75*
G02*
X142200000Y-92050000I-250000J0D01*
G01*
G37*
G04 #@! TD.AperFunction*
X148350000Y-88700000D03*
G04 #@! TA.AperFunction,ComponentPad*
G36*
G01*
X149100000Y-92050000D02*
X147600000Y-92050000D01*
G75*
G02*
X147350000Y-91800000I0J250000D01*
G01*
X147350000Y-90600000D01*
G75*
G02*
X147600000Y-90350000I250000J0D01*
G01*
X149100000Y-90350000D01*
G75*
G02*
X149350000Y-90600000I0J-250000D01*
G01*
X149350000Y-91800000D01*
G75*
G02*
X149100000Y-92050000I-250000J0D01*
G01*
G37*
G04 #@! TD.AperFunction*
X155250000Y-88700000D03*
G04 #@! TA.AperFunction,ComponentPad*
G36*
G01*
X156000000Y-92050000D02*
X154500000Y-92050000D01*
G75*
G02*
X154250000Y-91800000I0J250000D01*
G01*
X154250000Y-90600000D01*
G75*
G02*
X154500000Y-90350000I250000J0D01*
G01*
X156000000Y-90350000D01*
G75*
G02*
X156250000Y-90600000I0J-250000D01*
G01*
X156250000Y-91800000D01*
G75*
G02*
X156000000Y-92050000I-250000J0D01*
G01*
G37*
G04 #@! TD.AperFunction*
D15*
X158323280Y-106097070D03*
X142063280Y-106097070D03*
D16*
X153742580Y-106459020D03*
D17*
X152722580Y-104679020D03*
X151712580Y-106459020D03*
X150692580Y-104679020D03*
X149682580Y-106459020D03*
X148662580Y-104679020D03*
X147652580Y-106459020D03*
X146632580Y-104679020D03*
D18*
X156543280Y-108999020D03*
X143843280Y-108999020D03*
D19*
X151120000Y-97480000D03*
X144153278Y-98261503D03*
X148881569Y-98639513D03*
X146920000Y-103000000D03*
X145450000Y-102890000D03*
X145540000Y-101390000D03*
X147805728Y-97600205D03*
X148850000Y-97640000D03*
X146784683Y-97575274D03*
X142180000Y-101580000D03*
X148804230Y-99688755D03*
D20*
X148481570Y-99039512D02*
X148881569Y-98639513D01*
X144931287Y-99039512D02*
X148481570Y-99039512D01*
X144153278Y-98261503D02*
X144931287Y-99039512D01*
X146983560Y-103000000D02*
X148662580Y-104679020D01*
X146920000Y-103000000D02*
X146983560Y-103000000D01*
X148607579Y-107534021D02*
X149682580Y-106459020D01*
X145450000Y-102890000D02*
X145450000Y-105847442D01*
X147136579Y-107534021D02*
X148607579Y-107534021D01*
X145450000Y-105847442D02*
X147136579Y-107534021D01*
X171874990Y-87174990D02*
X173200000Y-88500000D01*
X161361820Y-87174990D02*
X171874990Y-87174990D01*
X150692580Y-104679020D02*
X161024990Y-94346610D01*
X161024990Y-87511820D02*
X161361820Y-87174990D01*
X161024990Y-94346610D02*
X161024990Y-87511820D01*
X163524990Y-89675010D02*
X164700000Y-88500000D01*
X163524990Y-98761612D02*
X163524990Y-89675010D01*
X154752581Y-107534021D02*
X163524990Y-98761612D01*
X151712580Y-106459020D02*
X152787581Y-107534021D01*
X152787581Y-107534021D02*
X154752581Y-107534021D01*
X153924990Y-90025010D02*
X155250000Y-88700000D01*
X153924990Y-95812172D02*
X153924990Y-90025010D01*
X145540000Y-101390000D02*
X148347162Y-101390000D01*
X148347162Y-101390000D02*
X153924990Y-95812172D01*
X147805728Y-95055728D02*
X147805728Y-97600205D01*
X141450000Y-88700000D02*
X147805728Y-95055728D01*
X149675010Y-90025010D02*
X148350000Y-88700000D01*
X148850000Y-97640000D02*
X149675010Y-96814990D01*
X149675010Y-96814990D02*
X149675010Y-90025010D01*
X134550000Y-88700000D02*
X135800000Y-88700000D01*
X144675274Y-97575274D02*
X146784683Y-97575274D01*
X135800000Y-88700000D02*
X144675274Y-97575274D01*
X142180000Y-101580000D02*
X144071245Y-99688755D01*
X144071245Y-99688755D02*
X148804230Y-99688755D01*
D21*
G36*
X175445847Y-86049743D02*
G01*
X175535001Y-86058960D01*
X175591338Y-86076294D01*
X175643234Y-86104240D01*
X175688715Y-86141736D01*
X175726044Y-86187346D01*
X175753803Y-86239340D01*
X175770937Y-86295742D01*
X175779951Y-86386096D01*
X175790152Y-110638186D01*
X175722036Y-111332885D01*
X175529620Y-111970196D01*
X175217084Y-112557991D01*
X174796331Y-113073886D01*
X174283378Y-113498237D01*
X173697781Y-113814868D01*
X173061825Y-114011730D01*
X172369575Y-114084488D01*
X172352630Y-114084500D01*
X135584278Y-114084500D01*
X134891442Y-114016567D01*
X134256042Y-113824728D01*
X133670009Y-113513130D01*
X133155653Y-113093630D01*
X132732581Y-112582225D01*
X132416897Y-111998378D01*
X132220625Y-111364330D01*
X132148000Y-110673345D01*
X132148000Y-110467721D01*
X134503000Y-110467721D01*
X134503000Y-110888279D01*
X134585047Y-111300756D01*
X134745988Y-111689302D01*
X134979637Y-112038983D01*
X135277017Y-112336363D01*
X135626698Y-112570012D01*
X136015244Y-112730953D01*
X136427721Y-112813000D01*
X136848279Y-112813000D01*
X137260756Y-112730953D01*
X137649302Y-112570012D01*
X137998983Y-112336363D01*
X138296363Y-112038983D01*
X138530012Y-111689302D01*
X138690953Y-111300756D01*
X138773000Y-110888279D01*
X138773000Y-110467721D01*
X138690953Y-110055244D01*
X138530012Y-109666698D01*
X138296363Y-109317017D01*
X137998983Y-109019637D01*
X137649302Y-108785988D01*
X137260756Y-108625047D01*
X136848279Y-108543000D01*
X136427721Y-108543000D01*
X136015244Y-108625047D01*
X135626698Y-108785988D01*
X135277017Y-109019637D01*
X134979637Y-109317017D01*
X134745988Y-109666698D01*
X134585047Y-110055244D01*
X134503000Y-110467721D01*
X132148000Y-110467721D01*
X132148000Y-105483454D01*
X140798780Y-105483454D01*
X140798780Y-106710685D01*
X140817077Y-106896454D01*
X140889382Y-107134813D01*
X141006800Y-107354487D01*
X141164817Y-107547033D01*
X141357362Y-107705050D01*
X141577036Y-107822468D01*
X141815395Y-107894773D01*
X141860094Y-107899176D01*
X141840494Y-107928509D01*
X141670131Y-108339802D01*
X141583280Y-108776429D01*
X141583280Y-109221611D01*
X141670131Y-109658238D01*
X141840494Y-110069531D01*
X142087824Y-110439686D01*
X142402614Y-110754476D01*
X142772769Y-111001806D01*
X143184062Y-111172169D01*
X143620689Y-111259020D01*
X144065871Y-111259020D01*
X144502498Y-111172169D01*
X144913791Y-111001806D01*
X145283946Y-110754476D01*
X145598736Y-110439686D01*
X145846066Y-110069531D01*
X146016429Y-109658238D01*
X146103280Y-109221611D01*
X146103280Y-108776429D01*
X146016429Y-108339802D01*
X145846066Y-107928509D01*
X145598736Y-107558354D01*
X145283946Y-107243564D01*
X144913791Y-106996234D01*
X144502498Y-106825871D01*
X144065871Y-106739020D01*
X143620689Y-106739020D01*
X143319080Y-106799014D01*
X143327780Y-106710686D01*
X143327780Y-105483454D01*
X143309483Y-105297685D01*
X143237178Y-105059326D01*
X143119760Y-104839652D01*
X142961743Y-104647107D01*
X142769198Y-104489090D01*
X142549524Y-104371672D01*
X142311165Y-104299367D01*
X142063280Y-104274952D01*
X141815396Y-104299367D01*
X141577037Y-104371672D01*
X141357363Y-104489090D01*
X141164818Y-104647107D01*
X141006800Y-104839652D01*
X140889382Y-105059326D01*
X140817077Y-105297685D01*
X140798780Y-105483454D01*
X132148000Y-105483454D01*
X132148000Y-100713740D01*
X133375000Y-100713740D01*
X133375000Y-101006260D01*
X133432068Y-101293158D01*
X133544010Y-101563411D01*
X133706525Y-101806632D01*
X133913368Y-102013475D01*
X134087760Y-102130000D01*
X133913368Y-102246525D01*
X133706525Y-102453368D01*
X133544010Y-102696589D01*
X133432068Y-102966842D01*
X133375000Y-103253740D01*
X133375000Y-103546260D01*
X133432068Y-103833158D01*
X133544010Y-104103411D01*
X133706525Y-104346632D01*
X133913368Y-104553475D01*
X134156589Y-104715990D01*
X134426842Y-104827932D01*
X134713740Y-104885000D01*
X135006260Y-104885000D01*
X135293158Y-104827932D01*
X135563411Y-104715990D01*
X135806632Y-104553475D01*
X135938487Y-104421620D01*
X135960498Y-104494180D01*
X136019463Y-104604494D01*
X136098815Y-104701185D01*
X136195506Y-104780537D01*
X136305820Y-104839502D01*
X136425518Y-104875812D01*
X136550000Y-104888072D01*
X138250000Y-104888072D01*
X138374482Y-104875812D01*
X138494180Y-104839502D01*
X138604494Y-104780537D01*
X138701185Y-104701185D01*
X138780537Y-104604494D01*
X138839502Y-104494180D01*
X138875812Y-104374482D01*
X138888072Y-104250000D01*
X138888072Y-102550000D01*
X138875812Y-102425518D01*
X138839502Y-102305820D01*
X138780537Y-102195506D01*
X138701185Y-102098815D01*
X138604494Y-102019463D01*
X138494180Y-101960498D01*
X138421620Y-101938487D01*
X138553475Y-101806632D01*
X138715990Y-101563411D01*
X138827932Y-101293158D01*
X138885000Y-101006260D01*
X138885000Y-100713740D01*
X138827932Y-100426842D01*
X138715990Y-100156589D01*
X138553475Y-99913368D01*
X138346632Y-99706525D01*
X138164466Y-99584805D01*
X138281355Y-99515178D01*
X138497588Y-99320269D01*
X138671641Y-99086920D01*
X138796825Y-98824099D01*
X138841476Y-98676890D01*
X138720155Y-98447000D01*
X137527000Y-98447000D01*
X137527000Y-98467000D01*
X137273000Y-98467000D01*
X137273000Y-98447000D01*
X136079845Y-98447000D01*
X135958524Y-98676890D01*
X136003175Y-98824099D01*
X136128359Y-99086920D01*
X136302412Y-99320269D01*
X136518645Y-99515178D01*
X136635534Y-99584805D01*
X136453368Y-99706525D01*
X136246525Y-99913368D01*
X136130000Y-100087760D01*
X136013475Y-99913368D01*
X135806632Y-99706525D01*
X135563411Y-99544010D01*
X135293158Y-99432068D01*
X135006260Y-99375000D01*
X134713740Y-99375000D01*
X134426842Y-99432068D01*
X134156589Y-99544010D01*
X133913368Y-99706525D01*
X133706525Y-99913368D01*
X133544010Y-100156589D01*
X133432068Y-100426842D01*
X133375000Y-100713740D01*
X132148000Y-100713740D01*
X132148000Y-97963110D01*
X135958524Y-97963110D01*
X136079845Y-98193000D01*
X137273000Y-98193000D01*
X137273000Y-96999186D01*
X137527000Y-96999186D01*
X137527000Y-98193000D01*
X138720155Y-98193000D01*
X138841476Y-97963110D01*
X138796825Y-97815901D01*
X138671641Y-97553080D01*
X138497588Y-97319731D01*
X138281355Y-97124822D01*
X138031252Y-96975843D01*
X137756891Y-96878519D01*
X137527000Y-96999186D01*
X137273000Y-96999186D01*
X137043109Y-96878519D01*
X136768748Y-96975843D01*
X136518645Y-97124822D01*
X136302412Y-97319731D01*
X136128359Y-97553080D01*
X136003175Y-97815901D01*
X135958524Y-97963110D01*
X132148000Y-97963110D01*
X132148000Y-92050000D01*
X132911928Y-92050000D01*
X132924188Y-92174482D01*
X132960498Y-92294180D01*
X133019463Y-92404494D01*
X133098815Y-92501185D01*
X133195506Y-92580537D01*
X133305820Y-92639502D01*
X133425518Y-92675812D01*
X133550000Y-92688072D01*
X134264250Y-92685000D01*
X134423000Y-92526250D01*
X134423000Y-91327000D01*
X134677000Y-91327000D01*
X134677000Y-92526250D01*
X134835750Y-92685000D01*
X135550000Y-92688072D01*
X135674482Y-92675812D01*
X135794180Y-92639502D01*
X135904494Y-92580537D01*
X136001185Y-92501185D01*
X136080537Y-92404494D01*
X136139502Y-92294180D01*
X136175812Y-92174482D01*
X136188072Y-92050000D01*
X136185000Y-91485750D01*
X136026250Y-91327000D01*
X134677000Y-91327000D01*
X134423000Y-91327000D01*
X133073750Y-91327000D01*
X132915000Y-91485750D01*
X132911928Y-92050000D01*
X132148000Y-92050000D01*
X132148000Y-88700000D01*
X132907815Y-88700000D01*
X132936487Y-88991111D01*
X133021401Y-89271034D01*
X133159294Y-89529014D01*
X133340608Y-89749945D01*
X133305820Y-89760498D01*
X133195506Y-89819463D01*
X133098815Y-89898815D01*
X133019463Y-89995506D01*
X132960498Y-90105820D01*
X132924188Y-90225518D01*
X132911928Y-90350000D01*
X132915000Y-90914250D01*
X133073750Y-91073000D01*
X134423000Y-91073000D01*
X134423000Y-91053000D01*
X134677000Y-91053000D01*
X134677000Y-91073000D01*
X136026250Y-91073000D01*
X136185000Y-90914250D01*
X136188072Y-90350000D01*
X136175812Y-90225518D01*
X136143196Y-90117997D01*
X143488134Y-97462936D01*
X143349341Y-97601729D01*
X143236073Y-97771247D01*
X143158052Y-97959605D01*
X143118278Y-98159564D01*
X143118278Y-98363442D01*
X143158052Y-98563401D01*
X143236073Y-98751759D01*
X143349341Y-98921277D01*
X143493504Y-99065440D01*
X143570265Y-99116730D01*
X143531244Y-99148754D01*
X143507446Y-99177752D01*
X142140199Y-100545000D01*
X142078061Y-100545000D01*
X141878102Y-100584774D01*
X141689744Y-100662795D01*
X141520226Y-100776063D01*
X141376063Y-100920226D01*
X141262795Y-101089744D01*
X141184774Y-101278102D01*
X141145000Y-101478061D01*
X141145000Y-101681939D01*
X141184774Y-101881898D01*
X141262795Y-102070256D01*
X141376063Y-102239774D01*
X141520226Y-102383937D01*
X141689744Y-102497205D01*
X141878102Y-102575226D01*
X142078061Y-102615000D01*
X142281939Y-102615000D01*
X142481898Y-102575226D01*
X142670256Y-102497205D01*
X142839774Y-102383937D01*
X142983937Y-102239774D01*
X143097205Y-102070256D01*
X143175226Y-101881898D01*
X143215000Y-101681939D01*
X143215000Y-101619801D01*
X144386047Y-100448755D01*
X145107781Y-100448755D01*
X145049744Y-100472795D01*
X144880226Y-100586063D01*
X144736063Y-100730226D01*
X144622795Y-100899744D01*
X144544774Y-101088102D01*
X144505000Y-101288061D01*
X144505000Y-101491939D01*
X144544774Y-101691898D01*
X144622795Y-101880256D01*
X144736063Y-102049774D01*
X144781289Y-102095000D01*
X144646063Y-102230226D01*
X144532795Y-102399744D01*
X144454774Y-102588102D01*
X144415000Y-102788061D01*
X144415000Y-102991939D01*
X144454774Y-103191898D01*
X144532795Y-103380256D01*
X144646063Y-103549774D01*
X144690000Y-103593711D01*
X144690001Y-105810110D01*
X144686324Y-105847442D01*
X144700998Y-105996427D01*
X144744454Y-106139688D01*
X144815026Y-106271718D01*
X144886201Y-106358444D01*
X144910000Y-106387443D01*
X144938998Y-106411241D01*
X146572780Y-108045024D01*
X146596578Y-108074022D01*
X146625576Y-108097820D01*
X146712302Y-108168995D01*
X146844332Y-108239567D01*
X146987593Y-108283024D01*
X147099246Y-108294021D01*
X147099256Y-108294021D01*
X147136579Y-108297697D01*
X147173902Y-108294021D01*
X148570257Y-108294021D01*
X148607579Y-108297697D01*
X148644901Y-108294021D01*
X148644912Y-108294021D01*
X148756565Y-108283024D01*
X148899826Y-108239567D01*
X149031855Y-108168995D01*
X149147580Y-108074022D01*
X149171383Y-108045019D01*
X149401215Y-107815187D01*
X149546169Y-107844020D01*
X149818991Y-107844020D01*
X150086569Y-107790795D01*
X150338623Y-107686391D01*
X150565466Y-107534819D01*
X150697580Y-107402705D01*
X150829694Y-107534819D01*
X151056537Y-107686391D01*
X151308591Y-107790795D01*
X151576169Y-107844020D01*
X151848991Y-107844020D01*
X151993945Y-107815187D01*
X152223782Y-108045024D01*
X152247580Y-108074022D01*
X152276578Y-108097820D01*
X152363304Y-108168995D01*
X152495334Y-108239567D01*
X152638595Y-108283024D01*
X152750248Y-108294021D01*
X152750258Y-108294021D01*
X152787581Y-108297697D01*
X152824903Y-108294021D01*
X154389094Y-108294021D01*
X154370131Y-108339802D01*
X154283280Y-108776429D01*
X154283280Y-109221611D01*
X154370131Y-109658238D01*
X154540494Y-110069531D01*
X154787824Y-110439686D01*
X155102614Y-110754476D01*
X155472769Y-111001806D01*
X155884062Y-111172169D01*
X156320689Y-111259020D01*
X156765871Y-111259020D01*
X157202498Y-111172169D01*
X157613791Y-111001806D01*
X157983946Y-110754476D01*
X158270701Y-110467721D01*
X162203000Y-110467721D01*
X162203000Y-110888279D01*
X162285047Y-111300756D01*
X162445988Y-111689302D01*
X162679637Y-112038983D01*
X162977017Y-112336363D01*
X163326698Y-112570012D01*
X163715244Y-112730953D01*
X164127721Y-112813000D01*
X164548279Y-112813000D01*
X164960756Y-112730953D01*
X165349302Y-112570012D01*
X165698983Y-112336363D01*
X165996363Y-112038983D01*
X166230012Y-111689302D01*
X166390953Y-111300756D01*
X166473000Y-110888279D01*
X166473000Y-110559742D01*
X169328715Y-110559742D01*
X169397904Y-110842745D01*
X169520975Y-111106812D01*
X169693198Y-111341795D01*
X169907954Y-111538664D01*
X170156991Y-111689854D01*
X170430739Y-111789554D01*
X170443110Y-111791476D01*
X170673000Y-111670155D01*
X170673000Y-110327000D01*
X169472768Y-110327000D01*
X169328715Y-110559742D01*
X166473000Y-110559742D01*
X166473000Y-110467721D01*
X166390953Y-110055244D01*
X166301903Y-109840258D01*
X169328715Y-109840258D01*
X169472768Y-110073000D01*
X170673000Y-110073000D01*
X170673000Y-108729845D01*
X170927000Y-108729845D01*
X170927000Y-110073000D01*
X170947000Y-110073000D01*
X170947000Y-110327000D01*
X170927000Y-110327000D01*
X170927000Y-111670155D01*
X171156890Y-111791476D01*
X171169261Y-111789554D01*
X171443009Y-111689854D01*
X171692046Y-111538664D01*
X171906802Y-111341795D01*
X171907086Y-111341407D01*
X171961595Y-111443386D01*
X172072038Y-111577962D01*
X172206614Y-111688405D01*
X172360150Y-111770472D01*
X172526746Y-111821008D01*
X172700000Y-111838072D01*
X173900000Y-111838072D01*
X174073254Y-111821008D01*
X174239850Y-111770472D01*
X174393386Y-111688405D01*
X174527962Y-111577962D01*
X174638405Y-111443386D01*
X174720472Y-111289850D01*
X174771008Y-111123254D01*
X174788072Y-110950000D01*
X174788072Y-109450000D01*
X174771008Y-109276746D01*
X174720472Y-109110150D01*
X174638405Y-108956614D01*
X174527962Y-108822038D01*
X174393386Y-108711595D01*
X174239850Y-108629528D01*
X174073254Y-108578992D01*
X173900000Y-108561928D01*
X172700000Y-108561928D01*
X172526746Y-108578992D01*
X172360150Y-108629528D01*
X172206614Y-108711595D01*
X172072038Y-108822038D01*
X171961595Y-108956614D01*
X171907086Y-109058593D01*
X171906802Y-109058205D01*
X171692046Y-108861336D01*
X171443009Y-108710146D01*
X171169261Y-108610446D01*
X171156890Y-108608524D01*
X170927000Y-108729845D01*
X170673000Y-108729845D01*
X170443110Y-108608524D01*
X170430739Y-108610446D01*
X170156991Y-108710146D01*
X169907954Y-108861336D01*
X169693198Y-109058205D01*
X169520975Y-109293188D01*
X169397904Y-109557255D01*
X169328715Y-109840258D01*
X166301903Y-109840258D01*
X166230012Y-109666698D01*
X165996363Y-109317017D01*
X165698983Y-109019637D01*
X165349302Y-108785988D01*
X164960756Y-108625047D01*
X164548279Y-108543000D01*
X164127721Y-108543000D01*
X163715244Y-108625047D01*
X163326698Y-108785988D01*
X162977017Y-109019637D01*
X162679637Y-109317017D01*
X162445988Y-109666698D01*
X162285047Y-110055244D01*
X162203000Y-110467721D01*
X158270701Y-110467721D01*
X158298736Y-110439686D01*
X158546066Y-110069531D01*
X158716429Y-109658238D01*
X158803280Y-109221611D01*
X158803280Y-108776429D01*
X158716429Y-108339802D01*
X158546066Y-107928509D01*
X158526466Y-107899175D01*
X158571164Y-107894773D01*
X158809523Y-107822468D01*
X159029197Y-107705050D01*
X159221743Y-107547033D01*
X159379760Y-107354488D01*
X159497178Y-107134814D01*
X159569483Y-106896455D01*
X159587780Y-106710686D01*
X159587780Y-105483454D01*
X159569483Y-105297685D01*
X159497178Y-105059326D01*
X159379760Y-104839652D01*
X159221743Y-104647107D01*
X159029198Y-104489090D01*
X158926960Y-104434443D01*
X159701661Y-103659742D01*
X160828715Y-103659742D01*
X160897904Y-103942745D01*
X161020975Y-104206812D01*
X161193198Y-104441795D01*
X161407954Y-104638664D01*
X161656991Y-104789854D01*
X161930739Y-104889554D01*
X161943110Y-104891476D01*
X162173000Y-104770155D01*
X162173000Y-103427000D01*
X160972768Y-103427000D01*
X160828715Y-103659742D01*
X159701661Y-103659742D01*
X161165755Y-102195649D01*
X161020975Y-102393188D01*
X160897904Y-102657255D01*
X160828715Y-102940258D01*
X160972768Y-103173000D01*
X162173000Y-103173000D01*
X162173000Y-101829845D01*
X162427000Y-101829845D01*
X162427000Y-103173000D01*
X162447000Y-103173000D01*
X162447000Y-103427000D01*
X162427000Y-103427000D01*
X162427000Y-104770155D01*
X162656890Y-104891476D01*
X162669261Y-104889554D01*
X162943009Y-104789854D01*
X163192046Y-104638664D01*
X163406802Y-104441795D01*
X163407086Y-104441407D01*
X163461595Y-104543386D01*
X163572038Y-104677962D01*
X163706614Y-104788405D01*
X163860150Y-104870472D01*
X164026746Y-104921008D01*
X164200000Y-104938072D01*
X165400000Y-104938072D01*
X165573254Y-104921008D01*
X165739850Y-104870472D01*
X165893386Y-104788405D01*
X166027962Y-104677962D01*
X166138405Y-104543386D01*
X166220472Y-104389850D01*
X166271008Y-104223254D01*
X166288072Y-104050000D01*
X166288072Y-103659742D01*
X169328715Y-103659742D01*
X169397904Y-103942745D01*
X169520975Y-104206812D01*
X169693198Y-104441795D01*
X169907954Y-104638664D01*
X170156991Y-104789854D01*
X170430739Y-104889554D01*
X170443110Y-104891476D01*
X170673000Y-104770155D01*
X170673000Y-103427000D01*
X169472768Y-103427000D01*
X169328715Y-103659742D01*
X166288072Y-103659742D01*
X166288072Y-102940258D01*
X169328715Y-102940258D01*
X169472768Y-103173000D01*
X170673000Y-103173000D01*
X170673000Y-101829845D01*
X170927000Y-101829845D01*
X170927000Y-103173000D01*
X170947000Y-103173000D01*
X170947000Y-103427000D01*
X170927000Y-103427000D01*
X170927000Y-104770155D01*
X171156890Y-104891476D01*
X171169261Y-104889554D01*
X171443009Y-104789854D01*
X171692046Y-104638664D01*
X171906802Y-104441795D01*
X171907086Y-104441407D01*
X171961595Y-104543386D01*
X172072038Y-104677962D01*
X172206614Y-104788405D01*
X172360150Y-104870472D01*
X172526746Y-104921008D01*
X172700000Y-104938072D01*
X173900000Y-104938072D01*
X174073254Y-104921008D01*
X174239850Y-104870472D01*
X174393386Y-104788405D01*
X174527962Y-104677962D01*
X174638405Y-104543386D01*
X174720472Y-104389850D01*
X174771008Y-104223254D01*
X174788072Y-104050000D01*
X174788072Y-102550000D01*
X174771008Y-102376746D01*
X174720472Y-102210150D01*
X174638405Y-102056614D01*
X174527962Y-101922038D01*
X174393386Y-101811595D01*
X174239850Y-101729528D01*
X174073254Y-101678992D01*
X173900000Y-101661928D01*
X172700000Y-101661928D01*
X172526746Y-101678992D01*
X172360150Y-101729528D01*
X172206614Y-101811595D01*
X172072038Y-101922038D01*
X171961595Y-102056614D01*
X171907086Y-102158593D01*
X171906802Y-102158205D01*
X171692046Y-101961336D01*
X171443009Y-101810146D01*
X171169261Y-101710446D01*
X171156890Y-101708524D01*
X170927000Y-101829845D01*
X170673000Y-101829845D01*
X170443110Y-101708524D01*
X170430739Y-101710446D01*
X170156991Y-101810146D01*
X169907954Y-101961336D01*
X169693198Y-102158205D01*
X169520975Y-102393188D01*
X169397904Y-102657255D01*
X169328715Y-102940258D01*
X166288072Y-102940258D01*
X166288072Y-102550000D01*
X166271008Y-102376746D01*
X166220472Y-102210150D01*
X166138405Y-102056614D01*
X166027962Y-101922038D01*
X165893386Y-101811595D01*
X165739850Y-101729528D01*
X165573254Y-101678992D01*
X165400000Y-101661928D01*
X164200000Y-101661928D01*
X164026746Y-101678992D01*
X163860150Y-101729528D01*
X163706614Y-101811595D01*
X163572038Y-101922038D01*
X163461595Y-102056614D01*
X163407086Y-102158593D01*
X163406802Y-102158205D01*
X163192046Y-101961336D01*
X162943009Y-101810146D01*
X162669261Y-101710446D01*
X162656890Y-101708524D01*
X162427000Y-101829845D01*
X162173000Y-101829845D01*
X161943110Y-101708524D01*
X161930739Y-101710446D01*
X161656991Y-101810146D01*
X161407954Y-101961336D01*
X161313269Y-102048135D01*
X164035994Y-99325410D01*
X164064991Y-99301613D01*
X164159964Y-99185888D01*
X164230536Y-99053859D01*
X164273993Y-98910598D01*
X164284990Y-98798945D01*
X164284990Y-98798937D01*
X164288666Y-98761612D01*
X164284990Y-98724287D01*
X164284990Y-98038072D01*
X165300000Y-98038072D01*
X165473254Y-98021008D01*
X165639850Y-97970472D01*
X165793386Y-97888405D01*
X165927962Y-97777962D01*
X166038405Y-97643386D01*
X166120472Y-97489850D01*
X166171008Y-97323254D01*
X166188072Y-97150000D01*
X166188072Y-96759742D01*
X169228715Y-96759742D01*
X169297904Y-97042745D01*
X169420975Y-97306812D01*
X169593198Y-97541795D01*
X169807954Y-97738664D01*
X170056991Y-97889854D01*
X170330739Y-97989554D01*
X170343110Y-97991476D01*
X170573000Y-97870155D01*
X170573000Y-96527000D01*
X169372768Y-96527000D01*
X169228715Y-96759742D01*
X166188072Y-96759742D01*
X166188072Y-96040258D01*
X169228715Y-96040258D01*
X169372768Y-96273000D01*
X170573000Y-96273000D01*
X170573000Y-94929845D01*
X170827000Y-94929845D01*
X170827000Y-96273000D01*
X170847000Y-96273000D01*
X170847000Y-96527000D01*
X170827000Y-96527000D01*
X170827000Y-97870155D01*
X171056890Y-97991476D01*
X171069261Y-97989554D01*
X171343009Y-97889854D01*
X171592046Y-97738664D01*
X171806802Y-97541795D01*
X171807086Y-97541407D01*
X171861595Y-97643386D01*
X171972038Y-97777962D01*
X172106614Y-97888405D01*
X172260150Y-97970472D01*
X172426746Y-98021008D01*
X172600000Y-98038072D01*
X173800000Y-98038072D01*
X173973254Y-98021008D01*
X174139850Y-97970472D01*
X174293386Y-97888405D01*
X174427962Y-97777962D01*
X174538405Y-97643386D01*
X174620472Y-97489850D01*
X174671008Y-97323254D01*
X174688072Y-97150000D01*
X174688072Y-95650000D01*
X174671008Y-95476746D01*
X174620472Y-95310150D01*
X174538405Y-95156614D01*
X174427962Y-95022038D01*
X174293386Y-94911595D01*
X174139850Y-94829528D01*
X173973254Y-94778992D01*
X173800000Y-94761928D01*
X172600000Y-94761928D01*
X172426746Y-94778992D01*
X172260150Y-94829528D01*
X172106614Y-94911595D01*
X171972038Y-95022038D01*
X171861595Y-95156614D01*
X171807086Y-95258593D01*
X171806802Y-95258205D01*
X171592046Y-95061336D01*
X171343009Y-94910146D01*
X171069261Y-94810446D01*
X171056890Y-94808524D01*
X170827000Y-94929845D01*
X170573000Y-94929845D01*
X170343110Y-94808524D01*
X170330739Y-94810446D01*
X170056991Y-94910146D01*
X169807954Y-95061336D01*
X169593198Y-95258205D01*
X169420975Y-95493188D01*
X169297904Y-95757255D01*
X169228715Y-96040258D01*
X166188072Y-96040258D01*
X166188072Y-95650000D01*
X166171008Y-95476746D01*
X166120472Y-95310150D01*
X166038405Y-95156614D01*
X165927962Y-95022038D01*
X165793386Y-94911595D01*
X165639850Y-94829528D01*
X165473254Y-94778992D01*
X165300000Y-94761928D01*
X164284990Y-94761928D01*
X164284990Y-90075928D01*
X164408890Y-90113513D01*
X164700000Y-90142185D01*
X164991111Y-90113513D01*
X165271034Y-90028599D01*
X165529014Y-89890706D01*
X165755134Y-89705134D01*
X165923483Y-89500000D01*
X169211928Y-89500000D01*
X169224188Y-89624482D01*
X169260498Y-89744180D01*
X169319463Y-89854494D01*
X169398815Y-89951185D01*
X169495506Y-90030537D01*
X169605820Y-90089502D01*
X169725518Y-90125812D01*
X169850000Y-90138072D01*
X170414250Y-90135000D01*
X170573000Y-89976250D01*
X170573000Y-88627000D01*
X169373750Y-88627000D01*
X169215000Y-88785750D01*
X169211928Y-89500000D01*
X165923483Y-89500000D01*
X165940706Y-89479014D01*
X166078599Y-89221033D01*
X166163513Y-88941110D01*
X166185000Y-88722949D01*
X166185000Y-88277050D01*
X166163513Y-88058889D01*
X166125929Y-87934990D01*
X169213799Y-87934990D01*
X169215000Y-88214250D01*
X169373750Y-88373000D01*
X170573000Y-88373000D01*
X170573000Y-88353000D01*
X170827000Y-88353000D01*
X170827000Y-88373000D01*
X170847000Y-88373000D01*
X170847000Y-88627000D01*
X170827000Y-88627000D01*
X170827000Y-89976250D01*
X170985750Y-90135000D01*
X171550000Y-90138072D01*
X171674482Y-90125812D01*
X171794180Y-90089502D01*
X171904494Y-90030537D01*
X172001185Y-89951185D01*
X172080537Y-89854494D01*
X172139502Y-89744180D01*
X172150055Y-89709392D01*
X172370987Y-89890706D01*
X172628967Y-90028599D01*
X172908890Y-90113513D01*
X173200000Y-90142185D01*
X173491111Y-90113513D01*
X173771034Y-90028599D01*
X174029014Y-89890706D01*
X174255134Y-89705134D01*
X174440706Y-89479014D01*
X174578599Y-89221033D01*
X174663513Y-88941110D01*
X174685000Y-88722949D01*
X174685000Y-88277050D01*
X174663513Y-88058889D01*
X174578599Y-87778966D01*
X174440706Y-87520986D01*
X174255134Y-87294866D01*
X174029013Y-87109294D01*
X173771033Y-86971401D01*
X173491110Y-86886487D01*
X173200000Y-86857815D01*
X172908889Y-86886487D01*
X172718916Y-86944115D01*
X172438794Y-86663993D01*
X172414991Y-86634989D01*
X172299266Y-86540016D01*
X172167237Y-86469444D01*
X172023976Y-86425987D01*
X171912323Y-86414990D01*
X171912312Y-86414990D01*
X171874990Y-86411314D01*
X171837668Y-86414990D01*
X161399153Y-86414990D01*
X161361820Y-86411313D01*
X161324487Y-86414990D01*
X161212834Y-86425987D01*
X161069573Y-86469444D01*
X160937544Y-86540016D01*
X160821819Y-86634989D01*
X160798016Y-86663993D01*
X160513988Y-86948021D01*
X160484990Y-86971819D01*
X160461192Y-87000817D01*
X160461191Y-87000818D01*
X160390016Y-87087544D01*
X160319444Y-87219574D01*
X160275988Y-87362835D01*
X160261314Y-87511820D01*
X160264991Y-87549152D01*
X160264990Y-94031808D01*
X150973945Y-103322853D01*
X150828991Y-103294020D01*
X150556169Y-103294020D01*
X150288591Y-103347245D01*
X150036537Y-103451649D01*
X149809694Y-103603221D01*
X149677580Y-103735335D01*
X149545466Y-103603221D01*
X149318623Y-103451649D01*
X149066569Y-103347245D01*
X148798991Y-103294020D01*
X148526169Y-103294020D01*
X148381215Y-103322853D01*
X147954647Y-102896286D01*
X147915226Y-102698102D01*
X147837205Y-102509744D01*
X147723937Y-102340226D01*
X147579774Y-102196063D01*
X147510836Y-102150000D01*
X148309840Y-102150000D01*
X148347162Y-102153676D01*
X148384484Y-102150000D01*
X148384495Y-102150000D01*
X148496148Y-102139003D01*
X148639409Y-102095546D01*
X148771438Y-102024974D01*
X148887163Y-101930001D01*
X148910966Y-101900997D01*
X154435994Y-96375970D01*
X154464991Y-96352173D01*
X154491322Y-96320089D01*
X154559964Y-96236449D01*
X154630536Y-96104419D01*
X154630536Y-96104418D01*
X154673993Y-95961158D01*
X154684990Y-95849505D01*
X154684990Y-95849495D01*
X154688666Y-95812173D01*
X154684990Y-95774850D01*
X154684990Y-92686201D01*
X154964250Y-92685000D01*
X155123000Y-92526250D01*
X155123000Y-91327000D01*
X155377000Y-91327000D01*
X155377000Y-92526250D01*
X155535750Y-92685000D01*
X156250000Y-92688072D01*
X156374482Y-92675812D01*
X156494180Y-92639502D01*
X156604494Y-92580537D01*
X156701185Y-92501185D01*
X156780537Y-92404494D01*
X156839502Y-92294180D01*
X156875812Y-92174482D01*
X156888072Y-92050000D01*
X156885000Y-91485750D01*
X156726250Y-91327000D01*
X155377000Y-91327000D01*
X155123000Y-91327000D01*
X155103000Y-91327000D01*
X155103000Y-91073000D01*
X155123000Y-91073000D01*
X155123000Y-91053000D01*
X155377000Y-91053000D01*
X155377000Y-91073000D01*
X156726250Y-91073000D01*
X156885000Y-90914250D01*
X156888072Y-90350000D01*
X156875812Y-90225518D01*
X156839502Y-90105820D01*
X156780537Y-89995506D01*
X156701185Y-89898815D01*
X156604494Y-89819463D01*
X156494180Y-89760498D01*
X156459392Y-89749945D01*
X156640706Y-89529014D01*
X156778599Y-89271034D01*
X156863513Y-88991111D01*
X156892185Y-88700000D01*
X156863513Y-88408889D01*
X156778599Y-88128966D01*
X156640706Y-87870986D01*
X156455134Y-87644866D01*
X156229014Y-87459294D01*
X155971034Y-87321401D01*
X155691111Y-87236487D01*
X155472950Y-87215000D01*
X155027050Y-87215000D01*
X154808889Y-87236487D01*
X154528966Y-87321401D01*
X154270986Y-87459294D01*
X154044866Y-87644866D01*
X153859294Y-87870986D01*
X153721401Y-88128966D01*
X153636487Y-88408889D01*
X153607815Y-88700000D01*
X153636487Y-88991111D01*
X153694115Y-89181084D01*
X153413988Y-89461211D01*
X153384990Y-89485009D01*
X153361192Y-89514007D01*
X153361191Y-89514008D01*
X153290016Y-89600734D01*
X153219444Y-89732764D01*
X153189170Y-89832568D01*
X153175988Y-89876024D01*
X153164991Y-89987677D01*
X153161314Y-90025010D01*
X153164991Y-90062342D01*
X153164990Y-95497370D01*
X149915491Y-98746869D01*
X149916569Y-98741452D01*
X149916569Y-98537574D01*
X149876795Y-98337615D01*
X149798774Y-98149257D01*
X149774427Y-98112820D01*
X149845226Y-97941898D01*
X149885000Y-97741939D01*
X149885000Y-97679802D01*
X150186014Y-97378788D01*
X150215011Y-97354991D01*
X150309984Y-97239266D01*
X150380556Y-97107237D01*
X150424013Y-96963976D01*
X150435010Y-96852323D01*
X150435010Y-96852314D01*
X150438686Y-96814991D01*
X150435010Y-96777668D01*
X150435010Y-90062332D01*
X150438686Y-90025009D01*
X150435010Y-89987686D01*
X150435010Y-89987677D01*
X150424013Y-89876024D01*
X150380556Y-89732763D01*
X150322678Y-89624482D01*
X150309984Y-89600733D01*
X150238809Y-89514007D01*
X150215011Y-89485009D01*
X150186013Y-89461211D01*
X149905885Y-89181084D01*
X149963513Y-88991111D01*
X149992185Y-88700000D01*
X149963513Y-88408889D01*
X149878599Y-88128966D01*
X149740706Y-87870986D01*
X149555134Y-87644866D01*
X149329014Y-87459294D01*
X149071034Y-87321401D01*
X148791111Y-87236487D01*
X148572950Y-87215000D01*
X148127050Y-87215000D01*
X147908889Y-87236487D01*
X147628966Y-87321401D01*
X147370986Y-87459294D01*
X147144866Y-87644866D01*
X146959294Y-87870986D01*
X146821401Y-88128966D01*
X146736487Y-88408889D01*
X146707815Y-88700000D01*
X146736487Y-88991111D01*
X146821401Y-89271034D01*
X146959294Y-89529014D01*
X147140608Y-89749945D01*
X147105820Y-89760498D01*
X146995506Y-89819463D01*
X146898815Y-89898815D01*
X146819463Y-89995506D01*
X146760498Y-90105820D01*
X146724188Y-90225518D01*
X146711928Y-90350000D01*
X146715000Y-90914250D01*
X146873750Y-91073000D01*
X148223000Y-91073000D01*
X148223000Y-91053000D01*
X148477000Y-91053000D01*
X148477000Y-91073000D01*
X148497000Y-91073000D01*
X148497000Y-91327000D01*
X148477000Y-91327000D01*
X148477000Y-92526250D01*
X148635750Y-92685000D01*
X148915011Y-92686201D01*
X148915010Y-96500188D01*
X148810198Y-96605000D01*
X148748061Y-96605000D01*
X148565728Y-96641268D01*
X148565728Y-95093053D01*
X148569404Y-95055728D01*
X148565728Y-95018403D01*
X148565728Y-95018395D01*
X148554731Y-94906742D01*
X148511274Y-94763481D01*
X148440702Y-94631452D01*
X148345729Y-94515727D01*
X148316732Y-94491930D01*
X145874802Y-92050000D01*
X146711928Y-92050000D01*
X146724188Y-92174482D01*
X146760498Y-92294180D01*
X146819463Y-92404494D01*
X146898815Y-92501185D01*
X146995506Y-92580537D01*
X147105820Y-92639502D01*
X147225518Y-92675812D01*
X147350000Y-92688072D01*
X148064250Y-92685000D01*
X148223000Y-92526250D01*
X148223000Y-91327000D01*
X146873750Y-91327000D01*
X146715000Y-91485750D01*
X146711928Y-92050000D01*
X145874802Y-92050000D01*
X143005885Y-89181084D01*
X143063513Y-88991111D01*
X143092185Y-88700000D01*
X143063513Y-88408889D01*
X142978599Y-88128966D01*
X142840706Y-87870986D01*
X142655134Y-87644866D01*
X142429014Y-87459294D01*
X142171034Y-87321401D01*
X141891111Y-87236487D01*
X141672950Y-87215000D01*
X141227050Y-87215000D01*
X141008889Y-87236487D01*
X140728966Y-87321401D01*
X140470986Y-87459294D01*
X140244866Y-87644866D01*
X140059294Y-87870986D01*
X139921401Y-88128966D01*
X139836487Y-88408889D01*
X139807815Y-88700000D01*
X139836487Y-88991111D01*
X139921401Y-89271034D01*
X140059294Y-89529014D01*
X140240608Y-89749945D01*
X140205820Y-89760498D01*
X140095506Y-89819463D01*
X139998815Y-89898815D01*
X139919463Y-89995506D01*
X139860498Y-90105820D01*
X139824188Y-90225518D01*
X139811928Y-90350000D01*
X139815000Y-90914250D01*
X139973750Y-91073000D01*
X141323000Y-91073000D01*
X141323000Y-91053000D01*
X141577000Y-91053000D01*
X141577000Y-91073000D01*
X141597000Y-91073000D01*
X141597000Y-91327000D01*
X141577000Y-91327000D01*
X141577000Y-92526250D01*
X141735750Y-92685000D01*
X142450000Y-92688072D01*
X142574482Y-92675812D01*
X142694180Y-92639502D01*
X142804494Y-92580537D01*
X142901185Y-92501185D01*
X142980537Y-92404494D01*
X143039502Y-92294180D01*
X143075812Y-92174482D01*
X143088072Y-92050000D01*
X143085000Y-91485750D01*
X142926252Y-91327002D01*
X143002201Y-91327002D01*
X147045728Y-95370530D01*
X147045729Y-96571922D01*
X146886622Y-96540274D01*
X146682744Y-96540274D01*
X146482785Y-96580048D01*
X146294427Y-96658069D01*
X146124909Y-96771337D01*
X146080972Y-96815274D01*
X144990076Y-96815274D01*
X140861105Y-92686304D01*
X141164250Y-92685000D01*
X141323000Y-92526250D01*
X141323000Y-91327000D01*
X139973750Y-91327000D01*
X139815000Y-91485750D01*
X139814164Y-91639362D01*
X136363804Y-88189003D01*
X136340001Y-88159999D01*
X136224276Y-88065026D01*
X136092247Y-87994454D01*
X135990146Y-87963483D01*
X135940706Y-87870986D01*
X135755134Y-87644866D01*
X135529014Y-87459294D01*
X135271034Y-87321401D01*
X134991111Y-87236487D01*
X134772950Y-87215000D01*
X134327050Y-87215000D01*
X134108889Y-87236487D01*
X133828966Y-87321401D01*
X133570986Y-87459294D01*
X133344866Y-87644866D01*
X133159294Y-87870986D01*
X133021401Y-88128966D01*
X132936487Y-88408889D01*
X132907815Y-88700000D01*
X132148000Y-88700000D01*
X132148000Y-86326977D01*
X132155430Y-86246437D01*
X132168630Y-86201791D01*
X132190250Y-86160560D01*
X132219465Y-86124316D01*
X132255162Y-86094437D01*
X132295987Y-86072059D01*
X132340380Y-86058037D01*
X132415368Y-86049719D01*
X175445847Y-86049743D01*
G37*
X175445847Y-86049743D02*
X175535001Y-86058960D01*
X175591338Y-86076294D01*
X175643234Y-86104240D01*
X175688715Y-86141736D01*
X175726044Y-86187346D01*
X175753803Y-86239340D01*
X175770937Y-86295742D01*
X175779951Y-86386096D01*
X175790152Y-110638186D01*
X175722036Y-111332885D01*
X175529620Y-111970196D01*
X175217084Y-112557991D01*
X174796331Y-113073886D01*
X174283378Y-113498237D01*
X173697781Y-113814868D01*
X173061825Y-114011730D01*
X172369575Y-114084488D01*
X172352630Y-114084500D01*
X135584278Y-114084500D01*
X134891442Y-114016567D01*
X134256042Y-113824728D01*
X133670009Y-113513130D01*
X133155653Y-113093630D01*
X132732581Y-112582225D01*
X132416897Y-111998378D01*
X132220625Y-111364330D01*
X132148000Y-110673345D01*
X132148000Y-110467721D01*
X134503000Y-110467721D01*
X134503000Y-110888279D01*
X134585047Y-111300756D01*
X134745988Y-111689302D01*
X134979637Y-112038983D01*
X135277017Y-112336363D01*
X135626698Y-112570012D01*
X136015244Y-112730953D01*
X136427721Y-112813000D01*
X136848279Y-112813000D01*
X137260756Y-112730953D01*
X137649302Y-112570012D01*
X137998983Y-112336363D01*
X138296363Y-112038983D01*
X138530012Y-111689302D01*
X138690953Y-111300756D01*
X138773000Y-110888279D01*
X138773000Y-110467721D01*
X138690953Y-110055244D01*
X138530012Y-109666698D01*
X138296363Y-109317017D01*
X137998983Y-109019637D01*
X137649302Y-108785988D01*
X137260756Y-108625047D01*
X136848279Y-108543000D01*
X136427721Y-108543000D01*
X136015244Y-108625047D01*
X135626698Y-108785988D01*
X135277017Y-109019637D01*
X134979637Y-109317017D01*
X134745988Y-109666698D01*
X134585047Y-110055244D01*
X134503000Y-110467721D01*
X132148000Y-110467721D01*
X132148000Y-105483454D01*
X140798780Y-105483454D01*
X140798780Y-106710685D01*
X140817077Y-106896454D01*
X140889382Y-107134813D01*
X141006800Y-107354487D01*
X141164817Y-107547033D01*
X141357362Y-107705050D01*
X141577036Y-107822468D01*
X141815395Y-107894773D01*
X141860094Y-107899176D01*
X141840494Y-107928509D01*
X141670131Y-108339802D01*
X141583280Y-108776429D01*
X141583280Y-109221611D01*
X141670131Y-109658238D01*
X141840494Y-110069531D01*
X142087824Y-110439686D01*
X142402614Y-110754476D01*
X142772769Y-111001806D01*
X143184062Y-111172169D01*
X143620689Y-111259020D01*
X144065871Y-111259020D01*
X144502498Y-111172169D01*
X144913791Y-111001806D01*
X145283946Y-110754476D01*
X145598736Y-110439686D01*
X145846066Y-110069531D01*
X146016429Y-109658238D01*
X146103280Y-109221611D01*
X146103280Y-108776429D01*
X146016429Y-108339802D01*
X145846066Y-107928509D01*
X145598736Y-107558354D01*
X145283946Y-107243564D01*
X144913791Y-106996234D01*
X144502498Y-106825871D01*
X144065871Y-106739020D01*
X143620689Y-106739020D01*
X143319080Y-106799014D01*
X143327780Y-106710686D01*
X143327780Y-105483454D01*
X143309483Y-105297685D01*
X143237178Y-105059326D01*
X143119760Y-104839652D01*
X142961743Y-104647107D01*
X142769198Y-104489090D01*
X142549524Y-104371672D01*
X142311165Y-104299367D01*
X142063280Y-104274952D01*
X141815396Y-104299367D01*
X141577037Y-104371672D01*
X141357363Y-104489090D01*
X141164818Y-104647107D01*
X141006800Y-104839652D01*
X140889382Y-105059326D01*
X140817077Y-105297685D01*
X140798780Y-105483454D01*
X132148000Y-105483454D01*
X132148000Y-100713740D01*
X133375000Y-100713740D01*
X133375000Y-101006260D01*
X133432068Y-101293158D01*
X133544010Y-101563411D01*
X133706525Y-101806632D01*
X133913368Y-102013475D01*
X134087760Y-102130000D01*
X133913368Y-102246525D01*
X133706525Y-102453368D01*
X133544010Y-102696589D01*
X133432068Y-102966842D01*
X133375000Y-103253740D01*
X133375000Y-103546260D01*
X133432068Y-103833158D01*
X133544010Y-104103411D01*
X133706525Y-104346632D01*
X133913368Y-104553475D01*
X134156589Y-104715990D01*
X134426842Y-104827932D01*
X134713740Y-104885000D01*
X135006260Y-104885000D01*
X135293158Y-104827932D01*
X135563411Y-104715990D01*
X135806632Y-104553475D01*
X135938487Y-104421620D01*
X135960498Y-104494180D01*
X136019463Y-104604494D01*
X136098815Y-104701185D01*
X136195506Y-104780537D01*
X136305820Y-104839502D01*
X136425518Y-104875812D01*
X136550000Y-104888072D01*
X138250000Y-104888072D01*
X138374482Y-104875812D01*
X138494180Y-104839502D01*
X138604494Y-104780537D01*
X138701185Y-104701185D01*
X138780537Y-104604494D01*
X138839502Y-104494180D01*
X138875812Y-104374482D01*
X138888072Y-104250000D01*
X138888072Y-102550000D01*
X138875812Y-102425518D01*
X138839502Y-102305820D01*
X138780537Y-102195506D01*
X138701185Y-102098815D01*
X138604494Y-102019463D01*
X138494180Y-101960498D01*
X138421620Y-101938487D01*
X138553475Y-101806632D01*
X138715990Y-101563411D01*
X138827932Y-101293158D01*
X138885000Y-101006260D01*
X138885000Y-100713740D01*
X138827932Y-100426842D01*
X138715990Y-100156589D01*
X138553475Y-99913368D01*
X138346632Y-99706525D01*
X138164466Y-99584805D01*
X138281355Y-99515178D01*
X138497588Y-99320269D01*
X138671641Y-99086920D01*
X138796825Y-98824099D01*
X138841476Y-98676890D01*
X138720155Y-98447000D01*
X137527000Y-98447000D01*
X137527000Y-98467000D01*
X137273000Y-98467000D01*
X137273000Y-98447000D01*
X136079845Y-98447000D01*
X135958524Y-98676890D01*
X136003175Y-98824099D01*
X136128359Y-99086920D01*
X136302412Y-99320269D01*
X136518645Y-99515178D01*
X136635534Y-99584805D01*
X136453368Y-99706525D01*
X136246525Y-99913368D01*
X136130000Y-100087760D01*
X136013475Y-99913368D01*
X135806632Y-99706525D01*
X135563411Y-99544010D01*
X135293158Y-99432068D01*
X135006260Y-99375000D01*
X134713740Y-99375000D01*
X134426842Y-99432068D01*
X134156589Y-99544010D01*
X133913368Y-99706525D01*
X133706525Y-99913368D01*
X133544010Y-100156589D01*
X133432068Y-100426842D01*
X133375000Y-100713740D01*
X132148000Y-100713740D01*
X132148000Y-97963110D01*
X135958524Y-97963110D01*
X136079845Y-98193000D01*
X137273000Y-98193000D01*
X137273000Y-96999186D01*
X137527000Y-96999186D01*
X137527000Y-98193000D01*
X138720155Y-98193000D01*
X138841476Y-97963110D01*
X138796825Y-97815901D01*
X138671641Y-97553080D01*
X138497588Y-97319731D01*
X138281355Y-97124822D01*
X138031252Y-96975843D01*
X137756891Y-96878519D01*
X137527000Y-96999186D01*
X137273000Y-96999186D01*
X137043109Y-96878519D01*
X136768748Y-96975843D01*
X136518645Y-97124822D01*
X136302412Y-97319731D01*
X136128359Y-97553080D01*
X136003175Y-97815901D01*
X135958524Y-97963110D01*
X132148000Y-97963110D01*
X132148000Y-92050000D01*
X132911928Y-92050000D01*
X132924188Y-92174482D01*
X132960498Y-92294180D01*
X133019463Y-92404494D01*
X133098815Y-92501185D01*
X133195506Y-92580537D01*
X133305820Y-92639502D01*
X133425518Y-92675812D01*
X133550000Y-92688072D01*
X134264250Y-92685000D01*
X134423000Y-92526250D01*
X134423000Y-91327000D01*
X134677000Y-91327000D01*
X134677000Y-92526250D01*
X134835750Y-92685000D01*
X135550000Y-92688072D01*
X135674482Y-92675812D01*
X135794180Y-92639502D01*
X135904494Y-92580537D01*
X136001185Y-92501185D01*
X136080537Y-92404494D01*
X136139502Y-92294180D01*
X136175812Y-92174482D01*
X136188072Y-92050000D01*
X136185000Y-91485750D01*
X136026250Y-91327000D01*
X134677000Y-91327000D01*
X134423000Y-91327000D01*
X133073750Y-91327000D01*
X132915000Y-91485750D01*
X132911928Y-92050000D01*
X132148000Y-92050000D01*
X132148000Y-88700000D01*
X132907815Y-88700000D01*
X132936487Y-88991111D01*
X133021401Y-89271034D01*
X133159294Y-89529014D01*
X133340608Y-89749945D01*
X133305820Y-89760498D01*
X133195506Y-89819463D01*
X133098815Y-89898815D01*
X133019463Y-89995506D01*
X132960498Y-90105820D01*
X132924188Y-90225518D01*
X132911928Y-90350000D01*
X132915000Y-90914250D01*
X133073750Y-91073000D01*
X134423000Y-91073000D01*
X134423000Y-91053000D01*
X134677000Y-91053000D01*
X134677000Y-91073000D01*
X136026250Y-91073000D01*
X136185000Y-90914250D01*
X136188072Y-90350000D01*
X136175812Y-90225518D01*
X136143196Y-90117997D01*
X143488134Y-97462936D01*
X143349341Y-97601729D01*
X143236073Y-97771247D01*
X143158052Y-97959605D01*
X143118278Y-98159564D01*
X143118278Y-98363442D01*
X143158052Y-98563401D01*
X143236073Y-98751759D01*
X143349341Y-98921277D01*
X143493504Y-99065440D01*
X143570265Y-99116730D01*
X143531244Y-99148754D01*
X143507446Y-99177752D01*
X142140199Y-100545000D01*
X142078061Y-100545000D01*
X141878102Y-100584774D01*
X141689744Y-100662795D01*
X141520226Y-100776063D01*
X141376063Y-100920226D01*
X141262795Y-101089744D01*
X141184774Y-101278102D01*
X141145000Y-101478061D01*
X141145000Y-101681939D01*
X141184774Y-101881898D01*
X141262795Y-102070256D01*
X141376063Y-102239774D01*
X141520226Y-102383937D01*
X141689744Y-102497205D01*
X141878102Y-102575226D01*
X142078061Y-102615000D01*
X142281939Y-102615000D01*
X142481898Y-102575226D01*
X142670256Y-102497205D01*
X142839774Y-102383937D01*
X142983937Y-102239774D01*
X143097205Y-102070256D01*
X143175226Y-101881898D01*
X143215000Y-101681939D01*
X143215000Y-101619801D01*
X144386047Y-100448755D01*
X145107781Y-100448755D01*
X145049744Y-100472795D01*
X144880226Y-100586063D01*
X144736063Y-100730226D01*
X144622795Y-100899744D01*
X144544774Y-101088102D01*
X144505000Y-101288061D01*
X144505000Y-101491939D01*
X144544774Y-101691898D01*
X144622795Y-101880256D01*
X144736063Y-102049774D01*
X144781289Y-102095000D01*
X144646063Y-102230226D01*
X144532795Y-102399744D01*
X144454774Y-102588102D01*
X144415000Y-102788061D01*
X144415000Y-102991939D01*
X144454774Y-103191898D01*
X144532795Y-103380256D01*
X144646063Y-103549774D01*
X144690000Y-103593711D01*
X144690001Y-105810110D01*
X144686324Y-105847442D01*
X144700998Y-105996427D01*
X144744454Y-106139688D01*
X144815026Y-106271718D01*
X144886201Y-106358444D01*
X144910000Y-106387443D01*
X144938998Y-106411241D01*
X146572780Y-108045024D01*
X146596578Y-108074022D01*
X146625576Y-108097820D01*
X146712302Y-108168995D01*
X146844332Y-108239567D01*
X146987593Y-108283024D01*
X147099246Y-108294021D01*
X147099256Y-108294021D01*
X147136579Y-108297697D01*
X147173902Y-108294021D01*
X148570257Y-108294021D01*
X148607579Y-108297697D01*
X148644901Y-108294021D01*
X148644912Y-108294021D01*
X148756565Y-108283024D01*
X148899826Y-108239567D01*
X149031855Y-108168995D01*
X149147580Y-108074022D01*
X149171383Y-108045019D01*
X149401215Y-107815187D01*
X149546169Y-107844020D01*
X149818991Y-107844020D01*
X150086569Y-107790795D01*
X150338623Y-107686391D01*
X150565466Y-107534819D01*
X150697580Y-107402705D01*
X150829694Y-107534819D01*
X151056537Y-107686391D01*
X151308591Y-107790795D01*
X151576169Y-107844020D01*
X151848991Y-107844020D01*
X151993945Y-107815187D01*
X152223782Y-108045024D01*
X152247580Y-108074022D01*
X152276578Y-108097820D01*
X152363304Y-108168995D01*
X152495334Y-108239567D01*
X152638595Y-108283024D01*
X152750248Y-108294021D01*
X152750258Y-108294021D01*
X152787581Y-108297697D01*
X152824903Y-108294021D01*
X154389094Y-108294021D01*
X154370131Y-108339802D01*
X154283280Y-108776429D01*
X154283280Y-109221611D01*
X154370131Y-109658238D01*
X154540494Y-110069531D01*
X154787824Y-110439686D01*
X155102614Y-110754476D01*
X155472769Y-111001806D01*
X155884062Y-111172169D01*
X156320689Y-111259020D01*
X156765871Y-111259020D01*
X157202498Y-111172169D01*
X157613791Y-111001806D01*
X157983946Y-110754476D01*
X158270701Y-110467721D01*
X162203000Y-110467721D01*
X162203000Y-110888279D01*
X162285047Y-111300756D01*
X162445988Y-111689302D01*
X162679637Y-112038983D01*
X162977017Y-112336363D01*
X163326698Y-112570012D01*
X163715244Y-112730953D01*
X164127721Y-112813000D01*
X164548279Y-112813000D01*
X164960756Y-112730953D01*
X165349302Y-112570012D01*
X165698983Y-112336363D01*
X165996363Y-112038983D01*
X166230012Y-111689302D01*
X166390953Y-111300756D01*
X166473000Y-110888279D01*
X166473000Y-110559742D01*
X169328715Y-110559742D01*
X169397904Y-110842745D01*
X169520975Y-111106812D01*
X169693198Y-111341795D01*
X169907954Y-111538664D01*
X170156991Y-111689854D01*
X170430739Y-111789554D01*
X170443110Y-111791476D01*
X170673000Y-111670155D01*
X170673000Y-110327000D01*
X169472768Y-110327000D01*
X169328715Y-110559742D01*
X166473000Y-110559742D01*
X166473000Y-110467721D01*
X166390953Y-110055244D01*
X166301903Y-109840258D01*
X169328715Y-109840258D01*
X169472768Y-110073000D01*
X170673000Y-110073000D01*
X170673000Y-108729845D01*
X170927000Y-108729845D01*
X170927000Y-110073000D01*
X170947000Y-110073000D01*
X170947000Y-110327000D01*
X170927000Y-110327000D01*
X170927000Y-111670155D01*
X171156890Y-111791476D01*
X171169261Y-111789554D01*
X171443009Y-111689854D01*
X171692046Y-111538664D01*
X171906802Y-111341795D01*
X171907086Y-111341407D01*
X171961595Y-111443386D01*
X172072038Y-111577962D01*
X172206614Y-111688405D01*
X172360150Y-111770472D01*
X172526746Y-111821008D01*
X172700000Y-111838072D01*
X173900000Y-111838072D01*
X174073254Y-111821008D01*
X174239850Y-111770472D01*
X174393386Y-111688405D01*
X174527962Y-111577962D01*
X174638405Y-111443386D01*
X174720472Y-111289850D01*
X174771008Y-111123254D01*
X174788072Y-110950000D01*
X174788072Y-109450000D01*
X174771008Y-109276746D01*
X174720472Y-109110150D01*
X174638405Y-108956614D01*
X174527962Y-108822038D01*
X174393386Y-108711595D01*
X174239850Y-108629528D01*
X174073254Y-108578992D01*
X173900000Y-108561928D01*
X172700000Y-108561928D01*
X172526746Y-108578992D01*
X172360150Y-108629528D01*
X172206614Y-108711595D01*
X172072038Y-108822038D01*
X171961595Y-108956614D01*
X171907086Y-109058593D01*
X171906802Y-109058205D01*
X171692046Y-108861336D01*
X171443009Y-108710146D01*
X171169261Y-108610446D01*
X171156890Y-108608524D01*
X170927000Y-108729845D01*
X170673000Y-108729845D01*
X170443110Y-108608524D01*
X170430739Y-108610446D01*
X170156991Y-108710146D01*
X169907954Y-108861336D01*
X169693198Y-109058205D01*
X169520975Y-109293188D01*
X169397904Y-109557255D01*
X169328715Y-109840258D01*
X166301903Y-109840258D01*
X166230012Y-109666698D01*
X165996363Y-109317017D01*
X165698983Y-109019637D01*
X165349302Y-108785988D01*
X164960756Y-108625047D01*
X164548279Y-108543000D01*
X164127721Y-108543000D01*
X163715244Y-108625047D01*
X163326698Y-108785988D01*
X162977017Y-109019637D01*
X162679637Y-109317017D01*
X162445988Y-109666698D01*
X162285047Y-110055244D01*
X162203000Y-110467721D01*
X158270701Y-110467721D01*
X158298736Y-110439686D01*
X158546066Y-110069531D01*
X158716429Y-109658238D01*
X158803280Y-109221611D01*
X158803280Y-108776429D01*
X158716429Y-108339802D01*
X158546066Y-107928509D01*
X158526466Y-107899175D01*
X158571164Y-107894773D01*
X158809523Y-107822468D01*
X159029197Y-107705050D01*
X159221743Y-107547033D01*
X159379760Y-107354488D01*
X159497178Y-107134814D01*
X159569483Y-106896455D01*
X159587780Y-106710686D01*
X159587780Y-105483454D01*
X159569483Y-105297685D01*
X159497178Y-105059326D01*
X159379760Y-104839652D01*
X159221743Y-104647107D01*
X159029198Y-104489090D01*
X158926960Y-104434443D01*
X159701661Y-103659742D01*
X160828715Y-103659742D01*
X160897904Y-103942745D01*
X161020975Y-104206812D01*
X161193198Y-104441795D01*
X161407954Y-104638664D01*
X161656991Y-104789854D01*
X161930739Y-104889554D01*
X161943110Y-104891476D01*
X162173000Y-104770155D01*
X162173000Y-103427000D01*
X160972768Y-103427000D01*
X160828715Y-103659742D01*
X159701661Y-103659742D01*
X161165755Y-102195649D01*
X161020975Y-102393188D01*
X160897904Y-102657255D01*
X160828715Y-102940258D01*
X160972768Y-103173000D01*
X162173000Y-103173000D01*
X162173000Y-101829845D01*
X162427000Y-101829845D01*
X162427000Y-103173000D01*
X162447000Y-103173000D01*
X162447000Y-103427000D01*
X162427000Y-103427000D01*
X162427000Y-104770155D01*
X162656890Y-104891476D01*
X162669261Y-104889554D01*
X162943009Y-104789854D01*
X163192046Y-104638664D01*
X163406802Y-104441795D01*
X163407086Y-104441407D01*
X163461595Y-104543386D01*
X163572038Y-104677962D01*
X163706614Y-104788405D01*
X163860150Y-104870472D01*
X164026746Y-104921008D01*
X164200000Y-104938072D01*
X165400000Y-104938072D01*
X165573254Y-104921008D01*
X165739850Y-104870472D01*
X165893386Y-104788405D01*
X166027962Y-104677962D01*
X166138405Y-104543386D01*
X166220472Y-104389850D01*
X166271008Y-104223254D01*
X166288072Y-104050000D01*
X166288072Y-103659742D01*
X169328715Y-103659742D01*
X169397904Y-103942745D01*
X169520975Y-104206812D01*
X169693198Y-104441795D01*
X169907954Y-104638664D01*
X170156991Y-104789854D01*
X170430739Y-104889554D01*
X170443110Y-104891476D01*
X170673000Y-104770155D01*
X170673000Y-103427000D01*
X169472768Y-103427000D01*
X169328715Y-103659742D01*
X166288072Y-103659742D01*
X166288072Y-102940258D01*
X169328715Y-102940258D01*
X169472768Y-103173000D01*
X170673000Y-103173000D01*
X170673000Y-101829845D01*
X170927000Y-101829845D01*
X170927000Y-103173000D01*
X170947000Y-103173000D01*
X170947000Y-103427000D01*
X170927000Y-103427000D01*
X170927000Y-104770155D01*
X171156890Y-104891476D01*
X171169261Y-104889554D01*
X171443009Y-104789854D01*
X171692046Y-104638664D01*
X171906802Y-104441795D01*
X171907086Y-104441407D01*
X171961595Y-104543386D01*
X172072038Y-104677962D01*
X172206614Y-104788405D01*
X172360150Y-104870472D01*
X172526746Y-104921008D01*
X172700000Y-104938072D01*
X173900000Y-104938072D01*
X174073254Y-104921008D01*
X174239850Y-104870472D01*
X174393386Y-104788405D01*
X174527962Y-104677962D01*
X174638405Y-104543386D01*
X174720472Y-104389850D01*
X174771008Y-104223254D01*
X174788072Y-104050000D01*
X174788072Y-102550000D01*
X174771008Y-102376746D01*
X174720472Y-102210150D01*
X174638405Y-102056614D01*
X174527962Y-101922038D01*
X174393386Y-101811595D01*
X174239850Y-101729528D01*
X174073254Y-101678992D01*
X173900000Y-101661928D01*
X172700000Y-101661928D01*
X172526746Y-101678992D01*
X172360150Y-101729528D01*
X172206614Y-101811595D01*
X172072038Y-101922038D01*
X171961595Y-102056614D01*
X171907086Y-102158593D01*
X171906802Y-102158205D01*
X171692046Y-101961336D01*
X171443009Y-101810146D01*
X171169261Y-101710446D01*
X171156890Y-101708524D01*
X170927000Y-101829845D01*
X170673000Y-101829845D01*
X170443110Y-101708524D01*
X170430739Y-101710446D01*
X170156991Y-101810146D01*
X169907954Y-101961336D01*
X169693198Y-102158205D01*
X169520975Y-102393188D01*
X169397904Y-102657255D01*
X169328715Y-102940258D01*
X166288072Y-102940258D01*
X166288072Y-102550000D01*
X166271008Y-102376746D01*
X166220472Y-102210150D01*
X166138405Y-102056614D01*
X166027962Y-101922038D01*
X165893386Y-101811595D01*
X165739850Y-101729528D01*
X165573254Y-101678992D01*
X165400000Y-101661928D01*
X164200000Y-101661928D01*
X164026746Y-101678992D01*
X163860150Y-101729528D01*
X163706614Y-101811595D01*
X163572038Y-101922038D01*
X163461595Y-102056614D01*
X163407086Y-102158593D01*
X163406802Y-102158205D01*
X163192046Y-101961336D01*
X162943009Y-101810146D01*
X162669261Y-101710446D01*
X162656890Y-101708524D01*
X162427000Y-101829845D01*
X162173000Y-101829845D01*
X161943110Y-101708524D01*
X161930739Y-101710446D01*
X161656991Y-101810146D01*
X161407954Y-101961336D01*
X161313269Y-102048135D01*
X164035994Y-99325410D01*
X164064991Y-99301613D01*
X164159964Y-99185888D01*
X164230536Y-99053859D01*
X164273993Y-98910598D01*
X164284990Y-98798945D01*
X164284990Y-98798937D01*
X164288666Y-98761612D01*
X164284990Y-98724287D01*
X164284990Y-98038072D01*
X165300000Y-98038072D01*
X165473254Y-98021008D01*
X165639850Y-97970472D01*
X165793386Y-97888405D01*
X165927962Y-97777962D01*
X166038405Y-97643386D01*
X166120472Y-97489850D01*
X166171008Y-97323254D01*
X166188072Y-97150000D01*
X166188072Y-96759742D01*
X169228715Y-96759742D01*
X169297904Y-97042745D01*
X169420975Y-97306812D01*
X169593198Y-97541795D01*
X169807954Y-97738664D01*
X170056991Y-97889854D01*
X170330739Y-97989554D01*
X170343110Y-97991476D01*
X170573000Y-97870155D01*
X170573000Y-96527000D01*
X169372768Y-96527000D01*
X169228715Y-96759742D01*
X166188072Y-96759742D01*
X166188072Y-96040258D01*
X169228715Y-96040258D01*
X169372768Y-96273000D01*
X170573000Y-96273000D01*
X170573000Y-94929845D01*
X170827000Y-94929845D01*
X170827000Y-96273000D01*
X170847000Y-96273000D01*
X170847000Y-96527000D01*
X170827000Y-96527000D01*
X170827000Y-97870155D01*
X171056890Y-97991476D01*
X171069261Y-97989554D01*
X171343009Y-97889854D01*
X171592046Y-97738664D01*
X171806802Y-97541795D01*
X171807086Y-97541407D01*
X171861595Y-97643386D01*
X171972038Y-97777962D01*
X172106614Y-97888405D01*
X172260150Y-97970472D01*
X172426746Y-98021008D01*
X172600000Y-98038072D01*
X173800000Y-98038072D01*
X173973254Y-98021008D01*
X174139850Y-97970472D01*
X174293386Y-97888405D01*
X174427962Y-97777962D01*
X174538405Y-97643386D01*
X174620472Y-97489850D01*
X174671008Y-97323254D01*
X174688072Y-97150000D01*
X174688072Y-95650000D01*
X174671008Y-95476746D01*
X174620472Y-95310150D01*
X174538405Y-95156614D01*
X174427962Y-95022038D01*
X174293386Y-94911595D01*
X174139850Y-94829528D01*
X173973254Y-94778992D01*
X173800000Y-94761928D01*
X172600000Y-94761928D01*
X172426746Y-94778992D01*
X172260150Y-94829528D01*
X172106614Y-94911595D01*
X171972038Y-95022038D01*
X171861595Y-95156614D01*
X171807086Y-95258593D01*
X171806802Y-95258205D01*
X171592046Y-95061336D01*
X171343009Y-94910146D01*
X171069261Y-94810446D01*
X171056890Y-94808524D01*
X170827000Y-94929845D01*
X170573000Y-94929845D01*
X170343110Y-94808524D01*
X170330739Y-94810446D01*
X170056991Y-94910146D01*
X169807954Y-95061336D01*
X169593198Y-95258205D01*
X169420975Y-95493188D01*
X169297904Y-95757255D01*
X169228715Y-96040258D01*
X166188072Y-96040258D01*
X166188072Y-95650000D01*
X166171008Y-95476746D01*
X166120472Y-95310150D01*
X166038405Y-95156614D01*
X165927962Y-95022038D01*
X165793386Y-94911595D01*
X165639850Y-94829528D01*
X165473254Y-94778992D01*
X165300000Y-94761928D01*
X164284990Y-94761928D01*
X164284990Y-90075928D01*
X164408890Y-90113513D01*
X164700000Y-90142185D01*
X164991111Y-90113513D01*
X165271034Y-90028599D01*
X165529014Y-89890706D01*
X165755134Y-89705134D01*
X165923483Y-89500000D01*
X169211928Y-89500000D01*
X169224188Y-89624482D01*
X169260498Y-89744180D01*
X169319463Y-89854494D01*
X169398815Y-89951185D01*
X169495506Y-90030537D01*
X169605820Y-90089502D01*
X169725518Y-90125812D01*
X169850000Y-90138072D01*
X170414250Y-90135000D01*
X170573000Y-89976250D01*
X170573000Y-88627000D01*
X169373750Y-88627000D01*
X169215000Y-88785750D01*
X169211928Y-89500000D01*
X165923483Y-89500000D01*
X165940706Y-89479014D01*
X166078599Y-89221033D01*
X166163513Y-88941110D01*
X166185000Y-88722949D01*
X166185000Y-88277050D01*
X166163513Y-88058889D01*
X166125929Y-87934990D01*
X169213799Y-87934990D01*
X169215000Y-88214250D01*
X169373750Y-88373000D01*
X170573000Y-88373000D01*
X170573000Y-88353000D01*
X170827000Y-88353000D01*
X170827000Y-88373000D01*
X170847000Y-88373000D01*
X170847000Y-88627000D01*
X170827000Y-88627000D01*
X170827000Y-89976250D01*
X170985750Y-90135000D01*
X171550000Y-90138072D01*
X171674482Y-90125812D01*
X171794180Y-90089502D01*
X171904494Y-90030537D01*
X172001185Y-89951185D01*
X172080537Y-89854494D01*
X172139502Y-89744180D01*
X172150055Y-89709392D01*
X172370987Y-89890706D01*
X172628967Y-90028599D01*
X172908890Y-90113513D01*
X173200000Y-90142185D01*
X173491111Y-90113513D01*
X173771034Y-90028599D01*
X174029014Y-89890706D01*
X174255134Y-89705134D01*
X174440706Y-89479014D01*
X174578599Y-89221033D01*
X174663513Y-88941110D01*
X174685000Y-88722949D01*
X174685000Y-88277050D01*
X174663513Y-88058889D01*
X174578599Y-87778966D01*
X174440706Y-87520986D01*
X174255134Y-87294866D01*
X174029013Y-87109294D01*
X173771033Y-86971401D01*
X173491110Y-86886487D01*
X173200000Y-86857815D01*
X172908889Y-86886487D01*
X172718916Y-86944115D01*
X172438794Y-86663993D01*
X172414991Y-86634989D01*
X172299266Y-86540016D01*
X172167237Y-86469444D01*
X172023976Y-86425987D01*
X171912323Y-86414990D01*
X171912312Y-86414990D01*
X171874990Y-86411314D01*
X171837668Y-86414990D01*
X161399153Y-86414990D01*
X161361820Y-86411313D01*
X161324487Y-86414990D01*
X161212834Y-86425987D01*
X161069573Y-86469444D01*
X160937544Y-86540016D01*
X160821819Y-86634989D01*
X160798016Y-86663993D01*
X160513988Y-86948021D01*
X160484990Y-86971819D01*
X160461192Y-87000817D01*
X160461191Y-87000818D01*
X160390016Y-87087544D01*
X160319444Y-87219574D01*
X160275988Y-87362835D01*
X160261314Y-87511820D01*
X160264991Y-87549152D01*
X160264990Y-94031808D01*
X150973945Y-103322853D01*
X150828991Y-103294020D01*
X150556169Y-103294020D01*
X150288591Y-103347245D01*
X150036537Y-103451649D01*
X149809694Y-103603221D01*
X149677580Y-103735335D01*
X149545466Y-103603221D01*
X149318623Y-103451649D01*
X149066569Y-103347245D01*
X148798991Y-103294020D01*
X148526169Y-103294020D01*
X148381215Y-103322853D01*
X147954647Y-102896286D01*
X147915226Y-102698102D01*
X147837205Y-102509744D01*
X147723937Y-102340226D01*
X147579774Y-102196063D01*
X147510836Y-102150000D01*
X148309840Y-102150000D01*
X148347162Y-102153676D01*
X148384484Y-102150000D01*
X148384495Y-102150000D01*
X148496148Y-102139003D01*
X148639409Y-102095546D01*
X148771438Y-102024974D01*
X148887163Y-101930001D01*
X148910966Y-101900997D01*
X154435994Y-96375970D01*
X154464991Y-96352173D01*
X154491322Y-96320089D01*
X154559964Y-96236449D01*
X154630536Y-96104419D01*
X154630536Y-96104418D01*
X154673993Y-95961158D01*
X154684990Y-95849505D01*
X154684990Y-95849495D01*
X154688666Y-95812173D01*
X154684990Y-95774850D01*
X154684990Y-92686201D01*
X154964250Y-92685000D01*
X155123000Y-92526250D01*
X155123000Y-91327000D01*
X155377000Y-91327000D01*
X155377000Y-92526250D01*
X155535750Y-92685000D01*
X156250000Y-92688072D01*
X156374482Y-92675812D01*
X156494180Y-92639502D01*
X156604494Y-92580537D01*
X156701185Y-92501185D01*
X156780537Y-92404494D01*
X156839502Y-92294180D01*
X156875812Y-92174482D01*
X156888072Y-92050000D01*
X156885000Y-91485750D01*
X156726250Y-91327000D01*
X155377000Y-91327000D01*
X155123000Y-91327000D01*
X155103000Y-91327000D01*
X155103000Y-91073000D01*
X155123000Y-91073000D01*
X155123000Y-91053000D01*
X155377000Y-91053000D01*
X155377000Y-91073000D01*
X156726250Y-91073000D01*
X156885000Y-90914250D01*
X156888072Y-90350000D01*
X156875812Y-90225518D01*
X156839502Y-90105820D01*
X156780537Y-89995506D01*
X156701185Y-89898815D01*
X156604494Y-89819463D01*
X156494180Y-89760498D01*
X156459392Y-89749945D01*
X156640706Y-89529014D01*
X156778599Y-89271034D01*
X156863513Y-88991111D01*
X156892185Y-88700000D01*
X156863513Y-88408889D01*
X156778599Y-88128966D01*
X156640706Y-87870986D01*
X156455134Y-87644866D01*
X156229014Y-87459294D01*
X155971034Y-87321401D01*
X155691111Y-87236487D01*
X155472950Y-87215000D01*
X155027050Y-87215000D01*
X154808889Y-87236487D01*
X154528966Y-87321401D01*
X154270986Y-87459294D01*
X154044866Y-87644866D01*
X153859294Y-87870986D01*
X153721401Y-88128966D01*
X153636487Y-88408889D01*
X153607815Y-88700000D01*
X153636487Y-88991111D01*
X153694115Y-89181084D01*
X153413988Y-89461211D01*
X153384990Y-89485009D01*
X153361192Y-89514007D01*
X153361191Y-89514008D01*
X153290016Y-89600734D01*
X153219444Y-89732764D01*
X153189170Y-89832568D01*
X153175988Y-89876024D01*
X153164991Y-89987677D01*
X153161314Y-90025010D01*
X153164991Y-90062342D01*
X153164990Y-95497370D01*
X149915491Y-98746869D01*
X149916569Y-98741452D01*
X149916569Y-98537574D01*
X149876795Y-98337615D01*
X149798774Y-98149257D01*
X149774427Y-98112820D01*
X149845226Y-97941898D01*
X149885000Y-97741939D01*
X149885000Y-97679802D01*
X150186014Y-97378788D01*
X150215011Y-97354991D01*
X150309984Y-97239266D01*
X150380556Y-97107237D01*
X150424013Y-96963976D01*
X150435010Y-96852323D01*
X150435010Y-96852314D01*
X150438686Y-96814991D01*
X150435010Y-96777668D01*
X150435010Y-90062332D01*
X150438686Y-90025009D01*
X150435010Y-89987686D01*
X150435010Y-89987677D01*
X150424013Y-89876024D01*
X150380556Y-89732763D01*
X150322678Y-89624482D01*
X150309984Y-89600733D01*
X150238809Y-89514007D01*
X150215011Y-89485009D01*
X150186013Y-89461211D01*
X149905885Y-89181084D01*
X149963513Y-88991111D01*
X149992185Y-88700000D01*
X149963513Y-88408889D01*
X149878599Y-88128966D01*
X149740706Y-87870986D01*
X149555134Y-87644866D01*
X149329014Y-87459294D01*
X149071034Y-87321401D01*
X148791111Y-87236487D01*
X148572950Y-87215000D01*
X148127050Y-87215000D01*
X147908889Y-87236487D01*
X147628966Y-87321401D01*
X147370986Y-87459294D01*
X147144866Y-87644866D01*
X146959294Y-87870986D01*
X146821401Y-88128966D01*
X146736487Y-88408889D01*
X146707815Y-88700000D01*
X146736487Y-88991111D01*
X146821401Y-89271034D01*
X146959294Y-89529014D01*
X147140608Y-89749945D01*
X147105820Y-89760498D01*
X146995506Y-89819463D01*
X146898815Y-89898815D01*
X146819463Y-89995506D01*
X146760498Y-90105820D01*
X146724188Y-90225518D01*
X146711928Y-90350000D01*
X146715000Y-90914250D01*
X146873750Y-91073000D01*
X148223000Y-91073000D01*
X148223000Y-91053000D01*
X148477000Y-91053000D01*
X148477000Y-91073000D01*
X148497000Y-91073000D01*
X148497000Y-91327000D01*
X148477000Y-91327000D01*
X148477000Y-92526250D01*
X148635750Y-92685000D01*
X148915011Y-92686201D01*
X148915010Y-96500188D01*
X148810198Y-96605000D01*
X148748061Y-96605000D01*
X148565728Y-96641268D01*
X148565728Y-95093053D01*
X148569404Y-95055728D01*
X148565728Y-95018403D01*
X148565728Y-95018395D01*
X148554731Y-94906742D01*
X148511274Y-94763481D01*
X148440702Y-94631452D01*
X148345729Y-94515727D01*
X148316732Y-94491930D01*
X145874802Y-92050000D01*
X146711928Y-92050000D01*
X146724188Y-92174482D01*
X146760498Y-92294180D01*
X146819463Y-92404494D01*
X146898815Y-92501185D01*
X146995506Y-92580537D01*
X147105820Y-92639502D01*
X147225518Y-92675812D01*
X147350000Y-92688072D01*
X148064250Y-92685000D01*
X148223000Y-92526250D01*
X148223000Y-91327000D01*
X146873750Y-91327000D01*
X146715000Y-91485750D01*
X146711928Y-92050000D01*
X145874802Y-92050000D01*
X143005885Y-89181084D01*
X143063513Y-88991111D01*
X143092185Y-88700000D01*
X143063513Y-88408889D01*
X142978599Y-88128966D01*
X142840706Y-87870986D01*
X142655134Y-87644866D01*
X142429014Y-87459294D01*
X142171034Y-87321401D01*
X141891111Y-87236487D01*
X141672950Y-87215000D01*
X141227050Y-87215000D01*
X141008889Y-87236487D01*
X140728966Y-87321401D01*
X140470986Y-87459294D01*
X140244866Y-87644866D01*
X140059294Y-87870986D01*
X139921401Y-88128966D01*
X139836487Y-88408889D01*
X139807815Y-88700000D01*
X139836487Y-88991111D01*
X139921401Y-89271034D01*
X140059294Y-89529014D01*
X140240608Y-89749945D01*
X140205820Y-89760498D01*
X140095506Y-89819463D01*
X139998815Y-89898815D01*
X139919463Y-89995506D01*
X139860498Y-90105820D01*
X139824188Y-90225518D01*
X139811928Y-90350000D01*
X139815000Y-90914250D01*
X139973750Y-91073000D01*
X141323000Y-91073000D01*
X141323000Y-91053000D01*
X141577000Y-91053000D01*
X141577000Y-91073000D01*
X141597000Y-91073000D01*
X141597000Y-91327000D01*
X141577000Y-91327000D01*
X141577000Y-92526250D01*
X141735750Y-92685000D01*
X142450000Y-92688072D01*
X142574482Y-92675812D01*
X142694180Y-92639502D01*
X142804494Y-92580537D01*
X142901185Y-92501185D01*
X142980537Y-92404494D01*
X143039502Y-92294180D01*
X143075812Y-92174482D01*
X143088072Y-92050000D01*
X143085000Y-91485750D01*
X142926252Y-91327002D01*
X143002201Y-91327002D01*
X147045728Y-95370530D01*
X147045729Y-96571922D01*
X146886622Y-96540274D01*
X146682744Y-96540274D01*
X146482785Y-96580048D01*
X146294427Y-96658069D01*
X146124909Y-96771337D01*
X146080972Y-96815274D01*
X144990076Y-96815274D01*
X140861105Y-92686304D01*
X141164250Y-92685000D01*
X141323000Y-92526250D01*
X141323000Y-91327000D01*
X139973750Y-91327000D01*
X139815000Y-91485750D01*
X139814164Y-91639362D01*
X136363804Y-88189003D01*
X136340001Y-88159999D01*
X136224276Y-88065026D01*
X136092247Y-87994454D01*
X135990146Y-87963483D01*
X135940706Y-87870986D01*
X135755134Y-87644866D01*
X135529014Y-87459294D01*
X135271034Y-87321401D01*
X134991111Y-87236487D01*
X134772950Y-87215000D01*
X134327050Y-87215000D01*
X134108889Y-87236487D01*
X133828966Y-87321401D01*
X133570986Y-87459294D01*
X133344866Y-87644866D01*
X133159294Y-87870986D01*
X133021401Y-88128966D01*
X132936487Y-88408889D01*
X132907815Y-88700000D01*
X132148000Y-88700000D01*
X132148000Y-86326977D01*
X132155430Y-86246437D01*
X132168630Y-86201791D01*
X132190250Y-86160560D01*
X132219465Y-86124316D01*
X132255162Y-86094437D01*
X132295987Y-86072059D01*
X132340380Y-86058037D01*
X132415368Y-86049719D01*
X175445847Y-86049743D01*
G36*
X153869580Y-106332020D02*
G01*
X153889580Y-106332020D01*
X153889580Y-106586020D01*
X153869580Y-106586020D01*
X153869580Y-106606020D01*
X153615580Y-106606020D01*
X153615580Y-106586020D01*
X153595580Y-106586020D01*
X153595580Y-106332020D01*
X153615580Y-106332020D01*
X153615580Y-106312020D01*
X153869580Y-106312020D01*
X153869580Y-106332020D01*
G37*
X153869580Y-106332020D02*
X153889580Y-106332020D01*
X153889580Y-106586020D01*
X153869580Y-106586020D01*
X153869580Y-106606020D01*
X153615580Y-106606020D01*
X153615580Y-106586020D01*
X153595580Y-106586020D01*
X153595580Y-106332020D01*
X153615580Y-106332020D01*
X153615580Y-106312020D01*
X153869580Y-106312020D01*
X153869580Y-106332020D01*
G36*
X162327000Y-88373000D02*
G01*
X162347000Y-88373000D01*
X162347000Y-88627000D01*
X162327000Y-88627000D01*
X162327000Y-89976250D01*
X162485750Y-90135000D01*
X162764991Y-90136520D01*
X162764990Y-94881731D01*
X162569261Y-94810446D01*
X162556890Y-94808524D01*
X162327000Y-94929845D01*
X162327000Y-96273000D01*
X162347000Y-96273000D01*
X162347000Y-96527000D01*
X162327000Y-96527000D01*
X162327000Y-97870155D01*
X162556890Y-97991476D01*
X162569261Y-97989554D01*
X162764990Y-97918269D01*
X162764990Y-98446810D01*
X155128173Y-106083628D01*
X155130652Y-105709020D01*
X155118392Y-105584538D01*
X155082082Y-105464840D01*
X155023117Y-105354526D01*
X154943765Y-105257835D01*
X154847074Y-105178483D01*
X154736760Y-105119518D01*
X154617062Y-105083208D01*
X154492580Y-105070948D01*
X154056180Y-105073836D01*
X154107580Y-104815431D01*
X154107580Y-104542609D01*
X154054355Y-104275031D01*
X153949951Y-104022977D01*
X153798379Y-103796134D01*
X153605466Y-103603221D01*
X153378623Y-103451649D01*
X153126569Y-103347245D01*
X153103704Y-103342697D01*
X159686659Y-96759742D01*
X160728715Y-96759742D01*
X160797904Y-97042745D01*
X160920975Y-97306812D01*
X161093198Y-97541795D01*
X161307954Y-97738664D01*
X161556991Y-97889854D01*
X161830739Y-97989554D01*
X161843110Y-97991476D01*
X162073000Y-97870155D01*
X162073000Y-96527000D01*
X160872768Y-96527000D01*
X160728715Y-96759742D01*
X159686659Y-96759742D01*
X160892835Y-95553567D01*
X160797904Y-95757255D01*
X160728715Y-96040258D01*
X160872768Y-96273000D01*
X162073000Y-96273000D01*
X162073000Y-94929845D01*
X161843110Y-94808524D01*
X161830739Y-94810446D01*
X161556991Y-94910146D01*
X161504217Y-94942185D01*
X161535994Y-94910408D01*
X161564991Y-94886611D01*
X161659964Y-94770886D01*
X161730536Y-94638857D01*
X161773993Y-94495596D01*
X161784990Y-94383943D01*
X161784990Y-94383934D01*
X161788666Y-94346611D01*
X161784990Y-94309288D01*
X161784990Y-90135704D01*
X161914250Y-90135000D01*
X162073000Y-89976250D01*
X162073000Y-88627000D01*
X162053000Y-88627000D01*
X162053000Y-88373000D01*
X162073000Y-88373000D01*
X162073000Y-88353000D01*
X162327000Y-88353000D01*
X162327000Y-88373000D01*
G37*
X162327000Y-88373000D02*
X162347000Y-88373000D01*
X162347000Y-88627000D01*
X162327000Y-88627000D01*
X162327000Y-89976250D01*
X162485750Y-90135000D01*
X162764991Y-90136520D01*
X162764990Y-94881731D01*
X162569261Y-94810446D01*
X162556890Y-94808524D01*
X162327000Y-94929845D01*
X162327000Y-96273000D01*
X162347000Y-96273000D01*
X162347000Y-96527000D01*
X162327000Y-96527000D01*
X162327000Y-97870155D01*
X162556890Y-97991476D01*
X162569261Y-97989554D01*
X162764990Y-97918269D01*
X162764990Y-98446810D01*
X155128173Y-106083628D01*
X155130652Y-105709020D01*
X155118392Y-105584538D01*
X155082082Y-105464840D01*
X155023117Y-105354526D01*
X154943765Y-105257835D01*
X154847074Y-105178483D01*
X154736760Y-105119518D01*
X154617062Y-105083208D01*
X154492580Y-105070948D01*
X154056180Y-105073836D01*
X154107580Y-104815431D01*
X154107580Y-104542609D01*
X154054355Y-104275031D01*
X153949951Y-104022977D01*
X153798379Y-103796134D01*
X153605466Y-103603221D01*
X153378623Y-103451649D01*
X153126569Y-103347245D01*
X153103704Y-103342697D01*
X159686659Y-96759742D01*
X160728715Y-96759742D01*
X160797904Y-97042745D01*
X160920975Y-97306812D01*
X161093198Y-97541795D01*
X161307954Y-97738664D01*
X161556991Y-97889854D01*
X161830739Y-97989554D01*
X161843110Y-97991476D01*
X162073000Y-97870155D01*
X162073000Y-96527000D01*
X160872768Y-96527000D01*
X160728715Y-96759742D01*
X159686659Y-96759742D01*
X160892835Y-95553567D01*
X160797904Y-95757255D01*
X160728715Y-96040258D01*
X160872768Y-96273000D01*
X162073000Y-96273000D01*
X162073000Y-94929845D01*
X161843110Y-94808524D01*
X161830739Y-94810446D01*
X161556991Y-94910146D01*
X161504217Y-94942185D01*
X161535994Y-94910408D01*
X161564991Y-94886611D01*
X161659964Y-94770886D01*
X161730536Y-94638857D01*
X161773993Y-94495596D01*
X161784990Y-94383943D01*
X161784990Y-94383934D01*
X161788666Y-94346611D01*
X161784990Y-94309288D01*
X161784990Y-90135704D01*
X161914250Y-90135000D01*
X162073000Y-89976250D01*
X162073000Y-88627000D01*
X162053000Y-88627000D01*
X162053000Y-88373000D01*
X162073000Y-88373000D01*
X162073000Y-88353000D01*
X162327000Y-88353000D01*
X162327000Y-88373000D01*
M02*
