G04 #@! TF.GenerationSoftware,KiCad,Pcbnew,(5.1.5)-3*
G04 #@! TF.CreationDate,2021-10-23T21:46:58-05:00*
G04 #@! TF.ProjectId,STM32QFN28Breakout,53544d33-3251-4464-9e32-38427265616b,rev?*
G04 #@! TF.SameCoordinates,Original*
G04 #@! TF.FileFunction,Copper,L1,Top*
G04 #@! TF.FilePolarity,Positive*
%FSLAX46Y46*%
G04 Gerber Fmt 4.6, Leading zero omitted, Abs format (unit mm)*
G04 Created by KiCad (PCBNEW (5.1.5)-3) date 2021-10-23 21:46:58*
%MOMM*%
%LPD*%
G04 APERTURE LIST*
%ADD10C,0.050000*%
%ADD11R,1.150000X1.450000*%
%ADD12O,1.050000X1.900000*%
%ADD13R,1.750000X1.900000*%
%ADD14R,0.400000X1.400000*%
%ADD15O,1.700000X1.700000*%
%ADD16R,1.700000X1.700000*%
%ADD17R,0.299974X0.599948*%
%ADD18R,0.599948X0.299974*%
%ADD19C,0.100000*%
%ADD20R,2.400000X0.740000*%
%ADD21R,1.300000X1.100000*%
%ADD22R,1.060000X0.650000*%
%ADD23C,0.800000*%
%ADD24C,0.250000*%
%ADD25C,0.254000*%
G04 APERTURE END LIST*
D10*
X200693020Y-76370180D02*
X200693020Y-110929420D01*
X223405700Y-76377800D02*
X200693020Y-76370180D01*
X223405700Y-110975140D02*
X223405700Y-76377800D01*
X200693020Y-110929420D02*
X223405700Y-110975140D01*
D11*
X214257600Y-81929000D03*
X209617600Y-81929000D03*
D12*
X208362600Y-79699000D03*
X215512600Y-79699000D03*
D13*
X213062600Y-79699000D03*
D14*
X211937600Y-82349000D03*
X211287600Y-82349000D03*
X210637600Y-82349000D03*
X213237600Y-82349000D03*
X212587600Y-82349000D03*
D13*
X210812600Y-79699000D03*
D15*
X203200000Y-106680000D03*
X203200000Y-104140000D03*
X203200000Y-101600000D03*
X203200000Y-99060000D03*
X203200000Y-96520000D03*
X203200000Y-93980000D03*
X203200000Y-91440000D03*
X203200000Y-88900000D03*
X203200000Y-86360000D03*
X203200000Y-83820000D03*
D16*
X203200000Y-81280000D03*
X220980000Y-81280000D03*
D15*
X220980000Y-83820000D03*
X220980000Y-86360000D03*
X220980000Y-88900000D03*
X220980000Y-91440000D03*
X220980000Y-93980000D03*
X220980000Y-96520000D03*
X220980000Y-99060000D03*
X220980000Y-101600000D03*
X220980000Y-104140000D03*
X220980000Y-106680000D03*
D17*
X210624420Y-91813380D03*
X210124040Y-91813380D03*
X209623660Y-91813380D03*
X209123280Y-91813380D03*
X208622900Y-91813380D03*
X208122520Y-91813380D03*
X207622140Y-91813380D03*
D18*
X207078580Y-92356940D03*
X207078580Y-92857320D03*
X207078580Y-93357700D03*
X207078580Y-93858080D03*
X207078580Y-94358460D03*
X207078580Y-94858840D03*
X207078580Y-95359220D03*
D17*
X207622140Y-95902780D03*
X208122520Y-95902780D03*
X208622900Y-95902780D03*
X209123280Y-95902780D03*
X209623660Y-95902780D03*
X210124040Y-95902780D03*
X210624420Y-95902780D03*
D18*
X211167980Y-95359220D03*
X211167980Y-94858840D03*
X211167980Y-94358460D03*
X211167980Y-93858080D03*
X211167980Y-93357700D03*
X211167980Y-92857320D03*
X211167980Y-92356940D03*
G04 #@! TA.AperFunction,SMDPad,CuDef*
D19*
G36*
X208308164Y-84231584D02*
G01*
X208332433Y-84235184D01*
X208356231Y-84241145D01*
X208379331Y-84249410D01*
X208401509Y-84259900D01*
X208422553Y-84272513D01*
X208442258Y-84287127D01*
X208460437Y-84303603D01*
X208476913Y-84321782D01*
X208491527Y-84341487D01*
X208504140Y-84362531D01*
X208514630Y-84384709D01*
X208522895Y-84407809D01*
X208528856Y-84431607D01*
X208532456Y-84455876D01*
X208533660Y-84480380D01*
X208533660Y-85430380D01*
X208532456Y-85454884D01*
X208528856Y-85479153D01*
X208522895Y-85502951D01*
X208514630Y-85526051D01*
X208504140Y-85548229D01*
X208491527Y-85569273D01*
X208476913Y-85588978D01*
X208460437Y-85607157D01*
X208442258Y-85623633D01*
X208422553Y-85638247D01*
X208401509Y-85650860D01*
X208379331Y-85661350D01*
X208356231Y-85669615D01*
X208332433Y-85675576D01*
X208308164Y-85679176D01*
X208283660Y-85680380D01*
X207783660Y-85680380D01*
X207759156Y-85679176D01*
X207734887Y-85675576D01*
X207711089Y-85669615D01*
X207687989Y-85661350D01*
X207665811Y-85650860D01*
X207644767Y-85638247D01*
X207625062Y-85623633D01*
X207606883Y-85607157D01*
X207590407Y-85588978D01*
X207575793Y-85569273D01*
X207563180Y-85548229D01*
X207552690Y-85526051D01*
X207544425Y-85502951D01*
X207538464Y-85479153D01*
X207534864Y-85454884D01*
X207533660Y-85430380D01*
X207533660Y-84480380D01*
X207534864Y-84455876D01*
X207538464Y-84431607D01*
X207544425Y-84407809D01*
X207552690Y-84384709D01*
X207563180Y-84362531D01*
X207575793Y-84341487D01*
X207590407Y-84321782D01*
X207606883Y-84303603D01*
X207625062Y-84287127D01*
X207644767Y-84272513D01*
X207665811Y-84259900D01*
X207687989Y-84249410D01*
X207711089Y-84241145D01*
X207734887Y-84235184D01*
X207759156Y-84231584D01*
X207783660Y-84230380D01*
X208283660Y-84230380D01*
X208308164Y-84231584D01*
G37*
G04 #@! TD.AperFunction*
G04 #@! TA.AperFunction,SMDPad,CuDef*
G36*
X206408164Y-84231584D02*
G01*
X206432433Y-84235184D01*
X206456231Y-84241145D01*
X206479331Y-84249410D01*
X206501509Y-84259900D01*
X206522553Y-84272513D01*
X206542258Y-84287127D01*
X206560437Y-84303603D01*
X206576913Y-84321782D01*
X206591527Y-84341487D01*
X206604140Y-84362531D01*
X206614630Y-84384709D01*
X206622895Y-84407809D01*
X206628856Y-84431607D01*
X206632456Y-84455876D01*
X206633660Y-84480380D01*
X206633660Y-85430380D01*
X206632456Y-85454884D01*
X206628856Y-85479153D01*
X206622895Y-85502951D01*
X206614630Y-85526051D01*
X206604140Y-85548229D01*
X206591527Y-85569273D01*
X206576913Y-85588978D01*
X206560437Y-85607157D01*
X206542258Y-85623633D01*
X206522553Y-85638247D01*
X206501509Y-85650860D01*
X206479331Y-85661350D01*
X206456231Y-85669615D01*
X206432433Y-85675576D01*
X206408164Y-85679176D01*
X206383660Y-85680380D01*
X205883660Y-85680380D01*
X205859156Y-85679176D01*
X205834887Y-85675576D01*
X205811089Y-85669615D01*
X205787989Y-85661350D01*
X205765811Y-85650860D01*
X205744767Y-85638247D01*
X205725062Y-85623633D01*
X205706883Y-85607157D01*
X205690407Y-85588978D01*
X205675793Y-85569273D01*
X205663180Y-85548229D01*
X205652690Y-85526051D01*
X205644425Y-85502951D01*
X205638464Y-85479153D01*
X205634864Y-85454884D01*
X205633660Y-85430380D01*
X205633660Y-84480380D01*
X205634864Y-84455876D01*
X205638464Y-84431607D01*
X205644425Y-84407809D01*
X205652690Y-84384709D01*
X205663180Y-84362531D01*
X205675793Y-84341487D01*
X205690407Y-84321782D01*
X205706883Y-84303603D01*
X205725062Y-84287127D01*
X205744767Y-84272513D01*
X205765811Y-84259900D01*
X205787989Y-84249410D01*
X205811089Y-84241145D01*
X205834887Y-84235184D01*
X205859156Y-84231584D01*
X205883660Y-84230380D01*
X206383660Y-84230380D01*
X206408164Y-84231584D01*
G37*
G04 #@! TD.AperFunction*
G04 #@! TA.AperFunction,SMDPad,CuDef*
G36*
X207181844Y-89160704D02*
G01*
X207206113Y-89164304D01*
X207229911Y-89170265D01*
X207253011Y-89178530D01*
X207275189Y-89189020D01*
X207296233Y-89201633D01*
X207315938Y-89216247D01*
X207334117Y-89232723D01*
X207350593Y-89250902D01*
X207365207Y-89270607D01*
X207377820Y-89291651D01*
X207388310Y-89313829D01*
X207396575Y-89336929D01*
X207402536Y-89360727D01*
X207406136Y-89384996D01*
X207407340Y-89409500D01*
X207407340Y-89909500D01*
X207406136Y-89934004D01*
X207402536Y-89958273D01*
X207396575Y-89982071D01*
X207388310Y-90005171D01*
X207377820Y-90027349D01*
X207365207Y-90048393D01*
X207350593Y-90068098D01*
X207334117Y-90086277D01*
X207315938Y-90102753D01*
X207296233Y-90117367D01*
X207275189Y-90129980D01*
X207253011Y-90140470D01*
X207229911Y-90148735D01*
X207206113Y-90154696D01*
X207181844Y-90158296D01*
X207157340Y-90159500D01*
X206207340Y-90159500D01*
X206182836Y-90158296D01*
X206158567Y-90154696D01*
X206134769Y-90148735D01*
X206111669Y-90140470D01*
X206089491Y-90129980D01*
X206068447Y-90117367D01*
X206048742Y-90102753D01*
X206030563Y-90086277D01*
X206014087Y-90068098D01*
X205999473Y-90048393D01*
X205986860Y-90027349D01*
X205976370Y-90005171D01*
X205968105Y-89982071D01*
X205962144Y-89958273D01*
X205958544Y-89934004D01*
X205957340Y-89909500D01*
X205957340Y-89409500D01*
X205958544Y-89384996D01*
X205962144Y-89360727D01*
X205968105Y-89336929D01*
X205976370Y-89313829D01*
X205986860Y-89291651D01*
X205999473Y-89270607D01*
X206014087Y-89250902D01*
X206030563Y-89232723D01*
X206048742Y-89216247D01*
X206068447Y-89201633D01*
X206089491Y-89189020D01*
X206111669Y-89178530D01*
X206134769Y-89170265D01*
X206158567Y-89164304D01*
X206182836Y-89160704D01*
X206207340Y-89159500D01*
X207157340Y-89159500D01*
X207181844Y-89160704D01*
G37*
G04 #@! TD.AperFunction*
G04 #@! TA.AperFunction,SMDPad,CuDef*
G36*
X207181844Y-87260704D02*
G01*
X207206113Y-87264304D01*
X207229911Y-87270265D01*
X207253011Y-87278530D01*
X207275189Y-87289020D01*
X207296233Y-87301633D01*
X207315938Y-87316247D01*
X207334117Y-87332723D01*
X207350593Y-87350902D01*
X207365207Y-87370607D01*
X207377820Y-87391651D01*
X207388310Y-87413829D01*
X207396575Y-87436929D01*
X207402536Y-87460727D01*
X207406136Y-87484996D01*
X207407340Y-87509500D01*
X207407340Y-88009500D01*
X207406136Y-88034004D01*
X207402536Y-88058273D01*
X207396575Y-88082071D01*
X207388310Y-88105171D01*
X207377820Y-88127349D01*
X207365207Y-88148393D01*
X207350593Y-88168098D01*
X207334117Y-88186277D01*
X207315938Y-88202753D01*
X207296233Y-88217367D01*
X207275189Y-88229980D01*
X207253011Y-88240470D01*
X207229911Y-88248735D01*
X207206113Y-88254696D01*
X207181844Y-88258296D01*
X207157340Y-88259500D01*
X206207340Y-88259500D01*
X206182836Y-88258296D01*
X206158567Y-88254696D01*
X206134769Y-88248735D01*
X206111669Y-88240470D01*
X206089491Y-88229980D01*
X206068447Y-88217367D01*
X206048742Y-88202753D01*
X206030563Y-88186277D01*
X206014087Y-88168098D01*
X205999473Y-88148393D01*
X205986860Y-88127349D01*
X205976370Y-88105171D01*
X205968105Y-88082071D01*
X205962144Y-88058273D01*
X205958544Y-88034004D01*
X205957340Y-88009500D01*
X205957340Y-87509500D01*
X205958544Y-87484996D01*
X205962144Y-87460727D01*
X205968105Y-87436929D01*
X205976370Y-87413829D01*
X205986860Y-87391651D01*
X205999473Y-87370607D01*
X206014087Y-87350902D01*
X206030563Y-87332723D01*
X206048742Y-87316247D01*
X206068447Y-87301633D01*
X206089491Y-87289020D01*
X206111669Y-87278530D01*
X206134769Y-87270265D01*
X206158567Y-87264304D01*
X206182836Y-87260704D01*
X206207340Y-87259500D01*
X207157340Y-87259500D01*
X207181844Y-87260704D01*
G37*
G04 #@! TD.AperFunction*
G04 #@! TA.AperFunction,SMDPad,CuDef*
G36*
X209396724Y-89160704D02*
G01*
X209420993Y-89164304D01*
X209444791Y-89170265D01*
X209467891Y-89178530D01*
X209490069Y-89189020D01*
X209511113Y-89201633D01*
X209530818Y-89216247D01*
X209548997Y-89232723D01*
X209565473Y-89250902D01*
X209580087Y-89270607D01*
X209592700Y-89291651D01*
X209603190Y-89313829D01*
X209611455Y-89336929D01*
X209617416Y-89360727D01*
X209621016Y-89384996D01*
X209622220Y-89409500D01*
X209622220Y-89909500D01*
X209621016Y-89934004D01*
X209617416Y-89958273D01*
X209611455Y-89982071D01*
X209603190Y-90005171D01*
X209592700Y-90027349D01*
X209580087Y-90048393D01*
X209565473Y-90068098D01*
X209548997Y-90086277D01*
X209530818Y-90102753D01*
X209511113Y-90117367D01*
X209490069Y-90129980D01*
X209467891Y-90140470D01*
X209444791Y-90148735D01*
X209420993Y-90154696D01*
X209396724Y-90158296D01*
X209372220Y-90159500D01*
X208422220Y-90159500D01*
X208397716Y-90158296D01*
X208373447Y-90154696D01*
X208349649Y-90148735D01*
X208326549Y-90140470D01*
X208304371Y-90129980D01*
X208283327Y-90117367D01*
X208263622Y-90102753D01*
X208245443Y-90086277D01*
X208228967Y-90068098D01*
X208214353Y-90048393D01*
X208201740Y-90027349D01*
X208191250Y-90005171D01*
X208182985Y-89982071D01*
X208177024Y-89958273D01*
X208173424Y-89934004D01*
X208172220Y-89909500D01*
X208172220Y-89409500D01*
X208173424Y-89384996D01*
X208177024Y-89360727D01*
X208182985Y-89336929D01*
X208191250Y-89313829D01*
X208201740Y-89291651D01*
X208214353Y-89270607D01*
X208228967Y-89250902D01*
X208245443Y-89232723D01*
X208263622Y-89216247D01*
X208283327Y-89201633D01*
X208304371Y-89189020D01*
X208326549Y-89178530D01*
X208349649Y-89170265D01*
X208373447Y-89164304D01*
X208397716Y-89160704D01*
X208422220Y-89159500D01*
X209372220Y-89159500D01*
X209396724Y-89160704D01*
G37*
G04 #@! TD.AperFunction*
G04 #@! TA.AperFunction,SMDPad,CuDef*
G36*
X209396724Y-87260704D02*
G01*
X209420993Y-87264304D01*
X209444791Y-87270265D01*
X209467891Y-87278530D01*
X209490069Y-87289020D01*
X209511113Y-87301633D01*
X209530818Y-87316247D01*
X209548997Y-87332723D01*
X209565473Y-87350902D01*
X209580087Y-87370607D01*
X209592700Y-87391651D01*
X209603190Y-87413829D01*
X209611455Y-87436929D01*
X209617416Y-87460727D01*
X209621016Y-87484996D01*
X209622220Y-87509500D01*
X209622220Y-88009500D01*
X209621016Y-88034004D01*
X209617416Y-88058273D01*
X209611455Y-88082071D01*
X209603190Y-88105171D01*
X209592700Y-88127349D01*
X209580087Y-88148393D01*
X209565473Y-88168098D01*
X209548997Y-88186277D01*
X209530818Y-88202753D01*
X209511113Y-88217367D01*
X209490069Y-88229980D01*
X209467891Y-88240470D01*
X209444791Y-88248735D01*
X209420993Y-88254696D01*
X209396724Y-88258296D01*
X209372220Y-88259500D01*
X208422220Y-88259500D01*
X208397716Y-88258296D01*
X208373447Y-88254696D01*
X208349649Y-88248735D01*
X208326549Y-88240470D01*
X208304371Y-88229980D01*
X208283327Y-88217367D01*
X208263622Y-88202753D01*
X208245443Y-88186277D01*
X208228967Y-88168098D01*
X208214353Y-88148393D01*
X208201740Y-88127349D01*
X208191250Y-88105171D01*
X208182985Y-88082071D01*
X208177024Y-88058273D01*
X208173424Y-88034004D01*
X208172220Y-88009500D01*
X208172220Y-87509500D01*
X208173424Y-87484996D01*
X208177024Y-87460727D01*
X208182985Y-87436929D01*
X208191250Y-87413829D01*
X208201740Y-87391651D01*
X208214353Y-87370607D01*
X208228967Y-87350902D01*
X208245443Y-87332723D01*
X208263622Y-87316247D01*
X208283327Y-87301633D01*
X208304371Y-87289020D01*
X208326549Y-87278530D01*
X208349649Y-87270265D01*
X208373447Y-87264304D01*
X208397716Y-87260704D01*
X208422220Y-87259500D01*
X209372220Y-87259500D01*
X209396724Y-87260704D01*
G37*
G04 #@! TD.AperFunction*
D20*
X211312040Y-107706160D03*
X207412040Y-107706160D03*
X211312040Y-106436160D03*
X207412040Y-106436160D03*
X211312040Y-105166160D03*
X207412040Y-105166160D03*
X211312040Y-103896160D03*
X207412040Y-103896160D03*
X211312040Y-102626160D03*
X207412040Y-102626160D03*
G04 #@! TA.AperFunction,SMDPad,CuDef*
D19*
G36*
X218570823Y-100039742D02*
G01*
X218585384Y-100041902D01*
X218599663Y-100045479D01*
X218613523Y-100050438D01*
X218626830Y-100056732D01*
X218639456Y-100064300D01*
X218651279Y-100073068D01*
X218662186Y-100082954D01*
X218672072Y-100093861D01*
X218680840Y-100105684D01*
X218688408Y-100118310D01*
X218694702Y-100131617D01*
X218699661Y-100145477D01*
X218703238Y-100159756D01*
X218705398Y-100174317D01*
X218706120Y-100189020D01*
X218706120Y-100489020D01*
X218705398Y-100503723D01*
X218703238Y-100518284D01*
X218699661Y-100532563D01*
X218694702Y-100546423D01*
X218688408Y-100559730D01*
X218680840Y-100572356D01*
X218672072Y-100584179D01*
X218662186Y-100595086D01*
X218651279Y-100604972D01*
X218639456Y-100613740D01*
X218626830Y-100621308D01*
X218613523Y-100627602D01*
X218599663Y-100632561D01*
X218585384Y-100636138D01*
X218570823Y-100638298D01*
X218556120Y-100639020D01*
X217306120Y-100639020D01*
X217291417Y-100638298D01*
X217276856Y-100636138D01*
X217262577Y-100632561D01*
X217248717Y-100627602D01*
X217235410Y-100621308D01*
X217222784Y-100613740D01*
X217210961Y-100604972D01*
X217200054Y-100595086D01*
X217190168Y-100584179D01*
X217181400Y-100572356D01*
X217173832Y-100559730D01*
X217167538Y-100546423D01*
X217162579Y-100532563D01*
X217159002Y-100518284D01*
X217156842Y-100503723D01*
X217156120Y-100489020D01*
X217156120Y-100189020D01*
X217156842Y-100174317D01*
X217159002Y-100159756D01*
X217162579Y-100145477D01*
X217167538Y-100131617D01*
X217173832Y-100118310D01*
X217181400Y-100105684D01*
X217190168Y-100093861D01*
X217200054Y-100082954D01*
X217210961Y-100073068D01*
X217222784Y-100064300D01*
X217235410Y-100056732D01*
X217248717Y-100050438D01*
X217262577Y-100045479D01*
X217276856Y-100041902D01*
X217291417Y-100039742D01*
X217306120Y-100039020D01*
X218556120Y-100039020D01*
X218570823Y-100039742D01*
G37*
G04 #@! TD.AperFunction*
G04 #@! TA.AperFunction,SMDPad,CuDef*
G36*
X218570823Y-99039742D02*
G01*
X218585384Y-99041902D01*
X218599663Y-99045479D01*
X218613523Y-99050438D01*
X218626830Y-99056732D01*
X218639456Y-99064300D01*
X218651279Y-99073068D01*
X218662186Y-99082954D01*
X218672072Y-99093861D01*
X218680840Y-99105684D01*
X218688408Y-99118310D01*
X218694702Y-99131617D01*
X218699661Y-99145477D01*
X218703238Y-99159756D01*
X218705398Y-99174317D01*
X218706120Y-99189020D01*
X218706120Y-99489020D01*
X218705398Y-99503723D01*
X218703238Y-99518284D01*
X218699661Y-99532563D01*
X218694702Y-99546423D01*
X218688408Y-99559730D01*
X218680840Y-99572356D01*
X218672072Y-99584179D01*
X218662186Y-99595086D01*
X218651279Y-99604972D01*
X218639456Y-99613740D01*
X218626830Y-99621308D01*
X218613523Y-99627602D01*
X218599663Y-99632561D01*
X218585384Y-99636138D01*
X218570823Y-99638298D01*
X218556120Y-99639020D01*
X217306120Y-99639020D01*
X217291417Y-99638298D01*
X217276856Y-99636138D01*
X217262577Y-99632561D01*
X217248717Y-99627602D01*
X217235410Y-99621308D01*
X217222784Y-99613740D01*
X217210961Y-99604972D01*
X217200054Y-99595086D01*
X217190168Y-99584179D01*
X217181400Y-99572356D01*
X217173832Y-99559730D01*
X217167538Y-99546423D01*
X217162579Y-99532563D01*
X217159002Y-99518284D01*
X217156842Y-99503723D01*
X217156120Y-99489020D01*
X217156120Y-99189020D01*
X217156842Y-99174317D01*
X217159002Y-99159756D01*
X217162579Y-99145477D01*
X217167538Y-99131617D01*
X217173832Y-99118310D01*
X217181400Y-99105684D01*
X217190168Y-99093861D01*
X217200054Y-99082954D01*
X217210961Y-99073068D01*
X217222784Y-99064300D01*
X217235410Y-99056732D01*
X217248717Y-99050438D01*
X217262577Y-99045479D01*
X217276856Y-99041902D01*
X217291417Y-99039742D01*
X217306120Y-99039020D01*
X218556120Y-99039020D01*
X218570823Y-99039742D01*
G37*
G04 #@! TD.AperFunction*
G04 #@! TA.AperFunction,SMDPad,CuDef*
G36*
X218570823Y-98039742D02*
G01*
X218585384Y-98041902D01*
X218599663Y-98045479D01*
X218613523Y-98050438D01*
X218626830Y-98056732D01*
X218639456Y-98064300D01*
X218651279Y-98073068D01*
X218662186Y-98082954D01*
X218672072Y-98093861D01*
X218680840Y-98105684D01*
X218688408Y-98118310D01*
X218694702Y-98131617D01*
X218699661Y-98145477D01*
X218703238Y-98159756D01*
X218705398Y-98174317D01*
X218706120Y-98189020D01*
X218706120Y-98489020D01*
X218705398Y-98503723D01*
X218703238Y-98518284D01*
X218699661Y-98532563D01*
X218694702Y-98546423D01*
X218688408Y-98559730D01*
X218680840Y-98572356D01*
X218672072Y-98584179D01*
X218662186Y-98595086D01*
X218651279Y-98604972D01*
X218639456Y-98613740D01*
X218626830Y-98621308D01*
X218613523Y-98627602D01*
X218599663Y-98632561D01*
X218585384Y-98636138D01*
X218570823Y-98638298D01*
X218556120Y-98639020D01*
X217306120Y-98639020D01*
X217291417Y-98638298D01*
X217276856Y-98636138D01*
X217262577Y-98632561D01*
X217248717Y-98627602D01*
X217235410Y-98621308D01*
X217222784Y-98613740D01*
X217210961Y-98604972D01*
X217200054Y-98595086D01*
X217190168Y-98584179D01*
X217181400Y-98572356D01*
X217173832Y-98559730D01*
X217167538Y-98546423D01*
X217162579Y-98532563D01*
X217159002Y-98518284D01*
X217156842Y-98503723D01*
X217156120Y-98489020D01*
X217156120Y-98189020D01*
X217156842Y-98174317D01*
X217159002Y-98159756D01*
X217162579Y-98145477D01*
X217167538Y-98131617D01*
X217173832Y-98118310D01*
X217181400Y-98105684D01*
X217190168Y-98093861D01*
X217200054Y-98082954D01*
X217210961Y-98073068D01*
X217222784Y-98064300D01*
X217235410Y-98056732D01*
X217248717Y-98050438D01*
X217262577Y-98045479D01*
X217276856Y-98041902D01*
X217291417Y-98039742D01*
X217306120Y-98039020D01*
X218556120Y-98039020D01*
X218570823Y-98039742D01*
G37*
G04 #@! TD.AperFunction*
G04 #@! TA.AperFunction,SMDPad,CuDef*
G36*
X218570823Y-97039742D02*
G01*
X218585384Y-97041902D01*
X218599663Y-97045479D01*
X218613523Y-97050438D01*
X218626830Y-97056732D01*
X218639456Y-97064300D01*
X218651279Y-97073068D01*
X218662186Y-97082954D01*
X218672072Y-97093861D01*
X218680840Y-97105684D01*
X218688408Y-97118310D01*
X218694702Y-97131617D01*
X218699661Y-97145477D01*
X218703238Y-97159756D01*
X218705398Y-97174317D01*
X218706120Y-97189020D01*
X218706120Y-97489020D01*
X218705398Y-97503723D01*
X218703238Y-97518284D01*
X218699661Y-97532563D01*
X218694702Y-97546423D01*
X218688408Y-97559730D01*
X218680840Y-97572356D01*
X218672072Y-97584179D01*
X218662186Y-97595086D01*
X218651279Y-97604972D01*
X218639456Y-97613740D01*
X218626830Y-97621308D01*
X218613523Y-97627602D01*
X218599663Y-97632561D01*
X218585384Y-97636138D01*
X218570823Y-97638298D01*
X218556120Y-97639020D01*
X217306120Y-97639020D01*
X217291417Y-97638298D01*
X217276856Y-97636138D01*
X217262577Y-97632561D01*
X217248717Y-97627602D01*
X217235410Y-97621308D01*
X217222784Y-97613740D01*
X217210961Y-97604972D01*
X217200054Y-97595086D01*
X217190168Y-97584179D01*
X217181400Y-97572356D01*
X217173832Y-97559730D01*
X217167538Y-97546423D01*
X217162579Y-97532563D01*
X217159002Y-97518284D01*
X217156842Y-97503723D01*
X217156120Y-97489020D01*
X217156120Y-97189020D01*
X217156842Y-97174317D01*
X217159002Y-97159756D01*
X217162579Y-97145477D01*
X217167538Y-97131617D01*
X217173832Y-97118310D01*
X217181400Y-97105684D01*
X217190168Y-97093861D01*
X217200054Y-97082954D01*
X217210961Y-97073068D01*
X217222784Y-97064300D01*
X217235410Y-97056732D01*
X217248717Y-97050438D01*
X217262577Y-97045479D01*
X217276856Y-97041902D01*
X217291417Y-97039742D01*
X217306120Y-97039020D01*
X218556120Y-97039020D01*
X218570823Y-97039742D01*
G37*
G04 #@! TD.AperFunction*
G04 #@! TA.AperFunction,SMDPad,CuDef*
G36*
X216080625Y-101040224D02*
G01*
X216104893Y-101043824D01*
X216128692Y-101049785D01*
X216151791Y-101058050D01*
X216173970Y-101068540D01*
X216195013Y-101081152D01*
X216214719Y-101095767D01*
X216232897Y-101112243D01*
X216249373Y-101130421D01*
X216263988Y-101150127D01*
X216276600Y-101171170D01*
X216287090Y-101193349D01*
X216295355Y-101216448D01*
X216301316Y-101240247D01*
X216304916Y-101264515D01*
X216306120Y-101289019D01*
X216306120Y-101989021D01*
X216304916Y-102013525D01*
X216301316Y-102037793D01*
X216295355Y-102061592D01*
X216287090Y-102084691D01*
X216276600Y-102106870D01*
X216263988Y-102127913D01*
X216249373Y-102147619D01*
X216232897Y-102165797D01*
X216214719Y-102182273D01*
X216195013Y-102196888D01*
X216173970Y-102209500D01*
X216151791Y-102219990D01*
X216128692Y-102228255D01*
X216104893Y-102234216D01*
X216080625Y-102237816D01*
X216056121Y-102239020D01*
X214756119Y-102239020D01*
X214731615Y-102237816D01*
X214707347Y-102234216D01*
X214683548Y-102228255D01*
X214660449Y-102219990D01*
X214638270Y-102209500D01*
X214617227Y-102196888D01*
X214597521Y-102182273D01*
X214579343Y-102165797D01*
X214562867Y-102147619D01*
X214548252Y-102127913D01*
X214535640Y-102106870D01*
X214525150Y-102084691D01*
X214516885Y-102061592D01*
X214510924Y-102037793D01*
X214507324Y-102013525D01*
X214506120Y-101989021D01*
X214506120Y-101289019D01*
X214507324Y-101264515D01*
X214510924Y-101240247D01*
X214516885Y-101216448D01*
X214525150Y-101193349D01*
X214535640Y-101171170D01*
X214548252Y-101150127D01*
X214562867Y-101130421D01*
X214579343Y-101112243D01*
X214597521Y-101095767D01*
X214617227Y-101081152D01*
X214638270Y-101068540D01*
X214660449Y-101058050D01*
X214683548Y-101049785D01*
X214707347Y-101043824D01*
X214731615Y-101040224D01*
X214756119Y-101039020D01*
X216056121Y-101039020D01*
X216080625Y-101040224D01*
G37*
G04 #@! TD.AperFunction*
G04 #@! TA.AperFunction,SMDPad,CuDef*
G36*
X216080625Y-95440224D02*
G01*
X216104893Y-95443824D01*
X216128692Y-95449785D01*
X216151791Y-95458050D01*
X216173970Y-95468540D01*
X216195013Y-95481152D01*
X216214719Y-95495767D01*
X216232897Y-95512243D01*
X216249373Y-95530421D01*
X216263988Y-95550127D01*
X216276600Y-95571170D01*
X216287090Y-95593349D01*
X216295355Y-95616448D01*
X216301316Y-95640247D01*
X216304916Y-95664515D01*
X216306120Y-95689019D01*
X216306120Y-96389021D01*
X216304916Y-96413525D01*
X216301316Y-96437793D01*
X216295355Y-96461592D01*
X216287090Y-96484691D01*
X216276600Y-96506870D01*
X216263988Y-96527913D01*
X216249373Y-96547619D01*
X216232897Y-96565797D01*
X216214719Y-96582273D01*
X216195013Y-96596888D01*
X216173970Y-96609500D01*
X216151791Y-96619990D01*
X216128692Y-96628255D01*
X216104893Y-96634216D01*
X216080625Y-96637816D01*
X216056121Y-96639020D01*
X214756119Y-96639020D01*
X214731615Y-96637816D01*
X214707347Y-96634216D01*
X214683548Y-96628255D01*
X214660449Y-96619990D01*
X214638270Y-96609500D01*
X214617227Y-96596888D01*
X214597521Y-96582273D01*
X214579343Y-96565797D01*
X214562867Y-96547619D01*
X214548252Y-96527913D01*
X214535640Y-96506870D01*
X214525150Y-96484691D01*
X214516885Y-96461592D01*
X214510924Y-96437793D01*
X214507324Y-96413525D01*
X214506120Y-96389021D01*
X214506120Y-95689019D01*
X214507324Y-95664515D01*
X214510924Y-95640247D01*
X214516885Y-95616448D01*
X214525150Y-95593349D01*
X214535640Y-95571170D01*
X214548252Y-95550127D01*
X214562867Y-95530421D01*
X214579343Y-95512243D01*
X214597521Y-95495767D01*
X214617227Y-95481152D01*
X214638270Y-95468540D01*
X214660449Y-95458050D01*
X214683548Y-95449785D01*
X214707347Y-95443824D01*
X214731615Y-95440224D01*
X214756119Y-95439020D01*
X216056121Y-95439020D01*
X216080625Y-95440224D01*
G37*
G04 #@! TD.AperFunction*
G04 #@! TA.AperFunction,SMDPad,CuDef*
G36*
X216047605Y-103469164D02*
G01*
X216071873Y-103472764D01*
X216095672Y-103478725D01*
X216118771Y-103486990D01*
X216140950Y-103497480D01*
X216161993Y-103510092D01*
X216181699Y-103524707D01*
X216199877Y-103541183D01*
X216216353Y-103559361D01*
X216230968Y-103579067D01*
X216243580Y-103600110D01*
X216254070Y-103622289D01*
X216262335Y-103645388D01*
X216268296Y-103669187D01*
X216271896Y-103693455D01*
X216273100Y-103717959D01*
X216273100Y-104417961D01*
X216271896Y-104442465D01*
X216268296Y-104466733D01*
X216262335Y-104490532D01*
X216254070Y-104513631D01*
X216243580Y-104535810D01*
X216230968Y-104556853D01*
X216216353Y-104576559D01*
X216199877Y-104594737D01*
X216181699Y-104611213D01*
X216161993Y-104625828D01*
X216140950Y-104638440D01*
X216118771Y-104648930D01*
X216095672Y-104657195D01*
X216071873Y-104663156D01*
X216047605Y-104666756D01*
X216023101Y-104667960D01*
X214723099Y-104667960D01*
X214698595Y-104666756D01*
X214674327Y-104663156D01*
X214650528Y-104657195D01*
X214627429Y-104648930D01*
X214605250Y-104638440D01*
X214584207Y-104625828D01*
X214564501Y-104611213D01*
X214546323Y-104594737D01*
X214529847Y-104576559D01*
X214515232Y-104556853D01*
X214502620Y-104535810D01*
X214492130Y-104513631D01*
X214483865Y-104490532D01*
X214477904Y-104466733D01*
X214474304Y-104442465D01*
X214473100Y-104417961D01*
X214473100Y-103717959D01*
X214474304Y-103693455D01*
X214477904Y-103669187D01*
X214483865Y-103645388D01*
X214492130Y-103622289D01*
X214502620Y-103600110D01*
X214515232Y-103579067D01*
X214529847Y-103559361D01*
X214546323Y-103541183D01*
X214564501Y-103524707D01*
X214584207Y-103510092D01*
X214605250Y-103497480D01*
X214627429Y-103486990D01*
X214650528Y-103478725D01*
X214674327Y-103472764D01*
X214698595Y-103469164D01*
X214723099Y-103467960D01*
X216023101Y-103467960D01*
X216047605Y-103469164D01*
G37*
G04 #@! TD.AperFunction*
G04 #@! TA.AperFunction,SMDPad,CuDef*
G36*
X216047605Y-109069164D02*
G01*
X216071873Y-109072764D01*
X216095672Y-109078725D01*
X216118771Y-109086990D01*
X216140950Y-109097480D01*
X216161993Y-109110092D01*
X216181699Y-109124707D01*
X216199877Y-109141183D01*
X216216353Y-109159361D01*
X216230968Y-109179067D01*
X216243580Y-109200110D01*
X216254070Y-109222289D01*
X216262335Y-109245388D01*
X216268296Y-109269187D01*
X216271896Y-109293455D01*
X216273100Y-109317959D01*
X216273100Y-110017961D01*
X216271896Y-110042465D01*
X216268296Y-110066733D01*
X216262335Y-110090532D01*
X216254070Y-110113631D01*
X216243580Y-110135810D01*
X216230968Y-110156853D01*
X216216353Y-110176559D01*
X216199877Y-110194737D01*
X216181699Y-110211213D01*
X216161993Y-110225828D01*
X216140950Y-110238440D01*
X216118771Y-110248930D01*
X216095672Y-110257195D01*
X216071873Y-110263156D01*
X216047605Y-110266756D01*
X216023101Y-110267960D01*
X214723099Y-110267960D01*
X214698595Y-110266756D01*
X214674327Y-110263156D01*
X214650528Y-110257195D01*
X214627429Y-110248930D01*
X214605250Y-110238440D01*
X214584207Y-110225828D01*
X214564501Y-110211213D01*
X214546323Y-110194737D01*
X214529847Y-110176559D01*
X214515232Y-110156853D01*
X214502620Y-110135810D01*
X214492130Y-110113631D01*
X214483865Y-110090532D01*
X214477904Y-110066733D01*
X214474304Y-110042465D01*
X214473100Y-110017961D01*
X214473100Y-109317959D01*
X214474304Y-109293455D01*
X214477904Y-109269187D01*
X214483865Y-109245388D01*
X214492130Y-109222289D01*
X214502620Y-109200110D01*
X214515232Y-109179067D01*
X214529847Y-109159361D01*
X214546323Y-109141183D01*
X214564501Y-109124707D01*
X214584207Y-109110092D01*
X214605250Y-109097480D01*
X214627429Y-109086990D01*
X214650528Y-109078725D01*
X214674327Y-109072764D01*
X214698595Y-109069164D01*
X214723099Y-109067960D01*
X216023101Y-109067960D01*
X216047605Y-109069164D01*
G37*
G04 #@! TD.AperFunction*
G04 #@! TA.AperFunction,SMDPad,CuDef*
G36*
X218537803Y-105068682D02*
G01*
X218552364Y-105070842D01*
X218566643Y-105074419D01*
X218580503Y-105079378D01*
X218593810Y-105085672D01*
X218606436Y-105093240D01*
X218618259Y-105102008D01*
X218629166Y-105111894D01*
X218639052Y-105122801D01*
X218647820Y-105134624D01*
X218655388Y-105147250D01*
X218661682Y-105160557D01*
X218666641Y-105174417D01*
X218670218Y-105188696D01*
X218672378Y-105203257D01*
X218673100Y-105217960D01*
X218673100Y-105517960D01*
X218672378Y-105532663D01*
X218670218Y-105547224D01*
X218666641Y-105561503D01*
X218661682Y-105575363D01*
X218655388Y-105588670D01*
X218647820Y-105601296D01*
X218639052Y-105613119D01*
X218629166Y-105624026D01*
X218618259Y-105633912D01*
X218606436Y-105642680D01*
X218593810Y-105650248D01*
X218580503Y-105656542D01*
X218566643Y-105661501D01*
X218552364Y-105665078D01*
X218537803Y-105667238D01*
X218523100Y-105667960D01*
X217273100Y-105667960D01*
X217258397Y-105667238D01*
X217243836Y-105665078D01*
X217229557Y-105661501D01*
X217215697Y-105656542D01*
X217202390Y-105650248D01*
X217189764Y-105642680D01*
X217177941Y-105633912D01*
X217167034Y-105624026D01*
X217157148Y-105613119D01*
X217148380Y-105601296D01*
X217140812Y-105588670D01*
X217134518Y-105575363D01*
X217129559Y-105561503D01*
X217125982Y-105547224D01*
X217123822Y-105532663D01*
X217123100Y-105517960D01*
X217123100Y-105217960D01*
X217123822Y-105203257D01*
X217125982Y-105188696D01*
X217129559Y-105174417D01*
X217134518Y-105160557D01*
X217140812Y-105147250D01*
X217148380Y-105134624D01*
X217157148Y-105122801D01*
X217167034Y-105111894D01*
X217177941Y-105102008D01*
X217189764Y-105093240D01*
X217202390Y-105085672D01*
X217215697Y-105079378D01*
X217229557Y-105074419D01*
X217243836Y-105070842D01*
X217258397Y-105068682D01*
X217273100Y-105067960D01*
X218523100Y-105067960D01*
X218537803Y-105068682D01*
G37*
G04 #@! TD.AperFunction*
G04 #@! TA.AperFunction,SMDPad,CuDef*
G36*
X218537803Y-106068682D02*
G01*
X218552364Y-106070842D01*
X218566643Y-106074419D01*
X218580503Y-106079378D01*
X218593810Y-106085672D01*
X218606436Y-106093240D01*
X218618259Y-106102008D01*
X218629166Y-106111894D01*
X218639052Y-106122801D01*
X218647820Y-106134624D01*
X218655388Y-106147250D01*
X218661682Y-106160557D01*
X218666641Y-106174417D01*
X218670218Y-106188696D01*
X218672378Y-106203257D01*
X218673100Y-106217960D01*
X218673100Y-106517960D01*
X218672378Y-106532663D01*
X218670218Y-106547224D01*
X218666641Y-106561503D01*
X218661682Y-106575363D01*
X218655388Y-106588670D01*
X218647820Y-106601296D01*
X218639052Y-106613119D01*
X218629166Y-106624026D01*
X218618259Y-106633912D01*
X218606436Y-106642680D01*
X218593810Y-106650248D01*
X218580503Y-106656542D01*
X218566643Y-106661501D01*
X218552364Y-106665078D01*
X218537803Y-106667238D01*
X218523100Y-106667960D01*
X217273100Y-106667960D01*
X217258397Y-106667238D01*
X217243836Y-106665078D01*
X217229557Y-106661501D01*
X217215697Y-106656542D01*
X217202390Y-106650248D01*
X217189764Y-106642680D01*
X217177941Y-106633912D01*
X217167034Y-106624026D01*
X217157148Y-106613119D01*
X217148380Y-106601296D01*
X217140812Y-106588670D01*
X217134518Y-106575363D01*
X217129559Y-106561503D01*
X217125982Y-106547224D01*
X217123822Y-106532663D01*
X217123100Y-106517960D01*
X217123100Y-106217960D01*
X217123822Y-106203257D01*
X217125982Y-106188696D01*
X217129559Y-106174417D01*
X217134518Y-106160557D01*
X217140812Y-106147250D01*
X217148380Y-106134624D01*
X217157148Y-106122801D01*
X217167034Y-106111894D01*
X217177941Y-106102008D01*
X217189764Y-106093240D01*
X217202390Y-106085672D01*
X217215697Y-106079378D01*
X217229557Y-106074419D01*
X217243836Y-106070842D01*
X217258397Y-106068682D01*
X217273100Y-106067960D01*
X218523100Y-106067960D01*
X218537803Y-106068682D01*
G37*
G04 #@! TD.AperFunction*
G04 #@! TA.AperFunction,SMDPad,CuDef*
G36*
X218537803Y-107068682D02*
G01*
X218552364Y-107070842D01*
X218566643Y-107074419D01*
X218580503Y-107079378D01*
X218593810Y-107085672D01*
X218606436Y-107093240D01*
X218618259Y-107102008D01*
X218629166Y-107111894D01*
X218639052Y-107122801D01*
X218647820Y-107134624D01*
X218655388Y-107147250D01*
X218661682Y-107160557D01*
X218666641Y-107174417D01*
X218670218Y-107188696D01*
X218672378Y-107203257D01*
X218673100Y-107217960D01*
X218673100Y-107517960D01*
X218672378Y-107532663D01*
X218670218Y-107547224D01*
X218666641Y-107561503D01*
X218661682Y-107575363D01*
X218655388Y-107588670D01*
X218647820Y-107601296D01*
X218639052Y-107613119D01*
X218629166Y-107624026D01*
X218618259Y-107633912D01*
X218606436Y-107642680D01*
X218593810Y-107650248D01*
X218580503Y-107656542D01*
X218566643Y-107661501D01*
X218552364Y-107665078D01*
X218537803Y-107667238D01*
X218523100Y-107667960D01*
X217273100Y-107667960D01*
X217258397Y-107667238D01*
X217243836Y-107665078D01*
X217229557Y-107661501D01*
X217215697Y-107656542D01*
X217202390Y-107650248D01*
X217189764Y-107642680D01*
X217177941Y-107633912D01*
X217167034Y-107624026D01*
X217157148Y-107613119D01*
X217148380Y-107601296D01*
X217140812Y-107588670D01*
X217134518Y-107575363D01*
X217129559Y-107561503D01*
X217125982Y-107547224D01*
X217123822Y-107532663D01*
X217123100Y-107517960D01*
X217123100Y-107217960D01*
X217123822Y-107203257D01*
X217125982Y-107188696D01*
X217129559Y-107174417D01*
X217134518Y-107160557D01*
X217140812Y-107147250D01*
X217148380Y-107134624D01*
X217157148Y-107122801D01*
X217167034Y-107111894D01*
X217177941Y-107102008D01*
X217189764Y-107093240D01*
X217202390Y-107085672D01*
X217215697Y-107079378D01*
X217229557Y-107074419D01*
X217243836Y-107070842D01*
X217258397Y-107068682D01*
X217273100Y-107067960D01*
X218523100Y-107067960D01*
X218537803Y-107068682D01*
G37*
G04 #@! TD.AperFunction*
G04 #@! TA.AperFunction,SMDPad,CuDef*
G36*
X218537803Y-108068682D02*
G01*
X218552364Y-108070842D01*
X218566643Y-108074419D01*
X218580503Y-108079378D01*
X218593810Y-108085672D01*
X218606436Y-108093240D01*
X218618259Y-108102008D01*
X218629166Y-108111894D01*
X218639052Y-108122801D01*
X218647820Y-108134624D01*
X218655388Y-108147250D01*
X218661682Y-108160557D01*
X218666641Y-108174417D01*
X218670218Y-108188696D01*
X218672378Y-108203257D01*
X218673100Y-108217960D01*
X218673100Y-108517960D01*
X218672378Y-108532663D01*
X218670218Y-108547224D01*
X218666641Y-108561503D01*
X218661682Y-108575363D01*
X218655388Y-108588670D01*
X218647820Y-108601296D01*
X218639052Y-108613119D01*
X218629166Y-108624026D01*
X218618259Y-108633912D01*
X218606436Y-108642680D01*
X218593810Y-108650248D01*
X218580503Y-108656542D01*
X218566643Y-108661501D01*
X218552364Y-108665078D01*
X218537803Y-108667238D01*
X218523100Y-108667960D01*
X217273100Y-108667960D01*
X217258397Y-108667238D01*
X217243836Y-108665078D01*
X217229557Y-108661501D01*
X217215697Y-108656542D01*
X217202390Y-108650248D01*
X217189764Y-108642680D01*
X217177941Y-108633912D01*
X217167034Y-108624026D01*
X217157148Y-108613119D01*
X217148380Y-108601296D01*
X217140812Y-108588670D01*
X217134518Y-108575363D01*
X217129559Y-108561503D01*
X217125982Y-108547224D01*
X217123822Y-108532663D01*
X217123100Y-108517960D01*
X217123100Y-108217960D01*
X217123822Y-108203257D01*
X217125982Y-108188696D01*
X217129559Y-108174417D01*
X217134518Y-108160557D01*
X217140812Y-108147250D01*
X217148380Y-108134624D01*
X217157148Y-108122801D01*
X217167034Y-108111894D01*
X217177941Y-108102008D01*
X217189764Y-108093240D01*
X217202390Y-108085672D01*
X217215697Y-108079378D01*
X217229557Y-108074419D01*
X217243836Y-108070842D01*
X217258397Y-108068682D01*
X217273100Y-108067960D01*
X218523100Y-108067960D01*
X218537803Y-108068682D01*
G37*
G04 #@! TD.AperFunction*
G04 #@! TA.AperFunction,SMDPad,CuDef*
G36*
X218107342Y-89083994D02*
G01*
X218131003Y-89087504D01*
X218154207Y-89093316D01*
X218176729Y-89101374D01*
X218198353Y-89111602D01*
X218218870Y-89123899D01*
X218238083Y-89138149D01*
X218255807Y-89154213D01*
X218271871Y-89171937D01*
X218286121Y-89191150D01*
X218298418Y-89211667D01*
X218308646Y-89233291D01*
X218316704Y-89255813D01*
X218322516Y-89279017D01*
X218326026Y-89302678D01*
X218327200Y-89326570D01*
X218327200Y-89814070D01*
X218326026Y-89837962D01*
X218322516Y-89861623D01*
X218316704Y-89884827D01*
X218308646Y-89907349D01*
X218298418Y-89928973D01*
X218286121Y-89949490D01*
X218271871Y-89968703D01*
X218255807Y-89986427D01*
X218238083Y-90002491D01*
X218218870Y-90016741D01*
X218198353Y-90029038D01*
X218176729Y-90039266D01*
X218154207Y-90047324D01*
X218131003Y-90053136D01*
X218107342Y-90056646D01*
X218083450Y-90057820D01*
X217170950Y-90057820D01*
X217147058Y-90056646D01*
X217123397Y-90053136D01*
X217100193Y-90047324D01*
X217077671Y-90039266D01*
X217056047Y-90029038D01*
X217035530Y-90016741D01*
X217016317Y-90002491D01*
X216998593Y-89986427D01*
X216982529Y-89968703D01*
X216968279Y-89949490D01*
X216955982Y-89928973D01*
X216945754Y-89907349D01*
X216937696Y-89884827D01*
X216931884Y-89861623D01*
X216928374Y-89837962D01*
X216927200Y-89814070D01*
X216927200Y-89326570D01*
X216928374Y-89302678D01*
X216931884Y-89279017D01*
X216937696Y-89255813D01*
X216945754Y-89233291D01*
X216955982Y-89211667D01*
X216968279Y-89191150D01*
X216982529Y-89171937D01*
X216998593Y-89154213D01*
X217016317Y-89138149D01*
X217035530Y-89123899D01*
X217056047Y-89111602D01*
X217077671Y-89101374D01*
X217100193Y-89093316D01*
X217123397Y-89087504D01*
X217147058Y-89083994D01*
X217170950Y-89082820D01*
X218083450Y-89082820D01*
X218107342Y-89083994D01*
G37*
G04 #@! TD.AperFunction*
G04 #@! TA.AperFunction,SMDPad,CuDef*
G36*
X218107342Y-90958994D02*
G01*
X218131003Y-90962504D01*
X218154207Y-90968316D01*
X218176729Y-90976374D01*
X218198353Y-90986602D01*
X218218870Y-90998899D01*
X218238083Y-91013149D01*
X218255807Y-91029213D01*
X218271871Y-91046937D01*
X218286121Y-91066150D01*
X218298418Y-91086667D01*
X218308646Y-91108291D01*
X218316704Y-91130813D01*
X218322516Y-91154017D01*
X218326026Y-91177678D01*
X218327200Y-91201570D01*
X218327200Y-91689070D01*
X218326026Y-91712962D01*
X218322516Y-91736623D01*
X218316704Y-91759827D01*
X218308646Y-91782349D01*
X218298418Y-91803973D01*
X218286121Y-91824490D01*
X218271871Y-91843703D01*
X218255807Y-91861427D01*
X218238083Y-91877491D01*
X218218870Y-91891741D01*
X218198353Y-91904038D01*
X218176729Y-91914266D01*
X218154207Y-91922324D01*
X218131003Y-91928136D01*
X218107342Y-91931646D01*
X218083450Y-91932820D01*
X217170950Y-91932820D01*
X217147058Y-91931646D01*
X217123397Y-91928136D01*
X217100193Y-91922324D01*
X217077671Y-91914266D01*
X217056047Y-91904038D01*
X217035530Y-91891741D01*
X217016317Y-91877491D01*
X216998593Y-91861427D01*
X216982529Y-91843703D01*
X216968279Y-91824490D01*
X216955982Y-91803973D01*
X216945754Y-91782349D01*
X216937696Y-91759827D01*
X216931884Y-91736623D01*
X216928374Y-91712962D01*
X216927200Y-91689070D01*
X216927200Y-91201570D01*
X216928374Y-91177678D01*
X216931884Y-91154017D01*
X216937696Y-91130813D01*
X216945754Y-91108291D01*
X216955982Y-91086667D01*
X216968279Y-91066150D01*
X216982529Y-91046937D01*
X216998593Y-91029213D01*
X217016317Y-91013149D01*
X217035530Y-90998899D01*
X217056047Y-90986602D01*
X217077671Y-90976374D01*
X217100193Y-90968316D01*
X217123397Y-90962504D01*
X217147058Y-90958994D01*
X217170950Y-90957820D01*
X218083450Y-90957820D01*
X218107342Y-90958994D01*
G37*
G04 #@! TD.AperFunction*
D21*
X215444720Y-89634020D03*
X213144720Y-89634020D03*
X213144720Y-91534020D03*
X215444720Y-91534020D03*
G04 #@! TA.AperFunction,SMDPad,CuDef*
D19*
G36*
X211564302Y-86176174D02*
G01*
X211587963Y-86179684D01*
X211611167Y-86185496D01*
X211633689Y-86193554D01*
X211655313Y-86203782D01*
X211675830Y-86216079D01*
X211695043Y-86230329D01*
X211712767Y-86246393D01*
X211728831Y-86264117D01*
X211743081Y-86283330D01*
X211755378Y-86303847D01*
X211765606Y-86325471D01*
X211773664Y-86347993D01*
X211779476Y-86371197D01*
X211782986Y-86394858D01*
X211784160Y-86418750D01*
X211784160Y-86906250D01*
X211782986Y-86930142D01*
X211779476Y-86953803D01*
X211773664Y-86977007D01*
X211765606Y-86999529D01*
X211755378Y-87021153D01*
X211743081Y-87041670D01*
X211728831Y-87060883D01*
X211712767Y-87078607D01*
X211695043Y-87094671D01*
X211675830Y-87108921D01*
X211655313Y-87121218D01*
X211633689Y-87131446D01*
X211611167Y-87139504D01*
X211587963Y-87145316D01*
X211564302Y-87148826D01*
X211540410Y-87150000D01*
X210627910Y-87150000D01*
X210604018Y-87148826D01*
X210580357Y-87145316D01*
X210557153Y-87139504D01*
X210534631Y-87131446D01*
X210513007Y-87121218D01*
X210492490Y-87108921D01*
X210473277Y-87094671D01*
X210455553Y-87078607D01*
X210439489Y-87060883D01*
X210425239Y-87041670D01*
X210412942Y-87021153D01*
X210402714Y-86999529D01*
X210394656Y-86977007D01*
X210388844Y-86953803D01*
X210385334Y-86930142D01*
X210384160Y-86906250D01*
X210384160Y-86418750D01*
X210385334Y-86394858D01*
X210388844Y-86371197D01*
X210394656Y-86347993D01*
X210402714Y-86325471D01*
X210412942Y-86303847D01*
X210425239Y-86283330D01*
X210439489Y-86264117D01*
X210455553Y-86246393D01*
X210473277Y-86230329D01*
X210492490Y-86216079D01*
X210513007Y-86203782D01*
X210534631Y-86193554D01*
X210557153Y-86185496D01*
X210580357Y-86179684D01*
X210604018Y-86176174D01*
X210627910Y-86175000D01*
X211540410Y-86175000D01*
X211564302Y-86176174D01*
G37*
G04 #@! TD.AperFunction*
G04 #@! TA.AperFunction,SMDPad,CuDef*
G36*
X211564302Y-84301174D02*
G01*
X211587963Y-84304684D01*
X211611167Y-84310496D01*
X211633689Y-84318554D01*
X211655313Y-84328782D01*
X211675830Y-84341079D01*
X211695043Y-84355329D01*
X211712767Y-84371393D01*
X211728831Y-84389117D01*
X211743081Y-84408330D01*
X211755378Y-84428847D01*
X211765606Y-84450471D01*
X211773664Y-84472993D01*
X211779476Y-84496197D01*
X211782986Y-84519858D01*
X211784160Y-84543750D01*
X211784160Y-85031250D01*
X211782986Y-85055142D01*
X211779476Y-85078803D01*
X211773664Y-85102007D01*
X211765606Y-85124529D01*
X211755378Y-85146153D01*
X211743081Y-85166670D01*
X211728831Y-85185883D01*
X211712767Y-85203607D01*
X211695043Y-85219671D01*
X211675830Y-85233921D01*
X211655313Y-85246218D01*
X211633689Y-85256446D01*
X211611167Y-85264504D01*
X211587963Y-85270316D01*
X211564302Y-85273826D01*
X211540410Y-85275000D01*
X210627910Y-85275000D01*
X210604018Y-85273826D01*
X210580357Y-85270316D01*
X210557153Y-85264504D01*
X210534631Y-85256446D01*
X210513007Y-85246218D01*
X210492490Y-85233921D01*
X210473277Y-85219671D01*
X210455553Y-85203607D01*
X210439489Y-85185883D01*
X210425239Y-85166670D01*
X210412942Y-85146153D01*
X210402714Y-85124529D01*
X210394656Y-85102007D01*
X210388844Y-85078803D01*
X210385334Y-85055142D01*
X210384160Y-85031250D01*
X210384160Y-84543750D01*
X210385334Y-84519858D01*
X210388844Y-84496197D01*
X210394656Y-84472993D01*
X210402714Y-84450471D01*
X210412942Y-84428847D01*
X210425239Y-84408330D01*
X210439489Y-84389117D01*
X210455553Y-84371393D01*
X210473277Y-84355329D01*
X210492490Y-84341079D01*
X210513007Y-84328782D01*
X210534631Y-84318554D01*
X210557153Y-84310496D01*
X210580357Y-84304684D01*
X210604018Y-84301174D01*
X210627910Y-84300000D01*
X211540410Y-84300000D01*
X211564302Y-84301174D01*
G37*
G04 #@! TD.AperFunction*
G04 #@! TA.AperFunction,SMDPad,CuDef*
G36*
X217980342Y-84278314D02*
G01*
X218004003Y-84281824D01*
X218027207Y-84287636D01*
X218049729Y-84295694D01*
X218071353Y-84305922D01*
X218091870Y-84318219D01*
X218111083Y-84332469D01*
X218128807Y-84348533D01*
X218144871Y-84366257D01*
X218159121Y-84385470D01*
X218171418Y-84405987D01*
X218181646Y-84427611D01*
X218189704Y-84450133D01*
X218195516Y-84473337D01*
X218199026Y-84496998D01*
X218200200Y-84520890D01*
X218200200Y-85008390D01*
X218199026Y-85032282D01*
X218195516Y-85055943D01*
X218189704Y-85079147D01*
X218181646Y-85101669D01*
X218171418Y-85123293D01*
X218159121Y-85143810D01*
X218144871Y-85163023D01*
X218128807Y-85180747D01*
X218111083Y-85196811D01*
X218091870Y-85211061D01*
X218071353Y-85223358D01*
X218049729Y-85233586D01*
X218027207Y-85241644D01*
X218004003Y-85247456D01*
X217980342Y-85250966D01*
X217956450Y-85252140D01*
X217043950Y-85252140D01*
X217020058Y-85250966D01*
X216996397Y-85247456D01*
X216973193Y-85241644D01*
X216950671Y-85233586D01*
X216929047Y-85223358D01*
X216908530Y-85211061D01*
X216889317Y-85196811D01*
X216871593Y-85180747D01*
X216855529Y-85163023D01*
X216841279Y-85143810D01*
X216828982Y-85123293D01*
X216818754Y-85101669D01*
X216810696Y-85079147D01*
X216804884Y-85055943D01*
X216801374Y-85032282D01*
X216800200Y-85008390D01*
X216800200Y-84520890D01*
X216801374Y-84496998D01*
X216804884Y-84473337D01*
X216810696Y-84450133D01*
X216818754Y-84427611D01*
X216828982Y-84405987D01*
X216841279Y-84385470D01*
X216855529Y-84366257D01*
X216871593Y-84348533D01*
X216889317Y-84332469D01*
X216908530Y-84318219D01*
X216929047Y-84305922D01*
X216950671Y-84295694D01*
X216973193Y-84287636D01*
X216996397Y-84281824D01*
X217020058Y-84278314D01*
X217043950Y-84277140D01*
X217956450Y-84277140D01*
X217980342Y-84278314D01*
G37*
G04 #@! TD.AperFunction*
G04 #@! TA.AperFunction,SMDPad,CuDef*
G36*
X217980342Y-86153314D02*
G01*
X218004003Y-86156824D01*
X218027207Y-86162636D01*
X218049729Y-86170694D01*
X218071353Y-86180922D01*
X218091870Y-86193219D01*
X218111083Y-86207469D01*
X218128807Y-86223533D01*
X218144871Y-86241257D01*
X218159121Y-86260470D01*
X218171418Y-86280987D01*
X218181646Y-86302611D01*
X218189704Y-86325133D01*
X218195516Y-86348337D01*
X218199026Y-86371998D01*
X218200200Y-86395890D01*
X218200200Y-86883390D01*
X218199026Y-86907282D01*
X218195516Y-86930943D01*
X218189704Y-86954147D01*
X218181646Y-86976669D01*
X218171418Y-86998293D01*
X218159121Y-87018810D01*
X218144871Y-87038023D01*
X218128807Y-87055747D01*
X218111083Y-87071811D01*
X218091870Y-87086061D01*
X218071353Y-87098358D01*
X218049729Y-87108586D01*
X218027207Y-87116644D01*
X218004003Y-87122456D01*
X217980342Y-87125966D01*
X217956450Y-87127140D01*
X217043950Y-87127140D01*
X217020058Y-87125966D01*
X216996397Y-87122456D01*
X216973193Y-87116644D01*
X216950671Y-87108586D01*
X216929047Y-87098358D01*
X216908530Y-87086061D01*
X216889317Y-87071811D01*
X216871593Y-87055747D01*
X216855529Y-87038023D01*
X216841279Y-87018810D01*
X216828982Y-86998293D01*
X216818754Y-86976669D01*
X216810696Y-86954147D01*
X216804884Y-86930943D01*
X216801374Y-86907282D01*
X216800200Y-86883390D01*
X216800200Y-86395890D01*
X216801374Y-86371998D01*
X216804884Y-86348337D01*
X216810696Y-86325133D01*
X216818754Y-86302611D01*
X216828982Y-86280987D01*
X216841279Y-86260470D01*
X216855529Y-86241257D01*
X216871593Y-86223533D01*
X216889317Y-86207469D01*
X216908530Y-86193219D01*
X216929047Y-86180922D01*
X216950671Y-86170694D01*
X216973193Y-86162636D01*
X216996397Y-86156824D01*
X217020058Y-86153314D01*
X217043950Y-86152140D01*
X217956450Y-86152140D01*
X217980342Y-86153314D01*
G37*
G04 #@! TD.AperFunction*
G04 #@! TA.AperFunction,SMDPad,CuDef*
G36*
X218348642Y-76965654D02*
G01*
X218372303Y-76969164D01*
X218395507Y-76974976D01*
X218418029Y-76983034D01*
X218439653Y-76993262D01*
X218460170Y-77005559D01*
X218479383Y-77019809D01*
X218497107Y-77035873D01*
X218513171Y-77053597D01*
X218527421Y-77072810D01*
X218539718Y-77093327D01*
X218549946Y-77114951D01*
X218558004Y-77137473D01*
X218563816Y-77160677D01*
X218567326Y-77184338D01*
X218568500Y-77208230D01*
X218568500Y-77695730D01*
X218567326Y-77719622D01*
X218563816Y-77743283D01*
X218558004Y-77766487D01*
X218549946Y-77789009D01*
X218539718Y-77810633D01*
X218527421Y-77831150D01*
X218513171Y-77850363D01*
X218497107Y-77868087D01*
X218479383Y-77884151D01*
X218460170Y-77898401D01*
X218439653Y-77910698D01*
X218418029Y-77920926D01*
X218395507Y-77928984D01*
X218372303Y-77934796D01*
X218348642Y-77938306D01*
X218324750Y-77939480D01*
X217412250Y-77939480D01*
X217388358Y-77938306D01*
X217364697Y-77934796D01*
X217341493Y-77928984D01*
X217318971Y-77920926D01*
X217297347Y-77910698D01*
X217276830Y-77898401D01*
X217257617Y-77884151D01*
X217239893Y-77868087D01*
X217223829Y-77850363D01*
X217209579Y-77831150D01*
X217197282Y-77810633D01*
X217187054Y-77789009D01*
X217178996Y-77766487D01*
X217173184Y-77743283D01*
X217169674Y-77719622D01*
X217168500Y-77695730D01*
X217168500Y-77208230D01*
X217169674Y-77184338D01*
X217173184Y-77160677D01*
X217178996Y-77137473D01*
X217187054Y-77114951D01*
X217197282Y-77093327D01*
X217209579Y-77072810D01*
X217223829Y-77053597D01*
X217239893Y-77035873D01*
X217257617Y-77019809D01*
X217276830Y-77005559D01*
X217297347Y-76993262D01*
X217318971Y-76983034D01*
X217341493Y-76974976D01*
X217364697Y-76969164D01*
X217388358Y-76965654D01*
X217412250Y-76964480D01*
X218324750Y-76964480D01*
X218348642Y-76965654D01*
G37*
G04 #@! TD.AperFunction*
G04 #@! TA.AperFunction,SMDPad,CuDef*
G36*
X218348642Y-78840654D02*
G01*
X218372303Y-78844164D01*
X218395507Y-78849976D01*
X218418029Y-78858034D01*
X218439653Y-78868262D01*
X218460170Y-78880559D01*
X218479383Y-78894809D01*
X218497107Y-78910873D01*
X218513171Y-78928597D01*
X218527421Y-78947810D01*
X218539718Y-78968327D01*
X218549946Y-78989951D01*
X218558004Y-79012473D01*
X218563816Y-79035677D01*
X218567326Y-79059338D01*
X218568500Y-79083230D01*
X218568500Y-79570730D01*
X218567326Y-79594622D01*
X218563816Y-79618283D01*
X218558004Y-79641487D01*
X218549946Y-79664009D01*
X218539718Y-79685633D01*
X218527421Y-79706150D01*
X218513171Y-79725363D01*
X218497107Y-79743087D01*
X218479383Y-79759151D01*
X218460170Y-79773401D01*
X218439653Y-79785698D01*
X218418029Y-79795926D01*
X218395507Y-79803984D01*
X218372303Y-79809796D01*
X218348642Y-79813306D01*
X218324750Y-79814480D01*
X217412250Y-79814480D01*
X217388358Y-79813306D01*
X217364697Y-79809796D01*
X217341493Y-79803984D01*
X217318971Y-79795926D01*
X217297347Y-79785698D01*
X217276830Y-79773401D01*
X217257617Y-79759151D01*
X217239893Y-79743087D01*
X217223829Y-79725363D01*
X217209579Y-79706150D01*
X217197282Y-79685633D01*
X217187054Y-79664009D01*
X217178996Y-79641487D01*
X217173184Y-79618283D01*
X217169674Y-79594622D01*
X217168500Y-79570730D01*
X217168500Y-79083230D01*
X217169674Y-79059338D01*
X217173184Y-79035677D01*
X217178996Y-79012473D01*
X217187054Y-78989951D01*
X217197282Y-78968327D01*
X217209579Y-78947810D01*
X217223829Y-78928597D01*
X217239893Y-78910873D01*
X217257617Y-78894809D01*
X217276830Y-78880559D01*
X217297347Y-78868262D01*
X217318971Y-78858034D01*
X217341493Y-78849976D01*
X217364697Y-78844164D01*
X217388358Y-78840654D01*
X217412250Y-78839480D01*
X218324750Y-78839480D01*
X218348642Y-78840654D01*
G37*
G04 #@! TD.AperFunction*
G04 #@! TA.AperFunction,SMDPad,CuDef*
G36*
X206613842Y-78878754D02*
G01*
X206637503Y-78882264D01*
X206660707Y-78888076D01*
X206683229Y-78896134D01*
X206704853Y-78906362D01*
X206725370Y-78918659D01*
X206744583Y-78932909D01*
X206762307Y-78948973D01*
X206778371Y-78966697D01*
X206792621Y-78985910D01*
X206804918Y-79006427D01*
X206815146Y-79028051D01*
X206823204Y-79050573D01*
X206829016Y-79073777D01*
X206832526Y-79097438D01*
X206833700Y-79121330D01*
X206833700Y-79608830D01*
X206832526Y-79632722D01*
X206829016Y-79656383D01*
X206823204Y-79679587D01*
X206815146Y-79702109D01*
X206804918Y-79723733D01*
X206792621Y-79744250D01*
X206778371Y-79763463D01*
X206762307Y-79781187D01*
X206744583Y-79797251D01*
X206725370Y-79811501D01*
X206704853Y-79823798D01*
X206683229Y-79834026D01*
X206660707Y-79842084D01*
X206637503Y-79847896D01*
X206613842Y-79851406D01*
X206589950Y-79852580D01*
X205677450Y-79852580D01*
X205653558Y-79851406D01*
X205629897Y-79847896D01*
X205606693Y-79842084D01*
X205584171Y-79834026D01*
X205562547Y-79823798D01*
X205542030Y-79811501D01*
X205522817Y-79797251D01*
X205505093Y-79781187D01*
X205489029Y-79763463D01*
X205474779Y-79744250D01*
X205462482Y-79723733D01*
X205452254Y-79702109D01*
X205444196Y-79679587D01*
X205438384Y-79656383D01*
X205434874Y-79632722D01*
X205433700Y-79608830D01*
X205433700Y-79121330D01*
X205434874Y-79097438D01*
X205438384Y-79073777D01*
X205444196Y-79050573D01*
X205452254Y-79028051D01*
X205462482Y-79006427D01*
X205474779Y-78985910D01*
X205489029Y-78966697D01*
X205505093Y-78948973D01*
X205522817Y-78932909D01*
X205542030Y-78918659D01*
X205562547Y-78906362D01*
X205584171Y-78896134D01*
X205606693Y-78888076D01*
X205629897Y-78882264D01*
X205653558Y-78878754D01*
X205677450Y-78877580D01*
X206589950Y-78877580D01*
X206613842Y-78878754D01*
G37*
G04 #@! TD.AperFunction*
G04 #@! TA.AperFunction,SMDPad,CuDef*
G36*
X206613842Y-77003754D02*
G01*
X206637503Y-77007264D01*
X206660707Y-77013076D01*
X206683229Y-77021134D01*
X206704853Y-77031362D01*
X206725370Y-77043659D01*
X206744583Y-77057909D01*
X206762307Y-77073973D01*
X206778371Y-77091697D01*
X206792621Y-77110910D01*
X206804918Y-77131427D01*
X206815146Y-77153051D01*
X206823204Y-77175573D01*
X206829016Y-77198777D01*
X206832526Y-77222438D01*
X206833700Y-77246330D01*
X206833700Y-77733830D01*
X206832526Y-77757722D01*
X206829016Y-77781383D01*
X206823204Y-77804587D01*
X206815146Y-77827109D01*
X206804918Y-77848733D01*
X206792621Y-77869250D01*
X206778371Y-77888463D01*
X206762307Y-77906187D01*
X206744583Y-77922251D01*
X206725370Y-77936501D01*
X206704853Y-77948798D01*
X206683229Y-77959026D01*
X206660707Y-77967084D01*
X206637503Y-77972896D01*
X206613842Y-77976406D01*
X206589950Y-77977580D01*
X205677450Y-77977580D01*
X205653558Y-77976406D01*
X205629897Y-77972896D01*
X205606693Y-77967084D01*
X205584171Y-77959026D01*
X205562547Y-77948798D01*
X205542030Y-77936501D01*
X205522817Y-77922251D01*
X205505093Y-77906187D01*
X205489029Y-77888463D01*
X205474779Y-77869250D01*
X205462482Y-77848733D01*
X205452254Y-77827109D01*
X205444196Y-77804587D01*
X205438384Y-77781383D01*
X205434874Y-77757722D01*
X205433700Y-77733830D01*
X205433700Y-77246330D01*
X205434874Y-77222438D01*
X205438384Y-77198777D01*
X205444196Y-77175573D01*
X205452254Y-77153051D01*
X205462482Y-77131427D01*
X205474779Y-77110910D01*
X205489029Y-77091697D01*
X205505093Y-77073973D01*
X205522817Y-77057909D01*
X205542030Y-77043659D01*
X205562547Y-77031362D01*
X205584171Y-77021134D01*
X205606693Y-77013076D01*
X205629897Y-77007264D01*
X205653558Y-77003754D01*
X205677450Y-77002580D01*
X206589950Y-77002580D01*
X206613842Y-77003754D01*
G37*
G04 #@! TD.AperFunction*
G04 #@! TA.AperFunction,SMDPad,CuDef*
G36*
X206413802Y-97375654D02*
G01*
X206437463Y-97379164D01*
X206460667Y-97384976D01*
X206483189Y-97393034D01*
X206504813Y-97403262D01*
X206525330Y-97415559D01*
X206544543Y-97429809D01*
X206562267Y-97445873D01*
X206578331Y-97463597D01*
X206592581Y-97482810D01*
X206604878Y-97503327D01*
X206615106Y-97524951D01*
X206623164Y-97547473D01*
X206628976Y-97570677D01*
X206632486Y-97594338D01*
X206633660Y-97618230D01*
X206633660Y-98530730D01*
X206632486Y-98554622D01*
X206628976Y-98578283D01*
X206623164Y-98601487D01*
X206615106Y-98624009D01*
X206604878Y-98645633D01*
X206592581Y-98666150D01*
X206578331Y-98685363D01*
X206562267Y-98703087D01*
X206544543Y-98719151D01*
X206525330Y-98733401D01*
X206504813Y-98745698D01*
X206483189Y-98755926D01*
X206460667Y-98763984D01*
X206437463Y-98769796D01*
X206413802Y-98773306D01*
X206389910Y-98774480D01*
X205902410Y-98774480D01*
X205878518Y-98773306D01*
X205854857Y-98769796D01*
X205831653Y-98763984D01*
X205809131Y-98755926D01*
X205787507Y-98745698D01*
X205766990Y-98733401D01*
X205747777Y-98719151D01*
X205730053Y-98703087D01*
X205713989Y-98685363D01*
X205699739Y-98666150D01*
X205687442Y-98645633D01*
X205677214Y-98624009D01*
X205669156Y-98601487D01*
X205663344Y-98578283D01*
X205659834Y-98554622D01*
X205658660Y-98530730D01*
X205658660Y-97618230D01*
X205659834Y-97594338D01*
X205663344Y-97570677D01*
X205669156Y-97547473D01*
X205677214Y-97524951D01*
X205687442Y-97503327D01*
X205699739Y-97482810D01*
X205713989Y-97463597D01*
X205730053Y-97445873D01*
X205747777Y-97429809D01*
X205766990Y-97415559D01*
X205787507Y-97403262D01*
X205809131Y-97393034D01*
X205831653Y-97384976D01*
X205854857Y-97379164D01*
X205878518Y-97375654D01*
X205902410Y-97374480D01*
X206389910Y-97374480D01*
X206413802Y-97375654D01*
G37*
G04 #@! TD.AperFunction*
G04 #@! TA.AperFunction,SMDPad,CuDef*
G36*
X208288802Y-97375654D02*
G01*
X208312463Y-97379164D01*
X208335667Y-97384976D01*
X208358189Y-97393034D01*
X208379813Y-97403262D01*
X208400330Y-97415559D01*
X208419543Y-97429809D01*
X208437267Y-97445873D01*
X208453331Y-97463597D01*
X208467581Y-97482810D01*
X208479878Y-97503327D01*
X208490106Y-97524951D01*
X208498164Y-97547473D01*
X208503976Y-97570677D01*
X208507486Y-97594338D01*
X208508660Y-97618230D01*
X208508660Y-98530730D01*
X208507486Y-98554622D01*
X208503976Y-98578283D01*
X208498164Y-98601487D01*
X208490106Y-98624009D01*
X208479878Y-98645633D01*
X208467581Y-98666150D01*
X208453331Y-98685363D01*
X208437267Y-98703087D01*
X208419543Y-98719151D01*
X208400330Y-98733401D01*
X208379813Y-98745698D01*
X208358189Y-98755926D01*
X208335667Y-98763984D01*
X208312463Y-98769796D01*
X208288802Y-98773306D01*
X208264910Y-98774480D01*
X207777410Y-98774480D01*
X207753518Y-98773306D01*
X207729857Y-98769796D01*
X207706653Y-98763984D01*
X207684131Y-98755926D01*
X207662507Y-98745698D01*
X207641990Y-98733401D01*
X207622777Y-98719151D01*
X207605053Y-98703087D01*
X207588989Y-98685363D01*
X207574739Y-98666150D01*
X207562442Y-98645633D01*
X207552214Y-98624009D01*
X207544156Y-98601487D01*
X207538344Y-98578283D01*
X207534834Y-98554622D01*
X207533660Y-98530730D01*
X207533660Y-97618230D01*
X207534834Y-97594338D01*
X207538344Y-97570677D01*
X207544156Y-97547473D01*
X207552214Y-97524951D01*
X207562442Y-97503327D01*
X207574739Y-97482810D01*
X207588989Y-97463597D01*
X207605053Y-97445873D01*
X207622777Y-97429809D01*
X207641990Y-97415559D01*
X207662507Y-97403262D01*
X207684131Y-97393034D01*
X207706653Y-97384976D01*
X207729857Y-97379164D01*
X207753518Y-97375654D01*
X207777410Y-97374480D01*
X208264910Y-97374480D01*
X208288802Y-97375654D01*
G37*
G04 #@! TD.AperFunction*
G04 #@! TA.AperFunction,SMDPad,CuDef*
G36*
X212759202Y-97284214D02*
G01*
X212782863Y-97287724D01*
X212806067Y-97293536D01*
X212828589Y-97301594D01*
X212850213Y-97311822D01*
X212870730Y-97324119D01*
X212889943Y-97338369D01*
X212907667Y-97354433D01*
X212923731Y-97372157D01*
X212937981Y-97391370D01*
X212950278Y-97411887D01*
X212960506Y-97433511D01*
X212968564Y-97456033D01*
X212974376Y-97479237D01*
X212977886Y-97502898D01*
X212979060Y-97526790D01*
X212979060Y-98439290D01*
X212977886Y-98463182D01*
X212974376Y-98486843D01*
X212968564Y-98510047D01*
X212960506Y-98532569D01*
X212950278Y-98554193D01*
X212937981Y-98574710D01*
X212923731Y-98593923D01*
X212907667Y-98611647D01*
X212889943Y-98627711D01*
X212870730Y-98641961D01*
X212850213Y-98654258D01*
X212828589Y-98664486D01*
X212806067Y-98672544D01*
X212782863Y-98678356D01*
X212759202Y-98681866D01*
X212735310Y-98683040D01*
X212247810Y-98683040D01*
X212223918Y-98681866D01*
X212200257Y-98678356D01*
X212177053Y-98672544D01*
X212154531Y-98664486D01*
X212132907Y-98654258D01*
X212112390Y-98641961D01*
X212093177Y-98627711D01*
X212075453Y-98611647D01*
X212059389Y-98593923D01*
X212045139Y-98574710D01*
X212032842Y-98554193D01*
X212022614Y-98532569D01*
X212014556Y-98510047D01*
X212008744Y-98486843D01*
X212005234Y-98463182D01*
X212004060Y-98439290D01*
X212004060Y-97526790D01*
X212005234Y-97502898D01*
X212008744Y-97479237D01*
X212014556Y-97456033D01*
X212022614Y-97433511D01*
X212032842Y-97411887D01*
X212045139Y-97391370D01*
X212059389Y-97372157D01*
X212075453Y-97354433D01*
X212093177Y-97338369D01*
X212112390Y-97324119D01*
X212132907Y-97311822D01*
X212154531Y-97301594D01*
X212177053Y-97293536D01*
X212200257Y-97287724D01*
X212223918Y-97284214D01*
X212247810Y-97283040D01*
X212735310Y-97283040D01*
X212759202Y-97284214D01*
G37*
G04 #@! TD.AperFunction*
G04 #@! TA.AperFunction,SMDPad,CuDef*
G36*
X210884202Y-97284214D02*
G01*
X210907863Y-97287724D01*
X210931067Y-97293536D01*
X210953589Y-97301594D01*
X210975213Y-97311822D01*
X210995730Y-97324119D01*
X211014943Y-97338369D01*
X211032667Y-97354433D01*
X211048731Y-97372157D01*
X211062981Y-97391370D01*
X211075278Y-97411887D01*
X211085506Y-97433511D01*
X211093564Y-97456033D01*
X211099376Y-97479237D01*
X211102886Y-97502898D01*
X211104060Y-97526790D01*
X211104060Y-98439290D01*
X211102886Y-98463182D01*
X211099376Y-98486843D01*
X211093564Y-98510047D01*
X211085506Y-98532569D01*
X211075278Y-98554193D01*
X211062981Y-98574710D01*
X211048731Y-98593923D01*
X211032667Y-98611647D01*
X211014943Y-98627711D01*
X210995730Y-98641961D01*
X210975213Y-98654258D01*
X210953589Y-98664486D01*
X210931067Y-98672544D01*
X210907863Y-98678356D01*
X210884202Y-98681866D01*
X210860310Y-98683040D01*
X210372810Y-98683040D01*
X210348918Y-98681866D01*
X210325257Y-98678356D01*
X210302053Y-98672544D01*
X210279531Y-98664486D01*
X210257907Y-98654258D01*
X210237390Y-98641961D01*
X210218177Y-98627711D01*
X210200453Y-98611647D01*
X210184389Y-98593923D01*
X210170139Y-98574710D01*
X210157842Y-98554193D01*
X210147614Y-98532569D01*
X210139556Y-98510047D01*
X210133744Y-98486843D01*
X210130234Y-98463182D01*
X210129060Y-98439290D01*
X210129060Y-97526790D01*
X210130234Y-97502898D01*
X210133744Y-97479237D01*
X210139556Y-97456033D01*
X210147614Y-97433511D01*
X210157842Y-97411887D01*
X210170139Y-97391370D01*
X210184389Y-97372157D01*
X210200453Y-97354433D01*
X210218177Y-97338369D01*
X210237390Y-97324119D01*
X210257907Y-97311822D01*
X210279531Y-97301594D01*
X210302053Y-97293536D01*
X210325257Y-97287724D01*
X210348918Y-97284214D01*
X210372810Y-97283040D01*
X210860310Y-97283040D01*
X210884202Y-97284214D01*
G37*
G04 #@! TD.AperFunction*
G04 #@! TA.AperFunction,SMDPad,CuDef*
G36*
X218325782Y-82604934D02*
G01*
X218349443Y-82608444D01*
X218372647Y-82614256D01*
X218395169Y-82622314D01*
X218416793Y-82632542D01*
X218437310Y-82644839D01*
X218456523Y-82659089D01*
X218474247Y-82675153D01*
X218490311Y-82692877D01*
X218504561Y-82712090D01*
X218516858Y-82732607D01*
X218527086Y-82754231D01*
X218535144Y-82776753D01*
X218540956Y-82799957D01*
X218544466Y-82823618D01*
X218545640Y-82847510D01*
X218545640Y-83335010D01*
X218544466Y-83358902D01*
X218540956Y-83382563D01*
X218535144Y-83405767D01*
X218527086Y-83428289D01*
X218516858Y-83449913D01*
X218504561Y-83470430D01*
X218490311Y-83489643D01*
X218474247Y-83507367D01*
X218456523Y-83523431D01*
X218437310Y-83537681D01*
X218416793Y-83549978D01*
X218395169Y-83560206D01*
X218372647Y-83568264D01*
X218349443Y-83574076D01*
X218325782Y-83577586D01*
X218301890Y-83578760D01*
X217389390Y-83578760D01*
X217365498Y-83577586D01*
X217341837Y-83574076D01*
X217318633Y-83568264D01*
X217296111Y-83560206D01*
X217274487Y-83549978D01*
X217253970Y-83537681D01*
X217234757Y-83523431D01*
X217217033Y-83507367D01*
X217200969Y-83489643D01*
X217186719Y-83470430D01*
X217174422Y-83449913D01*
X217164194Y-83428289D01*
X217156136Y-83405767D01*
X217150324Y-83382563D01*
X217146814Y-83358902D01*
X217145640Y-83335010D01*
X217145640Y-82847510D01*
X217146814Y-82823618D01*
X217150324Y-82799957D01*
X217156136Y-82776753D01*
X217164194Y-82754231D01*
X217174422Y-82732607D01*
X217186719Y-82712090D01*
X217200969Y-82692877D01*
X217217033Y-82675153D01*
X217234757Y-82659089D01*
X217253970Y-82644839D01*
X217274487Y-82632542D01*
X217296111Y-82622314D01*
X217318633Y-82614256D01*
X217341837Y-82608444D01*
X217365498Y-82604934D01*
X217389390Y-82603760D01*
X218301890Y-82603760D01*
X218325782Y-82604934D01*
G37*
G04 #@! TD.AperFunction*
G04 #@! TA.AperFunction,SMDPad,CuDef*
G36*
X218325782Y-80729934D02*
G01*
X218349443Y-80733444D01*
X218372647Y-80739256D01*
X218395169Y-80747314D01*
X218416793Y-80757542D01*
X218437310Y-80769839D01*
X218456523Y-80784089D01*
X218474247Y-80800153D01*
X218490311Y-80817877D01*
X218504561Y-80837090D01*
X218516858Y-80857607D01*
X218527086Y-80879231D01*
X218535144Y-80901753D01*
X218540956Y-80924957D01*
X218544466Y-80948618D01*
X218545640Y-80972510D01*
X218545640Y-81460010D01*
X218544466Y-81483902D01*
X218540956Y-81507563D01*
X218535144Y-81530767D01*
X218527086Y-81553289D01*
X218516858Y-81574913D01*
X218504561Y-81595430D01*
X218490311Y-81614643D01*
X218474247Y-81632367D01*
X218456523Y-81648431D01*
X218437310Y-81662681D01*
X218416793Y-81674978D01*
X218395169Y-81685206D01*
X218372647Y-81693264D01*
X218349443Y-81699076D01*
X218325782Y-81702586D01*
X218301890Y-81703760D01*
X217389390Y-81703760D01*
X217365498Y-81702586D01*
X217341837Y-81699076D01*
X217318633Y-81693264D01*
X217296111Y-81685206D01*
X217274487Y-81674978D01*
X217253970Y-81662681D01*
X217234757Y-81648431D01*
X217217033Y-81632367D01*
X217200969Y-81614643D01*
X217186719Y-81595430D01*
X217174422Y-81574913D01*
X217164194Y-81553289D01*
X217156136Y-81530767D01*
X217150324Y-81507563D01*
X217146814Y-81483902D01*
X217145640Y-81460010D01*
X217145640Y-80972510D01*
X217146814Y-80948618D01*
X217150324Y-80924957D01*
X217156136Y-80901753D01*
X217164194Y-80879231D01*
X217174422Y-80857607D01*
X217186719Y-80837090D01*
X217200969Y-80817877D01*
X217217033Y-80800153D01*
X217234757Y-80784089D01*
X217253970Y-80769839D01*
X217274487Y-80757542D01*
X217296111Y-80747314D01*
X217318633Y-80739256D01*
X217341837Y-80733444D01*
X217365498Y-80729934D01*
X217389390Y-80728760D01*
X218301890Y-80728760D01*
X218325782Y-80729934D01*
G37*
G04 #@! TD.AperFunction*
G04 #@! TA.AperFunction,SMDPad,CuDef*
G36*
X206687502Y-82521114D02*
G01*
X206711163Y-82524624D01*
X206734367Y-82530436D01*
X206756889Y-82538494D01*
X206778513Y-82548722D01*
X206799030Y-82561019D01*
X206818243Y-82575269D01*
X206835967Y-82591333D01*
X206852031Y-82609057D01*
X206866281Y-82628270D01*
X206878578Y-82648787D01*
X206888806Y-82670411D01*
X206896864Y-82692933D01*
X206902676Y-82716137D01*
X206906186Y-82739798D01*
X206907360Y-82763690D01*
X206907360Y-83251190D01*
X206906186Y-83275082D01*
X206902676Y-83298743D01*
X206896864Y-83321947D01*
X206888806Y-83344469D01*
X206878578Y-83366093D01*
X206866281Y-83386610D01*
X206852031Y-83405823D01*
X206835967Y-83423547D01*
X206818243Y-83439611D01*
X206799030Y-83453861D01*
X206778513Y-83466158D01*
X206756889Y-83476386D01*
X206734367Y-83484444D01*
X206711163Y-83490256D01*
X206687502Y-83493766D01*
X206663610Y-83494940D01*
X205751110Y-83494940D01*
X205727218Y-83493766D01*
X205703557Y-83490256D01*
X205680353Y-83484444D01*
X205657831Y-83476386D01*
X205636207Y-83466158D01*
X205615690Y-83453861D01*
X205596477Y-83439611D01*
X205578753Y-83423547D01*
X205562689Y-83405823D01*
X205548439Y-83386610D01*
X205536142Y-83366093D01*
X205525914Y-83344469D01*
X205517856Y-83321947D01*
X205512044Y-83298743D01*
X205508534Y-83275082D01*
X205507360Y-83251190D01*
X205507360Y-82763690D01*
X205508534Y-82739798D01*
X205512044Y-82716137D01*
X205517856Y-82692933D01*
X205525914Y-82670411D01*
X205536142Y-82648787D01*
X205548439Y-82628270D01*
X205562689Y-82609057D01*
X205578753Y-82591333D01*
X205596477Y-82575269D01*
X205615690Y-82561019D01*
X205636207Y-82548722D01*
X205657831Y-82538494D01*
X205680353Y-82530436D01*
X205703557Y-82524624D01*
X205727218Y-82521114D01*
X205751110Y-82519940D01*
X206663610Y-82519940D01*
X206687502Y-82521114D01*
G37*
G04 #@! TD.AperFunction*
G04 #@! TA.AperFunction,SMDPad,CuDef*
G36*
X206687502Y-80646114D02*
G01*
X206711163Y-80649624D01*
X206734367Y-80655436D01*
X206756889Y-80663494D01*
X206778513Y-80673722D01*
X206799030Y-80686019D01*
X206818243Y-80700269D01*
X206835967Y-80716333D01*
X206852031Y-80734057D01*
X206866281Y-80753270D01*
X206878578Y-80773787D01*
X206888806Y-80795411D01*
X206896864Y-80817933D01*
X206902676Y-80841137D01*
X206906186Y-80864798D01*
X206907360Y-80888690D01*
X206907360Y-81376190D01*
X206906186Y-81400082D01*
X206902676Y-81423743D01*
X206896864Y-81446947D01*
X206888806Y-81469469D01*
X206878578Y-81491093D01*
X206866281Y-81511610D01*
X206852031Y-81530823D01*
X206835967Y-81548547D01*
X206818243Y-81564611D01*
X206799030Y-81578861D01*
X206778513Y-81591158D01*
X206756889Y-81601386D01*
X206734367Y-81609444D01*
X206711163Y-81615256D01*
X206687502Y-81618766D01*
X206663610Y-81619940D01*
X205751110Y-81619940D01*
X205727218Y-81618766D01*
X205703557Y-81615256D01*
X205680353Y-81609444D01*
X205657831Y-81601386D01*
X205636207Y-81591158D01*
X205615690Y-81578861D01*
X205596477Y-81564611D01*
X205578753Y-81548547D01*
X205562689Y-81530823D01*
X205548439Y-81511610D01*
X205536142Y-81491093D01*
X205525914Y-81469469D01*
X205517856Y-81446947D01*
X205512044Y-81423743D01*
X205508534Y-81400082D01*
X205507360Y-81376190D01*
X205507360Y-80888690D01*
X205508534Y-80864798D01*
X205512044Y-80841137D01*
X205517856Y-80817933D01*
X205525914Y-80795411D01*
X205536142Y-80773787D01*
X205548439Y-80753270D01*
X205562689Y-80734057D01*
X205578753Y-80716333D01*
X205596477Y-80700269D01*
X205615690Y-80686019D01*
X205636207Y-80673722D01*
X205657831Y-80663494D01*
X205680353Y-80655436D01*
X205703557Y-80649624D01*
X205727218Y-80646114D01*
X205751110Y-80644940D01*
X206663610Y-80644940D01*
X206687502Y-80646114D01*
G37*
G04 #@! TD.AperFunction*
D22*
X213164240Y-84757220D03*
X213164240Y-85707220D03*
X213164240Y-86657220D03*
X215364240Y-86657220D03*
X215364240Y-84757220D03*
D23*
X216364820Y-108381800D03*
X209804000Y-108752640D03*
X216429419Y-100364030D03*
X222450660Y-102979220D03*
X214090090Y-97881440D03*
X213493373Y-93208033D03*
X209361830Y-98301031D03*
X209922647Y-93839458D03*
X205986380Y-92290900D03*
X218542794Y-104428532D03*
X217594180Y-104112060D03*
X208353660Y-93817440D03*
X207975200Y-83385660D03*
X202354180Y-109694980D03*
X208610200Y-92765880D03*
X210268004Y-94980760D03*
X212181440Y-101391720D03*
X212791040Y-96050100D03*
X213365080Y-103886000D03*
X209016738Y-97204875D03*
X205793340Y-93767750D03*
X211845752Y-91102206D03*
X208414620Y-94927420D03*
D24*
X204479920Y-81280000D02*
X203200000Y-81280000D01*
X206207360Y-83007440D02*
X204479920Y-81280000D01*
X206133660Y-83081140D02*
X206207360Y-83007440D01*
X206133660Y-84955380D02*
X206133660Y-83081140D01*
X206682340Y-85504060D02*
X206133660Y-84955380D01*
X206682340Y-87759500D02*
X206682340Y-85504060D01*
X209123280Y-89885560D02*
X209123280Y-91813380D01*
X208897220Y-89659500D02*
X209123280Y-89885560D01*
X206183511Y-88258329D02*
X206682340Y-87759500D01*
X205632330Y-88809510D02*
X206183511Y-88258329D01*
X205632330Y-90147680D02*
X205632330Y-88809510D01*
X205969160Y-90484510D02*
X205632330Y-90147680D01*
X220251260Y-83091260D02*
X220980000Y-83820000D01*
X217845640Y-83091260D02*
X220251260Y-83091260D01*
X216688499Y-90509021D02*
X217141673Y-90055847D01*
X217141673Y-90055847D02*
X217627200Y-89570320D01*
X214541133Y-90509021D02*
X216688499Y-90509021D01*
X213144720Y-89634020D02*
X213666132Y-89634020D01*
X213666132Y-89634020D02*
X214541133Y-90509021D01*
X217898100Y-108367960D02*
X216378660Y-108367960D01*
X216378660Y-108367960D02*
X216364820Y-108381800D01*
X205887039Y-105241161D02*
X205962040Y-105166160D01*
X205962040Y-105166160D02*
X207412040Y-105166160D01*
X205887039Y-107631159D02*
X205887039Y-105241161D01*
X205962040Y-107706160D02*
X205887039Y-107631159D01*
X207412040Y-107706160D02*
X205962040Y-107706160D01*
X207412040Y-105166160D02*
X207412040Y-103896160D01*
X217931120Y-100339020D02*
X216454429Y-100339020D01*
X216454429Y-100339020D02*
X216429419Y-100364030D01*
X208072210Y-90484510D02*
X205969160Y-90484510D01*
X208897220Y-89659500D02*
X208072210Y-90484510D01*
X212551330Y-89634020D02*
X210059150Y-87141840D01*
X213144720Y-89634020D02*
X212551330Y-89634020D01*
X217898100Y-108367960D02*
X220544520Y-108367960D01*
X221354003Y-105504999D02*
X222450660Y-104408342D01*
X220480651Y-105504999D02*
X221354003Y-105504999D01*
X219804999Y-106180651D02*
X220480651Y-105504999D01*
X219804999Y-107628439D02*
X219804999Y-106180651D01*
X220544520Y-108367960D02*
X219804999Y-107628439D01*
X222450660Y-104408342D02*
X222450660Y-102979220D01*
X207412040Y-108326160D02*
X207412040Y-107706160D01*
X207838520Y-108752640D02*
X207412040Y-108326160D01*
X209804000Y-108752640D02*
X207838520Y-108752640D01*
X218251980Y-77451980D02*
X217868500Y-77451980D01*
X220980000Y-80180000D02*
X218251980Y-77451980D01*
X220980000Y-81280000D02*
X220980000Y-80180000D01*
X217627200Y-86766640D02*
X217500200Y-86639640D01*
X217627200Y-89570320D02*
X217627200Y-86766640D01*
X210629980Y-84333320D02*
X211084160Y-84787500D01*
X210629980Y-82350120D02*
X210629980Y-84333320D01*
X212003880Y-85707220D02*
X211084160Y-84787500D01*
X213164240Y-85707220D02*
X212003880Y-85707220D01*
X210059150Y-86183160D02*
X210059150Y-87141840D01*
X210598633Y-85643677D02*
X210059150Y-86183160D01*
X210598633Y-85273027D02*
X210598633Y-85643677D01*
X211084160Y-84787500D02*
X210598633Y-85273027D01*
X213229980Y-83300120D02*
X213229980Y-82350120D01*
X217382973Y-77937507D02*
X217868500Y-77451980D01*
X216820630Y-78499850D02*
X217382973Y-77937507D01*
X216820630Y-81244472D02*
X216820630Y-78499850D01*
X215084981Y-82980121D02*
X216820630Y-81244472D01*
X213359981Y-82980121D02*
X215084981Y-82980121D01*
X213229980Y-82850120D02*
X213359981Y-82980121D01*
X213229980Y-82350120D02*
X213229980Y-82850120D01*
X208582340Y-87759500D02*
X208897220Y-87759500D01*
X206682340Y-89659500D02*
X208582340Y-87759500D01*
X215533420Y-91445320D02*
X215444720Y-91534020D01*
X217627200Y-91445320D02*
X215533420Y-91445320D01*
X217627200Y-91445320D02*
X218652210Y-90420310D01*
X219548350Y-87791650D02*
X220980000Y-86360000D01*
X207412040Y-99340360D02*
X206146160Y-98074480D01*
X207412040Y-102626160D02*
X207412040Y-99444260D01*
X207412040Y-99444260D02*
X207412040Y-99340360D01*
X211102087Y-98468567D02*
X210616560Y-97983040D01*
X217631120Y-99639020D02*
X212272540Y-99639020D01*
X212272540Y-99639020D02*
X211102087Y-98468567D01*
X217931120Y-99339020D02*
X217631120Y-99639020D01*
X210616560Y-97983040D02*
X210616560Y-98683040D01*
X210616560Y-98683040D02*
X209855340Y-99444260D01*
X209855340Y-99444260D02*
X207412040Y-99444260D01*
X209947230Y-88809510D02*
X209396049Y-88258329D01*
X209623660Y-91142766D02*
X209947230Y-90819196D01*
X209396049Y-88258329D02*
X208897220Y-87759500D01*
X209623660Y-91813380D02*
X209623660Y-91142766D01*
X209947230Y-90819196D02*
X210058000Y-90413840D01*
X210058000Y-90413840D02*
X209947230Y-88809510D01*
X218706120Y-99339020D02*
X217931120Y-99339020D01*
X219031130Y-99664030D02*
X218706120Y-99339020D01*
X221400742Y-102918260D02*
X219052140Y-102918260D01*
X222155001Y-102164001D02*
X221400742Y-102918260D01*
X221544001Y-90264999D02*
X222155001Y-90875999D01*
X218807521Y-90264999D02*
X221544001Y-90264999D01*
X219052140Y-102918260D02*
X219031130Y-99664030D01*
X222155001Y-90875999D02*
X222155001Y-102164001D01*
X214929722Y-91534020D02*
X214054721Y-90659019D01*
X210094636Y-90377204D02*
X210058000Y-90413840D01*
X214054721Y-90659019D02*
X212475569Y-90659019D01*
X212475569Y-90659019D02*
X212193754Y-90377204D01*
X215444720Y-91534020D02*
X214929722Y-91534020D01*
X212193754Y-90377204D02*
X210094636Y-90377204D01*
X219354988Y-105994251D02*
X219448121Y-105901118D01*
X217898100Y-107367960D02*
X218673100Y-107367960D01*
X219354988Y-106686072D02*
X219354988Y-105994251D01*
X218673100Y-107367960D02*
X219354988Y-106686072D01*
X219448121Y-105901118D02*
X219448121Y-103314241D01*
X219448121Y-103314241D02*
X219052140Y-102918260D01*
X212847540Y-98339020D02*
X212491560Y-97983040D01*
X217931120Y-98339020D02*
X213796880Y-98364040D01*
X213796880Y-98364040D02*
X212847540Y-98339020D01*
X213796880Y-98174650D02*
X214090090Y-97881440D01*
X213796880Y-98364040D02*
X213796880Y-98174650D01*
X212068667Y-93208033D02*
X212927688Y-93208033D01*
X212927688Y-93208033D02*
X213493373Y-93208033D01*
X211167980Y-92857320D02*
X211717954Y-92857320D01*
X211717954Y-92857320D02*
X212068667Y-93208033D01*
X214199042Y-96958030D02*
X209760360Y-96958030D01*
X209264939Y-98074480D02*
X208021160Y-98074480D01*
X217931120Y-97339020D02*
X214580032Y-97339020D01*
X214580032Y-97339020D02*
X214199042Y-96958030D01*
X209760360Y-96958030D02*
X209760360Y-97579059D01*
X209760360Y-97579059D02*
X209264939Y-98074480D01*
X208021160Y-98074480D02*
X209135279Y-98074480D01*
X209135279Y-98074480D02*
X209361830Y-98301031D01*
X211167980Y-93357700D02*
X210404405Y-93357700D01*
X210404405Y-93357700D02*
X209922647Y-93839458D01*
X207078580Y-92356940D02*
X206052420Y-92356940D01*
X206052420Y-92356940D02*
X205986380Y-92290900D01*
X218998110Y-104883848D02*
X218942793Y-104828531D01*
X218998110Y-105714718D02*
X218998110Y-104883848D01*
X218198100Y-106067960D02*
X218644868Y-106067960D01*
X217898100Y-106367960D02*
X218198100Y-106067960D01*
X218644868Y-106067960D02*
X218998110Y-105714718D01*
X218942793Y-104828531D02*
X218542794Y-104428532D01*
X217594180Y-105064040D02*
X217898100Y-105367960D01*
X217594180Y-104112060D02*
X217594180Y-105064040D01*
X208353660Y-93582426D02*
X208353660Y-93817440D01*
X207078580Y-92857320D02*
X207628554Y-92857320D01*
X207628554Y-92857320D02*
X208353660Y-93582426D01*
X208033660Y-84955380D02*
X208033660Y-83444120D01*
X208033660Y-83444120D02*
X207975200Y-83385660D01*
X209543221Y-110094979D02*
X211312040Y-108326160D01*
X211312040Y-108326160D02*
X211312040Y-107706160D01*
X202754179Y-110094979D02*
X209543221Y-110094979D01*
X202354180Y-109694980D02*
X202754179Y-110094979D01*
X208622900Y-91813380D02*
X208622900Y-92753180D01*
X208622900Y-92753180D02*
X208610200Y-92765880D01*
X210124040Y-95902780D02*
X210124040Y-95124724D01*
X210124040Y-95124724D02*
X210268004Y-94980760D01*
X212181440Y-101756760D02*
X211312040Y-102626160D01*
X212181440Y-101391720D02*
X212181440Y-101756760D01*
X212643720Y-95902780D02*
X212791040Y-96050100D01*
X210624420Y-95902780D02*
X212643720Y-95902780D01*
X211322200Y-103886000D02*
X211312040Y-103896160D01*
X213365080Y-103886000D02*
X211322200Y-103886000D01*
X210624420Y-91813380D02*
X211024407Y-91813380D01*
X211737669Y-91891666D02*
X212787074Y-91891666D01*
X212787074Y-91891666D02*
X213144720Y-91534020D01*
X211024407Y-91813380D02*
X211092979Y-91881952D01*
X211727955Y-91881952D02*
X211737669Y-91891666D01*
X211092979Y-91881952D02*
X211727955Y-91881952D01*
X213158960Y-86662500D02*
X213164240Y-86657220D01*
X211084160Y-86662500D02*
X213158960Y-86662500D01*
X214019241Y-84832221D02*
X213944240Y-84757220D01*
X214019241Y-86582219D02*
X214019241Y-84832221D01*
X213944240Y-86657220D02*
X214019241Y-86582219D01*
X213944240Y-84757220D02*
X213164240Y-84757220D01*
X213164240Y-86657220D02*
X213944240Y-86657220D01*
X213164240Y-83365860D02*
X213164240Y-84757220D01*
X213229980Y-83300120D02*
X213164240Y-83365860D01*
X217492780Y-84757220D02*
X217500200Y-84764640D01*
X215364240Y-84757220D02*
X217492780Y-84757220D01*
X219095560Y-86360000D02*
X220980000Y-86360000D01*
X217500200Y-84764640D02*
X219095560Y-86360000D01*
X219548350Y-87791650D02*
X219548350Y-89480750D01*
X217627200Y-91445320D02*
X218554300Y-90474800D01*
X219548350Y-89480750D02*
X218554300Y-90474800D01*
X218554300Y-90474800D02*
X218807521Y-90264999D01*
X217845640Y-79349840D02*
X217868500Y-79326980D01*
X217845640Y-81216260D02*
X217845640Y-79349840D01*
X206207360Y-79438740D02*
X206133700Y-79365080D01*
X206207360Y-81132440D02*
X206207360Y-79438740D01*
X202024999Y-80169999D02*
X202024999Y-82644999D01*
X202350001Y-82970001D02*
X203200000Y-83820000D01*
X202024999Y-82644999D02*
X202350001Y-82970001D01*
X204704918Y-77490080D02*
X202024999Y-80169999D01*
X206133700Y-77490080D02*
X204704918Y-77490080D01*
X204049999Y-84669999D02*
X203200000Y-83820000D01*
X204375001Y-89526762D02*
X204375001Y-84995001D01*
X205782760Y-90934521D02*
X204375001Y-89526762D01*
X207793635Y-90934521D02*
X205782760Y-90934521D01*
X204375001Y-84995001D02*
X204049999Y-84669999D01*
X208122520Y-91263406D02*
X207793635Y-90934521D01*
X208122520Y-91813380D02*
X208122520Y-91263406D01*
X219483989Y-97445121D02*
X217152878Y-95114010D01*
X219483989Y-100103989D02*
X219483989Y-97445121D01*
X214306852Y-95325098D02*
X211752076Y-95325098D01*
X217152878Y-95114010D02*
X214517940Y-95114010D01*
X211752076Y-95325098D02*
X211717954Y-95359220D01*
X211717954Y-95359220D02*
X211167980Y-95359220D01*
X220980000Y-101600000D02*
X219483989Y-100103989D01*
X214517940Y-95114010D02*
X214306852Y-95325098D01*
X209123280Y-97098333D02*
X209016738Y-97204875D01*
X209123280Y-95902780D02*
X209123280Y-97098333D01*
X205480420Y-96599459D02*
X204883639Y-97196240D01*
X204883639Y-97196240D02*
X204883639Y-102456361D01*
X204883639Y-102456361D02*
X204049999Y-103290001D01*
X207960424Y-96599459D02*
X205480420Y-96599459D01*
X204049999Y-103290001D02*
X203200000Y-104140000D01*
X208122520Y-96437363D02*
X207960424Y-96599459D01*
X208122520Y-95902780D02*
X208122520Y-96437363D01*
X205883670Y-93858080D02*
X205793340Y-93767750D01*
X207078580Y-93858080D02*
X205883670Y-93858080D01*
X202635999Y-90075001D02*
X202024999Y-89464001D01*
X202024999Y-87535001D02*
X202350001Y-87209999D01*
X204375001Y-90875999D02*
X203574003Y-90075001D01*
X205661238Y-93031142D02*
X204375001Y-91744905D01*
X206528606Y-93357700D02*
X206202048Y-93031142D01*
X204375001Y-91744905D02*
X204375001Y-90875999D01*
X203574003Y-90075001D02*
X202635999Y-90075001D01*
X202024999Y-89464001D02*
X202024999Y-87535001D01*
X202350001Y-87209999D02*
X203200000Y-86360000D01*
X207078580Y-93357700D02*
X206528606Y-93357700D01*
X206202048Y-93031142D02*
X205661238Y-93031142D01*
X206327742Y-94942763D02*
X205258938Y-94942763D01*
X204049999Y-94829999D02*
X203200000Y-93980000D01*
X205146174Y-94829999D02*
X204049999Y-94829999D01*
X207078580Y-94858840D02*
X206411665Y-94858840D01*
X206411665Y-94858840D02*
X206327742Y-94942763D01*
X205258938Y-94942763D02*
X205146174Y-94829999D01*
X205445338Y-94492752D02*
X204049999Y-93097413D01*
X206141342Y-94492752D02*
X205445338Y-94492752D01*
X206275634Y-94358460D02*
X206141342Y-94492752D01*
X207078580Y-94358460D02*
X206275634Y-94358460D01*
X204049999Y-92289999D02*
X203200000Y-91440000D01*
X204049999Y-93097413D02*
X204049999Y-92289999D01*
X207222153Y-91813380D02*
X206974671Y-91565898D01*
X205777726Y-91565898D02*
X203200000Y-88988172D01*
X203200000Y-88988172D02*
X203200000Y-88900000D01*
X207622140Y-91813380D02*
X207222153Y-91813380D01*
X206974671Y-91565898D02*
X205777726Y-91565898D01*
X202024999Y-95955999D02*
X202024999Y-97884999D01*
X207078580Y-95359220D02*
X206528606Y-95359220D01*
X206528606Y-95359220D02*
X206495052Y-95392774D01*
X206495052Y-95392774D02*
X205072538Y-95392774D01*
X202350001Y-98210001D02*
X203200000Y-99060000D01*
X205024763Y-95344999D02*
X202635999Y-95344999D01*
X202635999Y-95344999D02*
X202024999Y-95955999D01*
X202024999Y-97884999D02*
X202350001Y-98210001D01*
X205072538Y-95392774D02*
X205024763Y-95344999D01*
X204375001Y-100424999D02*
X204049999Y-100750001D01*
X204049999Y-100750001D02*
X203200000Y-101600000D01*
X204375001Y-97068467D02*
X204375001Y-100424999D01*
X205540688Y-95902780D02*
X204375001Y-97068467D01*
X207622140Y-95902780D02*
X205540688Y-95902780D01*
X220130001Y-97409003D02*
X220130001Y-98210001D01*
X217384997Y-94663999D02*
X220130001Y-97409003D01*
X214331540Y-94663999D02*
X217384997Y-94663999D01*
X211167980Y-94858840D02*
X214136699Y-94858840D01*
X214136699Y-94858840D02*
X214331540Y-94663999D01*
X220130001Y-98210001D02*
X220980000Y-99060000D01*
X213957988Y-94401140D02*
X214145140Y-94213988D01*
X218673988Y-94213988D02*
X220130001Y-95670001D01*
X212931431Y-94358460D02*
X212974111Y-94401140D01*
X220130001Y-95670001D02*
X220980000Y-96520000D01*
X211167980Y-94358460D02*
X212931431Y-94358460D01*
X212974111Y-94401140D02*
X213957988Y-94401140D01*
X214145140Y-94213988D02*
X218673988Y-94213988D01*
X213771588Y-93951129D02*
X213958740Y-93763977D01*
X213067462Y-93858080D02*
X213160511Y-93951129D01*
X219561896Y-93763977D02*
X219777919Y-93980000D01*
X213160511Y-93951129D02*
X213771588Y-93951129D01*
X219777919Y-93980000D02*
X220980000Y-93980000D01*
X213958740Y-93763977D02*
X219561896Y-93763977D01*
X211167980Y-93858080D02*
X213067462Y-93858080D01*
X211167980Y-92356940D02*
X212182638Y-92356940D01*
X220130001Y-92289999D02*
X220980000Y-91440000D01*
X212234719Y-92409021D02*
X220010979Y-92409021D01*
X212182638Y-92356940D02*
X212234719Y-92409021D01*
X220010979Y-92409021D02*
X220130001Y-92289999D01*
X208622900Y-95902780D02*
X208622900Y-96573394D01*
X205333650Y-97382640D02*
X205333650Y-104546350D01*
X204049999Y-105830001D02*
X203200000Y-106680000D01*
X208622900Y-96573394D02*
X208146824Y-97049470D01*
X205666820Y-97049470D02*
X205333650Y-97382640D01*
X205333650Y-104546350D02*
X204049999Y-105830001D01*
X208146824Y-97049470D02*
X205666820Y-97049470D01*
X210300631Y-91102206D02*
X211280067Y-91102206D01*
X210124040Y-91278797D02*
X210300631Y-91102206D01*
X210124040Y-91813380D02*
X210124040Y-91278797D01*
X211280067Y-91102206D02*
X211845752Y-91102206D01*
X209623660Y-95352806D02*
X209310034Y-95039180D01*
X209623660Y-95902780D02*
X209623660Y-95352806D01*
X209310034Y-95039180D02*
X208526380Y-95039180D01*
X208526380Y-95039180D02*
X208414620Y-94927420D01*
D25*
G36*
X222745700Y-110313811D02*
G01*
X216860513Y-110301964D01*
X216894108Y-110191215D01*
X216911172Y-110017961D01*
X216911172Y-109317959D01*
X216894108Y-109144705D01*
X216843572Y-108978109D01*
X216761505Y-108824573D01*
X216651062Y-108689998D01*
X216516487Y-108579555D01*
X216362951Y-108497488D01*
X216196355Y-108446952D01*
X216023101Y-108429888D01*
X214723099Y-108429888D01*
X214549845Y-108446952D01*
X214383249Y-108497488D01*
X214229713Y-108579555D01*
X214095138Y-108689998D01*
X213984695Y-108824573D01*
X213902628Y-108978109D01*
X213852092Y-109144705D01*
X213835028Y-109317959D01*
X213835028Y-110017961D01*
X213852092Y-110191215D01*
X213883870Y-110295972D01*
X210423994Y-110289008D01*
X211823044Y-108889958D01*
X211852041Y-108866161D01*
X211947014Y-108750436D01*
X211966366Y-108714232D01*
X212512040Y-108714232D01*
X212636522Y-108701972D01*
X212756220Y-108665662D01*
X212866534Y-108606697D01*
X212963225Y-108527345D01*
X213042577Y-108430654D01*
X213101542Y-108320340D01*
X213137852Y-108200642D01*
X213150112Y-108076160D01*
X213150112Y-107336160D01*
X213137852Y-107211678D01*
X213101542Y-107091980D01*
X213090413Y-107071160D01*
X213101542Y-107050340D01*
X213137852Y-106930642D01*
X213150112Y-106806160D01*
X213150112Y-106066160D01*
X213137852Y-105941678D01*
X213101542Y-105821980D01*
X213090413Y-105801160D01*
X213101542Y-105780340D01*
X213137852Y-105660642D01*
X213150112Y-105536160D01*
X213150112Y-104898517D01*
X213263141Y-104921000D01*
X213467019Y-104921000D01*
X213666978Y-104881226D01*
X213855336Y-104803205D01*
X213908061Y-104767975D01*
X213984695Y-104911347D01*
X214095138Y-105045922D01*
X214229713Y-105156365D01*
X214383249Y-105238432D01*
X214549845Y-105288968D01*
X214723099Y-105306032D01*
X216023101Y-105306032D01*
X216196355Y-105288968D01*
X216362951Y-105238432D01*
X216489684Y-105170692D01*
X216485028Y-105217960D01*
X216485028Y-105517960D01*
X216500171Y-105671705D01*
X216545016Y-105819542D01*
X216570896Y-105867960D01*
X216545016Y-105916378D01*
X216500171Y-106064215D01*
X216485028Y-106217960D01*
X216485028Y-106517960D01*
X216500171Y-106671705D01*
X216545016Y-106819542D01*
X216570896Y-106867960D01*
X216545016Y-106916378D01*
X216500171Y-107064215D01*
X216485028Y-107217960D01*
X216485028Y-107517960D01*
X216500171Y-107671705D01*
X216545016Y-107819542D01*
X216617842Y-107955789D01*
X216715849Y-108075211D01*
X216835271Y-108173218D01*
X216971518Y-108246044D01*
X217119355Y-108290889D01*
X217273100Y-108306032D01*
X218523100Y-108306032D01*
X218676845Y-108290889D01*
X218824682Y-108246044D01*
X218960929Y-108173218D01*
X219080351Y-108075211D01*
X219178358Y-107955789D01*
X219196750Y-107921380D01*
X219213101Y-107907961D01*
X219236903Y-107878958D01*
X219691423Y-107424438D01*
X219826525Y-107626632D01*
X220033368Y-107833475D01*
X220276589Y-107995990D01*
X220546842Y-108107932D01*
X220833740Y-108165000D01*
X221126260Y-108165000D01*
X221413158Y-108107932D01*
X221683411Y-107995990D01*
X221926632Y-107833475D01*
X222133475Y-107626632D01*
X222295990Y-107383411D01*
X222407932Y-107113158D01*
X222465000Y-106826260D01*
X222465000Y-106533740D01*
X222407932Y-106246842D01*
X222295990Y-105976589D01*
X222133475Y-105733368D01*
X221926632Y-105526525D01*
X221752240Y-105410000D01*
X221926632Y-105293475D01*
X222133475Y-105086632D01*
X222295990Y-104843411D01*
X222407932Y-104573158D01*
X222465000Y-104286260D01*
X222465000Y-103993740D01*
X222407932Y-103706842D01*
X222295990Y-103436589D01*
X222160296Y-103233508D01*
X222666003Y-102727800D01*
X222695002Y-102704002D01*
X222745700Y-102642226D01*
X222745700Y-110313811D01*
G37*
X222745700Y-110313811D02*
X216860513Y-110301964D01*
X216894108Y-110191215D01*
X216911172Y-110017961D01*
X216911172Y-109317959D01*
X216894108Y-109144705D01*
X216843572Y-108978109D01*
X216761505Y-108824573D01*
X216651062Y-108689998D01*
X216516487Y-108579555D01*
X216362951Y-108497488D01*
X216196355Y-108446952D01*
X216023101Y-108429888D01*
X214723099Y-108429888D01*
X214549845Y-108446952D01*
X214383249Y-108497488D01*
X214229713Y-108579555D01*
X214095138Y-108689998D01*
X213984695Y-108824573D01*
X213902628Y-108978109D01*
X213852092Y-109144705D01*
X213835028Y-109317959D01*
X213835028Y-110017961D01*
X213852092Y-110191215D01*
X213883870Y-110295972D01*
X210423994Y-110289008D01*
X211823044Y-108889958D01*
X211852041Y-108866161D01*
X211947014Y-108750436D01*
X211966366Y-108714232D01*
X212512040Y-108714232D01*
X212636522Y-108701972D01*
X212756220Y-108665662D01*
X212866534Y-108606697D01*
X212963225Y-108527345D01*
X213042577Y-108430654D01*
X213101542Y-108320340D01*
X213137852Y-108200642D01*
X213150112Y-108076160D01*
X213150112Y-107336160D01*
X213137852Y-107211678D01*
X213101542Y-107091980D01*
X213090413Y-107071160D01*
X213101542Y-107050340D01*
X213137852Y-106930642D01*
X213150112Y-106806160D01*
X213150112Y-106066160D01*
X213137852Y-105941678D01*
X213101542Y-105821980D01*
X213090413Y-105801160D01*
X213101542Y-105780340D01*
X213137852Y-105660642D01*
X213150112Y-105536160D01*
X213150112Y-104898517D01*
X213263141Y-104921000D01*
X213467019Y-104921000D01*
X213666978Y-104881226D01*
X213855336Y-104803205D01*
X213908061Y-104767975D01*
X213984695Y-104911347D01*
X214095138Y-105045922D01*
X214229713Y-105156365D01*
X214383249Y-105238432D01*
X214549845Y-105288968D01*
X214723099Y-105306032D01*
X216023101Y-105306032D01*
X216196355Y-105288968D01*
X216362951Y-105238432D01*
X216489684Y-105170692D01*
X216485028Y-105217960D01*
X216485028Y-105517960D01*
X216500171Y-105671705D01*
X216545016Y-105819542D01*
X216570896Y-105867960D01*
X216545016Y-105916378D01*
X216500171Y-106064215D01*
X216485028Y-106217960D01*
X216485028Y-106517960D01*
X216500171Y-106671705D01*
X216545016Y-106819542D01*
X216570896Y-106867960D01*
X216545016Y-106916378D01*
X216500171Y-107064215D01*
X216485028Y-107217960D01*
X216485028Y-107517960D01*
X216500171Y-107671705D01*
X216545016Y-107819542D01*
X216617842Y-107955789D01*
X216715849Y-108075211D01*
X216835271Y-108173218D01*
X216971518Y-108246044D01*
X217119355Y-108290889D01*
X217273100Y-108306032D01*
X218523100Y-108306032D01*
X218676845Y-108290889D01*
X218824682Y-108246044D01*
X218960929Y-108173218D01*
X219080351Y-108075211D01*
X219178358Y-107955789D01*
X219196750Y-107921380D01*
X219213101Y-107907961D01*
X219236903Y-107878958D01*
X219691423Y-107424438D01*
X219826525Y-107626632D01*
X220033368Y-107833475D01*
X220276589Y-107995990D01*
X220546842Y-108107932D01*
X220833740Y-108165000D01*
X221126260Y-108165000D01*
X221413158Y-108107932D01*
X221683411Y-107995990D01*
X221926632Y-107833475D01*
X222133475Y-107626632D01*
X222295990Y-107383411D01*
X222407932Y-107113158D01*
X222465000Y-106826260D01*
X222465000Y-106533740D01*
X222407932Y-106246842D01*
X222295990Y-105976589D01*
X222133475Y-105733368D01*
X221926632Y-105526525D01*
X221752240Y-105410000D01*
X221926632Y-105293475D01*
X222133475Y-105086632D01*
X222295990Y-104843411D01*
X222407932Y-104573158D01*
X222465000Y-104286260D01*
X222465000Y-103993740D01*
X222407932Y-103706842D01*
X222295990Y-103436589D01*
X222160296Y-103233508D01*
X222666003Y-102727800D01*
X222695002Y-102704002D01*
X222745700Y-102642226D01*
X222745700Y-110313811D01*
G36*
X201390025Y-98309275D02*
G01*
X201456927Y-98390794D01*
X201484999Y-98425000D01*
X201513997Y-98448798D01*
X201758791Y-98693592D01*
X201715000Y-98913740D01*
X201715000Y-99206260D01*
X201772068Y-99493158D01*
X201884010Y-99763411D01*
X202046525Y-100006632D01*
X202253368Y-100213475D01*
X202427760Y-100330000D01*
X202253368Y-100446525D01*
X202046525Y-100653368D01*
X201884010Y-100896589D01*
X201772068Y-101166842D01*
X201715000Y-101453740D01*
X201715000Y-101746260D01*
X201772068Y-102033158D01*
X201884010Y-102303411D01*
X202046525Y-102546632D01*
X202253368Y-102753475D01*
X202427760Y-102870000D01*
X202253368Y-102986525D01*
X202046525Y-103193368D01*
X201884010Y-103436589D01*
X201772068Y-103706842D01*
X201715000Y-103993740D01*
X201715000Y-104286260D01*
X201772068Y-104573158D01*
X201884010Y-104843411D01*
X202046525Y-105086632D01*
X202253368Y-105293475D01*
X202427760Y-105410000D01*
X202253368Y-105526525D01*
X202046525Y-105733368D01*
X201884010Y-105976589D01*
X201772068Y-106246842D01*
X201715000Y-106533740D01*
X201715000Y-106826260D01*
X201772068Y-107113158D01*
X201884010Y-107383411D01*
X202046525Y-107626632D01*
X202253368Y-107833475D01*
X202496589Y-107995990D01*
X202766842Y-108107932D01*
X203053740Y-108165000D01*
X203346260Y-108165000D01*
X203633158Y-108107932D01*
X203903411Y-107995990D01*
X204146632Y-107833475D01*
X204353475Y-107626632D01*
X204515990Y-107383411D01*
X204627932Y-107113158D01*
X204685000Y-106826260D01*
X204685000Y-106533740D01*
X204641209Y-106313592D01*
X204888641Y-106066160D01*
X205573968Y-106066160D01*
X205573968Y-106806160D01*
X205586228Y-106930642D01*
X205622538Y-107050340D01*
X205681503Y-107160654D01*
X205760855Y-107257345D01*
X205857546Y-107336697D01*
X205967860Y-107395662D01*
X206087558Y-107431972D01*
X206212040Y-107444232D01*
X208612040Y-107444232D01*
X208736522Y-107431972D01*
X208856220Y-107395662D01*
X208966534Y-107336697D01*
X209063225Y-107257345D01*
X209142577Y-107160654D01*
X209201542Y-107050340D01*
X209237852Y-106930642D01*
X209250112Y-106806160D01*
X209250112Y-106066160D01*
X209237852Y-105941678D01*
X209201542Y-105821980D01*
X209142577Y-105711666D01*
X209063225Y-105614975D01*
X208966534Y-105535623D01*
X208856220Y-105476658D01*
X208736522Y-105440348D01*
X208612040Y-105428088D01*
X206212040Y-105428088D01*
X206087558Y-105440348D01*
X205967860Y-105476658D01*
X205857546Y-105535623D01*
X205760855Y-105614975D01*
X205681503Y-105711666D01*
X205622538Y-105821980D01*
X205586228Y-105941678D01*
X205573968Y-106066160D01*
X204888641Y-106066160D01*
X205844653Y-105110149D01*
X205873651Y-105086351D01*
X205968624Y-104970626D01*
X206039196Y-104838597D01*
X206082653Y-104695336D01*
X206093650Y-104583683D01*
X206093650Y-104583675D01*
X206097326Y-104546350D01*
X206093650Y-104509025D01*
X206093650Y-103622572D01*
X206212040Y-103634232D01*
X208612040Y-103634232D01*
X208736522Y-103621972D01*
X208856220Y-103585662D01*
X208966534Y-103526697D01*
X209063225Y-103447345D01*
X209142577Y-103350654D01*
X209201542Y-103240340D01*
X209237852Y-103120642D01*
X209250112Y-102996160D01*
X209250112Y-102256160D01*
X209237852Y-102131678D01*
X209201542Y-102011980D01*
X209142577Y-101901666D01*
X209063225Y-101804975D01*
X208966534Y-101725623D01*
X208856220Y-101666658D01*
X208736522Y-101630348D01*
X208612040Y-101618088D01*
X208172040Y-101618088D01*
X208172040Y-100204260D01*
X209818018Y-100204260D01*
X209855340Y-100207936D01*
X209892662Y-100204260D01*
X209892673Y-100204260D01*
X210004326Y-100193263D01*
X210147587Y-100149806D01*
X210279616Y-100079234D01*
X210395341Y-99984261D01*
X210419143Y-99955258D01*
X210966560Y-99407842D01*
X211708741Y-100150023D01*
X211732539Y-100179021D01*
X211848264Y-100273994D01*
X211980293Y-100344566D01*
X212043782Y-100363825D01*
X211879542Y-100396494D01*
X211691184Y-100474515D01*
X211521666Y-100587783D01*
X211377503Y-100731946D01*
X211264235Y-100901464D01*
X211186214Y-101089822D01*
X211146440Y-101289781D01*
X211146440Y-101493659D01*
X211171190Y-101618088D01*
X210112040Y-101618088D01*
X209987558Y-101630348D01*
X209867860Y-101666658D01*
X209757546Y-101725623D01*
X209660855Y-101804975D01*
X209581503Y-101901666D01*
X209522538Y-102011980D01*
X209486228Y-102131678D01*
X209473968Y-102256160D01*
X209473968Y-102996160D01*
X209486228Y-103120642D01*
X209522538Y-103240340D01*
X209533667Y-103261160D01*
X209522538Y-103281980D01*
X209486228Y-103401678D01*
X209473968Y-103526160D01*
X209473968Y-104266160D01*
X209486228Y-104390642D01*
X209522538Y-104510340D01*
X209533667Y-104531160D01*
X209522538Y-104551980D01*
X209486228Y-104671678D01*
X209473968Y-104796160D01*
X209473968Y-105536160D01*
X209486228Y-105660642D01*
X209522538Y-105780340D01*
X209533667Y-105801160D01*
X209522538Y-105821980D01*
X209486228Y-105941678D01*
X209473968Y-106066160D01*
X209473968Y-106806160D01*
X209486228Y-106930642D01*
X209522538Y-107050340D01*
X209533667Y-107071160D01*
X209522538Y-107091980D01*
X209486228Y-107211678D01*
X209473968Y-107336160D01*
X209473968Y-108076160D01*
X209486228Y-108200642D01*
X209522538Y-108320340D01*
X209581503Y-108430654D01*
X209660855Y-108527345D01*
X209757546Y-108606697D01*
X209867860Y-108665662D01*
X209890783Y-108672616D01*
X209228420Y-109334979D01*
X203325339Y-109334979D01*
X203271385Y-109204724D01*
X203158117Y-109035206D01*
X203013954Y-108891043D01*
X202844436Y-108777775D01*
X202656078Y-108699754D01*
X202456119Y-108659980D01*
X202252241Y-108659980D01*
X202052282Y-108699754D01*
X201863924Y-108777775D01*
X201694406Y-108891043D01*
X201550243Y-109035206D01*
X201436975Y-109204724D01*
X201358954Y-109393082D01*
X201353020Y-109422914D01*
X201353020Y-98240044D01*
X201390025Y-98309275D01*
G37*
X201390025Y-98309275D02*
X201456927Y-98390794D01*
X201484999Y-98425000D01*
X201513997Y-98448798D01*
X201758791Y-98693592D01*
X201715000Y-98913740D01*
X201715000Y-99206260D01*
X201772068Y-99493158D01*
X201884010Y-99763411D01*
X202046525Y-100006632D01*
X202253368Y-100213475D01*
X202427760Y-100330000D01*
X202253368Y-100446525D01*
X202046525Y-100653368D01*
X201884010Y-100896589D01*
X201772068Y-101166842D01*
X201715000Y-101453740D01*
X201715000Y-101746260D01*
X201772068Y-102033158D01*
X201884010Y-102303411D01*
X202046525Y-102546632D01*
X202253368Y-102753475D01*
X202427760Y-102870000D01*
X202253368Y-102986525D01*
X202046525Y-103193368D01*
X201884010Y-103436589D01*
X201772068Y-103706842D01*
X201715000Y-103993740D01*
X201715000Y-104286260D01*
X201772068Y-104573158D01*
X201884010Y-104843411D01*
X202046525Y-105086632D01*
X202253368Y-105293475D01*
X202427760Y-105410000D01*
X202253368Y-105526525D01*
X202046525Y-105733368D01*
X201884010Y-105976589D01*
X201772068Y-106246842D01*
X201715000Y-106533740D01*
X201715000Y-106826260D01*
X201772068Y-107113158D01*
X201884010Y-107383411D01*
X202046525Y-107626632D01*
X202253368Y-107833475D01*
X202496589Y-107995990D01*
X202766842Y-108107932D01*
X203053740Y-108165000D01*
X203346260Y-108165000D01*
X203633158Y-108107932D01*
X203903411Y-107995990D01*
X204146632Y-107833475D01*
X204353475Y-107626632D01*
X204515990Y-107383411D01*
X204627932Y-107113158D01*
X204685000Y-106826260D01*
X204685000Y-106533740D01*
X204641209Y-106313592D01*
X204888641Y-106066160D01*
X205573968Y-106066160D01*
X205573968Y-106806160D01*
X205586228Y-106930642D01*
X205622538Y-107050340D01*
X205681503Y-107160654D01*
X205760855Y-107257345D01*
X205857546Y-107336697D01*
X205967860Y-107395662D01*
X206087558Y-107431972D01*
X206212040Y-107444232D01*
X208612040Y-107444232D01*
X208736522Y-107431972D01*
X208856220Y-107395662D01*
X208966534Y-107336697D01*
X209063225Y-107257345D01*
X209142577Y-107160654D01*
X209201542Y-107050340D01*
X209237852Y-106930642D01*
X209250112Y-106806160D01*
X209250112Y-106066160D01*
X209237852Y-105941678D01*
X209201542Y-105821980D01*
X209142577Y-105711666D01*
X209063225Y-105614975D01*
X208966534Y-105535623D01*
X208856220Y-105476658D01*
X208736522Y-105440348D01*
X208612040Y-105428088D01*
X206212040Y-105428088D01*
X206087558Y-105440348D01*
X205967860Y-105476658D01*
X205857546Y-105535623D01*
X205760855Y-105614975D01*
X205681503Y-105711666D01*
X205622538Y-105821980D01*
X205586228Y-105941678D01*
X205573968Y-106066160D01*
X204888641Y-106066160D01*
X205844653Y-105110149D01*
X205873651Y-105086351D01*
X205968624Y-104970626D01*
X206039196Y-104838597D01*
X206082653Y-104695336D01*
X206093650Y-104583683D01*
X206093650Y-104583675D01*
X206097326Y-104546350D01*
X206093650Y-104509025D01*
X206093650Y-103622572D01*
X206212040Y-103634232D01*
X208612040Y-103634232D01*
X208736522Y-103621972D01*
X208856220Y-103585662D01*
X208966534Y-103526697D01*
X209063225Y-103447345D01*
X209142577Y-103350654D01*
X209201542Y-103240340D01*
X209237852Y-103120642D01*
X209250112Y-102996160D01*
X209250112Y-102256160D01*
X209237852Y-102131678D01*
X209201542Y-102011980D01*
X209142577Y-101901666D01*
X209063225Y-101804975D01*
X208966534Y-101725623D01*
X208856220Y-101666658D01*
X208736522Y-101630348D01*
X208612040Y-101618088D01*
X208172040Y-101618088D01*
X208172040Y-100204260D01*
X209818018Y-100204260D01*
X209855340Y-100207936D01*
X209892662Y-100204260D01*
X209892673Y-100204260D01*
X210004326Y-100193263D01*
X210147587Y-100149806D01*
X210279616Y-100079234D01*
X210395341Y-99984261D01*
X210419143Y-99955258D01*
X210966560Y-99407842D01*
X211708741Y-100150023D01*
X211732539Y-100179021D01*
X211848264Y-100273994D01*
X211980293Y-100344566D01*
X212043782Y-100363825D01*
X211879542Y-100396494D01*
X211691184Y-100474515D01*
X211521666Y-100587783D01*
X211377503Y-100731946D01*
X211264235Y-100901464D01*
X211186214Y-101089822D01*
X211146440Y-101289781D01*
X211146440Y-101493659D01*
X211171190Y-101618088D01*
X210112040Y-101618088D01*
X209987558Y-101630348D01*
X209867860Y-101666658D01*
X209757546Y-101725623D01*
X209660855Y-101804975D01*
X209581503Y-101901666D01*
X209522538Y-102011980D01*
X209486228Y-102131678D01*
X209473968Y-102256160D01*
X209473968Y-102996160D01*
X209486228Y-103120642D01*
X209522538Y-103240340D01*
X209533667Y-103261160D01*
X209522538Y-103281980D01*
X209486228Y-103401678D01*
X209473968Y-103526160D01*
X209473968Y-104266160D01*
X209486228Y-104390642D01*
X209522538Y-104510340D01*
X209533667Y-104531160D01*
X209522538Y-104551980D01*
X209486228Y-104671678D01*
X209473968Y-104796160D01*
X209473968Y-105536160D01*
X209486228Y-105660642D01*
X209522538Y-105780340D01*
X209533667Y-105801160D01*
X209522538Y-105821980D01*
X209486228Y-105941678D01*
X209473968Y-106066160D01*
X209473968Y-106806160D01*
X209486228Y-106930642D01*
X209522538Y-107050340D01*
X209533667Y-107071160D01*
X209522538Y-107091980D01*
X209486228Y-107211678D01*
X209473968Y-107336160D01*
X209473968Y-108076160D01*
X209486228Y-108200642D01*
X209522538Y-108320340D01*
X209581503Y-108430654D01*
X209660855Y-108527345D01*
X209757546Y-108606697D01*
X209867860Y-108665662D01*
X209890783Y-108672616D01*
X209228420Y-109334979D01*
X203325339Y-109334979D01*
X203271385Y-109204724D01*
X203158117Y-109035206D01*
X203013954Y-108891043D01*
X202844436Y-108777775D01*
X202656078Y-108699754D01*
X202456119Y-108659980D01*
X202252241Y-108659980D01*
X202052282Y-108699754D01*
X201863924Y-108777775D01*
X201694406Y-108891043D01*
X201550243Y-109035206D01*
X201436975Y-109204724D01*
X201358954Y-109393082D01*
X201353020Y-109422914D01*
X201353020Y-98240044D01*
X201390025Y-98309275D01*
G36*
X218291899Y-102883373D02*
G01*
X218288463Y-102918260D01*
X218292381Y-102958041D01*
X218292397Y-102960499D01*
X218296037Y-102995157D01*
X218303137Y-103067246D01*
X218303857Y-103069619D01*
X218304115Y-103072078D01*
X218325514Y-103141016D01*
X218346594Y-103210507D01*
X218347763Y-103212693D01*
X218348496Y-103215056D01*
X218382993Y-103278603D01*
X218417166Y-103342536D01*
X218418740Y-103344454D01*
X218419919Y-103346626D01*
X218458923Y-103393532D01*
X218440855Y-103393532D01*
X218356201Y-103410370D01*
X218253954Y-103308123D01*
X218084436Y-103194855D01*
X217896078Y-103116834D01*
X217696119Y-103077060D01*
X217492241Y-103077060D01*
X217292282Y-103116834D01*
X217103924Y-103194855D01*
X216934406Y-103308123D01*
X216848424Y-103394105D01*
X216843572Y-103378109D01*
X216761505Y-103224573D01*
X216651062Y-103089998D01*
X216516487Y-102979555D01*
X216362951Y-102897488D01*
X216234418Y-102858498D01*
X216395971Y-102809492D01*
X216549507Y-102727425D01*
X216684082Y-102616982D01*
X216794525Y-102482407D01*
X216876592Y-102328871D01*
X216927128Y-102162275D01*
X216944192Y-101989021D01*
X216944192Y-101289019D01*
X216927128Y-101115765D01*
X216876592Y-100949169D01*
X216794525Y-100795633D01*
X216684082Y-100661058D01*
X216549507Y-100550615D01*
X216395971Y-100468548D01*
X216229375Y-100418012D01*
X216056121Y-100400948D01*
X214756119Y-100400948D01*
X214582865Y-100418012D01*
X214416269Y-100468548D01*
X214262733Y-100550615D01*
X214128158Y-100661058D01*
X214017715Y-100795633D01*
X213935648Y-100949169D01*
X213885112Y-101115765D01*
X213868048Y-101289019D01*
X213868048Y-101989021D01*
X213885112Y-102162275D01*
X213935648Y-102328871D01*
X214017715Y-102482407D01*
X214128158Y-102616982D01*
X214262733Y-102727425D01*
X214416269Y-102809492D01*
X214544802Y-102848482D01*
X214383249Y-102897488D01*
X214229713Y-102979555D01*
X214095138Y-103089998D01*
X214067034Y-103124243D01*
X214024854Y-103082063D01*
X213855336Y-102968795D01*
X213666978Y-102890774D01*
X213467019Y-102851000D01*
X213263141Y-102851000D01*
X213150112Y-102873483D01*
X213150112Y-102256160D01*
X213137852Y-102131678D01*
X213101542Y-102011980D01*
X213061648Y-101937345D01*
X213098645Y-101881976D01*
X213176666Y-101693618D01*
X213216440Y-101493659D01*
X213216440Y-101289781D01*
X213176666Y-101089822D01*
X213098645Y-100901464D01*
X212985377Y-100731946D01*
X212841214Y-100587783D01*
X212671696Y-100474515D01*
X212489436Y-100399020D01*
X217593798Y-100399020D01*
X217631120Y-100402696D01*
X217668442Y-100399020D01*
X217668453Y-100399020D01*
X217780106Y-100388023D01*
X217923367Y-100344566D01*
X218049600Y-100277092D01*
X218275072Y-100277092D01*
X218291899Y-102883373D01*
G37*
X218291899Y-102883373D02*
X218288463Y-102918260D01*
X218292381Y-102958041D01*
X218292397Y-102960499D01*
X218296037Y-102995157D01*
X218303137Y-103067246D01*
X218303857Y-103069619D01*
X218304115Y-103072078D01*
X218325514Y-103141016D01*
X218346594Y-103210507D01*
X218347763Y-103212693D01*
X218348496Y-103215056D01*
X218382993Y-103278603D01*
X218417166Y-103342536D01*
X218418740Y-103344454D01*
X218419919Y-103346626D01*
X218458923Y-103393532D01*
X218440855Y-103393532D01*
X218356201Y-103410370D01*
X218253954Y-103308123D01*
X218084436Y-103194855D01*
X217896078Y-103116834D01*
X217696119Y-103077060D01*
X217492241Y-103077060D01*
X217292282Y-103116834D01*
X217103924Y-103194855D01*
X216934406Y-103308123D01*
X216848424Y-103394105D01*
X216843572Y-103378109D01*
X216761505Y-103224573D01*
X216651062Y-103089998D01*
X216516487Y-102979555D01*
X216362951Y-102897488D01*
X216234418Y-102858498D01*
X216395971Y-102809492D01*
X216549507Y-102727425D01*
X216684082Y-102616982D01*
X216794525Y-102482407D01*
X216876592Y-102328871D01*
X216927128Y-102162275D01*
X216944192Y-101989021D01*
X216944192Y-101289019D01*
X216927128Y-101115765D01*
X216876592Y-100949169D01*
X216794525Y-100795633D01*
X216684082Y-100661058D01*
X216549507Y-100550615D01*
X216395971Y-100468548D01*
X216229375Y-100418012D01*
X216056121Y-100400948D01*
X214756119Y-100400948D01*
X214582865Y-100418012D01*
X214416269Y-100468548D01*
X214262733Y-100550615D01*
X214128158Y-100661058D01*
X214017715Y-100795633D01*
X213935648Y-100949169D01*
X213885112Y-101115765D01*
X213868048Y-101289019D01*
X213868048Y-101989021D01*
X213885112Y-102162275D01*
X213935648Y-102328871D01*
X214017715Y-102482407D01*
X214128158Y-102616982D01*
X214262733Y-102727425D01*
X214416269Y-102809492D01*
X214544802Y-102848482D01*
X214383249Y-102897488D01*
X214229713Y-102979555D01*
X214095138Y-103089998D01*
X214067034Y-103124243D01*
X214024854Y-103082063D01*
X213855336Y-102968795D01*
X213666978Y-102890774D01*
X213467019Y-102851000D01*
X213263141Y-102851000D01*
X213150112Y-102873483D01*
X213150112Y-102256160D01*
X213137852Y-102131678D01*
X213101542Y-102011980D01*
X213061648Y-101937345D01*
X213098645Y-101881976D01*
X213176666Y-101693618D01*
X213216440Y-101493659D01*
X213216440Y-101289781D01*
X213176666Y-101089822D01*
X213098645Y-100901464D01*
X212985377Y-100731946D01*
X212841214Y-100587783D01*
X212671696Y-100474515D01*
X212489436Y-100399020D01*
X217593798Y-100399020D01*
X217631120Y-100402696D01*
X217668442Y-100399020D01*
X217668453Y-100399020D01*
X217780106Y-100388023D01*
X217923367Y-100344566D01*
X218049600Y-100277092D01*
X218275072Y-100277092D01*
X218291899Y-102883373D01*
G36*
X209208634Y-89145716D02*
G01*
X209290936Y-90337721D01*
X209267258Y-90424367D01*
X209112658Y-90578967D01*
X209083660Y-90602765D01*
X209059862Y-90631763D01*
X209059861Y-90631764D01*
X208988686Y-90718490D01*
X208918114Y-90850520D01*
X208907825Y-90884440D01*
X208906068Y-90890233D01*
X208897369Y-90887594D01*
X208777066Y-90875746D01*
X208757494Y-90839130D01*
X208662521Y-90723405D01*
X208633517Y-90699602D01*
X208357439Y-90423524D01*
X208333636Y-90394520D01*
X208217911Y-90299547D01*
X208085882Y-90228975D01*
X207992578Y-90200672D01*
X208028348Y-90082754D01*
X208045412Y-89909500D01*
X208045412Y-89409500D01*
X208041981Y-89374661D01*
X208519070Y-88897572D01*
X208960491Y-88897572D01*
X209208634Y-89145716D01*
G37*
X209208634Y-89145716D02*
X209290936Y-90337721D01*
X209267258Y-90424367D01*
X209112658Y-90578967D01*
X209083660Y-90602765D01*
X209059862Y-90631763D01*
X209059861Y-90631764D01*
X208988686Y-90718490D01*
X208918114Y-90850520D01*
X208907825Y-90884440D01*
X208906068Y-90890233D01*
X208897369Y-90887594D01*
X208777066Y-90875746D01*
X208757494Y-90839130D01*
X208662521Y-90723405D01*
X208633517Y-90699602D01*
X208357439Y-90423524D01*
X208333636Y-90394520D01*
X208217911Y-90299547D01*
X208085882Y-90228975D01*
X207992578Y-90200672D01*
X208028348Y-90082754D01*
X208045412Y-89909500D01*
X208045412Y-89409500D01*
X208041981Y-89374661D01*
X208519070Y-88897572D01*
X208960491Y-88897572D01*
X209208634Y-89145716D01*
G36*
X216420408Y-85631932D02*
G01*
X216554036Y-85741598D01*
X216706491Y-85823087D01*
X216871915Y-85873268D01*
X217043950Y-85890212D01*
X217550971Y-85890212D01*
X218531761Y-86871003D01*
X218555559Y-86900001D01*
X218671284Y-86994974D01*
X218803313Y-87065546D01*
X218946574Y-87109003D01*
X219058227Y-87120000D01*
X219058235Y-87120000D01*
X219095560Y-87123676D01*
X219132885Y-87120000D01*
X219145199Y-87120000D01*
X219037353Y-87227846D01*
X219008349Y-87251649D01*
X218978710Y-87287765D01*
X218913376Y-87367374D01*
X218845343Y-87494653D01*
X218842804Y-87499404D01*
X218799347Y-87642665D01*
X218788350Y-87754318D01*
X218788350Y-87754328D01*
X218784674Y-87791650D01*
X218788350Y-87828973D01*
X218788351Y-89165947D01*
X218042044Y-89912255D01*
X218040674Y-89913390D01*
X218035799Y-89918311D01*
X218030533Y-89922838D01*
X218010720Y-89943579D01*
X217990501Y-89963798D01*
X217989370Y-89965176D01*
X217961713Y-89993093D01*
X217957867Y-89998907D01*
X217651381Y-90319748D01*
X217170950Y-90319748D01*
X216998915Y-90336692D01*
X216833491Y-90386873D01*
X216681036Y-90468362D01*
X216648468Y-90495090D01*
X216684222Y-90428200D01*
X216720532Y-90308502D01*
X216732792Y-90184020D01*
X216732792Y-89084020D01*
X216720532Y-88959538D01*
X216684222Y-88839840D01*
X216625257Y-88729526D01*
X216545905Y-88632835D01*
X216449214Y-88553483D01*
X216338900Y-88494518D01*
X216219202Y-88458208D01*
X216094720Y-88445948D01*
X214794720Y-88445948D01*
X214670238Y-88458208D01*
X214550540Y-88494518D01*
X214440226Y-88553483D01*
X214343535Y-88632835D01*
X214264183Y-88729526D01*
X214205218Y-88839840D01*
X214168908Y-88959538D01*
X214156648Y-89084020D01*
X214156648Y-89905381D01*
X214092054Y-89899019D01*
X214092043Y-89899019D01*
X214054721Y-89895343D01*
X214017399Y-89899019D01*
X212790370Y-89899019D01*
X212757558Y-89866207D01*
X212733755Y-89837203D01*
X212618030Y-89742230D01*
X212486001Y-89671658D01*
X212342740Y-89628201D01*
X212231087Y-89617204D01*
X212231076Y-89617204D01*
X212193754Y-89613528D01*
X212156432Y-89617204D01*
X210764806Y-89617204D01*
X210709808Y-88820655D01*
X210710906Y-88809510D01*
X210704660Y-88746092D01*
X210702853Y-88719917D01*
X210701001Y-88708940D01*
X210696233Y-88660524D01*
X210688576Y-88635282D01*
X210684191Y-88609287D01*
X210666902Y-88563831D01*
X210652776Y-88517263D01*
X210640344Y-88494004D01*
X210630970Y-88469359D01*
X210605137Y-88428139D01*
X210582204Y-88385234D01*
X210565472Y-88364846D01*
X210551471Y-88342505D01*
X210518102Y-88307125D01*
X210511029Y-88298507D01*
X210492452Y-88279931D01*
X210448752Y-88233597D01*
X210439630Y-88227108D01*
X210256861Y-88044339D01*
X210260292Y-88009500D01*
X210260292Y-87704827D01*
X210290451Y-87720947D01*
X210455875Y-87771128D01*
X210627910Y-87788072D01*
X211540410Y-87788072D01*
X211712445Y-87771128D01*
X211877869Y-87720947D01*
X212030324Y-87639458D01*
X212163952Y-87529792D01*
X212218908Y-87462828D01*
X212279746Y-87512757D01*
X212390060Y-87571722D01*
X212509758Y-87608032D01*
X212634240Y-87620292D01*
X213694240Y-87620292D01*
X213818722Y-87608032D01*
X213938420Y-87571722D01*
X214048734Y-87512757D01*
X214145425Y-87433405D01*
X214192429Y-87376131D01*
X214236487Y-87362766D01*
X214299597Y-87329032D01*
X214303703Y-87336714D01*
X214383055Y-87433405D01*
X214479746Y-87512757D01*
X214590060Y-87571722D01*
X214709758Y-87608032D01*
X214834240Y-87620292D01*
X215894240Y-87620292D01*
X216018722Y-87608032D01*
X216138420Y-87571722D01*
X216248734Y-87512757D01*
X216345425Y-87433405D01*
X216424777Y-87336714D01*
X216483742Y-87226400D01*
X216520052Y-87106702D01*
X216532312Y-86982220D01*
X216532312Y-86332220D01*
X216520052Y-86207738D01*
X216483742Y-86088040D01*
X216424777Y-85977726D01*
X216345425Y-85881035D01*
X216248734Y-85801683D01*
X216138420Y-85742718D01*
X216021399Y-85707220D01*
X216138420Y-85671722D01*
X216248734Y-85612757D01*
X216341914Y-85536287D01*
X216420408Y-85631932D01*
G37*
X216420408Y-85631932D02*
X216554036Y-85741598D01*
X216706491Y-85823087D01*
X216871915Y-85873268D01*
X217043950Y-85890212D01*
X217550971Y-85890212D01*
X218531761Y-86871003D01*
X218555559Y-86900001D01*
X218671284Y-86994974D01*
X218803313Y-87065546D01*
X218946574Y-87109003D01*
X219058227Y-87120000D01*
X219058235Y-87120000D01*
X219095560Y-87123676D01*
X219132885Y-87120000D01*
X219145199Y-87120000D01*
X219037353Y-87227846D01*
X219008349Y-87251649D01*
X218978710Y-87287765D01*
X218913376Y-87367374D01*
X218845343Y-87494653D01*
X218842804Y-87499404D01*
X218799347Y-87642665D01*
X218788350Y-87754318D01*
X218788350Y-87754328D01*
X218784674Y-87791650D01*
X218788350Y-87828973D01*
X218788351Y-89165947D01*
X218042044Y-89912255D01*
X218040674Y-89913390D01*
X218035799Y-89918311D01*
X218030533Y-89922838D01*
X218010720Y-89943579D01*
X217990501Y-89963798D01*
X217989370Y-89965176D01*
X217961713Y-89993093D01*
X217957867Y-89998907D01*
X217651381Y-90319748D01*
X217170950Y-90319748D01*
X216998915Y-90336692D01*
X216833491Y-90386873D01*
X216681036Y-90468362D01*
X216648468Y-90495090D01*
X216684222Y-90428200D01*
X216720532Y-90308502D01*
X216732792Y-90184020D01*
X216732792Y-89084020D01*
X216720532Y-88959538D01*
X216684222Y-88839840D01*
X216625257Y-88729526D01*
X216545905Y-88632835D01*
X216449214Y-88553483D01*
X216338900Y-88494518D01*
X216219202Y-88458208D01*
X216094720Y-88445948D01*
X214794720Y-88445948D01*
X214670238Y-88458208D01*
X214550540Y-88494518D01*
X214440226Y-88553483D01*
X214343535Y-88632835D01*
X214264183Y-88729526D01*
X214205218Y-88839840D01*
X214168908Y-88959538D01*
X214156648Y-89084020D01*
X214156648Y-89905381D01*
X214092054Y-89899019D01*
X214092043Y-89899019D01*
X214054721Y-89895343D01*
X214017399Y-89899019D01*
X212790370Y-89899019D01*
X212757558Y-89866207D01*
X212733755Y-89837203D01*
X212618030Y-89742230D01*
X212486001Y-89671658D01*
X212342740Y-89628201D01*
X212231087Y-89617204D01*
X212231076Y-89617204D01*
X212193754Y-89613528D01*
X212156432Y-89617204D01*
X210764806Y-89617204D01*
X210709808Y-88820655D01*
X210710906Y-88809510D01*
X210704660Y-88746092D01*
X210702853Y-88719917D01*
X210701001Y-88708940D01*
X210696233Y-88660524D01*
X210688576Y-88635282D01*
X210684191Y-88609287D01*
X210666902Y-88563831D01*
X210652776Y-88517263D01*
X210640344Y-88494004D01*
X210630970Y-88469359D01*
X210605137Y-88428139D01*
X210582204Y-88385234D01*
X210565472Y-88364846D01*
X210551471Y-88342505D01*
X210518102Y-88307125D01*
X210511029Y-88298507D01*
X210492452Y-88279931D01*
X210448752Y-88233597D01*
X210439630Y-88227108D01*
X210256861Y-88044339D01*
X210260292Y-88009500D01*
X210260292Y-87704827D01*
X210290451Y-87720947D01*
X210455875Y-87771128D01*
X210627910Y-87788072D01*
X211540410Y-87788072D01*
X211712445Y-87771128D01*
X211877869Y-87720947D01*
X212030324Y-87639458D01*
X212163952Y-87529792D01*
X212218908Y-87462828D01*
X212279746Y-87512757D01*
X212390060Y-87571722D01*
X212509758Y-87608032D01*
X212634240Y-87620292D01*
X213694240Y-87620292D01*
X213818722Y-87608032D01*
X213938420Y-87571722D01*
X214048734Y-87512757D01*
X214145425Y-87433405D01*
X214192429Y-87376131D01*
X214236487Y-87362766D01*
X214299597Y-87329032D01*
X214303703Y-87336714D01*
X214383055Y-87433405D01*
X214479746Y-87512757D01*
X214590060Y-87571722D01*
X214709758Y-87608032D01*
X214834240Y-87620292D01*
X215894240Y-87620292D01*
X216018722Y-87608032D01*
X216138420Y-87571722D01*
X216248734Y-87512757D01*
X216345425Y-87433405D01*
X216424777Y-87336714D01*
X216483742Y-87226400D01*
X216520052Y-87106702D01*
X216532312Y-86982220D01*
X216532312Y-86332220D01*
X216520052Y-86207738D01*
X216483742Y-86088040D01*
X216424777Y-85977726D01*
X216345425Y-85881035D01*
X216248734Y-85801683D01*
X216138420Y-85742718D01*
X216021399Y-85707220D01*
X216138420Y-85671722D01*
X216248734Y-85612757D01*
X216341914Y-85536287D01*
X216420408Y-85631932D01*
G36*
X222745701Y-77037578D02*
G01*
X222745701Y-90397774D01*
X222718800Y-90364995D01*
X222718796Y-90364991D01*
X222695002Y-90335998D01*
X222666010Y-90312205D01*
X222160296Y-89806492D01*
X222295990Y-89603411D01*
X222407932Y-89333158D01*
X222465000Y-89046260D01*
X222465000Y-88753740D01*
X222407932Y-88466842D01*
X222295990Y-88196589D01*
X222133475Y-87953368D01*
X221926632Y-87746525D01*
X221752240Y-87630000D01*
X221926632Y-87513475D01*
X222133475Y-87306632D01*
X222295990Y-87063411D01*
X222407932Y-86793158D01*
X222465000Y-86506260D01*
X222465000Y-86213740D01*
X222407932Y-85926842D01*
X222295990Y-85656589D01*
X222133475Y-85413368D01*
X221926632Y-85206525D01*
X221683411Y-85044010D01*
X221413158Y-84932068D01*
X221126260Y-84875000D01*
X220833740Y-84875000D01*
X220546842Y-84932068D01*
X220276589Y-85044010D01*
X220033368Y-85206525D01*
X219826525Y-85413368D01*
X219701822Y-85600000D01*
X219410362Y-85600000D01*
X218836522Y-85026160D01*
X218838272Y-85008390D01*
X218838272Y-84520890D01*
X218821328Y-84348855D01*
X218771147Y-84183431D01*
X218689658Y-84030976D01*
X218579992Y-83897348D01*
X218446364Y-83787682D01*
X218293909Y-83706193D01*
X218128485Y-83656012D01*
X217956450Y-83639068D01*
X217043950Y-83639068D01*
X216871915Y-83656012D01*
X216706491Y-83706193D01*
X216554036Y-83787682D01*
X216420408Y-83897348D01*
X216348576Y-83984875D01*
X216345425Y-83981035D01*
X216248734Y-83901683D01*
X216138420Y-83842718D01*
X216018722Y-83806408D01*
X215894240Y-83794148D01*
X214834240Y-83794148D01*
X214709758Y-83806408D01*
X214590060Y-83842718D01*
X214479746Y-83901683D01*
X214383055Y-83981035D01*
X214303703Y-84077726D01*
X214299597Y-84085408D01*
X214236487Y-84051674D01*
X214192429Y-84038309D01*
X214145425Y-83981035D01*
X214048734Y-83901683D01*
X213938420Y-83842718D01*
X213924240Y-83838417D01*
X213924240Y-83740121D01*
X215047659Y-83740121D01*
X215084981Y-83743797D01*
X215122303Y-83740121D01*
X215122314Y-83740121D01*
X215233967Y-83729124D01*
X215377228Y-83685667D01*
X215509257Y-83615095D01*
X215624982Y-83520122D01*
X215648785Y-83491118D01*
X216930241Y-82209662D01*
X217051931Y-82274707D01*
X217217355Y-82324888D01*
X217389390Y-82341832D01*
X218301890Y-82341832D01*
X218473925Y-82324888D01*
X218639349Y-82274707D01*
X218791804Y-82193218D01*
X218925432Y-82083552D01*
X219035098Y-81949924D01*
X219116587Y-81797469D01*
X219166768Y-81632045D01*
X219183712Y-81460010D01*
X219183712Y-80972510D01*
X219166768Y-80800475D01*
X219116587Y-80635051D01*
X219035098Y-80482596D01*
X218925432Y-80348968D01*
X218842613Y-80281000D01*
X218948292Y-80194272D01*
X219057958Y-80060644D01*
X219139447Y-79908189D01*
X219189628Y-79742765D01*
X219206572Y-79570730D01*
X219206572Y-79481374D01*
X219692655Y-79967457D01*
X219678815Y-79978815D01*
X219599463Y-80075506D01*
X219540498Y-80185820D01*
X219504188Y-80305518D01*
X219491928Y-80430000D01*
X219491928Y-82130000D01*
X219504188Y-82254482D01*
X219540498Y-82374180D01*
X219599463Y-82484494D01*
X219678815Y-82581185D01*
X219775506Y-82660537D01*
X219885820Y-82719502D01*
X220005518Y-82755812D01*
X220130000Y-82768072D01*
X221830000Y-82768072D01*
X221954482Y-82755812D01*
X222074180Y-82719502D01*
X222184494Y-82660537D01*
X222281185Y-82581185D01*
X222360537Y-82484494D01*
X222419502Y-82374180D01*
X222455812Y-82254482D01*
X222468072Y-82130000D01*
X222468072Y-80430000D01*
X222455812Y-80305518D01*
X222419502Y-80185820D01*
X222360537Y-80075506D01*
X222281185Y-79978815D01*
X222184494Y-79899463D01*
X222074180Y-79840498D01*
X221954482Y-79804188D01*
X221830000Y-79791928D01*
X221634326Y-79791928D01*
X221614974Y-79755723D01*
X221543799Y-79668997D01*
X221520001Y-79639999D01*
X221491003Y-79616201D01*
X219206572Y-77331771D01*
X219206572Y-77208230D01*
X219189647Y-77036385D01*
X222745701Y-77037578D01*
G37*
X222745701Y-77037578D02*
X222745701Y-90397774D01*
X222718800Y-90364995D01*
X222718796Y-90364991D01*
X222695002Y-90335998D01*
X222666010Y-90312205D01*
X222160296Y-89806492D01*
X222295990Y-89603411D01*
X222407932Y-89333158D01*
X222465000Y-89046260D01*
X222465000Y-88753740D01*
X222407932Y-88466842D01*
X222295990Y-88196589D01*
X222133475Y-87953368D01*
X221926632Y-87746525D01*
X221752240Y-87630000D01*
X221926632Y-87513475D01*
X222133475Y-87306632D01*
X222295990Y-87063411D01*
X222407932Y-86793158D01*
X222465000Y-86506260D01*
X222465000Y-86213740D01*
X222407932Y-85926842D01*
X222295990Y-85656589D01*
X222133475Y-85413368D01*
X221926632Y-85206525D01*
X221683411Y-85044010D01*
X221413158Y-84932068D01*
X221126260Y-84875000D01*
X220833740Y-84875000D01*
X220546842Y-84932068D01*
X220276589Y-85044010D01*
X220033368Y-85206525D01*
X219826525Y-85413368D01*
X219701822Y-85600000D01*
X219410362Y-85600000D01*
X218836522Y-85026160D01*
X218838272Y-85008390D01*
X218838272Y-84520890D01*
X218821328Y-84348855D01*
X218771147Y-84183431D01*
X218689658Y-84030976D01*
X218579992Y-83897348D01*
X218446364Y-83787682D01*
X218293909Y-83706193D01*
X218128485Y-83656012D01*
X217956450Y-83639068D01*
X217043950Y-83639068D01*
X216871915Y-83656012D01*
X216706491Y-83706193D01*
X216554036Y-83787682D01*
X216420408Y-83897348D01*
X216348576Y-83984875D01*
X216345425Y-83981035D01*
X216248734Y-83901683D01*
X216138420Y-83842718D01*
X216018722Y-83806408D01*
X215894240Y-83794148D01*
X214834240Y-83794148D01*
X214709758Y-83806408D01*
X214590060Y-83842718D01*
X214479746Y-83901683D01*
X214383055Y-83981035D01*
X214303703Y-84077726D01*
X214299597Y-84085408D01*
X214236487Y-84051674D01*
X214192429Y-84038309D01*
X214145425Y-83981035D01*
X214048734Y-83901683D01*
X213938420Y-83842718D01*
X213924240Y-83838417D01*
X213924240Y-83740121D01*
X215047659Y-83740121D01*
X215084981Y-83743797D01*
X215122303Y-83740121D01*
X215122314Y-83740121D01*
X215233967Y-83729124D01*
X215377228Y-83685667D01*
X215509257Y-83615095D01*
X215624982Y-83520122D01*
X215648785Y-83491118D01*
X216930241Y-82209662D01*
X217051931Y-82274707D01*
X217217355Y-82324888D01*
X217389390Y-82341832D01*
X218301890Y-82341832D01*
X218473925Y-82324888D01*
X218639349Y-82274707D01*
X218791804Y-82193218D01*
X218925432Y-82083552D01*
X219035098Y-81949924D01*
X219116587Y-81797469D01*
X219166768Y-81632045D01*
X219183712Y-81460010D01*
X219183712Y-80972510D01*
X219166768Y-80800475D01*
X219116587Y-80635051D01*
X219035098Y-80482596D01*
X218925432Y-80348968D01*
X218842613Y-80281000D01*
X218948292Y-80194272D01*
X219057958Y-80060644D01*
X219139447Y-79908189D01*
X219189628Y-79742765D01*
X219206572Y-79570730D01*
X219206572Y-79481374D01*
X219692655Y-79967457D01*
X219678815Y-79978815D01*
X219599463Y-80075506D01*
X219540498Y-80185820D01*
X219504188Y-80305518D01*
X219491928Y-80430000D01*
X219491928Y-82130000D01*
X219504188Y-82254482D01*
X219540498Y-82374180D01*
X219599463Y-82484494D01*
X219678815Y-82581185D01*
X219775506Y-82660537D01*
X219885820Y-82719502D01*
X220005518Y-82755812D01*
X220130000Y-82768072D01*
X221830000Y-82768072D01*
X221954482Y-82755812D01*
X222074180Y-82719502D01*
X222184494Y-82660537D01*
X222281185Y-82581185D01*
X222360537Y-82484494D01*
X222419502Y-82374180D01*
X222455812Y-82254482D01*
X222468072Y-82130000D01*
X222468072Y-80430000D01*
X222455812Y-80305518D01*
X222419502Y-80185820D01*
X222360537Y-80075506D01*
X222281185Y-79978815D01*
X222184494Y-79899463D01*
X222074180Y-79840498D01*
X221954482Y-79804188D01*
X221830000Y-79791928D01*
X221634326Y-79791928D01*
X221614974Y-79755723D01*
X221543799Y-79668997D01*
X221520001Y-79639999D01*
X221491003Y-79616201D01*
X219206572Y-77331771D01*
X219206572Y-77208230D01*
X219189647Y-77036385D01*
X222745701Y-77037578D01*
G36*
X205053908Y-78357372D02*
G01*
X205139456Y-78427580D01*
X205053908Y-78497788D01*
X204944242Y-78631416D01*
X204862753Y-78783871D01*
X204812572Y-78949295D01*
X204795628Y-79121330D01*
X204795628Y-79608830D01*
X204812572Y-79780865D01*
X204862753Y-79946289D01*
X204944242Y-80098744D01*
X205053908Y-80232372D01*
X205113996Y-80281685D01*
X205017902Y-80398776D01*
X204936413Y-80551231D01*
X204886232Y-80716655D01*
X204869288Y-80888690D01*
X204869288Y-81376190D01*
X204886232Y-81548225D01*
X204936413Y-81713649D01*
X205017902Y-81866104D01*
X205127568Y-81999732D01*
X205261196Y-82109398D01*
X205413651Y-82190887D01*
X205579075Y-82241068D01*
X205751110Y-82258012D01*
X206663610Y-82258012D01*
X206835645Y-82241068D01*
X207001069Y-82190887D01*
X207153524Y-82109398D01*
X207287152Y-81999732D01*
X207396818Y-81866104D01*
X207478307Y-81713649D01*
X207528488Y-81548225D01*
X207545432Y-81376190D01*
X207545432Y-80953993D01*
X207715021Y-81093171D01*
X207916540Y-81200885D01*
X208135200Y-81267215D01*
X208362600Y-81289612D01*
X208404528Y-81285482D01*
X208404528Y-82443218D01*
X208277098Y-82390434D01*
X208077139Y-82350660D01*
X207873261Y-82350660D01*
X207673302Y-82390434D01*
X207484944Y-82468455D01*
X207315426Y-82581723D01*
X207171263Y-82725886D01*
X207057995Y-82895404D01*
X206979974Y-83083762D01*
X206940200Y-83283721D01*
X206940200Y-83487599D01*
X206979974Y-83687558D01*
X207057995Y-83875916D01*
X207093188Y-83928587D01*
X207045255Y-83986994D01*
X206963188Y-84140530D01*
X206912652Y-84307126D01*
X206895588Y-84480380D01*
X206895588Y-85430380D01*
X206912652Y-85603634D01*
X206963188Y-85770230D01*
X207045255Y-85923766D01*
X207155698Y-86058342D01*
X207290274Y-86168785D01*
X207443810Y-86250852D01*
X207610406Y-86301388D01*
X207783660Y-86318452D01*
X208283660Y-86318452D01*
X208456914Y-86301388D01*
X208623510Y-86250852D01*
X208777046Y-86168785D01*
X208911622Y-86058342D01*
X209022065Y-85923766D01*
X209104132Y-85770230D01*
X209154668Y-85603634D01*
X209171732Y-85430380D01*
X209171732Y-84480380D01*
X209154668Y-84307126D01*
X209104132Y-84140530D01*
X209022065Y-83986994D01*
X208911622Y-83852418D01*
X208904544Y-83846609D01*
X208970426Y-83687558D01*
X209010200Y-83487599D01*
X209010200Y-83288881D01*
X209042600Y-83292072D01*
X210192600Y-83292072D01*
X210317082Y-83279812D01*
X210436780Y-83243502D01*
X210476576Y-83222230D01*
X210498098Y-83293180D01*
X210557063Y-83403494D01*
X210636415Y-83500185D01*
X210733106Y-83579537D01*
X210843420Y-83638502D01*
X210963118Y-83674812D01*
X211087600Y-83687072D01*
X211487600Y-83687072D01*
X211612082Y-83674812D01*
X211612600Y-83674655D01*
X211613118Y-83674812D01*
X211737600Y-83687072D01*
X212137600Y-83687072D01*
X212262082Y-83674812D01*
X212262600Y-83674655D01*
X212263118Y-83674812D01*
X212387600Y-83687072D01*
X212404240Y-83687072D01*
X212404240Y-83838416D01*
X212390060Y-83842718D01*
X212279746Y-83901683D01*
X212183055Y-83981035D01*
X212103703Y-84077726D01*
X212044738Y-84188040D01*
X212008428Y-84307738D01*
X211996168Y-84432220D01*
X211996168Y-85082220D01*
X212008428Y-85206702D01*
X212044738Y-85326400D01*
X212103703Y-85436714D01*
X212183055Y-85533405D01*
X212279746Y-85612757D01*
X212390060Y-85671722D01*
X212507081Y-85707220D01*
X212390060Y-85742718D01*
X212279746Y-85801683D01*
X212213729Y-85855861D01*
X212163952Y-85795208D01*
X212030324Y-85685542D01*
X211877869Y-85604053D01*
X211712445Y-85553872D01*
X211540410Y-85536928D01*
X210627910Y-85536928D01*
X210455875Y-85553872D01*
X210290451Y-85604053D01*
X210137996Y-85685542D01*
X210004368Y-85795208D01*
X209894702Y-85928836D01*
X209813213Y-86081291D01*
X209763032Y-86246715D01*
X209746088Y-86418750D01*
X209746088Y-86707211D01*
X209712070Y-86689028D01*
X209545474Y-86638492D01*
X209372220Y-86621428D01*
X208422220Y-86621428D01*
X208248966Y-86638492D01*
X208082370Y-86689028D01*
X207928834Y-86771095D01*
X207794258Y-86881538D01*
X207683815Y-87016114D01*
X207601748Y-87169650D01*
X207551212Y-87336246D01*
X207534148Y-87509500D01*
X207534148Y-87732890D01*
X206745611Y-88521428D01*
X206207340Y-88521428D01*
X206034086Y-88538492D01*
X205867490Y-88589028D01*
X205713954Y-88671095D01*
X205579378Y-88781538D01*
X205468935Y-88916114D01*
X205386868Y-89069650D01*
X205336332Y-89236246D01*
X205320458Y-89397418D01*
X205135001Y-89211961D01*
X205135001Y-85032323D01*
X205138677Y-84995000D01*
X205135001Y-84957677D01*
X205135001Y-84957668D01*
X205124004Y-84846015D01*
X205080547Y-84702754D01*
X205009975Y-84570725D01*
X204915002Y-84455000D01*
X204885998Y-84431197D01*
X204641209Y-84186408D01*
X204685000Y-83966260D01*
X204685000Y-83673740D01*
X204627932Y-83386842D01*
X204515990Y-83116589D01*
X204353475Y-82873368D01*
X204146632Y-82666525D01*
X203903411Y-82504010D01*
X203633158Y-82392068D01*
X203346260Y-82335000D01*
X203053740Y-82335000D01*
X202833592Y-82378791D01*
X202784999Y-82330198D01*
X202784999Y-80484800D01*
X204990135Y-78279665D01*
X205053908Y-78357372D01*
G37*
X205053908Y-78357372D02*
X205139456Y-78427580D01*
X205053908Y-78497788D01*
X204944242Y-78631416D01*
X204862753Y-78783871D01*
X204812572Y-78949295D01*
X204795628Y-79121330D01*
X204795628Y-79608830D01*
X204812572Y-79780865D01*
X204862753Y-79946289D01*
X204944242Y-80098744D01*
X205053908Y-80232372D01*
X205113996Y-80281685D01*
X205017902Y-80398776D01*
X204936413Y-80551231D01*
X204886232Y-80716655D01*
X204869288Y-80888690D01*
X204869288Y-81376190D01*
X204886232Y-81548225D01*
X204936413Y-81713649D01*
X205017902Y-81866104D01*
X205127568Y-81999732D01*
X205261196Y-82109398D01*
X205413651Y-82190887D01*
X205579075Y-82241068D01*
X205751110Y-82258012D01*
X206663610Y-82258012D01*
X206835645Y-82241068D01*
X207001069Y-82190887D01*
X207153524Y-82109398D01*
X207287152Y-81999732D01*
X207396818Y-81866104D01*
X207478307Y-81713649D01*
X207528488Y-81548225D01*
X207545432Y-81376190D01*
X207545432Y-80953993D01*
X207715021Y-81093171D01*
X207916540Y-81200885D01*
X208135200Y-81267215D01*
X208362600Y-81289612D01*
X208404528Y-81285482D01*
X208404528Y-82443218D01*
X208277098Y-82390434D01*
X208077139Y-82350660D01*
X207873261Y-82350660D01*
X207673302Y-82390434D01*
X207484944Y-82468455D01*
X207315426Y-82581723D01*
X207171263Y-82725886D01*
X207057995Y-82895404D01*
X206979974Y-83083762D01*
X206940200Y-83283721D01*
X206940200Y-83487599D01*
X206979974Y-83687558D01*
X207057995Y-83875916D01*
X207093188Y-83928587D01*
X207045255Y-83986994D01*
X206963188Y-84140530D01*
X206912652Y-84307126D01*
X206895588Y-84480380D01*
X206895588Y-85430380D01*
X206912652Y-85603634D01*
X206963188Y-85770230D01*
X207045255Y-85923766D01*
X207155698Y-86058342D01*
X207290274Y-86168785D01*
X207443810Y-86250852D01*
X207610406Y-86301388D01*
X207783660Y-86318452D01*
X208283660Y-86318452D01*
X208456914Y-86301388D01*
X208623510Y-86250852D01*
X208777046Y-86168785D01*
X208911622Y-86058342D01*
X209022065Y-85923766D01*
X209104132Y-85770230D01*
X209154668Y-85603634D01*
X209171732Y-85430380D01*
X209171732Y-84480380D01*
X209154668Y-84307126D01*
X209104132Y-84140530D01*
X209022065Y-83986994D01*
X208911622Y-83852418D01*
X208904544Y-83846609D01*
X208970426Y-83687558D01*
X209010200Y-83487599D01*
X209010200Y-83288881D01*
X209042600Y-83292072D01*
X210192600Y-83292072D01*
X210317082Y-83279812D01*
X210436780Y-83243502D01*
X210476576Y-83222230D01*
X210498098Y-83293180D01*
X210557063Y-83403494D01*
X210636415Y-83500185D01*
X210733106Y-83579537D01*
X210843420Y-83638502D01*
X210963118Y-83674812D01*
X211087600Y-83687072D01*
X211487600Y-83687072D01*
X211612082Y-83674812D01*
X211612600Y-83674655D01*
X211613118Y-83674812D01*
X211737600Y-83687072D01*
X212137600Y-83687072D01*
X212262082Y-83674812D01*
X212262600Y-83674655D01*
X212263118Y-83674812D01*
X212387600Y-83687072D01*
X212404240Y-83687072D01*
X212404240Y-83838416D01*
X212390060Y-83842718D01*
X212279746Y-83901683D01*
X212183055Y-83981035D01*
X212103703Y-84077726D01*
X212044738Y-84188040D01*
X212008428Y-84307738D01*
X211996168Y-84432220D01*
X211996168Y-85082220D01*
X212008428Y-85206702D01*
X212044738Y-85326400D01*
X212103703Y-85436714D01*
X212183055Y-85533405D01*
X212279746Y-85612757D01*
X212390060Y-85671722D01*
X212507081Y-85707220D01*
X212390060Y-85742718D01*
X212279746Y-85801683D01*
X212213729Y-85855861D01*
X212163952Y-85795208D01*
X212030324Y-85685542D01*
X211877869Y-85604053D01*
X211712445Y-85553872D01*
X211540410Y-85536928D01*
X210627910Y-85536928D01*
X210455875Y-85553872D01*
X210290451Y-85604053D01*
X210137996Y-85685542D01*
X210004368Y-85795208D01*
X209894702Y-85928836D01*
X209813213Y-86081291D01*
X209763032Y-86246715D01*
X209746088Y-86418750D01*
X209746088Y-86707211D01*
X209712070Y-86689028D01*
X209545474Y-86638492D01*
X209372220Y-86621428D01*
X208422220Y-86621428D01*
X208248966Y-86638492D01*
X208082370Y-86689028D01*
X207928834Y-86771095D01*
X207794258Y-86881538D01*
X207683815Y-87016114D01*
X207601748Y-87169650D01*
X207551212Y-87336246D01*
X207534148Y-87509500D01*
X207534148Y-87732890D01*
X206745611Y-88521428D01*
X206207340Y-88521428D01*
X206034086Y-88538492D01*
X205867490Y-88589028D01*
X205713954Y-88671095D01*
X205579378Y-88781538D01*
X205468935Y-88916114D01*
X205386868Y-89069650D01*
X205336332Y-89236246D01*
X205320458Y-89397418D01*
X205135001Y-89211961D01*
X205135001Y-85032323D01*
X205138677Y-84995000D01*
X205135001Y-84957677D01*
X205135001Y-84957668D01*
X205124004Y-84846015D01*
X205080547Y-84702754D01*
X205009975Y-84570725D01*
X204915002Y-84455000D01*
X204885998Y-84431197D01*
X204641209Y-84186408D01*
X204685000Y-83966260D01*
X204685000Y-83673740D01*
X204627932Y-83386842D01*
X204515990Y-83116589D01*
X204353475Y-82873368D01*
X204146632Y-82666525D01*
X203903411Y-82504010D01*
X203633158Y-82392068D01*
X203346260Y-82335000D01*
X203053740Y-82335000D01*
X202833592Y-82378791D01*
X202784999Y-82330198D01*
X202784999Y-80484800D01*
X204990135Y-78279665D01*
X205053908Y-78357372D01*
M02*
