G04 #@! TF.GenerationSoftware,KiCad,Pcbnew,(6.0.7)*
G04 #@! TF.CreationDate,2022-08-21T23:09:39-05:00*
G04 #@! TF.ProjectId,STM32QFN28Breakout,53544d33-3251-4464-9e32-38427265616b,rev?*
G04 #@! TF.SameCoordinates,Original*
G04 #@! TF.FileFunction,Legend,Top*
G04 #@! TF.FilePolarity,Positive*
%FSLAX46Y46*%
G04 Gerber Fmt 4.6, Leading zero omitted, Abs format (unit mm)*
G04 Created by KiCad (PCBNEW (6.0.7)) date 2022-08-21 23:09:39*
%MOMM*%
%LPD*%
G01*
G04 APERTURE LIST*
%ADD10C,0.100000*%
%ADD11C,0.120000*%
G04 #@! TA.AperFunction,Profile*
%ADD12C,0.050000*%
G04 #@! TD*
%ADD13C,0.152400*%
%ADD14C,0.127000*%
%ADD15C,0.150000*%
%ADD16C,0.120132*%
%ADD17C,0.200000*%
G04 APERTURE END LIST*
D10*
X209365333Y-79626666D02*
X209365333Y-80193333D01*
X209398666Y-80260000D01*
X209432000Y-80293333D01*
X209498666Y-80326666D01*
X209632000Y-80326666D01*
X209698666Y-80293333D01*
X209732000Y-80260000D01*
X209765333Y-80193333D01*
X209765333Y-79626666D01*
X210065333Y-80293333D02*
X210165333Y-80326666D01*
X210332000Y-80326666D01*
X210398666Y-80293333D01*
X210432000Y-80260000D01*
X210465333Y-80193333D01*
X210465333Y-80126666D01*
X210432000Y-80060000D01*
X210398666Y-80026666D01*
X210332000Y-79993333D01*
X210198666Y-79960000D01*
X210132000Y-79926666D01*
X210098666Y-79893333D01*
X210065333Y-79826666D01*
X210065333Y-79760000D01*
X210098666Y-79693333D01*
X210132000Y-79660000D01*
X210198666Y-79626666D01*
X210365333Y-79626666D01*
X210465333Y-79660000D01*
X210998666Y-79960000D02*
X211098666Y-79993333D01*
X211132000Y-80026666D01*
X211165333Y-80093333D01*
X211165333Y-80193333D01*
X211132000Y-80260000D01*
X211098666Y-80293333D01*
X211032000Y-80326666D01*
X210765333Y-80326666D01*
X210765333Y-79626666D01*
X210998666Y-79626666D01*
X211065333Y-79660000D01*
X211098666Y-79693333D01*
X211132000Y-79760000D01*
X211132000Y-79826666D01*
X211098666Y-79893333D01*
X211065333Y-79926666D01*
X210998666Y-79960000D01*
X210765333Y-79960000D01*
X211398666Y-79626666D02*
X211832000Y-79626666D01*
X211598666Y-79893333D01*
X211698666Y-79893333D01*
X211765333Y-79926666D01*
X211798666Y-79960000D01*
X211832000Y-80026666D01*
X211832000Y-80193333D01*
X211798666Y-80260000D01*
X211765333Y-80293333D01*
X211698666Y-80326666D01*
X211498666Y-80326666D01*
X211432000Y-80293333D01*
X211398666Y-80260000D01*
X212265333Y-79626666D02*
X212332000Y-79626666D01*
X212398666Y-79660000D01*
X212432000Y-79693333D01*
X212465333Y-79760000D01*
X212498666Y-79893333D01*
X212498666Y-80060000D01*
X212465333Y-80193333D01*
X212432000Y-80260000D01*
X212398666Y-80293333D01*
X212332000Y-80326666D01*
X212265333Y-80326666D01*
X212198666Y-80293333D01*
X212165333Y-80260000D01*
X212132000Y-80193333D01*
X212098666Y-80060000D01*
X212098666Y-79893333D01*
X212132000Y-79760000D01*
X212165333Y-79693333D01*
X212198666Y-79660000D01*
X212265333Y-79626666D01*
X212732000Y-79626666D02*
X213198666Y-79626666D01*
X212898666Y-80326666D01*
X213765333Y-79626666D02*
X213632000Y-79626666D01*
X213565333Y-79660000D01*
X213532000Y-79693333D01*
X213465333Y-79793333D01*
X213432000Y-79926666D01*
X213432000Y-80193333D01*
X213465333Y-80260000D01*
X213498666Y-80293333D01*
X213565333Y-80326666D01*
X213698666Y-80326666D01*
X213765333Y-80293333D01*
X213798666Y-80260000D01*
X213832000Y-80193333D01*
X213832000Y-80026666D01*
X213798666Y-79960000D01*
X213765333Y-79926666D01*
X213698666Y-79893333D01*
X213565333Y-79893333D01*
X213498666Y-79926666D01*
X213465333Y-79960000D01*
X213432000Y-80026666D01*
D11*
X206200600Y-81991900D02*
X205806900Y-81636300D01*
X206530800Y-81636300D02*
X206200600Y-81991900D01*
X205845000Y-82030000D02*
X206480000Y-82030000D01*
X205819600Y-81636300D02*
X206530800Y-81636300D01*
X217740600Y-81981900D02*
X217346900Y-81626300D01*
X217385000Y-82020000D02*
X218020000Y-82020000D01*
X218070800Y-81626300D02*
X217740600Y-81981900D01*
X217359600Y-81626300D02*
X218070800Y-81626300D01*
D12*
X201300000Y-78800000D02*
X201300000Y-108700000D01*
X201300000Y-108700000D02*
X222900000Y-108700000D01*
X222900000Y-108700000D02*
X222900000Y-78800000D01*
X222900000Y-78800000D02*
X201300000Y-78800000D01*
D13*
X213762166Y-94890166D02*
X213762166Y-94001166D01*
X214143166Y-94085833D02*
X214185500Y-94043500D01*
X214270166Y-94001166D01*
X214481833Y-94001166D01*
X214566500Y-94043500D01*
X214608833Y-94085833D01*
X214651166Y-94170500D01*
X214651166Y-94255166D01*
X214608833Y-94382166D01*
X214100833Y-94890166D01*
X214651166Y-94890166D01*
X215540166Y-94805500D02*
X215497833Y-94847833D01*
X215370833Y-94890166D01*
X215286166Y-94890166D01*
X215159166Y-94847833D01*
X215074500Y-94763166D01*
X215032166Y-94678500D01*
X214989833Y-94509166D01*
X214989833Y-94382166D01*
X215032166Y-94212833D01*
X215074500Y-94128166D01*
X215159166Y-94043500D01*
X215286166Y-94001166D01*
X215370833Y-94001166D01*
X215497833Y-94043500D01*
X215540166Y-94085833D01*
D10*
X219326190Y-108476190D02*
X219159523Y-108238095D01*
X219040476Y-108476190D02*
X219040476Y-107976190D01*
X219230952Y-107976190D01*
X219278571Y-108000000D01*
X219302380Y-108023809D01*
X219326190Y-108071428D01*
X219326190Y-108142857D01*
X219302380Y-108190476D01*
X219278571Y-108214285D01*
X219230952Y-108238095D01*
X219040476Y-108238095D01*
X219492857Y-107976190D02*
X219826190Y-108476190D01*
X219826190Y-107976190D02*
X219492857Y-108476190D01*
X220373809Y-107952380D02*
X219945238Y-108595238D01*
X220469047Y-107976190D02*
X220754761Y-107976190D01*
X220611904Y-108476190D02*
X220611904Y-107976190D01*
X220873809Y-107976190D02*
X221207142Y-108476190D01*
X221207142Y-107976190D02*
X220873809Y-108476190D01*
D14*
X204663000Y-103595714D02*
X204663000Y-103958571D01*
X204445285Y-103523142D02*
X205207285Y-103777142D01*
X204445285Y-104031142D01*
X204880714Y-104394000D02*
X204917000Y-104321428D01*
X204953285Y-104285142D01*
X205025857Y-104248857D01*
X205062142Y-104248857D01*
X205134714Y-104285142D01*
X205171000Y-104321428D01*
X205207285Y-104394000D01*
X205207285Y-104539142D01*
X205171000Y-104611714D01*
X205134714Y-104648000D01*
X205062142Y-104684285D01*
X205025857Y-104684285D01*
X204953285Y-104648000D01*
X204917000Y-104611714D01*
X204880714Y-104539142D01*
X204880714Y-104394000D01*
X204844428Y-104321428D01*
X204808142Y-104285142D01*
X204735571Y-104248857D01*
X204590428Y-104248857D01*
X204517857Y-104285142D01*
X204481571Y-104321428D01*
X204445285Y-104394000D01*
X204445285Y-104539142D01*
X204481571Y-104611714D01*
X204517857Y-104648000D01*
X204590428Y-104684285D01*
X204735571Y-104684285D01*
X204808142Y-104648000D01*
X204844428Y-104611714D01*
X204880714Y-104539142D01*
X205181000Y-80780142D02*
X205217285Y-80707571D01*
X205217285Y-80598714D01*
X205181000Y-80489857D01*
X205108428Y-80417285D01*
X205035857Y-80381000D01*
X204890714Y-80344714D01*
X204781857Y-80344714D01*
X204636714Y-80381000D01*
X204564142Y-80417285D01*
X204491571Y-80489857D01*
X204455285Y-80598714D01*
X204455285Y-80671285D01*
X204491571Y-80780142D01*
X204527857Y-80816428D01*
X204781857Y-80816428D01*
X204781857Y-80671285D01*
X204963285Y-81143000D02*
X204455285Y-81143000D01*
X204890714Y-81143000D02*
X204927000Y-81179285D01*
X204963285Y-81251857D01*
X204963285Y-81360714D01*
X204927000Y-81433285D01*
X204854428Y-81469571D01*
X204455285Y-81469571D01*
X204455285Y-82159000D02*
X205217285Y-82159000D01*
X204491571Y-82159000D02*
X204455285Y-82086428D01*
X204455285Y-81941285D01*
X204491571Y-81868714D01*
X204527857Y-81832428D01*
X204600428Y-81796142D01*
X204818142Y-81796142D01*
X204890714Y-81832428D01*
X204927000Y-81868714D01*
X204963285Y-81941285D01*
X204963285Y-82086428D01*
X204927000Y-82159000D01*
X204517857Y-106453000D02*
X204481571Y-106416714D01*
X204445285Y-106307857D01*
X204445285Y-106235285D01*
X204481571Y-106126428D01*
X204554142Y-106053857D01*
X204626714Y-106017571D01*
X204771857Y-105981285D01*
X204880714Y-105981285D01*
X205025857Y-106017571D01*
X205098428Y-106053857D01*
X205171000Y-106126428D01*
X205207285Y-106235285D01*
X205207285Y-106307857D01*
X205171000Y-106416714D01*
X205134714Y-106453000D01*
X205207285Y-107106142D02*
X205207285Y-106961000D01*
X205171000Y-106888428D01*
X205134714Y-106852142D01*
X205025857Y-106779571D01*
X204880714Y-106743285D01*
X204590428Y-106743285D01*
X204517857Y-106779571D01*
X204481571Y-106815857D01*
X204445285Y-106888428D01*
X204445285Y-107033571D01*
X204481571Y-107106142D01*
X204517857Y-107142428D01*
X204590428Y-107178714D01*
X204771857Y-107178714D01*
X204844428Y-107142428D01*
X204880714Y-107106142D01*
X204917000Y-107033571D01*
X204917000Y-106888428D01*
X204880714Y-106815857D01*
X204844428Y-106779571D01*
X204771857Y-106743285D01*
X204834428Y-98631571D02*
X204798142Y-98740428D01*
X204761857Y-98776714D01*
X204689285Y-98813000D01*
X204580428Y-98813000D01*
X204507857Y-98776714D01*
X204471571Y-98740428D01*
X204435285Y-98667857D01*
X204435285Y-98377571D01*
X205197285Y-98377571D01*
X205197285Y-98631571D01*
X205161000Y-98704142D01*
X205124714Y-98740428D01*
X205052142Y-98776714D01*
X204979571Y-98776714D01*
X204907000Y-98740428D01*
X204870714Y-98704142D01*
X204834428Y-98631571D01*
X204834428Y-98377571D01*
X205197285Y-99284714D02*
X205197285Y-99357285D01*
X205161000Y-99429857D01*
X205124714Y-99466142D01*
X205052142Y-99502428D01*
X204907000Y-99538714D01*
X204725571Y-99538714D01*
X204580428Y-99502428D01*
X204507857Y-99466142D01*
X204471571Y-99429857D01*
X204435285Y-99357285D01*
X204435285Y-99284714D01*
X204471571Y-99212142D01*
X204507857Y-99175857D01*
X204580428Y-99139571D01*
X204725571Y-99103285D01*
X204907000Y-99103285D01*
X205052142Y-99139571D01*
X205124714Y-99175857D01*
X205161000Y-99212142D01*
X205197285Y-99284714D01*
D10*
X205142666Y-98017833D02*
X205242666Y-98051166D01*
X205409333Y-98051166D01*
X205476000Y-98017833D01*
X205509333Y-97984500D01*
X205542666Y-97917833D01*
X205542666Y-97851166D01*
X205509333Y-97784500D01*
X205476000Y-97751166D01*
X205409333Y-97717833D01*
X205276000Y-97684500D01*
X205209333Y-97651166D01*
X205176000Y-97617833D01*
X205142666Y-97551166D01*
X205142666Y-97484500D01*
X205176000Y-97417833D01*
X205209333Y-97384500D01*
X205276000Y-97351166D01*
X205442666Y-97351166D01*
X205542666Y-97384500D01*
X205742666Y-97351166D02*
X206142666Y-97351166D01*
X205942666Y-98051166D02*
X205942666Y-97351166D01*
X206376000Y-98051166D02*
X206376000Y-97351166D01*
X206609333Y-97851166D01*
X206842666Y-97351166D01*
X206842666Y-98051166D01*
X207109333Y-97351166D02*
X207542666Y-97351166D01*
X207309333Y-97617833D01*
X207409333Y-97617833D01*
X207476000Y-97651166D01*
X207509333Y-97684500D01*
X207542666Y-97751166D01*
X207542666Y-97917833D01*
X207509333Y-97984500D01*
X207476000Y-98017833D01*
X207409333Y-98051166D01*
X207209333Y-98051166D01*
X207142666Y-98017833D01*
X207109333Y-97984500D01*
X207809333Y-97417833D02*
X207842666Y-97384500D01*
X207909333Y-97351166D01*
X208076000Y-97351166D01*
X208142666Y-97384500D01*
X208176000Y-97417833D01*
X208209333Y-97484500D01*
X208209333Y-97551166D01*
X208176000Y-97651166D01*
X207776000Y-98051166D01*
X208209333Y-98051166D01*
X208876000Y-97384500D02*
X208809333Y-97351166D01*
X208709333Y-97351166D01*
X208609333Y-97384500D01*
X208542666Y-97451166D01*
X208509333Y-97517833D01*
X208476000Y-97651166D01*
X208476000Y-97751166D01*
X208509333Y-97884500D01*
X208542666Y-97951166D01*
X208609333Y-98017833D01*
X208709333Y-98051166D01*
X208776000Y-98051166D01*
X208876000Y-98017833D01*
X208909333Y-97984500D01*
X208909333Y-97751166D01*
X208776000Y-97751166D01*
X209342666Y-97351166D02*
X209409333Y-97351166D01*
X209476000Y-97384500D01*
X209509333Y-97417833D01*
X209542666Y-97484500D01*
X209576000Y-97617833D01*
X209576000Y-97784500D01*
X209542666Y-97917833D01*
X209509333Y-97984500D01*
X209476000Y-98017833D01*
X209409333Y-98051166D01*
X209342666Y-98051166D01*
X209276000Y-98017833D01*
X209242666Y-97984500D01*
X209209333Y-97917833D01*
X209176000Y-97784500D01*
X209176000Y-97617833D01*
X209209333Y-97484500D01*
X209242666Y-97417833D01*
X209276000Y-97384500D01*
X209342666Y-97351166D01*
X209809333Y-97351166D02*
X210242666Y-97351166D01*
X210009333Y-97617833D01*
X210109333Y-97617833D01*
X210176000Y-97651166D01*
X210209333Y-97684500D01*
X210242666Y-97751166D01*
X210242666Y-97917833D01*
X210209333Y-97984500D01*
X210176000Y-98017833D01*
X210109333Y-98051166D01*
X209909333Y-98051166D01*
X209842666Y-98017833D01*
X209809333Y-97984500D01*
X210909333Y-98051166D02*
X210509333Y-98051166D01*
X210709333Y-98051166D02*
X210709333Y-97351166D01*
X210642666Y-97451166D01*
X210576000Y-97517833D01*
X210509333Y-97551166D01*
X207459333Y-98478166D02*
X207692666Y-99178166D01*
X207926000Y-98478166D01*
X208092666Y-98478166D02*
X208526000Y-98478166D01*
X208292666Y-98744833D01*
X208392666Y-98744833D01*
X208459333Y-98778166D01*
X208492666Y-98811500D01*
X208526000Y-98878166D01*
X208526000Y-99044833D01*
X208492666Y-99111500D01*
X208459333Y-99144833D01*
X208392666Y-99178166D01*
X208192666Y-99178166D01*
X208126000Y-99144833D01*
X208092666Y-99111500D01*
D14*
X204435285Y-90111428D02*
X205197285Y-90111428D01*
X204653000Y-90365428D01*
X205197285Y-90619428D01*
X204435285Y-90619428D01*
X204435285Y-90982285D02*
X204943285Y-90982285D01*
X205197285Y-90982285D02*
X205161000Y-90946000D01*
X205124714Y-90982285D01*
X205161000Y-91018571D01*
X205197285Y-90982285D01*
X205124714Y-90982285D01*
X204471571Y-91308857D02*
X204435285Y-91381428D01*
X204435285Y-91526571D01*
X204471571Y-91599142D01*
X204544142Y-91635428D01*
X204580428Y-91635428D01*
X204653000Y-91599142D01*
X204689285Y-91526571D01*
X204689285Y-91417714D01*
X204725571Y-91345142D01*
X204798142Y-91308857D01*
X204834428Y-91308857D01*
X204907000Y-91345142D01*
X204943285Y-91417714D01*
X204943285Y-91526571D01*
X204907000Y-91599142D01*
X204435285Y-92070857D02*
X204471571Y-91998285D01*
X204507857Y-91962000D01*
X204580428Y-91925714D01*
X204798142Y-91925714D01*
X204870714Y-91962000D01*
X204907000Y-91998285D01*
X204943285Y-92070857D01*
X204943285Y-92179714D01*
X204907000Y-92252285D01*
X204870714Y-92288571D01*
X204798142Y-92324857D01*
X204580428Y-92324857D01*
X204507857Y-92288571D01*
X204471571Y-92252285D01*
X204435285Y-92179714D01*
X204435285Y-92070857D01*
X219517000Y-102477142D02*
X219517000Y-102114285D01*
X219734714Y-102549714D02*
X218972714Y-102295714D01*
X219734714Y-102041714D01*
X219734714Y-101388571D02*
X219734714Y-101824000D01*
X219734714Y-101606285D02*
X218972714Y-101606285D01*
X219081571Y-101678857D01*
X219154142Y-101751428D01*
X219190428Y-101824000D01*
X218972714Y-100699142D02*
X218972714Y-101062000D01*
X219335571Y-101098285D01*
X219299285Y-101062000D01*
X219263000Y-100989428D01*
X219263000Y-100808000D01*
X219299285Y-100735428D01*
X219335571Y-100699142D01*
X219408142Y-100662857D01*
X219589571Y-100662857D01*
X219662142Y-100699142D01*
X219698428Y-100735428D01*
X219734714Y-100808000D01*
X219734714Y-100989428D01*
X219698428Y-101062000D01*
X219662142Y-101098285D01*
X218982714Y-81418857D02*
X218982714Y-81781714D01*
X219345571Y-81818000D01*
X219309285Y-81781714D01*
X219273000Y-81709142D01*
X219273000Y-81527714D01*
X219309285Y-81455142D01*
X219345571Y-81418857D01*
X219418142Y-81382571D01*
X219599571Y-81382571D01*
X219672142Y-81418857D01*
X219708428Y-81455142D01*
X219744714Y-81527714D01*
X219744714Y-81709142D01*
X219708428Y-81781714D01*
X219672142Y-81818000D01*
X219236714Y-81128571D02*
X219744714Y-80947142D01*
X219236714Y-80765714D01*
X219335571Y-99388428D02*
X219371857Y-99279571D01*
X219408142Y-99243285D01*
X219480714Y-99207000D01*
X219589571Y-99207000D01*
X219662142Y-99243285D01*
X219698428Y-99279571D01*
X219734714Y-99352142D01*
X219734714Y-99642428D01*
X218972714Y-99642428D01*
X218972714Y-99388428D01*
X219009000Y-99315857D01*
X219045285Y-99279571D01*
X219117857Y-99243285D01*
X219190428Y-99243285D01*
X219263000Y-99279571D01*
X219299285Y-99315857D01*
X219335571Y-99388428D01*
X219335571Y-99642428D01*
X218972714Y-98953000D02*
X218972714Y-98481285D01*
X219263000Y-98735285D01*
X219263000Y-98626428D01*
X219299285Y-98553857D01*
X219335571Y-98517571D01*
X219408142Y-98481285D01*
X219589571Y-98481285D01*
X219662142Y-98517571D01*
X219698428Y-98553857D01*
X219734714Y-98626428D01*
X219734714Y-98844142D01*
X219698428Y-98916714D01*
X219662142Y-98953000D01*
X219345571Y-96918428D02*
X219381857Y-96809571D01*
X219418142Y-96773285D01*
X219490714Y-96737000D01*
X219599571Y-96737000D01*
X219672142Y-96773285D01*
X219708428Y-96809571D01*
X219744714Y-96882142D01*
X219744714Y-97172428D01*
X218982714Y-97172428D01*
X218982714Y-96918428D01*
X219019000Y-96845857D01*
X219055285Y-96809571D01*
X219127857Y-96773285D01*
X219200428Y-96773285D01*
X219273000Y-96809571D01*
X219309285Y-96845857D01*
X219345571Y-96918428D01*
X219345571Y-97172428D01*
X219236714Y-96083857D02*
X219744714Y-96083857D01*
X218946428Y-96265285D02*
X219490714Y-96446714D01*
X219490714Y-95975000D01*
X219672142Y-89469857D02*
X219708428Y-89506142D01*
X219744714Y-89615000D01*
X219744714Y-89687571D01*
X219708428Y-89796428D01*
X219635857Y-89869000D01*
X219563285Y-89905285D01*
X219418142Y-89941571D01*
X219309285Y-89941571D01*
X219164142Y-89905285D01*
X219091571Y-89869000D01*
X219019000Y-89796428D01*
X218982714Y-89687571D01*
X218982714Y-89615000D01*
X219019000Y-89506142D01*
X219055285Y-89469857D01*
X219744714Y-88744142D02*
X219744714Y-89179571D01*
X219744714Y-88961857D02*
X218982714Y-88961857D01*
X219091571Y-89034428D01*
X219164142Y-89107000D01*
X219200428Y-89179571D01*
X218982714Y-88054714D02*
X218982714Y-88417571D01*
X219345571Y-88453857D01*
X219309285Y-88417571D01*
X219273000Y-88345000D01*
X219273000Y-88163571D01*
X219309285Y-88091000D01*
X219345571Y-88054714D01*
X219418142Y-88018428D01*
X219599571Y-88018428D01*
X219672142Y-88054714D01*
X219708428Y-88091000D01*
X219744714Y-88163571D01*
X219744714Y-88345000D01*
X219708428Y-88417571D01*
X219672142Y-88453857D01*
X204465285Y-92821428D02*
X205227285Y-92821428D01*
X204683000Y-93075428D01*
X205227285Y-93329428D01*
X204465285Y-93329428D01*
X204465285Y-93801142D02*
X204501571Y-93728571D01*
X204537857Y-93692285D01*
X204610428Y-93656000D01*
X204828142Y-93656000D01*
X204900714Y-93692285D01*
X204937000Y-93728571D01*
X204973285Y-93801142D01*
X204973285Y-93910000D01*
X204937000Y-93982571D01*
X204900714Y-94018857D01*
X204828142Y-94055142D01*
X204610428Y-94055142D01*
X204537857Y-94018857D01*
X204501571Y-93982571D01*
X204465285Y-93910000D01*
X204465285Y-93801142D01*
X204501571Y-94345428D02*
X204465285Y-94418000D01*
X204465285Y-94563142D01*
X204501571Y-94635714D01*
X204574142Y-94672000D01*
X204610428Y-94672000D01*
X204683000Y-94635714D01*
X204719285Y-94563142D01*
X204719285Y-94454285D01*
X204755571Y-94381714D01*
X204828142Y-94345428D01*
X204864428Y-94345428D01*
X204937000Y-94381714D01*
X204973285Y-94454285D01*
X204973285Y-94563142D01*
X204937000Y-94635714D01*
X204465285Y-94998571D02*
X204973285Y-94998571D01*
X205227285Y-94998571D02*
X205191000Y-94962285D01*
X205154714Y-94998571D01*
X205191000Y-95034857D01*
X205227285Y-94998571D01*
X205154714Y-94998571D01*
X219517000Y-105017142D02*
X219517000Y-104654285D01*
X219734714Y-105089714D02*
X218972714Y-104835714D01*
X219734714Y-104581714D01*
X219734714Y-103928571D02*
X219734714Y-104364000D01*
X219734714Y-104146285D02*
X218972714Y-104146285D01*
X219081571Y-104218857D01*
X219154142Y-104291428D01*
X219190428Y-104364000D01*
X218972714Y-103456857D02*
X218972714Y-103384285D01*
X219009000Y-103311714D01*
X219045285Y-103275428D01*
X219117857Y-103239142D01*
X219263000Y-103202857D01*
X219444428Y-103202857D01*
X219589571Y-103239142D01*
X219662142Y-103275428D01*
X219698428Y-103311714D01*
X219734714Y-103384285D01*
X219734714Y-103456857D01*
X219698428Y-103529428D01*
X219662142Y-103565714D01*
X219589571Y-103602000D01*
X219444428Y-103638285D01*
X219263000Y-103638285D01*
X219117857Y-103602000D01*
X219045285Y-103565714D01*
X219009000Y-103529428D01*
X218972714Y-103456857D01*
X204854428Y-101311571D02*
X204818142Y-101420428D01*
X204781857Y-101456714D01*
X204709285Y-101493000D01*
X204600428Y-101493000D01*
X204527857Y-101456714D01*
X204491571Y-101420428D01*
X204455285Y-101347857D01*
X204455285Y-101057571D01*
X205217285Y-101057571D01*
X205217285Y-101311571D01*
X205181000Y-101384142D01*
X205144714Y-101420428D01*
X205072142Y-101456714D01*
X204999571Y-101456714D01*
X204927000Y-101420428D01*
X204890714Y-101384142D01*
X204854428Y-101311571D01*
X204854428Y-101057571D01*
X204455285Y-102218714D02*
X204455285Y-101783285D01*
X204455285Y-102001000D02*
X205217285Y-102001000D01*
X205108428Y-101928428D01*
X205035857Y-101855857D01*
X204999571Y-101783285D01*
X219537000Y-107134285D02*
X219537000Y-106771428D01*
X219754714Y-107206857D02*
X218992714Y-106952857D01*
X219754714Y-106698857D01*
X219754714Y-106408571D02*
X219754714Y-106263428D01*
X219718428Y-106190857D01*
X219682142Y-106154571D01*
X219573285Y-106082000D01*
X219428142Y-106045714D01*
X219137857Y-106045714D01*
X219065285Y-106082000D01*
X219029000Y-106118285D01*
X218992714Y-106190857D01*
X218992714Y-106336000D01*
X219029000Y-106408571D01*
X219065285Y-106444857D01*
X219137857Y-106481142D01*
X219319285Y-106481142D01*
X219391857Y-106444857D01*
X219428142Y-106408571D01*
X219464428Y-106336000D01*
X219464428Y-106190857D01*
X219428142Y-106118285D01*
X219391857Y-106082000D01*
X219319285Y-106045714D01*
X204673000Y-85905714D02*
X204673000Y-86268571D01*
X204455285Y-85833142D02*
X205217285Y-86087142D01*
X204455285Y-86341142D01*
X204963285Y-86921714D02*
X204455285Y-86921714D01*
X205253571Y-86740285D02*
X204709285Y-86558857D01*
X204709285Y-87030571D01*
X204491571Y-87827285D02*
X204455285Y-87936142D01*
X204455285Y-88117571D01*
X204491571Y-88190142D01*
X204527857Y-88226428D01*
X204600428Y-88262714D01*
X204673000Y-88262714D01*
X204745571Y-88226428D01*
X204781857Y-88190142D01*
X204818142Y-88117571D01*
X204854428Y-87972428D01*
X204890714Y-87899857D01*
X204927000Y-87863571D01*
X204999571Y-87827285D01*
X205072142Y-87827285D01*
X205144714Y-87863571D01*
X205181000Y-87899857D01*
X205217285Y-87972428D01*
X205217285Y-88153857D01*
X205181000Y-88262714D01*
X204491571Y-88915857D02*
X204455285Y-88843285D01*
X204455285Y-88698142D01*
X204491571Y-88625571D01*
X204527857Y-88589285D01*
X204600428Y-88553000D01*
X204818142Y-88553000D01*
X204890714Y-88589285D01*
X204927000Y-88625571D01*
X204963285Y-88698142D01*
X204963285Y-88843285D01*
X204927000Y-88915857D01*
X204455285Y-89242428D02*
X205217285Y-89242428D01*
X204745571Y-89315000D02*
X204455285Y-89532714D01*
X204963285Y-89532714D02*
X204673000Y-89242428D01*
X219345571Y-94308428D02*
X219381857Y-94199571D01*
X219418142Y-94163285D01*
X219490714Y-94127000D01*
X219599571Y-94127000D01*
X219672142Y-94163285D01*
X219708428Y-94199571D01*
X219744714Y-94272142D01*
X219744714Y-94562428D01*
X218982714Y-94562428D01*
X218982714Y-94308428D01*
X219019000Y-94235857D01*
X219055285Y-94199571D01*
X219127857Y-94163285D01*
X219200428Y-94163285D01*
X219273000Y-94199571D01*
X219309285Y-94235857D01*
X219345571Y-94308428D01*
X219345571Y-94562428D01*
X218982714Y-93437571D02*
X218982714Y-93800428D01*
X219345571Y-93836714D01*
X219309285Y-93800428D01*
X219273000Y-93727857D01*
X219273000Y-93546428D01*
X219309285Y-93473857D01*
X219345571Y-93437571D01*
X219418142Y-93401285D01*
X219599571Y-93401285D01*
X219672142Y-93437571D01*
X219708428Y-93473857D01*
X219744714Y-93546428D01*
X219744714Y-93727857D01*
X219708428Y-93800428D01*
X219672142Y-93836714D01*
X219019000Y-84369857D02*
X218982714Y-84442428D01*
X218982714Y-84551285D01*
X219019000Y-84660142D01*
X219091571Y-84732714D01*
X219164142Y-84769000D01*
X219309285Y-84805285D01*
X219418142Y-84805285D01*
X219563285Y-84769000D01*
X219635857Y-84732714D01*
X219708428Y-84660142D01*
X219744714Y-84551285D01*
X219744714Y-84478714D01*
X219708428Y-84369857D01*
X219672142Y-84333571D01*
X219418142Y-84333571D01*
X219418142Y-84478714D01*
X219236714Y-84007000D02*
X219744714Y-84007000D01*
X219309285Y-84007000D02*
X219273000Y-83970714D01*
X219236714Y-83898142D01*
X219236714Y-83789285D01*
X219273000Y-83716714D01*
X219345571Y-83680428D01*
X219744714Y-83680428D01*
X219744714Y-82991000D02*
X218982714Y-82991000D01*
X219708428Y-82991000D02*
X219744714Y-83063571D01*
X219744714Y-83208714D01*
X219708428Y-83281285D01*
X219672142Y-83317571D01*
X219599571Y-83353857D01*
X219381857Y-83353857D01*
X219309285Y-83317571D01*
X219273000Y-83281285D01*
X219236714Y-83208714D01*
X219236714Y-83063571D01*
X219273000Y-82991000D01*
X219345571Y-91748428D02*
X219381857Y-91639571D01*
X219418142Y-91603285D01*
X219490714Y-91567000D01*
X219599571Y-91567000D01*
X219672142Y-91603285D01*
X219708428Y-91639571D01*
X219744714Y-91712142D01*
X219744714Y-92002428D01*
X218982714Y-92002428D01*
X218982714Y-91748428D01*
X219019000Y-91675857D01*
X219055285Y-91639571D01*
X219127857Y-91603285D01*
X219200428Y-91603285D01*
X219273000Y-91639571D01*
X219309285Y-91675857D01*
X219345571Y-91748428D01*
X219345571Y-92002428D01*
X219309285Y-91131571D02*
X219273000Y-91204142D01*
X219236714Y-91240428D01*
X219164142Y-91276714D01*
X219127857Y-91276714D01*
X219055285Y-91240428D01*
X219019000Y-91204142D01*
X218982714Y-91131571D01*
X218982714Y-90986428D01*
X219019000Y-90913857D01*
X219055285Y-90877571D01*
X219127857Y-90841285D01*
X219164142Y-90841285D01*
X219236714Y-90877571D01*
X219273000Y-90913857D01*
X219309285Y-90986428D01*
X219309285Y-91131571D01*
X219345571Y-91204142D01*
X219381857Y-91240428D01*
X219454428Y-91276714D01*
X219599571Y-91276714D01*
X219672142Y-91240428D01*
X219708428Y-91204142D01*
X219744714Y-91131571D01*
X219744714Y-90986428D01*
X219708428Y-90913857D01*
X219672142Y-90877571D01*
X219599571Y-90841285D01*
X219454428Y-90841285D01*
X219381857Y-90877571D01*
X219345571Y-90913857D01*
X219309285Y-90986428D01*
X218982714Y-87257142D02*
X218982714Y-86785428D01*
X219273000Y-87039428D01*
X219273000Y-86930571D01*
X219309285Y-86858000D01*
X219345571Y-86821714D01*
X219418142Y-86785428D01*
X219599571Y-86785428D01*
X219672142Y-86821714D01*
X219708428Y-86858000D01*
X219744714Y-86930571D01*
X219744714Y-87148285D01*
X219708428Y-87220857D01*
X219672142Y-87257142D01*
X219236714Y-86531428D02*
X219744714Y-86350000D01*
X219236714Y-86168571D01*
X218982714Y-85950857D02*
X218982714Y-85479142D01*
X219273000Y-85733142D01*
X219273000Y-85624285D01*
X219309285Y-85551714D01*
X219345571Y-85515428D01*
X219418142Y-85479142D01*
X219599571Y-85479142D01*
X219672142Y-85515428D01*
X219708428Y-85551714D01*
X219744714Y-85624285D01*
X219744714Y-85842000D01*
X219708428Y-85914571D01*
X219672142Y-85950857D01*
X204683000Y-95975714D02*
X204683000Y-96338571D01*
X204465285Y-95903142D02*
X205227285Y-96157142D01*
X204465285Y-96411142D01*
X205227285Y-97028000D02*
X205227285Y-96665142D01*
X204864428Y-96628857D01*
X204900714Y-96665142D01*
X204937000Y-96737714D01*
X204937000Y-96919142D01*
X204900714Y-96991714D01*
X204864428Y-97028000D01*
X204791857Y-97064285D01*
X204610428Y-97064285D01*
X204537857Y-97028000D01*
X204501571Y-96991714D01*
X204465285Y-96919142D01*
X204465285Y-96737714D01*
X204501571Y-96665142D01*
X204537857Y-96628857D01*
X204663000Y-83325714D02*
X204663000Y-83688571D01*
X204445285Y-83253142D02*
X205207285Y-83507142D01*
X204445285Y-83761142D01*
X205207285Y-84160285D02*
X205207285Y-84232857D01*
X205171000Y-84305428D01*
X205134714Y-84341714D01*
X205062142Y-84378000D01*
X204917000Y-84414285D01*
X204735571Y-84414285D01*
X204590428Y-84378000D01*
X204517857Y-84341714D01*
X204481571Y-84305428D01*
X204445285Y-84232857D01*
X204445285Y-84160285D01*
X204481571Y-84087714D01*
X204517857Y-84051428D01*
X204590428Y-84015142D01*
X204735571Y-83978857D01*
X204917000Y-83978857D01*
X205062142Y-84015142D01*
X205134714Y-84051428D01*
X205171000Y-84087714D01*
X205207285Y-84160285D01*
X208542708Y-93440794D02*
X208542708Y-94057651D01*
X208578994Y-94130222D01*
X208615280Y-94166508D01*
X208687851Y-94202794D01*
X208832994Y-94202794D01*
X208905565Y-94166508D01*
X208941851Y-94130222D01*
X208978137Y-94057651D01*
X208978137Y-93440794D01*
X209740137Y-94202794D02*
X209304708Y-94202794D01*
X209522422Y-94202794D02*
X209522422Y-93440794D01*
X209449851Y-93549651D01*
X209377280Y-93622222D01*
X209304708Y-93658508D01*
D15*
X210652380Y-90820000D02*
X210890476Y-90820000D01*
X210795238Y-91058095D02*
X210890476Y-90820000D01*
X210795238Y-90581904D01*
X211080952Y-90962857D02*
X210890476Y-90820000D01*
X211080952Y-90677142D01*
X206952380Y-104213333D02*
X207666666Y-104213333D01*
X207809523Y-104260952D01*
X207904761Y-104356190D01*
X207952380Y-104499047D01*
X207952380Y-104594285D01*
X207285714Y-103308571D02*
X207952380Y-103308571D01*
X206904761Y-103546666D02*
X207619047Y-103784761D01*
X207619047Y-103165714D01*
D10*
X206103333Y-91080000D02*
X206070000Y-91113333D01*
X205970000Y-91146666D01*
X205903333Y-91146666D01*
X205803333Y-91113333D01*
X205736666Y-91046666D01*
X205703333Y-90980000D01*
X205670000Y-90846666D01*
X205670000Y-90746666D01*
X205703333Y-90613333D01*
X205736666Y-90546666D01*
X205803333Y-90480000D01*
X205903333Y-90446666D01*
X205970000Y-90446666D01*
X206070000Y-90480000D01*
X206103333Y-90513333D01*
X206770000Y-91146666D02*
X206370000Y-91146666D01*
X206570000Y-91146666D02*
X206570000Y-90446666D01*
X206503333Y-90546666D01*
X206436666Y-90613333D01*
X206370000Y-90646666D01*
X207633333Y-91120000D02*
X207600000Y-91153333D01*
X207500000Y-91186666D01*
X207433333Y-91186666D01*
X207333333Y-91153333D01*
X207266666Y-91086666D01*
X207233333Y-91020000D01*
X207200000Y-90886666D01*
X207200000Y-90786666D01*
X207233333Y-90653333D01*
X207266666Y-90586666D01*
X207333333Y-90520000D01*
X207433333Y-90486666D01*
X207500000Y-90486666D01*
X207600000Y-90520000D01*
X207633333Y-90553333D01*
X207900000Y-90553333D02*
X207933333Y-90520000D01*
X208000000Y-90486666D01*
X208166666Y-90486666D01*
X208233333Y-90520000D01*
X208266666Y-90553333D01*
X208300000Y-90620000D01*
X208300000Y-90686666D01*
X208266666Y-90786666D01*
X207866666Y-91186666D01*
X208300000Y-91186666D01*
X209133333Y-91140000D02*
X209100000Y-91173333D01*
X209000000Y-91206666D01*
X208933333Y-91206666D01*
X208833333Y-91173333D01*
X208766666Y-91106666D01*
X208733333Y-91040000D01*
X208700000Y-90906666D01*
X208700000Y-90806666D01*
X208733333Y-90673333D01*
X208766666Y-90606666D01*
X208833333Y-90540000D01*
X208933333Y-90506666D01*
X209000000Y-90506666D01*
X209100000Y-90540000D01*
X209133333Y-90573333D01*
X209366666Y-90506666D02*
X209800000Y-90506666D01*
X209566666Y-90773333D01*
X209666666Y-90773333D01*
X209733333Y-90806666D01*
X209766666Y-90840000D01*
X209800000Y-90906666D01*
X209800000Y-91073333D01*
X209766666Y-91140000D01*
X209733333Y-91173333D01*
X209666666Y-91206666D01*
X209466666Y-91206666D01*
X209400000Y-91173333D01*
X209366666Y-91140000D01*
D14*
X214528040Y-100982834D02*
X214528040Y-101527120D01*
X214491754Y-101635977D01*
X214419182Y-101708548D01*
X214310325Y-101744834D01*
X214237754Y-101744834D01*
X214854611Y-101055405D02*
X214890897Y-101019120D01*
X214963468Y-100982834D01*
X215144897Y-100982834D01*
X215217468Y-101019120D01*
X215253754Y-101055405D01*
X215290040Y-101127977D01*
X215290040Y-101200548D01*
X215253754Y-101309405D01*
X214818325Y-101744834D01*
X215290040Y-101744834D01*
X214672660Y-104495614D02*
X214672660Y-105039900D01*
X214636374Y-105148757D01*
X214563802Y-105221328D01*
X214454945Y-105257614D01*
X214382374Y-105257614D01*
X214962945Y-104495614D02*
X215434660Y-104495614D01*
X215180660Y-104785900D01*
X215289517Y-104785900D01*
X215362088Y-104822185D01*
X215398374Y-104858471D01*
X215434660Y-104931042D01*
X215434660Y-105112471D01*
X215398374Y-105185042D01*
X215362088Y-105221328D01*
X215289517Y-105257614D01*
X215071802Y-105257614D01*
X214999231Y-105221328D01*
X214962945Y-105185042D01*
D10*
X217753333Y-94340000D02*
X217720000Y-94373333D01*
X217620000Y-94406666D01*
X217553333Y-94406666D01*
X217453333Y-94373333D01*
X217386666Y-94306666D01*
X217353333Y-94240000D01*
X217320000Y-94106666D01*
X217320000Y-94006666D01*
X217353333Y-93873333D01*
X217386666Y-93806666D01*
X217453333Y-93740000D01*
X217553333Y-93706666D01*
X217620000Y-93706666D01*
X217720000Y-93740000D01*
X217753333Y-93773333D01*
X218353333Y-93940000D02*
X218353333Y-94406666D01*
X218186666Y-93673333D02*
X218020000Y-94173333D01*
X218453333Y-94173333D01*
X210683333Y-86960000D02*
X210650000Y-86993333D01*
X210550000Y-87026666D01*
X210483333Y-87026666D01*
X210383333Y-86993333D01*
X210316666Y-86926666D01*
X210283333Y-86860000D01*
X210250000Y-86726666D01*
X210250000Y-86626666D01*
X210283333Y-86493333D01*
X210316666Y-86426666D01*
X210383333Y-86360000D01*
X210483333Y-86326666D01*
X210550000Y-86326666D01*
X210650000Y-86360000D01*
X210683333Y-86393333D01*
X211316666Y-86326666D02*
X210983333Y-86326666D01*
X210950000Y-86660000D01*
X210983333Y-86626666D01*
X211050000Y-86593333D01*
X211216666Y-86593333D01*
X211283333Y-86626666D01*
X211316666Y-86660000D01*
X211350000Y-86726666D01*
X211350000Y-86893333D01*
X211316666Y-86960000D01*
X211283333Y-86993333D01*
X211216666Y-87026666D01*
X211050000Y-87026666D01*
X210983333Y-86993333D01*
X210950000Y-86960000D01*
X216970000Y-88486666D02*
X217003333Y-88520000D01*
X217036666Y-88620000D01*
X217036666Y-88686666D01*
X217003333Y-88786666D01*
X216936666Y-88853333D01*
X216870000Y-88886666D01*
X216736666Y-88920000D01*
X216636666Y-88920000D01*
X216503333Y-88886666D01*
X216436666Y-88853333D01*
X216370000Y-88786666D01*
X216336666Y-88686666D01*
X216336666Y-88620000D01*
X216370000Y-88520000D01*
X216403333Y-88486666D01*
X216336666Y-87886666D02*
X216336666Y-88020000D01*
X216370000Y-88086666D01*
X216403333Y-88120000D01*
X216503333Y-88186666D01*
X216636666Y-88220000D01*
X216903333Y-88220000D01*
X216970000Y-88186666D01*
X217003333Y-88153333D01*
X217036666Y-88086666D01*
X217036666Y-87953333D01*
X217003333Y-87886666D01*
X216970000Y-87853333D01*
X216903333Y-87820000D01*
X216736666Y-87820000D01*
X216670000Y-87853333D01*
X216636666Y-87886666D01*
X216603333Y-87953333D01*
X216603333Y-88086666D01*
X216636666Y-88153333D01*
X216670000Y-88186666D01*
X216736666Y-88220000D01*
X217183333Y-80056666D02*
X217183333Y-79356666D01*
X217350000Y-79356666D01*
X217450000Y-79390000D01*
X217516666Y-79456666D01*
X217550000Y-79523333D01*
X217583333Y-79656666D01*
X217583333Y-79756666D01*
X217550000Y-79890000D01*
X217516666Y-79956666D01*
X217450000Y-80023333D01*
X217350000Y-80056666D01*
X217183333Y-80056666D01*
X218250000Y-80056666D02*
X217850000Y-80056666D01*
X218050000Y-80056666D02*
X218050000Y-79356666D01*
X217983333Y-79456666D01*
X217916666Y-79523333D01*
X217850000Y-79556666D01*
X205603333Y-80176666D02*
X205603333Y-79476666D01*
X205770000Y-79476666D01*
X205870000Y-79510000D01*
X205936666Y-79576666D01*
X205970000Y-79643333D01*
X206003333Y-79776666D01*
X206003333Y-79876666D01*
X205970000Y-80010000D01*
X205936666Y-80076666D01*
X205870000Y-80143333D01*
X205770000Y-80176666D01*
X205603333Y-80176666D01*
X206270000Y-79543333D02*
X206303333Y-79510000D01*
X206370000Y-79476666D01*
X206536666Y-79476666D01*
X206603333Y-79510000D01*
X206636666Y-79543333D01*
X206670000Y-79610000D01*
X206670000Y-79676666D01*
X206636666Y-79776666D01*
X206236666Y-80176666D01*
X206670000Y-80176666D01*
X212763333Y-95686666D02*
X212530000Y-95353333D01*
X212363333Y-95686666D02*
X212363333Y-94986666D01*
X212630000Y-94986666D01*
X212696666Y-95020000D01*
X212730000Y-95053333D01*
X212763333Y-95120000D01*
X212763333Y-95220000D01*
X212730000Y-95286666D01*
X212696666Y-95320000D01*
X212630000Y-95353333D01*
X212363333Y-95353333D01*
X213430000Y-95686666D02*
X213030000Y-95686666D01*
X213230000Y-95686666D02*
X213230000Y-94986666D01*
X213163333Y-95086666D01*
X213096666Y-95153333D01*
X213030000Y-95186666D01*
X215623333Y-95986666D02*
X215390000Y-95653333D01*
X215223333Y-95986666D02*
X215223333Y-95286666D01*
X215490000Y-95286666D01*
X215556666Y-95320000D01*
X215590000Y-95353333D01*
X215623333Y-95420000D01*
X215623333Y-95520000D01*
X215590000Y-95586666D01*
X215556666Y-95620000D01*
X215490000Y-95653333D01*
X215223333Y-95653333D01*
X215890000Y-95353333D02*
X215923333Y-95320000D01*
X215990000Y-95286666D01*
X216156666Y-95286666D01*
X216223333Y-95320000D01*
X216256666Y-95353333D01*
X216290000Y-95420000D01*
X216290000Y-95486666D01*
X216256666Y-95586666D01*
X215856666Y-95986666D01*
X216290000Y-95986666D01*
X217066666Y-85326666D02*
X216733333Y-85560000D01*
X217066666Y-85726666D02*
X216366666Y-85726666D01*
X216366666Y-85460000D01*
X216400000Y-85393333D01*
X216433333Y-85360000D01*
X216500000Y-85326666D01*
X216600000Y-85326666D01*
X216666666Y-85360000D01*
X216700000Y-85393333D01*
X216733333Y-85460000D01*
X216733333Y-85726666D01*
X216366666Y-85093333D02*
X216366666Y-84660000D01*
X216633333Y-84893333D01*
X216633333Y-84793333D01*
X216666666Y-84726666D01*
X216700000Y-84693333D01*
X216766666Y-84660000D01*
X216933333Y-84660000D01*
X217000000Y-84693333D01*
X217033333Y-84726666D01*
X217066666Y-84793333D01*
X217066666Y-84993333D01*
X217033333Y-85060000D01*
X217000000Y-85093333D01*
X207463333Y-86596666D02*
X207230000Y-86263333D01*
X207063333Y-86596666D02*
X207063333Y-85896666D01*
X207330000Y-85896666D01*
X207396666Y-85930000D01*
X207430000Y-85963333D01*
X207463333Y-86030000D01*
X207463333Y-86130000D01*
X207430000Y-86196666D01*
X207396666Y-86230000D01*
X207330000Y-86263333D01*
X207063333Y-86263333D01*
X208063333Y-86130000D02*
X208063333Y-86596666D01*
X207896666Y-85863333D02*
X207730000Y-86363333D01*
X208163333Y-86363333D01*
D14*
X214243288Y-87437954D02*
X214243288Y-88054811D01*
X214279574Y-88127382D01*
X214315860Y-88163668D01*
X214388431Y-88199954D01*
X214533574Y-88199954D01*
X214606145Y-88163668D01*
X214642431Y-88127382D01*
X214678717Y-88054811D01*
X214678717Y-87437954D01*
X215005288Y-87510525D02*
X215041574Y-87474240D01*
X215114145Y-87437954D01*
X215295574Y-87437954D01*
X215368145Y-87474240D01*
X215404431Y-87510525D01*
X215440717Y-87583097D01*
X215440717Y-87655668D01*
X215404431Y-87764525D01*
X214969002Y-88199954D01*
X215440717Y-88199954D01*
D16*
X214291337Y-91477458D02*
X214291337Y-91706281D01*
X214131161Y-91225754D02*
X214291337Y-91477458D01*
X214451513Y-91225754D01*
X214863393Y-91706281D02*
X214588806Y-91706281D01*
X214726100Y-91706281D02*
X214726100Y-91225754D01*
X214680335Y-91294400D01*
X214634571Y-91340165D01*
X214588806Y-91363047D01*
G36*
X210314540Y-96710754D02*
G01*
X209933540Y-96710754D01*
X209933540Y-96456754D01*
X210314540Y-96456754D01*
X210314540Y-96710754D01*
G37*
D10*
X210314540Y-96710754D02*
X209933540Y-96710754D01*
X209933540Y-96456754D01*
X210314540Y-96456754D01*
X210314540Y-96710754D01*
G36*
X206524606Y-93548200D02*
G01*
X206270606Y-93548200D01*
X206270606Y-93167200D01*
X206524606Y-93167200D01*
X206524606Y-93548200D01*
G37*
X206524606Y-93548200D02*
X206270606Y-93548200D01*
X206270606Y-93167200D01*
X206524606Y-93167200D01*
X206524606Y-93548200D01*
D11*
X213500000Y-85700000D02*
X213500000Y-85310000D01*
X213500000Y-85700000D02*
X213050000Y-85700000D01*
X207930000Y-85000000D02*
X208580000Y-85000000D01*
X207930000Y-83270000D02*
X207930000Y-85000000D01*
X215550000Y-80700000D02*
X215550000Y-80910000D01*
X207930000Y-80700000D02*
X207930000Y-80910000D01*
X215550000Y-83270000D02*
X215550000Y-85000000D01*
X215550000Y-85000000D02*
X214890000Y-85000000D01*
X208070000Y-107670000D02*
X209220000Y-107670000D01*
X209220000Y-100450000D02*
X209220000Y-101500000D01*
X209220000Y-106620000D02*
X210210000Y-106620000D01*
X209220000Y-107670000D02*
X209220000Y-106620000D01*
X206100000Y-106500000D02*
X206100000Y-101620000D01*
X208070000Y-100450000D02*
X209220000Y-100450000D01*
X205600000Y-88940580D02*
X205600000Y-88659420D01*
X206620000Y-88940580D02*
X206620000Y-88659420D01*
X208150000Y-88940580D02*
X208150000Y-88659420D01*
X207130000Y-88940580D02*
X207130000Y-88659420D01*
X208690000Y-88940580D02*
X208690000Y-88659420D01*
X209710000Y-88940580D02*
X209710000Y-88659420D01*
X217030000Y-99330000D02*
X217030000Y-98340000D01*
X218080000Y-99330000D02*
X217030000Y-99330000D01*
X211860000Y-100480000D02*
X211860000Y-99330000D01*
X216910000Y-102450000D02*
X213030000Y-102450000D01*
X211860000Y-99330000D02*
X212910000Y-99330000D01*
X218080000Y-100480000D02*
X218080000Y-99330000D01*
X218090000Y-105800000D02*
X218090000Y-106950000D01*
X218090000Y-106950000D02*
X217040000Y-106950000D01*
X212920000Y-106950000D02*
X212920000Y-107940000D01*
X213040000Y-103830000D02*
X216920000Y-103830000D01*
X211870000Y-106950000D02*
X212920000Y-106950000D01*
X211870000Y-105800000D02*
X211870000Y-106950000D01*
X217280000Y-91929420D02*
X217280000Y-92210580D01*
X218300000Y-91929420D02*
X218300000Y-92210580D01*
X210360000Y-88920580D02*
X210360000Y-88639420D01*
X211380000Y-88920580D02*
X211380000Y-88639420D01*
X218400000Y-88610580D02*
X218400000Y-88329420D01*
X217380000Y-88610580D02*
X217380000Y-88329420D01*
X216985000Y-81010000D02*
X216985000Y-83295000D01*
X218455000Y-83295000D02*
X218455000Y-81010000D01*
X216985000Y-83295000D02*
X218455000Y-83295000D01*
X206915000Y-83315000D02*
X206915000Y-81030000D01*
X205445000Y-81030000D02*
X205445000Y-83315000D01*
X205445000Y-83315000D02*
X206915000Y-83315000D01*
X212442742Y-96407500D02*
X212917258Y-96407500D01*
X212442742Y-97452500D02*
X212917258Y-97452500D01*
X215612742Y-96367500D02*
X216087258Y-96367500D01*
X215612742Y-97412500D02*
X216087258Y-97412500D01*
X218372500Y-85367258D02*
X218372500Y-84892742D01*
X217327500Y-85367258D02*
X217327500Y-84892742D01*
X206702500Y-84912742D02*
X206702500Y-85387258D01*
X205657500Y-84912742D02*
X205657500Y-85387258D01*
X213520000Y-89450000D02*
X215320000Y-89450000D01*
X215320000Y-86230000D02*
X212870000Y-86230000D01*
D14*
X214760000Y-92650000D02*
X214260000Y-92650000D01*
X214760000Y-90150000D02*
X214260000Y-90150000D01*
D17*
X216885000Y-90406000D02*
G75*
G03*
X216885000Y-90406000I-100000J0D01*
G01*
M02*
