G04 #@! TF.GenerationSoftware,KiCad,Pcbnew,(6.0.0)*
G04 #@! TF.CreationDate,2022-07-24T22:02:11-05:00*
G04 #@! TF.ProjectId,InputJoyStickSTM32QFN28,496e7075-744a-46f7-9953-7469636b5354,rev?*
G04 #@! TF.SameCoordinates,Original*
G04 #@! TF.FileFunction,Legend,Top*
G04 #@! TF.FilePolarity,Positive*
%FSLAX46Y46*%
G04 Gerber Fmt 4.6, Leading zero omitted, Abs format (unit mm)*
G04 Created by KiCad (PCBNEW (6.0.0)) date 2022-07-24 22:02:11*
%MOMM*%
%LPD*%
G01*
G04 APERTURE LIST*
%ADD10C,0.187500*%
%ADD11C,0.152400*%
G04 #@! TA.AperFunction,Profile*
%ADD12C,0.050000*%
G04 #@! TD*
%ADD13C,0.300000*%
%ADD14C,0.150000*%
%ADD15C,0.127000*%
%ADD16C,0.114300*%
%ADD17C,0.120132*%
%ADD18C,0.120000*%
%ADD19C,0.100000*%
%ADD20C,0.200000*%
G04 APERTURE END LIST*
D10*
X162186166Y-89713166D02*
X162186166Y-90348166D01*
X162143833Y-90475166D01*
X162059166Y-90559833D01*
X161932166Y-90602166D01*
X161847500Y-90602166D01*
X162736500Y-90602166D02*
X162651833Y-90559833D01*
X162609500Y-90517500D01*
X162567166Y-90432833D01*
X162567166Y-90178833D01*
X162609500Y-90094166D01*
X162651833Y-90051833D01*
X162736500Y-90009500D01*
X162863500Y-90009500D01*
X162948166Y-90051833D01*
X162990500Y-90094166D01*
X163032833Y-90178833D01*
X163032833Y-90432833D01*
X162990500Y-90517500D01*
X162948166Y-90559833D01*
X162863500Y-90602166D01*
X162736500Y-90602166D01*
X163329166Y-90009500D02*
X163540833Y-90602166D01*
X163752500Y-90009500D02*
X163540833Y-90602166D01*
X163456166Y-90813833D01*
X163413833Y-90856166D01*
X163329166Y-90898500D01*
D11*
X175628500Y-109502166D02*
X175205166Y-109502166D01*
X175205166Y-108613166D01*
X175924833Y-109036500D02*
X176221166Y-109036500D01*
X176348166Y-109502166D02*
X175924833Y-109502166D01*
X175924833Y-108613166D01*
X176348166Y-108613166D01*
X176729166Y-109502166D02*
X176729166Y-108613166D01*
X176940833Y-108613166D01*
X177067833Y-108655500D01*
X177152500Y-108740166D01*
X177194833Y-108824833D01*
X177237166Y-108994166D01*
X177237166Y-109121166D01*
X177194833Y-109290500D01*
X177152500Y-109375166D01*
X177067833Y-109459833D01*
X176940833Y-109502166D01*
X176729166Y-109502166D01*
X175828500Y-90402166D02*
X175405166Y-90402166D01*
X175405166Y-89513166D01*
X176124833Y-89936500D02*
X176421166Y-89936500D01*
X176548166Y-90402166D02*
X176124833Y-90402166D01*
X176124833Y-89513166D01*
X176548166Y-89513166D01*
X176929166Y-90402166D02*
X176929166Y-89513166D01*
X177140833Y-89513166D01*
X177267833Y-89555500D01*
X177352500Y-89640166D01*
X177394833Y-89724833D01*
X177437166Y-89894166D01*
X177437166Y-90021166D01*
X177394833Y-90190500D01*
X177352500Y-90275166D01*
X177267833Y-90359833D01*
X177140833Y-90402166D01*
X176929166Y-90402166D01*
D10*
X168722666Y-90459833D02*
X168849666Y-90502166D01*
X169061333Y-90502166D01*
X169146000Y-90459833D01*
X169188333Y-90417500D01*
X169230666Y-90332833D01*
X169230666Y-90248166D01*
X169188333Y-90163500D01*
X169146000Y-90121166D01*
X169061333Y-90078833D01*
X168892000Y-90036500D01*
X168807333Y-89994166D01*
X168765000Y-89951833D01*
X168722666Y-89867166D01*
X168722666Y-89782500D01*
X168765000Y-89697833D01*
X168807333Y-89655500D01*
X168892000Y-89613166D01*
X169103666Y-89613166D01*
X169230666Y-89655500D01*
X169569333Y-89697833D02*
X169611666Y-89655500D01*
X169696333Y-89613166D01*
X169908000Y-89613166D01*
X169992666Y-89655500D01*
X170035000Y-89697833D01*
X170077333Y-89782500D01*
X170077333Y-89867166D01*
X170035000Y-89994166D01*
X169527000Y-90502166D01*
X170077333Y-90502166D01*
D12*
X180239940Y-86360000D02*
G75*
G03*
X179279873Y-85389743I-965162J5095D01*
G01*
X133489685Y-85389720D02*
G75*
G03*
X132588000Y-86296602I0J-901700D01*
G01*
D11*
X140517033Y-108220721D02*
X140220700Y-107797388D01*
X140009033Y-108220721D02*
X140009033Y-107331721D01*
X140347700Y-107331721D01*
X140432366Y-107374055D01*
X140474700Y-107416388D01*
X140517033Y-107501055D01*
X140517033Y-107628055D01*
X140474700Y-107712721D01*
X140432366Y-107755055D01*
X140347700Y-107797388D01*
X140009033Y-107797388D01*
X140813366Y-107331721D02*
X141406033Y-108220721D01*
X141406033Y-107331721D02*
X140813366Y-108220721D01*
X139987866Y-108763011D02*
X140495866Y-108763011D01*
X140241866Y-109652011D02*
X140241866Y-108763011D01*
X140707533Y-108763011D02*
X141300200Y-109652011D01*
X141300200Y-108763011D02*
X140707533Y-109652011D01*
D13*
X172085714Y-111278571D02*
X172585714Y-112778571D01*
X173085714Y-111278571D01*
X173514285Y-111421428D02*
X173585714Y-111350000D01*
X173728571Y-111278571D01*
X174085714Y-111278571D01*
X174228571Y-111350000D01*
X174300000Y-111421428D01*
X174371428Y-111564285D01*
X174371428Y-111707142D01*
X174300000Y-111921428D01*
X173442857Y-112778571D01*
X174371428Y-112778571D01*
D11*
X141448366Y-97353966D02*
X141448366Y-96464966D01*
X141829366Y-96549633D02*
X141871700Y-96507300D01*
X141956366Y-96464966D01*
X142168033Y-96464966D01*
X142252700Y-96507300D01*
X142295033Y-96549633D01*
X142337366Y-96634300D01*
X142337366Y-96718966D01*
X142295033Y-96845966D01*
X141787033Y-97353966D01*
X142337366Y-97353966D01*
X143226366Y-97269300D02*
X143184033Y-97311633D01*
X143057033Y-97353966D01*
X142972366Y-97353966D01*
X142845366Y-97311633D01*
X142760700Y-97226966D01*
X142718366Y-97142300D01*
X142676033Y-96972966D01*
X142676033Y-96845966D01*
X142718366Y-96676633D01*
X142760700Y-96591966D01*
X142845366Y-96507300D01*
X142972366Y-96464966D01*
X143057033Y-96464966D01*
X143184033Y-96507300D01*
X143226366Y-96549633D01*
X157985460Y-90486774D02*
X157731460Y-90123917D01*
X157550031Y-90486774D02*
X157550031Y-89724774D01*
X157840317Y-89724774D01*
X157912888Y-89761060D01*
X157949174Y-89797345D01*
X157985460Y-89869917D01*
X157985460Y-89978774D01*
X157949174Y-90051345D01*
X157912888Y-90087631D01*
X157840317Y-90123917D01*
X157550031Y-90123917D01*
X158602317Y-90450488D02*
X158529745Y-90486774D01*
X158384602Y-90486774D01*
X158312031Y-90450488D01*
X158275745Y-90377917D01*
X158275745Y-90087631D01*
X158312031Y-90015060D01*
X158384602Y-89978774D01*
X158529745Y-89978774D01*
X158602317Y-90015060D01*
X158638602Y-90087631D01*
X158638602Y-90160202D01*
X158275745Y-90232774D01*
X158892602Y-89978774D02*
X159074031Y-90486774D01*
X159255460Y-89978774D01*
D10*
X168722666Y-109059833D02*
X168849666Y-109102166D01*
X169061333Y-109102166D01*
X169146000Y-109059833D01*
X169188333Y-109017500D01*
X169230666Y-108932833D01*
X169230666Y-108848166D01*
X169188333Y-108763500D01*
X169146000Y-108721166D01*
X169061333Y-108678833D01*
X168892000Y-108636500D01*
X168807333Y-108594166D01*
X168765000Y-108551833D01*
X168722666Y-108467166D01*
X168722666Y-108382500D01*
X168765000Y-108297833D01*
X168807333Y-108255500D01*
X168892000Y-108213166D01*
X169103666Y-108213166D01*
X169230666Y-108255500D01*
X170077333Y-109102166D02*
X169569333Y-109102166D01*
X169823333Y-109102166D02*
X169823333Y-108213166D01*
X169738666Y-108340166D01*
X169654000Y-108424833D01*
X169569333Y-108467166D01*
D12*
X132588000Y-110680500D02*
X132588000Y-86296602D01*
X132588000Y-110680500D02*
G75*
G03*
X136652000Y-114744500I4064000J0D01*
G01*
X176153080Y-114744500D02*
X136652000Y-114744500D01*
X180239940Y-86360000D02*
X180250164Y-110667800D01*
X176153080Y-114744500D02*
G75*
G03*
X180250164Y-110670340I22860J4074160D01*
G01*
X179279820Y-85389720D02*
X133489685Y-85389720D01*
D14*
X151975915Y-92083640D02*
X151975915Y-92893164D01*
X152023534Y-92988402D01*
X152071153Y-93036021D01*
X152166391Y-93083640D01*
X152356867Y-93083640D01*
X152452105Y-93036021D01*
X152499724Y-92988402D01*
X152547343Y-92893164D01*
X152547343Y-92083640D01*
X153547343Y-93083640D02*
X152975915Y-93083640D01*
X153261629Y-93083640D02*
X153261629Y-92083640D01*
X153166391Y-92226498D01*
X153071153Y-92321736D01*
X152975915Y-92369355D01*
X149758146Y-89951310D02*
X149758146Y-90189406D01*
X149520050Y-90094168D02*
X149758146Y-90189406D01*
X149996241Y-90094168D01*
X149615288Y-90379882D02*
X149758146Y-90189406D01*
X149901003Y-90379882D01*
X149758146Y-89951310D02*
X149758146Y-90189406D01*
X149520050Y-90094168D02*
X149758146Y-90189406D01*
X149996241Y-90094168D01*
X149615288Y-90379882D02*
X149758146Y-90189406D01*
X149901003Y-90379882D01*
D15*
X146204940Y-97098394D02*
X145950940Y-96735537D01*
X145769511Y-97098394D02*
X145769511Y-96336394D01*
X146059797Y-96336394D01*
X146132368Y-96372680D01*
X146168654Y-96408965D01*
X146204940Y-96481537D01*
X146204940Y-96590394D01*
X146168654Y-96662965D01*
X146132368Y-96699251D01*
X146059797Y-96735537D01*
X145769511Y-96735537D01*
X146930654Y-97098394D02*
X146495225Y-97098394D01*
X146712940Y-97098394D02*
X146712940Y-96336394D01*
X146640368Y-96445251D01*
X146567797Y-96517822D01*
X146495225Y-96554108D01*
X145577197Y-98215994D02*
X145141768Y-98215994D01*
X145359482Y-98215994D02*
X145359482Y-97453994D01*
X145286911Y-97562851D01*
X145214340Y-97635422D01*
X145141768Y-97671708D01*
X146048911Y-97453994D02*
X146121482Y-97453994D01*
X146194054Y-97490280D01*
X146230340Y-97526565D01*
X146266625Y-97599137D01*
X146302911Y-97744280D01*
X146302911Y-97925708D01*
X146266625Y-98070851D01*
X146230340Y-98143422D01*
X146194054Y-98179708D01*
X146121482Y-98215994D01*
X146048911Y-98215994D01*
X145976340Y-98179708D01*
X145940054Y-98143422D01*
X145903768Y-98070851D01*
X145867482Y-97925708D01*
X145867482Y-97744280D01*
X145903768Y-97599137D01*
X145940054Y-97526565D01*
X145976340Y-97490280D01*
X146048911Y-97453994D01*
X146629482Y-98215994D02*
X146629482Y-97453994D01*
X147064911Y-98215994D02*
X146738340Y-97780565D01*
X147064911Y-97453994D02*
X146629482Y-97889422D01*
X156075380Y-97065374D02*
X155821380Y-96702517D01*
X155639951Y-97065374D02*
X155639951Y-96303374D01*
X155930237Y-96303374D01*
X156002808Y-96339660D01*
X156039094Y-96375945D01*
X156075380Y-96448517D01*
X156075380Y-96557374D01*
X156039094Y-96629945D01*
X156002808Y-96666231D01*
X155930237Y-96702517D01*
X155639951Y-96702517D01*
X156365665Y-96375945D02*
X156401951Y-96339660D01*
X156474522Y-96303374D01*
X156655951Y-96303374D01*
X156728522Y-96339660D01*
X156764808Y-96375945D01*
X156801094Y-96448517D01*
X156801094Y-96521088D01*
X156764808Y-96629945D01*
X156329380Y-97065374D01*
X156801094Y-97065374D01*
X155881977Y-98246474D02*
X155446548Y-98246474D01*
X155664262Y-98246474D02*
X155664262Y-97484474D01*
X155591691Y-97593331D01*
X155519120Y-97665902D01*
X155446548Y-97702188D01*
X156353691Y-97484474D02*
X156426262Y-97484474D01*
X156498834Y-97520760D01*
X156535120Y-97557045D01*
X156571405Y-97629617D01*
X156607691Y-97774760D01*
X156607691Y-97956188D01*
X156571405Y-98101331D01*
X156535120Y-98173902D01*
X156498834Y-98210188D01*
X156426262Y-98246474D01*
X156353691Y-98246474D01*
X156281120Y-98210188D01*
X156244834Y-98173902D01*
X156208548Y-98101331D01*
X156172262Y-97956188D01*
X156172262Y-97774760D01*
X156208548Y-97629617D01*
X156244834Y-97557045D01*
X156281120Y-97520760D01*
X156353691Y-97484474D01*
X156934262Y-98246474D02*
X156934262Y-97484474D01*
X157369691Y-98246474D02*
X157043120Y-97811045D01*
X157369691Y-97484474D02*
X156934262Y-97919902D01*
X145856960Y-91166042D02*
X145820674Y-91202328D01*
X145711817Y-91238614D01*
X145639245Y-91238614D01*
X145530388Y-91202328D01*
X145457817Y-91129757D01*
X145421531Y-91057185D01*
X145385245Y-90912042D01*
X145385245Y-90803185D01*
X145421531Y-90658042D01*
X145457817Y-90585471D01*
X145530388Y-90512900D01*
X145639245Y-90476614D01*
X145711817Y-90476614D01*
X145820674Y-90512900D01*
X145856960Y-90549185D01*
X146582674Y-91238614D02*
X146147245Y-91238614D01*
X146364960Y-91238614D02*
X146364960Y-90476614D01*
X146292388Y-90585471D01*
X146219817Y-90658042D01*
X146147245Y-90694328D01*
D16*
X146535381Y-95633781D02*
X146172524Y-95633781D01*
X146353953Y-95633781D02*
X146353953Y-94998781D01*
X146293477Y-95089496D01*
X146233000Y-95149972D01*
X146172524Y-95180210D01*
X146928477Y-94998781D02*
X146988953Y-94998781D01*
X147049429Y-95029020D01*
X147079667Y-95059258D01*
X147109905Y-95119734D01*
X147140143Y-95240686D01*
X147140143Y-95391877D01*
X147109905Y-95512829D01*
X147079667Y-95573305D01*
X147049429Y-95603543D01*
X146988953Y-95633781D01*
X146928477Y-95633781D01*
X146868000Y-95603543D01*
X146837762Y-95573305D01*
X146807524Y-95512829D01*
X146777286Y-95391877D01*
X146777286Y-95240686D01*
X146807524Y-95119734D01*
X146837762Y-95059258D01*
X146868000Y-95029020D01*
X146928477Y-94998781D01*
X147533239Y-94998781D02*
X147593715Y-94998781D01*
X147654191Y-95029020D01*
X147684429Y-95059258D01*
X147714667Y-95119734D01*
X147744905Y-95240686D01*
X147744905Y-95391877D01*
X147714667Y-95512829D01*
X147684429Y-95573305D01*
X147654191Y-95603543D01*
X147593715Y-95633781D01*
X147533239Y-95633781D01*
X147472762Y-95603543D01*
X147442524Y-95573305D01*
X147412286Y-95512829D01*
X147382048Y-95391877D01*
X147382048Y-95240686D01*
X147412286Y-95119734D01*
X147442524Y-95059258D01*
X147472762Y-95029020D01*
X147533239Y-94998781D01*
X148017048Y-95210448D02*
X148017048Y-95633781D01*
X148017048Y-95270924D02*
X148047286Y-95240686D01*
X148107762Y-95210448D01*
X148198477Y-95210448D01*
X148258953Y-95240686D01*
X148289191Y-95301162D01*
X148289191Y-95633781D01*
X148803239Y-95301162D02*
X148591572Y-95301162D01*
X148591572Y-95633781D02*
X148591572Y-94998781D01*
X148893953Y-94998781D01*
D15*
X148338540Y-91072062D02*
X148302254Y-91108348D01*
X148193397Y-91144634D01*
X148120825Y-91144634D01*
X148011968Y-91108348D01*
X147939397Y-91035777D01*
X147903111Y-90963205D01*
X147866825Y-90818062D01*
X147866825Y-90709205D01*
X147903111Y-90564062D01*
X147939397Y-90491491D01*
X148011968Y-90418920D01*
X148120825Y-90382634D01*
X148193397Y-90382634D01*
X148302254Y-90418920D01*
X148338540Y-90455205D01*
X148628825Y-90455205D02*
X148665111Y-90418920D01*
X148737682Y-90382634D01*
X148919111Y-90382634D01*
X148991682Y-90418920D01*
X149027968Y-90455205D01*
X149064254Y-90527777D01*
X149064254Y-90600348D01*
X149027968Y-90709205D01*
X148592540Y-91144634D01*
X149064254Y-91144634D01*
X145592800Y-88699702D02*
X145556514Y-88735988D01*
X145447657Y-88772274D01*
X145375085Y-88772274D01*
X145266228Y-88735988D01*
X145193657Y-88663417D01*
X145157371Y-88590845D01*
X145121085Y-88445702D01*
X145121085Y-88336845D01*
X145157371Y-88191702D01*
X145193657Y-88119131D01*
X145266228Y-88046560D01*
X145375085Y-88010274D01*
X145447657Y-88010274D01*
X145556514Y-88046560D01*
X145592800Y-88082845D01*
X145846800Y-88010274D02*
X146318514Y-88010274D01*
X146064514Y-88300560D01*
X146173371Y-88300560D01*
X146245942Y-88336845D01*
X146282228Y-88373131D01*
X146318514Y-88445702D01*
X146318514Y-88627131D01*
X146282228Y-88699702D01*
X146245942Y-88735988D01*
X146173371Y-88772274D01*
X145955657Y-88772274D01*
X145883085Y-88735988D01*
X145846800Y-88699702D01*
X149535214Y-89205888D02*
X149535214Y-89641317D01*
X149535214Y-89423602D02*
X148773214Y-89423602D01*
X148882071Y-89496174D01*
X148954642Y-89568745D01*
X148990928Y-89641317D01*
X148773214Y-88734174D02*
X148773214Y-88661602D01*
X148809500Y-88589031D01*
X148845785Y-88552745D01*
X148918357Y-88516460D01*
X149063500Y-88480174D01*
X149244928Y-88480174D01*
X149390071Y-88516460D01*
X149462642Y-88552745D01*
X149498928Y-88589031D01*
X149535214Y-88661602D01*
X149535214Y-88734174D01*
X149498928Y-88806745D01*
X149462642Y-88843031D01*
X149390071Y-88879317D01*
X149244928Y-88915602D01*
X149063500Y-88915602D01*
X148918357Y-88879317D01*
X148845785Y-88843031D01*
X148809500Y-88806745D01*
X148773214Y-88734174D01*
X149027214Y-87827031D02*
X149535214Y-87827031D01*
X149027214Y-88153602D02*
X149426357Y-88153602D01*
X149498928Y-88117317D01*
X149535214Y-88044745D01*
X149535214Y-87935888D01*
X149498928Y-87863317D01*
X149462642Y-87827031D01*
X149136071Y-87210174D02*
X149136071Y-87464174D01*
X149535214Y-87464174D02*
X148773214Y-87464174D01*
X148773214Y-87101317D01*
D14*
X134401760Y-91275493D02*
X135116046Y-91275493D01*
X135258903Y-91323112D01*
X135354141Y-91418350D01*
X135401760Y-91561207D01*
X135401760Y-91656445D01*
X134735094Y-90370731D02*
X135401760Y-90370731D01*
X134354141Y-90608826D02*
X135068427Y-90846921D01*
X135068427Y-90227874D01*
X137542946Y-97549720D02*
X137542946Y-98264006D01*
X137495327Y-98406863D01*
X137400089Y-98502101D01*
X137257232Y-98549720D01*
X137161994Y-98549720D01*
X137971518Y-97644959D02*
X138019137Y-97597340D01*
X138114375Y-97549720D01*
X138352470Y-97549720D01*
X138447708Y-97597340D01*
X138495327Y-97644959D01*
X138542946Y-97740197D01*
X138542946Y-97835435D01*
X138495327Y-97978292D01*
X137923899Y-98549720D01*
X138542946Y-98549720D01*
X137329586Y-103150420D02*
X137329586Y-103864706D01*
X137281967Y-104007563D01*
X137186729Y-104102801D01*
X137043872Y-104150420D01*
X136948634Y-104150420D01*
X137710539Y-103150420D02*
X138329586Y-103150420D01*
X137996253Y-103531373D01*
X138139110Y-103531373D01*
X138234348Y-103578992D01*
X138281967Y-103626611D01*
X138329586Y-103721849D01*
X138329586Y-103959944D01*
X138281967Y-104055182D01*
X138234348Y-104102801D01*
X138139110Y-104150420D01*
X137853396Y-104150420D01*
X137758158Y-104102801D01*
X137710539Y-104055182D01*
X149780666Y-109378500D02*
X149780666Y-110092786D01*
X149733047Y-110235643D01*
X149637809Y-110330881D01*
X149494952Y-110378500D01*
X149399714Y-110378500D01*
X150780666Y-110378500D02*
X150209238Y-110378500D01*
X150494952Y-110378500D02*
X150494952Y-109378500D01*
X150399714Y-109521358D01*
X150304476Y-109616596D01*
X150209238Y-109664215D01*
X155765500Y-86350202D02*
X155729214Y-86386488D01*
X155620357Y-86422774D01*
X155547785Y-86422774D01*
X155438928Y-86386488D01*
X155366357Y-86313917D01*
X155330071Y-86241345D01*
X155293785Y-86096202D01*
X155293785Y-85987345D01*
X155330071Y-85842202D01*
X155366357Y-85769631D01*
X155438928Y-85697060D01*
X155547785Y-85660774D01*
X155620357Y-85660774D01*
X155729214Y-85697060D01*
X155765500Y-85733345D01*
X156418642Y-85914774D02*
X156418642Y-86422774D01*
X156237214Y-85624488D02*
X156055785Y-86168774D01*
X156527500Y-86168774D01*
X157994894Y-88694985D02*
X157994894Y-89130414D01*
X157994894Y-88912700D02*
X157232894Y-88912700D01*
X157341751Y-88985271D01*
X157414322Y-89057842D01*
X157450608Y-89130414D01*
X157232894Y-88223271D02*
X157232894Y-88150700D01*
X157269180Y-88078128D01*
X157305465Y-88041842D01*
X157378037Y-88005557D01*
X157523180Y-87969271D01*
X157704608Y-87969271D01*
X157849751Y-88005557D01*
X157922322Y-88041842D01*
X157958608Y-88078128D01*
X157994894Y-88150700D01*
X157994894Y-88223271D01*
X157958608Y-88295842D01*
X157922322Y-88332128D01*
X157849751Y-88368414D01*
X157704608Y-88404700D01*
X157523180Y-88404700D01*
X157378037Y-88368414D01*
X157305465Y-88332128D01*
X157269180Y-88295842D01*
X157232894Y-88223271D01*
X157232894Y-87497557D02*
X157232894Y-87424985D01*
X157269180Y-87352414D01*
X157305465Y-87316128D01*
X157378037Y-87279842D01*
X157523180Y-87243557D01*
X157704608Y-87243557D01*
X157849751Y-87279842D01*
X157922322Y-87316128D01*
X157958608Y-87352414D01*
X157994894Y-87424985D01*
X157994894Y-87497557D01*
X157958608Y-87570128D01*
X157922322Y-87606414D01*
X157849751Y-87642700D01*
X157704608Y-87678985D01*
X157523180Y-87678985D01*
X157378037Y-87642700D01*
X157305465Y-87606414D01*
X157269180Y-87570128D01*
X157232894Y-87497557D01*
X157486894Y-86916985D02*
X157994894Y-86916985D01*
X157559465Y-86916985D02*
X157523180Y-86880700D01*
X157486894Y-86808128D01*
X157486894Y-86699271D01*
X157523180Y-86626700D01*
X157595751Y-86590414D01*
X157994894Y-86590414D01*
X157595751Y-85973557D02*
X157595751Y-86227557D01*
X157994894Y-86227557D02*
X157232894Y-86227557D01*
X157232894Y-85864700D01*
D17*
X151909557Y-87969078D02*
X151909557Y-88197901D01*
X151749381Y-87717374D02*
X151909557Y-87969078D01*
X152069733Y-87717374D01*
X152481613Y-88197901D02*
X152207026Y-88197901D01*
X152344320Y-88197901D02*
X152344320Y-87717374D01*
X152298555Y-87786020D01*
X152252791Y-87831785D01*
X152207026Y-87854667D01*
D18*
X159450000Y-107150000D02*
X160700000Y-107150000D01*
X159450000Y-105900000D02*
X159450000Y-107150000D01*
X164950000Y-92500000D02*
X164950000Y-99300000D01*
X162000000Y-92500000D02*
X164950000Y-92500000D01*
X162000000Y-91750000D02*
X162000000Y-92500000D01*
X164950000Y-106100000D02*
X164950000Y-99300000D01*
X162000000Y-106100000D02*
X164950000Y-106100000D01*
X162000000Y-106850000D02*
X162000000Y-106100000D01*
X159750000Y-91750000D02*
X159750000Y-93550000D01*
X160500000Y-91750000D02*
X159750000Y-91750000D01*
X160500000Y-93550000D02*
X160500000Y-91750000D01*
X159750000Y-93550000D02*
X160500000Y-93550000D01*
X159750000Y-105050000D02*
X159750000Y-106850000D01*
X160500000Y-105050000D02*
X159750000Y-105050000D01*
X160500000Y-106850000D02*
X160500000Y-105050000D01*
X159750000Y-106850000D02*
X160500000Y-106850000D01*
X159750000Y-95050000D02*
X159750000Y-103550000D01*
X160500000Y-95050000D02*
X159750000Y-95050000D01*
X160500000Y-103550000D02*
X160500000Y-95050000D01*
X159750000Y-103550000D02*
X160500000Y-103550000D01*
X159740000Y-91740000D02*
X159740000Y-106860000D01*
X165710000Y-91740000D02*
X159740000Y-91740000D01*
X165710000Y-106860000D02*
X165710000Y-91740000D01*
X159740000Y-106860000D02*
X165710000Y-106860000D01*
D19*
X155590494Y-91440000D02*
X155590494Y-91821000D01*
X155590494Y-91821000D02*
X155336494Y-91821000D01*
X155336494Y-91821000D02*
X155336494Y-91440000D01*
X155336494Y-91440000D02*
X155590494Y-91440000D01*
G36*
X155590494Y-91821000D02*
G01*
X155336494Y-91821000D01*
X155336494Y-91440000D01*
X155590494Y-91440000D01*
X155590494Y-91821000D01*
G37*
X155590494Y-91821000D02*
X155336494Y-91821000D01*
X155336494Y-91440000D01*
X155590494Y-91440000D01*
X155590494Y-91821000D01*
X152046940Y-95229934D02*
X152046940Y-95483934D01*
X152046940Y-95483934D02*
X152427940Y-95483934D01*
X152427940Y-95483934D02*
X152427940Y-95229934D01*
X152427940Y-95229934D02*
X152046940Y-95229934D01*
G36*
X152427940Y-95483934D02*
G01*
X152046940Y-95483934D01*
X152046940Y-95229934D01*
X152427940Y-95229934D01*
X152427940Y-95483934D01*
G37*
X152427940Y-95483934D02*
X152046940Y-95483934D01*
X152046940Y-95229934D01*
X152427940Y-95229934D01*
X152427940Y-95483934D01*
D18*
X148991688Y-97641480D02*
X149514192Y-97641480D01*
X148991688Y-96221480D02*
X149514192Y-96221480D01*
X153169988Y-96226560D02*
X153692492Y-96226560D01*
X153169988Y-97646560D02*
X153692492Y-97646560D01*
X146927240Y-92811968D02*
X146927240Y-93334472D01*
X145457240Y-92811968D02*
X145457240Y-93334472D01*
X149220860Y-92733228D02*
X149220860Y-93255732D01*
X147750860Y-92733228D02*
X147750860Y-93255732D01*
X148245500Y-88650712D02*
X148245500Y-88128208D01*
X146775500Y-88650712D02*
X146775500Y-88128208D01*
X133684380Y-94752160D02*
X137914380Y-94752160D01*
X144184380Y-94752160D02*
X140454380Y-94752160D01*
X133684380Y-87132160D02*
X144184380Y-87132160D01*
X133684380Y-94752160D02*
X133684380Y-87132160D01*
X144184380Y-94752160D02*
X144184380Y-87132160D01*
X135949380Y-89177160D02*
X136014380Y-89177160D01*
X134966000Y-96897600D02*
X138846000Y-96897600D01*
X140016000Y-100017600D02*
X138966000Y-100017600D01*
X140016000Y-98867600D02*
X140016000Y-100017600D01*
X134846000Y-100017600D02*
X134846000Y-101007600D01*
X133796000Y-100017600D02*
X134846000Y-100017600D01*
X133796000Y-98867600D02*
X133796000Y-100017600D01*
X133821400Y-104430200D02*
X133821400Y-105580200D01*
X133821400Y-105580200D02*
X134871400Y-105580200D01*
X134871400Y-105580200D02*
X134871400Y-106570200D01*
X140041400Y-104430200D02*
X140041400Y-105580200D01*
X140041400Y-105580200D02*
X138991400Y-105580200D01*
X134991400Y-102460200D02*
X138871400Y-102460200D01*
X150362920Y-113096040D02*
X150149560Y-113527840D01*
X150588980Y-113527840D02*
X150362920Y-113096040D01*
X150149560Y-113527840D02*
X150588980Y-113527840D01*
X141986660Y-98839020D02*
X158396660Y-98839020D01*
X141986660Y-98839020D02*
X141986660Y-104851200D01*
X141986660Y-114079020D02*
X158396660Y-114079020D01*
X141988540Y-107348020D02*
X141986660Y-114079020D01*
X158396660Y-98839020D02*
X158396660Y-104851200D01*
X158398540Y-107348020D02*
X158396660Y-114079020D01*
X155279020Y-88105482D02*
X155279020Y-88622638D01*
X156699020Y-88105482D02*
X156699020Y-88622638D01*
D15*
X152378220Y-89141620D02*
X151878220Y-89141620D01*
X152378220Y-86641620D02*
X151878220Y-86641620D01*
D20*
X154503220Y-86897620D02*
G75*
G03*
X154503220Y-86897620I-100000J0D01*
G01*
D18*
X166640000Y-107460000D02*
X172610000Y-107460000D01*
X172610000Y-107460000D02*
X172610000Y-99840000D01*
X172610000Y-99840000D02*
X166640000Y-99840000D01*
X166640000Y-99840000D02*
X166640000Y-107460000D01*
X166650000Y-104150000D02*
X167400000Y-104150000D01*
X167400000Y-104150000D02*
X167400000Y-103150000D01*
X167400000Y-103150000D02*
X166650000Y-103150000D01*
X166650000Y-103150000D02*
X166650000Y-104150000D01*
X166650000Y-107450000D02*
X167400000Y-107450000D01*
X167400000Y-107450000D02*
X167400000Y-105650000D01*
X167400000Y-105650000D02*
X166650000Y-105650000D01*
X166650000Y-105650000D02*
X166650000Y-107450000D01*
X166650000Y-101650000D02*
X167400000Y-101650000D01*
X167400000Y-101650000D02*
X167400000Y-99850000D01*
X167400000Y-99850000D02*
X166650000Y-99850000D01*
X166650000Y-99850000D02*
X166650000Y-101650000D01*
X168900000Y-107450000D02*
X168900000Y-106700000D01*
X168900000Y-106700000D02*
X171850000Y-106700000D01*
X171850000Y-106700000D02*
X171850000Y-103650000D01*
X168900000Y-99850000D02*
X168900000Y-100600000D01*
X168900000Y-100600000D02*
X171850000Y-100600000D01*
X171850000Y-100600000D02*
X171850000Y-103650000D01*
X166350000Y-106500000D02*
X166350000Y-107750000D01*
X166350000Y-107750000D02*
X167600000Y-107750000D01*
X173540000Y-98960000D02*
X179510000Y-98960000D01*
X179510000Y-98960000D02*
X179510000Y-91340000D01*
X179510000Y-91340000D02*
X173540000Y-91340000D01*
X173540000Y-91340000D02*
X173540000Y-98960000D01*
X173550000Y-95650000D02*
X174300000Y-95650000D01*
X174300000Y-95650000D02*
X174300000Y-94650000D01*
X174300000Y-94650000D02*
X173550000Y-94650000D01*
X173550000Y-94650000D02*
X173550000Y-95650000D01*
X173550000Y-98950000D02*
X174300000Y-98950000D01*
X174300000Y-98950000D02*
X174300000Y-97150000D01*
X174300000Y-97150000D02*
X173550000Y-97150000D01*
X173550000Y-97150000D02*
X173550000Y-98950000D01*
X173550000Y-93150000D02*
X174300000Y-93150000D01*
X174300000Y-93150000D02*
X174300000Y-91350000D01*
X174300000Y-91350000D02*
X173550000Y-91350000D01*
X173550000Y-91350000D02*
X173550000Y-93150000D01*
X175800000Y-98950000D02*
X175800000Y-98200000D01*
X175800000Y-98200000D02*
X178750000Y-98200000D01*
X178750000Y-98200000D02*
X178750000Y-95150000D01*
X175800000Y-91350000D02*
X175800000Y-92100000D01*
X175800000Y-92100000D02*
X178750000Y-92100000D01*
X178750000Y-92100000D02*
X178750000Y-95150000D01*
X173250000Y-98000000D02*
X173250000Y-99250000D01*
X173250000Y-99250000D02*
X174500000Y-99250000D01*
X166350000Y-99250000D02*
X167600000Y-99250000D01*
X166350000Y-98000000D02*
X166350000Y-99250000D01*
X171850000Y-92100000D02*
X171850000Y-95150000D01*
X168900000Y-92100000D02*
X171850000Y-92100000D01*
X168900000Y-91350000D02*
X168900000Y-92100000D01*
X171850000Y-98200000D02*
X171850000Y-95150000D01*
X168900000Y-98200000D02*
X171850000Y-98200000D01*
X168900000Y-98950000D02*
X168900000Y-98200000D01*
X166650000Y-91350000D02*
X166650000Y-93150000D01*
X167400000Y-91350000D02*
X166650000Y-91350000D01*
X167400000Y-93150000D02*
X167400000Y-91350000D01*
X166650000Y-93150000D02*
X167400000Y-93150000D01*
X166650000Y-97150000D02*
X166650000Y-98950000D01*
X167400000Y-97150000D02*
X166650000Y-97150000D01*
X167400000Y-98950000D02*
X167400000Y-97150000D01*
X166650000Y-98950000D02*
X167400000Y-98950000D01*
X166650000Y-94650000D02*
X166650000Y-95650000D01*
X167400000Y-94650000D02*
X166650000Y-94650000D01*
X167400000Y-95650000D02*
X167400000Y-94650000D01*
X166650000Y-95650000D02*
X167400000Y-95650000D01*
X166640000Y-91340000D02*
X166640000Y-98960000D01*
X172610000Y-91340000D02*
X166640000Y-91340000D01*
X172610000Y-98960000D02*
X172610000Y-91340000D01*
X166640000Y-98960000D02*
X172610000Y-98960000D01*
X173250000Y-107750000D02*
X174500000Y-107750000D01*
X173250000Y-106500000D02*
X173250000Y-107750000D01*
X178750000Y-100600000D02*
X178750000Y-103650000D01*
X175800000Y-100600000D02*
X178750000Y-100600000D01*
X175800000Y-99850000D02*
X175800000Y-100600000D01*
X178750000Y-106700000D02*
X178750000Y-103650000D01*
X175800000Y-106700000D02*
X178750000Y-106700000D01*
X175800000Y-107450000D02*
X175800000Y-106700000D01*
X173550000Y-99850000D02*
X173550000Y-101650000D01*
X174300000Y-99850000D02*
X173550000Y-99850000D01*
X174300000Y-101650000D02*
X174300000Y-99850000D01*
X173550000Y-101650000D02*
X174300000Y-101650000D01*
X173550000Y-105650000D02*
X173550000Y-107450000D01*
X174300000Y-105650000D02*
X173550000Y-105650000D01*
X174300000Y-107450000D02*
X174300000Y-105650000D01*
X173550000Y-107450000D02*
X174300000Y-107450000D01*
X173550000Y-103150000D02*
X173550000Y-104150000D01*
X174300000Y-103150000D02*
X173550000Y-103150000D01*
X174300000Y-104150000D02*
X174300000Y-103150000D01*
X173550000Y-104150000D02*
X174300000Y-104150000D01*
X173540000Y-99840000D02*
X173540000Y-107460000D01*
X179510000Y-99840000D02*
X173540000Y-99840000D01*
X179510000Y-107460000D02*
X179510000Y-99840000D01*
X173540000Y-107460000D02*
X179510000Y-107460000D01*
M02*
