%TF.GenerationSoftware,KiCad,Pcbnew,(6.0.7)*%
%TF.CreationDate,2023-03-18T19:29:26-05:00*%
%TF.ProjectId,CS4334Breakout,43533433-3334-4427-9265-616b6f75742e,rev?*%
%TF.SameCoordinates,Original*%
%TF.FileFunction,Copper,L2,Bot*%
%TF.FilePolarity,Positive*%
%FSLAX46Y46*%
G04 Gerber Fmt 4.6, Leading zero omitted, Abs format (unit mm)*
G04 Created by KiCad (PCBNEW (6.0.7)) date 2023-03-18 19:29:26*
%MOMM*%
%LPD*%
G01*
G04 APERTURE LIST*
%TA.AperFunction,ComponentPad*%
%ADD10R,1.700000X1.700000*%
%TD*%
%TA.AperFunction,ComponentPad*%
%ADD11O,1.700000X1.700000*%
%TD*%
%TA.AperFunction,ViaPad*%
%ADD12C,0.800000*%
%TD*%
%TA.AperFunction,Conductor*%
%ADD13C,0.254000*%
%TD*%
G04 APERTURE END LIST*
D10*
%TO.P,J2,1,Pin_1*%
%TO.N,unconnected-(J2-Pad1)*%
X177800000Y-99060000D03*
D11*
%TO.P,J2,2,Pin_2*%
%TO.N,GND*%
X177800000Y-101600000D03*
%TO.P,J2,3,Pin_3*%
%TO.N,RIGHTOUT*%
X177800000Y-104140000D03*
%TO.P,J2,4,Pin_4*%
%TO.N,LEFTOUT*%
X177800000Y-106680000D03*
%TD*%
D10*
%TO.P,J1,1,Pin_1*%
%TO.N,+5V*%
X154940000Y-96520000D03*
D11*
%TO.P,J1,2,Pin_2*%
%TO.N,SDATA*%
X154940000Y-99060000D03*
%TO.P,J1,3,Pin_3*%
%TO.N,SCLK*%
X154940000Y-101600000D03*
%TO.P,J1,4,Pin_4*%
%TO.N,LRCK*%
X154940000Y-104140000D03*
%TO.P,J1,5,Pin_5*%
%TO.N,MCLK*%
X154940000Y-106680000D03*
%TO.P,J1,6,Pin_6*%
%TO.N,GND*%
X154940000Y-109220000D03*
%TD*%
D12*
%TO.N,*%
X158750000Y-97536000D03*
%TO.N,GND*%
X174752000Y-99060000D03*
X174498000Y-102108000D03*
X171958000Y-101854000D03*
X169164000Y-105410000D03*
X179324000Y-111506000D03*
X176022000Y-109220000D03*
X179324000Y-109220000D03*
X175514000Y-112776000D03*
X171958000Y-112776000D03*
X164592000Y-111506000D03*
X153924000Y-111506000D03*
X161290000Y-111252000D03*
X157480000Y-111252000D03*
%TO.N,*%
X162560000Y-99060000D03*
%TO.N,GND*%
X157480000Y-94996000D03*
X153924000Y-92964000D03*
X157734000Y-92964000D03*
X160782000Y-92964000D03*
X164338000Y-92964000D03*
X168910000Y-93472000D03*
X172212000Y-93472000D03*
X175260000Y-93472000D03*
X175260000Y-95758000D03*
X178562000Y-95758000D03*
X178562000Y-93472000D03*
%TO.N,AOUTL*%
X162306000Y-103632000D03*
X162306000Y-108712000D03*
%TO.N,GND*%
X164338000Y-101346000D03*
%TD*%
D13*
%TO.N,AOUTL*%
X162306000Y-103632000D02*
X162306000Y-108712000D01*
%TD*%
%TA.AperFunction,Conductor*%
%TO.N,GND*%
G36*
X179294018Y-92712000D02*
G01*
X179308851Y-92714310D01*
X179308855Y-92714310D01*
X179317724Y-92715691D01*
X179326629Y-92714527D01*
X179335598Y-92714636D01*
X179335588Y-92715450D01*
X179357098Y-92715743D01*
X179382622Y-92719785D01*
X179420116Y-92731967D01*
X179455224Y-92749855D01*
X179487117Y-92773027D01*
X179514973Y-92800883D01*
X179538144Y-92832774D01*
X179538146Y-92832776D01*
X179556033Y-92867882D01*
X179568214Y-92905373D01*
X179572119Y-92930026D01*
X179573551Y-92949750D01*
X179572309Y-92957724D01*
X179573474Y-92966632D01*
X179576436Y-92989283D01*
X179577500Y-93005621D01*
X179577500Y-112903500D01*
X179557498Y-112971621D01*
X179503842Y-113018114D01*
X179451500Y-113029500D01*
X153288500Y-113029500D01*
X153220379Y-113009498D01*
X153173886Y-112955842D01*
X153162500Y-112903500D01*
X153162500Y-109487966D01*
X153608257Y-109487966D01*
X153638565Y-109622446D01*
X153641645Y-109632275D01*
X153721770Y-109829603D01*
X153726413Y-109838794D01*
X153837694Y-110020388D01*
X153843777Y-110028699D01*
X153983213Y-110189667D01*
X153990580Y-110196883D01*
X154154434Y-110332916D01*
X154162881Y-110338831D01*
X154346756Y-110446279D01*
X154356042Y-110450729D01*
X154555001Y-110526703D01*
X154564899Y-110529579D01*
X154668250Y-110550606D01*
X154682299Y-110549410D01*
X154686000Y-110539065D01*
X154686000Y-110538517D01*
X155194000Y-110538517D01*
X155198064Y-110552359D01*
X155211478Y-110554393D01*
X155218184Y-110553534D01*
X155228262Y-110551392D01*
X155432255Y-110490191D01*
X155441842Y-110486433D01*
X155633095Y-110392739D01*
X155641945Y-110387464D01*
X155815328Y-110263792D01*
X155823200Y-110257139D01*
X155974052Y-110106812D01*
X155980730Y-110098965D01*
X156105003Y-109926020D01*
X156110313Y-109917183D01*
X156204670Y-109726267D01*
X156208469Y-109716672D01*
X156270377Y-109512910D01*
X156272555Y-109502837D01*
X156273986Y-109491962D01*
X156271775Y-109477778D01*
X156258617Y-109474000D01*
X155212115Y-109474000D01*
X155196876Y-109478475D01*
X155195671Y-109479865D01*
X155194000Y-109487548D01*
X155194000Y-110538517D01*
X154686000Y-110538517D01*
X154686000Y-109492115D01*
X154681525Y-109476876D01*
X154680135Y-109475671D01*
X154672452Y-109474000D01*
X153623225Y-109474000D01*
X153609694Y-109477973D01*
X153608257Y-109487966D01*
X153162500Y-109487966D01*
X153162500Y-106646695D01*
X153577251Y-106646695D01*
X153577548Y-106651848D01*
X153577548Y-106651851D01*
X153583011Y-106746590D01*
X153590110Y-106869715D01*
X153591247Y-106874761D01*
X153591248Y-106874767D01*
X153611119Y-106962939D01*
X153639222Y-107087639D01*
X153723266Y-107294616D01*
X153839987Y-107485088D01*
X153986250Y-107653938D01*
X154158126Y-107796632D01*
X154231955Y-107839774D01*
X154280679Y-107891412D01*
X154293750Y-107961195D01*
X154267019Y-108026967D01*
X154226562Y-108060327D01*
X154218457Y-108064546D01*
X154209738Y-108070036D01*
X154039433Y-108197905D01*
X154031726Y-108204748D01*
X153884590Y-108358717D01*
X153878104Y-108366727D01*
X153758098Y-108542649D01*
X153753000Y-108551623D01*
X153663338Y-108744783D01*
X153659775Y-108754470D01*
X153604389Y-108954183D01*
X153605912Y-108962607D01*
X153618292Y-108966000D01*
X156258344Y-108966000D01*
X156271875Y-108962027D01*
X156273180Y-108952947D01*
X156231214Y-108785875D01*
X156227894Y-108776124D01*
X156200012Y-108712000D01*
X161392496Y-108712000D01*
X161412458Y-108901928D01*
X161471473Y-109083556D01*
X161566960Y-109248944D01*
X161694747Y-109390866D01*
X161793843Y-109462864D01*
X161811471Y-109475671D01*
X161849248Y-109503118D01*
X161855276Y-109505802D01*
X161855278Y-109505803D01*
X161871241Y-109512910D01*
X162023712Y-109580794D01*
X162117113Y-109600647D01*
X162204056Y-109619128D01*
X162204061Y-109619128D01*
X162210513Y-109620500D01*
X162401487Y-109620500D01*
X162407939Y-109619128D01*
X162407944Y-109619128D01*
X162494888Y-109600647D01*
X162588288Y-109580794D01*
X162740759Y-109512910D01*
X162756722Y-109505803D01*
X162756724Y-109505802D01*
X162762752Y-109503118D01*
X162800530Y-109475671D01*
X162818157Y-109462864D01*
X162917253Y-109390866D01*
X163045040Y-109248944D01*
X163140527Y-109083556D01*
X163199542Y-108901928D01*
X163219504Y-108712000D01*
X163199542Y-108522072D01*
X163140527Y-108340444D01*
X163045040Y-108175056D01*
X162973864Y-108096007D01*
X162943146Y-108032000D01*
X162941500Y-108011697D01*
X162941500Y-106646695D01*
X176437251Y-106646695D01*
X176437548Y-106651848D01*
X176437548Y-106651851D01*
X176443011Y-106746590D01*
X176450110Y-106869715D01*
X176451247Y-106874761D01*
X176451248Y-106874767D01*
X176471119Y-106962939D01*
X176499222Y-107087639D01*
X176583266Y-107294616D01*
X176699987Y-107485088D01*
X176846250Y-107653938D01*
X177018126Y-107796632D01*
X177211000Y-107909338D01*
X177419692Y-107989030D01*
X177424760Y-107990061D01*
X177424763Y-107990062D01*
X177531054Y-108011687D01*
X177638597Y-108033567D01*
X177643772Y-108033757D01*
X177643774Y-108033757D01*
X177856673Y-108041564D01*
X177856677Y-108041564D01*
X177861837Y-108041753D01*
X177866957Y-108041097D01*
X177866959Y-108041097D01*
X178078288Y-108014025D01*
X178078289Y-108014025D01*
X178083416Y-108013368D01*
X178089019Y-108011687D01*
X178292429Y-107950661D01*
X178292434Y-107950659D01*
X178297384Y-107949174D01*
X178497994Y-107850896D01*
X178679860Y-107721173D01*
X178838096Y-107563489D01*
X178897594Y-107480689D01*
X178965435Y-107386277D01*
X178968453Y-107382077D01*
X179067430Y-107181811D01*
X179132370Y-106968069D01*
X179161529Y-106746590D01*
X179163156Y-106680000D01*
X179144852Y-106457361D01*
X179090431Y-106240702D01*
X179001354Y-106035840D01*
X178880014Y-105848277D01*
X178729670Y-105683051D01*
X178725619Y-105679852D01*
X178725615Y-105679848D01*
X178558414Y-105547800D01*
X178558410Y-105547798D01*
X178554359Y-105544598D01*
X178513053Y-105521796D01*
X178463084Y-105471364D01*
X178448312Y-105401921D01*
X178473428Y-105335516D01*
X178500780Y-105308909D01*
X178544603Y-105277650D01*
X178679860Y-105181173D01*
X178838096Y-105023489D01*
X178897594Y-104940689D01*
X178965435Y-104846277D01*
X178968453Y-104842077D01*
X179067430Y-104641811D01*
X179132370Y-104428069D01*
X179161529Y-104206590D01*
X179163156Y-104140000D01*
X179144852Y-103917361D01*
X179090431Y-103700702D01*
X179001354Y-103495840D01*
X178880014Y-103308277D01*
X178729670Y-103143051D01*
X178725619Y-103139852D01*
X178725615Y-103139848D01*
X178558414Y-103007800D01*
X178558410Y-103007798D01*
X178554359Y-103004598D01*
X178512569Y-102981529D01*
X178462598Y-102931097D01*
X178447826Y-102861654D01*
X178472942Y-102795248D01*
X178500294Y-102768641D01*
X178675328Y-102643792D01*
X178683200Y-102637139D01*
X178834052Y-102486812D01*
X178840730Y-102478965D01*
X178965003Y-102306020D01*
X178970313Y-102297183D01*
X179064670Y-102106267D01*
X179068469Y-102096672D01*
X179130377Y-101892910D01*
X179132555Y-101882837D01*
X179133986Y-101871962D01*
X179131775Y-101857778D01*
X179118617Y-101854000D01*
X176483225Y-101854000D01*
X176469694Y-101857973D01*
X176468257Y-101867966D01*
X176498565Y-102002446D01*
X176501645Y-102012275D01*
X176581770Y-102209603D01*
X176586413Y-102218794D01*
X176697694Y-102400388D01*
X176703777Y-102408699D01*
X176843213Y-102569667D01*
X176850580Y-102576883D01*
X177014434Y-102712916D01*
X177022881Y-102718831D01*
X177091969Y-102759203D01*
X177140693Y-102810842D01*
X177153764Y-102880625D01*
X177127033Y-102946396D01*
X177086584Y-102979752D01*
X177073607Y-102986507D01*
X177069474Y-102989610D01*
X177069471Y-102989612D01*
X176929033Y-103095056D01*
X176894965Y-103120635D01*
X176740629Y-103282138D01*
X176614743Y-103466680D01*
X176599003Y-103500590D01*
X176541052Y-103625435D01*
X176520688Y-103669305D01*
X176460989Y-103884570D01*
X176437251Y-104106695D01*
X176437548Y-104111848D01*
X176437548Y-104111851D01*
X176449089Y-104312000D01*
X176450110Y-104329715D01*
X176451247Y-104334761D01*
X176451248Y-104334767D01*
X176471119Y-104422939D01*
X176499222Y-104547639D01*
X176583266Y-104754616D01*
X176699987Y-104945088D01*
X176846250Y-105113938D01*
X177018126Y-105256632D01*
X177088595Y-105297811D01*
X177091445Y-105299476D01*
X177140169Y-105351114D01*
X177153240Y-105420897D01*
X177126509Y-105486669D01*
X177086055Y-105520027D01*
X177073607Y-105526507D01*
X177069474Y-105529610D01*
X177069471Y-105529612D01*
X177045247Y-105547800D01*
X176894965Y-105660635D01*
X176740629Y-105822138D01*
X176614743Y-106006680D01*
X176520688Y-106209305D01*
X176460989Y-106424570D01*
X176437251Y-106646695D01*
X162941500Y-106646695D01*
X162941500Y-104332303D01*
X162961502Y-104264182D01*
X162973864Y-104247993D01*
X163040621Y-104173852D01*
X163040622Y-104173851D01*
X163045040Y-104168944D01*
X163140527Y-104003556D01*
X163199542Y-103821928D01*
X163215059Y-103674297D01*
X163218814Y-103638565D01*
X163219504Y-103632000D01*
X163218814Y-103625435D01*
X163200232Y-103448635D01*
X163200232Y-103448633D01*
X163199542Y-103442072D01*
X163140527Y-103260444D01*
X163045040Y-103095056D01*
X162966475Y-103007800D01*
X162921675Y-102958045D01*
X162921674Y-102958044D01*
X162917253Y-102953134D01*
X162805303Y-102871797D01*
X162768094Y-102844763D01*
X162768093Y-102844762D01*
X162762752Y-102840882D01*
X162756724Y-102838198D01*
X162756722Y-102838197D01*
X162594319Y-102765891D01*
X162594318Y-102765891D01*
X162588288Y-102763206D01*
X162494887Y-102743353D01*
X162407944Y-102724872D01*
X162407939Y-102724872D01*
X162401487Y-102723500D01*
X162210513Y-102723500D01*
X162204061Y-102724872D01*
X162204056Y-102724872D01*
X162117113Y-102743353D01*
X162023712Y-102763206D01*
X162017682Y-102765891D01*
X162017681Y-102765891D01*
X161855278Y-102838197D01*
X161855276Y-102838198D01*
X161849248Y-102840882D01*
X161843907Y-102844762D01*
X161843906Y-102844763D01*
X161806697Y-102871797D01*
X161694747Y-102953134D01*
X161690326Y-102958044D01*
X161690325Y-102958045D01*
X161645526Y-103007800D01*
X161566960Y-103095056D01*
X161471473Y-103260444D01*
X161412458Y-103442072D01*
X161411768Y-103448633D01*
X161411768Y-103448635D01*
X161393186Y-103625435D01*
X161392496Y-103632000D01*
X161393186Y-103638565D01*
X161396942Y-103674297D01*
X161412458Y-103821928D01*
X161471473Y-104003556D01*
X161566960Y-104168944D01*
X161571378Y-104173851D01*
X161571379Y-104173852D01*
X161638136Y-104247993D01*
X161668854Y-104312000D01*
X161670500Y-104332303D01*
X161670500Y-108011697D01*
X161650498Y-108079818D01*
X161638136Y-108096006D01*
X161566960Y-108175056D01*
X161471473Y-108340444D01*
X161412458Y-108522072D01*
X161392496Y-108712000D01*
X156200012Y-108712000D01*
X156142972Y-108580814D01*
X156138105Y-108571739D01*
X156022426Y-108392926D01*
X156016136Y-108384757D01*
X155872806Y-108227240D01*
X155865273Y-108220215D01*
X155698139Y-108088222D01*
X155689556Y-108082520D01*
X155652602Y-108062120D01*
X155602631Y-108011687D01*
X155587859Y-107942245D01*
X155612975Y-107875839D01*
X155640327Y-107849232D01*
X155663797Y-107832491D01*
X155819860Y-107721173D01*
X155978096Y-107563489D01*
X156037594Y-107480689D01*
X156105435Y-107386277D01*
X156108453Y-107382077D01*
X156207430Y-107181811D01*
X156272370Y-106968069D01*
X156301529Y-106746590D01*
X156303156Y-106680000D01*
X156284852Y-106457361D01*
X156230431Y-106240702D01*
X156141354Y-106035840D01*
X156020014Y-105848277D01*
X155869670Y-105683051D01*
X155865619Y-105679852D01*
X155865615Y-105679848D01*
X155698414Y-105547800D01*
X155698410Y-105547798D01*
X155694359Y-105544598D01*
X155653053Y-105521796D01*
X155603084Y-105471364D01*
X155588312Y-105401921D01*
X155613428Y-105335516D01*
X155640780Y-105308909D01*
X155684603Y-105277650D01*
X155819860Y-105181173D01*
X155978096Y-105023489D01*
X156037594Y-104940689D01*
X156105435Y-104846277D01*
X156108453Y-104842077D01*
X156207430Y-104641811D01*
X156272370Y-104428069D01*
X156301529Y-104206590D01*
X156303156Y-104140000D01*
X156284852Y-103917361D01*
X156230431Y-103700702D01*
X156141354Y-103495840D01*
X156020014Y-103308277D01*
X155869670Y-103143051D01*
X155865619Y-103139852D01*
X155865615Y-103139848D01*
X155698414Y-103007800D01*
X155698410Y-103007798D01*
X155694359Y-103004598D01*
X155653053Y-102981796D01*
X155603084Y-102931364D01*
X155588312Y-102861921D01*
X155613428Y-102795516D01*
X155640780Y-102768909D01*
X155704441Y-102723500D01*
X155819860Y-102641173D01*
X155978096Y-102483489D01*
X156037594Y-102400689D01*
X156105435Y-102306277D01*
X156108453Y-102302077D01*
X156207430Y-102101811D01*
X156272370Y-101888069D01*
X156301529Y-101666590D01*
X156303156Y-101600000D01*
X156284852Y-101377361D01*
X156230431Y-101160702D01*
X156141354Y-100955840D01*
X156020014Y-100768277D01*
X155869670Y-100603051D01*
X155865619Y-100599852D01*
X155865615Y-100599848D01*
X155698414Y-100467800D01*
X155698410Y-100467798D01*
X155694359Y-100464598D01*
X155653053Y-100441796D01*
X155603084Y-100391364D01*
X155588312Y-100321921D01*
X155613428Y-100255516D01*
X155640780Y-100228909D01*
X155684603Y-100197650D01*
X155819860Y-100101173D01*
X155978096Y-99943489D01*
X155987670Y-99930166D01*
X156105435Y-99766277D01*
X156108453Y-99762077D01*
X156118006Y-99742749D01*
X156205136Y-99566453D01*
X156205137Y-99566451D01*
X156207430Y-99561811D01*
X156272370Y-99348069D01*
X156301529Y-99126590D01*
X156303156Y-99060000D01*
X161646496Y-99060000D01*
X161647186Y-99066565D01*
X161653844Y-99129908D01*
X161666458Y-99249928D01*
X161725473Y-99431556D01*
X161728776Y-99437278D01*
X161728777Y-99437279D01*
X161749069Y-99472425D01*
X161820960Y-99596944D01*
X161948747Y-99738866D01*
X162103248Y-99851118D01*
X162109276Y-99853802D01*
X162109278Y-99853803D01*
X162134625Y-99865088D01*
X162277712Y-99928794D01*
X162364009Y-99947137D01*
X162458056Y-99967128D01*
X162458061Y-99967128D01*
X162464513Y-99968500D01*
X162655487Y-99968500D01*
X162661939Y-99967128D01*
X162661944Y-99967128D01*
X162704256Y-99958134D01*
X176441500Y-99958134D01*
X176448255Y-100020316D01*
X176499385Y-100156705D01*
X176586739Y-100273261D01*
X176703295Y-100360615D01*
X176711704Y-100363767D01*
X176711705Y-100363768D01*
X176820960Y-100404726D01*
X176877725Y-100447367D01*
X176902425Y-100513929D01*
X176887218Y-100583278D01*
X176867825Y-100609759D01*
X176744590Y-100738717D01*
X176738104Y-100746727D01*
X176618098Y-100922649D01*
X176613000Y-100931623D01*
X176523338Y-101124783D01*
X176519775Y-101134470D01*
X176464389Y-101334183D01*
X176465912Y-101342607D01*
X176478292Y-101346000D01*
X179118344Y-101346000D01*
X179131875Y-101342027D01*
X179133180Y-101332947D01*
X179091214Y-101165875D01*
X179087894Y-101156124D01*
X179002972Y-100960814D01*
X178998105Y-100951739D01*
X178882426Y-100772926D01*
X178876136Y-100764757D01*
X178732293Y-100606677D01*
X178701241Y-100542831D01*
X178709635Y-100472333D01*
X178754812Y-100417564D01*
X178781256Y-100403895D01*
X178888297Y-100363767D01*
X178896705Y-100360615D01*
X179013261Y-100273261D01*
X179100615Y-100156705D01*
X179151745Y-100020316D01*
X179158500Y-99958134D01*
X179158500Y-98161866D01*
X179151745Y-98099684D01*
X179100615Y-97963295D01*
X179013261Y-97846739D01*
X178896705Y-97759385D01*
X178760316Y-97708255D01*
X178698134Y-97701500D01*
X176901866Y-97701500D01*
X176839684Y-97708255D01*
X176703295Y-97759385D01*
X176586739Y-97846739D01*
X176499385Y-97963295D01*
X176448255Y-98099684D01*
X176441500Y-98161866D01*
X176441500Y-99958134D01*
X162704256Y-99958134D01*
X162755991Y-99947137D01*
X162842288Y-99928794D01*
X162985375Y-99865088D01*
X163010722Y-99853803D01*
X163010724Y-99853802D01*
X163016752Y-99851118D01*
X163171253Y-99738866D01*
X163299040Y-99596944D01*
X163370931Y-99472425D01*
X163391223Y-99437279D01*
X163391224Y-99437278D01*
X163394527Y-99431556D01*
X163453542Y-99249928D01*
X163466157Y-99129908D01*
X163472814Y-99066565D01*
X163473504Y-99060000D01*
X163453542Y-98870072D01*
X163394527Y-98688444D01*
X163299040Y-98523056D01*
X163202503Y-98415840D01*
X163175675Y-98386045D01*
X163175674Y-98386044D01*
X163171253Y-98381134D01*
X163016752Y-98268882D01*
X163010724Y-98266198D01*
X163010722Y-98266197D01*
X162848319Y-98193891D01*
X162848318Y-98193891D01*
X162842288Y-98191206D01*
X162720331Y-98165283D01*
X162661944Y-98152872D01*
X162661939Y-98152872D01*
X162655487Y-98151500D01*
X162464513Y-98151500D01*
X162458061Y-98152872D01*
X162458056Y-98152872D01*
X162399669Y-98165283D01*
X162277712Y-98191206D01*
X162271682Y-98193891D01*
X162271681Y-98193891D01*
X162109278Y-98266197D01*
X162109276Y-98266198D01*
X162103248Y-98268882D01*
X161948747Y-98381134D01*
X161944326Y-98386044D01*
X161944325Y-98386045D01*
X161917498Y-98415840D01*
X161820960Y-98523056D01*
X161725473Y-98688444D01*
X161666458Y-98870072D01*
X161646496Y-99060000D01*
X156303156Y-99060000D01*
X156284852Y-98837361D01*
X156230431Y-98620702D01*
X156141354Y-98415840D01*
X156081446Y-98323237D01*
X156022822Y-98232617D01*
X156022820Y-98232614D01*
X156020014Y-98228277D01*
X156016532Y-98224450D01*
X155872798Y-98066488D01*
X155841746Y-98002642D01*
X155850141Y-97932143D01*
X155895317Y-97877375D01*
X155921761Y-97863706D01*
X156028297Y-97823767D01*
X156036705Y-97820615D01*
X156153261Y-97733261D01*
X156240615Y-97616705D01*
X156270870Y-97536000D01*
X157836496Y-97536000D01*
X157837186Y-97542565D01*
X157854601Y-97708255D01*
X157856458Y-97725928D01*
X157915473Y-97907556D01*
X158010960Y-98072944D01*
X158015378Y-98077851D01*
X158015379Y-98077852D01*
X158094102Y-98165283D01*
X158138747Y-98214866D01*
X158293248Y-98327118D01*
X158299276Y-98329802D01*
X158299278Y-98329803D01*
X158427027Y-98386680D01*
X158467712Y-98404794D01*
X158542026Y-98420590D01*
X158648056Y-98443128D01*
X158648061Y-98443128D01*
X158654513Y-98444500D01*
X158845487Y-98444500D01*
X158851939Y-98443128D01*
X158851944Y-98443128D01*
X158957974Y-98420590D01*
X159032288Y-98404794D01*
X159072973Y-98386680D01*
X159200722Y-98329803D01*
X159200724Y-98329802D01*
X159206752Y-98327118D01*
X159361253Y-98214866D01*
X159405898Y-98165283D01*
X159484621Y-98077852D01*
X159484622Y-98077851D01*
X159489040Y-98072944D01*
X159584527Y-97907556D01*
X159643542Y-97725928D01*
X159645400Y-97708255D01*
X159662814Y-97542565D01*
X159663504Y-97536000D01*
X159658429Y-97487715D01*
X159644232Y-97352635D01*
X159644232Y-97352633D01*
X159643542Y-97346072D01*
X159584527Y-97164444D01*
X159489040Y-96999056D01*
X159361253Y-96857134D01*
X159206752Y-96744882D01*
X159200724Y-96742198D01*
X159200722Y-96742197D01*
X159038319Y-96669891D01*
X159038318Y-96669891D01*
X159032288Y-96667206D01*
X158938888Y-96647353D01*
X158851944Y-96628872D01*
X158851939Y-96628872D01*
X158845487Y-96627500D01*
X158654513Y-96627500D01*
X158648061Y-96628872D01*
X158648056Y-96628872D01*
X158561112Y-96647353D01*
X158467712Y-96667206D01*
X158461682Y-96669891D01*
X158461681Y-96669891D01*
X158299278Y-96742197D01*
X158299276Y-96742198D01*
X158293248Y-96744882D01*
X158138747Y-96857134D01*
X158010960Y-96999056D01*
X157915473Y-97164444D01*
X157856458Y-97346072D01*
X157855768Y-97352633D01*
X157855768Y-97352635D01*
X157841571Y-97487715D01*
X157836496Y-97536000D01*
X156270870Y-97536000D01*
X156291745Y-97480316D01*
X156298500Y-97418134D01*
X156298500Y-95621866D01*
X156291745Y-95559684D01*
X156240615Y-95423295D01*
X156153261Y-95306739D01*
X156036705Y-95219385D01*
X155900316Y-95168255D01*
X155838134Y-95161500D01*
X154041866Y-95161500D01*
X153979684Y-95168255D01*
X153843295Y-95219385D01*
X153726739Y-95306739D01*
X153639385Y-95423295D01*
X153588255Y-95559684D01*
X153581500Y-95621866D01*
X153581500Y-97418134D01*
X153588255Y-97480316D01*
X153639385Y-97616705D01*
X153726739Y-97733261D01*
X153843295Y-97820615D01*
X153851704Y-97823767D01*
X153851705Y-97823768D01*
X153960451Y-97864535D01*
X154017216Y-97907176D01*
X154041916Y-97973738D01*
X154026709Y-98043087D01*
X154007316Y-98069568D01*
X153880629Y-98202138D01*
X153877715Y-98206410D01*
X153877714Y-98206411D01*
X153869298Y-98218749D01*
X153754743Y-98386680D01*
X153660688Y-98589305D01*
X153600989Y-98804570D01*
X153577251Y-99026695D01*
X153577548Y-99031848D01*
X153577548Y-99031851D01*
X153583011Y-99126590D01*
X153590110Y-99249715D01*
X153591247Y-99254761D01*
X153591248Y-99254767D01*
X153611119Y-99342939D01*
X153639222Y-99467639D01*
X153723266Y-99674616D01*
X153725965Y-99679020D01*
X153833072Y-99853803D01*
X153839987Y-99865088D01*
X153986250Y-100033938D01*
X154158126Y-100176632D01*
X154228595Y-100217811D01*
X154231445Y-100219476D01*
X154280169Y-100271114D01*
X154293240Y-100340897D01*
X154266509Y-100406669D01*
X154226055Y-100440027D01*
X154213607Y-100446507D01*
X154209474Y-100449610D01*
X154209471Y-100449612D01*
X154123809Y-100513929D01*
X154034965Y-100580635D01*
X153880629Y-100742138D01*
X153877715Y-100746410D01*
X153877714Y-100746411D01*
X153865404Y-100764457D01*
X153754743Y-100926680D01*
X153660688Y-101129305D01*
X153600989Y-101344570D01*
X153577251Y-101566695D01*
X153577548Y-101571848D01*
X153577548Y-101571851D01*
X153583011Y-101666590D01*
X153590110Y-101789715D01*
X153591247Y-101794761D01*
X153591248Y-101794767D01*
X153604597Y-101854000D01*
X153639222Y-102007639D01*
X153723266Y-102214616D01*
X153839987Y-102405088D01*
X153986250Y-102573938D01*
X154158126Y-102716632D01*
X154228595Y-102757811D01*
X154231445Y-102759476D01*
X154280169Y-102811114D01*
X154293240Y-102880897D01*
X154266509Y-102946669D01*
X154226055Y-102980027D01*
X154213607Y-102986507D01*
X154209474Y-102989610D01*
X154209471Y-102989612D01*
X154069033Y-103095056D01*
X154034965Y-103120635D01*
X153880629Y-103282138D01*
X153754743Y-103466680D01*
X153739003Y-103500590D01*
X153681052Y-103625435D01*
X153660688Y-103669305D01*
X153600989Y-103884570D01*
X153577251Y-104106695D01*
X153577548Y-104111848D01*
X153577548Y-104111851D01*
X153589089Y-104312000D01*
X153590110Y-104329715D01*
X153591247Y-104334761D01*
X153591248Y-104334767D01*
X153611119Y-104422939D01*
X153639222Y-104547639D01*
X153723266Y-104754616D01*
X153839987Y-104945088D01*
X153986250Y-105113938D01*
X154158126Y-105256632D01*
X154228595Y-105297811D01*
X154231445Y-105299476D01*
X154280169Y-105351114D01*
X154293240Y-105420897D01*
X154266509Y-105486669D01*
X154226055Y-105520027D01*
X154213607Y-105526507D01*
X154209474Y-105529610D01*
X154209471Y-105529612D01*
X154185247Y-105547800D01*
X154034965Y-105660635D01*
X153880629Y-105822138D01*
X153754743Y-106006680D01*
X153660688Y-106209305D01*
X153600989Y-106424570D01*
X153577251Y-106646695D01*
X153162500Y-106646695D01*
X153162500Y-93017250D01*
X153164246Y-92996345D01*
X153166770Y-92981344D01*
X153166770Y-92981341D01*
X153167576Y-92976552D01*
X153167729Y-92964000D01*
X153167039Y-92959179D01*
X153166852Y-92956318D01*
X153168137Y-92928411D01*
X153171786Y-92905374D01*
X153183967Y-92867884D01*
X153201855Y-92832776D01*
X153225027Y-92800883D01*
X153252883Y-92773027D01*
X153284775Y-92749855D01*
X153319884Y-92731966D01*
X153357373Y-92719786D01*
X153382026Y-92715881D01*
X153401750Y-92714449D01*
X153409724Y-92715691D01*
X153441286Y-92711564D01*
X153457621Y-92710500D01*
X179274633Y-92710500D01*
X179294018Y-92712000D01*
G37*
%TD.AperFunction*%
%TD*%
M02*
