G04 #@! TF.GenerationSoftware,KiCad,Pcbnew,(5.1.5)-3*
G04 #@! TF.CreationDate,2022-03-27T17:41:12-05:00*
G04 #@! TF.ProjectId,Two Motor Nano Controller,54776f20-4d6f-4746-9f72-204e616e6f20,rev?*
G04 #@! TF.SameCoordinates,Original*
G04 #@! TF.FileFunction,Soldermask,Bot*
G04 #@! TF.FilePolarity,Negative*
%FSLAX46Y46*%
G04 Gerber Fmt 4.6, Leading zero omitted, Abs format (unit mm)*
G04 Created by KiCad (PCBNEW (5.1.5)-3) date 2022-03-27 17:41:12*
%MOMM*%
%LPD*%
G04 APERTURE LIST*
%ADD10C,0.100000*%
G04 APERTURE END LIST*
D10*
G36*
X195955256Y-83481298D02*
G01*
X196061579Y-83502447D01*
X196362042Y-83626903D01*
X196632451Y-83807585D01*
X196862415Y-84037549D01*
X197043097Y-84307958D01*
X197167553Y-84608421D01*
X197231000Y-84927391D01*
X197231000Y-85252609D01*
X197167553Y-85571579D01*
X197043097Y-85872042D01*
X196862415Y-86142451D01*
X196632451Y-86372415D01*
X196362042Y-86553097D01*
X196061579Y-86677553D01*
X195955256Y-86698702D01*
X195742611Y-86741000D01*
X195417389Y-86741000D01*
X195204744Y-86698702D01*
X195098421Y-86677553D01*
X194797958Y-86553097D01*
X194527549Y-86372415D01*
X194297585Y-86142451D01*
X194116903Y-85872042D01*
X193992447Y-85571579D01*
X193929000Y-85252609D01*
X193929000Y-84927391D01*
X193992447Y-84608421D01*
X194116903Y-84307958D01*
X194297585Y-84037549D01*
X194527549Y-83807585D01*
X194797958Y-83626903D01*
X195098421Y-83502447D01*
X195204744Y-83481298D01*
X195417389Y-83439000D01*
X195742611Y-83439000D01*
X195955256Y-83481298D01*
G37*
G36*
X117215256Y-83481298D02*
G01*
X117321579Y-83502447D01*
X117622042Y-83626903D01*
X117892451Y-83807585D01*
X118122415Y-84037549D01*
X118303097Y-84307958D01*
X118427553Y-84608421D01*
X118491000Y-84927391D01*
X118491000Y-85252609D01*
X118427553Y-85571579D01*
X118303097Y-85872042D01*
X118122415Y-86142451D01*
X117892451Y-86372415D01*
X117622042Y-86553097D01*
X117321579Y-86677553D01*
X117215256Y-86698702D01*
X117002611Y-86741000D01*
X116677389Y-86741000D01*
X116464744Y-86698702D01*
X116358421Y-86677553D01*
X116057958Y-86553097D01*
X115787549Y-86372415D01*
X115557585Y-86142451D01*
X115376903Y-85872042D01*
X115252447Y-85571579D01*
X115189000Y-85252609D01*
X115189000Y-84927391D01*
X115252447Y-84608421D01*
X115376903Y-84307958D01*
X115557585Y-84037549D01*
X115787549Y-83807585D01*
X116057958Y-83626903D01*
X116358421Y-83502447D01*
X116464744Y-83481298D01*
X116677389Y-83439000D01*
X117002611Y-83439000D01*
X117215256Y-83481298D01*
G37*
G36*
X148938276Y-80131884D02*
G01*
X149155569Y-80221890D01*
X149155571Y-80221891D01*
X149351130Y-80352560D01*
X149517440Y-80518870D01*
X149648110Y-80714431D01*
X149738116Y-80931724D01*
X149784000Y-81162400D01*
X149784000Y-81397600D01*
X149738116Y-81628276D01*
X149648110Y-81845569D01*
X149648109Y-81845571D01*
X149517440Y-82041130D01*
X149351130Y-82207440D01*
X149155571Y-82338109D01*
X149155570Y-82338110D01*
X149155569Y-82338110D01*
X148938276Y-82428116D01*
X148707600Y-82474000D01*
X148472400Y-82474000D01*
X148241724Y-82428116D01*
X148024431Y-82338110D01*
X148024430Y-82338110D01*
X148024429Y-82338109D01*
X147828870Y-82207440D01*
X147662560Y-82041130D01*
X147531891Y-81845571D01*
X147531890Y-81845569D01*
X147441884Y-81628276D01*
X147396000Y-81397600D01*
X147396000Y-81162400D01*
X147441884Y-80931724D01*
X147531890Y-80714431D01*
X147662560Y-80518870D01*
X147828870Y-80352560D01*
X148024429Y-80221891D01*
X148024431Y-80221890D01*
X148241724Y-80131884D01*
X148472400Y-80086000D01*
X148707600Y-80086000D01*
X148938276Y-80131884D01*
G37*
G36*
X144704000Y-82474000D02*
G01*
X142316000Y-82474000D01*
X142316000Y-80086000D01*
X144704000Y-80086000D01*
X144704000Y-82474000D01*
G37*
G36*
X166294000Y-82474000D02*
G01*
X163906000Y-82474000D01*
X163906000Y-80086000D01*
X166294000Y-80086000D01*
X166294000Y-82474000D01*
G37*
G36*
X170528276Y-80131884D02*
G01*
X170745569Y-80221890D01*
X170745571Y-80221891D01*
X170941130Y-80352560D01*
X171107440Y-80518870D01*
X171238110Y-80714431D01*
X171328116Y-80931724D01*
X171374000Y-81162400D01*
X171374000Y-81397600D01*
X171328116Y-81628276D01*
X171238110Y-81845569D01*
X171238109Y-81845571D01*
X171107440Y-82041130D01*
X170941130Y-82207440D01*
X170745571Y-82338109D01*
X170745570Y-82338110D01*
X170745569Y-82338110D01*
X170528276Y-82428116D01*
X170297600Y-82474000D01*
X170062400Y-82474000D01*
X169831724Y-82428116D01*
X169614431Y-82338110D01*
X169614430Y-82338110D01*
X169614429Y-82338109D01*
X169418870Y-82207440D01*
X169252560Y-82041130D01*
X169121891Y-81845571D01*
X169121890Y-81845569D01*
X169031884Y-81628276D01*
X168986000Y-81397600D01*
X168986000Y-81162400D01*
X169031884Y-80931724D01*
X169121890Y-80714431D01*
X169252560Y-80518870D01*
X169418870Y-80352560D01*
X169614429Y-80221891D01*
X169614431Y-80221890D01*
X169831724Y-80131884D01*
X170062400Y-80086000D01*
X170297600Y-80086000D01*
X170528276Y-80131884D01*
G37*
G36*
X190613512Y-72763927D02*
G01*
X190762812Y-72793624D01*
X190926784Y-72861544D01*
X191074354Y-72960147D01*
X191199853Y-73085646D01*
X191298456Y-73233216D01*
X191366376Y-73397188D01*
X191401000Y-73571259D01*
X191401000Y-73748741D01*
X191366376Y-73922812D01*
X191298456Y-74086784D01*
X191199853Y-74234354D01*
X191074354Y-74359853D01*
X190926784Y-74458456D01*
X190762812Y-74526376D01*
X190613512Y-74556073D01*
X190588742Y-74561000D01*
X190411258Y-74561000D01*
X190386488Y-74556073D01*
X190237188Y-74526376D01*
X190073216Y-74458456D01*
X189925646Y-74359853D01*
X189800147Y-74234354D01*
X189701544Y-74086784D01*
X189633624Y-73922812D01*
X189599000Y-73748741D01*
X189599000Y-73571259D01*
X189633624Y-73397188D01*
X189701544Y-73233216D01*
X189800147Y-73085646D01*
X189925646Y-72960147D01*
X190073216Y-72861544D01*
X190237188Y-72793624D01*
X190386488Y-72763927D01*
X190411258Y-72759000D01*
X190588742Y-72759000D01*
X190613512Y-72763927D01*
G37*
G36*
X193153512Y-72763927D02*
G01*
X193302812Y-72793624D01*
X193466784Y-72861544D01*
X193614354Y-72960147D01*
X193739853Y-73085646D01*
X193838456Y-73233216D01*
X193906376Y-73397188D01*
X193941000Y-73571259D01*
X193941000Y-73748741D01*
X193906376Y-73922812D01*
X193838456Y-74086784D01*
X193739853Y-74234354D01*
X193614354Y-74359853D01*
X193466784Y-74458456D01*
X193302812Y-74526376D01*
X193153512Y-74556073D01*
X193128742Y-74561000D01*
X192951258Y-74561000D01*
X192926488Y-74556073D01*
X192777188Y-74526376D01*
X192613216Y-74458456D01*
X192465646Y-74359853D01*
X192340147Y-74234354D01*
X192241544Y-74086784D01*
X192173624Y-73922812D01*
X192139000Y-73748741D01*
X192139000Y-73571259D01*
X192173624Y-73397188D01*
X192241544Y-73233216D01*
X192340147Y-73085646D01*
X192465646Y-72960147D01*
X192613216Y-72861544D01*
X192777188Y-72793624D01*
X192926488Y-72763927D01*
X192951258Y-72759000D01*
X193128742Y-72759000D01*
X193153512Y-72763927D01*
G37*
G36*
X124573512Y-72763927D02*
G01*
X124722812Y-72793624D01*
X124886784Y-72861544D01*
X125034354Y-72960147D01*
X125159853Y-73085646D01*
X125258456Y-73233216D01*
X125326376Y-73397188D01*
X125361000Y-73571259D01*
X125361000Y-73748741D01*
X125326376Y-73922812D01*
X125258456Y-74086784D01*
X125159853Y-74234354D01*
X125034354Y-74359853D01*
X124886784Y-74458456D01*
X124722812Y-74526376D01*
X124573512Y-74556073D01*
X124548742Y-74561000D01*
X124371258Y-74561000D01*
X124346488Y-74556073D01*
X124197188Y-74526376D01*
X124033216Y-74458456D01*
X123885646Y-74359853D01*
X123760147Y-74234354D01*
X123661544Y-74086784D01*
X123593624Y-73922812D01*
X123559000Y-73748741D01*
X123559000Y-73571259D01*
X123593624Y-73397188D01*
X123661544Y-73233216D01*
X123760147Y-73085646D01*
X123885646Y-72960147D01*
X124033216Y-72861544D01*
X124197188Y-72793624D01*
X124346488Y-72763927D01*
X124371258Y-72759000D01*
X124548742Y-72759000D01*
X124573512Y-72763927D01*
G37*
G36*
X122033512Y-72763927D02*
G01*
X122182812Y-72793624D01*
X122346784Y-72861544D01*
X122494354Y-72960147D01*
X122619853Y-73085646D01*
X122718456Y-73233216D01*
X122786376Y-73397188D01*
X122821000Y-73571259D01*
X122821000Y-73748741D01*
X122786376Y-73922812D01*
X122718456Y-74086784D01*
X122619853Y-74234354D01*
X122494354Y-74359853D01*
X122346784Y-74458456D01*
X122182812Y-74526376D01*
X122033512Y-74556073D01*
X122008742Y-74561000D01*
X121831258Y-74561000D01*
X121806488Y-74556073D01*
X121657188Y-74526376D01*
X121493216Y-74458456D01*
X121345646Y-74359853D01*
X121220147Y-74234354D01*
X121121544Y-74086784D01*
X121053624Y-73922812D01*
X121019000Y-73748741D01*
X121019000Y-73571259D01*
X121053624Y-73397188D01*
X121121544Y-73233216D01*
X121220147Y-73085646D01*
X121345646Y-72960147D01*
X121493216Y-72861544D01*
X121657188Y-72793624D01*
X121806488Y-72763927D01*
X121831258Y-72759000D01*
X122008742Y-72759000D01*
X122033512Y-72763927D01*
G37*
G36*
X119493512Y-72763927D02*
G01*
X119642812Y-72793624D01*
X119806784Y-72861544D01*
X119954354Y-72960147D01*
X120079853Y-73085646D01*
X120178456Y-73233216D01*
X120246376Y-73397188D01*
X120281000Y-73571259D01*
X120281000Y-73748741D01*
X120246376Y-73922812D01*
X120178456Y-74086784D01*
X120079853Y-74234354D01*
X119954354Y-74359853D01*
X119806784Y-74458456D01*
X119642812Y-74526376D01*
X119493512Y-74556073D01*
X119468742Y-74561000D01*
X119291258Y-74561000D01*
X119266488Y-74556073D01*
X119117188Y-74526376D01*
X118953216Y-74458456D01*
X118805646Y-74359853D01*
X118680147Y-74234354D01*
X118581544Y-74086784D01*
X118513624Y-73922812D01*
X118479000Y-73748741D01*
X118479000Y-73571259D01*
X118513624Y-73397188D01*
X118581544Y-73233216D01*
X118680147Y-73085646D01*
X118805646Y-72960147D01*
X118953216Y-72861544D01*
X119117188Y-72793624D01*
X119266488Y-72763927D01*
X119291258Y-72759000D01*
X119468742Y-72759000D01*
X119493512Y-72763927D01*
G37*
G36*
X117741000Y-74561000D02*
G01*
X115939000Y-74561000D01*
X115939000Y-72759000D01*
X117741000Y-72759000D01*
X117741000Y-74561000D01*
G37*
G36*
X188073512Y-72763927D02*
G01*
X188222812Y-72793624D01*
X188386784Y-72861544D01*
X188534354Y-72960147D01*
X188659853Y-73085646D01*
X188758456Y-73233216D01*
X188826376Y-73397188D01*
X188861000Y-73571259D01*
X188861000Y-73748741D01*
X188826376Y-73922812D01*
X188758456Y-74086784D01*
X188659853Y-74234354D01*
X188534354Y-74359853D01*
X188386784Y-74458456D01*
X188222812Y-74526376D01*
X188073512Y-74556073D01*
X188048742Y-74561000D01*
X187871258Y-74561000D01*
X187846488Y-74556073D01*
X187697188Y-74526376D01*
X187533216Y-74458456D01*
X187385646Y-74359853D01*
X187260147Y-74234354D01*
X187161544Y-74086784D01*
X187093624Y-73922812D01*
X187059000Y-73748741D01*
X187059000Y-73571259D01*
X187093624Y-73397188D01*
X187161544Y-73233216D01*
X187260147Y-73085646D01*
X187385646Y-72960147D01*
X187533216Y-72861544D01*
X187697188Y-72793624D01*
X187846488Y-72763927D01*
X187871258Y-72759000D01*
X188048742Y-72759000D01*
X188073512Y-72763927D01*
G37*
G36*
X186321000Y-74561000D02*
G01*
X184519000Y-74561000D01*
X184519000Y-72759000D01*
X186321000Y-72759000D01*
X186321000Y-74561000D01*
G37*
G36*
X137408228Y-67761703D02*
G01*
X137563100Y-67825853D01*
X137702481Y-67918985D01*
X137821015Y-68037519D01*
X137914147Y-68176900D01*
X137978297Y-68331772D01*
X138011000Y-68496184D01*
X138011000Y-68663816D01*
X137978297Y-68828228D01*
X137914147Y-68983100D01*
X137821015Y-69122481D01*
X137702481Y-69241015D01*
X137563100Y-69334147D01*
X137408228Y-69398297D01*
X137243816Y-69431000D01*
X137076184Y-69431000D01*
X136911772Y-69398297D01*
X136756900Y-69334147D01*
X136617519Y-69241015D01*
X136498985Y-69122481D01*
X136405853Y-68983100D01*
X136341703Y-68828228D01*
X136309000Y-68663816D01*
X136309000Y-68496184D01*
X136341703Y-68331772D01*
X136405853Y-68176900D01*
X136498985Y-68037519D01*
X136617519Y-67918985D01*
X136756900Y-67825853D01*
X136911772Y-67761703D01*
X137076184Y-67729000D01*
X137243816Y-67729000D01*
X137408228Y-67761703D01*
G37*
G36*
X160268228Y-67761703D02*
G01*
X160423100Y-67825853D01*
X160562481Y-67918985D01*
X160681015Y-68037519D01*
X160774147Y-68176900D01*
X160838297Y-68331772D01*
X160871000Y-68496184D01*
X160871000Y-68663816D01*
X160838297Y-68828228D01*
X160774147Y-68983100D01*
X160681015Y-69122481D01*
X160562481Y-69241015D01*
X160423100Y-69334147D01*
X160268228Y-69398297D01*
X160103816Y-69431000D01*
X159936184Y-69431000D01*
X159771772Y-69398297D01*
X159616900Y-69334147D01*
X159477519Y-69241015D01*
X159358985Y-69122481D01*
X159265853Y-68983100D01*
X159201703Y-68828228D01*
X159169000Y-68663816D01*
X159169000Y-68496184D01*
X159201703Y-68331772D01*
X159265853Y-68176900D01*
X159358985Y-68037519D01*
X159477519Y-67918985D01*
X159616900Y-67825853D01*
X159771772Y-67761703D01*
X159936184Y-67729000D01*
X160103816Y-67729000D01*
X160268228Y-67761703D01*
G37*
G36*
X153251000Y-69431000D02*
G01*
X151549000Y-69431000D01*
X151549000Y-67729000D01*
X153251000Y-67729000D01*
X153251000Y-69431000D01*
G37*
G36*
X176111000Y-69431000D02*
G01*
X174409000Y-69431000D01*
X174409000Y-67729000D01*
X176111000Y-67729000D01*
X176111000Y-69431000D01*
G37*
G36*
X152648228Y-65221703D02*
G01*
X152803100Y-65285853D01*
X152942481Y-65378985D01*
X153061015Y-65497519D01*
X153154147Y-65636900D01*
X153218297Y-65791772D01*
X153251000Y-65956184D01*
X153251000Y-66123816D01*
X153218297Y-66288228D01*
X153154147Y-66443100D01*
X153061015Y-66582481D01*
X152942481Y-66701015D01*
X152803100Y-66794147D01*
X152648228Y-66858297D01*
X152483816Y-66891000D01*
X152316184Y-66891000D01*
X152151772Y-66858297D01*
X151996900Y-66794147D01*
X151857519Y-66701015D01*
X151738985Y-66582481D01*
X151645853Y-66443100D01*
X151581703Y-66288228D01*
X151549000Y-66123816D01*
X151549000Y-65956184D01*
X151581703Y-65791772D01*
X151645853Y-65636900D01*
X151738985Y-65497519D01*
X151857519Y-65378985D01*
X151996900Y-65285853D01*
X152151772Y-65221703D01*
X152316184Y-65189000D01*
X152483816Y-65189000D01*
X152648228Y-65221703D01*
G37*
G36*
X137408228Y-65221703D02*
G01*
X137563100Y-65285853D01*
X137702481Y-65378985D01*
X137821015Y-65497519D01*
X137914147Y-65636900D01*
X137978297Y-65791772D01*
X138011000Y-65956184D01*
X138011000Y-66123816D01*
X137978297Y-66288228D01*
X137914147Y-66443100D01*
X137821015Y-66582481D01*
X137702481Y-66701015D01*
X137563100Y-66794147D01*
X137408228Y-66858297D01*
X137243816Y-66891000D01*
X137076184Y-66891000D01*
X136911772Y-66858297D01*
X136756900Y-66794147D01*
X136617519Y-66701015D01*
X136498985Y-66582481D01*
X136405853Y-66443100D01*
X136341703Y-66288228D01*
X136309000Y-66123816D01*
X136309000Y-65956184D01*
X136341703Y-65791772D01*
X136405853Y-65636900D01*
X136498985Y-65497519D01*
X136617519Y-65378985D01*
X136756900Y-65285853D01*
X136911772Y-65221703D01*
X137076184Y-65189000D01*
X137243816Y-65189000D01*
X137408228Y-65221703D01*
G37*
G36*
X160268228Y-65221703D02*
G01*
X160423100Y-65285853D01*
X160562481Y-65378985D01*
X160681015Y-65497519D01*
X160774147Y-65636900D01*
X160838297Y-65791772D01*
X160871000Y-65956184D01*
X160871000Y-66123816D01*
X160838297Y-66288228D01*
X160774147Y-66443100D01*
X160681015Y-66582481D01*
X160562481Y-66701015D01*
X160423100Y-66794147D01*
X160268228Y-66858297D01*
X160103816Y-66891000D01*
X159936184Y-66891000D01*
X159771772Y-66858297D01*
X159616900Y-66794147D01*
X159477519Y-66701015D01*
X159358985Y-66582481D01*
X159265853Y-66443100D01*
X159201703Y-66288228D01*
X159169000Y-66123816D01*
X159169000Y-65956184D01*
X159201703Y-65791772D01*
X159265853Y-65636900D01*
X159358985Y-65497519D01*
X159477519Y-65378985D01*
X159616900Y-65285853D01*
X159771772Y-65221703D01*
X159936184Y-65189000D01*
X160103816Y-65189000D01*
X160268228Y-65221703D01*
G37*
G36*
X175508228Y-65221703D02*
G01*
X175663100Y-65285853D01*
X175802481Y-65378985D01*
X175921015Y-65497519D01*
X176014147Y-65636900D01*
X176078297Y-65791772D01*
X176111000Y-65956184D01*
X176111000Y-66123816D01*
X176078297Y-66288228D01*
X176014147Y-66443100D01*
X175921015Y-66582481D01*
X175802481Y-66701015D01*
X175663100Y-66794147D01*
X175508228Y-66858297D01*
X175343816Y-66891000D01*
X175176184Y-66891000D01*
X175011772Y-66858297D01*
X174856900Y-66794147D01*
X174717519Y-66701015D01*
X174598985Y-66582481D01*
X174505853Y-66443100D01*
X174441703Y-66288228D01*
X174409000Y-66123816D01*
X174409000Y-65956184D01*
X174441703Y-65791772D01*
X174505853Y-65636900D01*
X174598985Y-65497519D01*
X174717519Y-65378985D01*
X174856900Y-65285853D01*
X175011772Y-65221703D01*
X175176184Y-65189000D01*
X175343816Y-65189000D01*
X175508228Y-65221703D01*
G37*
G36*
X186803512Y-63873927D02*
G01*
X186952812Y-63903624D01*
X187116784Y-63971544D01*
X187264354Y-64070147D01*
X187389853Y-64195646D01*
X187488456Y-64343216D01*
X187556376Y-64507188D01*
X187591000Y-64681259D01*
X187591000Y-64858741D01*
X187556376Y-65032812D01*
X187488456Y-65196784D01*
X187389853Y-65344354D01*
X187264354Y-65469853D01*
X187116784Y-65568456D01*
X186952812Y-65636376D01*
X186803512Y-65666073D01*
X186778742Y-65671000D01*
X186601258Y-65671000D01*
X186576488Y-65666073D01*
X186427188Y-65636376D01*
X186263216Y-65568456D01*
X186115646Y-65469853D01*
X185990147Y-65344354D01*
X185891544Y-65196784D01*
X185823624Y-65032812D01*
X185789000Y-64858741D01*
X185789000Y-64681259D01*
X185823624Y-64507188D01*
X185891544Y-64343216D01*
X185990147Y-64195646D01*
X186115646Y-64070147D01*
X186263216Y-63971544D01*
X186427188Y-63903624D01*
X186576488Y-63873927D01*
X186601258Y-63869000D01*
X186778742Y-63869000D01*
X186803512Y-63873927D01*
G37*
G36*
X189343512Y-63873927D02*
G01*
X189492812Y-63903624D01*
X189656784Y-63971544D01*
X189804354Y-64070147D01*
X189929853Y-64195646D01*
X190028456Y-64343216D01*
X190096376Y-64507188D01*
X190131000Y-64681259D01*
X190131000Y-64858741D01*
X190096376Y-65032812D01*
X190028456Y-65196784D01*
X189929853Y-65344354D01*
X189804354Y-65469853D01*
X189656784Y-65568456D01*
X189492812Y-65636376D01*
X189343512Y-65666073D01*
X189318742Y-65671000D01*
X189141258Y-65671000D01*
X189116488Y-65666073D01*
X188967188Y-65636376D01*
X188803216Y-65568456D01*
X188655646Y-65469853D01*
X188530147Y-65344354D01*
X188431544Y-65196784D01*
X188363624Y-65032812D01*
X188329000Y-64858741D01*
X188329000Y-64681259D01*
X188363624Y-64507188D01*
X188431544Y-64343216D01*
X188530147Y-64195646D01*
X188655646Y-64070147D01*
X188803216Y-63971544D01*
X188967188Y-63903624D01*
X189116488Y-63873927D01*
X189141258Y-63869000D01*
X189318742Y-63869000D01*
X189343512Y-63873927D01*
G37*
G36*
X119493512Y-63873927D02*
G01*
X119642812Y-63903624D01*
X119806784Y-63971544D01*
X119954354Y-64070147D01*
X120079853Y-64195646D01*
X120178456Y-64343216D01*
X120246376Y-64507188D01*
X120281000Y-64681259D01*
X120281000Y-64858741D01*
X120246376Y-65032812D01*
X120178456Y-65196784D01*
X120079853Y-65344354D01*
X119954354Y-65469853D01*
X119806784Y-65568456D01*
X119642812Y-65636376D01*
X119493512Y-65666073D01*
X119468742Y-65671000D01*
X119291258Y-65671000D01*
X119266488Y-65666073D01*
X119117188Y-65636376D01*
X118953216Y-65568456D01*
X118805646Y-65469853D01*
X118680147Y-65344354D01*
X118581544Y-65196784D01*
X118513624Y-65032812D01*
X118479000Y-64858741D01*
X118479000Y-64681259D01*
X118513624Y-64507188D01*
X118581544Y-64343216D01*
X118680147Y-64195646D01*
X118805646Y-64070147D01*
X118953216Y-63971544D01*
X119117188Y-63903624D01*
X119266488Y-63873927D01*
X119291258Y-63869000D01*
X119468742Y-63869000D01*
X119493512Y-63873927D01*
G37*
G36*
X125361000Y-65671000D02*
G01*
X123559000Y-65671000D01*
X123559000Y-63869000D01*
X125361000Y-63869000D01*
X125361000Y-65671000D01*
G37*
G36*
X192671000Y-65671000D02*
G01*
X190869000Y-65671000D01*
X190869000Y-63869000D01*
X192671000Y-63869000D01*
X192671000Y-65671000D01*
G37*
G36*
X122033512Y-63873927D02*
G01*
X122182812Y-63903624D01*
X122346784Y-63971544D01*
X122494354Y-64070147D01*
X122619853Y-64195646D01*
X122718456Y-64343216D01*
X122786376Y-64507188D01*
X122821000Y-64681259D01*
X122821000Y-64858741D01*
X122786376Y-65032812D01*
X122718456Y-65196784D01*
X122619853Y-65344354D01*
X122494354Y-65469853D01*
X122346784Y-65568456D01*
X122182812Y-65636376D01*
X122033512Y-65666073D01*
X122008742Y-65671000D01*
X121831258Y-65671000D01*
X121806488Y-65666073D01*
X121657188Y-65636376D01*
X121493216Y-65568456D01*
X121345646Y-65469853D01*
X121220147Y-65344354D01*
X121121544Y-65196784D01*
X121053624Y-65032812D01*
X121019000Y-64858741D01*
X121019000Y-64681259D01*
X121053624Y-64507188D01*
X121121544Y-64343216D01*
X121220147Y-64195646D01*
X121345646Y-64070147D01*
X121493216Y-63971544D01*
X121657188Y-63903624D01*
X121806488Y-63873927D01*
X121831258Y-63869000D01*
X122008742Y-63869000D01*
X122033512Y-63873927D01*
G37*
G36*
X152648228Y-62681703D02*
G01*
X152803100Y-62745853D01*
X152942481Y-62838985D01*
X153061015Y-62957519D01*
X153154147Y-63096900D01*
X153218297Y-63251772D01*
X153251000Y-63416184D01*
X153251000Y-63583816D01*
X153218297Y-63748228D01*
X153154147Y-63903100D01*
X153061015Y-64042481D01*
X152942481Y-64161015D01*
X152803100Y-64254147D01*
X152648228Y-64318297D01*
X152483816Y-64351000D01*
X152316184Y-64351000D01*
X152151772Y-64318297D01*
X151996900Y-64254147D01*
X151857519Y-64161015D01*
X151738985Y-64042481D01*
X151645853Y-63903100D01*
X151581703Y-63748228D01*
X151549000Y-63583816D01*
X151549000Y-63416184D01*
X151581703Y-63251772D01*
X151645853Y-63096900D01*
X151738985Y-62957519D01*
X151857519Y-62838985D01*
X151996900Y-62745853D01*
X152151772Y-62681703D01*
X152316184Y-62649000D01*
X152483816Y-62649000D01*
X152648228Y-62681703D01*
G37*
G36*
X137408228Y-62681703D02*
G01*
X137563100Y-62745853D01*
X137702481Y-62838985D01*
X137821015Y-62957519D01*
X137914147Y-63096900D01*
X137978297Y-63251772D01*
X138011000Y-63416184D01*
X138011000Y-63583816D01*
X137978297Y-63748228D01*
X137914147Y-63903100D01*
X137821015Y-64042481D01*
X137702481Y-64161015D01*
X137563100Y-64254147D01*
X137408228Y-64318297D01*
X137243816Y-64351000D01*
X137076184Y-64351000D01*
X136911772Y-64318297D01*
X136756900Y-64254147D01*
X136617519Y-64161015D01*
X136498985Y-64042481D01*
X136405853Y-63903100D01*
X136341703Y-63748228D01*
X136309000Y-63583816D01*
X136309000Y-63416184D01*
X136341703Y-63251772D01*
X136405853Y-63096900D01*
X136498985Y-62957519D01*
X136617519Y-62838985D01*
X136756900Y-62745853D01*
X136911772Y-62681703D01*
X137076184Y-62649000D01*
X137243816Y-62649000D01*
X137408228Y-62681703D01*
G37*
G36*
X160268228Y-62681703D02*
G01*
X160423100Y-62745853D01*
X160562481Y-62838985D01*
X160681015Y-62957519D01*
X160774147Y-63096900D01*
X160838297Y-63251772D01*
X160871000Y-63416184D01*
X160871000Y-63583816D01*
X160838297Y-63748228D01*
X160774147Y-63903100D01*
X160681015Y-64042481D01*
X160562481Y-64161015D01*
X160423100Y-64254147D01*
X160268228Y-64318297D01*
X160103816Y-64351000D01*
X159936184Y-64351000D01*
X159771772Y-64318297D01*
X159616900Y-64254147D01*
X159477519Y-64161015D01*
X159358985Y-64042481D01*
X159265853Y-63903100D01*
X159201703Y-63748228D01*
X159169000Y-63583816D01*
X159169000Y-63416184D01*
X159201703Y-63251772D01*
X159265853Y-63096900D01*
X159358985Y-62957519D01*
X159477519Y-62838985D01*
X159616900Y-62745853D01*
X159771772Y-62681703D01*
X159936184Y-62649000D01*
X160103816Y-62649000D01*
X160268228Y-62681703D01*
G37*
G36*
X175508228Y-62681703D02*
G01*
X175663100Y-62745853D01*
X175802481Y-62838985D01*
X175921015Y-62957519D01*
X176014147Y-63096900D01*
X176078297Y-63251772D01*
X176111000Y-63416184D01*
X176111000Y-63583816D01*
X176078297Y-63748228D01*
X176014147Y-63903100D01*
X175921015Y-64042481D01*
X175802481Y-64161015D01*
X175663100Y-64254147D01*
X175508228Y-64318297D01*
X175343816Y-64351000D01*
X175176184Y-64351000D01*
X175011772Y-64318297D01*
X174856900Y-64254147D01*
X174717519Y-64161015D01*
X174598985Y-64042481D01*
X174505853Y-63903100D01*
X174441703Y-63748228D01*
X174409000Y-63583816D01*
X174409000Y-63416184D01*
X174441703Y-63251772D01*
X174505853Y-63096900D01*
X174598985Y-62957519D01*
X174717519Y-62838985D01*
X174856900Y-62745853D01*
X175011772Y-62681703D01*
X175176184Y-62649000D01*
X175343816Y-62649000D01*
X175508228Y-62681703D01*
G37*
G36*
X137408228Y-60141703D02*
G01*
X137563100Y-60205853D01*
X137702481Y-60298985D01*
X137821015Y-60417519D01*
X137914147Y-60556900D01*
X137978297Y-60711772D01*
X138011000Y-60876184D01*
X138011000Y-61043816D01*
X137978297Y-61208228D01*
X137914147Y-61363100D01*
X137821015Y-61502481D01*
X137702481Y-61621015D01*
X137563100Y-61714147D01*
X137408228Y-61778297D01*
X137243816Y-61811000D01*
X137076184Y-61811000D01*
X136911772Y-61778297D01*
X136756900Y-61714147D01*
X136617519Y-61621015D01*
X136498985Y-61502481D01*
X136405853Y-61363100D01*
X136341703Y-61208228D01*
X136309000Y-61043816D01*
X136309000Y-60876184D01*
X136341703Y-60711772D01*
X136405853Y-60556900D01*
X136498985Y-60417519D01*
X136617519Y-60298985D01*
X136756900Y-60205853D01*
X136911772Y-60141703D01*
X137076184Y-60109000D01*
X137243816Y-60109000D01*
X137408228Y-60141703D01*
G37*
G36*
X152648228Y-60141703D02*
G01*
X152803100Y-60205853D01*
X152942481Y-60298985D01*
X153061015Y-60417519D01*
X153154147Y-60556900D01*
X153218297Y-60711772D01*
X153251000Y-60876184D01*
X153251000Y-61043816D01*
X153218297Y-61208228D01*
X153154147Y-61363100D01*
X153061015Y-61502481D01*
X152942481Y-61621015D01*
X152803100Y-61714147D01*
X152648228Y-61778297D01*
X152483816Y-61811000D01*
X152316184Y-61811000D01*
X152151772Y-61778297D01*
X151996900Y-61714147D01*
X151857519Y-61621015D01*
X151738985Y-61502481D01*
X151645853Y-61363100D01*
X151581703Y-61208228D01*
X151549000Y-61043816D01*
X151549000Y-60876184D01*
X151581703Y-60711772D01*
X151645853Y-60556900D01*
X151738985Y-60417519D01*
X151857519Y-60298985D01*
X151996900Y-60205853D01*
X152151772Y-60141703D01*
X152316184Y-60109000D01*
X152483816Y-60109000D01*
X152648228Y-60141703D01*
G37*
G36*
X160268228Y-60141703D02*
G01*
X160423100Y-60205853D01*
X160562481Y-60298985D01*
X160681015Y-60417519D01*
X160774147Y-60556900D01*
X160838297Y-60711772D01*
X160871000Y-60876184D01*
X160871000Y-61043816D01*
X160838297Y-61208228D01*
X160774147Y-61363100D01*
X160681015Y-61502481D01*
X160562481Y-61621015D01*
X160423100Y-61714147D01*
X160268228Y-61778297D01*
X160103816Y-61811000D01*
X159936184Y-61811000D01*
X159771772Y-61778297D01*
X159616900Y-61714147D01*
X159477519Y-61621015D01*
X159358985Y-61502481D01*
X159265853Y-61363100D01*
X159201703Y-61208228D01*
X159169000Y-61043816D01*
X159169000Y-60876184D01*
X159201703Y-60711772D01*
X159265853Y-60556900D01*
X159358985Y-60417519D01*
X159477519Y-60298985D01*
X159616900Y-60205853D01*
X159771772Y-60141703D01*
X159936184Y-60109000D01*
X160103816Y-60109000D01*
X160268228Y-60141703D01*
G37*
G36*
X175508228Y-60141703D02*
G01*
X175663100Y-60205853D01*
X175802481Y-60298985D01*
X175921015Y-60417519D01*
X176014147Y-60556900D01*
X176078297Y-60711772D01*
X176111000Y-60876184D01*
X176111000Y-61043816D01*
X176078297Y-61208228D01*
X176014147Y-61363100D01*
X175921015Y-61502481D01*
X175802481Y-61621015D01*
X175663100Y-61714147D01*
X175508228Y-61778297D01*
X175343816Y-61811000D01*
X175176184Y-61811000D01*
X175011772Y-61778297D01*
X174856900Y-61714147D01*
X174717519Y-61621015D01*
X174598985Y-61502481D01*
X174505853Y-61363100D01*
X174441703Y-61208228D01*
X174409000Y-61043816D01*
X174409000Y-60876184D01*
X174441703Y-60711772D01*
X174505853Y-60556900D01*
X174598985Y-60417519D01*
X174717519Y-60298985D01*
X174856900Y-60205853D01*
X175011772Y-60141703D01*
X175176184Y-60109000D01*
X175343816Y-60109000D01*
X175508228Y-60141703D01*
G37*
G36*
X152648228Y-57601703D02*
G01*
X152803100Y-57665853D01*
X152942481Y-57758985D01*
X153061015Y-57877519D01*
X153154147Y-58016900D01*
X153218297Y-58171772D01*
X153251000Y-58336184D01*
X153251000Y-58503816D01*
X153218297Y-58668228D01*
X153154147Y-58823100D01*
X153061015Y-58962481D01*
X152942481Y-59081015D01*
X152803100Y-59174147D01*
X152648228Y-59238297D01*
X152483816Y-59271000D01*
X152316184Y-59271000D01*
X152151772Y-59238297D01*
X151996900Y-59174147D01*
X151857519Y-59081015D01*
X151738985Y-58962481D01*
X151645853Y-58823100D01*
X151581703Y-58668228D01*
X151549000Y-58503816D01*
X151549000Y-58336184D01*
X151581703Y-58171772D01*
X151645853Y-58016900D01*
X151738985Y-57877519D01*
X151857519Y-57758985D01*
X151996900Y-57665853D01*
X152151772Y-57601703D01*
X152316184Y-57569000D01*
X152483816Y-57569000D01*
X152648228Y-57601703D01*
G37*
G36*
X160268228Y-57601703D02*
G01*
X160423100Y-57665853D01*
X160562481Y-57758985D01*
X160681015Y-57877519D01*
X160774147Y-58016900D01*
X160838297Y-58171772D01*
X160871000Y-58336184D01*
X160871000Y-58503816D01*
X160838297Y-58668228D01*
X160774147Y-58823100D01*
X160681015Y-58962481D01*
X160562481Y-59081015D01*
X160423100Y-59174147D01*
X160268228Y-59238297D01*
X160103816Y-59271000D01*
X159936184Y-59271000D01*
X159771772Y-59238297D01*
X159616900Y-59174147D01*
X159477519Y-59081015D01*
X159358985Y-58962481D01*
X159265853Y-58823100D01*
X159201703Y-58668228D01*
X159169000Y-58503816D01*
X159169000Y-58336184D01*
X159201703Y-58171772D01*
X159265853Y-58016900D01*
X159358985Y-57877519D01*
X159477519Y-57758985D01*
X159616900Y-57665853D01*
X159771772Y-57601703D01*
X159936184Y-57569000D01*
X160103816Y-57569000D01*
X160268228Y-57601703D01*
G37*
G36*
X175508228Y-57601703D02*
G01*
X175663100Y-57665853D01*
X175802481Y-57758985D01*
X175921015Y-57877519D01*
X176014147Y-58016900D01*
X176078297Y-58171772D01*
X176111000Y-58336184D01*
X176111000Y-58503816D01*
X176078297Y-58668228D01*
X176014147Y-58823100D01*
X175921015Y-58962481D01*
X175802481Y-59081015D01*
X175663100Y-59174147D01*
X175508228Y-59238297D01*
X175343816Y-59271000D01*
X175176184Y-59271000D01*
X175011772Y-59238297D01*
X174856900Y-59174147D01*
X174717519Y-59081015D01*
X174598985Y-58962481D01*
X174505853Y-58823100D01*
X174441703Y-58668228D01*
X174409000Y-58503816D01*
X174409000Y-58336184D01*
X174441703Y-58171772D01*
X174505853Y-58016900D01*
X174598985Y-57877519D01*
X174717519Y-57758985D01*
X174856900Y-57665853D01*
X175011772Y-57601703D01*
X175176184Y-57569000D01*
X175343816Y-57569000D01*
X175508228Y-57601703D01*
G37*
G36*
X137408228Y-57601703D02*
G01*
X137563100Y-57665853D01*
X137702481Y-57758985D01*
X137821015Y-57877519D01*
X137914147Y-58016900D01*
X137978297Y-58171772D01*
X138011000Y-58336184D01*
X138011000Y-58503816D01*
X137978297Y-58668228D01*
X137914147Y-58823100D01*
X137821015Y-58962481D01*
X137702481Y-59081015D01*
X137563100Y-59174147D01*
X137408228Y-59238297D01*
X137243816Y-59271000D01*
X137076184Y-59271000D01*
X136911772Y-59238297D01*
X136756900Y-59174147D01*
X136617519Y-59081015D01*
X136498985Y-58962481D01*
X136405853Y-58823100D01*
X136341703Y-58668228D01*
X136309000Y-58503816D01*
X136309000Y-58336184D01*
X136341703Y-58171772D01*
X136405853Y-58016900D01*
X136498985Y-57877519D01*
X136617519Y-57758985D01*
X136756900Y-57665853D01*
X136911772Y-57601703D01*
X137076184Y-57569000D01*
X137243816Y-57569000D01*
X137408228Y-57601703D01*
G37*
G36*
X137408228Y-55061703D02*
G01*
X137563100Y-55125853D01*
X137702481Y-55218985D01*
X137821015Y-55337519D01*
X137914147Y-55476900D01*
X137978297Y-55631772D01*
X138011000Y-55796184D01*
X138011000Y-55963816D01*
X137978297Y-56128228D01*
X137914147Y-56283100D01*
X137821015Y-56422481D01*
X137702481Y-56541015D01*
X137563100Y-56634147D01*
X137408228Y-56698297D01*
X137243816Y-56731000D01*
X137076184Y-56731000D01*
X136911772Y-56698297D01*
X136756900Y-56634147D01*
X136617519Y-56541015D01*
X136498985Y-56422481D01*
X136405853Y-56283100D01*
X136341703Y-56128228D01*
X136309000Y-55963816D01*
X136309000Y-55796184D01*
X136341703Y-55631772D01*
X136405853Y-55476900D01*
X136498985Y-55337519D01*
X136617519Y-55218985D01*
X136756900Y-55125853D01*
X136911772Y-55061703D01*
X137076184Y-55029000D01*
X137243816Y-55029000D01*
X137408228Y-55061703D01*
G37*
G36*
X175508228Y-55061703D02*
G01*
X175663100Y-55125853D01*
X175802481Y-55218985D01*
X175921015Y-55337519D01*
X176014147Y-55476900D01*
X176078297Y-55631772D01*
X176111000Y-55796184D01*
X176111000Y-55963816D01*
X176078297Y-56128228D01*
X176014147Y-56283100D01*
X175921015Y-56422481D01*
X175802481Y-56541015D01*
X175663100Y-56634147D01*
X175508228Y-56698297D01*
X175343816Y-56731000D01*
X175176184Y-56731000D01*
X175011772Y-56698297D01*
X174856900Y-56634147D01*
X174717519Y-56541015D01*
X174598985Y-56422481D01*
X174505853Y-56283100D01*
X174441703Y-56128228D01*
X174409000Y-55963816D01*
X174409000Y-55796184D01*
X174441703Y-55631772D01*
X174505853Y-55476900D01*
X174598985Y-55337519D01*
X174717519Y-55218985D01*
X174856900Y-55125853D01*
X175011772Y-55061703D01*
X175176184Y-55029000D01*
X175343816Y-55029000D01*
X175508228Y-55061703D01*
G37*
G36*
X160268228Y-55061703D02*
G01*
X160423100Y-55125853D01*
X160562481Y-55218985D01*
X160681015Y-55337519D01*
X160774147Y-55476900D01*
X160838297Y-55631772D01*
X160871000Y-55796184D01*
X160871000Y-55963816D01*
X160838297Y-56128228D01*
X160774147Y-56283100D01*
X160681015Y-56422481D01*
X160562481Y-56541015D01*
X160423100Y-56634147D01*
X160268228Y-56698297D01*
X160103816Y-56731000D01*
X159936184Y-56731000D01*
X159771772Y-56698297D01*
X159616900Y-56634147D01*
X159477519Y-56541015D01*
X159358985Y-56422481D01*
X159265853Y-56283100D01*
X159201703Y-56128228D01*
X159169000Y-55963816D01*
X159169000Y-55796184D01*
X159201703Y-55631772D01*
X159265853Y-55476900D01*
X159358985Y-55337519D01*
X159477519Y-55218985D01*
X159616900Y-55125853D01*
X159771772Y-55061703D01*
X159936184Y-55029000D01*
X160103816Y-55029000D01*
X160268228Y-55061703D01*
G37*
G36*
X152648228Y-55061703D02*
G01*
X152803100Y-55125853D01*
X152942481Y-55218985D01*
X153061015Y-55337519D01*
X153154147Y-55476900D01*
X153218297Y-55631772D01*
X153251000Y-55796184D01*
X153251000Y-55963816D01*
X153218297Y-56128228D01*
X153154147Y-56283100D01*
X153061015Y-56422481D01*
X152942481Y-56541015D01*
X152803100Y-56634147D01*
X152648228Y-56698297D01*
X152483816Y-56731000D01*
X152316184Y-56731000D01*
X152151772Y-56698297D01*
X151996900Y-56634147D01*
X151857519Y-56541015D01*
X151738985Y-56422481D01*
X151645853Y-56283100D01*
X151581703Y-56128228D01*
X151549000Y-55963816D01*
X151549000Y-55796184D01*
X151581703Y-55631772D01*
X151645853Y-55476900D01*
X151738985Y-55337519D01*
X151857519Y-55218985D01*
X151996900Y-55125853D01*
X152151772Y-55061703D01*
X152316184Y-55029000D01*
X152483816Y-55029000D01*
X152648228Y-55061703D01*
G37*
G36*
X175508228Y-52521703D02*
G01*
X175663100Y-52585853D01*
X175802481Y-52678985D01*
X175921015Y-52797519D01*
X176014147Y-52936900D01*
X176078297Y-53091772D01*
X176111000Y-53256184D01*
X176111000Y-53423816D01*
X176078297Y-53588228D01*
X176014147Y-53743100D01*
X175921015Y-53882481D01*
X175802481Y-54001015D01*
X175663100Y-54094147D01*
X175508228Y-54158297D01*
X175343816Y-54191000D01*
X175176184Y-54191000D01*
X175011772Y-54158297D01*
X174856900Y-54094147D01*
X174717519Y-54001015D01*
X174598985Y-53882481D01*
X174505853Y-53743100D01*
X174441703Y-53588228D01*
X174409000Y-53423816D01*
X174409000Y-53256184D01*
X174441703Y-53091772D01*
X174505853Y-52936900D01*
X174598985Y-52797519D01*
X174717519Y-52678985D01*
X174856900Y-52585853D01*
X175011772Y-52521703D01*
X175176184Y-52489000D01*
X175343816Y-52489000D01*
X175508228Y-52521703D01*
G37*
G36*
X160268228Y-52521703D02*
G01*
X160423100Y-52585853D01*
X160562481Y-52678985D01*
X160681015Y-52797519D01*
X160774147Y-52936900D01*
X160838297Y-53091772D01*
X160871000Y-53256184D01*
X160871000Y-53423816D01*
X160838297Y-53588228D01*
X160774147Y-53743100D01*
X160681015Y-53882481D01*
X160562481Y-54001015D01*
X160423100Y-54094147D01*
X160268228Y-54158297D01*
X160103816Y-54191000D01*
X159936184Y-54191000D01*
X159771772Y-54158297D01*
X159616900Y-54094147D01*
X159477519Y-54001015D01*
X159358985Y-53882481D01*
X159265853Y-53743100D01*
X159201703Y-53588228D01*
X159169000Y-53423816D01*
X159169000Y-53256184D01*
X159201703Y-53091772D01*
X159265853Y-52936900D01*
X159358985Y-52797519D01*
X159477519Y-52678985D01*
X159616900Y-52585853D01*
X159771772Y-52521703D01*
X159936184Y-52489000D01*
X160103816Y-52489000D01*
X160268228Y-52521703D01*
G37*
G36*
X137408228Y-52521703D02*
G01*
X137563100Y-52585853D01*
X137702481Y-52678985D01*
X137821015Y-52797519D01*
X137914147Y-52936900D01*
X137978297Y-53091772D01*
X138011000Y-53256184D01*
X138011000Y-53423816D01*
X137978297Y-53588228D01*
X137914147Y-53743100D01*
X137821015Y-53882481D01*
X137702481Y-54001015D01*
X137563100Y-54094147D01*
X137408228Y-54158297D01*
X137243816Y-54191000D01*
X137076184Y-54191000D01*
X136911772Y-54158297D01*
X136756900Y-54094147D01*
X136617519Y-54001015D01*
X136498985Y-53882481D01*
X136405853Y-53743100D01*
X136341703Y-53588228D01*
X136309000Y-53423816D01*
X136309000Y-53256184D01*
X136341703Y-53091772D01*
X136405853Y-52936900D01*
X136498985Y-52797519D01*
X136617519Y-52678985D01*
X136756900Y-52585853D01*
X136911772Y-52521703D01*
X137076184Y-52489000D01*
X137243816Y-52489000D01*
X137408228Y-52521703D01*
G37*
G36*
X152648228Y-52521703D02*
G01*
X152803100Y-52585853D01*
X152942481Y-52678985D01*
X153061015Y-52797519D01*
X153154147Y-52936900D01*
X153218297Y-53091772D01*
X153251000Y-53256184D01*
X153251000Y-53423816D01*
X153218297Y-53588228D01*
X153154147Y-53743100D01*
X153061015Y-53882481D01*
X152942481Y-54001015D01*
X152803100Y-54094147D01*
X152648228Y-54158297D01*
X152483816Y-54191000D01*
X152316184Y-54191000D01*
X152151772Y-54158297D01*
X151996900Y-54094147D01*
X151857519Y-54001015D01*
X151738985Y-53882481D01*
X151645853Y-53743100D01*
X151581703Y-53588228D01*
X151549000Y-53423816D01*
X151549000Y-53256184D01*
X151581703Y-53091772D01*
X151645853Y-52936900D01*
X151738985Y-52797519D01*
X151857519Y-52678985D01*
X151996900Y-52585853D01*
X152151772Y-52521703D01*
X152316184Y-52489000D01*
X152483816Y-52489000D01*
X152648228Y-52521703D01*
G37*
G36*
X125361000Y-52971000D02*
G01*
X123559000Y-52971000D01*
X123559000Y-51169000D01*
X125361000Y-51169000D01*
X125361000Y-52971000D01*
G37*
G36*
X186803512Y-51173927D02*
G01*
X186952812Y-51203624D01*
X187116784Y-51271544D01*
X187264354Y-51370147D01*
X187389853Y-51495646D01*
X187488456Y-51643216D01*
X187556376Y-51807188D01*
X187591000Y-51981259D01*
X187591000Y-52158741D01*
X187556376Y-52332812D01*
X187488456Y-52496784D01*
X187389853Y-52644354D01*
X187264354Y-52769853D01*
X187116784Y-52868456D01*
X186952812Y-52936376D01*
X186803512Y-52966073D01*
X186778742Y-52971000D01*
X186601258Y-52971000D01*
X186576488Y-52966073D01*
X186427188Y-52936376D01*
X186263216Y-52868456D01*
X186115646Y-52769853D01*
X185990147Y-52644354D01*
X185891544Y-52496784D01*
X185823624Y-52332812D01*
X185789000Y-52158741D01*
X185789000Y-51981259D01*
X185823624Y-51807188D01*
X185891544Y-51643216D01*
X185990147Y-51495646D01*
X186115646Y-51370147D01*
X186263216Y-51271544D01*
X186427188Y-51203624D01*
X186576488Y-51173927D01*
X186601258Y-51169000D01*
X186778742Y-51169000D01*
X186803512Y-51173927D01*
G37*
G36*
X119493512Y-51173927D02*
G01*
X119642812Y-51203624D01*
X119806784Y-51271544D01*
X119954354Y-51370147D01*
X120079853Y-51495646D01*
X120178456Y-51643216D01*
X120246376Y-51807188D01*
X120281000Y-51981259D01*
X120281000Y-52158741D01*
X120246376Y-52332812D01*
X120178456Y-52496784D01*
X120079853Y-52644354D01*
X119954354Y-52769853D01*
X119806784Y-52868456D01*
X119642812Y-52936376D01*
X119493512Y-52966073D01*
X119468742Y-52971000D01*
X119291258Y-52971000D01*
X119266488Y-52966073D01*
X119117188Y-52936376D01*
X118953216Y-52868456D01*
X118805646Y-52769853D01*
X118680147Y-52644354D01*
X118581544Y-52496784D01*
X118513624Y-52332812D01*
X118479000Y-52158741D01*
X118479000Y-51981259D01*
X118513624Y-51807188D01*
X118581544Y-51643216D01*
X118680147Y-51495646D01*
X118805646Y-51370147D01*
X118953216Y-51271544D01*
X119117188Y-51203624D01*
X119266488Y-51173927D01*
X119291258Y-51169000D01*
X119468742Y-51169000D01*
X119493512Y-51173927D01*
G37*
G36*
X122033512Y-51173927D02*
G01*
X122182812Y-51203624D01*
X122346784Y-51271544D01*
X122494354Y-51370147D01*
X122619853Y-51495646D01*
X122718456Y-51643216D01*
X122786376Y-51807188D01*
X122821000Y-51981259D01*
X122821000Y-52158741D01*
X122786376Y-52332812D01*
X122718456Y-52496784D01*
X122619853Y-52644354D01*
X122494354Y-52769853D01*
X122346784Y-52868456D01*
X122182812Y-52936376D01*
X122033512Y-52966073D01*
X122008742Y-52971000D01*
X121831258Y-52971000D01*
X121806488Y-52966073D01*
X121657188Y-52936376D01*
X121493216Y-52868456D01*
X121345646Y-52769853D01*
X121220147Y-52644354D01*
X121121544Y-52496784D01*
X121053624Y-52332812D01*
X121019000Y-52158741D01*
X121019000Y-51981259D01*
X121053624Y-51807188D01*
X121121544Y-51643216D01*
X121220147Y-51495646D01*
X121345646Y-51370147D01*
X121493216Y-51271544D01*
X121657188Y-51203624D01*
X121806488Y-51173927D01*
X121831258Y-51169000D01*
X122008742Y-51169000D01*
X122033512Y-51173927D01*
G37*
G36*
X192671000Y-52971000D02*
G01*
X190869000Y-52971000D01*
X190869000Y-51169000D01*
X192671000Y-51169000D01*
X192671000Y-52971000D01*
G37*
G36*
X189343512Y-51173927D02*
G01*
X189492812Y-51203624D01*
X189656784Y-51271544D01*
X189804354Y-51370147D01*
X189929853Y-51495646D01*
X190028456Y-51643216D01*
X190096376Y-51807188D01*
X190131000Y-51981259D01*
X190131000Y-52158741D01*
X190096376Y-52332812D01*
X190028456Y-52496784D01*
X189929853Y-52644354D01*
X189804354Y-52769853D01*
X189656784Y-52868456D01*
X189492812Y-52936376D01*
X189343512Y-52966073D01*
X189318742Y-52971000D01*
X189141258Y-52971000D01*
X189116488Y-52966073D01*
X188967188Y-52936376D01*
X188803216Y-52868456D01*
X188655646Y-52769853D01*
X188530147Y-52644354D01*
X188431544Y-52496784D01*
X188363624Y-52332812D01*
X188329000Y-52158741D01*
X188329000Y-51981259D01*
X188363624Y-51807188D01*
X188431544Y-51643216D01*
X188530147Y-51495646D01*
X188655646Y-51370147D01*
X188803216Y-51271544D01*
X188967188Y-51203624D01*
X189116488Y-51173927D01*
X189141258Y-51169000D01*
X189318742Y-51169000D01*
X189343512Y-51173927D01*
G37*
G36*
X175508228Y-49981703D02*
G01*
X175663100Y-50045853D01*
X175802481Y-50138985D01*
X175921015Y-50257519D01*
X176014147Y-50396900D01*
X176078297Y-50551772D01*
X176111000Y-50716184D01*
X176111000Y-50883816D01*
X176078297Y-51048228D01*
X176014147Y-51203100D01*
X175921015Y-51342481D01*
X175802481Y-51461015D01*
X175663100Y-51554147D01*
X175508228Y-51618297D01*
X175343816Y-51651000D01*
X175176184Y-51651000D01*
X175011772Y-51618297D01*
X174856900Y-51554147D01*
X174717519Y-51461015D01*
X174598985Y-51342481D01*
X174505853Y-51203100D01*
X174441703Y-51048228D01*
X174409000Y-50883816D01*
X174409000Y-50716184D01*
X174441703Y-50551772D01*
X174505853Y-50396900D01*
X174598985Y-50257519D01*
X174717519Y-50138985D01*
X174856900Y-50045853D01*
X175011772Y-49981703D01*
X175176184Y-49949000D01*
X175343816Y-49949000D01*
X175508228Y-49981703D01*
G37*
G36*
X160268228Y-49981703D02*
G01*
X160423100Y-50045853D01*
X160562481Y-50138985D01*
X160681015Y-50257519D01*
X160774147Y-50396900D01*
X160838297Y-50551772D01*
X160871000Y-50716184D01*
X160871000Y-50883816D01*
X160838297Y-51048228D01*
X160774147Y-51203100D01*
X160681015Y-51342481D01*
X160562481Y-51461015D01*
X160423100Y-51554147D01*
X160268228Y-51618297D01*
X160103816Y-51651000D01*
X159936184Y-51651000D01*
X159771772Y-51618297D01*
X159616900Y-51554147D01*
X159477519Y-51461015D01*
X159358985Y-51342481D01*
X159265853Y-51203100D01*
X159201703Y-51048228D01*
X159169000Y-50883816D01*
X159169000Y-50716184D01*
X159201703Y-50551772D01*
X159265853Y-50396900D01*
X159358985Y-50257519D01*
X159477519Y-50138985D01*
X159616900Y-50045853D01*
X159771772Y-49981703D01*
X159936184Y-49949000D01*
X160103816Y-49949000D01*
X160268228Y-49981703D01*
G37*
G36*
X137408228Y-49981703D02*
G01*
X137563100Y-50045853D01*
X137702481Y-50138985D01*
X137821015Y-50257519D01*
X137914147Y-50396900D01*
X137978297Y-50551772D01*
X138011000Y-50716184D01*
X138011000Y-50883816D01*
X137978297Y-51048228D01*
X137914147Y-51203100D01*
X137821015Y-51342481D01*
X137702481Y-51461015D01*
X137563100Y-51554147D01*
X137408228Y-51618297D01*
X137243816Y-51651000D01*
X137076184Y-51651000D01*
X136911772Y-51618297D01*
X136756900Y-51554147D01*
X136617519Y-51461015D01*
X136498985Y-51342481D01*
X136405853Y-51203100D01*
X136341703Y-51048228D01*
X136309000Y-50883816D01*
X136309000Y-50716184D01*
X136341703Y-50551772D01*
X136405853Y-50396900D01*
X136498985Y-50257519D01*
X136617519Y-50138985D01*
X136756900Y-50045853D01*
X136911772Y-49981703D01*
X137076184Y-49949000D01*
X137243816Y-49949000D01*
X137408228Y-49981703D01*
G37*
G36*
X152648228Y-49981703D02*
G01*
X152803100Y-50045853D01*
X152942481Y-50138985D01*
X153061015Y-50257519D01*
X153154147Y-50396900D01*
X153218297Y-50551772D01*
X153251000Y-50716184D01*
X153251000Y-50883816D01*
X153218297Y-51048228D01*
X153154147Y-51203100D01*
X153061015Y-51342481D01*
X152942481Y-51461015D01*
X152803100Y-51554147D01*
X152648228Y-51618297D01*
X152483816Y-51651000D01*
X152316184Y-51651000D01*
X152151772Y-51618297D01*
X151996900Y-51554147D01*
X151857519Y-51461015D01*
X151738985Y-51342481D01*
X151645853Y-51203100D01*
X151581703Y-51048228D01*
X151549000Y-50883816D01*
X151549000Y-50716184D01*
X151581703Y-50551772D01*
X151645853Y-50396900D01*
X151738985Y-50257519D01*
X151857519Y-50138985D01*
X151996900Y-50045853D01*
X152151772Y-49981703D01*
X152316184Y-49949000D01*
X152483816Y-49949000D01*
X152648228Y-49981703D01*
G37*
G36*
X175508228Y-47441703D02*
G01*
X175663100Y-47505853D01*
X175802481Y-47598985D01*
X175921015Y-47717519D01*
X176014147Y-47856900D01*
X176078297Y-48011772D01*
X176111000Y-48176184D01*
X176111000Y-48343816D01*
X176078297Y-48508228D01*
X176014147Y-48663100D01*
X175921015Y-48802481D01*
X175802481Y-48921015D01*
X175663100Y-49014147D01*
X175508228Y-49078297D01*
X175343816Y-49111000D01*
X175176184Y-49111000D01*
X175011772Y-49078297D01*
X174856900Y-49014147D01*
X174717519Y-48921015D01*
X174598985Y-48802481D01*
X174505853Y-48663100D01*
X174441703Y-48508228D01*
X174409000Y-48343816D01*
X174409000Y-48176184D01*
X174441703Y-48011772D01*
X174505853Y-47856900D01*
X174598985Y-47717519D01*
X174717519Y-47598985D01*
X174856900Y-47505853D01*
X175011772Y-47441703D01*
X175176184Y-47409000D01*
X175343816Y-47409000D01*
X175508228Y-47441703D01*
G37*
G36*
X152648228Y-47441703D02*
G01*
X152803100Y-47505853D01*
X152942481Y-47598985D01*
X153061015Y-47717519D01*
X153154147Y-47856900D01*
X153218297Y-48011772D01*
X153251000Y-48176184D01*
X153251000Y-48343816D01*
X153218297Y-48508228D01*
X153154147Y-48663100D01*
X153061015Y-48802481D01*
X152942481Y-48921015D01*
X152803100Y-49014147D01*
X152648228Y-49078297D01*
X152483816Y-49111000D01*
X152316184Y-49111000D01*
X152151772Y-49078297D01*
X151996900Y-49014147D01*
X151857519Y-48921015D01*
X151738985Y-48802481D01*
X151645853Y-48663100D01*
X151581703Y-48508228D01*
X151549000Y-48343816D01*
X151549000Y-48176184D01*
X151581703Y-48011772D01*
X151645853Y-47856900D01*
X151738985Y-47717519D01*
X151857519Y-47598985D01*
X151996900Y-47505853D01*
X152151772Y-47441703D01*
X152316184Y-47409000D01*
X152483816Y-47409000D01*
X152648228Y-47441703D01*
G37*
G36*
X160268228Y-47441703D02*
G01*
X160423100Y-47505853D01*
X160562481Y-47598985D01*
X160681015Y-47717519D01*
X160774147Y-47856900D01*
X160838297Y-48011772D01*
X160871000Y-48176184D01*
X160871000Y-48343816D01*
X160838297Y-48508228D01*
X160774147Y-48663100D01*
X160681015Y-48802481D01*
X160562481Y-48921015D01*
X160423100Y-49014147D01*
X160268228Y-49078297D01*
X160103816Y-49111000D01*
X159936184Y-49111000D01*
X159771772Y-49078297D01*
X159616900Y-49014147D01*
X159477519Y-48921015D01*
X159358985Y-48802481D01*
X159265853Y-48663100D01*
X159201703Y-48508228D01*
X159169000Y-48343816D01*
X159169000Y-48176184D01*
X159201703Y-48011772D01*
X159265853Y-47856900D01*
X159358985Y-47717519D01*
X159477519Y-47598985D01*
X159616900Y-47505853D01*
X159771772Y-47441703D01*
X159936184Y-47409000D01*
X160103816Y-47409000D01*
X160268228Y-47441703D01*
G37*
G36*
X137408228Y-47441703D02*
G01*
X137563100Y-47505853D01*
X137702481Y-47598985D01*
X137821015Y-47717519D01*
X137914147Y-47856900D01*
X137978297Y-48011772D01*
X138011000Y-48176184D01*
X138011000Y-48343816D01*
X137978297Y-48508228D01*
X137914147Y-48663100D01*
X137821015Y-48802481D01*
X137702481Y-48921015D01*
X137563100Y-49014147D01*
X137408228Y-49078297D01*
X137243816Y-49111000D01*
X137076184Y-49111000D01*
X136911772Y-49078297D01*
X136756900Y-49014147D01*
X136617519Y-48921015D01*
X136498985Y-48802481D01*
X136405853Y-48663100D01*
X136341703Y-48508228D01*
X136309000Y-48343816D01*
X136309000Y-48176184D01*
X136341703Y-48011772D01*
X136405853Y-47856900D01*
X136498985Y-47717519D01*
X136617519Y-47598985D01*
X136756900Y-47505853D01*
X136911772Y-47441703D01*
X137076184Y-47409000D01*
X137243816Y-47409000D01*
X137408228Y-47441703D01*
G37*
G36*
X137408228Y-44901703D02*
G01*
X137563100Y-44965853D01*
X137702481Y-45058985D01*
X137821015Y-45177519D01*
X137914147Y-45316900D01*
X137978297Y-45471772D01*
X138011000Y-45636184D01*
X138011000Y-45803816D01*
X137978297Y-45968228D01*
X137914147Y-46123100D01*
X137821015Y-46262481D01*
X137702481Y-46381015D01*
X137563100Y-46474147D01*
X137408228Y-46538297D01*
X137243816Y-46571000D01*
X137076184Y-46571000D01*
X136911772Y-46538297D01*
X136756900Y-46474147D01*
X136617519Y-46381015D01*
X136498985Y-46262481D01*
X136405853Y-46123100D01*
X136341703Y-45968228D01*
X136309000Y-45803816D01*
X136309000Y-45636184D01*
X136341703Y-45471772D01*
X136405853Y-45316900D01*
X136498985Y-45177519D01*
X136617519Y-45058985D01*
X136756900Y-44965853D01*
X136911772Y-44901703D01*
X137076184Y-44869000D01*
X137243816Y-44869000D01*
X137408228Y-44901703D01*
G37*
G36*
X175508228Y-44901703D02*
G01*
X175663100Y-44965853D01*
X175802481Y-45058985D01*
X175921015Y-45177519D01*
X176014147Y-45316900D01*
X176078297Y-45471772D01*
X176111000Y-45636184D01*
X176111000Y-45803816D01*
X176078297Y-45968228D01*
X176014147Y-46123100D01*
X175921015Y-46262481D01*
X175802481Y-46381015D01*
X175663100Y-46474147D01*
X175508228Y-46538297D01*
X175343816Y-46571000D01*
X175176184Y-46571000D01*
X175011772Y-46538297D01*
X174856900Y-46474147D01*
X174717519Y-46381015D01*
X174598985Y-46262481D01*
X174505853Y-46123100D01*
X174441703Y-45968228D01*
X174409000Y-45803816D01*
X174409000Y-45636184D01*
X174441703Y-45471772D01*
X174505853Y-45316900D01*
X174598985Y-45177519D01*
X174717519Y-45058985D01*
X174856900Y-44965853D01*
X175011772Y-44901703D01*
X175176184Y-44869000D01*
X175343816Y-44869000D01*
X175508228Y-44901703D01*
G37*
G36*
X160268228Y-44901703D02*
G01*
X160423100Y-44965853D01*
X160562481Y-45058985D01*
X160681015Y-45177519D01*
X160774147Y-45316900D01*
X160838297Y-45471772D01*
X160871000Y-45636184D01*
X160871000Y-45803816D01*
X160838297Y-45968228D01*
X160774147Y-46123100D01*
X160681015Y-46262481D01*
X160562481Y-46381015D01*
X160423100Y-46474147D01*
X160268228Y-46538297D01*
X160103816Y-46571000D01*
X159936184Y-46571000D01*
X159771772Y-46538297D01*
X159616900Y-46474147D01*
X159477519Y-46381015D01*
X159358985Y-46262481D01*
X159265853Y-46123100D01*
X159201703Y-45968228D01*
X159169000Y-45803816D01*
X159169000Y-45636184D01*
X159201703Y-45471772D01*
X159265853Y-45316900D01*
X159358985Y-45177519D01*
X159477519Y-45058985D01*
X159616900Y-44965853D01*
X159771772Y-44901703D01*
X159936184Y-44869000D01*
X160103816Y-44869000D01*
X160268228Y-44901703D01*
G37*
G36*
X152648228Y-44901703D02*
G01*
X152803100Y-44965853D01*
X152942481Y-45058985D01*
X153061015Y-45177519D01*
X153154147Y-45316900D01*
X153218297Y-45471772D01*
X153251000Y-45636184D01*
X153251000Y-45803816D01*
X153218297Y-45968228D01*
X153154147Y-46123100D01*
X153061015Y-46262481D01*
X152942481Y-46381015D01*
X152803100Y-46474147D01*
X152648228Y-46538297D01*
X152483816Y-46571000D01*
X152316184Y-46571000D01*
X152151772Y-46538297D01*
X151996900Y-46474147D01*
X151857519Y-46381015D01*
X151738985Y-46262481D01*
X151645853Y-46123100D01*
X151581703Y-45968228D01*
X151549000Y-45803816D01*
X151549000Y-45636184D01*
X151581703Y-45471772D01*
X151645853Y-45316900D01*
X151738985Y-45177519D01*
X151857519Y-45058985D01*
X151996900Y-44965853D01*
X152151772Y-44901703D01*
X152316184Y-44869000D01*
X152483816Y-44869000D01*
X152648228Y-44901703D01*
G37*
G36*
X175508228Y-42361703D02*
G01*
X175663100Y-42425853D01*
X175802481Y-42518985D01*
X175921015Y-42637519D01*
X176014147Y-42776900D01*
X176078297Y-42931772D01*
X176111000Y-43096184D01*
X176111000Y-43263816D01*
X176078297Y-43428228D01*
X176014147Y-43583100D01*
X175921015Y-43722481D01*
X175802481Y-43841015D01*
X175663100Y-43934147D01*
X175508228Y-43998297D01*
X175343816Y-44031000D01*
X175176184Y-44031000D01*
X175011772Y-43998297D01*
X174856900Y-43934147D01*
X174717519Y-43841015D01*
X174598985Y-43722481D01*
X174505853Y-43583100D01*
X174441703Y-43428228D01*
X174409000Y-43263816D01*
X174409000Y-43096184D01*
X174441703Y-42931772D01*
X174505853Y-42776900D01*
X174598985Y-42637519D01*
X174717519Y-42518985D01*
X174856900Y-42425853D01*
X175011772Y-42361703D01*
X175176184Y-42329000D01*
X175343816Y-42329000D01*
X175508228Y-42361703D01*
G37*
G36*
X160268228Y-42361703D02*
G01*
X160423100Y-42425853D01*
X160562481Y-42518985D01*
X160681015Y-42637519D01*
X160774147Y-42776900D01*
X160838297Y-42931772D01*
X160871000Y-43096184D01*
X160871000Y-43263816D01*
X160838297Y-43428228D01*
X160774147Y-43583100D01*
X160681015Y-43722481D01*
X160562481Y-43841015D01*
X160423100Y-43934147D01*
X160268228Y-43998297D01*
X160103816Y-44031000D01*
X159936184Y-44031000D01*
X159771772Y-43998297D01*
X159616900Y-43934147D01*
X159477519Y-43841015D01*
X159358985Y-43722481D01*
X159265853Y-43583100D01*
X159201703Y-43428228D01*
X159169000Y-43263816D01*
X159169000Y-43096184D01*
X159201703Y-42931772D01*
X159265853Y-42776900D01*
X159358985Y-42637519D01*
X159477519Y-42518985D01*
X159616900Y-42425853D01*
X159771772Y-42361703D01*
X159936184Y-42329000D01*
X160103816Y-42329000D01*
X160268228Y-42361703D01*
G37*
G36*
X152648228Y-42361703D02*
G01*
X152803100Y-42425853D01*
X152942481Y-42518985D01*
X153061015Y-42637519D01*
X153154147Y-42776900D01*
X153218297Y-42931772D01*
X153251000Y-43096184D01*
X153251000Y-43263816D01*
X153218297Y-43428228D01*
X153154147Y-43583100D01*
X153061015Y-43722481D01*
X152942481Y-43841015D01*
X152803100Y-43934147D01*
X152648228Y-43998297D01*
X152483816Y-44031000D01*
X152316184Y-44031000D01*
X152151772Y-43998297D01*
X151996900Y-43934147D01*
X151857519Y-43841015D01*
X151738985Y-43722481D01*
X151645853Y-43583100D01*
X151581703Y-43428228D01*
X151549000Y-43263816D01*
X151549000Y-43096184D01*
X151581703Y-42931772D01*
X151645853Y-42776900D01*
X151738985Y-42637519D01*
X151857519Y-42518985D01*
X151996900Y-42425853D01*
X152151772Y-42361703D01*
X152316184Y-42329000D01*
X152483816Y-42329000D01*
X152648228Y-42361703D01*
G37*
G36*
X137408228Y-42361703D02*
G01*
X137563100Y-42425853D01*
X137702481Y-42518985D01*
X137821015Y-42637519D01*
X137914147Y-42776900D01*
X137978297Y-42931772D01*
X138011000Y-43096184D01*
X138011000Y-43263816D01*
X137978297Y-43428228D01*
X137914147Y-43583100D01*
X137821015Y-43722481D01*
X137702481Y-43841015D01*
X137563100Y-43934147D01*
X137408228Y-43998297D01*
X137243816Y-44031000D01*
X137076184Y-44031000D01*
X136911772Y-43998297D01*
X136756900Y-43934147D01*
X136617519Y-43841015D01*
X136498985Y-43722481D01*
X136405853Y-43583100D01*
X136341703Y-43428228D01*
X136309000Y-43263816D01*
X136309000Y-43096184D01*
X136341703Y-42931772D01*
X136405853Y-42776900D01*
X136498985Y-42637519D01*
X136617519Y-42518985D01*
X136756900Y-42425853D01*
X136911772Y-42361703D01*
X137076184Y-42329000D01*
X137243816Y-42329000D01*
X137408228Y-42361703D01*
G37*
G36*
X160268228Y-39821703D02*
G01*
X160423100Y-39885853D01*
X160562481Y-39978985D01*
X160681015Y-40097519D01*
X160774147Y-40236900D01*
X160838297Y-40391772D01*
X160871000Y-40556184D01*
X160871000Y-40723816D01*
X160838297Y-40888228D01*
X160774147Y-41043100D01*
X160681015Y-41182481D01*
X160562481Y-41301015D01*
X160423100Y-41394147D01*
X160268228Y-41458297D01*
X160103816Y-41491000D01*
X159936184Y-41491000D01*
X159771772Y-41458297D01*
X159616900Y-41394147D01*
X159477519Y-41301015D01*
X159358985Y-41182481D01*
X159265853Y-41043100D01*
X159201703Y-40888228D01*
X159169000Y-40723816D01*
X159169000Y-40556184D01*
X159201703Y-40391772D01*
X159265853Y-40236900D01*
X159358985Y-40097519D01*
X159477519Y-39978985D01*
X159616900Y-39885853D01*
X159771772Y-39821703D01*
X159936184Y-39789000D01*
X160103816Y-39789000D01*
X160268228Y-39821703D01*
G37*
G36*
X175508228Y-39821703D02*
G01*
X175663100Y-39885853D01*
X175802481Y-39978985D01*
X175921015Y-40097519D01*
X176014147Y-40236900D01*
X176078297Y-40391772D01*
X176111000Y-40556184D01*
X176111000Y-40723816D01*
X176078297Y-40888228D01*
X176014147Y-41043100D01*
X175921015Y-41182481D01*
X175802481Y-41301015D01*
X175663100Y-41394147D01*
X175508228Y-41458297D01*
X175343816Y-41491000D01*
X175176184Y-41491000D01*
X175011772Y-41458297D01*
X174856900Y-41394147D01*
X174717519Y-41301015D01*
X174598985Y-41182481D01*
X174505853Y-41043100D01*
X174441703Y-40888228D01*
X174409000Y-40723816D01*
X174409000Y-40556184D01*
X174441703Y-40391772D01*
X174505853Y-40236900D01*
X174598985Y-40097519D01*
X174717519Y-39978985D01*
X174856900Y-39885853D01*
X175011772Y-39821703D01*
X175176184Y-39789000D01*
X175343816Y-39789000D01*
X175508228Y-39821703D01*
G37*
G36*
X137408228Y-39821703D02*
G01*
X137563100Y-39885853D01*
X137702481Y-39978985D01*
X137821015Y-40097519D01*
X137914147Y-40236900D01*
X137978297Y-40391772D01*
X138011000Y-40556184D01*
X138011000Y-40723816D01*
X137978297Y-40888228D01*
X137914147Y-41043100D01*
X137821015Y-41182481D01*
X137702481Y-41301015D01*
X137563100Y-41394147D01*
X137408228Y-41458297D01*
X137243816Y-41491000D01*
X137076184Y-41491000D01*
X136911772Y-41458297D01*
X136756900Y-41394147D01*
X136617519Y-41301015D01*
X136498985Y-41182481D01*
X136405853Y-41043100D01*
X136341703Y-40888228D01*
X136309000Y-40723816D01*
X136309000Y-40556184D01*
X136341703Y-40391772D01*
X136405853Y-40236900D01*
X136498985Y-40097519D01*
X136617519Y-39978985D01*
X136756900Y-39885853D01*
X136911772Y-39821703D01*
X137076184Y-39789000D01*
X137243816Y-39789000D01*
X137408228Y-39821703D01*
G37*
G36*
X152648228Y-39821703D02*
G01*
X152803100Y-39885853D01*
X152942481Y-39978985D01*
X153061015Y-40097519D01*
X153154147Y-40236900D01*
X153218297Y-40391772D01*
X153251000Y-40556184D01*
X153251000Y-40723816D01*
X153218297Y-40888228D01*
X153154147Y-41043100D01*
X153061015Y-41182481D01*
X152942481Y-41301015D01*
X152803100Y-41394147D01*
X152648228Y-41458297D01*
X152483816Y-41491000D01*
X152316184Y-41491000D01*
X152151772Y-41458297D01*
X151996900Y-41394147D01*
X151857519Y-41301015D01*
X151738985Y-41182481D01*
X151645853Y-41043100D01*
X151581703Y-40888228D01*
X151549000Y-40723816D01*
X151549000Y-40556184D01*
X151581703Y-40391772D01*
X151645853Y-40236900D01*
X151738985Y-40097519D01*
X151857519Y-39978985D01*
X151996900Y-39885853D01*
X152151772Y-39821703D01*
X152316184Y-39789000D01*
X152483816Y-39789000D01*
X152648228Y-39821703D01*
G37*
G36*
X119493512Y-38473927D02*
G01*
X119642812Y-38503624D01*
X119806784Y-38571544D01*
X119954354Y-38670147D01*
X120079853Y-38795646D01*
X120178456Y-38943216D01*
X120246376Y-39107188D01*
X120281000Y-39281259D01*
X120281000Y-39458741D01*
X120246376Y-39632812D01*
X120178456Y-39796784D01*
X120079853Y-39944354D01*
X119954354Y-40069853D01*
X119806784Y-40168456D01*
X119642812Y-40236376D01*
X119493512Y-40266073D01*
X119468742Y-40271000D01*
X119291258Y-40271000D01*
X119266488Y-40266073D01*
X119117188Y-40236376D01*
X118953216Y-40168456D01*
X118805646Y-40069853D01*
X118680147Y-39944354D01*
X118581544Y-39796784D01*
X118513624Y-39632812D01*
X118479000Y-39458741D01*
X118479000Y-39281259D01*
X118513624Y-39107188D01*
X118581544Y-38943216D01*
X118680147Y-38795646D01*
X118805646Y-38670147D01*
X118953216Y-38571544D01*
X119117188Y-38503624D01*
X119266488Y-38473927D01*
X119291258Y-38469000D01*
X119468742Y-38469000D01*
X119493512Y-38473927D01*
G37*
G36*
X125361000Y-40271000D02*
G01*
X123559000Y-40271000D01*
X123559000Y-38469000D01*
X125361000Y-38469000D01*
X125361000Y-40271000D01*
G37*
G36*
X122033512Y-38473927D02*
G01*
X122182812Y-38503624D01*
X122346784Y-38571544D01*
X122494354Y-38670147D01*
X122619853Y-38795646D01*
X122718456Y-38943216D01*
X122786376Y-39107188D01*
X122821000Y-39281259D01*
X122821000Y-39458741D01*
X122786376Y-39632812D01*
X122718456Y-39796784D01*
X122619853Y-39944354D01*
X122494354Y-40069853D01*
X122346784Y-40168456D01*
X122182812Y-40236376D01*
X122033512Y-40266073D01*
X122008742Y-40271000D01*
X121831258Y-40271000D01*
X121806488Y-40266073D01*
X121657188Y-40236376D01*
X121493216Y-40168456D01*
X121345646Y-40069853D01*
X121220147Y-39944354D01*
X121121544Y-39796784D01*
X121053624Y-39632812D01*
X121019000Y-39458741D01*
X121019000Y-39281259D01*
X121053624Y-39107188D01*
X121121544Y-38943216D01*
X121220147Y-38795646D01*
X121345646Y-38670147D01*
X121493216Y-38571544D01*
X121657188Y-38503624D01*
X121806488Y-38473927D01*
X121831258Y-38469000D01*
X122008742Y-38469000D01*
X122033512Y-38473927D01*
G37*
G36*
X186803512Y-38473927D02*
G01*
X186952812Y-38503624D01*
X187116784Y-38571544D01*
X187264354Y-38670147D01*
X187389853Y-38795646D01*
X187488456Y-38943216D01*
X187556376Y-39107188D01*
X187591000Y-39281259D01*
X187591000Y-39458741D01*
X187556376Y-39632812D01*
X187488456Y-39796784D01*
X187389853Y-39944354D01*
X187264354Y-40069853D01*
X187116784Y-40168456D01*
X186952812Y-40236376D01*
X186803512Y-40266073D01*
X186778742Y-40271000D01*
X186601258Y-40271000D01*
X186576488Y-40266073D01*
X186427188Y-40236376D01*
X186263216Y-40168456D01*
X186115646Y-40069853D01*
X185990147Y-39944354D01*
X185891544Y-39796784D01*
X185823624Y-39632812D01*
X185789000Y-39458741D01*
X185789000Y-39281259D01*
X185823624Y-39107188D01*
X185891544Y-38943216D01*
X185990147Y-38795646D01*
X186115646Y-38670147D01*
X186263216Y-38571544D01*
X186427188Y-38503624D01*
X186576488Y-38473927D01*
X186601258Y-38469000D01*
X186778742Y-38469000D01*
X186803512Y-38473927D01*
G37*
G36*
X189343512Y-38473927D02*
G01*
X189492812Y-38503624D01*
X189656784Y-38571544D01*
X189804354Y-38670147D01*
X189929853Y-38795646D01*
X190028456Y-38943216D01*
X190096376Y-39107188D01*
X190131000Y-39281259D01*
X190131000Y-39458741D01*
X190096376Y-39632812D01*
X190028456Y-39796784D01*
X189929853Y-39944354D01*
X189804354Y-40069853D01*
X189656784Y-40168456D01*
X189492812Y-40236376D01*
X189343512Y-40266073D01*
X189318742Y-40271000D01*
X189141258Y-40271000D01*
X189116488Y-40266073D01*
X188967188Y-40236376D01*
X188803216Y-40168456D01*
X188655646Y-40069853D01*
X188530147Y-39944354D01*
X188431544Y-39796784D01*
X188363624Y-39632812D01*
X188329000Y-39458741D01*
X188329000Y-39281259D01*
X188363624Y-39107188D01*
X188431544Y-38943216D01*
X188530147Y-38795646D01*
X188655646Y-38670147D01*
X188803216Y-38571544D01*
X188967188Y-38503624D01*
X189116488Y-38473927D01*
X189141258Y-38469000D01*
X189318742Y-38469000D01*
X189343512Y-38473927D01*
G37*
G36*
X192671000Y-40271000D02*
G01*
X190869000Y-40271000D01*
X190869000Y-38469000D01*
X192671000Y-38469000D01*
X192671000Y-40271000D01*
G37*
G36*
X152648228Y-37281703D02*
G01*
X152803100Y-37345853D01*
X152942481Y-37438985D01*
X153061015Y-37557519D01*
X153154147Y-37696900D01*
X153218297Y-37851772D01*
X153251000Y-38016184D01*
X153251000Y-38183816D01*
X153218297Y-38348228D01*
X153154147Y-38503100D01*
X153061015Y-38642481D01*
X152942481Y-38761015D01*
X152803100Y-38854147D01*
X152648228Y-38918297D01*
X152483816Y-38951000D01*
X152316184Y-38951000D01*
X152151772Y-38918297D01*
X151996900Y-38854147D01*
X151857519Y-38761015D01*
X151738985Y-38642481D01*
X151645853Y-38503100D01*
X151581703Y-38348228D01*
X151549000Y-38183816D01*
X151549000Y-38016184D01*
X151581703Y-37851772D01*
X151645853Y-37696900D01*
X151738985Y-37557519D01*
X151857519Y-37438985D01*
X151996900Y-37345853D01*
X152151772Y-37281703D01*
X152316184Y-37249000D01*
X152483816Y-37249000D01*
X152648228Y-37281703D01*
G37*
G36*
X137408228Y-37281703D02*
G01*
X137563100Y-37345853D01*
X137702481Y-37438985D01*
X137821015Y-37557519D01*
X137914147Y-37696900D01*
X137978297Y-37851772D01*
X138011000Y-38016184D01*
X138011000Y-38183816D01*
X137978297Y-38348228D01*
X137914147Y-38503100D01*
X137821015Y-38642481D01*
X137702481Y-38761015D01*
X137563100Y-38854147D01*
X137408228Y-38918297D01*
X137243816Y-38951000D01*
X137076184Y-38951000D01*
X136911772Y-38918297D01*
X136756900Y-38854147D01*
X136617519Y-38761015D01*
X136498985Y-38642481D01*
X136405853Y-38503100D01*
X136341703Y-38348228D01*
X136309000Y-38183816D01*
X136309000Y-38016184D01*
X136341703Y-37851772D01*
X136405853Y-37696900D01*
X136498985Y-37557519D01*
X136617519Y-37438985D01*
X136756900Y-37345853D01*
X136911772Y-37281703D01*
X137076184Y-37249000D01*
X137243816Y-37249000D01*
X137408228Y-37281703D01*
G37*
G36*
X175508228Y-37281703D02*
G01*
X175663100Y-37345853D01*
X175802481Y-37438985D01*
X175921015Y-37557519D01*
X176014147Y-37696900D01*
X176078297Y-37851772D01*
X176111000Y-38016184D01*
X176111000Y-38183816D01*
X176078297Y-38348228D01*
X176014147Y-38503100D01*
X175921015Y-38642481D01*
X175802481Y-38761015D01*
X175663100Y-38854147D01*
X175508228Y-38918297D01*
X175343816Y-38951000D01*
X175176184Y-38951000D01*
X175011772Y-38918297D01*
X174856900Y-38854147D01*
X174717519Y-38761015D01*
X174598985Y-38642481D01*
X174505853Y-38503100D01*
X174441703Y-38348228D01*
X174409000Y-38183816D01*
X174409000Y-38016184D01*
X174441703Y-37851772D01*
X174505853Y-37696900D01*
X174598985Y-37557519D01*
X174717519Y-37438985D01*
X174856900Y-37345853D01*
X175011772Y-37281703D01*
X175176184Y-37249000D01*
X175343816Y-37249000D01*
X175508228Y-37281703D01*
G37*
G36*
X160268228Y-37281703D02*
G01*
X160423100Y-37345853D01*
X160562481Y-37438985D01*
X160681015Y-37557519D01*
X160774147Y-37696900D01*
X160838297Y-37851772D01*
X160871000Y-38016184D01*
X160871000Y-38183816D01*
X160838297Y-38348228D01*
X160774147Y-38503100D01*
X160681015Y-38642481D01*
X160562481Y-38761015D01*
X160423100Y-38854147D01*
X160268228Y-38918297D01*
X160103816Y-38951000D01*
X159936184Y-38951000D01*
X159771772Y-38918297D01*
X159616900Y-38854147D01*
X159477519Y-38761015D01*
X159358985Y-38642481D01*
X159265853Y-38503100D01*
X159201703Y-38348228D01*
X159169000Y-38183816D01*
X159169000Y-38016184D01*
X159201703Y-37851772D01*
X159265853Y-37696900D01*
X159358985Y-37557519D01*
X159477519Y-37438985D01*
X159616900Y-37345853D01*
X159771772Y-37281703D01*
X159936184Y-37249000D01*
X160103816Y-37249000D01*
X160268228Y-37281703D01*
G37*
G36*
X152648228Y-34741703D02*
G01*
X152803100Y-34805853D01*
X152942481Y-34898985D01*
X153061015Y-35017519D01*
X153154147Y-35156900D01*
X153218297Y-35311772D01*
X153251000Y-35476184D01*
X153251000Y-35643816D01*
X153218297Y-35808228D01*
X153154147Y-35963100D01*
X153061015Y-36102481D01*
X152942481Y-36221015D01*
X152803100Y-36314147D01*
X152648228Y-36378297D01*
X152483816Y-36411000D01*
X152316184Y-36411000D01*
X152151772Y-36378297D01*
X151996900Y-36314147D01*
X151857519Y-36221015D01*
X151738985Y-36102481D01*
X151645853Y-35963100D01*
X151581703Y-35808228D01*
X151549000Y-35643816D01*
X151549000Y-35476184D01*
X151581703Y-35311772D01*
X151645853Y-35156900D01*
X151738985Y-35017519D01*
X151857519Y-34898985D01*
X151996900Y-34805853D01*
X152151772Y-34741703D01*
X152316184Y-34709000D01*
X152483816Y-34709000D01*
X152648228Y-34741703D01*
G37*
G36*
X137408228Y-34741703D02*
G01*
X137563100Y-34805853D01*
X137702481Y-34898985D01*
X137821015Y-35017519D01*
X137914147Y-35156900D01*
X137978297Y-35311772D01*
X138011000Y-35476184D01*
X138011000Y-35643816D01*
X137978297Y-35808228D01*
X137914147Y-35963100D01*
X137821015Y-36102481D01*
X137702481Y-36221015D01*
X137563100Y-36314147D01*
X137408228Y-36378297D01*
X137243816Y-36411000D01*
X137076184Y-36411000D01*
X136911772Y-36378297D01*
X136756900Y-36314147D01*
X136617519Y-36221015D01*
X136498985Y-36102481D01*
X136405853Y-35963100D01*
X136341703Y-35808228D01*
X136309000Y-35643816D01*
X136309000Y-35476184D01*
X136341703Y-35311772D01*
X136405853Y-35156900D01*
X136498985Y-35017519D01*
X136617519Y-34898985D01*
X136756900Y-34805853D01*
X136911772Y-34741703D01*
X137076184Y-34709000D01*
X137243816Y-34709000D01*
X137408228Y-34741703D01*
G37*
G36*
X175508228Y-34741703D02*
G01*
X175663100Y-34805853D01*
X175802481Y-34898985D01*
X175921015Y-35017519D01*
X176014147Y-35156900D01*
X176078297Y-35311772D01*
X176111000Y-35476184D01*
X176111000Y-35643816D01*
X176078297Y-35808228D01*
X176014147Y-35963100D01*
X175921015Y-36102481D01*
X175802481Y-36221015D01*
X175663100Y-36314147D01*
X175508228Y-36378297D01*
X175343816Y-36411000D01*
X175176184Y-36411000D01*
X175011772Y-36378297D01*
X174856900Y-36314147D01*
X174717519Y-36221015D01*
X174598985Y-36102481D01*
X174505853Y-35963100D01*
X174441703Y-35808228D01*
X174409000Y-35643816D01*
X174409000Y-35476184D01*
X174441703Y-35311772D01*
X174505853Y-35156900D01*
X174598985Y-35017519D01*
X174717519Y-34898985D01*
X174856900Y-34805853D01*
X175011772Y-34741703D01*
X175176184Y-34709000D01*
X175343816Y-34709000D01*
X175508228Y-34741703D01*
G37*
G36*
X160268228Y-34741703D02*
G01*
X160423100Y-34805853D01*
X160562481Y-34898985D01*
X160681015Y-35017519D01*
X160774147Y-35156900D01*
X160838297Y-35311772D01*
X160871000Y-35476184D01*
X160871000Y-35643816D01*
X160838297Y-35808228D01*
X160774147Y-35963100D01*
X160681015Y-36102481D01*
X160562481Y-36221015D01*
X160423100Y-36314147D01*
X160268228Y-36378297D01*
X160103816Y-36411000D01*
X159936184Y-36411000D01*
X159771772Y-36378297D01*
X159616900Y-36314147D01*
X159477519Y-36221015D01*
X159358985Y-36102481D01*
X159265853Y-35963100D01*
X159201703Y-35808228D01*
X159169000Y-35643816D01*
X159169000Y-35476184D01*
X159201703Y-35311772D01*
X159265853Y-35156900D01*
X159358985Y-35017519D01*
X159477519Y-34898985D01*
X159616900Y-34805853D01*
X159771772Y-34741703D01*
X159936184Y-34709000D01*
X160103816Y-34709000D01*
X160268228Y-34741703D01*
G37*
G36*
X152648228Y-32201703D02*
G01*
X152803100Y-32265853D01*
X152942481Y-32358985D01*
X153061015Y-32477519D01*
X153154147Y-32616900D01*
X153218297Y-32771772D01*
X153251000Y-32936184D01*
X153251000Y-33103816D01*
X153218297Y-33268228D01*
X153154147Y-33423100D01*
X153061015Y-33562481D01*
X152942481Y-33681015D01*
X152803100Y-33774147D01*
X152648228Y-33838297D01*
X152483816Y-33871000D01*
X152316184Y-33871000D01*
X152151772Y-33838297D01*
X151996900Y-33774147D01*
X151857519Y-33681015D01*
X151738985Y-33562481D01*
X151645853Y-33423100D01*
X151581703Y-33268228D01*
X151549000Y-33103816D01*
X151549000Y-32936184D01*
X151581703Y-32771772D01*
X151645853Y-32616900D01*
X151738985Y-32477519D01*
X151857519Y-32358985D01*
X151996900Y-32265853D01*
X152151772Y-32201703D01*
X152316184Y-32169000D01*
X152483816Y-32169000D01*
X152648228Y-32201703D01*
G37*
G36*
X137408228Y-32201703D02*
G01*
X137563100Y-32265853D01*
X137702481Y-32358985D01*
X137821015Y-32477519D01*
X137914147Y-32616900D01*
X137978297Y-32771772D01*
X138011000Y-32936184D01*
X138011000Y-33103816D01*
X137978297Y-33268228D01*
X137914147Y-33423100D01*
X137821015Y-33562481D01*
X137702481Y-33681015D01*
X137563100Y-33774147D01*
X137408228Y-33838297D01*
X137243816Y-33871000D01*
X137076184Y-33871000D01*
X136911772Y-33838297D01*
X136756900Y-33774147D01*
X136617519Y-33681015D01*
X136498985Y-33562481D01*
X136405853Y-33423100D01*
X136341703Y-33268228D01*
X136309000Y-33103816D01*
X136309000Y-32936184D01*
X136341703Y-32771772D01*
X136405853Y-32616900D01*
X136498985Y-32477519D01*
X136617519Y-32358985D01*
X136756900Y-32265853D01*
X136911772Y-32201703D01*
X137076184Y-32169000D01*
X137243816Y-32169000D01*
X137408228Y-32201703D01*
G37*
G36*
X160268228Y-32201703D02*
G01*
X160423100Y-32265853D01*
X160562481Y-32358985D01*
X160681015Y-32477519D01*
X160774147Y-32616900D01*
X160838297Y-32771772D01*
X160871000Y-32936184D01*
X160871000Y-33103816D01*
X160838297Y-33268228D01*
X160774147Y-33423100D01*
X160681015Y-33562481D01*
X160562481Y-33681015D01*
X160423100Y-33774147D01*
X160268228Y-33838297D01*
X160103816Y-33871000D01*
X159936184Y-33871000D01*
X159771772Y-33838297D01*
X159616900Y-33774147D01*
X159477519Y-33681015D01*
X159358985Y-33562481D01*
X159265853Y-33423100D01*
X159201703Y-33268228D01*
X159169000Y-33103816D01*
X159169000Y-32936184D01*
X159201703Y-32771772D01*
X159265853Y-32616900D01*
X159358985Y-32477519D01*
X159477519Y-32358985D01*
X159616900Y-32265853D01*
X159771772Y-32201703D01*
X159936184Y-32169000D01*
X160103816Y-32169000D01*
X160268228Y-32201703D01*
G37*
G36*
X175508228Y-32201703D02*
G01*
X175663100Y-32265853D01*
X175802481Y-32358985D01*
X175921015Y-32477519D01*
X176014147Y-32616900D01*
X176078297Y-32771772D01*
X176111000Y-32936184D01*
X176111000Y-33103816D01*
X176078297Y-33268228D01*
X176014147Y-33423100D01*
X175921015Y-33562481D01*
X175802481Y-33681015D01*
X175663100Y-33774147D01*
X175508228Y-33838297D01*
X175343816Y-33871000D01*
X175176184Y-33871000D01*
X175011772Y-33838297D01*
X174856900Y-33774147D01*
X174717519Y-33681015D01*
X174598985Y-33562481D01*
X174505853Y-33423100D01*
X174441703Y-33268228D01*
X174409000Y-33103816D01*
X174409000Y-32936184D01*
X174441703Y-32771772D01*
X174505853Y-32616900D01*
X174598985Y-32477519D01*
X174717519Y-32358985D01*
X174856900Y-32265853D01*
X175011772Y-32201703D01*
X175176184Y-32169000D01*
X175343816Y-32169000D01*
X175508228Y-32201703D01*
G37*
G36*
X195955256Y-26331298D02*
G01*
X196061579Y-26352447D01*
X196362042Y-26476903D01*
X196632451Y-26657585D01*
X196862415Y-26887549D01*
X197043097Y-27157958D01*
X197167553Y-27458421D01*
X197231000Y-27777391D01*
X197231000Y-28102609D01*
X197167553Y-28421579D01*
X197043097Y-28722042D01*
X196862415Y-28992451D01*
X196632451Y-29222415D01*
X196362042Y-29403097D01*
X196061579Y-29527553D01*
X195955256Y-29548702D01*
X195742611Y-29591000D01*
X195417389Y-29591000D01*
X195204744Y-29548702D01*
X195098421Y-29527553D01*
X194797958Y-29403097D01*
X194527549Y-29222415D01*
X194297585Y-28992451D01*
X194116903Y-28722042D01*
X193992447Y-28421579D01*
X193929000Y-28102609D01*
X193929000Y-27777391D01*
X193992447Y-27458421D01*
X194116903Y-27157958D01*
X194297585Y-26887549D01*
X194527549Y-26657585D01*
X194797958Y-26476903D01*
X195098421Y-26352447D01*
X195204744Y-26331298D01*
X195417389Y-26289000D01*
X195742611Y-26289000D01*
X195955256Y-26331298D01*
G37*
G36*
X117215256Y-26331298D02*
G01*
X117321579Y-26352447D01*
X117622042Y-26476903D01*
X117892451Y-26657585D01*
X118122415Y-26887549D01*
X118303097Y-27157958D01*
X118427553Y-27458421D01*
X118491000Y-27777391D01*
X118491000Y-28102609D01*
X118427553Y-28421579D01*
X118303097Y-28722042D01*
X118122415Y-28992451D01*
X117892451Y-29222415D01*
X117622042Y-29403097D01*
X117321579Y-29527553D01*
X117215256Y-29548702D01*
X117002611Y-29591000D01*
X116677389Y-29591000D01*
X116464744Y-29548702D01*
X116358421Y-29527553D01*
X116057958Y-29403097D01*
X115787549Y-29222415D01*
X115557585Y-28992451D01*
X115376903Y-28722042D01*
X115252447Y-28421579D01*
X115189000Y-28102609D01*
X115189000Y-27777391D01*
X115252447Y-27458421D01*
X115376903Y-27157958D01*
X115557585Y-26887549D01*
X115787549Y-26657585D01*
X116057958Y-26476903D01*
X116358421Y-26352447D01*
X116464744Y-26331298D01*
X116677389Y-26289000D01*
X117002611Y-26289000D01*
X117215256Y-26331298D01*
G37*
M02*
