M48
; DRILL file {KiCad (6.0.7)} date Sun Aug 21 23:09:42 2022
; FORMAT={-:-/ absolute / inch / decimal}
; #@! TF.CreationDate,2022-08-21T23:09:42-05:00
; #@! TF.GenerationSoftware,Kicad,Pcbnew,(6.0.7)
; #@! TF.FileFunction,Plated,1,2,PTH
FMAT,2
INCH
; #@! TA.AperFunction,Plated,PTH,ViaDrill
T1C0.0157
; #@! TA.AperFunction,Plated,PTH,ComponentDrill
T2C0.0177
; #@! TA.AperFunction,Plated,PTH,ComponentDrill
T3C0.0394
%
G90
G05
T1
X8.1021Y-3.6916
X8.1097Y-3.6335
X8.1102Y-3.9079
X8.1614Y-4.0248
X8.1776Y-4.137
X8.2043Y-3.6961
X8.2053Y-3.7373
X8.2079Y-3.6522
X8.229Y-3.827
X8.235Y-3.4094
X8.2378Y-3.5679
X8.2421Y-3.9744
X8.2426Y-3.8701
X8.2599Y-3.7045
X8.265Y-3.6613
X8.2783Y-3.7394
X8.3306Y-4.0594
X8.3323Y-3.8988
X8.3328Y-3.5878
X8.3524Y-4.2327
X8.3776Y-3.7815
X8.4031Y-4.124
X8.4223Y-3.9614
X8.4385Y-3.7851
X8.5208Y-3.9513
X8.5268Y-4.1252
X8.5283Y-4.0811
X8.5346Y-3.4091
X8.5401Y-3.6251
T3
X8.0Y-3.2
X8.0Y-3.3
X8.0Y-3.4
X8.0Y-3.5
X8.0Y-3.6
X8.0Y-3.7
X8.0Y-3.8
X8.0Y-3.9
X8.0Y-4.0
X8.0Y-4.1
X8.0Y-4.2
X8.7Y-3.2
X8.7Y-3.3
X8.7Y-3.4
X8.7Y-3.5
X8.7Y-3.6
X8.7Y-3.7
X8.7Y-3.8
X8.7Y-3.9
X8.7Y-4.0
X8.7Y-4.1
X8.7Y-4.2
T2
G00X8.1955Y-3.2476
M15
G01X8.1955Y-3.2161
M16
G05
G00X8.477Y-3.2161
M15
G01X8.477Y-3.2476
M16
G05
T0
M30
