G04 #@! TF.GenerationSoftware,KiCad,Pcbnew,(6.0.0)*
G04 #@! TF.CreationDate,2022-07-24T20:20:56-05:00*
G04 #@! TF.ProjectId,DriveByWireInputSTM32QFN28,44726976-6542-4795-9769-7265496e7075,rev?*
G04 #@! TF.SameCoordinates,Original*
G04 #@! TF.FileFunction,Copper,L2,Bot*
G04 #@! TF.FilePolarity,Positive*
%FSLAX46Y46*%
G04 Gerber Fmt 4.6, Leading zero omitted, Abs format (unit mm)*
G04 Created by KiCad (PCBNEW (6.0.0)) date 2022-07-24 20:20:56*
%MOMM*%
%LPD*%
G01*
G04 APERTURE LIST*
G04 Aperture macros list*
%AMRoundRect*
0 Rectangle with rounded corners*
0 $1 Rounding radius*
0 $2 $3 $4 $5 $6 $7 $8 $9 X,Y pos of 4 corners*
0 Add a 4 corners polygon primitive as box body*
4,1,4,$2,$3,$4,$5,$6,$7,$8,$9,$2,$3,0*
0 Add four circle primitives for the rounded corners*
1,1,$1+$1,$2,$3*
1,1,$1+$1,$4,$5*
1,1,$1+$1,$6,$7*
1,1,$1+$1,$8,$9*
0 Add four rect primitives between the rounded corners*
20,1,$1+$1,$2,$3,$4,$5,0*
20,1,$1+$1,$4,$5,$6,$7,0*
20,1,$1+$1,$6,$7,$8,$9,0*
20,1,$1+$1,$8,$9,$2,$3,0*%
%AMHorizOval*
0 Thick line with rounded ends*
0 $1 width*
0 $2 $3 position (X,Y) of the first rounded end (center of the circle)*
0 $4 $5 position (X,Y) of the second rounded end (center of the circle)*
0 Add line between two ends*
20,1,$1,$2,$3,$4,$5,0*
0 Add two circle primitives to create the rounded ends*
1,1,$1,$2,$3*
1,1,$1,$4,$5*%
%AMRotRect*
0 Rectangle, with rotation*
0 The origin of the aperture is its center*
0 $1 length*
0 $2 width*
0 $3 Rotation angle, in degrees counterclockwise*
0 Add horizontal line*
21,1,$1,$2,0,0,$3*%
G04 Aperture macros list end*
G04 #@! TA.AperFunction,Profile*
%ADD10C,0.050000*%
G04 #@! TD*
G04 #@! TA.AperFunction,WasherPad*
%ADD11C,3.250000*%
G04 #@! TD*
G04 #@! TA.AperFunction,ComponentPad*
%ADD12RotRect,1.500000X1.500000X10.000000*%
G04 #@! TD*
G04 #@! TA.AperFunction,ComponentPad*
%ADD13C,1.500000*%
G04 #@! TD*
G04 #@! TA.AperFunction,ComponentPad*
%ADD14HorizOval,1.259000X-0.095767X0.543121X0.095767X-0.543121X0*%
G04 #@! TD*
G04 #@! TA.AperFunction,ComponentPad*
%ADD15RoundRect,0.250000X-0.600000X-0.750000X0.600000X-0.750000X0.600000X0.750000X-0.600000X0.750000X0*%
G04 #@! TD*
G04 #@! TA.AperFunction,ComponentPad*
%ADD16O,1.700000X2.000000*%
G04 #@! TD*
G04 #@! TA.AperFunction,ViaPad*
%ADD17C,0.800000*%
G04 #@! TD*
G04 #@! TA.AperFunction,Conductor*
%ADD18C,0.250000*%
G04 #@! TD*
G04 APERTURE END LIST*
D10*
X132588000Y-110680500D02*
G75*
G03*
X136652000Y-114744500I4064000J0D01*
G01*
X172239940Y-86360000D02*
X172250164Y-110667800D01*
X132588000Y-110680500D02*
X132588000Y-86296602D01*
X172239940Y-86360000D02*
G75*
G03*
X171279873Y-85389743I-965162J5095D01*
G01*
X168153080Y-114744500D02*
G75*
G03*
X172250164Y-110667800I22733J4074289D01*
G01*
X171279820Y-85389720D02*
X133489685Y-85389720D01*
X133489685Y-85389720D02*
G75*
G03*
X132588000Y-86296602I0J-901700D01*
G01*
X168153080Y-114744500D02*
X136652000Y-114744500D01*
D11*
X158267765Y-106584015D03*
X145760706Y-108789346D03*
D12*
X155068547Y-104568939D03*
D13*
X153754950Y-102993103D03*
X153069388Y-104921445D03*
X151755790Y-103345608D03*
X151070228Y-105273951D03*
X149756630Y-103698114D03*
X149071068Y-105626457D03*
X147757470Y-104050620D03*
D14*
X143503830Y-106240577D03*
X159516804Y-103417058D03*
D15*
X166270000Y-89890000D03*
D16*
X168770000Y-89890000D03*
D15*
X156300000Y-89775000D03*
D16*
X158800000Y-89775000D03*
D17*
X154080000Y-86280000D03*
X146520000Y-92760000D03*
X158780000Y-87920000D03*
X140680000Y-108630000D03*
X133930000Y-93850000D03*
X141990000Y-86070000D03*
X162570000Y-87250000D03*
X161430000Y-99100000D03*
X170640000Y-89040000D03*
X140280000Y-87520000D03*
X156960000Y-99040000D03*
X135680000Y-103300000D03*
X164560000Y-105080000D03*
X162480000Y-91940000D03*
X151360000Y-110410000D03*
X145370000Y-101510000D03*
X133990000Y-100060000D03*
X149170000Y-86140000D03*
X158400000Y-110210000D03*
X161750000Y-101980000D03*
X152000000Y-90030000D03*
X150910000Y-96930000D03*
X149700000Y-96100000D03*
X142200000Y-96910000D03*
X147080000Y-93840000D03*
X137738395Y-97838768D03*
X148270000Y-93750000D03*
X147590000Y-92110000D03*
X138270000Y-93230000D03*
X163150000Y-107920000D03*
X161140000Y-96970000D03*
X152370000Y-92470000D03*
X152480000Y-91330000D03*
X170360000Y-96790000D03*
D18*
X135680000Y-101750000D02*
X135680000Y-103300000D01*
X133990000Y-100060000D02*
X135680000Y-101750000D01*
X161750000Y-101980000D02*
X160990000Y-101220000D01*
X157830000Y-101220000D02*
X155200000Y-101220000D01*
X161750000Y-105894175D02*
X161750000Y-101980000D01*
X159085639Y-108558536D02*
X161750000Y-105894175D01*
X150910000Y-91120000D02*
X152000000Y-90030000D01*
X150910000Y-96930000D02*
X150910000Y-91120000D01*
X155200000Y-101220000D02*
X150910000Y-96930000D01*
X160990000Y-101220000D02*
X157830000Y-101220000D01*
X149071068Y-105626457D02*
X152003147Y-108558536D01*
X152003147Y-108558536D02*
X159085639Y-108558536D01*
X149700000Y-96744600D02*
X150609901Y-97654501D01*
X149700000Y-96100000D02*
X149700000Y-96744600D01*
X150609901Y-97654501D02*
X150619157Y-97654501D01*
X150619157Y-97654501D02*
X157269147Y-104304491D01*
X157269147Y-104304491D02*
X155549687Y-106023951D01*
X151820228Y-106023951D02*
X151070228Y-105273951D01*
X155549687Y-106023951D02*
X151820228Y-106023951D01*
X142200000Y-96910000D02*
X144010000Y-96910000D01*
X144010000Y-96910000D02*
X147080000Y-93840000D01*
X144110000Y-97910000D02*
X137809627Y-97910000D01*
X148270000Y-93750000D02*
X144110000Y-97910000D01*
X137809627Y-97910000D02*
X137738395Y-97838768D01*
X157184521Y-92864521D02*
X165795479Y-92864521D01*
X147590000Y-92110000D02*
X147590000Y-91910000D01*
X150220000Y-89280000D02*
X153600000Y-89280000D01*
X153600000Y-89280000D02*
X157184521Y-92864521D01*
X165795479Y-92864521D02*
X168770000Y-89890000D01*
X147590000Y-91910000D02*
X150220000Y-89280000D01*
X146010000Y-112000000D02*
X136129511Y-102119511D01*
X136129511Y-95370489D02*
X138270000Y-93230000D01*
X163150000Y-107920000D02*
X159070000Y-112000000D01*
X136129511Y-102119511D02*
X136129511Y-95370489D01*
X159070000Y-112000000D02*
X146010000Y-112000000D01*
X152370000Y-92470000D02*
X156870000Y-96970000D01*
X156870000Y-96970000D02*
X161140000Y-96970000D01*
X170360000Y-94760000D02*
X170360000Y-96790000D01*
X152480000Y-91330000D02*
X155520000Y-94370000D01*
X155520000Y-94370000D02*
X169970000Y-94370000D01*
X169970000Y-94370000D02*
X170360000Y-94760000D01*
G04 #@! TA.AperFunction,Conductor*
G36*
X171248766Y-85899324D02*
G01*
X171270894Y-85902889D01*
X171279801Y-85901772D01*
X171288778Y-85901929D01*
X171288774Y-85902137D01*
X171310200Y-85902259D01*
X171354690Y-85908356D01*
X171378998Y-85911687D01*
X171410721Y-85920367D01*
X171490160Y-85953763D01*
X171518556Y-85970357D01*
X171586647Y-86023178D01*
X171609782Y-86046559D01*
X171661877Y-86115200D01*
X171678171Y-86143770D01*
X171710726Y-86223552D01*
X171719072Y-86255369D01*
X171727310Y-86320602D01*
X171728284Y-86338592D01*
X171728222Y-86342160D01*
X171726794Y-86351021D01*
X171727911Y-86359928D01*
X171727911Y-86359929D01*
X171730977Y-86384381D01*
X171731956Y-86400005D01*
X171738796Y-102662221D01*
X171741750Y-109683332D01*
X171742143Y-110618743D01*
X171740654Y-110638106D01*
X171736974Y-110661834D01*
X171738143Y-110670732D01*
X171738143Y-110670734D01*
X171739506Y-110681106D01*
X171740431Y-110703650D01*
X171726997Y-110979365D01*
X171725366Y-111012834D01*
X171724151Y-111025189D01*
X171674422Y-111360463D01*
X171672001Y-111372626D01*
X171589518Y-111701395D01*
X171585917Y-111713237D01*
X171507984Y-111930528D01*
X171471491Y-112032276D01*
X171466730Y-112043740D01*
X171321465Y-112349970D01*
X171315605Y-112360898D01*
X171140903Y-112651362D01*
X171134000Y-112661654D01*
X170931576Y-112933502D01*
X170923681Y-112943081D01*
X170695490Y-113193689D01*
X170686690Y-113202445D01*
X170434949Y-113429381D01*
X170425331Y-113437228D01*
X170152481Y-113638290D01*
X170142137Y-113645153D01*
X169850829Y-113818391D01*
X169839860Y-113824203D01*
X169532903Y-113967941D01*
X169521431Y-113972639D01*
X169201828Y-114085472D01*
X169189935Y-114089022D01*
X169025358Y-114129440D01*
X168860782Y-114169858D01*
X168848596Y-114172221D01*
X168513093Y-114220275D01*
X168500732Y-114221428D01*
X168198838Y-114234629D01*
X168173256Y-114233139D01*
X168171078Y-114232787D01*
X168171070Y-114232787D01*
X168162213Y-114231357D01*
X168153308Y-114232471D01*
X168153304Y-114232471D01*
X168128896Y-114235525D01*
X168113255Y-114236500D01*
X136701328Y-114236500D01*
X136681943Y-114235000D01*
X136667142Y-114232695D01*
X136667139Y-114232695D01*
X136658270Y-114231314D01*
X136638946Y-114233841D01*
X136616430Y-114234753D01*
X136309627Y-114219680D01*
X136297333Y-114218470D01*
X135964375Y-114169079D01*
X135952269Y-114166672D01*
X135625754Y-114084885D01*
X135613924Y-114081296D01*
X135297006Y-113967901D01*
X135285582Y-113963169D01*
X135117571Y-113883706D01*
X134981303Y-113819256D01*
X134970402Y-113813429D01*
X134681698Y-113640386D01*
X134671417Y-113633516D01*
X134401069Y-113433012D01*
X134391511Y-113425168D01*
X134142115Y-113199129D01*
X134133371Y-113190385D01*
X133907332Y-112940989D01*
X133899488Y-112931431D01*
X133698984Y-112661083D01*
X133692114Y-112650802D01*
X133560197Y-112430712D01*
X133519069Y-112362094D01*
X133513242Y-112351193D01*
X133493625Y-112309715D01*
X133369331Y-112046918D01*
X133364599Y-112035494D01*
X133251204Y-111718576D01*
X133247615Y-111706744D01*
X133190604Y-111479142D01*
X133165828Y-111380231D01*
X133163419Y-111368116D01*
X133163195Y-111366600D01*
X133114030Y-111035167D01*
X133112819Y-111022866D01*
X133108511Y-110935159D01*
X133102717Y-110817224D01*
X133098293Y-110727165D01*
X133099886Y-110700086D01*
X133100264Y-110697840D01*
X133100265Y-110697831D01*
X133101071Y-110693039D01*
X133101224Y-110680500D01*
X133097273Y-110652912D01*
X133096000Y-110635049D01*
X133096000Y-110632703D01*
X134390743Y-110632703D01*
X134391302Y-110636947D01*
X134391302Y-110636951D01*
X134403179Y-110727165D01*
X134428268Y-110917734D01*
X134504129Y-111195036D01*
X134616923Y-111459476D01*
X134764561Y-111706161D01*
X134944313Y-111930528D01*
X135152851Y-112128423D01*
X135386317Y-112296186D01*
X135390112Y-112298195D01*
X135390113Y-112298196D01*
X135411869Y-112309715D01*
X135640392Y-112430712D01*
X135756857Y-112473332D01*
X135903643Y-112527048D01*
X135910373Y-112529511D01*
X136191264Y-112590755D01*
X136219841Y-112593004D01*
X136414282Y-112608307D01*
X136414291Y-112608307D01*
X136416739Y-112608500D01*
X136572271Y-112608500D01*
X136574407Y-112608354D01*
X136574418Y-112608354D01*
X136782548Y-112594165D01*
X136782554Y-112594164D01*
X136786825Y-112593873D01*
X136791020Y-112593004D01*
X136791022Y-112593004D01*
X137000545Y-112549614D01*
X137068342Y-112535574D01*
X137339343Y-112439607D01*
X137502143Y-112355580D01*
X137591005Y-112309715D01*
X137591006Y-112309715D01*
X137594812Y-112307750D01*
X137598313Y-112305289D01*
X137598317Y-112305287D01*
X137712418Y-112225095D01*
X137830023Y-112142441D01*
X137942277Y-112038128D01*
X138037479Y-111949661D01*
X138037481Y-111949658D01*
X138040622Y-111946740D01*
X138222713Y-111724268D01*
X138372927Y-111479142D01*
X138422330Y-111366600D01*
X138486757Y-111219830D01*
X138488483Y-111215898D01*
X138567244Y-110939406D01*
X138604157Y-110680035D01*
X138607146Y-110659036D01*
X138607146Y-110659034D01*
X138607751Y-110654784D01*
X138607808Y-110644023D01*
X138609235Y-110371583D01*
X138609235Y-110371576D01*
X138609257Y-110367297D01*
X138571732Y-110082266D01*
X138495871Y-109804964D01*
X138383077Y-109540524D01*
X138235439Y-109293839D01*
X138055687Y-109069472D01*
X137847149Y-108871577D01*
X137613683Y-108703814D01*
X137591843Y-108692250D01*
X137568654Y-108679972D01*
X137359608Y-108569288D01*
X137089627Y-108470489D01*
X136808736Y-108409245D01*
X136777685Y-108406801D01*
X136585718Y-108391693D01*
X136585709Y-108391693D01*
X136583261Y-108391500D01*
X136427729Y-108391500D01*
X136425593Y-108391646D01*
X136425582Y-108391646D01*
X136217452Y-108405835D01*
X136217446Y-108405836D01*
X136213175Y-108406127D01*
X136208980Y-108406996D01*
X136208978Y-108406996D01*
X136072417Y-108435276D01*
X135931658Y-108464426D01*
X135660657Y-108560393D01*
X135405188Y-108692250D01*
X135401687Y-108694711D01*
X135401683Y-108694713D01*
X135374521Y-108713803D01*
X135169977Y-108857559D01*
X135154892Y-108871577D01*
X134964224Y-109048757D01*
X134959378Y-109053260D01*
X134777287Y-109275732D01*
X134627073Y-109520858D01*
X134511517Y-109784102D01*
X134432756Y-110060594D01*
X134392249Y-110345216D01*
X134392227Y-110349505D01*
X134392226Y-110349512D01*
X134390816Y-110618743D01*
X134390743Y-110632703D01*
X133096000Y-110632703D01*
X133096000Y-95350432D01*
X135491291Y-95350432D01*
X135492037Y-95358324D01*
X135495452Y-95394450D01*
X135496011Y-95406308D01*
X135496011Y-102040744D01*
X135495484Y-102051927D01*
X135493809Y-102059420D01*
X135494058Y-102067346D01*
X135494058Y-102067347D01*
X135495949Y-102127497D01*
X135496011Y-102131456D01*
X135496011Y-102159367D01*
X135496508Y-102163301D01*
X135496508Y-102163302D01*
X135496516Y-102163367D01*
X135497449Y-102175204D01*
X135498838Y-102219400D01*
X135504489Y-102238850D01*
X135508498Y-102258211D01*
X135511037Y-102278308D01*
X135513956Y-102285679D01*
X135513956Y-102285681D01*
X135527315Y-102319423D01*
X135531160Y-102330653D01*
X135541282Y-102365494D01*
X135543493Y-102373104D01*
X135547526Y-102379923D01*
X135547528Y-102379928D01*
X135553804Y-102390539D01*
X135562499Y-102408287D01*
X135569959Y-102427128D01*
X135574621Y-102433544D01*
X135574621Y-102433545D01*
X135595947Y-102462898D01*
X135602463Y-102472818D01*
X135606278Y-102479268D01*
X135624969Y-102510873D01*
X135639290Y-102525194D01*
X135652130Y-102540227D01*
X135664039Y-102556618D01*
X135670145Y-102561669D01*
X135698116Y-102584809D01*
X135706895Y-102592799D01*
X145506343Y-112392247D01*
X145513887Y-112400537D01*
X145518000Y-112407018D01*
X145523777Y-112412443D01*
X145567667Y-112453658D01*
X145570509Y-112456413D01*
X145590231Y-112476135D01*
X145593355Y-112478558D01*
X145593359Y-112478562D01*
X145593424Y-112478612D01*
X145602445Y-112486317D01*
X145634679Y-112516586D01*
X145641627Y-112520405D01*
X145641629Y-112520407D01*
X145652432Y-112526346D01*
X145668959Y-112537202D01*
X145678698Y-112544757D01*
X145678700Y-112544758D01*
X145684960Y-112549614D01*
X145725540Y-112567174D01*
X145736188Y-112572391D01*
X145760976Y-112586018D01*
X145774940Y-112593695D01*
X145782616Y-112595666D01*
X145782619Y-112595667D01*
X145794562Y-112598733D01*
X145813266Y-112605137D01*
X145821038Y-112608500D01*
X145831855Y-112613181D01*
X145839678Y-112614420D01*
X145839688Y-112614423D01*
X145875524Y-112620099D01*
X145887144Y-112622505D01*
X145918959Y-112630673D01*
X145929970Y-112633500D01*
X145950224Y-112633500D01*
X145969934Y-112635051D01*
X145989943Y-112638220D01*
X145997835Y-112637474D01*
X146016580Y-112635702D01*
X146033962Y-112634059D01*
X146045819Y-112633500D01*
X158991233Y-112633500D01*
X159002416Y-112634027D01*
X159009909Y-112635702D01*
X159017835Y-112635453D01*
X159017836Y-112635453D01*
X159077986Y-112633562D01*
X159081945Y-112633500D01*
X159109856Y-112633500D01*
X159113791Y-112633003D01*
X159113856Y-112632995D01*
X159125693Y-112632062D01*
X159157951Y-112631048D01*
X159161970Y-112630922D01*
X159169889Y-112630673D01*
X159189343Y-112625021D01*
X159208700Y-112621013D01*
X159220930Y-112619468D01*
X159220931Y-112619468D01*
X159228797Y-112618474D01*
X159236168Y-112615555D01*
X159236170Y-112615555D01*
X159269912Y-112602196D01*
X159281142Y-112598351D01*
X159315983Y-112588229D01*
X159315984Y-112588229D01*
X159323593Y-112586018D01*
X159330412Y-112581985D01*
X159330417Y-112581983D01*
X159341028Y-112575707D01*
X159358776Y-112567012D01*
X159377617Y-112559552D01*
X159413387Y-112533564D01*
X159423307Y-112527048D01*
X159454535Y-112508580D01*
X159454538Y-112508578D01*
X159461362Y-112504542D01*
X159475683Y-112490221D01*
X159490717Y-112477380D01*
X159492431Y-112476135D01*
X159507107Y-112465472D01*
X159535298Y-112431395D01*
X159543288Y-112422616D01*
X161333201Y-110632703D01*
X165890743Y-110632703D01*
X165891302Y-110636947D01*
X165891302Y-110636951D01*
X165903179Y-110727165D01*
X165928268Y-110917734D01*
X166004129Y-111195036D01*
X166116923Y-111459476D01*
X166264561Y-111706161D01*
X166444313Y-111930528D01*
X166652851Y-112128423D01*
X166886317Y-112296186D01*
X166890112Y-112298195D01*
X166890113Y-112298196D01*
X166911869Y-112309715D01*
X167140392Y-112430712D01*
X167256857Y-112473332D01*
X167403643Y-112527048D01*
X167410373Y-112529511D01*
X167691264Y-112590755D01*
X167719841Y-112593004D01*
X167914282Y-112608307D01*
X167914291Y-112608307D01*
X167916739Y-112608500D01*
X168072271Y-112608500D01*
X168074407Y-112608354D01*
X168074418Y-112608354D01*
X168282548Y-112594165D01*
X168282554Y-112594164D01*
X168286825Y-112593873D01*
X168291020Y-112593004D01*
X168291022Y-112593004D01*
X168500545Y-112549614D01*
X168568342Y-112535574D01*
X168839343Y-112439607D01*
X169002143Y-112355580D01*
X169091005Y-112309715D01*
X169091006Y-112309715D01*
X169094812Y-112307750D01*
X169098313Y-112305289D01*
X169098317Y-112305287D01*
X169212418Y-112225095D01*
X169330023Y-112142441D01*
X169442277Y-112038128D01*
X169537479Y-111949661D01*
X169537481Y-111949658D01*
X169540622Y-111946740D01*
X169722713Y-111724268D01*
X169872927Y-111479142D01*
X169922330Y-111366600D01*
X169986757Y-111219830D01*
X169988483Y-111215898D01*
X170067244Y-110939406D01*
X170104157Y-110680035D01*
X170107146Y-110659036D01*
X170107146Y-110659034D01*
X170107751Y-110654784D01*
X170107808Y-110644023D01*
X170109235Y-110371583D01*
X170109235Y-110371576D01*
X170109257Y-110367297D01*
X170071732Y-110082266D01*
X169995871Y-109804964D01*
X169883077Y-109540524D01*
X169735439Y-109293839D01*
X169555687Y-109069472D01*
X169347149Y-108871577D01*
X169113683Y-108703814D01*
X169091843Y-108692250D01*
X169068654Y-108679972D01*
X168859608Y-108569288D01*
X168589627Y-108470489D01*
X168308736Y-108409245D01*
X168277685Y-108406801D01*
X168085718Y-108391693D01*
X168085709Y-108391693D01*
X168083261Y-108391500D01*
X167927729Y-108391500D01*
X167925593Y-108391646D01*
X167925582Y-108391646D01*
X167717452Y-108405835D01*
X167717446Y-108405836D01*
X167713175Y-108406127D01*
X167708980Y-108406996D01*
X167708978Y-108406996D01*
X167572417Y-108435276D01*
X167431658Y-108464426D01*
X167160657Y-108560393D01*
X166905188Y-108692250D01*
X166901687Y-108694711D01*
X166901683Y-108694713D01*
X166874521Y-108713803D01*
X166669977Y-108857559D01*
X166654892Y-108871577D01*
X166464224Y-109048757D01*
X166459378Y-109053260D01*
X166277287Y-109275732D01*
X166127073Y-109520858D01*
X166011517Y-109784102D01*
X165932756Y-110060594D01*
X165892249Y-110345216D01*
X165892227Y-110349505D01*
X165892226Y-110349512D01*
X165890816Y-110618743D01*
X165890743Y-110632703D01*
X161333201Y-110632703D01*
X163100499Y-108865405D01*
X163162811Y-108831379D01*
X163189594Y-108828500D01*
X163245487Y-108828500D01*
X163251939Y-108827128D01*
X163251944Y-108827128D01*
X163338888Y-108808647D01*
X163432288Y-108788794D01*
X163438319Y-108786109D01*
X163600722Y-108713803D01*
X163600724Y-108713802D01*
X163606752Y-108711118D01*
X163613355Y-108706321D01*
X163662157Y-108670864D01*
X163761253Y-108598866D01*
X163765675Y-108593955D01*
X163884621Y-108461852D01*
X163884622Y-108461851D01*
X163889040Y-108456944D01*
X163984527Y-108291556D01*
X164043542Y-108109928D01*
X164045432Y-108091951D01*
X164062814Y-107926565D01*
X164063504Y-107920000D01*
X164060907Y-107895292D01*
X164044232Y-107736635D01*
X164044232Y-107736633D01*
X164043542Y-107730072D01*
X163984527Y-107548444D01*
X163980224Y-107540990D01*
X163925992Y-107447059D01*
X163889040Y-107383056D01*
X163761253Y-107241134D01*
X163662157Y-107169136D01*
X163612094Y-107132763D01*
X163612093Y-107132762D01*
X163606752Y-107128882D01*
X163600724Y-107126198D01*
X163600722Y-107126197D01*
X163438319Y-107053891D01*
X163438318Y-107053891D01*
X163432288Y-107051206D01*
X163335928Y-107030724D01*
X163251944Y-107012872D01*
X163251939Y-107012872D01*
X163245487Y-107011500D01*
X163054513Y-107011500D01*
X163048061Y-107012872D01*
X163048056Y-107012872D01*
X162964072Y-107030724D01*
X162867712Y-107051206D01*
X162861682Y-107053891D01*
X162861681Y-107053891D01*
X162699278Y-107126197D01*
X162699276Y-107126198D01*
X162693248Y-107128882D01*
X162687907Y-107132762D01*
X162687906Y-107132763D01*
X162637843Y-107169136D01*
X162538747Y-107241134D01*
X162410960Y-107383056D01*
X162374008Y-107447059D01*
X162319777Y-107540990D01*
X162315473Y-107548444D01*
X162256458Y-107730072D01*
X162255768Y-107736633D01*
X162255768Y-107736635D01*
X162239093Y-107895292D01*
X162212080Y-107960949D01*
X162202878Y-107971217D01*
X158844500Y-111329595D01*
X158782188Y-111363621D01*
X158755405Y-111366500D01*
X146324594Y-111366500D01*
X146256473Y-111346498D01*
X146235499Y-111329595D01*
X146018396Y-111112492D01*
X145984370Y-111050180D01*
X145989435Y-110979365D01*
X146031982Y-110922529D01*
X146092350Y-110898311D01*
X146161418Y-110889953D01*
X146442796Y-110816135D01*
X146711552Y-110704812D01*
X146962713Y-110558045D01*
X147191632Y-110378550D01*
X147198384Y-110371583D01*
X147391089Y-110172726D01*
X147394072Y-110169648D01*
X147566289Y-109935204D01*
X147646089Y-109788230D01*
X147703044Y-109683332D01*
X147703045Y-109683330D01*
X147705094Y-109679556D01*
X147807919Y-109407436D01*
X147856456Y-109195516D01*
X147871906Y-109128059D01*
X147871907Y-109128054D01*
X147872863Y-109123879D01*
X147898722Y-108834131D01*
X147899191Y-108789346D01*
X147893223Y-108701804D01*
X147879697Y-108503397D01*
X147879696Y-108503391D01*
X147879405Y-108499120D01*
X147872517Y-108465856D01*
X147821284Y-108218462D01*
X147820415Y-108214265D01*
X147723311Y-107940051D01*
X147589890Y-107681553D01*
X147422621Y-107443554D01*
X147348022Y-107363276D01*
X147227521Y-107233601D01*
X147227518Y-107233598D01*
X147224600Y-107230458D01*
X147221284Y-107227744D01*
X147221281Y-107227741D01*
X147008878Y-107053891D01*
X146999490Y-107046207D01*
X146751458Y-106894213D01*
X146747541Y-106892494D01*
X146747538Y-106892492D01*
X146610037Y-106832134D01*
X146485092Y-106777287D01*
X146480964Y-106776111D01*
X146480961Y-106776110D01*
X146367560Y-106743807D01*
X146205322Y-106697592D01*
X146201080Y-106696988D01*
X146201074Y-106696987D01*
X145921576Y-106657209D01*
X145917325Y-106656604D01*
X145763938Y-106655801D01*
X145630715Y-106655103D01*
X145630709Y-106655103D01*
X145626429Y-106655081D01*
X145622185Y-106655640D01*
X145622181Y-106655640D01*
X145495162Y-106672363D01*
X145338019Y-106693051D01*
X145333879Y-106694184D01*
X145333877Y-106694184D01*
X145317117Y-106698769D01*
X145057430Y-106769811D01*
X144911316Y-106832134D01*
X144840810Y-106840463D01*
X144776994Y-106809350D01*
X144740129Y-106748675D01*
X144736085Y-106723380D01*
X144734687Y-106698769D01*
X144732080Y-106652850D01*
X144731397Y-106648973D01*
X144622018Y-106028656D01*
X144519562Y-105447597D01*
X144498529Y-105370449D01*
X144480082Y-105302787D01*
X144480081Y-105302784D01*
X144478562Y-105297213D01*
X144476055Y-105292016D01*
X144476053Y-105292010D01*
X144390208Y-105114035D01*
X144387698Y-105108831D01*
X144264025Y-104940164D01*
X144249947Y-104926920D01*
X144115889Y-104800811D01*
X144111687Y-104796858D01*
X143935783Y-104683713D01*
X143930435Y-104681525D01*
X143930433Y-104681524D01*
X143747553Y-104606706D01*
X143747552Y-104606706D01*
X143742207Y-104604519D01*
X143736556Y-104603344D01*
X143736554Y-104603343D01*
X143543091Y-104563103D01*
X143543087Y-104563103D01*
X143537440Y-104561928D01*
X143531668Y-104561802D01*
X143432890Y-104559646D01*
X143328340Y-104557365D01*
X143121910Y-104590984D01*
X142925063Y-104661660D01*
X142920068Y-104664573D01*
X142749383Y-104764113D01*
X142749380Y-104764115D01*
X142744392Y-104767024D01*
X142740022Y-104770789D01*
X142740017Y-104770793D01*
X142705180Y-104800811D01*
X142585947Y-104903549D01*
X142582337Y-104908047D01*
X142582336Y-104908048D01*
X142458647Y-105062161D01*
X142458644Y-105062165D01*
X142455036Y-105066661D01*
X142413117Y-105144676D01*
X142362348Y-105239163D01*
X142356041Y-105250900D01*
X142354279Y-105256405D01*
X142354278Y-105256407D01*
X142328945Y-105335549D01*
X142292279Y-105450093D01*
X142291551Y-105455818D01*
X142269147Y-105631932D01*
X142265885Y-105657570D01*
X142266212Y-105663331D01*
X142266212Y-105663335D01*
X142270049Y-105730911D01*
X142275579Y-105828304D01*
X142276221Y-105831946D01*
X142276222Y-105831953D01*
X142352148Y-106262547D01*
X142488098Y-107033557D01*
X142529098Y-107183941D01*
X142531605Y-107189138D01*
X142531607Y-107189144D01*
X142615598Y-107363276D01*
X142627177Y-107433322D01*
X142599048Y-107498509D01*
X142540141Y-107538139D01*
X142469160Y-107539631D01*
X142413015Y-107507111D01*
X140162312Y-105256407D01*
X136799916Y-101894011D01*
X136765890Y-101831699D01*
X136763011Y-101804916D01*
X136763011Y-98436590D01*
X136783013Y-98368469D01*
X136836669Y-98321976D01*
X136906943Y-98311872D01*
X136971523Y-98341366D01*
X136991281Y-98365296D01*
X136992171Y-98364650D01*
X136996054Y-98369994D01*
X136999355Y-98375712D01*
X137003773Y-98380619D01*
X137003774Y-98380620D01*
X137122720Y-98512723D01*
X137127142Y-98517634D01*
X137281643Y-98629886D01*
X137287671Y-98632570D01*
X137287673Y-98632571D01*
X137450076Y-98704877D01*
X137456107Y-98707562D01*
X137549507Y-98727415D01*
X137636451Y-98745896D01*
X137636456Y-98745896D01*
X137642908Y-98747268D01*
X137833882Y-98747268D01*
X137840334Y-98745896D01*
X137840339Y-98745896D01*
X137927282Y-98727415D01*
X138020683Y-98707562D01*
X138026714Y-98704877D01*
X138189117Y-98632571D01*
X138189119Y-98632570D01*
X138195147Y-98629886D01*
X138280926Y-98567564D01*
X138354987Y-98543500D01*
X144031233Y-98543500D01*
X144042416Y-98544027D01*
X144049909Y-98545702D01*
X144057835Y-98545453D01*
X144057836Y-98545453D01*
X144117986Y-98543562D01*
X144121945Y-98543500D01*
X144149856Y-98543500D01*
X144153791Y-98543003D01*
X144153856Y-98542995D01*
X144165693Y-98542062D01*
X144197951Y-98541048D01*
X144201970Y-98540922D01*
X144209889Y-98540673D01*
X144229343Y-98535021D01*
X144248700Y-98531013D01*
X144260930Y-98529468D01*
X144260931Y-98529468D01*
X144268797Y-98528474D01*
X144276168Y-98525555D01*
X144276170Y-98525555D01*
X144309912Y-98512196D01*
X144321142Y-98508351D01*
X144355983Y-98498229D01*
X144355984Y-98498229D01*
X144363593Y-98496018D01*
X144370412Y-98491985D01*
X144370417Y-98491983D01*
X144381028Y-98485707D01*
X144398776Y-98477012D01*
X144417617Y-98469552D01*
X144453387Y-98443564D01*
X144463307Y-98437048D01*
X144494535Y-98418580D01*
X144494538Y-98418578D01*
X144501362Y-98414542D01*
X144515683Y-98400221D01*
X144530717Y-98387380D01*
X144540694Y-98380131D01*
X144547107Y-98375472D01*
X144575298Y-98341395D01*
X144583288Y-98332616D01*
X148220499Y-94695405D01*
X148282811Y-94661379D01*
X148309594Y-94658500D01*
X148365487Y-94658500D01*
X148371939Y-94657128D01*
X148371944Y-94657128D01*
X148458887Y-94638647D01*
X148552288Y-94618794D01*
X148558319Y-94616109D01*
X148720722Y-94543803D01*
X148720724Y-94543802D01*
X148726752Y-94541118D01*
X148881253Y-94428866D01*
X148929343Y-94375457D01*
X149004621Y-94291852D01*
X149004622Y-94291851D01*
X149009040Y-94286944D01*
X149093082Y-94141379D01*
X149101223Y-94127279D01*
X149101224Y-94127278D01*
X149104527Y-94121556D01*
X149163542Y-93939928D01*
X149166020Y-93916357D01*
X149182814Y-93756565D01*
X149183504Y-93750000D01*
X149178206Y-93699595D01*
X149164232Y-93566635D01*
X149164232Y-93566633D01*
X149163542Y-93560072D01*
X149104527Y-93378444D01*
X149095872Y-93363452D01*
X149034277Y-93256768D01*
X149009040Y-93213056D01*
X148954740Y-93152749D01*
X148885675Y-93076045D01*
X148885674Y-93076044D01*
X148881253Y-93071134D01*
X148747410Y-92973891D01*
X148732094Y-92962763D01*
X148732093Y-92962762D01*
X148726752Y-92958882D01*
X148720724Y-92956198D01*
X148720722Y-92956197D01*
X148558319Y-92883891D01*
X148558318Y-92883891D01*
X148552288Y-92881206D01*
X148400513Y-92848945D01*
X148338042Y-92815218D01*
X148303720Y-92753068D01*
X148308448Y-92682229D01*
X148324723Y-92651739D01*
X148329040Y-92646944D01*
X148424527Y-92481556D01*
X148483542Y-92299928D01*
X148490843Y-92230468D01*
X148502814Y-92116565D01*
X148503504Y-92110000D01*
X148496872Y-92046899D01*
X148489091Y-91972863D01*
X148501863Y-91903025D01*
X148525306Y-91870598D01*
X150445499Y-89950405D01*
X150507811Y-89916379D01*
X150534594Y-89913500D01*
X150916405Y-89913500D01*
X150984526Y-89933502D01*
X151031019Y-89987158D01*
X151041123Y-90057432D01*
X151011629Y-90122012D01*
X151005500Y-90128596D01*
X150517742Y-90616353D01*
X150509463Y-90623887D01*
X150502982Y-90628000D01*
X150467747Y-90665522D01*
X150456357Y-90677651D01*
X150453602Y-90680493D01*
X150433865Y-90700230D01*
X150431385Y-90703427D01*
X150423682Y-90712447D01*
X150393414Y-90744679D01*
X150389595Y-90751625D01*
X150389593Y-90751628D01*
X150383652Y-90762434D01*
X150372801Y-90778953D01*
X150360386Y-90794959D01*
X150357241Y-90802228D01*
X150357238Y-90802232D01*
X150342826Y-90835537D01*
X150337609Y-90846187D01*
X150316305Y-90884940D01*
X150314334Y-90892615D01*
X150314334Y-90892616D01*
X150311267Y-90904562D01*
X150304863Y-90923266D01*
X150301721Y-90930528D01*
X150296819Y-90941855D01*
X150295580Y-90949678D01*
X150295577Y-90949688D01*
X150289901Y-90985524D01*
X150287495Y-90997144D01*
X150279927Y-91026623D01*
X150276500Y-91039970D01*
X150276500Y-91060224D01*
X150274949Y-91079934D01*
X150271780Y-91099943D01*
X150272526Y-91107835D01*
X150275941Y-91143961D01*
X150276500Y-91155819D01*
X150276500Y-95168174D01*
X150256498Y-95236295D01*
X150202842Y-95282788D01*
X150132568Y-95292892D01*
X150099251Y-95283281D01*
X149988319Y-95233891D01*
X149988318Y-95233891D01*
X149982288Y-95231206D01*
X149888888Y-95211353D01*
X149801944Y-95192872D01*
X149801939Y-95192872D01*
X149795487Y-95191500D01*
X149604513Y-95191500D01*
X149598061Y-95192872D01*
X149598056Y-95192872D01*
X149511113Y-95211353D01*
X149417712Y-95231206D01*
X149411682Y-95233891D01*
X149411681Y-95233891D01*
X149249278Y-95306197D01*
X149249276Y-95306198D01*
X149243248Y-95308882D01*
X149088747Y-95421134D01*
X148960960Y-95563056D01*
X148957659Y-95568774D01*
X148890508Y-95685083D01*
X148865473Y-95728444D01*
X148806458Y-95910072D01*
X148786496Y-96100000D01*
X148787186Y-96106565D01*
X148805047Y-96276500D01*
X148806458Y-96289928D01*
X148865473Y-96471556D01*
X148960960Y-96636944D01*
X148965378Y-96641851D01*
X148965379Y-96641852D01*
X149035626Y-96719869D01*
X149066967Y-96788156D01*
X149066977Y-96788234D01*
X149067938Y-96800293D01*
X149069327Y-96844489D01*
X149074978Y-96863939D01*
X149078987Y-96883300D01*
X149081526Y-96903397D01*
X149084445Y-96910768D01*
X149084445Y-96910770D01*
X149097804Y-96944512D01*
X149101649Y-96955742D01*
X149111771Y-96990583D01*
X149113982Y-96998193D01*
X149118015Y-97005012D01*
X149118017Y-97005017D01*
X149124293Y-97015628D01*
X149132988Y-97033376D01*
X149140448Y-97052217D01*
X149145110Y-97058633D01*
X149145110Y-97058634D01*
X149166436Y-97087987D01*
X149172952Y-97097907D01*
X149181028Y-97111562D01*
X149195458Y-97135962D01*
X149209779Y-97150283D01*
X149222619Y-97165316D01*
X149234528Y-97181707D01*
X149240634Y-97186758D01*
X149268605Y-97209898D01*
X149277384Y-97217888D01*
X150106244Y-98046748D01*
X150113788Y-98055038D01*
X150117901Y-98061519D01*
X150123678Y-98066944D01*
X150167568Y-98108159D01*
X150170410Y-98110914D01*
X150190131Y-98130635D01*
X150193326Y-98133113D01*
X150202348Y-98140819D01*
X150234580Y-98171087D01*
X150241433Y-98174854D01*
X150256334Y-98187582D01*
X153604707Y-101535956D01*
X153638733Y-101598268D01*
X153633668Y-101669084D01*
X153591121Y-101725919D01*
X153538409Y-101748740D01*
X153535579Y-101748988D01*
X153530279Y-101750408D01*
X153530274Y-101750409D01*
X153405683Y-101783794D01*
X153322874Y-101805983D01*
X153267726Y-101831699D01*
X153128284Y-101896721D01*
X153128279Y-101896724D01*
X153123297Y-101899047D01*
X153118790Y-101902203D01*
X153118788Y-101902204D01*
X152947423Y-102022195D01*
X152947420Y-102022197D01*
X152942912Y-102025354D01*
X152787201Y-102181065D01*
X152784044Y-102185573D01*
X152784042Y-102185576D01*
X152694837Y-102312974D01*
X152639380Y-102357302D01*
X152568760Y-102364611D01*
X152519353Y-102343916D01*
X152414420Y-102270441D01*
X152387444Y-102251552D01*
X152187866Y-102158488D01*
X151975161Y-102101493D01*
X151755790Y-102082301D01*
X151536419Y-102101493D01*
X151323714Y-102158488D01*
X151230352Y-102202023D01*
X151129124Y-102249226D01*
X151129119Y-102249229D01*
X151124137Y-102251552D01*
X151119630Y-102254708D01*
X151119628Y-102254709D01*
X150948263Y-102374700D01*
X150948260Y-102374702D01*
X150943752Y-102377859D01*
X150788041Y-102533570D01*
X150784883Y-102538080D01*
X150784878Y-102538086D01*
X150695677Y-102665479D01*
X150640220Y-102709808D01*
X150569601Y-102717117D01*
X150520193Y-102696422D01*
X150403058Y-102614403D01*
X150388284Y-102604058D01*
X150188706Y-102510994D01*
X149976001Y-102453999D01*
X149756630Y-102434807D01*
X149537259Y-102453999D01*
X149324554Y-102510994D01*
X149231192Y-102554529D01*
X149129964Y-102601732D01*
X149129959Y-102601735D01*
X149124977Y-102604058D01*
X149120470Y-102607214D01*
X149120468Y-102607215D01*
X148949103Y-102727206D01*
X148949100Y-102727208D01*
X148944592Y-102730365D01*
X148788881Y-102886076D01*
X148785723Y-102890586D01*
X148785718Y-102890592D01*
X148696517Y-103017985D01*
X148641060Y-103062314D01*
X148570441Y-103069623D01*
X148521033Y-103048928D01*
X148476842Y-103017985D01*
X148389124Y-102956564D01*
X148189546Y-102863500D01*
X147976841Y-102806505D01*
X147757470Y-102787313D01*
X147538099Y-102806505D01*
X147325394Y-102863500D01*
X147267295Y-102890592D01*
X147130804Y-102954238D01*
X147130799Y-102954241D01*
X147125817Y-102956564D01*
X147121310Y-102959720D01*
X147121308Y-102959721D01*
X146949943Y-103079712D01*
X146949940Y-103079714D01*
X146945432Y-103082871D01*
X146789721Y-103238582D01*
X146663414Y-103418967D01*
X146661091Y-103423949D01*
X146661088Y-103423954D01*
X146613885Y-103525182D01*
X146570350Y-103618544D01*
X146513355Y-103831249D01*
X146494163Y-104050620D01*
X146513355Y-104269991D01*
X146570350Y-104482696D01*
X146605169Y-104557365D01*
X146661088Y-104677286D01*
X146661091Y-104677291D01*
X146663414Y-104682273D01*
X146666570Y-104686780D01*
X146666571Y-104686782D01*
X146673561Y-104696764D01*
X146789721Y-104862658D01*
X146945432Y-105018369D01*
X147125816Y-105144676D01*
X147325394Y-105237740D01*
X147538099Y-105294735D01*
X147624601Y-105302303D01*
X147708992Y-105309686D01*
X147775111Y-105335549D01*
X147816750Y-105393053D01*
X147823532Y-105446188D01*
X147820571Y-105480029D01*
X147807761Y-105626457D01*
X147826953Y-105845828D01*
X147883948Y-106058533D01*
X147903288Y-106100008D01*
X147974686Y-106253123D01*
X147974689Y-106253128D01*
X147977012Y-106258110D01*
X147980168Y-106262617D01*
X147980169Y-106262619D01*
X148070472Y-106391584D01*
X148103319Y-106438495D01*
X148259030Y-106594206D01*
X148263539Y-106597363D01*
X148263541Y-106597365D01*
X148320334Y-106637132D01*
X148439414Y-106720513D01*
X148638992Y-106813577D01*
X148851697Y-106870572D01*
X149071068Y-106889764D01*
X149290439Y-106870572D01*
X149305624Y-106866503D01*
X149321785Y-106862173D01*
X149392762Y-106863863D01*
X149443491Y-106894785D01*
X151499495Y-108950789D01*
X151507035Y-108959075D01*
X151511147Y-108965554D01*
X151516924Y-108970979D01*
X151560798Y-109012179D01*
X151563640Y-109014934D01*
X151583377Y-109034671D01*
X151586574Y-109037151D01*
X151595594Y-109044854D01*
X151627826Y-109075122D01*
X151634772Y-109078941D01*
X151634775Y-109078943D01*
X151645581Y-109084884D01*
X151662100Y-109095735D01*
X151678106Y-109108150D01*
X151685375Y-109111295D01*
X151685379Y-109111298D01*
X151718684Y-109125710D01*
X151729334Y-109130927D01*
X151768087Y-109152231D01*
X151775762Y-109154202D01*
X151775763Y-109154202D01*
X151787709Y-109157269D01*
X151806414Y-109163673D01*
X151825002Y-109171717D01*
X151832825Y-109172956D01*
X151832835Y-109172959D01*
X151868671Y-109178635D01*
X151880291Y-109181041D01*
X151912106Y-109189209D01*
X151923117Y-109192036D01*
X151943371Y-109192036D01*
X151963081Y-109193587D01*
X151983090Y-109196756D01*
X151990982Y-109196010D01*
X152009727Y-109194238D01*
X152027109Y-109192595D01*
X152038966Y-109192036D01*
X159006872Y-109192036D01*
X159018055Y-109192563D01*
X159025548Y-109194238D01*
X159033474Y-109193989D01*
X159033475Y-109193989D01*
X159093625Y-109192098D01*
X159097584Y-109192036D01*
X159125495Y-109192036D01*
X159129430Y-109191539D01*
X159129495Y-109191531D01*
X159141332Y-109190598D01*
X159173590Y-109189584D01*
X159177609Y-109189458D01*
X159185528Y-109189209D01*
X159204982Y-109183557D01*
X159224339Y-109179549D01*
X159236569Y-109178004D01*
X159236570Y-109178004D01*
X159244436Y-109177010D01*
X159251807Y-109174091D01*
X159251809Y-109174091D01*
X159285551Y-109160732D01*
X159296781Y-109156887D01*
X159331622Y-109146765D01*
X159331623Y-109146765D01*
X159339232Y-109144554D01*
X159346051Y-109140521D01*
X159346056Y-109140519D01*
X159356667Y-109134243D01*
X159374415Y-109125548D01*
X159393256Y-109118088D01*
X159429026Y-109092100D01*
X159438946Y-109085584D01*
X159470174Y-109067116D01*
X159470177Y-109067114D01*
X159477001Y-109063078D01*
X159491322Y-109048757D01*
X159506356Y-109035916D01*
X159516333Y-109028667D01*
X159522746Y-109024008D01*
X159550937Y-108989931D01*
X159558927Y-108981152D01*
X162142247Y-106397832D01*
X162150537Y-106390288D01*
X162157018Y-106386175D01*
X162203659Y-106336507D01*
X162206413Y-106333666D01*
X162226134Y-106313945D01*
X162228612Y-106310750D01*
X162236318Y-106301728D01*
X162261158Y-106275276D01*
X162266586Y-106269496D01*
X162276346Y-106251743D01*
X162287199Y-106235220D01*
X162294753Y-106225481D01*
X162299613Y-106219216D01*
X162317176Y-106178632D01*
X162322383Y-106168002D01*
X162343695Y-106129235D01*
X162345666Y-106121558D01*
X162345668Y-106121553D01*
X162348732Y-106109617D01*
X162355138Y-106090905D01*
X162360034Y-106079592D01*
X162363181Y-106072320D01*
X162370097Y-106028656D01*
X162372504Y-106017035D01*
X162381528Y-105981886D01*
X162381528Y-105981885D01*
X162383500Y-105974205D01*
X162383500Y-105953944D01*
X162385051Y-105934233D01*
X162386979Y-105922060D01*
X162388219Y-105914232D01*
X162384059Y-105870221D01*
X162383500Y-105858364D01*
X162383500Y-102682524D01*
X162403502Y-102614403D01*
X162415858Y-102598221D01*
X162489040Y-102516944D01*
X162584527Y-102351556D01*
X162643542Y-102169928D01*
X162644239Y-102163302D01*
X162662814Y-101986565D01*
X162663504Y-101980000D01*
X162650912Y-101860194D01*
X162644232Y-101796635D01*
X162644232Y-101796633D01*
X162643542Y-101790072D01*
X162584527Y-101608444D01*
X162489040Y-101443056D01*
X162361253Y-101301134D01*
X162206752Y-101188882D01*
X162200724Y-101186198D01*
X162200722Y-101186197D01*
X162038319Y-101113891D01*
X162038318Y-101113891D01*
X162032288Y-101111206D01*
X161938887Y-101091353D01*
X161851944Y-101072872D01*
X161851939Y-101072872D01*
X161845487Y-101071500D01*
X161789595Y-101071500D01*
X161721474Y-101051498D01*
X161700500Y-101034595D01*
X161493652Y-100827747D01*
X161486112Y-100819461D01*
X161482000Y-100812982D01*
X161432348Y-100766356D01*
X161429507Y-100763602D01*
X161409770Y-100743865D01*
X161406573Y-100741385D01*
X161397551Y-100733680D01*
X161371100Y-100708841D01*
X161365321Y-100703414D01*
X161358375Y-100699595D01*
X161358372Y-100699593D01*
X161347566Y-100693652D01*
X161331047Y-100682801D01*
X161330583Y-100682441D01*
X161315041Y-100670386D01*
X161307772Y-100667241D01*
X161307768Y-100667238D01*
X161274463Y-100652826D01*
X161263813Y-100647609D01*
X161225060Y-100626305D01*
X161205437Y-100621267D01*
X161186734Y-100614863D01*
X161175420Y-100609967D01*
X161175419Y-100609967D01*
X161168145Y-100606819D01*
X161160322Y-100605580D01*
X161160312Y-100605577D01*
X161124476Y-100599901D01*
X161112856Y-100597495D01*
X161077711Y-100588472D01*
X161077710Y-100588472D01*
X161070030Y-100586500D01*
X161049776Y-100586500D01*
X161030065Y-100584949D01*
X161017886Y-100583020D01*
X161010057Y-100581780D01*
X161002165Y-100582526D01*
X160966039Y-100585941D01*
X160954181Y-100586500D01*
X155514595Y-100586500D01*
X155446474Y-100566498D01*
X155425500Y-100549595D01*
X151857122Y-96981217D01*
X151823096Y-96918905D01*
X151820907Y-96905292D01*
X151804232Y-96746635D01*
X151804232Y-96746633D01*
X151803542Y-96740072D01*
X151744527Y-96558444D01*
X151649040Y-96393056D01*
X151575863Y-96311785D01*
X151545147Y-96247779D01*
X151543500Y-96227476D01*
X151543500Y-93237128D01*
X151563502Y-93169007D01*
X151617158Y-93122514D01*
X151687432Y-93112410D01*
X151753812Y-93143493D01*
X151754325Y-93143955D01*
X151758747Y-93148866D01*
X151782392Y-93166045D01*
X151907261Y-93256768D01*
X151913248Y-93261118D01*
X151919276Y-93263802D01*
X151919278Y-93263803D01*
X152078409Y-93334652D01*
X152087712Y-93338794D01*
X152181113Y-93358647D01*
X152268056Y-93377128D01*
X152268061Y-93377128D01*
X152274513Y-93378500D01*
X152330406Y-93378500D01*
X152398527Y-93398502D01*
X152419501Y-93415405D01*
X156366348Y-97362253D01*
X156373888Y-97370539D01*
X156378000Y-97377018D01*
X156383777Y-97382443D01*
X156427651Y-97423643D01*
X156430493Y-97426398D01*
X156450230Y-97446135D01*
X156453427Y-97448615D01*
X156462447Y-97456318D01*
X156494679Y-97486586D01*
X156501625Y-97490405D01*
X156501628Y-97490407D01*
X156512434Y-97496348D01*
X156528953Y-97507199D01*
X156544959Y-97519614D01*
X156552228Y-97522759D01*
X156552232Y-97522762D01*
X156585537Y-97537174D01*
X156596187Y-97542391D01*
X156634940Y-97563695D01*
X156642615Y-97565666D01*
X156642616Y-97565666D01*
X156654562Y-97568733D01*
X156673267Y-97575137D01*
X156691855Y-97583181D01*
X156699678Y-97584420D01*
X156699688Y-97584423D01*
X156735524Y-97590099D01*
X156747144Y-97592505D01*
X156782289Y-97601528D01*
X156789970Y-97603500D01*
X156810224Y-97603500D01*
X156829934Y-97605051D01*
X156849943Y-97608220D01*
X156857835Y-97607474D01*
X156893961Y-97604059D01*
X156905819Y-97603500D01*
X160431800Y-97603500D01*
X160499921Y-97623502D01*
X160519147Y-97639843D01*
X160519420Y-97639540D01*
X160524332Y-97643963D01*
X160528747Y-97648866D01*
X160683248Y-97761118D01*
X160689276Y-97763802D01*
X160689278Y-97763803D01*
X160851681Y-97836109D01*
X160857712Y-97838794D01*
X160951113Y-97858647D01*
X161038056Y-97877128D01*
X161038061Y-97877128D01*
X161044513Y-97878500D01*
X161235487Y-97878500D01*
X161241939Y-97877128D01*
X161241944Y-97877128D01*
X161328887Y-97858647D01*
X161422288Y-97838794D01*
X161428319Y-97836109D01*
X161590722Y-97763803D01*
X161590724Y-97763802D01*
X161596752Y-97761118D01*
X161751253Y-97648866D01*
X161787851Y-97608220D01*
X161874621Y-97511852D01*
X161874622Y-97511851D01*
X161879040Y-97506944D01*
X161974527Y-97341556D01*
X162033542Y-97159928D01*
X162036779Y-97129135D01*
X162052814Y-96976565D01*
X162053504Y-96970000D01*
X162044392Y-96883300D01*
X162034232Y-96786635D01*
X162034232Y-96786633D01*
X162033542Y-96780072D01*
X161974527Y-96598444D01*
X161879040Y-96433056D01*
X161871543Y-96424729D01*
X161755675Y-96296045D01*
X161755674Y-96296044D01*
X161751253Y-96291134D01*
X161596752Y-96178882D01*
X161590724Y-96176198D01*
X161590722Y-96176197D01*
X161428319Y-96103891D01*
X161428318Y-96103891D01*
X161422288Y-96101206D01*
X161328888Y-96081353D01*
X161241944Y-96062872D01*
X161241939Y-96062872D01*
X161235487Y-96061500D01*
X161044513Y-96061500D01*
X161038061Y-96062872D01*
X161038056Y-96062872D01*
X160951112Y-96081353D01*
X160857712Y-96101206D01*
X160851682Y-96103891D01*
X160851681Y-96103891D01*
X160689278Y-96176197D01*
X160689276Y-96176198D01*
X160683248Y-96178882D01*
X160677907Y-96182762D01*
X160677906Y-96182763D01*
X160552851Y-96273621D01*
X160528747Y-96291134D01*
X160524332Y-96296037D01*
X160519420Y-96300460D01*
X160518295Y-96299211D01*
X160464986Y-96332051D01*
X160431800Y-96336500D01*
X157184594Y-96336500D01*
X157116473Y-96316498D01*
X157095499Y-96299595D01*
X156014499Y-95218595D01*
X155980473Y-95156283D01*
X155985538Y-95085468D01*
X156028085Y-95028632D01*
X156094605Y-95003821D01*
X156103594Y-95003500D01*
X169600500Y-95003500D01*
X169668621Y-95023502D01*
X169715114Y-95077158D01*
X169726500Y-95129500D01*
X169726500Y-96087476D01*
X169706498Y-96155597D01*
X169694142Y-96171779D01*
X169620960Y-96253056D01*
X169562686Y-96353990D01*
X169536830Y-96398774D01*
X169525473Y-96418444D01*
X169466458Y-96600072D01*
X169465768Y-96606633D01*
X169465768Y-96606635D01*
X169462067Y-96641852D01*
X169446496Y-96790000D01*
X169447186Y-96796565D01*
X169465415Y-96970000D01*
X169466458Y-96979928D01*
X169525473Y-97161556D01*
X169528776Y-97167278D01*
X169528777Y-97167279D01*
X169537107Y-97181707D01*
X169620960Y-97326944D01*
X169625378Y-97331851D01*
X169625379Y-97331852D01*
X169744325Y-97463955D01*
X169748747Y-97468866D01*
X169822928Y-97522762D01*
X169889596Y-97571199D01*
X169903248Y-97581118D01*
X169909276Y-97583802D01*
X169909278Y-97583803D01*
X170071681Y-97656109D01*
X170077712Y-97658794D01*
X170171113Y-97678647D01*
X170258056Y-97697128D01*
X170258061Y-97697128D01*
X170264513Y-97698500D01*
X170455487Y-97698500D01*
X170461939Y-97697128D01*
X170461944Y-97697128D01*
X170548888Y-97678647D01*
X170642288Y-97658794D01*
X170648319Y-97656109D01*
X170810722Y-97583803D01*
X170810724Y-97583802D01*
X170816752Y-97581118D01*
X170830405Y-97571199D01*
X170897072Y-97522762D01*
X170971253Y-97468866D01*
X170975675Y-97463955D01*
X171094621Y-97331852D01*
X171094622Y-97331851D01*
X171099040Y-97326944D01*
X171182893Y-97181707D01*
X171191223Y-97167279D01*
X171191224Y-97167278D01*
X171194527Y-97161556D01*
X171253542Y-96979928D01*
X171254586Y-96970000D01*
X171272814Y-96796565D01*
X171273504Y-96790000D01*
X171257933Y-96641852D01*
X171254232Y-96606635D01*
X171254232Y-96606633D01*
X171253542Y-96600072D01*
X171194527Y-96418444D01*
X171183171Y-96398774D01*
X171157314Y-96353990D01*
X171099040Y-96253056D01*
X171025863Y-96171785D01*
X170995147Y-96107779D01*
X170993500Y-96087476D01*
X170993500Y-94838767D01*
X170994027Y-94827584D01*
X170995702Y-94820091D01*
X170993562Y-94752014D01*
X170993500Y-94748055D01*
X170993500Y-94720144D01*
X170992995Y-94716144D01*
X170992062Y-94704301D01*
X170991783Y-94695405D01*
X170990673Y-94660110D01*
X170985022Y-94640658D01*
X170981014Y-94621306D01*
X170979467Y-94609063D01*
X170978474Y-94601203D01*
X170975556Y-94593832D01*
X170962200Y-94560097D01*
X170958355Y-94548870D01*
X170954975Y-94537237D01*
X170946018Y-94506407D01*
X170941984Y-94499585D01*
X170941981Y-94499579D01*
X170935706Y-94488968D01*
X170927010Y-94471218D01*
X170922472Y-94459756D01*
X170922469Y-94459751D01*
X170919552Y-94452383D01*
X170893573Y-94416625D01*
X170887057Y-94406707D01*
X170868575Y-94375457D01*
X170864542Y-94368637D01*
X170850218Y-94354313D01*
X170837376Y-94339278D01*
X170825472Y-94322893D01*
X170791406Y-94294711D01*
X170782627Y-94286722D01*
X170473652Y-93977747D01*
X170466112Y-93969461D01*
X170462000Y-93962982D01*
X170412348Y-93916356D01*
X170409507Y-93913602D01*
X170389770Y-93893865D01*
X170386573Y-93891385D01*
X170377551Y-93883680D01*
X170351100Y-93858841D01*
X170345321Y-93853414D01*
X170338375Y-93849595D01*
X170338372Y-93849593D01*
X170327566Y-93843652D01*
X170311047Y-93832801D01*
X170310583Y-93832441D01*
X170295041Y-93820386D01*
X170287772Y-93817241D01*
X170287768Y-93817238D01*
X170254463Y-93802826D01*
X170243813Y-93797609D01*
X170205060Y-93776305D01*
X170185437Y-93771267D01*
X170166734Y-93764863D01*
X170155420Y-93759967D01*
X170155419Y-93759967D01*
X170148145Y-93756819D01*
X170140322Y-93755580D01*
X170140312Y-93755577D01*
X170104476Y-93749901D01*
X170092856Y-93747495D01*
X170057711Y-93738472D01*
X170057710Y-93738472D01*
X170050030Y-93736500D01*
X170029776Y-93736500D01*
X170010065Y-93734949D01*
X169997886Y-93733020D01*
X169990057Y-93731780D01*
X169982165Y-93732526D01*
X169946039Y-93735941D01*
X169934181Y-93736500D01*
X165950288Y-93736500D01*
X165882167Y-93716498D01*
X165835674Y-93662842D01*
X165825570Y-93592568D01*
X165855064Y-93527988D01*
X165914790Y-93489604D01*
X165934496Y-93485494D01*
X165946409Y-93483989D01*
X165946410Y-93483989D01*
X165954276Y-93482995D01*
X165961647Y-93480076D01*
X165961649Y-93480076D01*
X165995391Y-93466717D01*
X166006621Y-93462872D01*
X166041462Y-93452750D01*
X166041463Y-93452750D01*
X166049072Y-93450539D01*
X166055891Y-93446506D01*
X166055896Y-93446504D01*
X166066507Y-93440228D01*
X166084255Y-93431533D01*
X166103096Y-93424073D01*
X166123466Y-93409274D01*
X166138866Y-93398085D01*
X166148786Y-93391569D01*
X166180014Y-93373101D01*
X166180017Y-93373099D01*
X166186841Y-93369063D01*
X166201162Y-93354742D01*
X166216196Y-93341901D01*
X166218584Y-93340166D01*
X166232586Y-93329993D01*
X166260777Y-93295916D01*
X166268767Y-93287137D01*
X168199905Y-91356000D01*
X168262217Y-91321974D01*
X168326364Y-91324763D01*
X168472125Y-91370023D01*
X168472127Y-91370024D01*
X168477227Y-91371607D01*
X168482516Y-91372308D01*
X168700489Y-91401198D01*
X168700494Y-91401198D01*
X168705774Y-91401898D01*
X168711103Y-91401698D01*
X168711105Y-91401698D01*
X168820966Y-91397574D01*
X168936158Y-91393249D01*
X169161791Y-91345907D01*
X169166750Y-91343949D01*
X169166752Y-91343948D01*
X169371256Y-91263185D01*
X169371258Y-91263184D01*
X169376221Y-91261224D01*
X169573317Y-91141623D01*
X169637219Y-91086172D01*
X169743412Y-90994023D01*
X169743414Y-90994021D01*
X169747445Y-90990523D01*
X169786066Y-90943421D01*
X169890240Y-90816373D01*
X169890244Y-90816367D01*
X169893624Y-90812245D01*
X169901364Y-90798649D01*
X170005032Y-90616529D01*
X170007675Y-90611886D01*
X170086337Y-90395175D01*
X170087287Y-90389923D01*
X170126623Y-90172392D01*
X170126624Y-90172385D01*
X170127361Y-90168308D01*
X170128500Y-90144156D01*
X170128500Y-89682110D01*
X170118742Y-89567110D01*
X170114371Y-89515591D01*
X170114370Y-89515587D01*
X170113920Y-89510280D01*
X170112582Y-89505125D01*
X170112581Y-89505119D01*
X170057343Y-89292297D01*
X170057342Y-89292293D01*
X170056001Y-89287128D01*
X170050573Y-89275077D01*
X169963507Y-89081798D01*
X169961312Y-89076925D01*
X169832559Y-88885681D01*
X169828573Y-88881502D01*
X169754510Y-88803865D01*
X169673424Y-88718865D01*
X169665531Y-88712992D01*
X169492740Y-88584432D01*
X169492741Y-88584432D01*
X169488458Y-88581246D01*
X169483707Y-88578830D01*
X169483703Y-88578828D01*
X169365588Y-88518776D01*
X169282949Y-88476760D01*
X169277855Y-88475178D01*
X169277852Y-88475177D01*
X169067871Y-88409976D01*
X169062773Y-88408393D01*
X169013142Y-88401815D01*
X168839511Y-88378802D01*
X168839506Y-88378802D01*
X168834226Y-88378102D01*
X168828897Y-88378302D01*
X168828895Y-88378302D01*
X168719034Y-88382426D01*
X168603842Y-88386751D01*
X168378209Y-88434093D01*
X168373250Y-88436051D01*
X168373248Y-88436052D01*
X168168744Y-88516815D01*
X168168742Y-88516816D01*
X168163779Y-88518776D01*
X168159220Y-88521543D01*
X168159217Y-88521544D01*
X168060832Y-88581246D01*
X167966683Y-88638377D01*
X167962653Y-88641874D01*
X167802247Y-88781067D01*
X167792555Y-88789477D01*
X167767008Y-88820634D01*
X167649760Y-88963627D01*
X167649756Y-88963633D01*
X167646376Y-88967755D01*
X167643737Y-88972391D01*
X167643735Y-88972394D01*
X167578770Y-89086522D01*
X167532325Y-89168114D01*
X167453663Y-89384825D01*
X167452714Y-89390074D01*
X167452713Y-89390077D01*
X167413377Y-89607608D01*
X167413376Y-89607615D01*
X167412639Y-89611692D01*
X167411500Y-89635844D01*
X167411500Y-90097890D01*
X167416322Y-90154720D01*
X167426080Y-90269720D01*
X167424710Y-90269836D01*
X167417221Y-90333933D01*
X167390356Y-90373739D01*
X165981574Y-91782521D01*
X165919262Y-91816547D01*
X165848447Y-91811482D01*
X165791611Y-91768935D01*
X165769986Y-91722947D01*
X165724281Y-91533299D01*
X165724280Y-91533297D01*
X165722875Y-91527466D01*
X165679525Y-91432122D01*
X165656379Y-91381217D01*
X165635326Y-91334913D01*
X165512946Y-91162389D01*
X165360150Y-91016119D01*
X165182452Y-90901380D01*
X165108042Y-90871392D01*
X164991832Y-90824558D01*
X164991829Y-90824557D01*
X164986263Y-90822314D01*
X164778663Y-90781772D01*
X164773101Y-90781500D01*
X164617154Y-90781500D01*
X164459434Y-90796548D01*
X164256466Y-90856092D01*
X164251139Y-90858836D01*
X164251138Y-90858836D01*
X164073751Y-90950196D01*
X164073748Y-90950198D01*
X164068420Y-90952942D01*
X163902080Y-91083604D01*
X163898148Y-91088135D01*
X163898145Y-91088138D01*
X163811281Y-91188240D01*
X163763448Y-91243363D01*
X163760448Y-91248549D01*
X163760445Y-91248553D01*
X163704114Y-91345925D01*
X163657527Y-91426454D01*
X163588139Y-91626271D01*
X163587278Y-91632206D01*
X163587278Y-91632208D01*
X163561285Y-91811482D01*
X163557787Y-91835604D01*
X163567567Y-92046899D01*
X163568971Y-92052724D01*
X163568971Y-92052725D01*
X163574460Y-92075500D01*
X163570975Y-92146411D01*
X163529706Y-92204181D01*
X163463755Y-92230468D01*
X163451967Y-92231021D01*
X157499116Y-92231021D01*
X157430995Y-92211019D01*
X157410021Y-92194116D01*
X155198795Y-89982890D01*
X157441500Y-89982890D01*
X157441725Y-89985539D01*
X157455184Y-90144156D01*
X157456080Y-90154720D01*
X157457418Y-90159875D01*
X157457419Y-90159881D01*
X157512657Y-90372703D01*
X157513999Y-90377872D01*
X157516191Y-90382738D01*
X157516192Y-90382741D01*
X157560874Y-90481931D01*
X157608688Y-90588075D01*
X157737441Y-90779319D01*
X157741120Y-90783176D01*
X157741122Y-90783178D01*
X157768851Y-90812245D01*
X157896576Y-90946135D01*
X158081542Y-91083754D01*
X158086293Y-91086170D01*
X158086297Y-91086172D01*
X158184296Y-91135997D01*
X158287051Y-91188240D01*
X158292145Y-91189822D01*
X158292148Y-91189823D01*
X158449986Y-91238833D01*
X158507227Y-91256607D01*
X158512516Y-91257308D01*
X158730489Y-91286198D01*
X158730494Y-91286198D01*
X158735774Y-91286898D01*
X158741103Y-91286698D01*
X158741105Y-91286698D01*
X158850966Y-91282573D01*
X158966158Y-91278249D01*
X159191791Y-91230907D01*
X159196750Y-91228949D01*
X159196752Y-91228948D01*
X159401256Y-91148185D01*
X159401258Y-91148184D01*
X159406221Y-91146224D01*
X159412456Y-91142441D01*
X159598757Y-91029390D01*
X159598756Y-91029390D01*
X159603317Y-91026623D01*
X159692008Y-90949661D01*
X159773412Y-90879023D01*
X159773414Y-90879021D01*
X159777445Y-90875523D01*
X159837540Y-90802232D01*
X159920240Y-90701373D01*
X159920244Y-90701367D01*
X159923624Y-90697245D01*
X159947077Y-90656045D01*
X160035032Y-90501529D01*
X160037675Y-90496886D01*
X160116337Y-90280175D01*
X160126096Y-90226206D01*
X160156623Y-90057392D01*
X160156624Y-90057385D01*
X160157361Y-90053308D01*
X160158500Y-90029156D01*
X160158500Y-89567110D01*
X160143920Y-89395280D01*
X160142582Y-89390125D01*
X160142581Y-89390119D01*
X160087343Y-89177297D01*
X160087342Y-89177293D01*
X160086001Y-89172128D01*
X160082102Y-89163471D01*
X159993507Y-88966798D01*
X159991312Y-88961925D01*
X159862559Y-88770681D01*
X159845648Y-88752953D01*
X159756009Y-88658988D01*
X159703424Y-88603865D01*
X159518458Y-88466246D01*
X159513707Y-88463830D01*
X159513703Y-88463828D01*
X159364256Y-88387846D01*
X159312949Y-88361760D01*
X159307855Y-88360178D01*
X159307852Y-88360177D01*
X159097871Y-88294976D01*
X159092773Y-88293393D01*
X159070885Y-88290492D01*
X158869511Y-88263802D01*
X158869506Y-88263802D01*
X158864226Y-88263102D01*
X158858897Y-88263302D01*
X158858895Y-88263302D01*
X158749034Y-88267427D01*
X158633842Y-88271751D01*
X158408209Y-88319093D01*
X158403250Y-88321051D01*
X158403248Y-88321052D01*
X158198744Y-88401815D01*
X158198742Y-88401816D01*
X158193779Y-88403776D01*
X158189220Y-88406543D01*
X158189217Y-88406544D01*
X158041724Y-88496045D01*
X157996683Y-88523377D01*
X157992653Y-88526874D01*
X157837480Y-88661526D01*
X157822555Y-88674477D01*
X157819168Y-88678608D01*
X157679760Y-88848627D01*
X157679756Y-88848633D01*
X157676376Y-88852755D01*
X157673737Y-88857391D01*
X157673735Y-88857394D01*
X157579423Y-89023076D01*
X157562325Y-89053114D01*
X157483663Y-89269825D01*
X157482714Y-89275074D01*
X157482713Y-89275077D01*
X157443377Y-89492608D01*
X157443376Y-89492615D01*
X157442639Y-89496692D01*
X157441500Y-89520844D01*
X157441500Y-89982890D01*
X155198795Y-89982890D01*
X154103652Y-88887747D01*
X154096112Y-88879461D01*
X154092000Y-88872982D01*
X154042348Y-88826356D01*
X154039507Y-88823602D01*
X154019770Y-88803865D01*
X154016573Y-88801385D01*
X154007551Y-88793680D01*
X153975321Y-88763414D01*
X153968375Y-88759595D01*
X153968372Y-88759593D01*
X153957566Y-88753652D01*
X153941047Y-88742801D01*
X153940583Y-88742441D01*
X153925041Y-88730386D01*
X153917772Y-88727241D01*
X153917768Y-88727238D01*
X153884463Y-88712826D01*
X153873813Y-88707609D01*
X153835060Y-88686305D01*
X153815437Y-88681267D01*
X153796734Y-88674863D01*
X153785420Y-88669967D01*
X153785419Y-88669967D01*
X153778145Y-88666819D01*
X153770322Y-88665580D01*
X153770312Y-88665577D01*
X153734476Y-88659901D01*
X153722856Y-88657495D01*
X153687711Y-88648472D01*
X153687710Y-88648472D01*
X153680030Y-88646500D01*
X153659776Y-88646500D01*
X153640065Y-88644949D01*
X153627886Y-88643020D01*
X153620057Y-88641780D01*
X153590786Y-88644547D01*
X153576039Y-88645941D01*
X153564181Y-88646500D01*
X150298768Y-88646500D01*
X150287585Y-88645973D01*
X150280092Y-88644298D01*
X150272166Y-88644547D01*
X150272165Y-88644547D01*
X150212002Y-88646438D01*
X150208044Y-88646500D01*
X150180144Y-88646500D01*
X150176154Y-88647004D01*
X150164320Y-88647936D01*
X150120111Y-88649326D01*
X150112495Y-88651539D01*
X150112493Y-88651539D01*
X150100652Y-88654979D01*
X150081293Y-88658988D01*
X150079983Y-88659154D01*
X150061203Y-88661526D01*
X150053837Y-88664442D01*
X150053831Y-88664444D01*
X150020098Y-88677800D01*
X150008868Y-88681645D01*
X149992828Y-88686305D01*
X149966407Y-88693981D01*
X149959584Y-88698016D01*
X149948966Y-88704295D01*
X149931213Y-88712992D01*
X149924420Y-88715682D01*
X149912383Y-88720448D01*
X149898705Y-88730386D01*
X149876612Y-88746437D01*
X149866695Y-88752951D01*
X149828638Y-88775458D01*
X149814317Y-88789779D01*
X149799284Y-88802619D01*
X149782893Y-88814528D01*
X149774217Y-88825016D01*
X149754702Y-88848605D01*
X149746712Y-88857384D01*
X147404176Y-91199919D01*
X147341279Y-91234070D01*
X147314176Y-91239831D01*
X147314167Y-91239834D01*
X147307712Y-91241206D01*
X147301682Y-91243891D01*
X147301681Y-91243891D01*
X147139278Y-91316197D01*
X147139276Y-91316198D01*
X147133248Y-91318882D01*
X147127907Y-91322762D01*
X147127906Y-91322763D01*
X147111183Y-91334913D01*
X146978747Y-91431134D01*
X146974326Y-91436044D01*
X146974325Y-91436045D01*
X146898797Y-91519928D01*
X146850960Y-91573056D01*
X146755473Y-91738444D01*
X146696458Y-91920072D01*
X146695768Y-91926633D01*
X146695768Y-91926635D01*
X146689293Y-91988239D01*
X146676496Y-92110000D01*
X146677186Y-92116565D01*
X146689158Y-92230468D01*
X146696458Y-92299928D01*
X146755473Y-92481556D01*
X146850960Y-92646944D01*
X146941442Y-92747435D01*
X146972158Y-92811440D01*
X146963394Y-92881894D01*
X146917932Y-92936425D01*
X146874002Y-92954990D01*
X146797712Y-92971206D01*
X146791682Y-92973891D01*
X146791681Y-92973891D01*
X146629278Y-93046197D01*
X146629276Y-93046198D01*
X146623248Y-93048882D01*
X146468747Y-93161134D01*
X146464326Y-93166044D01*
X146464325Y-93166045D01*
X146355294Y-93287137D01*
X146340960Y-93303056D01*
X146297435Y-93378444D01*
X146261764Y-93440228D01*
X146245473Y-93468444D01*
X146186458Y-93650072D01*
X146172790Y-93780121D01*
X146169093Y-93815293D01*
X146142080Y-93880950D01*
X146132878Y-93891218D01*
X143784500Y-96239595D01*
X143722188Y-96273621D01*
X143695405Y-96276500D01*
X142908200Y-96276500D01*
X142840079Y-96256498D01*
X142820853Y-96240157D01*
X142820580Y-96240460D01*
X142815668Y-96236037D01*
X142811253Y-96231134D01*
X142707286Y-96155597D01*
X142662094Y-96122763D01*
X142662093Y-96122762D01*
X142656752Y-96118882D01*
X142650724Y-96116198D01*
X142650722Y-96116197D01*
X142488319Y-96043891D01*
X142488318Y-96043891D01*
X142482288Y-96041206D01*
X142388887Y-96021353D01*
X142301944Y-96002872D01*
X142301939Y-96002872D01*
X142295487Y-96001500D01*
X142104513Y-96001500D01*
X142098061Y-96002872D01*
X142098056Y-96002872D01*
X142011113Y-96021353D01*
X141917712Y-96041206D01*
X141911682Y-96043891D01*
X141911681Y-96043891D01*
X141749278Y-96116197D01*
X141749276Y-96116198D01*
X141743248Y-96118882D01*
X141737907Y-96122762D01*
X141737906Y-96122763D01*
X141692714Y-96155597D01*
X141588747Y-96231134D01*
X141584326Y-96236044D01*
X141584325Y-96236045D01*
X141527105Y-96299595D01*
X141460960Y-96373056D01*
X141365473Y-96538444D01*
X141306458Y-96720072D01*
X141286496Y-96910000D01*
X141287186Y-96916565D01*
X141296483Y-97005017D01*
X141306458Y-97099928D01*
X141308497Y-97106203D01*
X141308498Y-97106208D01*
X141310238Y-97111562D01*
X141312267Y-97182529D01*
X141275606Y-97243328D01*
X141211894Y-97274654D01*
X141190406Y-97276500D01*
X138510731Y-97276500D01*
X138442610Y-97256498D01*
X138417099Y-97234815D01*
X138349648Y-97159902D01*
X138195147Y-97047650D01*
X138189119Y-97044966D01*
X138189117Y-97044965D01*
X138026714Y-96972659D01*
X138026713Y-96972659D01*
X138020683Y-96969974D01*
X137926859Y-96950031D01*
X137840339Y-96931640D01*
X137840334Y-96931640D01*
X137833882Y-96930268D01*
X137642908Y-96930268D01*
X137636456Y-96931640D01*
X137636451Y-96931640D01*
X137549931Y-96950031D01*
X137456107Y-96969974D01*
X137450077Y-96972659D01*
X137450076Y-96972659D01*
X137287673Y-97044965D01*
X137287671Y-97044966D01*
X137281643Y-97047650D01*
X137127142Y-97159902D01*
X137122721Y-97164812D01*
X137122720Y-97164813D01*
X137059695Y-97234810D01*
X136999355Y-97301824D01*
X136996054Y-97307542D01*
X136992171Y-97312886D01*
X136990231Y-97311476D01*
X136946753Y-97352936D01*
X136877040Y-97366376D01*
X136811128Y-97339992D01*
X136769943Y-97282162D01*
X136763011Y-97240946D01*
X136763011Y-95685083D01*
X136783013Y-95616962D01*
X136799916Y-95595988D01*
X138220499Y-94175405D01*
X138282811Y-94141379D01*
X138309594Y-94138500D01*
X138365487Y-94138500D01*
X138371939Y-94137128D01*
X138371944Y-94137128D01*
X138474770Y-94115271D01*
X138552288Y-94098794D01*
X138558319Y-94096109D01*
X138720722Y-94023803D01*
X138720724Y-94023802D01*
X138726752Y-94021118D01*
X138881253Y-93908866D01*
X138897143Y-93891218D01*
X139004621Y-93771852D01*
X139004622Y-93771851D01*
X139009040Y-93766944D01*
X139104527Y-93601556D01*
X139163542Y-93419928D01*
X139166095Y-93395644D01*
X139182814Y-93236565D01*
X139183504Y-93230000D01*
X139180907Y-93205293D01*
X139164232Y-93046635D01*
X139164232Y-93046633D01*
X139163542Y-93040072D01*
X139104527Y-92858444D01*
X139094745Y-92841500D01*
X139012341Y-92698774D01*
X139009040Y-92693056D01*
X138999292Y-92682229D01*
X138885675Y-92556045D01*
X138885674Y-92556044D01*
X138881253Y-92551134D01*
X138726752Y-92438882D01*
X138720724Y-92436198D01*
X138720722Y-92436197D01*
X138558319Y-92363891D01*
X138558318Y-92363891D01*
X138552288Y-92361206D01*
X138458888Y-92341353D01*
X138371944Y-92322872D01*
X138371939Y-92322872D01*
X138365487Y-92321500D01*
X138174513Y-92321500D01*
X138168061Y-92322872D01*
X138168056Y-92322872D01*
X138081112Y-92341353D01*
X137987712Y-92361206D01*
X137981682Y-92363891D01*
X137981681Y-92363891D01*
X137819278Y-92436197D01*
X137819276Y-92436198D01*
X137813248Y-92438882D01*
X137658747Y-92551134D01*
X137654326Y-92556044D01*
X137654325Y-92556045D01*
X137540709Y-92682229D01*
X137530960Y-92693056D01*
X137527659Y-92698774D01*
X137445256Y-92841500D01*
X137435473Y-92858444D01*
X137376458Y-93040072D01*
X137375768Y-93046633D01*
X137375768Y-93046635D01*
X137359093Y-93205293D01*
X137332080Y-93270950D01*
X137322878Y-93281218D01*
X135737258Y-94866837D01*
X135728972Y-94874377D01*
X135722493Y-94878489D01*
X135717068Y-94884266D01*
X135675868Y-94928140D01*
X135673113Y-94930982D01*
X135653376Y-94950719D01*
X135650896Y-94953916D01*
X135643193Y-94962936D01*
X135612925Y-94995168D01*
X135609106Y-95002114D01*
X135609104Y-95002117D01*
X135603163Y-95012923D01*
X135592312Y-95029442D01*
X135579897Y-95045448D01*
X135576752Y-95052717D01*
X135576749Y-95052721D01*
X135562337Y-95086026D01*
X135557120Y-95096676D01*
X135535816Y-95135429D01*
X135533845Y-95143104D01*
X135533845Y-95143105D01*
X135530778Y-95155051D01*
X135524374Y-95173755D01*
X135516330Y-95192344D01*
X135515091Y-95200167D01*
X135515088Y-95200177D01*
X135509412Y-95236013D01*
X135507006Y-95247633D01*
X135496011Y-95290459D01*
X135496011Y-95310713D01*
X135494460Y-95330423D01*
X135491291Y-95350432D01*
X133096000Y-95350432D01*
X133096000Y-89632703D01*
X134390743Y-89632703D01*
X134391302Y-89636947D01*
X134391302Y-89636951D01*
X134397598Y-89684770D01*
X134428268Y-89917734D01*
X134429401Y-89921874D01*
X134429401Y-89921876D01*
X134432582Y-89933502D01*
X134504129Y-90195036D01*
X134505813Y-90198984D01*
X134591636Y-90400191D01*
X134616923Y-90459476D01*
X134664447Y-90538882D01*
X134748353Y-90679079D01*
X134764561Y-90706161D01*
X134944313Y-90930528D01*
X135007535Y-90990523D01*
X135131156Y-91107835D01*
X135152851Y-91128423D01*
X135386317Y-91296186D01*
X135390112Y-91298195D01*
X135390113Y-91298196D01*
X135411869Y-91309715D01*
X135640392Y-91430712D01*
X135664699Y-91439607D01*
X135904785Y-91527466D01*
X135910373Y-91529511D01*
X136191264Y-91590755D01*
X136219841Y-91593004D01*
X136414282Y-91608307D01*
X136414291Y-91608307D01*
X136416739Y-91608500D01*
X136572271Y-91608500D01*
X136574407Y-91608354D01*
X136574418Y-91608354D01*
X136782548Y-91594165D01*
X136782554Y-91594164D01*
X136786825Y-91593873D01*
X136791020Y-91593004D01*
X136791022Y-91593004D01*
X136928595Y-91564514D01*
X137068342Y-91535574D01*
X137339343Y-91439607D01*
X137520884Y-91345907D01*
X137591005Y-91309715D01*
X137591006Y-91309715D01*
X137594812Y-91307750D01*
X137598313Y-91305289D01*
X137598317Y-91305287D01*
X137762605Y-91189823D01*
X137830023Y-91142441D01*
X137940295Y-91039970D01*
X138037479Y-90949661D01*
X138037481Y-90949658D01*
X138040622Y-90946740D01*
X138222713Y-90724268D01*
X138372927Y-90479142D01*
X138374924Y-90474594D01*
X138486757Y-90219830D01*
X138488483Y-90215898D01*
X138567244Y-89939406D01*
X138597515Y-89726704D01*
X138607146Y-89659036D01*
X138607146Y-89659034D01*
X138607751Y-89654784D01*
X138607843Y-89637331D01*
X138609235Y-89371583D01*
X138609235Y-89371576D01*
X138609257Y-89367297D01*
X138571732Y-89082266D01*
X138495871Y-88804964D01*
X138478148Y-88763414D01*
X138384763Y-88544476D01*
X138384761Y-88544472D01*
X138383077Y-88540524D01*
X138285989Y-88378302D01*
X138237643Y-88297521D01*
X138237640Y-88297517D01*
X138235439Y-88293839D01*
X138055687Y-88069472D01*
X137847149Y-87871577D01*
X137613683Y-87703814D01*
X137591843Y-87692250D01*
X137568654Y-87679972D01*
X137359608Y-87569288D01*
X137089627Y-87470489D01*
X136808736Y-87409245D01*
X136777685Y-87406801D01*
X136585718Y-87391693D01*
X136585709Y-87391693D01*
X136583261Y-87391500D01*
X136427729Y-87391500D01*
X136425593Y-87391646D01*
X136425582Y-87391646D01*
X136217452Y-87405835D01*
X136217446Y-87405836D01*
X136213175Y-87406127D01*
X136208980Y-87406996D01*
X136208978Y-87406996D01*
X136072417Y-87435276D01*
X135931658Y-87464426D01*
X135660657Y-87560393D01*
X135405188Y-87692250D01*
X135401687Y-87694711D01*
X135401683Y-87694713D01*
X135391594Y-87701804D01*
X135169977Y-87857559D01*
X134959378Y-88053260D01*
X134777287Y-88275732D01*
X134627073Y-88520858D01*
X134625347Y-88524791D01*
X134625346Y-88524792D01*
X134558180Y-88677800D01*
X134511517Y-88784102D01*
X134510342Y-88788229D01*
X134510341Y-88788230D01*
X134491961Y-88852755D01*
X134432756Y-89060594D01*
X134392249Y-89345216D01*
X134392227Y-89349505D01*
X134392226Y-89349512D01*
X134390874Y-89607608D01*
X134390743Y-89632703D01*
X133096000Y-89632703D01*
X133096000Y-86344109D01*
X133097391Y-86325440D01*
X133099884Y-86308800D01*
X133101214Y-86299923D01*
X133099999Y-86291030D01*
X133100057Y-86282050D01*
X133100275Y-86282051D01*
X133100167Y-86260634D01*
X133106831Y-86207867D01*
X133115222Y-86175939D01*
X133141675Y-86111288D01*
X133158072Y-86082634D01*
X133200410Y-86027074D01*
X133223686Y-86003665D01*
X133278995Y-85961014D01*
X133307553Y-85944452D01*
X133372053Y-85917627D01*
X133403930Y-85909053D01*
X133453070Y-85902559D01*
X133471119Y-85901482D01*
X133474539Y-85901524D01*
X133483415Y-85902906D01*
X133514937Y-85898784D01*
X133531274Y-85897720D01*
X171228725Y-85897720D01*
X171248766Y-85899324D01*
G37*
G04 #@! TD.AperFunction*
G04 #@! TA.AperFunction,Conductor*
G36*
X155162321Y-103112733D02*
G01*
X155212097Y-103143346D01*
X156284147Y-104215396D01*
X156318173Y-104277708D01*
X156313108Y-104348523D01*
X156284147Y-104393586D01*
X155324187Y-105353546D01*
X155261875Y-105387572D01*
X155235092Y-105390451D01*
X154410820Y-105390451D01*
X154342699Y-105370449D01*
X154296206Y-105316793D01*
X154286102Y-105246519D01*
X154289113Y-105231839D01*
X154312080Y-105146126D01*
X154313503Y-105140816D01*
X154332695Y-104921445D01*
X154313503Y-104702074D01*
X154256508Y-104489369D01*
X154254185Y-104484387D01*
X154254182Y-104484379D01*
X154178939Y-104323019D01*
X154168278Y-104252828D01*
X154197258Y-104188015D01*
X154239885Y-104155575D01*
X154381613Y-104089487D01*
X154381619Y-104089483D01*
X154386604Y-104087159D01*
X154519221Y-103994299D01*
X154562477Y-103964011D01*
X154562479Y-103964009D01*
X154566988Y-103960852D01*
X154722699Y-103805141D01*
X154849006Y-103624756D01*
X154851329Y-103619774D01*
X154851332Y-103619769D01*
X154939745Y-103430164D01*
X154942070Y-103425179D01*
X154990861Y-103243093D01*
X154997644Y-103217779D01*
X154997645Y-103217774D01*
X154999065Y-103212474D01*
X154999300Y-103209785D01*
X155030446Y-103146946D01*
X155091361Y-103110479D01*
X155162321Y-103112733D01*
G37*
G04 #@! TD.AperFunction*
M02*
