G04 #@! TF.GenerationSoftware,KiCad,Pcbnew,(5.1.6)-1*
G04 #@! TF.CreationDate,2020-12-04T23:27:41-06:00*
G04 #@! TF.ProjectId,AmpOnly,416d704f-6e6c-4792-9e6b-696361645f70,rev?*
G04 #@! TF.SameCoordinates,Original*
G04 #@! TF.FileFunction,Paste,Bot*
G04 #@! TF.FilePolarity,Positive*
%FSLAX46Y46*%
G04 Gerber Fmt 4.6, Leading zero omitted, Abs format (unit mm)*
G04 Created by KiCad (PCBNEW (5.1.6)-1) date 2020-12-04 23:27:41*
%MOMM*%
%LPD*%
G01*
G04 APERTURE LIST*
%ADD10C,0.152400*%
%ADD11R,1.200000X2.200000*%
%ADD12R,2.750000X3.050000*%
%ADD13R,0.965200X0.254000*%
%ADD14R,0.254000X0.965200*%
%ADD15R,4.851400X4.851400*%
G04 APERTURE END LIST*
D10*
X124824300Y-97808566D02*
X126241434Y-97808566D01*
X124824300Y-99225700D02*
X124824300Y-97808566D01*
X126241434Y-99225700D02*
X124824300Y-99225700D01*
X126241434Y-97808566D02*
X126241434Y-99225700D01*
X124824300Y-96191433D02*
X126241434Y-96191433D01*
X124824300Y-97608567D02*
X124824300Y-96191433D01*
X126241434Y-97608567D02*
X124824300Y-97608567D01*
X126241434Y-96191433D02*
X126241434Y-97608567D01*
X124824300Y-94574300D02*
X126241434Y-94574300D01*
X124824300Y-95991434D02*
X124824300Y-94574300D01*
X126241434Y-95991434D02*
X124824300Y-95991434D01*
X126241434Y-94574300D02*
X126241434Y-95991434D01*
X126441433Y-97808566D02*
X127858567Y-97808566D01*
X126441433Y-99225700D02*
X126441433Y-97808566D01*
X127858567Y-99225700D02*
X126441433Y-99225700D01*
X127858567Y-97808566D02*
X127858567Y-99225700D01*
X126441433Y-96191433D02*
X127858567Y-96191433D01*
X126441433Y-97608567D02*
X126441433Y-96191433D01*
X127858567Y-97608567D02*
X126441433Y-97608567D01*
X127858567Y-96191433D02*
X127858567Y-97608567D01*
X126441433Y-94574300D02*
X127858567Y-94574300D01*
X126441433Y-95991434D02*
X126441433Y-94574300D01*
X127858567Y-95991434D02*
X126441433Y-95991434D01*
X127858567Y-94574300D02*
X127858567Y-95991434D01*
X128058566Y-97808566D02*
X129475700Y-97808566D01*
X128058566Y-99225700D02*
X128058566Y-97808566D01*
X129475700Y-99225700D02*
X128058566Y-99225700D01*
X129475700Y-97808566D02*
X129475700Y-99225700D01*
X128058566Y-96191433D02*
X129475700Y-96191433D01*
X128058566Y-97608567D02*
X128058566Y-96191433D01*
X129475700Y-97608567D02*
X128058566Y-97608567D01*
X129475700Y-96191433D02*
X129475700Y-97608567D01*
X128058566Y-94574300D02*
X129475700Y-94574300D01*
X128058566Y-95991434D02*
X128058566Y-94574300D01*
X129475700Y-95991434D02*
X128058566Y-95991434D01*
X129475700Y-94574300D02*
X129475700Y-95991434D01*
G36*
G01*
X128461919Y-110641060D02*
X129361921Y-110641060D01*
G75*
G02*
X129611920Y-110891059I0J-249999D01*
G01*
X129611920Y-111541061D01*
G75*
G02*
X129361921Y-111791060I-249999J0D01*
G01*
X128461919Y-111791060D01*
G75*
G02*
X128211920Y-111541061I0J249999D01*
G01*
X128211920Y-110891059D01*
G75*
G02*
X128461919Y-110641060I249999J0D01*
G01*
G37*
G36*
G01*
X128461919Y-112691060D02*
X129361921Y-112691060D01*
G75*
G02*
X129611920Y-112941059I0J-249999D01*
G01*
X129611920Y-113591061D01*
G75*
G02*
X129361921Y-113841060I-249999J0D01*
G01*
X128461919Y-113841060D01*
G75*
G02*
X128211920Y-113591061I0J249999D01*
G01*
X128211920Y-112941059D01*
G75*
G02*
X128461919Y-112691060I249999J0D01*
G01*
G37*
G36*
G01*
X124207419Y-112630100D02*
X125107421Y-112630100D01*
G75*
G02*
X125357420Y-112880099I0J-249999D01*
G01*
X125357420Y-113530101D01*
G75*
G02*
X125107421Y-113780100I-249999J0D01*
G01*
X124207419Y-113780100D01*
G75*
G02*
X123957420Y-113530101I0J249999D01*
G01*
X123957420Y-112880099D01*
G75*
G02*
X124207419Y-112630100I249999J0D01*
G01*
G37*
G36*
G01*
X124207419Y-110580100D02*
X125107421Y-110580100D01*
G75*
G02*
X125357420Y-110830099I0J-249999D01*
G01*
X125357420Y-111480101D01*
G75*
G02*
X125107421Y-111730100I-249999J0D01*
G01*
X124207419Y-111730100D01*
G75*
G02*
X123957420Y-111480101I0J249999D01*
G01*
X123957420Y-110830099D01*
G75*
G02*
X124207419Y-110580100I249999J0D01*
G01*
G37*
G36*
G01*
X134356039Y-121429120D02*
X135256041Y-121429120D01*
G75*
G02*
X135506040Y-121679119I0J-249999D01*
G01*
X135506040Y-122329121D01*
G75*
G02*
X135256041Y-122579120I-249999J0D01*
G01*
X134356039Y-122579120D01*
G75*
G02*
X134106040Y-122329121I0J249999D01*
G01*
X134106040Y-121679119D01*
G75*
G02*
X134356039Y-121429120I249999J0D01*
G01*
G37*
G36*
G01*
X134356039Y-123479120D02*
X135256041Y-123479120D01*
G75*
G02*
X135506040Y-123729119I0J-249999D01*
G01*
X135506040Y-124379121D01*
G75*
G02*
X135256041Y-124629120I-249999J0D01*
G01*
X134356039Y-124629120D01*
G75*
G02*
X134106040Y-124379121I0J249999D01*
G01*
X134106040Y-123729119D01*
G75*
G02*
X134356039Y-123479120I249999J0D01*
G01*
G37*
G36*
G01*
X137581839Y-121429120D02*
X138481841Y-121429120D01*
G75*
G02*
X138731840Y-121679119I0J-249999D01*
G01*
X138731840Y-122329121D01*
G75*
G02*
X138481841Y-122579120I-249999J0D01*
G01*
X137581839Y-122579120D01*
G75*
G02*
X137331840Y-122329121I0J249999D01*
G01*
X137331840Y-121679119D01*
G75*
G02*
X137581839Y-121429120I249999J0D01*
G01*
G37*
G36*
G01*
X137581839Y-123479120D02*
X138481841Y-123479120D01*
G75*
G02*
X138731840Y-123729119I0J-249999D01*
G01*
X138731840Y-124379121D01*
G75*
G02*
X138481841Y-124629120I-249999J0D01*
G01*
X137581839Y-124629120D01*
G75*
G02*
X137331840Y-124379121I0J249999D01*
G01*
X137331840Y-123729119D01*
G75*
G02*
X137581839Y-123479120I249999J0D01*
G01*
G37*
G36*
G01*
X134565859Y-127746580D02*
X135465861Y-127746580D01*
G75*
G02*
X135715860Y-127996579I0J-249999D01*
G01*
X135715860Y-128646581D01*
G75*
G02*
X135465861Y-128896580I-249999J0D01*
G01*
X134565859Y-128896580D01*
G75*
G02*
X134315860Y-128646581I0J249999D01*
G01*
X134315860Y-127996579D01*
G75*
G02*
X134565859Y-127746580I249999J0D01*
G01*
G37*
G36*
G01*
X134565859Y-125696580D02*
X135465861Y-125696580D01*
G75*
G02*
X135715860Y-125946579I0J-249999D01*
G01*
X135715860Y-126596581D01*
G75*
G02*
X135465861Y-126846580I-249999J0D01*
G01*
X134565859Y-126846580D01*
G75*
G02*
X134315860Y-126596581I0J249999D01*
G01*
X134315860Y-125946579D01*
G75*
G02*
X134565859Y-125696580I249999J0D01*
G01*
G37*
G36*
G01*
X137611319Y-127787220D02*
X138511321Y-127787220D01*
G75*
G02*
X138761320Y-128037219I0J-249999D01*
G01*
X138761320Y-128687221D01*
G75*
G02*
X138511321Y-128937220I-249999J0D01*
G01*
X137611319Y-128937220D01*
G75*
G02*
X137361320Y-128687221I0J249999D01*
G01*
X137361320Y-128037219D01*
G75*
G02*
X137611319Y-127787220I249999J0D01*
G01*
G37*
G36*
G01*
X137611319Y-125737220D02*
X138511321Y-125737220D01*
G75*
G02*
X138761320Y-125987219I0J-249999D01*
G01*
X138761320Y-126637221D01*
G75*
G02*
X138511321Y-126887220I-249999J0D01*
G01*
X137611319Y-126887220D01*
G75*
G02*
X137361320Y-126637221I0J249999D01*
G01*
X137361320Y-125987219D01*
G75*
G02*
X137611319Y-125737220I249999J0D01*
G01*
G37*
G36*
G01*
X133168539Y-108042640D02*
X134068541Y-108042640D01*
G75*
G02*
X134318540Y-108292639I0J-249999D01*
G01*
X134318540Y-108942641D01*
G75*
G02*
X134068541Y-109192640I-249999J0D01*
G01*
X133168539Y-109192640D01*
G75*
G02*
X132918540Y-108942641I0J249999D01*
G01*
X132918540Y-108292639D01*
G75*
G02*
X133168539Y-108042640I249999J0D01*
G01*
G37*
G36*
G01*
X133168539Y-110092640D02*
X134068541Y-110092640D01*
G75*
G02*
X134318540Y-110342639I0J-249999D01*
G01*
X134318540Y-110992641D01*
G75*
G02*
X134068541Y-111242640I-249999J0D01*
G01*
X133168539Y-111242640D01*
G75*
G02*
X132918540Y-110992641I0J249999D01*
G01*
X132918540Y-110342639D01*
G75*
G02*
X133168539Y-110092640I249999J0D01*
G01*
G37*
G36*
G01*
X132600000Y-89349999D02*
X132600000Y-90250001D01*
G75*
G02*
X132350001Y-90500000I-249999J0D01*
G01*
X131699999Y-90500000D01*
G75*
G02*
X131450000Y-90250001I0J249999D01*
G01*
X131450000Y-89349999D01*
G75*
G02*
X131699999Y-89100000I249999J0D01*
G01*
X132350001Y-89100000D01*
G75*
G02*
X132600000Y-89349999I0J-249999D01*
G01*
G37*
G36*
G01*
X130550000Y-89349999D02*
X130550000Y-90250001D01*
G75*
G02*
X130300001Y-90500000I-249999J0D01*
G01*
X129649999Y-90500000D01*
G75*
G02*
X129400000Y-90250001I0J249999D01*
G01*
X129400000Y-89349999D01*
G75*
G02*
X129649999Y-89100000I249999J0D01*
G01*
X130300001Y-89100000D01*
G75*
G02*
X130550000Y-89349999I0J-249999D01*
G01*
G37*
G36*
G01*
X124650000Y-89249999D02*
X124650000Y-90150001D01*
G75*
G02*
X124400001Y-90400000I-249999J0D01*
G01*
X123749999Y-90400000D01*
G75*
G02*
X123500000Y-90150001I0J249999D01*
G01*
X123500000Y-89249999D01*
G75*
G02*
X123749999Y-89000000I249999J0D01*
G01*
X124400001Y-89000000D01*
G75*
G02*
X124650000Y-89249999I0J-249999D01*
G01*
G37*
G36*
G01*
X126700000Y-89249999D02*
X126700000Y-90150001D01*
G75*
G02*
X126450001Y-90400000I-249999J0D01*
G01*
X125799999Y-90400000D01*
G75*
G02*
X125550000Y-90150001I0J249999D01*
G01*
X125550000Y-89249999D01*
G75*
G02*
X125799999Y-89000000I249999J0D01*
G01*
X126450001Y-89000000D01*
G75*
G02*
X126700000Y-89249999I0J-249999D01*
G01*
G37*
G36*
G01*
X135000000Y-87149999D02*
X135000000Y-88050001D01*
G75*
G02*
X134750001Y-88300000I-249999J0D01*
G01*
X134099999Y-88300000D01*
G75*
G02*
X133850000Y-88050001I0J249999D01*
G01*
X133850000Y-87149999D01*
G75*
G02*
X134099999Y-86900000I249999J0D01*
G01*
X134750001Y-86900000D01*
G75*
G02*
X135000000Y-87149999I0J-249999D01*
G01*
G37*
G36*
G01*
X137050000Y-87149999D02*
X137050000Y-88050001D01*
G75*
G02*
X136800001Y-88300000I-249999J0D01*
G01*
X136149999Y-88300000D01*
G75*
G02*
X135900000Y-88050001I0J249999D01*
G01*
X135900000Y-87149999D01*
G75*
G02*
X136149999Y-86900000I249999J0D01*
G01*
X136800001Y-86900000D01*
G75*
G02*
X137050000Y-87149999I0J-249999D01*
G01*
G37*
G36*
G01*
X125650000Y-86000001D02*
X125650000Y-85099999D01*
G75*
G02*
X125899999Y-84850000I249999J0D01*
G01*
X126550001Y-84850000D01*
G75*
G02*
X126800000Y-85099999I0J-249999D01*
G01*
X126800000Y-86000001D01*
G75*
G02*
X126550001Y-86250000I-249999J0D01*
G01*
X125899999Y-86250000D01*
G75*
G02*
X125650000Y-86000001I0J249999D01*
G01*
G37*
G36*
G01*
X127700000Y-86000001D02*
X127700000Y-85099999D01*
G75*
G02*
X127949999Y-84850000I249999J0D01*
G01*
X128600001Y-84850000D01*
G75*
G02*
X128850000Y-85099999I0J-249999D01*
G01*
X128850000Y-86000001D01*
G75*
G02*
X128600001Y-86250000I-249999J0D01*
G01*
X127949999Y-86250000D01*
G75*
G02*
X127700000Y-86000001I0J249999D01*
G01*
G37*
G36*
G01*
X133115199Y-117773600D02*
X134015201Y-117773600D01*
G75*
G02*
X134265200Y-118023599I0J-249999D01*
G01*
X134265200Y-118673601D01*
G75*
G02*
X134015201Y-118923600I-249999J0D01*
G01*
X133115199Y-118923600D01*
G75*
G02*
X132865200Y-118673601I0J249999D01*
G01*
X132865200Y-118023599D01*
G75*
G02*
X133115199Y-117773600I249999J0D01*
G01*
G37*
G36*
G01*
X133115199Y-115723600D02*
X134015201Y-115723600D01*
G75*
G02*
X134265200Y-115973599I0J-249999D01*
G01*
X134265200Y-116623601D01*
G75*
G02*
X134015201Y-116873600I-249999J0D01*
G01*
X133115199Y-116873600D01*
G75*
G02*
X132865200Y-116623601I0J249999D01*
G01*
X132865200Y-115973599D01*
G75*
G02*
X133115199Y-115723600I249999J0D01*
G01*
G37*
G36*
G01*
X130500000Y-87199999D02*
X130500000Y-88100001D01*
G75*
G02*
X130250001Y-88350000I-249999J0D01*
G01*
X129599999Y-88350000D01*
G75*
G02*
X129350000Y-88100001I0J249999D01*
G01*
X129350000Y-87199999D01*
G75*
G02*
X129599999Y-86950000I249999J0D01*
G01*
X130250001Y-86950000D01*
G75*
G02*
X130500000Y-87199999I0J-249999D01*
G01*
G37*
G36*
G01*
X132550000Y-87199999D02*
X132550000Y-88100001D01*
G75*
G02*
X132300001Y-88350000I-249999J0D01*
G01*
X131649999Y-88350000D01*
G75*
G02*
X131400000Y-88100001I0J249999D01*
G01*
X131400000Y-87199999D01*
G75*
G02*
X131649999Y-86950000I249999J0D01*
G01*
X132300001Y-86950000D01*
G75*
G02*
X132550000Y-87199999I0J-249999D01*
G01*
G37*
G36*
G01*
X126600000Y-87199999D02*
X126600000Y-88100001D01*
G75*
G02*
X126350001Y-88350000I-249999J0D01*
G01*
X125699999Y-88350000D01*
G75*
G02*
X125450000Y-88100001I0J249999D01*
G01*
X125450000Y-87199999D01*
G75*
G02*
X125699999Y-86950000I249999J0D01*
G01*
X126350001Y-86950000D01*
G75*
G02*
X126600000Y-87199999I0J-249999D01*
G01*
G37*
G36*
G01*
X124550000Y-87199999D02*
X124550000Y-88100001D01*
G75*
G02*
X124300001Y-88350000I-249999J0D01*
G01*
X123649999Y-88350000D01*
G75*
G02*
X123400000Y-88100001I0J249999D01*
G01*
X123400000Y-87199999D01*
G75*
G02*
X123649999Y-86950000I249999J0D01*
G01*
X124300001Y-86950000D01*
G75*
G02*
X124550000Y-87199999I0J-249999D01*
G01*
G37*
G36*
G01*
X128868320Y-107031099D02*
X128868320Y-107931101D01*
G75*
G02*
X128618321Y-108181100I-249999J0D01*
G01*
X127968319Y-108181100D01*
G75*
G02*
X127718320Y-107931101I0J249999D01*
G01*
X127718320Y-107031099D01*
G75*
G02*
X127968319Y-106781100I249999J0D01*
G01*
X128618321Y-106781100D01*
G75*
G02*
X128868320Y-107031099I0J-249999D01*
G01*
G37*
G36*
G01*
X130918320Y-107031099D02*
X130918320Y-107931101D01*
G75*
G02*
X130668321Y-108181100I-249999J0D01*
G01*
X130018319Y-108181100D01*
G75*
G02*
X129768320Y-107931101I0J249999D01*
G01*
X129768320Y-107031099D01*
G75*
G02*
X130018319Y-106781100I249999J0D01*
G01*
X130668321Y-106781100D01*
G75*
G02*
X130918320Y-107031099I0J-249999D01*
G01*
G37*
G36*
G01*
X126158360Y-107031099D02*
X126158360Y-107931101D01*
G75*
G02*
X125908361Y-108181100I-249999J0D01*
G01*
X125258359Y-108181100D01*
G75*
G02*
X125008360Y-107931101I0J249999D01*
G01*
X125008360Y-107031099D01*
G75*
G02*
X125258359Y-106781100I249999J0D01*
G01*
X125908361Y-106781100D01*
G75*
G02*
X126158360Y-107031099I0J-249999D01*
G01*
G37*
G36*
G01*
X124108360Y-107031099D02*
X124108360Y-107931101D01*
G75*
G02*
X123858361Y-108181100I-249999J0D01*
G01*
X123208359Y-108181100D01*
G75*
G02*
X122958360Y-107931101I0J249999D01*
G01*
X122958360Y-107031099D01*
G75*
G02*
X123208359Y-106781100I249999J0D01*
G01*
X123858361Y-106781100D01*
G75*
G02*
X124108360Y-107031099I0J-249999D01*
G01*
G37*
G36*
G01*
X127667520Y-104898341D02*
X127667520Y-103998339D01*
G75*
G02*
X127917519Y-103748340I249999J0D01*
G01*
X128567521Y-103748340D01*
G75*
G02*
X128817520Y-103998339I0J-249999D01*
G01*
X128817520Y-104898341D01*
G75*
G02*
X128567521Y-105148340I-249999J0D01*
G01*
X127917519Y-105148340D01*
G75*
G02*
X127667520Y-104898341I0J249999D01*
G01*
G37*
G36*
G01*
X129717520Y-104898341D02*
X129717520Y-103998339D01*
G75*
G02*
X129967519Y-103748340I249999J0D01*
G01*
X130617521Y-103748340D01*
G75*
G02*
X130867520Y-103998339I0J-249999D01*
G01*
X130867520Y-104898341D01*
G75*
G02*
X130617521Y-105148340I-249999J0D01*
G01*
X129967519Y-105148340D01*
G75*
G02*
X129717520Y-104898341I0J249999D01*
G01*
G37*
G36*
G01*
X124334420Y-103909439D02*
X124334420Y-104809441D01*
G75*
G02*
X124084421Y-105059440I-249999J0D01*
G01*
X123434419Y-105059440D01*
G75*
G02*
X123184420Y-104809441I0J249999D01*
G01*
X123184420Y-103909439D01*
G75*
G02*
X123434419Y-103659440I249999J0D01*
G01*
X124084421Y-103659440D01*
G75*
G02*
X124334420Y-103909439I0J-249999D01*
G01*
G37*
G36*
G01*
X126384420Y-103909439D02*
X126384420Y-104809441D01*
G75*
G02*
X126134421Y-105059440I-249999J0D01*
G01*
X125484419Y-105059440D01*
G75*
G02*
X125234420Y-104809441I0J249999D01*
G01*
X125234420Y-103909439D01*
G75*
G02*
X125484419Y-103659440I249999J0D01*
G01*
X126134421Y-103659440D01*
G75*
G02*
X126384420Y-103909439I0J-249999D01*
G01*
G37*
G36*
G01*
X134574001Y-94599400D02*
X133673999Y-94599400D01*
G75*
G02*
X133424000Y-94349401I0J249999D01*
G01*
X133424000Y-93699399D01*
G75*
G02*
X133673999Y-93449400I249999J0D01*
G01*
X134574001Y-93449400D01*
G75*
G02*
X134824000Y-93699399I0J-249999D01*
G01*
X134824000Y-94349401D01*
G75*
G02*
X134574001Y-94599400I-249999J0D01*
G01*
G37*
G36*
G01*
X134574001Y-92549400D02*
X133673999Y-92549400D01*
G75*
G02*
X133424000Y-92299401I0J249999D01*
G01*
X133424000Y-91649399D01*
G75*
G02*
X133673999Y-91399400I249999J0D01*
G01*
X134574001Y-91399400D01*
G75*
G02*
X134824000Y-91649399I0J-249999D01*
G01*
X134824000Y-92299401D01*
G75*
G02*
X134574001Y-92549400I-249999J0D01*
G01*
G37*
G36*
G01*
X121515861Y-100495900D02*
X120615859Y-100495900D01*
G75*
G02*
X120365860Y-100245901I0J249999D01*
G01*
X120365860Y-99595899D01*
G75*
G02*
X120615859Y-99345900I249999J0D01*
G01*
X121515861Y-99345900D01*
G75*
G02*
X121765860Y-99595899I0J-249999D01*
G01*
X121765860Y-100245901D01*
G75*
G02*
X121515861Y-100495900I-249999J0D01*
G01*
G37*
G36*
G01*
X121515861Y-98445900D02*
X120615859Y-98445900D01*
G75*
G02*
X120365860Y-98195901I0J249999D01*
G01*
X120365860Y-97545899D01*
G75*
G02*
X120615859Y-97295900I249999J0D01*
G01*
X121515861Y-97295900D01*
G75*
G02*
X121765860Y-97545899I0J-249999D01*
G01*
X121765860Y-98195901D01*
G75*
G02*
X121515861Y-98445900I-249999J0D01*
G01*
G37*
D11*
X126820000Y-119100000D03*
X131380000Y-119100000D03*
D12*
X130625000Y-127075000D03*
X127575000Y-123725000D03*
X127575000Y-127075000D03*
X130625000Y-123725000D03*
D13*
X130528200Y-94400000D03*
X130528200Y-94899999D03*
X130528200Y-95400000D03*
X130528200Y-95899999D03*
X130528200Y-96400001D03*
X130528200Y-96900000D03*
X130528200Y-97399999D03*
X130528200Y-97900001D03*
X130528200Y-98400000D03*
X130528200Y-98900001D03*
X130528200Y-99400000D03*
D14*
X129650000Y-100278200D03*
X129150001Y-100278200D03*
X128650000Y-100278200D03*
X128150001Y-100278200D03*
X127649999Y-100278200D03*
X127150000Y-100278200D03*
X126650001Y-100278200D03*
X126149999Y-100278200D03*
X125650000Y-100278200D03*
X125149999Y-100278200D03*
X124650000Y-100278200D03*
D13*
X123771800Y-99400000D03*
X123771800Y-98900001D03*
X123771800Y-98400000D03*
X123771800Y-97900001D03*
X123771800Y-97399999D03*
X123771800Y-96900000D03*
X123771800Y-96400001D03*
X123771800Y-95899999D03*
X123771800Y-95400000D03*
X123771800Y-94899999D03*
X123771800Y-94400000D03*
D14*
X124650000Y-93521800D03*
X125149999Y-93521800D03*
X125650000Y-93521800D03*
X126149999Y-93521800D03*
X126650001Y-93521800D03*
X127150000Y-93521800D03*
X127649999Y-93521800D03*
X128150001Y-93521800D03*
X128650000Y-93521800D03*
X129150001Y-93521800D03*
X129650000Y-93521800D03*
D15*
X127150000Y-96900000D03*
M02*
