G04 #@! TF.GenerationSoftware,KiCad,Pcbnew,(5.1.6)-1*
G04 #@! TF.CreationDate,2020-12-04T23:27:41-06:00*
G04 #@! TF.ProjectId,AmpOnly,416d704f-6e6c-4792-9e6b-696361645f70,rev?*
G04 #@! TF.SameCoordinates,Original*
G04 #@! TF.FileFunction,Soldermask,Top*
G04 #@! TF.FilePolarity,Negative*
%FSLAX46Y46*%
G04 Gerber Fmt 4.6, Leading zero omitted, Abs format (unit mm)*
G04 Created by KiCad (PCBNEW (5.1.6)-1) date 2020-12-04 23:27:41*
%MOMM*%
%LPD*%
G01*
G04 APERTURE LIST*
%ADD10C,0.100000*%
G04 APERTURE END LIST*
D10*
G36*
X144994000Y-130844000D02*
G01*
X142606000Y-130844000D01*
X142606000Y-128456000D01*
X144994000Y-128456000D01*
X144994000Y-130844000D01*
G37*
G36*
X151479487Y-128098996D02*
G01*
X151716253Y-128197068D01*
X151716255Y-128197069D01*
X151929339Y-128339447D01*
X152110553Y-128520661D01*
X152252932Y-128733747D01*
X152351004Y-128970513D01*
X152401000Y-129221861D01*
X152401000Y-129478139D01*
X152351004Y-129729487D01*
X152252932Y-129966253D01*
X152252931Y-129966255D01*
X152110553Y-130179339D01*
X151929339Y-130360553D01*
X151716255Y-130502931D01*
X151716254Y-130502932D01*
X151716253Y-130502932D01*
X151479487Y-130601004D01*
X151228139Y-130651000D01*
X150971861Y-130651000D01*
X150720513Y-130601004D01*
X150483747Y-130502932D01*
X150483746Y-130502932D01*
X150483745Y-130502931D01*
X150270661Y-130360553D01*
X150089447Y-130179339D01*
X149947069Y-129966255D01*
X149947068Y-129966253D01*
X149848996Y-129729487D01*
X149799000Y-129478139D01*
X149799000Y-129221861D01*
X149848996Y-128970513D01*
X149947068Y-128733747D01*
X150089447Y-128520661D01*
X150270661Y-128339447D01*
X150483745Y-128197069D01*
X150483747Y-128197068D01*
X150720513Y-128098996D01*
X150971861Y-128049000D01*
X151228139Y-128049000D01*
X151479487Y-128098996D01*
G37*
G36*
X120479487Y-128098996D02*
G01*
X120716253Y-128197068D01*
X120716255Y-128197069D01*
X120929339Y-128339447D01*
X121110553Y-128520661D01*
X121252932Y-128733747D01*
X121351004Y-128970513D01*
X121401000Y-129221861D01*
X121401000Y-129478139D01*
X121351004Y-129729487D01*
X121252932Y-129966253D01*
X121252931Y-129966255D01*
X121110553Y-130179339D01*
X120929339Y-130360553D01*
X120716255Y-130502931D01*
X120716254Y-130502932D01*
X120716253Y-130502932D01*
X120479487Y-130601004D01*
X120228139Y-130651000D01*
X119971861Y-130651000D01*
X119720513Y-130601004D01*
X119483747Y-130502932D01*
X119483746Y-130502932D01*
X119483745Y-130502931D01*
X119270661Y-130360553D01*
X119089447Y-130179339D01*
X118947069Y-129966255D01*
X118947068Y-129966253D01*
X118848996Y-129729487D01*
X118799000Y-129478139D01*
X118799000Y-129221861D01*
X118848996Y-128970513D01*
X118947068Y-128733747D01*
X119089447Y-128520661D01*
X119270661Y-128339447D01*
X119483745Y-128197069D01*
X119483747Y-128197068D01*
X119720513Y-128098996D01*
X119971861Y-128049000D01*
X120228139Y-128049000D01*
X120479487Y-128098996D01*
G37*
G36*
X144148276Y-123421884D02*
G01*
X144365569Y-123511890D01*
X144365571Y-123511891D01*
X144561130Y-123642560D01*
X144727440Y-123808870D01*
X144858110Y-124004431D01*
X144948116Y-124221724D01*
X144994000Y-124452400D01*
X144994000Y-124687600D01*
X144948116Y-124918276D01*
X144858110Y-125135569D01*
X144858109Y-125135571D01*
X144727440Y-125331130D01*
X144561130Y-125497440D01*
X144365571Y-125628109D01*
X144365570Y-125628110D01*
X144365569Y-125628110D01*
X144148276Y-125718116D01*
X143917600Y-125764000D01*
X143682400Y-125764000D01*
X143451724Y-125718116D01*
X143234431Y-125628110D01*
X143234430Y-125628110D01*
X143234429Y-125628109D01*
X143038870Y-125497440D01*
X142872560Y-125331130D01*
X142741891Y-125135571D01*
X142741890Y-125135569D01*
X142651884Y-124918276D01*
X142606000Y-124687600D01*
X142606000Y-124452400D01*
X142651884Y-124221724D01*
X142741890Y-124004431D01*
X142872560Y-123808870D01*
X143038870Y-123642560D01*
X143234429Y-123511891D01*
X143234431Y-123511890D01*
X143451724Y-123421884D01*
X143682400Y-123376000D01*
X143917600Y-123376000D01*
X144148276Y-123421884D01*
G37*
G36*
X121448228Y-118931703D02*
G01*
X121603100Y-118995853D01*
X121742481Y-119088985D01*
X121861015Y-119207519D01*
X121954147Y-119346900D01*
X122018297Y-119501772D01*
X122051000Y-119666184D01*
X122051000Y-119833816D01*
X122018297Y-119998228D01*
X121954147Y-120153100D01*
X121861015Y-120292481D01*
X121742481Y-120411015D01*
X121603100Y-120504147D01*
X121448228Y-120568297D01*
X121283816Y-120601000D01*
X121116184Y-120601000D01*
X120951772Y-120568297D01*
X120796900Y-120504147D01*
X120657519Y-120411015D01*
X120538985Y-120292481D01*
X120445853Y-120153100D01*
X120381703Y-119998228D01*
X120349000Y-119833816D01*
X120349000Y-119666184D01*
X120381703Y-119501772D01*
X120445853Y-119346900D01*
X120538985Y-119207519D01*
X120657519Y-119088985D01*
X120796900Y-118995853D01*
X120951772Y-118931703D01*
X121116184Y-118899000D01*
X121283816Y-118899000D01*
X121448228Y-118931703D01*
G37*
G36*
X139973665Y-118002622D02*
G01*
X140047222Y-118009867D01*
X140188786Y-118052810D01*
X140319252Y-118122546D01*
X140349040Y-118146992D01*
X140433607Y-118216393D01*
X140503008Y-118300960D01*
X140527454Y-118330748D01*
X140597190Y-118461214D01*
X140640133Y-118602778D01*
X140654633Y-118750000D01*
X140640133Y-118897222D01*
X140597190Y-119038786D01*
X140527454Y-119169252D01*
X140503008Y-119199040D01*
X140433607Y-119283607D01*
X140349040Y-119353008D01*
X140319252Y-119377454D01*
X140188786Y-119447190D01*
X140047222Y-119490133D01*
X139973665Y-119497378D01*
X139936888Y-119501000D01*
X139263112Y-119501000D01*
X139226335Y-119497378D01*
X139152778Y-119490133D01*
X139011214Y-119447190D01*
X138880748Y-119377454D01*
X138850960Y-119353008D01*
X138766393Y-119283607D01*
X138696992Y-119199040D01*
X138672546Y-119169252D01*
X138602810Y-119038786D01*
X138559867Y-118897222D01*
X138545367Y-118750000D01*
X138559867Y-118602778D01*
X138602810Y-118461214D01*
X138672546Y-118330748D01*
X138696992Y-118300960D01*
X138766393Y-118216393D01*
X138850960Y-118146992D01*
X138880748Y-118122546D01*
X139011214Y-118052810D01*
X139152778Y-118009867D01*
X139226335Y-118002622D01*
X139263112Y-117999000D01*
X139936888Y-117999000D01*
X139973665Y-118002622D01*
G37*
G36*
X149789890Y-116124017D02*
G01*
X149908364Y-116173091D01*
X150014988Y-116244335D01*
X150105665Y-116335012D01*
X150176909Y-116441636D01*
X150225983Y-116560110D01*
X150251000Y-116685882D01*
X150251000Y-116814118D01*
X150225983Y-116939890D01*
X150176909Y-117058364D01*
X150105665Y-117164988D01*
X150014988Y-117255665D01*
X149908364Y-117326909D01*
X149908363Y-117326910D01*
X149908362Y-117326910D01*
X149789890Y-117375983D01*
X149664119Y-117401000D01*
X149535881Y-117401000D01*
X149410110Y-117375983D01*
X149291638Y-117326910D01*
X149291637Y-117326910D01*
X149291636Y-117326909D01*
X149185012Y-117255665D01*
X149094335Y-117164988D01*
X149023091Y-117058364D01*
X148974017Y-116939890D01*
X148949000Y-116814118D01*
X148949000Y-116685882D01*
X148974017Y-116560110D01*
X149023091Y-116441636D01*
X149094335Y-116335012D01*
X149185012Y-116244335D01*
X149291636Y-116173091D01*
X149410110Y-116124017D01*
X149535881Y-116099000D01*
X149664119Y-116099000D01*
X149789890Y-116124017D01*
G37*
G36*
X142789890Y-116124017D02*
G01*
X142908364Y-116173091D01*
X143014988Y-116244335D01*
X143105665Y-116335012D01*
X143176909Y-116441636D01*
X143225983Y-116560110D01*
X143251000Y-116685882D01*
X143251000Y-116814118D01*
X143225983Y-116939890D01*
X143176909Y-117058364D01*
X143105665Y-117164988D01*
X143014988Y-117255665D01*
X142908364Y-117326909D01*
X142908363Y-117326910D01*
X142908362Y-117326910D01*
X142789890Y-117375983D01*
X142664119Y-117401000D01*
X142535881Y-117401000D01*
X142410110Y-117375983D01*
X142291638Y-117326910D01*
X142291637Y-117326910D01*
X142291636Y-117326909D01*
X142185012Y-117255665D01*
X142094335Y-117164988D01*
X142023091Y-117058364D01*
X141974017Y-116939890D01*
X141949000Y-116814118D01*
X141949000Y-116685882D01*
X141974017Y-116560110D01*
X142023091Y-116441636D01*
X142094335Y-116335012D01*
X142185012Y-116244335D01*
X142291636Y-116173091D01*
X142410110Y-116124017D01*
X142535881Y-116099000D01*
X142664119Y-116099000D01*
X142789890Y-116124017D01*
G37*
G36*
X122051000Y-117101000D02*
G01*
X120349000Y-117101000D01*
X120349000Y-115399000D01*
X122051000Y-115399000D01*
X122051000Y-117101000D01*
G37*
G36*
X148473665Y-113502622D02*
G01*
X148547222Y-113509867D01*
X148688786Y-113552810D01*
X148819252Y-113622546D01*
X148849040Y-113646992D01*
X148933607Y-113716393D01*
X149003008Y-113800960D01*
X149027454Y-113830748D01*
X149097190Y-113961214D01*
X149140133Y-114102778D01*
X149154633Y-114250000D01*
X149140133Y-114397222D01*
X149097190Y-114538786D01*
X149027454Y-114669252D01*
X149003008Y-114699040D01*
X148933607Y-114783607D01*
X148849040Y-114853008D01*
X148819252Y-114877454D01*
X148688786Y-114947190D01*
X148547222Y-114990133D01*
X148473665Y-114997378D01*
X148436888Y-115001000D01*
X147763112Y-115001000D01*
X147726335Y-114997378D01*
X147652778Y-114990133D01*
X147511214Y-114947190D01*
X147380748Y-114877454D01*
X147350960Y-114853008D01*
X147266393Y-114783607D01*
X147196992Y-114699040D01*
X147172546Y-114669252D01*
X147102810Y-114538786D01*
X147059867Y-114397222D01*
X147045367Y-114250000D01*
X147059867Y-114102778D01*
X147102810Y-113961214D01*
X147172546Y-113830748D01*
X147196992Y-113800960D01*
X147266393Y-113716393D01*
X147350960Y-113646992D01*
X147380748Y-113622546D01*
X147511214Y-113552810D01*
X147652778Y-113509867D01*
X147726335Y-113502622D01*
X147763112Y-113499000D01*
X148436888Y-113499000D01*
X148473665Y-113502622D01*
G37*
G36*
X145473665Y-113502622D02*
G01*
X145547222Y-113509867D01*
X145688786Y-113552810D01*
X145819252Y-113622546D01*
X145849040Y-113646992D01*
X145933607Y-113716393D01*
X146003008Y-113800960D01*
X146027454Y-113830748D01*
X146097190Y-113961214D01*
X146140133Y-114102778D01*
X146154633Y-114250000D01*
X146140133Y-114397222D01*
X146097190Y-114538786D01*
X146027454Y-114669252D01*
X146003008Y-114699040D01*
X145933607Y-114783607D01*
X145849040Y-114853008D01*
X145819252Y-114877454D01*
X145688786Y-114947190D01*
X145547222Y-114990133D01*
X145473665Y-114997378D01*
X145436888Y-115001000D01*
X144763112Y-115001000D01*
X144726335Y-114997378D01*
X144652778Y-114990133D01*
X144511214Y-114947190D01*
X144380748Y-114877454D01*
X144350960Y-114853008D01*
X144266393Y-114783607D01*
X144196992Y-114699040D01*
X144172546Y-114669252D01*
X144102810Y-114538786D01*
X144059867Y-114397222D01*
X144045367Y-114250000D01*
X144059867Y-114102778D01*
X144102810Y-113961214D01*
X144172546Y-113830748D01*
X144196992Y-113800960D01*
X144266393Y-113716393D01*
X144350960Y-113646992D01*
X144380748Y-113622546D01*
X144511214Y-113552810D01*
X144652778Y-113509867D01*
X144726335Y-113502622D01*
X144763112Y-113499000D01*
X145436888Y-113499000D01*
X145473665Y-113502622D01*
G37*
G36*
X142151000Y-115001000D02*
G01*
X140049000Y-115001000D01*
X140049000Y-113499000D01*
X142151000Y-113499000D01*
X142151000Y-115001000D01*
G37*
G36*
X140113512Y-109283927D02*
G01*
X140262812Y-109313624D01*
X140426784Y-109381544D01*
X140574354Y-109480147D01*
X140699853Y-109605646D01*
X140798456Y-109753216D01*
X140866376Y-109917188D01*
X140901000Y-110091259D01*
X140901000Y-110268741D01*
X140866376Y-110442812D01*
X140798456Y-110606784D01*
X140699853Y-110754354D01*
X140574354Y-110879853D01*
X140426784Y-110978456D01*
X140262812Y-111046376D01*
X140113512Y-111076073D01*
X140088742Y-111081000D01*
X139911258Y-111081000D01*
X139886488Y-111076073D01*
X139737188Y-111046376D01*
X139573216Y-110978456D01*
X139425646Y-110879853D01*
X139300147Y-110754354D01*
X139201544Y-110606784D01*
X139133624Y-110442812D01*
X139099000Y-110268741D01*
X139099000Y-110091259D01*
X139133624Y-109917188D01*
X139201544Y-109753216D01*
X139300147Y-109605646D01*
X139425646Y-109480147D01*
X139573216Y-109381544D01*
X139737188Y-109313624D01*
X139886488Y-109283927D01*
X139911258Y-109279000D01*
X140088742Y-109279000D01*
X140113512Y-109283927D01*
G37*
G36*
X140113512Y-106743927D02*
G01*
X140262812Y-106773624D01*
X140426784Y-106841544D01*
X140574354Y-106940147D01*
X140699853Y-107065646D01*
X140798456Y-107213216D01*
X140866376Y-107377188D01*
X140901000Y-107551259D01*
X140901000Y-107728741D01*
X140866376Y-107902812D01*
X140798456Y-108066784D01*
X140699853Y-108214354D01*
X140574354Y-108339853D01*
X140426784Y-108438456D01*
X140262812Y-108506376D01*
X140113512Y-108536073D01*
X140088742Y-108541000D01*
X139911258Y-108541000D01*
X139886488Y-108536073D01*
X139737188Y-108506376D01*
X139573216Y-108438456D01*
X139425646Y-108339853D01*
X139300147Y-108214354D01*
X139201544Y-108066784D01*
X139133624Y-107902812D01*
X139099000Y-107728741D01*
X139099000Y-107551259D01*
X139133624Y-107377188D01*
X139201544Y-107213216D01*
X139300147Y-107065646D01*
X139425646Y-106940147D01*
X139573216Y-106841544D01*
X139737188Y-106773624D01*
X139886488Y-106743927D01*
X139911258Y-106739000D01*
X140088742Y-106739000D01*
X140113512Y-106743927D01*
G37*
G36*
X140901000Y-106001000D02*
G01*
X139099000Y-106001000D01*
X139099000Y-104199000D01*
X140901000Y-104199000D01*
X140901000Y-106001000D01*
G37*
G36*
X143994000Y-100194000D02*
G01*
X141606000Y-100194000D01*
X141606000Y-97806000D01*
X143994000Y-97806000D01*
X143994000Y-100194000D01*
G37*
G36*
X127887977Y-97679181D02*
G01*
X127970052Y-97713178D01*
X127970054Y-97713179D01*
X128007238Y-97738025D01*
X128043920Y-97762535D01*
X128106740Y-97825355D01*
X128156097Y-97899223D01*
X128190094Y-97981298D01*
X128207425Y-98068429D01*
X128207425Y-98157271D01*
X128190094Y-98244402D01*
X128156097Y-98326477D01*
X128156096Y-98326479D01*
X128106739Y-98400346D01*
X128043921Y-98463164D01*
X127970054Y-98512521D01*
X127970053Y-98512522D01*
X127970052Y-98512522D01*
X127887977Y-98546519D01*
X127800846Y-98563850D01*
X127712004Y-98563850D01*
X127624873Y-98546519D01*
X127542798Y-98512522D01*
X127542797Y-98512522D01*
X127542796Y-98512521D01*
X127468929Y-98463164D01*
X127406111Y-98400346D01*
X127356754Y-98326479D01*
X127356753Y-98326477D01*
X127322756Y-98244402D01*
X127305425Y-98157271D01*
X127305425Y-98068429D01*
X127322756Y-97981298D01*
X127356753Y-97899223D01*
X127406110Y-97825355D01*
X127468930Y-97762535D01*
X127505612Y-97738025D01*
X127542796Y-97713179D01*
X127542798Y-97713178D01*
X127624873Y-97679181D01*
X127712004Y-97661850D01*
X127800846Y-97661850D01*
X127887977Y-97679181D01*
G37*
G36*
X126675127Y-97679181D02*
G01*
X126757202Y-97713178D01*
X126757204Y-97713179D01*
X126794388Y-97738025D01*
X126831070Y-97762535D01*
X126893890Y-97825355D01*
X126943247Y-97899223D01*
X126977244Y-97981298D01*
X126994575Y-98068429D01*
X126994575Y-98157271D01*
X126977244Y-98244402D01*
X126943247Y-98326477D01*
X126943246Y-98326479D01*
X126893889Y-98400346D01*
X126831071Y-98463164D01*
X126757204Y-98512521D01*
X126757203Y-98512522D01*
X126757202Y-98512522D01*
X126675127Y-98546519D01*
X126587996Y-98563850D01*
X126499154Y-98563850D01*
X126412023Y-98546519D01*
X126329948Y-98512522D01*
X126329947Y-98512522D01*
X126329946Y-98512521D01*
X126256079Y-98463164D01*
X126193261Y-98400346D01*
X126143904Y-98326479D01*
X126143903Y-98326477D01*
X126109906Y-98244402D01*
X126092575Y-98157271D01*
X126092575Y-98068429D01*
X126109906Y-97981298D01*
X126143903Y-97899223D01*
X126193260Y-97825355D01*
X126256080Y-97762535D01*
X126292762Y-97738025D01*
X126329946Y-97713179D01*
X126329948Y-97713178D01*
X126412023Y-97679181D01*
X126499154Y-97661850D01*
X126587996Y-97661850D01*
X126675127Y-97679181D01*
G37*
G36*
X127281552Y-96466331D02*
G01*
X127363627Y-96500328D01*
X127363629Y-96500329D01*
X127400813Y-96525175D01*
X127437495Y-96549685D01*
X127500315Y-96612505D01*
X127549672Y-96686373D01*
X127583669Y-96768448D01*
X127601000Y-96855579D01*
X127601000Y-96944421D01*
X127583669Y-97031552D01*
X127549672Y-97113627D01*
X127549671Y-97113629D01*
X127500314Y-97187496D01*
X127437496Y-97250314D01*
X127363629Y-97299671D01*
X127363628Y-97299672D01*
X127363627Y-97299672D01*
X127281552Y-97333669D01*
X127194421Y-97351000D01*
X127105579Y-97351000D01*
X127018448Y-97333669D01*
X126936373Y-97299672D01*
X126936372Y-97299672D01*
X126936371Y-97299671D01*
X126862504Y-97250314D01*
X126799686Y-97187496D01*
X126750329Y-97113629D01*
X126750328Y-97113627D01*
X126716331Y-97031552D01*
X126699000Y-96944421D01*
X126699000Y-96855579D01*
X126716331Y-96768448D01*
X126750328Y-96686373D01*
X126799685Y-96612505D01*
X126862505Y-96549685D01*
X126899187Y-96525175D01*
X126936371Y-96500329D01*
X126936373Y-96500328D01*
X127018448Y-96466331D01*
X127105579Y-96449000D01*
X127194421Y-96449000D01*
X127281552Y-96466331D01*
G37*
G36*
X126068702Y-96466331D02*
G01*
X126150777Y-96500328D01*
X126150779Y-96500329D01*
X126187963Y-96525175D01*
X126224645Y-96549685D01*
X126287465Y-96612505D01*
X126336822Y-96686373D01*
X126370819Y-96768448D01*
X126388150Y-96855579D01*
X126388150Y-96944421D01*
X126370819Y-97031552D01*
X126336822Y-97113627D01*
X126336821Y-97113629D01*
X126287464Y-97187496D01*
X126224646Y-97250314D01*
X126150779Y-97299671D01*
X126150778Y-97299672D01*
X126150777Y-97299672D01*
X126068702Y-97333669D01*
X125981571Y-97351000D01*
X125892729Y-97351000D01*
X125805598Y-97333669D01*
X125723523Y-97299672D01*
X125723522Y-97299672D01*
X125723521Y-97299671D01*
X125649654Y-97250314D01*
X125586836Y-97187496D01*
X125537479Y-97113629D01*
X125537478Y-97113627D01*
X125503481Y-97031552D01*
X125486150Y-96944421D01*
X125486150Y-96855579D01*
X125503481Y-96768448D01*
X125537478Y-96686373D01*
X125586835Y-96612505D01*
X125649655Y-96549685D01*
X125686337Y-96525175D01*
X125723521Y-96500329D01*
X125723523Y-96500328D01*
X125805598Y-96466331D01*
X125892729Y-96449000D01*
X125981571Y-96449000D01*
X126068702Y-96466331D01*
G37*
G36*
X128494402Y-96466331D02*
G01*
X128576477Y-96500328D01*
X128576479Y-96500329D01*
X128613663Y-96525175D01*
X128650345Y-96549685D01*
X128713165Y-96612505D01*
X128762522Y-96686373D01*
X128796519Y-96768448D01*
X128813850Y-96855579D01*
X128813850Y-96944421D01*
X128796519Y-97031552D01*
X128762522Y-97113627D01*
X128762521Y-97113629D01*
X128713164Y-97187496D01*
X128650346Y-97250314D01*
X128576479Y-97299671D01*
X128576478Y-97299672D01*
X128576477Y-97299672D01*
X128494402Y-97333669D01*
X128407271Y-97351000D01*
X128318429Y-97351000D01*
X128231298Y-97333669D01*
X128149223Y-97299672D01*
X128149222Y-97299672D01*
X128149221Y-97299671D01*
X128075354Y-97250314D01*
X128012536Y-97187496D01*
X127963179Y-97113629D01*
X127963178Y-97113627D01*
X127929181Y-97031552D01*
X127911850Y-96944421D01*
X127911850Y-96855579D01*
X127929181Y-96768448D01*
X127963178Y-96686373D01*
X128012535Y-96612505D01*
X128075355Y-96549685D01*
X128112037Y-96525175D01*
X128149221Y-96500329D01*
X128149223Y-96500328D01*
X128231298Y-96466331D01*
X128318429Y-96449000D01*
X128407271Y-96449000D01*
X128494402Y-96466331D01*
G37*
G36*
X127887977Y-95253481D02*
G01*
X127970052Y-95287478D01*
X127970054Y-95287479D01*
X128007238Y-95312325D01*
X128043920Y-95336835D01*
X128106740Y-95399655D01*
X128156097Y-95473523D01*
X128190094Y-95555598D01*
X128207425Y-95642729D01*
X128207425Y-95731571D01*
X128190094Y-95818702D01*
X128156097Y-95900777D01*
X128156096Y-95900779D01*
X128106739Y-95974646D01*
X128043921Y-96037464D01*
X127970054Y-96086821D01*
X127970053Y-96086822D01*
X127970052Y-96086822D01*
X127887977Y-96120819D01*
X127800846Y-96138150D01*
X127712004Y-96138150D01*
X127624873Y-96120819D01*
X127542798Y-96086822D01*
X127542797Y-96086822D01*
X127542796Y-96086821D01*
X127468929Y-96037464D01*
X127406111Y-95974646D01*
X127356754Y-95900779D01*
X127356753Y-95900777D01*
X127322756Y-95818702D01*
X127305425Y-95731571D01*
X127305425Y-95642729D01*
X127322756Y-95555598D01*
X127356753Y-95473523D01*
X127406110Y-95399655D01*
X127468930Y-95336835D01*
X127505612Y-95312325D01*
X127542796Y-95287479D01*
X127542798Y-95287478D01*
X127624873Y-95253481D01*
X127712004Y-95236150D01*
X127800846Y-95236150D01*
X127887977Y-95253481D01*
G37*
G36*
X126675127Y-95253481D02*
G01*
X126757202Y-95287478D01*
X126757204Y-95287479D01*
X126794388Y-95312325D01*
X126831070Y-95336835D01*
X126893890Y-95399655D01*
X126943247Y-95473523D01*
X126977244Y-95555598D01*
X126994575Y-95642729D01*
X126994575Y-95731571D01*
X126977244Y-95818702D01*
X126943247Y-95900777D01*
X126943246Y-95900779D01*
X126893889Y-95974646D01*
X126831071Y-96037464D01*
X126757204Y-96086821D01*
X126757203Y-96086822D01*
X126757202Y-96086822D01*
X126675127Y-96120819D01*
X126587996Y-96138150D01*
X126499154Y-96138150D01*
X126412023Y-96120819D01*
X126329948Y-96086822D01*
X126329947Y-96086822D01*
X126329946Y-96086821D01*
X126256079Y-96037464D01*
X126193261Y-95974646D01*
X126143904Y-95900779D01*
X126143903Y-95900777D01*
X126109906Y-95818702D01*
X126092575Y-95731571D01*
X126092575Y-95642729D01*
X126109906Y-95555598D01*
X126143903Y-95473523D01*
X126193260Y-95399655D01*
X126256080Y-95336835D01*
X126292762Y-95312325D01*
X126329946Y-95287479D01*
X126329948Y-95287478D01*
X126412023Y-95253481D01*
X126499154Y-95236150D01*
X126587996Y-95236150D01*
X126675127Y-95253481D01*
G37*
G36*
X143148276Y-92771884D02*
G01*
X143365569Y-92861890D01*
X143365571Y-92861891D01*
X143561130Y-92992560D01*
X143727440Y-93158870D01*
X143858110Y-93354431D01*
X143948116Y-93571724D01*
X143994000Y-93802400D01*
X143994000Y-94037600D01*
X143948116Y-94268276D01*
X143858110Y-94485569D01*
X143858109Y-94485571D01*
X143727440Y-94681130D01*
X143561130Y-94847440D01*
X143365571Y-94978109D01*
X143365570Y-94978110D01*
X143365569Y-94978110D01*
X143148276Y-95068116D01*
X142917600Y-95114000D01*
X142682400Y-95114000D01*
X142451724Y-95068116D01*
X142234431Y-94978110D01*
X142234430Y-94978110D01*
X142234429Y-94978109D01*
X142038870Y-94847440D01*
X141872560Y-94681130D01*
X141741891Y-94485571D01*
X141741890Y-94485569D01*
X141651884Y-94268276D01*
X141606000Y-94037600D01*
X141606000Y-93802400D01*
X141651884Y-93571724D01*
X141741890Y-93354431D01*
X141872560Y-93158870D01*
X142038870Y-92992560D01*
X142234429Y-92861891D01*
X142234431Y-92861890D01*
X142451724Y-92771884D01*
X142682400Y-92726000D01*
X142917600Y-92726000D01*
X143148276Y-92771884D01*
G37*
G36*
X151479487Y-85298996D02*
G01*
X151716253Y-85397068D01*
X151716255Y-85397069D01*
X151929339Y-85539447D01*
X152110553Y-85720661D01*
X152244090Y-85920513D01*
X152252932Y-85933747D01*
X152351004Y-86170513D01*
X152401000Y-86421861D01*
X152401000Y-86678139D01*
X152351004Y-86929487D01*
X152268222Y-87129339D01*
X152252931Y-87166255D01*
X152110553Y-87379339D01*
X151929339Y-87560553D01*
X151716255Y-87702931D01*
X151716254Y-87702932D01*
X151716253Y-87702932D01*
X151479487Y-87801004D01*
X151228139Y-87851000D01*
X150971861Y-87851000D01*
X150720513Y-87801004D01*
X150483747Y-87702932D01*
X150483746Y-87702932D01*
X150483745Y-87702931D01*
X150270661Y-87560553D01*
X150089447Y-87379339D01*
X149947069Y-87166255D01*
X149931778Y-87129339D01*
X149848996Y-86929487D01*
X149799000Y-86678139D01*
X149799000Y-86421861D01*
X149848996Y-86170513D01*
X149947068Y-85933747D01*
X149955911Y-85920513D01*
X150089447Y-85720661D01*
X150270661Y-85539447D01*
X150483745Y-85397069D01*
X150483747Y-85397068D01*
X150720513Y-85298996D01*
X150971861Y-85249000D01*
X151228139Y-85249000D01*
X151479487Y-85298996D01*
G37*
G36*
X120479487Y-85048996D02*
G01*
X120716253Y-85147068D01*
X120716255Y-85147069D01*
X120868806Y-85249000D01*
X120929339Y-85289447D01*
X121110553Y-85470661D01*
X121252932Y-85683747D01*
X121351004Y-85920513D01*
X121401000Y-86171861D01*
X121401000Y-86428139D01*
X121351004Y-86679487D01*
X121252932Y-86916253D01*
X121252931Y-86916255D01*
X121110553Y-87129339D01*
X120929339Y-87310553D01*
X120716255Y-87452931D01*
X120716254Y-87452932D01*
X120716253Y-87452932D01*
X120479487Y-87551004D01*
X120228139Y-87601000D01*
X119971861Y-87601000D01*
X119720513Y-87551004D01*
X119483747Y-87452932D01*
X119483746Y-87452932D01*
X119483745Y-87452931D01*
X119270661Y-87310553D01*
X119089447Y-87129339D01*
X118947069Y-86916255D01*
X118947068Y-86916253D01*
X118848996Y-86679487D01*
X118799000Y-86428139D01*
X118799000Y-86171861D01*
X118848996Y-85920513D01*
X118947068Y-85683747D01*
X119089447Y-85470661D01*
X119270661Y-85289447D01*
X119331194Y-85249000D01*
X119483745Y-85147069D01*
X119483747Y-85147068D01*
X119720513Y-85048996D01*
X119971861Y-84999000D01*
X120228139Y-84999000D01*
X120479487Y-85048996D01*
G37*
M02*
