M48
; DRILL file {KiCad (5.1.5)-3} date 5/3/2020 10:11:55 PM
; FORMAT={-:-/ absolute / inch / decimal}
; #@! TF.CreationDate,2020-05-03T22:11:55-05:00
; #@! TF.GenerationSoftware,Kicad,Pcbnew,(5.1.5)-3
; #@! TF.FileFunction,Plated,1,2,PTH
FMAT,2
INCH
T1C0.0157
T2C0.0236
T3C0.0299
T4C0.0315
T5C0.0394
T6C0.0433
%
G90
G05
T1
X4.9575Y-4.57
X5.515Y-3.885
X6.005Y-3.885
X6.1375Y-3.885
X6.5875Y-3.885
X6.74Y-3.885
T3
X6.16Y-3.4025
X6.21Y-3.3025
X6.26Y-3.4025
X6.31Y-3.3025
X6.36Y-3.4025
X6.41Y-3.3025
X6.46Y-3.4025
X6.51Y-3.3025
T4
X4.6425Y-3.6225
X4.9425Y-3.6225
X4.645Y-3.8
X4.645Y-3.9
X4.645Y-4.0
X4.645Y-4.1
X4.945Y-3.8
X4.945Y-3.9
X4.945Y-4.0
X4.945Y-4.1
T5
X6.3875Y-3.99
X6.3875Y-4.09
X6.3875Y-4.19
X6.3875Y-4.29
X6.0875Y-3.99
X6.0875Y-4.09
X6.0875Y-4.19
X6.0875Y-4.29
X6.0875Y-4.39
X6.1875Y-3.99
X6.1875Y-4.09
X6.1875Y-4.19
X6.1875Y-4.29
X6.1875Y-4.39
X5.5875Y-4.49
X5.6875Y-4.49
X5.3875Y-4.49
X5.3875Y-4.59
X6.7875Y-4.09
X6.7875Y-4.19
X6.7875Y-4.29
X4.385Y-3.1025
X4.385Y-3.2025
X4.385Y-3.3025
X4.385Y-3.4025
X4.385Y-3.5025
X4.385Y-3.6025
X4.385Y-3.7025
X4.385Y-3.8025
X4.385Y-3.9025
X4.385Y-4.0025
X4.385Y-4.1025
X4.385Y-4.2025
X4.385Y-4.3025
X4.385Y-4.4025
X5.1921Y-3.1025
X5.1921Y-3.2025
X5.1921Y-3.3025
X5.1921Y-3.4025
X5.1921Y-3.5025
X5.1921Y-3.6025
X5.1921Y-3.7025
X5.1921Y-3.8025
X5.1921Y-3.9025
X5.1921Y-4.0025
X5.1921Y-4.1025
X5.1921Y-4.2025
X5.1921Y-4.3025
X5.1921Y-4.4025
X6.0875Y-3.59
X6.0875Y-3.69
X6.0875Y-3.79
X6.1875Y-3.59
X6.1875Y-3.69
X6.1875Y-3.79
X6.3875Y-3.59
X6.3875Y-3.69
X6.3875Y-3.79
X6.4875Y-3.59
X6.4875Y-3.69
X6.4875Y-3.79
X6.0875Y-4.59
X6.1875Y-4.59
X6.2875Y-4.59
X6.3875Y-4.59
X6.4875Y-4.59
X6.5875Y-4.59
X6.5875Y-4.09
X6.5875Y-4.19
X6.5875Y-4.29
X6.6875Y-3.59
X6.6875Y-3.69
X6.6875Y-3.79
X6.7875Y-3.59
X6.7875Y-3.69
X6.7875Y-3.79
T6
X5.3275Y-2.9775
X5.3275Y-3.0775
X5.3275Y-3.1775
X5.3275Y-3.2775
X5.3275Y-3.3775
X5.3275Y-3.4775
X5.3275Y-3.5775
X5.3275Y-3.6775
X5.3275Y-3.7775
X5.3275Y-3.8775
X5.3275Y-3.9775
X5.3275Y-4.0775
X5.3275Y-4.1775
X5.3275Y-4.2775
X5.9275Y-2.9775
X5.9275Y-3.0775
X5.9275Y-3.1775
X5.9275Y-3.2775
X5.9275Y-3.3775
X5.9275Y-3.4775
X5.9275Y-3.5775
X5.9275Y-3.6775
X5.9275Y-3.7775
X5.9275Y-3.8775
X5.9275Y-3.9775
X5.9275Y-4.0775
X5.9275Y-4.1775
X5.9275Y-4.2775
T2
G00X4.6775Y-3.1997
M15
G01X4.6775Y-3.2234
M16
G05
G00X4.8547Y-2.8651
M15
G01X4.8547Y-2.8887
M16
G05
G00X4.8547Y-2.9832
M15
G01X4.8547Y-3.0068
M16
G05
G00X4.8547Y-3.1407
M15
G01X4.8547Y-3.1643
M16
G05
T0
M30
