%TF.GenerationSoftware,KiCad,Pcbnew,(5.1.6)-1*%
%TF.CreationDate,2020-10-01T22:55:38-05:00*%
%TF.ProjectId,VS1000SimpleBreakout,56533130-3030-4536-996d-706c65427265,rev?*%
%TF.SameCoordinates,Original*%
%TF.FileFunction,Paste,Top*%
%TF.FilePolarity,Positive*%
%FSLAX46Y46*%
G04 Gerber Fmt 4.6, Leading zero omitted, Abs format (unit mm)*
G04 Created by KiCad (PCBNEW (5.1.6)-1) date 2020-10-01 22:55:38*
%MOMM*%
%LPD*%
G01*
G04 APERTURE LIST*
%ADD10R,1.100000X1.100000*%
%ADD11R,1.000000X1.000000*%
%ADD12R,1.900000X1.750000*%
%ADD13R,1.400000X0.400000*%
%ADD14R,1.450000X1.150000*%
%ADD15R,3.200000X1.600000*%
G04 APERTURE END LIST*
%TO.C,C1*%
G36*
G01*
X145237000Y-71304999D02*
X145237000Y-72205001D01*
G75*
G02*
X144987001Y-72455000I-249999J0D01*
G01*
X144336999Y-72455000D01*
G75*
G02*
X144087000Y-72205001I0J249999D01*
G01*
X144087000Y-71304999D01*
G75*
G02*
X144336999Y-71055000I249999J0D01*
G01*
X144987001Y-71055000D01*
G75*
G02*
X145237000Y-71304999I0J-249999D01*
G01*
G37*
G36*
G01*
X143187000Y-71304999D02*
X143187000Y-72205001D01*
G75*
G02*
X142937001Y-72455000I-249999J0D01*
G01*
X142286999Y-72455000D01*
G75*
G02*
X142037000Y-72205001I0J249999D01*
G01*
X142037000Y-71304999D01*
G75*
G02*
X142286999Y-71055000I249999J0D01*
G01*
X142937001Y-71055000D01*
G75*
G02*
X143187000Y-71304999I0J-249999D01*
G01*
G37*
%TD*%
%TO.C,C2*%
G36*
G01*
X145897800Y-74376701D02*
X145897800Y-73476699D01*
G75*
G02*
X146147799Y-73226700I249999J0D01*
G01*
X146797801Y-73226700D01*
G75*
G02*
X147047800Y-73476699I0J-249999D01*
G01*
X147047800Y-74376701D01*
G75*
G02*
X146797801Y-74626700I-249999J0D01*
G01*
X146147799Y-74626700D01*
G75*
G02*
X145897800Y-74376701I0J249999D01*
G01*
G37*
G36*
G01*
X147947800Y-74376701D02*
X147947800Y-73476699D01*
G75*
G02*
X148197799Y-73226700I249999J0D01*
G01*
X148847801Y-73226700D01*
G75*
G02*
X149097800Y-73476699I0J-249999D01*
G01*
X149097800Y-74376701D01*
G75*
G02*
X148847801Y-74626700I-249999J0D01*
G01*
X148197799Y-74626700D01*
G75*
G02*
X147947800Y-74376701I0J249999D01*
G01*
G37*
%TD*%
%TO.C,C3*%
G36*
G01*
X150807000Y-71304999D02*
X150807000Y-72205001D01*
G75*
G02*
X150557001Y-72455000I-249999J0D01*
G01*
X149906999Y-72455000D01*
G75*
G02*
X149657000Y-72205001I0J249999D01*
G01*
X149657000Y-71304999D01*
G75*
G02*
X149906999Y-71055000I249999J0D01*
G01*
X150557001Y-71055000D01*
G75*
G02*
X150807000Y-71304999I0J-249999D01*
G01*
G37*
G36*
G01*
X152857000Y-71304999D02*
X152857000Y-72205001D01*
G75*
G02*
X152607001Y-72455000I-249999J0D01*
G01*
X151956999Y-72455000D01*
G75*
G02*
X151707000Y-72205001I0J249999D01*
G01*
X151707000Y-71304999D01*
G75*
G02*
X151956999Y-71055000I249999J0D01*
G01*
X152607001Y-71055000D01*
G75*
G02*
X152857000Y-71304999I0J-249999D01*
G01*
G37*
%TD*%
%TO.C,C4*%
G36*
G01*
X150857800Y-73476699D02*
X150857800Y-74376701D01*
G75*
G02*
X150607801Y-74626700I-249999J0D01*
G01*
X149957799Y-74626700D01*
G75*
G02*
X149707800Y-74376701I0J249999D01*
G01*
X149707800Y-73476699D01*
G75*
G02*
X149957799Y-73226700I249999J0D01*
G01*
X150607801Y-73226700D01*
G75*
G02*
X150857800Y-73476699I0J-249999D01*
G01*
G37*
G36*
G01*
X152907800Y-73476699D02*
X152907800Y-74376701D01*
G75*
G02*
X152657801Y-74626700I-249999J0D01*
G01*
X152007799Y-74626700D01*
G75*
G02*
X151757800Y-74376701I0J249999D01*
G01*
X151757800Y-73476699D01*
G75*
G02*
X152007799Y-73226700I249999J0D01*
G01*
X152657801Y-73226700D01*
G75*
G02*
X152907800Y-73476699I0J-249999D01*
G01*
G37*
%TD*%
%TO.C,C5*%
G36*
G01*
X122994000Y-57817599D02*
X122994000Y-58717601D01*
G75*
G02*
X122744001Y-58967600I-249999J0D01*
G01*
X122093999Y-58967600D01*
G75*
G02*
X121844000Y-58717601I0J249999D01*
G01*
X121844000Y-57817599D01*
G75*
G02*
X122093999Y-57567600I249999J0D01*
G01*
X122744001Y-57567600D01*
G75*
G02*
X122994000Y-57817599I0J-249999D01*
G01*
G37*
G36*
G01*
X125044000Y-57817599D02*
X125044000Y-58717601D01*
G75*
G02*
X124794001Y-58967600I-249999J0D01*
G01*
X124143999Y-58967600D01*
G75*
G02*
X123894000Y-58717601I0J249999D01*
G01*
X123894000Y-57817599D01*
G75*
G02*
X124143999Y-57567600I249999J0D01*
G01*
X124794001Y-57567600D01*
G75*
G02*
X125044000Y-57817599I0J-249999D01*
G01*
G37*
%TD*%
%TO.C,C6*%
G36*
G01*
X131555800Y-59225601D02*
X131555800Y-58325599D01*
G75*
G02*
X131805799Y-58075600I249999J0D01*
G01*
X132455801Y-58075600D01*
G75*
G02*
X132705800Y-58325599I0J-249999D01*
G01*
X132705800Y-59225601D01*
G75*
G02*
X132455801Y-59475600I-249999J0D01*
G01*
X131805799Y-59475600D01*
G75*
G02*
X131555800Y-59225601I0J249999D01*
G01*
G37*
G36*
G01*
X133605800Y-59225601D02*
X133605800Y-58325599D01*
G75*
G02*
X133855799Y-58075600I249999J0D01*
G01*
X134505801Y-58075600D01*
G75*
G02*
X134755800Y-58325599I0J-249999D01*
G01*
X134755800Y-59225601D01*
G75*
G02*
X134505801Y-59475600I-249999J0D01*
G01*
X133855799Y-59475600D01*
G75*
G02*
X133605800Y-59225601I0J249999D01*
G01*
G37*
%TD*%
%TO.C,C7*%
G36*
G01*
X120236401Y-67986600D02*
X119336399Y-67986600D01*
G75*
G02*
X119086400Y-67736601I0J249999D01*
G01*
X119086400Y-67086599D01*
G75*
G02*
X119336399Y-66836600I249999J0D01*
G01*
X120236401Y-66836600D01*
G75*
G02*
X120486400Y-67086599I0J-249999D01*
G01*
X120486400Y-67736601D01*
G75*
G02*
X120236401Y-67986600I-249999J0D01*
G01*
G37*
G36*
G01*
X120236401Y-70036600D02*
X119336399Y-70036600D01*
G75*
G02*
X119086400Y-69786601I0J249999D01*
G01*
X119086400Y-69136599D01*
G75*
G02*
X119336399Y-68886600I249999J0D01*
G01*
X120236401Y-68886600D01*
G75*
G02*
X120486400Y-69136599I0J-249999D01*
G01*
X120486400Y-69786601D01*
G75*
G02*
X120236401Y-70036600I-249999J0D01*
G01*
G37*
%TD*%
%TO.C,C8*%
G36*
G01*
X126111200Y-58717601D02*
X126111200Y-57817599D01*
G75*
G02*
X126361199Y-57567600I249999J0D01*
G01*
X127011201Y-57567600D01*
G75*
G02*
X127261200Y-57817599I0J-249999D01*
G01*
X127261200Y-58717601D01*
G75*
G02*
X127011201Y-58967600I-249999J0D01*
G01*
X126361199Y-58967600D01*
G75*
G02*
X126111200Y-58717601I0J249999D01*
G01*
G37*
G36*
G01*
X128161200Y-58717601D02*
X128161200Y-57817599D01*
G75*
G02*
X128411199Y-57567600I249999J0D01*
G01*
X129061201Y-57567600D01*
G75*
G02*
X129311200Y-57817599I0J-249999D01*
G01*
X129311200Y-58717601D01*
G75*
G02*
X129061201Y-58967600I-249999J0D01*
G01*
X128411199Y-58967600D01*
G75*
G02*
X128161200Y-58717601I0J249999D01*
G01*
G37*
%TD*%
%TO.C,C9*%
G36*
G01*
X134161000Y-61119599D02*
X134161000Y-62019601D01*
G75*
G02*
X133911001Y-62269600I-249999J0D01*
G01*
X133260999Y-62269600D01*
G75*
G02*
X133011000Y-62019601I0J249999D01*
G01*
X133011000Y-61119599D01*
G75*
G02*
X133260999Y-60869600I249999J0D01*
G01*
X133911001Y-60869600D01*
G75*
G02*
X134161000Y-61119599I0J-249999D01*
G01*
G37*
G36*
G01*
X136211000Y-61119599D02*
X136211000Y-62019601D01*
G75*
G02*
X135961001Y-62269600I-249999J0D01*
G01*
X135310999Y-62269600D01*
G75*
G02*
X135061000Y-62019601I0J249999D01*
G01*
X135061000Y-61119599D01*
G75*
G02*
X135310999Y-60869600I249999J0D01*
G01*
X135961001Y-60869600D01*
G75*
G02*
X136211000Y-61119599I0J-249999D01*
G01*
G37*
%TD*%
%TO.C,C10*%
G36*
G01*
X118097500Y-60013001D02*
X118097500Y-59112999D01*
G75*
G02*
X118347499Y-58863000I249999J0D01*
G01*
X118997501Y-58863000D01*
G75*
G02*
X119247500Y-59112999I0J-249999D01*
G01*
X119247500Y-60013001D01*
G75*
G02*
X118997501Y-60263000I-249999J0D01*
G01*
X118347499Y-60263000D01*
G75*
G02*
X118097500Y-60013001I0J249999D01*
G01*
G37*
G36*
G01*
X120147500Y-60013001D02*
X120147500Y-59112999D01*
G75*
G02*
X120397499Y-58863000I249999J0D01*
G01*
X121047501Y-58863000D01*
G75*
G02*
X121297500Y-59112999I0J-249999D01*
G01*
X121297500Y-60013001D01*
G75*
G02*
X121047501Y-60263000I-249999J0D01*
G01*
X120397499Y-60263000D01*
G75*
G02*
X120147500Y-60013001I0J249999D01*
G01*
G37*
%TD*%
%TO.C,D1*%
G36*
G01*
X110787601Y-59562800D02*
X109887599Y-59562800D01*
G75*
G02*
X109637600Y-59312801I0J249999D01*
G01*
X109637600Y-58662799D01*
G75*
G02*
X109887599Y-58412800I249999J0D01*
G01*
X110787601Y-58412800D01*
G75*
G02*
X111037600Y-58662799I0J-249999D01*
G01*
X111037600Y-59312801D01*
G75*
G02*
X110787601Y-59562800I-249999J0D01*
G01*
G37*
G36*
G01*
X110787601Y-57512800D02*
X109887599Y-57512800D01*
G75*
G02*
X109637600Y-57262801I0J249999D01*
G01*
X109637600Y-56612799D01*
G75*
G02*
X109887599Y-56362800I249999J0D01*
G01*
X110787601Y-56362800D01*
G75*
G02*
X111037600Y-56612799I0J-249999D01*
G01*
X111037600Y-57262801D01*
G75*
G02*
X110787601Y-57512800I-249999J0D01*
G01*
G37*
%TD*%
%TO.C,D2*%
G36*
G01*
X110686001Y-72702000D02*
X109785999Y-72702000D01*
G75*
G02*
X109536000Y-72452001I0J249999D01*
G01*
X109536000Y-71801999D01*
G75*
G02*
X109785999Y-71552000I249999J0D01*
G01*
X110686001Y-71552000D01*
G75*
G02*
X110936000Y-71801999I0J-249999D01*
G01*
X110936000Y-72452001D01*
G75*
G02*
X110686001Y-72702000I-249999J0D01*
G01*
G37*
G36*
G01*
X110686001Y-74752000D02*
X109785999Y-74752000D01*
G75*
G02*
X109536000Y-74502001I0J249999D01*
G01*
X109536000Y-73851999D01*
G75*
G02*
X109785999Y-73602000I249999J0D01*
G01*
X110686001Y-73602000D01*
G75*
G02*
X110936000Y-73851999I0J-249999D01*
G01*
X110936000Y-74502001D01*
G75*
G02*
X110686001Y-74752000I-249999J0D01*
G01*
G37*
%TD*%
D10*
%TO.C,D3*%
X116522500Y-60957000D03*
X116522500Y-63757000D03*
%TD*%
%TO.C,D4*%
X116522500Y-55813500D03*
X116522500Y-58613500D03*
%TD*%
D11*
%TO.C,D5*%
X128798000Y-74015600D03*
X131298000Y-74015600D03*
%TD*%
D12*
%TO.C,J3*%
X110560000Y-67165000D03*
D13*
X113210000Y-65390000D03*
X113210000Y-64740000D03*
X113210000Y-67340000D03*
X113210000Y-66690000D03*
X113210000Y-66040000D03*
D12*
X110560000Y-64915000D03*
D14*
X112790000Y-68360000D03*
X112790000Y-63720000D03*
%TD*%
%TO.C,R1*%
G36*
G01*
X112071999Y-58412800D02*
X112972001Y-58412800D01*
G75*
G02*
X113222000Y-58662799I0J-249999D01*
G01*
X113222000Y-59312801D01*
G75*
G02*
X112972001Y-59562800I-249999J0D01*
G01*
X112071999Y-59562800D01*
G75*
G02*
X111822000Y-59312801I0J249999D01*
G01*
X111822000Y-58662799D01*
G75*
G02*
X112071999Y-58412800I249999J0D01*
G01*
G37*
G36*
G01*
X112071999Y-56362800D02*
X112972001Y-56362800D01*
G75*
G02*
X113222000Y-56612799I0J-249999D01*
G01*
X113222000Y-57262801D01*
G75*
G02*
X112972001Y-57512800I-249999J0D01*
G01*
X112071999Y-57512800D01*
G75*
G02*
X111822000Y-57262801I0J249999D01*
G01*
X111822000Y-56612799D01*
G75*
G02*
X112071999Y-56362800I249999J0D01*
G01*
G37*
%TD*%
%TO.C,R2*%
G36*
G01*
X112122799Y-71552000D02*
X113022801Y-71552000D01*
G75*
G02*
X113272800Y-71801999I0J-249999D01*
G01*
X113272800Y-72452001D01*
G75*
G02*
X113022801Y-72702000I-249999J0D01*
G01*
X112122799Y-72702000D01*
G75*
G02*
X111872800Y-72452001I0J249999D01*
G01*
X111872800Y-71801999D01*
G75*
G02*
X112122799Y-71552000I249999J0D01*
G01*
G37*
G36*
G01*
X112122799Y-73602000D02*
X113022801Y-73602000D01*
G75*
G02*
X113272800Y-73851999I0J-249999D01*
G01*
X113272800Y-74502001D01*
G75*
G02*
X113022801Y-74752000I-249999J0D01*
G01*
X112122799Y-74752000D01*
G75*
G02*
X111872800Y-74502001I0J249999D01*
G01*
X111872800Y-73851999D01*
G75*
G02*
X112122799Y-73602000I249999J0D01*
G01*
G37*
%TD*%
%TO.C,R3*%
G36*
G01*
X145287800Y-73476699D02*
X145287800Y-74376701D01*
G75*
G02*
X145037801Y-74626700I-249999J0D01*
G01*
X144387799Y-74626700D01*
G75*
G02*
X144137800Y-74376701I0J249999D01*
G01*
X144137800Y-73476699D01*
G75*
G02*
X144387799Y-73226700I249999J0D01*
G01*
X145037801Y-73226700D01*
G75*
G02*
X145287800Y-73476699I0J-249999D01*
G01*
G37*
G36*
G01*
X143237800Y-73476699D02*
X143237800Y-74376701D01*
G75*
G02*
X142987801Y-74626700I-249999J0D01*
G01*
X142337799Y-74626700D01*
G75*
G02*
X142087800Y-74376701I0J249999D01*
G01*
X142087800Y-73476699D01*
G75*
G02*
X142337799Y-73226700I249999J0D01*
G01*
X142987801Y-73226700D01*
G75*
G02*
X143237800Y-73476699I0J-249999D01*
G01*
G37*
%TD*%
%TO.C,R4*%
G36*
G01*
X147897000Y-72205001D02*
X147897000Y-71304999D01*
G75*
G02*
X148146999Y-71055000I249999J0D01*
G01*
X148797001Y-71055000D01*
G75*
G02*
X149047000Y-71304999I0J-249999D01*
G01*
X149047000Y-72205001D01*
G75*
G02*
X148797001Y-72455000I-249999J0D01*
G01*
X148146999Y-72455000D01*
G75*
G02*
X147897000Y-72205001I0J249999D01*
G01*
G37*
G36*
G01*
X145847000Y-72205001D02*
X145847000Y-71304999D01*
G75*
G02*
X146096999Y-71055000I249999J0D01*
G01*
X146747001Y-71055000D01*
G75*
G02*
X146997000Y-71304999I0J-249999D01*
G01*
X146997000Y-72205001D01*
G75*
G02*
X146747001Y-72455000I-249999J0D01*
G01*
X146096999Y-72455000D01*
G75*
G02*
X145847000Y-72205001I0J249999D01*
G01*
G37*
%TD*%
%TO.C,R5*%
G36*
G01*
X137592000Y-73030501D02*
X137592000Y-72130499D01*
G75*
G02*
X137841999Y-71880500I249999J0D01*
G01*
X138492001Y-71880500D01*
G75*
G02*
X138742000Y-72130499I0J-249999D01*
G01*
X138742000Y-73030501D01*
G75*
G02*
X138492001Y-73280500I-249999J0D01*
G01*
X137841999Y-73280500D01*
G75*
G02*
X137592000Y-73030501I0J249999D01*
G01*
G37*
G36*
G01*
X139642000Y-73030501D02*
X139642000Y-72130499D01*
G75*
G02*
X139891999Y-71880500I249999J0D01*
G01*
X140542001Y-71880500D01*
G75*
G02*
X140792000Y-72130499I0J-249999D01*
G01*
X140792000Y-73030501D01*
G75*
G02*
X140542001Y-73280500I-249999J0D01*
G01*
X139891999Y-73280500D01*
G75*
G02*
X139642000Y-73030501I0J249999D01*
G01*
G37*
%TD*%
%TO.C,R6*%
G36*
G01*
X120744401Y-74701200D02*
X119844399Y-74701200D01*
G75*
G02*
X119594400Y-74451201I0J249999D01*
G01*
X119594400Y-73801199D01*
G75*
G02*
X119844399Y-73551200I249999J0D01*
G01*
X120744401Y-73551200D01*
G75*
G02*
X120994400Y-73801199I0J-249999D01*
G01*
X120994400Y-74451201D01*
G75*
G02*
X120744401Y-74701200I-249999J0D01*
G01*
G37*
G36*
G01*
X120744401Y-72651200D02*
X119844399Y-72651200D01*
G75*
G02*
X119594400Y-72401201I0J249999D01*
G01*
X119594400Y-71751199D01*
G75*
G02*
X119844399Y-71501200I249999J0D01*
G01*
X120744401Y-71501200D01*
G75*
G02*
X120994400Y-71751199I0J-249999D01*
G01*
X120994400Y-72401201D01*
G75*
G02*
X120744401Y-72651200I-249999J0D01*
G01*
G37*
%TD*%
%TO.C,R7*%
G36*
G01*
X133090499Y-65664500D02*
X133990501Y-65664500D01*
G75*
G02*
X134240500Y-65914499I0J-249999D01*
G01*
X134240500Y-66564501D01*
G75*
G02*
X133990501Y-66814500I-249999J0D01*
G01*
X133090499Y-66814500D01*
G75*
G02*
X132840500Y-66564501I0J249999D01*
G01*
X132840500Y-65914499D01*
G75*
G02*
X133090499Y-65664500I249999J0D01*
G01*
G37*
G36*
G01*
X133090499Y-63614500D02*
X133990501Y-63614500D01*
G75*
G02*
X134240500Y-63864499I0J-249999D01*
G01*
X134240500Y-64514501D01*
G75*
G02*
X133990501Y-64764500I-249999J0D01*
G01*
X133090499Y-64764500D01*
G75*
G02*
X132840500Y-64514501I0J249999D01*
G01*
X132840500Y-63864499D01*
G75*
G02*
X133090499Y-63614500I249999J0D01*
G01*
G37*
%TD*%
%TO.C,R8*%
G36*
G01*
X131444800Y-71685999D02*
X131444800Y-72586001D01*
G75*
G02*
X131194801Y-72836000I-249999J0D01*
G01*
X130544799Y-72836000D01*
G75*
G02*
X130294800Y-72586001I0J249999D01*
G01*
X130294800Y-71685999D01*
G75*
G02*
X130544799Y-71436000I249999J0D01*
G01*
X131194801Y-71436000D01*
G75*
G02*
X131444800Y-71685999I0J-249999D01*
G01*
G37*
G36*
G01*
X129394800Y-71685999D02*
X129394800Y-72586001D01*
G75*
G02*
X129144801Y-72836000I-249999J0D01*
G01*
X128494799Y-72836000D01*
G75*
G02*
X128244800Y-72586001I0J249999D01*
G01*
X128244800Y-71685999D01*
G75*
G02*
X128494799Y-71436000I249999J0D01*
G01*
X129144801Y-71436000D01*
G75*
G02*
X129394800Y-71685999I0J-249999D01*
G01*
G37*
%TD*%
%TO.C,R9*%
G36*
G01*
X120147500Y-61918001D02*
X120147500Y-61017999D01*
G75*
G02*
X120397499Y-60768000I249999J0D01*
G01*
X121047501Y-60768000D01*
G75*
G02*
X121297500Y-61017999I0J-249999D01*
G01*
X121297500Y-61918001D01*
G75*
G02*
X121047501Y-62168000I-249999J0D01*
G01*
X120397499Y-62168000D01*
G75*
G02*
X120147500Y-61918001I0J249999D01*
G01*
G37*
G36*
G01*
X118097500Y-61918001D02*
X118097500Y-61017999D01*
G75*
G02*
X118347499Y-60768000I249999J0D01*
G01*
X118997501Y-60768000D01*
G75*
G02*
X119247500Y-61017999I0J-249999D01*
G01*
X119247500Y-61918001D01*
G75*
G02*
X118997501Y-62168000I-249999J0D01*
G01*
X118347499Y-62168000D01*
G75*
G02*
X118097500Y-61918001I0J249999D01*
G01*
G37*
%TD*%
%TO.C,R10*%
G36*
G01*
X118376500Y-65081999D02*
X118376500Y-65982001D01*
G75*
G02*
X118126501Y-66232000I-249999J0D01*
G01*
X117476499Y-66232000D01*
G75*
G02*
X117226500Y-65982001I0J249999D01*
G01*
X117226500Y-65081999D01*
G75*
G02*
X117476499Y-64832000I249999J0D01*
G01*
X118126501Y-64832000D01*
G75*
G02*
X118376500Y-65081999I0J-249999D01*
G01*
G37*
G36*
G01*
X116326500Y-65081999D02*
X116326500Y-65982001D01*
G75*
G02*
X116076501Y-66232000I-249999J0D01*
G01*
X115426499Y-66232000D01*
G75*
G02*
X115176500Y-65982001I0J249999D01*
G01*
X115176500Y-65081999D01*
G75*
G02*
X115426499Y-64832000I249999J0D01*
G01*
X116076501Y-64832000D01*
G75*
G02*
X116326500Y-65081999I0J-249999D01*
G01*
G37*
%TD*%
%TO.C,R11*%
G36*
G01*
X116326500Y-67050499D02*
X116326500Y-67950501D01*
G75*
G02*
X116076501Y-68200500I-249999J0D01*
G01*
X115426499Y-68200500D01*
G75*
G02*
X115176500Y-67950501I0J249999D01*
G01*
X115176500Y-67050499D01*
G75*
G02*
X115426499Y-66800500I249999J0D01*
G01*
X116076501Y-66800500D01*
G75*
G02*
X116326500Y-67050499I0J-249999D01*
G01*
G37*
G36*
G01*
X118376500Y-67050499D02*
X118376500Y-67950501D01*
G75*
G02*
X118126501Y-68200500I-249999J0D01*
G01*
X117476499Y-68200500D01*
G75*
G02*
X117226500Y-67950501I0J249999D01*
G01*
X117226500Y-67050499D01*
G75*
G02*
X117476499Y-66800500I249999J0D01*
G01*
X118126501Y-66800500D01*
G75*
G02*
X118376500Y-67050499I0J-249999D01*
G01*
G37*
%TD*%
%TO.C,R12*%
G36*
G01*
X121876399Y-71501200D02*
X122776401Y-71501200D01*
G75*
G02*
X123026400Y-71751199I0J-249999D01*
G01*
X123026400Y-72401201D01*
G75*
G02*
X122776401Y-72651200I-249999J0D01*
G01*
X121876399Y-72651200D01*
G75*
G02*
X121626400Y-72401201I0J249999D01*
G01*
X121626400Y-71751199D01*
G75*
G02*
X121876399Y-71501200I249999J0D01*
G01*
G37*
G36*
G01*
X121876399Y-73551200D02*
X122776401Y-73551200D01*
G75*
G02*
X123026400Y-73801199I0J-249999D01*
G01*
X123026400Y-74451201D01*
G75*
G02*
X122776401Y-74701200I-249999J0D01*
G01*
X121876399Y-74701200D01*
G75*
G02*
X121626400Y-74451201I0J249999D01*
G01*
X121626400Y-73801199D01*
G75*
G02*
X121876399Y-73551200I249999J0D01*
G01*
G37*
%TD*%
%TO.C,R13*%
G36*
G01*
X124009999Y-73538500D02*
X124910001Y-73538500D01*
G75*
G02*
X125160000Y-73788499I0J-249999D01*
G01*
X125160000Y-74438501D01*
G75*
G02*
X124910001Y-74688500I-249999J0D01*
G01*
X124009999Y-74688500D01*
G75*
G02*
X123760000Y-74438501I0J249999D01*
G01*
X123760000Y-73788499D01*
G75*
G02*
X124009999Y-73538500I249999J0D01*
G01*
G37*
G36*
G01*
X124009999Y-71488500D02*
X124910001Y-71488500D01*
G75*
G02*
X125160000Y-71738499I0J-249999D01*
G01*
X125160000Y-72388501D01*
G75*
G02*
X124910001Y-72638500I-249999J0D01*
G01*
X124009999Y-72638500D01*
G75*
G02*
X123760000Y-72388501I0J249999D01*
G01*
X123760000Y-71738499D01*
G75*
G02*
X124009999Y-71488500I249999J0D01*
G01*
G37*
%TD*%
%TO.C,R14*%
G36*
G01*
X126486499Y-71425000D02*
X127386501Y-71425000D01*
G75*
G02*
X127636500Y-71674999I0J-249999D01*
G01*
X127636500Y-72325001D01*
G75*
G02*
X127386501Y-72575000I-249999J0D01*
G01*
X126486499Y-72575000D01*
G75*
G02*
X126236500Y-72325001I0J249999D01*
G01*
X126236500Y-71674999D01*
G75*
G02*
X126486499Y-71425000I249999J0D01*
G01*
G37*
G36*
G01*
X126486499Y-73475000D02*
X127386501Y-73475000D01*
G75*
G02*
X127636500Y-73724999I0J-249999D01*
G01*
X127636500Y-74375001D01*
G75*
G02*
X127386501Y-74625000I-249999J0D01*
G01*
X126486499Y-74625000D01*
G75*
G02*
X126236500Y-74375001I0J249999D01*
G01*
X126236500Y-73724999D01*
G75*
G02*
X126486499Y-73475000I249999J0D01*
G01*
G37*
%TD*%
%TO.C,R15*%
G36*
G01*
X117239200Y-72027201D02*
X117239200Y-71127199D01*
G75*
G02*
X117489199Y-70877200I249999J0D01*
G01*
X118139201Y-70877200D01*
G75*
G02*
X118389200Y-71127199I0J-249999D01*
G01*
X118389200Y-72027201D01*
G75*
G02*
X118139201Y-72277200I-249999J0D01*
G01*
X117489199Y-72277200D01*
G75*
G02*
X117239200Y-72027201I0J249999D01*
G01*
G37*
G36*
G01*
X115189200Y-72027201D02*
X115189200Y-71127199D01*
G75*
G02*
X115439199Y-70877200I249999J0D01*
G01*
X116089201Y-70877200D01*
G75*
G02*
X116339200Y-71127199I0J-249999D01*
G01*
X116339200Y-72027201D01*
G75*
G02*
X116089201Y-72277200I-249999J0D01*
G01*
X115439199Y-72277200D01*
G75*
G02*
X115189200Y-72027201I0J249999D01*
G01*
G37*
%TD*%
%TO.C,R16*%
G36*
G01*
X115189200Y-70046001D02*
X115189200Y-69145999D01*
G75*
G02*
X115439199Y-68896000I249999J0D01*
G01*
X116089201Y-68896000D01*
G75*
G02*
X116339200Y-69145999I0J-249999D01*
G01*
X116339200Y-70046001D01*
G75*
G02*
X116089201Y-70296000I-249999J0D01*
G01*
X115439199Y-70296000D01*
G75*
G02*
X115189200Y-70046001I0J249999D01*
G01*
G37*
G36*
G01*
X117239200Y-70046001D02*
X117239200Y-69145999D01*
G75*
G02*
X117489199Y-68896000I249999J0D01*
G01*
X118139201Y-68896000D01*
G75*
G02*
X118389200Y-69145999I0J-249999D01*
G01*
X118389200Y-70046001D01*
G75*
G02*
X118139201Y-70296000I-249999J0D01*
G01*
X117489199Y-70296000D01*
G75*
G02*
X117239200Y-70046001I0J249999D01*
G01*
G37*
%TD*%
%TO.C,R17*%
G36*
G01*
X115189200Y-74059201D02*
X115189200Y-73159199D01*
G75*
G02*
X115439199Y-72909200I249999J0D01*
G01*
X116089201Y-72909200D01*
G75*
G02*
X116339200Y-73159199I0J-249999D01*
G01*
X116339200Y-74059201D01*
G75*
G02*
X116089201Y-74309200I-249999J0D01*
G01*
X115439199Y-74309200D01*
G75*
G02*
X115189200Y-74059201I0J249999D01*
G01*
G37*
G36*
G01*
X117239200Y-74059201D02*
X117239200Y-73159199D01*
G75*
G02*
X117489199Y-72909200I249999J0D01*
G01*
X118139201Y-72909200D01*
G75*
G02*
X118389200Y-73159199I0J-249999D01*
G01*
X118389200Y-74059201D01*
G75*
G02*
X118139201Y-74309200I-249999J0D01*
G01*
X117489199Y-74309200D01*
G75*
G02*
X117239200Y-74059201I0J249999D01*
G01*
G37*
%TD*%
%TO.C,U1*%
G36*
G01*
X137945000Y-70440000D02*
X137645000Y-70440000D01*
G75*
G02*
X137495000Y-70290000I0J150000D01*
G01*
X137495000Y-68990000D01*
G75*
G02*
X137645000Y-68840000I150000J0D01*
G01*
X137945000Y-68840000D01*
G75*
G02*
X138095000Y-68990000I0J-150000D01*
G01*
X138095000Y-70290000D01*
G75*
G02*
X137945000Y-70440000I-150000J0D01*
G01*
G37*
G36*
G01*
X139215000Y-70440000D02*
X138915000Y-70440000D01*
G75*
G02*
X138765000Y-70290000I0J150000D01*
G01*
X138765000Y-68990000D01*
G75*
G02*
X138915000Y-68840000I150000J0D01*
G01*
X139215000Y-68840000D01*
G75*
G02*
X139365000Y-68990000I0J-150000D01*
G01*
X139365000Y-70290000D01*
G75*
G02*
X139215000Y-70440000I-150000J0D01*
G01*
G37*
G36*
G01*
X140485000Y-70440000D02*
X140185000Y-70440000D01*
G75*
G02*
X140035000Y-70290000I0J150000D01*
G01*
X140035000Y-68990000D01*
G75*
G02*
X140185000Y-68840000I150000J0D01*
G01*
X140485000Y-68840000D01*
G75*
G02*
X140635000Y-68990000I0J-150000D01*
G01*
X140635000Y-70290000D01*
G75*
G02*
X140485000Y-70440000I-150000J0D01*
G01*
G37*
G36*
G01*
X141755000Y-70440000D02*
X141455000Y-70440000D01*
G75*
G02*
X141305000Y-70290000I0J150000D01*
G01*
X141305000Y-68990000D01*
G75*
G02*
X141455000Y-68840000I150000J0D01*
G01*
X141755000Y-68840000D01*
G75*
G02*
X141905000Y-68990000I0J-150000D01*
G01*
X141905000Y-70290000D01*
G75*
G02*
X141755000Y-70440000I-150000J0D01*
G01*
G37*
G36*
G01*
X141755000Y-63240000D02*
X141455000Y-63240000D01*
G75*
G02*
X141305000Y-63090000I0J150000D01*
G01*
X141305000Y-61790000D01*
G75*
G02*
X141455000Y-61640000I150000J0D01*
G01*
X141755000Y-61640000D01*
G75*
G02*
X141905000Y-61790000I0J-150000D01*
G01*
X141905000Y-63090000D01*
G75*
G02*
X141755000Y-63240000I-150000J0D01*
G01*
G37*
G36*
G01*
X140485000Y-63240000D02*
X140185000Y-63240000D01*
G75*
G02*
X140035000Y-63090000I0J150000D01*
G01*
X140035000Y-61790000D01*
G75*
G02*
X140185000Y-61640000I150000J0D01*
G01*
X140485000Y-61640000D01*
G75*
G02*
X140635000Y-61790000I0J-150000D01*
G01*
X140635000Y-63090000D01*
G75*
G02*
X140485000Y-63240000I-150000J0D01*
G01*
G37*
G36*
G01*
X139215000Y-63240000D02*
X138915000Y-63240000D01*
G75*
G02*
X138765000Y-63090000I0J150000D01*
G01*
X138765000Y-61790000D01*
G75*
G02*
X138915000Y-61640000I150000J0D01*
G01*
X139215000Y-61640000D01*
G75*
G02*
X139365000Y-61790000I0J-150000D01*
G01*
X139365000Y-63090000D01*
G75*
G02*
X139215000Y-63240000I-150000J0D01*
G01*
G37*
G36*
G01*
X137945000Y-63240000D02*
X137645000Y-63240000D01*
G75*
G02*
X137495000Y-63090000I0J150000D01*
G01*
X137495000Y-61790000D01*
G75*
G02*
X137645000Y-61640000I150000J0D01*
G01*
X137945000Y-61640000D01*
G75*
G02*
X138095000Y-61790000I0J-150000D01*
G01*
X138095000Y-63090000D01*
G75*
G02*
X137945000Y-63240000I-150000J0D01*
G01*
G37*
%TD*%
%TO.C,U2*%
G36*
G01*
X122100000Y-62095000D02*
X122100000Y-61945000D01*
G75*
G02*
X122175000Y-61870000I75000J0D01*
G01*
X123500000Y-61870000D01*
G75*
G02*
X123575000Y-61945000I0J-75000D01*
G01*
X123575000Y-62095000D01*
G75*
G02*
X123500000Y-62170000I-75000J0D01*
G01*
X122175000Y-62170000D01*
G75*
G02*
X122100000Y-62095000I0J75000D01*
G01*
G37*
G36*
G01*
X122100000Y-62595000D02*
X122100000Y-62445000D01*
G75*
G02*
X122175000Y-62370000I75000J0D01*
G01*
X123500000Y-62370000D01*
G75*
G02*
X123575000Y-62445000I0J-75000D01*
G01*
X123575000Y-62595000D01*
G75*
G02*
X123500000Y-62670000I-75000J0D01*
G01*
X122175000Y-62670000D01*
G75*
G02*
X122100000Y-62595000I0J75000D01*
G01*
G37*
G36*
G01*
X122100000Y-63095000D02*
X122100000Y-62945000D01*
G75*
G02*
X122175000Y-62870000I75000J0D01*
G01*
X123500000Y-62870000D01*
G75*
G02*
X123575000Y-62945000I0J-75000D01*
G01*
X123575000Y-63095000D01*
G75*
G02*
X123500000Y-63170000I-75000J0D01*
G01*
X122175000Y-63170000D01*
G75*
G02*
X122100000Y-63095000I0J75000D01*
G01*
G37*
G36*
G01*
X122100000Y-63595000D02*
X122100000Y-63445000D01*
G75*
G02*
X122175000Y-63370000I75000J0D01*
G01*
X123500000Y-63370000D01*
G75*
G02*
X123575000Y-63445000I0J-75000D01*
G01*
X123575000Y-63595000D01*
G75*
G02*
X123500000Y-63670000I-75000J0D01*
G01*
X122175000Y-63670000D01*
G75*
G02*
X122100000Y-63595000I0J75000D01*
G01*
G37*
G36*
G01*
X122100000Y-64095000D02*
X122100000Y-63945000D01*
G75*
G02*
X122175000Y-63870000I75000J0D01*
G01*
X123500000Y-63870000D01*
G75*
G02*
X123575000Y-63945000I0J-75000D01*
G01*
X123575000Y-64095000D01*
G75*
G02*
X123500000Y-64170000I-75000J0D01*
G01*
X122175000Y-64170000D01*
G75*
G02*
X122100000Y-64095000I0J75000D01*
G01*
G37*
G36*
G01*
X122100000Y-64595000D02*
X122100000Y-64445000D01*
G75*
G02*
X122175000Y-64370000I75000J0D01*
G01*
X123500000Y-64370000D01*
G75*
G02*
X123575000Y-64445000I0J-75000D01*
G01*
X123575000Y-64595000D01*
G75*
G02*
X123500000Y-64670000I-75000J0D01*
G01*
X122175000Y-64670000D01*
G75*
G02*
X122100000Y-64595000I0J75000D01*
G01*
G37*
G36*
G01*
X122100000Y-65095000D02*
X122100000Y-64945000D01*
G75*
G02*
X122175000Y-64870000I75000J0D01*
G01*
X123500000Y-64870000D01*
G75*
G02*
X123575000Y-64945000I0J-75000D01*
G01*
X123575000Y-65095000D01*
G75*
G02*
X123500000Y-65170000I-75000J0D01*
G01*
X122175000Y-65170000D01*
G75*
G02*
X122100000Y-65095000I0J75000D01*
G01*
G37*
G36*
G01*
X122100000Y-65595000D02*
X122100000Y-65445000D01*
G75*
G02*
X122175000Y-65370000I75000J0D01*
G01*
X123500000Y-65370000D01*
G75*
G02*
X123575000Y-65445000I0J-75000D01*
G01*
X123575000Y-65595000D01*
G75*
G02*
X123500000Y-65670000I-75000J0D01*
G01*
X122175000Y-65670000D01*
G75*
G02*
X122100000Y-65595000I0J75000D01*
G01*
G37*
G36*
G01*
X122100000Y-66095000D02*
X122100000Y-65945000D01*
G75*
G02*
X122175000Y-65870000I75000J0D01*
G01*
X123500000Y-65870000D01*
G75*
G02*
X123575000Y-65945000I0J-75000D01*
G01*
X123575000Y-66095000D01*
G75*
G02*
X123500000Y-66170000I-75000J0D01*
G01*
X122175000Y-66170000D01*
G75*
G02*
X122100000Y-66095000I0J75000D01*
G01*
G37*
G36*
G01*
X122100000Y-66595000D02*
X122100000Y-66445000D01*
G75*
G02*
X122175000Y-66370000I75000J0D01*
G01*
X123500000Y-66370000D01*
G75*
G02*
X123575000Y-66445000I0J-75000D01*
G01*
X123575000Y-66595000D01*
G75*
G02*
X123500000Y-66670000I-75000J0D01*
G01*
X122175000Y-66670000D01*
G75*
G02*
X122100000Y-66595000I0J75000D01*
G01*
G37*
G36*
G01*
X122100000Y-67095000D02*
X122100000Y-66945000D01*
G75*
G02*
X122175000Y-66870000I75000J0D01*
G01*
X123500000Y-66870000D01*
G75*
G02*
X123575000Y-66945000I0J-75000D01*
G01*
X123575000Y-67095000D01*
G75*
G02*
X123500000Y-67170000I-75000J0D01*
G01*
X122175000Y-67170000D01*
G75*
G02*
X122100000Y-67095000I0J75000D01*
G01*
G37*
G36*
G01*
X122100000Y-67595000D02*
X122100000Y-67445000D01*
G75*
G02*
X122175000Y-67370000I75000J0D01*
G01*
X123500000Y-67370000D01*
G75*
G02*
X123575000Y-67445000I0J-75000D01*
G01*
X123575000Y-67595000D01*
G75*
G02*
X123500000Y-67670000I-75000J0D01*
G01*
X122175000Y-67670000D01*
G75*
G02*
X122100000Y-67595000I0J75000D01*
G01*
G37*
G36*
G01*
X124100000Y-69595000D02*
X124100000Y-68270000D01*
G75*
G02*
X124175000Y-68195000I75000J0D01*
G01*
X124325000Y-68195000D01*
G75*
G02*
X124400000Y-68270000I0J-75000D01*
G01*
X124400000Y-69595000D01*
G75*
G02*
X124325000Y-69670000I-75000J0D01*
G01*
X124175000Y-69670000D01*
G75*
G02*
X124100000Y-69595000I0J75000D01*
G01*
G37*
G36*
G01*
X124600000Y-69595000D02*
X124600000Y-68270000D01*
G75*
G02*
X124675000Y-68195000I75000J0D01*
G01*
X124825000Y-68195000D01*
G75*
G02*
X124900000Y-68270000I0J-75000D01*
G01*
X124900000Y-69595000D01*
G75*
G02*
X124825000Y-69670000I-75000J0D01*
G01*
X124675000Y-69670000D01*
G75*
G02*
X124600000Y-69595000I0J75000D01*
G01*
G37*
G36*
G01*
X125100000Y-69595000D02*
X125100000Y-68270000D01*
G75*
G02*
X125175000Y-68195000I75000J0D01*
G01*
X125325000Y-68195000D01*
G75*
G02*
X125400000Y-68270000I0J-75000D01*
G01*
X125400000Y-69595000D01*
G75*
G02*
X125325000Y-69670000I-75000J0D01*
G01*
X125175000Y-69670000D01*
G75*
G02*
X125100000Y-69595000I0J75000D01*
G01*
G37*
G36*
G01*
X125600000Y-69595000D02*
X125600000Y-68270000D01*
G75*
G02*
X125675000Y-68195000I75000J0D01*
G01*
X125825000Y-68195000D01*
G75*
G02*
X125900000Y-68270000I0J-75000D01*
G01*
X125900000Y-69595000D01*
G75*
G02*
X125825000Y-69670000I-75000J0D01*
G01*
X125675000Y-69670000D01*
G75*
G02*
X125600000Y-69595000I0J75000D01*
G01*
G37*
G36*
G01*
X126100000Y-69595000D02*
X126100000Y-68270000D01*
G75*
G02*
X126175000Y-68195000I75000J0D01*
G01*
X126325000Y-68195000D01*
G75*
G02*
X126400000Y-68270000I0J-75000D01*
G01*
X126400000Y-69595000D01*
G75*
G02*
X126325000Y-69670000I-75000J0D01*
G01*
X126175000Y-69670000D01*
G75*
G02*
X126100000Y-69595000I0J75000D01*
G01*
G37*
G36*
G01*
X126600000Y-69595000D02*
X126600000Y-68270000D01*
G75*
G02*
X126675000Y-68195000I75000J0D01*
G01*
X126825000Y-68195000D01*
G75*
G02*
X126900000Y-68270000I0J-75000D01*
G01*
X126900000Y-69595000D01*
G75*
G02*
X126825000Y-69670000I-75000J0D01*
G01*
X126675000Y-69670000D01*
G75*
G02*
X126600000Y-69595000I0J75000D01*
G01*
G37*
G36*
G01*
X127100000Y-69595000D02*
X127100000Y-68270000D01*
G75*
G02*
X127175000Y-68195000I75000J0D01*
G01*
X127325000Y-68195000D01*
G75*
G02*
X127400000Y-68270000I0J-75000D01*
G01*
X127400000Y-69595000D01*
G75*
G02*
X127325000Y-69670000I-75000J0D01*
G01*
X127175000Y-69670000D01*
G75*
G02*
X127100000Y-69595000I0J75000D01*
G01*
G37*
G36*
G01*
X127600000Y-69595000D02*
X127600000Y-68270000D01*
G75*
G02*
X127675000Y-68195000I75000J0D01*
G01*
X127825000Y-68195000D01*
G75*
G02*
X127900000Y-68270000I0J-75000D01*
G01*
X127900000Y-69595000D01*
G75*
G02*
X127825000Y-69670000I-75000J0D01*
G01*
X127675000Y-69670000D01*
G75*
G02*
X127600000Y-69595000I0J75000D01*
G01*
G37*
G36*
G01*
X128100000Y-69595000D02*
X128100000Y-68270000D01*
G75*
G02*
X128175000Y-68195000I75000J0D01*
G01*
X128325000Y-68195000D01*
G75*
G02*
X128400000Y-68270000I0J-75000D01*
G01*
X128400000Y-69595000D01*
G75*
G02*
X128325000Y-69670000I-75000J0D01*
G01*
X128175000Y-69670000D01*
G75*
G02*
X128100000Y-69595000I0J75000D01*
G01*
G37*
G36*
G01*
X128600000Y-69595000D02*
X128600000Y-68270000D01*
G75*
G02*
X128675000Y-68195000I75000J0D01*
G01*
X128825000Y-68195000D01*
G75*
G02*
X128900000Y-68270000I0J-75000D01*
G01*
X128900000Y-69595000D01*
G75*
G02*
X128825000Y-69670000I-75000J0D01*
G01*
X128675000Y-69670000D01*
G75*
G02*
X128600000Y-69595000I0J75000D01*
G01*
G37*
G36*
G01*
X129100000Y-69595000D02*
X129100000Y-68270000D01*
G75*
G02*
X129175000Y-68195000I75000J0D01*
G01*
X129325000Y-68195000D01*
G75*
G02*
X129400000Y-68270000I0J-75000D01*
G01*
X129400000Y-69595000D01*
G75*
G02*
X129325000Y-69670000I-75000J0D01*
G01*
X129175000Y-69670000D01*
G75*
G02*
X129100000Y-69595000I0J75000D01*
G01*
G37*
G36*
G01*
X129600000Y-69595000D02*
X129600000Y-68270000D01*
G75*
G02*
X129675000Y-68195000I75000J0D01*
G01*
X129825000Y-68195000D01*
G75*
G02*
X129900000Y-68270000I0J-75000D01*
G01*
X129900000Y-69595000D01*
G75*
G02*
X129825000Y-69670000I-75000J0D01*
G01*
X129675000Y-69670000D01*
G75*
G02*
X129600000Y-69595000I0J75000D01*
G01*
G37*
G36*
G01*
X130425000Y-67595000D02*
X130425000Y-67445000D01*
G75*
G02*
X130500000Y-67370000I75000J0D01*
G01*
X131825000Y-67370000D01*
G75*
G02*
X131900000Y-67445000I0J-75000D01*
G01*
X131900000Y-67595000D01*
G75*
G02*
X131825000Y-67670000I-75000J0D01*
G01*
X130500000Y-67670000D01*
G75*
G02*
X130425000Y-67595000I0J75000D01*
G01*
G37*
G36*
G01*
X130425000Y-67095000D02*
X130425000Y-66945000D01*
G75*
G02*
X130500000Y-66870000I75000J0D01*
G01*
X131825000Y-66870000D01*
G75*
G02*
X131900000Y-66945000I0J-75000D01*
G01*
X131900000Y-67095000D01*
G75*
G02*
X131825000Y-67170000I-75000J0D01*
G01*
X130500000Y-67170000D01*
G75*
G02*
X130425000Y-67095000I0J75000D01*
G01*
G37*
G36*
G01*
X130425000Y-66595000D02*
X130425000Y-66445000D01*
G75*
G02*
X130500000Y-66370000I75000J0D01*
G01*
X131825000Y-66370000D01*
G75*
G02*
X131900000Y-66445000I0J-75000D01*
G01*
X131900000Y-66595000D01*
G75*
G02*
X131825000Y-66670000I-75000J0D01*
G01*
X130500000Y-66670000D01*
G75*
G02*
X130425000Y-66595000I0J75000D01*
G01*
G37*
G36*
G01*
X130425000Y-66095000D02*
X130425000Y-65945000D01*
G75*
G02*
X130500000Y-65870000I75000J0D01*
G01*
X131825000Y-65870000D01*
G75*
G02*
X131900000Y-65945000I0J-75000D01*
G01*
X131900000Y-66095000D01*
G75*
G02*
X131825000Y-66170000I-75000J0D01*
G01*
X130500000Y-66170000D01*
G75*
G02*
X130425000Y-66095000I0J75000D01*
G01*
G37*
G36*
G01*
X130425000Y-65595000D02*
X130425000Y-65445000D01*
G75*
G02*
X130500000Y-65370000I75000J0D01*
G01*
X131825000Y-65370000D01*
G75*
G02*
X131900000Y-65445000I0J-75000D01*
G01*
X131900000Y-65595000D01*
G75*
G02*
X131825000Y-65670000I-75000J0D01*
G01*
X130500000Y-65670000D01*
G75*
G02*
X130425000Y-65595000I0J75000D01*
G01*
G37*
G36*
G01*
X130425000Y-65095000D02*
X130425000Y-64945000D01*
G75*
G02*
X130500000Y-64870000I75000J0D01*
G01*
X131825000Y-64870000D01*
G75*
G02*
X131900000Y-64945000I0J-75000D01*
G01*
X131900000Y-65095000D01*
G75*
G02*
X131825000Y-65170000I-75000J0D01*
G01*
X130500000Y-65170000D01*
G75*
G02*
X130425000Y-65095000I0J75000D01*
G01*
G37*
G36*
G01*
X130425000Y-64595000D02*
X130425000Y-64445000D01*
G75*
G02*
X130500000Y-64370000I75000J0D01*
G01*
X131825000Y-64370000D01*
G75*
G02*
X131900000Y-64445000I0J-75000D01*
G01*
X131900000Y-64595000D01*
G75*
G02*
X131825000Y-64670000I-75000J0D01*
G01*
X130500000Y-64670000D01*
G75*
G02*
X130425000Y-64595000I0J75000D01*
G01*
G37*
G36*
G01*
X130425000Y-64095000D02*
X130425000Y-63945000D01*
G75*
G02*
X130500000Y-63870000I75000J0D01*
G01*
X131825000Y-63870000D01*
G75*
G02*
X131900000Y-63945000I0J-75000D01*
G01*
X131900000Y-64095000D01*
G75*
G02*
X131825000Y-64170000I-75000J0D01*
G01*
X130500000Y-64170000D01*
G75*
G02*
X130425000Y-64095000I0J75000D01*
G01*
G37*
G36*
G01*
X130425000Y-63595000D02*
X130425000Y-63445000D01*
G75*
G02*
X130500000Y-63370000I75000J0D01*
G01*
X131825000Y-63370000D01*
G75*
G02*
X131900000Y-63445000I0J-75000D01*
G01*
X131900000Y-63595000D01*
G75*
G02*
X131825000Y-63670000I-75000J0D01*
G01*
X130500000Y-63670000D01*
G75*
G02*
X130425000Y-63595000I0J75000D01*
G01*
G37*
G36*
G01*
X130425000Y-63095000D02*
X130425000Y-62945000D01*
G75*
G02*
X130500000Y-62870000I75000J0D01*
G01*
X131825000Y-62870000D01*
G75*
G02*
X131900000Y-62945000I0J-75000D01*
G01*
X131900000Y-63095000D01*
G75*
G02*
X131825000Y-63170000I-75000J0D01*
G01*
X130500000Y-63170000D01*
G75*
G02*
X130425000Y-63095000I0J75000D01*
G01*
G37*
G36*
G01*
X130425000Y-62595000D02*
X130425000Y-62445000D01*
G75*
G02*
X130500000Y-62370000I75000J0D01*
G01*
X131825000Y-62370000D01*
G75*
G02*
X131900000Y-62445000I0J-75000D01*
G01*
X131900000Y-62595000D01*
G75*
G02*
X131825000Y-62670000I-75000J0D01*
G01*
X130500000Y-62670000D01*
G75*
G02*
X130425000Y-62595000I0J75000D01*
G01*
G37*
G36*
G01*
X130425000Y-62095000D02*
X130425000Y-61945000D01*
G75*
G02*
X130500000Y-61870000I75000J0D01*
G01*
X131825000Y-61870000D01*
G75*
G02*
X131900000Y-61945000I0J-75000D01*
G01*
X131900000Y-62095000D01*
G75*
G02*
X131825000Y-62170000I-75000J0D01*
G01*
X130500000Y-62170000D01*
G75*
G02*
X130425000Y-62095000I0J75000D01*
G01*
G37*
G36*
G01*
X129600000Y-61270000D02*
X129600000Y-59945000D01*
G75*
G02*
X129675000Y-59870000I75000J0D01*
G01*
X129825000Y-59870000D01*
G75*
G02*
X129900000Y-59945000I0J-75000D01*
G01*
X129900000Y-61270000D01*
G75*
G02*
X129825000Y-61345000I-75000J0D01*
G01*
X129675000Y-61345000D01*
G75*
G02*
X129600000Y-61270000I0J75000D01*
G01*
G37*
G36*
G01*
X129100000Y-61270000D02*
X129100000Y-59945000D01*
G75*
G02*
X129175000Y-59870000I75000J0D01*
G01*
X129325000Y-59870000D01*
G75*
G02*
X129400000Y-59945000I0J-75000D01*
G01*
X129400000Y-61270000D01*
G75*
G02*
X129325000Y-61345000I-75000J0D01*
G01*
X129175000Y-61345000D01*
G75*
G02*
X129100000Y-61270000I0J75000D01*
G01*
G37*
G36*
G01*
X128600000Y-61270000D02*
X128600000Y-59945000D01*
G75*
G02*
X128675000Y-59870000I75000J0D01*
G01*
X128825000Y-59870000D01*
G75*
G02*
X128900000Y-59945000I0J-75000D01*
G01*
X128900000Y-61270000D01*
G75*
G02*
X128825000Y-61345000I-75000J0D01*
G01*
X128675000Y-61345000D01*
G75*
G02*
X128600000Y-61270000I0J75000D01*
G01*
G37*
G36*
G01*
X128100000Y-61270000D02*
X128100000Y-59945000D01*
G75*
G02*
X128175000Y-59870000I75000J0D01*
G01*
X128325000Y-59870000D01*
G75*
G02*
X128400000Y-59945000I0J-75000D01*
G01*
X128400000Y-61270000D01*
G75*
G02*
X128325000Y-61345000I-75000J0D01*
G01*
X128175000Y-61345000D01*
G75*
G02*
X128100000Y-61270000I0J75000D01*
G01*
G37*
G36*
G01*
X127600000Y-61270000D02*
X127600000Y-59945000D01*
G75*
G02*
X127675000Y-59870000I75000J0D01*
G01*
X127825000Y-59870000D01*
G75*
G02*
X127900000Y-59945000I0J-75000D01*
G01*
X127900000Y-61270000D01*
G75*
G02*
X127825000Y-61345000I-75000J0D01*
G01*
X127675000Y-61345000D01*
G75*
G02*
X127600000Y-61270000I0J75000D01*
G01*
G37*
G36*
G01*
X127100000Y-61270000D02*
X127100000Y-59945000D01*
G75*
G02*
X127175000Y-59870000I75000J0D01*
G01*
X127325000Y-59870000D01*
G75*
G02*
X127400000Y-59945000I0J-75000D01*
G01*
X127400000Y-61270000D01*
G75*
G02*
X127325000Y-61345000I-75000J0D01*
G01*
X127175000Y-61345000D01*
G75*
G02*
X127100000Y-61270000I0J75000D01*
G01*
G37*
G36*
G01*
X126600000Y-61270000D02*
X126600000Y-59945000D01*
G75*
G02*
X126675000Y-59870000I75000J0D01*
G01*
X126825000Y-59870000D01*
G75*
G02*
X126900000Y-59945000I0J-75000D01*
G01*
X126900000Y-61270000D01*
G75*
G02*
X126825000Y-61345000I-75000J0D01*
G01*
X126675000Y-61345000D01*
G75*
G02*
X126600000Y-61270000I0J75000D01*
G01*
G37*
G36*
G01*
X126100000Y-61270000D02*
X126100000Y-59945000D01*
G75*
G02*
X126175000Y-59870000I75000J0D01*
G01*
X126325000Y-59870000D01*
G75*
G02*
X126400000Y-59945000I0J-75000D01*
G01*
X126400000Y-61270000D01*
G75*
G02*
X126325000Y-61345000I-75000J0D01*
G01*
X126175000Y-61345000D01*
G75*
G02*
X126100000Y-61270000I0J75000D01*
G01*
G37*
G36*
G01*
X125600000Y-61270000D02*
X125600000Y-59945000D01*
G75*
G02*
X125675000Y-59870000I75000J0D01*
G01*
X125825000Y-59870000D01*
G75*
G02*
X125900000Y-59945000I0J-75000D01*
G01*
X125900000Y-61270000D01*
G75*
G02*
X125825000Y-61345000I-75000J0D01*
G01*
X125675000Y-61345000D01*
G75*
G02*
X125600000Y-61270000I0J75000D01*
G01*
G37*
G36*
G01*
X125100000Y-61270000D02*
X125100000Y-59945000D01*
G75*
G02*
X125175000Y-59870000I75000J0D01*
G01*
X125325000Y-59870000D01*
G75*
G02*
X125400000Y-59945000I0J-75000D01*
G01*
X125400000Y-61270000D01*
G75*
G02*
X125325000Y-61345000I-75000J0D01*
G01*
X125175000Y-61345000D01*
G75*
G02*
X125100000Y-61270000I0J75000D01*
G01*
G37*
G36*
G01*
X124600000Y-61270000D02*
X124600000Y-59945000D01*
G75*
G02*
X124675000Y-59870000I75000J0D01*
G01*
X124825000Y-59870000D01*
G75*
G02*
X124900000Y-59945000I0J-75000D01*
G01*
X124900000Y-61270000D01*
G75*
G02*
X124825000Y-61345000I-75000J0D01*
G01*
X124675000Y-61345000D01*
G75*
G02*
X124600000Y-61270000I0J75000D01*
G01*
G37*
G36*
G01*
X124100000Y-61270000D02*
X124100000Y-59945000D01*
G75*
G02*
X124175000Y-59870000I75000J0D01*
G01*
X124325000Y-59870000D01*
G75*
G02*
X124400000Y-59945000I0J-75000D01*
G01*
X124400000Y-61270000D01*
G75*
G02*
X124325000Y-61345000I-75000J0D01*
G01*
X124175000Y-61345000D01*
G75*
G02*
X124100000Y-61270000I0J75000D01*
G01*
G37*
%TD*%
D13*
%TO.C,Y1*%
X135445500Y-66351000D03*
X135445500Y-65151000D03*
X135445500Y-63951000D03*
%TD*%
D15*
%TO.C,TPMOSI*%
X148132800Y-59791600D03*
%TD*%
%TO.C,TPSCK*%
X143764000Y-59588400D03*
%TD*%
%TO.C,TPMISO*%
X152450800Y-59842400D03*
%TD*%
M02*
