G04 #@! TF.GenerationSoftware,KiCad,Pcbnew,(5.1.5)-3*
G04 #@! TF.CreationDate,2021-03-16T03:35:26-05:00*
G04 #@! TF.ProjectId,InputBoard,496e7075-7442-46f6-9172-642e6b696361,rev?*
G04 #@! TF.SameCoordinates,Original*
G04 #@! TF.FileFunction,Paste,Top*
G04 #@! TF.FilePolarity,Positive*
%FSLAX46Y46*%
G04 Gerber Fmt 4.6, Leading zero omitted, Abs format (unit mm)*
G04 Created by KiCad (PCBNEW (5.1.5)-3) date 2021-03-16 03:35:26*
%MOMM*%
%LPD*%
G04 APERTURE LIST*
%ADD10C,0.050000*%
%ADD11C,0.100000*%
G04 APERTURE END LIST*
D10*
X132588000Y-110680500D02*
X132588000Y-90678000D01*
X136652000Y-114744500D02*
G75*
G02X132588000Y-110680500I0J4064000D01*
G01*
X168153080Y-114744500D02*
X136652000Y-114744500D01*
X172217080Y-90678000D02*
X172250164Y-110670340D01*
X172250164Y-110670340D02*
G75*
G02X168153080Y-114744500I-4074224J0D01*
G01*
X168153080Y-86614000D02*
X136652000Y-86614000D01*
X132588000Y-90678000D02*
G75*
G02X136652000Y-86614000I4064000J0D01*
G01*
X168153080Y-86614000D02*
G75*
G02X172217080Y-90678000I0J-4064000D01*
G01*
D11*
G36*
X148063823Y-92856902D02*
G01*
X148078384Y-92859062D01*
X148092663Y-92862639D01*
X148106523Y-92867598D01*
X148119830Y-92873892D01*
X148132456Y-92881460D01*
X148144279Y-92890228D01*
X148155186Y-92900114D01*
X148165072Y-92911021D01*
X148173840Y-92922844D01*
X148181408Y-92935470D01*
X148187702Y-92948777D01*
X148192661Y-92962637D01*
X148196238Y-92976916D01*
X148198398Y-92991477D01*
X148199120Y-93006180D01*
X148199120Y-94656180D01*
X148198398Y-94670883D01*
X148196238Y-94685444D01*
X148192661Y-94699723D01*
X148187702Y-94713583D01*
X148181408Y-94726890D01*
X148173840Y-94739516D01*
X148165072Y-94751339D01*
X148155186Y-94762246D01*
X148144279Y-94772132D01*
X148132456Y-94780900D01*
X148119830Y-94788468D01*
X148106523Y-94794762D01*
X148092663Y-94799721D01*
X148078384Y-94803298D01*
X148063823Y-94805458D01*
X148049120Y-94806180D01*
X147749120Y-94806180D01*
X147734417Y-94805458D01*
X147719856Y-94803298D01*
X147705577Y-94799721D01*
X147691717Y-94794762D01*
X147678410Y-94788468D01*
X147665784Y-94780900D01*
X147653961Y-94772132D01*
X147643054Y-94762246D01*
X147633168Y-94751339D01*
X147624400Y-94739516D01*
X147616832Y-94726890D01*
X147610538Y-94713583D01*
X147605579Y-94699723D01*
X147602002Y-94685444D01*
X147599842Y-94670883D01*
X147599120Y-94656180D01*
X147599120Y-93006180D01*
X147599842Y-92991477D01*
X147602002Y-92976916D01*
X147605579Y-92962637D01*
X147610538Y-92948777D01*
X147616832Y-92935470D01*
X147624400Y-92922844D01*
X147633168Y-92911021D01*
X147643054Y-92900114D01*
X147653961Y-92890228D01*
X147665784Y-92881460D01*
X147678410Y-92873892D01*
X147691717Y-92867598D01*
X147705577Y-92862639D01*
X147719856Y-92859062D01*
X147734417Y-92856902D01*
X147749120Y-92856180D01*
X148049120Y-92856180D01*
X148063823Y-92856902D01*
G37*
G36*
X149333823Y-92856902D02*
G01*
X149348384Y-92859062D01*
X149362663Y-92862639D01*
X149376523Y-92867598D01*
X149389830Y-92873892D01*
X149402456Y-92881460D01*
X149414279Y-92890228D01*
X149425186Y-92900114D01*
X149435072Y-92911021D01*
X149443840Y-92922844D01*
X149451408Y-92935470D01*
X149457702Y-92948777D01*
X149462661Y-92962637D01*
X149466238Y-92976916D01*
X149468398Y-92991477D01*
X149469120Y-93006180D01*
X149469120Y-94656180D01*
X149468398Y-94670883D01*
X149466238Y-94685444D01*
X149462661Y-94699723D01*
X149457702Y-94713583D01*
X149451408Y-94726890D01*
X149443840Y-94739516D01*
X149435072Y-94751339D01*
X149425186Y-94762246D01*
X149414279Y-94772132D01*
X149402456Y-94780900D01*
X149389830Y-94788468D01*
X149376523Y-94794762D01*
X149362663Y-94799721D01*
X149348384Y-94803298D01*
X149333823Y-94805458D01*
X149319120Y-94806180D01*
X149019120Y-94806180D01*
X149004417Y-94805458D01*
X148989856Y-94803298D01*
X148975577Y-94799721D01*
X148961717Y-94794762D01*
X148948410Y-94788468D01*
X148935784Y-94780900D01*
X148923961Y-94772132D01*
X148913054Y-94762246D01*
X148903168Y-94751339D01*
X148894400Y-94739516D01*
X148886832Y-94726890D01*
X148880538Y-94713583D01*
X148875579Y-94699723D01*
X148872002Y-94685444D01*
X148869842Y-94670883D01*
X148869120Y-94656180D01*
X148869120Y-93006180D01*
X148869842Y-92991477D01*
X148872002Y-92976916D01*
X148875579Y-92962637D01*
X148880538Y-92948777D01*
X148886832Y-92935470D01*
X148894400Y-92922844D01*
X148903168Y-92911021D01*
X148913054Y-92900114D01*
X148923961Y-92890228D01*
X148935784Y-92881460D01*
X148948410Y-92873892D01*
X148961717Y-92867598D01*
X148975577Y-92862639D01*
X148989856Y-92859062D01*
X149004417Y-92856902D01*
X149019120Y-92856180D01*
X149319120Y-92856180D01*
X149333823Y-92856902D01*
G37*
G36*
X150603823Y-92856902D02*
G01*
X150618384Y-92859062D01*
X150632663Y-92862639D01*
X150646523Y-92867598D01*
X150659830Y-92873892D01*
X150672456Y-92881460D01*
X150684279Y-92890228D01*
X150695186Y-92900114D01*
X150705072Y-92911021D01*
X150713840Y-92922844D01*
X150721408Y-92935470D01*
X150727702Y-92948777D01*
X150732661Y-92962637D01*
X150736238Y-92976916D01*
X150738398Y-92991477D01*
X150739120Y-93006180D01*
X150739120Y-94656180D01*
X150738398Y-94670883D01*
X150736238Y-94685444D01*
X150732661Y-94699723D01*
X150727702Y-94713583D01*
X150721408Y-94726890D01*
X150713840Y-94739516D01*
X150705072Y-94751339D01*
X150695186Y-94762246D01*
X150684279Y-94772132D01*
X150672456Y-94780900D01*
X150659830Y-94788468D01*
X150646523Y-94794762D01*
X150632663Y-94799721D01*
X150618384Y-94803298D01*
X150603823Y-94805458D01*
X150589120Y-94806180D01*
X150289120Y-94806180D01*
X150274417Y-94805458D01*
X150259856Y-94803298D01*
X150245577Y-94799721D01*
X150231717Y-94794762D01*
X150218410Y-94788468D01*
X150205784Y-94780900D01*
X150193961Y-94772132D01*
X150183054Y-94762246D01*
X150173168Y-94751339D01*
X150164400Y-94739516D01*
X150156832Y-94726890D01*
X150150538Y-94713583D01*
X150145579Y-94699723D01*
X150142002Y-94685444D01*
X150139842Y-94670883D01*
X150139120Y-94656180D01*
X150139120Y-93006180D01*
X150139842Y-92991477D01*
X150142002Y-92976916D01*
X150145579Y-92962637D01*
X150150538Y-92948777D01*
X150156832Y-92935470D01*
X150164400Y-92922844D01*
X150173168Y-92911021D01*
X150183054Y-92900114D01*
X150193961Y-92890228D01*
X150205784Y-92881460D01*
X150218410Y-92873892D01*
X150231717Y-92867598D01*
X150245577Y-92862639D01*
X150259856Y-92859062D01*
X150274417Y-92856902D01*
X150289120Y-92856180D01*
X150589120Y-92856180D01*
X150603823Y-92856902D01*
G37*
G36*
X151873823Y-92856902D02*
G01*
X151888384Y-92859062D01*
X151902663Y-92862639D01*
X151916523Y-92867598D01*
X151929830Y-92873892D01*
X151942456Y-92881460D01*
X151954279Y-92890228D01*
X151965186Y-92900114D01*
X151975072Y-92911021D01*
X151983840Y-92922844D01*
X151991408Y-92935470D01*
X151997702Y-92948777D01*
X152002661Y-92962637D01*
X152006238Y-92976916D01*
X152008398Y-92991477D01*
X152009120Y-93006180D01*
X152009120Y-94656180D01*
X152008398Y-94670883D01*
X152006238Y-94685444D01*
X152002661Y-94699723D01*
X151997702Y-94713583D01*
X151991408Y-94726890D01*
X151983840Y-94739516D01*
X151975072Y-94751339D01*
X151965186Y-94762246D01*
X151954279Y-94772132D01*
X151942456Y-94780900D01*
X151929830Y-94788468D01*
X151916523Y-94794762D01*
X151902663Y-94799721D01*
X151888384Y-94803298D01*
X151873823Y-94805458D01*
X151859120Y-94806180D01*
X151559120Y-94806180D01*
X151544417Y-94805458D01*
X151529856Y-94803298D01*
X151515577Y-94799721D01*
X151501717Y-94794762D01*
X151488410Y-94788468D01*
X151475784Y-94780900D01*
X151463961Y-94772132D01*
X151453054Y-94762246D01*
X151443168Y-94751339D01*
X151434400Y-94739516D01*
X151426832Y-94726890D01*
X151420538Y-94713583D01*
X151415579Y-94699723D01*
X151412002Y-94685444D01*
X151409842Y-94670883D01*
X151409120Y-94656180D01*
X151409120Y-93006180D01*
X151409842Y-92991477D01*
X151412002Y-92976916D01*
X151415579Y-92962637D01*
X151420538Y-92948777D01*
X151426832Y-92935470D01*
X151434400Y-92922844D01*
X151443168Y-92911021D01*
X151453054Y-92900114D01*
X151463961Y-92890228D01*
X151475784Y-92881460D01*
X151488410Y-92873892D01*
X151501717Y-92867598D01*
X151515577Y-92862639D01*
X151529856Y-92859062D01*
X151544417Y-92856902D01*
X151559120Y-92856180D01*
X151859120Y-92856180D01*
X151873823Y-92856902D01*
G37*
G36*
X153143823Y-92856902D02*
G01*
X153158384Y-92859062D01*
X153172663Y-92862639D01*
X153186523Y-92867598D01*
X153199830Y-92873892D01*
X153212456Y-92881460D01*
X153224279Y-92890228D01*
X153235186Y-92900114D01*
X153245072Y-92911021D01*
X153253840Y-92922844D01*
X153261408Y-92935470D01*
X153267702Y-92948777D01*
X153272661Y-92962637D01*
X153276238Y-92976916D01*
X153278398Y-92991477D01*
X153279120Y-93006180D01*
X153279120Y-94656180D01*
X153278398Y-94670883D01*
X153276238Y-94685444D01*
X153272661Y-94699723D01*
X153267702Y-94713583D01*
X153261408Y-94726890D01*
X153253840Y-94739516D01*
X153245072Y-94751339D01*
X153235186Y-94762246D01*
X153224279Y-94772132D01*
X153212456Y-94780900D01*
X153199830Y-94788468D01*
X153186523Y-94794762D01*
X153172663Y-94799721D01*
X153158384Y-94803298D01*
X153143823Y-94805458D01*
X153129120Y-94806180D01*
X152829120Y-94806180D01*
X152814417Y-94805458D01*
X152799856Y-94803298D01*
X152785577Y-94799721D01*
X152771717Y-94794762D01*
X152758410Y-94788468D01*
X152745784Y-94780900D01*
X152733961Y-94772132D01*
X152723054Y-94762246D01*
X152713168Y-94751339D01*
X152704400Y-94739516D01*
X152696832Y-94726890D01*
X152690538Y-94713583D01*
X152685579Y-94699723D01*
X152682002Y-94685444D01*
X152679842Y-94670883D01*
X152679120Y-94656180D01*
X152679120Y-93006180D01*
X152679842Y-92991477D01*
X152682002Y-92976916D01*
X152685579Y-92962637D01*
X152690538Y-92948777D01*
X152696832Y-92935470D01*
X152704400Y-92922844D01*
X152713168Y-92911021D01*
X152723054Y-92900114D01*
X152733961Y-92890228D01*
X152745784Y-92881460D01*
X152758410Y-92873892D01*
X152771717Y-92867598D01*
X152785577Y-92862639D01*
X152799856Y-92859062D01*
X152814417Y-92856902D01*
X152829120Y-92856180D01*
X153129120Y-92856180D01*
X153143823Y-92856902D01*
G37*
G36*
X154413823Y-92856902D02*
G01*
X154428384Y-92859062D01*
X154442663Y-92862639D01*
X154456523Y-92867598D01*
X154469830Y-92873892D01*
X154482456Y-92881460D01*
X154494279Y-92890228D01*
X154505186Y-92900114D01*
X154515072Y-92911021D01*
X154523840Y-92922844D01*
X154531408Y-92935470D01*
X154537702Y-92948777D01*
X154542661Y-92962637D01*
X154546238Y-92976916D01*
X154548398Y-92991477D01*
X154549120Y-93006180D01*
X154549120Y-94656180D01*
X154548398Y-94670883D01*
X154546238Y-94685444D01*
X154542661Y-94699723D01*
X154537702Y-94713583D01*
X154531408Y-94726890D01*
X154523840Y-94739516D01*
X154515072Y-94751339D01*
X154505186Y-94762246D01*
X154494279Y-94772132D01*
X154482456Y-94780900D01*
X154469830Y-94788468D01*
X154456523Y-94794762D01*
X154442663Y-94799721D01*
X154428384Y-94803298D01*
X154413823Y-94805458D01*
X154399120Y-94806180D01*
X154099120Y-94806180D01*
X154084417Y-94805458D01*
X154069856Y-94803298D01*
X154055577Y-94799721D01*
X154041717Y-94794762D01*
X154028410Y-94788468D01*
X154015784Y-94780900D01*
X154003961Y-94772132D01*
X153993054Y-94762246D01*
X153983168Y-94751339D01*
X153974400Y-94739516D01*
X153966832Y-94726890D01*
X153960538Y-94713583D01*
X153955579Y-94699723D01*
X153952002Y-94685444D01*
X153949842Y-94670883D01*
X153949120Y-94656180D01*
X153949120Y-93006180D01*
X153949842Y-92991477D01*
X153952002Y-92976916D01*
X153955579Y-92962637D01*
X153960538Y-92948777D01*
X153966832Y-92935470D01*
X153974400Y-92922844D01*
X153983168Y-92911021D01*
X153993054Y-92900114D01*
X154003961Y-92890228D01*
X154015784Y-92881460D01*
X154028410Y-92873892D01*
X154041717Y-92867598D01*
X154055577Y-92862639D01*
X154069856Y-92859062D01*
X154084417Y-92856902D01*
X154099120Y-92856180D01*
X154399120Y-92856180D01*
X154413823Y-92856902D01*
G37*
G36*
X155683823Y-92856902D02*
G01*
X155698384Y-92859062D01*
X155712663Y-92862639D01*
X155726523Y-92867598D01*
X155739830Y-92873892D01*
X155752456Y-92881460D01*
X155764279Y-92890228D01*
X155775186Y-92900114D01*
X155785072Y-92911021D01*
X155793840Y-92922844D01*
X155801408Y-92935470D01*
X155807702Y-92948777D01*
X155812661Y-92962637D01*
X155816238Y-92976916D01*
X155818398Y-92991477D01*
X155819120Y-93006180D01*
X155819120Y-94656180D01*
X155818398Y-94670883D01*
X155816238Y-94685444D01*
X155812661Y-94699723D01*
X155807702Y-94713583D01*
X155801408Y-94726890D01*
X155793840Y-94739516D01*
X155785072Y-94751339D01*
X155775186Y-94762246D01*
X155764279Y-94772132D01*
X155752456Y-94780900D01*
X155739830Y-94788468D01*
X155726523Y-94794762D01*
X155712663Y-94799721D01*
X155698384Y-94803298D01*
X155683823Y-94805458D01*
X155669120Y-94806180D01*
X155369120Y-94806180D01*
X155354417Y-94805458D01*
X155339856Y-94803298D01*
X155325577Y-94799721D01*
X155311717Y-94794762D01*
X155298410Y-94788468D01*
X155285784Y-94780900D01*
X155273961Y-94772132D01*
X155263054Y-94762246D01*
X155253168Y-94751339D01*
X155244400Y-94739516D01*
X155236832Y-94726890D01*
X155230538Y-94713583D01*
X155225579Y-94699723D01*
X155222002Y-94685444D01*
X155219842Y-94670883D01*
X155219120Y-94656180D01*
X155219120Y-93006180D01*
X155219842Y-92991477D01*
X155222002Y-92976916D01*
X155225579Y-92962637D01*
X155230538Y-92948777D01*
X155236832Y-92935470D01*
X155244400Y-92922844D01*
X155253168Y-92911021D01*
X155263054Y-92900114D01*
X155273961Y-92890228D01*
X155285784Y-92881460D01*
X155298410Y-92873892D01*
X155311717Y-92867598D01*
X155325577Y-92862639D01*
X155339856Y-92859062D01*
X155354417Y-92856902D01*
X155369120Y-92856180D01*
X155669120Y-92856180D01*
X155683823Y-92856902D01*
G37*
G36*
X155683823Y-87906902D02*
G01*
X155698384Y-87909062D01*
X155712663Y-87912639D01*
X155726523Y-87917598D01*
X155739830Y-87923892D01*
X155752456Y-87931460D01*
X155764279Y-87940228D01*
X155775186Y-87950114D01*
X155785072Y-87961021D01*
X155793840Y-87972844D01*
X155801408Y-87985470D01*
X155807702Y-87998777D01*
X155812661Y-88012637D01*
X155816238Y-88026916D01*
X155818398Y-88041477D01*
X155819120Y-88056180D01*
X155819120Y-89706180D01*
X155818398Y-89720883D01*
X155816238Y-89735444D01*
X155812661Y-89749723D01*
X155807702Y-89763583D01*
X155801408Y-89776890D01*
X155793840Y-89789516D01*
X155785072Y-89801339D01*
X155775186Y-89812246D01*
X155764279Y-89822132D01*
X155752456Y-89830900D01*
X155739830Y-89838468D01*
X155726523Y-89844762D01*
X155712663Y-89849721D01*
X155698384Y-89853298D01*
X155683823Y-89855458D01*
X155669120Y-89856180D01*
X155369120Y-89856180D01*
X155354417Y-89855458D01*
X155339856Y-89853298D01*
X155325577Y-89849721D01*
X155311717Y-89844762D01*
X155298410Y-89838468D01*
X155285784Y-89830900D01*
X155273961Y-89822132D01*
X155263054Y-89812246D01*
X155253168Y-89801339D01*
X155244400Y-89789516D01*
X155236832Y-89776890D01*
X155230538Y-89763583D01*
X155225579Y-89749723D01*
X155222002Y-89735444D01*
X155219842Y-89720883D01*
X155219120Y-89706180D01*
X155219120Y-88056180D01*
X155219842Y-88041477D01*
X155222002Y-88026916D01*
X155225579Y-88012637D01*
X155230538Y-87998777D01*
X155236832Y-87985470D01*
X155244400Y-87972844D01*
X155253168Y-87961021D01*
X155263054Y-87950114D01*
X155273961Y-87940228D01*
X155285784Y-87931460D01*
X155298410Y-87923892D01*
X155311717Y-87917598D01*
X155325577Y-87912639D01*
X155339856Y-87909062D01*
X155354417Y-87906902D01*
X155369120Y-87906180D01*
X155669120Y-87906180D01*
X155683823Y-87906902D01*
G37*
G36*
X154413823Y-87906902D02*
G01*
X154428384Y-87909062D01*
X154442663Y-87912639D01*
X154456523Y-87917598D01*
X154469830Y-87923892D01*
X154482456Y-87931460D01*
X154494279Y-87940228D01*
X154505186Y-87950114D01*
X154515072Y-87961021D01*
X154523840Y-87972844D01*
X154531408Y-87985470D01*
X154537702Y-87998777D01*
X154542661Y-88012637D01*
X154546238Y-88026916D01*
X154548398Y-88041477D01*
X154549120Y-88056180D01*
X154549120Y-89706180D01*
X154548398Y-89720883D01*
X154546238Y-89735444D01*
X154542661Y-89749723D01*
X154537702Y-89763583D01*
X154531408Y-89776890D01*
X154523840Y-89789516D01*
X154515072Y-89801339D01*
X154505186Y-89812246D01*
X154494279Y-89822132D01*
X154482456Y-89830900D01*
X154469830Y-89838468D01*
X154456523Y-89844762D01*
X154442663Y-89849721D01*
X154428384Y-89853298D01*
X154413823Y-89855458D01*
X154399120Y-89856180D01*
X154099120Y-89856180D01*
X154084417Y-89855458D01*
X154069856Y-89853298D01*
X154055577Y-89849721D01*
X154041717Y-89844762D01*
X154028410Y-89838468D01*
X154015784Y-89830900D01*
X154003961Y-89822132D01*
X153993054Y-89812246D01*
X153983168Y-89801339D01*
X153974400Y-89789516D01*
X153966832Y-89776890D01*
X153960538Y-89763583D01*
X153955579Y-89749723D01*
X153952002Y-89735444D01*
X153949842Y-89720883D01*
X153949120Y-89706180D01*
X153949120Y-88056180D01*
X153949842Y-88041477D01*
X153952002Y-88026916D01*
X153955579Y-88012637D01*
X153960538Y-87998777D01*
X153966832Y-87985470D01*
X153974400Y-87972844D01*
X153983168Y-87961021D01*
X153993054Y-87950114D01*
X154003961Y-87940228D01*
X154015784Y-87931460D01*
X154028410Y-87923892D01*
X154041717Y-87917598D01*
X154055577Y-87912639D01*
X154069856Y-87909062D01*
X154084417Y-87906902D01*
X154099120Y-87906180D01*
X154399120Y-87906180D01*
X154413823Y-87906902D01*
G37*
G36*
X153143823Y-87906902D02*
G01*
X153158384Y-87909062D01*
X153172663Y-87912639D01*
X153186523Y-87917598D01*
X153199830Y-87923892D01*
X153212456Y-87931460D01*
X153224279Y-87940228D01*
X153235186Y-87950114D01*
X153245072Y-87961021D01*
X153253840Y-87972844D01*
X153261408Y-87985470D01*
X153267702Y-87998777D01*
X153272661Y-88012637D01*
X153276238Y-88026916D01*
X153278398Y-88041477D01*
X153279120Y-88056180D01*
X153279120Y-89706180D01*
X153278398Y-89720883D01*
X153276238Y-89735444D01*
X153272661Y-89749723D01*
X153267702Y-89763583D01*
X153261408Y-89776890D01*
X153253840Y-89789516D01*
X153245072Y-89801339D01*
X153235186Y-89812246D01*
X153224279Y-89822132D01*
X153212456Y-89830900D01*
X153199830Y-89838468D01*
X153186523Y-89844762D01*
X153172663Y-89849721D01*
X153158384Y-89853298D01*
X153143823Y-89855458D01*
X153129120Y-89856180D01*
X152829120Y-89856180D01*
X152814417Y-89855458D01*
X152799856Y-89853298D01*
X152785577Y-89849721D01*
X152771717Y-89844762D01*
X152758410Y-89838468D01*
X152745784Y-89830900D01*
X152733961Y-89822132D01*
X152723054Y-89812246D01*
X152713168Y-89801339D01*
X152704400Y-89789516D01*
X152696832Y-89776890D01*
X152690538Y-89763583D01*
X152685579Y-89749723D01*
X152682002Y-89735444D01*
X152679842Y-89720883D01*
X152679120Y-89706180D01*
X152679120Y-88056180D01*
X152679842Y-88041477D01*
X152682002Y-88026916D01*
X152685579Y-88012637D01*
X152690538Y-87998777D01*
X152696832Y-87985470D01*
X152704400Y-87972844D01*
X152713168Y-87961021D01*
X152723054Y-87950114D01*
X152733961Y-87940228D01*
X152745784Y-87931460D01*
X152758410Y-87923892D01*
X152771717Y-87917598D01*
X152785577Y-87912639D01*
X152799856Y-87909062D01*
X152814417Y-87906902D01*
X152829120Y-87906180D01*
X153129120Y-87906180D01*
X153143823Y-87906902D01*
G37*
G36*
X151873823Y-87906902D02*
G01*
X151888384Y-87909062D01*
X151902663Y-87912639D01*
X151916523Y-87917598D01*
X151929830Y-87923892D01*
X151942456Y-87931460D01*
X151954279Y-87940228D01*
X151965186Y-87950114D01*
X151975072Y-87961021D01*
X151983840Y-87972844D01*
X151991408Y-87985470D01*
X151997702Y-87998777D01*
X152002661Y-88012637D01*
X152006238Y-88026916D01*
X152008398Y-88041477D01*
X152009120Y-88056180D01*
X152009120Y-89706180D01*
X152008398Y-89720883D01*
X152006238Y-89735444D01*
X152002661Y-89749723D01*
X151997702Y-89763583D01*
X151991408Y-89776890D01*
X151983840Y-89789516D01*
X151975072Y-89801339D01*
X151965186Y-89812246D01*
X151954279Y-89822132D01*
X151942456Y-89830900D01*
X151929830Y-89838468D01*
X151916523Y-89844762D01*
X151902663Y-89849721D01*
X151888384Y-89853298D01*
X151873823Y-89855458D01*
X151859120Y-89856180D01*
X151559120Y-89856180D01*
X151544417Y-89855458D01*
X151529856Y-89853298D01*
X151515577Y-89849721D01*
X151501717Y-89844762D01*
X151488410Y-89838468D01*
X151475784Y-89830900D01*
X151463961Y-89822132D01*
X151453054Y-89812246D01*
X151443168Y-89801339D01*
X151434400Y-89789516D01*
X151426832Y-89776890D01*
X151420538Y-89763583D01*
X151415579Y-89749723D01*
X151412002Y-89735444D01*
X151409842Y-89720883D01*
X151409120Y-89706180D01*
X151409120Y-88056180D01*
X151409842Y-88041477D01*
X151412002Y-88026916D01*
X151415579Y-88012637D01*
X151420538Y-87998777D01*
X151426832Y-87985470D01*
X151434400Y-87972844D01*
X151443168Y-87961021D01*
X151453054Y-87950114D01*
X151463961Y-87940228D01*
X151475784Y-87931460D01*
X151488410Y-87923892D01*
X151501717Y-87917598D01*
X151515577Y-87912639D01*
X151529856Y-87909062D01*
X151544417Y-87906902D01*
X151559120Y-87906180D01*
X151859120Y-87906180D01*
X151873823Y-87906902D01*
G37*
G36*
X150603823Y-87906902D02*
G01*
X150618384Y-87909062D01*
X150632663Y-87912639D01*
X150646523Y-87917598D01*
X150659830Y-87923892D01*
X150672456Y-87931460D01*
X150684279Y-87940228D01*
X150695186Y-87950114D01*
X150705072Y-87961021D01*
X150713840Y-87972844D01*
X150721408Y-87985470D01*
X150727702Y-87998777D01*
X150732661Y-88012637D01*
X150736238Y-88026916D01*
X150738398Y-88041477D01*
X150739120Y-88056180D01*
X150739120Y-89706180D01*
X150738398Y-89720883D01*
X150736238Y-89735444D01*
X150732661Y-89749723D01*
X150727702Y-89763583D01*
X150721408Y-89776890D01*
X150713840Y-89789516D01*
X150705072Y-89801339D01*
X150695186Y-89812246D01*
X150684279Y-89822132D01*
X150672456Y-89830900D01*
X150659830Y-89838468D01*
X150646523Y-89844762D01*
X150632663Y-89849721D01*
X150618384Y-89853298D01*
X150603823Y-89855458D01*
X150589120Y-89856180D01*
X150289120Y-89856180D01*
X150274417Y-89855458D01*
X150259856Y-89853298D01*
X150245577Y-89849721D01*
X150231717Y-89844762D01*
X150218410Y-89838468D01*
X150205784Y-89830900D01*
X150193961Y-89822132D01*
X150183054Y-89812246D01*
X150173168Y-89801339D01*
X150164400Y-89789516D01*
X150156832Y-89776890D01*
X150150538Y-89763583D01*
X150145579Y-89749723D01*
X150142002Y-89735444D01*
X150139842Y-89720883D01*
X150139120Y-89706180D01*
X150139120Y-88056180D01*
X150139842Y-88041477D01*
X150142002Y-88026916D01*
X150145579Y-88012637D01*
X150150538Y-87998777D01*
X150156832Y-87985470D01*
X150164400Y-87972844D01*
X150173168Y-87961021D01*
X150183054Y-87950114D01*
X150193961Y-87940228D01*
X150205784Y-87931460D01*
X150218410Y-87923892D01*
X150231717Y-87917598D01*
X150245577Y-87912639D01*
X150259856Y-87909062D01*
X150274417Y-87906902D01*
X150289120Y-87906180D01*
X150589120Y-87906180D01*
X150603823Y-87906902D01*
G37*
G36*
X149333823Y-87906902D02*
G01*
X149348384Y-87909062D01*
X149362663Y-87912639D01*
X149376523Y-87917598D01*
X149389830Y-87923892D01*
X149402456Y-87931460D01*
X149414279Y-87940228D01*
X149425186Y-87950114D01*
X149435072Y-87961021D01*
X149443840Y-87972844D01*
X149451408Y-87985470D01*
X149457702Y-87998777D01*
X149462661Y-88012637D01*
X149466238Y-88026916D01*
X149468398Y-88041477D01*
X149469120Y-88056180D01*
X149469120Y-89706180D01*
X149468398Y-89720883D01*
X149466238Y-89735444D01*
X149462661Y-89749723D01*
X149457702Y-89763583D01*
X149451408Y-89776890D01*
X149443840Y-89789516D01*
X149435072Y-89801339D01*
X149425186Y-89812246D01*
X149414279Y-89822132D01*
X149402456Y-89830900D01*
X149389830Y-89838468D01*
X149376523Y-89844762D01*
X149362663Y-89849721D01*
X149348384Y-89853298D01*
X149333823Y-89855458D01*
X149319120Y-89856180D01*
X149019120Y-89856180D01*
X149004417Y-89855458D01*
X148989856Y-89853298D01*
X148975577Y-89849721D01*
X148961717Y-89844762D01*
X148948410Y-89838468D01*
X148935784Y-89830900D01*
X148923961Y-89822132D01*
X148913054Y-89812246D01*
X148903168Y-89801339D01*
X148894400Y-89789516D01*
X148886832Y-89776890D01*
X148880538Y-89763583D01*
X148875579Y-89749723D01*
X148872002Y-89735444D01*
X148869842Y-89720883D01*
X148869120Y-89706180D01*
X148869120Y-88056180D01*
X148869842Y-88041477D01*
X148872002Y-88026916D01*
X148875579Y-88012637D01*
X148880538Y-87998777D01*
X148886832Y-87985470D01*
X148894400Y-87972844D01*
X148903168Y-87961021D01*
X148913054Y-87950114D01*
X148923961Y-87940228D01*
X148935784Y-87931460D01*
X148948410Y-87923892D01*
X148961717Y-87917598D01*
X148975577Y-87912639D01*
X148989856Y-87909062D01*
X149004417Y-87906902D01*
X149019120Y-87906180D01*
X149319120Y-87906180D01*
X149333823Y-87906902D01*
G37*
G36*
X148063823Y-87906902D02*
G01*
X148078384Y-87909062D01*
X148092663Y-87912639D01*
X148106523Y-87917598D01*
X148119830Y-87923892D01*
X148132456Y-87931460D01*
X148144279Y-87940228D01*
X148155186Y-87950114D01*
X148165072Y-87961021D01*
X148173840Y-87972844D01*
X148181408Y-87985470D01*
X148187702Y-87998777D01*
X148192661Y-88012637D01*
X148196238Y-88026916D01*
X148198398Y-88041477D01*
X148199120Y-88056180D01*
X148199120Y-89706180D01*
X148198398Y-89720883D01*
X148196238Y-89735444D01*
X148192661Y-89749723D01*
X148187702Y-89763583D01*
X148181408Y-89776890D01*
X148173840Y-89789516D01*
X148165072Y-89801339D01*
X148155186Y-89812246D01*
X148144279Y-89822132D01*
X148132456Y-89830900D01*
X148119830Y-89838468D01*
X148106523Y-89844762D01*
X148092663Y-89849721D01*
X148078384Y-89853298D01*
X148063823Y-89855458D01*
X148049120Y-89856180D01*
X147749120Y-89856180D01*
X147734417Y-89855458D01*
X147719856Y-89853298D01*
X147705577Y-89849721D01*
X147691717Y-89844762D01*
X147678410Y-89838468D01*
X147665784Y-89830900D01*
X147653961Y-89822132D01*
X147643054Y-89812246D01*
X147633168Y-89801339D01*
X147624400Y-89789516D01*
X147616832Y-89776890D01*
X147610538Y-89763583D01*
X147605579Y-89749723D01*
X147602002Y-89735444D01*
X147599842Y-89720883D01*
X147599120Y-89706180D01*
X147599120Y-88056180D01*
X147599842Y-88041477D01*
X147602002Y-88026916D01*
X147605579Y-88012637D01*
X147610538Y-87998777D01*
X147616832Y-87985470D01*
X147624400Y-87972844D01*
X147633168Y-87961021D01*
X147643054Y-87950114D01*
X147653961Y-87940228D01*
X147665784Y-87931460D01*
X147678410Y-87923892D01*
X147691717Y-87917598D01*
X147705577Y-87912639D01*
X147719856Y-87909062D01*
X147734417Y-87906902D01*
X147749120Y-87906180D01*
X148049120Y-87906180D01*
X148063823Y-87906902D01*
G37*
G36*
X138522083Y-98543422D02*
G01*
X138536644Y-98545582D01*
X138550923Y-98549159D01*
X138564783Y-98554118D01*
X138578090Y-98560412D01*
X138590716Y-98567980D01*
X138602539Y-98576748D01*
X138613446Y-98586634D01*
X138623332Y-98597541D01*
X138632100Y-98609364D01*
X138639668Y-98621990D01*
X138645962Y-98635297D01*
X138650921Y-98649157D01*
X138654498Y-98663436D01*
X138656658Y-98677997D01*
X138657380Y-98692700D01*
X138657380Y-98992700D01*
X138656658Y-99007403D01*
X138654498Y-99021964D01*
X138650921Y-99036243D01*
X138645962Y-99050103D01*
X138639668Y-99063410D01*
X138632100Y-99076036D01*
X138623332Y-99087859D01*
X138613446Y-99098766D01*
X138602539Y-99108652D01*
X138590716Y-99117420D01*
X138578090Y-99124988D01*
X138564783Y-99131282D01*
X138550923Y-99136241D01*
X138536644Y-99139818D01*
X138522083Y-99141978D01*
X138507380Y-99142700D01*
X137257380Y-99142700D01*
X137242677Y-99141978D01*
X137228116Y-99139818D01*
X137213837Y-99136241D01*
X137199977Y-99131282D01*
X137186670Y-99124988D01*
X137174044Y-99117420D01*
X137162221Y-99108652D01*
X137151314Y-99098766D01*
X137141428Y-99087859D01*
X137132660Y-99076036D01*
X137125092Y-99063410D01*
X137118798Y-99050103D01*
X137113839Y-99036243D01*
X137110262Y-99021964D01*
X137108102Y-99007403D01*
X137107380Y-98992700D01*
X137107380Y-98692700D01*
X137108102Y-98677997D01*
X137110262Y-98663436D01*
X137113839Y-98649157D01*
X137118798Y-98635297D01*
X137125092Y-98621990D01*
X137132660Y-98609364D01*
X137141428Y-98597541D01*
X137151314Y-98586634D01*
X137162221Y-98576748D01*
X137174044Y-98567980D01*
X137186670Y-98560412D01*
X137199977Y-98554118D01*
X137213837Y-98549159D01*
X137228116Y-98545582D01*
X137242677Y-98543422D01*
X137257380Y-98542700D01*
X138507380Y-98542700D01*
X138522083Y-98543422D01*
G37*
G36*
X138522083Y-99543422D02*
G01*
X138536644Y-99545582D01*
X138550923Y-99549159D01*
X138564783Y-99554118D01*
X138578090Y-99560412D01*
X138590716Y-99567980D01*
X138602539Y-99576748D01*
X138613446Y-99586634D01*
X138623332Y-99597541D01*
X138632100Y-99609364D01*
X138639668Y-99621990D01*
X138645962Y-99635297D01*
X138650921Y-99649157D01*
X138654498Y-99663436D01*
X138656658Y-99677997D01*
X138657380Y-99692700D01*
X138657380Y-99992700D01*
X138656658Y-100007403D01*
X138654498Y-100021964D01*
X138650921Y-100036243D01*
X138645962Y-100050103D01*
X138639668Y-100063410D01*
X138632100Y-100076036D01*
X138623332Y-100087859D01*
X138613446Y-100098766D01*
X138602539Y-100108652D01*
X138590716Y-100117420D01*
X138578090Y-100124988D01*
X138564783Y-100131282D01*
X138550923Y-100136241D01*
X138536644Y-100139818D01*
X138522083Y-100141978D01*
X138507380Y-100142700D01*
X137257380Y-100142700D01*
X137242677Y-100141978D01*
X137228116Y-100139818D01*
X137213837Y-100136241D01*
X137199977Y-100131282D01*
X137186670Y-100124988D01*
X137174044Y-100117420D01*
X137162221Y-100108652D01*
X137151314Y-100098766D01*
X137141428Y-100087859D01*
X137132660Y-100076036D01*
X137125092Y-100063410D01*
X137118798Y-100050103D01*
X137113839Y-100036243D01*
X137110262Y-100021964D01*
X137108102Y-100007403D01*
X137107380Y-99992700D01*
X137107380Y-99692700D01*
X137108102Y-99677997D01*
X137110262Y-99663436D01*
X137113839Y-99649157D01*
X137118798Y-99635297D01*
X137125092Y-99621990D01*
X137132660Y-99609364D01*
X137141428Y-99597541D01*
X137151314Y-99586634D01*
X137162221Y-99576748D01*
X137174044Y-99567980D01*
X137186670Y-99560412D01*
X137199977Y-99554118D01*
X137213837Y-99549159D01*
X137228116Y-99545582D01*
X137242677Y-99543422D01*
X137257380Y-99542700D01*
X138507380Y-99542700D01*
X138522083Y-99543422D01*
G37*
G36*
X138522083Y-100543422D02*
G01*
X138536644Y-100545582D01*
X138550923Y-100549159D01*
X138564783Y-100554118D01*
X138578090Y-100560412D01*
X138590716Y-100567980D01*
X138602539Y-100576748D01*
X138613446Y-100586634D01*
X138623332Y-100597541D01*
X138632100Y-100609364D01*
X138639668Y-100621990D01*
X138645962Y-100635297D01*
X138650921Y-100649157D01*
X138654498Y-100663436D01*
X138656658Y-100677997D01*
X138657380Y-100692700D01*
X138657380Y-100992700D01*
X138656658Y-101007403D01*
X138654498Y-101021964D01*
X138650921Y-101036243D01*
X138645962Y-101050103D01*
X138639668Y-101063410D01*
X138632100Y-101076036D01*
X138623332Y-101087859D01*
X138613446Y-101098766D01*
X138602539Y-101108652D01*
X138590716Y-101117420D01*
X138578090Y-101124988D01*
X138564783Y-101131282D01*
X138550923Y-101136241D01*
X138536644Y-101139818D01*
X138522083Y-101141978D01*
X138507380Y-101142700D01*
X137257380Y-101142700D01*
X137242677Y-101141978D01*
X137228116Y-101139818D01*
X137213837Y-101136241D01*
X137199977Y-101131282D01*
X137186670Y-101124988D01*
X137174044Y-101117420D01*
X137162221Y-101108652D01*
X137151314Y-101098766D01*
X137141428Y-101087859D01*
X137132660Y-101076036D01*
X137125092Y-101063410D01*
X137118798Y-101050103D01*
X137113839Y-101036243D01*
X137110262Y-101021964D01*
X137108102Y-101007403D01*
X137107380Y-100992700D01*
X137107380Y-100692700D01*
X137108102Y-100677997D01*
X137110262Y-100663436D01*
X137113839Y-100649157D01*
X137118798Y-100635297D01*
X137125092Y-100621990D01*
X137132660Y-100609364D01*
X137141428Y-100597541D01*
X137151314Y-100586634D01*
X137162221Y-100576748D01*
X137174044Y-100567980D01*
X137186670Y-100560412D01*
X137199977Y-100554118D01*
X137213837Y-100549159D01*
X137228116Y-100545582D01*
X137242677Y-100543422D01*
X137257380Y-100542700D01*
X138507380Y-100542700D01*
X138522083Y-100543422D01*
G37*
G36*
X138522083Y-101543422D02*
G01*
X138536644Y-101545582D01*
X138550923Y-101549159D01*
X138564783Y-101554118D01*
X138578090Y-101560412D01*
X138590716Y-101567980D01*
X138602539Y-101576748D01*
X138613446Y-101586634D01*
X138623332Y-101597541D01*
X138632100Y-101609364D01*
X138639668Y-101621990D01*
X138645962Y-101635297D01*
X138650921Y-101649157D01*
X138654498Y-101663436D01*
X138656658Y-101677997D01*
X138657380Y-101692700D01*
X138657380Y-101992700D01*
X138656658Y-102007403D01*
X138654498Y-102021964D01*
X138650921Y-102036243D01*
X138645962Y-102050103D01*
X138639668Y-102063410D01*
X138632100Y-102076036D01*
X138623332Y-102087859D01*
X138613446Y-102098766D01*
X138602539Y-102108652D01*
X138590716Y-102117420D01*
X138578090Y-102124988D01*
X138564783Y-102131282D01*
X138550923Y-102136241D01*
X138536644Y-102139818D01*
X138522083Y-102141978D01*
X138507380Y-102142700D01*
X137257380Y-102142700D01*
X137242677Y-102141978D01*
X137228116Y-102139818D01*
X137213837Y-102136241D01*
X137199977Y-102131282D01*
X137186670Y-102124988D01*
X137174044Y-102117420D01*
X137162221Y-102108652D01*
X137151314Y-102098766D01*
X137141428Y-102087859D01*
X137132660Y-102076036D01*
X137125092Y-102063410D01*
X137118798Y-102050103D01*
X137113839Y-102036243D01*
X137110262Y-102021964D01*
X137108102Y-102007403D01*
X137107380Y-101992700D01*
X137107380Y-101692700D01*
X137108102Y-101677997D01*
X137110262Y-101663436D01*
X137113839Y-101649157D01*
X137118798Y-101635297D01*
X137125092Y-101621990D01*
X137132660Y-101609364D01*
X137141428Y-101597541D01*
X137151314Y-101586634D01*
X137162221Y-101576748D01*
X137174044Y-101567980D01*
X137186670Y-101560412D01*
X137199977Y-101554118D01*
X137213837Y-101549159D01*
X137228116Y-101545582D01*
X137242677Y-101543422D01*
X137257380Y-101542700D01*
X138507380Y-101542700D01*
X138522083Y-101543422D01*
G37*
G36*
X134681885Y-96943904D02*
G01*
X134706153Y-96947504D01*
X134729952Y-96953465D01*
X134753051Y-96961730D01*
X134775230Y-96972220D01*
X134796273Y-96984832D01*
X134815979Y-96999447D01*
X134834157Y-97015923D01*
X134850633Y-97034101D01*
X134865248Y-97053807D01*
X134877860Y-97074850D01*
X134888350Y-97097029D01*
X134896615Y-97120128D01*
X134902576Y-97143927D01*
X134906176Y-97168195D01*
X134907380Y-97192699D01*
X134907380Y-97892701D01*
X134906176Y-97917205D01*
X134902576Y-97941473D01*
X134896615Y-97965272D01*
X134888350Y-97988371D01*
X134877860Y-98010550D01*
X134865248Y-98031593D01*
X134850633Y-98051299D01*
X134834157Y-98069477D01*
X134815979Y-98085953D01*
X134796273Y-98100568D01*
X134775230Y-98113180D01*
X134753051Y-98123670D01*
X134729952Y-98131935D01*
X134706153Y-98137896D01*
X134681885Y-98141496D01*
X134657381Y-98142700D01*
X133357379Y-98142700D01*
X133332875Y-98141496D01*
X133308607Y-98137896D01*
X133284808Y-98131935D01*
X133261709Y-98123670D01*
X133239530Y-98113180D01*
X133218487Y-98100568D01*
X133198781Y-98085953D01*
X133180603Y-98069477D01*
X133164127Y-98051299D01*
X133149512Y-98031593D01*
X133136900Y-98010550D01*
X133126410Y-97988371D01*
X133118145Y-97965272D01*
X133112184Y-97941473D01*
X133108584Y-97917205D01*
X133107380Y-97892701D01*
X133107380Y-97192699D01*
X133108584Y-97168195D01*
X133112184Y-97143927D01*
X133118145Y-97120128D01*
X133126410Y-97097029D01*
X133136900Y-97074850D01*
X133149512Y-97053807D01*
X133164127Y-97034101D01*
X133180603Y-97015923D01*
X133198781Y-96999447D01*
X133218487Y-96984832D01*
X133239530Y-96972220D01*
X133261709Y-96961730D01*
X133284808Y-96953465D01*
X133308607Y-96947504D01*
X133332875Y-96943904D01*
X133357379Y-96942700D01*
X134657381Y-96942700D01*
X134681885Y-96943904D01*
G37*
G36*
X134681885Y-102543904D02*
G01*
X134706153Y-102547504D01*
X134729952Y-102553465D01*
X134753051Y-102561730D01*
X134775230Y-102572220D01*
X134796273Y-102584832D01*
X134815979Y-102599447D01*
X134834157Y-102615923D01*
X134850633Y-102634101D01*
X134865248Y-102653807D01*
X134877860Y-102674850D01*
X134888350Y-102697029D01*
X134896615Y-102720128D01*
X134902576Y-102743927D01*
X134906176Y-102768195D01*
X134907380Y-102792699D01*
X134907380Y-103492701D01*
X134906176Y-103517205D01*
X134902576Y-103541473D01*
X134896615Y-103565272D01*
X134888350Y-103588371D01*
X134877860Y-103610550D01*
X134865248Y-103631593D01*
X134850633Y-103651299D01*
X134834157Y-103669477D01*
X134815979Y-103685953D01*
X134796273Y-103700568D01*
X134775230Y-103713180D01*
X134753051Y-103723670D01*
X134729952Y-103731935D01*
X134706153Y-103737896D01*
X134681885Y-103741496D01*
X134657381Y-103742700D01*
X133357379Y-103742700D01*
X133332875Y-103741496D01*
X133308607Y-103737896D01*
X133284808Y-103731935D01*
X133261709Y-103723670D01*
X133239530Y-103713180D01*
X133218487Y-103700568D01*
X133198781Y-103685953D01*
X133180603Y-103669477D01*
X133164127Y-103651299D01*
X133149512Y-103631593D01*
X133136900Y-103610550D01*
X133126410Y-103588371D01*
X133118145Y-103565272D01*
X133112184Y-103541473D01*
X133108584Y-103517205D01*
X133107380Y-103492701D01*
X133107380Y-102792699D01*
X133108584Y-102768195D01*
X133112184Y-102743927D01*
X133118145Y-102720128D01*
X133126410Y-102697029D01*
X133136900Y-102674850D01*
X133149512Y-102653807D01*
X133164127Y-102634101D01*
X133180603Y-102615923D01*
X133198781Y-102599447D01*
X133218487Y-102584832D01*
X133239530Y-102572220D01*
X133261709Y-102561730D01*
X133284808Y-102553465D01*
X133308607Y-102547504D01*
X133332875Y-102543904D01*
X133357379Y-102542700D01*
X134657381Y-102542700D01*
X134681885Y-102543904D01*
G37*
G36*
X138684365Y-105097284D02*
G01*
X138708633Y-105100884D01*
X138732432Y-105106845D01*
X138755531Y-105115110D01*
X138777710Y-105125600D01*
X138798753Y-105138212D01*
X138818459Y-105152827D01*
X138836637Y-105169303D01*
X138853113Y-105187481D01*
X138867728Y-105207187D01*
X138880340Y-105228230D01*
X138890830Y-105250409D01*
X138899095Y-105273508D01*
X138905056Y-105297307D01*
X138908656Y-105321575D01*
X138909860Y-105346079D01*
X138909860Y-106246081D01*
X138908656Y-106270585D01*
X138905056Y-106294853D01*
X138899095Y-106318652D01*
X138890830Y-106341751D01*
X138880340Y-106363930D01*
X138867728Y-106384973D01*
X138853113Y-106404679D01*
X138836637Y-106422857D01*
X138818459Y-106439333D01*
X138798753Y-106453948D01*
X138777710Y-106466560D01*
X138755531Y-106477050D01*
X138732432Y-106485315D01*
X138708633Y-106491276D01*
X138684365Y-106494876D01*
X138659861Y-106496080D01*
X138009859Y-106496080D01*
X137985355Y-106494876D01*
X137961087Y-106491276D01*
X137937288Y-106485315D01*
X137914189Y-106477050D01*
X137892010Y-106466560D01*
X137870967Y-106453948D01*
X137851261Y-106439333D01*
X137833083Y-106422857D01*
X137816607Y-106404679D01*
X137801992Y-106384973D01*
X137789380Y-106363930D01*
X137778890Y-106341751D01*
X137770625Y-106318652D01*
X137764664Y-106294853D01*
X137761064Y-106270585D01*
X137759860Y-106246081D01*
X137759860Y-105346079D01*
X137761064Y-105321575D01*
X137764664Y-105297307D01*
X137770625Y-105273508D01*
X137778890Y-105250409D01*
X137789380Y-105228230D01*
X137801992Y-105207187D01*
X137816607Y-105187481D01*
X137833083Y-105169303D01*
X137851261Y-105152827D01*
X137870967Y-105138212D01*
X137892010Y-105125600D01*
X137914189Y-105115110D01*
X137937288Y-105106845D01*
X137961087Y-105100884D01*
X137985355Y-105097284D01*
X138009859Y-105096080D01*
X138659861Y-105096080D01*
X138684365Y-105097284D01*
G37*
G36*
X136634365Y-105097284D02*
G01*
X136658633Y-105100884D01*
X136682432Y-105106845D01*
X136705531Y-105115110D01*
X136727710Y-105125600D01*
X136748753Y-105138212D01*
X136768459Y-105152827D01*
X136786637Y-105169303D01*
X136803113Y-105187481D01*
X136817728Y-105207187D01*
X136830340Y-105228230D01*
X136840830Y-105250409D01*
X136849095Y-105273508D01*
X136855056Y-105297307D01*
X136858656Y-105321575D01*
X136859860Y-105346079D01*
X136859860Y-106246081D01*
X136858656Y-106270585D01*
X136855056Y-106294853D01*
X136849095Y-106318652D01*
X136840830Y-106341751D01*
X136830340Y-106363930D01*
X136817728Y-106384973D01*
X136803113Y-106404679D01*
X136786637Y-106422857D01*
X136768459Y-106439333D01*
X136748753Y-106453948D01*
X136727710Y-106466560D01*
X136705531Y-106477050D01*
X136682432Y-106485315D01*
X136658633Y-106491276D01*
X136634365Y-106494876D01*
X136609861Y-106496080D01*
X135959859Y-106496080D01*
X135935355Y-106494876D01*
X135911087Y-106491276D01*
X135887288Y-106485315D01*
X135864189Y-106477050D01*
X135842010Y-106466560D01*
X135820967Y-106453948D01*
X135801261Y-106439333D01*
X135783083Y-106422857D01*
X135766607Y-106404679D01*
X135751992Y-106384973D01*
X135739380Y-106363930D01*
X135728890Y-106341751D01*
X135720625Y-106318652D01*
X135714664Y-106294853D01*
X135711064Y-106270585D01*
X135709860Y-106246081D01*
X135709860Y-105346079D01*
X135711064Y-105321575D01*
X135714664Y-105297307D01*
X135720625Y-105273508D01*
X135728890Y-105250409D01*
X135739380Y-105228230D01*
X135751992Y-105207187D01*
X135766607Y-105187481D01*
X135783083Y-105169303D01*
X135801261Y-105152827D01*
X135820967Y-105138212D01*
X135842010Y-105125600D01*
X135864189Y-105115110D01*
X135887288Y-105106845D01*
X135911087Y-105100884D01*
X135935355Y-105097284D01*
X135959859Y-105096080D01*
X136609861Y-105096080D01*
X136634365Y-105097284D01*
G37*
G36*
X141530865Y-103747704D02*
G01*
X141555133Y-103751304D01*
X141578932Y-103757265D01*
X141602031Y-103765530D01*
X141624210Y-103776020D01*
X141645253Y-103788632D01*
X141664959Y-103803247D01*
X141683137Y-103819723D01*
X141699613Y-103837901D01*
X141714228Y-103857607D01*
X141726840Y-103878650D01*
X141737330Y-103900829D01*
X141745595Y-103923928D01*
X141751556Y-103947727D01*
X141755156Y-103971995D01*
X141756360Y-103996499D01*
X141756360Y-104646501D01*
X141755156Y-104671005D01*
X141751556Y-104695273D01*
X141745595Y-104719072D01*
X141737330Y-104742171D01*
X141726840Y-104764350D01*
X141714228Y-104785393D01*
X141699613Y-104805099D01*
X141683137Y-104823277D01*
X141664959Y-104839753D01*
X141645253Y-104854368D01*
X141624210Y-104866980D01*
X141602031Y-104877470D01*
X141578932Y-104885735D01*
X141555133Y-104891696D01*
X141530865Y-104895296D01*
X141506361Y-104896500D01*
X140606359Y-104896500D01*
X140581855Y-104895296D01*
X140557587Y-104891696D01*
X140533788Y-104885735D01*
X140510689Y-104877470D01*
X140488510Y-104866980D01*
X140467467Y-104854368D01*
X140447761Y-104839753D01*
X140429583Y-104823277D01*
X140413107Y-104805099D01*
X140398492Y-104785393D01*
X140385880Y-104764350D01*
X140375390Y-104742171D01*
X140367125Y-104719072D01*
X140361164Y-104695273D01*
X140357564Y-104671005D01*
X140356360Y-104646501D01*
X140356360Y-103996499D01*
X140357564Y-103971995D01*
X140361164Y-103947727D01*
X140367125Y-103923928D01*
X140375390Y-103900829D01*
X140385880Y-103878650D01*
X140398492Y-103857607D01*
X140413107Y-103837901D01*
X140429583Y-103819723D01*
X140447761Y-103803247D01*
X140467467Y-103788632D01*
X140488510Y-103776020D01*
X140510689Y-103765530D01*
X140533788Y-103757265D01*
X140557587Y-103751304D01*
X140581855Y-103747704D01*
X140606359Y-103746500D01*
X141506361Y-103746500D01*
X141530865Y-103747704D01*
G37*
G36*
X141530865Y-105797704D02*
G01*
X141555133Y-105801304D01*
X141578932Y-105807265D01*
X141602031Y-105815530D01*
X141624210Y-105826020D01*
X141645253Y-105838632D01*
X141664959Y-105853247D01*
X141683137Y-105869723D01*
X141699613Y-105887901D01*
X141714228Y-105907607D01*
X141726840Y-105928650D01*
X141737330Y-105950829D01*
X141745595Y-105973928D01*
X141751556Y-105997727D01*
X141755156Y-106021995D01*
X141756360Y-106046499D01*
X141756360Y-106696501D01*
X141755156Y-106721005D01*
X141751556Y-106745273D01*
X141745595Y-106769072D01*
X141737330Y-106792171D01*
X141726840Y-106814350D01*
X141714228Y-106835393D01*
X141699613Y-106855099D01*
X141683137Y-106873277D01*
X141664959Y-106889753D01*
X141645253Y-106904368D01*
X141624210Y-106916980D01*
X141602031Y-106927470D01*
X141578932Y-106935735D01*
X141555133Y-106941696D01*
X141530865Y-106945296D01*
X141506361Y-106946500D01*
X140606359Y-106946500D01*
X140581855Y-106945296D01*
X140557587Y-106941696D01*
X140533788Y-106935735D01*
X140510689Y-106927470D01*
X140488510Y-106916980D01*
X140467467Y-106904368D01*
X140447761Y-106889753D01*
X140429583Y-106873277D01*
X140413107Y-106855099D01*
X140398492Y-106835393D01*
X140385880Y-106814350D01*
X140375390Y-106792171D01*
X140367125Y-106769072D01*
X140361164Y-106745273D01*
X140357564Y-106721005D01*
X140356360Y-106696501D01*
X140356360Y-106046499D01*
X140357564Y-106021995D01*
X140361164Y-105997727D01*
X140367125Y-105973928D01*
X140375390Y-105950829D01*
X140385880Y-105928650D01*
X140398492Y-105907607D01*
X140413107Y-105887901D01*
X140429583Y-105869723D01*
X140447761Y-105853247D01*
X140467467Y-105838632D01*
X140488510Y-105826020D01*
X140510689Y-105815530D01*
X140533788Y-105807265D01*
X140557587Y-105801304D01*
X140581855Y-105797704D01*
X140606359Y-105796500D01*
X141506361Y-105796500D01*
X141530865Y-105797704D01*
G37*
M02*
