%TF.GenerationSoftware,KiCad,Pcbnew,(5.1.6)-1*%
%TF.CreationDate,2020-10-29T00:16:48-05:00*%
%TF.ProjectId,VS1000BreakoutV2,56533130-3030-4427-9265-616b6f757456,rev?*%
%TF.SameCoordinates,Original*%
%TF.FileFunction,Paste,Top*%
%TF.FilePolarity,Positive*%
%FSLAX46Y46*%
G04 Gerber Fmt 4.6, Leading zero omitted, Abs format (unit mm)*
G04 Created by KiCad (PCBNEW (5.1.6)-1) date 2020-10-29 00:16:48*
%MOMM*%
%LPD*%
G01*
G04 APERTURE LIST*
%ADD10R,0.400000X1.400000*%
%ADD11R,1.060000X0.650000*%
%ADD12R,1.450000X1.150000*%
%ADD13R,1.900000X1.750000*%
%ADD14R,1.400000X0.400000*%
G04 APERTURE END LIST*
D10*
%TO.C,Y1*%
X110306000Y-109347000D03*
X111506000Y-109347000D03*
X112706000Y-109347000D03*
%TD*%
D11*
%TO.C,U2*%
X92753000Y-116078000D03*
X92753000Y-117028000D03*
X92753000Y-115128000D03*
X94953000Y-115128000D03*
X94953000Y-116078000D03*
X94953000Y-117028000D03*
%TD*%
%TO.C,U1*%
G36*
G01*
X106228000Y-121264000D02*
X104903000Y-121264000D01*
G75*
G02*
X104828000Y-121189000I0J75000D01*
G01*
X104828000Y-121039000D01*
G75*
G02*
X104903000Y-120964000I75000J0D01*
G01*
X106228000Y-120964000D01*
G75*
G02*
X106303000Y-121039000I0J-75000D01*
G01*
X106303000Y-121189000D01*
G75*
G02*
X106228000Y-121264000I-75000J0D01*
G01*
G37*
G36*
G01*
X106228000Y-120764000D02*
X104903000Y-120764000D01*
G75*
G02*
X104828000Y-120689000I0J75000D01*
G01*
X104828000Y-120539000D01*
G75*
G02*
X104903000Y-120464000I75000J0D01*
G01*
X106228000Y-120464000D01*
G75*
G02*
X106303000Y-120539000I0J-75000D01*
G01*
X106303000Y-120689000D01*
G75*
G02*
X106228000Y-120764000I-75000J0D01*
G01*
G37*
G36*
G01*
X106228000Y-120264000D02*
X104903000Y-120264000D01*
G75*
G02*
X104828000Y-120189000I0J75000D01*
G01*
X104828000Y-120039000D01*
G75*
G02*
X104903000Y-119964000I75000J0D01*
G01*
X106228000Y-119964000D01*
G75*
G02*
X106303000Y-120039000I0J-75000D01*
G01*
X106303000Y-120189000D01*
G75*
G02*
X106228000Y-120264000I-75000J0D01*
G01*
G37*
G36*
G01*
X106228000Y-119764000D02*
X104903000Y-119764000D01*
G75*
G02*
X104828000Y-119689000I0J75000D01*
G01*
X104828000Y-119539000D01*
G75*
G02*
X104903000Y-119464000I75000J0D01*
G01*
X106228000Y-119464000D01*
G75*
G02*
X106303000Y-119539000I0J-75000D01*
G01*
X106303000Y-119689000D01*
G75*
G02*
X106228000Y-119764000I-75000J0D01*
G01*
G37*
G36*
G01*
X106228000Y-119264000D02*
X104903000Y-119264000D01*
G75*
G02*
X104828000Y-119189000I0J75000D01*
G01*
X104828000Y-119039000D01*
G75*
G02*
X104903000Y-118964000I75000J0D01*
G01*
X106228000Y-118964000D01*
G75*
G02*
X106303000Y-119039000I0J-75000D01*
G01*
X106303000Y-119189000D01*
G75*
G02*
X106228000Y-119264000I-75000J0D01*
G01*
G37*
G36*
G01*
X106228000Y-118764000D02*
X104903000Y-118764000D01*
G75*
G02*
X104828000Y-118689000I0J75000D01*
G01*
X104828000Y-118539000D01*
G75*
G02*
X104903000Y-118464000I75000J0D01*
G01*
X106228000Y-118464000D01*
G75*
G02*
X106303000Y-118539000I0J-75000D01*
G01*
X106303000Y-118689000D01*
G75*
G02*
X106228000Y-118764000I-75000J0D01*
G01*
G37*
G36*
G01*
X106228000Y-118264000D02*
X104903000Y-118264000D01*
G75*
G02*
X104828000Y-118189000I0J75000D01*
G01*
X104828000Y-118039000D01*
G75*
G02*
X104903000Y-117964000I75000J0D01*
G01*
X106228000Y-117964000D01*
G75*
G02*
X106303000Y-118039000I0J-75000D01*
G01*
X106303000Y-118189000D01*
G75*
G02*
X106228000Y-118264000I-75000J0D01*
G01*
G37*
G36*
G01*
X106228000Y-117764000D02*
X104903000Y-117764000D01*
G75*
G02*
X104828000Y-117689000I0J75000D01*
G01*
X104828000Y-117539000D01*
G75*
G02*
X104903000Y-117464000I75000J0D01*
G01*
X106228000Y-117464000D01*
G75*
G02*
X106303000Y-117539000I0J-75000D01*
G01*
X106303000Y-117689000D01*
G75*
G02*
X106228000Y-117764000I-75000J0D01*
G01*
G37*
G36*
G01*
X106228000Y-117264000D02*
X104903000Y-117264000D01*
G75*
G02*
X104828000Y-117189000I0J75000D01*
G01*
X104828000Y-117039000D01*
G75*
G02*
X104903000Y-116964000I75000J0D01*
G01*
X106228000Y-116964000D01*
G75*
G02*
X106303000Y-117039000I0J-75000D01*
G01*
X106303000Y-117189000D01*
G75*
G02*
X106228000Y-117264000I-75000J0D01*
G01*
G37*
G36*
G01*
X106228000Y-116764000D02*
X104903000Y-116764000D01*
G75*
G02*
X104828000Y-116689000I0J75000D01*
G01*
X104828000Y-116539000D01*
G75*
G02*
X104903000Y-116464000I75000J0D01*
G01*
X106228000Y-116464000D01*
G75*
G02*
X106303000Y-116539000I0J-75000D01*
G01*
X106303000Y-116689000D01*
G75*
G02*
X106228000Y-116764000I-75000J0D01*
G01*
G37*
G36*
G01*
X106228000Y-116264000D02*
X104903000Y-116264000D01*
G75*
G02*
X104828000Y-116189000I0J75000D01*
G01*
X104828000Y-116039000D01*
G75*
G02*
X104903000Y-115964000I75000J0D01*
G01*
X106228000Y-115964000D01*
G75*
G02*
X106303000Y-116039000I0J-75000D01*
G01*
X106303000Y-116189000D01*
G75*
G02*
X106228000Y-116264000I-75000J0D01*
G01*
G37*
G36*
G01*
X106228000Y-115764000D02*
X104903000Y-115764000D01*
G75*
G02*
X104828000Y-115689000I0J75000D01*
G01*
X104828000Y-115539000D01*
G75*
G02*
X104903000Y-115464000I75000J0D01*
G01*
X106228000Y-115464000D01*
G75*
G02*
X106303000Y-115539000I0J-75000D01*
G01*
X106303000Y-115689000D01*
G75*
G02*
X106228000Y-115764000I-75000J0D01*
G01*
G37*
G36*
G01*
X107053000Y-114939000D02*
X106903000Y-114939000D01*
G75*
G02*
X106828000Y-114864000I0J75000D01*
G01*
X106828000Y-113539000D01*
G75*
G02*
X106903000Y-113464000I75000J0D01*
G01*
X107053000Y-113464000D01*
G75*
G02*
X107128000Y-113539000I0J-75000D01*
G01*
X107128000Y-114864000D01*
G75*
G02*
X107053000Y-114939000I-75000J0D01*
G01*
G37*
G36*
G01*
X107553000Y-114939000D02*
X107403000Y-114939000D01*
G75*
G02*
X107328000Y-114864000I0J75000D01*
G01*
X107328000Y-113539000D01*
G75*
G02*
X107403000Y-113464000I75000J0D01*
G01*
X107553000Y-113464000D01*
G75*
G02*
X107628000Y-113539000I0J-75000D01*
G01*
X107628000Y-114864000D01*
G75*
G02*
X107553000Y-114939000I-75000J0D01*
G01*
G37*
G36*
G01*
X108053000Y-114939000D02*
X107903000Y-114939000D01*
G75*
G02*
X107828000Y-114864000I0J75000D01*
G01*
X107828000Y-113539000D01*
G75*
G02*
X107903000Y-113464000I75000J0D01*
G01*
X108053000Y-113464000D01*
G75*
G02*
X108128000Y-113539000I0J-75000D01*
G01*
X108128000Y-114864000D01*
G75*
G02*
X108053000Y-114939000I-75000J0D01*
G01*
G37*
G36*
G01*
X108553000Y-114939000D02*
X108403000Y-114939000D01*
G75*
G02*
X108328000Y-114864000I0J75000D01*
G01*
X108328000Y-113539000D01*
G75*
G02*
X108403000Y-113464000I75000J0D01*
G01*
X108553000Y-113464000D01*
G75*
G02*
X108628000Y-113539000I0J-75000D01*
G01*
X108628000Y-114864000D01*
G75*
G02*
X108553000Y-114939000I-75000J0D01*
G01*
G37*
G36*
G01*
X109053000Y-114939000D02*
X108903000Y-114939000D01*
G75*
G02*
X108828000Y-114864000I0J75000D01*
G01*
X108828000Y-113539000D01*
G75*
G02*
X108903000Y-113464000I75000J0D01*
G01*
X109053000Y-113464000D01*
G75*
G02*
X109128000Y-113539000I0J-75000D01*
G01*
X109128000Y-114864000D01*
G75*
G02*
X109053000Y-114939000I-75000J0D01*
G01*
G37*
G36*
G01*
X109553000Y-114939000D02*
X109403000Y-114939000D01*
G75*
G02*
X109328000Y-114864000I0J75000D01*
G01*
X109328000Y-113539000D01*
G75*
G02*
X109403000Y-113464000I75000J0D01*
G01*
X109553000Y-113464000D01*
G75*
G02*
X109628000Y-113539000I0J-75000D01*
G01*
X109628000Y-114864000D01*
G75*
G02*
X109553000Y-114939000I-75000J0D01*
G01*
G37*
G36*
G01*
X110053000Y-114939000D02*
X109903000Y-114939000D01*
G75*
G02*
X109828000Y-114864000I0J75000D01*
G01*
X109828000Y-113539000D01*
G75*
G02*
X109903000Y-113464000I75000J0D01*
G01*
X110053000Y-113464000D01*
G75*
G02*
X110128000Y-113539000I0J-75000D01*
G01*
X110128000Y-114864000D01*
G75*
G02*
X110053000Y-114939000I-75000J0D01*
G01*
G37*
G36*
G01*
X110553000Y-114939000D02*
X110403000Y-114939000D01*
G75*
G02*
X110328000Y-114864000I0J75000D01*
G01*
X110328000Y-113539000D01*
G75*
G02*
X110403000Y-113464000I75000J0D01*
G01*
X110553000Y-113464000D01*
G75*
G02*
X110628000Y-113539000I0J-75000D01*
G01*
X110628000Y-114864000D01*
G75*
G02*
X110553000Y-114939000I-75000J0D01*
G01*
G37*
G36*
G01*
X111053000Y-114939000D02*
X110903000Y-114939000D01*
G75*
G02*
X110828000Y-114864000I0J75000D01*
G01*
X110828000Y-113539000D01*
G75*
G02*
X110903000Y-113464000I75000J0D01*
G01*
X111053000Y-113464000D01*
G75*
G02*
X111128000Y-113539000I0J-75000D01*
G01*
X111128000Y-114864000D01*
G75*
G02*
X111053000Y-114939000I-75000J0D01*
G01*
G37*
G36*
G01*
X111553000Y-114939000D02*
X111403000Y-114939000D01*
G75*
G02*
X111328000Y-114864000I0J75000D01*
G01*
X111328000Y-113539000D01*
G75*
G02*
X111403000Y-113464000I75000J0D01*
G01*
X111553000Y-113464000D01*
G75*
G02*
X111628000Y-113539000I0J-75000D01*
G01*
X111628000Y-114864000D01*
G75*
G02*
X111553000Y-114939000I-75000J0D01*
G01*
G37*
G36*
G01*
X112053000Y-114939000D02*
X111903000Y-114939000D01*
G75*
G02*
X111828000Y-114864000I0J75000D01*
G01*
X111828000Y-113539000D01*
G75*
G02*
X111903000Y-113464000I75000J0D01*
G01*
X112053000Y-113464000D01*
G75*
G02*
X112128000Y-113539000I0J-75000D01*
G01*
X112128000Y-114864000D01*
G75*
G02*
X112053000Y-114939000I-75000J0D01*
G01*
G37*
G36*
G01*
X112553000Y-114939000D02*
X112403000Y-114939000D01*
G75*
G02*
X112328000Y-114864000I0J75000D01*
G01*
X112328000Y-113539000D01*
G75*
G02*
X112403000Y-113464000I75000J0D01*
G01*
X112553000Y-113464000D01*
G75*
G02*
X112628000Y-113539000I0J-75000D01*
G01*
X112628000Y-114864000D01*
G75*
G02*
X112553000Y-114939000I-75000J0D01*
G01*
G37*
G36*
G01*
X114553000Y-115764000D02*
X113228000Y-115764000D01*
G75*
G02*
X113153000Y-115689000I0J75000D01*
G01*
X113153000Y-115539000D01*
G75*
G02*
X113228000Y-115464000I75000J0D01*
G01*
X114553000Y-115464000D01*
G75*
G02*
X114628000Y-115539000I0J-75000D01*
G01*
X114628000Y-115689000D01*
G75*
G02*
X114553000Y-115764000I-75000J0D01*
G01*
G37*
G36*
G01*
X114553000Y-116264000D02*
X113228000Y-116264000D01*
G75*
G02*
X113153000Y-116189000I0J75000D01*
G01*
X113153000Y-116039000D01*
G75*
G02*
X113228000Y-115964000I75000J0D01*
G01*
X114553000Y-115964000D01*
G75*
G02*
X114628000Y-116039000I0J-75000D01*
G01*
X114628000Y-116189000D01*
G75*
G02*
X114553000Y-116264000I-75000J0D01*
G01*
G37*
G36*
G01*
X114553000Y-116764000D02*
X113228000Y-116764000D01*
G75*
G02*
X113153000Y-116689000I0J75000D01*
G01*
X113153000Y-116539000D01*
G75*
G02*
X113228000Y-116464000I75000J0D01*
G01*
X114553000Y-116464000D01*
G75*
G02*
X114628000Y-116539000I0J-75000D01*
G01*
X114628000Y-116689000D01*
G75*
G02*
X114553000Y-116764000I-75000J0D01*
G01*
G37*
G36*
G01*
X114553000Y-117264000D02*
X113228000Y-117264000D01*
G75*
G02*
X113153000Y-117189000I0J75000D01*
G01*
X113153000Y-117039000D01*
G75*
G02*
X113228000Y-116964000I75000J0D01*
G01*
X114553000Y-116964000D01*
G75*
G02*
X114628000Y-117039000I0J-75000D01*
G01*
X114628000Y-117189000D01*
G75*
G02*
X114553000Y-117264000I-75000J0D01*
G01*
G37*
G36*
G01*
X114553000Y-117764000D02*
X113228000Y-117764000D01*
G75*
G02*
X113153000Y-117689000I0J75000D01*
G01*
X113153000Y-117539000D01*
G75*
G02*
X113228000Y-117464000I75000J0D01*
G01*
X114553000Y-117464000D01*
G75*
G02*
X114628000Y-117539000I0J-75000D01*
G01*
X114628000Y-117689000D01*
G75*
G02*
X114553000Y-117764000I-75000J0D01*
G01*
G37*
G36*
G01*
X114553000Y-118264000D02*
X113228000Y-118264000D01*
G75*
G02*
X113153000Y-118189000I0J75000D01*
G01*
X113153000Y-118039000D01*
G75*
G02*
X113228000Y-117964000I75000J0D01*
G01*
X114553000Y-117964000D01*
G75*
G02*
X114628000Y-118039000I0J-75000D01*
G01*
X114628000Y-118189000D01*
G75*
G02*
X114553000Y-118264000I-75000J0D01*
G01*
G37*
G36*
G01*
X114553000Y-118764000D02*
X113228000Y-118764000D01*
G75*
G02*
X113153000Y-118689000I0J75000D01*
G01*
X113153000Y-118539000D01*
G75*
G02*
X113228000Y-118464000I75000J0D01*
G01*
X114553000Y-118464000D01*
G75*
G02*
X114628000Y-118539000I0J-75000D01*
G01*
X114628000Y-118689000D01*
G75*
G02*
X114553000Y-118764000I-75000J0D01*
G01*
G37*
G36*
G01*
X114553000Y-119264000D02*
X113228000Y-119264000D01*
G75*
G02*
X113153000Y-119189000I0J75000D01*
G01*
X113153000Y-119039000D01*
G75*
G02*
X113228000Y-118964000I75000J0D01*
G01*
X114553000Y-118964000D01*
G75*
G02*
X114628000Y-119039000I0J-75000D01*
G01*
X114628000Y-119189000D01*
G75*
G02*
X114553000Y-119264000I-75000J0D01*
G01*
G37*
G36*
G01*
X114553000Y-119764000D02*
X113228000Y-119764000D01*
G75*
G02*
X113153000Y-119689000I0J75000D01*
G01*
X113153000Y-119539000D01*
G75*
G02*
X113228000Y-119464000I75000J0D01*
G01*
X114553000Y-119464000D01*
G75*
G02*
X114628000Y-119539000I0J-75000D01*
G01*
X114628000Y-119689000D01*
G75*
G02*
X114553000Y-119764000I-75000J0D01*
G01*
G37*
G36*
G01*
X114553000Y-120264000D02*
X113228000Y-120264000D01*
G75*
G02*
X113153000Y-120189000I0J75000D01*
G01*
X113153000Y-120039000D01*
G75*
G02*
X113228000Y-119964000I75000J0D01*
G01*
X114553000Y-119964000D01*
G75*
G02*
X114628000Y-120039000I0J-75000D01*
G01*
X114628000Y-120189000D01*
G75*
G02*
X114553000Y-120264000I-75000J0D01*
G01*
G37*
G36*
G01*
X114553000Y-120764000D02*
X113228000Y-120764000D01*
G75*
G02*
X113153000Y-120689000I0J75000D01*
G01*
X113153000Y-120539000D01*
G75*
G02*
X113228000Y-120464000I75000J0D01*
G01*
X114553000Y-120464000D01*
G75*
G02*
X114628000Y-120539000I0J-75000D01*
G01*
X114628000Y-120689000D01*
G75*
G02*
X114553000Y-120764000I-75000J0D01*
G01*
G37*
G36*
G01*
X114553000Y-121264000D02*
X113228000Y-121264000D01*
G75*
G02*
X113153000Y-121189000I0J75000D01*
G01*
X113153000Y-121039000D01*
G75*
G02*
X113228000Y-120964000I75000J0D01*
G01*
X114553000Y-120964000D01*
G75*
G02*
X114628000Y-121039000I0J-75000D01*
G01*
X114628000Y-121189000D01*
G75*
G02*
X114553000Y-121264000I-75000J0D01*
G01*
G37*
G36*
G01*
X112553000Y-123264000D02*
X112403000Y-123264000D01*
G75*
G02*
X112328000Y-123189000I0J75000D01*
G01*
X112328000Y-121864000D01*
G75*
G02*
X112403000Y-121789000I75000J0D01*
G01*
X112553000Y-121789000D01*
G75*
G02*
X112628000Y-121864000I0J-75000D01*
G01*
X112628000Y-123189000D01*
G75*
G02*
X112553000Y-123264000I-75000J0D01*
G01*
G37*
G36*
G01*
X112053000Y-123264000D02*
X111903000Y-123264000D01*
G75*
G02*
X111828000Y-123189000I0J75000D01*
G01*
X111828000Y-121864000D01*
G75*
G02*
X111903000Y-121789000I75000J0D01*
G01*
X112053000Y-121789000D01*
G75*
G02*
X112128000Y-121864000I0J-75000D01*
G01*
X112128000Y-123189000D01*
G75*
G02*
X112053000Y-123264000I-75000J0D01*
G01*
G37*
G36*
G01*
X111553000Y-123264000D02*
X111403000Y-123264000D01*
G75*
G02*
X111328000Y-123189000I0J75000D01*
G01*
X111328000Y-121864000D01*
G75*
G02*
X111403000Y-121789000I75000J0D01*
G01*
X111553000Y-121789000D01*
G75*
G02*
X111628000Y-121864000I0J-75000D01*
G01*
X111628000Y-123189000D01*
G75*
G02*
X111553000Y-123264000I-75000J0D01*
G01*
G37*
G36*
G01*
X111053000Y-123264000D02*
X110903000Y-123264000D01*
G75*
G02*
X110828000Y-123189000I0J75000D01*
G01*
X110828000Y-121864000D01*
G75*
G02*
X110903000Y-121789000I75000J0D01*
G01*
X111053000Y-121789000D01*
G75*
G02*
X111128000Y-121864000I0J-75000D01*
G01*
X111128000Y-123189000D01*
G75*
G02*
X111053000Y-123264000I-75000J0D01*
G01*
G37*
G36*
G01*
X110553000Y-123264000D02*
X110403000Y-123264000D01*
G75*
G02*
X110328000Y-123189000I0J75000D01*
G01*
X110328000Y-121864000D01*
G75*
G02*
X110403000Y-121789000I75000J0D01*
G01*
X110553000Y-121789000D01*
G75*
G02*
X110628000Y-121864000I0J-75000D01*
G01*
X110628000Y-123189000D01*
G75*
G02*
X110553000Y-123264000I-75000J0D01*
G01*
G37*
G36*
G01*
X110053000Y-123264000D02*
X109903000Y-123264000D01*
G75*
G02*
X109828000Y-123189000I0J75000D01*
G01*
X109828000Y-121864000D01*
G75*
G02*
X109903000Y-121789000I75000J0D01*
G01*
X110053000Y-121789000D01*
G75*
G02*
X110128000Y-121864000I0J-75000D01*
G01*
X110128000Y-123189000D01*
G75*
G02*
X110053000Y-123264000I-75000J0D01*
G01*
G37*
G36*
G01*
X109553000Y-123264000D02*
X109403000Y-123264000D01*
G75*
G02*
X109328000Y-123189000I0J75000D01*
G01*
X109328000Y-121864000D01*
G75*
G02*
X109403000Y-121789000I75000J0D01*
G01*
X109553000Y-121789000D01*
G75*
G02*
X109628000Y-121864000I0J-75000D01*
G01*
X109628000Y-123189000D01*
G75*
G02*
X109553000Y-123264000I-75000J0D01*
G01*
G37*
G36*
G01*
X109053000Y-123264000D02*
X108903000Y-123264000D01*
G75*
G02*
X108828000Y-123189000I0J75000D01*
G01*
X108828000Y-121864000D01*
G75*
G02*
X108903000Y-121789000I75000J0D01*
G01*
X109053000Y-121789000D01*
G75*
G02*
X109128000Y-121864000I0J-75000D01*
G01*
X109128000Y-123189000D01*
G75*
G02*
X109053000Y-123264000I-75000J0D01*
G01*
G37*
G36*
G01*
X108553000Y-123264000D02*
X108403000Y-123264000D01*
G75*
G02*
X108328000Y-123189000I0J75000D01*
G01*
X108328000Y-121864000D01*
G75*
G02*
X108403000Y-121789000I75000J0D01*
G01*
X108553000Y-121789000D01*
G75*
G02*
X108628000Y-121864000I0J-75000D01*
G01*
X108628000Y-123189000D01*
G75*
G02*
X108553000Y-123264000I-75000J0D01*
G01*
G37*
G36*
G01*
X108053000Y-123264000D02*
X107903000Y-123264000D01*
G75*
G02*
X107828000Y-123189000I0J75000D01*
G01*
X107828000Y-121864000D01*
G75*
G02*
X107903000Y-121789000I75000J0D01*
G01*
X108053000Y-121789000D01*
G75*
G02*
X108128000Y-121864000I0J-75000D01*
G01*
X108128000Y-123189000D01*
G75*
G02*
X108053000Y-123264000I-75000J0D01*
G01*
G37*
G36*
G01*
X107553000Y-123264000D02*
X107403000Y-123264000D01*
G75*
G02*
X107328000Y-123189000I0J75000D01*
G01*
X107328000Y-121864000D01*
G75*
G02*
X107403000Y-121789000I75000J0D01*
G01*
X107553000Y-121789000D01*
G75*
G02*
X107628000Y-121864000I0J-75000D01*
G01*
X107628000Y-123189000D01*
G75*
G02*
X107553000Y-123264000I-75000J0D01*
G01*
G37*
G36*
G01*
X107053000Y-123264000D02*
X106903000Y-123264000D01*
G75*
G02*
X106828000Y-123189000I0J75000D01*
G01*
X106828000Y-121864000D01*
G75*
G02*
X106903000Y-121789000I75000J0D01*
G01*
X107053000Y-121789000D01*
G75*
G02*
X107128000Y-121864000I0J-75000D01*
G01*
X107128000Y-123189000D01*
G75*
G02*
X107053000Y-123264000I-75000J0D01*
G01*
G37*
%TD*%
%TO.C,R7*%
G36*
G01*
X121862000Y-121868250D02*
X121862000Y-120955750D01*
G75*
G02*
X122105750Y-120712000I243750J0D01*
G01*
X122593250Y-120712000D01*
G75*
G02*
X122837000Y-120955750I0J-243750D01*
G01*
X122837000Y-121868250D01*
G75*
G02*
X122593250Y-122112000I-243750J0D01*
G01*
X122105750Y-122112000D01*
G75*
G02*
X121862000Y-121868250I0J243750D01*
G01*
G37*
G36*
G01*
X119987000Y-121868250D02*
X119987000Y-120955750D01*
G75*
G02*
X120230750Y-120712000I243750J0D01*
G01*
X120718250Y-120712000D01*
G75*
G02*
X120962000Y-120955750I0J-243750D01*
G01*
X120962000Y-121868250D01*
G75*
G02*
X120718250Y-122112000I-243750J0D01*
G01*
X120230750Y-122112000D01*
G75*
G02*
X119987000Y-121868250I0J243750D01*
G01*
G37*
%TD*%
%TO.C,R6*%
G36*
G01*
X126042000Y-122479750D02*
X126042000Y-123392250D01*
G75*
G02*
X125798250Y-123636000I-243750J0D01*
G01*
X125310750Y-123636000D01*
G75*
G02*
X125067000Y-123392250I0J243750D01*
G01*
X125067000Y-122479750D01*
G75*
G02*
X125310750Y-122236000I243750J0D01*
G01*
X125798250Y-122236000D01*
G75*
G02*
X126042000Y-122479750I0J-243750D01*
G01*
G37*
G36*
G01*
X127917000Y-122479750D02*
X127917000Y-123392250D01*
G75*
G02*
X127673250Y-123636000I-243750J0D01*
G01*
X127185750Y-123636000D01*
G75*
G02*
X126942000Y-123392250I0J243750D01*
G01*
X126942000Y-122479750D01*
G75*
G02*
X127185750Y-122236000I243750J0D01*
G01*
X127673250Y-122236000D01*
G75*
G02*
X127917000Y-122479750I0J-243750D01*
G01*
G37*
%TD*%
%TO.C,R5*%
G36*
G01*
X125915000Y-110668750D02*
X125915000Y-111581250D01*
G75*
G02*
X125671250Y-111825000I-243750J0D01*
G01*
X125183750Y-111825000D01*
G75*
G02*
X124940000Y-111581250I0J243750D01*
G01*
X124940000Y-110668750D01*
G75*
G02*
X125183750Y-110425000I243750J0D01*
G01*
X125671250Y-110425000D01*
G75*
G02*
X125915000Y-110668750I0J-243750D01*
G01*
G37*
G36*
G01*
X127790000Y-110668750D02*
X127790000Y-111581250D01*
G75*
G02*
X127546250Y-111825000I-243750J0D01*
G01*
X127058750Y-111825000D01*
G75*
G02*
X126815000Y-111581250I0J243750D01*
G01*
X126815000Y-110668750D01*
G75*
G02*
X127058750Y-110425000I243750J0D01*
G01*
X127546250Y-110425000D01*
G75*
G02*
X127790000Y-110668750I0J-243750D01*
G01*
G37*
%TD*%
%TO.C,R4*%
G36*
G01*
X100134000Y-109271750D02*
X100134000Y-110184250D01*
G75*
G02*
X99890250Y-110428000I-243750J0D01*
G01*
X99402750Y-110428000D01*
G75*
G02*
X99159000Y-110184250I0J243750D01*
G01*
X99159000Y-109271750D01*
G75*
G02*
X99402750Y-109028000I243750J0D01*
G01*
X99890250Y-109028000D01*
G75*
G02*
X100134000Y-109271750I0J-243750D01*
G01*
G37*
G36*
G01*
X102009000Y-109271750D02*
X102009000Y-110184250D01*
G75*
G02*
X101765250Y-110428000I-243750J0D01*
G01*
X101277750Y-110428000D01*
G75*
G02*
X101034000Y-110184250I0J243750D01*
G01*
X101034000Y-109271750D01*
G75*
G02*
X101277750Y-109028000I243750J0D01*
G01*
X101765250Y-109028000D01*
G75*
G02*
X102009000Y-109271750I0J-243750D01*
G01*
G37*
%TD*%
%TO.C,R3*%
G36*
G01*
X90493000Y-109930250D02*
X90493000Y-109017750D01*
G75*
G02*
X90736750Y-108774000I243750J0D01*
G01*
X91224250Y-108774000D01*
G75*
G02*
X91468000Y-109017750I0J-243750D01*
G01*
X91468000Y-109930250D01*
G75*
G02*
X91224250Y-110174000I-243750J0D01*
G01*
X90736750Y-110174000D01*
G75*
G02*
X90493000Y-109930250I0J243750D01*
G01*
G37*
G36*
G01*
X88618000Y-109930250D02*
X88618000Y-109017750D01*
G75*
G02*
X88861750Y-108774000I243750J0D01*
G01*
X89349250Y-108774000D01*
G75*
G02*
X89593000Y-109017750I0J-243750D01*
G01*
X89593000Y-109930250D01*
G75*
G02*
X89349250Y-110174000I-243750J0D01*
G01*
X88861750Y-110174000D01*
G75*
G02*
X88618000Y-109930250I0J243750D01*
G01*
G37*
%TD*%
%TO.C,R2*%
G36*
G01*
X111956000Y-111708250D02*
X111956000Y-110795750D01*
G75*
G02*
X112199750Y-110552000I243750J0D01*
G01*
X112687250Y-110552000D01*
G75*
G02*
X112931000Y-110795750I0J-243750D01*
G01*
X112931000Y-111708250D01*
G75*
G02*
X112687250Y-111952000I-243750J0D01*
G01*
X112199750Y-111952000D01*
G75*
G02*
X111956000Y-111708250I0J243750D01*
G01*
G37*
G36*
G01*
X110081000Y-111708250D02*
X110081000Y-110795750D01*
G75*
G02*
X110324750Y-110552000I243750J0D01*
G01*
X110812250Y-110552000D01*
G75*
G02*
X111056000Y-110795750I0J-243750D01*
G01*
X111056000Y-111708250D01*
G75*
G02*
X110812250Y-111952000I-243750J0D01*
G01*
X110324750Y-111952000D01*
G75*
G02*
X110081000Y-111708250I0J243750D01*
G01*
G37*
%TD*%
%TO.C,R1*%
G36*
G01*
X96976250Y-122613000D02*
X96063750Y-122613000D01*
G75*
G02*
X95820000Y-122369250I0J243750D01*
G01*
X95820000Y-121881750D01*
G75*
G02*
X96063750Y-121638000I243750J0D01*
G01*
X96976250Y-121638000D01*
G75*
G02*
X97220000Y-121881750I0J-243750D01*
G01*
X97220000Y-122369250D01*
G75*
G02*
X96976250Y-122613000I-243750J0D01*
G01*
G37*
G36*
G01*
X96976250Y-124488000D02*
X96063750Y-124488000D01*
G75*
G02*
X95820000Y-124244250I0J243750D01*
G01*
X95820000Y-123756750D01*
G75*
G02*
X96063750Y-123513000I243750J0D01*
G01*
X96976250Y-123513000D01*
G75*
G02*
X97220000Y-123756750I0J-243750D01*
G01*
X97220000Y-124244250D01*
G75*
G02*
X96976250Y-124488000I-243750J0D01*
G01*
G37*
%TD*%
D12*
%TO.C,J3*%
X88914000Y-114012000D03*
X88914000Y-118652000D03*
D13*
X86684000Y-115207000D03*
D14*
X89334000Y-116332000D03*
X89334000Y-116982000D03*
X89334000Y-117632000D03*
X89334000Y-115032000D03*
X89334000Y-115682000D03*
D13*
X86684000Y-117457000D03*
%TD*%
%TO.C,D1*%
G36*
G01*
X89477000Y-123386001D02*
X89477000Y-122485999D01*
G75*
G02*
X89726999Y-122236000I249999J0D01*
G01*
X90377001Y-122236000D01*
G75*
G02*
X90627000Y-122485999I0J-249999D01*
G01*
X90627000Y-123386001D01*
G75*
G02*
X90377001Y-123636000I-249999J0D01*
G01*
X89726999Y-123636000D01*
G75*
G02*
X89477000Y-123386001I0J249999D01*
G01*
G37*
G36*
G01*
X87427000Y-123386001D02*
X87427000Y-122485999D01*
G75*
G02*
X87676999Y-122236000I249999J0D01*
G01*
X88327001Y-122236000D01*
G75*
G02*
X88577000Y-122485999I0J-249999D01*
G01*
X88577000Y-123386001D01*
G75*
G02*
X88327001Y-123636000I-249999J0D01*
G01*
X87676999Y-123636000D01*
G75*
G02*
X87427000Y-123386001I0J249999D01*
G01*
G37*
%TD*%
%TO.C,C9*%
G36*
G01*
X133789000Y-122479750D02*
X133789000Y-123392250D01*
G75*
G02*
X133545250Y-123636000I-243750J0D01*
G01*
X133057750Y-123636000D01*
G75*
G02*
X132814000Y-123392250I0J243750D01*
G01*
X132814000Y-122479750D01*
G75*
G02*
X133057750Y-122236000I243750J0D01*
G01*
X133545250Y-122236000D01*
G75*
G02*
X133789000Y-122479750I0J-243750D01*
G01*
G37*
G36*
G01*
X135664000Y-122479750D02*
X135664000Y-123392250D01*
G75*
G02*
X135420250Y-123636000I-243750J0D01*
G01*
X134932750Y-123636000D01*
G75*
G02*
X134689000Y-123392250I0J243750D01*
G01*
X134689000Y-122479750D01*
G75*
G02*
X134932750Y-122236000I243750J0D01*
G01*
X135420250Y-122236000D01*
G75*
G02*
X135664000Y-122479750I0J-243750D01*
G01*
G37*
%TD*%
%TO.C,C8*%
G36*
G01*
X133408000Y-110668750D02*
X133408000Y-111581250D01*
G75*
G02*
X133164250Y-111825000I-243750J0D01*
G01*
X132676750Y-111825000D01*
G75*
G02*
X132433000Y-111581250I0J243750D01*
G01*
X132433000Y-110668750D01*
G75*
G02*
X132676750Y-110425000I243750J0D01*
G01*
X133164250Y-110425000D01*
G75*
G02*
X133408000Y-110668750I0J-243750D01*
G01*
G37*
G36*
G01*
X135283000Y-110668750D02*
X135283000Y-111581250D01*
G75*
G02*
X135039250Y-111825000I-243750J0D01*
G01*
X134551750Y-111825000D01*
G75*
G02*
X134308000Y-111581250I0J243750D01*
G01*
X134308000Y-110668750D01*
G75*
G02*
X134551750Y-110425000I243750J0D01*
G01*
X135039250Y-110425000D01*
G75*
G02*
X135283000Y-110668750I0J-243750D01*
G01*
G37*
%TD*%
%TO.C,C7*%
G36*
G01*
X130879000Y-123392250D02*
X130879000Y-122479750D01*
G75*
G02*
X131122750Y-122236000I243750J0D01*
G01*
X131610250Y-122236000D01*
G75*
G02*
X131854000Y-122479750I0J-243750D01*
G01*
X131854000Y-123392250D01*
G75*
G02*
X131610250Y-123636000I-243750J0D01*
G01*
X131122750Y-123636000D01*
G75*
G02*
X130879000Y-123392250I0J243750D01*
G01*
G37*
G36*
G01*
X129004000Y-123392250D02*
X129004000Y-122479750D01*
G75*
G02*
X129247750Y-122236000I243750J0D01*
G01*
X129735250Y-122236000D01*
G75*
G02*
X129979000Y-122479750I0J-243750D01*
G01*
X129979000Y-123392250D01*
G75*
G02*
X129735250Y-123636000I-243750J0D01*
G01*
X129247750Y-123636000D01*
G75*
G02*
X129004000Y-123392250I0J243750D01*
G01*
G37*
%TD*%
%TO.C,C6*%
G36*
G01*
X130625000Y-111581250D02*
X130625000Y-110668750D01*
G75*
G02*
X130868750Y-110425000I243750J0D01*
G01*
X131356250Y-110425000D01*
G75*
G02*
X131600000Y-110668750I0J-243750D01*
G01*
X131600000Y-111581250D01*
G75*
G02*
X131356250Y-111825000I-243750J0D01*
G01*
X130868750Y-111825000D01*
G75*
G02*
X130625000Y-111581250I0J243750D01*
G01*
G37*
G36*
G01*
X128750000Y-111581250D02*
X128750000Y-110668750D01*
G75*
G02*
X128993750Y-110425000I243750J0D01*
G01*
X129481250Y-110425000D01*
G75*
G02*
X129725000Y-110668750I0J-243750D01*
G01*
X129725000Y-111581250D01*
G75*
G02*
X129481250Y-111825000I-243750J0D01*
G01*
X128993750Y-111825000D01*
G75*
G02*
X128750000Y-111581250I0J243750D01*
G01*
G37*
%TD*%
%TO.C,C5*%
G36*
G01*
X101651750Y-117798000D02*
X102564250Y-117798000D01*
G75*
G02*
X102808000Y-118041750I0J-243750D01*
G01*
X102808000Y-118529250D01*
G75*
G02*
X102564250Y-118773000I-243750J0D01*
G01*
X101651750Y-118773000D01*
G75*
G02*
X101408000Y-118529250I0J243750D01*
G01*
X101408000Y-118041750D01*
G75*
G02*
X101651750Y-117798000I243750J0D01*
G01*
G37*
G36*
G01*
X101651750Y-115923000D02*
X102564250Y-115923000D01*
G75*
G02*
X102808000Y-116166750I0J-243750D01*
G01*
X102808000Y-116654250D01*
G75*
G02*
X102564250Y-116898000I-243750J0D01*
G01*
X101651750Y-116898000D01*
G75*
G02*
X101408000Y-116654250I0J243750D01*
G01*
X101408000Y-116166750D01*
G75*
G02*
X101651750Y-115923000I243750J0D01*
G01*
G37*
%TD*%
%TO.C,C4*%
G36*
G01*
X105606000Y-109676250D02*
X105606000Y-108763750D01*
G75*
G02*
X105849750Y-108520000I243750J0D01*
G01*
X106337250Y-108520000D01*
G75*
G02*
X106581000Y-108763750I0J-243750D01*
G01*
X106581000Y-109676250D01*
G75*
G02*
X106337250Y-109920000I-243750J0D01*
G01*
X105849750Y-109920000D01*
G75*
G02*
X105606000Y-109676250I0J243750D01*
G01*
G37*
G36*
G01*
X103731000Y-109676250D02*
X103731000Y-108763750D01*
G75*
G02*
X103974750Y-108520000I243750J0D01*
G01*
X104462250Y-108520000D01*
G75*
G02*
X104706000Y-108763750I0J-243750D01*
G01*
X104706000Y-109676250D01*
G75*
G02*
X104462250Y-109920000I-243750J0D01*
G01*
X103974750Y-109920000D01*
G75*
G02*
X103731000Y-109676250I0J243750D01*
G01*
G37*
%TD*%
%TO.C,C3*%
G36*
G01*
X93414000Y-113740250D02*
X93414000Y-112827750D01*
G75*
G02*
X93657750Y-112584000I243750J0D01*
G01*
X94145250Y-112584000D01*
G75*
G02*
X94389000Y-112827750I0J-243750D01*
G01*
X94389000Y-113740250D01*
G75*
G02*
X94145250Y-113984000I-243750J0D01*
G01*
X93657750Y-113984000D01*
G75*
G02*
X93414000Y-113740250I0J243750D01*
G01*
G37*
G36*
G01*
X91539000Y-113740250D02*
X91539000Y-112827750D01*
G75*
G02*
X91782750Y-112584000I243750J0D01*
G01*
X92270250Y-112584000D01*
G75*
G02*
X92514000Y-112827750I0J-243750D01*
G01*
X92514000Y-113740250D01*
G75*
G02*
X92270250Y-113984000I-243750J0D01*
G01*
X91782750Y-113984000D01*
G75*
G02*
X91539000Y-113740250I0J243750D01*
G01*
G37*
%TD*%
%TO.C,C2*%
G36*
G01*
X104706000Y-110795750D02*
X104706000Y-111708250D01*
G75*
G02*
X104462250Y-111952000I-243750J0D01*
G01*
X103974750Y-111952000D01*
G75*
G02*
X103731000Y-111708250I0J243750D01*
G01*
X103731000Y-110795750D01*
G75*
G02*
X103974750Y-110552000I243750J0D01*
G01*
X104462250Y-110552000D01*
G75*
G02*
X104706000Y-110795750I0J-243750D01*
G01*
G37*
G36*
G01*
X106581000Y-110795750D02*
X106581000Y-111708250D01*
G75*
G02*
X106337250Y-111952000I-243750J0D01*
G01*
X105849750Y-111952000D01*
G75*
G02*
X105606000Y-111708250I0J243750D01*
G01*
X105606000Y-110795750D01*
G75*
G02*
X105849750Y-110552000I243750J0D01*
G01*
X106337250Y-110552000D01*
G75*
G02*
X106581000Y-110795750I0J-243750D01*
G01*
G37*
%TD*%
%TO.C,C1*%
G36*
G01*
X108914250Y-110294000D02*
X108001750Y-110294000D01*
G75*
G02*
X107758000Y-110050250I0J243750D01*
G01*
X107758000Y-109562750D01*
G75*
G02*
X108001750Y-109319000I243750J0D01*
G01*
X108914250Y-109319000D01*
G75*
G02*
X109158000Y-109562750I0J-243750D01*
G01*
X109158000Y-110050250D01*
G75*
G02*
X108914250Y-110294000I-243750J0D01*
G01*
G37*
G36*
G01*
X108914250Y-112169000D02*
X108001750Y-112169000D01*
G75*
G02*
X107758000Y-111925250I0J243750D01*
G01*
X107758000Y-111437750D01*
G75*
G02*
X108001750Y-111194000I243750J0D01*
G01*
X108914250Y-111194000D01*
G75*
G02*
X109158000Y-111437750I0J-243750D01*
G01*
X109158000Y-111925250D01*
G75*
G02*
X108914250Y-112169000I-243750J0D01*
G01*
G37*
%TD*%
%TO.C,R8*%
G36*
G01*
X87602000Y-125678250D02*
X87602000Y-124765750D01*
G75*
G02*
X87845750Y-124522000I243750J0D01*
G01*
X88333250Y-124522000D01*
G75*
G02*
X88577000Y-124765750I0J-243750D01*
G01*
X88577000Y-125678250D01*
G75*
G02*
X88333250Y-125922000I-243750J0D01*
G01*
X87845750Y-125922000D01*
G75*
G02*
X87602000Y-125678250I0J243750D01*
G01*
G37*
G36*
G01*
X89477000Y-125678250D02*
X89477000Y-124765750D01*
G75*
G02*
X89720750Y-124522000I243750J0D01*
G01*
X90208250Y-124522000D01*
G75*
G02*
X90452000Y-124765750I0J-243750D01*
G01*
X90452000Y-125678250D01*
G75*
G02*
X90208250Y-125922000I-243750J0D01*
G01*
X89720750Y-125922000D01*
G75*
G02*
X89477000Y-125678250I0J243750D01*
G01*
G37*
%TD*%
%TO.C,U3*%
G36*
G01*
X125939000Y-118468000D02*
X125939000Y-118768000D01*
G75*
G02*
X125789000Y-118918000I-150000J0D01*
G01*
X124489000Y-118918000D01*
G75*
G02*
X124339000Y-118768000I0J150000D01*
G01*
X124339000Y-118468000D01*
G75*
G02*
X124489000Y-118318000I150000J0D01*
G01*
X125789000Y-118318000D01*
G75*
G02*
X125939000Y-118468000I0J-150000D01*
G01*
G37*
G36*
G01*
X125939000Y-117198000D02*
X125939000Y-117498000D01*
G75*
G02*
X125789000Y-117648000I-150000J0D01*
G01*
X124489000Y-117648000D01*
G75*
G02*
X124339000Y-117498000I0J150000D01*
G01*
X124339000Y-117198000D01*
G75*
G02*
X124489000Y-117048000I150000J0D01*
G01*
X125789000Y-117048000D01*
G75*
G02*
X125939000Y-117198000I0J-150000D01*
G01*
G37*
G36*
G01*
X125939000Y-115928000D02*
X125939000Y-116228000D01*
G75*
G02*
X125789000Y-116378000I-150000J0D01*
G01*
X124489000Y-116378000D01*
G75*
G02*
X124339000Y-116228000I0J150000D01*
G01*
X124339000Y-115928000D01*
G75*
G02*
X124489000Y-115778000I150000J0D01*
G01*
X125789000Y-115778000D01*
G75*
G02*
X125939000Y-115928000I0J-150000D01*
G01*
G37*
G36*
G01*
X125939000Y-114658000D02*
X125939000Y-114958000D01*
G75*
G02*
X125789000Y-115108000I-150000J0D01*
G01*
X124489000Y-115108000D01*
G75*
G02*
X124339000Y-114958000I0J150000D01*
G01*
X124339000Y-114658000D01*
G75*
G02*
X124489000Y-114508000I150000J0D01*
G01*
X125789000Y-114508000D01*
G75*
G02*
X125939000Y-114658000I0J-150000D01*
G01*
G37*
G36*
G01*
X118739000Y-114658000D02*
X118739000Y-114958000D01*
G75*
G02*
X118589000Y-115108000I-150000J0D01*
G01*
X117289000Y-115108000D01*
G75*
G02*
X117139000Y-114958000I0J150000D01*
G01*
X117139000Y-114658000D01*
G75*
G02*
X117289000Y-114508000I150000J0D01*
G01*
X118589000Y-114508000D01*
G75*
G02*
X118739000Y-114658000I0J-150000D01*
G01*
G37*
G36*
G01*
X118739000Y-115928000D02*
X118739000Y-116228000D01*
G75*
G02*
X118589000Y-116378000I-150000J0D01*
G01*
X117289000Y-116378000D01*
G75*
G02*
X117139000Y-116228000I0J150000D01*
G01*
X117139000Y-115928000D01*
G75*
G02*
X117289000Y-115778000I150000J0D01*
G01*
X118589000Y-115778000D01*
G75*
G02*
X118739000Y-115928000I0J-150000D01*
G01*
G37*
G36*
G01*
X118739000Y-117198000D02*
X118739000Y-117498000D01*
G75*
G02*
X118589000Y-117648000I-150000J0D01*
G01*
X117289000Y-117648000D01*
G75*
G02*
X117139000Y-117498000I0J150000D01*
G01*
X117139000Y-117198000D01*
G75*
G02*
X117289000Y-117048000I150000J0D01*
G01*
X118589000Y-117048000D01*
G75*
G02*
X118739000Y-117198000I0J-150000D01*
G01*
G37*
G36*
G01*
X118739000Y-118468000D02*
X118739000Y-118768000D01*
G75*
G02*
X118589000Y-118918000I-150000J0D01*
G01*
X117289000Y-118918000D01*
G75*
G02*
X117139000Y-118768000I0J150000D01*
G01*
X117139000Y-118468000D01*
G75*
G02*
X117289000Y-118318000I150000J0D01*
G01*
X118589000Y-118318000D01*
G75*
G02*
X118739000Y-118468000I0J-150000D01*
G01*
G37*
%TD*%
M02*
