G04 #@! TF.GenerationSoftware,KiCad,Pcbnew,(6.0.0)*
G04 #@! TF.CreationDate,2022-07-24T20:20:56-05:00*
G04 #@! TF.ProjectId,DriveByWireInputSTM32QFN28,44726976-6542-4795-9769-7265496e7075,rev?*
G04 #@! TF.SameCoordinates,Original*
G04 #@! TF.FileFunction,Legend,Bot*
G04 #@! TF.FilePolarity,Positive*
%FSLAX46Y46*%
G04 Gerber Fmt 4.6, Leading zero omitted, Abs format (unit mm)*
G04 Created by KiCad (PCBNEW (6.0.0)) date 2022-07-24 20:20:56*
%MOMM*%
%LPD*%
G01*
G04 APERTURE LIST*
G04 #@! TA.AperFunction,Profile*
%ADD10C,0.050000*%
G04 #@! TD*
%ADD11C,0.300000*%
G04 APERTURE END LIST*
D10*
X132588000Y-110680500D02*
G75*
G03*
X136652000Y-114744500I4064000J0D01*
G01*
X172239940Y-86360000D02*
X172250164Y-110667800D01*
X132588000Y-110680500D02*
X132588000Y-86296602D01*
X172239940Y-86360000D02*
G75*
G03*
X171279873Y-85389743I-965162J5095D01*
G01*
X168153080Y-114744500D02*
G75*
G03*
X172250164Y-110667800I22733J4074289D01*
G01*
X171279820Y-85389720D02*
X133489685Y-85389720D01*
X133489685Y-85389720D02*
G75*
G03*
X132588000Y-86296602I0J-901700D01*
G01*
X168153080Y-114744500D02*
X136652000Y-114744500D01*
D11*
X161185714Y-114008571D02*
X161185714Y-112508571D01*
X160828571Y-112508571D01*
X160614285Y-112580000D01*
X160471428Y-112722857D01*
X160400000Y-112865714D01*
X160328571Y-113151428D01*
X160328571Y-113365714D01*
X160400000Y-113651428D01*
X160471428Y-113794285D01*
X160614285Y-113937142D01*
X160828571Y-114008571D01*
X161185714Y-114008571D01*
X159685714Y-114008571D02*
X159685714Y-113008571D01*
X159685714Y-113294285D02*
X159614285Y-113151428D01*
X159542857Y-113080000D01*
X159400000Y-113008571D01*
X159257142Y-113008571D01*
X158757142Y-114008571D02*
X158757142Y-113008571D01*
X158757142Y-112508571D02*
X158828571Y-112580000D01*
X158757142Y-112651428D01*
X158685714Y-112580000D01*
X158757142Y-112508571D01*
X158757142Y-112651428D01*
X158185714Y-113008571D02*
X157828571Y-114008571D01*
X157471428Y-113008571D01*
X156328571Y-113937142D02*
X156471428Y-114008571D01*
X156757142Y-114008571D01*
X156900000Y-113937142D01*
X156971428Y-113794285D01*
X156971428Y-113222857D01*
X156900000Y-113080000D01*
X156757142Y-113008571D01*
X156471428Y-113008571D01*
X156328571Y-113080000D01*
X156257142Y-113222857D01*
X156257142Y-113365714D01*
X156971428Y-113508571D01*
X155614285Y-113437142D02*
X154471428Y-113437142D01*
X153757142Y-114008571D02*
X153757142Y-112508571D01*
X153757142Y-113080000D02*
X153614285Y-113008571D01*
X153328571Y-113008571D01*
X153185714Y-113080000D01*
X153114285Y-113151428D01*
X153042857Y-113294285D01*
X153042857Y-113722857D01*
X153114285Y-113865714D01*
X153185714Y-113937142D01*
X153328571Y-114008571D01*
X153614285Y-114008571D01*
X153757142Y-113937142D01*
X152542857Y-113008571D02*
X152185714Y-114008571D01*
X151828571Y-113008571D02*
X152185714Y-114008571D01*
X152328571Y-114365714D01*
X152400000Y-114437142D01*
X152542857Y-114508571D01*
X151257142Y-113437142D02*
X150114285Y-113437142D01*
X149542857Y-112508571D02*
X149185714Y-114008571D01*
X148900000Y-112937142D01*
X148614285Y-114008571D01*
X148257142Y-112508571D01*
X147685714Y-114008571D02*
X147685714Y-113008571D01*
X147685714Y-112508571D02*
X147757142Y-112580000D01*
X147685714Y-112651428D01*
X147614285Y-112580000D01*
X147685714Y-112508571D01*
X147685714Y-112651428D01*
X146971428Y-114008571D02*
X146971428Y-113008571D01*
X146971428Y-113294285D02*
X146900000Y-113151428D01*
X146828571Y-113080000D01*
X146685714Y-113008571D01*
X146542857Y-113008571D01*
X145471428Y-113937142D02*
X145614285Y-114008571D01*
X145900000Y-114008571D01*
X146042857Y-113937142D01*
X146114285Y-113794285D01*
X146114285Y-113222857D01*
X146042857Y-113080000D01*
X145900000Y-113008571D01*
X145614285Y-113008571D01*
X145471428Y-113080000D01*
X145400000Y-113222857D01*
X145400000Y-113365714D01*
X146114285Y-113508571D01*
X143828571Y-112508571D02*
X143328571Y-114008571D01*
X142828571Y-112508571D01*
X141542857Y-114008571D02*
X142400000Y-114008571D01*
X141971428Y-114008571D02*
X141971428Y-112508571D01*
X142114285Y-112722857D01*
X142257142Y-112865714D01*
X142400000Y-112937142D01*
M02*
