G04 #@! TF.GenerationSoftware,KiCad,Pcbnew,(6.0.0)*
G04 #@! TF.CreationDate,2022-07-24T20:20:56-05:00*
G04 #@! TF.ProjectId,DriveByWireInputSTM32QFN28,44726976-6542-4795-9769-7265496e7075,rev?*
G04 #@! TF.SameCoordinates,Original*
G04 #@! TF.FileFunction,Legend,Top*
G04 #@! TF.FilePolarity,Positive*
%FSLAX46Y46*%
G04 Gerber Fmt 4.6, Leading zero omitted, Abs format (unit mm)*
G04 Created by KiCad (PCBNEW (6.0.0)) date 2022-07-24 20:20:56*
%MOMM*%
%LPD*%
G01*
G04 APERTURE LIST*
%ADD10C,0.130000*%
G04 #@! TA.AperFunction,Profile*
%ADD11C,0.050000*%
G04 #@! TD*
%ADD12C,0.110000*%
%ADD13C,0.300000*%
%ADD14C,0.127000*%
%ADD15C,0.114300*%
%ADD16C,0.150000*%
%ADD17C,0.120132*%
%ADD18C,0.120000*%
%ADD19C,0.200000*%
%ADD20C,0.100000*%
G04 APERTURE END LIST*
D10*
X160542142Y-100583571D02*
X160649285Y-100619285D01*
X160827857Y-100619285D01*
X160899285Y-100583571D01*
X160935000Y-100547857D01*
X160970714Y-100476428D01*
X160970714Y-100405000D01*
X160935000Y-100333571D01*
X160899285Y-100297857D01*
X160827857Y-100262142D01*
X160685000Y-100226428D01*
X160613571Y-100190714D01*
X160577857Y-100155000D01*
X160542142Y-100083571D01*
X160542142Y-100012142D01*
X160577857Y-99940714D01*
X160613571Y-99905000D01*
X160685000Y-99869285D01*
X160863571Y-99869285D01*
X160970714Y-99905000D01*
X161220714Y-99869285D02*
X161399285Y-100619285D01*
X161542142Y-100083571D01*
X161685000Y-100619285D01*
X161863571Y-99869285D01*
X162149285Y-100619285D02*
X162149285Y-99869285D01*
X162327857Y-99869285D01*
X162435000Y-99905000D01*
X162506428Y-99976428D01*
X162542142Y-100047857D01*
X162577857Y-100190714D01*
X162577857Y-100297857D01*
X162542142Y-100440714D01*
X162506428Y-100512142D01*
X162435000Y-100583571D01*
X162327857Y-100619285D01*
X162149285Y-100619285D01*
D11*
X132588000Y-110680500D02*
G75*
G03*
X136652000Y-114744500I4064000J0D01*
G01*
X172239940Y-86360000D02*
X172250164Y-110667800D01*
X132588000Y-110680500D02*
X132588000Y-86296602D01*
X172239940Y-86360000D02*
G75*
G03*
X171279873Y-85389743I-965162J5095D01*
G01*
X168153080Y-114744500D02*
G75*
G03*
X172250164Y-110667800I22733J4074289D01*
G01*
X171279820Y-85389720D02*
X133489685Y-85389720D01*
X133489685Y-85389720D02*
G75*
G03*
X132588000Y-86296602I0J-901700D01*
G01*
X168153080Y-114744500D02*
X136652000Y-114744500D01*
D12*
X133380000Y-107052857D02*
X133465714Y-107081428D01*
X133608571Y-107081428D01*
X133665714Y-107052857D01*
X133694285Y-107024285D01*
X133722857Y-106967142D01*
X133722857Y-106910000D01*
X133694285Y-106852857D01*
X133665714Y-106824285D01*
X133608571Y-106795714D01*
X133494285Y-106767142D01*
X133437142Y-106738571D01*
X133408571Y-106710000D01*
X133380000Y-106652857D01*
X133380000Y-106595714D01*
X133408571Y-106538571D01*
X133437142Y-106510000D01*
X133494285Y-106481428D01*
X133637142Y-106481428D01*
X133722857Y-106510000D01*
X133894285Y-106681428D02*
X134122857Y-106681428D01*
X133980000Y-106481428D02*
X133980000Y-106995714D01*
X134008571Y-107052857D01*
X134065714Y-107081428D01*
X134122857Y-107081428D01*
X134551428Y-107052857D02*
X134494285Y-107081428D01*
X134380000Y-107081428D01*
X134322857Y-107052857D01*
X134294285Y-106995714D01*
X134294285Y-106767142D01*
X134322857Y-106710000D01*
X134380000Y-106681428D01*
X134494285Y-106681428D01*
X134551428Y-106710000D01*
X134580000Y-106767142D01*
X134580000Y-106824285D01*
X134294285Y-106881428D01*
X135065714Y-107052857D02*
X135008571Y-107081428D01*
X134894285Y-107081428D01*
X134837142Y-107052857D01*
X134808571Y-106995714D01*
X134808571Y-106767142D01*
X134837142Y-106710000D01*
X134894285Y-106681428D01*
X135008571Y-106681428D01*
X135065714Y-106710000D01*
X135094285Y-106767142D01*
X135094285Y-106824285D01*
X134808571Y-106881428D01*
X135351428Y-107081428D02*
X135351428Y-106681428D01*
X135351428Y-106795714D02*
X135380000Y-106738571D01*
X135408571Y-106710000D01*
X135465714Y-106681428D01*
X135522857Y-106681428D01*
X135722857Y-107081428D02*
X135722857Y-106681428D01*
X135722857Y-106481428D02*
X135694285Y-106510000D01*
X135722857Y-106538571D01*
X135751428Y-106510000D01*
X135722857Y-106481428D01*
X135722857Y-106538571D01*
X136008571Y-106681428D02*
X136008571Y-107081428D01*
X136008571Y-106738571D02*
X136037142Y-106710000D01*
X136094285Y-106681428D01*
X136180000Y-106681428D01*
X136237142Y-106710000D01*
X136265714Y-106767142D01*
X136265714Y-107081428D01*
X136808571Y-106681428D02*
X136808571Y-107167142D01*
X136780000Y-107224285D01*
X136751428Y-107252857D01*
X136694285Y-107281428D01*
X136608571Y-107281428D01*
X136551428Y-107252857D01*
X136808571Y-107052857D02*
X136751428Y-107081428D01*
X136637142Y-107081428D01*
X136580000Y-107052857D01*
X136551428Y-107024285D01*
X136522857Y-106967142D01*
X136522857Y-106795714D01*
X136551428Y-106738571D01*
X136580000Y-106710000D01*
X136637142Y-106681428D01*
X136751428Y-106681428D01*
X136808571Y-106710000D01*
X137522857Y-107052857D02*
X137608571Y-107081428D01*
X137751428Y-107081428D01*
X137808571Y-107052857D01*
X137837142Y-107024285D01*
X137865714Y-106967142D01*
X137865714Y-106910000D01*
X137837142Y-106852857D01*
X137808571Y-106824285D01*
X137751428Y-106795714D01*
X137637142Y-106767142D01*
X137580000Y-106738571D01*
X137551428Y-106710000D01*
X137522857Y-106652857D01*
X137522857Y-106595714D01*
X137551428Y-106538571D01*
X137580000Y-106510000D01*
X137637142Y-106481428D01*
X137780000Y-106481428D01*
X137865714Y-106510000D01*
X138122857Y-107081428D02*
X138122857Y-106681428D01*
X138122857Y-106481428D02*
X138094285Y-106510000D01*
X138122857Y-106538571D01*
X138151428Y-106510000D01*
X138122857Y-106481428D01*
X138122857Y-106538571D01*
X138665714Y-106681428D02*
X138665714Y-107167142D01*
X138637142Y-107224285D01*
X138608571Y-107252857D01*
X138551428Y-107281428D01*
X138465714Y-107281428D01*
X138408571Y-107252857D01*
X138665714Y-107052857D02*
X138608571Y-107081428D01*
X138494285Y-107081428D01*
X138437142Y-107052857D01*
X138408571Y-107024285D01*
X138380000Y-106967142D01*
X138380000Y-106795714D01*
X138408571Y-106738571D01*
X138437142Y-106710000D01*
X138494285Y-106681428D01*
X138608571Y-106681428D01*
X138665714Y-106710000D01*
X138951428Y-106681428D02*
X138951428Y-107081428D01*
X138951428Y-106738571D02*
X138980000Y-106710000D01*
X139037142Y-106681428D01*
X139122857Y-106681428D01*
X139180000Y-106710000D01*
X139208571Y-106767142D01*
X139208571Y-107081428D01*
X139751428Y-107081428D02*
X139751428Y-106767142D01*
X139722857Y-106710000D01*
X139665714Y-106681428D01*
X139551428Y-106681428D01*
X139494285Y-106710000D01*
X139751428Y-107052857D02*
X139694285Y-107081428D01*
X139551428Y-107081428D01*
X139494285Y-107052857D01*
X139465714Y-106995714D01*
X139465714Y-106938571D01*
X139494285Y-106881428D01*
X139551428Y-106852857D01*
X139694285Y-106852857D01*
X139751428Y-106824285D01*
X140122857Y-107081428D02*
X140065714Y-107052857D01*
X140037142Y-106995714D01*
X140037142Y-106481428D01*
X140322857Y-107052857D02*
X140380000Y-107081428D01*
X140494285Y-107081428D01*
X140551428Y-107052857D01*
X140580000Y-106995714D01*
X140580000Y-106967142D01*
X140551428Y-106910000D01*
X140494285Y-106881428D01*
X140408571Y-106881428D01*
X140351428Y-106852857D01*
X140322857Y-106795714D01*
X140322857Y-106767142D01*
X140351428Y-106710000D01*
X140408571Y-106681428D01*
X140494285Y-106681428D01*
X140551428Y-106710000D01*
D10*
X155030000Y-86503571D02*
X155137142Y-86539285D01*
X155315714Y-86539285D01*
X155387142Y-86503571D01*
X155422857Y-86467857D01*
X155458571Y-86396428D01*
X155458571Y-86325000D01*
X155422857Y-86253571D01*
X155387142Y-86217857D01*
X155315714Y-86182142D01*
X155172857Y-86146428D01*
X155101428Y-86110714D01*
X155065714Y-86075000D01*
X155030000Y-86003571D01*
X155030000Y-85932142D01*
X155065714Y-85860714D01*
X155101428Y-85825000D01*
X155172857Y-85789285D01*
X155351428Y-85789285D01*
X155458571Y-85825000D01*
X155887142Y-86539285D02*
X155815714Y-86503571D01*
X155780000Y-86467857D01*
X155744285Y-86396428D01*
X155744285Y-86182142D01*
X155780000Y-86110714D01*
X155815714Y-86075000D01*
X155887142Y-86039285D01*
X155994285Y-86039285D01*
X156065714Y-86075000D01*
X156101428Y-86110714D01*
X156137142Y-86182142D01*
X156137142Y-86396428D01*
X156101428Y-86467857D01*
X156065714Y-86503571D01*
X155994285Y-86539285D01*
X155887142Y-86539285D01*
X156780000Y-86039285D02*
X156780000Y-86539285D01*
X156458571Y-86039285D02*
X156458571Y-86432142D01*
X156494285Y-86503571D01*
X156565714Y-86539285D01*
X156672857Y-86539285D01*
X156744285Y-86503571D01*
X156780000Y-86467857D01*
X157137142Y-86039285D02*
X157137142Y-86539285D01*
X157137142Y-86110714D02*
X157172857Y-86075000D01*
X157244285Y-86039285D01*
X157351428Y-86039285D01*
X157422857Y-86075000D01*
X157458571Y-86146428D01*
X157458571Y-86539285D01*
X158137142Y-86539285D02*
X158137142Y-85789285D01*
X158137142Y-86503571D02*
X158065714Y-86539285D01*
X157922857Y-86539285D01*
X157851428Y-86503571D01*
X157815714Y-86467857D01*
X157780000Y-86396428D01*
X157780000Y-86182142D01*
X157815714Y-86110714D01*
X157851428Y-86075000D01*
X157922857Y-86039285D01*
X158065714Y-86039285D01*
X158137142Y-86075000D01*
X159601428Y-85860714D02*
X159637142Y-85825000D01*
X159708571Y-85789285D01*
X159887142Y-85789285D01*
X159958571Y-85825000D01*
X159994285Y-85860714D01*
X160030000Y-85932142D01*
X160030000Y-86003571D01*
X159994285Y-86110714D01*
X159565714Y-86539285D01*
X160030000Y-86539285D01*
X163857142Y-86619285D02*
X163607142Y-86262142D01*
X163428571Y-86619285D02*
X163428571Y-85869285D01*
X163714285Y-85869285D01*
X163785714Y-85905000D01*
X163821428Y-85940714D01*
X163857142Y-86012142D01*
X163857142Y-86119285D01*
X163821428Y-86190714D01*
X163785714Y-86226428D01*
X163714285Y-86262142D01*
X163428571Y-86262142D01*
X164464285Y-86583571D02*
X164392857Y-86619285D01*
X164250000Y-86619285D01*
X164178571Y-86583571D01*
X164142857Y-86512142D01*
X164142857Y-86226428D01*
X164178571Y-86155000D01*
X164250000Y-86119285D01*
X164392857Y-86119285D01*
X164464285Y-86155000D01*
X164500000Y-86226428D01*
X164500000Y-86297857D01*
X164142857Y-86369285D01*
X164750000Y-86119285D02*
X164928571Y-86619285D01*
X165107142Y-86119285D01*
X165678571Y-86583571D02*
X165607142Y-86619285D01*
X165464285Y-86619285D01*
X165392857Y-86583571D01*
X165357142Y-86512142D01*
X165357142Y-86226428D01*
X165392857Y-86155000D01*
X165464285Y-86119285D01*
X165607142Y-86119285D01*
X165678571Y-86155000D01*
X165714285Y-86226428D01*
X165714285Y-86297857D01*
X165357142Y-86369285D01*
X166035714Y-86619285D02*
X166035714Y-86119285D01*
X166035714Y-86262142D02*
X166071428Y-86190714D01*
X166107142Y-86155000D01*
X166178571Y-86119285D01*
X166250000Y-86119285D01*
X166464285Y-86583571D02*
X166535714Y-86619285D01*
X166678571Y-86619285D01*
X166750000Y-86583571D01*
X166785714Y-86512142D01*
X166785714Y-86476428D01*
X166750000Y-86405000D01*
X166678571Y-86369285D01*
X166571428Y-86369285D01*
X166500000Y-86333571D01*
X166464285Y-86262142D01*
X166464285Y-86226428D01*
X166500000Y-86155000D01*
X166571428Y-86119285D01*
X166678571Y-86119285D01*
X166750000Y-86155000D01*
X167392857Y-86583571D02*
X167321428Y-86619285D01*
X167178571Y-86619285D01*
X167107142Y-86583571D01*
X167071428Y-86512142D01*
X167071428Y-86226428D01*
X167107142Y-86155000D01*
X167178571Y-86119285D01*
X167321428Y-86119285D01*
X167392857Y-86155000D01*
X167428571Y-86226428D01*
X167428571Y-86297857D01*
X167071428Y-86369285D01*
X168285714Y-86583571D02*
X168392857Y-86619285D01*
X168571428Y-86619285D01*
X168642857Y-86583571D01*
X168678571Y-86547857D01*
X168714285Y-86476428D01*
X168714285Y-86405000D01*
X168678571Y-86333571D01*
X168642857Y-86297857D01*
X168571428Y-86262142D01*
X168428571Y-86226428D01*
X168357142Y-86190714D01*
X168321428Y-86155000D01*
X168285714Y-86083571D01*
X168285714Y-86012142D01*
X168321428Y-85940714D01*
X168357142Y-85905000D01*
X168428571Y-85869285D01*
X168607142Y-85869285D01*
X168714285Y-85905000D01*
X168964285Y-86119285D02*
X169107142Y-86619285D01*
X169250000Y-86262142D01*
X169392857Y-86619285D01*
X169535714Y-86119285D01*
X169821428Y-86619285D02*
X169821428Y-86119285D01*
X169821428Y-85869285D02*
X169785714Y-85905000D01*
X169821428Y-85940714D01*
X169857142Y-85905000D01*
X169821428Y-85869285D01*
X169821428Y-85940714D01*
X170071428Y-86119285D02*
X170357142Y-86119285D01*
X170178571Y-85869285D02*
X170178571Y-86512142D01*
X170214285Y-86583571D01*
X170285714Y-86619285D01*
X170357142Y-86619285D01*
X170928571Y-86583571D02*
X170857142Y-86619285D01*
X170714285Y-86619285D01*
X170642857Y-86583571D01*
X170607142Y-86547857D01*
X170571428Y-86476428D01*
X170571428Y-86262142D01*
X170607142Y-86190714D01*
X170642857Y-86155000D01*
X170714285Y-86119285D01*
X170857142Y-86119285D01*
X170928571Y-86155000D01*
X171250000Y-86619285D02*
X171250000Y-85869285D01*
X171571428Y-86619285D02*
X171571428Y-86226428D01*
X171535714Y-86155000D01*
X171464285Y-86119285D01*
X171357142Y-86119285D01*
X171285714Y-86155000D01*
X171250000Y-86190714D01*
D12*
X135060000Y-93727000D02*
X135002857Y-93698428D01*
X134917142Y-93698428D01*
X134831428Y-93727000D01*
X134774285Y-93784142D01*
X134745714Y-93841285D01*
X134717142Y-93955571D01*
X134717142Y-94041285D01*
X134745714Y-94155571D01*
X134774285Y-94212714D01*
X134831428Y-94269857D01*
X134917142Y-94298428D01*
X134974285Y-94298428D01*
X135060000Y-94269857D01*
X135088571Y-94241285D01*
X135088571Y-94041285D01*
X134974285Y-94041285D01*
X135431428Y-94298428D02*
X135374285Y-94269857D01*
X135345714Y-94241285D01*
X135317142Y-94184142D01*
X135317142Y-94012714D01*
X135345714Y-93955571D01*
X135374285Y-93927000D01*
X135431428Y-93898428D01*
X135517142Y-93898428D01*
X135574285Y-93927000D01*
X135602857Y-93955571D01*
X135631428Y-94012714D01*
X135631428Y-94184142D01*
X135602857Y-94241285D01*
X135574285Y-94269857D01*
X135517142Y-94298428D01*
X135431428Y-94298428D01*
X136317142Y-93669857D02*
X135802857Y-94441285D01*
X136488571Y-94269857D02*
X136574285Y-94298428D01*
X136717142Y-94298428D01*
X136774285Y-94269857D01*
X136802857Y-94241285D01*
X136831428Y-94184142D01*
X136831428Y-94127000D01*
X136802857Y-94069857D01*
X136774285Y-94041285D01*
X136717142Y-94012714D01*
X136602857Y-93984142D01*
X136545714Y-93955571D01*
X136517142Y-93927000D01*
X136488571Y-93869857D01*
X136488571Y-93812714D01*
X136517142Y-93755571D01*
X136545714Y-93727000D01*
X136602857Y-93698428D01*
X136745714Y-93698428D01*
X136831428Y-93727000D01*
X137174285Y-94298428D02*
X137117142Y-94269857D01*
X137088571Y-94241285D01*
X137060000Y-94184142D01*
X137060000Y-94012714D01*
X137088571Y-93955571D01*
X137117142Y-93927000D01*
X137174285Y-93898428D01*
X137260000Y-93898428D01*
X137317142Y-93927000D01*
X137345714Y-93955571D01*
X137374285Y-94012714D01*
X137374285Y-94184142D01*
X137345714Y-94241285D01*
X137317142Y-94269857D01*
X137260000Y-94298428D01*
X137174285Y-94298428D01*
X137888571Y-93898428D02*
X137888571Y-94298428D01*
X137631428Y-93898428D02*
X137631428Y-94212714D01*
X137660000Y-94269857D01*
X137717142Y-94298428D01*
X137802857Y-94298428D01*
X137860000Y-94269857D01*
X137888571Y-94241285D01*
X138174285Y-93898428D02*
X138174285Y-94298428D01*
X138174285Y-93955571D02*
X138202857Y-93927000D01*
X138260000Y-93898428D01*
X138345714Y-93898428D01*
X138402857Y-93927000D01*
X138431428Y-93984142D01*
X138431428Y-94298428D01*
X138974285Y-94298428D02*
X138974285Y-93698428D01*
X138974285Y-94269857D02*
X138917142Y-94298428D01*
X138802857Y-94298428D01*
X138745714Y-94269857D01*
X138717142Y-94241285D01*
X138688571Y-94184142D01*
X138688571Y-94012714D01*
X138717142Y-93955571D01*
X138745714Y-93927000D01*
X138802857Y-93898428D01*
X138917142Y-93898428D01*
X138974285Y-93927000D01*
X135331428Y-95235857D02*
X135417142Y-95264428D01*
X135560000Y-95264428D01*
X135617142Y-95235857D01*
X135645714Y-95207285D01*
X135674285Y-95150142D01*
X135674285Y-95093000D01*
X135645714Y-95035857D01*
X135617142Y-95007285D01*
X135560000Y-94978714D01*
X135445714Y-94950142D01*
X135388571Y-94921571D01*
X135360000Y-94893000D01*
X135331428Y-94835857D01*
X135331428Y-94778714D01*
X135360000Y-94721571D01*
X135388571Y-94693000D01*
X135445714Y-94664428D01*
X135588571Y-94664428D01*
X135674285Y-94693000D01*
X135931428Y-95264428D02*
X135931428Y-94864428D01*
X135931428Y-94664428D02*
X135902857Y-94693000D01*
X135931428Y-94721571D01*
X135960000Y-94693000D01*
X135931428Y-94664428D01*
X135931428Y-94721571D01*
X136474285Y-94864428D02*
X136474285Y-95350142D01*
X136445714Y-95407285D01*
X136417142Y-95435857D01*
X136360000Y-95464428D01*
X136274285Y-95464428D01*
X136217142Y-95435857D01*
X136474285Y-95235857D02*
X136417142Y-95264428D01*
X136302857Y-95264428D01*
X136245714Y-95235857D01*
X136217142Y-95207285D01*
X136188571Y-95150142D01*
X136188571Y-94978714D01*
X136217142Y-94921571D01*
X136245714Y-94893000D01*
X136302857Y-94864428D01*
X136417142Y-94864428D01*
X136474285Y-94893000D01*
X136760000Y-94864428D02*
X136760000Y-95264428D01*
X136760000Y-94921571D02*
X136788571Y-94893000D01*
X136845714Y-94864428D01*
X136931428Y-94864428D01*
X136988571Y-94893000D01*
X137017142Y-94950142D01*
X137017142Y-95264428D01*
X137560000Y-95264428D02*
X137560000Y-94950142D01*
X137531428Y-94893000D01*
X137474285Y-94864428D01*
X137360000Y-94864428D01*
X137302857Y-94893000D01*
X137560000Y-95235857D02*
X137502857Y-95264428D01*
X137360000Y-95264428D01*
X137302857Y-95235857D01*
X137274285Y-95178714D01*
X137274285Y-95121571D01*
X137302857Y-95064428D01*
X137360000Y-95035857D01*
X137502857Y-95035857D01*
X137560000Y-95007285D01*
X137931428Y-95264428D02*
X137874285Y-95235857D01*
X137845714Y-95178714D01*
X137845714Y-94664428D01*
X138131428Y-95235857D02*
X138188571Y-95264428D01*
X138302857Y-95264428D01*
X138360000Y-95235857D01*
X138388571Y-95178714D01*
X138388571Y-95150142D01*
X138360000Y-95093000D01*
X138302857Y-95064428D01*
X138217142Y-95064428D01*
X138160000Y-95035857D01*
X138131428Y-94978714D01*
X138131428Y-94950142D01*
X138160000Y-94893000D01*
X138217142Y-94864428D01*
X138302857Y-94864428D01*
X138360000Y-94893000D01*
D13*
X162085714Y-112208571D02*
X162585714Y-113708571D01*
X163085714Y-112208571D01*
X164371428Y-113708571D02*
X163514285Y-113708571D01*
X163942857Y-113708571D02*
X163942857Y-112208571D01*
X163800000Y-112422857D01*
X163657142Y-112565714D01*
X163514285Y-112637142D01*
D14*
X140603000Y-91192142D02*
X140566714Y-91228428D01*
X140457857Y-91264714D01*
X140385285Y-91264714D01*
X140276428Y-91228428D01*
X140203857Y-91155857D01*
X140167571Y-91083285D01*
X140131285Y-90938142D01*
X140131285Y-90829285D01*
X140167571Y-90684142D01*
X140203857Y-90611571D01*
X140276428Y-90539000D01*
X140385285Y-90502714D01*
X140457857Y-90502714D01*
X140566714Y-90539000D01*
X140603000Y-90575285D01*
X141328714Y-91264714D02*
X140893285Y-91264714D01*
X141111000Y-91264714D02*
X141111000Y-90502714D01*
X141038428Y-90611571D01*
X140965857Y-90684142D01*
X140893285Y-90720428D01*
D15*
X141757261Y-96057261D02*
X141394404Y-96057261D01*
X141575833Y-96057261D02*
X141575833Y-95422261D01*
X141515357Y-95512976D01*
X141454880Y-95573452D01*
X141394404Y-95603690D01*
X142150357Y-95422261D02*
X142210833Y-95422261D01*
X142271309Y-95452500D01*
X142301547Y-95482738D01*
X142331785Y-95543214D01*
X142362023Y-95664166D01*
X142362023Y-95815357D01*
X142331785Y-95936309D01*
X142301547Y-95996785D01*
X142271309Y-96027023D01*
X142210833Y-96057261D01*
X142150357Y-96057261D01*
X142089880Y-96027023D01*
X142059642Y-95996785D01*
X142029404Y-95936309D01*
X141999166Y-95815357D01*
X141999166Y-95664166D01*
X142029404Y-95543214D01*
X142059642Y-95482738D01*
X142089880Y-95452500D01*
X142150357Y-95422261D01*
X142755119Y-95422261D02*
X142815595Y-95422261D01*
X142876071Y-95452500D01*
X142906309Y-95482738D01*
X142936547Y-95543214D01*
X142966785Y-95664166D01*
X142966785Y-95815357D01*
X142936547Y-95936309D01*
X142906309Y-95996785D01*
X142876071Y-96027023D01*
X142815595Y-96057261D01*
X142755119Y-96057261D01*
X142694642Y-96027023D01*
X142664404Y-95996785D01*
X142634166Y-95936309D01*
X142603928Y-95815357D01*
X142603928Y-95664166D01*
X142634166Y-95543214D01*
X142664404Y-95482738D01*
X142694642Y-95452500D01*
X142755119Y-95422261D01*
X143238928Y-95633928D02*
X143238928Y-96057261D01*
X143238928Y-95694404D02*
X143269166Y-95664166D01*
X143329642Y-95633928D01*
X143420357Y-95633928D01*
X143480833Y-95664166D01*
X143511071Y-95724642D01*
X143511071Y-96057261D01*
X144025119Y-95724642D02*
X143813452Y-95724642D01*
X143813452Y-96057261D02*
X143813452Y-95422261D01*
X144115833Y-95422261D01*
D14*
X142876040Y-91272062D02*
X142839754Y-91308348D01*
X142730897Y-91344634D01*
X142658325Y-91344634D01*
X142549468Y-91308348D01*
X142476897Y-91235777D01*
X142440611Y-91163205D01*
X142404325Y-91018062D01*
X142404325Y-90909205D01*
X142440611Y-90764062D01*
X142476897Y-90691491D01*
X142549468Y-90618920D01*
X142658325Y-90582634D01*
X142730897Y-90582634D01*
X142839754Y-90618920D01*
X142876040Y-90655205D01*
X143166325Y-90655205D02*
X143202611Y-90618920D01*
X143275182Y-90582634D01*
X143456611Y-90582634D01*
X143529182Y-90618920D01*
X143565468Y-90655205D01*
X143601754Y-90727777D01*
X143601754Y-90800348D01*
X143565468Y-90909205D01*
X143130040Y-91344634D01*
X143601754Y-91344634D01*
X139893000Y-86872142D02*
X139856714Y-86908428D01*
X139747857Y-86944714D01*
X139675285Y-86944714D01*
X139566428Y-86908428D01*
X139493857Y-86835857D01*
X139457571Y-86763285D01*
X139421285Y-86618142D01*
X139421285Y-86509285D01*
X139457571Y-86364142D01*
X139493857Y-86291571D01*
X139566428Y-86219000D01*
X139675285Y-86182714D01*
X139747857Y-86182714D01*
X139856714Y-86219000D01*
X139893000Y-86255285D01*
X140147000Y-86182714D02*
X140618714Y-86182714D01*
X140364714Y-86473000D01*
X140473571Y-86473000D01*
X140546142Y-86509285D01*
X140582428Y-86545571D01*
X140618714Y-86618142D01*
X140618714Y-86799571D01*
X140582428Y-86872142D01*
X140546142Y-86908428D01*
X140473571Y-86944714D01*
X140255857Y-86944714D01*
X140183285Y-86908428D01*
X140147000Y-86872142D01*
X144184714Y-88996428D02*
X144184714Y-89431857D01*
X144184714Y-89214142D02*
X143422714Y-89214142D01*
X143531571Y-89286714D01*
X143604142Y-89359285D01*
X143640428Y-89431857D01*
X143422714Y-88524714D02*
X143422714Y-88452142D01*
X143459000Y-88379571D01*
X143495285Y-88343285D01*
X143567857Y-88307000D01*
X143713000Y-88270714D01*
X143894428Y-88270714D01*
X144039571Y-88307000D01*
X144112142Y-88343285D01*
X144148428Y-88379571D01*
X144184714Y-88452142D01*
X144184714Y-88524714D01*
X144148428Y-88597285D01*
X144112142Y-88633571D01*
X144039571Y-88669857D01*
X143894428Y-88706142D01*
X143713000Y-88706142D01*
X143567857Y-88669857D01*
X143495285Y-88633571D01*
X143459000Y-88597285D01*
X143422714Y-88524714D01*
X143676714Y-87617571D02*
X144184714Y-87617571D01*
X143676714Y-87944142D02*
X144075857Y-87944142D01*
X144148428Y-87907857D01*
X144184714Y-87835285D01*
X144184714Y-87726428D01*
X144148428Y-87653857D01*
X144112142Y-87617571D01*
X143785571Y-87000714D02*
X143785571Y-87254714D01*
X144184714Y-87254714D02*
X143422714Y-87254714D01*
X143422714Y-86891857D01*
D16*
X137646946Y-96842120D02*
X137646946Y-97556406D01*
X137599327Y-97699263D01*
X137504089Y-97794501D01*
X137361232Y-97842120D01*
X137265994Y-97842120D01*
X138075518Y-96937359D02*
X138123137Y-96889740D01*
X138218375Y-96842120D01*
X138456470Y-96842120D01*
X138551708Y-96889740D01*
X138599327Y-96937359D01*
X138646946Y-97032597D01*
X138646946Y-97127835D01*
X138599327Y-97270692D01*
X138027899Y-97842120D01*
X138646946Y-97842120D01*
X137433586Y-102442820D02*
X137433586Y-103157106D01*
X137385967Y-103299963D01*
X137290729Y-103395201D01*
X137147872Y-103442820D01*
X137052634Y-103442820D01*
X137814539Y-102442820D02*
X138433586Y-102442820D01*
X138100253Y-102823773D01*
X138243110Y-102823773D01*
X138338348Y-102871392D01*
X138385967Y-102919011D01*
X138433586Y-103014249D01*
X138433586Y-103252344D01*
X138385967Y-103347582D01*
X138338348Y-103395201D01*
X138243110Y-103442820D01*
X137957396Y-103442820D01*
X137862158Y-103395201D01*
X137814539Y-103347582D01*
X151673786Y-108132046D02*
X151797821Y-108835480D01*
X151775732Y-108984436D01*
X151698479Y-109094765D01*
X151566061Y-109166467D01*
X151472270Y-109183005D01*
X152832242Y-108943205D02*
X152269495Y-109042433D01*
X152550868Y-108992819D02*
X152377220Y-108008011D01*
X152308236Y-108165236D01*
X152230983Y-108275565D01*
X152145460Y-108338999D01*
X150303000Y-86550202D02*
X150266714Y-86586488D01*
X150157857Y-86622774D01*
X150085285Y-86622774D01*
X149976428Y-86586488D01*
X149903857Y-86513917D01*
X149867571Y-86441345D01*
X149831285Y-86296202D01*
X149831285Y-86187345D01*
X149867571Y-86042202D01*
X149903857Y-85969631D01*
X149976428Y-85897060D01*
X150085285Y-85860774D01*
X150157857Y-85860774D01*
X150266714Y-85897060D01*
X150303000Y-85933345D01*
X150956142Y-86114774D02*
X150956142Y-86622774D01*
X150774714Y-85824488D02*
X150593285Y-86368774D01*
X151065000Y-86368774D01*
X152532394Y-88894985D02*
X152532394Y-89330414D01*
X152532394Y-89112700D02*
X151770394Y-89112700D01*
X151879251Y-89185271D01*
X151951822Y-89257842D01*
X151988108Y-89330414D01*
X151770394Y-88423271D02*
X151770394Y-88350700D01*
X151806680Y-88278128D01*
X151842965Y-88241842D01*
X151915537Y-88205557D01*
X152060680Y-88169271D01*
X152242108Y-88169271D01*
X152387251Y-88205557D01*
X152459822Y-88241842D01*
X152496108Y-88278128D01*
X152532394Y-88350700D01*
X152532394Y-88423271D01*
X152496108Y-88495842D01*
X152459822Y-88532128D01*
X152387251Y-88568414D01*
X152242108Y-88604700D01*
X152060680Y-88604700D01*
X151915537Y-88568414D01*
X151842965Y-88532128D01*
X151806680Y-88495842D01*
X151770394Y-88423271D01*
X151770394Y-87697557D02*
X151770394Y-87624985D01*
X151806680Y-87552414D01*
X151842965Y-87516128D01*
X151915537Y-87479842D01*
X152060680Y-87443557D01*
X152242108Y-87443557D01*
X152387251Y-87479842D01*
X152459822Y-87516128D01*
X152496108Y-87552414D01*
X152532394Y-87624985D01*
X152532394Y-87697557D01*
X152496108Y-87770128D01*
X152459822Y-87806414D01*
X152387251Y-87842700D01*
X152242108Y-87878985D01*
X152060680Y-87878985D01*
X151915537Y-87842700D01*
X151842965Y-87806414D01*
X151806680Y-87770128D01*
X151770394Y-87697557D01*
X152024394Y-87116985D02*
X152532394Y-87116985D01*
X152096965Y-87116985D02*
X152060680Y-87080700D01*
X152024394Y-87008128D01*
X152024394Y-86899271D01*
X152060680Y-86826700D01*
X152133251Y-86790414D01*
X152532394Y-86790414D01*
X152133251Y-86173557D02*
X152133251Y-86427557D01*
X152532394Y-86427557D02*
X151770394Y-86427557D01*
X151770394Y-86064700D01*
D17*
X146447057Y-88169078D02*
X146447057Y-88397901D01*
X146286881Y-87917374D02*
X146447057Y-88169078D01*
X146607233Y-87917374D01*
X147019113Y-88397901D02*
X146744526Y-88397901D01*
X146881820Y-88397901D02*
X146881820Y-87917374D01*
X146836055Y-87986020D01*
X146790291Y-88031785D01*
X146744526Y-88054667D01*
D16*
X146513415Y-92283640D02*
X146513415Y-93093164D01*
X146561034Y-93188402D01*
X146608653Y-93236021D01*
X146703891Y-93283640D01*
X146894367Y-93283640D01*
X146989605Y-93236021D01*
X147037224Y-93188402D01*
X147084843Y-93093164D01*
X147084843Y-92283640D01*
X148084843Y-93283640D02*
X147513415Y-93283640D01*
X147799129Y-93283640D02*
X147799129Y-92283640D01*
X147703891Y-92426498D01*
X147608653Y-92521736D01*
X147513415Y-92569355D01*
X144295646Y-90151310D02*
X144295646Y-90389406D01*
X144057550Y-90294168D02*
X144295646Y-90389406D01*
X144533741Y-90294168D01*
X144152788Y-90579882D02*
X144295646Y-90389406D01*
X144438503Y-90579882D01*
X144295646Y-90151310D02*
X144295646Y-90389406D01*
X144057550Y-90294168D02*
X144295646Y-90389406D01*
X144533741Y-90294168D01*
X144152788Y-90579882D02*
X144295646Y-90389406D01*
X144438503Y-90579882D01*
X162656666Y-93912380D02*
X162656666Y-94626666D01*
X162609047Y-94769523D01*
X162513809Y-94864761D01*
X162370952Y-94912380D01*
X162275714Y-94912380D01*
X163561428Y-93912380D02*
X163370952Y-93912380D01*
X163275714Y-93960000D01*
X163228095Y-94007619D01*
X163132857Y-94150476D01*
X163085238Y-94340952D01*
X163085238Y-94721904D01*
X163132857Y-94817142D01*
X163180476Y-94864761D01*
X163275714Y-94912380D01*
X163466190Y-94912380D01*
X163561428Y-94864761D01*
X163609047Y-94817142D01*
X163656666Y-94721904D01*
X163656666Y-94483809D01*
X163609047Y-94388571D01*
X163561428Y-94340952D01*
X163466190Y-94293333D01*
X163275714Y-94293333D01*
X163180476Y-94340952D01*
X163132857Y-94388571D01*
X163085238Y-94483809D01*
X167016666Y-96197380D02*
X167016666Y-96911666D01*
X166969047Y-97054523D01*
X166873809Y-97149761D01*
X166730952Y-97197380D01*
X166635714Y-97197380D01*
X167921428Y-96530714D02*
X167921428Y-97197380D01*
X167683333Y-96149761D02*
X167445238Y-96864047D01*
X168064285Y-96864047D01*
X152003333Y-94072380D02*
X151670000Y-93596190D01*
X151431904Y-94072380D02*
X151431904Y-93072380D01*
X151812857Y-93072380D01*
X151908095Y-93120000D01*
X151955714Y-93167619D01*
X152003333Y-93262857D01*
X152003333Y-93405714D01*
X151955714Y-93500952D01*
X151908095Y-93548571D01*
X151812857Y-93596190D01*
X151431904Y-93596190D01*
X152955714Y-94072380D02*
X152384285Y-94072380D01*
X152670000Y-94072380D02*
X152670000Y-93072380D01*
X152574761Y-93215238D01*
X152479523Y-93310476D01*
X152384285Y-93358095D01*
D12*
X154661547Y-95447261D02*
X154298690Y-95447261D01*
X154480119Y-95447261D02*
X154480119Y-94812261D01*
X154419642Y-94902976D01*
X154359166Y-94963452D01*
X154298690Y-94993690D01*
X155054642Y-94812261D02*
X155115119Y-94812261D01*
X155175595Y-94842500D01*
X155205833Y-94872738D01*
X155236071Y-94933214D01*
X155266309Y-95054166D01*
X155266309Y-95205357D01*
X155236071Y-95326309D01*
X155205833Y-95386785D01*
X155175595Y-95417023D01*
X155115119Y-95447261D01*
X155054642Y-95447261D01*
X154994166Y-95417023D01*
X154963928Y-95386785D01*
X154933690Y-95326309D01*
X154903452Y-95205357D01*
X154903452Y-95054166D01*
X154933690Y-94933214D01*
X154963928Y-94872738D01*
X154994166Y-94842500D01*
X155054642Y-94812261D01*
X155538452Y-95447261D02*
X155538452Y-94812261D01*
X155901309Y-95447261D02*
X155629166Y-95084404D01*
X155901309Y-94812261D02*
X155538452Y-95175119D01*
D16*
X159026666Y-93912380D02*
X159026666Y-94626666D01*
X158979047Y-94769523D01*
X158883809Y-94864761D01*
X158740952Y-94912380D01*
X158645714Y-94912380D01*
X159979047Y-93912380D02*
X159502857Y-93912380D01*
X159455238Y-94388571D01*
X159502857Y-94340952D01*
X159598095Y-94293333D01*
X159836190Y-94293333D01*
X159931428Y-94340952D01*
X159979047Y-94388571D01*
X160026666Y-94483809D01*
X160026666Y-94721904D01*
X159979047Y-94817142D01*
X159931428Y-94864761D01*
X159836190Y-94912380D01*
X159598095Y-94912380D01*
X159502857Y-94864761D01*
X159455238Y-94817142D01*
D18*
X141464740Y-93011968D02*
X141464740Y-93534472D01*
X139994740Y-93011968D02*
X139994740Y-93534472D01*
X142288360Y-92933228D02*
X142288360Y-93455732D01*
X143758360Y-92933228D02*
X143758360Y-93455732D01*
X141313000Y-88850712D02*
X141313000Y-88328208D01*
X142783000Y-88850712D02*
X142783000Y-88328208D01*
X133900000Y-98160000D02*
X133900000Y-99310000D01*
X140120000Y-99310000D02*
X139070000Y-99310000D01*
X135070000Y-96190000D02*
X138950000Y-96190000D01*
X134950000Y-99310000D02*
X134950000Y-100300000D01*
X133900000Y-99310000D02*
X134950000Y-99310000D01*
X140120000Y-98160000D02*
X140120000Y-99310000D01*
X133925400Y-104872600D02*
X134975400Y-104872600D01*
X135095400Y-101752600D02*
X138975400Y-101752600D01*
X134975400Y-104872600D02*
X134975400Y-105862600D01*
X140145400Y-103722600D02*
X140145400Y-104872600D01*
X140145400Y-104872600D02*
X139095400Y-104872600D01*
X133925400Y-103722600D02*
X133925400Y-104872600D01*
X143647451Y-107485501D02*
X144814425Y-114114569D01*
X142168027Y-99106098D02*
X143212031Y-105026940D01*
X158328722Y-96256532D02*
X159372726Y-102177373D01*
X142168027Y-99106098D02*
X158328722Y-96256532D01*
X152892738Y-111692000D02*
X152757601Y-112154289D01*
X159808146Y-104635934D02*
X160975121Y-111265002D01*
X152757601Y-112154289D02*
X153190345Y-112077985D01*
X153190345Y-112077985D02*
X152892738Y-111692000D01*
X144814425Y-114114569D02*
X160975121Y-111265002D01*
X149816520Y-88305482D02*
X149816520Y-88822638D01*
X151236520Y-88305482D02*
X151236520Y-88822638D01*
D14*
X146915720Y-89341620D02*
X146415720Y-89341620D01*
X146915720Y-86841620D02*
X146415720Y-86841620D01*
D19*
X149040720Y-87097620D02*
G75*
G03*
X149040720Y-87097620I-100000J0D01*
G01*
D20*
X146584440Y-95429934D02*
X146584440Y-95683934D01*
X146584440Y-95683934D02*
X146965440Y-95683934D01*
X146965440Y-95683934D02*
X146965440Y-95429934D01*
X146965440Y-95429934D02*
X146584440Y-95429934D01*
G36*
X146965440Y-95683934D02*
G01*
X146584440Y-95683934D01*
X146584440Y-95429934D01*
X146965440Y-95429934D01*
X146965440Y-95683934D01*
G37*
X146965440Y-95683934D02*
X146584440Y-95683934D01*
X146584440Y-95429934D01*
X146965440Y-95429934D01*
X146965440Y-95683934D01*
X150127994Y-91640000D02*
X150127994Y-92021000D01*
X150127994Y-92021000D02*
X149873994Y-92021000D01*
X149873994Y-92021000D02*
X149873994Y-91640000D01*
X149873994Y-91640000D02*
X150127994Y-91640000D01*
G36*
X150127994Y-92021000D02*
G01*
X149873994Y-92021000D01*
X149873994Y-91640000D01*
X150127994Y-91640000D01*
X150127994Y-92021000D01*
G37*
X150127994Y-92021000D02*
X149873994Y-92021000D01*
X149873994Y-91640000D01*
X150127994Y-91640000D01*
X150127994Y-92021000D01*
D18*
X171330000Y-93400000D02*
X171330000Y-87430000D01*
X170570000Y-89690000D02*
X170570000Y-92640000D01*
X171330000Y-87430000D02*
X163710000Y-87430000D01*
X163720000Y-88190000D02*
X165520000Y-88190000D01*
X167020000Y-88190000D02*
X168020000Y-88190000D01*
X163420000Y-87140000D02*
X163420000Y-88390000D01*
X170570000Y-92640000D02*
X167520000Y-92640000D01*
X171320000Y-88190000D02*
X171320000Y-87440000D01*
X171320000Y-89690000D02*
X170570000Y-89690000D01*
X167520000Y-92640000D02*
X165530000Y-92640000D01*
X165520000Y-87440000D02*
X163720000Y-87440000D01*
X167020000Y-87440000D02*
X167020000Y-88190000D01*
X163710000Y-93400000D02*
X171330000Y-93400000D01*
X163720000Y-87440000D02*
X163720000Y-88190000D01*
X164670000Y-87140000D02*
X163420000Y-87140000D01*
X169520000Y-87440000D02*
X169520000Y-88190000D01*
X168020000Y-88190000D02*
X168020000Y-87440000D01*
X163710000Y-87430000D02*
X163710000Y-93400000D01*
X164470000Y-89690000D02*
X164470000Y-91030000D01*
X169520000Y-88190000D02*
X171320000Y-88190000D01*
X168020000Y-87440000D02*
X167020000Y-87440000D01*
X171320000Y-87440000D02*
X169520000Y-87440000D01*
X163720000Y-89690000D02*
X164470000Y-89690000D01*
X165520000Y-88190000D02*
X165520000Y-87440000D01*
X163540000Y-105980000D02*
X171160000Y-105980000D01*
X169115000Y-97745000D02*
X169115000Y-97810000D01*
X163540000Y-95480000D02*
X171160000Y-95480000D01*
X163540000Y-105980000D02*
X163540000Y-102250000D01*
X163540000Y-95480000D02*
X163540000Y-99710000D01*
X171160000Y-95480000D02*
X171160000Y-105980000D01*
X151942936Y-96005000D02*
X152397064Y-96005000D01*
X151942936Y-94535000D02*
X152397064Y-94535000D01*
X155550000Y-87325000D02*
X153750000Y-87325000D01*
X153740000Y-93285000D02*
X161360000Y-93285000D01*
X160600000Y-89575000D02*
X160600000Y-92525000D01*
X154700000Y-87025000D02*
X153450000Y-87025000D01*
X153740000Y-87315000D02*
X153740000Y-93285000D01*
X154500000Y-89575000D02*
X154500000Y-90915000D01*
X158050000Y-87325000D02*
X157050000Y-87325000D01*
X153750000Y-89575000D02*
X154500000Y-89575000D01*
X157550000Y-92525000D02*
X155560000Y-92525000D01*
X161350000Y-88075000D02*
X161350000Y-87325000D01*
X159550000Y-87325000D02*
X159550000Y-88075000D01*
X158050000Y-88075000D02*
X158050000Y-87325000D01*
X153750000Y-88075000D02*
X155550000Y-88075000D01*
X153750000Y-87325000D02*
X153750000Y-88075000D01*
X161360000Y-87315000D02*
X153740000Y-87315000D01*
X153450000Y-87025000D02*
X153450000Y-88275000D01*
X160600000Y-92525000D02*
X157550000Y-92525000D01*
X161360000Y-93285000D02*
X161360000Y-87315000D01*
X161350000Y-89575000D02*
X160600000Y-89575000D01*
X161350000Y-87325000D02*
X159550000Y-87325000D01*
X159550000Y-88075000D02*
X161350000Y-88075000D01*
X157050000Y-87325000D02*
X157050000Y-88075000D01*
X155550000Y-88075000D02*
X155550000Y-87325000D01*
X157050000Y-88075000D02*
X158050000Y-88075000D01*
M02*
