%TF.GenerationSoftware,KiCad,Pcbnew,(5.1.6)-1*%
%TF.CreationDate,2020-10-29T00:16:48-05:00*%
%TF.ProjectId,VS1000BreakoutV2,56533130-3030-4427-9265-616b6f757456,rev?*%
%TF.SameCoordinates,Original*%
%TF.FileFunction,Soldermask,Top*%
%TF.FilePolarity,Negative*%
%FSLAX46Y46*%
G04 Gerber Fmt 4.6, Leading zero omitted, Abs format (unit mm)*
G04 Created by KiCad (PCBNEW (5.1.6)-1) date 2020-10-29 00:16:48*
%MOMM*%
%LPD*%
G01*
G04 APERTURE LIST*
%ADD10O,1.800000X1.800000*%
%ADD11R,1.800000X1.800000*%
%ADD12R,0.500000X1.500000*%
%ADD13R,1.160000X0.750000*%
%ADD14O,2.100000X1.500000*%
%ADD15R,2.100000X1.500000*%
%ADD16C,1.300000*%
%ADD17R,1.550000X1.250000*%
%ADD18O,2.000000X1.150000*%
%ADD19R,2.000000X1.850000*%
%ADD20R,1.500000X0.500000*%
G04 APERTURE END LIST*
D10*
%TO.C,J2*%
X129540000Y-127000000D03*
X127000000Y-127000000D03*
X124460000Y-127000000D03*
X121920000Y-127000000D03*
X119380000Y-127000000D03*
X116840000Y-127000000D03*
X114300000Y-127000000D03*
X111760000Y-127000000D03*
X109220000Y-127000000D03*
X106680000Y-127000000D03*
X104140000Y-127000000D03*
X101600000Y-127000000D03*
X99060000Y-127000000D03*
D11*
X96520000Y-127000000D03*
%TD*%
D10*
%TO.C,J4*%
X129540000Y-106680000D03*
X127000000Y-106680000D03*
X124460000Y-106680000D03*
X121920000Y-106680000D03*
X119380000Y-106680000D03*
X116840000Y-106680000D03*
X114300000Y-106680000D03*
X111760000Y-106680000D03*
X109220000Y-106680000D03*
X106680000Y-106680000D03*
X104140000Y-106680000D03*
X101600000Y-106680000D03*
X99060000Y-106680000D03*
D11*
X96520000Y-106680000D03*
%TD*%
D12*
%TO.C,Y1*%
X110306000Y-109347000D03*
X111506000Y-109347000D03*
X112706000Y-109347000D03*
%TD*%
D13*
%TO.C,U2*%
X92753000Y-116078000D03*
X92753000Y-117028000D03*
X92753000Y-115128000D03*
X94953000Y-115128000D03*
X94953000Y-116078000D03*
X94953000Y-117028000D03*
%TD*%
%TO.C,U1*%
G36*
G01*
X106253000Y-121314000D02*
X104878000Y-121314000D01*
G75*
G02*
X104778000Y-121214000I0J100000D01*
G01*
X104778000Y-121014000D01*
G75*
G02*
X104878000Y-120914000I100000J0D01*
G01*
X106253000Y-120914000D01*
G75*
G02*
X106353000Y-121014000I0J-100000D01*
G01*
X106353000Y-121214000D01*
G75*
G02*
X106253000Y-121314000I-100000J0D01*
G01*
G37*
G36*
G01*
X106253000Y-120814000D02*
X104878000Y-120814000D01*
G75*
G02*
X104778000Y-120714000I0J100000D01*
G01*
X104778000Y-120514000D01*
G75*
G02*
X104878000Y-120414000I100000J0D01*
G01*
X106253000Y-120414000D01*
G75*
G02*
X106353000Y-120514000I0J-100000D01*
G01*
X106353000Y-120714000D01*
G75*
G02*
X106253000Y-120814000I-100000J0D01*
G01*
G37*
G36*
G01*
X106253000Y-120314000D02*
X104878000Y-120314000D01*
G75*
G02*
X104778000Y-120214000I0J100000D01*
G01*
X104778000Y-120014000D01*
G75*
G02*
X104878000Y-119914000I100000J0D01*
G01*
X106253000Y-119914000D01*
G75*
G02*
X106353000Y-120014000I0J-100000D01*
G01*
X106353000Y-120214000D01*
G75*
G02*
X106253000Y-120314000I-100000J0D01*
G01*
G37*
G36*
G01*
X106253000Y-119814000D02*
X104878000Y-119814000D01*
G75*
G02*
X104778000Y-119714000I0J100000D01*
G01*
X104778000Y-119514000D01*
G75*
G02*
X104878000Y-119414000I100000J0D01*
G01*
X106253000Y-119414000D01*
G75*
G02*
X106353000Y-119514000I0J-100000D01*
G01*
X106353000Y-119714000D01*
G75*
G02*
X106253000Y-119814000I-100000J0D01*
G01*
G37*
G36*
G01*
X106253000Y-119314000D02*
X104878000Y-119314000D01*
G75*
G02*
X104778000Y-119214000I0J100000D01*
G01*
X104778000Y-119014000D01*
G75*
G02*
X104878000Y-118914000I100000J0D01*
G01*
X106253000Y-118914000D01*
G75*
G02*
X106353000Y-119014000I0J-100000D01*
G01*
X106353000Y-119214000D01*
G75*
G02*
X106253000Y-119314000I-100000J0D01*
G01*
G37*
G36*
G01*
X106253000Y-118814000D02*
X104878000Y-118814000D01*
G75*
G02*
X104778000Y-118714000I0J100000D01*
G01*
X104778000Y-118514000D01*
G75*
G02*
X104878000Y-118414000I100000J0D01*
G01*
X106253000Y-118414000D01*
G75*
G02*
X106353000Y-118514000I0J-100000D01*
G01*
X106353000Y-118714000D01*
G75*
G02*
X106253000Y-118814000I-100000J0D01*
G01*
G37*
G36*
G01*
X106253000Y-118314000D02*
X104878000Y-118314000D01*
G75*
G02*
X104778000Y-118214000I0J100000D01*
G01*
X104778000Y-118014000D01*
G75*
G02*
X104878000Y-117914000I100000J0D01*
G01*
X106253000Y-117914000D01*
G75*
G02*
X106353000Y-118014000I0J-100000D01*
G01*
X106353000Y-118214000D01*
G75*
G02*
X106253000Y-118314000I-100000J0D01*
G01*
G37*
G36*
G01*
X106253000Y-117814000D02*
X104878000Y-117814000D01*
G75*
G02*
X104778000Y-117714000I0J100000D01*
G01*
X104778000Y-117514000D01*
G75*
G02*
X104878000Y-117414000I100000J0D01*
G01*
X106253000Y-117414000D01*
G75*
G02*
X106353000Y-117514000I0J-100000D01*
G01*
X106353000Y-117714000D01*
G75*
G02*
X106253000Y-117814000I-100000J0D01*
G01*
G37*
G36*
G01*
X106253000Y-117314000D02*
X104878000Y-117314000D01*
G75*
G02*
X104778000Y-117214000I0J100000D01*
G01*
X104778000Y-117014000D01*
G75*
G02*
X104878000Y-116914000I100000J0D01*
G01*
X106253000Y-116914000D01*
G75*
G02*
X106353000Y-117014000I0J-100000D01*
G01*
X106353000Y-117214000D01*
G75*
G02*
X106253000Y-117314000I-100000J0D01*
G01*
G37*
G36*
G01*
X106253000Y-116814000D02*
X104878000Y-116814000D01*
G75*
G02*
X104778000Y-116714000I0J100000D01*
G01*
X104778000Y-116514000D01*
G75*
G02*
X104878000Y-116414000I100000J0D01*
G01*
X106253000Y-116414000D01*
G75*
G02*
X106353000Y-116514000I0J-100000D01*
G01*
X106353000Y-116714000D01*
G75*
G02*
X106253000Y-116814000I-100000J0D01*
G01*
G37*
G36*
G01*
X106253000Y-116314000D02*
X104878000Y-116314000D01*
G75*
G02*
X104778000Y-116214000I0J100000D01*
G01*
X104778000Y-116014000D01*
G75*
G02*
X104878000Y-115914000I100000J0D01*
G01*
X106253000Y-115914000D01*
G75*
G02*
X106353000Y-116014000I0J-100000D01*
G01*
X106353000Y-116214000D01*
G75*
G02*
X106253000Y-116314000I-100000J0D01*
G01*
G37*
G36*
G01*
X106253000Y-115814000D02*
X104878000Y-115814000D01*
G75*
G02*
X104778000Y-115714000I0J100000D01*
G01*
X104778000Y-115514000D01*
G75*
G02*
X104878000Y-115414000I100000J0D01*
G01*
X106253000Y-115414000D01*
G75*
G02*
X106353000Y-115514000I0J-100000D01*
G01*
X106353000Y-115714000D01*
G75*
G02*
X106253000Y-115814000I-100000J0D01*
G01*
G37*
G36*
G01*
X107078000Y-114989000D02*
X106878000Y-114989000D01*
G75*
G02*
X106778000Y-114889000I0J100000D01*
G01*
X106778000Y-113514000D01*
G75*
G02*
X106878000Y-113414000I100000J0D01*
G01*
X107078000Y-113414000D01*
G75*
G02*
X107178000Y-113514000I0J-100000D01*
G01*
X107178000Y-114889000D01*
G75*
G02*
X107078000Y-114989000I-100000J0D01*
G01*
G37*
G36*
G01*
X107578000Y-114989000D02*
X107378000Y-114989000D01*
G75*
G02*
X107278000Y-114889000I0J100000D01*
G01*
X107278000Y-113514000D01*
G75*
G02*
X107378000Y-113414000I100000J0D01*
G01*
X107578000Y-113414000D01*
G75*
G02*
X107678000Y-113514000I0J-100000D01*
G01*
X107678000Y-114889000D01*
G75*
G02*
X107578000Y-114989000I-100000J0D01*
G01*
G37*
G36*
G01*
X108078000Y-114989000D02*
X107878000Y-114989000D01*
G75*
G02*
X107778000Y-114889000I0J100000D01*
G01*
X107778000Y-113514000D01*
G75*
G02*
X107878000Y-113414000I100000J0D01*
G01*
X108078000Y-113414000D01*
G75*
G02*
X108178000Y-113514000I0J-100000D01*
G01*
X108178000Y-114889000D01*
G75*
G02*
X108078000Y-114989000I-100000J0D01*
G01*
G37*
G36*
G01*
X108578000Y-114989000D02*
X108378000Y-114989000D01*
G75*
G02*
X108278000Y-114889000I0J100000D01*
G01*
X108278000Y-113514000D01*
G75*
G02*
X108378000Y-113414000I100000J0D01*
G01*
X108578000Y-113414000D01*
G75*
G02*
X108678000Y-113514000I0J-100000D01*
G01*
X108678000Y-114889000D01*
G75*
G02*
X108578000Y-114989000I-100000J0D01*
G01*
G37*
G36*
G01*
X109078000Y-114989000D02*
X108878000Y-114989000D01*
G75*
G02*
X108778000Y-114889000I0J100000D01*
G01*
X108778000Y-113514000D01*
G75*
G02*
X108878000Y-113414000I100000J0D01*
G01*
X109078000Y-113414000D01*
G75*
G02*
X109178000Y-113514000I0J-100000D01*
G01*
X109178000Y-114889000D01*
G75*
G02*
X109078000Y-114989000I-100000J0D01*
G01*
G37*
G36*
G01*
X109578000Y-114989000D02*
X109378000Y-114989000D01*
G75*
G02*
X109278000Y-114889000I0J100000D01*
G01*
X109278000Y-113514000D01*
G75*
G02*
X109378000Y-113414000I100000J0D01*
G01*
X109578000Y-113414000D01*
G75*
G02*
X109678000Y-113514000I0J-100000D01*
G01*
X109678000Y-114889000D01*
G75*
G02*
X109578000Y-114989000I-100000J0D01*
G01*
G37*
G36*
G01*
X110078000Y-114989000D02*
X109878000Y-114989000D01*
G75*
G02*
X109778000Y-114889000I0J100000D01*
G01*
X109778000Y-113514000D01*
G75*
G02*
X109878000Y-113414000I100000J0D01*
G01*
X110078000Y-113414000D01*
G75*
G02*
X110178000Y-113514000I0J-100000D01*
G01*
X110178000Y-114889000D01*
G75*
G02*
X110078000Y-114989000I-100000J0D01*
G01*
G37*
G36*
G01*
X110578000Y-114989000D02*
X110378000Y-114989000D01*
G75*
G02*
X110278000Y-114889000I0J100000D01*
G01*
X110278000Y-113514000D01*
G75*
G02*
X110378000Y-113414000I100000J0D01*
G01*
X110578000Y-113414000D01*
G75*
G02*
X110678000Y-113514000I0J-100000D01*
G01*
X110678000Y-114889000D01*
G75*
G02*
X110578000Y-114989000I-100000J0D01*
G01*
G37*
G36*
G01*
X111078000Y-114989000D02*
X110878000Y-114989000D01*
G75*
G02*
X110778000Y-114889000I0J100000D01*
G01*
X110778000Y-113514000D01*
G75*
G02*
X110878000Y-113414000I100000J0D01*
G01*
X111078000Y-113414000D01*
G75*
G02*
X111178000Y-113514000I0J-100000D01*
G01*
X111178000Y-114889000D01*
G75*
G02*
X111078000Y-114989000I-100000J0D01*
G01*
G37*
G36*
G01*
X111578000Y-114989000D02*
X111378000Y-114989000D01*
G75*
G02*
X111278000Y-114889000I0J100000D01*
G01*
X111278000Y-113514000D01*
G75*
G02*
X111378000Y-113414000I100000J0D01*
G01*
X111578000Y-113414000D01*
G75*
G02*
X111678000Y-113514000I0J-100000D01*
G01*
X111678000Y-114889000D01*
G75*
G02*
X111578000Y-114989000I-100000J0D01*
G01*
G37*
G36*
G01*
X112078000Y-114989000D02*
X111878000Y-114989000D01*
G75*
G02*
X111778000Y-114889000I0J100000D01*
G01*
X111778000Y-113514000D01*
G75*
G02*
X111878000Y-113414000I100000J0D01*
G01*
X112078000Y-113414000D01*
G75*
G02*
X112178000Y-113514000I0J-100000D01*
G01*
X112178000Y-114889000D01*
G75*
G02*
X112078000Y-114989000I-100000J0D01*
G01*
G37*
G36*
G01*
X112578000Y-114989000D02*
X112378000Y-114989000D01*
G75*
G02*
X112278000Y-114889000I0J100000D01*
G01*
X112278000Y-113514000D01*
G75*
G02*
X112378000Y-113414000I100000J0D01*
G01*
X112578000Y-113414000D01*
G75*
G02*
X112678000Y-113514000I0J-100000D01*
G01*
X112678000Y-114889000D01*
G75*
G02*
X112578000Y-114989000I-100000J0D01*
G01*
G37*
G36*
G01*
X114578000Y-115814000D02*
X113203000Y-115814000D01*
G75*
G02*
X113103000Y-115714000I0J100000D01*
G01*
X113103000Y-115514000D01*
G75*
G02*
X113203000Y-115414000I100000J0D01*
G01*
X114578000Y-115414000D01*
G75*
G02*
X114678000Y-115514000I0J-100000D01*
G01*
X114678000Y-115714000D01*
G75*
G02*
X114578000Y-115814000I-100000J0D01*
G01*
G37*
G36*
G01*
X114578000Y-116314000D02*
X113203000Y-116314000D01*
G75*
G02*
X113103000Y-116214000I0J100000D01*
G01*
X113103000Y-116014000D01*
G75*
G02*
X113203000Y-115914000I100000J0D01*
G01*
X114578000Y-115914000D01*
G75*
G02*
X114678000Y-116014000I0J-100000D01*
G01*
X114678000Y-116214000D01*
G75*
G02*
X114578000Y-116314000I-100000J0D01*
G01*
G37*
G36*
G01*
X114578000Y-116814000D02*
X113203000Y-116814000D01*
G75*
G02*
X113103000Y-116714000I0J100000D01*
G01*
X113103000Y-116514000D01*
G75*
G02*
X113203000Y-116414000I100000J0D01*
G01*
X114578000Y-116414000D01*
G75*
G02*
X114678000Y-116514000I0J-100000D01*
G01*
X114678000Y-116714000D01*
G75*
G02*
X114578000Y-116814000I-100000J0D01*
G01*
G37*
G36*
G01*
X114578000Y-117314000D02*
X113203000Y-117314000D01*
G75*
G02*
X113103000Y-117214000I0J100000D01*
G01*
X113103000Y-117014000D01*
G75*
G02*
X113203000Y-116914000I100000J0D01*
G01*
X114578000Y-116914000D01*
G75*
G02*
X114678000Y-117014000I0J-100000D01*
G01*
X114678000Y-117214000D01*
G75*
G02*
X114578000Y-117314000I-100000J0D01*
G01*
G37*
G36*
G01*
X114578000Y-117814000D02*
X113203000Y-117814000D01*
G75*
G02*
X113103000Y-117714000I0J100000D01*
G01*
X113103000Y-117514000D01*
G75*
G02*
X113203000Y-117414000I100000J0D01*
G01*
X114578000Y-117414000D01*
G75*
G02*
X114678000Y-117514000I0J-100000D01*
G01*
X114678000Y-117714000D01*
G75*
G02*
X114578000Y-117814000I-100000J0D01*
G01*
G37*
G36*
G01*
X114578000Y-118314000D02*
X113203000Y-118314000D01*
G75*
G02*
X113103000Y-118214000I0J100000D01*
G01*
X113103000Y-118014000D01*
G75*
G02*
X113203000Y-117914000I100000J0D01*
G01*
X114578000Y-117914000D01*
G75*
G02*
X114678000Y-118014000I0J-100000D01*
G01*
X114678000Y-118214000D01*
G75*
G02*
X114578000Y-118314000I-100000J0D01*
G01*
G37*
G36*
G01*
X114578000Y-118814000D02*
X113203000Y-118814000D01*
G75*
G02*
X113103000Y-118714000I0J100000D01*
G01*
X113103000Y-118514000D01*
G75*
G02*
X113203000Y-118414000I100000J0D01*
G01*
X114578000Y-118414000D01*
G75*
G02*
X114678000Y-118514000I0J-100000D01*
G01*
X114678000Y-118714000D01*
G75*
G02*
X114578000Y-118814000I-100000J0D01*
G01*
G37*
G36*
G01*
X114578000Y-119314000D02*
X113203000Y-119314000D01*
G75*
G02*
X113103000Y-119214000I0J100000D01*
G01*
X113103000Y-119014000D01*
G75*
G02*
X113203000Y-118914000I100000J0D01*
G01*
X114578000Y-118914000D01*
G75*
G02*
X114678000Y-119014000I0J-100000D01*
G01*
X114678000Y-119214000D01*
G75*
G02*
X114578000Y-119314000I-100000J0D01*
G01*
G37*
G36*
G01*
X114578000Y-119814000D02*
X113203000Y-119814000D01*
G75*
G02*
X113103000Y-119714000I0J100000D01*
G01*
X113103000Y-119514000D01*
G75*
G02*
X113203000Y-119414000I100000J0D01*
G01*
X114578000Y-119414000D01*
G75*
G02*
X114678000Y-119514000I0J-100000D01*
G01*
X114678000Y-119714000D01*
G75*
G02*
X114578000Y-119814000I-100000J0D01*
G01*
G37*
G36*
G01*
X114578000Y-120314000D02*
X113203000Y-120314000D01*
G75*
G02*
X113103000Y-120214000I0J100000D01*
G01*
X113103000Y-120014000D01*
G75*
G02*
X113203000Y-119914000I100000J0D01*
G01*
X114578000Y-119914000D01*
G75*
G02*
X114678000Y-120014000I0J-100000D01*
G01*
X114678000Y-120214000D01*
G75*
G02*
X114578000Y-120314000I-100000J0D01*
G01*
G37*
G36*
G01*
X114578000Y-120814000D02*
X113203000Y-120814000D01*
G75*
G02*
X113103000Y-120714000I0J100000D01*
G01*
X113103000Y-120514000D01*
G75*
G02*
X113203000Y-120414000I100000J0D01*
G01*
X114578000Y-120414000D01*
G75*
G02*
X114678000Y-120514000I0J-100000D01*
G01*
X114678000Y-120714000D01*
G75*
G02*
X114578000Y-120814000I-100000J0D01*
G01*
G37*
G36*
G01*
X114578000Y-121314000D02*
X113203000Y-121314000D01*
G75*
G02*
X113103000Y-121214000I0J100000D01*
G01*
X113103000Y-121014000D01*
G75*
G02*
X113203000Y-120914000I100000J0D01*
G01*
X114578000Y-120914000D01*
G75*
G02*
X114678000Y-121014000I0J-100000D01*
G01*
X114678000Y-121214000D01*
G75*
G02*
X114578000Y-121314000I-100000J0D01*
G01*
G37*
G36*
G01*
X112578000Y-123314000D02*
X112378000Y-123314000D01*
G75*
G02*
X112278000Y-123214000I0J100000D01*
G01*
X112278000Y-121839000D01*
G75*
G02*
X112378000Y-121739000I100000J0D01*
G01*
X112578000Y-121739000D01*
G75*
G02*
X112678000Y-121839000I0J-100000D01*
G01*
X112678000Y-123214000D01*
G75*
G02*
X112578000Y-123314000I-100000J0D01*
G01*
G37*
G36*
G01*
X112078000Y-123314000D02*
X111878000Y-123314000D01*
G75*
G02*
X111778000Y-123214000I0J100000D01*
G01*
X111778000Y-121839000D01*
G75*
G02*
X111878000Y-121739000I100000J0D01*
G01*
X112078000Y-121739000D01*
G75*
G02*
X112178000Y-121839000I0J-100000D01*
G01*
X112178000Y-123214000D01*
G75*
G02*
X112078000Y-123314000I-100000J0D01*
G01*
G37*
G36*
G01*
X111578000Y-123314000D02*
X111378000Y-123314000D01*
G75*
G02*
X111278000Y-123214000I0J100000D01*
G01*
X111278000Y-121839000D01*
G75*
G02*
X111378000Y-121739000I100000J0D01*
G01*
X111578000Y-121739000D01*
G75*
G02*
X111678000Y-121839000I0J-100000D01*
G01*
X111678000Y-123214000D01*
G75*
G02*
X111578000Y-123314000I-100000J0D01*
G01*
G37*
G36*
G01*
X111078000Y-123314000D02*
X110878000Y-123314000D01*
G75*
G02*
X110778000Y-123214000I0J100000D01*
G01*
X110778000Y-121839000D01*
G75*
G02*
X110878000Y-121739000I100000J0D01*
G01*
X111078000Y-121739000D01*
G75*
G02*
X111178000Y-121839000I0J-100000D01*
G01*
X111178000Y-123214000D01*
G75*
G02*
X111078000Y-123314000I-100000J0D01*
G01*
G37*
G36*
G01*
X110578000Y-123314000D02*
X110378000Y-123314000D01*
G75*
G02*
X110278000Y-123214000I0J100000D01*
G01*
X110278000Y-121839000D01*
G75*
G02*
X110378000Y-121739000I100000J0D01*
G01*
X110578000Y-121739000D01*
G75*
G02*
X110678000Y-121839000I0J-100000D01*
G01*
X110678000Y-123214000D01*
G75*
G02*
X110578000Y-123314000I-100000J0D01*
G01*
G37*
G36*
G01*
X110078000Y-123314000D02*
X109878000Y-123314000D01*
G75*
G02*
X109778000Y-123214000I0J100000D01*
G01*
X109778000Y-121839000D01*
G75*
G02*
X109878000Y-121739000I100000J0D01*
G01*
X110078000Y-121739000D01*
G75*
G02*
X110178000Y-121839000I0J-100000D01*
G01*
X110178000Y-123214000D01*
G75*
G02*
X110078000Y-123314000I-100000J0D01*
G01*
G37*
G36*
G01*
X109578000Y-123314000D02*
X109378000Y-123314000D01*
G75*
G02*
X109278000Y-123214000I0J100000D01*
G01*
X109278000Y-121839000D01*
G75*
G02*
X109378000Y-121739000I100000J0D01*
G01*
X109578000Y-121739000D01*
G75*
G02*
X109678000Y-121839000I0J-100000D01*
G01*
X109678000Y-123214000D01*
G75*
G02*
X109578000Y-123314000I-100000J0D01*
G01*
G37*
G36*
G01*
X109078000Y-123314000D02*
X108878000Y-123314000D01*
G75*
G02*
X108778000Y-123214000I0J100000D01*
G01*
X108778000Y-121839000D01*
G75*
G02*
X108878000Y-121739000I100000J0D01*
G01*
X109078000Y-121739000D01*
G75*
G02*
X109178000Y-121839000I0J-100000D01*
G01*
X109178000Y-123214000D01*
G75*
G02*
X109078000Y-123314000I-100000J0D01*
G01*
G37*
G36*
G01*
X108578000Y-123314000D02*
X108378000Y-123314000D01*
G75*
G02*
X108278000Y-123214000I0J100000D01*
G01*
X108278000Y-121839000D01*
G75*
G02*
X108378000Y-121739000I100000J0D01*
G01*
X108578000Y-121739000D01*
G75*
G02*
X108678000Y-121839000I0J-100000D01*
G01*
X108678000Y-123214000D01*
G75*
G02*
X108578000Y-123314000I-100000J0D01*
G01*
G37*
G36*
G01*
X108078000Y-123314000D02*
X107878000Y-123314000D01*
G75*
G02*
X107778000Y-123214000I0J100000D01*
G01*
X107778000Y-121839000D01*
G75*
G02*
X107878000Y-121739000I100000J0D01*
G01*
X108078000Y-121739000D01*
G75*
G02*
X108178000Y-121839000I0J-100000D01*
G01*
X108178000Y-123214000D01*
G75*
G02*
X108078000Y-123314000I-100000J0D01*
G01*
G37*
G36*
G01*
X107578000Y-123314000D02*
X107378000Y-123314000D01*
G75*
G02*
X107278000Y-123214000I0J100000D01*
G01*
X107278000Y-121839000D01*
G75*
G02*
X107378000Y-121739000I100000J0D01*
G01*
X107578000Y-121739000D01*
G75*
G02*
X107678000Y-121839000I0J-100000D01*
G01*
X107678000Y-123214000D01*
G75*
G02*
X107578000Y-123314000I-100000J0D01*
G01*
G37*
G36*
G01*
X107078000Y-123314000D02*
X106878000Y-123314000D01*
G75*
G02*
X106778000Y-123214000I0J100000D01*
G01*
X106778000Y-121839000D01*
G75*
G02*
X106878000Y-121739000I100000J0D01*
G01*
X107078000Y-121739000D01*
G75*
G02*
X107178000Y-121839000I0J-100000D01*
G01*
X107178000Y-123214000D01*
G75*
G02*
X107078000Y-123314000I-100000J0D01*
G01*
G37*
%TD*%
%TO.C,R7*%
G36*
G01*
X121812000Y-121893250D02*
X121812000Y-120930750D01*
G75*
G02*
X122080750Y-120662000I268750J0D01*
G01*
X122618250Y-120662000D01*
G75*
G02*
X122887000Y-120930750I0J-268750D01*
G01*
X122887000Y-121893250D01*
G75*
G02*
X122618250Y-122162000I-268750J0D01*
G01*
X122080750Y-122162000D01*
G75*
G02*
X121812000Y-121893250I0J268750D01*
G01*
G37*
G36*
G01*
X119937000Y-121893250D02*
X119937000Y-120930750D01*
G75*
G02*
X120205750Y-120662000I268750J0D01*
G01*
X120743250Y-120662000D01*
G75*
G02*
X121012000Y-120930750I0J-268750D01*
G01*
X121012000Y-121893250D01*
G75*
G02*
X120743250Y-122162000I-268750J0D01*
G01*
X120205750Y-122162000D01*
G75*
G02*
X119937000Y-121893250I0J268750D01*
G01*
G37*
%TD*%
%TO.C,R6*%
G36*
G01*
X126092000Y-122454750D02*
X126092000Y-123417250D01*
G75*
G02*
X125823250Y-123686000I-268750J0D01*
G01*
X125285750Y-123686000D01*
G75*
G02*
X125017000Y-123417250I0J268750D01*
G01*
X125017000Y-122454750D01*
G75*
G02*
X125285750Y-122186000I268750J0D01*
G01*
X125823250Y-122186000D01*
G75*
G02*
X126092000Y-122454750I0J-268750D01*
G01*
G37*
G36*
G01*
X127967000Y-122454750D02*
X127967000Y-123417250D01*
G75*
G02*
X127698250Y-123686000I-268750J0D01*
G01*
X127160750Y-123686000D01*
G75*
G02*
X126892000Y-123417250I0J268750D01*
G01*
X126892000Y-122454750D01*
G75*
G02*
X127160750Y-122186000I268750J0D01*
G01*
X127698250Y-122186000D01*
G75*
G02*
X127967000Y-122454750I0J-268750D01*
G01*
G37*
%TD*%
%TO.C,R5*%
G36*
G01*
X125965000Y-110643750D02*
X125965000Y-111606250D01*
G75*
G02*
X125696250Y-111875000I-268750J0D01*
G01*
X125158750Y-111875000D01*
G75*
G02*
X124890000Y-111606250I0J268750D01*
G01*
X124890000Y-110643750D01*
G75*
G02*
X125158750Y-110375000I268750J0D01*
G01*
X125696250Y-110375000D01*
G75*
G02*
X125965000Y-110643750I0J-268750D01*
G01*
G37*
G36*
G01*
X127840000Y-110643750D02*
X127840000Y-111606250D01*
G75*
G02*
X127571250Y-111875000I-268750J0D01*
G01*
X127033750Y-111875000D01*
G75*
G02*
X126765000Y-111606250I0J268750D01*
G01*
X126765000Y-110643750D01*
G75*
G02*
X127033750Y-110375000I268750J0D01*
G01*
X127571250Y-110375000D01*
G75*
G02*
X127840000Y-110643750I0J-268750D01*
G01*
G37*
%TD*%
%TO.C,R4*%
G36*
G01*
X100184000Y-109246750D02*
X100184000Y-110209250D01*
G75*
G02*
X99915250Y-110478000I-268750J0D01*
G01*
X99377750Y-110478000D01*
G75*
G02*
X99109000Y-110209250I0J268750D01*
G01*
X99109000Y-109246750D01*
G75*
G02*
X99377750Y-108978000I268750J0D01*
G01*
X99915250Y-108978000D01*
G75*
G02*
X100184000Y-109246750I0J-268750D01*
G01*
G37*
G36*
G01*
X102059000Y-109246750D02*
X102059000Y-110209250D01*
G75*
G02*
X101790250Y-110478000I-268750J0D01*
G01*
X101252750Y-110478000D01*
G75*
G02*
X100984000Y-110209250I0J268750D01*
G01*
X100984000Y-109246750D01*
G75*
G02*
X101252750Y-108978000I268750J0D01*
G01*
X101790250Y-108978000D01*
G75*
G02*
X102059000Y-109246750I0J-268750D01*
G01*
G37*
%TD*%
%TO.C,R3*%
G36*
G01*
X90443000Y-109955250D02*
X90443000Y-108992750D01*
G75*
G02*
X90711750Y-108724000I268750J0D01*
G01*
X91249250Y-108724000D01*
G75*
G02*
X91518000Y-108992750I0J-268750D01*
G01*
X91518000Y-109955250D01*
G75*
G02*
X91249250Y-110224000I-268750J0D01*
G01*
X90711750Y-110224000D01*
G75*
G02*
X90443000Y-109955250I0J268750D01*
G01*
G37*
G36*
G01*
X88568000Y-109955250D02*
X88568000Y-108992750D01*
G75*
G02*
X88836750Y-108724000I268750J0D01*
G01*
X89374250Y-108724000D01*
G75*
G02*
X89643000Y-108992750I0J-268750D01*
G01*
X89643000Y-109955250D01*
G75*
G02*
X89374250Y-110224000I-268750J0D01*
G01*
X88836750Y-110224000D01*
G75*
G02*
X88568000Y-109955250I0J268750D01*
G01*
G37*
%TD*%
%TO.C,R2*%
G36*
G01*
X111906000Y-111733250D02*
X111906000Y-110770750D01*
G75*
G02*
X112174750Y-110502000I268750J0D01*
G01*
X112712250Y-110502000D01*
G75*
G02*
X112981000Y-110770750I0J-268750D01*
G01*
X112981000Y-111733250D01*
G75*
G02*
X112712250Y-112002000I-268750J0D01*
G01*
X112174750Y-112002000D01*
G75*
G02*
X111906000Y-111733250I0J268750D01*
G01*
G37*
G36*
G01*
X110031000Y-111733250D02*
X110031000Y-110770750D01*
G75*
G02*
X110299750Y-110502000I268750J0D01*
G01*
X110837250Y-110502000D01*
G75*
G02*
X111106000Y-110770750I0J-268750D01*
G01*
X111106000Y-111733250D01*
G75*
G02*
X110837250Y-112002000I-268750J0D01*
G01*
X110299750Y-112002000D01*
G75*
G02*
X110031000Y-111733250I0J268750D01*
G01*
G37*
%TD*%
%TO.C,R1*%
G36*
G01*
X97001250Y-122663000D02*
X96038750Y-122663000D01*
G75*
G02*
X95770000Y-122394250I0J268750D01*
G01*
X95770000Y-121856750D01*
G75*
G02*
X96038750Y-121588000I268750J0D01*
G01*
X97001250Y-121588000D01*
G75*
G02*
X97270000Y-121856750I0J-268750D01*
G01*
X97270000Y-122394250D01*
G75*
G02*
X97001250Y-122663000I-268750J0D01*
G01*
G37*
G36*
G01*
X97001250Y-124538000D02*
X96038750Y-124538000D01*
G75*
G02*
X95770000Y-124269250I0J268750D01*
G01*
X95770000Y-123731750D01*
G75*
G02*
X96038750Y-123463000I268750J0D01*
G01*
X97001250Y-123463000D01*
G75*
G02*
X97270000Y-123731750I0J-268750D01*
G01*
X97270000Y-124269250D01*
G75*
G02*
X97001250Y-124538000I-268750J0D01*
G01*
G37*
%TD*%
D14*
%TO.C,J5*%
X128548000Y-114300000D03*
D15*
X130048000Y-118800000D03*
D14*
X134048000Y-118800000D03*
X137048000Y-118800000D03*
D16*
X138548000Y-116300000D03*
X131548000Y-116300000D03*
%TD*%
D17*
%TO.C,J3*%
X88914000Y-114012000D03*
X88914000Y-118652000D03*
D18*
X86684000Y-119907000D03*
X86684000Y-112757000D03*
D19*
X86684000Y-115207000D03*
D20*
X89334000Y-116332000D03*
X89334000Y-116982000D03*
X89334000Y-117632000D03*
X89334000Y-115032000D03*
X89334000Y-115682000D03*
D19*
X86684000Y-117457000D03*
%TD*%
D10*
%TO.C,J1*%
X91440000Y-106680000D03*
D11*
X88900000Y-106680000D03*
%TD*%
%TO.C,D1*%
G36*
G01*
X89427000Y-123414262D02*
X89427000Y-122457738D01*
G75*
G02*
X89698738Y-122186000I271738J0D01*
G01*
X90405262Y-122186000D01*
G75*
G02*
X90677000Y-122457738I0J-271738D01*
G01*
X90677000Y-123414262D01*
G75*
G02*
X90405262Y-123686000I-271738J0D01*
G01*
X89698738Y-123686000D01*
G75*
G02*
X89427000Y-123414262I0J271738D01*
G01*
G37*
G36*
G01*
X87377000Y-123414262D02*
X87377000Y-122457738D01*
G75*
G02*
X87648738Y-122186000I271738J0D01*
G01*
X88355262Y-122186000D01*
G75*
G02*
X88627000Y-122457738I0J-271738D01*
G01*
X88627000Y-123414262D01*
G75*
G02*
X88355262Y-123686000I-271738J0D01*
G01*
X87648738Y-123686000D01*
G75*
G02*
X87377000Y-123414262I0J271738D01*
G01*
G37*
%TD*%
%TO.C,C9*%
G36*
G01*
X133839000Y-122454750D02*
X133839000Y-123417250D01*
G75*
G02*
X133570250Y-123686000I-268750J0D01*
G01*
X133032750Y-123686000D01*
G75*
G02*
X132764000Y-123417250I0J268750D01*
G01*
X132764000Y-122454750D01*
G75*
G02*
X133032750Y-122186000I268750J0D01*
G01*
X133570250Y-122186000D01*
G75*
G02*
X133839000Y-122454750I0J-268750D01*
G01*
G37*
G36*
G01*
X135714000Y-122454750D02*
X135714000Y-123417250D01*
G75*
G02*
X135445250Y-123686000I-268750J0D01*
G01*
X134907750Y-123686000D01*
G75*
G02*
X134639000Y-123417250I0J268750D01*
G01*
X134639000Y-122454750D01*
G75*
G02*
X134907750Y-122186000I268750J0D01*
G01*
X135445250Y-122186000D01*
G75*
G02*
X135714000Y-122454750I0J-268750D01*
G01*
G37*
%TD*%
%TO.C,C8*%
G36*
G01*
X133458000Y-110643750D02*
X133458000Y-111606250D01*
G75*
G02*
X133189250Y-111875000I-268750J0D01*
G01*
X132651750Y-111875000D01*
G75*
G02*
X132383000Y-111606250I0J268750D01*
G01*
X132383000Y-110643750D01*
G75*
G02*
X132651750Y-110375000I268750J0D01*
G01*
X133189250Y-110375000D01*
G75*
G02*
X133458000Y-110643750I0J-268750D01*
G01*
G37*
G36*
G01*
X135333000Y-110643750D02*
X135333000Y-111606250D01*
G75*
G02*
X135064250Y-111875000I-268750J0D01*
G01*
X134526750Y-111875000D01*
G75*
G02*
X134258000Y-111606250I0J268750D01*
G01*
X134258000Y-110643750D01*
G75*
G02*
X134526750Y-110375000I268750J0D01*
G01*
X135064250Y-110375000D01*
G75*
G02*
X135333000Y-110643750I0J-268750D01*
G01*
G37*
%TD*%
%TO.C,C7*%
G36*
G01*
X130829000Y-123417250D02*
X130829000Y-122454750D01*
G75*
G02*
X131097750Y-122186000I268750J0D01*
G01*
X131635250Y-122186000D01*
G75*
G02*
X131904000Y-122454750I0J-268750D01*
G01*
X131904000Y-123417250D01*
G75*
G02*
X131635250Y-123686000I-268750J0D01*
G01*
X131097750Y-123686000D01*
G75*
G02*
X130829000Y-123417250I0J268750D01*
G01*
G37*
G36*
G01*
X128954000Y-123417250D02*
X128954000Y-122454750D01*
G75*
G02*
X129222750Y-122186000I268750J0D01*
G01*
X129760250Y-122186000D01*
G75*
G02*
X130029000Y-122454750I0J-268750D01*
G01*
X130029000Y-123417250D01*
G75*
G02*
X129760250Y-123686000I-268750J0D01*
G01*
X129222750Y-123686000D01*
G75*
G02*
X128954000Y-123417250I0J268750D01*
G01*
G37*
%TD*%
%TO.C,C6*%
G36*
G01*
X130575000Y-111606250D02*
X130575000Y-110643750D01*
G75*
G02*
X130843750Y-110375000I268750J0D01*
G01*
X131381250Y-110375000D01*
G75*
G02*
X131650000Y-110643750I0J-268750D01*
G01*
X131650000Y-111606250D01*
G75*
G02*
X131381250Y-111875000I-268750J0D01*
G01*
X130843750Y-111875000D01*
G75*
G02*
X130575000Y-111606250I0J268750D01*
G01*
G37*
G36*
G01*
X128700000Y-111606250D02*
X128700000Y-110643750D01*
G75*
G02*
X128968750Y-110375000I268750J0D01*
G01*
X129506250Y-110375000D01*
G75*
G02*
X129775000Y-110643750I0J-268750D01*
G01*
X129775000Y-111606250D01*
G75*
G02*
X129506250Y-111875000I-268750J0D01*
G01*
X128968750Y-111875000D01*
G75*
G02*
X128700000Y-111606250I0J268750D01*
G01*
G37*
%TD*%
%TO.C,C5*%
G36*
G01*
X101626750Y-117748000D02*
X102589250Y-117748000D01*
G75*
G02*
X102858000Y-118016750I0J-268750D01*
G01*
X102858000Y-118554250D01*
G75*
G02*
X102589250Y-118823000I-268750J0D01*
G01*
X101626750Y-118823000D01*
G75*
G02*
X101358000Y-118554250I0J268750D01*
G01*
X101358000Y-118016750D01*
G75*
G02*
X101626750Y-117748000I268750J0D01*
G01*
G37*
G36*
G01*
X101626750Y-115873000D02*
X102589250Y-115873000D01*
G75*
G02*
X102858000Y-116141750I0J-268750D01*
G01*
X102858000Y-116679250D01*
G75*
G02*
X102589250Y-116948000I-268750J0D01*
G01*
X101626750Y-116948000D01*
G75*
G02*
X101358000Y-116679250I0J268750D01*
G01*
X101358000Y-116141750D01*
G75*
G02*
X101626750Y-115873000I268750J0D01*
G01*
G37*
%TD*%
%TO.C,C4*%
G36*
G01*
X105556000Y-109701250D02*
X105556000Y-108738750D01*
G75*
G02*
X105824750Y-108470000I268750J0D01*
G01*
X106362250Y-108470000D01*
G75*
G02*
X106631000Y-108738750I0J-268750D01*
G01*
X106631000Y-109701250D01*
G75*
G02*
X106362250Y-109970000I-268750J0D01*
G01*
X105824750Y-109970000D01*
G75*
G02*
X105556000Y-109701250I0J268750D01*
G01*
G37*
G36*
G01*
X103681000Y-109701250D02*
X103681000Y-108738750D01*
G75*
G02*
X103949750Y-108470000I268750J0D01*
G01*
X104487250Y-108470000D01*
G75*
G02*
X104756000Y-108738750I0J-268750D01*
G01*
X104756000Y-109701250D01*
G75*
G02*
X104487250Y-109970000I-268750J0D01*
G01*
X103949750Y-109970000D01*
G75*
G02*
X103681000Y-109701250I0J268750D01*
G01*
G37*
%TD*%
%TO.C,C3*%
G36*
G01*
X93364000Y-113765250D02*
X93364000Y-112802750D01*
G75*
G02*
X93632750Y-112534000I268750J0D01*
G01*
X94170250Y-112534000D01*
G75*
G02*
X94439000Y-112802750I0J-268750D01*
G01*
X94439000Y-113765250D01*
G75*
G02*
X94170250Y-114034000I-268750J0D01*
G01*
X93632750Y-114034000D01*
G75*
G02*
X93364000Y-113765250I0J268750D01*
G01*
G37*
G36*
G01*
X91489000Y-113765250D02*
X91489000Y-112802750D01*
G75*
G02*
X91757750Y-112534000I268750J0D01*
G01*
X92295250Y-112534000D01*
G75*
G02*
X92564000Y-112802750I0J-268750D01*
G01*
X92564000Y-113765250D01*
G75*
G02*
X92295250Y-114034000I-268750J0D01*
G01*
X91757750Y-114034000D01*
G75*
G02*
X91489000Y-113765250I0J268750D01*
G01*
G37*
%TD*%
%TO.C,C2*%
G36*
G01*
X104756000Y-110770750D02*
X104756000Y-111733250D01*
G75*
G02*
X104487250Y-112002000I-268750J0D01*
G01*
X103949750Y-112002000D01*
G75*
G02*
X103681000Y-111733250I0J268750D01*
G01*
X103681000Y-110770750D01*
G75*
G02*
X103949750Y-110502000I268750J0D01*
G01*
X104487250Y-110502000D01*
G75*
G02*
X104756000Y-110770750I0J-268750D01*
G01*
G37*
G36*
G01*
X106631000Y-110770750D02*
X106631000Y-111733250D01*
G75*
G02*
X106362250Y-112002000I-268750J0D01*
G01*
X105824750Y-112002000D01*
G75*
G02*
X105556000Y-111733250I0J268750D01*
G01*
X105556000Y-110770750D01*
G75*
G02*
X105824750Y-110502000I268750J0D01*
G01*
X106362250Y-110502000D01*
G75*
G02*
X106631000Y-110770750I0J-268750D01*
G01*
G37*
%TD*%
%TO.C,C1*%
G36*
G01*
X108939250Y-110344000D02*
X107976750Y-110344000D01*
G75*
G02*
X107708000Y-110075250I0J268750D01*
G01*
X107708000Y-109537750D01*
G75*
G02*
X107976750Y-109269000I268750J0D01*
G01*
X108939250Y-109269000D01*
G75*
G02*
X109208000Y-109537750I0J-268750D01*
G01*
X109208000Y-110075250D01*
G75*
G02*
X108939250Y-110344000I-268750J0D01*
G01*
G37*
G36*
G01*
X108939250Y-112219000D02*
X107976750Y-112219000D01*
G75*
G02*
X107708000Y-111950250I0J268750D01*
G01*
X107708000Y-111412750D01*
G75*
G02*
X107976750Y-111144000I268750J0D01*
G01*
X108939250Y-111144000D01*
G75*
G02*
X109208000Y-111412750I0J-268750D01*
G01*
X109208000Y-111950250D01*
G75*
G02*
X108939250Y-112219000I-268750J0D01*
G01*
G37*
%TD*%
%TO.C,R8*%
G36*
G01*
X87552000Y-125703250D02*
X87552000Y-124740750D01*
G75*
G02*
X87820750Y-124472000I268750J0D01*
G01*
X88358250Y-124472000D01*
G75*
G02*
X88627000Y-124740750I0J-268750D01*
G01*
X88627000Y-125703250D01*
G75*
G02*
X88358250Y-125972000I-268750J0D01*
G01*
X87820750Y-125972000D01*
G75*
G02*
X87552000Y-125703250I0J268750D01*
G01*
G37*
G36*
G01*
X89427000Y-125703250D02*
X89427000Y-124740750D01*
G75*
G02*
X89695750Y-124472000I268750J0D01*
G01*
X90233250Y-124472000D01*
G75*
G02*
X90502000Y-124740750I0J-268750D01*
G01*
X90502000Y-125703250D01*
G75*
G02*
X90233250Y-125972000I-268750J0D01*
G01*
X89695750Y-125972000D01*
G75*
G02*
X89427000Y-125703250I0J268750D01*
G01*
G37*
%TD*%
%TO.C,U3*%
G36*
G01*
X125989000Y-118443000D02*
X125989000Y-118793000D01*
G75*
G02*
X125814000Y-118968000I-175000J0D01*
G01*
X124464000Y-118968000D01*
G75*
G02*
X124289000Y-118793000I0J175000D01*
G01*
X124289000Y-118443000D01*
G75*
G02*
X124464000Y-118268000I175000J0D01*
G01*
X125814000Y-118268000D01*
G75*
G02*
X125989000Y-118443000I0J-175000D01*
G01*
G37*
G36*
G01*
X125989000Y-117173000D02*
X125989000Y-117523000D01*
G75*
G02*
X125814000Y-117698000I-175000J0D01*
G01*
X124464000Y-117698000D01*
G75*
G02*
X124289000Y-117523000I0J175000D01*
G01*
X124289000Y-117173000D01*
G75*
G02*
X124464000Y-116998000I175000J0D01*
G01*
X125814000Y-116998000D01*
G75*
G02*
X125989000Y-117173000I0J-175000D01*
G01*
G37*
G36*
G01*
X125989000Y-115903000D02*
X125989000Y-116253000D01*
G75*
G02*
X125814000Y-116428000I-175000J0D01*
G01*
X124464000Y-116428000D01*
G75*
G02*
X124289000Y-116253000I0J175000D01*
G01*
X124289000Y-115903000D01*
G75*
G02*
X124464000Y-115728000I175000J0D01*
G01*
X125814000Y-115728000D01*
G75*
G02*
X125989000Y-115903000I0J-175000D01*
G01*
G37*
G36*
G01*
X125989000Y-114633000D02*
X125989000Y-114983000D01*
G75*
G02*
X125814000Y-115158000I-175000J0D01*
G01*
X124464000Y-115158000D01*
G75*
G02*
X124289000Y-114983000I0J175000D01*
G01*
X124289000Y-114633000D01*
G75*
G02*
X124464000Y-114458000I175000J0D01*
G01*
X125814000Y-114458000D01*
G75*
G02*
X125989000Y-114633000I0J-175000D01*
G01*
G37*
G36*
G01*
X118789000Y-114633000D02*
X118789000Y-114983000D01*
G75*
G02*
X118614000Y-115158000I-175000J0D01*
G01*
X117264000Y-115158000D01*
G75*
G02*
X117089000Y-114983000I0J175000D01*
G01*
X117089000Y-114633000D01*
G75*
G02*
X117264000Y-114458000I175000J0D01*
G01*
X118614000Y-114458000D01*
G75*
G02*
X118789000Y-114633000I0J-175000D01*
G01*
G37*
G36*
G01*
X118789000Y-115903000D02*
X118789000Y-116253000D01*
G75*
G02*
X118614000Y-116428000I-175000J0D01*
G01*
X117264000Y-116428000D01*
G75*
G02*
X117089000Y-116253000I0J175000D01*
G01*
X117089000Y-115903000D01*
G75*
G02*
X117264000Y-115728000I175000J0D01*
G01*
X118614000Y-115728000D01*
G75*
G02*
X118789000Y-115903000I0J-175000D01*
G01*
G37*
G36*
G01*
X118789000Y-117173000D02*
X118789000Y-117523000D01*
G75*
G02*
X118614000Y-117698000I-175000J0D01*
G01*
X117264000Y-117698000D01*
G75*
G02*
X117089000Y-117523000I0J175000D01*
G01*
X117089000Y-117173000D01*
G75*
G02*
X117264000Y-116998000I175000J0D01*
G01*
X118614000Y-116998000D01*
G75*
G02*
X118789000Y-117173000I0J-175000D01*
G01*
G37*
G36*
G01*
X118789000Y-118443000D02*
X118789000Y-118793000D01*
G75*
G02*
X118614000Y-118968000I-175000J0D01*
G01*
X117264000Y-118968000D01*
G75*
G02*
X117089000Y-118793000I0J175000D01*
G01*
X117089000Y-118443000D01*
G75*
G02*
X117264000Y-118268000I175000J0D01*
G01*
X118614000Y-118268000D01*
G75*
G02*
X118789000Y-118443000I0J-175000D01*
G01*
G37*
%TD*%
M02*
