%TF.GenerationSoftware,KiCad,Pcbnew,(5.1.6)-1*%
%TF.CreationDate,2020-10-29T00:16:48-05:00*%
%TF.ProjectId,VS1000BreakoutV2,56533130-3030-4427-9265-616b6f757456,rev?*%
%TF.SameCoordinates,Original*%
%TF.FileFunction,Copper,L2,Bot*%
%TF.FilePolarity,Positive*%
%FSLAX46Y46*%
G04 Gerber Fmt 4.6, Leading zero omitted, Abs format (unit mm)*
G04 Created by KiCad (PCBNEW (5.1.6)-1) date 2020-10-29 00:16:48*
%MOMM*%
%LPD*%
G01*
G04 APERTURE LIST*
%TA.AperFunction,ComponentPad*%
%ADD10O,1.700000X1.700000*%
%TD*%
%TA.AperFunction,ComponentPad*%
%ADD11R,1.700000X1.700000*%
%TD*%
%TA.AperFunction,ComponentPad*%
%ADD12O,2.000000X1.400000*%
%TD*%
%TA.AperFunction,ComponentPad*%
%ADD13R,2.000000X1.400000*%
%TD*%
%TA.AperFunction,ComponentPad*%
%ADD14O,1.900000X1.050000*%
%TD*%
%TA.AperFunction,ViaPad*%
%ADD15C,0.800000*%
%TD*%
%TA.AperFunction,Conductor*%
%ADD16C,0.300000*%
%TD*%
%TA.AperFunction,Conductor*%
%ADD17C,0.250000*%
%TD*%
%TA.AperFunction,Conductor*%
%ADD18C,0.254000*%
%TD*%
G04 APERTURE END LIST*
D10*
%TO.P,J2,14*%
%TO.N,GND*%
X129540000Y-127000000D03*
%TO.P,J2,13*%
%TO.N,GPIO_11*%
X127000000Y-127000000D03*
%TO.P,J2,12*%
%TO.N,GPIO_10*%
X124460000Y-127000000D03*
%TO.P,J2,11*%
%TO.N,GPIO_9*%
X121920000Y-127000000D03*
%TO.P,J2,10*%
%TO.N,GPIO_8*%
X119380000Y-127000000D03*
%TO.P,J2,9*%
%TO.N,GPIO_7*%
X116840000Y-127000000D03*
%TO.P,J2,8*%
%TO.N,GPIO_6*%
X114300000Y-127000000D03*
%TO.P,J2,7*%
%TO.N,GPIO_5*%
X111760000Y-127000000D03*
%TO.P,J2,6*%
%TO.N,GPIO_4*%
X109220000Y-127000000D03*
%TO.P,J2,5*%
%TO.N,GPIO_3*%
X106680000Y-127000000D03*
%TO.P,J2,4*%
%TO.N,GPIO_2*%
X104140000Y-127000000D03*
%TO.P,J2,3*%
%TO.N,GPIO_1*%
X101600000Y-127000000D03*
%TO.P,J2,2*%
%TO.N,GPIO_0*%
X99060000Y-127000000D03*
D11*
%TO.P,J2,1*%
%TO.N,RESET*%
X96520000Y-127000000D03*
%TD*%
D10*
%TO.P,J4,14*%
%TO.N,GND*%
X129540000Y-106680000D03*
%TO.P,J4,13*%
%TO.N,L_AC*%
X127000000Y-106680000D03*
%TO.P,J4,12*%
%TO.N,R_AC*%
X124460000Y-106680000D03*
%TO.P,J4,11*%
%TO.N,GPIO_14*%
X121920000Y-106680000D03*
%TO.P,J4,10*%
%TO.N,GPIO_13*%
X119380000Y-106680000D03*
%TO.P,J4,9*%
%TO.N,GPIO_12*%
X116840000Y-106680000D03*
%TO.P,J4,8*%
%TO.N,CS*%
X114300000Y-106680000D03*
%TO.P,J4,7*%
%TO.N,MISO*%
X111760000Y-106680000D03*
%TO.P,J4,6*%
%TO.N,MOSI*%
X109220000Y-106680000D03*
%TO.P,J4,5*%
%TO.N,SCK*%
X106680000Y-106680000D03*
%TO.P,J4,4*%
%TO.N,TX*%
X104140000Y-106680000D03*
%TO.P,J4,3*%
%TO.N,RX*%
X101600000Y-106680000D03*
%TO.P,J4,2*%
%TO.N,VDD*%
X99060000Y-106680000D03*
D11*
%TO.P,J4,1*%
%TO.N,+5V*%
X96520000Y-106680000D03*
%TD*%
D12*
%TO.P,J5,S*%
%TO.N,GND*%
X128548000Y-114300000D03*
D13*
%TO.P,J5,T*%
%TO.N,L_AC*%
X130048000Y-118800000D03*
D12*
%TO.P,J5,R1*%
%TO.N,R_AC*%
X134048000Y-118800000D03*
%TO.P,J5,R2*%
%TO.N,Net-(J5-PadR2)*%
X137048000Y-118800000D03*
%TD*%
D14*
%TO.P,J3,6*%
%TO.N,Net-(J3-Pad6)*%
X86684000Y-119907000D03*
X86684000Y-112757000D03*
%TD*%
D10*
%TO.P,J1,2*%
%TO.N,+5V*%
X91440000Y-106680000D03*
D11*
%TO.P,J1,1*%
%TO.N,Net-(J1-Pad1)*%
X88900000Y-106680000D03*
%TD*%
D15*
%TO.N,GND*%
X92075000Y-109474000D03*
X95123000Y-112776000D03*
X110998000Y-108077000D03*
X107696000Y-108712000D03*
X90678000Y-117856000D03*
X91186000Y-125476000D03*
X100584000Y-116459000D03*
X103632000Y-116967000D03*
X109474000Y-121158000D03*
X131318000Y-124333000D03*
X131064000Y-112522000D03*
X112522000Y-118872000D03*
X108599344Y-115981331D03*
X101975200Y-111417876D03*
X102844089Y-108886513D03*
X105410000Y-105156000D03*
X123444000Y-114808000D03*
%TO.N,CS*%
X121793000Y-119761000D03*
X111762911Y-120082082D03*
%TO.N,VDDA*%
X107696000Y-117221000D03*
X103759000Y-113411000D03*
X107696000Y-117221000D03*
X107256862Y-119555818D03*
%TO.N,+5V*%
X107569000Y-115951000D03*
X92202000Y-117983000D03*
X90744001Y-114112001D03*
%TO.N,Net-(J1-Pad1)*%
X103759000Y-115443000D03*
X102616000Y-113157000D03*
%TO.N,GPIO_14*%
X116459000Y-116840000D03*
X119380000Y-113501010D03*
%TO.N,GPIO_13*%
X116078000Y-118618000D03*
X117856000Y-113284000D03*
%TO.N,GPIO_12*%
X115438809Y-114719838D03*
X115405852Y-119427169D03*
%TO.N,MISO*%
X124587000Y-112776000D03*
X114173000Y-112776000D03*
%TO.N,SCK*%
X112127777Y-116016655D03*
%TO.N,TX*%
X111915910Y-112804910D03*
%TO.N,RX*%
X109726100Y-117078010D03*
%TO.N,LEFT*%
X124878889Y-120412706D03*
X108594912Y-120522407D03*
%TO.N,RIGHT*%
X124841000Y-121412000D03*
X110379493Y-120733611D03*
%TO.N,VDD*%
X120650000Y-118618000D03*
X109982000Y-124079000D03*
X122174000Y-123317000D03*
X109728000Y-116078000D03*
X112522000Y-117856000D03*
X99187000Y-115443000D03*
X98425000Y-109601000D03*
X107631036Y-110871000D03*
%TD*%
D16*
%TO.N,GND*%
X106935998Y-108712000D02*
X105410000Y-107186002D01*
X107696000Y-108712000D02*
X106935998Y-108712000D01*
X105410000Y-107186002D02*
X105410000Y-105918000D01*
D17*
X112522000Y-118872000D02*
X109093000Y-118872000D01*
X109093000Y-118872000D02*
X107442000Y-120523000D01*
X107442000Y-120523000D02*
X107442000Y-121285000D01*
X109347000Y-121285000D02*
X109474000Y-121158000D01*
X107442000Y-121285000D02*
X109347000Y-121285000D01*
D16*
X105410000Y-105918000D02*
X105410000Y-105156000D01*
D17*
%TO.N,CS*%
X112159999Y-120160999D02*
X112081082Y-120082082D01*
X112081082Y-120082082D02*
X111762911Y-120082082D01*
X121793000Y-119761000D02*
X120834989Y-120719011D01*
X112337011Y-120719011D02*
X111778999Y-120160999D01*
X120834989Y-120719011D02*
X112337011Y-120719011D01*
%TO.N,VDDA*%
X103759000Y-113411000D02*
X107569000Y-117221000D01*
X107569000Y-117221000D02*
X107696000Y-117221000D01*
X107696000Y-119116680D02*
X107256862Y-119555818D01*
X107696000Y-117221000D02*
X107696000Y-119116680D01*
D16*
%TO.N,+5V*%
X97720001Y-107880001D02*
X96520000Y-106680000D01*
X99498001Y-107880001D02*
X97720001Y-107880001D01*
X107569000Y-115951000D02*
X99498001Y-107880001D01*
X96520000Y-106680000D02*
X91440000Y-106680000D01*
X92202000Y-117983000D02*
X90744001Y-116525001D01*
X90744001Y-116525001D02*
X90744001Y-114112001D01*
D17*
%TO.N,Net-(J1-Pad1)*%
X102616000Y-114300000D02*
X102616000Y-113157000D01*
X103759000Y-115443000D02*
X102616000Y-114300000D01*
%TO.N,GPIO_14*%
X118364000Y-116840000D02*
X116459000Y-116840000D01*
X119380000Y-113501010D02*
X119380000Y-115824000D01*
X119380000Y-115824000D02*
X118364000Y-116840000D01*
%TO.N,GPIO_13*%
X117856000Y-113284000D02*
X117856000Y-114046000D01*
X117856000Y-114046000D02*
X115697000Y-116205000D01*
X115697000Y-118237000D02*
X116078000Y-118618000D01*
X115697000Y-116205000D02*
X115697000Y-118237000D01*
%TO.N,GPIO_12*%
X115038810Y-115119837D02*
X115038810Y-119060127D01*
X115038810Y-119060127D02*
X115405852Y-119427169D01*
X115438809Y-114719838D02*
X115038810Y-115119837D01*
%TO.N,MISO*%
X114572999Y-112376001D02*
X114173000Y-112776000D01*
X124587000Y-112776000D02*
X124187001Y-112376001D01*
X124187001Y-112376001D02*
X114572999Y-112376001D01*
%TO.N,SCK*%
X112640912Y-115503520D02*
X112127777Y-116016655D01*
X112640912Y-112456908D02*
X112640912Y-115503520D01*
X107529999Y-107529999D02*
X107714003Y-107529999D01*
X107714003Y-107529999D02*
X112640912Y-112456908D01*
X106680000Y-106680000D02*
X107529999Y-107529999D01*
%TO.N,TX*%
X107605999Y-110145999D02*
X109256999Y-110145999D01*
X109256999Y-110145999D02*
X111515911Y-112404911D01*
X111515911Y-112404911D02*
X111915910Y-112804910D01*
X104140000Y-106680000D02*
X107605999Y-110145999D01*
%TO.N,RX*%
X103389599Y-108305012D02*
X103407240Y-108305012D01*
X110291785Y-117078010D02*
X109726100Y-117078010D01*
X101764587Y-106680000D02*
X103389599Y-108305012D01*
X110453001Y-115350773D02*
X110453001Y-116916794D01*
X103407240Y-108305012D02*
X110453001Y-115350773D01*
X101600000Y-106680000D02*
X101764587Y-106680000D01*
X110453001Y-116916794D02*
X110291785Y-117078010D01*
%TO.N,LEFT*%
X111104495Y-120385609D02*
X110707877Y-119988991D01*
X110707877Y-119988991D02*
X109128328Y-119988991D01*
X124878889Y-120412706D02*
X124313204Y-120412706D01*
X109128328Y-119988991D02*
X108594912Y-120522407D01*
X111104495Y-120696797D02*
X111104495Y-120385609D01*
X111634709Y-121227011D02*
X111104495Y-120696797D01*
X123498899Y-121227011D02*
X111634709Y-121227011D01*
X124313204Y-120412706D02*
X123498899Y-121227011D01*
%TO.N,RIGHT*%
X124441001Y-121811999D02*
X111457881Y-121811999D01*
X111457881Y-121811999D02*
X110379493Y-120733611D01*
X124841000Y-121412000D02*
X124441001Y-121811999D01*
D16*
%TO.N,VDD*%
X109982000Y-124079000D02*
X110744000Y-123317000D01*
X110744000Y-123317000D02*
X122174000Y-123317000D01*
X109728000Y-116078000D02*
X109601000Y-116078000D01*
X109601000Y-116078000D02*
X108585000Y-117094000D01*
X108585000Y-117094000D02*
X108585000Y-117729000D01*
X108585000Y-117729000D02*
X108712000Y-117856000D01*
X108712000Y-117856000D02*
X112522000Y-117856000D01*
X99187000Y-115443000D02*
X98425000Y-114681000D01*
X98425000Y-114681000D02*
X98425000Y-109601000D01*
D17*
X100235001Y-105504999D02*
X99060000Y-106680000D01*
X102775001Y-106115999D02*
X102164001Y-105504999D01*
X103575999Y-107855001D02*
X102775001Y-107054003D01*
X104615037Y-107855001D02*
X103575999Y-107855001D01*
X107631036Y-110871000D02*
X104615037Y-107855001D01*
X102775001Y-107054003D02*
X102775001Y-106115999D01*
X102164001Y-105504999D02*
X100235001Y-105504999D01*
X112649000Y-117856000D02*
X115062000Y-120269000D01*
X112522000Y-117856000D02*
X112649000Y-117856000D01*
X115062000Y-120269000D02*
X115637023Y-120269000D01*
X115637023Y-120269000D02*
X116803001Y-119103022D01*
X120164978Y-119103022D02*
X120650000Y-118618000D01*
X116803001Y-119103022D02*
X120164978Y-119103022D01*
%TD*%
D18*
%TO.N,GND*%
G36*
X99810725Y-104870025D02*
G01*
X99695000Y-104964998D01*
X99671202Y-104993996D01*
X99426408Y-105238790D01*
X99206260Y-105195000D01*
X98913740Y-105195000D01*
X98626842Y-105252068D01*
X98356589Y-105364010D01*
X98113368Y-105526525D01*
X97981513Y-105658380D01*
X97959502Y-105585820D01*
X97900537Y-105475506D01*
X97821185Y-105378815D01*
X97724494Y-105299463D01*
X97614180Y-105240498D01*
X97494482Y-105204188D01*
X97370000Y-105191928D01*
X95670000Y-105191928D01*
X95545518Y-105204188D01*
X95425820Y-105240498D01*
X95315506Y-105299463D01*
X95218815Y-105378815D01*
X95139463Y-105475506D01*
X95080498Y-105585820D01*
X95044188Y-105705518D01*
X95031928Y-105830000D01*
X95031928Y-105895000D01*
X92701474Y-105895000D01*
X92593475Y-105733368D01*
X92386632Y-105526525D01*
X92143411Y-105364010D01*
X91873158Y-105252068D01*
X91586260Y-105195000D01*
X91293740Y-105195000D01*
X91006842Y-105252068D01*
X90736589Y-105364010D01*
X90493368Y-105526525D01*
X90361513Y-105658380D01*
X90339502Y-105585820D01*
X90280537Y-105475506D01*
X90201185Y-105378815D01*
X90104494Y-105299463D01*
X89994180Y-105240498D01*
X89874482Y-105204188D01*
X89750000Y-105191928D01*
X88050000Y-105191928D01*
X87925518Y-105204188D01*
X87805820Y-105240498D01*
X87695506Y-105299463D01*
X87598815Y-105378815D01*
X87519463Y-105475506D01*
X87460498Y-105585820D01*
X87424188Y-105705518D01*
X87411928Y-105830000D01*
X87411928Y-107530000D01*
X87424188Y-107654482D01*
X87460498Y-107774180D01*
X87519463Y-107884494D01*
X87598815Y-107981185D01*
X87695506Y-108060537D01*
X87805820Y-108119502D01*
X87925518Y-108155812D01*
X88050000Y-108168072D01*
X89750000Y-108168072D01*
X89874482Y-108155812D01*
X89994180Y-108119502D01*
X90104494Y-108060537D01*
X90201185Y-107981185D01*
X90280537Y-107884494D01*
X90339502Y-107774180D01*
X90361513Y-107701620D01*
X90493368Y-107833475D01*
X90736589Y-107995990D01*
X91006842Y-108107932D01*
X91293740Y-108165000D01*
X91586260Y-108165000D01*
X91873158Y-108107932D01*
X92143411Y-107995990D01*
X92386632Y-107833475D01*
X92593475Y-107626632D01*
X92701474Y-107465000D01*
X95031928Y-107465000D01*
X95031928Y-107530000D01*
X95044188Y-107654482D01*
X95080498Y-107774180D01*
X95139463Y-107884494D01*
X95218815Y-107981185D01*
X95315506Y-108060537D01*
X95425820Y-108119502D01*
X95545518Y-108155812D01*
X95670000Y-108168072D01*
X96897915Y-108168072D01*
X97137654Y-108407811D01*
X97162237Y-108437765D01*
X97281768Y-108535863D01*
X97412564Y-108605774D01*
X97418141Y-108608755D01*
X97566114Y-108653643D01*
X97641027Y-108661021D01*
X97681440Y-108665001D01*
X97681445Y-108665001D01*
X97720001Y-108668798D01*
X97758557Y-108665001D01*
X97980116Y-108665001D01*
X97934744Y-108683795D01*
X97765226Y-108797063D01*
X97621063Y-108941226D01*
X97507795Y-109110744D01*
X97429774Y-109299102D01*
X97390000Y-109499061D01*
X97390000Y-109702939D01*
X97429774Y-109902898D01*
X97507795Y-110091256D01*
X97621063Y-110260774D01*
X97640001Y-110279712D01*
X97640000Y-114642447D01*
X97636203Y-114681000D01*
X97640000Y-114719553D01*
X97640000Y-114719560D01*
X97651359Y-114834886D01*
X97696246Y-114982859D01*
X97769138Y-115119232D01*
X97867236Y-115238764D01*
X97897190Y-115263347D01*
X98152000Y-115518157D01*
X98152000Y-115544939D01*
X98191774Y-115744898D01*
X98269795Y-115933256D01*
X98383063Y-116102774D01*
X98527226Y-116246937D01*
X98696744Y-116360205D01*
X98885102Y-116438226D01*
X99085061Y-116478000D01*
X99288939Y-116478000D01*
X99488898Y-116438226D01*
X99677256Y-116360205D01*
X99846774Y-116246937D01*
X99990937Y-116102774D01*
X100104205Y-115933256D01*
X100182226Y-115744898D01*
X100222000Y-115544939D01*
X100222000Y-115341061D01*
X100182226Y-115141102D01*
X100104205Y-114952744D01*
X99990937Y-114783226D01*
X99846774Y-114639063D01*
X99677256Y-114525795D01*
X99488898Y-114447774D01*
X99288939Y-114408000D01*
X99262157Y-114408000D01*
X99210000Y-114355843D01*
X99210000Y-110279711D01*
X99228937Y-110260774D01*
X99342205Y-110091256D01*
X99420226Y-109902898D01*
X99460000Y-109702939D01*
X99460000Y-109499061D01*
X99420226Y-109299102D01*
X99342205Y-109110744D01*
X99228937Y-108941226D01*
X99084774Y-108797063D01*
X98915256Y-108683795D01*
X98869884Y-108665001D01*
X99172844Y-108665001D01*
X102629843Y-112122000D01*
X102514061Y-112122000D01*
X102314102Y-112161774D01*
X102125744Y-112239795D01*
X101956226Y-112353063D01*
X101812063Y-112497226D01*
X101698795Y-112666744D01*
X101620774Y-112855102D01*
X101581000Y-113055061D01*
X101581000Y-113258939D01*
X101620774Y-113458898D01*
X101698795Y-113647256D01*
X101812063Y-113816774D01*
X101856000Y-113860711D01*
X101856000Y-114262677D01*
X101852324Y-114300000D01*
X101856000Y-114337322D01*
X101856000Y-114337332D01*
X101866997Y-114448985D01*
X101903965Y-114570853D01*
X101910454Y-114592246D01*
X101981026Y-114724276D01*
X102020008Y-114771775D01*
X102075999Y-114840001D01*
X102105002Y-114863804D01*
X102724000Y-115482802D01*
X102724000Y-115544939D01*
X102763774Y-115744898D01*
X102841795Y-115933256D01*
X102955063Y-116102774D01*
X103099226Y-116246937D01*
X103268744Y-116360205D01*
X103457102Y-116438226D01*
X103657061Y-116478000D01*
X103860939Y-116478000D01*
X104060898Y-116438226D01*
X104249256Y-116360205D01*
X104418774Y-116246937D01*
X104562937Y-116102774D01*
X104676205Y-115933256D01*
X104754226Y-115744898D01*
X104794000Y-115544939D01*
X104794000Y-115520801D01*
X106677105Y-117403907D01*
X106700774Y-117522898D01*
X106778795Y-117711256D01*
X106892063Y-117880774D01*
X106936000Y-117924711D01*
X106936001Y-118568447D01*
X106766606Y-118638613D01*
X106597088Y-118751881D01*
X106452925Y-118896044D01*
X106339657Y-119065562D01*
X106261636Y-119253920D01*
X106221862Y-119453879D01*
X106221862Y-119657757D01*
X106261636Y-119857716D01*
X106339657Y-120046074D01*
X106452925Y-120215592D01*
X106597088Y-120359755D01*
X106766606Y-120473023D01*
X106954964Y-120551044D01*
X107154923Y-120590818D01*
X107358801Y-120590818D01*
X107558760Y-120551044D01*
X107559912Y-120550567D01*
X107559912Y-120624346D01*
X107599686Y-120824305D01*
X107677707Y-121012663D01*
X107790975Y-121182181D01*
X107935138Y-121326344D01*
X108104656Y-121439612D01*
X108293014Y-121517633D01*
X108492973Y-121557407D01*
X108696851Y-121557407D01*
X108896810Y-121517633D01*
X109085168Y-121439612D01*
X109254686Y-121326344D01*
X109398849Y-121182181D01*
X109427352Y-121139524D01*
X109462288Y-121223867D01*
X109575556Y-121393385D01*
X109719719Y-121537548D01*
X109889237Y-121650816D01*
X110077595Y-121728837D01*
X110277554Y-121768611D01*
X110339692Y-121768611D01*
X110894082Y-122323002D01*
X110917880Y-122352000D01*
X110946878Y-122375798D01*
X111033604Y-122446973D01*
X111157249Y-122513063D01*
X111165634Y-122517545D01*
X111213287Y-122532000D01*
X110782556Y-122532000D01*
X110744000Y-122528203D01*
X110705444Y-122532000D01*
X110705439Y-122532000D01*
X110665026Y-122535980D01*
X110590113Y-122543358D01*
X110442140Y-122588246D01*
X110305767Y-122661138D01*
X110186236Y-122759236D01*
X110161653Y-122789190D01*
X109906843Y-123044000D01*
X109880061Y-123044000D01*
X109680102Y-123083774D01*
X109491744Y-123161795D01*
X109322226Y-123275063D01*
X109178063Y-123419226D01*
X109064795Y-123588744D01*
X108986774Y-123777102D01*
X108947000Y-123977061D01*
X108947000Y-124180939D01*
X108986774Y-124380898D01*
X109064795Y-124569256D01*
X109178063Y-124738774D01*
X109322226Y-124882937D01*
X109491744Y-124996205D01*
X109680102Y-125074226D01*
X109880061Y-125114000D01*
X110083939Y-125114000D01*
X110283898Y-125074226D01*
X110472256Y-124996205D01*
X110641774Y-124882937D01*
X110785937Y-124738774D01*
X110899205Y-124569256D01*
X110977226Y-124380898D01*
X111017000Y-124180939D01*
X111017000Y-124154157D01*
X111069157Y-124102000D01*
X121495289Y-124102000D01*
X121514226Y-124120937D01*
X121683744Y-124234205D01*
X121872102Y-124312226D01*
X122072061Y-124352000D01*
X122275939Y-124352000D01*
X122475898Y-124312226D01*
X122664256Y-124234205D01*
X122833774Y-124120937D01*
X122977937Y-123976774D01*
X123091205Y-123807256D01*
X123169226Y-123618898D01*
X123209000Y-123418939D01*
X123209000Y-123215061D01*
X123169226Y-123015102D01*
X123091205Y-122826744D01*
X122977937Y-122657226D01*
X122892710Y-122571999D01*
X124403679Y-122571999D01*
X124441001Y-122575675D01*
X124478323Y-122571999D01*
X124478334Y-122571999D01*
X124589987Y-122561002D01*
X124733248Y-122517545D01*
X124865226Y-122447000D01*
X124942939Y-122447000D01*
X125142898Y-122407226D01*
X125331256Y-122329205D01*
X125500774Y-122215937D01*
X125644937Y-122071774D01*
X125758205Y-121902256D01*
X125836226Y-121713898D01*
X125876000Y-121513939D01*
X125876000Y-121310061D01*
X125836226Y-121110102D01*
X125767902Y-120945154D01*
X125796094Y-120902962D01*
X125874115Y-120714604D01*
X125913889Y-120514645D01*
X125913889Y-120310767D01*
X125874115Y-120110808D01*
X125796094Y-119922450D01*
X125682826Y-119752932D01*
X125538663Y-119608769D01*
X125369145Y-119495501D01*
X125180787Y-119417480D01*
X124980828Y-119377706D01*
X124776950Y-119377706D01*
X124576991Y-119417480D01*
X124388633Y-119495501D01*
X124219115Y-119608769D01*
X124164165Y-119663719D01*
X124020957Y-119707160D01*
X123888928Y-119777732D01*
X123773203Y-119872705D01*
X123749405Y-119901704D01*
X123184098Y-120467011D01*
X122550700Y-120467011D01*
X122596937Y-120420774D01*
X122710205Y-120251256D01*
X122788226Y-120062898D01*
X122828000Y-119862939D01*
X122828000Y-119659061D01*
X122788226Y-119459102D01*
X122710205Y-119270744D01*
X122596937Y-119101226D01*
X122452774Y-118957063D01*
X122283256Y-118843795D01*
X122094898Y-118765774D01*
X121894939Y-118726000D01*
X121691061Y-118726000D01*
X121683495Y-118727505D01*
X121685000Y-118719939D01*
X121685000Y-118516061D01*
X121645226Y-118316102D01*
X121567205Y-118127744D01*
X121548668Y-118100000D01*
X128409928Y-118100000D01*
X128409928Y-119500000D01*
X128422188Y-119624482D01*
X128458498Y-119744180D01*
X128517463Y-119854494D01*
X128596815Y-119951185D01*
X128693506Y-120030537D01*
X128803820Y-120089502D01*
X128923518Y-120125812D01*
X129048000Y-120138072D01*
X131048000Y-120138072D01*
X131172482Y-120125812D01*
X131292180Y-120089502D01*
X131402494Y-120030537D01*
X131499185Y-119951185D01*
X131578537Y-119854494D01*
X131637502Y-119744180D01*
X131673812Y-119624482D01*
X131686072Y-119500000D01*
X131686072Y-118800000D01*
X132406541Y-118800000D01*
X132432317Y-119061706D01*
X132508653Y-119313354D01*
X132632618Y-119545275D01*
X132799445Y-119748555D01*
X133002725Y-119915382D01*
X133234646Y-120039347D01*
X133486294Y-120115683D01*
X133682421Y-120135000D01*
X134413579Y-120135000D01*
X134609706Y-120115683D01*
X134861354Y-120039347D01*
X135093275Y-119915382D01*
X135296555Y-119748555D01*
X135463382Y-119545275D01*
X135548000Y-119386967D01*
X135632618Y-119545275D01*
X135799445Y-119748555D01*
X136002725Y-119915382D01*
X136234646Y-120039347D01*
X136486294Y-120115683D01*
X136682421Y-120135000D01*
X137413579Y-120135000D01*
X137609706Y-120115683D01*
X137861354Y-120039347D01*
X138093275Y-119915382D01*
X138296555Y-119748555D01*
X138463382Y-119545275D01*
X138587347Y-119313354D01*
X138663683Y-119061706D01*
X138689459Y-118800000D01*
X138663683Y-118538294D01*
X138587347Y-118286646D01*
X138463382Y-118054725D01*
X138296555Y-117851445D01*
X138093275Y-117684618D01*
X137861354Y-117560653D01*
X137609706Y-117484317D01*
X137413579Y-117465000D01*
X136682421Y-117465000D01*
X136486294Y-117484317D01*
X136234646Y-117560653D01*
X136002725Y-117684618D01*
X135799445Y-117851445D01*
X135632618Y-118054725D01*
X135548000Y-118213033D01*
X135463382Y-118054725D01*
X135296555Y-117851445D01*
X135093275Y-117684618D01*
X134861354Y-117560653D01*
X134609706Y-117484317D01*
X134413579Y-117465000D01*
X133682421Y-117465000D01*
X133486294Y-117484317D01*
X133234646Y-117560653D01*
X133002725Y-117684618D01*
X132799445Y-117851445D01*
X132632618Y-118054725D01*
X132508653Y-118286646D01*
X132432317Y-118538294D01*
X132406541Y-118800000D01*
X131686072Y-118800000D01*
X131686072Y-118100000D01*
X131673812Y-117975518D01*
X131637502Y-117855820D01*
X131578537Y-117745506D01*
X131499185Y-117648815D01*
X131402494Y-117569463D01*
X131292180Y-117510498D01*
X131271225Y-117504141D01*
X131426363Y-117535000D01*
X131669637Y-117535000D01*
X131908236Y-117487540D01*
X132132992Y-117394443D01*
X132335267Y-117259287D01*
X132507287Y-117087267D01*
X132642443Y-116884992D01*
X132735540Y-116660236D01*
X132783000Y-116421637D01*
X132783000Y-116178363D01*
X137313000Y-116178363D01*
X137313000Y-116421637D01*
X137360460Y-116660236D01*
X137453557Y-116884992D01*
X137588713Y-117087267D01*
X137760733Y-117259287D01*
X137963008Y-117394443D01*
X138187764Y-117487540D01*
X138426363Y-117535000D01*
X138669637Y-117535000D01*
X138908236Y-117487540D01*
X139132992Y-117394443D01*
X139335267Y-117259287D01*
X139507287Y-117087267D01*
X139642443Y-116884992D01*
X139735540Y-116660236D01*
X139783000Y-116421637D01*
X139783000Y-116178363D01*
X139735540Y-115939764D01*
X139642443Y-115715008D01*
X139507287Y-115512733D01*
X139335267Y-115340713D01*
X139132992Y-115205557D01*
X138908236Y-115112460D01*
X138669637Y-115065000D01*
X138426363Y-115065000D01*
X138187764Y-115112460D01*
X137963008Y-115205557D01*
X137760733Y-115340713D01*
X137588713Y-115512733D01*
X137453557Y-115715008D01*
X137360460Y-115939764D01*
X137313000Y-116178363D01*
X132783000Y-116178363D01*
X132735540Y-115939764D01*
X132642443Y-115715008D01*
X132507287Y-115512733D01*
X132335267Y-115340713D01*
X132132992Y-115205557D01*
X131908236Y-115112460D01*
X131669637Y-115065000D01*
X131426363Y-115065000D01*
X131187764Y-115112460D01*
X130963008Y-115205557D01*
X130760733Y-115340713D01*
X130588713Y-115512733D01*
X130453557Y-115715008D01*
X130360460Y-115939764D01*
X130313000Y-116178363D01*
X130313000Y-116421637D01*
X130360460Y-116660236D01*
X130453557Y-116884992D01*
X130588713Y-117087267D01*
X130760733Y-117259287D01*
X130963008Y-117394443D01*
X131150241Y-117471998D01*
X131048000Y-117461928D01*
X129048000Y-117461928D01*
X128923518Y-117474188D01*
X128803820Y-117510498D01*
X128693506Y-117569463D01*
X128596815Y-117648815D01*
X128517463Y-117745506D01*
X128458498Y-117855820D01*
X128422188Y-117975518D01*
X128409928Y-118100000D01*
X121548668Y-118100000D01*
X121453937Y-117958226D01*
X121309774Y-117814063D01*
X121140256Y-117700795D01*
X120951898Y-117622774D01*
X120751939Y-117583000D01*
X120548061Y-117583000D01*
X120348102Y-117622774D01*
X120159744Y-117700795D01*
X119990226Y-117814063D01*
X119846063Y-117958226D01*
X119732795Y-118127744D01*
X119654774Y-118316102D01*
X119649419Y-118343022D01*
X117078581Y-118343022D01*
X117073226Y-118316102D01*
X116995205Y-118127744D01*
X116881937Y-117958226D01*
X116759262Y-117835551D01*
X116760898Y-117835226D01*
X116949256Y-117757205D01*
X117118774Y-117643937D01*
X117162711Y-117600000D01*
X118326678Y-117600000D01*
X118364000Y-117603676D01*
X118401322Y-117600000D01*
X118401333Y-117600000D01*
X118512986Y-117589003D01*
X118656247Y-117545546D01*
X118788276Y-117474974D01*
X118904001Y-117380001D01*
X118927804Y-117350998D01*
X119891003Y-116387799D01*
X119920001Y-116364001D01*
X119957745Y-116318010D01*
X120014974Y-116248277D01*
X120085546Y-116116247D01*
X120094488Y-116086769D01*
X120129003Y-115972986D01*
X120140000Y-115861333D01*
X120140000Y-115861323D01*
X120143676Y-115824000D01*
X120140000Y-115786678D01*
X120140000Y-114633329D01*
X126955284Y-114633329D01*
X126966020Y-114693550D01*
X127067431Y-114936090D01*
X127214210Y-115154185D01*
X127400717Y-115339455D01*
X127619785Y-115484779D01*
X127862995Y-115584572D01*
X128121000Y-115635000D01*
X128421000Y-115635000D01*
X128421000Y-114427000D01*
X128675000Y-114427000D01*
X128675000Y-115635000D01*
X128975000Y-115635000D01*
X129233005Y-115584572D01*
X129476215Y-115484779D01*
X129695283Y-115339455D01*
X129881790Y-115154185D01*
X130028569Y-114936090D01*
X130129980Y-114693550D01*
X130140716Y-114633329D01*
X130017374Y-114427000D01*
X128675000Y-114427000D01*
X128421000Y-114427000D01*
X127078626Y-114427000D01*
X126955284Y-114633329D01*
X120140000Y-114633329D01*
X120140000Y-114204721D01*
X120183937Y-114160784D01*
X120297205Y-113991266D01*
X120307392Y-113966671D01*
X126955284Y-113966671D01*
X127078626Y-114173000D01*
X128421000Y-114173000D01*
X128421000Y-112965000D01*
X128675000Y-112965000D01*
X128675000Y-114173000D01*
X130017374Y-114173000D01*
X130140716Y-113966671D01*
X130129980Y-113906450D01*
X130028569Y-113663910D01*
X129881790Y-113445815D01*
X129695283Y-113260545D01*
X129476215Y-113115221D01*
X129233005Y-113015428D01*
X128975000Y-112965000D01*
X128675000Y-112965000D01*
X128421000Y-112965000D01*
X128121000Y-112965000D01*
X127862995Y-113015428D01*
X127619785Y-113115221D01*
X127400717Y-113260545D01*
X127214210Y-113445815D01*
X127067431Y-113663910D01*
X126966020Y-113906450D01*
X126955284Y-113966671D01*
X120307392Y-113966671D01*
X120375226Y-113802908D01*
X120415000Y-113602949D01*
X120415000Y-113399071D01*
X120375226Y-113199112D01*
X120349084Y-113136001D01*
X123615841Y-113136001D01*
X123669795Y-113266256D01*
X123783063Y-113435774D01*
X123927226Y-113579937D01*
X124096744Y-113693205D01*
X124285102Y-113771226D01*
X124485061Y-113811000D01*
X124688939Y-113811000D01*
X124888898Y-113771226D01*
X125077256Y-113693205D01*
X125246774Y-113579937D01*
X125390937Y-113435774D01*
X125504205Y-113266256D01*
X125582226Y-113077898D01*
X125622000Y-112877939D01*
X125622000Y-112674061D01*
X125582226Y-112474102D01*
X125504205Y-112285744D01*
X125390937Y-112116226D01*
X125246774Y-111972063D01*
X125077256Y-111858795D01*
X124888898Y-111780774D01*
X124688939Y-111741000D01*
X124611226Y-111741000D01*
X124479248Y-111670455D01*
X124335987Y-111626998D01*
X124224334Y-111616001D01*
X124224323Y-111616001D01*
X124187001Y-111612325D01*
X124149679Y-111616001D01*
X114610321Y-111616001D01*
X114572998Y-111612325D01*
X114535676Y-111616001D01*
X114535666Y-111616001D01*
X114424013Y-111626998D01*
X114280752Y-111670455D01*
X114148774Y-111741000D01*
X114071061Y-111741000D01*
X113871102Y-111780774D01*
X113682744Y-111858795D01*
X113513226Y-111972063D01*
X113369063Y-112116226D01*
X113342121Y-112156547D01*
X113275886Y-112032632D01*
X113204711Y-111945905D01*
X113180913Y-111916907D01*
X113151916Y-111893110D01*
X109414258Y-108155453D01*
X109653158Y-108107932D01*
X109923411Y-107995990D01*
X110166632Y-107833475D01*
X110373475Y-107626632D01*
X110490000Y-107452240D01*
X110606525Y-107626632D01*
X110813368Y-107833475D01*
X111056589Y-107995990D01*
X111326842Y-108107932D01*
X111613740Y-108165000D01*
X111906260Y-108165000D01*
X112193158Y-108107932D01*
X112463411Y-107995990D01*
X112706632Y-107833475D01*
X112913475Y-107626632D01*
X113030000Y-107452240D01*
X113146525Y-107626632D01*
X113353368Y-107833475D01*
X113596589Y-107995990D01*
X113866842Y-108107932D01*
X114153740Y-108165000D01*
X114446260Y-108165000D01*
X114733158Y-108107932D01*
X115003411Y-107995990D01*
X115246632Y-107833475D01*
X115453475Y-107626632D01*
X115570000Y-107452240D01*
X115686525Y-107626632D01*
X115893368Y-107833475D01*
X116136589Y-107995990D01*
X116406842Y-108107932D01*
X116693740Y-108165000D01*
X116986260Y-108165000D01*
X117273158Y-108107932D01*
X117543411Y-107995990D01*
X117786632Y-107833475D01*
X117993475Y-107626632D01*
X118110000Y-107452240D01*
X118226525Y-107626632D01*
X118433368Y-107833475D01*
X118676589Y-107995990D01*
X118946842Y-108107932D01*
X119233740Y-108165000D01*
X119526260Y-108165000D01*
X119813158Y-108107932D01*
X120083411Y-107995990D01*
X120326632Y-107833475D01*
X120533475Y-107626632D01*
X120650000Y-107452240D01*
X120766525Y-107626632D01*
X120973368Y-107833475D01*
X121216589Y-107995990D01*
X121486842Y-108107932D01*
X121773740Y-108165000D01*
X122066260Y-108165000D01*
X122353158Y-108107932D01*
X122623411Y-107995990D01*
X122866632Y-107833475D01*
X123073475Y-107626632D01*
X123190000Y-107452240D01*
X123306525Y-107626632D01*
X123513368Y-107833475D01*
X123756589Y-107995990D01*
X124026842Y-108107932D01*
X124313740Y-108165000D01*
X124606260Y-108165000D01*
X124893158Y-108107932D01*
X125163411Y-107995990D01*
X125406632Y-107833475D01*
X125613475Y-107626632D01*
X125730000Y-107452240D01*
X125846525Y-107626632D01*
X126053368Y-107833475D01*
X126296589Y-107995990D01*
X126566842Y-108107932D01*
X126853740Y-108165000D01*
X127146260Y-108165000D01*
X127433158Y-108107932D01*
X127703411Y-107995990D01*
X127946632Y-107833475D01*
X128153475Y-107626632D01*
X128275195Y-107444466D01*
X128344822Y-107561355D01*
X128539731Y-107777588D01*
X128773080Y-107951641D01*
X129035901Y-108076825D01*
X129183110Y-108121476D01*
X129413000Y-108000155D01*
X129413000Y-106807000D01*
X129667000Y-106807000D01*
X129667000Y-108000155D01*
X129896890Y-108121476D01*
X130044099Y-108076825D01*
X130306920Y-107951641D01*
X130540269Y-107777588D01*
X130735178Y-107561355D01*
X130884157Y-107311252D01*
X130981481Y-107036891D01*
X130860814Y-106807000D01*
X129667000Y-106807000D01*
X129413000Y-106807000D01*
X129393000Y-106807000D01*
X129393000Y-106553000D01*
X129413000Y-106553000D01*
X129413000Y-105359845D01*
X129667000Y-105359845D01*
X129667000Y-106553000D01*
X130860814Y-106553000D01*
X130981481Y-106323109D01*
X130884157Y-106048748D01*
X130735178Y-105798645D01*
X130540269Y-105582412D01*
X130306920Y-105408359D01*
X130044099Y-105283175D01*
X129896890Y-105238524D01*
X129667000Y-105359845D01*
X129413000Y-105359845D01*
X129183110Y-105238524D01*
X129035901Y-105283175D01*
X128773080Y-105408359D01*
X128539731Y-105582412D01*
X128344822Y-105798645D01*
X128275195Y-105915534D01*
X128153475Y-105733368D01*
X127946632Y-105526525D01*
X127703411Y-105364010D01*
X127433158Y-105252068D01*
X127146260Y-105195000D01*
X126853740Y-105195000D01*
X126566842Y-105252068D01*
X126296589Y-105364010D01*
X126053368Y-105526525D01*
X125846525Y-105733368D01*
X125730000Y-105907760D01*
X125613475Y-105733368D01*
X125406632Y-105526525D01*
X125163411Y-105364010D01*
X124893158Y-105252068D01*
X124606260Y-105195000D01*
X124313740Y-105195000D01*
X124026842Y-105252068D01*
X123756589Y-105364010D01*
X123513368Y-105526525D01*
X123306525Y-105733368D01*
X123190000Y-105907760D01*
X123073475Y-105733368D01*
X122866632Y-105526525D01*
X122623411Y-105364010D01*
X122353158Y-105252068D01*
X122066260Y-105195000D01*
X121773740Y-105195000D01*
X121486842Y-105252068D01*
X121216589Y-105364010D01*
X120973368Y-105526525D01*
X120766525Y-105733368D01*
X120650000Y-105907760D01*
X120533475Y-105733368D01*
X120326632Y-105526525D01*
X120083411Y-105364010D01*
X119813158Y-105252068D01*
X119526260Y-105195000D01*
X119233740Y-105195000D01*
X118946842Y-105252068D01*
X118676589Y-105364010D01*
X118433368Y-105526525D01*
X118226525Y-105733368D01*
X118110000Y-105907760D01*
X117993475Y-105733368D01*
X117786632Y-105526525D01*
X117543411Y-105364010D01*
X117273158Y-105252068D01*
X116986260Y-105195000D01*
X116693740Y-105195000D01*
X116406842Y-105252068D01*
X116136589Y-105364010D01*
X115893368Y-105526525D01*
X115686525Y-105733368D01*
X115570000Y-105907760D01*
X115453475Y-105733368D01*
X115246632Y-105526525D01*
X115003411Y-105364010D01*
X114733158Y-105252068D01*
X114446260Y-105195000D01*
X114153740Y-105195000D01*
X113866842Y-105252068D01*
X113596589Y-105364010D01*
X113353368Y-105526525D01*
X113146525Y-105733368D01*
X113030000Y-105907760D01*
X112913475Y-105733368D01*
X112706632Y-105526525D01*
X112463411Y-105364010D01*
X112193158Y-105252068D01*
X111906260Y-105195000D01*
X111613740Y-105195000D01*
X111326842Y-105252068D01*
X111056589Y-105364010D01*
X110813368Y-105526525D01*
X110606525Y-105733368D01*
X110490000Y-105907760D01*
X110373475Y-105733368D01*
X110166632Y-105526525D01*
X109923411Y-105364010D01*
X109653158Y-105252068D01*
X109366260Y-105195000D01*
X109073740Y-105195000D01*
X108786842Y-105252068D01*
X108516589Y-105364010D01*
X108273368Y-105526525D01*
X108066525Y-105733368D01*
X107950000Y-105907760D01*
X107833475Y-105733368D01*
X107626632Y-105526525D01*
X107383411Y-105364010D01*
X107113158Y-105252068D01*
X106826260Y-105195000D01*
X106533740Y-105195000D01*
X106246842Y-105252068D01*
X105976589Y-105364010D01*
X105733368Y-105526525D01*
X105526525Y-105733368D01*
X105410000Y-105907760D01*
X105293475Y-105733368D01*
X105086632Y-105526525D01*
X104843411Y-105364010D01*
X104573158Y-105252068D01*
X104286260Y-105195000D01*
X103993740Y-105195000D01*
X103706842Y-105252068D01*
X103436589Y-105364010D01*
X103233509Y-105499704D01*
X102727804Y-104994001D01*
X102704002Y-104964998D01*
X102588277Y-104870025D01*
X102457271Y-104800000D01*
X140437000Y-104800000D01*
X140437001Y-106647581D01*
X140437000Y-126905418D01*
X140437001Y-126905428D01*
X140437000Y-128372000D01*
X130096219Y-128372000D01*
X130306920Y-128271641D01*
X130540269Y-128097588D01*
X130735178Y-127881355D01*
X130884157Y-127631252D01*
X130981481Y-127356891D01*
X130860814Y-127127000D01*
X129667000Y-127127000D01*
X129667000Y-127147000D01*
X129413000Y-127147000D01*
X129413000Y-127127000D01*
X129393000Y-127127000D01*
X129393000Y-126873000D01*
X129413000Y-126873000D01*
X129413000Y-125679845D01*
X129667000Y-125679845D01*
X129667000Y-126873000D01*
X130860814Y-126873000D01*
X130981481Y-126643109D01*
X130884157Y-126368748D01*
X130735178Y-126118645D01*
X130540269Y-125902412D01*
X130306920Y-125728359D01*
X130044099Y-125603175D01*
X129896890Y-125558524D01*
X129667000Y-125679845D01*
X129413000Y-125679845D01*
X129183110Y-125558524D01*
X129035901Y-125603175D01*
X128773080Y-125728359D01*
X128539731Y-125902412D01*
X128344822Y-126118645D01*
X128275195Y-126235534D01*
X128153475Y-126053368D01*
X127946632Y-125846525D01*
X127703411Y-125684010D01*
X127433158Y-125572068D01*
X127146260Y-125515000D01*
X126853740Y-125515000D01*
X126566842Y-125572068D01*
X126296589Y-125684010D01*
X126053368Y-125846525D01*
X125846525Y-126053368D01*
X125730000Y-126227760D01*
X125613475Y-126053368D01*
X125406632Y-125846525D01*
X125163411Y-125684010D01*
X124893158Y-125572068D01*
X124606260Y-125515000D01*
X124313740Y-125515000D01*
X124026842Y-125572068D01*
X123756589Y-125684010D01*
X123513368Y-125846525D01*
X123306525Y-126053368D01*
X123190000Y-126227760D01*
X123073475Y-126053368D01*
X122866632Y-125846525D01*
X122623411Y-125684010D01*
X122353158Y-125572068D01*
X122066260Y-125515000D01*
X121773740Y-125515000D01*
X121486842Y-125572068D01*
X121216589Y-125684010D01*
X120973368Y-125846525D01*
X120766525Y-126053368D01*
X120650000Y-126227760D01*
X120533475Y-126053368D01*
X120326632Y-125846525D01*
X120083411Y-125684010D01*
X119813158Y-125572068D01*
X119526260Y-125515000D01*
X119233740Y-125515000D01*
X118946842Y-125572068D01*
X118676589Y-125684010D01*
X118433368Y-125846525D01*
X118226525Y-126053368D01*
X118110000Y-126227760D01*
X117993475Y-126053368D01*
X117786632Y-125846525D01*
X117543411Y-125684010D01*
X117273158Y-125572068D01*
X116986260Y-125515000D01*
X116693740Y-125515000D01*
X116406842Y-125572068D01*
X116136589Y-125684010D01*
X115893368Y-125846525D01*
X115686525Y-126053368D01*
X115570000Y-126227760D01*
X115453475Y-126053368D01*
X115246632Y-125846525D01*
X115003411Y-125684010D01*
X114733158Y-125572068D01*
X114446260Y-125515000D01*
X114153740Y-125515000D01*
X113866842Y-125572068D01*
X113596589Y-125684010D01*
X113353368Y-125846525D01*
X113146525Y-126053368D01*
X113030000Y-126227760D01*
X112913475Y-126053368D01*
X112706632Y-125846525D01*
X112463411Y-125684010D01*
X112193158Y-125572068D01*
X111906260Y-125515000D01*
X111613740Y-125515000D01*
X111326842Y-125572068D01*
X111056589Y-125684010D01*
X110813368Y-125846525D01*
X110606525Y-126053368D01*
X110490000Y-126227760D01*
X110373475Y-126053368D01*
X110166632Y-125846525D01*
X109923411Y-125684010D01*
X109653158Y-125572068D01*
X109366260Y-125515000D01*
X109073740Y-125515000D01*
X108786842Y-125572068D01*
X108516589Y-125684010D01*
X108273368Y-125846525D01*
X108066525Y-126053368D01*
X107950000Y-126227760D01*
X107833475Y-126053368D01*
X107626632Y-125846525D01*
X107383411Y-125684010D01*
X107113158Y-125572068D01*
X106826260Y-125515000D01*
X106533740Y-125515000D01*
X106246842Y-125572068D01*
X105976589Y-125684010D01*
X105733368Y-125846525D01*
X105526525Y-126053368D01*
X105410000Y-126227760D01*
X105293475Y-126053368D01*
X105086632Y-125846525D01*
X104843411Y-125684010D01*
X104573158Y-125572068D01*
X104286260Y-125515000D01*
X103993740Y-125515000D01*
X103706842Y-125572068D01*
X103436589Y-125684010D01*
X103193368Y-125846525D01*
X102986525Y-126053368D01*
X102870000Y-126227760D01*
X102753475Y-126053368D01*
X102546632Y-125846525D01*
X102303411Y-125684010D01*
X102033158Y-125572068D01*
X101746260Y-125515000D01*
X101453740Y-125515000D01*
X101166842Y-125572068D01*
X100896589Y-125684010D01*
X100653368Y-125846525D01*
X100446525Y-126053368D01*
X100330000Y-126227760D01*
X100213475Y-126053368D01*
X100006632Y-125846525D01*
X99763411Y-125684010D01*
X99493158Y-125572068D01*
X99206260Y-125515000D01*
X98913740Y-125515000D01*
X98626842Y-125572068D01*
X98356589Y-125684010D01*
X98113368Y-125846525D01*
X97981513Y-125978380D01*
X97959502Y-125905820D01*
X97900537Y-125795506D01*
X97821185Y-125698815D01*
X97724494Y-125619463D01*
X97614180Y-125560498D01*
X97494482Y-125524188D01*
X97370000Y-125511928D01*
X95670000Y-125511928D01*
X95545518Y-125524188D01*
X95425820Y-125560498D01*
X95315506Y-125619463D01*
X95218815Y-125698815D01*
X95139463Y-125795506D01*
X95080498Y-125905820D01*
X95044188Y-126025518D01*
X95031928Y-126150000D01*
X95031928Y-127850000D01*
X95044188Y-127974482D01*
X95080498Y-128094180D01*
X95139463Y-128204494D01*
X95218815Y-128301185D01*
X95305104Y-128372000D01*
X85877000Y-128372000D01*
X85877000Y-121003317D01*
X86031600Y-121050215D01*
X86202021Y-121067000D01*
X87165979Y-121067000D01*
X87336400Y-121050215D01*
X87555060Y-120983885D01*
X87756579Y-120876171D01*
X87933212Y-120731212D01*
X88078171Y-120554579D01*
X88185885Y-120353060D01*
X88252215Y-120134400D01*
X88274612Y-119907000D01*
X88252215Y-119679600D01*
X88185885Y-119460940D01*
X88078171Y-119259421D01*
X87933212Y-119082788D01*
X87756579Y-118937829D01*
X87555060Y-118830115D01*
X87336400Y-118763785D01*
X87165979Y-118747000D01*
X86202021Y-118747000D01*
X86031600Y-118763785D01*
X85877000Y-118810683D01*
X85877000Y-114010062D01*
X89709001Y-114010062D01*
X89709001Y-114213940D01*
X89748775Y-114413899D01*
X89826796Y-114602257D01*
X89940064Y-114771775D01*
X89959002Y-114790713D01*
X89959001Y-116486448D01*
X89955204Y-116525001D01*
X89959001Y-116563554D01*
X89959001Y-116563561D01*
X89970360Y-116678887D01*
X90015247Y-116826860D01*
X90088139Y-116963233D01*
X90186237Y-117082765D01*
X90216191Y-117107348D01*
X91167000Y-118058158D01*
X91167000Y-118084939D01*
X91206774Y-118284898D01*
X91284795Y-118473256D01*
X91398063Y-118642774D01*
X91542226Y-118786937D01*
X91711744Y-118900205D01*
X91900102Y-118978226D01*
X92100061Y-119018000D01*
X92303939Y-119018000D01*
X92503898Y-118978226D01*
X92692256Y-118900205D01*
X92861774Y-118786937D01*
X93005937Y-118642774D01*
X93119205Y-118473256D01*
X93197226Y-118284898D01*
X93237000Y-118084939D01*
X93237000Y-117881061D01*
X93197226Y-117681102D01*
X93119205Y-117492744D01*
X93005937Y-117323226D01*
X92861774Y-117179063D01*
X92692256Y-117065795D01*
X92503898Y-116987774D01*
X92303939Y-116948000D01*
X92277158Y-116948000D01*
X91529001Y-116199844D01*
X91529001Y-114790712D01*
X91547938Y-114771775D01*
X91661206Y-114602257D01*
X91739227Y-114413899D01*
X91779001Y-114213940D01*
X91779001Y-114010062D01*
X91739227Y-113810103D01*
X91661206Y-113621745D01*
X91547938Y-113452227D01*
X91403775Y-113308064D01*
X91234257Y-113194796D01*
X91045899Y-113116775D01*
X90845940Y-113077001D01*
X90642062Y-113077001D01*
X90442103Y-113116775D01*
X90253745Y-113194796D01*
X90084227Y-113308064D01*
X89940064Y-113452227D01*
X89826796Y-113621745D01*
X89748775Y-113810103D01*
X89709001Y-114010062D01*
X85877000Y-114010062D01*
X85877000Y-113853317D01*
X86031600Y-113900215D01*
X86202021Y-113917000D01*
X87165979Y-113917000D01*
X87336400Y-113900215D01*
X87555060Y-113833885D01*
X87756579Y-113726171D01*
X87933212Y-113581212D01*
X88078171Y-113404579D01*
X88185885Y-113203060D01*
X88252215Y-112984400D01*
X88274612Y-112757000D01*
X88252215Y-112529600D01*
X88185885Y-112310940D01*
X88078171Y-112109421D01*
X87933212Y-111932788D01*
X87756579Y-111787829D01*
X87555060Y-111680115D01*
X87336400Y-111613785D01*
X87165979Y-111597000D01*
X86202021Y-111597000D01*
X86031600Y-111613785D01*
X85877000Y-111660683D01*
X85877000Y-104800000D01*
X99941731Y-104800000D01*
X99810725Y-104870025D01*
G37*
X99810725Y-104870025D02*
X99695000Y-104964998D01*
X99671202Y-104993996D01*
X99426408Y-105238790D01*
X99206260Y-105195000D01*
X98913740Y-105195000D01*
X98626842Y-105252068D01*
X98356589Y-105364010D01*
X98113368Y-105526525D01*
X97981513Y-105658380D01*
X97959502Y-105585820D01*
X97900537Y-105475506D01*
X97821185Y-105378815D01*
X97724494Y-105299463D01*
X97614180Y-105240498D01*
X97494482Y-105204188D01*
X97370000Y-105191928D01*
X95670000Y-105191928D01*
X95545518Y-105204188D01*
X95425820Y-105240498D01*
X95315506Y-105299463D01*
X95218815Y-105378815D01*
X95139463Y-105475506D01*
X95080498Y-105585820D01*
X95044188Y-105705518D01*
X95031928Y-105830000D01*
X95031928Y-105895000D01*
X92701474Y-105895000D01*
X92593475Y-105733368D01*
X92386632Y-105526525D01*
X92143411Y-105364010D01*
X91873158Y-105252068D01*
X91586260Y-105195000D01*
X91293740Y-105195000D01*
X91006842Y-105252068D01*
X90736589Y-105364010D01*
X90493368Y-105526525D01*
X90361513Y-105658380D01*
X90339502Y-105585820D01*
X90280537Y-105475506D01*
X90201185Y-105378815D01*
X90104494Y-105299463D01*
X89994180Y-105240498D01*
X89874482Y-105204188D01*
X89750000Y-105191928D01*
X88050000Y-105191928D01*
X87925518Y-105204188D01*
X87805820Y-105240498D01*
X87695506Y-105299463D01*
X87598815Y-105378815D01*
X87519463Y-105475506D01*
X87460498Y-105585820D01*
X87424188Y-105705518D01*
X87411928Y-105830000D01*
X87411928Y-107530000D01*
X87424188Y-107654482D01*
X87460498Y-107774180D01*
X87519463Y-107884494D01*
X87598815Y-107981185D01*
X87695506Y-108060537D01*
X87805820Y-108119502D01*
X87925518Y-108155812D01*
X88050000Y-108168072D01*
X89750000Y-108168072D01*
X89874482Y-108155812D01*
X89994180Y-108119502D01*
X90104494Y-108060537D01*
X90201185Y-107981185D01*
X90280537Y-107884494D01*
X90339502Y-107774180D01*
X90361513Y-107701620D01*
X90493368Y-107833475D01*
X90736589Y-107995990D01*
X91006842Y-108107932D01*
X91293740Y-108165000D01*
X91586260Y-108165000D01*
X91873158Y-108107932D01*
X92143411Y-107995990D01*
X92386632Y-107833475D01*
X92593475Y-107626632D01*
X92701474Y-107465000D01*
X95031928Y-107465000D01*
X95031928Y-107530000D01*
X95044188Y-107654482D01*
X95080498Y-107774180D01*
X95139463Y-107884494D01*
X95218815Y-107981185D01*
X95315506Y-108060537D01*
X95425820Y-108119502D01*
X95545518Y-108155812D01*
X95670000Y-108168072D01*
X96897915Y-108168072D01*
X97137654Y-108407811D01*
X97162237Y-108437765D01*
X97281768Y-108535863D01*
X97412564Y-108605774D01*
X97418141Y-108608755D01*
X97566114Y-108653643D01*
X97641027Y-108661021D01*
X97681440Y-108665001D01*
X97681445Y-108665001D01*
X97720001Y-108668798D01*
X97758557Y-108665001D01*
X97980116Y-108665001D01*
X97934744Y-108683795D01*
X97765226Y-108797063D01*
X97621063Y-108941226D01*
X97507795Y-109110744D01*
X97429774Y-109299102D01*
X97390000Y-109499061D01*
X97390000Y-109702939D01*
X97429774Y-109902898D01*
X97507795Y-110091256D01*
X97621063Y-110260774D01*
X97640001Y-110279712D01*
X97640000Y-114642447D01*
X97636203Y-114681000D01*
X97640000Y-114719553D01*
X97640000Y-114719560D01*
X97651359Y-114834886D01*
X97696246Y-114982859D01*
X97769138Y-115119232D01*
X97867236Y-115238764D01*
X97897190Y-115263347D01*
X98152000Y-115518157D01*
X98152000Y-115544939D01*
X98191774Y-115744898D01*
X98269795Y-115933256D01*
X98383063Y-116102774D01*
X98527226Y-116246937D01*
X98696744Y-116360205D01*
X98885102Y-116438226D01*
X99085061Y-116478000D01*
X99288939Y-116478000D01*
X99488898Y-116438226D01*
X99677256Y-116360205D01*
X99846774Y-116246937D01*
X99990937Y-116102774D01*
X100104205Y-115933256D01*
X100182226Y-115744898D01*
X100222000Y-115544939D01*
X100222000Y-115341061D01*
X100182226Y-115141102D01*
X100104205Y-114952744D01*
X99990937Y-114783226D01*
X99846774Y-114639063D01*
X99677256Y-114525795D01*
X99488898Y-114447774D01*
X99288939Y-114408000D01*
X99262157Y-114408000D01*
X99210000Y-114355843D01*
X99210000Y-110279711D01*
X99228937Y-110260774D01*
X99342205Y-110091256D01*
X99420226Y-109902898D01*
X99460000Y-109702939D01*
X99460000Y-109499061D01*
X99420226Y-109299102D01*
X99342205Y-109110744D01*
X99228937Y-108941226D01*
X99084774Y-108797063D01*
X98915256Y-108683795D01*
X98869884Y-108665001D01*
X99172844Y-108665001D01*
X102629843Y-112122000D01*
X102514061Y-112122000D01*
X102314102Y-112161774D01*
X102125744Y-112239795D01*
X101956226Y-112353063D01*
X101812063Y-112497226D01*
X101698795Y-112666744D01*
X101620774Y-112855102D01*
X101581000Y-113055061D01*
X101581000Y-113258939D01*
X101620774Y-113458898D01*
X101698795Y-113647256D01*
X101812063Y-113816774D01*
X101856000Y-113860711D01*
X101856000Y-114262677D01*
X101852324Y-114300000D01*
X101856000Y-114337322D01*
X101856000Y-114337332D01*
X101866997Y-114448985D01*
X101903965Y-114570853D01*
X101910454Y-114592246D01*
X101981026Y-114724276D01*
X102020008Y-114771775D01*
X102075999Y-114840001D01*
X102105002Y-114863804D01*
X102724000Y-115482802D01*
X102724000Y-115544939D01*
X102763774Y-115744898D01*
X102841795Y-115933256D01*
X102955063Y-116102774D01*
X103099226Y-116246937D01*
X103268744Y-116360205D01*
X103457102Y-116438226D01*
X103657061Y-116478000D01*
X103860939Y-116478000D01*
X104060898Y-116438226D01*
X104249256Y-116360205D01*
X104418774Y-116246937D01*
X104562937Y-116102774D01*
X104676205Y-115933256D01*
X104754226Y-115744898D01*
X104794000Y-115544939D01*
X104794000Y-115520801D01*
X106677105Y-117403907D01*
X106700774Y-117522898D01*
X106778795Y-117711256D01*
X106892063Y-117880774D01*
X106936000Y-117924711D01*
X106936001Y-118568447D01*
X106766606Y-118638613D01*
X106597088Y-118751881D01*
X106452925Y-118896044D01*
X106339657Y-119065562D01*
X106261636Y-119253920D01*
X106221862Y-119453879D01*
X106221862Y-119657757D01*
X106261636Y-119857716D01*
X106339657Y-120046074D01*
X106452925Y-120215592D01*
X106597088Y-120359755D01*
X106766606Y-120473023D01*
X106954964Y-120551044D01*
X107154923Y-120590818D01*
X107358801Y-120590818D01*
X107558760Y-120551044D01*
X107559912Y-120550567D01*
X107559912Y-120624346D01*
X107599686Y-120824305D01*
X107677707Y-121012663D01*
X107790975Y-121182181D01*
X107935138Y-121326344D01*
X108104656Y-121439612D01*
X108293014Y-121517633D01*
X108492973Y-121557407D01*
X108696851Y-121557407D01*
X108896810Y-121517633D01*
X109085168Y-121439612D01*
X109254686Y-121326344D01*
X109398849Y-121182181D01*
X109427352Y-121139524D01*
X109462288Y-121223867D01*
X109575556Y-121393385D01*
X109719719Y-121537548D01*
X109889237Y-121650816D01*
X110077595Y-121728837D01*
X110277554Y-121768611D01*
X110339692Y-121768611D01*
X110894082Y-122323002D01*
X110917880Y-122352000D01*
X110946878Y-122375798D01*
X111033604Y-122446973D01*
X111157249Y-122513063D01*
X111165634Y-122517545D01*
X111213287Y-122532000D01*
X110782556Y-122532000D01*
X110744000Y-122528203D01*
X110705444Y-122532000D01*
X110705439Y-122532000D01*
X110665026Y-122535980D01*
X110590113Y-122543358D01*
X110442140Y-122588246D01*
X110305767Y-122661138D01*
X110186236Y-122759236D01*
X110161653Y-122789190D01*
X109906843Y-123044000D01*
X109880061Y-123044000D01*
X109680102Y-123083774D01*
X109491744Y-123161795D01*
X109322226Y-123275063D01*
X109178063Y-123419226D01*
X109064795Y-123588744D01*
X108986774Y-123777102D01*
X108947000Y-123977061D01*
X108947000Y-124180939D01*
X108986774Y-124380898D01*
X109064795Y-124569256D01*
X109178063Y-124738774D01*
X109322226Y-124882937D01*
X109491744Y-124996205D01*
X109680102Y-125074226D01*
X109880061Y-125114000D01*
X110083939Y-125114000D01*
X110283898Y-125074226D01*
X110472256Y-124996205D01*
X110641774Y-124882937D01*
X110785937Y-124738774D01*
X110899205Y-124569256D01*
X110977226Y-124380898D01*
X111017000Y-124180939D01*
X111017000Y-124154157D01*
X111069157Y-124102000D01*
X121495289Y-124102000D01*
X121514226Y-124120937D01*
X121683744Y-124234205D01*
X121872102Y-124312226D01*
X122072061Y-124352000D01*
X122275939Y-124352000D01*
X122475898Y-124312226D01*
X122664256Y-124234205D01*
X122833774Y-124120937D01*
X122977937Y-123976774D01*
X123091205Y-123807256D01*
X123169226Y-123618898D01*
X123209000Y-123418939D01*
X123209000Y-123215061D01*
X123169226Y-123015102D01*
X123091205Y-122826744D01*
X122977937Y-122657226D01*
X122892710Y-122571999D01*
X124403679Y-122571999D01*
X124441001Y-122575675D01*
X124478323Y-122571999D01*
X124478334Y-122571999D01*
X124589987Y-122561002D01*
X124733248Y-122517545D01*
X124865226Y-122447000D01*
X124942939Y-122447000D01*
X125142898Y-122407226D01*
X125331256Y-122329205D01*
X125500774Y-122215937D01*
X125644937Y-122071774D01*
X125758205Y-121902256D01*
X125836226Y-121713898D01*
X125876000Y-121513939D01*
X125876000Y-121310061D01*
X125836226Y-121110102D01*
X125767902Y-120945154D01*
X125796094Y-120902962D01*
X125874115Y-120714604D01*
X125913889Y-120514645D01*
X125913889Y-120310767D01*
X125874115Y-120110808D01*
X125796094Y-119922450D01*
X125682826Y-119752932D01*
X125538663Y-119608769D01*
X125369145Y-119495501D01*
X125180787Y-119417480D01*
X124980828Y-119377706D01*
X124776950Y-119377706D01*
X124576991Y-119417480D01*
X124388633Y-119495501D01*
X124219115Y-119608769D01*
X124164165Y-119663719D01*
X124020957Y-119707160D01*
X123888928Y-119777732D01*
X123773203Y-119872705D01*
X123749405Y-119901704D01*
X123184098Y-120467011D01*
X122550700Y-120467011D01*
X122596937Y-120420774D01*
X122710205Y-120251256D01*
X122788226Y-120062898D01*
X122828000Y-119862939D01*
X122828000Y-119659061D01*
X122788226Y-119459102D01*
X122710205Y-119270744D01*
X122596937Y-119101226D01*
X122452774Y-118957063D01*
X122283256Y-118843795D01*
X122094898Y-118765774D01*
X121894939Y-118726000D01*
X121691061Y-118726000D01*
X121683495Y-118727505D01*
X121685000Y-118719939D01*
X121685000Y-118516061D01*
X121645226Y-118316102D01*
X121567205Y-118127744D01*
X121548668Y-118100000D01*
X128409928Y-118100000D01*
X128409928Y-119500000D01*
X128422188Y-119624482D01*
X128458498Y-119744180D01*
X128517463Y-119854494D01*
X128596815Y-119951185D01*
X128693506Y-120030537D01*
X128803820Y-120089502D01*
X128923518Y-120125812D01*
X129048000Y-120138072D01*
X131048000Y-120138072D01*
X131172482Y-120125812D01*
X131292180Y-120089502D01*
X131402494Y-120030537D01*
X131499185Y-119951185D01*
X131578537Y-119854494D01*
X131637502Y-119744180D01*
X131673812Y-119624482D01*
X131686072Y-119500000D01*
X131686072Y-118800000D01*
X132406541Y-118800000D01*
X132432317Y-119061706D01*
X132508653Y-119313354D01*
X132632618Y-119545275D01*
X132799445Y-119748555D01*
X133002725Y-119915382D01*
X133234646Y-120039347D01*
X133486294Y-120115683D01*
X133682421Y-120135000D01*
X134413579Y-120135000D01*
X134609706Y-120115683D01*
X134861354Y-120039347D01*
X135093275Y-119915382D01*
X135296555Y-119748555D01*
X135463382Y-119545275D01*
X135548000Y-119386967D01*
X135632618Y-119545275D01*
X135799445Y-119748555D01*
X136002725Y-119915382D01*
X136234646Y-120039347D01*
X136486294Y-120115683D01*
X136682421Y-120135000D01*
X137413579Y-120135000D01*
X137609706Y-120115683D01*
X137861354Y-120039347D01*
X138093275Y-119915382D01*
X138296555Y-119748555D01*
X138463382Y-119545275D01*
X138587347Y-119313354D01*
X138663683Y-119061706D01*
X138689459Y-118800000D01*
X138663683Y-118538294D01*
X138587347Y-118286646D01*
X138463382Y-118054725D01*
X138296555Y-117851445D01*
X138093275Y-117684618D01*
X137861354Y-117560653D01*
X137609706Y-117484317D01*
X137413579Y-117465000D01*
X136682421Y-117465000D01*
X136486294Y-117484317D01*
X136234646Y-117560653D01*
X136002725Y-117684618D01*
X135799445Y-117851445D01*
X135632618Y-118054725D01*
X135548000Y-118213033D01*
X135463382Y-118054725D01*
X135296555Y-117851445D01*
X135093275Y-117684618D01*
X134861354Y-117560653D01*
X134609706Y-117484317D01*
X134413579Y-117465000D01*
X133682421Y-117465000D01*
X133486294Y-117484317D01*
X133234646Y-117560653D01*
X133002725Y-117684618D01*
X132799445Y-117851445D01*
X132632618Y-118054725D01*
X132508653Y-118286646D01*
X132432317Y-118538294D01*
X132406541Y-118800000D01*
X131686072Y-118800000D01*
X131686072Y-118100000D01*
X131673812Y-117975518D01*
X131637502Y-117855820D01*
X131578537Y-117745506D01*
X131499185Y-117648815D01*
X131402494Y-117569463D01*
X131292180Y-117510498D01*
X131271225Y-117504141D01*
X131426363Y-117535000D01*
X131669637Y-117535000D01*
X131908236Y-117487540D01*
X132132992Y-117394443D01*
X132335267Y-117259287D01*
X132507287Y-117087267D01*
X132642443Y-116884992D01*
X132735540Y-116660236D01*
X132783000Y-116421637D01*
X132783000Y-116178363D01*
X137313000Y-116178363D01*
X137313000Y-116421637D01*
X137360460Y-116660236D01*
X137453557Y-116884992D01*
X137588713Y-117087267D01*
X137760733Y-117259287D01*
X137963008Y-117394443D01*
X138187764Y-117487540D01*
X138426363Y-117535000D01*
X138669637Y-117535000D01*
X138908236Y-117487540D01*
X139132992Y-117394443D01*
X139335267Y-117259287D01*
X139507287Y-117087267D01*
X139642443Y-116884992D01*
X139735540Y-116660236D01*
X139783000Y-116421637D01*
X139783000Y-116178363D01*
X139735540Y-115939764D01*
X139642443Y-115715008D01*
X139507287Y-115512733D01*
X139335267Y-115340713D01*
X139132992Y-115205557D01*
X138908236Y-115112460D01*
X138669637Y-115065000D01*
X138426363Y-115065000D01*
X138187764Y-115112460D01*
X137963008Y-115205557D01*
X137760733Y-115340713D01*
X137588713Y-115512733D01*
X137453557Y-115715008D01*
X137360460Y-115939764D01*
X137313000Y-116178363D01*
X132783000Y-116178363D01*
X132735540Y-115939764D01*
X132642443Y-115715008D01*
X132507287Y-115512733D01*
X132335267Y-115340713D01*
X132132992Y-115205557D01*
X131908236Y-115112460D01*
X131669637Y-115065000D01*
X131426363Y-115065000D01*
X131187764Y-115112460D01*
X130963008Y-115205557D01*
X130760733Y-115340713D01*
X130588713Y-115512733D01*
X130453557Y-115715008D01*
X130360460Y-115939764D01*
X130313000Y-116178363D01*
X130313000Y-116421637D01*
X130360460Y-116660236D01*
X130453557Y-116884992D01*
X130588713Y-117087267D01*
X130760733Y-117259287D01*
X130963008Y-117394443D01*
X131150241Y-117471998D01*
X131048000Y-117461928D01*
X129048000Y-117461928D01*
X128923518Y-117474188D01*
X128803820Y-117510498D01*
X128693506Y-117569463D01*
X128596815Y-117648815D01*
X128517463Y-117745506D01*
X128458498Y-117855820D01*
X128422188Y-117975518D01*
X128409928Y-118100000D01*
X121548668Y-118100000D01*
X121453937Y-117958226D01*
X121309774Y-117814063D01*
X121140256Y-117700795D01*
X120951898Y-117622774D01*
X120751939Y-117583000D01*
X120548061Y-117583000D01*
X120348102Y-117622774D01*
X120159744Y-117700795D01*
X119990226Y-117814063D01*
X119846063Y-117958226D01*
X119732795Y-118127744D01*
X119654774Y-118316102D01*
X119649419Y-118343022D01*
X117078581Y-118343022D01*
X117073226Y-118316102D01*
X116995205Y-118127744D01*
X116881937Y-117958226D01*
X116759262Y-117835551D01*
X116760898Y-117835226D01*
X116949256Y-117757205D01*
X117118774Y-117643937D01*
X117162711Y-117600000D01*
X118326678Y-117600000D01*
X118364000Y-117603676D01*
X118401322Y-117600000D01*
X118401333Y-117600000D01*
X118512986Y-117589003D01*
X118656247Y-117545546D01*
X118788276Y-117474974D01*
X118904001Y-117380001D01*
X118927804Y-117350998D01*
X119891003Y-116387799D01*
X119920001Y-116364001D01*
X119957745Y-116318010D01*
X120014974Y-116248277D01*
X120085546Y-116116247D01*
X120094488Y-116086769D01*
X120129003Y-115972986D01*
X120140000Y-115861333D01*
X120140000Y-115861323D01*
X120143676Y-115824000D01*
X120140000Y-115786678D01*
X120140000Y-114633329D01*
X126955284Y-114633329D01*
X126966020Y-114693550D01*
X127067431Y-114936090D01*
X127214210Y-115154185D01*
X127400717Y-115339455D01*
X127619785Y-115484779D01*
X127862995Y-115584572D01*
X128121000Y-115635000D01*
X128421000Y-115635000D01*
X128421000Y-114427000D01*
X128675000Y-114427000D01*
X128675000Y-115635000D01*
X128975000Y-115635000D01*
X129233005Y-115584572D01*
X129476215Y-115484779D01*
X129695283Y-115339455D01*
X129881790Y-115154185D01*
X130028569Y-114936090D01*
X130129980Y-114693550D01*
X130140716Y-114633329D01*
X130017374Y-114427000D01*
X128675000Y-114427000D01*
X128421000Y-114427000D01*
X127078626Y-114427000D01*
X126955284Y-114633329D01*
X120140000Y-114633329D01*
X120140000Y-114204721D01*
X120183937Y-114160784D01*
X120297205Y-113991266D01*
X120307392Y-113966671D01*
X126955284Y-113966671D01*
X127078626Y-114173000D01*
X128421000Y-114173000D01*
X128421000Y-112965000D01*
X128675000Y-112965000D01*
X128675000Y-114173000D01*
X130017374Y-114173000D01*
X130140716Y-113966671D01*
X130129980Y-113906450D01*
X130028569Y-113663910D01*
X129881790Y-113445815D01*
X129695283Y-113260545D01*
X129476215Y-113115221D01*
X129233005Y-113015428D01*
X128975000Y-112965000D01*
X128675000Y-112965000D01*
X128421000Y-112965000D01*
X128121000Y-112965000D01*
X127862995Y-113015428D01*
X127619785Y-113115221D01*
X127400717Y-113260545D01*
X127214210Y-113445815D01*
X127067431Y-113663910D01*
X126966020Y-113906450D01*
X126955284Y-113966671D01*
X120307392Y-113966671D01*
X120375226Y-113802908D01*
X120415000Y-113602949D01*
X120415000Y-113399071D01*
X120375226Y-113199112D01*
X120349084Y-113136001D01*
X123615841Y-113136001D01*
X123669795Y-113266256D01*
X123783063Y-113435774D01*
X123927226Y-113579937D01*
X124096744Y-113693205D01*
X124285102Y-113771226D01*
X124485061Y-113811000D01*
X124688939Y-113811000D01*
X124888898Y-113771226D01*
X125077256Y-113693205D01*
X125246774Y-113579937D01*
X125390937Y-113435774D01*
X125504205Y-113266256D01*
X125582226Y-113077898D01*
X125622000Y-112877939D01*
X125622000Y-112674061D01*
X125582226Y-112474102D01*
X125504205Y-112285744D01*
X125390937Y-112116226D01*
X125246774Y-111972063D01*
X125077256Y-111858795D01*
X124888898Y-111780774D01*
X124688939Y-111741000D01*
X124611226Y-111741000D01*
X124479248Y-111670455D01*
X124335987Y-111626998D01*
X124224334Y-111616001D01*
X124224323Y-111616001D01*
X124187001Y-111612325D01*
X124149679Y-111616001D01*
X114610321Y-111616001D01*
X114572998Y-111612325D01*
X114535676Y-111616001D01*
X114535666Y-111616001D01*
X114424013Y-111626998D01*
X114280752Y-111670455D01*
X114148774Y-111741000D01*
X114071061Y-111741000D01*
X113871102Y-111780774D01*
X113682744Y-111858795D01*
X113513226Y-111972063D01*
X113369063Y-112116226D01*
X113342121Y-112156547D01*
X113275886Y-112032632D01*
X113204711Y-111945905D01*
X113180913Y-111916907D01*
X113151916Y-111893110D01*
X109414258Y-108155453D01*
X109653158Y-108107932D01*
X109923411Y-107995990D01*
X110166632Y-107833475D01*
X110373475Y-107626632D01*
X110490000Y-107452240D01*
X110606525Y-107626632D01*
X110813368Y-107833475D01*
X111056589Y-107995990D01*
X111326842Y-108107932D01*
X111613740Y-108165000D01*
X111906260Y-108165000D01*
X112193158Y-108107932D01*
X112463411Y-107995990D01*
X112706632Y-107833475D01*
X112913475Y-107626632D01*
X113030000Y-107452240D01*
X113146525Y-107626632D01*
X113353368Y-107833475D01*
X113596589Y-107995990D01*
X113866842Y-108107932D01*
X114153740Y-108165000D01*
X114446260Y-108165000D01*
X114733158Y-108107932D01*
X115003411Y-107995990D01*
X115246632Y-107833475D01*
X115453475Y-107626632D01*
X115570000Y-107452240D01*
X115686525Y-107626632D01*
X115893368Y-107833475D01*
X116136589Y-107995990D01*
X116406842Y-108107932D01*
X116693740Y-108165000D01*
X116986260Y-108165000D01*
X117273158Y-108107932D01*
X117543411Y-107995990D01*
X117786632Y-107833475D01*
X117993475Y-107626632D01*
X118110000Y-107452240D01*
X118226525Y-107626632D01*
X118433368Y-107833475D01*
X118676589Y-107995990D01*
X118946842Y-108107932D01*
X119233740Y-108165000D01*
X119526260Y-108165000D01*
X119813158Y-108107932D01*
X120083411Y-107995990D01*
X120326632Y-107833475D01*
X120533475Y-107626632D01*
X120650000Y-107452240D01*
X120766525Y-107626632D01*
X120973368Y-107833475D01*
X121216589Y-107995990D01*
X121486842Y-108107932D01*
X121773740Y-108165000D01*
X122066260Y-108165000D01*
X122353158Y-108107932D01*
X122623411Y-107995990D01*
X122866632Y-107833475D01*
X123073475Y-107626632D01*
X123190000Y-107452240D01*
X123306525Y-107626632D01*
X123513368Y-107833475D01*
X123756589Y-107995990D01*
X124026842Y-108107932D01*
X124313740Y-108165000D01*
X124606260Y-108165000D01*
X124893158Y-108107932D01*
X125163411Y-107995990D01*
X125406632Y-107833475D01*
X125613475Y-107626632D01*
X125730000Y-107452240D01*
X125846525Y-107626632D01*
X126053368Y-107833475D01*
X126296589Y-107995990D01*
X126566842Y-108107932D01*
X126853740Y-108165000D01*
X127146260Y-108165000D01*
X127433158Y-108107932D01*
X127703411Y-107995990D01*
X127946632Y-107833475D01*
X128153475Y-107626632D01*
X128275195Y-107444466D01*
X128344822Y-107561355D01*
X128539731Y-107777588D01*
X128773080Y-107951641D01*
X129035901Y-108076825D01*
X129183110Y-108121476D01*
X129413000Y-108000155D01*
X129413000Y-106807000D01*
X129667000Y-106807000D01*
X129667000Y-108000155D01*
X129896890Y-108121476D01*
X130044099Y-108076825D01*
X130306920Y-107951641D01*
X130540269Y-107777588D01*
X130735178Y-107561355D01*
X130884157Y-107311252D01*
X130981481Y-107036891D01*
X130860814Y-106807000D01*
X129667000Y-106807000D01*
X129413000Y-106807000D01*
X129393000Y-106807000D01*
X129393000Y-106553000D01*
X129413000Y-106553000D01*
X129413000Y-105359845D01*
X129667000Y-105359845D01*
X129667000Y-106553000D01*
X130860814Y-106553000D01*
X130981481Y-106323109D01*
X130884157Y-106048748D01*
X130735178Y-105798645D01*
X130540269Y-105582412D01*
X130306920Y-105408359D01*
X130044099Y-105283175D01*
X129896890Y-105238524D01*
X129667000Y-105359845D01*
X129413000Y-105359845D01*
X129183110Y-105238524D01*
X129035901Y-105283175D01*
X128773080Y-105408359D01*
X128539731Y-105582412D01*
X128344822Y-105798645D01*
X128275195Y-105915534D01*
X128153475Y-105733368D01*
X127946632Y-105526525D01*
X127703411Y-105364010D01*
X127433158Y-105252068D01*
X127146260Y-105195000D01*
X126853740Y-105195000D01*
X126566842Y-105252068D01*
X126296589Y-105364010D01*
X126053368Y-105526525D01*
X125846525Y-105733368D01*
X125730000Y-105907760D01*
X125613475Y-105733368D01*
X125406632Y-105526525D01*
X125163411Y-105364010D01*
X124893158Y-105252068D01*
X124606260Y-105195000D01*
X124313740Y-105195000D01*
X124026842Y-105252068D01*
X123756589Y-105364010D01*
X123513368Y-105526525D01*
X123306525Y-105733368D01*
X123190000Y-105907760D01*
X123073475Y-105733368D01*
X122866632Y-105526525D01*
X122623411Y-105364010D01*
X122353158Y-105252068D01*
X122066260Y-105195000D01*
X121773740Y-105195000D01*
X121486842Y-105252068D01*
X121216589Y-105364010D01*
X120973368Y-105526525D01*
X120766525Y-105733368D01*
X120650000Y-105907760D01*
X120533475Y-105733368D01*
X120326632Y-105526525D01*
X120083411Y-105364010D01*
X119813158Y-105252068D01*
X119526260Y-105195000D01*
X119233740Y-105195000D01*
X118946842Y-105252068D01*
X118676589Y-105364010D01*
X118433368Y-105526525D01*
X118226525Y-105733368D01*
X118110000Y-105907760D01*
X117993475Y-105733368D01*
X117786632Y-105526525D01*
X117543411Y-105364010D01*
X117273158Y-105252068D01*
X116986260Y-105195000D01*
X116693740Y-105195000D01*
X116406842Y-105252068D01*
X116136589Y-105364010D01*
X115893368Y-105526525D01*
X115686525Y-105733368D01*
X115570000Y-105907760D01*
X115453475Y-105733368D01*
X115246632Y-105526525D01*
X115003411Y-105364010D01*
X114733158Y-105252068D01*
X114446260Y-105195000D01*
X114153740Y-105195000D01*
X113866842Y-105252068D01*
X113596589Y-105364010D01*
X113353368Y-105526525D01*
X113146525Y-105733368D01*
X113030000Y-105907760D01*
X112913475Y-105733368D01*
X112706632Y-105526525D01*
X112463411Y-105364010D01*
X112193158Y-105252068D01*
X111906260Y-105195000D01*
X111613740Y-105195000D01*
X111326842Y-105252068D01*
X111056589Y-105364010D01*
X110813368Y-105526525D01*
X110606525Y-105733368D01*
X110490000Y-105907760D01*
X110373475Y-105733368D01*
X110166632Y-105526525D01*
X109923411Y-105364010D01*
X109653158Y-105252068D01*
X109366260Y-105195000D01*
X109073740Y-105195000D01*
X108786842Y-105252068D01*
X108516589Y-105364010D01*
X108273368Y-105526525D01*
X108066525Y-105733368D01*
X107950000Y-105907760D01*
X107833475Y-105733368D01*
X107626632Y-105526525D01*
X107383411Y-105364010D01*
X107113158Y-105252068D01*
X106826260Y-105195000D01*
X106533740Y-105195000D01*
X106246842Y-105252068D01*
X105976589Y-105364010D01*
X105733368Y-105526525D01*
X105526525Y-105733368D01*
X105410000Y-105907760D01*
X105293475Y-105733368D01*
X105086632Y-105526525D01*
X104843411Y-105364010D01*
X104573158Y-105252068D01*
X104286260Y-105195000D01*
X103993740Y-105195000D01*
X103706842Y-105252068D01*
X103436589Y-105364010D01*
X103233509Y-105499704D01*
X102727804Y-104994001D01*
X102704002Y-104964998D01*
X102588277Y-104870025D01*
X102457271Y-104800000D01*
X140437000Y-104800000D01*
X140437001Y-106647581D01*
X140437000Y-126905418D01*
X140437001Y-126905428D01*
X140437000Y-128372000D01*
X130096219Y-128372000D01*
X130306920Y-128271641D01*
X130540269Y-128097588D01*
X130735178Y-127881355D01*
X130884157Y-127631252D01*
X130981481Y-127356891D01*
X130860814Y-127127000D01*
X129667000Y-127127000D01*
X129667000Y-127147000D01*
X129413000Y-127147000D01*
X129413000Y-127127000D01*
X129393000Y-127127000D01*
X129393000Y-126873000D01*
X129413000Y-126873000D01*
X129413000Y-125679845D01*
X129667000Y-125679845D01*
X129667000Y-126873000D01*
X130860814Y-126873000D01*
X130981481Y-126643109D01*
X130884157Y-126368748D01*
X130735178Y-126118645D01*
X130540269Y-125902412D01*
X130306920Y-125728359D01*
X130044099Y-125603175D01*
X129896890Y-125558524D01*
X129667000Y-125679845D01*
X129413000Y-125679845D01*
X129183110Y-125558524D01*
X129035901Y-125603175D01*
X128773080Y-125728359D01*
X128539731Y-125902412D01*
X128344822Y-126118645D01*
X128275195Y-126235534D01*
X128153475Y-126053368D01*
X127946632Y-125846525D01*
X127703411Y-125684010D01*
X127433158Y-125572068D01*
X127146260Y-125515000D01*
X126853740Y-125515000D01*
X126566842Y-125572068D01*
X126296589Y-125684010D01*
X126053368Y-125846525D01*
X125846525Y-126053368D01*
X125730000Y-126227760D01*
X125613475Y-126053368D01*
X125406632Y-125846525D01*
X125163411Y-125684010D01*
X124893158Y-125572068D01*
X124606260Y-125515000D01*
X124313740Y-125515000D01*
X124026842Y-125572068D01*
X123756589Y-125684010D01*
X123513368Y-125846525D01*
X123306525Y-126053368D01*
X123190000Y-126227760D01*
X123073475Y-126053368D01*
X122866632Y-125846525D01*
X122623411Y-125684010D01*
X122353158Y-125572068D01*
X122066260Y-125515000D01*
X121773740Y-125515000D01*
X121486842Y-125572068D01*
X121216589Y-125684010D01*
X120973368Y-125846525D01*
X120766525Y-126053368D01*
X120650000Y-126227760D01*
X120533475Y-126053368D01*
X120326632Y-125846525D01*
X120083411Y-125684010D01*
X119813158Y-125572068D01*
X119526260Y-125515000D01*
X119233740Y-125515000D01*
X118946842Y-125572068D01*
X118676589Y-125684010D01*
X118433368Y-125846525D01*
X118226525Y-126053368D01*
X118110000Y-126227760D01*
X117993475Y-126053368D01*
X117786632Y-125846525D01*
X117543411Y-125684010D01*
X117273158Y-125572068D01*
X116986260Y-125515000D01*
X116693740Y-125515000D01*
X116406842Y-125572068D01*
X116136589Y-125684010D01*
X115893368Y-125846525D01*
X115686525Y-126053368D01*
X115570000Y-126227760D01*
X115453475Y-126053368D01*
X115246632Y-125846525D01*
X115003411Y-125684010D01*
X114733158Y-125572068D01*
X114446260Y-125515000D01*
X114153740Y-125515000D01*
X113866842Y-125572068D01*
X113596589Y-125684010D01*
X113353368Y-125846525D01*
X113146525Y-126053368D01*
X113030000Y-126227760D01*
X112913475Y-126053368D01*
X112706632Y-125846525D01*
X112463411Y-125684010D01*
X112193158Y-125572068D01*
X111906260Y-125515000D01*
X111613740Y-125515000D01*
X111326842Y-125572068D01*
X111056589Y-125684010D01*
X110813368Y-125846525D01*
X110606525Y-126053368D01*
X110490000Y-126227760D01*
X110373475Y-126053368D01*
X110166632Y-125846525D01*
X109923411Y-125684010D01*
X109653158Y-125572068D01*
X109366260Y-125515000D01*
X109073740Y-125515000D01*
X108786842Y-125572068D01*
X108516589Y-125684010D01*
X108273368Y-125846525D01*
X108066525Y-126053368D01*
X107950000Y-126227760D01*
X107833475Y-126053368D01*
X107626632Y-125846525D01*
X107383411Y-125684010D01*
X107113158Y-125572068D01*
X106826260Y-125515000D01*
X106533740Y-125515000D01*
X106246842Y-125572068D01*
X105976589Y-125684010D01*
X105733368Y-125846525D01*
X105526525Y-126053368D01*
X105410000Y-126227760D01*
X105293475Y-126053368D01*
X105086632Y-125846525D01*
X104843411Y-125684010D01*
X104573158Y-125572068D01*
X104286260Y-125515000D01*
X103993740Y-125515000D01*
X103706842Y-125572068D01*
X103436589Y-125684010D01*
X103193368Y-125846525D01*
X102986525Y-126053368D01*
X102870000Y-126227760D01*
X102753475Y-126053368D01*
X102546632Y-125846525D01*
X102303411Y-125684010D01*
X102033158Y-125572068D01*
X101746260Y-125515000D01*
X101453740Y-125515000D01*
X101166842Y-125572068D01*
X100896589Y-125684010D01*
X100653368Y-125846525D01*
X100446525Y-126053368D01*
X100330000Y-126227760D01*
X100213475Y-126053368D01*
X100006632Y-125846525D01*
X99763411Y-125684010D01*
X99493158Y-125572068D01*
X99206260Y-125515000D01*
X98913740Y-125515000D01*
X98626842Y-125572068D01*
X98356589Y-125684010D01*
X98113368Y-125846525D01*
X97981513Y-125978380D01*
X97959502Y-125905820D01*
X97900537Y-125795506D01*
X97821185Y-125698815D01*
X97724494Y-125619463D01*
X97614180Y-125560498D01*
X97494482Y-125524188D01*
X97370000Y-125511928D01*
X95670000Y-125511928D01*
X95545518Y-125524188D01*
X95425820Y-125560498D01*
X95315506Y-125619463D01*
X95218815Y-125698815D01*
X95139463Y-125795506D01*
X95080498Y-125905820D01*
X95044188Y-126025518D01*
X95031928Y-126150000D01*
X95031928Y-127850000D01*
X95044188Y-127974482D01*
X95080498Y-128094180D01*
X95139463Y-128204494D01*
X95218815Y-128301185D01*
X95305104Y-128372000D01*
X85877000Y-128372000D01*
X85877000Y-121003317D01*
X86031600Y-121050215D01*
X86202021Y-121067000D01*
X87165979Y-121067000D01*
X87336400Y-121050215D01*
X87555060Y-120983885D01*
X87756579Y-120876171D01*
X87933212Y-120731212D01*
X88078171Y-120554579D01*
X88185885Y-120353060D01*
X88252215Y-120134400D01*
X88274612Y-119907000D01*
X88252215Y-119679600D01*
X88185885Y-119460940D01*
X88078171Y-119259421D01*
X87933212Y-119082788D01*
X87756579Y-118937829D01*
X87555060Y-118830115D01*
X87336400Y-118763785D01*
X87165979Y-118747000D01*
X86202021Y-118747000D01*
X86031600Y-118763785D01*
X85877000Y-118810683D01*
X85877000Y-114010062D01*
X89709001Y-114010062D01*
X89709001Y-114213940D01*
X89748775Y-114413899D01*
X89826796Y-114602257D01*
X89940064Y-114771775D01*
X89959002Y-114790713D01*
X89959001Y-116486448D01*
X89955204Y-116525001D01*
X89959001Y-116563554D01*
X89959001Y-116563561D01*
X89970360Y-116678887D01*
X90015247Y-116826860D01*
X90088139Y-116963233D01*
X90186237Y-117082765D01*
X90216191Y-117107348D01*
X91167000Y-118058158D01*
X91167000Y-118084939D01*
X91206774Y-118284898D01*
X91284795Y-118473256D01*
X91398063Y-118642774D01*
X91542226Y-118786937D01*
X91711744Y-118900205D01*
X91900102Y-118978226D01*
X92100061Y-119018000D01*
X92303939Y-119018000D01*
X92503898Y-118978226D01*
X92692256Y-118900205D01*
X92861774Y-118786937D01*
X93005937Y-118642774D01*
X93119205Y-118473256D01*
X93197226Y-118284898D01*
X93237000Y-118084939D01*
X93237000Y-117881061D01*
X93197226Y-117681102D01*
X93119205Y-117492744D01*
X93005937Y-117323226D01*
X92861774Y-117179063D01*
X92692256Y-117065795D01*
X92503898Y-116987774D01*
X92303939Y-116948000D01*
X92277158Y-116948000D01*
X91529001Y-116199844D01*
X91529001Y-114790712D01*
X91547938Y-114771775D01*
X91661206Y-114602257D01*
X91739227Y-114413899D01*
X91779001Y-114213940D01*
X91779001Y-114010062D01*
X91739227Y-113810103D01*
X91661206Y-113621745D01*
X91547938Y-113452227D01*
X91403775Y-113308064D01*
X91234257Y-113194796D01*
X91045899Y-113116775D01*
X90845940Y-113077001D01*
X90642062Y-113077001D01*
X90442103Y-113116775D01*
X90253745Y-113194796D01*
X90084227Y-113308064D01*
X89940064Y-113452227D01*
X89826796Y-113621745D01*
X89748775Y-113810103D01*
X89709001Y-114010062D01*
X85877000Y-114010062D01*
X85877000Y-113853317D01*
X86031600Y-113900215D01*
X86202021Y-113917000D01*
X87165979Y-113917000D01*
X87336400Y-113900215D01*
X87555060Y-113833885D01*
X87756579Y-113726171D01*
X87933212Y-113581212D01*
X88078171Y-113404579D01*
X88185885Y-113203060D01*
X88252215Y-112984400D01*
X88274612Y-112757000D01*
X88252215Y-112529600D01*
X88185885Y-112310940D01*
X88078171Y-112109421D01*
X87933212Y-111932788D01*
X87756579Y-111787829D01*
X87555060Y-111680115D01*
X87336400Y-111613785D01*
X87165979Y-111597000D01*
X86202021Y-111597000D01*
X86031600Y-111613785D01*
X85877000Y-111660683D01*
X85877000Y-104800000D01*
X99941731Y-104800000D01*
X99810725Y-104870025D01*
G36*
X108558113Y-118629641D02*
G01*
X108673439Y-118641000D01*
X108673446Y-118641000D01*
X108711999Y-118644797D01*
X108750552Y-118641000D01*
X111843289Y-118641000D01*
X111862226Y-118659937D01*
X112031744Y-118773205D01*
X112220102Y-118851226D01*
X112420061Y-118891000D01*
X112609199Y-118891000D01*
X113677209Y-119959011D01*
X112892923Y-119959011D01*
X112865544Y-119868753D01*
X112794972Y-119736723D01*
X112723798Y-119649996D01*
X112690361Y-119616559D01*
X112680116Y-119591826D01*
X112566848Y-119422308D01*
X112422685Y-119278145D01*
X112253167Y-119164877D01*
X112064809Y-119086856D01*
X111864850Y-119047082D01*
X111660972Y-119047082D01*
X111461013Y-119086856D01*
X111272655Y-119164877D01*
X111103137Y-119278145D01*
X111063801Y-119317481D01*
X111000124Y-119283445D01*
X110856863Y-119239988D01*
X110745210Y-119228991D01*
X110745199Y-119228991D01*
X110707877Y-119225315D01*
X110670555Y-119228991D01*
X109165650Y-119228991D01*
X109128327Y-119225315D01*
X109091004Y-119228991D01*
X109090995Y-119228991D01*
X108979342Y-119239988D01*
X108854776Y-119277774D01*
X108836081Y-119283445D01*
X108704051Y-119354017D01*
X108670349Y-119381676D01*
X108588327Y-119448990D01*
X108564528Y-119477989D01*
X108555110Y-119487407D01*
X108492973Y-119487407D01*
X108343730Y-119517093D01*
X108401546Y-119408927D01*
X108409812Y-119381676D01*
X108445003Y-119265666D01*
X108456000Y-119154013D01*
X108456000Y-119154003D01*
X108459676Y-119116680D01*
X108456000Y-119079357D01*
X108456000Y-118598665D01*
X108558113Y-118629641D01*
G37*
X108558113Y-118629641D02*
X108673439Y-118641000D01*
X108673446Y-118641000D01*
X108711999Y-118644797D01*
X108750552Y-118641000D01*
X111843289Y-118641000D01*
X111862226Y-118659937D01*
X112031744Y-118773205D01*
X112220102Y-118851226D01*
X112420061Y-118891000D01*
X112609199Y-118891000D01*
X113677209Y-119959011D01*
X112892923Y-119959011D01*
X112865544Y-119868753D01*
X112794972Y-119736723D01*
X112723798Y-119649996D01*
X112690361Y-119616559D01*
X112680116Y-119591826D01*
X112566848Y-119422308D01*
X112422685Y-119278145D01*
X112253167Y-119164877D01*
X112064809Y-119086856D01*
X111864850Y-119047082D01*
X111660972Y-119047082D01*
X111461013Y-119086856D01*
X111272655Y-119164877D01*
X111103137Y-119278145D01*
X111063801Y-119317481D01*
X111000124Y-119283445D01*
X110856863Y-119239988D01*
X110745210Y-119228991D01*
X110745199Y-119228991D01*
X110707877Y-119225315D01*
X110670555Y-119228991D01*
X109165650Y-119228991D01*
X109128327Y-119225315D01*
X109091004Y-119228991D01*
X109090995Y-119228991D01*
X108979342Y-119239988D01*
X108854776Y-119277774D01*
X108836081Y-119283445D01*
X108704051Y-119354017D01*
X108670349Y-119381676D01*
X108588327Y-119448990D01*
X108564528Y-119477989D01*
X108555110Y-119487407D01*
X108492973Y-119487407D01*
X108343730Y-119517093D01*
X108401546Y-119408927D01*
X108409812Y-119381676D01*
X108445003Y-119265666D01*
X108456000Y-119154013D01*
X108456000Y-119154003D01*
X108459676Y-119116680D01*
X108456000Y-119079357D01*
X108456000Y-118598665D01*
X108558113Y-118629641D01*
G36*
X100446525Y-107626632D02*
G01*
X100653368Y-107833475D01*
X100896589Y-107995990D01*
X101166842Y-108107932D01*
X101453740Y-108165000D01*
X101746260Y-108165000D01*
X102033158Y-108107932D01*
X102092951Y-108083165D01*
X102825799Y-108816014D01*
X102849598Y-108845013D01*
X102878596Y-108868811D01*
X102965322Y-108939986D01*
X102969814Y-108942387D01*
X109208057Y-115180631D01*
X109068226Y-115274063D01*
X108924063Y-115418226D01*
X108810795Y-115587744D01*
X108732774Y-115776102D01*
X108717884Y-115850958D01*
X108604000Y-115964842D01*
X108604000Y-115849061D01*
X108564226Y-115649102D01*
X108486205Y-115460744D01*
X108372937Y-115291226D01*
X108228774Y-115147063D01*
X108059256Y-115033795D01*
X107870898Y-114955774D01*
X107670939Y-114916000D01*
X107644158Y-114916000D01*
X100270077Y-107541920D01*
X100330000Y-107452240D01*
X100446525Y-107626632D01*
G37*
X100446525Y-107626632D02*
X100653368Y-107833475D01*
X100896589Y-107995990D01*
X101166842Y-108107932D01*
X101453740Y-108165000D01*
X101746260Y-108165000D01*
X102033158Y-108107932D01*
X102092951Y-108083165D01*
X102825799Y-108816014D01*
X102849598Y-108845013D01*
X102878596Y-108868811D01*
X102965322Y-108939986D01*
X102969814Y-108942387D01*
X109208057Y-115180631D01*
X109068226Y-115274063D01*
X108924063Y-115418226D01*
X108810795Y-115587744D01*
X108732774Y-115776102D01*
X108717884Y-115850958D01*
X108604000Y-115964842D01*
X108604000Y-115849061D01*
X108564226Y-115649102D01*
X108486205Y-115460744D01*
X108372937Y-115291226D01*
X108228774Y-115147063D01*
X108059256Y-115033795D01*
X107870898Y-114955774D01*
X107670939Y-114916000D01*
X107644158Y-114916000D01*
X100270077Y-107541920D01*
X100330000Y-107452240D01*
X100446525Y-107626632D01*
G36*
X107105722Y-108164973D02*
G01*
X107237752Y-108235545D01*
X107381013Y-108279002D01*
X107388991Y-108279788D01*
X108495202Y-109385999D01*
X107920801Y-109385999D01*
X106699802Y-108165000D01*
X106826260Y-108165000D01*
X107051228Y-108120251D01*
X107105722Y-108164973D01*
G37*
X107105722Y-108164973D02*
X107237752Y-108235545D01*
X107381013Y-108279002D01*
X107388991Y-108279788D01*
X108495202Y-109385999D01*
X107920801Y-109385999D01*
X106699802Y-108165000D01*
X106826260Y-108165000D01*
X107051228Y-108120251D01*
X107105722Y-108164973D01*
%TD*%
M02*
