G04 #@! TF.GenerationSoftware,KiCad,Pcbnew,(5.1.2)-2*
G04 #@! TF.CreationDate,2019-11-02T22:07:32-05:00*
G04 #@! TF.ProjectId,PowerBreakout,506f7765-7242-4726-9561-6b6f75742e6b,rev?*
G04 #@! TF.SameCoordinates,Original*
G04 #@! TF.FileFunction,Legend,Top*
G04 #@! TF.FilePolarity,Positive*
%FSLAX46Y46*%
G04 Gerber Fmt 4.6, Leading zero omitted, Abs format (unit mm)*
G04 Created by KiCad (PCBNEW (5.1.2)-2) date 2019-11-02 22:07:32*
%MOMM*%
%LPD*%
G04 APERTURE LIST*
%ADD10C,0.150000*%
%ADD11C,0.120000*%
G04 APERTURE END LIST*
D10*
X127986476Y-83256380D02*
X127986476Y-82256380D01*
X128224571Y-82256380D01*
X128367428Y-82304000D01*
X128462666Y-82399238D01*
X128510285Y-82494476D01*
X128557904Y-82684952D01*
X128557904Y-82827809D01*
X128510285Y-83018285D01*
X128462666Y-83113523D01*
X128367428Y-83208761D01*
X128224571Y-83256380D01*
X127986476Y-83256380D01*
X129557904Y-83161142D02*
X129510285Y-83208761D01*
X129367428Y-83256380D01*
X129272190Y-83256380D01*
X129129333Y-83208761D01*
X129034095Y-83113523D01*
X128986476Y-83018285D01*
X128938857Y-82827809D01*
X128938857Y-82684952D01*
X128986476Y-82494476D01*
X129034095Y-82399238D01*
X129129333Y-82304000D01*
X129272190Y-82256380D01*
X129367428Y-82256380D01*
X129510285Y-82304000D01*
X129557904Y-82351619D01*
X130748380Y-82875428D02*
X131510285Y-82875428D01*
X132748380Y-83256380D02*
X132748380Y-82256380D01*
X132986476Y-82256380D01*
X133129333Y-82304000D01*
X133224571Y-82399238D01*
X133272190Y-82494476D01*
X133319809Y-82684952D01*
X133319809Y-82827809D01*
X133272190Y-83018285D01*
X133224571Y-83113523D01*
X133129333Y-83208761D01*
X132986476Y-83256380D01*
X132748380Y-83256380D01*
X134319809Y-83161142D02*
X134272190Y-83208761D01*
X134129333Y-83256380D01*
X134034095Y-83256380D01*
X133891238Y-83208761D01*
X133796000Y-83113523D01*
X133748380Y-83018285D01*
X133700761Y-82827809D01*
X133700761Y-82684952D01*
X133748380Y-82494476D01*
X133796000Y-82399238D01*
X133891238Y-82304000D01*
X134034095Y-82256380D01*
X134129333Y-82256380D01*
X134272190Y-82304000D01*
X134319809Y-82351619D01*
X135843619Y-82732571D02*
X135986476Y-82780190D01*
X136034095Y-82827809D01*
X136081714Y-82923047D01*
X136081714Y-83065904D01*
X136034095Y-83161142D01*
X135986476Y-83208761D01*
X135891238Y-83256380D01*
X135510285Y-83256380D01*
X135510285Y-82256380D01*
X135843619Y-82256380D01*
X135938857Y-82304000D01*
X135986476Y-82351619D01*
X136034095Y-82446857D01*
X136034095Y-82542095D01*
X135986476Y-82637333D01*
X135938857Y-82684952D01*
X135843619Y-82732571D01*
X135510285Y-82732571D01*
X136938857Y-82589714D02*
X136938857Y-83256380D01*
X136510285Y-82589714D02*
X136510285Y-83113523D01*
X136557904Y-83208761D01*
X136653142Y-83256380D01*
X136796000Y-83256380D01*
X136891238Y-83208761D01*
X136938857Y-83161142D01*
X137843619Y-83208761D02*
X137748380Y-83256380D01*
X137557904Y-83256380D01*
X137462666Y-83208761D01*
X137415047Y-83161142D01*
X137367428Y-83065904D01*
X137367428Y-82780190D01*
X137415047Y-82684952D01*
X137462666Y-82637333D01*
X137557904Y-82589714D01*
X137748380Y-82589714D01*
X137843619Y-82637333D01*
X138272190Y-83256380D02*
X138272190Y-82256380D01*
X138367428Y-82875428D02*
X138653142Y-83256380D01*
X138653142Y-82589714D02*
X138272190Y-82970666D01*
X140415047Y-83161142D02*
X140367428Y-83208761D01*
X140224571Y-83256380D01*
X140129333Y-83256380D01*
X139986476Y-83208761D01*
X139891238Y-83113523D01*
X139843619Y-83018285D01*
X139796000Y-82827809D01*
X139796000Y-82684952D01*
X139843619Y-82494476D01*
X139891238Y-82399238D01*
X139986476Y-82304000D01*
X140129333Y-82256380D01*
X140224571Y-82256380D01*
X140367428Y-82304000D01*
X140415047Y-82351619D01*
X140986476Y-83256380D02*
X140891238Y-83208761D01*
X140843619Y-83161142D01*
X140796000Y-83065904D01*
X140796000Y-82780190D01*
X140843619Y-82684952D01*
X140891238Y-82637333D01*
X140986476Y-82589714D01*
X141129333Y-82589714D01*
X141224571Y-82637333D01*
X141272190Y-82684952D01*
X141319809Y-82780190D01*
X141319809Y-83065904D01*
X141272190Y-83161142D01*
X141224571Y-83208761D01*
X141129333Y-83256380D01*
X140986476Y-83256380D01*
X141748380Y-82589714D02*
X141748380Y-83256380D01*
X141748380Y-82684952D02*
X141796000Y-82637333D01*
X141891238Y-82589714D01*
X142034095Y-82589714D01*
X142129333Y-82637333D01*
X142176952Y-82732571D01*
X142176952Y-83256380D01*
X142557904Y-82589714D02*
X142796000Y-83256380D01*
X143034095Y-82589714D01*
X143796000Y-83208761D02*
X143700761Y-83256380D01*
X143510285Y-83256380D01*
X143415047Y-83208761D01*
X143367428Y-83113523D01*
X143367428Y-82732571D01*
X143415047Y-82637333D01*
X143510285Y-82589714D01*
X143700761Y-82589714D01*
X143796000Y-82637333D01*
X143843619Y-82732571D01*
X143843619Y-82827809D01*
X143367428Y-82923047D01*
X144272190Y-83256380D02*
X144272190Y-82589714D01*
X144272190Y-82780190D02*
X144319809Y-82684952D01*
X144367428Y-82637333D01*
X144462666Y-82589714D01*
X144557904Y-82589714D01*
X144748380Y-82589714D02*
X145129333Y-82589714D01*
X144891238Y-82256380D02*
X144891238Y-83113523D01*
X144938857Y-83208761D01*
X145034095Y-83256380D01*
X145129333Y-83256380D01*
X145843619Y-83208761D02*
X145748380Y-83256380D01*
X145557904Y-83256380D01*
X145462666Y-83208761D01*
X145415047Y-83113523D01*
X145415047Y-82732571D01*
X145462666Y-82637333D01*
X145557904Y-82589714D01*
X145748380Y-82589714D01*
X145843619Y-82637333D01*
X145891238Y-82732571D01*
X145891238Y-82827809D01*
X145415047Y-82923047D01*
X146319809Y-83256380D02*
X146319809Y-82589714D01*
X146319809Y-82780190D02*
X146367428Y-82684952D01*
X146415047Y-82637333D01*
X146510285Y-82589714D01*
X146605523Y-82589714D01*
X148224571Y-83256380D02*
X147653142Y-83256380D01*
X147938857Y-83256380D02*
X147938857Y-82256380D01*
X147843619Y-82399238D01*
X147748380Y-82494476D01*
X147653142Y-82542095D01*
X148605523Y-82351619D02*
X148653142Y-82304000D01*
X148748380Y-82256380D01*
X148986476Y-82256380D01*
X149081714Y-82304000D01*
X149129333Y-82351619D01*
X149176952Y-82446857D01*
X149176952Y-82542095D01*
X149129333Y-82684952D01*
X148557904Y-83256380D01*
X149176952Y-83256380D01*
X149510285Y-82589714D02*
X149748380Y-83256380D01*
X149986476Y-82589714D01*
X150986476Y-82589714D02*
X151367428Y-82589714D01*
X151129333Y-82256380D02*
X151129333Y-83113523D01*
X151176952Y-83208761D01*
X151272190Y-83256380D01*
X151367428Y-83256380D01*
X151843619Y-83256380D02*
X151748380Y-83208761D01*
X151700761Y-83161142D01*
X151653142Y-83065904D01*
X151653142Y-82780190D01*
X151700761Y-82684952D01*
X151748380Y-82637333D01*
X151843619Y-82589714D01*
X151986476Y-82589714D01*
X152081714Y-82637333D01*
X152129333Y-82684952D01*
X152176952Y-82780190D01*
X152176952Y-83065904D01*
X152129333Y-83161142D01*
X152081714Y-83208761D01*
X151986476Y-83256380D01*
X151843619Y-83256380D01*
X153843619Y-82256380D02*
X153367428Y-82256380D01*
X153319809Y-82732571D01*
X153367428Y-82684952D01*
X153462666Y-82637333D01*
X153700761Y-82637333D01*
X153796000Y-82684952D01*
X153843619Y-82732571D01*
X153891238Y-82827809D01*
X153891238Y-83065904D01*
X153843619Y-83161142D01*
X153796000Y-83208761D01*
X153700761Y-83256380D01*
X153462666Y-83256380D01*
X153367428Y-83208761D01*
X153319809Y-83161142D01*
X154224571Y-82589714D02*
X154462666Y-83256380D01*
X154700761Y-82589714D01*
X156176952Y-82732571D02*
X156319809Y-82780190D01*
X156367428Y-82827809D01*
X156415047Y-82923047D01*
X156415047Y-83065904D01*
X156367428Y-83161142D01*
X156319809Y-83208761D01*
X156224571Y-83256380D01*
X155843619Y-83256380D01*
X155843619Y-82256380D01*
X156176952Y-82256380D01*
X156272190Y-82304000D01*
X156319809Y-82351619D01*
X156367428Y-82446857D01*
X156367428Y-82542095D01*
X156319809Y-82637333D01*
X156272190Y-82684952D01*
X156176952Y-82732571D01*
X155843619Y-82732571D01*
X156986476Y-83256380D02*
X156891238Y-83208761D01*
X156843619Y-83161142D01*
X156796000Y-83065904D01*
X156796000Y-82780190D01*
X156843619Y-82684952D01*
X156891238Y-82637333D01*
X156986476Y-82589714D01*
X157129333Y-82589714D01*
X157224571Y-82637333D01*
X157272190Y-82684952D01*
X157319809Y-82780190D01*
X157319809Y-83065904D01*
X157272190Y-83161142D01*
X157224571Y-83208761D01*
X157129333Y-83256380D01*
X156986476Y-83256380D01*
X158176952Y-83256380D02*
X158176952Y-82732571D01*
X158129333Y-82637333D01*
X158034095Y-82589714D01*
X157843619Y-82589714D01*
X157748380Y-82637333D01*
X158176952Y-83208761D02*
X158081714Y-83256380D01*
X157843619Y-83256380D01*
X157748380Y-83208761D01*
X157700761Y-83113523D01*
X157700761Y-83018285D01*
X157748380Y-82923047D01*
X157843619Y-82875428D01*
X158081714Y-82875428D01*
X158176952Y-82827809D01*
X158653142Y-83256380D02*
X158653142Y-82589714D01*
X158653142Y-82780190D02*
X158700761Y-82684952D01*
X158748380Y-82637333D01*
X158843619Y-82589714D01*
X158938857Y-82589714D01*
X159700761Y-83256380D02*
X159700761Y-82256380D01*
X159700761Y-83208761D02*
X159605523Y-83256380D01*
X159415047Y-83256380D01*
X159319809Y-83208761D01*
X159272190Y-83161142D01*
X159224571Y-83065904D01*
X159224571Y-82780190D01*
X159272190Y-82684952D01*
X159319809Y-82637333D01*
X159415047Y-82589714D01*
X159605523Y-82589714D01*
X159700761Y-82637333D01*
X160843619Y-82589714D02*
X161081714Y-83256380D01*
X161319809Y-82589714D01*
X161891238Y-82256380D02*
X161986476Y-82256380D01*
X162081714Y-82304000D01*
X162129333Y-82351619D01*
X162176952Y-82446857D01*
X162224571Y-82637333D01*
X162224571Y-82875428D01*
X162176952Y-83065904D01*
X162129333Y-83161142D01*
X162081714Y-83208761D01*
X161986476Y-83256380D01*
X161891238Y-83256380D01*
X161796000Y-83208761D01*
X161748380Y-83161142D01*
X161700761Y-83065904D01*
X161653142Y-82875428D01*
X161653142Y-82637333D01*
X161700761Y-82446857D01*
X161748380Y-82351619D01*
X161796000Y-82304000D01*
X161891238Y-82256380D01*
X162653142Y-83161142D02*
X162700761Y-83208761D01*
X162653142Y-83256380D01*
X162605523Y-83208761D01*
X162653142Y-83161142D01*
X162653142Y-83256380D01*
X163034095Y-82256380D02*
X163653142Y-82256380D01*
X163319809Y-82637333D01*
X163462666Y-82637333D01*
X163557904Y-82684952D01*
X163605523Y-82732571D01*
X163653142Y-82827809D01*
X163653142Y-83065904D01*
X163605523Y-83161142D01*
X163557904Y-83208761D01*
X163462666Y-83256380D01*
X163176952Y-83256380D01*
X163081714Y-83208761D01*
X163034095Y-83161142D01*
X114871714Y-66365428D02*
X115633619Y-66365428D01*
X115252666Y-66746380D02*
X115252666Y-65984476D01*
X116633619Y-66746380D02*
X116062190Y-66746380D01*
X116347904Y-66746380D02*
X116347904Y-65746380D01*
X116252666Y-65889238D01*
X116157428Y-65984476D01*
X116062190Y-66032095D01*
X117014571Y-65841619D02*
X117062190Y-65794000D01*
X117157428Y-65746380D01*
X117395523Y-65746380D01*
X117490761Y-65794000D01*
X117538380Y-65841619D01*
X117586000Y-65936857D01*
X117586000Y-66032095D01*
X117538380Y-66174952D01*
X116966952Y-66746380D01*
X117586000Y-66746380D01*
X117919333Y-66079714D02*
X118157428Y-66746380D01*
X118395523Y-66079714D01*
X115689142Y-77986000D02*
X115593904Y-77938380D01*
X115451047Y-77938380D01*
X115308190Y-77986000D01*
X115212952Y-78081238D01*
X115165333Y-78176476D01*
X115117714Y-78366952D01*
X115117714Y-78509809D01*
X115165333Y-78700285D01*
X115212952Y-78795523D01*
X115308190Y-78890761D01*
X115451047Y-78938380D01*
X115546285Y-78938380D01*
X115689142Y-78890761D01*
X115736761Y-78843142D01*
X115736761Y-78509809D01*
X115546285Y-78509809D01*
X116165333Y-78271714D02*
X116165333Y-78938380D01*
X116165333Y-78366952D02*
X116212952Y-78319333D01*
X116308190Y-78271714D01*
X116451047Y-78271714D01*
X116546285Y-78319333D01*
X116593904Y-78414571D01*
X116593904Y-78938380D01*
X117498666Y-78938380D02*
X117498666Y-77938380D01*
X117498666Y-78890761D02*
X117403428Y-78938380D01*
X117212952Y-78938380D01*
X117117714Y-78890761D01*
X117070095Y-78843142D01*
X117022476Y-78747904D01*
X117022476Y-78462190D01*
X117070095Y-78366952D01*
X117117714Y-78319333D01*
X117212952Y-78271714D01*
X117403428Y-78271714D01*
X117498666Y-78319333D01*
X173855142Y-72906000D02*
X173759904Y-72858380D01*
X173617047Y-72858380D01*
X173474190Y-72906000D01*
X173378952Y-73001238D01*
X173331333Y-73096476D01*
X173283714Y-73286952D01*
X173283714Y-73429809D01*
X173331333Y-73620285D01*
X173378952Y-73715523D01*
X173474190Y-73810761D01*
X173617047Y-73858380D01*
X173712285Y-73858380D01*
X173855142Y-73810761D01*
X173902761Y-73763142D01*
X173902761Y-73429809D01*
X173712285Y-73429809D01*
X174331333Y-73191714D02*
X174331333Y-73858380D01*
X174331333Y-73286952D02*
X174378952Y-73239333D01*
X174474190Y-73191714D01*
X174617047Y-73191714D01*
X174712285Y-73239333D01*
X174759904Y-73334571D01*
X174759904Y-73858380D01*
X175664666Y-73858380D02*
X175664666Y-72858380D01*
X175664666Y-73810761D02*
X175569428Y-73858380D01*
X175378952Y-73858380D01*
X175283714Y-73810761D01*
X175236095Y-73763142D01*
X175188476Y-73667904D01*
X175188476Y-73382190D01*
X175236095Y-73286952D01*
X175283714Y-73239333D01*
X175378952Y-73191714D01*
X175569428Y-73191714D01*
X175664666Y-73239333D01*
X173259904Y-69667428D02*
X174021809Y-69667428D01*
X173640857Y-70048380D02*
X173640857Y-69286476D01*
X174974190Y-69048380D02*
X174498000Y-69048380D01*
X174450380Y-69524571D01*
X174498000Y-69476952D01*
X174593238Y-69429333D01*
X174831333Y-69429333D01*
X174926571Y-69476952D01*
X174974190Y-69524571D01*
X175021809Y-69619809D01*
X175021809Y-69857904D01*
X174974190Y-69953142D01*
X174926571Y-70000761D01*
X174831333Y-70048380D01*
X174593238Y-70048380D01*
X174498000Y-70000761D01*
X174450380Y-69953142D01*
X175355142Y-69381714D02*
X175593238Y-70048380D01*
X175831333Y-69381714D01*
D11*
X167700001Y-61274001D02*
X125028001Y-61274001D01*
X167700001Y-81086001D02*
X167700001Y-61274001D01*
X125028001Y-81086001D02*
X167700001Y-81086001D01*
X125028001Y-61274001D02*
X125028001Y-81086001D01*
X172526000Y-68774000D02*
X169866000Y-68774000D01*
X172526000Y-71374000D02*
X172526000Y-68774000D01*
X169866000Y-71374000D02*
X169866000Y-68774000D01*
X172526000Y-71374000D02*
X169866000Y-71374000D01*
X172526000Y-72644000D02*
X172526000Y-73974000D01*
X172526000Y-73974000D02*
X171196000Y-73974000D01*
X121666000Y-67056000D02*
X121666000Y-77216000D01*
X122936000Y-67056000D02*
X115316000Y-67056000D01*
X115316000Y-67056000D02*
X115316000Y-77216000D01*
X115316000Y-77216000D02*
X122936000Y-77216000D01*
X122936000Y-77216000D02*
X122936000Y-67056000D01*
D10*
X148142096Y-72402381D02*
X148142096Y-73211905D01*
X148189715Y-73307143D01*
X148237334Y-73354762D01*
X148332572Y-73402381D01*
X148523048Y-73402381D01*
X148618286Y-73354762D01*
X148665905Y-73307143D01*
X148713524Y-73211905D01*
X148713524Y-72402381D01*
X149713524Y-73402381D02*
X149142096Y-73402381D01*
X149427810Y-73402381D02*
X149427810Y-72402381D01*
X149332572Y-72545239D01*
X149237334Y-72640477D01*
X149142096Y-72688096D01*
X170862666Y-74426380D02*
X170862666Y-75140666D01*
X170815047Y-75283523D01*
X170719809Y-75378761D01*
X170576952Y-75426380D01*
X170481714Y-75426380D01*
X171291238Y-74521619D02*
X171338857Y-74474000D01*
X171434095Y-74426380D01*
X171672190Y-74426380D01*
X171767428Y-74474000D01*
X171815047Y-74521619D01*
X171862666Y-74616857D01*
X171862666Y-74712095D01*
X171815047Y-74854952D01*
X171243619Y-75426380D01*
X171862666Y-75426380D01*
X113498380Y-72469333D02*
X114212666Y-72469333D01*
X114355523Y-72516952D01*
X114450761Y-72612190D01*
X114498380Y-72755047D01*
X114498380Y-72850285D01*
X114498380Y-71469333D02*
X114498380Y-72040761D01*
X114498380Y-71755047D02*
X113498380Y-71755047D01*
X113641238Y-71850285D01*
X113736476Y-71945523D01*
X113784095Y-72040761D01*
M02*
