M48
; DRILL file {KiCad (5.1.2)-2} date 9/3/2019 10:16:43 PM
; FORMAT={-:-/ absolute / inch / decimal}
; #@! TF.CreationDate,2019-09-03T22:16:43-05:00
; #@! TF.GenerationSoftware,Kicad,Pcbnew,(5.1.2)-2
; #@! TF.FileFunction,Plated,1,2,PTH
FMAT,2
INCH
T1C0.0299
T2C0.0394
T3C0.0433
%
G90
G05
T1
X6.6Y-3.5
X6.65Y-3.4
X6.7Y-3.5
X6.75Y-3.4
X6.8Y-3.5
X6.85Y-3.4
X6.9Y-3.5
X6.95Y-3.4
T2
X5.175Y-4.625
X5.175Y-4.725
X5.175Y-4.825
X5.175Y-4.925
X5.175Y-5.025
X5.275Y-4.625
X5.275Y-4.725
X5.275Y-4.825
X5.275Y-4.925
X5.275Y-5.025
X5.5Y-4.625
X5.5Y-4.725
X5.5Y-4.825
X5.5Y-4.925
X5.95Y-4.625
X5.95Y-4.725
X5.95Y-4.825
X4.7429Y-2.9
X4.7429Y-3.0
X4.7429Y-3.1
X4.7429Y-3.2
X4.7429Y-3.3
X4.7429Y-3.4
X4.7429Y-3.5
X4.7429Y-3.6
X4.7429Y-3.7
X4.7429Y-3.8
X4.7429Y-3.9
X4.7429Y-4.0
X4.7429Y-4.1
X4.7429Y-4.2
X5.55Y-2.9
X5.55Y-3.0
X5.55Y-3.1
X5.55Y-3.2
X5.55Y-3.3
X5.55Y-3.4
X5.55Y-3.5
X5.55Y-3.6
X5.55Y-3.7
X5.55Y-3.8
X5.55Y-3.9
X5.55Y-4.0
X5.55Y-4.1
X5.55Y-4.2
X6.825Y-4.625
X6.825Y-4.725
X6.825Y-4.825
X6.925Y-4.625
X6.925Y-4.725
X6.925Y-4.825
X7.025Y-4.075
X7.025Y-4.175
X6.5Y-4.625
X6.5Y-4.725
X6.5Y-4.825
X6.6Y-4.625
X6.6Y-4.725
X6.6Y-4.825
X6.175Y-4.625
X6.175Y-4.725
X6.175Y-4.825
X6.275Y-4.625
X6.275Y-4.725
X6.275Y-4.825
X5.725Y-4.625
X5.725Y-4.725
X5.725Y-4.825
X4.95Y-4.625
X4.95Y-4.725
X4.95Y-4.825
X4.95Y-4.925
X4.95Y-5.025
X4.95Y-5.125
T3
X5.755Y-2.87
X5.755Y-2.97
X5.755Y-3.07
X5.755Y-3.17
X5.755Y-3.27
X5.755Y-3.37
X5.755Y-3.47
X5.755Y-3.57
X5.755Y-3.67
X5.755Y-3.77
X5.755Y-3.87
X5.755Y-3.97
X5.755Y-4.07
X5.755Y-4.17
X6.355Y-2.87
X6.355Y-2.97
X6.355Y-3.07
X6.355Y-3.17
X6.355Y-3.27
X6.355Y-3.37
X6.355Y-3.47
X6.355Y-3.57
X6.355Y-3.67
X6.355Y-3.77
X6.355Y-3.87
X6.355Y-3.97
X6.355Y-4.07
X6.355Y-4.17
T0
M30
