G04 #@! TF.GenerationSoftware,KiCad,Pcbnew,(5.1.5)-3*
G04 #@! TF.CreationDate,2022-03-29T23:18:33-05:00*
G04 #@! TF.ProjectId,Two Motor Nano Controller,54776f20-4d6f-4746-9f72-204e616e6f20,rev?*
G04 #@! TF.SameCoordinates,Original*
G04 #@! TF.FileFunction,Copper,L2,Bot*
G04 #@! TF.FilePolarity,Positive*
%FSLAX46Y46*%
G04 Gerber Fmt 4.6, Leading zero omitted, Abs format (unit mm)*
G04 Created by KiCad (PCBNEW (5.1.5)-3) date 2022-03-29 23:18:33*
%MOMM*%
%LPD*%
G04 APERTURE LIST*
%ADD10R,1.600000X1.600000*%
%ADD11O,1.600000X1.600000*%
%ADD12R,1.700000X1.700000*%
%ADD13O,1.700000X1.700000*%
%ADD14C,2.286000*%
%ADD15R,2.286000X2.286000*%
%ADD16C,0.100000*%
%ADD17O,1.700000X2.000000*%
%ADD18C,0.381000*%
%ADD19C,0.254000*%
G04 APERTURE END LIST*
D10*
X152400000Y-68580000D03*
D11*
X137160000Y-35560000D03*
X152400000Y-66040000D03*
X137160000Y-38100000D03*
X152400000Y-63500000D03*
X137160000Y-40640000D03*
X152400000Y-60960000D03*
X137160000Y-43180000D03*
X152400000Y-58420000D03*
X137160000Y-45720000D03*
X152400000Y-55880000D03*
X137160000Y-48260000D03*
X152400000Y-53340000D03*
X137160000Y-50800000D03*
X152400000Y-50800000D03*
X137160000Y-53340000D03*
X152400000Y-48260000D03*
X137160000Y-55880000D03*
X152400000Y-45720000D03*
X137160000Y-58420000D03*
X152400000Y-43180000D03*
X137160000Y-60960000D03*
X152400000Y-40640000D03*
X137160000Y-63500000D03*
X152400000Y-38100000D03*
X137160000Y-66040000D03*
X152400000Y-35560000D03*
X137160000Y-68580000D03*
X152400000Y-33020000D03*
X137160000Y-33020000D03*
X160020000Y-33020000D03*
X175260000Y-33020000D03*
X160020000Y-68580000D03*
X175260000Y-35560000D03*
X160020000Y-66040000D03*
X175260000Y-38100000D03*
X160020000Y-63500000D03*
X175260000Y-40640000D03*
X160020000Y-60960000D03*
X175260000Y-43180000D03*
X160020000Y-58420000D03*
X175260000Y-45720000D03*
X160020000Y-55880000D03*
X175260000Y-48260000D03*
X160020000Y-53340000D03*
X175260000Y-50800000D03*
X160020000Y-50800000D03*
X175260000Y-53340000D03*
X160020000Y-48260000D03*
X175260000Y-55880000D03*
X160020000Y-45720000D03*
X175260000Y-58420000D03*
X160020000Y-43180000D03*
X175260000Y-60960000D03*
X160020000Y-40640000D03*
X175260000Y-63500000D03*
X160020000Y-38100000D03*
X175260000Y-66040000D03*
X160020000Y-35560000D03*
D10*
X175260000Y-68580000D03*
D12*
X116840000Y-73660000D03*
D13*
X119380000Y-73660000D03*
X121920000Y-73660000D03*
X124460000Y-73660000D03*
X119380000Y-52070000D03*
X121920000Y-52070000D03*
D12*
X124460000Y-52070000D03*
X124460000Y-39370000D03*
D13*
X121920000Y-39370000D03*
X119380000Y-39370000D03*
D12*
X124460000Y-64770000D03*
D13*
X121920000Y-64770000D03*
X119380000Y-64770000D03*
D14*
X170180000Y-81280000D03*
D15*
X165100000Y-81280000D03*
D13*
X193040000Y-73660000D03*
X190500000Y-73660000D03*
X187960000Y-73660000D03*
D12*
X185420000Y-73660000D03*
X191770000Y-52070000D03*
D13*
X189230000Y-52070000D03*
X186690000Y-52070000D03*
X186690000Y-39370000D03*
X189230000Y-39370000D03*
D12*
X191770000Y-39370000D03*
D13*
X186690000Y-64770000D03*
X189230000Y-64770000D03*
D12*
X191770000Y-64770000D03*
G04 #@! TA.AperFunction,ComponentPad*
D16*
G36*
X145729624Y-80029744D02*
G01*
X145753893Y-80033344D01*
X145777691Y-80039305D01*
X145800791Y-80047570D01*
X145822969Y-80058060D01*
X145844013Y-80070673D01*
X145863718Y-80085287D01*
X145881897Y-80101763D01*
X145898373Y-80119942D01*
X145912987Y-80139647D01*
X145925600Y-80160691D01*
X145936090Y-80182869D01*
X145944355Y-80205969D01*
X145950316Y-80229767D01*
X145953916Y-80254036D01*
X145955120Y-80278540D01*
X145955120Y-81778540D01*
X145953916Y-81803044D01*
X145950316Y-81827313D01*
X145944355Y-81851111D01*
X145936090Y-81874211D01*
X145925600Y-81896389D01*
X145912987Y-81917433D01*
X145898373Y-81937138D01*
X145881897Y-81955317D01*
X145863718Y-81971793D01*
X145844013Y-81986407D01*
X145822969Y-81999020D01*
X145800791Y-82009510D01*
X145777691Y-82017775D01*
X145753893Y-82023736D01*
X145729624Y-82027336D01*
X145705120Y-82028540D01*
X144505120Y-82028540D01*
X144480616Y-82027336D01*
X144456347Y-82023736D01*
X144432549Y-82017775D01*
X144409449Y-82009510D01*
X144387271Y-81999020D01*
X144366227Y-81986407D01*
X144346522Y-81971793D01*
X144328343Y-81955317D01*
X144311867Y-81937138D01*
X144297253Y-81917433D01*
X144284640Y-81896389D01*
X144274150Y-81874211D01*
X144265885Y-81851111D01*
X144259924Y-81827313D01*
X144256324Y-81803044D01*
X144255120Y-81778540D01*
X144255120Y-80278540D01*
X144256324Y-80254036D01*
X144259924Y-80229767D01*
X144265885Y-80205969D01*
X144274150Y-80182869D01*
X144284640Y-80160691D01*
X144297253Y-80139647D01*
X144311867Y-80119942D01*
X144328343Y-80101763D01*
X144346522Y-80085287D01*
X144366227Y-80070673D01*
X144387271Y-80058060D01*
X144409449Y-80047570D01*
X144432549Y-80039305D01*
X144456347Y-80033344D01*
X144480616Y-80029744D01*
X144505120Y-80028540D01*
X145705120Y-80028540D01*
X145729624Y-80029744D01*
G37*
G04 #@! TD.AperFunction*
D17*
X147645120Y-81028540D03*
D18*
X125700501Y-52099499D02*
X136360001Y-41439999D01*
X136360001Y-41439999D02*
X137160000Y-40640000D01*
X125700501Y-58449499D02*
X125700501Y-52099499D01*
X119380000Y-64770000D02*
X125700501Y-58449499D01*
X121920000Y-73660000D02*
X121920000Y-70236080D01*
X121920000Y-70236080D02*
X128107440Y-64048640D01*
X128107440Y-52232560D02*
X137160000Y-43180000D01*
X128107440Y-64048640D02*
X128107440Y-52232560D01*
X124460000Y-73660000D02*
X124460000Y-70510400D01*
X124460000Y-70510400D02*
X130393440Y-64576960D01*
X130393440Y-52486560D02*
X137160000Y-45720000D01*
X130393440Y-64576960D02*
X130393440Y-52486560D01*
X137959999Y-51599999D02*
X137160000Y-50800000D01*
X138350501Y-51990501D02*
X137959999Y-51599999D01*
X158829499Y-51990501D02*
X138350501Y-51990501D01*
X160020000Y-50800000D02*
X158829499Y-51990501D01*
X147645120Y-61285120D02*
X147645120Y-81028540D01*
X137160000Y-50800000D02*
X147645120Y-61285120D01*
X179277599Y-74900501D02*
X170738800Y-66361702D01*
X193001580Y-74900501D02*
X179277599Y-74900501D01*
X193040000Y-73660000D02*
X193040000Y-74862081D01*
X193040000Y-74862081D02*
X193001580Y-74900501D01*
X170738800Y-56438800D02*
X160020000Y-45720000D01*
X170738800Y-66361702D02*
X170738800Y-56438800D01*
X186690000Y-40572081D02*
X181447440Y-45814641D01*
X186690000Y-39370000D02*
X186690000Y-40572081D01*
X181447440Y-52232560D02*
X175260000Y-58420000D01*
X181447440Y-45814641D02*
X181447440Y-52232560D01*
X174847557Y-62309499D02*
X172054520Y-59516462D01*
X190500000Y-73660000D02*
X179149499Y-62309499D01*
X179149499Y-62309499D02*
X174847557Y-62309499D01*
X172054520Y-55214520D02*
X160020000Y-43180000D01*
X172054520Y-59516462D02*
X172054520Y-55214520D01*
X186690000Y-64770000D02*
X181530501Y-59610501D01*
X174688559Y-59610501D02*
X173304200Y-58226142D01*
X181530501Y-59610501D02*
X174688559Y-59610501D01*
X173304200Y-53924200D02*
X160020000Y-40640000D01*
X173304200Y-58226142D02*
X173304200Y-53924200D01*
D19*
G36*
X199084767Y-23298232D02*
G01*
X199607984Y-23724959D01*
X200217771Y-24406969D01*
X200713360Y-25175974D01*
X201082548Y-26013036D01*
X201316246Y-26897548D01*
X201410948Y-27829867D01*
X201412233Y-27943134D01*
X201298883Y-84891278D01*
X201247152Y-85816550D01*
X201058536Y-86688934D01*
X200735769Y-87521078D01*
X200286802Y-88292479D01*
X199722692Y-88984147D01*
X199057316Y-89579063D01*
X198580810Y-89886150D01*
X111747854Y-89604949D01*
X111701968Y-84869872D01*
X114605000Y-84869872D01*
X114605000Y-85310128D01*
X114690890Y-85741925D01*
X114859369Y-86148669D01*
X115103962Y-86514729D01*
X115415271Y-86826038D01*
X115781331Y-87070631D01*
X116188075Y-87239110D01*
X116619872Y-87325000D01*
X117060128Y-87325000D01*
X117491925Y-87239110D01*
X117898669Y-87070631D01*
X118264729Y-86826038D01*
X118576038Y-86514729D01*
X118820631Y-86148669D01*
X118989110Y-85741925D01*
X119075000Y-85310128D01*
X119075000Y-84869872D01*
X193345000Y-84869872D01*
X193345000Y-85310128D01*
X193430890Y-85741925D01*
X193599369Y-86148669D01*
X193843962Y-86514729D01*
X194155271Y-86826038D01*
X194521331Y-87070631D01*
X194928075Y-87239110D01*
X195359872Y-87325000D01*
X195800128Y-87325000D01*
X196231925Y-87239110D01*
X196638669Y-87070631D01*
X197004729Y-86826038D01*
X197316038Y-86514729D01*
X197560631Y-86148669D01*
X197729110Y-85741925D01*
X197815000Y-85310128D01*
X197815000Y-84869872D01*
X197729110Y-84438075D01*
X197560631Y-84031331D01*
X197316038Y-83665271D01*
X197004729Y-83353962D01*
X196638669Y-83109369D01*
X196231925Y-82940890D01*
X195800128Y-82855000D01*
X195359872Y-82855000D01*
X194928075Y-82940890D01*
X194521331Y-83109369D01*
X194155271Y-83353962D01*
X193843962Y-83665271D01*
X193599369Y-84031331D01*
X193430890Y-84438075D01*
X193345000Y-84869872D01*
X119075000Y-84869872D01*
X118989110Y-84438075D01*
X118820631Y-84031331D01*
X118576038Y-83665271D01*
X118264729Y-83353962D01*
X117898669Y-83109369D01*
X117491925Y-82940890D01*
X117060128Y-82855000D01*
X116619872Y-82855000D01*
X116188075Y-82940890D01*
X115781331Y-83109369D01*
X115415271Y-83353962D01*
X115103962Y-83665271D01*
X114859369Y-84031331D01*
X114690890Y-84438075D01*
X114605000Y-84869872D01*
X111701968Y-84869872D01*
X111674434Y-82028540D01*
X143617048Y-82028540D01*
X143629308Y-82153022D01*
X143665618Y-82272720D01*
X143724583Y-82383034D01*
X143803935Y-82479725D01*
X143900626Y-82559077D01*
X144010940Y-82618042D01*
X144130638Y-82654352D01*
X144255120Y-82666612D01*
X144819370Y-82663540D01*
X144978120Y-82504790D01*
X144978120Y-81155540D01*
X143778870Y-81155540D01*
X143620120Y-81314290D01*
X143617048Y-82028540D01*
X111674434Y-82028540D01*
X111655053Y-80028540D01*
X143617048Y-80028540D01*
X143620120Y-80742790D01*
X143778870Y-80901540D01*
X144978120Y-80901540D01*
X144978120Y-79552290D01*
X144819370Y-79393540D01*
X144255120Y-79390468D01*
X144130638Y-79402728D01*
X144010940Y-79439038D01*
X143900626Y-79498003D01*
X143803935Y-79577355D01*
X143724583Y-79674046D01*
X143665618Y-79784360D01*
X143629308Y-79904058D01*
X143617048Y-80028540D01*
X111655053Y-80028540D01*
X111585098Y-72810000D01*
X115351928Y-72810000D01*
X115351928Y-74510000D01*
X115364188Y-74634482D01*
X115400498Y-74754180D01*
X115459463Y-74864494D01*
X115538815Y-74961185D01*
X115635506Y-75040537D01*
X115745820Y-75099502D01*
X115865518Y-75135812D01*
X115990000Y-75148072D01*
X117690000Y-75148072D01*
X117814482Y-75135812D01*
X117934180Y-75099502D01*
X118044494Y-75040537D01*
X118141185Y-74961185D01*
X118220537Y-74864494D01*
X118279502Y-74754180D01*
X118303966Y-74673534D01*
X118379731Y-74757588D01*
X118613080Y-74931641D01*
X118875901Y-75056825D01*
X119023110Y-75101476D01*
X119253000Y-74980155D01*
X119253000Y-73787000D01*
X119233000Y-73787000D01*
X119233000Y-73533000D01*
X119253000Y-73533000D01*
X119253000Y-72339845D01*
X119023110Y-72218524D01*
X118875901Y-72263175D01*
X118613080Y-72388359D01*
X118379731Y-72562412D01*
X118303966Y-72646466D01*
X118279502Y-72565820D01*
X118220537Y-72455506D01*
X118141185Y-72358815D01*
X118044494Y-72279463D01*
X117934180Y-72220498D01*
X117814482Y-72184188D01*
X117690000Y-72171928D01*
X115990000Y-72171928D01*
X115865518Y-72184188D01*
X115745820Y-72220498D01*
X115635506Y-72279463D01*
X115538815Y-72358815D01*
X115459463Y-72455506D01*
X115400498Y-72565820D01*
X115364188Y-72685518D01*
X115351928Y-72810000D01*
X111585098Y-72810000D01*
X111505766Y-64623740D01*
X117895000Y-64623740D01*
X117895000Y-64916260D01*
X117952068Y-65203158D01*
X118064010Y-65473411D01*
X118226525Y-65716632D01*
X118433368Y-65923475D01*
X118676589Y-66085990D01*
X118946842Y-66197932D01*
X119233740Y-66255000D01*
X119526260Y-66255000D01*
X119813158Y-66197932D01*
X120083411Y-66085990D01*
X120326632Y-65923475D01*
X120533475Y-65716632D01*
X120651100Y-65540594D01*
X120822412Y-65770269D01*
X121038645Y-65965178D01*
X121288748Y-66114157D01*
X121563109Y-66211481D01*
X121793000Y-66090814D01*
X121793000Y-64897000D01*
X121773000Y-64897000D01*
X121773000Y-64643000D01*
X121793000Y-64643000D01*
X121793000Y-64623000D01*
X122047000Y-64623000D01*
X122047000Y-64643000D01*
X122067000Y-64643000D01*
X122067000Y-64897000D01*
X122047000Y-64897000D01*
X122047000Y-66090814D01*
X122276891Y-66211481D01*
X122551252Y-66114157D01*
X122801355Y-65965178D01*
X122997502Y-65788374D01*
X123020498Y-65864180D01*
X123079463Y-65974494D01*
X123158815Y-66071185D01*
X123255506Y-66150537D01*
X123365820Y-66209502D01*
X123485518Y-66245812D01*
X123610000Y-66258072D01*
X124730575Y-66258072D01*
X121364961Y-69623687D01*
X121333460Y-69649539D01*
X121307609Y-69681039D01*
X121230301Y-69775238D01*
X121153647Y-69918647D01*
X121106445Y-70074254D01*
X121090506Y-70236080D01*
X121094501Y-70276640D01*
X121094500Y-72425587D01*
X120973368Y-72506525D01*
X120766525Y-72713368D01*
X120644805Y-72895534D01*
X120575178Y-72778645D01*
X120380269Y-72562412D01*
X120146920Y-72388359D01*
X119884099Y-72263175D01*
X119736890Y-72218524D01*
X119507000Y-72339845D01*
X119507000Y-73533000D01*
X119527000Y-73533000D01*
X119527000Y-73787000D01*
X119507000Y-73787000D01*
X119507000Y-74980155D01*
X119736890Y-75101476D01*
X119884099Y-75056825D01*
X120146920Y-74931641D01*
X120380269Y-74757588D01*
X120575178Y-74541355D01*
X120644805Y-74424466D01*
X120766525Y-74606632D01*
X120973368Y-74813475D01*
X121216589Y-74975990D01*
X121486842Y-75087932D01*
X121773740Y-75145000D01*
X122066260Y-75145000D01*
X122353158Y-75087932D01*
X122623411Y-74975990D01*
X122866632Y-74813475D01*
X123073475Y-74606632D01*
X123190000Y-74432240D01*
X123306525Y-74606632D01*
X123513368Y-74813475D01*
X123756589Y-74975990D01*
X124026842Y-75087932D01*
X124313740Y-75145000D01*
X124606260Y-75145000D01*
X124893158Y-75087932D01*
X125163411Y-74975990D01*
X125406632Y-74813475D01*
X125613475Y-74606632D01*
X125775990Y-74363411D01*
X125887932Y-74093158D01*
X125945000Y-73806260D01*
X125945000Y-73513740D01*
X125887932Y-73226842D01*
X125775990Y-72956589D01*
X125613475Y-72713368D01*
X125406632Y-72506525D01*
X125285500Y-72425587D01*
X125285500Y-70852332D01*
X127699167Y-68438665D01*
X135725000Y-68438665D01*
X135725000Y-68721335D01*
X135780147Y-68998574D01*
X135888320Y-69259727D01*
X136045363Y-69494759D01*
X136245241Y-69694637D01*
X136480273Y-69851680D01*
X136741426Y-69959853D01*
X137018665Y-70015000D01*
X137301335Y-70015000D01*
X137578574Y-69959853D01*
X137839727Y-69851680D01*
X138074759Y-69694637D01*
X138274637Y-69494759D01*
X138431680Y-69259727D01*
X138539853Y-68998574D01*
X138595000Y-68721335D01*
X138595000Y-68438665D01*
X138539853Y-68161426D01*
X138431680Y-67900273D01*
X138274637Y-67665241D01*
X138074759Y-67465363D01*
X137839727Y-67308320D01*
X137829135Y-67303933D01*
X138015131Y-67192385D01*
X138223519Y-67003414D01*
X138391037Y-66777420D01*
X138511246Y-66523087D01*
X138551904Y-66389039D01*
X138429915Y-66167000D01*
X137287000Y-66167000D01*
X137287000Y-66187000D01*
X137033000Y-66187000D01*
X137033000Y-66167000D01*
X135890085Y-66167000D01*
X135768096Y-66389039D01*
X135808754Y-66523087D01*
X135928963Y-66777420D01*
X136096481Y-67003414D01*
X136304869Y-67192385D01*
X136490865Y-67303933D01*
X136480273Y-67308320D01*
X136245241Y-67465363D01*
X136045363Y-67665241D01*
X135888320Y-67900273D01*
X135780147Y-68161426D01*
X135725000Y-68438665D01*
X127699167Y-68438665D01*
X130948481Y-65189352D01*
X130979981Y-65163501D01*
X131051310Y-65076586D01*
X131083139Y-65037803D01*
X131138088Y-64935000D01*
X131159793Y-64894394D01*
X131206996Y-64738786D01*
X131218940Y-64617513D01*
X131218940Y-64617511D01*
X131222934Y-64576961D01*
X131218940Y-64536410D01*
X131218940Y-52828492D01*
X135725000Y-48322433D01*
X135725000Y-48401335D01*
X135780147Y-48678574D01*
X135888320Y-48939727D01*
X136045363Y-49174759D01*
X136245241Y-49374637D01*
X136477759Y-49530000D01*
X136245241Y-49685363D01*
X136045363Y-49885241D01*
X135888320Y-50120273D01*
X135780147Y-50381426D01*
X135725000Y-50658665D01*
X135725000Y-50941335D01*
X135780147Y-51218574D01*
X135888320Y-51479727D01*
X136045363Y-51714759D01*
X136245241Y-51914637D01*
X136477759Y-52070000D01*
X136245241Y-52225363D01*
X136045363Y-52425241D01*
X135888320Y-52660273D01*
X135780147Y-52921426D01*
X135725000Y-53198665D01*
X135725000Y-53481335D01*
X135780147Y-53758574D01*
X135888320Y-54019727D01*
X136045363Y-54254759D01*
X136245241Y-54454637D01*
X136477759Y-54610000D01*
X136245241Y-54765363D01*
X136045363Y-54965241D01*
X135888320Y-55200273D01*
X135780147Y-55461426D01*
X135725000Y-55738665D01*
X135725000Y-56021335D01*
X135780147Y-56298574D01*
X135888320Y-56559727D01*
X136045363Y-56794759D01*
X136245241Y-56994637D01*
X136477759Y-57150000D01*
X136245241Y-57305363D01*
X136045363Y-57505241D01*
X135888320Y-57740273D01*
X135780147Y-58001426D01*
X135725000Y-58278665D01*
X135725000Y-58561335D01*
X135780147Y-58838574D01*
X135888320Y-59099727D01*
X136045363Y-59334759D01*
X136245241Y-59534637D01*
X136477759Y-59690000D01*
X136245241Y-59845363D01*
X136045363Y-60045241D01*
X135888320Y-60280273D01*
X135780147Y-60541426D01*
X135725000Y-60818665D01*
X135725000Y-61101335D01*
X135780147Y-61378574D01*
X135888320Y-61639727D01*
X136045363Y-61874759D01*
X136245241Y-62074637D01*
X136477759Y-62230000D01*
X136245241Y-62385363D01*
X136045363Y-62585241D01*
X135888320Y-62820273D01*
X135780147Y-63081426D01*
X135725000Y-63358665D01*
X135725000Y-63641335D01*
X135780147Y-63918574D01*
X135888320Y-64179727D01*
X136045363Y-64414759D01*
X136245241Y-64614637D01*
X136480273Y-64771680D01*
X136490865Y-64776067D01*
X136304869Y-64887615D01*
X136096481Y-65076586D01*
X135928963Y-65302580D01*
X135808754Y-65556913D01*
X135768096Y-65690961D01*
X135890085Y-65913000D01*
X137033000Y-65913000D01*
X137033000Y-65893000D01*
X137287000Y-65893000D01*
X137287000Y-65913000D01*
X138429915Y-65913000D01*
X138551904Y-65690961D01*
X138511246Y-65556913D01*
X138391037Y-65302580D01*
X138223519Y-65076586D01*
X138015131Y-64887615D01*
X137829135Y-64776067D01*
X137839727Y-64771680D01*
X138074759Y-64614637D01*
X138274637Y-64414759D01*
X138431680Y-64179727D01*
X138539853Y-63918574D01*
X138595000Y-63641335D01*
X138595000Y-63358665D01*
X138539853Y-63081426D01*
X138431680Y-62820273D01*
X138274637Y-62585241D01*
X138074759Y-62385363D01*
X137842241Y-62230000D01*
X138074759Y-62074637D01*
X138274637Y-61874759D01*
X138431680Y-61639727D01*
X138539853Y-61378574D01*
X138595000Y-61101335D01*
X138595000Y-60818665D01*
X138539853Y-60541426D01*
X138431680Y-60280273D01*
X138274637Y-60045241D01*
X138074759Y-59845363D01*
X137842241Y-59690000D01*
X138074759Y-59534637D01*
X138274637Y-59334759D01*
X138431680Y-59099727D01*
X138539853Y-58838574D01*
X138595000Y-58561335D01*
X138595000Y-58278665D01*
X138539853Y-58001426D01*
X138431680Y-57740273D01*
X138274637Y-57505241D01*
X138074759Y-57305363D01*
X137842241Y-57150000D01*
X138074759Y-56994637D01*
X138274637Y-56794759D01*
X138431680Y-56559727D01*
X138539853Y-56298574D01*
X138595000Y-56021335D01*
X138595000Y-55738665D01*
X138539853Y-55461426D01*
X138431680Y-55200273D01*
X138274637Y-54965241D01*
X138074759Y-54765363D01*
X137842241Y-54610000D01*
X138074759Y-54454637D01*
X138274637Y-54254759D01*
X138431680Y-54019727D01*
X138539853Y-53758574D01*
X138595000Y-53481335D01*
X138595000Y-53402432D01*
X146819620Y-61627054D01*
X146819621Y-79635955D01*
X146816106Y-79637834D01*
X146589986Y-79823406D01*
X146565513Y-79853227D01*
X146544622Y-79784360D01*
X146485657Y-79674046D01*
X146406305Y-79577355D01*
X146309614Y-79498003D01*
X146199300Y-79439038D01*
X146079602Y-79402728D01*
X145955120Y-79390468D01*
X145390870Y-79393540D01*
X145232120Y-79552290D01*
X145232120Y-80901540D01*
X145252120Y-80901540D01*
X145252120Y-81155540D01*
X145232120Y-81155540D01*
X145232120Y-82504790D01*
X145390870Y-82663540D01*
X145955120Y-82666612D01*
X146079602Y-82654352D01*
X146199300Y-82618042D01*
X146309614Y-82559077D01*
X146406305Y-82479725D01*
X146485657Y-82383034D01*
X146544622Y-82272720D01*
X146565513Y-82203853D01*
X146589986Y-82233674D01*
X146816107Y-82419246D01*
X147074087Y-82557139D01*
X147354010Y-82642053D01*
X147645120Y-82670725D01*
X147936231Y-82642053D01*
X148216154Y-82557139D01*
X148474134Y-82419246D01*
X148700254Y-82233674D01*
X148885826Y-82007554D01*
X149023719Y-81749573D01*
X149108633Y-81469650D01*
X149130120Y-81251489D01*
X149130120Y-80805590D01*
X149108633Y-80587429D01*
X149023719Y-80307506D01*
X148932582Y-80137000D01*
X163318928Y-80137000D01*
X163318928Y-82423000D01*
X163331188Y-82547482D01*
X163367498Y-82667180D01*
X163426463Y-82777494D01*
X163505815Y-82874185D01*
X163602506Y-82953537D01*
X163712820Y-83012502D01*
X163832518Y-83048812D01*
X163957000Y-83061072D01*
X166243000Y-83061072D01*
X166367482Y-83048812D01*
X166487180Y-83012502D01*
X166597494Y-82953537D01*
X166694185Y-82874185D01*
X166773537Y-82777494D01*
X166832502Y-82667180D01*
X166868812Y-82547482D01*
X166871778Y-82517360D01*
X169122245Y-82517360D01*
X169235264Y-82796384D01*
X169549249Y-82951556D01*
X169887473Y-83042491D01*
X170236938Y-83065694D01*
X170584216Y-83020275D01*
X170915960Y-82907977D01*
X171124736Y-82796384D01*
X171237755Y-82517360D01*
X170180000Y-81459605D01*
X169122245Y-82517360D01*
X166871778Y-82517360D01*
X166881072Y-82423000D01*
X166881072Y-81336938D01*
X168394306Y-81336938D01*
X168439725Y-81684216D01*
X168552023Y-82015960D01*
X168663616Y-82224736D01*
X168942640Y-82337755D01*
X170000395Y-81280000D01*
X170359605Y-81280000D01*
X171417360Y-82337755D01*
X171696384Y-82224736D01*
X171851556Y-81910751D01*
X171942491Y-81572527D01*
X171965694Y-81223062D01*
X171920275Y-80875784D01*
X171807977Y-80544040D01*
X171696384Y-80335264D01*
X171417360Y-80222245D01*
X170359605Y-81280000D01*
X170000395Y-81280000D01*
X168942640Y-80222245D01*
X168663616Y-80335264D01*
X168508444Y-80649249D01*
X168417509Y-80987473D01*
X168394306Y-81336938D01*
X166881072Y-81336938D01*
X166881072Y-80137000D01*
X166871779Y-80042640D01*
X169122245Y-80042640D01*
X170180000Y-81100395D01*
X171237755Y-80042640D01*
X171124736Y-79763616D01*
X170810751Y-79608444D01*
X170472527Y-79517509D01*
X170123062Y-79494306D01*
X169775784Y-79539725D01*
X169444040Y-79652023D01*
X169235264Y-79763616D01*
X169122245Y-80042640D01*
X166871779Y-80042640D01*
X166868812Y-80012518D01*
X166832502Y-79892820D01*
X166773537Y-79782506D01*
X166694185Y-79685815D01*
X166597494Y-79606463D01*
X166487180Y-79547498D01*
X166367482Y-79511188D01*
X166243000Y-79498928D01*
X163957000Y-79498928D01*
X163832518Y-79511188D01*
X163712820Y-79547498D01*
X163602506Y-79606463D01*
X163505815Y-79685815D01*
X163426463Y-79782506D01*
X163367498Y-79892820D01*
X163331188Y-80012518D01*
X163318928Y-80137000D01*
X148932582Y-80137000D01*
X148885826Y-80049526D01*
X148700254Y-79823406D01*
X148474133Y-79637834D01*
X148470620Y-79635956D01*
X148470620Y-67780000D01*
X150961928Y-67780000D01*
X150961928Y-69380000D01*
X150974188Y-69504482D01*
X151010498Y-69624180D01*
X151069463Y-69734494D01*
X151148815Y-69831185D01*
X151245506Y-69910537D01*
X151355820Y-69969502D01*
X151475518Y-70005812D01*
X151600000Y-70018072D01*
X153200000Y-70018072D01*
X153324482Y-70005812D01*
X153444180Y-69969502D01*
X153554494Y-69910537D01*
X153651185Y-69831185D01*
X153730537Y-69734494D01*
X153789502Y-69624180D01*
X153825812Y-69504482D01*
X153838072Y-69380000D01*
X153838072Y-68438665D01*
X158585000Y-68438665D01*
X158585000Y-68721335D01*
X158640147Y-68998574D01*
X158748320Y-69259727D01*
X158905363Y-69494759D01*
X159105241Y-69694637D01*
X159340273Y-69851680D01*
X159601426Y-69959853D01*
X159878665Y-70015000D01*
X160161335Y-70015000D01*
X160438574Y-69959853D01*
X160699727Y-69851680D01*
X160934759Y-69694637D01*
X161134637Y-69494759D01*
X161291680Y-69259727D01*
X161399853Y-68998574D01*
X161455000Y-68721335D01*
X161455000Y-68438665D01*
X161399853Y-68161426D01*
X161291680Y-67900273D01*
X161134637Y-67665241D01*
X160934759Y-67465363D01*
X160699727Y-67308320D01*
X160689135Y-67303933D01*
X160875131Y-67192385D01*
X161083519Y-67003414D01*
X161251037Y-66777420D01*
X161371246Y-66523087D01*
X161411904Y-66389039D01*
X161289915Y-66167000D01*
X160147000Y-66167000D01*
X160147000Y-66187000D01*
X159893000Y-66187000D01*
X159893000Y-66167000D01*
X158750085Y-66167000D01*
X158628096Y-66389039D01*
X158668754Y-66523087D01*
X158788963Y-66777420D01*
X158956481Y-67003414D01*
X159164869Y-67192385D01*
X159350865Y-67303933D01*
X159340273Y-67308320D01*
X159105241Y-67465363D01*
X158905363Y-67665241D01*
X158748320Y-67900273D01*
X158640147Y-68161426D01*
X158585000Y-68438665D01*
X153838072Y-68438665D01*
X153838072Y-67780000D01*
X153825812Y-67655518D01*
X153789502Y-67535820D01*
X153730537Y-67425506D01*
X153651185Y-67328815D01*
X153554494Y-67249463D01*
X153444180Y-67190498D01*
X153324482Y-67154188D01*
X153316039Y-67153357D01*
X153514637Y-66954759D01*
X153671680Y-66719727D01*
X153779853Y-66458574D01*
X153835000Y-66181335D01*
X153835000Y-65898665D01*
X153779853Y-65621426D01*
X153671680Y-65360273D01*
X153514637Y-65125241D01*
X153314759Y-64925363D01*
X153082241Y-64770000D01*
X153314759Y-64614637D01*
X153514637Y-64414759D01*
X153671680Y-64179727D01*
X153779853Y-63918574D01*
X153835000Y-63641335D01*
X153835000Y-63358665D01*
X153779853Y-63081426D01*
X153671680Y-62820273D01*
X153514637Y-62585241D01*
X153314759Y-62385363D01*
X153079727Y-62228320D01*
X153069135Y-62223933D01*
X153255131Y-62112385D01*
X153463519Y-61923414D01*
X153631037Y-61697420D01*
X153751246Y-61443087D01*
X153791904Y-61309039D01*
X153669915Y-61087000D01*
X152527000Y-61087000D01*
X152527000Y-61107000D01*
X152273000Y-61107000D01*
X152273000Y-61087000D01*
X151130085Y-61087000D01*
X151008096Y-61309039D01*
X151048754Y-61443087D01*
X151168963Y-61697420D01*
X151336481Y-61923414D01*
X151544869Y-62112385D01*
X151730865Y-62223933D01*
X151720273Y-62228320D01*
X151485241Y-62385363D01*
X151285363Y-62585241D01*
X151128320Y-62820273D01*
X151020147Y-63081426D01*
X150965000Y-63358665D01*
X150965000Y-63641335D01*
X151020147Y-63918574D01*
X151128320Y-64179727D01*
X151285363Y-64414759D01*
X151485241Y-64614637D01*
X151717759Y-64770000D01*
X151485241Y-64925363D01*
X151285363Y-65125241D01*
X151128320Y-65360273D01*
X151020147Y-65621426D01*
X150965000Y-65898665D01*
X150965000Y-66181335D01*
X151020147Y-66458574D01*
X151128320Y-66719727D01*
X151285363Y-66954759D01*
X151483961Y-67153357D01*
X151475518Y-67154188D01*
X151355820Y-67190498D01*
X151245506Y-67249463D01*
X151148815Y-67328815D01*
X151069463Y-67425506D01*
X151010498Y-67535820D01*
X150974188Y-67655518D01*
X150961928Y-67780000D01*
X148470620Y-67780000D01*
X148470620Y-61325670D01*
X148474614Y-61285120D01*
X148470620Y-61244567D01*
X148458676Y-61123294D01*
X148411473Y-60967686D01*
X148334819Y-60824277D01*
X148257512Y-60730078D01*
X148257509Y-60730075D01*
X148231661Y-60698579D01*
X148200166Y-60672732D01*
X140343433Y-52816001D01*
X151063815Y-52816001D01*
X151020147Y-52921426D01*
X150965000Y-53198665D01*
X150965000Y-53481335D01*
X151020147Y-53758574D01*
X151128320Y-54019727D01*
X151285363Y-54254759D01*
X151485241Y-54454637D01*
X151717759Y-54610000D01*
X151485241Y-54765363D01*
X151285363Y-54965241D01*
X151128320Y-55200273D01*
X151020147Y-55461426D01*
X150965000Y-55738665D01*
X150965000Y-56021335D01*
X151020147Y-56298574D01*
X151128320Y-56559727D01*
X151285363Y-56794759D01*
X151485241Y-56994637D01*
X151717759Y-57150000D01*
X151485241Y-57305363D01*
X151285363Y-57505241D01*
X151128320Y-57740273D01*
X151020147Y-58001426D01*
X150965000Y-58278665D01*
X150965000Y-58561335D01*
X151020147Y-58838574D01*
X151128320Y-59099727D01*
X151285363Y-59334759D01*
X151485241Y-59534637D01*
X151720273Y-59691680D01*
X151730865Y-59696067D01*
X151544869Y-59807615D01*
X151336481Y-59996586D01*
X151168963Y-60222580D01*
X151048754Y-60476913D01*
X151008096Y-60610961D01*
X151130085Y-60833000D01*
X152273000Y-60833000D01*
X152273000Y-60813000D01*
X152527000Y-60813000D01*
X152527000Y-60833000D01*
X153669915Y-60833000D01*
X153791904Y-60610961D01*
X153751246Y-60476913D01*
X153631037Y-60222580D01*
X153463519Y-59996586D01*
X153255131Y-59807615D01*
X153069135Y-59696067D01*
X153079727Y-59691680D01*
X153314759Y-59534637D01*
X153514637Y-59334759D01*
X153671680Y-59099727D01*
X153779853Y-58838574D01*
X153835000Y-58561335D01*
X153835000Y-58278665D01*
X153779853Y-58001426D01*
X153671680Y-57740273D01*
X153514637Y-57505241D01*
X153314759Y-57305363D01*
X153082241Y-57150000D01*
X153314759Y-56994637D01*
X153514637Y-56794759D01*
X153671680Y-56559727D01*
X153779853Y-56298574D01*
X153835000Y-56021335D01*
X153835000Y-55738665D01*
X153779853Y-55461426D01*
X153671680Y-55200273D01*
X153514637Y-54965241D01*
X153314759Y-54765363D01*
X153082241Y-54610000D01*
X153314759Y-54454637D01*
X153514637Y-54254759D01*
X153671680Y-54019727D01*
X153779853Y-53758574D01*
X153835000Y-53481335D01*
X153835000Y-53198665D01*
X153779853Y-52921426D01*
X153736185Y-52816001D01*
X158683815Y-52816001D01*
X158640147Y-52921426D01*
X158585000Y-53198665D01*
X158585000Y-53481335D01*
X158640147Y-53758574D01*
X158748320Y-54019727D01*
X158905363Y-54254759D01*
X159105241Y-54454637D01*
X159337759Y-54610000D01*
X159105241Y-54765363D01*
X158905363Y-54965241D01*
X158748320Y-55200273D01*
X158640147Y-55461426D01*
X158585000Y-55738665D01*
X158585000Y-56021335D01*
X158640147Y-56298574D01*
X158748320Y-56559727D01*
X158905363Y-56794759D01*
X159105241Y-56994637D01*
X159337759Y-57150000D01*
X159105241Y-57305363D01*
X158905363Y-57505241D01*
X158748320Y-57740273D01*
X158640147Y-58001426D01*
X158585000Y-58278665D01*
X158585000Y-58561335D01*
X158640147Y-58838574D01*
X158748320Y-59099727D01*
X158905363Y-59334759D01*
X159105241Y-59534637D01*
X159337759Y-59690000D01*
X159105241Y-59845363D01*
X158905363Y-60045241D01*
X158748320Y-60280273D01*
X158640147Y-60541426D01*
X158585000Y-60818665D01*
X158585000Y-61101335D01*
X158640147Y-61378574D01*
X158748320Y-61639727D01*
X158905363Y-61874759D01*
X159105241Y-62074637D01*
X159337759Y-62230000D01*
X159105241Y-62385363D01*
X158905363Y-62585241D01*
X158748320Y-62820273D01*
X158640147Y-63081426D01*
X158585000Y-63358665D01*
X158585000Y-63641335D01*
X158640147Y-63918574D01*
X158748320Y-64179727D01*
X158905363Y-64414759D01*
X159105241Y-64614637D01*
X159340273Y-64771680D01*
X159350865Y-64776067D01*
X159164869Y-64887615D01*
X158956481Y-65076586D01*
X158788963Y-65302580D01*
X158668754Y-65556913D01*
X158628096Y-65690961D01*
X158750085Y-65913000D01*
X159893000Y-65913000D01*
X159893000Y-65893000D01*
X160147000Y-65893000D01*
X160147000Y-65913000D01*
X161289915Y-65913000D01*
X161411904Y-65690961D01*
X161371246Y-65556913D01*
X161251037Y-65302580D01*
X161083519Y-65076586D01*
X160875131Y-64887615D01*
X160689135Y-64776067D01*
X160699727Y-64771680D01*
X160934759Y-64614637D01*
X161134637Y-64414759D01*
X161291680Y-64179727D01*
X161399853Y-63918574D01*
X161455000Y-63641335D01*
X161455000Y-63358665D01*
X161399853Y-63081426D01*
X161291680Y-62820273D01*
X161134637Y-62585241D01*
X160934759Y-62385363D01*
X160702241Y-62230000D01*
X160934759Y-62074637D01*
X161134637Y-61874759D01*
X161291680Y-61639727D01*
X161399853Y-61378574D01*
X161455000Y-61101335D01*
X161455000Y-60818665D01*
X161399853Y-60541426D01*
X161291680Y-60280273D01*
X161134637Y-60045241D01*
X160934759Y-59845363D01*
X160702241Y-59690000D01*
X160934759Y-59534637D01*
X161134637Y-59334759D01*
X161291680Y-59099727D01*
X161399853Y-58838574D01*
X161455000Y-58561335D01*
X161455000Y-58278665D01*
X161399853Y-58001426D01*
X161291680Y-57740273D01*
X161134637Y-57505241D01*
X160934759Y-57305363D01*
X160702241Y-57150000D01*
X160934759Y-56994637D01*
X161134637Y-56794759D01*
X161291680Y-56559727D01*
X161399853Y-56298574D01*
X161455000Y-56021335D01*
X161455000Y-55738665D01*
X161399853Y-55461426D01*
X161291680Y-55200273D01*
X161134637Y-54965241D01*
X160934759Y-54765363D01*
X160702241Y-54610000D01*
X160934759Y-54454637D01*
X161134637Y-54254759D01*
X161291680Y-54019727D01*
X161399853Y-53758574D01*
X161455000Y-53481335D01*
X161455000Y-53198665D01*
X161399853Y-52921426D01*
X161291680Y-52660273D01*
X161134637Y-52425241D01*
X160934759Y-52225363D01*
X160702241Y-52070000D01*
X160934759Y-51914637D01*
X161134637Y-51714759D01*
X161291680Y-51479727D01*
X161399853Y-51218574D01*
X161455000Y-50941335D01*
X161455000Y-50658665D01*
X161399853Y-50381426D01*
X161291680Y-50120273D01*
X161134637Y-49885241D01*
X160934759Y-49685363D01*
X160702241Y-49530000D01*
X160934759Y-49374637D01*
X161134637Y-49174759D01*
X161291680Y-48939727D01*
X161399853Y-48678574D01*
X161455000Y-48401335D01*
X161455000Y-48322432D01*
X169913301Y-56780734D01*
X169913300Y-66321152D01*
X169909306Y-66361702D01*
X169913300Y-66402252D01*
X169913300Y-66402254D01*
X169925244Y-66523527D01*
X169972447Y-66679135D01*
X170049101Y-66822544D01*
X170083014Y-66863867D01*
X170152259Y-66948243D01*
X170183766Y-66974100D01*
X178665206Y-75455541D01*
X178691058Y-75487042D01*
X178816757Y-75590200D01*
X178960165Y-75666854D01*
X179115773Y-75714057D01*
X179237046Y-75726001D01*
X179237055Y-75726001D01*
X179277598Y-75729994D01*
X179318141Y-75726001D01*
X192961030Y-75726001D01*
X193001580Y-75729995D01*
X193042130Y-75726001D01*
X193042133Y-75726001D01*
X193163406Y-75714057D01*
X193319014Y-75666854D01*
X193462422Y-75590200D01*
X193588121Y-75487042D01*
X193605439Y-75465940D01*
X193626541Y-75448622D01*
X193729699Y-75322923D01*
X193806353Y-75179515D01*
X193853556Y-75023907D01*
X193865500Y-74902634D01*
X193865500Y-74902632D01*
X193866367Y-74893834D01*
X193986632Y-74813475D01*
X194193475Y-74606632D01*
X194355990Y-74363411D01*
X194467932Y-74093158D01*
X194525000Y-73806260D01*
X194525000Y-73513740D01*
X194467932Y-73226842D01*
X194355990Y-72956589D01*
X194193475Y-72713368D01*
X193986632Y-72506525D01*
X193743411Y-72344010D01*
X193473158Y-72232068D01*
X193186260Y-72175000D01*
X192893740Y-72175000D01*
X192606842Y-72232068D01*
X192336589Y-72344010D01*
X192093368Y-72506525D01*
X191886525Y-72713368D01*
X191770000Y-72887760D01*
X191653475Y-72713368D01*
X191446632Y-72506525D01*
X191203411Y-72344010D01*
X190933158Y-72232068D01*
X190646260Y-72175000D01*
X190353740Y-72175000D01*
X190210855Y-72203422D01*
X179761897Y-61754465D01*
X179736040Y-61722958D01*
X179610341Y-61619800D01*
X179466933Y-61543146D01*
X179311325Y-61495943D01*
X179190052Y-61483999D01*
X179190049Y-61483999D01*
X179149499Y-61480005D01*
X179108949Y-61483999D01*
X176591909Y-61483999D01*
X176611246Y-61443087D01*
X176651904Y-61309039D01*
X176529915Y-61087000D01*
X175387000Y-61087000D01*
X175387000Y-61107000D01*
X175133000Y-61107000D01*
X175133000Y-61087000D01*
X175113000Y-61087000D01*
X175113000Y-60833000D01*
X175133000Y-60833000D01*
X175133000Y-60813000D01*
X175387000Y-60813000D01*
X175387000Y-60833000D01*
X176529915Y-60833000D01*
X176651904Y-60610961D01*
X176611246Y-60476913D01*
X176591909Y-60436001D01*
X181188569Y-60436001D01*
X185233422Y-64480855D01*
X185205000Y-64623740D01*
X185205000Y-64916260D01*
X185262068Y-65203158D01*
X185374010Y-65473411D01*
X185536525Y-65716632D01*
X185743368Y-65923475D01*
X185986589Y-66085990D01*
X186256842Y-66197932D01*
X186543740Y-66255000D01*
X186836260Y-66255000D01*
X187123158Y-66197932D01*
X187393411Y-66085990D01*
X187636632Y-65923475D01*
X187843475Y-65716632D01*
X187961100Y-65540594D01*
X188132412Y-65770269D01*
X188348645Y-65965178D01*
X188598748Y-66114157D01*
X188873109Y-66211481D01*
X189103000Y-66090814D01*
X189103000Y-64897000D01*
X189083000Y-64897000D01*
X189083000Y-64643000D01*
X189103000Y-64643000D01*
X189103000Y-63449186D01*
X189357000Y-63449186D01*
X189357000Y-64643000D01*
X189377000Y-64643000D01*
X189377000Y-64897000D01*
X189357000Y-64897000D01*
X189357000Y-66090814D01*
X189586891Y-66211481D01*
X189861252Y-66114157D01*
X190111355Y-65965178D01*
X190307502Y-65788374D01*
X190330498Y-65864180D01*
X190389463Y-65974494D01*
X190468815Y-66071185D01*
X190565506Y-66150537D01*
X190675820Y-66209502D01*
X190795518Y-66245812D01*
X190920000Y-66258072D01*
X192620000Y-66258072D01*
X192744482Y-66245812D01*
X192864180Y-66209502D01*
X192974494Y-66150537D01*
X193071185Y-66071185D01*
X193150537Y-65974494D01*
X193209502Y-65864180D01*
X193245812Y-65744482D01*
X193258072Y-65620000D01*
X193258072Y-63920000D01*
X193245812Y-63795518D01*
X193209502Y-63675820D01*
X193150537Y-63565506D01*
X193071185Y-63468815D01*
X192974494Y-63389463D01*
X192864180Y-63330498D01*
X192744482Y-63294188D01*
X192620000Y-63281928D01*
X190920000Y-63281928D01*
X190795518Y-63294188D01*
X190675820Y-63330498D01*
X190565506Y-63389463D01*
X190468815Y-63468815D01*
X190389463Y-63565506D01*
X190330498Y-63675820D01*
X190307502Y-63751626D01*
X190111355Y-63574822D01*
X189861252Y-63425843D01*
X189586891Y-63328519D01*
X189357000Y-63449186D01*
X189103000Y-63449186D01*
X188873109Y-63328519D01*
X188598748Y-63425843D01*
X188348645Y-63574822D01*
X188132412Y-63769731D01*
X187961100Y-63999406D01*
X187843475Y-63823368D01*
X187636632Y-63616525D01*
X187393411Y-63454010D01*
X187123158Y-63342068D01*
X186836260Y-63285000D01*
X186543740Y-63285000D01*
X186400855Y-63313422D01*
X182142899Y-59055467D01*
X182117042Y-59023960D01*
X181991343Y-58920802D01*
X181847935Y-58844148D01*
X181692327Y-58796945D01*
X181571054Y-58785001D01*
X181571051Y-58785001D01*
X181530501Y-58781007D01*
X181489951Y-58785001D01*
X176650509Y-58785001D01*
X176695000Y-58561335D01*
X176695000Y-58278665D01*
X176674056Y-58173376D01*
X182002485Y-52844949D01*
X182033981Y-52819101D01*
X182059829Y-52787605D01*
X182059832Y-52787602D01*
X182137139Y-52693403D01*
X182213793Y-52549994D01*
X182245337Y-52446007D01*
X182251136Y-52426890D01*
X185248524Y-52426890D01*
X185293175Y-52574099D01*
X185418359Y-52836920D01*
X185592412Y-53070269D01*
X185808645Y-53265178D01*
X186058748Y-53414157D01*
X186333109Y-53511481D01*
X186563000Y-53390814D01*
X186563000Y-52197000D01*
X186817000Y-52197000D01*
X186817000Y-53390814D01*
X187046891Y-53511481D01*
X187321252Y-53414157D01*
X187571355Y-53265178D01*
X187787588Y-53070269D01*
X187960000Y-52839120D01*
X188132412Y-53070269D01*
X188348645Y-53265178D01*
X188598748Y-53414157D01*
X188873109Y-53511481D01*
X189103000Y-53390814D01*
X189103000Y-52197000D01*
X189357000Y-52197000D01*
X189357000Y-53390814D01*
X189586891Y-53511481D01*
X189861252Y-53414157D01*
X190111355Y-53265178D01*
X190307502Y-53088374D01*
X190330498Y-53164180D01*
X190389463Y-53274494D01*
X190468815Y-53371185D01*
X190565506Y-53450537D01*
X190675820Y-53509502D01*
X190795518Y-53545812D01*
X190920000Y-53558072D01*
X191484250Y-53555000D01*
X191643000Y-53396250D01*
X191643000Y-52197000D01*
X191897000Y-52197000D01*
X191897000Y-53396250D01*
X192055750Y-53555000D01*
X192620000Y-53558072D01*
X192744482Y-53545812D01*
X192864180Y-53509502D01*
X192974494Y-53450537D01*
X193071185Y-53371185D01*
X193150537Y-53274494D01*
X193209502Y-53164180D01*
X193245812Y-53044482D01*
X193258072Y-52920000D01*
X193255000Y-52355750D01*
X193096250Y-52197000D01*
X191897000Y-52197000D01*
X191643000Y-52197000D01*
X189357000Y-52197000D01*
X189103000Y-52197000D01*
X186817000Y-52197000D01*
X186563000Y-52197000D01*
X185369845Y-52197000D01*
X185248524Y-52426890D01*
X182251136Y-52426890D01*
X182260996Y-52394386D01*
X182272940Y-52273113D01*
X182272940Y-52273111D01*
X182276934Y-52232560D01*
X182272940Y-52192007D01*
X182272940Y-51713110D01*
X185248524Y-51713110D01*
X185369845Y-51943000D01*
X186563000Y-51943000D01*
X186563000Y-50749186D01*
X186817000Y-50749186D01*
X186817000Y-51943000D01*
X189103000Y-51943000D01*
X189103000Y-50749186D01*
X189357000Y-50749186D01*
X189357000Y-51943000D01*
X191643000Y-51943000D01*
X191643000Y-50743750D01*
X191897000Y-50743750D01*
X191897000Y-51943000D01*
X193096250Y-51943000D01*
X193255000Y-51784250D01*
X193258072Y-51220000D01*
X193245812Y-51095518D01*
X193209502Y-50975820D01*
X193150537Y-50865506D01*
X193071185Y-50768815D01*
X192974494Y-50689463D01*
X192864180Y-50630498D01*
X192744482Y-50594188D01*
X192620000Y-50581928D01*
X192055750Y-50585000D01*
X191897000Y-50743750D01*
X191643000Y-50743750D01*
X191484250Y-50585000D01*
X190920000Y-50581928D01*
X190795518Y-50594188D01*
X190675820Y-50630498D01*
X190565506Y-50689463D01*
X190468815Y-50768815D01*
X190389463Y-50865506D01*
X190330498Y-50975820D01*
X190307502Y-51051626D01*
X190111355Y-50874822D01*
X189861252Y-50725843D01*
X189586891Y-50628519D01*
X189357000Y-50749186D01*
X189103000Y-50749186D01*
X188873109Y-50628519D01*
X188598748Y-50725843D01*
X188348645Y-50874822D01*
X188132412Y-51069731D01*
X187960000Y-51300880D01*
X187787588Y-51069731D01*
X187571355Y-50874822D01*
X187321252Y-50725843D01*
X187046891Y-50628519D01*
X186817000Y-50749186D01*
X186563000Y-50749186D01*
X186333109Y-50628519D01*
X186058748Y-50725843D01*
X185808645Y-50874822D01*
X185592412Y-51069731D01*
X185418359Y-51303080D01*
X185293175Y-51565901D01*
X185248524Y-51713110D01*
X182272940Y-51713110D01*
X182272940Y-46156573D01*
X187245040Y-41184474D01*
X187276541Y-41158622D01*
X187358648Y-41058574D01*
X187379698Y-41032925D01*
X187420049Y-40957434D01*
X187456353Y-40889515D01*
X187503556Y-40733907D01*
X187515500Y-40612634D01*
X187515500Y-40612625D01*
X187516366Y-40603834D01*
X187636632Y-40523475D01*
X187843475Y-40316632D01*
X187960000Y-40142240D01*
X188076525Y-40316632D01*
X188283368Y-40523475D01*
X188526589Y-40685990D01*
X188796842Y-40797932D01*
X189083740Y-40855000D01*
X189376260Y-40855000D01*
X189663158Y-40797932D01*
X189933411Y-40685990D01*
X190176632Y-40523475D01*
X190308487Y-40391620D01*
X190330498Y-40464180D01*
X190389463Y-40574494D01*
X190468815Y-40671185D01*
X190565506Y-40750537D01*
X190675820Y-40809502D01*
X190795518Y-40845812D01*
X190920000Y-40858072D01*
X192620000Y-40858072D01*
X192744482Y-40845812D01*
X192864180Y-40809502D01*
X192974494Y-40750537D01*
X193071185Y-40671185D01*
X193150537Y-40574494D01*
X193209502Y-40464180D01*
X193245812Y-40344482D01*
X193258072Y-40220000D01*
X193258072Y-38520000D01*
X193245812Y-38395518D01*
X193209502Y-38275820D01*
X193150537Y-38165506D01*
X193071185Y-38068815D01*
X192974494Y-37989463D01*
X192864180Y-37930498D01*
X192744482Y-37894188D01*
X192620000Y-37881928D01*
X190920000Y-37881928D01*
X190795518Y-37894188D01*
X190675820Y-37930498D01*
X190565506Y-37989463D01*
X190468815Y-38068815D01*
X190389463Y-38165506D01*
X190330498Y-38275820D01*
X190308487Y-38348380D01*
X190176632Y-38216525D01*
X189933411Y-38054010D01*
X189663158Y-37942068D01*
X189376260Y-37885000D01*
X189083740Y-37885000D01*
X188796842Y-37942068D01*
X188526589Y-38054010D01*
X188283368Y-38216525D01*
X188076525Y-38423368D01*
X187960000Y-38597760D01*
X187843475Y-38423368D01*
X187636632Y-38216525D01*
X187393411Y-38054010D01*
X187123158Y-37942068D01*
X186836260Y-37885000D01*
X186543740Y-37885000D01*
X186256842Y-37942068D01*
X185986589Y-38054010D01*
X185743368Y-38216525D01*
X185536525Y-38423368D01*
X185374010Y-38666589D01*
X185262068Y-38936842D01*
X185205000Y-39223740D01*
X185205000Y-39516260D01*
X185262068Y-39803158D01*
X185374010Y-40073411D01*
X185536525Y-40316632D01*
X185657271Y-40437378D01*
X180892406Y-45202243D01*
X180860899Y-45228100D01*
X180800723Y-45301426D01*
X180757741Y-45353799D01*
X180731674Y-45402567D01*
X180681087Y-45497208D01*
X180633884Y-45652816D01*
X180621940Y-45774088D01*
X180617946Y-45814641D01*
X180621940Y-45855192D01*
X180621941Y-51890625D01*
X176695000Y-55817567D01*
X176695000Y-55738665D01*
X176639853Y-55461426D01*
X176531680Y-55200273D01*
X176374637Y-54965241D01*
X176174759Y-54765363D01*
X175942241Y-54610000D01*
X176174759Y-54454637D01*
X176374637Y-54254759D01*
X176531680Y-54019727D01*
X176639853Y-53758574D01*
X176695000Y-53481335D01*
X176695000Y-53198665D01*
X176639853Y-52921426D01*
X176531680Y-52660273D01*
X176374637Y-52425241D01*
X176174759Y-52225363D01*
X175942241Y-52070000D01*
X176174759Y-51914637D01*
X176374637Y-51714759D01*
X176531680Y-51479727D01*
X176639853Y-51218574D01*
X176695000Y-50941335D01*
X176695000Y-50658665D01*
X176639853Y-50381426D01*
X176531680Y-50120273D01*
X176374637Y-49885241D01*
X176174759Y-49685363D01*
X175942241Y-49530000D01*
X176174759Y-49374637D01*
X176374637Y-49174759D01*
X176531680Y-48939727D01*
X176639853Y-48678574D01*
X176695000Y-48401335D01*
X176695000Y-48118665D01*
X176639853Y-47841426D01*
X176531680Y-47580273D01*
X176374637Y-47345241D01*
X176174759Y-47145363D01*
X175942241Y-46990000D01*
X176174759Y-46834637D01*
X176374637Y-46634759D01*
X176531680Y-46399727D01*
X176639853Y-46138574D01*
X176695000Y-45861335D01*
X176695000Y-45578665D01*
X176639853Y-45301426D01*
X176531680Y-45040273D01*
X176374637Y-44805241D01*
X176174759Y-44605363D01*
X175942241Y-44450000D01*
X176174759Y-44294637D01*
X176374637Y-44094759D01*
X176531680Y-43859727D01*
X176639853Y-43598574D01*
X176695000Y-43321335D01*
X176695000Y-43038665D01*
X176639853Y-42761426D01*
X176531680Y-42500273D01*
X176374637Y-42265241D01*
X176174759Y-42065363D01*
X175942241Y-41910000D01*
X176174759Y-41754637D01*
X176374637Y-41554759D01*
X176531680Y-41319727D01*
X176639853Y-41058574D01*
X176695000Y-40781335D01*
X176695000Y-40498665D01*
X176639853Y-40221426D01*
X176531680Y-39960273D01*
X176374637Y-39725241D01*
X176174759Y-39525363D01*
X175942241Y-39370000D01*
X176174759Y-39214637D01*
X176374637Y-39014759D01*
X176531680Y-38779727D01*
X176639853Y-38518574D01*
X176695000Y-38241335D01*
X176695000Y-37958665D01*
X176639853Y-37681426D01*
X176531680Y-37420273D01*
X176374637Y-37185241D01*
X176174759Y-36985363D01*
X175942241Y-36830000D01*
X176174759Y-36674637D01*
X176374637Y-36474759D01*
X176531680Y-36239727D01*
X176639853Y-35978574D01*
X176695000Y-35701335D01*
X176695000Y-35418665D01*
X176639853Y-35141426D01*
X176531680Y-34880273D01*
X176374637Y-34645241D01*
X176174759Y-34445363D01*
X175942241Y-34290000D01*
X176174759Y-34134637D01*
X176374637Y-33934759D01*
X176531680Y-33699727D01*
X176639853Y-33438574D01*
X176695000Y-33161335D01*
X176695000Y-32878665D01*
X176639853Y-32601426D01*
X176531680Y-32340273D01*
X176374637Y-32105241D01*
X176174759Y-31905363D01*
X175939727Y-31748320D01*
X175678574Y-31640147D01*
X175401335Y-31585000D01*
X175118665Y-31585000D01*
X174841426Y-31640147D01*
X174580273Y-31748320D01*
X174345241Y-31905363D01*
X174145363Y-32105241D01*
X173988320Y-32340273D01*
X173880147Y-32601426D01*
X173825000Y-32878665D01*
X173825000Y-33161335D01*
X173880147Y-33438574D01*
X173988320Y-33699727D01*
X174145363Y-33934759D01*
X174345241Y-34134637D01*
X174577759Y-34290000D01*
X174345241Y-34445363D01*
X174145363Y-34645241D01*
X173988320Y-34880273D01*
X173880147Y-35141426D01*
X173825000Y-35418665D01*
X173825000Y-35701335D01*
X173880147Y-35978574D01*
X173988320Y-36239727D01*
X174145363Y-36474759D01*
X174345241Y-36674637D01*
X174577759Y-36830000D01*
X174345241Y-36985363D01*
X174145363Y-37185241D01*
X173988320Y-37420273D01*
X173880147Y-37681426D01*
X173825000Y-37958665D01*
X173825000Y-38241335D01*
X173880147Y-38518574D01*
X173988320Y-38779727D01*
X174145363Y-39014759D01*
X174345241Y-39214637D01*
X174577759Y-39370000D01*
X174345241Y-39525363D01*
X174145363Y-39725241D01*
X173988320Y-39960273D01*
X173880147Y-40221426D01*
X173825000Y-40498665D01*
X173825000Y-40781335D01*
X173880147Y-41058574D01*
X173988320Y-41319727D01*
X174145363Y-41554759D01*
X174345241Y-41754637D01*
X174577759Y-41910000D01*
X174345241Y-42065363D01*
X174145363Y-42265241D01*
X173988320Y-42500273D01*
X173880147Y-42761426D01*
X173825000Y-43038665D01*
X173825000Y-43321335D01*
X173880147Y-43598574D01*
X173988320Y-43859727D01*
X174145363Y-44094759D01*
X174345241Y-44294637D01*
X174577759Y-44450000D01*
X174345241Y-44605363D01*
X174145363Y-44805241D01*
X173988320Y-45040273D01*
X173880147Y-45301426D01*
X173825000Y-45578665D01*
X173825000Y-45861335D01*
X173880147Y-46138574D01*
X173988320Y-46399727D01*
X174145363Y-46634759D01*
X174345241Y-46834637D01*
X174577759Y-46990000D01*
X174345241Y-47145363D01*
X174145363Y-47345241D01*
X173988320Y-47580273D01*
X173880147Y-47841426D01*
X173825000Y-48118665D01*
X173825000Y-48401335D01*
X173880147Y-48678574D01*
X173988320Y-48939727D01*
X174145363Y-49174759D01*
X174345241Y-49374637D01*
X174577759Y-49530000D01*
X174345241Y-49685363D01*
X174145363Y-49885241D01*
X173988320Y-50120273D01*
X173880147Y-50381426D01*
X173825000Y-50658665D01*
X173825000Y-50941335D01*
X173880147Y-51218574D01*
X173988320Y-51479727D01*
X174145363Y-51714759D01*
X174345241Y-51914637D01*
X174577759Y-52070000D01*
X174345241Y-52225363D01*
X174145363Y-52425241D01*
X173988320Y-52660273D01*
X173880147Y-52921426D01*
X173825000Y-53198665D01*
X173825000Y-53277566D01*
X161434056Y-40886624D01*
X161455000Y-40781335D01*
X161455000Y-40498665D01*
X161399853Y-40221426D01*
X161291680Y-39960273D01*
X161134637Y-39725241D01*
X160934759Y-39525363D01*
X160702241Y-39370000D01*
X160934759Y-39214637D01*
X161134637Y-39014759D01*
X161291680Y-38779727D01*
X161399853Y-38518574D01*
X161455000Y-38241335D01*
X161455000Y-37958665D01*
X161399853Y-37681426D01*
X161291680Y-37420273D01*
X161134637Y-37185241D01*
X160934759Y-36985363D01*
X160702241Y-36830000D01*
X160934759Y-36674637D01*
X161134637Y-36474759D01*
X161291680Y-36239727D01*
X161399853Y-35978574D01*
X161455000Y-35701335D01*
X161455000Y-35418665D01*
X161399853Y-35141426D01*
X161291680Y-34880273D01*
X161134637Y-34645241D01*
X160934759Y-34445363D01*
X160702241Y-34290000D01*
X160934759Y-34134637D01*
X161134637Y-33934759D01*
X161291680Y-33699727D01*
X161399853Y-33438574D01*
X161455000Y-33161335D01*
X161455000Y-32878665D01*
X161399853Y-32601426D01*
X161291680Y-32340273D01*
X161134637Y-32105241D01*
X160934759Y-31905363D01*
X160699727Y-31748320D01*
X160438574Y-31640147D01*
X160161335Y-31585000D01*
X159878665Y-31585000D01*
X159601426Y-31640147D01*
X159340273Y-31748320D01*
X159105241Y-31905363D01*
X158905363Y-32105241D01*
X158748320Y-32340273D01*
X158640147Y-32601426D01*
X158585000Y-32878665D01*
X158585000Y-33161335D01*
X158640147Y-33438574D01*
X158748320Y-33699727D01*
X158905363Y-33934759D01*
X159105241Y-34134637D01*
X159337759Y-34290000D01*
X159105241Y-34445363D01*
X158905363Y-34645241D01*
X158748320Y-34880273D01*
X158640147Y-35141426D01*
X158585000Y-35418665D01*
X158585000Y-35701335D01*
X158640147Y-35978574D01*
X158748320Y-36239727D01*
X158905363Y-36474759D01*
X159105241Y-36674637D01*
X159337759Y-36830000D01*
X159105241Y-36985363D01*
X158905363Y-37185241D01*
X158748320Y-37420273D01*
X158640147Y-37681426D01*
X158585000Y-37958665D01*
X158585000Y-38241335D01*
X158640147Y-38518574D01*
X158748320Y-38779727D01*
X158905363Y-39014759D01*
X159105241Y-39214637D01*
X159337759Y-39370000D01*
X159105241Y-39525363D01*
X158905363Y-39725241D01*
X158748320Y-39960273D01*
X158640147Y-40221426D01*
X158585000Y-40498665D01*
X158585000Y-40781335D01*
X158640147Y-41058574D01*
X158748320Y-41319727D01*
X158905363Y-41554759D01*
X159105241Y-41754637D01*
X159337759Y-41910000D01*
X159105241Y-42065363D01*
X158905363Y-42265241D01*
X158748320Y-42500273D01*
X158640147Y-42761426D01*
X158585000Y-43038665D01*
X158585000Y-43321335D01*
X158640147Y-43598574D01*
X158748320Y-43859727D01*
X158905363Y-44094759D01*
X159105241Y-44294637D01*
X159337759Y-44450000D01*
X159105241Y-44605363D01*
X158905363Y-44805241D01*
X158748320Y-45040273D01*
X158640147Y-45301426D01*
X158585000Y-45578665D01*
X158585000Y-45861335D01*
X158640147Y-46138574D01*
X158748320Y-46399727D01*
X158905363Y-46634759D01*
X159105241Y-46834637D01*
X159337759Y-46990000D01*
X159105241Y-47145363D01*
X158905363Y-47345241D01*
X158748320Y-47580273D01*
X158640147Y-47841426D01*
X158585000Y-48118665D01*
X158585000Y-48401335D01*
X158640147Y-48678574D01*
X158748320Y-48939727D01*
X158905363Y-49174759D01*
X159105241Y-49374637D01*
X159337759Y-49530000D01*
X159105241Y-49685363D01*
X158905363Y-49885241D01*
X158748320Y-50120273D01*
X158640147Y-50381426D01*
X158585000Y-50658665D01*
X158585000Y-50941335D01*
X158605944Y-51046624D01*
X158487567Y-51165001D01*
X153790509Y-51165001D01*
X153835000Y-50941335D01*
X153835000Y-50658665D01*
X153779853Y-50381426D01*
X153671680Y-50120273D01*
X153514637Y-49885241D01*
X153314759Y-49685363D01*
X153082241Y-49530000D01*
X153314759Y-49374637D01*
X153514637Y-49174759D01*
X153671680Y-48939727D01*
X153779853Y-48678574D01*
X153835000Y-48401335D01*
X153835000Y-48118665D01*
X153779853Y-47841426D01*
X153671680Y-47580273D01*
X153514637Y-47345241D01*
X153314759Y-47145363D01*
X153082241Y-46990000D01*
X153314759Y-46834637D01*
X153514637Y-46634759D01*
X153671680Y-46399727D01*
X153779853Y-46138574D01*
X153835000Y-45861335D01*
X153835000Y-45578665D01*
X153779853Y-45301426D01*
X153671680Y-45040273D01*
X153514637Y-44805241D01*
X153314759Y-44605363D01*
X153082241Y-44450000D01*
X153314759Y-44294637D01*
X153514637Y-44094759D01*
X153671680Y-43859727D01*
X153779853Y-43598574D01*
X153835000Y-43321335D01*
X153835000Y-43038665D01*
X153779853Y-42761426D01*
X153671680Y-42500273D01*
X153514637Y-42265241D01*
X153314759Y-42065363D01*
X153082241Y-41910000D01*
X153314759Y-41754637D01*
X153514637Y-41554759D01*
X153671680Y-41319727D01*
X153779853Y-41058574D01*
X153835000Y-40781335D01*
X153835000Y-40498665D01*
X153779853Y-40221426D01*
X153671680Y-39960273D01*
X153514637Y-39725241D01*
X153314759Y-39525363D01*
X153082241Y-39370000D01*
X153314759Y-39214637D01*
X153514637Y-39014759D01*
X153671680Y-38779727D01*
X153779853Y-38518574D01*
X153835000Y-38241335D01*
X153835000Y-37958665D01*
X153779853Y-37681426D01*
X153671680Y-37420273D01*
X153514637Y-37185241D01*
X153314759Y-36985363D01*
X153082241Y-36830000D01*
X153314759Y-36674637D01*
X153514637Y-36474759D01*
X153671680Y-36239727D01*
X153779853Y-35978574D01*
X153835000Y-35701335D01*
X153835000Y-35418665D01*
X153779853Y-35141426D01*
X153671680Y-34880273D01*
X153514637Y-34645241D01*
X153314759Y-34445363D01*
X153082241Y-34290000D01*
X153314759Y-34134637D01*
X153514637Y-33934759D01*
X153671680Y-33699727D01*
X153779853Y-33438574D01*
X153835000Y-33161335D01*
X153835000Y-32878665D01*
X153779853Y-32601426D01*
X153671680Y-32340273D01*
X153514637Y-32105241D01*
X153314759Y-31905363D01*
X153079727Y-31748320D01*
X152818574Y-31640147D01*
X152541335Y-31585000D01*
X152258665Y-31585000D01*
X151981426Y-31640147D01*
X151720273Y-31748320D01*
X151485241Y-31905363D01*
X151285363Y-32105241D01*
X151128320Y-32340273D01*
X151020147Y-32601426D01*
X150965000Y-32878665D01*
X150965000Y-33161335D01*
X151020147Y-33438574D01*
X151128320Y-33699727D01*
X151285363Y-33934759D01*
X151485241Y-34134637D01*
X151717759Y-34290000D01*
X151485241Y-34445363D01*
X151285363Y-34645241D01*
X151128320Y-34880273D01*
X151020147Y-35141426D01*
X150965000Y-35418665D01*
X150965000Y-35701335D01*
X151020147Y-35978574D01*
X151128320Y-36239727D01*
X151285363Y-36474759D01*
X151485241Y-36674637D01*
X151717759Y-36830000D01*
X151485241Y-36985363D01*
X151285363Y-37185241D01*
X151128320Y-37420273D01*
X151020147Y-37681426D01*
X150965000Y-37958665D01*
X150965000Y-38241335D01*
X151020147Y-38518574D01*
X151128320Y-38779727D01*
X151285363Y-39014759D01*
X151485241Y-39214637D01*
X151717759Y-39370000D01*
X151485241Y-39525363D01*
X151285363Y-39725241D01*
X151128320Y-39960273D01*
X151020147Y-40221426D01*
X150965000Y-40498665D01*
X150965000Y-40781335D01*
X151020147Y-41058574D01*
X151128320Y-41319727D01*
X151285363Y-41554759D01*
X151485241Y-41754637D01*
X151717759Y-41910000D01*
X151485241Y-42065363D01*
X151285363Y-42265241D01*
X151128320Y-42500273D01*
X151020147Y-42761426D01*
X150965000Y-43038665D01*
X150965000Y-43321335D01*
X151020147Y-43598574D01*
X151128320Y-43859727D01*
X151285363Y-44094759D01*
X151485241Y-44294637D01*
X151717759Y-44450000D01*
X151485241Y-44605363D01*
X151285363Y-44805241D01*
X151128320Y-45040273D01*
X151020147Y-45301426D01*
X150965000Y-45578665D01*
X150965000Y-45861335D01*
X151020147Y-46138574D01*
X151128320Y-46399727D01*
X151285363Y-46634759D01*
X151485241Y-46834637D01*
X151717759Y-46990000D01*
X151485241Y-47145363D01*
X151285363Y-47345241D01*
X151128320Y-47580273D01*
X151020147Y-47841426D01*
X150965000Y-48118665D01*
X150965000Y-48401335D01*
X151020147Y-48678574D01*
X151128320Y-48939727D01*
X151285363Y-49174759D01*
X151485241Y-49374637D01*
X151717759Y-49530000D01*
X151485241Y-49685363D01*
X151285363Y-49885241D01*
X151128320Y-50120273D01*
X151020147Y-50381426D01*
X150965000Y-50658665D01*
X150965000Y-50941335D01*
X151009491Y-51165001D01*
X138692433Y-51165001D01*
X138574056Y-51046624D01*
X138595000Y-50941335D01*
X138595000Y-50658665D01*
X138539853Y-50381426D01*
X138431680Y-50120273D01*
X138274637Y-49885241D01*
X138074759Y-49685363D01*
X137842241Y-49530000D01*
X138074759Y-49374637D01*
X138274637Y-49174759D01*
X138431680Y-48939727D01*
X138539853Y-48678574D01*
X138595000Y-48401335D01*
X138595000Y-48118665D01*
X138539853Y-47841426D01*
X138431680Y-47580273D01*
X138274637Y-47345241D01*
X138074759Y-47145363D01*
X137842241Y-46990000D01*
X138074759Y-46834637D01*
X138274637Y-46634759D01*
X138431680Y-46399727D01*
X138539853Y-46138574D01*
X138595000Y-45861335D01*
X138595000Y-45578665D01*
X138539853Y-45301426D01*
X138431680Y-45040273D01*
X138274637Y-44805241D01*
X138074759Y-44605363D01*
X137842241Y-44450000D01*
X138074759Y-44294637D01*
X138274637Y-44094759D01*
X138431680Y-43859727D01*
X138539853Y-43598574D01*
X138595000Y-43321335D01*
X138595000Y-43038665D01*
X138539853Y-42761426D01*
X138431680Y-42500273D01*
X138274637Y-42265241D01*
X138074759Y-42065363D01*
X137842241Y-41910000D01*
X138074759Y-41754637D01*
X138274637Y-41554759D01*
X138431680Y-41319727D01*
X138539853Y-41058574D01*
X138595000Y-40781335D01*
X138595000Y-40498665D01*
X138539853Y-40221426D01*
X138431680Y-39960273D01*
X138274637Y-39725241D01*
X138074759Y-39525363D01*
X137842241Y-39370000D01*
X138074759Y-39214637D01*
X138274637Y-39014759D01*
X138431680Y-38779727D01*
X138539853Y-38518574D01*
X138595000Y-38241335D01*
X138595000Y-37958665D01*
X138539853Y-37681426D01*
X138431680Y-37420273D01*
X138274637Y-37185241D01*
X138074759Y-36985363D01*
X137842241Y-36830000D01*
X138074759Y-36674637D01*
X138274637Y-36474759D01*
X138431680Y-36239727D01*
X138539853Y-35978574D01*
X138595000Y-35701335D01*
X138595000Y-35418665D01*
X138539853Y-35141426D01*
X138431680Y-34880273D01*
X138274637Y-34645241D01*
X138074759Y-34445363D01*
X137842241Y-34290000D01*
X138074759Y-34134637D01*
X138274637Y-33934759D01*
X138431680Y-33699727D01*
X138539853Y-33438574D01*
X138595000Y-33161335D01*
X138595000Y-32878665D01*
X138539853Y-32601426D01*
X138431680Y-32340273D01*
X138274637Y-32105241D01*
X138074759Y-31905363D01*
X137839727Y-31748320D01*
X137578574Y-31640147D01*
X137301335Y-31585000D01*
X137018665Y-31585000D01*
X136741426Y-31640147D01*
X136480273Y-31748320D01*
X136245241Y-31905363D01*
X136045363Y-32105241D01*
X135888320Y-32340273D01*
X135780147Y-32601426D01*
X135725000Y-32878665D01*
X135725000Y-33161335D01*
X135780147Y-33438574D01*
X135888320Y-33699727D01*
X136045363Y-33934759D01*
X136245241Y-34134637D01*
X136477759Y-34290000D01*
X136245241Y-34445363D01*
X136045363Y-34645241D01*
X135888320Y-34880273D01*
X135780147Y-35141426D01*
X135725000Y-35418665D01*
X135725000Y-35701335D01*
X135780147Y-35978574D01*
X135888320Y-36239727D01*
X136045363Y-36474759D01*
X136245241Y-36674637D01*
X136477759Y-36830000D01*
X136245241Y-36985363D01*
X136045363Y-37185241D01*
X135888320Y-37420273D01*
X135780147Y-37681426D01*
X135725000Y-37958665D01*
X135725000Y-38241335D01*
X135780147Y-38518574D01*
X135888320Y-38779727D01*
X136045363Y-39014759D01*
X136245241Y-39214637D01*
X136477759Y-39370000D01*
X136245241Y-39525363D01*
X136045363Y-39725241D01*
X135888320Y-39960273D01*
X135780147Y-40221426D01*
X135725000Y-40498665D01*
X135725000Y-40781335D01*
X135745943Y-40886624D01*
X125807418Y-50825150D01*
X125761185Y-50768815D01*
X125664494Y-50689463D01*
X125554180Y-50630498D01*
X125434482Y-50594188D01*
X125310000Y-50581928D01*
X124745750Y-50585000D01*
X124587000Y-50743750D01*
X124587000Y-51943000D01*
X124607000Y-51943000D01*
X124607000Y-52197000D01*
X124587000Y-52197000D01*
X124587000Y-53396250D01*
X124745750Y-53555000D01*
X124875002Y-53555704D01*
X124875001Y-58107566D01*
X119669146Y-63313422D01*
X119526260Y-63285000D01*
X119233740Y-63285000D01*
X118946842Y-63342068D01*
X118676589Y-63454010D01*
X118433368Y-63616525D01*
X118226525Y-63823368D01*
X118064010Y-64066589D01*
X117952068Y-64336842D01*
X117895000Y-64623740D01*
X111505766Y-64623740D01*
X111387568Y-52426890D01*
X117938524Y-52426890D01*
X117983175Y-52574099D01*
X118108359Y-52836920D01*
X118282412Y-53070269D01*
X118498645Y-53265178D01*
X118748748Y-53414157D01*
X119023109Y-53511481D01*
X119253000Y-53390814D01*
X119253000Y-52197000D01*
X119507000Y-52197000D01*
X119507000Y-53390814D01*
X119736891Y-53511481D01*
X120011252Y-53414157D01*
X120261355Y-53265178D01*
X120477588Y-53070269D01*
X120650000Y-52839120D01*
X120822412Y-53070269D01*
X121038645Y-53265178D01*
X121288748Y-53414157D01*
X121563109Y-53511481D01*
X121793000Y-53390814D01*
X121793000Y-52197000D01*
X122047000Y-52197000D01*
X122047000Y-53390814D01*
X122276891Y-53511481D01*
X122551252Y-53414157D01*
X122801355Y-53265178D01*
X122997502Y-53088374D01*
X123020498Y-53164180D01*
X123079463Y-53274494D01*
X123158815Y-53371185D01*
X123255506Y-53450537D01*
X123365820Y-53509502D01*
X123485518Y-53545812D01*
X123610000Y-53558072D01*
X124174250Y-53555000D01*
X124333000Y-53396250D01*
X124333000Y-52197000D01*
X122047000Y-52197000D01*
X121793000Y-52197000D01*
X119507000Y-52197000D01*
X119253000Y-52197000D01*
X118059845Y-52197000D01*
X117938524Y-52426890D01*
X111387568Y-52426890D01*
X111380651Y-51713110D01*
X117938524Y-51713110D01*
X118059845Y-51943000D01*
X119253000Y-51943000D01*
X119253000Y-50749186D01*
X119507000Y-50749186D01*
X119507000Y-51943000D01*
X121793000Y-51943000D01*
X121793000Y-50749186D01*
X122047000Y-50749186D01*
X122047000Y-51943000D01*
X124333000Y-51943000D01*
X124333000Y-50743750D01*
X124174250Y-50585000D01*
X123610000Y-50581928D01*
X123485518Y-50594188D01*
X123365820Y-50630498D01*
X123255506Y-50689463D01*
X123158815Y-50768815D01*
X123079463Y-50865506D01*
X123020498Y-50975820D01*
X122997502Y-51051626D01*
X122801355Y-50874822D01*
X122551252Y-50725843D01*
X122276891Y-50628519D01*
X122047000Y-50749186D01*
X121793000Y-50749186D01*
X121563109Y-50628519D01*
X121288748Y-50725843D01*
X121038645Y-50874822D01*
X120822412Y-51069731D01*
X120650000Y-51300880D01*
X120477588Y-51069731D01*
X120261355Y-50874822D01*
X120011252Y-50725843D01*
X119736891Y-50628519D01*
X119507000Y-50749186D01*
X119253000Y-50749186D01*
X119023109Y-50628519D01*
X118748748Y-50725843D01*
X118498645Y-50874822D01*
X118282412Y-51069731D01*
X118108359Y-51303080D01*
X117983175Y-51565901D01*
X117938524Y-51713110D01*
X111380651Y-51713110D01*
X111259618Y-39223740D01*
X117895000Y-39223740D01*
X117895000Y-39516260D01*
X117952068Y-39803158D01*
X118064010Y-40073411D01*
X118226525Y-40316632D01*
X118433368Y-40523475D01*
X118676589Y-40685990D01*
X118946842Y-40797932D01*
X119233740Y-40855000D01*
X119526260Y-40855000D01*
X119813158Y-40797932D01*
X120083411Y-40685990D01*
X120326632Y-40523475D01*
X120533475Y-40316632D01*
X120650000Y-40142240D01*
X120766525Y-40316632D01*
X120973368Y-40523475D01*
X121216589Y-40685990D01*
X121486842Y-40797932D01*
X121773740Y-40855000D01*
X122066260Y-40855000D01*
X122353158Y-40797932D01*
X122623411Y-40685990D01*
X122866632Y-40523475D01*
X122998487Y-40391620D01*
X123020498Y-40464180D01*
X123079463Y-40574494D01*
X123158815Y-40671185D01*
X123255506Y-40750537D01*
X123365820Y-40809502D01*
X123485518Y-40845812D01*
X123610000Y-40858072D01*
X125310000Y-40858072D01*
X125434482Y-40845812D01*
X125554180Y-40809502D01*
X125664494Y-40750537D01*
X125761185Y-40671185D01*
X125840537Y-40574494D01*
X125899502Y-40464180D01*
X125935812Y-40344482D01*
X125948072Y-40220000D01*
X125948072Y-38520000D01*
X125935812Y-38395518D01*
X125899502Y-38275820D01*
X125840537Y-38165506D01*
X125761185Y-38068815D01*
X125664494Y-37989463D01*
X125554180Y-37930498D01*
X125434482Y-37894188D01*
X125310000Y-37881928D01*
X123610000Y-37881928D01*
X123485518Y-37894188D01*
X123365820Y-37930498D01*
X123255506Y-37989463D01*
X123158815Y-38068815D01*
X123079463Y-38165506D01*
X123020498Y-38275820D01*
X122998487Y-38348380D01*
X122866632Y-38216525D01*
X122623411Y-38054010D01*
X122353158Y-37942068D01*
X122066260Y-37885000D01*
X121773740Y-37885000D01*
X121486842Y-37942068D01*
X121216589Y-38054010D01*
X120973368Y-38216525D01*
X120766525Y-38423368D01*
X120650000Y-38597760D01*
X120533475Y-38423368D01*
X120326632Y-38216525D01*
X120083411Y-38054010D01*
X119813158Y-37942068D01*
X119526260Y-37885000D01*
X119233740Y-37885000D01*
X118946842Y-37942068D01*
X118676589Y-38054010D01*
X118433368Y-38216525D01*
X118226525Y-38423368D01*
X118064010Y-38666589D01*
X117952068Y-38936842D01*
X117895000Y-39223740D01*
X111259618Y-39223740D01*
X111151812Y-28099319D01*
X111173026Y-27719872D01*
X114605000Y-27719872D01*
X114605000Y-28160128D01*
X114690890Y-28591925D01*
X114859369Y-28998669D01*
X115103962Y-29364729D01*
X115415271Y-29676038D01*
X115781331Y-29920631D01*
X116188075Y-30089110D01*
X116619872Y-30175000D01*
X117060128Y-30175000D01*
X117491925Y-30089110D01*
X117898669Y-29920631D01*
X118264729Y-29676038D01*
X118576038Y-29364729D01*
X118820631Y-28998669D01*
X118989110Y-28591925D01*
X119075000Y-28160128D01*
X119075000Y-27719872D01*
X193345000Y-27719872D01*
X193345000Y-28160128D01*
X193430890Y-28591925D01*
X193599369Y-28998669D01*
X193843962Y-29364729D01*
X194155271Y-29676038D01*
X194521331Y-29920631D01*
X194928075Y-30089110D01*
X195359872Y-30175000D01*
X195800128Y-30175000D01*
X196231925Y-30089110D01*
X196638669Y-29920631D01*
X197004729Y-29676038D01*
X197316038Y-29364729D01*
X197560631Y-28998669D01*
X197729110Y-28591925D01*
X197815000Y-28160128D01*
X197815000Y-27719872D01*
X197729110Y-27288075D01*
X197560631Y-26881331D01*
X197316038Y-26515271D01*
X197004729Y-26203962D01*
X196638669Y-25959369D01*
X196231925Y-25790890D01*
X195800128Y-25705000D01*
X195359872Y-25705000D01*
X194928075Y-25790890D01*
X194521331Y-25959369D01*
X194155271Y-26203962D01*
X193843962Y-26515271D01*
X193599369Y-26881331D01*
X193430890Y-27288075D01*
X193345000Y-27719872D01*
X119075000Y-27719872D01*
X118989110Y-27288075D01*
X118820631Y-26881331D01*
X118576038Y-26515271D01*
X118264729Y-26203962D01*
X117898669Y-25959369D01*
X117491925Y-25790890D01*
X117060128Y-25705000D01*
X116619872Y-25705000D01*
X116188075Y-25790890D01*
X115781331Y-25959369D01*
X115415271Y-26203962D01*
X115103962Y-26515271D01*
X114859369Y-26881331D01*
X114690890Y-27288075D01*
X114605000Y-27719872D01*
X111173026Y-27719872D01*
X111203328Y-27177890D01*
X111391945Y-26305504D01*
X111714711Y-25473361D01*
X112163678Y-24701961D01*
X112727788Y-24010293D01*
X113393164Y-23415377D01*
X114143405Y-22931880D01*
X114167198Y-22921386D01*
X199084767Y-23298232D01*
G37*
X199084767Y-23298232D02*
X199607984Y-23724959D01*
X200217771Y-24406969D01*
X200713360Y-25175974D01*
X201082548Y-26013036D01*
X201316246Y-26897548D01*
X201410948Y-27829867D01*
X201412233Y-27943134D01*
X201298883Y-84891278D01*
X201247152Y-85816550D01*
X201058536Y-86688934D01*
X200735769Y-87521078D01*
X200286802Y-88292479D01*
X199722692Y-88984147D01*
X199057316Y-89579063D01*
X198580810Y-89886150D01*
X111747854Y-89604949D01*
X111701968Y-84869872D01*
X114605000Y-84869872D01*
X114605000Y-85310128D01*
X114690890Y-85741925D01*
X114859369Y-86148669D01*
X115103962Y-86514729D01*
X115415271Y-86826038D01*
X115781331Y-87070631D01*
X116188075Y-87239110D01*
X116619872Y-87325000D01*
X117060128Y-87325000D01*
X117491925Y-87239110D01*
X117898669Y-87070631D01*
X118264729Y-86826038D01*
X118576038Y-86514729D01*
X118820631Y-86148669D01*
X118989110Y-85741925D01*
X119075000Y-85310128D01*
X119075000Y-84869872D01*
X193345000Y-84869872D01*
X193345000Y-85310128D01*
X193430890Y-85741925D01*
X193599369Y-86148669D01*
X193843962Y-86514729D01*
X194155271Y-86826038D01*
X194521331Y-87070631D01*
X194928075Y-87239110D01*
X195359872Y-87325000D01*
X195800128Y-87325000D01*
X196231925Y-87239110D01*
X196638669Y-87070631D01*
X197004729Y-86826038D01*
X197316038Y-86514729D01*
X197560631Y-86148669D01*
X197729110Y-85741925D01*
X197815000Y-85310128D01*
X197815000Y-84869872D01*
X197729110Y-84438075D01*
X197560631Y-84031331D01*
X197316038Y-83665271D01*
X197004729Y-83353962D01*
X196638669Y-83109369D01*
X196231925Y-82940890D01*
X195800128Y-82855000D01*
X195359872Y-82855000D01*
X194928075Y-82940890D01*
X194521331Y-83109369D01*
X194155271Y-83353962D01*
X193843962Y-83665271D01*
X193599369Y-84031331D01*
X193430890Y-84438075D01*
X193345000Y-84869872D01*
X119075000Y-84869872D01*
X118989110Y-84438075D01*
X118820631Y-84031331D01*
X118576038Y-83665271D01*
X118264729Y-83353962D01*
X117898669Y-83109369D01*
X117491925Y-82940890D01*
X117060128Y-82855000D01*
X116619872Y-82855000D01*
X116188075Y-82940890D01*
X115781331Y-83109369D01*
X115415271Y-83353962D01*
X115103962Y-83665271D01*
X114859369Y-84031331D01*
X114690890Y-84438075D01*
X114605000Y-84869872D01*
X111701968Y-84869872D01*
X111674434Y-82028540D01*
X143617048Y-82028540D01*
X143629308Y-82153022D01*
X143665618Y-82272720D01*
X143724583Y-82383034D01*
X143803935Y-82479725D01*
X143900626Y-82559077D01*
X144010940Y-82618042D01*
X144130638Y-82654352D01*
X144255120Y-82666612D01*
X144819370Y-82663540D01*
X144978120Y-82504790D01*
X144978120Y-81155540D01*
X143778870Y-81155540D01*
X143620120Y-81314290D01*
X143617048Y-82028540D01*
X111674434Y-82028540D01*
X111655053Y-80028540D01*
X143617048Y-80028540D01*
X143620120Y-80742790D01*
X143778870Y-80901540D01*
X144978120Y-80901540D01*
X144978120Y-79552290D01*
X144819370Y-79393540D01*
X144255120Y-79390468D01*
X144130638Y-79402728D01*
X144010940Y-79439038D01*
X143900626Y-79498003D01*
X143803935Y-79577355D01*
X143724583Y-79674046D01*
X143665618Y-79784360D01*
X143629308Y-79904058D01*
X143617048Y-80028540D01*
X111655053Y-80028540D01*
X111585098Y-72810000D01*
X115351928Y-72810000D01*
X115351928Y-74510000D01*
X115364188Y-74634482D01*
X115400498Y-74754180D01*
X115459463Y-74864494D01*
X115538815Y-74961185D01*
X115635506Y-75040537D01*
X115745820Y-75099502D01*
X115865518Y-75135812D01*
X115990000Y-75148072D01*
X117690000Y-75148072D01*
X117814482Y-75135812D01*
X117934180Y-75099502D01*
X118044494Y-75040537D01*
X118141185Y-74961185D01*
X118220537Y-74864494D01*
X118279502Y-74754180D01*
X118303966Y-74673534D01*
X118379731Y-74757588D01*
X118613080Y-74931641D01*
X118875901Y-75056825D01*
X119023110Y-75101476D01*
X119253000Y-74980155D01*
X119253000Y-73787000D01*
X119233000Y-73787000D01*
X119233000Y-73533000D01*
X119253000Y-73533000D01*
X119253000Y-72339845D01*
X119023110Y-72218524D01*
X118875901Y-72263175D01*
X118613080Y-72388359D01*
X118379731Y-72562412D01*
X118303966Y-72646466D01*
X118279502Y-72565820D01*
X118220537Y-72455506D01*
X118141185Y-72358815D01*
X118044494Y-72279463D01*
X117934180Y-72220498D01*
X117814482Y-72184188D01*
X117690000Y-72171928D01*
X115990000Y-72171928D01*
X115865518Y-72184188D01*
X115745820Y-72220498D01*
X115635506Y-72279463D01*
X115538815Y-72358815D01*
X115459463Y-72455506D01*
X115400498Y-72565820D01*
X115364188Y-72685518D01*
X115351928Y-72810000D01*
X111585098Y-72810000D01*
X111505766Y-64623740D01*
X117895000Y-64623740D01*
X117895000Y-64916260D01*
X117952068Y-65203158D01*
X118064010Y-65473411D01*
X118226525Y-65716632D01*
X118433368Y-65923475D01*
X118676589Y-66085990D01*
X118946842Y-66197932D01*
X119233740Y-66255000D01*
X119526260Y-66255000D01*
X119813158Y-66197932D01*
X120083411Y-66085990D01*
X120326632Y-65923475D01*
X120533475Y-65716632D01*
X120651100Y-65540594D01*
X120822412Y-65770269D01*
X121038645Y-65965178D01*
X121288748Y-66114157D01*
X121563109Y-66211481D01*
X121793000Y-66090814D01*
X121793000Y-64897000D01*
X121773000Y-64897000D01*
X121773000Y-64643000D01*
X121793000Y-64643000D01*
X121793000Y-64623000D01*
X122047000Y-64623000D01*
X122047000Y-64643000D01*
X122067000Y-64643000D01*
X122067000Y-64897000D01*
X122047000Y-64897000D01*
X122047000Y-66090814D01*
X122276891Y-66211481D01*
X122551252Y-66114157D01*
X122801355Y-65965178D01*
X122997502Y-65788374D01*
X123020498Y-65864180D01*
X123079463Y-65974494D01*
X123158815Y-66071185D01*
X123255506Y-66150537D01*
X123365820Y-66209502D01*
X123485518Y-66245812D01*
X123610000Y-66258072D01*
X124730575Y-66258072D01*
X121364961Y-69623687D01*
X121333460Y-69649539D01*
X121307609Y-69681039D01*
X121230301Y-69775238D01*
X121153647Y-69918647D01*
X121106445Y-70074254D01*
X121090506Y-70236080D01*
X121094501Y-70276640D01*
X121094500Y-72425587D01*
X120973368Y-72506525D01*
X120766525Y-72713368D01*
X120644805Y-72895534D01*
X120575178Y-72778645D01*
X120380269Y-72562412D01*
X120146920Y-72388359D01*
X119884099Y-72263175D01*
X119736890Y-72218524D01*
X119507000Y-72339845D01*
X119507000Y-73533000D01*
X119527000Y-73533000D01*
X119527000Y-73787000D01*
X119507000Y-73787000D01*
X119507000Y-74980155D01*
X119736890Y-75101476D01*
X119884099Y-75056825D01*
X120146920Y-74931641D01*
X120380269Y-74757588D01*
X120575178Y-74541355D01*
X120644805Y-74424466D01*
X120766525Y-74606632D01*
X120973368Y-74813475D01*
X121216589Y-74975990D01*
X121486842Y-75087932D01*
X121773740Y-75145000D01*
X122066260Y-75145000D01*
X122353158Y-75087932D01*
X122623411Y-74975990D01*
X122866632Y-74813475D01*
X123073475Y-74606632D01*
X123190000Y-74432240D01*
X123306525Y-74606632D01*
X123513368Y-74813475D01*
X123756589Y-74975990D01*
X124026842Y-75087932D01*
X124313740Y-75145000D01*
X124606260Y-75145000D01*
X124893158Y-75087932D01*
X125163411Y-74975990D01*
X125406632Y-74813475D01*
X125613475Y-74606632D01*
X125775990Y-74363411D01*
X125887932Y-74093158D01*
X125945000Y-73806260D01*
X125945000Y-73513740D01*
X125887932Y-73226842D01*
X125775990Y-72956589D01*
X125613475Y-72713368D01*
X125406632Y-72506525D01*
X125285500Y-72425587D01*
X125285500Y-70852332D01*
X127699167Y-68438665D01*
X135725000Y-68438665D01*
X135725000Y-68721335D01*
X135780147Y-68998574D01*
X135888320Y-69259727D01*
X136045363Y-69494759D01*
X136245241Y-69694637D01*
X136480273Y-69851680D01*
X136741426Y-69959853D01*
X137018665Y-70015000D01*
X137301335Y-70015000D01*
X137578574Y-69959853D01*
X137839727Y-69851680D01*
X138074759Y-69694637D01*
X138274637Y-69494759D01*
X138431680Y-69259727D01*
X138539853Y-68998574D01*
X138595000Y-68721335D01*
X138595000Y-68438665D01*
X138539853Y-68161426D01*
X138431680Y-67900273D01*
X138274637Y-67665241D01*
X138074759Y-67465363D01*
X137839727Y-67308320D01*
X137829135Y-67303933D01*
X138015131Y-67192385D01*
X138223519Y-67003414D01*
X138391037Y-66777420D01*
X138511246Y-66523087D01*
X138551904Y-66389039D01*
X138429915Y-66167000D01*
X137287000Y-66167000D01*
X137287000Y-66187000D01*
X137033000Y-66187000D01*
X137033000Y-66167000D01*
X135890085Y-66167000D01*
X135768096Y-66389039D01*
X135808754Y-66523087D01*
X135928963Y-66777420D01*
X136096481Y-67003414D01*
X136304869Y-67192385D01*
X136490865Y-67303933D01*
X136480273Y-67308320D01*
X136245241Y-67465363D01*
X136045363Y-67665241D01*
X135888320Y-67900273D01*
X135780147Y-68161426D01*
X135725000Y-68438665D01*
X127699167Y-68438665D01*
X130948481Y-65189352D01*
X130979981Y-65163501D01*
X131051310Y-65076586D01*
X131083139Y-65037803D01*
X131138088Y-64935000D01*
X131159793Y-64894394D01*
X131206996Y-64738786D01*
X131218940Y-64617513D01*
X131218940Y-64617511D01*
X131222934Y-64576961D01*
X131218940Y-64536410D01*
X131218940Y-52828492D01*
X135725000Y-48322433D01*
X135725000Y-48401335D01*
X135780147Y-48678574D01*
X135888320Y-48939727D01*
X136045363Y-49174759D01*
X136245241Y-49374637D01*
X136477759Y-49530000D01*
X136245241Y-49685363D01*
X136045363Y-49885241D01*
X135888320Y-50120273D01*
X135780147Y-50381426D01*
X135725000Y-50658665D01*
X135725000Y-50941335D01*
X135780147Y-51218574D01*
X135888320Y-51479727D01*
X136045363Y-51714759D01*
X136245241Y-51914637D01*
X136477759Y-52070000D01*
X136245241Y-52225363D01*
X136045363Y-52425241D01*
X135888320Y-52660273D01*
X135780147Y-52921426D01*
X135725000Y-53198665D01*
X135725000Y-53481335D01*
X135780147Y-53758574D01*
X135888320Y-54019727D01*
X136045363Y-54254759D01*
X136245241Y-54454637D01*
X136477759Y-54610000D01*
X136245241Y-54765363D01*
X136045363Y-54965241D01*
X135888320Y-55200273D01*
X135780147Y-55461426D01*
X135725000Y-55738665D01*
X135725000Y-56021335D01*
X135780147Y-56298574D01*
X135888320Y-56559727D01*
X136045363Y-56794759D01*
X136245241Y-56994637D01*
X136477759Y-57150000D01*
X136245241Y-57305363D01*
X136045363Y-57505241D01*
X135888320Y-57740273D01*
X135780147Y-58001426D01*
X135725000Y-58278665D01*
X135725000Y-58561335D01*
X135780147Y-58838574D01*
X135888320Y-59099727D01*
X136045363Y-59334759D01*
X136245241Y-59534637D01*
X136477759Y-59690000D01*
X136245241Y-59845363D01*
X136045363Y-60045241D01*
X135888320Y-60280273D01*
X135780147Y-60541426D01*
X135725000Y-60818665D01*
X135725000Y-61101335D01*
X135780147Y-61378574D01*
X135888320Y-61639727D01*
X136045363Y-61874759D01*
X136245241Y-62074637D01*
X136477759Y-62230000D01*
X136245241Y-62385363D01*
X136045363Y-62585241D01*
X135888320Y-62820273D01*
X135780147Y-63081426D01*
X135725000Y-63358665D01*
X135725000Y-63641335D01*
X135780147Y-63918574D01*
X135888320Y-64179727D01*
X136045363Y-64414759D01*
X136245241Y-64614637D01*
X136480273Y-64771680D01*
X136490865Y-64776067D01*
X136304869Y-64887615D01*
X136096481Y-65076586D01*
X135928963Y-65302580D01*
X135808754Y-65556913D01*
X135768096Y-65690961D01*
X135890085Y-65913000D01*
X137033000Y-65913000D01*
X137033000Y-65893000D01*
X137287000Y-65893000D01*
X137287000Y-65913000D01*
X138429915Y-65913000D01*
X138551904Y-65690961D01*
X138511246Y-65556913D01*
X138391037Y-65302580D01*
X138223519Y-65076586D01*
X138015131Y-64887615D01*
X137829135Y-64776067D01*
X137839727Y-64771680D01*
X138074759Y-64614637D01*
X138274637Y-64414759D01*
X138431680Y-64179727D01*
X138539853Y-63918574D01*
X138595000Y-63641335D01*
X138595000Y-63358665D01*
X138539853Y-63081426D01*
X138431680Y-62820273D01*
X138274637Y-62585241D01*
X138074759Y-62385363D01*
X137842241Y-62230000D01*
X138074759Y-62074637D01*
X138274637Y-61874759D01*
X138431680Y-61639727D01*
X138539853Y-61378574D01*
X138595000Y-61101335D01*
X138595000Y-60818665D01*
X138539853Y-60541426D01*
X138431680Y-60280273D01*
X138274637Y-60045241D01*
X138074759Y-59845363D01*
X137842241Y-59690000D01*
X138074759Y-59534637D01*
X138274637Y-59334759D01*
X138431680Y-59099727D01*
X138539853Y-58838574D01*
X138595000Y-58561335D01*
X138595000Y-58278665D01*
X138539853Y-58001426D01*
X138431680Y-57740273D01*
X138274637Y-57505241D01*
X138074759Y-57305363D01*
X137842241Y-57150000D01*
X138074759Y-56994637D01*
X138274637Y-56794759D01*
X138431680Y-56559727D01*
X138539853Y-56298574D01*
X138595000Y-56021335D01*
X138595000Y-55738665D01*
X138539853Y-55461426D01*
X138431680Y-55200273D01*
X138274637Y-54965241D01*
X138074759Y-54765363D01*
X137842241Y-54610000D01*
X138074759Y-54454637D01*
X138274637Y-54254759D01*
X138431680Y-54019727D01*
X138539853Y-53758574D01*
X138595000Y-53481335D01*
X138595000Y-53402432D01*
X146819620Y-61627054D01*
X146819621Y-79635955D01*
X146816106Y-79637834D01*
X146589986Y-79823406D01*
X146565513Y-79853227D01*
X146544622Y-79784360D01*
X146485657Y-79674046D01*
X146406305Y-79577355D01*
X146309614Y-79498003D01*
X146199300Y-79439038D01*
X146079602Y-79402728D01*
X145955120Y-79390468D01*
X145390870Y-79393540D01*
X145232120Y-79552290D01*
X145232120Y-80901540D01*
X145252120Y-80901540D01*
X145252120Y-81155540D01*
X145232120Y-81155540D01*
X145232120Y-82504790D01*
X145390870Y-82663540D01*
X145955120Y-82666612D01*
X146079602Y-82654352D01*
X146199300Y-82618042D01*
X146309614Y-82559077D01*
X146406305Y-82479725D01*
X146485657Y-82383034D01*
X146544622Y-82272720D01*
X146565513Y-82203853D01*
X146589986Y-82233674D01*
X146816107Y-82419246D01*
X147074087Y-82557139D01*
X147354010Y-82642053D01*
X147645120Y-82670725D01*
X147936231Y-82642053D01*
X148216154Y-82557139D01*
X148474134Y-82419246D01*
X148700254Y-82233674D01*
X148885826Y-82007554D01*
X149023719Y-81749573D01*
X149108633Y-81469650D01*
X149130120Y-81251489D01*
X149130120Y-80805590D01*
X149108633Y-80587429D01*
X149023719Y-80307506D01*
X148932582Y-80137000D01*
X163318928Y-80137000D01*
X163318928Y-82423000D01*
X163331188Y-82547482D01*
X163367498Y-82667180D01*
X163426463Y-82777494D01*
X163505815Y-82874185D01*
X163602506Y-82953537D01*
X163712820Y-83012502D01*
X163832518Y-83048812D01*
X163957000Y-83061072D01*
X166243000Y-83061072D01*
X166367482Y-83048812D01*
X166487180Y-83012502D01*
X166597494Y-82953537D01*
X166694185Y-82874185D01*
X166773537Y-82777494D01*
X166832502Y-82667180D01*
X166868812Y-82547482D01*
X166871778Y-82517360D01*
X169122245Y-82517360D01*
X169235264Y-82796384D01*
X169549249Y-82951556D01*
X169887473Y-83042491D01*
X170236938Y-83065694D01*
X170584216Y-83020275D01*
X170915960Y-82907977D01*
X171124736Y-82796384D01*
X171237755Y-82517360D01*
X170180000Y-81459605D01*
X169122245Y-82517360D01*
X166871778Y-82517360D01*
X166881072Y-82423000D01*
X166881072Y-81336938D01*
X168394306Y-81336938D01*
X168439725Y-81684216D01*
X168552023Y-82015960D01*
X168663616Y-82224736D01*
X168942640Y-82337755D01*
X170000395Y-81280000D01*
X170359605Y-81280000D01*
X171417360Y-82337755D01*
X171696384Y-82224736D01*
X171851556Y-81910751D01*
X171942491Y-81572527D01*
X171965694Y-81223062D01*
X171920275Y-80875784D01*
X171807977Y-80544040D01*
X171696384Y-80335264D01*
X171417360Y-80222245D01*
X170359605Y-81280000D01*
X170000395Y-81280000D01*
X168942640Y-80222245D01*
X168663616Y-80335264D01*
X168508444Y-80649249D01*
X168417509Y-80987473D01*
X168394306Y-81336938D01*
X166881072Y-81336938D01*
X166881072Y-80137000D01*
X166871779Y-80042640D01*
X169122245Y-80042640D01*
X170180000Y-81100395D01*
X171237755Y-80042640D01*
X171124736Y-79763616D01*
X170810751Y-79608444D01*
X170472527Y-79517509D01*
X170123062Y-79494306D01*
X169775784Y-79539725D01*
X169444040Y-79652023D01*
X169235264Y-79763616D01*
X169122245Y-80042640D01*
X166871779Y-80042640D01*
X166868812Y-80012518D01*
X166832502Y-79892820D01*
X166773537Y-79782506D01*
X166694185Y-79685815D01*
X166597494Y-79606463D01*
X166487180Y-79547498D01*
X166367482Y-79511188D01*
X166243000Y-79498928D01*
X163957000Y-79498928D01*
X163832518Y-79511188D01*
X163712820Y-79547498D01*
X163602506Y-79606463D01*
X163505815Y-79685815D01*
X163426463Y-79782506D01*
X163367498Y-79892820D01*
X163331188Y-80012518D01*
X163318928Y-80137000D01*
X148932582Y-80137000D01*
X148885826Y-80049526D01*
X148700254Y-79823406D01*
X148474133Y-79637834D01*
X148470620Y-79635956D01*
X148470620Y-67780000D01*
X150961928Y-67780000D01*
X150961928Y-69380000D01*
X150974188Y-69504482D01*
X151010498Y-69624180D01*
X151069463Y-69734494D01*
X151148815Y-69831185D01*
X151245506Y-69910537D01*
X151355820Y-69969502D01*
X151475518Y-70005812D01*
X151600000Y-70018072D01*
X153200000Y-70018072D01*
X153324482Y-70005812D01*
X153444180Y-69969502D01*
X153554494Y-69910537D01*
X153651185Y-69831185D01*
X153730537Y-69734494D01*
X153789502Y-69624180D01*
X153825812Y-69504482D01*
X153838072Y-69380000D01*
X153838072Y-68438665D01*
X158585000Y-68438665D01*
X158585000Y-68721335D01*
X158640147Y-68998574D01*
X158748320Y-69259727D01*
X158905363Y-69494759D01*
X159105241Y-69694637D01*
X159340273Y-69851680D01*
X159601426Y-69959853D01*
X159878665Y-70015000D01*
X160161335Y-70015000D01*
X160438574Y-69959853D01*
X160699727Y-69851680D01*
X160934759Y-69694637D01*
X161134637Y-69494759D01*
X161291680Y-69259727D01*
X161399853Y-68998574D01*
X161455000Y-68721335D01*
X161455000Y-68438665D01*
X161399853Y-68161426D01*
X161291680Y-67900273D01*
X161134637Y-67665241D01*
X160934759Y-67465363D01*
X160699727Y-67308320D01*
X160689135Y-67303933D01*
X160875131Y-67192385D01*
X161083519Y-67003414D01*
X161251037Y-66777420D01*
X161371246Y-66523087D01*
X161411904Y-66389039D01*
X161289915Y-66167000D01*
X160147000Y-66167000D01*
X160147000Y-66187000D01*
X159893000Y-66187000D01*
X159893000Y-66167000D01*
X158750085Y-66167000D01*
X158628096Y-66389039D01*
X158668754Y-66523087D01*
X158788963Y-66777420D01*
X158956481Y-67003414D01*
X159164869Y-67192385D01*
X159350865Y-67303933D01*
X159340273Y-67308320D01*
X159105241Y-67465363D01*
X158905363Y-67665241D01*
X158748320Y-67900273D01*
X158640147Y-68161426D01*
X158585000Y-68438665D01*
X153838072Y-68438665D01*
X153838072Y-67780000D01*
X153825812Y-67655518D01*
X153789502Y-67535820D01*
X153730537Y-67425506D01*
X153651185Y-67328815D01*
X153554494Y-67249463D01*
X153444180Y-67190498D01*
X153324482Y-67154188D01*
X153316039Y-67153357D01*
X153514637Y-66954759D01*
X153671680Y-66719727D01*
X153779853Y-66458574D01*
X153835000Y-66181335D01*
X153835000Y-65898665D01*
X153779853Y-65621426D01*
X153671680Y-65360273D01*
X153514637Y-65125241D01*
X153314759Y-64925363D01*
X153082241Y-64770000D01*
X153314759Y-64614637D01*
X153514637Y-64414759D01*
X153671680Y-64179727D01*
X153779853Y-63918574D01*
X153835000Y-63641335D01*
X153835000Y-63358665D01*
X153779853Y-63081426D01*
X153671680Y-62820273D01*
X153514637Y-62585241D01*
X153314759Y-62385363D01*
X153079727Y-62228320D01*
X153069135Y-62223933D01*
X153255131Y-62112385D01*
X153463519Y-61923414D01*
X153631037Y-61697420D01*
X153751246Y-61443087D01*
X153791904Y-61309039D01*
X153669915Y-61087000D01*
X152527000Y-61087000D01*
X152527000Y-61107000D01*
X152273000Y-61107000D01*
X152273000Y-61087000D01*
X151130085Y-61087000D01*
X151008096Y-61309039D01*
X151048754Y-61443087D01*
X151168963Y-61697420D01*
X151336481Y-61923414D01*
X151544869Y-62112385D01*
X151730865Y-62223933D01*
X151720273Y-62228320D01*
X151485241Y-62385363D01*
X151285363Y-62585241D01*
X151128320Y-62820273D01*
X151020147Y-63081426D01*
X150965000Y-63358665D01*
X150965000Y-63641335D01*
X151020147Y-63918574D01*
X151128320Y-64179727D01*
X151285363Y-64414759D01*
X151485241Y-64614637D01*
X151717759Y-64770000D01*
X151485241Y-64925363D01*
X151285363Y-65125241D01*
X151128320Y-65360273D01*
X151020147Y-65621426D01*
X150965000Y-65898665D01*
X150965000Y-66181335D01*
X151020147Y-66458574D01*
X151128320Y-66719727D01*
X151285363Y-66954759D01*
X151483961Y-67153357D01*
X151475518Y-67154188D01*
X151355820Y-67190498D01*
X151245506Y-67249463D01*
X151148815Y-67328815D01*
X151069463Y-67425506D01*
X151010498Y-67535820D01*
X150974188Y-67655518D01*
X150961928Y-67780000D01*
X148470620Y-67780000D01*
X148470620Y-61325670D01*
X148474614Y-61285120D01*
X148470620Y-61244567D01*
X148458676Y-61123294D01*
X148411473Y-60967686D01*
X148334819Y-60824277D01*
X148257512Y-60730078D01*
X148257509Y-60730075D01*
X148231661Y-60698579D01*
X148200166Y-60672732D01*
X140343433Y-52816001D01*
X151063815Y-52816001D01*
X151020147Y-52921426D01*
X150965000Y-53198665D01*
X150965000Y-53481335D01*
X151020147Y-53758574D01*
X151128320Y-54019727D01*
X151285363Y-54254759D01*
X151485241Y-54454637D01*
X151717759Y-54610000D01*
X151485241Y-54765363D01*
X151285363Y-54965241D01*
X151128320Y-55200273D01*
X151020147Y-55461426D01*
X150965000Y-55738665D01*
X150965000Y-56021335D01*
X151020147Y-56298574D01*
X151128320Y-56559727D01*
X151285363Y-56794759D01*
X151485241Y-56994637D01*
X151717759Y-57150000D01*
X151485241Y-57305363D01*
X151285363Y-57505241D01*
X151128320Y-57740273D01*
X151020147Y-58001426D01*
X150965000Y-58278665D01*
X150965000Y-58561335D01*
X151020147Y-58838574D01*
X151128320Y-59099727D01*
X151285363Y-59334759D01*
X151485241Y-59534637D01*
X151720273Y-59691680D01*
X151730865Y-59696067D01*
X151544869Y-59807615D01*
X151336481Y-59996586D01*
X151168963Y-60222580D01*
X151048754Y-60476913D01*
X151008096Y-60610961D01*
X151130085Y-60833000D01*
X152273000Y-60833000D01*
X152273000Y-60813000D01*
X152527000Y-60813000D01*
X152527000Y-60833000D01*
X153669915Y-60833000D01*
X153791904Y-60610961D01*
X153751246Y-60476913D01*
X153631037Y-60222580D01*
X153463519Y-59996586D01*
X153255131Y-59807615D01*
X153069135Y-59696067D01*
X153079727Y-59691680D01*
X153314759Y-59534637D01*
X153514637Y-59334759D01*
X153671680Y-59099727D01*
X153779853Y-58838574D01*
X153835000Y-58561335D01*
X153835000Y-58278665D01*
X153779853Y-58001426D01*
X153671680Y-57740273D01*
X153514637Y-57505241D01*
X153314759Y-57305363D01*
X153082241Y-57150000D01*
X153314759Y-56994637D01*
X153514637Y-56794759D01*
X153671680Y-56559727D01*
X153779853Y-56298574D01*
X153835000Y-56021335D01*
X153835000Y-55738665D01*
X153779853Y-55461426D01*
X153671680Y-55200273D01*
X153514637Y-54965241D01*
X153314759Y-54765363D01*
X153082241Y-54610000D01*
X153314759Y-54454637D01*
X153514637Y-54254759D01*
X153671680Y-54019727D01*
X153779853Y-53758574D01*
X153835000Y-53481335D01*
X153835000Y-53198665D01*
X153779853Y-52921426D01*
X153736185Y-52816001D01*
X158683815Y-52816001D01*
X158640147Y-52921426D01*
X158585000Y-53198665D01*
X158585000Y-53481335D01*
X158640147Y-53758574D01*
X158748320Y-54019727D01*
X158905363Y-54254759D01*
X159105241Y-54454637D01*
X159337759Y-54610000D01*
X159105241Y-54765363D01*
X158905363Y-54965241D01*
X158748320Y-55200273D01*
X158640147Y-55461426D01*
X158585000Y-55738665D01*
X158585000Y-56021335D01*
X158640147Y-56298574D01*
X158748320Y-56559727D01*
X158905363Y-56794759D01*
X159105241Y-56994637D01*
X159337759Y-57150000D01*
X159105241Y-57305363D01*
X158905363Y-57505241D01*
X158748320Y-57740273D01*
X158640147Y-58001426D01*
X158585000Y-58278665D01*
X158585000Y-58561335D01*
X158640147Y-58838574D01*
X158748320Y-59099727D01*
X158905363Y-59334759D01*
X159105241Y-59534637D01*
X159337759Y-59690000D01*
X159105241Y-59845363D01*
X158905363Y-60045241D01*
X158748320Y-60280273D01*
X158640147Y-60541426D01*
X158585000Y-60818665D01*
X158585000Y-61101335D01*
X158640147Y-61378574D01*
X158748320Y-61639727D01*
X158905363Y-61874759D01*
X159105241Y-62074637D01*
X159337759Y-62230000D01*
X159105241Y-62385363D01*
X158905363Y-62585241D01*
X158748320Y-62820273D01*
X158640147Y-63081426D01*
X158585000Y-63358665D01*
X158585000Y-63641335D01*
X158640147Y-63918574D01*
X158748320Y-64179727D01*
X158905363Y-64414759D01*
X159105241Y-64614637D01*
X159340273Y-64771680D01*
X159350865Y-64776067D01*
X159164869Y-64887615D01*
X158956481Y-65076586D01*
X158788963Y-65302580D01*
X158668754Y-65556913D01*
X158628096Y-65690961D01*
X158750085Y-65913000D01*
X159893000Y-65913000D01*
X159893000Y-65893000D01*
X160147000Y-65893000D01*
X160147000Y-65913000D01*
X161289915Y-65913000D01*
X161411904Y-65690961D01*
X161371246Y-65556913D01*
X161251037Y-65302580D01*
X161083519Y-65076586D01*
X160875131Y-64887615D01*
X160689135Y-64776067D01*
X160699727Y-64771680D01*
X160934759Y-64614637D01*
X161134637Y-64414759D01*
X161291680Y-64179727D01*
X161399853Y-63918574D01*
X161455000Y-63641335D01*
X161455000Y-63358665D01*
X161399853Y-63081426D01*
X161291680Y-62820273D01*
X161134637Y-62585241D01*
X160934759Y-62385363D01*
X160702241Y-62230000D01*
X160934759Y-62074637D01*
X161134637Y-61874759D01*
X161291680Y-61639727D01*
X161399853Y-61378574D01*
X161455000Y-61101335D01*
X161455000Y-60818665D01*
X161399853Y-60541426D01*
X161291680Y-60280273D01*
X161134637Y-60045241D01*
X160934759Y-59845363D01*
X160702241Y-59690000D01*
X160934759Y-59534637D01*
X161134637Y-59334759D01*
X161291680Y-59099727D01*
X161399853Y-58838574D01*
X161455000Y-58561335D01*
X161455000Y-58278665D01*
X161399853Y-58001426D01*
X161291680Y-57740273D01*
X161134637Y-57505241D01*
X160934759Y-57305363D01*
X160702241Y-57150000D01*
X160934759Y-56994637D01*
X161134637Y-56794759D01*
X161291680Y-56559727D01*
X161399853Y-56298574D01*
X161455000Y-56021335D01*
X161455000Y-55738665D01*
X161399853Y-55461426D01*
X161291680Y-55200273D01*
X161134637Y-54965241D01*
X160934759Y-54765363D01*
X160702241Y-54610000D01*
X160934759Y-54454637D01*
X161134637Y-54254759D01*
X161291680Y-54019727D01*
X161399853Y-53758574D01*
X161455000Y-53481335D01*
X161455000Y-53198665D01*
X161399853Y-52921426D01*
X161291680Y-52660273D01*
X161134637Y-52425241D01*
X160934759Y-52225363D01*
X160702241Y-52070000D01*
X160934759Y-51914637D01*
X161134637Y-51714759D01*
X161291680Y-51479727D01*
X161399853Y-51218574D01*
X161455000Y-50941335D01*
X161455000Y-50658665D01*
X161399853Y-50381426D01*
X161291680Y-50120273D01*
X161134637Y-49885241D01*
X160934759Y-49685363D01*
X160702241Y-49530000D01*
X160934759Y-49374637D01*
X161134637Y-49174759D01*
X161291680Y-48939727D01*
X161399853Y-48678574D01*
X161455000Y-48401335D01*
X161455000Y-48322432D01*
X169913301Y-56780734D01*
X169913300Y-66321152D01*
X169909306Y-66361702D01*
X169913300Y-66402252D01*
X169913300Y-66402254D01*
X169925244Y-66523527D01*
X169972447Y-66679135D01*
X170049101Y-66822544D01*
X170083014Y-66863867D01*
X170152259Y-66948243D01*
X170183766Y-66974100D01*
X178665206Y-75455541D01*
X178691058Y-75487042D01*
X178816757Y-75590200D01*
X178960165Y-75666854D01*
X179115773Y-75714057D01*
X179237046Y-75726001D01*
X179237055Y-75726001D01*
X179277598Y-75729994D01*
X179318141Y-75726001D01*
X192961030Y-75726001D01*
X193001580Y-75729995D01*
X193042130Y-75726001D01*
X193042133Y-75726001D01*
X193163406Y-75714057D01*
X193319014Y-75666854D01*
X193462422Y-75590200D01*
X193588121Y-75487042D01*
X193605439Y-75465940D01*
X193626541Y-75448622D01*
X193729699Y-75322923D01*
X193806353Y-75179515D01*
X193853556Y-75023907D01*
X193865500Y-74902634D01*
X193865500Y-74902632D01*
X193866367Y-74893834D01*
X193986632Y-74813475D01*
X194193475Y-74606632D01*
X194355990Y-74363411D01*
X194467932Y-74093158D01*
X194525000Y-73806260D01*
X194525000Y-73513740D01*
X194467932Y-73226842D01*
X194355990Y-72956589D01*
X194193475Y-72713368D01*
X193986632Y-72506525D01*
X193743411Y-72344010D01*
X193473158Y-72232068D01*
X193186260Y-72175000D01*
X192893740Y-72175000D01*
X192606842Y-72232068D01*
X192336589Y-72344010D01*
X192093368Y-72506525D01*
X191886525Y-72713368D01*
X191770000Y-72887760D01*
X191653475Y-72713368D01*
X191446632Y-72506525D01*
X191203411Y-72344010D01*
X190933158Y-72232068D01*
X190646260Y-72175000D01*
X190353740Y-72175000D01*
X190210855Y-72203422D01*
X179761897Y-61754465D01*
X179736040Y-61722958D01*
X179610341Y-61619800D01*
X179466933Y-61543146D01*
X179311325Y-61495943D01*
X179190052Y-61483999D01*
X179190049Y-61483999D01*
X179149499Y-61480005D01*
X179108949Y-61483999D01*
X176591909Y-61483999D01*
X176611246Y-61443087D01*
X176651904Y-61309039D01*
X176529915Y-61087000D01*
X175387000Y-61087000D01*
X175387000Y-61107000D01*
X175133000Y-61107000D01*
X175133000Y-61087000D01*
X175113000Y-61087000D01*
X175113000Y-60833000D01*
X175133000Y-60833000D01*
X175133000Y-60813000D01*
X175387000Y-60813000D01*
X175387000Y-60833000D01*
X176529915Y-60833000D01*
X176651904Y-60610961D01*
X176611246Y-60476913D01*
X176591909Y-60436001D01*
X181188569Y-60436001D01*
X185233422Y-64480855D01*
X185205000Y-64623740D01*
X185205000Y-64916260D01*
X185262068Y-65203158D01*
X185374010Y-65473411D01*
X185536525Y-65716632D01*
X185743368Y-65923475D01*
X185986589Y-66085990D01*
X186256842Y-66197932D01*
X186543740Y-66255000D01*
X186836260Y-66255000D01*
X187123158Y-66197932D01*
X187393411Y-66085990D01*
X187636632Y-65923475D01*
X187843475Y-65716632D01*
X187961100Y-65540594D01*
X188132412Y-65770269D01*
X188348645Y-65965178D01*
X188598748Y-66114157D01*
X188873109Y-66211481D01*
X189103000Y-66090814D01*
X189103000Y-64897000D01*
X189083000Y-64897000D01*
X189083000Y-64643000D01*
X189103000Y-64643000D01*
X189103000Y-63449186D01*
X189357000Y-63449186D01*
X189357000Y-64643000D01*
X189377000Y-64643000D01*
X189377000Y-64897000D01*
X189357000Y-64897000D01*
X189357000Y-66090814D01*
X189586891Y-66211481D01*
X189861252Y-66114157D01*
X190111355Y-65965178D01*
X190307502Y-65788374D01*
X190330498Y-65864180D01*
X190389463Y-65974494D01*
X190468815Y-66071185D01*
X190565506Y-66150537D01*
X190675820Y-66209502D01*
X190795518Y-66245812D01*
X190920000Y-66258072D01*
X192620000Y-66258072D01*
X192744482Y-66245812D01*
X192864180Y-66209502D01*
X192974494Y-66150537D01*
X193071185Y-66071185D01*
X193150537Y-65974494D01*
X193209502Y-65864180D01*
X193245812Y-65744482D01*
X193258072Y-65620000D01*
X193258072Y-63920000D01*
X193245812Y-63795518D01*
X193209502Y-63675820D01*
X193150537Y-63565506D01*
X193071185Y-63468815D01*
X192974494Y-63389463D01*
X192864180Y-63330498D01*
X192744482Y-63294188D01*
X192620000Y-63281928D01*
X190920000Y-63281928D01*
X190795518Y-63294188D01*
X190675820Y-63330498D01*
X190565506Y-63389463D01*
X190468815Y-63468815D01*
X190389463Y-63565506D01*
X190330498Y-63675820D01*
X190307502Y-63751626D01*
X190111355Y-63574822D01*
X189861252Y-63425843D01*
X189586891Y-63328519D01*
X189357000Y-63449186D01*
X189103000Y-63449186D01*
X188873109Y-63328519D01*
X188598748Y-63425843D01*
X188348645Y-63574822D01*
X188132412Y-63769731D01*
X187961100Y-63999406D01*
X187843475Y-63823368D01*
X187636632Y-63616525D01*
X187393411Y-63454010D01*
X187123158Y-63342068D01*
X186836260Y-63285000D01*
X186543740Y-63285000D01*
X186400855Y-63313422D01*
X182142899Y-59055467D01*
X182117042Y-59023960D01*
X181991343Y-58920802D01*
X181847935Y-58844148D01*
X181692327Y-58796945D01*
X181571054Y-58785001D01*
X181571051Y-58785001D01*
X181530501Y-58781007D01*
X181489951Y-58785001D01*
X176650509Y-58785001D01*
X176695000Y-58561335D01*
X176695000Y-58278665D01*
X176674056Y-58173376D01*
X182002485Y-52844949D01*
X182033981Y-52819101D01*
X182059829Y-52787605D01*
X182059832Y-52787602D01*
X182137139Y-52693403D01*
X182213793Y-52549994D01*
X182245337Y-52446007D01*
X182251136Y-52426890D01*
X185248524Y-52426890D01*
X185293175Y-52574099D01*
X185418359Y-52836920D01*
X185592412Y-53070269D01*
X185808645Y-53265178D01*
X186058748Y-53414157D01*
X186333109Y-53511481D01*
X186563000Y-53390814D01*
X186563000Y-52197000D01*
X186817000Y-52197000D01*
X186817000Y-53390814D01*
X187046891Y-53511481D01*
X187321252Y-53414157D01*
X187571355Y-53265178D01*
X187787588Y-53070269D01*
X187960000Y-52839120D01*
X188132412Y-53070269D01*
X188348645Y-53265178D01*
X188598748Y-53414157D01*
X188873109Y-53511481D01*
X189103000Y-53390814D01*
X189103000Y-52197000D01*
X189357000Y-52197000D01*
X189357000Y-53390814D01*
X189586891Y-53511481D01*
X189861252Y-53414157D01*
X190111355Y-53265178D01*
X190307502Y-53088374D01*
X190330498Y-53164180D01*
X190389463Y-53274494D01*
X190468815Y-53371185D01*
X190565506Y-53450537D01*
X190675820Y-53509502D01*
X190795518Y-53545812D01*
X190920000Y-53558072D01*
X191484250Y-53555000D01*
X191643000Y-53396250D01*
X191643000Y-52197000D01*
X191897000Y-52197000D01*
X191897000Y-53396250D01*
X192055750Y-53555000D01*
X192620000Y-53558072D01*
X192744482Y-53545812D01*
X192864180Y-53509502D01*
X192974494Y-53450537D01*
X193071185Y-53371185D01*
X193150537Y-53274494D01*
X193209502Y-53164180D01*
X193245812Y-53044482D01*
X193258072Y-52920000D01*
X193255000Y-52355750D01*
X193096250Y-52197000D01*
X191897000Y-52197000D01*
X191643000Y-52197000D01*
X189357000Y-52197000D01*
X189103000Y-52197000D01*
X186817000Y-52197000D01*
X186563000Y-52197000D01*
X185369845Y-52197000D01*
X185248524Y-52426890D01*
X182251136Y-52426890D01*
X182260996Y-52394386D01*
X182272940Y-52273113D01*
X182272940Y-52273111D01*
X182276934Y-52232560D01*
X182272940Y-52192007D01*
X182272940Y-51713110D01*
X185248524Y-51713110D01*
X185369845Y-51943000D01*
X186563000Y-51943000D01*
X186563000Y-50749186D01*
X186817000Y-50749186D01*
X186817000Y-51943000D01*
X189103000Y-51943000D01*
X189103000Y-50749186D01*
X189357000Y-50749186D01*
X189357000Y-51943000D01*
X191643000Y-51943000D01*
X191643000Y-50743750D01*
X191897000Y-50743750D01*
X191897000Y-51943000D01*
X193096250Y-51943000D01*
X193255000Y-51784250D01*
X193258072Y-51220000D01*
X193245812Y-51095518D01*
X193209502Y-50975820D01*
X193150537Y-50865506D01*
X193071185Y-50768815D01*
X192974494Y-50689463D01*
X192864180Y-50630498D01*
X192744482Y-50594188D01*
X192620000Y-50581928D01*
X192055750Y-50585000D01*
X191897000Y-50743750D01*
X191643000Y-50743750D01*
X191484250Y-50585000D01*
X190920000Y-50581928D01*
X190795518Y-50594188D01*
X190675820Y-50630498D01*
X190565506Y-50689463D01*
X190468815Y-50768815D01*
X190389463Y-50865506D01*
X190330498Y-50975820D01*
X190307502Y-51051626D01*
X190111355Y-50874822D01*
X189861252Y-50725843D01*
X189586891Y-50628519D01*
X189357000Y-50749186D01*
X189103000Y-50749186D01*
X188873109Y-50628519D01*
X188598748Y-50725843D01*
X188348645Y-50874822D01*
X188132412Y-51069731D01*
X187960000Y-51300880D01*
X187787588Y-51069731D01*
X187571355Y-50874822D01*
X187321252Y-50725843D01*
X187046891Y-50628519D01*
X186817000Y-50749186D01*
X186563000Y-50749186D01*
X186333109Y-50628519D01*
X186058748Y-50725843D01*
X185808645Y-50874822D01*
X185592412Y-51069731D01*
X185418359Y-51303080D01*
X185293175Y-51565901D01*
X185248524Y-51713110D01*
X182272940Y-51713110D01*
X182272940Y-46156573D01*
X187245040Y-41184474D01*
X187276541Y-41158622D01*
X187358648Y-41058574D01*
X187379698Y-41032925D01*
X187420049Y-40957434D01*
X187456353Y-40889515D01*
X187503556Y-40733907D01*
X187515500Y-40612634D01*
X187515500Y-40612625D01*
X187516366Y-40603834D01*
X187636632Y-40523475D01*
X187843475Y-40316632D01*
X187960000Y-40142240D01*
X188076525Y-40316632D01*
X188283368Y-40523475D01*
X188526589Y-40685990D01*
X188796842Y-40797932D01*
X189083740Y-40855000D01*
X189376260Y-40855000D01*
X189663158Y-40797932D01*
X189933411Y-40685990D01*
X190176632Y-40523475D01*
X190308487Y-40391620D01*
X190330498Y-40464180D01*
X190389463Y-40574494D01*
X190468815Y-40671185D01*
X190565506Y-40750537D01*
X190675820Y-40809502D01*
X190795518Y-40845812D01*
X190920000Y-40858072D01*
X192620000Y-40858072D01*
X192744482Y-40845812D01*
X192864180Y-40809502D01*
X192974494Y-40750537D01*
X193071185Y-40671185D01*
X193150537Y-40574494D01*
X193209502Y-40464180D01*
X193245812Y-40344482D01*
X193258072Y-40220000D01*
X193258072Y-38520000D01*
X193245812Y-38395518D01*
X193209502Y-38275820D01*
X193150537Y-38165506D01*
X193071185Y-38068815D01*
X192974494Y-37989463D01*
X192864180Y-37930498D01*
X192744482Y-37894188D01*
X192620000Y-37881928D01*
X190920000Y-37881928D01*
X190795518Y-37894188D01*
X190675820Y-37930498D01*
X190565506Y-37989463D01*
X190468815Y-38068815D01*
X190389463Y-38165506D01*
X190330498Y-38275820D01*
X190308487Y-38348380D01*
X190176632Y-38216525D01*
X189933411Y-38054010D01*
X189663158Y-37942068D01*
X189376260Y-37885000D01*
X189083740Y-37885000D01*
X188796842Y-37942068D01*
X188526589Y-38054010D01*
X188283368Y-38216525D01*
X188076525Y-38423368D01*
X187960000Y-38597760D01*
X187843475Y-38423368D01*
X187636632Y-38216525D01*
X187393411Y-38054010D01*
X187123158Y-37942068D01*
X186836260Y-37885000D01*
X186543740Y-37885000D01*
X186256842Y-37942068D01*
X185986589Y-38054010D01*
X185743368Y-38216525D01*
X185536525Y-38423368D01*
X185374010Y-38666589D01*
X185262068Y-38936842D01*
X185205000Y-39223740D01*
X185205000Y-39516260D01*
X185262068Y-39803158D01*
X185374010Y-40073411D01*
X185536525Y-40316632D01*
X185657271Y-40437378D01*
X180892406Y-45202243D01*
X180860899Y-45228100D01*
X180800723Y-45301426D01*
X180757741Y-45353799D01*
X180731674Y-45402567D01*
X180681087Y-45497208D01*
X180633884Y-45652816D01*
X180621940Y-45774088D01*
X180617946Y-45814641D01*
X180621940Y-45855192D01*
X180621941Y-51890625D01*
X176695000Y-55817567D01*
X176695000Y-55738665D01*
X176639853Y-55461426D01*
X176531680Y-55200273D01*
X176374637Y-54965241D01*
X176174759Y-54765363D01*
X175942241Y-54610000D01*
X176174759Y-54454637D01*
X176374637Y-54254759D01*
X176531680Y-54019727D01*
X176639853Y-53758574D01*
X176695000Y-53481335D01*
X176695000Y-53198665D01*
X176639853Y-52921426D01*
X176531680Y-52660273D01*
X176374637Y-52425241D01*
X176174759Y-52225363D01*
X175942241Y-52070000D01*
X176174759Y-51914637D01*
X176374637Y-51714759D01*
X176531680Y-51479727D01*
X176639853Y-51218574D01*
X176695000Y-50941335D01*
X176695000Y-50658665D01*
X176639853Y-50381426D01*
X176531680Y-50120273D01*
X176374637Y-49885241D01*
X176174759Y-49685363D01*
X175942241Y-49530000D01*
X176174759Y-49374637D01*
X176374637Y-49174759D01*
X176531680Y-48939727D01*
X176639853Y-48678574D01*
X176695000Y-48401335D01*
X176695000Y-48118665D01*
X176639853Y-47841426D01*
X176531680Y-47580273D01*
X176374637Y-47345241D01*
X176174759Y-47145363D01*
X175942241Y-46990000D01*
X176174759Y-46834637D01*
X176374637Y-46634759D01*
X176531680Y-46399727D01*
X176639853Y-46138574D01*
X176695000Y-45861335D01*
X176695000Y-45578665D01*
X176639853Y-45301426D01*
X176531680Y-45040273D01*
X176374637Y-44805241D01*
X176174759Y-44605363D01*
X175942241Y-44450000D01*
X176174759Y-44294637D01*
X176374637Y-44094759D01*
X176531680Y-43859727D01*
X176639853Y-43598574D01*
X176695000Y-43321335D01*
X176695000Y-43038665D01*
X176639853Y-42761426D01*
X176531680Y-42500273D01*
X176374637Y-42265241D01*
X176174759Y-42065363D01*
X175942241Y-41910000D01*
X176174759Y-41754637D01*
X176374637Y-41554759D01*
X176531680Y-41319727D01*
X176639853Y-41058574D01*
X176695000Y-40781335D01*
X176695000Y-40498665D01*
X176639853Y-40221426D01*
X176531680Y-39960273D01*
X176374637Y-39725241D01*
X176174759Y-39525363D01*
X175942241Y-39370000D01*
X176174759Y-39214637D01*
X176374637Y-39014759D01*
X176531680Y-38779727D01*
X176639853Y-38518574D01*
X176695000Y-38241335D01*
X176695000Y-37958665D01*
X176639853Y-37681426D01*
X176531680Y-37420273D01*
X176374637Y-37185241D01*
X176174759Y-36985363D01*
X175942241Y-36830000D01*
X176174759Y-36674637D01*
X176374637Y-36474759D01*
X176531680Y-36239727D01*
X176639853Y-35978574D01*
X176695000Y-35701335D01*
X176695000Y-35418665D01*
X176639853Y-35141426D01*
X176531680Y-34880273D01*
X176374637Y-34645241D01*
X176174759Y-34445363D01*
X175942241Y-34290000D01*
X176174759Y-34134637D01*
X176374637Y-33934759D01*
X176531680Y-33699727D01*
X176639853Y-33438574D01*
X176695000Y-33161335D01*
X176695000Y-32878665D01*
X176639853Y-32601426D01*
X176531680Y-32340273D01*
X176374637Y-32105241D01*
X176174759Y-31905363D01*
X175939727Y-31748320D01*
X175678574Y-31640147D01*
X175401335Y-31585000D01*
X175118665Y-31585000D01*
X174841426Y-31640147D01*
X174580273Y-31748320D01*
X174345241Y-31905363D01*
X174145363Y-32105241D01*
X173988320Y-32340273D01*
X173880147Y-32601426D01*
X173825000Y-32878665D01*
X173825000Y-33161335D01*
X173880147Y-33438574D01*
X173988320Y-33699727D01*
X174145363Y-33934759D01*
X174345241Y-34134637D01*
X174577759Y-34290000D01*
X174345241Y-34445363D01*
X174145363Y-34645241D01*
X173988320Y-34880273D01*
X173880147Y-35141426D01*
X173825000Y-35418665D01*
X173825000Y-35701335D01*
X173880147Y-35978574D01*
X173988320Y-36239727D01*
X174145363Y-36474759D01*
X174345241Y-36674637D01*
X174577759Y-36830000D01*
X174345241Y-36985363D01*
X174145363Y-37185241D01*
X173988320Y-37420273D01*
X173880147Y-37681426D01*
X173825000Y-37958665D01*
X173825000Y-38241335D01*
X173880147Y-38518574D01*
X173988320Y-38779727D01*
X174145363Y-39014759D01*
X174345241Y-39214637D01*
X174577759Y-39370000D01*
X174345241Y-39525363D01*
X174145363Y-39725241D01*
X173988320Y-39960273D01*
X173880147Y-40221426D01*
X173825000Y-40498665D01*
X173825000Y-40781335D01*
X173880147Y-41058574D01*
X173988320Y-41319727D01*
X174145363Y-41554759D01*
X174345241Y-41754637D01*
X174577759Y-41910000D01*
X174345241Y-42065363D01*
X174145363Y-42265241D01*
X173988320Y-42500273D01*
X173880147Y-42761426D01*
X173825000Y-43038665D01*
X173825000Y-43321335D01*
X173880147Y-43598574D01*
X173988320Y-43859727D01*
X174145363Y-44094759D01*
X174345241Y-44294637D01*
X174577759Y-44450000D01*
X174345241Y-44605363D01*
X174145363Y-44805241D01*
X173988320Y-45040273D01*
X173880147Y-45301426D01*
X173825000Y-45578665D01*
X173825000Y-45861335D01*
X173880147Y-46138574D01*
X173988320Y-46399727D01*
X174145363Y-46634759D01*
X174345241Y-46834637D01*
X174577759Y-46990000D01*
X174345241Y-47145363D01*
X174145363Y-47345241D01*
X173988320Y-47580273D01*
X173880147Y-47841426D01*
X173825000Y-48118665D01*
X173825000Y-48401335D01*
X173880147Y-48678574D01*
X173988320Y-48939727D01*
X174145363Y-49174759D01*
X174345241Y-49374637D01*
X174577759Y-49530000D01*
X174345241Y-49685363D01*
X174145363Y-49885241D01*
X173988320Y-50120273D01*
X173880147Y-50381426D01*
X173825000Y-50658665D01*
X173825000Y-50941335D01*
X173880147Y-51218574D01*
X173988320Y-51479727D01*
X174145363Y-51714759D01*
X174345241Y-51914637D01*
X174577759Y-52070000D01*
X174345241Y-52225363D01*
X174145363Y-52425241D01*
X173988320Y-52660273D01*
X173880147Y-52921426D01*
X173825000Y-53198665D01*
X173825000Y-53277566D01*
X161434056Y-40886624D01*
X161455000Y-40781335D01*
X161455000Y-40498665D01*
X161399853Y-40221426D01*
X161291680Y-39960273D01*
X161134637Y-39725241D01*
X160934759Y-39525363D01*
X160702241Y-39370000D01*
X160934759Y-39214637D01*
X161134637Y-39014759D01*
X161291680Y-38779727D01*
X161399853Y-38518574D01*
X161455000Y-38241335D01*
X161455000Y-37958665D01*
X161399853Y-37681426D01*
X161291680Y-37420273D01*
X161134637Y-37185241D01*
X160934759Y-36985363D01*
X160702241Y-36830000D01*
X160934759Y-36674637D01*
X161134637Y-36474759D01*
X161291680Y-36239727D01*
X161399853Y-35978574D01*
X161455000Y-35701335D01*
X161455000Y-35418665D01*
X161399853Y-35141426D01*
X161291680Y-34880273D01*
X161134637Y-34645241D01*
X160934759Y-34445363D01*
X160702241Y-34290000D01*
X160934759Y-34134637D01*
X161134637Y-33934759D01*
X161291680Y-33699727D01*
X161399853Y-33438574D01*
X161455000Y-33161335D01*
X161455000Y-32878665D01*
X161399853Y-32601426D01*
X161291680Y-32340273D01*
X161134637Y-32105241D01*
X160934759Y-31905363D01*
X160699727Y-31748320D01*
X160438574Y-31640147D01*
X160161335Y-31585000D01*
X159878665Y-31585000D01*
X159601426Y-31640147D01*
X159340273Y-31748320D01*
X159105241Y-31905363D01*
X158905363Y-32105241D01*
X158748320Y-32340273D01*
X158640147Y-32601426D01*
X158585000Y-32878665D01*
X158585000Y-33161335D01*
X158640147Y-33438574D01*
X158748320Y-33699727D01*
X158905363Y-33934759D01*
X159105241Y-34134637D01*
X159337759Y-34290000D01*
X159105241Y-34445363D01*
X158905363Y-34645241D01*
X158748320Y-34880273D01*
X158640147Y-35141426D01*
X158585000Y-35418665D01*
X158585000Y-35701335D01*
X158640147Y-35978574D01*
X158748320Y-36239727D01*
X158905363Y-36474759D01*
X159105241Y-36674637D01*
X159337759Y-36830000D01*
X159105241Y-36985363D01*
X158905363Y-37185241D01*
X158748320Y-37420273D01*
X158640147Y-37681426D01*
X158585000Y-37958665D01*
X158585000Y-38241335D01*
X158640147Y-38518574D01*
X158748320Y-38779727D01*
X158905363Y-39014759D01*
X159105241Y-39214637D01*
X159337759Y-39370000D01*
X159105241Y-39525363D01*
X158905363Y-39725241D01*
X158748320Y-39960273D01*
X158640147Y-40221426D01*
X158585000Y-40498665D01*
X158585000Y-40781335D01*
X158640147Y-41058574D01*
X158748320Y-41319727D01*
X158905363Y-41554759D01*
X159105241Y-41754637D01*
X159337759Y-41910000D01*
X159105241Y-42065363D01*
X158905363Y-42265241D01*
X158748320Y-42500273D01*
X158640147Y-42761426D01*
X158585000Y-43038665D01*
X158585000Y-43321335D01*
X158640147Y-43598574D01*
X158748320Y-43859727D01*
X158905363Y-44094759D01*
X159105241Y-44294637D01*
X159337759Y-44450000D01*
X159105241Y-44605363D01*
X158905363Y-44805241D01*
X158748320Y-45040273D01*
X158640147Y-45301426D01*
X158585000Y-45578665D01*
X158585000Y-45861335D01*
X158640147Y-46138574D01*
X158748320Y-46399727D01*
X158905363Y-46634759D01*
X159105241Y-46834637D01*
X159337759Y-46990000D01*
X159105241Y-47145363D01*
X158905363Y-47345241D01*
X158748320Y-47580273D01*
X158640147Y-47841426D01*
X158585000Y-48118665D01*
X158585000Y-48401335D01*
X158640147Y-48678574D01*
X158748320Y-48939727D01*
X158905363Y-49174759D01*
X159105241Y-49374637D01*
X159337759Y-49530000D01*
X159105241Y-49685363D01*
X158905363Y-49885241D01*
X158748320Y-50120273D01*
X158640147Y-50381426D01*
X158585000Y-50658665D01*
X158585000Y-50941335D01*
X158605944Y-51046624D01*
X158487567Y-51165001D01*
X153790509Y-51165001D01*
X153835000Y-50941335D01*
X153835000Y-50658665D01*
X153779853Y-50381426D01*
X153671680Y-50120273D01*
X153514637Y-49885241D01*
X153314759Y-49685363D01*
X153082241Y-49530000D01*
X153314759Y-49374637D01*
X153514637Y-49174759D01*
X153671680Y-48939727D01*
X153779853Y-48678574D01*
X153835000Y-48401335D01*
X153835000Y-48118665D01*
X153779853Y-47841426D01*
X153671680Y-47580273D01*
X153514637Y-47345241D01*
X153314759Y-47145363D01*
X153082241Y-46990000D01*
X153314759Y-46834637D01*
X153514637Y-46634759D01*
X153671680Y-46399727D01*
X153779853Y-46138574D01*
X153835000Y-45861335D01*
X153835000Y-45578665D01*
X153779853Y-45301426D01*
X153671680Y-45040273D01*
X153514637Y-44805241D01*
X153314759Y-44605363D01*
X153082241Y-44450000D01*
X153314759Y-44294637D01*
X153514637Y-44094759D01*
X153671680Y-43859727D01*
X153779853Y-43598574D01*
X153835000Y-43321335D01*
X153835000Y-43038665D01*
X153779853Y-42761426D01*
X153671680Y-42500273D01*
X153514637Y-42265241D01*
X153314759Y-42065363D01*
X153082241Y-41910000D01*
X153314759Y-41754637D01*
X153514637Y-41554759D01*
X153671680Y-41319727D01*
X153779853Y-41058574D01*
X153835000Y-40781335D01*
X153835000Y-40498665D01*
X153779853Y-40221426D01*
X153671680Y-39960273D01*
X153514637Y-39725241D01*
X153314759Y-39525363D01*
X153082241Y-39370000D01*
X153314759Y-39214637D01*
X153514637Y-39014759D01*
X153671680Y-38779727D01*
X153779853Y-38518574D01*
X153835000Y-38241335D01*
X153835000Y-37958665D01*
X153779853Y-37681426D01*
X153671680Y-37420273D01*
X153514637Y-37185241D01*
X153314759Y-36985363D01*
X153082241Y-36830000D01*
X153314759Y-36674637D01*
X153514637Y-36474759D01*
X153671680Y-36239727D01*
X153779853Y-35978574D01*
X153835000Y-35701335D01*
X153835000Y-35418665D01*
X153779853Y-35141426D01*
X153671680Y-34880273D01*
X153514637Y-34645241D01*
X153314759Y-34445363D01*
X153082241Y-34290000D01*
X153314759Y-34134637D01*
X153514637Y-33934759D01*
X153671680Y-33699727D01*
X153779853Y-33438574D01*
X153835000Y-33161335D01*
X153835000Y-32878665D01*
X153779853Y-32601426D01*
X153671680Y-32340273D01*
X153514637Y-32105241D01*
X153314759Y-31905363D01*
X153079727Y-31748320D01*
X152818574Y-31640147D01*
X152541335Y-31585000D01*
X152258665Y-31585000D01*
X151981426Y-31640147D01*
X151720273Y-31748320D01*
X151485241Y-31905363D01*
X151285363Y-32105241D01*
X151128320Y-32340273D01*
X151020147Y-32601426D01*
X150965000Y-32878665D01*
X150965000Y-33161335D01*
X151020147Y-33438574D01*
X151128320Y-33699727D01*
X151285363Y-33934759D01*
X151485241Y-34134637D01*
X151717759Y-34290000D01*
X151485241Y-34445363D01*
X151285363Y-34645241D01*
X151128320Y-34880273D01*
X151020147Y-35141426D01*
X150965000Y-35418665D01*
X150965000Y-35701335D01*
X151020147Y-35978574D01*
X151128320Y-36239727D01*
X151285363Y-36474759D01*
X151485241Y-36674637D01*
X151717759Y-36830000D01*
X151485241Y-36985363D01*
X151285363Y-37185241D01*
X151128320Y-37420273D01*
X151020147Y-37681426D01*
X150965000Y-37958665D01*
X150965000Y-38241335D01*
X151020147Y-38518574D01*
X151128320Y-38779727D01*
X151285363Y-39014759D01*
X151485241Y-39214637D01*
X151717759Y-39370000D01*
X151485241Y-39525363D01*
X151285363Y-39725241D01*
X151128320Y-39960273D01*
X151020147Y-40221426D01*
X150965000Y-40498665D01*
X150965000Y-40781335D01*
X151020147Y-41058574D01*
X151128320Y-41319727D01*
X151285363Y-41554759D01*
X151485241Y-41754637D01*
X151717759Y-41910000D01*
X151485241Y-42065363D01*
X151285363Y-42265241D01*
X151128320Y-42500273D01*
X151020147Y-42761426D01*
X150965000Y-43038665D01*
X150965000Y-43321335D01*
X151020147Y-43598574D01*
X151128320Y-43859727D01*
X151285363Y-44094759D01*
X151485241Y-44294637D01*
X151717759Y-44450000D01*
X151485241Y-44605363D01*
X151285363Y-44805241D01*
X151128320Y-45040273D01*
X151020147Y-45301426D01*
X150965000Y-45578665D01*
X150965000Y-45861335D01*
X151020147Y-46138574D01*
X151128320Y-46399727D01*
X151285363Y-46634759D01*
X151485241Y-46834637D01*
X151717759Y-46990000D01*
X151485241Y-47145363D01*
X151285363Y-47345241D01*
X151128320Y-47580273D01*
X151020147Y-47841426D01*
X150965000Y-48118665D01*
X150965000Y-48401335D01*
X151020147Y-48678574D01*
X151128320Y-48939727D01*
X151285363Y-49174759D01*
X151485241Y-49374637D01*
X151717759Y-49530000D01*
X151485241Y-49685363D01*
X151285363Y-49885241D01*
X151128320Y-50120273D01*
X151020147Y-50381426D01*
X150965000Y-50658665D01*
X150965000Y-50941335D01*
X151009491Y-51165001D01*
X138692433Y-51165001D01*
X138574056Y-51046624D01*
X138595000Y-50941335D01*
X138595000Y-50658665D01*
X138539853Y-50381426D01*
X138431680Y-50120273D01*
X138274637Y-49885241D01*
X138074759Y-49685363D01*
X137842241Y-49530000D01*
X138074759Y-49374637D01*
X138274637Y-49174759D01*
X138431680Y-48939727D01*
X138539853Y-48678574D01*
X138595000Y-48401335D01*
X138595000Y-48118665D01*
X138539853Y-47841426D01*
X138431680Y-47580273D01*
X138274637Y-47345241D01*
X138074759Y-47145363D01*
X137842241Y-46990000D01*
X138074759Y-46834637D01*
X138274637Y-46634759D01*
X138431680Y-46399727D01*
X138539853Y-46138574D01*
X138595000Y-45861335D01*
X138595000Y-45578665D01*
X138539853Y-45301426D01*
X138431680Y-45040273D01*
X138274637Y-44805241D01*
X138074759Y-44605363D01*
X137842241Y-44450000D01*
X138074759Y-44294637D01*
X138274637Y-44094759D01*
X138431680Y-43859727D01*
X138539853Y-43598574D01*
X138595000Y-43321335D01*
X138595000Y-43038665D01*
X138539853Y-42761426D01*
X138431680Y-42500273D01*
X138274637Y-42265241D01*
X138074759Y-42065363D01*
X137842241Y-41910000D01*
X138074759Y-41754637D01*
X138274637Y-41554759D01*
X138431680Y-41319727D01*
X138539853Y-41058574D01*
X138595000Y-40781335D01*
X138595000Y-40498665D01*
X138539853Y-40221426D01*
X138431680Y-39960273D01*
X138274637Y-39725241D01*
X138074759Y-39525363D01*
X137842241Y-39370000D01*
X138074759Y-39214637D01*
X138274637Y-39014759D01*
X138431680Y-38779727D01*
X138539853Y-38518574D01*
X138595000Y-38241335D01*
X138595000Y-37958665D01*
X138539853Y-37681426D01*
X138431680Y-37420273D01*
X138274637Y-37185241D01*
X138074759Y-36985363D01*
X137842241Y-36830000D01*
X138074759Y-36674637D01*
X138274637Y-36474759D01*
X138431680Y-36239727D01*
X138539853Y-35978574D01*
X138595000Y-35701335D01*
X138595000Y-35418665D01*
X138539853Y-35141426D01*
X138431680Y-34880273D01*
X138274637Y-34645241D01*
X138074759Y-34445363D01*
X137842241Y-34290000D01*
X138074759Y-34134637D01*
X138274637Y-33934759D01*
X138431680Y-33699727D01*
X138539853Y-33438574D01*
X138595000Y-33161335D01*
X138595000Y-32878665D01*
X138539853Y-32601426D01*
X138431680Y-32340273D01*
X138274637Y-32105241D01*
X138074759Y-31905363D01*
X137839727Y-31748320D01*
X137578574Y-31640147D01*
X137301335Y-31585000D01*
X137018665Y-31585000D01*
X136741426Y-31640147D01*
X136480273Y-31748320D01*
X136245241Y-31905363D01*
X136045363Y-32105241D01*
X135888320Y-32340273D01*
X135780147Y-32601426D01*
X135725000Y-32878665D01*
X135725000Y-33161335D01*
X135780147Y-33438574D01*
X135888320Y-33699727D01*
X136045363Y-33934759D01*
X136245241Y-34134637D01*
X136477759Y-34290000D01*
X136245241Y-34445363D01*
X136045363Y-34645241D01*
X135888320Y-34880273D01*
X135780147Y-35141426D01*
X135725000Y-35418665D01*
X135725000Y-35701335D01*
X135780147Y-35978574D01*
X135888320Y-36239727D01*
X136045363Y-36474759D01*
X136245241Y-36674637D01*
X136477759Y-36830000D01*
X136245241Y-36985363D01*
X136045363Y-37185241D01*
X135888320Y-37420273D01*
X135780147Y-37681426D01*
X135725000Y-37958665D01*
X135725000Y-38241335D01*
X135780147Y-38518574D01*
X135888320Y-38779727D01*
X136045363Y-39014759D01*
X136245241Y-39214637D01*
X136477759Y-39370000D01*
X136245241Y-39525363D01*
X136045363Y-39725241D01*
X135888320Y-39960273D01*
X135780147Y-40221426D01*
X135725000Y-40498665D01*
X135725000Y-40781335D01*
X135745943Y-40886624D01*
X125807418Y-50825150D01*
X125761185Y-50768815D01*
X125664494Y-50689463D01*
X125554180Y-50630498D01*
X125434482Y-50594188D01*
X125310000Y-50581928D01*
X124745750Y-50585000D01*
X124587000Y-50743750D01*
X124587000Y-51943000D01*
X124607000Y-51943000D01*
X124607000Y-52197000D01*
X124587000Y-52197000D01*
X124587000Y-53396250D01*
X124745750Y-53555000D01*
X124875002Y-53555704D01*
X124875001Y-58107566D01*
X119669146Y-63313422D01*
X119526260Y-63285000D01*
X119233740Y-63285000D01*
X118946842Y-63342068D01*
X118676589Y-63454010D01*
X118433368Y-63616525D01*
X118226525Y-63823368D01*
X118064010Y-64066589D01*
X117952068Y-64336842D01*
X117895000Y-64623740D01*
X111505766Y-64623740D01*
X111387568Y-52426890D01*
X117938524Y-52426890D01*
X117983175Y-52574099D01*
X118108359Y-52836920D01*
X118282412Y-53070269D01*
X118498645Y-53265178D01*
X118748748Y-53414157D01*
X119023109Y-53511481D01*
X119253000Y-53390814D01*
X119253000Y-52197000D01*
X119507000Y-52197000D01*
X119507000Y-53390814D01*
X119736891Y-53511481D01*
X120011252Y-53414157D01*
X120261355Y-53265178D01*
X120477588Y-53070269D01*
X120650000Y-52839120D01*
X120822412Y-53070269D01*
X121038645Y-53265178D01*
X121288748Y-53414157D01*
X121563109Y-53511481D01*
X121793000Y-53390814D01*
X121793000Y-52197000D01*
X122047000Y-52197000D01*
X122047000Y-53390814D01*
X122276891Y-53511481D01*
X122551252Y-53414157D01*
X122801355Y-53265178D01*
X122997502Y-53088374D01*
X123020498Y-53164180D01*
X123079463Y-53274494D01*
X123158815Y-53371185D01*
X123255506Y-53450537D01*
X123365820Y-53509502D01*
X123485518Y-53545812D01*
X123610000Y-53558072D01*
X124174250Y-53555000D01*
X124333000Y-53396250D01*
X124333000Y-52197000D01*
X122047000Y-52197000D01*
X121793000Y-52197000D01*
X119507000Y-52197000D01*
X119253000Y-52197000D01*
X118059845Y-52197000D01*
X117938524Y-52426890D01*
X111387568Y-52426890D01*
X111380651Y-51713110D01*
X117938524Y-51713110D01*
X118059845Y-51943000D01*
X119253000Y-51943000D01*
X119253000Y-50749186D01*
X119507000Y-50749186D01*
X119507000Y-51943000D01*
X121793000Y-51943000D01*
X121793000Y-50749186D01*
X122047000Y-50749186D01*
X122047000Y-51943000D01*
X124333000Y-51943000D01*
X124333000Y-50743750D01*
X124174250Y-50585000D01*
X123610000Y-50581928D01*
X123485518Y-50594188D01*
X123365820Y-50630498D01*
X123255506Y-50689463D01*
X123158815Y-50768815D01*
X123079463Y-50865506D01*
X123020498Y-50975820D01*
X122997502Y-51051626D01*
X122801355Y-50874822D01*
X122551252Y-50725843D01*
X122276891Y-50628519D01*
X122047000Y-50749186D01*
X121793000Y-50749186D01*
X121563109Y-50628519D01*
X121288748Y-50725843D01*
X121038645Y-50874822D01*
X120822412Y-51069731D01*
X120650000Y-51300880D01*
X120477588Y-51069731D01*
X120261355Y-50874822D01*
X120011252Y-50725843D01*
X119736891Y-50628519D01*
X119507000Y-50749186D01*
X119253000Y-50749186D01*
X119023109Y-50628519D01*
X118748748Y-50725843D01*
X118498645Y-50874822D01*
X118282412Y-51069731D01*
X118108359Y-51303080D01*
X117983175Y-51565901D01*
X117938524Y-51713110D01*
X111380651Y-51713110D01*
X111259618Y-39223740D01*
X117895000Y-39223740D01*
X117895000Y-39516260D01*
X117952068Y-39803158D01*
X118064010Y-40073411D01*
X118226525Y-40316632D01*
X118433368Y-40523475D01*
X118676589Y-40685990D01*
X118946842Y-40797932D01*
X119233740Y-40855000D01*
X119526260Y-40855000D01*
X119813158Y-40797932D01*
X120083411Y-40685990D01*
X120326632Y-40523475D01*
X120533475Y-40316632D01*
X120650000Y-40142240D01*
X120766525Y-40316632D01*
X120973368Y-40523475D01*
X121216589Y-40685990D01*
X121486842Y-40797932D01*
X121773740Y-40855000D01*
X122066260Y-40855000D01*
X122353158Y-40797932D01*
X122623411Y-40685990D01*
X122866632Y-40523475D01*
X122998487Y-40391620D01*
X123020498Y-40464180D01*
X123079463Y-40574494D01*
X123158815Y-40671185D01*
X123255506Y-40750537D01*
X123365820Y-40809502D01*
X123485518Y-40845812D01*
X123610000Y-40858072D01*
X125310000Y-40858072D01*
X125434482Y-40845812D01*
X125554180Y-40809502D01*
X125664494Y-40750537D01*
X125761185Y-40671185D01*
X125840537Y-40574494D01*
X125899502Y-40464180D01*
X125935812Y-40344482D01*
X125948072Y-40220000D01*
X125948072Y-38520000D01*
X125935812Y-38395518D01*
X125899502Y-38275820D01*
X125840537Y-38165506D01*
X125761185Y-38068815D01*
X125664494Y-37989463D01*
X125554180Y-37930498D01*
X125434482Y-37894188D01*
X125310000Y-37881928D01*
X123610000Y-37881928D01*
X123485518Y-37894188D01*
X123365820Y-37930498D01*
X123255506Y-37989463D01*
X123158815Y-38068815D01*
X123079463Y-38165506D01*
X123020498Y-38275820D01*
X122998487Y-38348380D01*
X122866632Y-38216525D01*
X122623411Y-38054010D01*
X122353158Y-37942068D01*
X122066260Y-37885000D01*
X121773740Y-37885000D01*
X121486842Y-37942068D01*
X121216589Y-38054010D01*
X120973368Y-38216525D01*
X120766525Y-38423368D01*
X120650000Y-38597760D01*
X120533475Y-38423368D01*
X120326632Y-38216525D01*
X120083411Y-38054010D01*
X119813158Y-37942068D01*
X119526260Y-37885000D01*
X119233740Y-37885000D01*
X118946842Y-37942068D01*
X118676589Y-38054010D01*
X118433368Y-38216525D01*
X118226525Y-38423368D01*
X118064010Y-38666589D01*
X117952068Y-38936842D01*
X117895000Y-39223740D01*
X111259618Y-39223740D01*
X111151812Y-28099319D01*
X111173026Y-27719872D01*
X114605000Y-27719872D01*
X114605000Y-28160128D01*
X114690890Y-28591925D01*
X114859369Y-28998669D01*
X115103962Y-29364729D01*
X115415271Y-29676038D01*
X115781331Y-29920631D01*
X116188075Y-30089110D01*
X116619872Y-30175000D01*
X117060128Y-30175000D01*
X117491925Y-30089110D01*
X117898669Y-29920631D01*
X118264729Y-29676038D01*
X118576038Y-29364729D01*
X118820631Y-28998669D01*
X118989110Y-28591925D01*
X119075000Y-28160128D01*
X119075000Y-27719872D01*
X193345000Y-27719872D01*
X193345000Y-28160128D01*
X193430890Y-28591925D01*
X193599369Y-28998669D01*
X193843962Y-29364729D01*
X194155271Y-29676038D01*
X194521331Y-29920631D01*
X194928075Y-30089110D01*
X195359872Y-30175000D01*
X195800128Y-30175000D01*
X196231925Y-30089110D01*
X196638669Y-29920631D01*
X197004729Y-29676038D01*
X197316038Y-29364729D01*
X197560631Y-28998669D01*
X197729110Y-28591925D01*
X197815000Y-28160128D01*
X197815000Y-27719872D01*
X197729110Y-27288075D01*
X197560631Y-26881331D01*
X197316038Y-26515271D01*
X197004729Y-26203962D01*
X196638669Y-25959369D01*
X196231925Y-25790890D01*
X195800128Y-25705000D01*
X195359872Y-25705000D01*
X194928075Y-25790890D01*
X194521331Y-25959369D01*
X194155271Y-26203962D01*
X193843962Y-26515271D01*
X193599369Y-26881331D01*
X193430890Y-27288075D01*
X193345000Y-27719872D01*
X119075000Y-27719872D01*
X118989110Y-27288075D01*
X118820631Y-26881331D01*
X118576038Y-26515271D01*
X118264729Y-26203962D01*
X117898669Y-25959369D01*
X117491925Y-25790890D01*
X117060128Y-25705000D01*
X116619872Y-25705000D01*
X116188075Y-25790890D01*
X115781331Y-25959369D01*
X115415271Y-26203962D01*
X115103962Y-26515271D01*
X114859369Y-26881331D01*
X114690890Y-27288075D01*
X114605000Y-27719872D01*
X111173026Y-27719872D01*
X111203328Y-27177890D01*
X111391945Y-26305504D01*
X111714711Y-25473361D01*
X112163678Y-24701961D01*
X112727788Y-24010293D01*
X113393164Y-23415377D01*
X114143405Y-22931880D01*
X114167198Y-22921386D01*
X199084767Y-23298232D01*
G36*
X188087000Y-73533000D02*
G01*
X188107000Y-73533000D01*
X188107000Y-73787000D01*
X188087000Y-73787000D01*
X188087000Y-73807000D01*
X187833000Y-73807000D01*
X187833000Y-73787000D01*
X187813000Y-73787000D01*
X187813000Y-73533000D01*
X187833000Y-73533000D01*
X187833000Y-73513000D01*
X188087000Y-73513000D01*
X188087000Y-73533000D01*
G37*
X188087000Y-73533000D02*
X188107000Y-73533000D01*
X188107000Y-73787000D01*
X188087000Y-73787000D01*
X188087000Y-73807000D01*
X187833000Y-73807000D01*
X187833000Y-73787000D01*
X187813000Y-73787000D01*
X187813000Y-73533000D01*
X187833000Y-73533000D01*
X187833000Y-73513000D01*
X188087000Y-73513000D01*
X188087000Y-73533000D01*
M02*
