G04 #@! TF.GenerationSoftware,KiCad,Pcbnew,(5.1.2)-2*
G04 #@! TF.CreationDate,2020-06-24T22:30:04-05:00*
G04 #@! TF.ProjectId,HallSensor,48616c6c-5365-46e7-936f-722e6b696361,rev?*
G04 #@! TF.SameCoordinates,Original*
G04 #@! TF.FileFunction,Soldermask,Bot*
G04 #@! TF.FilePolarity,Negative*
%FSLAX46Y46*%
G04 Gerber Fmt 4.6, Leading zero omitted, Abs format (unit mm)*
G04 Created by KiCad (PCBNEW (5.1.2)-2) date 2020-06-24 22:30:04*
%MOMM*%
%LPD*%
G04 APERTURE LIST*
%ADD10C,0.100000*%
G04 APERTURE END LIST*
D10*
G36*
X129572455Y-105095154D02*
G01*
X129644422Y-105102242D01*
X129814261Y-105153762D01*
X129970786Y-105237427D01*
X130006524Y-105266757D01*
X130107981Y-105350019D01*
X130191243Y-105451476D01*
X130220573Y-105487214D01*
X130304238Y-105643739D01*
X130355758Y-105813578D01*
X130373154Y-105990205D01*
X130355758Y-106166832D01*
X130304238Y-106336671D01*
X130220573Y-106493196D01*
X130191243Y-106528934D01*
X130107981Y-106630391D01*
X130006524Y-106713653D01*
X129970786Y-106742983D01*
X129814261Y-106826648D01*
X129644422Y-106878168D01*
X129578237Y-106884687D01*
X129512055Y-106891205D01*
X129423535Y-106891205D01*
X129357353Y-106884687D01*
X129291168Y-106878168D01*
X129121329Y-106826648D01*
X128964804Y-106742983D01*
X128929066Y-106713653D01*
X128827609Y-106630391D01*
X128744347Y-106528934D01*
X128715017Y-106493196D01*
X128631352Y-106336671D01*
X128579832Y-106166832D01*
X128562436Y-105990205D01*
X128579832Y-105813578D01*
X128631352Y-105643739D01*
X128715017Y-105487214D01*
X128744347Y-105451476D01*
X128827609Y-105350019D01*
X128929066Y-105266757D01*
X128964804Y-105237427D01*
X129121329Y-105153762D01*
X129291168Y-105102242D01*
X129363135Y-105095154D01*
X129423535Y-105089205D01*
X129512055Y-105089205D01*
X129572455Y-105095154D01*
X129572455Y-105095154D01*
G37*
G36*
X131368496Y-103299102D02*
G01*
X131440473Y-103306191D01*
X131610312Y-103357711D01*
X131766837Y-103441376D01*
X131802575Y-103470706D01*
X131904032Y-103553968D01*
X131984516Y-103652040D01*
X132016624Y-103691163D01*
X132100289Y-103847688D01*
X132151809Y-104017527D01*
X132169205Y-104194154D01*
X132151809Y-104370781D01*
X132100289Y-104540620D01*
X132016624Y-104697145D01*
X131987294Y-104732883D01*
X131904032Y-104834340D01*
X131802575Y-104917602D01*
X131766837Y-104946932D01*
X131610312Y-105030597D01*
X131440473Y-105082117D01*
X131374288Y-105088636D01*
X131308106Y-105095154D01*
X131219586Y-105095154D01*
X131153404Y-105088636D01*
X131087219Y-105082117D01*
X130917380Y-105030597D01*
X130760855Y-104946932D01*
X130725117Y-104917602D01*
X130623660Y-104834340D01*
X130540398Y-104732883D01*
X130511068Y-104697145D01*
X130427403Y-104540620D01*
X130375883Y-104370781D01*
X130358487Y-104194154D01*
X130375883Y-104017527D01*
X130427403Y-103847688D01*
X130511068Y-103691163D01*
X130543176Y-103652040D01*
X130623660Y-103553968D01*
X130725117Y-103470706D01*
X130760855Y-103441376D01*
X130917380Y-103357711D01*
X131087219Y-103306191D01*
X131159196Y-103299102D01*
X131219586Y-103293154D01*
X131308106Y-103293154D01*
X131368496Y-103299102D01*
X131368496Y-103299102D01*
G37*
G36*
X122295256Y-101261298D02*
G01*
X122401579Y-101282447D01*
X122702042Y-101406903D01*
X122972451Y-101587585D01*
X123202415Y-101817549D01*
X123383097Y-102087958D01*
X123507553Y-102388421D01*
X123528702Y-102494744D01*
X123571000Y-102707389D01*
X123571000Y-103032611D01*
X123528702Y-103245256D01*
X123507553Y-103351579D01*
X123383097Y-103652042D01*
X123202415Y-103922451D01*
X122972451Y-104152415D01*
X122702042Y-104333097D01*
X122401579Y-104457553D01*
X122295256Y-104478702D01*
X122082611Y-104521000D01*
X121757389Y-104521000D01*
X121544744Y-104478702D01*
X121438421Y-104457553D01*
X121137958Y-104333097D01*
X120867549Y-104152415D01*
X120637585Y-103922451D01*
X120456903Y-103652042D01*
X120332447Y-103351579D01*
X120311298Y-103245256D01*
X120269000Y-103032611D01*
X120269000Y-102707389D01*
X120311298Y-102494744D01*
X120332447Y-102388421D01*
X120456903Y-102087958D01*
X120637585Y-101817549D01*
X120867549Y-101587585D01*
X121137958Y-101406903D01*
X121438421Y-101282447D01*
X121544744Y-101261298D01*
X121757389Y-101219000D01*
X122082611Y-101219000D01*
X122295256Y-101261298D01*
X122295256Y-101261298D01*
G37*
G36*
X133164558Y-101503051D02*
G01*
X133236525Y-101510139D01*
X133406364Y-101561659D01*
X133562889Y-101645324D01*
X133598627Y-101674654D01*
X133700084Y-101757916D01*
X133749024Y-101817551D01*
X133812676Y-101895111D01*
X133896341Y-102051636D01*
X133947861Y-102221475D01*
X133965257Y-102398102D01*
X133947861Y-102574729D01*
X133896341Y-102744568D01*
X133812676Y-102901093D01*
X133783346Y-102936831D01*
X133700084Y-103038288D01*
X133598627Y-103121550D01*
X133562889Y-103150880D01*
X133406364Y-103234545D01*
X133236525Y-103286065D01*
X133170341Y-103292583D01*
X133104158Y-103299102D01*
X133015638Y-103299102D01*
X132949456Y-103292584D01*
X132883271Y-103286065D01*
X132713432Y-103234545D01*
X132556907Y-103150880D01*
X132521169Y-103121550D01*
X132419712Y-103038288D01*
X132336450Y-102936831D01*
X132307120Y-102901093D01*
X132223455Y-102744568D01*
X132171935Y-102574729D01*
X132154539Y-102398102D01*
X132171935Y-102221475D01*
X132223455Y-102051636D01*
X132307120Y-101895111D01*
X132370772Y-101817551D01*
X132419712Y-101757916D01*
X132521169Y-101674654D01*
X132556907Y-101645324D01*
X132713432Y-101561659D01*
X132883271Y-101510139D01*
X132955238Y-101503051D01*
X133015638Y-101497102D01*
X133104158Y-101497102D01*
X133164558Y-101503051D01*
X133164558Y-101503051D01*
G37*
G36*
X134966392Y-99707570D02*
G01*
X135032576Y-99714088D01*
X135202415Y-99765608D01*
X135202417Y-99765609D01*
X135280678Y-99807441D01*
X135358940Y-99849273D01*
X135394678Y-99878603D01*
X135496135Y-99961865D01*
X135579397Y-100063322D01*
X135608727Y-100099060D01*
X135692392Y-100255585D01*
X135743912Y-100425424D01*
X135761308Y-100602051D01*
X135743912Y-100778678D01*
X135692392Y-100948517D01*
X135608727Y-101105042D01*
X135579397Y-101140780D01*
X135496135Y-101242237D01*
X135394678Y-101325499D01*
X135358940Y-101354829D01*
X135202415Y-101438494D01*
X135032576Y-101490014D01*
X134966391Y-101496533D01*
X134900209Y-101503051D01*
X134811689Y-101503051D01*
X134745506Y-101496532D01*
X134679322Y-101490014D01*
X134509483Y-101438494D01*
X134352958Y-101354829D01*
X134317220Y-101325499D01*
X134215763Y-101242237D01*
X134132501Y-101140780D01*
X134103171Y-101105042D01*
X134019506Y-100948517D01*
X133967986Y-100778678D01*
X133950590Y-100602051D01*
X133967986Y-100425424D01*
X134019506Y-100255585D01*
X134103171Y-100099060D01*
X134132501Y-100063322D01*
X134215763Y-99961865D01*
X134317220Y-99878603D01*
X134352958Y-99849273D01*
X134431220Y-99807441D01*
X134509481Y-99765609D01*
X134509483Y-99765608D01*
X134679322Y-99714088D01*
X134745506Y-99707570D01*
X134811689Y-99701051D01*
X134900209Y-99701051D01*
X134966392Y-99707570D01*
X134966392Y-99707570D01*
G37*
G36*
X129862558Y-99217051D02*
G01*
X129934525Y-99224139D01*
X130104364Y-99275659D01*
X130260889Y-99359324D01*
X130296627Y-99388654D01*
X130398084Y-99471916D01*
X130481346Y-99573373D01*
X130510676Y-99609111D01*
X130594341Y-99765636D01*
X130645861Y-99935475D01*
X130663257Y-100112102D01*
X130645861Y-100288729D01*
X130594341Y-100458568D01*
X130510676Y-100615093D01*
X130481346Y-100650831D01*
X130398084Y-100752288D01*
X130296627Y-100835550D01*
X130260889Y-100864880D01*
X130260887Y-100864881D01*
X130104417Y-100948517D01*
X130104364Y-100948545D01*
X129934525Y-101000065D01*
X129868341Y-101006583D01*
X129802158Y-101013102D01*
X129713638Y-101013102D01*
X129647456Y-101006584D01*
X129581271Y-101000065D01*
X129411432Y-100948545D01*
X129411380Y-100948517D01*
X129254909Y-100864881D01*
X129254907Y-100864880D01*
X129219169Y-100835550D01*
X129117712Y-100752288D01*
X129034450Y-100650831D01*
X129005120Y-100615093D01*
X128921455Y-100458568D01*
X128869935Y-100288729D01*
X128852539Y-100112102D01*
X128869935Y-99935475D01*
X128921455Y-99765636D01*
X129005120Y-99609111D01*
X129034450Y-99573373D01*
X129117712Y-99471916D01*
X129219169Y-99388654D01*
X129254907Y-99359324D01*
X129411432Y-99275659D01*
X129581271Y-99224139D01*
X129653238Y-99217051D01*
X129713638Y-99211102D01*
X129802158Y-99211102D01*
X129862558Y-99217051D01*
X129862558Y-99217051D01*
G37*
G36*
X137926206Y-98806000D02*
G01*
X136652000Y-100080206D01*
X135377794Y-98806000D01*
X136652000Y-97531794D01*
X137926206Y-98806000D01*
X137926206Y-98806000D01*
G37*
G36*
X131664391Y-97421569D02*
G01*
X131730576Y-97428088D01*
X131900415Y-97479608D01*
X132056940Y-97563273D01*
X132092678Y-97592603D01*
X132194135Y-97675865D01*
X132277397Y-97777322D01*
X132306727Y-97813060D01*
X132390392Y-97969585D01*
X132441912Y-98139424D01*
X132459308Y-98316051D01*
X132441912Y-98492678D01*
X132390392Y-98662517D01*
X132306727Y-98819042D01*
X132277397Y-98854780D01*
X132194135Y-98956237D01*
X132092678Y-99039499D01*
X132056940Y-99068829D01*
X131900415Y-99152494D01*
X131730576Y-99204014D01*
X131664391Y-99210533D01*
X131598209Y-99217051D01*
X131509689Y-99217051D01*
X131443507Y-99210533D01*
X131377322Y-99204014D01*
X131207483Y-99152494D01*
X131050958Y-99068829D01*
X131015220Y-99039499D01*
X130913763Y-98956237D01*
X130830501Y-98854780D01*
X130801171Y-98819042D01*
X130717506Y-98662517D01*
X130665986Y-98492678D01*
X130648590Y-98316051D01*
X130665986Y-98139424D01*
X130717506Y-97969585D01*
X130801171Y-97813060D01*
X130830501Y-97777322D01*
X130913763Y-97675865D01*
X131015220Y-97592603D01*
X131050958Y-97563273D01*
X131207483Y-97479608D01*
X131377322Y-97428088D01*
X131443506Y-97421570D01*
X131509689Y-97415051D01*
X131598209Y-97415051D01*
X131664391Y-97421569D01*
X131664391Y-97421569D01*
G37*
G36*
X123565444Y-97179461D02*
G01*
X123625577Y-97191422D01*
X123663339Y-97207064D01*
X123738866Y-97238348D01*
X123840818Y-97306470D01*
X123927530Y-97393182D01*
X123995652Y-97495134D01*
X124023876Y-97563273D01*
X124042578Y-97608423D01*
X124066500Y-97728689D01*
X124066500Y-97851311D01*
X124042975Y-97969583D01*
X124042578Y-97971576D01*
X123995652Y-98084866D01*
X123927530Y-98186818D01*
X123840818Y-98273530D01*
X123738866Y-98341652D01*
X123663339Y-98372936D01*
X123625577Y-98388578D01*
X123565444Y-98400539D01*
X123505312Y-98412500D01*
X123382688Y-98412500D01*
X123322556Y-98400539D01*
X123262423Y-98388578D01*
X123224661Y-98372936D01*
X123149134Y-98341652D01*
X123047182Y-98273530D01*
X122960470Y-98186818D01*
X122892348Y-98084866D01*
X122845422Y-97971576D01*
X122845026Y-97969583D01*
X122821500Y-97851311D01*
X122821500Y-97728689D01*
X122845422Y-97608423D01*
X122864124Y-97563273D01*
X122892348Y-97495134D01*
X122960470Y-97393182D01*
X123047182Y-97306470D01*
X123149134Y-97238348D01*
X123224661Y-97207064D01*
X123262423Y-97191422D01*
X123322556Y-97179461D01*
X123382688Y-97167500D01*
X123505312Y-97167500D01*
X123565444Y-97179461D01*
X123565444Y-97179461D01*
G37*
G36*
X122041444Y-97179461D02*
G01*
X122101577Y-97191422D01*
X122139339Y-97207064D01*
X122214866Y-97238348D01*
X122316818Y-97306470D01*
X122403530Y-97393182D01*
X122471652Y-97495134D01*
X122499876Y-97563273D01*
X122518578Y-97608423D01*
X122542500Y-97728689D01*
X122542500Y-97851311D01*
X122518975Y-97969583D01*
X122518578Y-97971576D01*
X122471652Y-98084866D01*
X122403530Y-98186818D01*
X122316818Y-98273530D01*
X122214866Y-98341652D01*
X122139339Y-98372936D01*
X122101577Y-98388578D01*
X122041444Y-98400539D01*
X121981312Y-98412500D01*
X121858688Y-98412500D01*
X121798556Y-98400539D01*
X121738423Y-98388578D01*
X121700661Y-98372936D01*
X121625134Y-98341652D01*
X121523182Y-98273530D01*
X121436470Y-98186818D01*
X121368348Y-98084866D01*
X121321422Y-97971576D01*
X121321026Y-97969583D01*
X121297500Y-97851311D01*
X121297500Y-97728689D01*
X121321422Y-97608423D01*
X121340124Y-97563273D01*
X121368348Y-97495134D01*
X121436470Y-97393182D01*
X121523182Y-97306470D01*
X121625134Y-97238348D01*
X121700661Y-97207064D01*
X121738423Y-97191422D01*
X121798556Y-97179461D01*
X121858688Y-97167500D01*
X121981312Y-97167500D01*
X122041444Y-97179461D01*
X122041444Y-97179461D01*
G37*
G36*
X120517444Y-97179461D02*
G01*
X120577577Y-97191422D01*
X120615339Y-97207064D01*
X120690866Y-97238348D01*
X120792818Y-97306470D01*
X120879530Y-97393182D01*
X120947652Y-97495134D01*
X120975876Y-97563273D01*
X120994578Y-97608423D01*
X121018500Y-97728689D01*
X121018500Y-97851311D01*
X120994975Y-97969583D01*
X120994578Y-97971576D01*
X120947652Y-98084866D01*
X120879530Y-98186818D01*
X120792818Y-98273530D01*
X120690866Y-98341652D01*
X120615339Y-98372936D01*
X120577577Y-98388578D01*
X120517444Y-98400539D01*
X120457312Y-98412500D01*
X120334688Y-98412500D01*
X120274556Y-98400539D01*
X120214423Y-98388578D01*
X120176661Y-98372936D01*
X120101134Y-98341652D01*
X119999182Y-98273530D01*
X119912470Y-98186818D01*
X119844348Y-98084866D01*
X119797422Y-97971576D01*
X119797026Y-97969583D01*
X119773500Y-97851311D01*
X119773500Y-97728689D01*
X119797422Y-97608423D01*
X119816124Y-97563273D01*
X119844348Y-97495134D01*
X119912470Y-97393182D01*
X119999182Y-97306470D01*
X120101134Y-97238348D01*
X120176661Y-97207064D01*
X120214423Y-97191422D01*
X120274556Y-97179461D01*
X120334688Y-97167500D01*
X120457312Y-97167500D01*
X120517444Y-97179461D01*
X120517444Y-97179461D01*
G37*
G36*
X134624206Y-96520000D02*
G01*
X133350000Y-97794206D01*
X132075794Y-96520000D01*
X133350000Y-95245794D01*
X134624206Y-96520000D01*
X134624206Y-96520000D01*
G37*
G36*
X116379049Y-95835066D02*
G01*
X116439182Y-95847027D01*
X116476944Y-95862669D01*
X116552471Y-95893953D01*
X116654423Y-95962075D01*
X116741135Y-96048787D01*
X116809257Y-96150739D01*
X116856183Y-96264029D01*
X116880105Y-96384293D01*
X116880105Y-96506917D01*
X116856183Y-96627181D01*
X116809257Y-96740471D01*
X116741135Y-96842423D01*
X116654423Y-96929135D01*
X116552471Y-96997257D01*
X116476944Y-97028541D01*
X116439182Y-97044183D01*
X116379049Y-97056144D01*
X116318917Y-97068105D01*
X116196293Y-97068105D01*
X116136161Y-97056144D01*
X116076028Y-97044183D01*
X116038266Y-97028541D01*
X115962739Y-96997257D01*
X115860787Y-96929135D01*
X115774075Y-96842423D01*
X115705953Y-96740471D01*
X115659027Y-96627181D01*
X115635105Y-96506917D01*
X115635105Y-96384293D01*
X115659027Y-96264029D01*
X115705953Y-96150739D01*
X115774075Y-96048787D01*
X115860787Y-95962075D01*
X115962739Y-95893953D01*
X116038266Y-95862669D01*
X116076028Y-95847027D01*
X116136161Y-95835066D01*
X116196293Y-95823105D01*
X116318917Y-95823105D01*
X116379049Y-95835066D01*
X116379049Y-95835066D01*
G37*
G36*
X127939788Y-95599117D02*
G01*
X127999921Y-95611078D01*
X128037683Y-95626720D01*
X128113210Y-95658004D01*
X128215162Y-95726126D01*
X128301874Y-95812838D01*
X128369996Y-95914790D01*
X128416922Y-96028080D01*
X128440844Y-96148344D01*
X128440844Y-96270968D01*
X128416922Y-96391232D01*
X128369996Y-96504522D01*
X128301874Y-96606474D01*
X128215162Y-96693186D01*
X128113210Y-96761308D01*
X128037683Y-96792592D01*
X127999921Y-96808234D01*
X127939788Y-96820195D01*
X127879656Y-96832156D01*
X127757032Y-96832156D01*
X127696900Y-96820195D01*
X127636767Y-96808234D01*
X127599005Y-96792592D01*
X127523478Y-96761308D01*
X127421526Y-96693186D01*
X127334814Y-96606474D01*
X127266692Y-96504522D01*
X127219766Y-96391232D01*
X127195844Y-96270968D01*
X127195844Y-96148344D01*
X127219766Y-96028080D01*
X127266692Y-95914790D01*
X127334814Y-95812838D01*
X127421526Y-95726126D01*
X127523478Y-95658004D01*
X127599005Y-95626720D01*
X127636767Y-95611078D01*
X127696900Y-95599117D01*
X127757032Y-95587156D01*
X127879656Y-95587156D01*
X127939788Y-95599117D01*
X127939788Y-95599117D01*
G37*
G36*
X115301418Y-94757435D02*
G01*
X115361551Y-94769396D01*
X115399313Y-94785038D01*
X115474840Y-94816322D01*
X115576792Y-94884444D01*
X115663504Y-94971156D01*
X115731626Y-95073108D01*
X115762910Y-95148635D01*
X115778552Y-95186397D01*
X115790367Y-95245794D01*
X115802474Y-95306662D01*
X115802474Y-95429286D01*
X115778552Y-95549550D01*
X115731626Y-95662840D01*
X115663504Y-95764792D01*
X115576792Y-95851504D01*
X115474840Y-95919626D01*
X115399313Y-95950910D01*
X115361551Y-95966552D01*
X115301418Y-95978513D01*
X115241286Y-95990474D01*
X115118662Y-95990474D01*
X115058530Y-95978513D01*
X114998397Y-95966552D01*
X114960635Y-95950910D01*
X114885108Y-95919626D01*
X114783156Y-95851504D01*
X114696444Y-95764792D01*
X114628322Y-95662840D01*
X114581396Y-95549550D01*
X114557474Y-95429286D01*
X114557474Y-95306662D01*
X114569581Y-95245794D01*
X114581396Y-95186397D01*
X114597038Y-95148635D01*
X114628322Y-95073108D01*
X114696444Y-94971156D01*
X114783156Y-94884444D01*
X114885108Y-94816322D01*
X114960635Y-94785038D01*
X114998397Y-94769396D01*
X115058530Y-94757435D01*
X115118662Y-94745474D01*
X115241286Y-94745474D01*
X115301418Y-94757435D01*
X115301418Y-94757435D01*
G37*
G36*
X129017418Y-94521487D02*
G01*
X129077551Y-94533448D01*
X129115313Y-94549090D01*
X129190840Y-94580374D01*
X129292792Y-94648496D01*
X129379504Y-94735208D01*
X129447626Y-94837160D01*
X129467213Y-94884447D01*
X129494552Y-94950449D01*
X129518474Y-95070715D01*
X129518474Y-95193337D01*
X129495933Y-95306662D01*
X129494552Y-95313602D01*
X129447626Y-95426892D01*
X129379504Y-95528844D01*
X129292792Y-95615556D01*
X129190840Y-95683678D01*
X129115313Y-95714962D01*
X129077551Y-95730604D01*
X129017418Y-95742565D01*
X128957286Y-95754526D01*
X128834662Y-95754526D01*
X128774530Y-95742565D01*
X128714397Y-95730604D01*
X128676635Y-95714962D01*
X128601108Y-95683678D01*
X128499156Y-95615556D01*
X128412444Y-95528844D01*
X128344322Y-95426892D01*
X128297396Y-95313602D01*
X128296016Y-95306662D01*
X128273474Y-95193337D01*
X128273474Y-95070715D01*
X128297396Y-94950449D01*
X128324735Y-94884447D01*
X128344322Y-94837160D01*
X128412444Y-94735208D01*
X128499156Y-94648496D01*
X128601108Y-94580374D01*
X128676635Y-94549090D01*
X128714397Y-94533448D01*
X128774530Y-94521487D01*
X128834662Y-94509526D01*
X128957286Y-94509526D01*
X129017418Y-94521487D01*
X129017418Y-94521487D01*
G37*
G36*
X114223788Y-93679805D02*
G01*
X114283921Y-93691766D01*
X114321683Y-93707408D01*
X114397210Y-93738692D01*
X114499162Y-93806814D01*
X114585874Y-93893526D01*
X114653996Y-93995478D01*
X114700922Y-94108768D01*
X114724844Y-94229032D01*
X114724844Y-94351656D01*
X114700922Y-94471920D01*
X114653996Y-94585210D01*
X114585874Y-94687162D01*
X114499162Y-94773874D01*
X114397210Y-94841996D01*
X114321683Y-94873280D01*
X114283921Y-94888922D01*
X114223788Y-94900883D01*
X114163656Y-94912844D01*
X114041032Y-94912844D01*
X113980900Y-94900883D01*
X113920767Y-94888922D01*
X113883005Y-94873280D01*
X113807478Y-94841996D01*
X113705526Y-94773874D01*
X113618814Y-94687162D01*
X113550692Y-94585210D01*
X113503766Y-94471920D01*
X113479844Y-94351656D01*
X113479844Y-94229032D01*
X113503766Y-94108768D01*
X113550692Y-93995478D01*
X113618814Y-93893526D01*
X113705526Y-93806814D01*
X113807478Y-93738692D01*
X113883005Y-93707408D01*
X113920767Y-93691766D01*
X113980900Y-93679805D01*
X114041032Y-93667844D01*
X114163656Y-93667844D01*
X114223788Y-93679805D01*
X114223788Y-93679805D01*
G37*
G36*
X130095049Y-93443856D02*
G01*
X130155182Y-93455817D01*
X130192944Y-93471459D01*
X130268471Y-93502743D01*
X130370423Y-93570865D01*
X130457135Y-93657577D01*
X130525257Y-93759529D01*
X130572183Y-93872819D01*
X130596105Y-93993083D01*
X130596105Y-94115707D01*
X130572183Y-94235971D01*
X130525257Y-94349261D01*
X130457135Y-94451213D01*
X130370423Y-94537925D01*
X130268471Y-94606047D01*
X130192944Y-94637331D01*
X130155182Y-94652973D01*
X130095049Y-94664934D01*
X130034917Y-94676895D01*
X129912293Y-94676895D01*
X129852161Y-94664934D01*
X129792028Y-94652973D01*
X129754266Y-94637331D01*
X129678739Y-94606047D01*
X129576787Y-94537925D01*
X129490075Y-94451213D01*
X129421953Y-94349261D01*
X129375027Y-94235971D01*
X129351105Y-94115707D01*
X129351105Y-93993083D01*
X129375027Y-93872819D01*
X129421953Y-93759529D01*
X129490075Y-93657577D01*
X129576787Y-93570865D01*
X129678739Y-93502743D01*
X129754266Y-93471459D01*
X129792028Y-93455817D01*
X129852161Y-93443856D01*
X129912293Y-93431895D01*
X130034917Y-93431895D01*
X130095049Y-93443856D01*
X130095049Y-93443856D01*
G37*
G36*
X112897444Y-89813461D02*
G01*
X112957577Y-89825422D01*
X112995339Y-89841064D01*
X113070866Y-89872348D01*
X113172818Y-89940470D01*
X113259530Y-90027182D01*
X113327652Y-90129134D01*
X113374578Y-90242424D01*
X113398500Y-90362688D01*
X113398500Y-90485312D01*
X113374578Y-90605576D01*
X113327652Y-90718866D01*
X113259530Y-90820818D01*
X113172818Y-90907530D01*
X113070866Y-90975652D01*
X112995339Y-91006936D01*
X112957577Y-91022578D01*
X112897444Y-91034539D01*
X112837312Y-91046500D01*
X112714688Y-91046500D01*
X112654556Y-91034539D01*
X112594423Y-91022578D01*
X112556661Y-91006936D01*
X112481134Y-90975652D01*
X112379182Y-90907530D01*
X112292470Y-90820818D01*
X112224348Y-90718866D01*
X112177422Y-90605576D01*
X112153500Y-90485312D01*
X112153500Y-90362688D01*
X112177422Y-90242424D01*
X112224348Y-90129134D01*
X112292470Y-90027182D01*
X112379182Y-89940470D01*
X112481134Y-89872348D01*
X112556661Y-89841064D01*
X112594423Y-89825422D01*
X112654556Y-89813461D01*
X112714688Y-89801500D01*
X112837312Y-89801500D01*
X112897444Y-89813461D01*
X112897444Y-89813461D01*
G37*
G36*
X131439444Y-89813461D02*
G01*
X131499577Y-89825422D01*
X131537339Y-89841064D01*
X131612866Y-89872348D01*
X131714818Y-89940470D01*
X131801530Y-90027182D01*
X131869652Y-90129134D01*
X131916578Y-90242424D01*
X131940500Y-90362688D01*
X131940500Y-90485312D01*
X131916578Y-90605576D01*
X131869652Y-90718866D01*
X131801530Y-90820818D01*
X131714818Y-90907530D01*
X131612866Y-90975652D01*
X131537339Y-91006936D01*
X131499577Y-91022578D01*
X131439444Y-91034539D01*
X131379312Y-91046500D01*
X131256688Y-91046500D01*
X131196556Y-91034539D01*
X131136423Y-91022578D01*
X131098661Y-91006936D01*
X131023134Y-90975652D01*
X130921182Y-90907530D01*
X130834470Y-90820818D01*
X130766348Y-90718866D01*
X130719422Y-90605576D01*
X130695500Y-90485312D01*
X130695500Y-90362688D01*
X130719422Y-90242424D01*
X130766348Y-90129134D01*
X130834470Y-90027182D01*
X130921182Y-89940470D01*
X131023134Y-89872348D01*
X131098661Y-89841064D01*
X131136423Y-89825422D01*
X131196556Y-89813461D01*
X131256688Y-89801500D01*
X131379312Y-89801500D01*
X131439444Y-89813461D01*
X131439444Y-89813461D01*
G37*
G36*
X112897444Y-88289461D02*
G01*
X112957577Y-88301422D01*
X112995339Y-88317064D01*
X113070866Y-88348348D01*
X113172818Y-88416470D01*
X113259530Y-88503182D01*
X113327652Y-88605134D01*
X113358936Y-88680661D01*
X113374578Y-88718423D01*
X113398500Y-88838689D01*
X113398500Y-88961311D01*
X113374578Y-89081577D01*
X113358936Y-89119339D01*
X113327652Y-89194866D01*
X113259530Y-89296818D01*
X113172818Y-89383530D01*
X113070866Y-89451652D01*
X112995339Y-89482936D01*
X112957577Y-89498578D01*
X112897444Y-89510539D01*
X112837312Y-89522500D01*
X112714688Y-89522500D01*
X112654556Y-89510539D01*
X112594423Y-89498578D01*
X112556661Y-89482936D01*
X112481134Y-89451652D01*
X112379182Y-89383530D01*
X112292470Y-89296818D01*
X112224348Y-89194866D01*
X112193064Y-89119339D01*
X112177422Y-89081577D01*
X112153500Y-88961311D01*
X112153500Y-88838689D01*
X112177422Y-88718423D01*
X112193064Y-88680661D01*
X112224348Y-88605134D01*
X112292470Y-88503182D01*
X112379182Y-88416470D01*
X112481134Y-88348348D01*
X112556661Y-88317064D01*
X112594423Y-88301422D01*
X112654556Y-88289461D01*
X112714688Y-88277500D01*
X112837312Y-88277500D01*
X112897444Y-88289461D01*
X112897444Y-88289461D01*
G37*
G36*
X131439444Y-88289461D02*
G01*
X131499577Y-88301422D01*
X131537339Y-88317064D01*
X131612866Y-88348348D01*
X131714818Y-88416470D01*
X131801530Y-88503182D01*
X131869652Y-88605134D01*
X131900936Y-88680661D01*
X131916578Y-88718423D01*
X131940500Y-88838689D01*
X131940500Y-88961311D01*
X131916578Y-89081577D01*
X131900936Y-89119339D01*
X131869652Y-89194866D01*
X131801530Y-89296818D01*
X131714818Y-89383530D01*
X131612866Y-89451652D01*
X131537339Y-89482936D01*
X131499577Y-89498578D01*
X131439444Y-89510539D01*
X131379312Y-89522500D01*
X131256688Y-89522500D01*
X131196556Y-89510539D01*
X131136423Y-89498578D01*
X131098661Y-89482936D01*
X131023134Y-89451652D01*
X130921182Y-89383530D01*
X130834470Y-89296818D01*
X130766348Y-89194866D01*
X130735064Y-89119339D01*
X130719422Y-89081577D01*
X130695500Y-88961311D01*
X130695500Y-88838689D01*
X130719422Y-88718423D01*
X130735064Y-88680661D01*
X130766348Y-88605134D01*
X130834470Y-88503182D01*
X130921182Y-88416470D01*
X131023134Y-88348348D01*
X131098661Y-88317064D01*
X131136423Y-88301422D01*
X131196556Y-88289461D01*
X131256688Y-88277500D01*
X131379312Y-88277500D01*
X131439444Y-88289461D01*
X131439444Y-88289461D01*
G37*
G36*
X137535256Y-86021298D02*
G01*
X137641579Y-86042447D01*
X137942042Y-86166903D01*
X138212451Y-86347585D01*
X138442415Y-86577549D01*
X138442416Y-86577551D01*
X138623098Y-86847960D01*
X138641536Y-86892473D01*
X138747553Y-87148421D01*
X138811000Y-87467391D01*
X138811000Y-87792609D01*
X138747553Y-88111579D01*
X138623097Y-88412042D01*
X138442415Y-88682451D01*
X138212451Y-88912415D01*
X137942042Y-89093097D01*
X137641579Y-89217553D01*
X137535256Y-89238702D01*
X137322611Y-89281000D01*
X136997389Y-89281000D01*
X136784744Y-89238702D01*
X136678421Y-89217553D01*
X136377958Y-89093097D01*
X136107549Y-88912415D01*
X135877585Y-88682451D01*
X135696903Y-88412042D01*
X135572447Y-88111579D01*
X135509000Y-87792609D01*
X135509000Y-87467391D01*
X135572447Y-87148421D01*
X135678464Y-86892473D01*
X135696902Y-86847960D01*
X135877584Y-86577551D01*
X135877585Y-86577549D01*
X136107549Y-86347585D01*
X136377958Y-86166903D01*
X136678421Y-86042447D01*
X136784744Y-86021298D01*
X136997389Y-85979000D01*
X137322611Y-85979000D01*
X137535256Y-86021298D01*
X137535256Y-86021298D01*
G37*
G36*
X107055256Y-86021298D02*
G01*
X107161579Y-86042447D01*
X107462042Y-86166903D01*
X107732451Y-86347585D01*
X107962415Y-86577549D01*
X107962416Y-86577551D01*
X108143098Y-86847960D01*
X108161536Y-86892473D01*
X108267553Y-87148421D01*
X108331000Y-87467391D01*
X108331000Y-87792609D01*
X108267553Y-88111579D01*
X108143097Y-88412042D01*
X107962415Y-88682451D01*
X107732451Y-88912415D01*
X107462042Y-89093097D01*
X107161579Y-89217553D01*
X107055256Y-89238702D01*
X106842611Y-89281000D01*
X106517389Y-89281000D01*
X106304744Y-89238702D01*
X106198421Y-89217553D01*
X105897958Y-89093097D01*
X105627549Y-88912415D01*
X105397585Y-88682451D01*
X105216903Y-88412042D01*
X105092447Y-88111579D01*
X105029000Y-87792609D01*
X105029000Y-87467391D01*
X105092447Y-87148421D01*
X105198464Y-86892473D01*
X105216902Y-86847960D01*
X105397584Y-86577551D01*
X105397585Y-86577549D01*
X105627549Y-86347585D01*
X105897958Y-86166903D01*
X106198421Y-86042447D01*
X106304744Y-86021298D01*
X106517389Y-85979000D01*
X106842611Y-85979000D01*
X107055256Y-86021298D01*
X107055256Y-86021298D01*
G37*
G36*
X112897444Y-86765461D02*
G01*
X112957577Y-86777422D01*
X112995339Y-86793064D01*
X113070866Y-86824348D01*
X113172818Y-86892470D01*
X113259530Y-86979182D01*
X113327652Y-87081134D01*
X113374578Y-87194424D01*
X113398500Y-87314688D01*
X113398500Y-87437312D01*
X113374578Y-87557576D01*
X113327652Y-87670866D01*
X113259530Y-87772818D01*
X113172818Y-87859530D01*
X113070866Y-87927652D01*
X112995339Y-87958936D01*
X112957577Y-87974578D01*
X112897444Y-87986539D01*
X112837312Y-87998500D01*
X112714688Y-87998500D01*
X112654556Y-87986539D01*
X112594423Y-87974578D01*
X112556661Y-87958936D01*
X112481134Y-87927652D01*
X112379182Y-87859530D01*
X112292470Y-87772818D01*
X112224348Y-87670866D01*
X112177422Y-87557576D01*
X112153500Y-87437312D01*
X112153500Y-87314688D01*
X112177422Y-87194424D01*
X112224348Y-87081134D01*
X112292470Y-86979182D01*
X112379182Y-86892470D01*
X112481134Y-86824348D01*
X112556661Y-86793064D01*
X112594423Y-86777422D01*
X112654556Y-86765461D01*
X112714688Y-86753500D01*
X112837312Y-86753500D01*
X112897444Y-86765461D01*
X112897444Y-86765461D01*
G37*
G36*
X131439444Y-86765461D02*
G01*
X131499577Y-86777422D01*
X131537339Y-86793064D01*
X131612866Y-86824348D01*
X131714818Y-86892470D01*
X131801530Y-86979182D01*
X131869652Y-87081134D01*
X131916578Y-87194424D01*
X131940500Y-87314688D01*
X131940500Y-87437312D01*
X131916578Y-87557576D01*
X131869652Y-87670866D01*
X131801530Y-87772818D01*
X131714818Y-87859530D01*
X131612866Y-87927652D01*
X131537339Y-87958936D01*
X131499577Y-87974578D01*
X131439444Y-87986539D01*
X131379312Y-87998500D01*
X131256688Y-87998500D01*
X131196556Y-87986539D01*
X131136423Y-87974578D01*
X131098661Y-87958936D01*
X131023134Y-87927652D01*
X130921182Y-87859530D01*
X130834470Y-87772818D01*
X130766348Y-87670866D01*
X130719422Y-87557576D01*
X130695500Y-87437312D01*
X130695500Y-87314688D01*
X130719422Y-87194424D01*
X130766348Y-87081134D01*
X130834470Y-86979182D01*
X130921182Y-86892470D01*
X131023134Y-86824348D01*
X131098661Y-86793064D01*
X131136423Y-86777422D01*
X131196556Y-86765461D01*
X131256688Y-86753500D01*
X131379312Y-86753500D01*
X131439444Y-86765461D01*
X131439444Y-86765461D01*
G37*
M02*
