M48
; DRILL file {KiCad (6.0.0)} date Sun Jul 24 20:55:31 2022
; FORMAT={-:-/ absolute / inch / decimal}
; #@! TF.CreationDate,2022-07-24T20:55:31-05:00
; #@! TF.GenerationSoftware,Kicad,Pcbnew,(6.0.0)
; #@! TF.FileFunction,Plated,1,2,PTH
FMAT,2
INCH
; #@! TA.AperFunction,Plated,PTH,ViaDrill
T1C0.0157
; #@! TA.AperFunction,Plated,PTH,ComponentDrill
T2C0.0157
; #@! TA.AperFunction,Plated,PTH,ComponentDrill
T3C0.0197
; #@! TA.AperFunction,Plated,PTH,ComponentDrill
T4C0.0299
; #@! TA.AperFunction,Plated,PTH,ComponentDrill
T5C0.0315
; #@! TA.AperFunction,Plated,PTH,ComponentDrill
T6C0.0374
; #@! TA.AperFunction,Plated,PTH,ComponentDrill
T7C0.0394
; #@! TA.AperFunction,Plated,PTH,ComponentDrill
T8C0.0420
; #@! TA.AperFunction,Plated,PTH,ComponentDrill
T9C0.0598
%
G90
G05
T1
X5.6981Y-2.4421
X5.8071Y-2.7555
X6.1894Y-2.7201
X6.1949Y-2.8244
X6.2016Y-2.8752
X6.2062Y-2.9278
X6.3287Y-2.3986
X6.8091Y-2.0699
X6.9799Y-2.5823
X6.9933Y-3.1504
X6.9961Y-2.2126
X7.0276Y-2.8268
X7.0449Y-3.0079
X7.0543Y-1.9953
X7.0925Y-2.7204
X7.1102Y-2.6636
X7.2539Y-2.5935
X7.2886Y-3.226
X7.3937Y-2.5994
X7.5197Y-2.7844
X7.5207Y-2.9252
X7.602Y-2.8878
X7.6093Y-2.4124
X7.6102Y-2.6063
X7.6791Y-2.1409
X7.8484Y-3.0778
T2
X7.2574Y-2.7963
X7.2812Y-2.7485
X7.2812Y-2.844
X7.3051Y-2.7963
X7.329Y-2.7485
X7.329Y-2.844
X7.3529Y-2.7963
T4
X5.8178Y-3.1252
X5.8579Y-3.1953
X5.8977Y-3.1252
X5.9378Y-3.1953
X5.9776Y-3.1252
X6.0178Y-3.1953
X6.0575Y-3.1252
X6.0977Y-3.1953
T5
X6.0472Y-2.4665
X6.185Y-2.4665
T6
X6.5673Y-2.2827
X6.5673Y-2.3827
X6.5673Y-2.4827
T7
X5.3236Y-2.678
X5.4236Y-2.678
X5.5236Y-2.678
X5.6236Y-2.678
X6.5386Y-2.9951
X6.5386Y-3.0951
X6.5386Y-3.1951
X6.5386Y-3.2951
X6.5386Y-3.3951
X6.5386Y-3.4951
X6.5402Y-2.7744
X6.6386Y-2.9951
X6.6386Y-3.0951
X6.6386Y-3.1951
X6.6386Y-3.2951
X6.6386Y-3.3951
X6.6386Y-3.4951
X6.6402Y-2.7744
X6.8917Y-2.2559
X6.8917Y-2.3559
X6.8917Y-2.4559
X6.8917Y-2.5559
X6.8917Y-2.6559
X6.8917Y-2.7559
X6.8917Y-2.8559
X6.8917Y-2.9559
X6.8917Y-3.0559
X6.8917Y-3.1559
X6.8917Y-3.2559
X7.6988Y-2.2559
X7.6988Y-2.3559
X7.6988Y-2.4559
X7.6988Y-2.5559
X7.6988Y-2.6559
X7.6988Y-2.7559
X7.6988Y-2.8559
X7.6988Y-2.9559
X7.6988Y-3.0559
X7.6988Y-3.1559
X7.6988Y-3.2559
T8
X7.2953Y-1.8858
X7.4953Y-1.8858
T9
X5.8622Y-1.8937
X6.0622Y-1.8937
X6.2622Y-1.8937
T3
G00X5.6379Y-3.2027
M15
G01X5.6379Y-3.1594
M16
G05
G00X6.278Y-3.2027
M15
G01X6.278Y-3.1594
M16
G05
T0
M30
