G04 #@! TF.GenerationSoftware,KiCad,Pcbnew,(6.0.0)*
G04 #@! TF.CreationDate,2022-07-24T20:55:29-05:00*
G04 #@! TF.ProjectId,SimpleBuildSoundsAmp,53696d70-6c65-4427-9569-6c64536f756e,rev?*
G04 #@! TF.SameCoordinates,Original*
G04 #@! TF.FileFunction,Soldermask,Bot*
G04 #@! TF.FilePolarity,Negative*
%FSLAX46Y46*%
G04 Gerber Fmt 4.6, Leading zero omitted, Abs format (unit mm)*
G04 Created by KiCad (PCBNEW (6.0.0)) date 2022-07-24 20:55:29*
%MOMM*%
%LPD*%
G01*
G04 APERTURE LIST*
G04 Aperture macros list*
%AMRoundRect*
0 Rectangle with rounded corners*
0 $1 Rounding radius*
0 $2 $3 $4 $5 $6 $7 $8 $9 X,Y pos of 4 corners*
0 Add a 4 corners polygon primitive as box body*
4,1,4,$2,$3,$4,$5,$6,$7,$8,$9,$2,$3,0*
0 Add four circle primitives for the rounded corners*
1,1,$1+$1,$2,$3*
1,1,$1+$1,$4,$5*
1,1,$1+$1,$6,$7*
1,1,$1+$1,$8,$9*
0 Add four rect primitives between the rounded corners*
20,1,$1+$1,$2,$3,$4,$5,0*
20,1,$1+$1,$4,$5,$6,$7,0*
20,1,$1+$1,$6,$7,$8,$9,0*
20,1,$1+$1,$8,$9,$2,$3,0*%
%AMHorizOval*
0 Thick line with rounded ends*
0 $1 width*
0 $2 $3 position (X,Y) of the first rounded end (center of the circle)*
0 $4 $5 position (X,Y) of the second rounded end (center of the circle)*
0 Add line between two ends*
20,1,$1,$2,$3,$4,$5,0*
0 Add two circle primitives to create the rounded ends*
1,1,$1,$2,$3*
1,1,$1,$4,$5*%
G04 Aperture macros list end*
%ADD10RoundRect,0.051000X-0.850000X0.850000X-0.850000X-0.850000X0.850000X-0.850000X0.850000X0.850000X0*%
%ADD11O,1.802000X1.802000*%
%ADD12RoundRect,0.051000X-0.800000X-0.800000X0.800000X-0.800000X0.800000X0.800000X-0.800000X0.800000X0*%
%ADD13C,1.702000*%
%ADD14HorizOval,2.602000X0.000000X0.000000X0.000000X0.000000X0*%
%ADD15RoundRect,0.051000X0.850000X-0.850000X0.850000X0.850000X-0.850000X0.850000X-0.850000X-0.850000X0*%
%ADD16C,3.352000*%
%ADD17RoundRect,0.051000X-0.750000X-0.750000X0.750000X-0.750000X0.750000X0.750000X-0.750000X0.750000X0*%
%ADD18C,1.602000*%
%ADD19O,1.361000X2.464000*%
%ADD20RoundRect,0.051000X-1.143000X-1.143000X1.143000X-1.143000X1.143000X1.143000X-1.143000X1.143000X0*%
%ADD21C,2.388000*%
%ADD22C,2.602000*%
%ADD23RoundRect,0.051000X-0.850000X-0.850000X0.850000X-0.850000X0.850000X0.850000X-0.850000X0.850000X0*%
%ADD24RoundRect,0.051000X-1.500000X-1.500000X1.500000X-1.500000X1.500000X1.500000X-1.500000X1.500000X0*%
%ADD25C,3.102000*%
%ADD26RoundRect,0.301000X0.325000X0.450000X-0.325000X0.450000X-0.325000X-0.450000X0.325000X-0.450000X0*%
%ADD27RoundRect,0.301000X-0.450000X0.325000X-0.450000X-0.325000X0.450000X-0.325000X0.450000X0.325000X0*%
%ADD28RoundRect,0.301000X-0.325000X-0.450000X0.325000X-0.450000X0.325000X0.450000X-0.325000X0.450000X0*%
%ADD29RoundRect,0.051000X1.100000X0.600000X-1.100000X0.600000X-1.100000X-0.600000X1.100000X-0.600000X0*%
%ADD30RoundRect,0.051000X3.200000X2.900000X-3.200000X2.900000X-3.200000X-2.900000X3.200000X-2.900000X0*%
%ADD31RoundRect,0.301000X0.450000X-0.325000X0.450000X0.325000X-0.450000X0.325000X-0.450000X-0.325000X0*%
%ADD32RoundRect,0.051000X-0.482600X0.127000X-0.482600X-0.127000X0.482600X-0.127000X0.482600X0.127000X0*%
%ADD33RoundRect,0.051000X-0.127000X-0.482600X0.127000X-0.482600X0.127000X0.482600X-0.127000X0.482600X0*%
%ADD34C,0.902000*%
%ADD35RoundRect,0.051000X-2.425700X-2.425700X2.425700X-2.425700X2.425700X2.425700X-2.425700X2.425700X0*%
%ADD36RoundRect,0.051000X-0.530000X-0.325000X0.530000X-0.325000X0.530000X0.325000X-0.530000X0.325000X0*%
G04 APERTURE END LIST*
D10*
X168660000Y-70470000D03*
D11*
X166120000Y-70470000D03*
D12*
X153600000Y-62650000D03*
D13*
X157100000Y-62650000D03*
D14*
X138991900Y-56061000D03*
D15*
X135220000Y-68020000D03*
D11*
X137760000Y-68020000D03*
X140300000Y-68020000D03*
X142840000Y-68020000D03*
D16*
X144981680Y-83700820D03*
X157681680Y-83700820D03*
D17*
X154880980Y-81160820D03*
D18*
X153860980Y-79380820D03*
X152850980Y-81160820D03*
X151830980Y-79380820D03*
X150820980Y-81160820D03*
X149800980Y-79380820D03*
X148790980Y-81160820D03*
X147770980Y-79380820D03*
D19*
X143201680Y-80798870D03*
X159461680Y-80798870D03*
D20*
X185300000Y-47900000D03*
D21*
X190380000Y-47900000D03*
D22*
X138684000Y-47412000D03*
X198120000Y-47412000D03*
X138684000Y-86972500D03*
X198120000Y-86972500D03*
D23*
X175050000Y-57300000D03*
D11*
X195550000Y-57300000D03*
X175050000Y-59840000D03*
X195550000Y-59840000D03*
X175050000Y-62380000D03*
X195550000Y-62380000D03*
X175050000Y-64920000D03*
X195550000Y-64920000D03*
X175050000Y-67460000D03*
X195550000Y-67460000D03*
X175050000Y-70000000D03*
X195550000Y-70000000D03*
X175050000Y-72540000D03*
X195550000Y-72540000D03*
X175050000Y-75080000D03*
X195550000Y-75080000D03*
X175050000Y-77620000D03*
X195550000Y-77620000D03*
X175050000Y-80160000D03*
X195550000Y-80160000D03*
X175050000Y-82700000D03*
X195550000Y-82700000D03*
D24*
X148900000Y-48100000D03*
D25*
X153980000Y-48100000D03*
X159060000Y-48100000D03*
D10*
X166810000Y-57980000D03*
D11*
X166810000Y-60520000D03*
X166810000Y-63060000D03*
D23*
X168620000Y-76075000D03*
D11*
X166080000Y-76075000D03*
X168620000Y-78615000D03*
X166080000Y-78615000D03*
X168620000Y-81155000D03*
X166080000Y-81155000D03*
X168620000Y-83695000D03*
X166080000Y-83695000D03*
X168620000Y-86235000D03*
X166080000Y-86235000D03*
X168620000Y-88775000D03*
X166080000Y-88775000D03*
D26*
X182400000Y-55875000D03*
X180350000Y-55875000D03*
D27*
X161975000Y-50500000D03*
X161975000Y-52550000D03*
X166700000Y-50475000D03*
X166700000Y-52525000D03*
X170450000Y-50525000D03*
X170450000Y-52575000D03*
X175625000Y-50650000D03*
X175625000Y-52700000D03*
X199225000Y-67100000D03*
X199225000Y-69150000D03*
D28*
X180350000Y-78625000D03*
X182400000Y-78625000D03*
X188200000Y-78200000D03*
X190250000Y-78200000D03*
X180250000Y-84800000D03*
X182300000Y-84800000D03*
X188100000Y-84600000D03*
X190150000Y-84600000D03*
X188100000Y-81600000D03*
X190150000Y-81600000D03*
D29*
X155950000Y-51320000D03*
X155950000Y-55880000D03*
D30*
X149650000Y-53600000D03*
D26*
X190200000Y-60250000D03*
X188150000Y-60250000D03*
X182675000Y-63650000D03*
X180625000Y-63650000D03*
D28*
X188050000Y-63750000D03*
X190100000Y-63750000D03*
D27*
X178800000Y-72975000D03*
X178800000Y-75025000D03*
D31*
X191675000Y-69475000D03*
X191675000Y-67425000D03*
D32*
X182171800Y-73525000D03*
X182171800Y-73025001D03*
X182171800Y-72525000D03*
X182171800Y-72025001D03*
X182171800Y-71524999D03*
X182171800Y-71025000D03*
X182171800Y-70525001D03*
X182171800Y-70024999D03*
X182171800Y-69525000D03*
X182171800Y-69024999D03*
X182171800Y-68525000D03*
D33*
X183050000Y-67646800D03*
X183549999Y-67646800D03*
X184050000Y-67646800D03*
X184549999Y-67646800D03*
X185050001Y-67646800D03*
X185550000Y-67646800D03*
X186049999Y-67646800D03*
X186550001Y-67646800D03*
X187050000Y-67646800D03*
X187550001Y-67646800D03*
X188050000Y-67646800D03*
D32*
X188928200Y-68525000D03*
X188928200Y-69024999D03*
X188928200Y-69525000D03*
X188928200Y-70024999D03*
X188928200Y-70525001D03*
X188928200Y-71025000D03*
X188928200Y-71524999D03*
X188928200Y-72025001D03*
X188928200Y-72525000D03*
X188928200Y-73025001D03*
X188928200Y-73525000D03*
D33*
X188050000Y-74403200D03*
X187550001Y-74403200D03*
X187050000Y-74403200D03*
X186550001Y-74403200D03*
X186049999Y-74403200D03*
X185550000Y-74403200D03*
X185050001Y-74403200D03*
X184549999Y-74403200D03*
X184050000Y-74403200D03*
X183549999Y-74403200D03*
X183050000Y-74403200D03*
D34*
X185550000Y-71025000D03*
D35*
X185550000Y-71025000D03*
D34*
X184943575Y-72237850D03*
X184337150Y-71025000D03*
X186156425Y-72237850D03*
X186762850Y-71025000D03*
X186156425Y-69812150D03*
X184943575Y-69812150D03*
D28*
X188350000Y-55950000D03*
X190400000Y-55950000D03*
X180325000Y-81450000D03*
X182375000Y-81450000D03*
X180400000Y-60325000D03*
X182450000Y-60325000D03*
D27*
X199300000Y-74150000D03*
X199300000Y-76200000D03*
D31*
X144125000Y-65250000D03*
X144125000Y-63200000D03*
X152075000Y-68025000D03*
X152075000Y-65975000D03*
D36*
X147125000Y-64975000D03*
X147125000Y-64025000D03*
X147125000Y-63075000D03*
X149325000Y-63075000D03*
X149325000Y-64975000D03*
G36*
X187217659Y-73888091D02*
G01*
X187231427Y-73897290D01*
X187297791Y-73918070D01*
X187368590Y-73897281D01*
X187382341Y-73888093D01*
X187384337Y-73887962D01*
X187385448Y-73889625D01*
X187385115Y-73890867D01*
X187377768Y-73901862D01*
X187374001Y-73920799D01*
X187374001Y-74885601D01*
X187377767Y-74904536D01*
X187385116Y-74915535D01*
X187385247Y-74917531D01*
X187383584Y-74918642D01*
X187382342Y-74918309D01*
X187368574Y-74909110D01*
X187302210Y-74888330D01*
X187231411Y-74909119D01*
X187217660Y-74918307D01*
X187215664Y-74918438D01*
X187214553Y-74916775D01*
X187214886Y-74915533D01*
X187222234Y-74904536D01*
X187226000Y-74885601D01*
X187226000Y-73920799D01*
X187222233Y-73901862D01*
X187214885Y-73890865D01*
X187214754Y-73888869D01*
X187216417Y-73887758D01*
X187217659Y-73888091D01*
G37*
G36*
X186217658Y-73888091D02*
G01*
X186231425Y-73897290D01*
X186297788Y-73918071D01*
X186368589Y-73897281D01*
X186382342Y-73888092D01*
X186384338Y-73887961D01*
X186385449Y-73889624D01*
X186385116Y-73890866D01*
X186377768Y-73901862D01*
X186374001Y-73920799D01*
X186374001Y-74885601D01*
X186377767Y-74904536D01*
X186385116Y-74915535D01*
X186385247Y-74917531D01*
X186383584Y-74918642D01*
X186382342Y-74918309D01*
X186368575Y-74909110D01*
X186302212Y-74888329D01*
X186231411Y-74909119D01*
X186217658Y-74918308D01*
X186215662Y-74918439D01*
X186214551Y-74916776D01*
X186214884Y-74915534D01*
X186222233Y-74904536D01*
X186225999Y-74885601D01*
X186225999Y-73920799D01*
X186222232Y-73901862D01*
X186214884Y-73890865D01*
X186214753Y-73888869D01*
X186216416Y-73887758D01*
X186217658Y-73888091D01*
G37*
G36*
X183717658Y-73888091D02*
G01*
X183731426Y-73897290D01*
X183797790Y-73918070D01*
X183868589Y-73897281D01*
X183882340Y-73888093D01*
X183884336Y-73887962D01*
X183885447Y-73889625D01*
X183885114Y-73890867D01*
X183877767Y-73901862D01*
X183874000Y-73920799D01*
X183874000Y-74885601D01*
X183877766Y-74904536D01*
X183885115Y-74915535D01*
X183885246Y-74917531D01*
X183883583Y-74918642D01*
X183882341Y-74918309D01*
X183868573Y-74909110D01*
X183802209Y-74888330D01*
X183731410Y-74909119D01*
X183717659Y-74918307D01*
X183715663Y-74918438D01*
X183714552Y-74916775D01*
X183714885Y-74915533D01*
X183722233Y-74904536D01*
X183725999Y-74885601D01*
X183725999Y-73920799D01*
X183722232Y-73901862D01*
X183714884Y-73890865D01*
X183714753Y-73888869D01*
X183716416Y-73887758D01*
X183717658Y-73888091D01*
G37*
G36*
X184717658Y-73888091D02*
G01*
X184731425Y-73897290D01*
X184797788Y-73918071D01*
X184868589Y-73897281D01*
X184882342Y-73888092D01*
X184884338Y-73887961D01*
X184885449Y-73889624D01*
X184885116Y-73890866D01*
X184877768Y-73901862D01*
X184874001Y-73920799D01*
X184874001Y-74885601D01*
X184877767Y-74904536D01*
X184885116Y-74915535D01*
X184885247Y-74917531D01*
X184883584Y-74918642D01*
X184882342Y-74918309D01*
X184868575Y-74909110D01*
X184802212Y-74888329D01*
X184731411Y-74909119D01*
X184717658Y-74918308D01*
X184715662Y-74918439D01*
X184714551Y-74916776D01*
X184714884Y-74915534D01*
X184722233Y-74904536D01*
X184725999Y-74885601D01*
X184725999Y-73920799D01*
X184722232Y-73901862D01*
X184714884Y-73890865D01*
X184714753Y-73888869D01*
X184716416Y-73887758D01*
X184717658Y-73888091D01*
G37*
G36*
X185717660Y-73888093D02*
G01*
X185731425Y-73897290D01*
X185797789Y-73918070D01*
X185868590Y-73897280D01*
X185882339Y-73888094D01*
X185884335Y-73887963D01*
X185885446Y-73889626D01*
X185885113Y-73890868D01*
X185877766Y-73901863D01*
X185873999Y-73920799D01*
X185873999Y-74885601D01*
X185877765Y-74904536D01*
X185885113Y-74915533D01*
X185885244Y-74917529D01*
X185883581Y-74918640D01*
X185882339Y-74918307D01*
X185868576Y-74909111D01*
X185802212Y-74888330D01*
X185731411Y-74909119D01*
X185717660Y-74918307D01*
X185715664Y-74918438D01*
X185714553Y-74916775D01*
X185714886Y-74915533D01*
X185722234Y-74904536D01*
X185726000Y-74885601D01*
X185726000Y-73920799D01*
X185722233Y-73901862D01*
X185714886Y-73890867D01*
X185714755Y-73888871D01*
X185716418Y-73887760D01*
X185717660Y-73888093D01*
G37*
G36*
X183217660Y-73888093D02*
G01*
X183231425Y-73897290D01*
X183297789Y-73918070D01*
X183368590Y-73897280D01*
X183382339Y-73888094D01*
X183384335Y-73887963D01*
X183385446Y-73889626D01*
X183385113Y-73890868D01*
X183377766Y-73901863D01*
X183373999Y-73920799D01*
X183373999Y-74885601D01*
X183377765Y-74904536D01*
X183385113Y-74915533D01*
X183385244Y-74917529D01*
X183383581Y-74918640D01*
X183382339Y-74918307D01*
X183368576Y-74909111D01*
X183302212Y-74888330D01*
X183231411Y-74909119D01*
X183217660Y-74918307D01*
X183215664Y-74918438D01*
X183214553Y-74916775D01*
X183214886Y-74915533D01*
X183222234Y-74904536D01*
X183226000Y-74885601D01*
X183226000Y-73920799D01*
X183222233Y-73901862D01*
X183214886Y-73890867D01*
X183214755Y-73888871D01*
X183216418Y-73887760D01*
X183217660Y-73888093D01*
G37*
G36*
X184217660Y-73888093D02*
G01*
X184231425Y-73897290D01*
X184297789Y-73918070D01*
X184368590Y-73897280D01*
X184382339Y-73888094D01*
X184384335Y-73887963D01*
X184385446Y-73889626D01*
X184385113Y-73890868D01*
X184377766Y-73901863D01*
X184373999Y-73920799D01*
X184373999Y-74885601D01*
X184377765Y-74904536D01*
X184385113Y-74915533D01*
X184385244Y-74917529D01*
X184383581Y-74918640D01*
X184382339Y-74918307D01*
X184368576Y-74909111D01*
X184302212Y-74888330D01*
X184231411Y-74909119D01*
X184217660Y-74918307D01*
X184215664Y-74918438D01*
X184214553Y-74916775D01*
X184214886Y-74915533D01*
X184222234Y-74904536D01*
X184226000Y-74885601D01*
X184226000Y-73920799D01*
X184222233Y-73901862D01*
X184214886Y-73890867D01*
X184214755Y-73888871D01*
X184216418Y-73887760D01*
X184217660Y-73888093D01*
G37*
G36*
X187717661Y-73888093D02*
G01*
X187731426Y-73897290D01*
X187797790Y-73918070D01*
X187868591Y-73897280D01*
X187882340Y-73888094D01*
X187884336Y-73887963D01*
X187885447Y-73889626D01*
X187885114Y-73890868D01*
X187877767Y-73901863D01*
X187874000Y-73920799D01*
X187874000Y-74885601D01*
X187877766Y-74904536D01*
X187885114Y-74915533D01*
X187885245Y-74917529D01*
X187883582Y-74918640D01*
X187882340Y-74918307D01*
X187868577Y-74909111D01*
X187802213Y-74888330D01*
X187731412Y-74909119D01*
X187717661Y-74918307D01*
X187715665Y-74918438D01*
X187714554Y-74916775D01*
X187714887Y-74915533D01*
X187722235Y-74904536D01*
X187726001Y-74885601D01*
X187726001Y-73920799D01*
X187722234Y-73901862D01*
X187714887Y-73890867D01*
X187714756Y-73888871D01*
X187716419Y-73887760D01*
X187717661Y-73888093D01*
G37*
G36*
X185217661Y-73888093D02*
G01*
X185231426Y-73897290D01*
X185297790Y-73918070D01*
X185368591Y-73897280D01*
X185382340Y-73888094D01*
X185384336Y-73887963D01*
X185385447Y-73889626D01*
X185385114Y-73890868D01*
X185377767Y-73901863D01*
X185374000Y-73920799D01*
X185374000Y-74885601D01*
X185377766Y-74904536D01*
X185385114Y-74915533D01*
X185385245Y-74917529D01*
X185383582Y-74918640D01*
X185382340Y-74918307D01*
X185368577Y-74909111D01*
X185302213Y-74888330D01*
X185231412Y-74909119D01*
X185217661Y-74918307D01*
X185215665Y-74918438D01*
X185214554Y-74916775D01*
X185214887Y-74915533D01*
X185222235Y-74904536D01*
X185226001Y-74885601D01*
X185226001Y-73920799D01*
X185222234Y-73901862D01*
X185214887Y-73890867D01*
X185214756Y-73888871D01*
X185216419Y-73887760D01*
X185217661Y-73888093D01*
G37*
G36*
X186717661Y-73888093D02*
G01*
X186731426Y-73897290D01*
X186797790Y-73918070D01*
X186868591Y-73897280D01*
X186882340Y-73888094D01*
X186884336Y-73887963D01*
X186885447Y-73889626D01*
X186885114Y-73890868D01*
X186877767Y-73901863D01*
X186874000Y-73920799D01*
X186874000Y-74885601D01*
X186877766Y-74904536D01*
X186885114Y-74915533D01*
X186885245Y-74917529D01*
X186883582Y-74918640D01*
X186882340Y-74918307D01*
X186868577Y-74909111D01*
X186802213Y-74888330D01*
X186731412Y-74909119D01*
X186717661Y-74918307D01*
X186715665Y-74918438D01*
X186714554Y-74916775D01*
X186714887Y-74915533D01*
X186722235Y-74904536D01*
X186726001Y-74885601D01*
X186726001Y-73920799D01*
X186722234Y-73901862D01*
X186714887Y-73890867D01*
X186714756Y-73888871D01*
X186716419Y-73887760D01*
X186717661Y-73888093D01*
G37*
G36*
X188415867Y-73189887D02*
G01*
X188426862Y-73197234D01*
X188445799Y-73201001D01*
X189410601Y-73201001D01*
X189429538Y-73197234D01*
X189440533Y-73189887D01*
X189442529Y-73189756D01*
X189443640Y-73191419D01*
X189443307Y-73192661D01*
X189434110Y-73206426D01*
X189413330Y-73272790D01*
X189434120Y-73343591D01*
X189443306Y-73357340D01*
X189443437Y-73359336D01*
X189441774Y-73360447D01*
X189440532Y-73360114D01*
X189429537Y-73352767D01*
X189410601Y-73349000D01*
X188445799Y-73349000D01*
X188426862Y-73352767D01*
X188415867Y-73360114D01*
X188413871Y-73360245D01*
X188412760Y-73358582D01*
X188413093Y-73357340D01*
X188422289Y-73343577D01*
X188443070Y-73277213D01*
X188422281Y-73206412D01*
X188413093Y-73192661D01*
X188412962Y-73190665D01*
X188414625Y-73189554D01*
X188415867Y-73189887D01*
G37*
G36*
X181659467Y-73189887D02*
G01*
X181670462Y-73197234D01*
X181689399Y-73201001D01*
X182654201Y-73201001D01*
X182673138Y-73197234D01*
X182684133Y-73189887D01*
X182686129Y-73189756D01*
X182687240Y-73191419D01*
X182686907Y-73192661D01*
X182677710Y-73206426D01*
X182656930Y-73272790D01*
X182677720Y-73343591D01*
X182686906Y-73357340D01*
X182687037Y-73359336D01*
X182685374Y-73360447D01*
X182684132Y-73360114D01*
X182673137Y-73352767D01*
X182654201Y-73349000D01*
X181689399Y-73349000D01*
X181670462Y-73352767D01*
X181659467Y-73360114D01*
X181657471Y-73360245D01*
X181656360Y-73358582D01*
X181656693Y-73357340D01*
X181665889Y-73343577D01*
X181686670Y-73277213D01*
X181665881Y-73206412D01*
X181656693Y-73192661D01*
X181656562Y-73190665D01*
X181658225Y-73189554D01*
X181659467Y-73189887D01*
G37*
G36*
X181659465Y-72689884D02*
G01*
X181670463Y-72697233D01*
X181689399Y-72701000D01*
X182654201Y-72701000D01*
X182673138Y-72697233D01*
X182684135Y-72689885D01*
X182686131Y-72689754D01*
X182687242Y-72691417D01*
X182686909Y-72692659D01*
X182677710Y-72706427D01*
X182656930Y-72772791D01*
X182677719Y-72843590D01*
X182686907Y-72857341D01*
X182687038Y-72859337D01*
X182685375Y-72860448D01*
X182684133Y-72860115D01*
X182673138Y-72852768D01*
X182654201Y-72849001D01*
X181689399Y-72849001D01*
X181670462Y-72852768D01*
X181659467Y-72860115D01*
X181657471Y-72860246D01*
X181656360Y-72858583D01*
X181656693Y-72857341D01*
X181665890Y-72843576D01*
X181686670Y-72777212D01*
X181665881Y-72706413D01*
X181656691Y-72692658D01*
X181656560Y-72690662D01*
X181658223Y-72689551D01*
X181659465Y-72689884D01*
G37*
G36*
X188415865Y-72689884D02*
G01*
X188426863Y-72697233D01*
X188445799Y-72701000D01*
X189410601Y-72701000D01*
X189429538Y-72697233D01*
X189440535Y-72689885D01*
X189442531Y-72689754D01*
X189443642Y-72691417D01*
X189443309Y-72692659D01*
X189434110Y-72706427D01*
X189413330Y-72772791D01*
X189434119Y-72843590D01*
X189443307Y-72857341D01*
X189443438Y-72859337D01*
X189441775Y-72860448D01*
X189440533Y-72860115D01*
X189429538Y-72852768D01*
X189410601Y-72849001D01*
X188445799Y-72849001D01*
X188426862Y-72852768D01*
X188415867Y-72860115D01*
X188413871Y-72860246D01*
X188412760Y-72858583D01*
X188413093Y-72857341D01*
X188422290Y-72843576D01*
X188443070Y-72777212D01*
X188422281Y-72706413D01*
X188413091Y-72692658D01*
X188412960Y-72690662D01*
X188414623Y-72689551D01*
X188415865Y-72689884D01*
G37*
G36*
X188415867Y-72189887D02*
G01*
X188426862Y-72197234D01*
X188445799Y-72201001D01*
X189410601Y-72201001D01*
X189429538Y-72197234D01*
X189440533Y-72189887D01*
X189442529Y-72189756D01*
X189443640Y-72191419D01*
X189443307Y-72192661D01*
X189434110Y-72206426D01*
X189413330Y-72272790D01*
X189434120Y-72343591D01*
X189443306Y-72357340D01*
X189443437Y-72359336D01*
X189441774Y-72360447D01*
X189440532Y-72360114D01*
X189429537Y-72352767D01*
X189410601Y-72349000D01*
X188445799Y-72349000D01*
X188426862Y-72352767D01*
X188415867Y-72360114D01*
X188413871Y-72360245D01*
X188412760Y-72358582D01*
X188413093Y-72357340D01*
X188422289Y-72343577D01*
X188443070Y-72277213D01*
X188422281Y-72206412D01*
X188413093Y-72192661D01*
X188412962Y-72190665D01*
X188414625Y-72189554D01*
X188415867Y-72189887D01*
G37*
G36*
X181659467Y-72189887D02*
G01*
X181670462Y-72197234D01*
X181689399Y-72201001D01*
X182654201Y-72201001D01*
X182673138Y-72197234D01*
X182684133Y-72189887D01*
X182686129Y-72189756D01*
X182687240Y-72191419D01*
X182686907Y-72192661D01*
X182677710Y-72206426D01*
X182656930Y-72272790D01*
X182677720Y-72343591D01*
X182686906Y-72357340D01*
X182687037Y-72359336D01*
X182685374Y-72360447D01*
X182684132Y-72360114D01*
X182673137Y-72352767D01*
X182654201Y-72349000D01*
X181689399Y-72349000D01*
X181670462Y-72352767D01*
X181659467Y-72360114D01*
X181657471Y-72360245D01*
X181656360Y-72358582D01*
X181656693Y-72357340D01*
X181665889Y-72343577D01*
X181686670Y-72277213D01*
X181665881Y-72206412D01*
X181656693Y-72192661D01*
X181656562Y-72190665D01*
X181658225Y-72189554D01*
X181659467Y-72189887D01*
G37*
G36*
X181659466Y-71689884D02*
G01*
X181670462Y-71697232D01*
X181689399Y-71700999D01*
X182654201Y-71700999D01*
X182673138Y-71697232D01*
X182684135Y-71689884D01*
X182686131Y-71689753D01*
X182687242Y-71691416D01*
X182686909Y-71692658D01*
X182677710Y-71706425D01*
X182656929Y-71772788D01*
X182677719Y-71843589D01*
X182686908Y-71857342D01*
X182687039Y-71859338D01*
X182685376Y-71860449D01*
X182684134Y-71860116D01*
X182673138Y-71852768D01*
X182654201Y-71849001D01*
X181689399Y-71849001D01*
X181670462Y-71852768D01*
X181659465Y-71860116D01*
X181657469Y-71860247D01*
X181656358Y-71858584D01*
X181656691Y-71857342D01*
X181665890Y-71843575D01*
X181686671Y-71777212D01*
X181665881Y-71706411D01*
X181656692Y-71692658D01*
X181656561Y-71690662D01*
X181658224Y-71689551D01*
X181659466Y-71689884D01*
G37*
G36*
X188415866Y-71689884D02*
G01*
X188426862Y-71697232D01*
X188445799Y-71700999D01*
X189410601Y-71700999D01*
X189429538Y-71697232D01*
X189440535Y-71689884D01*
X189442531Y-71689753D01*
X189443642Y-71691416D01*
X189443309Y-71692658D01*
X189434110Y-71706425D01*
X189413329Y-71772788D01*
X189434119Y-71843589D01*
X189443308Y-71857342D01*
X189443439Y-71859338D01*
X189441776Y-71860449D01*
X189440534Y-71860116D01*
X189429538Y-71852768D01*
X189410601Y-71849001D01*
X188445799Y-71849001D01*
X188426862Y-71852768D01*
X188415865Y-71860116D01*
X188413869Y-71860247D01*
X188412758Y-71858584D01*
X188413091Y-71857342D01*
X188422290Y-71843575D01*
X188443071Y-71777212D01*
X188422281Y-71706411D01*
X188413092Y-71692658D01*
X188412961Y-71690662D01*
X188414624Y-71689551D01*
X188415866Y-71689884D01*
G37*
G36*
X188415867Y-71189886D02*
G01*
X188426862Y-71197233D01*
X188445799Y-71201000D01*
X189410601Y-71201000D01*
X189429538Y-71197233D01*
X189440533Y-71189886D01*
X189442529Y-71189755D01*
X189443640Y-71191418D01*
X189443307Y-71192660D01*
X189434110Y-71206425D01*
X189413330Y-71272789D01*
X189434120Y-71343590D01*
X189443306Y-71357339D01*
X189443437Y-71359335D01*
X189441774Y-71360446D01*
X189440532Y-71360113D01*
X189429537Y-71352766D01*
X189410601Y-71348999D01*
X188445799Y-71348999D01*
X188426862Y-71352766D01*
X188415867Y-71360113D01*
X188413871Y-71360244D01*
X188412760Y-71358581D01*
X188413093Y-71357339D01*
X188422289Y-71343576D01*
X188443070Y-71277212D01*
X188422281Y-71206411D01*
X188413093Y-71192660D01*
X188412962Y-71190664D01*
X188414625Y-71189553D01*
X188415867Y-71189886D01*
G37*
G36*
X181659467Y-71189886D02*
G01*
X181670462Y-71197233D01*
X181689399Y-71201000D01*
X182654201Y-71201000D01*
X182673138Y-71197233D01*
X182684133Y-71189886D01*
X182686129Y-71189755D01*
X182687240Y-71191418D01*
X182686907Y-71192660D01*
X182677710Y-71206425D01*
X182656930Y-71272789D01*
X182677720Y-71343590D01*
X182686906Y-71357339D01*
X182687037Y-71359335D01*
X182685374Y-71360446D01*
X182684132Y-71360113D01*
X182673137Y-71352766D01*
X182654201Y-71348999D01*
X181689399Y-71348999D01*
X181670462Y-71352766D01*
X181659467Y-71360113D01*
X181657471Y-71360244D01*
X181656360Y-71358581D01*
X181656693Y-71357339D01*
X181665889Y-71343576D01*
X181686670Y-71277212D01*
X181665881Y-71206411D01*
X181656693Y-71192660D01*
X181656562Y-71190664D01*
X181658225Y-71189553D01*
X181659467Y-71189886D01*
G37*
G36*
X181659468Y-70689887D02*
G01*
X181670463Y-70697234D01*
X181689399Y-70701001D01*
X182654201Y-70701001D01*
X182673138Y-70697234D01*
X182684133Y-70689887D01*
X182686129Y-70689756D01*
X182687240Y-70691419D01*
X182686907Y-70692661D01*
X182677711Y-70706424D01*
X182656930Y-70772788D01*
X182677719Y-70843589D01*
X182686907Y-70857340D01*
X182687038Y-70859336D01*
X182685375Y-70860447D01*
X182684133Y-70860114D01*
X182673138Y-70852767D01*
X182654201Y-70849000D01*
X181689399Y-70849000D01*
X181670462Y-70852767D01*
X181659467Y-70860114D01*
X181657471Y-70860245D01*
X181656360Y-70858582D01*
X181656693Y-70857340D01*
X181665890Y-70843575D01*
X181686670Y-70777211D01*
X181665880Y-70706410D01*
X181656694Y-70692661D01*
X181656563Y-70690665D01*
X181658226Y-70689554D01*
X181659468Y-70689887D01*
G37*
G36*
X188415868Y-70689887D02*
G01*
X188426863Y-70697234D01*
X188445799Y-70701001D01*
X189410601Y-70701001D01*
X189429538Y-70697234D01*
X189440533Y-70689887D01*
X189442529Y-70689756D01*
X189443640Y-70691419D01*
X189443307Y-70692661D01*
X189434111Y-70706424D01*
X189413330Y-70772788D01*
X189434119Y-70843589D01*
X189443307Y-70857340D01*
X189443438Y-70859336D01*
X189441775Y-70860447D01*
X189440533Y-70860114D01*
X189429538Y-70852767D01*
X189410601Y-70849000D01*
X188445799Y-70849000D01*
X188426862Y-70852767D01*
X188415867Y-70860114D01*
X188413871Y-70860245D01*
X188412760Y-70858582D01*
X188413093Y-70857340D01*
X188422290Y-70843575D01*
X188443070Y-70777211D01*
X188422280Y-70706410D01*
X188413094Y-70692661D01*
X188412963Y-70690665D01*
X188414626Y-70689554D01*
X188415868Y-70689887D01*
G37*
G36*
X188415866Y-70189884D02*
G01*
X188426862Y-70197232D01*
X188445799Y-70200999D01*
X189410601Y-70200999D01*
X189429538Y-70197232D01*
X189440535Y-70189884D01*
X189442531Y-70189753D01*
X189443642Y-70191416D01*
X189443309Y-70192658D01*
X189434110Y-70206425D01*
X189413329Y-70272788D01*
X189434119Y-70343589D01*
X189443308Y-70357342D01*
X189443439Y-70359338D01*
X189441776Y-70360449D01*
X189440534Y-70360116D01*
X189429538Y-70352768D01*
X189410601Y-70349001D01*
X188445799Y-70349001D01*
X188426862Y-70352768D01*
X188415865Y-70360116D01*
X188413869Y-70360247D01*
X188412758Y-70358584D01*
X188413091Y-70357342D01*
X188422290Y-70343575D01*
X188443071Y-70277212D01*
X188422281Y-70206411D01*
X188413092Y-70192658D01*
X188412961Y-70190662D01*
X188414624Y-70189551D01*
X188415866Y-70189884D01*
G37*
G36*
X181659466Y-70189884D02*
G01*
X181670462Y-70197232D01*
X181689399Y-70200999D01*
X182654201Y-70200999D01*
X182673138Y-70197232D01*
X182684135Y-70189884D01*
X182686131Y-70189753D01*
X182687242Y-70191416D01*
X182686909Y-70192658D01*
X182677710Y-70206425D01*
X182656929Y-70272788D01*
X182677719Y-70343589D01*
X182686908Y-70357342D01*
X182687039Y-70359338D01*
X182685376Y-70360449D01*
X182684134Y-70360116D01*
X182673138Y-70352768D01*
X182654201Y-70349001D01*
X181689399Y-70349001D01*
X181670462Y-70352768D01*
X181659465Y-70360116D01*
X181657469Y-70360247D01*
X181656358Y-70358584D01*
X181656691Y-70357342D01*
X181665890Y-70343575D01*
X181686671Y-70277212D01*
X181665881Y-70206411D01*
X181656692Y-70192658D01*
X181656561Y-70190662D01*
X181658224Y-70189551D01*
X181659466Y-70189884D01*
G37*
G36*
X181659467Y-69689886D02*
G01*
X181670462Y-69697233D01*
X181689399Y-69701000D01*
X182654201Y-69701000D01*
X182673138Y-69697233D01*
X182684133Y-69689886D01*
X182686129Y-69689755D01*
X182687240Y-69691418D01*
X182686907Y-69692660D01*
X182677710Y-69706425D01*
X182656930Y-69772789D01*
X182677720Y-69843590D01*
X182686906Y-69857339D01*
X182687037Y-69859335D01*
X182685374Y-69860446D01*
X182684132Y-69860113D01*
X182673137Y-69852766D01*
X182654201Y-69848999D01*
X181689399Y-69848999D01*
X181670462Y-69852766D01*
X181659467Y-69860113D01*
X181657471Y-69860244D01*
X181656360Y-69858581D01*
X181656693Y-69857339D01*
X181665889Y-69843576D01*
X181686670Y-69777212D01*
X181665881Y-69706411D01*
X181656693Y-69692660D01*
X181656562Y-69690664D01*
X181658225Y-69689553D01*
X181659467Y-69689886D01*
G37*
G36*
X188415867Y-69689886D02*
G01*
X188426862Y-69697233D01*
X188445799Y-69701000D01*
X189410601Y-69701000D01*
X189429538Y-69697233D01*
X189440533Y-69689886D01*
X189442529Y-69689755D01*
X189443640Y-69691418D01*
X189443307Y-69692660D01*
X189434110Y-69706425D01*
X189413330Y-69772789D01*
X189434120Y-69843590D01*
X189443306Y-69857339D01*
X189443437Y-69859335D01*
X189441774Y-69860446D01*
X189440532Y-69860113D01*
X189429537Y-69852766D01*
X189410601Y-69848999D01*
X188445799Y-69848999D01*
X188426862Y-69852766D01*
X188415867Y-69860113D01*
X188413871Y-69860244D01*
X188412760Y-69858581D01*
X188413093Y-69857339D01*
X188422289Y-69843576D01*
X188443070Y-69777212D01*
X188422281Y-69706411D01*
X188413093Y-69692660D01*
X188412962Y-69690664D01*
X188414625Y-69689553D01*
X188415867Y-69689886D01*
G37*
G36*
X188415865Y-69189883D02*
G01*
X188426863Y-69197232D01*
X188445799Y-69200999D01*
X189410601Y-69200999D01*
X189429538Y-69197232D01*
X189440535Y-69189884D01*
X189442531Y-69189753D01*
X189443642Y-69191416D01*
X189443309Y-69192658D01*
X189434110Y-69206426D01*
X189413330Y-69272790D01*
X189434119Y-69343589D01*
X189443307Y-69357340D01*
X189443438Y-69359336D01*
X189441775Y-69360447D01*
X189440533Y-69360114D01*
X189429538Y-69352767D01*
X189410601Y-69349000D01*
X188445799Y-69349000D01*
X188426862Y-69352767D01*
X188415867Y-69360114D01*
X188413871Y-69360245D01*
X188412760Y-69358582D01*
X188413093Y-69357340D01*
X188422290Y-69343575D01*
X188443070Y-69277211D01*
X188422281Y-69206412D01*
X188413091Y-69192657D01*
X188412960Y-69190661D01*
X188414623Y-69189550D01*
X188415865Y-69189883D01*
G37*
G36*
X181659465Y-69189883D02*
G01*
X181670463Y-69197232D01*
X181689399Y-69200999D01*
X182654201Y-69200999D01*
X182673138Y-69197232D01*
X182684135Y-69189884D01*
X182686131Y-69189753D01*
X182687242Y-69191416D01*
X182686909Y-69192658D01*
X182677710Y-69206426D01*
X182656930Y-69272790D01*
X182677719Y-69343589D01*
X182686907Y-69357340D01*
X182687038Y-69359336D01*
X182685375Y-69360447D01*
X182684133Y-69360114D01*
X182673138Y-69352767D01*
X182654201Y-69349000D01*
X181689399Y-69349000D01*
X181670462Y-69352767D01*
X181659467Y-69360114D01*
X181657471Y-69360245D01*
X181656360Y-69358582D01*
X181656693Y-69357340D01*
X181665890Y-69343575D01*
X181686670Y-69277211D01*
X181665881Y-69206412D01*
X181656691Y-69192657D01*
X181656560Y-69190661D01*
X181658223Y-69189550D01*
X181659465Y-69189883D01*
G37*
G36*
X181659467Y-68689886D02*
G01*
X181670462Y-68697233D01*
X181689399Y-68701000D01*
X182654201Y-68701000D01*
X182673138Y-68697233D01*
X182684133Y-68689886D01*
X182686129Y-68689755D01*
X182687240Y-68691418D01*
X182686907Y-68692660D01*
X182677710Y-68706425D01*
X182656930Y-68772789D01*
X182677720Y-68843590D01*
X182686906Y-68857339D01*
X182687037Y-68859335D01*
X182685374Y-68860446D01*
X182684132Y-68860113D01*
X182673137Y-68852766D01*
X182654201Y-68848999D01*
X181689399Y-68848999D01*
X181670462Y-68852766D01*
X181659467Y-68860113D01*
X181657471Y-68860244D01*
X181656360Y-68858581D01*
X181656693Y-68857339D01*
X181665889Y-68843576D01*
X181686670Y-68777212D01*
X181665881Y-68706411D01*
X181656693Y-68692660D01*
X181656562Y-68690664D01*
X181658225Y-68689553D01*
X181659467Y-68689886D01*
G37*
G36*
X188415867Y-68689886D02*
G01*
X188426862Y-68697233D01*
X188445799Y-68701000D01*
X189410601Y-68701000D01*
X189429538Y-68697233D01*
X189440533Y-68689886D01*
X189442529Y-68689755D01*
X189443640Y-68691418D01*
X189443307Y-68692660D01*
X189434110Y-68706425D01*
X189413330Y-68772789D01*
X189434120Y-68843590D01*
X189443306Y-68857339D01*
X189443437Y-68859335D01*
X189441774Y-68860446D01*
X189440532Y-68860113D01*
X189429537Y-68852766D01*
X189410601Y-68848999D01*
X188445799Y-68848999D01*
X188426862Y-68852766D01*
X188415867Y-68860113D01*
X188413871Y-68860244D01*
X188412760Y-68858581D01*
X188413093Y-68857339D01*
X188422289Y-68843576D01*
X188443070Y-68777212D01*
X188422281Y-68706411D01*
X188413093Y-68692660D01*
X188412962Y-68690664D01*
X188414625Y-68689553D01*
X188415867Y-68689886D01*
G37*
G36*
X184717658Y-67131691D02*
G01*
X184731425Y-67140890D01*
X184797788Y-67161671D01*
X184868589Y-67140881D01*
X184882342Y-67131692D01*
X184884338Y-67131561D01*
X184885449Y-67133224D01*
X184885116Y-67134466D01*
X184877768Y-67145462D01*
X184874001Y-67164399D01*
X184874001Y-68129201D01*
X184877768Y-68148138D01*
X184885116Y-68159135D01*
X184885247Y-68161131D01*
X184883584Y-68162242D01*
X184882342Y-68161909D01*
X184868575Y-68152710D01*
X184802212Y-68131929D01*
X184731411Y-68152719D01*
X184717658Y-68161908D01*
X184715662Y-68162039D01*
X184714551Y-68160376D01*
X184714884Y-68159134D01*
X184722232Y-68148138D01*
X184725999Y-68129201D01*
X184725999Y-67164399D01*
X184722232Y-67145462D01*
X184714884Y-67134465D01*
X184714753Y-67132469D01*
X184716416Y-67131358D01*
X184717658Y-67131691D01*
G37*
G36*
X186217658Y-67131691D02*
G01*
X186231425Y-67140890D01*
X186297788Y-67161671D01*
X186368589Y-67140881D01*
X186382342Y-67131692D01*
X186384338Y-67131561D01*
X186385449Y-67133224D01*
X186385116Y-67134466D01*
X186377768Y-67145462D01*
X186374001Y-67164399D01*
X186374001Y-68129201D01*
X186377768Y-68148138D01*
X186385116Y-68159135D01*
X186385247Y-68161131D01*
X186383584Y-68162242D01*
X186382342Y-68161909D01*
X186368575Y-68152710D01*
X186302212Y-68131929D01*
X186231411Y-68152719D01*
X186217658Y-68161908D01*
X186215662Y-68162039D01*
X186214551Y-68160376D01*
X186214884Y-68159134D01*
X186222232Y-68148138D01*
X186225999Y-68129201D01*
X186225999Y-67164399D01*
X186222232Y-67145462D01*
X186214884Y-67134465D01*
X186214753Y-67132469D01*
X186216416Y-67131358D01*
X186217658Y-67131691D01*
G37*
G36*
X187217659Y-67131691D02*
G01*
X187231427Y-67140890D01*
X187297791Y-67161670D01*
X187368590Y-67140881D01*
X187382341Y-67131693D01*
X187384337Y-67131562D01*
X187385448Y-67133225D01*
X187385115Y-67134467D01*
X187377768Y-67145462D01*
X187374001Y-67164399D01*
X187374001Y-68129201D01*
X187377768Y-68148138D01*
X187385115Y-68159133D01*
X187385246Y-68161129D01*
X187383583Y-68162240D01*
X187382341Y-68161907D01*
X187368576Y-68152710D01*
X187302212Y-68131930D01*
X187231413Y-68152719D01*
X187217658Y-68161909D01*
X187215662Y-68162040D01*
X187214551Y-68160377D01*
X187214884Y-68159135D01*
X187222233Y-68148137D01*
X187226000Y-68129201D01*
X187226000Y-67164399D01*
X187222233Y-67145462D01*
X187214885Y-67134465D01*
X187214754Y-67132469D01*
X187216417Y-67131358D01*
X187217659Y-67131691D01*
G37*
G36*
X185217661Y-67131693D02*
G01*
X185231426Y-67140890D01*
X185297790Y-67161670D01*
X185368591Y-67140880D01*
X185382340Y-67131694D01*
X185384336Y-67131563D01*
X185385447Y-67133226D01*
X185385114Y-67134468D01*
X185377767Y-67145463D01*
X185374000Y-67164399D01*
X185374000Y-68129201D01*
X185377767Y-68148138D01*
X185385114Y-68159133D01*
X185385245Y-68161129D01*
X185383582Y-68162240D01*
X185382340Y-68161907D01*
X185368577Y-68152711D01*
X185302213Y-68131930D01*
X185231412Y-68152719D01*
X185217661Y-68161907D01*
X185215665Y-68162038D01*
X185214554Y-68160375D01*
X185214887Y-68159133D01*
X185222234Y-68148138D01*
X185226001Y-68129201D01*
X185226001Y-67164399D01*
X185222234Y-67145462D01*
X185214887Y-67134467D01*
X185214756Y-67132471D01*
X185216419Y-67131360D01*
X185217661Y-67131693D01*
G37*
G36*
X187717661Y-67131693D02*
G01*
X187731426Y-67140890D01*
X187797790Y-67161670D01*
X187868591Y-67140880D01*
X187882340Y-67131694D01*
X187884336Y-67131563D01*
X187885447Y-67133226D01*
X187885114Y-67134468D01*
X187877767Y-67145463D01*
X187874000Y-67164399D01*
X187874000Y-68129201D01*
X187877767Y-68148138D01*
X187885114Y-68159133D01*
X187885245Y-68161129D01*
X187883582Y-68162240D01*
X187882340Y-68161907D01*
X187868577Y-68152711D01*
X187802213Y-68131930D01*
X187731412Y-68152719D01*
X187717661Y-68161907D01*
X187715665Y-68162038D01*
X187714554Y-68160375D01*
X187714887Y-68159133D01*
X187722234Y-68148138D01*
X187726001Y-68129201D01*
X187726001Y-67164399D01*
X187722234Y-67145462D01*
X187714887Y-67134467D01*
X187714756Y-67132471D01*
X187716419Y-67131360D01*
X187717661Y-67131693D01*
G37*
G36*
X184217660Y-67131693D02*
G01*
X184231425Y-67140890D01*
X184297789Y-67161670D01*
X184368590Y-67140880D01*
X184382339Y-67131694D01*
X184384335Y-67131563D01*
X184385446Y-67133226D01*
X184385113Y-67134468D01*
X184377766Y-67145463D01*
X184373999Y-67164399D01*
X184373999Y-68129201D01*
X184377766Y-68148138D01*
X184385113Y-68159133D01*
X184385244Y-68161129D01*
X184383581Y-68162240D01*
X184382339Y-68161907D01*
X184368576Y-68152711D01*
X184302212Y-68131930D01*
X184231411Y-68152719D01*
X184217660Y-68161907D01*
X184215664Y-68162038D01*
X184214553Y-68160375D01*
X184214886Y-68159133D01*
X184222233Y-68148138D01*
X184226000Y-68129201D01*
X184226000Y-67164399D01*
X184222233Y-67145462D01*
X184214886Y-67134467D01*
X184214755Y-67132471D01*
X184216418Y-67131360D01*
X184217660Y-67131693D01*
G37*
G36*
X185717660Y-67131693D02*
G01*
X185731425Y-67140890D01*
X185797789Y-67161670D01*
X185868590Y-67140880D01*
X185882339Y-67131694D01*
X185884335Y-67131563D01*
X185885446Y-67133226D01*
X185885113Y-67134468D01*
X185877766Y-67145463D01*
X185873999Y-67164399D01*
X185873999Y-68129201D01*
X185877766Y-68148138D01*
X185885113Y-68159133D01*
X185885244Y-68161129D01*
X185883581Y-68162240D01*
X185882339Y-68161907D01*
X185868576Y-68152711D01*
X185802212Y-68131930D01*
X185731411Y-68152719D01*
X185717660Y-68161907D01*
X185715664Y-68162038D01*
X185714553Y-68160375D01*
X185714886Y-68159133D01*
X185722233Y-68148138D01*
X185726000Y-68129201D01*
X185726000Y-67164399D01*
X185722233Y-67145462D01*
X185714886Y-67134467D01*
X185714755Y-67132471D01*
X185716418Y-67131360D01*
X185717660Y-67131693D01*
G37*
G36*
X183217660Y-67131693D02*
G01*
X183231425Y-67140890D01*
X183297789Y-67161670D01*
X183368590Y-67140880D01*
X183382339Y-67131694D01*
X183384335Y-67131563D01*
X183385446Y-67133226D01*
X183385113Y-67134468D01*
X183377766Y-67145463D01*
X183373999Y-67164399D01*
X183373999Y-68129201D01*
X183377766Y-68148138D01*
X183385113Y-68159133D01*
X183385244Y-68161129D01*
X183383581Y-68162240D01*
X183382339Y-68161907D01*
X183368576Y-68152711D01*
X183302212Y-68131930D01*
X183231411Y-68152719D01*
X183217660Y-68161907D01*
X183215664Y-68162038D01*
X183214553Y-68160375D01*
X183214886Y-68159133D01*
X183222233Y-68148138D01*
X183226000Y-68129201D01*
X183226000Y-67164399D01*
X183222233Y-67145462D01*
X183214886Y-67134467D01*
X183214755Y-67132471D01*
X183216418Y-67131360D01*
X183217660Y-67131693D01*
G37*
G36*
X183717658Y-67131691D02*
G01*
X183731426Y-67140890D01*
X183797790Y-67161670D01*
X183868589Y-67140881D01*
X183882340Y-67131693D01*
X183884336Y-67131562D01*
X183885447Y-67133225D01*
X183885114Y-67134467D01*
X183877767Y-67145462D01*
X183874000Y-67164399D01*
X183874000Y-68129201D01*
X183877767Y-68148138D01*
X183885114Y-68159133D01*
X183885245Y-68161129D01*
X183883582Y-68162240D01*
X183882340Y-68161907D01*
X183868575Y-68152710D01*
X183802211Y-68131930D01*
X183731412Y-68152719D01*
X183717657Y-68161909D01*
X183715661Y-68162040D01*
X183714550Y-68160377D01*
X183714883Y-68159135D01*
X183722232Y-68148137D01*
X183725999Y-68129201D01*
X183725999Y-67164399D01*
X183722232Y-67145462D01*
X183714884Y-67134465D01*
X183714753Y-67132469D01*
X183716416Y-67131358D01*
X183717658Y-67131691D01*
G37*
G36*
X186717661Y-67131693D02*
G01*
X186731426Y-67140890D01*
X186797790Y-67161670D01*
X186868591Y-67140880D01*
X186882340Y-67131694D01*
X186884336Y-67131563D01*
X186885447Y-67133226D01*
X186885114Y-67134468D01*
X186877767Y-67145463D01*
X186874000Y-67164399D01*
X186874000Y-68129201D01*
X186877767Y-68148138D01*
X186885114Y-68159133D01*
X186885245Y-68161129D01*
X186883582Y-68162240D01*
X186882340Y-68161907D01*
X186868577Y-68152711D01*
X186802213Y-68131930D01*
X186731412Y-68152719D01*
X186717661Y-68161907D01*
X186715665Y-68162038D01*
X186714554Y-68160375D01*
X186714887Y-68159133D01*
X186722234Y-68148138D01*
X186726001Y-68129201D01*
X186726001Y-67164399D01*
X186722234Y-67145462D01*
X186714887Y-67134467D01*
X186714756Y-67132471D01*
X186716419Y-67131360D01*
X186717661Y-67131693D01*
G37*
G36*
X147671668Y-64396665D02*
G01*
X147672058Y-64398627D01*
X147671699Y-64399267D01*
X147628511Y-64450946D01*
X147619880Y-64519661D01*
X147649844Y-64582291D01*
X147670682Y-64600348D01*
X147671336Y-64602238D01*
X147670026Y-64603749D01*
X147668982Y-64603821D01*
X147654801Y-64601000D01*
X146595199Y-64601000D01*
X146580226Y-64603978D01*
X146578332Y-64603335D01*
X146577942Y-64601373D01*
X146578301Y-64600733D01*
X146621489Y-64549054D01*
X146630120Y-64480339D01*
X146600156Y-64417709D01*
X146579318Y-64399652D01*
X146578664Y-64397762D01*
X146579974Y-64396251D01*
X146581018Y-64396179D01*
X146595199Y-64399000D01*
X147654801Y-64399000D01*
X147669774Y-64396022D01*
X147671668Y-64396665D01*
G37*
G36*
X147671668Y-63446665D02*
G01*
X147672058Y-63448627D01*
X147671699Y-63449267D01*
X147628511Y-63500946D01*
X147619880Y-63569661D01*
X147649844Y-63632291D01*
X147670682Y-63650348D01*
X147671336Y-63652238D01*
X147670026Y-63653749D01*
X147668982Y-63653821D01*
X147654801Y-63651000D01*
X146595199Y-63651000D01*
X146580226Y-63653978D01*
X146578332Y-63653335D01*
X146577942Y-63651373D01*
X146578301Y-63650733D01*
X146621489Y-63599054D01*
X146630120Y-63530339D01*
X146600156Y-63467709D01*
X146579318Y-63449652D01*
X146578664Y-63447762D01*
X146579974Y-63446251D01*
X146581018Y-63446179D01*
X146595199Y-63449000D01*
X147654801Y-63449000D01*
X147669774Y-63446022D01*
X147671668Y-63446665D01*
G37*
M02*
