G04 #@! TF.GenerationSoftware,KiCad,Pcbnew,(5.1.6)-1*
G04 #@! TF.CreationDate,2020-08-20T21:44:59-05:00*
G04 #@! TF.ProjectId,ControlBoardT4_28PinSound_Power,436f6e74-726f-46c4-926f-61726454345f,rev?*
G04 #@! TF.SameCoordinates,Original*
G04 #@! TF.FileFunction,Copper,L1,Top*
G04 #@! TF.FilePolarity,Positive*
%FSLAX46Y46*%
G04 Gerber Fmt 4.6, Leading zero omitted, Abs format (unit mm)*
G04 Created by KiCad (PCBNEW (5.1.6)-1) date 2020-08-20 21:44:59*
%MOMM*%
%LPD*%
G01*
G04 APERTURE LIST*
G04 #@! TA.AperFunction,ComponentPad*
%ADD10C,1.524000*%
G04 #@! TD*
G04 #@! TA.AperFunction,SMDPad,CuDef*
%ADD11C,0.100000*%
G04 #@! TD*
G04 #@! TA.AperFunction,ComponentPad*
%ADD12O,1.140000X2.362000*%
G04 #@! TD*
G04 #@! TA.AperFunction,ComponentPad*
%ADD13C,1.500000*%
G04 #@! TD*
G04 #@! TA.AperFunction,ComponentPad*
%ADD14R,1.500000X1.500000*%
G04 #@! TD*
G04 #@! TA.AperFunction,ComponentPad*
%ADD15R,1.700000X1.700000*%
G04 #@! TD*
G04 #@! TA.AperFunction,ComponentPad*
%ADD16O,1.700000X1.700000*%
G04 #@! TD*
G04 #@! TA.AperFunction,ComponentPad*
%ADD17O,1.400000X2.000000*%
G04 #@! TD*
G04 #@! TA.AperFunction,ComponentPad*
%ADD18R,1.400000X2.000000*%
G04 #@! TD*
G04 #@! TA.AperFunction,ComponentPad*
%ADD19R,1.600000X1.600000*%
G04 #@! TD*
G04 #@! TA.AperFunction,ComponentPad*
%ADD20O,1.600000X1.600000*%
G04 #@! TD*
G04 #@! TA.AperFunction,ComponentPad*
%ADD21C,2.286000*%
G04 #@! TD*
G04 #@! TA.AperFunction,ComponentPad*
%ADD22R,2.286000X2.286000*%
G04 #@! TD*
G04 #@! TA.AperFunction,SMDPad,CuDef*
%ADD23R,1.500000X1.500000*%
G04 #@! TD*
G04 #@! TA.AperFunction,ComponentPad*
%ADD24C,1.600000*%
G04 #@! TD*
G04 #@! TA.AperFunction,ViaPad*
%ADD25C,0.800000*%
G04 #@! TD*
G04 #@! TA.AperFunction,Conductor*
%ADD26C,0.250000*%
G04 #@! TD*
G04 APERTURE END LIST*
D10*
X125920500Y-128079500D03*
X125920500Y-145859500D03*
X166560500Y-128079500D03*
X166560500Y-145859500D03*
G04 #@! TA.AperFunction,SMDPad,CuDef*
D11*
G36*
X147590000Y-123000000D02*
G01*
X148090000Y-122250000D01*
X149090000Y-122250000D01*
X149090000Y-123750000D01*
X148090000Y-123750000D01*
X147590000Y-123000000D01*
G37*
G04 #@! TD.AperFunction*
G04 #@! TA.AperFunction,SMDPad,CuDef*
G36*
X146640000Y-122250000D02*
G01*
X147790000Y-122250000D01*
X147290000Y-123000000D01*
X147790000Y-123750000D01*
X146640000Y-123750000D01*
X146640000Y-122250000D01*
G37*
G04 #@! TD.AperFunction*
D12*
X153416000Y-74631550D03*
X168414700Y-74631550D03*
D13*
X156464000Y-86423500D03*
X157734000Y-83883500D03*
X159004000Y-86423500D03*
X160274000Y-83883500D03*
X161544000Y-86423500D03*
X162814000Y-83883500D03*
X164084000Y-86423500D03*
D14*
X165354000Y-83883500D03*
D15*
X171894500Y-79311500D03*
D16*
X174434500Y-79311500D03*
D15*
X111379000Y-78803500D03*
D16*
X131879000Y-78803500D03*
X111379000Y-81343500D03*
X131879000Y-81343500D03*
X111379000Y-83883500D03*
X131879000Y-83883500D03*
X111379000Y-86423500D03*
X131879000Y-86423500D03*
X111379000Y-88963500D03*
X131879000Y-88963500D03*
X111379000Y-91503500D03*
X131879000Y-91503500D03*
X111379000Y-94043500D03*
X131879000Y-94043500D03*
X111379000Y-96583500D03*
X131879000Y-96583500D03*
X111379000Y-99123500D03*
X131879000Y-99123500D03*
X111379000Y-101663500D03*
X131879000Y-101663500D03*
X111379000Y-104203500D03*
X131879000Y-104203500D03*
X111379000Y-106743500D03*
X131879000Y-106743500D03*
X111379000Y-109283500D03*
X131879000Y-109283500D03*
X111379000Y-111823500D03*
X131879000Y-111823500D03*
D17*
X121808500Y-81573500D03*
D18*
X126308500Y-80073500D03*
D17*
X126308500Y-76073500D03*
X126308500Y-73073500D03*
D16*
X172402500Y-103886000D03*
X172402500Y-106426000D03*
D15*
X172402500Y-108966000D03*
G04 #@! TA.AperFunction,SMDPad,CuDef*
D11*
G36*
X125963000Y-118300500D02*
G01*
X126463000Y-117550500D01*
X127463000Y-117550500D01*
X127463000Y-119050500D01*
X126463000Y-119050500D01*
X125963000Y-118300500D01*
G37*
G04 #@! TD.AperFunction*
G04 #@! TA.AperFunction,SMDPad,CuDef*
G36*
X125013000Y-117550500D02*
G01*
X126163000Y-117550500D01*
X125663000Y-118300500D01*
X126163000Y-119050500D01*
X125013000Y-119050500D01*
X125013000Y-117550500D01*
G37*
G04 #@! TD.AperFunction*
G04 #@! TA.AperFunction,SMDPad,CuDef*
G36*
X115170500Y-110565500D02*
G01*
X116320500Y-110565500D01*
X115820500Y-111315500D01*
X116320500Y-112065500D01*
X115170500Y-112065500D01*
X115170500Y-110565500D01*
G37*
G04 #@! TD.AperFunction*
G04 #@! TA.AperFunction,SMDPad,CuDef*
G36*
X116120500Y-111315500D02*
G01*
X116620500Y-110565500D01*
X117620500Y-110565500D01*
X117620500Y-112065500D01*
X116620500Y-112065500D01*
X116120500Y-111315500D01*
G37*
G04 #@! TD.AperFunction*
G04 #@! TA.AperFunction,SMDPad,CuDef*
G36*
X116184000Y-108204000D02*
G01*
X116684000Y-107454000D01*
X117684000Y-107454000D01*
X117684000Y-108954000D01*
X116684000Y-108954000D01*
X116184000Y-108204000D01*
G37*
G04 #@! TD.AperFunction*
G04 #@! TA.AperFunction,SMDPad,CuDef*
G36*
X115234000Y-107454000D02*
G01*
X116384000Y-107454000D01*
X115884000Y-108204000D01*
X116384000Y-108954000D01*
X115234000Y-108954000D01*
X115234000Y-107454000D01*
G37*
G04 #@! TD.AperFunction*
D16*
X153479500Y-119253000D03*
X156019500Y-119253000D03*
X158559500Y-119253000D03*
X161099500Y-119253000D03*
X163639500Y-119253000D03*
D15*
X166179500Y-119253000D03*
X157162500Y-96266000D03*
D16*
X157162500Y-93726000D03*
X154622500Y-93726000D03*
X157162500Y-91186000D03*
X154622500Y-91186000D03*
D15*
X154622500Y-96266000D03*
X157162500Y-111506000D03*
D16*
X157162500Y-108966000D03*
X154622500Y-108966000D03*
X157162500Y-106426000D03*
X154622500Y-106426000D03*
X157162500Y-103886000D03*
X154622500Y-103886000D03*
X157162500Y-101346000D03*
X154622500Y-101346000D03*
D15*
X154622500Y-111506000D03*
X172402500Y-96266000D03*
D16*
X172402500Y-93726000D03*
X169862500Y-93726000D03*
X172402500Y-91186000D03*
X169862500Y-91186000D03*
D15*
X169862500Y-96266000D03*
X162242500Y-108966000D03*
D16*
X162242500Y-106426000D03*
X162242500Y-103886000D03*
X162242500Y-101346000D03*
D15*
X167322500Y-108966000D03*
D16*
X167322500Y-106426000D03*
X167322500Y-103886000D03*
D19*
X117983000Y-96520000D03*
D20*
X125603000Y-104140000D03*
X117983000Y-99060000D03*
X125603000Y-101600000D03*
X117983000Y-101600000D03*
X125603000Y-99060000D03*
X117983000Y-104140000D03*
X125603000Y-96520000D03*
G04 #@! TA.AperFunction,SMDPad,CuDef*
D11*
G36*
X147656000Y-93316500D02*
G01*
X146506000Y-93316500D01*
X147006000Y-92566500D01*
X146506000Y-91816500D01*
X147656000Y-91816500D01*
X147656000Y-93316500D01*
G37*
G04 #@! TD.AperFunction*
G04 #@! TA.AperFunction,SMDPad,CuDef*
G36*
X146706000Y-92566500D02*
G01*
X146206000Y-93316500D01*
X145206000Y-93316500D01*
X145206000Y-91816500D01*
X146206000Y-91816500D01*
X146706000Y-92566500D01*
G37*
G04 #@! TD.AperFunction*
D21*
X118935500Y-132778500D03*
D22*
X118935500Y-137858500D03*
D23*
X140970000Y-123000000D03*
G04 #@! TA.AperFunction,SMDPad,CuDef*
G36*
G01*
X119683500Y-92636500D02*
X119683500Y-91386500D01*
G75*
G02*
X119933500Y-91136500I250000J0D01*
G01*
X120858500Y-91136500D01*
G75*
G02*
X121108500Y-91386500I0J-250000D01*
G01*
X121108500Y-92636500D01*
G75*
G02*
X120858500Y-92886500I-250000J0D01*
G01*
X119933500Y-92886500D01*
G75*
G02*
X119683500Y-92636500I0J250000D01*
G01*
G37*
G04 #@! TD.AperFunction*
G04 #@! TA.AperFunction,SMDPad,CuDef*
G36*
G01*
X122658500Y-92636500D02*
X122658500Y-91386500D01*
G75*
G02*
X122908500Y-91136500I250000J0D01*
G01*
X123833500Y-91136500D01*
G75*
G02*
X124083500Y-91386500I0J-250000D01*
G01*
X124083500Y-92636500D01*
G75*
G02*
X123833500Y-92886500I-250000J0D01*
G01*
X122908500Y-92886500D01*
G75*
G02*
X122658500Y-92636500I0J250000D01*
G01*
G37*
G04 #@! TD.AperFunction*
G04 #@! TA.AperFunction,SMDPad,CuDef*
G36*
G01*
X144140500Y-73967500D02*
X144140500Y-72717500D01*
G75*
G02*
X144390500Y-72467500I250000J0D01*
G01*
X145315500Y-72467500D01*
G75*
G02*
X145565500Y-72717500I0J-250000D01*
G01*
X145565500Y-73967500D01*
G75*
G02*
X145315500Y-74217500I-250000J0D01*
G01*
X144390500Y-74217500D01*
G75*
G02*
X144140500Y-73967500I0J250000D01*
G01*
G37*
G04 #@! TD.AperFunction*
G04 #@! TA.AperFunction,SMDPad,CuDef*
G36*
G01*
X147115500Y-73967500D02*
X147115500Y-72717500D01*
G75*
G02*
X147365500Y-72467500I250000J0D01*
G01*
X148290500Y-72467500D01*
G75*
G02*
X148540500Y-72717500I0J-250000D01*
G01*
X148540500Y-73967500D01*
G75*
G02*
X148290500Y-74217500I-250000J0D01*
G01*
X147365500Y-74217500D01*
G75*
G02*
X147115500Y-73967500I0J250000D01*
G01*
G37*
G04 #@! TD.AperFunction*
G04 #@! TA.AperFunction,SMDPad,CuDef*
G36*
G01*
X138697000Y-73967500D02*
X138697000Y-72717500D01*
G75*
G02*
X138947000Y-72467500I250000J0D01*
G01*
X139872000Y-72467500D01*
G75*
G02*
X140122000Y-72717500I0J-250000D01*
G01*
X140122000Y-73967500D01*
G75*
G02*
X139872000Y-74217500I-250000J0D01*
G01*
X138947000Y-74217500D01*
G75*
G02*
X138697000Y-73967500I0J250000D01*
G01*
G37*
G04 #@! TD.AperFunction*
G04 #@! TA.AperFunction,SMDPad,CuDef*
G36*
G01*
X135722000Y-73967500D02*
X135722000Y-72717500D01*
G75*
G02*
X135972000Y-72467500I250000J0D01*
G01*
X136897000Y-72467500D01*
G75*
G02*
X137147000Y-72717500I0J-250000D01*
G01*
X137147000Y-73967500D01*
G75*
G02*
X136897000Y-74217500I-250000J0D01*
G01*
X135972000Y-74217500D01*
G75*
G02*
X135722000Y-73967500I0J250000D01*
G01*
G37*
G04 #@! TD.AperFunction*
D15*
X164782500Y-96266000D03*
D16*
X164782500Y-93726000D03*
X164782500Y-91186000D03*
D24*
X135191500Y-114490500D03*
X135191500Y-111950500D03*
X135191500Y-109410500D03*
X135191500Y-106870500D03*
X135191500Y-104330500D03*
X135191500Y-101790500D03*
X135191500Y-99250500D03*
X135191500Y-96710500D03*
X135191500Y-94170500D03*
X135191500Y-91630500D03*
X135191500Y-89090500D03*
X135191500Y-86550500D03*
X135191500Y-84010500D03*
D19*
X135191500Y-81470500D03*
D24*
X150431500Y-114490500D03*
X150431500Y-111950500D03*
X150431500Y-109410500D03*
X150431500Y-106870500D03*
X150431500Y-104330500D03*
X150431500Y-101790500D03*
X150431500Y-99250500D03*
X150431500Y-96710500D03*
X150431500Y-94170500D03*
X150431500Y-91630500D03*
X150431500Y-89090500D03*
X150431500Y-86550500D03*
X150431500Y-84010500D03*
X150431500Y-81470500D03*
D25*
X145706000Y-94906000D03*
X148082000Y-99650501D03*
X147101723Y-98395243D03*
X152552000Y-116738000D03*
X129052791Y-77068209D03*
X125476000Y-108712000D03*
X133159500Y-76454000D03*
X138049000Y-81470500D03*
D26*
X151562870Y-99250500D02*
X150431500Y-99250500D01*
X154266002Y-99250500D02*
X151562870Y-99250500D01*
X155797501Y-100781999D02*
X154266002Y-99250500D01*
X155797501Y-101910001D02*
X155797501Y-100781999D01*
X156408501Y-102521001D02*
X155797501Y-101910001D01*
X163981502Y-103886000D02*
X162616503Y-102521001D01*
X162616503Y-102521001D02*
X156408501Y-102521001D01*
X167322500Y-103886000D02*
X163981502Y-103886000D01*
X171552501Y-104735999D02*
X172402500Y-103886000D01*
X153891999Y-105250999D02*
X171037501Y-105250999D01*
X171037501Y-105250999D02*
X171552501Y-104735999D01*
X150431500Y-101790500D02*
X153891999Y-105250999D01*
X145706000Y-102145000D02*
X150431500Y-106870500D01*
X145706000Y-94906000D02*
X145706000Y-102145000D01*
X145706000Y-92566500D02*
X145706000Y-94906000D01*
X155714001Y-87173499D02*
X156464000Y-86423500D01*
X155714001Y-88013001D02*
X155714001Y-87173499D01*
X150971501Y-92755501D02*
X155714001Y-88013001D01*
X147945001Y-92755501D02*
X150971501Y-92755501D01*
X147756000Y-92566500D02*
X147945001Y-92755501D01*
X147156000Y-92566500D02*
X147756000Y-92566500D01*
X150681503Y-95585499D02*
X147937001Y-95585499D01*
X153716003Y-92550999D02*
X150681503Y-95585499D01*
X157162500Y-91186000D02*
X155797501Y-92550999D01*
X155797501Y-92550999D02*
X153716003Y-92550999D01*
X147937001Y-95585499D02*
X146156010Y-97366490D01*
X146156010Y-100055010D02*
X150431500Y-104330500D01*
X146156010Y-97366490D02*
X146156010Y-100055010D01*
X148807000Y-100375501D02*
X148082000Y-99650501D01*
X156312501Y-103036001D02*
X155511503Y-103036001D01*
X157162500Y-103886000D02*
X156312501Y-103036001D01*
X155511503Y-103036001D02*
X155186501Y-102710999D01*
X155186501Y-102710999D02*
X153017001Y-102710999D01*
X153017001Y-102710999D02*
X150681503Y-100375501D01*
X150681503Y-100375501D02*
X148807000Y-100375501D01*
X156312501Y-100496001D02*
X157162500Y-101346000D01*
X153811744Y-97995244D02*
X156312501Y-100496001D01*
X147501722Y-97995244D02*
X153811744Y-97995244D01*
X147101723Y-98395243D02*
X147501722Y-97995244D01*
X157709501Y-118403001D02*
X158559500Y-119253000D01*
X155987499Y-116680999D02*
X157709501Y-118403001D01*
X155987499Y-110585997D02*
X155987499Y-116680999D01*
X155732501Y-110330999D02*
X155987499Y-110585997D01*
X151351999Y-110330999D02*
X155732501Y-110330999D01*
X150431500Y-109410500D02*
X151351999Y-110330999D01*
X147140000Y-123000000D02*
X147140000Y-122150000D01*
X154622500Y-112606000D02*
X154622500Y-111506000D01*
X154622500Y-114667500D02*
X154622500Y-112606000D01*
X123371000Y-94288000D02*
X125603000Y-96520000D01*
X123371000Y-92011500D02*
X123371000Y-94288000D01*
X123371000Y-87311500D02*
X131879000Y-78803500D01*
X123371000Y-92011500D02*
X123371000Y-87311500D01*
X147140000Y-122150000D02*
X152552000Y-116738000D01*
X152552000Y-116738000D02*
X154622500Y-114667500D01*
X132778500Y-73342500D02*
X129052791Y-77068209D01*
X136434500Y-73342500D02*
X132778500Y-73342500D01*
X135064500Y-81343500D02*
X135191500Y-81470500D01*
X131879000Y-81343500D02*
X135064500Y-81343500D01*
X166354000Y-83883500D02*
X165354000Y-83883500D01*
X171064581Y-83883500D02*
X166354000Y-83883500D01*
X174434500Y-80513581D02*
X171064581Y-83883500D01*
X174434500Y-79311500D02*
X174434500Y-80513581D01*
X173252499Y-92876001D02*
X172402500Y-93726000D01*
X173577501Y-92550999D02*
X173252499Y-92876001D01*
X173577501Y-90621999D02*
X173577501Y-92550999D01*
X166839002Y-83883500D02*
X173577501Y-90621999D01*
X165354000Y-83883500D02*
X166839002Y-83883500D01*
X172402500Y-93726000D02*
X154622500Y-93726000D01*
X162242500Y-106426000D02*
X172402500Y-106426000D01*
X159702500Y-106426000D02*
X162242500Y-106426000D01*
X157162500Y-108966000D02*
X159702500Y-106426000D01*
X125513000Y-118300500D02*
X125513000Y-108749000D01*
X125513000Y-108749000D02*
X125476000Y-108712000D01*
X139970000Y-123000000D02*
X140970000Y-123000000D01*
X129362500Y-123000000D02*
X139970000Y-123000000D01*
X125513000Y-119150500D02*
X129362500Y-123000000D01*
X125513000Y-118300500D02*
X125513000Y-119150500D01*
X155824581Y-108966000D02*
X157162500Y-108966000D01*
X154622500Y-108966000D02*
X155824581Y-108966000D01*
X153772501Y-108116001D02*
X154622500Y-108966000D01*
X150060997Y-108116001D02*
X153772501Y-108116001D01*
X149306499Y-108870499D02*
X150060997Y-108116001D01*
X149306499Y-115663501D02*
X149306499Y-108870499D01*
X141970000Y-123000000D02*
X149306499Y-115663501D01*
X140970000Y-123000000D02*
X141970000Y-123000000D01*
X161099500Y-112903000D02*
X157162500Y-108966000D01*
X161099500Y-119253000D02*
X161099500Y-112903000D01*
X151231499Y-85750501D02*
X150431500Y-86550500D01*
X152348501Y-84633499D02*
X151231499Y-85750501D01*
X156984001Y-84633499D02*
X152348501Y-84633499D01*
X157734000Y-83883500D02*
X156984001Y-84633499D01*
X164782500Y-96266000D02*
X172402500Y-96266000D01*
X163342500Y-108966000D02*
X172402500Y-108966000D01*
X162242500Y-108966000D02*
X163342500Y-108966000D01*
X155722500Y-96266000D02*
X172402500Y-96266000D01*
X154622500Y-96266000D02*
X155722500Y-96266000D01*
X149631501Y-88290501D02*
X150431500Y-89090500D01*
X144226499Y-82885499D02*
X149631501Y-88290501D01*
X134651499Y-82885499D02*
X144226499Y-82885499D01*
X133616489Y-83920509D02*
X134651499Y-82885499D01*
X133616489Y-86425013D02*
X133616489Y-83920509D01*
X132443001Y-87598501D02*
X133616489Y-86425013D01*
X131504997Y-87598501D02*
X132443001Y-87598501D01*
X129803979Y-89299519D02*
X131504997Y-87598501D01*
X129803979Y-99064023D02*
X129803979Y-89299519D01*
X126143001Y-102725001D02*
X129803979Y-99064023D01*
X122662999Y-102725001D02*
X126143001Y-102725001D01*
X117184000Y-108204000D02*
X122662999Y-102725001D01*
X162064001Y-84633499D02*
X162814000Y-83883500D01*
X161613991Y-85083509D02*
X162064001Y-84633499D01*
X156212989Y-85083509D02*
X161613991Y-85083509D01*
X152205998Y-89090500D02*
X156212989Y-85083509D01*
X150431500Y-89090500D02*
X152205998Y-89090500D01*
X149631501Y-90830501D02*
X150431500Y-91630500D01*
X149306499Y-90505499D02*
X149631501Y-90830501D01*
X134651499Y-90505499D02*
X149306499Y-90505499D01*
X131504997Y-92678501D02*
X132478497Y-92678501D01*
X130253989Y-93929509D02*
X131504997Y-92678501D01*
X132478497Y-92678501D02*
X134651499Y-90505499D01*
X130253989Y-101154013D02*
X130253989Y-93929509D01*
X120092502Y-111315500D02*
X130253989Y-101154013D01*
X117120500Y-111315500D02*
X120092502Y-111315500D01*
X132728999Y-88113501D02*
X131879000Y-88963500D01*
X134066499Y-86776001D02*
X132728999Y-88113501D01*
X134066499Y-85135501D02*
X134066499Y-86776001D01*
X135191500Y-84010500D02*
X134066499Y-85135501D01*
X132728999Y-90653501D02*
X131879000Y-91503500D01*
X132728999Y-89887999D02*
X132728999Y-90653501D01*
X135191500Y-87425498D02*
X132728999Y-89887999D01*
X135191500Y-86550500D02*
X135191500Y-87425498D01*
X131029001Y-94893499D02*
X131879000Y-94043500D01*
X130703999Y-95218501D02*
X131029001Y-94893499D01*
X130703999Y-114559501D02*
X130703999Y-95218501D01*
X126963000Y-118300500D02*
X130703999Y-114559501D01*
X115734000Y-88238500D02*
X115734000Y-108204000D01*
X111379000Y-83883500D02*
X115734000Y-88238500D01*
X115099790Y-110744790D02*
X115670500Y-111315500D01*
X112554001Y-108199001D02*
X115099790Y-110744790D01*
X112554001Y-87598501D02*
X112554001Y-108199001D01*
X111379000Y-86423500D02*
X112554001Y-87598501D01*
X128206500Y-83276998D02*
X128206500Y-96393000D01*
X131504997Y-79978501D02*
X128206500Y-83276998D01*
X147828000Y-73342500D02*
X141191999Y-79978501D01*
X141191999Y-79978501D02*
X131504997Y-79978501D01*
X118782999Y-100800001D02*
X117983000Y-101600000D01*
X121648001Y-97934999D02*
X118782999Y-100800001D01*
X126664501Y-97934999D02*
X121648001Y-97934999D01*
X128206500Y-96393000D02*
X126664501Y-97934999D01*
X118782999Y-98260001D02*
X117983000Y-99060000D01*
X119108001Y-97934999D02*
X118782999Y-98260001D01*
X119108001Y-93299499D02*
X119108001Y-97934999D01*
X120396000Y-92011500D02*
X119108001Y-93299499D01*
X120396000Y-91036500D02*
X120396000Y-92011500D01*
X120396000Y-89650090D02*
X120396000Y-91036500D01*
X132905508Y-72142490D02*
X127333501Y-77714497D01*
X127333501Y-82712589D02*
X120396000Y-89650090D01*
X148528680Y-72142490D02*
X132905508Y-72142490D01*
X148865510Y-74054012D02*
X148865510Y-72479320D01*
X154269999Y-79458501D02*
X148865510Y-74054012D01*
X148865510Y-72479320D02*
X148528680Y-72142490D01*
X167548001Y-79458501D02*
X154269999Y-79458501D01*
X167695002Y-79311500D02*
X167548001Y-79458501D01*
X127333501Y-77714497D02*
X127333501Y-82712589D01*
X171894500Y-79311500D02*
X167695002Y-79311500D01*
X153669500Y-128079500D02*
X148590000Y-123000000D01*
X166560500Y-128079500D02*
X153669500Y-128079500D01*
X139409500Y-73342500D02*
X144853000Y-73342500D01*
X139409500Y-73342500D02*
X136298000Y-76454000D01*
X136298000Y-76454000D02*
X133159500Y-76454000D01*
X143447910Y-81470500D02*
X138049000Y-81470500D01*
X144785909Y-82808499D02*
X143447910Y-81470500D01*
X164782500Y-91186000D02*
X165632499Y-90336001D01*
X165632499Y-86247001D02*
X164002062Y-84616564D01*
X165632499Y-90336001D02*
X165632499Y-86247001D01*
X164002062Y-84616564D02*
X164002062Y-83480560D01*
X164002062Y-83480560D02*
X163330001Y-82808499D01*
X163330001Y-82808499D02*
X144785909Y-82808499D01*
M02*
