G04 #@! TF.GenerationSoftware,KiCad,Pcbnew,(5.1.6)-1*
G04 #@! TF.CreationDate,2021-07-19T20:32:28-05:00*
G04 #@! TF.ProjectId,PotentiometerToServoWire,506f7465-6e74-4696-9f6d-65746572546f,rev?*
G04 #@! TF.SameCoordinates,Original*
G04 #@! TF.FileFunction,Legend,Top*
G04 #@! TF.FilePolarity,Positive*
%FSLAX46Y46*%
G04 Gerber Fmt 4.6, Leading zero omitted, Abs format (unit mm)*
G04 Created by KiCad (PCBNEW (5.1.6)-1) date 2021-07-19 20:32:28*
%MOMM*%
%LPD*%
G01*
G04 APERTURE LIST*
%ADD10C,0.127000*%
%ADD11C,0.203200*%
%ADD12C,0.139700*%
%ADD13C,0.133350*%
%ADD14C,0.114300*%
%ADD15C,0.120000*%
%ADD16C,0.150000*%
G04 APERTURE END LIST*
D10*
X136062357Y-98712261D02*
X136062357Y-98077261D01*
X136304261Y-98077261D01*
X136364738Y-98107500D01*
X136394976Y-98137738D01*
X136425214Y-98198214D01*
X136425214Y-98288928D01*
X136394976Y-98349404D01*
X136364738Y-98379642D01*
X136304261Y-98409880D01*
X136062357Y-98409880D01*
X136788071Y-98712261D02*
X136727595Y-98682023D01*
X136697357Y-98651785D01*
X136667119Y-98591309D01*
X136667119Y-98409880D01*
X136697357Y-98349404D01*
X136727595Y-98319166D01*
X136788071Y-98288928D01*
X136878785Y-98288928D01*
X136939261Y-98319166D01*
X136969500Y-98349404D01*
X136999738Y-98409880D01*
X136999738Y-98591309D01*
X136969500Y-98651785D01*
X136939261Y-98682023D01*
X136878785Y-98712261D01*
X136788071Y-98712261D01*
X137181166Y-98288928D02*
X137423071Y-98288928D01*
X137271880Y-98077261D02*
X137271880Y-98621547D01*
X137302119Y-98682023D01*
X137362595Y-98712261D01*
X137423071Y-98712261D01*
X137876642Y-98682023D02*
X137816166Y-98712261D01*
X137695214Y-98712261D01*
X137634738Y-98682023D01*
X137604500Y-98621547D01*
X137604500Y-98379642D01*
X137634738Y-98319166D01*
X137695214Y-98288928D01*
X137816166Y-98288928D01*
X137876642Y-98319166D01*
X137906880Y-98379642D01*
X137906880Y-98440119D01*
X137604500Y-98500595D01*
X138179023Y-98288928D02*
X138179023Y-98712261D01*
X138179023Y-98349404D02*
X138209261Y-98319166D01*
X138269738Y-98288928D01*
X138360452Y-98288928D01*
X138420928Y-98319166D01*
X138451166Y-98379642D01*
X138451166Y-98712261D01*
X138662833Y-98288928D02*
X138904738Y-98288928D01*
X138753547Y-98077261D02*
X138753547Y-98621547D01*
X138783785Y-98682023D01*
X138844261Y-98712261D01*
X138904738Y-98712261D01*
X139116404Y-98712261D02*
X139116404Y-98288928D01*
X139116404Y-98077261D02*
X139086166Y-98107500D01*
X139116404Y-98137738D01*
X139146642Y-98107500D01*
X139116404Y-98077261D01*
X139116404Y-98137738D01*
X139509500Y-98712261D02*
X139449023Y-98682023D01*
X139418785Y-98651785D01*
X139388547Y-98591309D01*
X139388547Y-98409880D01*
X139418785Y-98349404D01*
X139449023Y-98319166D01*
X139509500Y-98288928D01*
X139600214Y-98288928D01*
X139660690Y-98319166D01*
X139690928Y-98349404D01*
X139721166Y-98409880D01*
X139721166Y-98591309D01*
X139690928Y-98651785D01*
X139660690Y-98682023D01*
X139600214Y-98712261D01*
X139509500Y-98712261D01*
X139993309Y-98712261D02*
X139993309Y-98288928D01*
X139993309Y-98349404D02*
X140023547Y-98319166D01*
X140084023Y-98288928D01*
X140174738Y-98288928D01*
X140235214Y-98319166D01*
X140265452Y-98379642D01*
X140265452Y-98712261D01*
X140265452Y-98379642D02*
X140295690Y-98319166D01*
X140356166Y-98288928D01*
X140446880Y-98288928D01*
X140507357Y-98319166D01*
X140537595Y-98379642D01*
X140537595Y-98712261D01*
X141081880Y-98682023D02*
X141021404Y-98712261D01*
X140900452Y-98712261D01*
X140839976Y-98682023D01*
X140809738Y-98621547D01*
X140809738Y-98379642D01*
X140839976Y-98319166D01*
X140900452Y-98288928D01*
X141021404Y-98288928D01*
X141081880Y-98319166D01*
X141112119Y-98379642D01*
X141112119Y-98440119D01*
X140809738Y-98500595D01*
X141293547Y-98288928D02*
X141535452Y-98288928D01*
X141384261Y-98077261D02*
X141384261Y-98621547D01*
X141414500Y-98682023D01*
X141474976Y-98712261D01*
X141535452Y-98712261D01*
X141989023Y-98682023D02*
X141928547Y-98712261D01*
X141807595Y-98712261D01*
X141747119Y-98682023D01*
X141716880Y-98621547D01*
X141716880Y-98379642D01*
X141747119Y-98319166D01*
X141807595Y-98288928D01*
X141928547Y-98288928D01*
X141989023Y-98319166D01*
X142019261Y-98379642D01*
X142019261Y-98440119D01*
X141716880Y-98500595D01*
X142291404Y-98712261D02*
X142291404Y-98288928D01*
X142291404Y-98409880D02*
X142321642Y-98349404D01*
X142351880Y-98319166D01*
X142412357Y-98288928D01*
X142472833Y-98288928D01*
X143379976Y-98379642D02*
X143470690Y-98409880D01*
X143500928Y-98440119D01*
X143531166Y-98500595D01*
X143531166Y-98591309D01*
X143500928Y-98651785D01*
X143470690Y-98682023D01*
X143410214Y-98712261D01*
X143168309Y-98712261D01*
X143168309Y-98077261D01*
X143379976Y-98077261D01*
X143440452Y-98107500D01*
X143470690Y-98137738D01*
X143500928Y-98198214D01*
X143500928Y-98258690D01*
X143470690Y-98319166D01*
X143440452Y-98349404D01*
X143379976Y-98379642D01*
X143168309Y-98379642D01*
X143803309Y-98712261D02*
X143803309Y-98288928D01*
X143803309Y-98409880D02*
X143833547Y-98349404D01*
X143863785Y-98319166D01*
X143924261Y-98288928D01*
X143984738Y-98288928D01*
X144438309Y-98682023D02*
X144377833Y-98712261D01*
X144256880Y-98712261D01*
X144196404Y-98682023D01*
X144166166Y-98621547D01*
X144166166Y-98379642D01*
X144196404Y-98319166D01*
X144256880Y-98288928D01*
X144377833Y-98288928D01*
X144438309Y-98319166D01*
X144468547Y-98379642D01*
X144468547Y-98440119D01*
X144166166Y-98500595D01*
X145012833Y-98712261D02*
X145012833Y-98379642D01*
X144982595Y-98319166D01*
X144922119Y-98288928D01*
X144801166Y-98288928D01*
X144740690Y-98319166D01*
X145012833Y-98682023D02*
X144952357Y-98712261D01*
X144801166Y-98712261D01*
X144740690Y-98682023D01*
X144710452Y-98621547D01*
X144710452Y-98561071D01*
X144740690Y-98500595D01*
X144801166Y-98470357D01*
X144952357Y-98470357D01*
X145012833Y-98440119D01*
X145315214Y-98712261D02*
X145315214Y-98077261D01*
X145375690Y-98470357D02*
X145557119Y-98712261D01*
X145557119Y-98288928D02*
X145315214Y-98530833D01*
X145919976Y-98712261D02*
X145859500Y-98682023D01*
X145829261Y-98651785D01*
X145799023Y-98591309D01*
X145799023Y-98409880D01*
X145829261Y-98349404D01*
X145859500Y-98319166D01*
X145919976Y-98288928D01*
X146010690Y-98288928D01*
X146071166Y-98319166D01*
X146101404Y-98349404D01*
X146131642Y-98409880D01*
X146131642Y-98591309D01*
X146101404Y-98651785D01*
X146071166Y-98682023D01*
X146010690Y-98712261D01*
X145919976Y-98712261D01*
X146675928Y-98288928D02*
X146675928Y-98712261D01*
X146403785Y-98288928D02*
X146403785Y-98621547D01*
X146434023Y-98682023D01*
X146494500Y-98712261D01*
X146585214Y-98712261D01*
X146645690Y-98682023D01*
X146675928Y-98651785D01*
X146887595Y-98288928D02*
X147129500Y-98288928D01*
X146978309Y-98077261D02*
X146978309Y-98621547D01*
X147008547Y-98682023D01*
X147069023Y-98712261D01*
X147129500Y-98712261D01*
X147734261Y-98077261D02*
X147945928Y-98712261D01*
X148157595Y-98077261D01*
X148671642Y-98077261D02*
X148369261Y-98077261D01*
X148339023Y-98379642D01*
X148369261Y-98349404D01*
X148429738Y-98319166D01*
X148580928Y-98319166D01*
X148641404Y-98349404D01*
X148671642Y-98379642D01*
X148701880Y-98440119D01*
X148701880Y-98591309D01*
X148671642Y-98651785D01*
X148641404Y-98682023D01*
X148580928Y-98712261D01*
X148429738Y-98712261D01*
X148369261Y-98682023D01*
X148339023Y-98651785D01*
D11*
X139308857Y-86880571D02*
X139308857Y-85719428D01*
X139889428Y-86300000D02*
X138728285Y-86300000D01*
D12*
X139128500Y-96055500D02*
X139043833Y-96013166D01*
X138916833Y-96013166D01*
X138789833Y-96055500D01*
X138705166Y-96140166D01*
X138662833Y-96224833D01*
X138620500Y-96394166D01*
X138620500Y-96521166D01*
X138662833Y-96690500D01*
X138705166Y-96775166D01*
X138789833Y-96859833D01*
X138916833Y-96902166D01*
X139001500Y-96902166D01*
X139128500Y-96859833D01*
X139170833Y-96817500D01*
X139170833Y-96521166D01*
X139001500Y-96521166D01*
X139551833Y-96309500D02*
X139551833Y-96902166D01*
X139551833Y-96394166D02*
X139594166Y-96351833D01*
X139678833Y-96309500D01*
X139805833Y-96309500D01*
X139890500Y-96351833D01*
X139932833Y-96436500D01*
X139932833Y-96902166D01*
X140737166Y-96902166D02*
X140737166Y-96013166D01*
X140737166Y-96859833D02*
X140652500Y-96902166D01*
X140483166Y-96902166D01*
X140398500Y-96859833D01*
X140356166Y-96817500D01*
X140313833Y-96732833D01*
X140313833Y-96478833D01*
X140356166Y-96394166D01*
X140398500Y-96351833D01*
X140483166Y-96309500D01*
X140652500Y-96309500D01*
X140737166Y-96351833D01*
D13*
X138575142Y-91748428D02*
X138684000Y-91784714D01*
X138865428Y-91784714D01*
X138938000Y-91748428D01*
X138974285Y-91712142D01*
X139010571Y-91639571D01*
X139010571Y-91567000D01*
X138974285Y-91494428D01*
X138938000Y-91458142D01*
X138865428Y-91421857D01*
X138720285Y-91385571D01*
X138647714Y-91349285D01*
X138611428Y-91313000D01*
X138575142Y-91240428D01*
X138575142Y-91167857D01*
X138611428Y-91095285D01*
X138647714Y-91059000D01*
X138720285Y-91022714D01*
X138901714Y-91022714D01*
X139010571Y-91059000D01*
X139337142Y-91784714D02*
X139337142Y-91276714D01*
X139337142Y-91022714D02*
X139300857Y-91059000D01*
X139337142Y-91095285D01*
X139373428Y-91059000D01*
X139337142Y-91022714D01*
X139337142Y-91095285D01*
X140026571Y-91276714D02*
X140026571Y-91893571D01*
X139990285Y-91966142D01*
X139954000Y-92002428D01*
X139881428Y-92038714D01*
X139772571Y-92038714D01*
X139700000Y-92002428D01*
X140026571Y-91748428D02*
X139954000Y-91784714D01*
X139808857Y-91784714D01*
X139736285Y-91748428D01*
X139700000Y-91712142D01*
X139663714Y-91639571D01*
X139663714Y-91421857D01*
X139700000Y-91349285D01*
X139736285Y-91313000D01*
X139808857Y-91276714D01*
X139954000Y-91276714D01*
X140026571Y-91313000D01*
X140389428Y-91276714D02*
X140389428Y-91784714D01*
X140389428Y-91349285D02*
X140425714Y-91313000D01*
X140498285Y-91276714D01*
X140607142Y-91276714D01*
X140679714Y-91313000D01*
X140716000Y-91385571D01*
X140716000Y-91784714D01*
X141405428Y-91784714D02*
X141405428Y-91385571D01*
X141369142Y-91313000D01*
X141296571Y-91276714D01*
X141151428Y-91276714D01*
X141078857Y-91313000D01*
X141405428Y-91748428D02*
X141332857Y-91784714D01*
X141151428Y-91784714D01*
X141078857Y-91748428D01*
X141042571Y-91675857D01*
X141042571Y-91603285D01*
X141078857Y-91530714D01*
X141151428Y-91494428D01*
X141332857Y-91494428D01*
X141405428Y-91458142D01*
X141877142Y-91784714D02*
X141804571Y-91748428D01*
X141768285Y-91675857D01*
X141768285Y-91022714D01*
D14*
X150557023Y-92560714D02*
X150587261Y-92470000D01*
X150587261Y-92318809D01*
X150557023Y-92258333D01*
X150526785Y-92228095D01*
X150466309Y-92197857D01*
X150405833Y-92197857D01*
X150345357Y-92228095D01*
X150315119Y-92258333D01*
X150284880Y-92318809D01*
X150254642Y-92439761D01*
X150224404Y-92500238D01*
X150194166Y-92530476D01*
X150133690Y-92560714D01*
X150073214Y-92560714D01*
X150012738Y-92530476D01*
X149982500Y-92500238D01*
X149952261Y-92439761D01*
X149952261Y-92288571D01*
X149982500Y-92197857D01*
X150587261Y-91925714D02*
X150163928Y-91925714D01*
X149952261Y-91925714D02*
X149982500Y-91955952D01*
X150012738Y-91925714D01*
X149982500Y-91895476D01*
X149952261Y-91925714D01*
X150012738Y-91925714D01*
X150163928Y-91351190D02*
X150677976Y-91351190D01*
X150738452Y-91381428D01*
X150768690Y-91411666D01*
X150798928Y-91472142D01*
X150798928Y-91562857D01*
X150768690Y-91623333D01*
X150557023Y-91351190D02*
X150587261Y-91411666D01*
X150587261Y-91532619D01*
X150557023Y-91593095D01*
X150526785Y-91623333D01*
X150466309Y-91653571D01*
X150284880Y-91653571D01*
X150224404Y-91623333D01*
X150194166Y-91593095D01*
X150163928Y-91532619D01*
X150163928Y-91411666D01*
X150194166Y-91351190D01*
X150163928Y-91048809D02*
X150587261Y-91048809D01*
X150224404Y-91048809D02*
X150194166Y-91018571D01*
X150163928Y-90958095D01*
X150163928Y-90867380D01*
X150194166Y-90806904D01*
X150254642Y-90776666D01*
X150587261Y-90776666D01*
X150587261Y-90202142D02*
X150254642Y-90202142D01*
X150194166Y-90232380D01*
X150163928Y-90292857D01*
X150163928Y-90413809D01*
X150194166Y-90474285D01*
X150557023Y-90202142D02*
X150587261Y-90262619D01*
X150587261Y-90413809D01*
X150557023Y-90474285D01*
X150496547Y-90504523D01*
X150436071Y-90504523D01*
X150375595Y-90474285D01*
X150345357Y-90413809D01*
X150345357Y-90262619D01*
X150315119Y-90202142D01*
X150587261Y-89809047D02*
X150557023Y-89869523D01*
X150496547Y-89899761D01*
X149952261Y-89899761D01*
D11*
X150408857Y-88480571D02*
X150408857Y-87319428D01*
X150989428Y-87900000D02*
X149828285Y-87900000D01*
D10*
X150019000Y-94989857D02*
X149982714Y-95062428D01*
X149982714Y-95171285D01*
X150019000Y-95280142D01*
X150091571Y-95352714D01*
X150164142Y-95389000D01*
X150309285Y-95425285D01*
X150418142Y-95425285D01*
X150563285Y-95389000D01*
X150635857Y-95352714D01*
X150708428Y-95280142D01*
X150744714Y-95171285D01*
X150744714Y-95098714D01*
X150708428Y-94989857D01*
X150672142Y-94953571D01*
X150418142Y-94953571D01*
X150418142Y-95098714D01*
X150236714Y-94627000D02*
X150744714Y-94627000D01*
X150309285Y-94627000D02*
X150273000Y-94590714D01*
X150236714Y-94518142D01*
X150236714Y-94409285D01*
X150273000Y-94336714D01*
X150345571Y-94300428D01*
X150744714Y-94300428D01*
X150744714Y-93611000D02*
X149982714Y-93611000D01*
X150708428Y-93611000D02*
X150744714Y-93683571D01*
X150744714Y-93828714D01*
X150708428Y-93901285D01*
X150672142Y-93937571D01*
X150599571Y-93973857D01*
X150381857Y-93973857D01*
X150309285Y-93937571D01*
X150273000Y-93901285D01*
X150236714Y-93828714D01*
X150236714Y-93683571D01*
X150273000Y-93611000D01*
D15*
X134620000Y-85090000D02*
X134620000Y-97790000D01*
X134620000Y-97790000D02*
X142240000Y-97790000D01*
X142240000Y-97790000D02*
X142240000Y-85090000D01*
X142240000Y-85090000D02*
X134620000Y-85090000D01*
X133350000Y-88900000D02*
X133350000Y-93980000D01*
X133350000Y-93980000D02*
X135890000Y-93980000D01*
X135890000Y-93980000D02*
X135890000Y-88900000D01*
X135890000Y-88900000D02*
X133350000Y-88900000D01*
X149260000Y-86240000D02*
X143290000Y-86240000D01*
X143290000Y-86240000D02*
X143290000Y-96360000D01*
X143290000Y-96360000D02*
X149260000Y-96360000D01*
X149260000Y-96360000D02*
X149260000Y-86240000D01*
X149250000Y-89550000D02*
X148500000Y-89550000D01*
X148500000Y-89550000D02*
X148500000Y-93050000D01*
X148500000Y-93050000D02*
X149250000Y-93050000D01*
X149250000Y-93050000D02*
X149250000Y-89550000D01*
X149250000Y-86250000D02*
X148500000Y-86250000D01*
X148500000Y-86250000D02*
X148500000Y-88050000D01*
X148500000Y-88050000D02*
X149250000Y-88050000D01*
X149250000Y-88050000D02*
X149250000Y-86250000D01*
X149250000Y-94550000D02*
X148500000Y-94550000D01*
X148500000Y-94550000D02*
X148500000Y-96350000D01*
X148500000Y-96350000D02*
X149250000Y-96350000D01*
X149250000Y-96350000D02*
X149250000Y-94550000D01*
X147000000Y-86250000D02*
X147000000Y-87000000D01*
X147000000Y-87000000D02*
X144050000Y-87000000D01*
X144050000Y-87000000D02*
X144050000Y-91300000D01*
X147000000Y-96350000D02*
X147000000Y-95600000D01*
X147000000Y-95600000D02*
X144050000Y-95600000D01*
X144050000Y-95600000D02*
X144050000Y-91300000D01*
X149550000Y-87200000D02*
X149550000Y-85950000D01*
X149550000Y-85950000D02*
X148300000Y-85950000D01*
D16*
X136564761Y-94432380D02*
X136231428Y-93956190D01*
X135993333Y-94432380D02*
X135993333Y-93432380D01*
X136374285Y-93432380D01*
X136469523Y-93480000D01*
X136517142Y-93527619D01*
X136564761Y-93622857D01*
X136564761Y-93765714D01*
X136517142Y-93860952D01*
X136469523Y-93908571D01*
X136374285Y-93956190D01*
X135993333Y-93956190D01*
X136850476Y-93432380D02*
X137183809Y-94432380D01*
X137517142Y-93432380D01*
X138374285Y-94432380D02*
X137802857Y-94432380D01*
X138088571Y-94432380D02*
X138088571Y-93432380D01*
X137993333Y-93575238D01*
X137898095Y-93670476D01*
X137802857Y-93718095D01*
X145652380Y-85333333D02*
X146366666Y-85333333D01*
X146509523Y-85380952D01*
X146604761Y-85476190D01*
X146652380Y-85619047D01*
X146652380Y-85714285D01*
X146652380Y-84333333D02*
X146652380Y-84904761D01*
X146652380Y-84619047D02*
X145652380Y-84619047D01*
X145795238Y-84714285D01*
X145890476Y-84809523D01*
X145938095Y-84904761D01*
M02*
