G04 #@! TF.GenerationSoftware,KiCad,Pcbnew,(5.1.5)-3*
G04 #@! TF.CreationDate,2021-02-16T09:17:14-06:00*
G04 #@! TF.ProjectId,HallSensorSMD,48616c6c-5365-46e7-936f-72534d442e6b,rev?*
G04 #@! TF.SameCoordinates,Original*
G04 #@! TF.FileFunction,Copper,L1,Top*
G04 #@! TF.FilePolarity,Positive*
%FSLAX46Y46*%
G04 Gerber Fmt 4.6, Leading zero omitted, Abs format (unit mm)*
G04 Created by KiCad (PCBNEW (5.1.5)-3) date 2021-02-16 09:17:14*
%MOMM*%
%LPD*%
G04 APERTURE LIST*
%ADD10C,1.700000*%
%ADD11C,0.100000*%
%ADD12R,1.700000X1.700000*%
%ADD13O,1.700000X1.700000*%
%ADD14R,0.900000X0.800000*%
%ADD15C,0.800000*%
%ADD16C,0.250000*%
G04 APERTURE END LIST*
D10*
X139758061Y-50129348D02*
X139758061Y-50129348D01*
X141838708Y-51586232D02*
X141838708Y-51586232D01*
X143919354Y-53043116D02*
X143919354Y-53043116D01*
G04 #@! TA.AperFunction,ComponentPad*
D11*
G36*
X145791261Y-53316181D02*
G01*
X147183819Y-54291261D01*
X146208739Y-55683819D01*
X144816181Y-54708739D01*
X145791261Y-53316181D01*
G37*
G04 #@! TD.AperFunction*
D12*
X125818900Y-48250000D03*
D13*
X128358900Y-48250000D03*
X130898900Y-48250000D03*
X133438900Y-48250000D03*
G04 #@! TA.AperFunction,SMDPad,CuDef*
D11*
G36*
X115113280Y-59139903D02*
G01*
X114457959Y-58681042D01*
X114974178Y-57943805D01*
X115629499Y-58402666D01*
X115113280Y-59139903D01*
G37*
G04 #@! TD.AperFunction*
G04 #@! TA.AperFunction,SMDPad,CuDef*
G36*
X116669669Y-60229699D02*
G01*
X116014348Y-59770838D01*
X116530567Y-59033601D01*
X117185888Y-59492462D01*
X116669669Y-60229699D01*
G37*
G04 #@! TD.AperFunction*
G04 #@! TA.AperFunction,SMDPad,CuDef*
G36*
X117038627Y-58046497D02*
G01*
X116383306Y-57587636D01*
X116899525Y-56850399D01*
X117554846Y-57309260D01*
X117038627Y-58046497D01*
G37*
G04 #@! TD.AperFunction*
G04 #@! TA.AperFunction,SMDPad,CuDef*
G36*
X120936351Y-54845690D02*
G01*
X120460492Y-54202605D01*
X121183963Y-53667264D01*
X121659822Y-54310349D01*
X120936351Y-54845690D01*
G37*
G04 #@! TD.AperFunction*
G04 #@! TA.AperFunction,SMDPad,CuDef*
G36*
X119893719Y-56799000D02*
G01*
X119417860Y-56155915D01*
X120141331Y-55620574D01*
X120617190Y-56263659D01*
X119893719Y-56799000D01*
G37*
G04 #@! TD.AperFunction*
G04 #@! TA.AperFunction,SMDPad,CuDef*
G36*
X118763555Y-55271672D02*
G01*
X118287696Y-54628587D01*
X119011167Y-54093246D01*
X119487026Y-54736331D01*
X118763555Y-55271672D01*
G37*
G04 #@! TD.AperFunction*
G04 #@! TA.AperFunction,SMDPad,CuDef*
G36*
X123507908Y-52617293D02*
G01*
X123260695Y-51856448D01*
X124116646Y-51578333D01*
X124363859Y-52339178D01*
X123507908Y-52617293D01*
G37*
G04 #@! TD.AperFunction*
G04 #@! TA.AperFunction,SMDPad,CuDef*
G36*
X124095041Y-54424301D02*
G01*
X123847828Y-53663456D01*
X124703779Y-53385341D01*
X124950992Y-54146186D01*
X124095041Y-54424301D01*
G37*
G04 #@! TD.AperFunction*
G04 #@! TA.AperFunction,SMDPad,CuDef*
G36*
X125703588Y-52902763D02*
G01*
X125456375Y-52141918D01*
X126312326Y-51863803D01*
X126559539Y-52624648D01*
X125703588Y-52902763D01*
G37*
G04 #@! TD.AperFunction*
D14*
X129000000Y-51050000D03*
X129000000Y-52950000D03*
X131000000Y-52000000D03*
G04 #@! TA.AperFunction,SMDPad,CuDef*
D11*
G36*
X135527475Y-53280782D02*
G01*
X135774688Y-52519937D01*
X136630639Y-52798052D01*
X136383426Y-53558897D01*
X135527475Y-53280782D01*
G37*
G04 #@! TD.AperFunction*
G04 #@! TA.AperFunction,SMDPad,CuDef*
G36*
X133331795Y-53566252D02*
G01*
X133579008Y-52805407D01*
X134434959Y-53083522D01*
X134187746Y-53844367D01*
X133331795Y-53566252D01*
G37*
G04 #@! TD.AperFunction*
G04 #@! TA.AperFunction,SMDPad,CuDef*
G36*
X133918928Y-51759244D02*
G01*
X134166141Y-50998399D01*
X135022092Y-51276514D01*
X134774879Y-52037359D01*
X133918928Y-51759244D01*
G37*
G04 #@! TD.AperFunction*
G04 #@! TA.AperFunction,SMDPad,CuDef*
G36*
X140005792Y-55563495D02*
G01*
X140481651Y-54920410D01*
X141205122Y-55455751D01*
X140729263Y-56098836D01*
X140005792Y-55563495D01*
G37*
G04 #@! TD.AperFunction*
G04 #@! TA.AperFunction,SMDPad,CuDef*
G36*
X137832996Y-55137513D02*
G01*
X138308855Y-54494428D01*
X139032326Y-55029769D01*
X138556467Y-55672854D01*
X137832996Y-55137513D01*
G37*
G04 #@! TD.AperFunction*
G04 #@! TA.AperFunction,SMDPad,CuDef*
G36*
X138963160Y-53610185D02*
G01*
X139439019Y-52967100D01*
X140162490Y-53502441D01*
X139686631Y-54145526D01*
X138963160Y-53610185D01*
G37*
G04 #@! TD.AperFunction*
G04 #@! TA.AperFunction,SMDPad,CuDef*
G36*
X143281248Y-56777062D02*
G01*
X143936569Y-56318201D01*
X144452788Y-57055438D01*
X143797467Y-57514299D01*
X143281248Y-56777062D01*
G37*
G04 #@! TD.AperFunction*
G04 #@! TA.AperFunction,SMDPad,CuDef*
G36*
X141724859Y-57866858D02*
G01*
X142380180Y-57407997D01*
X142896399Y-58145234D01*
X142241078Y-58604095D01*
X141724859Y-57866858D01*
G37*
G04 #@! TD.AperFunction*
G04 #@! TA.AperFunction,SMDPad,CuDef*
G36*
X143650206Y-58960264D02*
G01*
X144305527Y-58501403D01*
X144821746Y-59238640D01*
X144166425Y-59697501D01*
X143650206Y-58960264D01*
G37*
G04 #@! TD.AperFunction*
D15*
X127622300Y-52108100D03*
X140004800Y-56730900D03*
X118211600Y-57873900D03*
X119126883Y-57048400D03*
X122605800Y-53886100D03*
X128905000Y-54140100D03*
X132410200Y-54419500D03*
X137121900Y-54597300D03*
X141249400Y-57023000D03*
X133019800Y-56032400D03*
X122281205Y-59141675D03*
X120789700Y-60731400D03*
X136347200Y-57023000D03*
D16*
X140045656Y-55509623D02*
X140605457Y-55509623D01*
X137932572Y-53396539D02*
X140045656Y-55509623D01*
X136436179Y-53396539D02*
X137932572Y-53396539D01*
X136079057Y-53039417D02*
X136436179Y-53396539D01*
X144235976Y-58550104D02*
X144235976Y-59099452D01*
X141195495Y-55509623D02*
X144235976Y-58550104D01*
X140605457Y-55509623D02*
X141195495Y-55509623D01*
X131700000Y-52000000D02*
X131000000Y-52000000D01*
X132062369Y-52362369D02*
X131700000Y-52000000D01*
X135605900Y-53039417D02*
X134928852Y-52362369D01*
X134928852Y-52362369D02*
X132062369Y-52362369D01*
X136079057Y-53039417D02*
X135605900Y-53039417D01*
X121381888Y-53934746D02*
X121060157Y-54256477D01*
X122374331Y-52942303D02*
X121381888Y-53934746D01*
X125448937Y-52942303D02*
X122374331Y-52942303D01*
X126007957Y-52383283D02*
X125448937Y-52942303D01*
X120500356Y-54256477D02*
X121060157Y-54256477D01*
X117631491Y-57125342D02*
X120500356Y-54256477D01*
X117292182Y-57125342D02*
X117631491Y-57125342D01*
X116969076Y-57448448D02*
X117292182Y-57125342D01*
X127347117Y-52383283D02*
X127622300Y-52108100D01*
X126007957Y-52383283D02*
X127347117Y-52383283D01*
X130891900Y-52108100D02*
X131000000Y-52000000D01*
X127622300Y-52108100D02*
X130891900Y-52108100D01*
X140004800Y-56110280D02*
X140605457Y-55509623D01*
X140004800Y-56730900D02*
X140004800Y-56110280D01*
X118211600Y-58020168D02*
X116600118Y-59631650D01*
X118211600Y-57873900D02*
X118211600Y-58020168D01*
X119178912Y-57048400D02*
X119126883Y-57048400D01*
X120017525Y-56209787D02*
X119178912Y-57048400D01*
X124380689Y-53886100D02*
X124399410Y-53904821D01*
X122605800Y-53886100D02*
X124380689Y-53886100D01*
X118327560Y-54682459D02*
X118887361Y-54682459D01*
X115366835Y-57643184D02*
X118327560Y-54682459D01*
X115366835Y-58218748D02*
X115366835Y-57643184D01*
X115043729Y-58541854D02*
X115366835Y-58218748D01*
X121472007Y-52097813D02*
X123812277Y-52097813D01*
X118887361Y-54682459D02*
X121472007Y-52097813D01*
X128300000Y-51050000D02*
X129000000Y-51050000D01*
X125333247Y-51050000D02*
X128300000Y-51050000D01*
X124285434Y-52097813D02*
X125333247Y-51050000D01*
X123812277Y-52097813D02*
X124285434Y-52097813D01*
X134002631Y-51050000D02*
X134470510Y-51517879D01*
X129000000Y-51050000D02*
X134002631Y-51050000D01*
X139241094Y-53234582D02*
X139562825Y-53556313D01*
X137881513Y-51875001D02*
X139241094Y-53234582D01*
X134827632Y-51875001D02*
X137881513Y-51875001D01*
X134470510Y-51517879D02*
X134827632Y-51875001D01*
X139884556Y-53878044D02*
X140828812Y-53878044D01*
X143543912Y-56593144D02*
X143867018Y-56916250D01*
X140828812Y-53878044D02*
X143543912Y-56593144D01*
X139562825Y-53556313D02*
X139884556Y-53878044D01*
X129000000Y-49955700D02*
X129000000Y-51050000D01*
X130898900Y-48056800D02*
X129000000Y-49955700D01*
X143867018Y-56157982D02*
X143867018Y-56916250D01*
X145834100Y-54190900D02*
X143867018Y-56157982D01*
X128905000Y-53045000D02*
X129000000Y-52950000D01*
X128905000Y-54140100D02*
X128905000Y-53045000D01*
X132788764Y-54419500D02*
X133883377Y-53324887D01*
X132410200Y-54419500D02*
X132788764Y-54419500D01*
X137946320Y-54597300D02*
X138432661Y-55083641D01*
X137121900Y-54597300D02*
X137946320Y-54597300D01*
X141327583Y-57023000D02*
X142310629Y-58006046D01*
X141249400Y-57023000D02*
X141327583Y-57023000D01*
X125390480Y-56032400D02*
X122681204Y-58741676D01*
X122681204Y-58741676D02*
X122281205Y-59141675D01*
X133019800Y-56032400D02*
X125390480Y-56032400D01*
X121454837Y-60066263D02*
X122381937Y-60066263D01*
X120789700Y-60731400D02*
X121454837Y-60066263D01*
X122381937Y-60066263D02*
X125425200Y-57023000D01*
X125425200Y-57023000D02*
X136347200Y-57023000D01*
M02*
