G04 #@! TF.GenerationSoftware,KiCad,Pcbnew,(5.1.6)-1*
G04 #@! TF.CreationDate,2021-11-18T20:07:37-06:00*
G04 #@! TF.ProjectId,ControlPanelSTM32QFN28,436f6e74-726f-46c5-9061-6e656c53544d,rev?*
G04 #@! TF.SameCoordinates,Original*
G04 #@! TF.FileFunction,Soldermask,Top*
G04 #@! TF.FilePolarity,Negative*
%FSLAX46Y46*%
G04 Gerber Fmt 4.6, Leading zero omitted, Abs format (unit mm)*
G04 Created by KiCad (PCBNEW (5.1.6)-1) date 2021-11-18 20:07:37*
%MOMM*%
%LPD*%
G01*
G04 APERTURE LIST*
G04 #@! TA.AperFunction,Profile*
%ADD10C,0.050000*%
G04 #@! TD*
%ADD11C,0.100000*%
G04 APERTURE END LIST*
D10*
X175479873Y-85389743D02*
G75*
G02*
X176439940Y-86360000I-5095J-965162D01*
G01*
X131488000Y-86296602D02*
G75*
G02*
X132389685Y-85389720I901685J5182D01*
G01*
X131488000Y-110680500D02*
X131488000Y-86296602D01*
X135552000Y-114744500D02*
G75*
G02*
X131488000Y-110680500I0J4064000D01*
G01*
X172353080Y-114744500D02*
X135552000Y-114744500D01*
X176439940Y-86360000D02*
X176450164Y-110667800D01*
X176450164Y-110670340D02*
G75*
G02*
X172353080Y-114744500I-4074224J0D01*
G01*
X175479873Y-85389743D02*
X132389685Y-85389720D01*
D11*
G36*
X164601362Y-109149000D02*
G01*
X164790410Y-109186604D01*
X165072674Y-109303521D01*
X165326705Y-109473259D01*
X165542741Y-109689295D01*
X165712479Y-109943326D01*
X165829396Y-110225590D01*
X165829396Y-110225591D01*
X165889000Y-110525239D01*
X165889000Y-110830761D01*
X165884578Y-110852990D01*
X165829396Y-111130410D01*
X165712479Y-111412674D01*
X165542741Y-111666705D01*
X165326705Y-111882741D01*
X165072674Y-112052479D01*
X164790410Y-112169396D01*
X164640585Y-112199198D01*
X164490761Y-112229000D01*
X164185239Y-112229000D01*
X164035415Y-112199198D01*
X163885590Y-112169396D01*
X163603326Y-112052479D01*
X163349295Y-111882741D01*
X163133259Y-111666705D01*
X162963521Y-111412674D01*
X162846604Y-111130410D01*
X162791422Y-110852990D01*
X162787000Y-110830761D01*
X162787000Y-110525239D01*
X162846604Y-110225591D01*
X162846604Y-110225590D01*
X162963521Y-109943326D01*
X163133259Y-109689295D01*
X163349295Y-109473259D01*
X163603326Y-109303521D01*
X163885590Y-109186604D01*
X164074638Y-109149000D01*
X164185239Y-109127000D01*
X164490761Y-109127000D01*
X164601362Y-109149000D01*
G37*
G36*
X136901362Y-109149000D02*
G01*
X137090410Y-109186604D01*
X137372674Y-109303521D01*
X137626705Y-109473259D01*
X137842741Y-109689295D01*
X138012479Y-109943326D01*
X138129396Y-110225590D01*
X138129396Y-110225591D01*
X138189000Y-110525239D01*
X138189000Y-110830761D01*
X138184578Y-110852990D01*
X138129396Y-111130410D01*
X138012479Y-111412674D01*
X137842741Y-111666705D01*
X137626705Y-111882741D01*
X137372674Y-112052479D01*
X137090410Y-112169396D01*
X136940585Y-112199198D01*
X136790761Y-112229000D01*
X136485239Y-112229000D01*
X136335415Y-112199198D01*
X136185590Y-112169396D01*
X135903326Y-112052479D01*
X135649295Y-111882741D01*
X135433259Y-111666705D01*
X135263521Y-111412674D01*
X135146604Y-111130410D01*
X135091422Y-110852990D01*
X135087000Y-110830761D01*
X135087000Y-110525239D01*
X135146604Y-110225591D01*
X135146604Y-110225590D01*
X135263521Y-109943326D01*
X135433259Y-109689295D01*
X135649295Y-109473259D01*
X135903326Y-109303521D01*
X136185590Y-109186604D01*
X136374638Y-109149000D01*
X136485239Y-109127000D01*
X136790761Y-109127000D01*
X136901362Y-109149000D01*
G37*
G36*
X170976627Y-109162037D02*
G01*
X171146466Y-109213557D01*
X171302991Y-109297222D01*
X171338729Y-109326552D01*
X171440186Y-109409814D01*
X171504260Y-109487890D01*
X171552778Y-109547009D01*
X171636443Y-109703534D01*
X171687963Y-109873374D01*
X171701000Y-110005743D01*
X171701000Y-110394258D01*
X171687963Y-110526627D01*
X171636443Y-110696466D01*
X171552778Y-110852991D01*
X171523448Y-110888729D01*
X171440186Y-110990186D01*
X171302989Y-111102779D01*
X171146467Y-111186442D01*
X171146465Y-111186443D01*
X170976626Y-111237963D01*
X170800000Y-111255359D01*
X170623373Y-111237963D01*
X170453534Y-111186443D01*
X170297009Y-111102778D01*
X170254750Y-111068097D01*
X170159814Y-110990186D01*
X170047221Y-110852989D01*
X169963558Y-110696467D01*
X169937514Y-110610612D01*
X169912037Y-110526626D01*
X169899000Y-110394257D01*
X169899000Y-110005742D01*
X169912037Y-109873373D01*
X169963557Y-109703534D01*
X170047222Y-109547009D01*
X170159815Y-109409815D01*
X170297010Y-109297222D01*
X170453535Y-109213557D01*
X170623374Y-109162037D01*
X170800000Y-109144641D01*
X170976627Y-109162037D01*
G37*
G36*
X174058600Y-109152989D02*
G01*
X174091652Y-109163015D01*
X174122103Y-109179292D01*
X174148799Y-109201201D01*
X174170708Y-109227897D01*
X174186985Y-109258348D01*
X174197011Y-109291400D01*
X174201000Y-109331903D01*
X174201000Y-111068097D01*
X174197011Y-111108600D01*
X174186985Y-111141652D01*
X174170708Y-111172103D01*
X174148799Y-111198799D01*
X174122103Y-111220708D01*
X174091652Y-111236985D01*
X174058600Y-111247011D01*
X174018097Y-111251000D01*
X172581903Y-111251000D01*
X172541400Y-111247011D01*
X172508348Y-111236985D01*
X172477897Y-111220708D01*
X172451201Y-111198799D01*
X172429292Y-111172103D01*
X172413015Y-111141652D01*
X172402989Y-111108600D01*
X172399000Y-111068097D01*
X172399000Y-109331903D01*
X172402989Y-109291400D01*
X172413015Y-109258348D01*
X172429292Y-109227897D01*
X172451201Y-109201201D01*
X172477897Y-109179292D01*
X172508348Y-109163015D01*
X172541400Y-109152989D01*
X172581903Y-109149000D01*
X174018097Y-109149000D01*
X174058600Y-109152989D01*
G37*
G36*
X144332151Y-107387428D02*
G01*
X144637163Y-107513768D01*
X144911667Y-107697186D01*
X145145114Y-107930633D01*
X145328532Y-108205137D01*
X145454872Y-108510149D01*
X145519280Y-108833948D01*
X145519280Y-109164092D01*
X145454872Y-109487891D01*
X145328532Y-109792903D01*
X145145114Y-110067407D01*
X144911667Y-110300854D01*
X144637163Y-110484272D01*
X144332151Y-110610612D01*
X144170251Y-110642816D01*
X144008353Y-110675020D01*
X143678207Y-110675020D01*
X143516309Y-110642816D01*
X143354409Y-110610612D01*
X143049397Y-110484272D01*
X142774893Y-110300854D01*
X142541446Y-110067407D01*
X142358028Y-109792903D01*
X142231688Y-109487891D01*
X142167280Y-109164092D01*
X142167280Y-108833948D01*
X142231688Y-108510149D01*
X142358028Y-108205137D01*
X142541446Y-107930633D01*
X142774893Y-107697186D01*
X143049397Y-107513768D01*
X143354409Y-107387428D01*
X143678207Y-107323020D01*
X144008353Y-107323020D01*
X144332151Y-107387428D01*
G37*
G36*
X157032151Y-107387428D02*
G01*
X157337163Y-107513768D01*
X157611667Y-107697186D01*
X157845114Y-107930633D01*
X158028532Y-108205137D01*
X158154872Y-108510149D01*
X158219280Y-108833948D01*
X158219280Y-109164092D01*
X158154872Y-109487891D01*
X158028532Y-109792903D01*
X157845114Y-110067407D01*
X157611667Y-110300854D01*
X157337163Y-110484272D01*
X157032151Y-110610612D01*
X156870251Y-110642816D01*
X156708353Y-110675020D01*
X156378207Y-110675020D01*
X156216309Y-110642816D01*
X156054409Y-110610612D01*
X155749397Y-110484272D01*
X155474893Y-110300854D01*
X155241446Y-110067407D01*
X155058028Y-109792903D01*
X154931688Y-109487891D01*
X154867280Y-109164092D01*
X154867280Y-108833948D01*
X154931688Y-108510149D01*
X155058028Y-108205137D01*
X155241446Y-107930633D01*
X155474893Y-107697186D01*
X155749397Y-107513768D01*
X156054409Y-107387428D01*
X156378207Y-107323020D01*
X156708353Y-107323020D01*
X157032151Y-107387428D01*
G37*
G36*
X142196682Y-104874916D02*
G01*
X142324955Y-104913828D01*
X142443174Y-104977017D01*
X142546794Y-105062056D01*
X142631833Y-105165676D01*
X142695022Y-105283895D01*
X142733934Y-105412168D01*
X142743780Y-105512142D01*
X142743780Y-106681998D01*
X142733934Y-106781972D01*
X142695022Y-106910245D01*
X142631833Y-107028464D01*
X142546794Y-107132083D01*
X142443172Y-107217123D01*
X142324954Y-107280312D01*
X142196681Y-107319224D01*
X142063280Y-107332362D01*
X141929878Y-107319224D01*
X141801605Y-107280312D01*
X141683386Y-107217123D01*
X141579767Y-107132084D01*
X141494727Y-107028462D01*
X141431538Y-106910244D01*
X141392626Y-106781971D01*
X141382780Y-106681997D01*
X141382781Y-105512142D01*
X141392627Y-105412168D01*
X141431539Y-105283895D01*
X141494728Y-105165676D01*
X141579767Y-105062056D01*
X141683387Y-104977017D01*
X141801606Y-104913828D01*
X141929879Y-104874916D01*
X142063280Y-104861778D01*
X142196682Y-104874916D01*
G37*
G36*
X158456682Y-104874916D02*
G01*
X158584955Y-104913828D01*
X158703174Y-104977017D01*
X158806794Y-105062056D01*
X158891833Y-105165676D01*
X158955022Y-105283895D01*
X158993934Y-105412168D01*
X159003780Y-105512142D01*
X159003780Y-106681998D01*
X158993934Y-106781972D01*
X158955022Y-106910245D01*
X158891833Y-107028464D01*
X158806794Y-107132083D01*
X158703172Y-107217123D01*
X158584954Y-107280312D01*
X158456681Y-107319224D01*
X158323280Y-107332362D01*
X158189878Y-107319224D01*
X158061605Y-107280312D01*
X157943386Y-107217123D01*
X157839767Y-107132084D01*
X157754727Y-107028462D01*
X157691538Y-106910244D01*
X157652626Y-106781971D01*
X157642780Y-106681997D01*
X157642781Y-105512142D01*
X157652627Y-105412168D01*
X157691539Y-105283895D01*
X157754728Y-105165676D01*
X157839767Y-105062056D01*
X157943387Y-104977017D01*
X158061606Y-104913828D01*
X158189879Y-104874916D01*
X158323280Y-104861778D01*
X158456682Y-104874916D01*
G37*
G36*
X149916222Y-105688801D02*
G01*
X150061994Y-105749182D01*
X150061996Y-105749183D01*
X150193188Y-105836842D01*
X150304758Y-105948412D01*
X150392417Y-106079604D01*
X150392418Y-106079606D01*
X150452799Y-106225378D01*
X150483580Y-106380127D01*
X150483580Y-106537913D01*
X150452799Y-106692662D01*
X150415806Y-106781970D01*
X150392417Y-106838436D01*
X150304758Y-106969628D01*
X150193188Y-107081198D01*
X150061996Y-107168857D01*
X150061995Y-107168858D01*
X150061994Y-107168858D01*
X149916222Y-107229239D01*
X149761473Y-107260020D01*
X149603687Y-107260020D01*
X149448938Y-107229239D01*
X149303166Y-107168858D01*
X149303165Y-107168858D01*
X149303164Y-107168857D01*
X149171972Y-107081198D01*
X149060402Y-106969628D01*
X148972743Y-106838436D01*
X148949354Y-106781970D01*
X148912361Y-106692662D01*
X148881580Y-106537913D01*
X148881580Y-106380127D01*
X148912361Y-106225378D01*
X148972742Y-106079606D01*
X148972743Y-106079604D01*
X149060402Y-105948412D01*
X149171972Y-105836842D01*
X149303164Y-105749183D01*
X149303166Y-105749182D01*
X149448938Y-105688801D01*
X149603687Y-105658020D01*
X149761473Y-105658020D01*
X149916222Y-105688801D01*
G37*
G36*
X147886222Y-105688801D02*
G01*
X148031994Y-105749182D01*
X148031996Y-105749183D01*
X148163188Y-105836842D01*
X148274758Y-105948412D01*
X148362417Y-106079604D01*
X148362418Y-106079606D01*
X148422799Y-106225378D01*
X148453580Y-106380127D01*
X148453580Y-106537913D01*
X148422799Y-106692662D01*
X148385806Y-106781970D01*
X148362417Y-106838436D01*
X148274758Y-106969628D01*
X148163188Y-107081198D01*
X148031996Y-107168857D01*
X148031995Y-107168858D01*
X148031994Y-107168858D01*
X147886222Y-107229239D01*
X147731473Y-107260020D01*
X147573687Y-107260020D01*
X147418938Y-107229239D01*
X147273166Y-107168858D01*
X147273165Y-107168858D01*
X147273164Y-107168857D01*
X147141972Y-107081198D01*
X147030402Y-106969628D01*
X146942743Y-106838436D01*
X146919354Y-106781970D01*
X146882361Y-106692662D01*
X146851580Y-106537913D01*
X146851580Y-106380127D01*
X146882361Y-106225378D01*
X146942742Y-106079606D01*
X146942743Y-106079604D01*
X147030402Y-105948412D01*
X147141972Y-105836842D01*
X147273164Y-105749183D01*
X147273166Y-105749182D01*
X147418938Y-105688801D01*
X147573687Y-105658020D01*
X147731473Y-105658020D01*
X147886222Y-105688801D01*
G37*
G36*
X151946222Y-105688801D02*
G01*
X152091994Y-105749182D01*
X152091996Y-105749183D01*
X152223188Y-105836842D01*
X152334758Y-105948412D01*
X152422417Y-106079604D01*
X152422418Y-106079606D01*
X152482799Y-106225378D01*
X152513580Y-106380127D01*
X152513580Y-106537913D01*
X152482799Y-106692662D01*
X152445806Y-106781970D01*
X152422417Y-106838436D01*
X152334758Y-106969628D01*
X152223188Y-107081198D01*
X152091996Y-107168857D01*
X152091995Y-107168858D01*
X152091994Y-107168858D01*
X151946222Y-107229239D01*
X151791473Y-107260020D01*
X151633687Y-107260020D01*
X151478938Y-107229239D01*
X151333166Y-107168858D01*
X151333165Y-107168858D01*
X151333164Y-107168857D01*
X151201972Y-107081198D01*
X151090402Y-106969628D01*
X151002743Y-106838436D01*
X150979354Y-106781970D01*
X150942361Y-106692662D01*
X150911580Y-106537913D01*
X150911580Y-106380127D01*
X150942361Y-106225378D01*
X151002742Y-106079606D01*
X151002743Y-106079604D01*
X151090402Y-105948412D01*
X151201972Y-105836842D01*
X151333164Y-105749183D01*
X151333166Y-105749182D01*
X151478938Y-105688801D01*
X151633687Y-105658020D01*
X151791473Y-105658020D01*
X151946222Y-105688801D01*
G37*
G36*
X152956222Y-103908801D02*
G01*
X153101994Y-103969182D01*
X153101996Y-103969183D01*
X153233188Y-104056842D01*
X153344758Y-104168412D01*
X153423623Y-104286443D01*
X153432418Y-104299606D01*
X153492799Y-104445378D01*
X153523580Y-104600127D01*
X153523580Y-104757913D01*
X153492799Y-104912662D01*
X153432418Y-105058434D01*
X153432417Y-105058436D01*
X153344758Y-105189628D01*
X153233188Y-105301198D01*
X153101996Y-105388857D01*
X153101995Y-105388858D01*
X153101994Y-105388858D01*
X153032757Y-105417537D01*
X153011146Y-105429088D01*
X152992204Y-105444633D01*
X152976659Y-105463575D01*
X152965108Y-105485186D01*
X152957995Y-105508635D01*
X152955593Y-105533021D01*
X152957995Y-105557407D01*
X152965108Y-105580856D01*
X152976659Y-105602467D01*
X152992204Y-105621409D01*
X153011146Y-105636954D01*
X153032757Y-105648505D01*
X153056206Y-105655618D01*
X153080592Y-105658020D01*
X154543580Y-105658020D01*
X154543580Y-107260020D01*
X152941580Y-107260020D01*
X152941580Y-105604462D01*
X152939178Y-105580076D01*
X152932065Y-105556627D01*
X152920514Y-105535016D01*
X152904969Y-105516074D01*
X152886027Y-105500529D01*
X152864416Y-105488978D01*
X152840967Y-105481865D01*
X152816581Y-105479463D01*
X152810931Y-105480020D01*
X152643687Y-105480020D01*
X152488938Y-105449239D01*
X152343166Y-105388858D01*
X152343165Y-105388858D01*
X152343164Y-105388857D01*
X152211972Y-105301198D01*
X152100402Y-105189628D01*
X152012743Y-105058436D01*
X152012742Y-105058434D01*
X151952361Y-104912662D01*
X151921580Y-104757913D01*
X151921580Y-104600127D01*
X151952361Y-104445378D01*
X152012742Y-104299606D01*
X152021537Y-104286443D01*
X152100402Y-104168412D01*
X152211972Y-104056842D01*
X152343164Y-103969183D01*
X152343166Y-103969182D01*
X152488938Y-103908801D01*
X152643687Y-103878020D01*
X152801473Y-103878020D01*
X152956222Y-103908801D01*
G37*
G36*
X148896222Y-103908801D02*
G01*
X149041994Y-103969182D01*
X149041996Y-103969183D01*
X149173188Y-104056842D01*
X149284758Y-104168412D01*
X149363623Y-104286443D01*
X149372418Y-104299606D01*
X149432799Y-104445378D01*
X149463580Y-104600127D01*
X149463580Y-104757913D01*
X149432799Y-104912662D01*
X149372418Y-105058434D01*
X149372417Y-105058436D01*
X149284758Y-105189628D01*
X149173188Y-105301198D01*
X149041996Y-105388857D01*
X149041995Y-105388858D01*
X149041994Y-105388858D01*
X148896222Y-105449239D01*
X148741473Y-105480020D01*
X148583687Y-105480020D01*
X148428938Y-105449239D01*
X148283166Y-105388858D01*
X148283165Y-105388858D01*
X148283164Y-105388857D01*
X148151972Y-105301198D01*
X148040402Y-105189628D01*
X147952743Y-105058436D01*
X147952742Y-105058434D01*
X147892361Y-104912662D01*
X147861580Y-104757913D01*
X147861580Y-104600127D01*
X147892361Y-104445378D01*
X147952742Y-104299606D01*
X147961537Y-104286443D01*
X148040402Y-104168412D01*
X148151972Y-104056842D01*
X148283164Y-103969183D01*
X148283166Y-103969182D01*
X148428938Y-103908801D01*
X148583687Y-103878020D01*
X148741473Y-103878020D01*
X148896222Y-103908801D01*
G37*
G36*
X150926222Y-103908801D02*
G01*
X151071994Y-103969182D01*
X151071996Y-103969183D01*
X151203188Y-104056842D01*
X151314758Y-104168412D01*
X151393623Y-104286443D01*
X151402418Y-104299606D01*
X151462799Y-104445378D01*
X151493580Y-104600127D01*
X151493580Y-104757913D01*
X151462799Y-104912662D01*
X151402418Y-105058434D01*
X151402417Y-105058436D01*
X151314758Y-105189628D01*
X151203188Y-105301198D01*
X151071996Y-105388857D01*
X151071995Y-105388858D01*
X151071994Y-105388858D01*
X150926222Y-105449239D01*
X150771473Y-105480020D01*
X150613687Y-105480020D01*
X150458938Y-105449239D01*
X150313166Y-105388858D01*
X150313165Y-105388858D01*
X150313164Y-105388857D01*
X150181972Y-105301198D01*
X150070402Y-105189628D01*
X149982743Y-105058436D01*
X149982742Y-105058434D01*
X149922361Y-104912662D01*
X149891580Y-104757913D01*
X149891580Y-104600127D01*
X149922361Y-104445378D01*
X149982742Y-104299606D01*
X149991537Y-104286443D01*
X150070402Y-104168412D01*
X150181972Y-104056842D01*
X150313164Y-103969183D01*
X150313166Y-103969182D01*
X150458938Y-103908801D01*
X150613687Y-103878020D01*
X150771473Y-103878020D01*
X150926222Y-103908801D01*
G37*
G36*
X146866222Y-103908801D02*
G01*
X147011994Y-103969182D01*
X147011996Y-103969183D01*
X147143188Y-104056842D01*
X147254758Y-104168412D01*
X147333623Y-104286443D01*
X147342418Y-104299606D01*
X147402799Y-104445378D01*
X147433580Y-104600127D01*
X147433580Y-104757913D01*
X147402799Y-104912662D01*
X147342418Y-105058434D01*
X147342417Y-105058436D01*
X147254758Y-105189628D01*
X147143188Y-105301198D01*
X147011996Y-105388857D01*
X147011995Y-105388858D01*
X147011994Y-105388858D01*
X146866222Y-105449239D01*
X146711473Y-105480020D01*
X146553687Y-105480020D01*
X146398938Y-105449239D01*
X146253166Y-105388858D01*
X146253165Y-105388858D01*
X146253164Y-105388857D01*
X146121972Y-105301198D01*
X146010402Y-105189628D01*
X145922743Y-105058436D01*
X145922742Y-105058434D01*
X145862361Y-104912662D01*
X145831580Y-104757913D01*
X145831580Y-104600127D01*
X145862361Y-104445378D01*
X145922742Y-104299606D01*
X145931537Y-104286443D01*
X146010402Y-104168412D01*
X146121972Y-104056842D01*
X146253164Y-103969183D01*
X146253166Y-103969182D01*
X146398938Y-103908801D01*
X146553687Y-103878020D01*
X146711473Y-103878020D01*
X146866222Y-103908801D01*
G37*
G36*
X162476627Y-102262037D02*
G01*
X162646466Y-102313557D01*
X162802991Y-102397222D01*
X162838729Y-102426552D01*
X162940186Y-102509814D01*
X163015466Y-102601544D01*
X163052778Y-102647009D01*
X163136443Y-102803534D01*
X163187963Y-102973374D01*
X163201000Y-103105743D01*
X163201000Y-103494258D01*
X163187963Y-103626627D01*
X163136443Y-103796466D01*
X163052778Y-103952991D01*
X163023448Y-103988729D01*
X162940186Y-104090186D01*
X162802989Y-104202779D01*
X162646467Y-104286442D01*
X162646465Y-104286443D01*
X162476626Y-104337963D01*
X162300000Y-104355359D01*
X162123373Y-104337963D01*
X161953534Y-104286443D01*
X161797009Y-104202778D01*
X161754750Y-104168097D01*
X161659814Y-104090186D01*
X161547221Y-103952989D01*
X161463558Y-103796467D01*
X161423014Y-103662811D01*
X161412037Y-103626626D01*
X161399000Y-103494257D01*
X161399000Y-103105742D01*
X161412037Y-102973373D01*
X161463557Y-102803534D01*
X161547222Y-102647009D01*
X161659815Y-102509815D01*
X161797010Y-102397222D01*
X161953535Y-102313557D01*
X162123374Y-102262037D01*
X162300000Y-102244641D01*
X162476627Y-102262037D01*
G37*
G36*
X170976627Y-102262037D02*
G01*
X171146466Y-102313557D01*
X171302991Y-102397222D01*
X171338729Y-102426552D01*
X171440186Y-102509814D01*
X171515466Y-102601544D01*
X171552778Y-102647009D01*
X171636443Y-102803534D01*
X171687963Y-102973374D01*
X171701000Y-103105743D01*
X171701000Y-103494258D01*
X171687963Y-103626627D01*
X171636443Y-103796466D01*
X171552778Y-103952991D01*
X171523448Y-103988729D01*
X171440186Y-104090186D01*
X171302989Y-104202779D01*
X171146467Y-104286442D01*
X171146465Y-104286443D01*
X170976626Y-104337963D01*
X170800000Y-104355359D01*
X170623373Y-104337963D01*
X170453534Y-104286443D01*
X170297009Y-104202778D01*
X170254750Y-104168097D01*
X170159814Y-104090186D01*
X170047221Y-103952989D01*
X169963558Y-103796467D01*
X169923014Y-103662811D01*
X169912037Y-103626626D01*
X169899000Y-103494257D01*
X169899000Y-103105742D01*
X169912037Y-102973373D01*
X169963557Y-102803534D01*
X170047222Y-102647009D01*
X170159815Y-102509815D01*
X170297010Y-102397222D01*
X170453535Y-102313557D01*
X170623374Y-102262037D01*
X170800000Y-102244641D01*
X170976627Y-102262037D01*
G37*
G36*
X174058600Y-102252989D02*
G01*
X174091652Y-102263015D01*
X174122103Y-102279292D01*
X174148799Y-102301201D01*
X174170708Y-102327897D01*
X174186985Y-102358348D01*
X174197011Y-102391400D01*
X174201000Y-102431903D01*
X174201000Y-104168097D01*
X174197011Y-104208600D01*
X174186985Y-104241652D01*
X174170708Y-104272103D01*
X174148799Y-104298799D01*
X174122103Y-104320708D01*
X174091652Y-104336985D01*
X174058600Y-104347011D01*
X174018097Y-104351000D01*
X172581903Y-104351000D01*
X172541400Y-104347011D01*
X172508348Y-104336985D01*
X172477897Y-104320708D01*
X172451201Y-104298799D01*
X172429292Y-104272103D01*
X172413015Y-104241652D01*
X172402989Y-104208600D01*
X172399000Y-104168097D01*
X172399000Y-102431903D01*
X172402989Y-102391400D01*
X172413015Y-102358348D01*
X172429292Y-102327897D01*
X172451201Y-102301201D01*
X172477897Y-102279292D01*
X172508348Y-102263015D01*
X172541400Y-102252989D01*
X172581903Y-102249000D01*
X174018097Y-102249000D01*
X174058600Y-102252989D01*
G37*
G36*
X165558600Y-102252989D02*
G01*
X165591652Y-102263015D01*
X165622103Y-102279292D01*
X165648799Y-102301201D01*
X165670708Y-102327897D01*
X165686985Y-102358348D01*
X165697011Y-102391400D01*
X165701000Y-102431903D01*
X165701000Y-104168097D01*
X165697011Y-104208600D01*
X165686985Y-104241652D01*
X165670708Y-104272103D01*
X165648799Y-104298799D01*
X165622103Y-104320708D01*
X165591652Y-104336985D01*
X165558600Y-104347011D01*
X165518097Y-104351000D01*
X164081903Y-104351000D01*
X164041400Y-104347011D01*
X164008348Y-104336985D01*
X163977897Y-104320708D01*
X163951201Y-104298799D01*
X163929292Y-104272103D01*
X163913015Y-104241652D01*
X163902989Y-104208600D01*
X163899000Y-104168097D01*
X163899000Y-102431903D01*
X163902989Y-102391400D01*
X163913015Y-102358348D01*
X163929292Y-102327897D01*
X163951201Y-102301201D01*
X163977897Y-102279292D01*
X164008348Y-102263015D01*
X164041400Y-102252989D01*
X164081903Y-102249000D01*
X165518097Y-102249000D01*
X165558600Y-102252989D01*
G37*
G36*
X138301000Y-104301000D02*
G01*
X136499000Y-104301000D01*
X136499000Y-102499000D01*
X138301000Y-102499000D01*
X138301000Y-104301000D01*
G37*
G36*
X134973512Y-102503927D02*
G01*
X135122812Y-102533624D01*
X135286784Y-102601544D01*
X135434354Y-102700147D01*
X135559853Y-102825646D01*
X135658456Y-102973216D01*
X135726376Y-103137188D01*
X135756073Y-103286488D01*
X135761000Y-103311258D01*
X135761000Y-103488742D01*
X135759902Y-103494260D01*
X135726376Y-103662812D01*
X135658456Y-103826784D01*
X135559853Y-103974354D01*
X135434354Y-104099853D01*
X135286784Y-104198456D01*
X135122812Y-104266376D01*
X134973512Y-104296073D01*
X134948742Y-104301000D01*
X134771258Y-104301000D01*
X134746488Y-104296073D01*
X134597188Y-104266376D01*
X134433216Y-104198456D01*
X134285646Y-104099853D01*
X134160147Y-103974354D01*
X134061544Y-103826784D01*
X133993624Y-103662812D01*
X133960098Y-103494260D01*
X133959000Y-103488742D01*
X133959000Y-103311258D01*
X133963927Y-103286488D01*
X133993624Y-103137188D01*
X134061544Y-102973216D01*
X134160147Y-102825646D01*
X134285646Y-102700147D01*
X134433216Y-102601544D01*
X134597188Y-102533624D01*
X134746488Y-102503927D01*
X134771258Y-102499000D01*
X134948742Y-102499000D01*
X134973512Y-102503927D01*
G37*
G36*
X134973512Y-99963927D02*
G01*
X135122812Y-99993624D01*
X135286784Y-100061544D01*
X135434354Y-100160147D01*
X135559853Y-100285646D01*
X135658456Y-100433216D01*
X135726376Y-100597188D01*
X135761000Y-100771259D01*
X135761000Y-100948741D01*
X135726376Y-101122812D01*
X135658456Y-101286784D01*
X135559853Y-101434354D01*
X135434354Y-101559853D01*
X135286784Y-101658456D01*
X135122812Y-101726376D01*
X134973512Y-101756073D01*
X134948742Y-101761000D01*
X134771258Y-101761000D01*
X134746488Y-101756073D01*
X134597188Y-101726376D01*
X134433216Y-101658456D01*
X134285646Y-101559853D01*
X134160147Y-101434354D01*
X134061544Y-101286784D01*
X133993624Y-101122812D01*
X133959000Y-100948741D01*
X133959000Y-100771259D01*
X133993624Y-100597188D01*
X134061544Y-100433216D01*
X134160147Y-100285646D01*
X134285646Y-100160147D01*
X134433216Y-100061544D01*
X134597188Y-99993624D01*
X134746488Y-99963927D01*
X134771258Y-99959000D01*
X134948742Y-99959000D01*
X134973512Y-99963927D01*
G37*
G36*
X137513512Y-99963927D02*
G01*
X137662812Y-99993624D01*
X137826784Y-100061544D01*
X137974354Y-100160147D01*
X138099853Y-100285646D01*
X138198456Y-100433216D01*
X138266376Y-100597188D01*
X138301000Y-100771259D01*
X138301000Y-100948741D01*
X138266376Y-101122812D01*
X138198456Y-101286784D01*
X138099853Y-101434354D01*
X137974354Y-101559853D01*
X137826784Y-101658456D01*
X137662812Y-101726376D01*
X137513512Y-101756073D01*
X137488742Y-101761000D01*
X137311258Y-101761000D01*
X137286488Y-101756073D01*
X137137188Y-101726376D01*
X136973216Y-101658456D01*
X136825646Y-101559853D01*
X136700147Y-101434354D01*
X136601544Y-101286784D01*
X136533624Y-101122812D01*
X136499000Y-100948741D01*
X136499000Y-100771259D01*
X136533624Y-100597188D01*
X136601544Y-100433216D01*
X136700147Y-100285646D01*
X136825646Y-100160147D01*
X136973216Y-100061544D01*
X137137188Y-99993624D01*
X137286488Y-99963927D01*
X137311258Y-99959000D01*
X137488742Y-99959000D01*
X137513512Y-99963927D01*
G37*
G36*
X137513512Y-97423927D02*
G01*
X137662812Y-97453624D01*
X137826784Y-97521544D01*
X137974354Y-97620147D01*
X138099853Y-97745646D01*
X138198456Y-97893216D01*
X138266376Y-98057188D01*
X138301000Y-98231259D01*
X138301000Y-98408741D01*
X138266376Y-98582812D01*
X138198456Y-98746784D01*
X138099853Y-98894354D01*
X137974354Y-99019853D01*
X137826784Y-99118456D01*
X137662812Y-99186376D01*
X137513512Y-99216073D01*
X137488742Y-99221000D01*
X137311258Y-99221000D01*
X137286488Y-99216073D01*
X137137188Y-99186376D01*
X136973216Y-99118456D01*
X136825646Y-99019853D01*
X136700147Y-98894354D01*
X136601544Y-98746784D01*
X136533624Y-98582812D01*
X136499000Y-98408741D01*
X136499000Y-98231259D01*
X136533624Y-98057188D01*
X136601544Y-97893216D01*
X136700147Y-97745646D01*
X136825646Y-97620147D01*
X136973216Y-97521544D01*
X137137188Y-97453624D01*
X137286488Y-97423927D01*
X137311258Y-97419000D01*
X137488742Y-97419000D01*
X137513512Y-97423927D01*
G37*
G36*
X162376627Y-95362037D02*
G01*
X162546466Y-95413557D01*
X162702991Y-95497222D01*
X162738729Y-95526552D01*
X162840186Y-95609814D01*
X162923448Y-95711271D01*
X162952778Y-95747009D01*
X163036443Y-95903534D01*
X163087963Y-96073374D01*
X163101000Y-96205743D01*
X163101000Y-96594258D01*
X163087963Y-96726627D01*
X163036443Y-96896466D01*
X162952778Y-97052991D01*
X162923448Y-97088729D01*
X162840186Y-97190186D01*
X162702989Y-97302779D01*
X162546467Y-97386442D01*
X162546465Y-97386443D01*
X162376626Y-97437963D01*
X162200000Y-97455359D01*
X162023373Y-97437963D01*
X161853534Y-97386443D01*
X161697009Y-97302778D01*
X161654750Y-97268097D01*
X161559814Y-97190186D01*
X161447221Y-97052989D01*
X161363558Y-96896467D01*
X161363557Y-96896465D01*
X161312037Y-96726626D01*
X161299000Y-96594257D01*
X161299000Y-96205742D01*
X161312037Y-96073373D01*
X161363557Y-95903534D01*
X161447222Y-95747009D01*
X161559815Y-95609815D01*
X161697010Y-95497222D01*
X161853535Y-95413557D01*
X162023374Y-95362037D01*
X162200000Y-95344641D01*
X162376627Y-95362037D01*
G37*
G36*
X170876627Y-95362037D02*
G01*
X171046466Y-95413557D01*
X171202991Y-95497222D01*
X171238729Y-95526552D01*
X171340186Y-95609814D01*
X171423448Y-95711271D01*
X171452778Y-95747009D01*
X171536443Y-95903534D01*
X171587963Y-96073374D01*
X171601000Y-96205743D01*
X171601000Y-96594258D01*
X171587963Y-96726627D01*
X171536443Y-96896466D01*
X171452778Y-97052991D01*
X171423448Y-97088729D01*
X171340186Y-97190186D01*
X171202989Y-97302779D01*
X171046467Y-97386442D01*
X171046465Y-97386443D01*
X170876626Y-97437963D01*
X170700000Y-97455359D01*
X170523373Y-97437963D01*
X170353534Y-97386443D01*
X170197009Y-97302778D01*
X170154750Y-97268097D01*
X170059814Y-97190186D01*
X169947221Y-97052989D01*
X169863558Y-96896467D01*
X169863557Y-96896465D01*
X169812037Y-96726626D01*
X169799000Y-96594257D01*
X169799000Y-96205742D01*
X169812037Y-96073373D01*
X169863557Y-95903534D01*
X169947222Y-95747009D01*
X170059815Y-95609815D01*
X170197010Y-95497222D01*
X170353535Y-95413557D01*
X170523374Y-95362037D01*
X170700000Y-95344641D01*
X170876627Y-95362037D01*
G37*
G36*
X165458600Y-95352989D02*
G01*
X165491652Y-95363015D01*
X165522103Y-95379292D01*
X165548799Y-95401201D01*
X165570708Y-95427897D01*
X165586985Y-95458348D01*
X165597011Y-95491400D01*
X165601000Y-95531903D01*
X165601000Y-97268097D01*
X165597011Y-97308600D01*
X165586985Y-97341652D01*
X165570708Y-97372103D01*
X165548799Y-97398799D01*
X165522103Y-97420708D01*
X165491652Y-97436985D01*
X165458600Y-97447011D01*
X165418097Y-97451000D01*
X163981903Y-97451000D01*
X163941400Y-97447011D01*
X163908348Y-97436985D01*
X163877897Y-97420708D01*
X163851201Y-97398799D01*
X163829292Y-97372103D01*
X163813015Y-97341652D01*
X163802989Y-97308600D01*
X163799000Y-97268097D01*
X163799000Y-95531903D01*
X163802989Y-95491400D01*
X163813015Y-95458348D01*
X163829292Y-95427897D01*
X163851201Y-95401201D01*
X163877897Y-95379292D01*
X163908348Y-95363015D01*
X163941400Y-95352989D01*
X163981903Y-95349000D01*
X165418097Y-95349000D01*
X165458600Y-95352989D01*
G37*
G36*
X173958600Y-95352989D02*
G01*
X173991652Y-95363015D01*
X174022103Y-95379292D01*
X174048799Y-95401201D01*
X174070708Y-95427897D01*
X174086985Y-95458348D01*
X174097011Y-95491400D01*
X174101000Y-95531903D01*
X174101000Y-97268097D01*
X174097011Y-97308600D01*
X174086985Y-97341652D01*
X174070708Y-97372103D01*
X174048799Y-97398799D01*
X174022103Y-97420708D01*
X173991652Y-97436985D01*
X173958600Y-97447011D01*
X173918097Y-97451000D01*
X172481903Y-97451000D01*
X172441400Y-97447011D01*
X172408348Y-97436985D01*
X172377897Y-97420708D01*
X172351201Y-97398799D01*
X172329292Y-97372103D01*
X172313015Y-97341652D01*
X172302989Y-97308600D01*
X172299000Y-97268097D01*
X172299000Y-95531903D01*
X172302989Y-95491400D01*
X172313015Y-95458348D01*
X172329292Y-95427897D01*
X172351201Y-95401201D01*
X172377897Y-95379292D01*
X172408348Y-95363015D01*
X172441400Y-95352989D01*
X172481903Y-95349000D01*
X173918097Y-95349000D01*
X173958600Y-95352989D01*
G37*
G36*
X149258600Y-90302989D02*
G01*
X149291652Y-90313015D01*
X149322103Y-90329292D01*
X149348799Y-90351201D01*
X149370708Y-90377897D01*
X149386985Y-90408348D01*
X149397011Y-90441400D01*
X149401000Y-90481903D01*
X149401000Y-91918097D01*
X149397011Y-91958600D01*
X149386985Y-91991652D01*
X149370708Y-92022103D01*
X149348799Y-92048799D01*
X149322103Y-92070708D01*
X149291652Y-92086985D01*
X149258600Y-92097011D01*
X149218097Y-92101000D01*
X147481903Y-92101000D01*
X147441400Y-92097011D01*
X147408348Y-92086985D01*
X147377897Y-92070708D01*
X147351201Y-92048799D01*
X147329292Y-92022103D01*
X147313015Y-91991652D01*
X147302989Y-91958600D01*
X147299000Y-91918097D01*
X147299000Y-90481903D01*
X147302989Y-90441400D01*
X147313015Y-90408348D01*
X147329292Y-90377897D01*
X147351201Y-90351201D01*
X147377897Y-90329292D01*
X147408348Y-90313015D01*
X147441400Y-90302989D01*
X147481903Y-90299000D01*
X149218097Y-90299000D01*
X149258600Y-90302989D01*
G37*
G36*
X142358600Y-90302989D02*
G01*
X142391652Y-90313015D01*
X142422103Y-90329292D01*
X142448799Y-90351201D01*
X142470708Y-90377897D01*
X142486985Y-90408348D01*
X142497011Y-90441400D01*
X142501000Y-90481903D01*
X142501000Y-91918097D01*
X142497011Y-91958600D01*
X142486985Y-91991652D01*
X142470708Y-92022103D01*
X142448799Y-92048799D01*
X142422103Y-92070708D01*
X142391652Y-92086985D01*
X142358600Y-92097011D01*
X142318097Y-92101000D01*
X140581903Y-92101000D01*
X140541400Y-92097011D01*
X140508348Y-92086985D01*
X140477897Y-92070708D01*
X140451201Y-92048799D01*
X140429292Y-92022103D01*
X140413015Y-91991652D01*
X140402989Y-91958600D01*
X140399000Y-91918097D01*
X140399000Y-90481903D01*
X140402989Y-90441400D01*
X140413015Y-90408348D01*
X140429292Y-90377897D01*
X140451201Y-90351201D01*
X140477897Y-90329292D01*
X140508348Y-90313015D01*
X140541400Y-90302989D01*
X140581903Y-90299000D01*
X142318097Y-90299000D01*
X142358600Y-90302989D01*
G37*
G36*
X156158600Y-90302989D02*
G01*
X156191652Y-90313015D01*
X156222103Y-90329292D01*
X156248799Y-90351201D01*
X156270708Y-90377897D01*
X156286985Y-90408348D01*
X156297011Y-90441400D01*
X156301000Y-90481903D01*
X156301000Y-91918097D01*
X156297011Y-91958600D01*
X156286985Y-91991652D01*
X156270708Y-92022103D01*
X156248799Y-92048799D01*
X156222103Y-92070708D01*
X156191652Y-92086985D01*
X156158600Y-92097011D01*
X156118097Y-92101000D01*
X154381903Y-92101000D01*
X154341400Y-92097011D01*
X154308348Y-92086985D01*
X154277897Y-92070708D01*
X154251201Y-92048799D01*
X154229292Y-92022103D01*
X154213015Y-91991652D01*
X154202989Y-91958600D01*
X154199000Y-91918097D01*
X154199000Y-90481903D01*
X154202989Y-90441400D01*
X154213015Y-90408348D01*
X154229292Y-90377897D01*
X154251201Y-90351201D01*
X154277897Y-90329292D01*
X154308348Y-90313015D01*
X154341400Y-90302989D01*
X154381903Y-90299000D01*
X156118097Y-90299000D01*
X156158600Y-90302989D01*
G37*
G36*
X135458600Y-90302989D02*
G01*
X135491652Y-90313015D01*
X135522103Y-90329292D01*
X135548799Y-90351201D01*
X135570708Y-90377897D01*
X135586985Y-90408348D01*
X135597011Y-90441400D01*
X135601000Y-90481903D01*
X135601000Y-91918097D01*
X135597011Y-91958600D01*
X135586985Y-91991652D01*
X135570708Y-92022103D01*
X135548799Y-92048799D01*
X135522103Y-92070708D01*
X135491652Y-92086985D01*
X135458600Y-92097011D01*
X135418097Y-92101000D01*
X133681903Y-92101000D01*
X133641400Y-92097011D01*
X133608348Y-92086985D01*
X133577897Y-92070708D01*
X133551201Y-92048799D01*
X133529292Y-92022103D01*
X133513015Y-91991652D01*
X133502989Y-91958600D01*
X133499000Y-91918097D01*
X133499000Y-90481903D01*
X133502989Y-90441400D01*
X133513015Y-90408348D01*
X133529292Y-90377897D01*
X133551201Y-90351201D01*
X133577897Y-90329292D01*
X133608348Y-90313015D01*
X133641400Y-90302989D01*
X133681903Y-90299000D01*
X135418097Y-90299000D01*
X135458600Y-90302989D01*
G37*
G36*
X141710443Y-87805519D02*
G01*
X141776627Y-87812037D01*
X141946466Y-87863557D01*
X142102991Y-87947222D01*
X142138729Y-87976552D01*
X142240186Y-88059814D01*
X142323448Y-88161271D01*
X142352778Y-88197009D01*
X142436443Y-88353534D01*
X142487963Y-88523373D01*
X142505359Y-88700000D01*
X142487963Y-88876627D01*
X142436443Y-89046466D01*
X142352778Y-89202991D01*
X142323448Y-89238729D01*
X142240186Y-89340186D01*
X142163916Y-89402778D01*
X142102991Y-89452778D01*
X141946466Y-89536443D01*
X141776627Y-89587963D01*
X141710443Y-89594481D01*
X141644260Y-89601000D01*
X141255740Y-89601000D01*
X141189557Y-89594481D01*
X141123373Y-89587963D01*
X140953534Y-89536443D01*
X140797009Y-89452778D01*
X140736084Y-89402778D01*
X140659814Y-89340186D01*
X140576552Y-89238729D01*
X140547222Y-89202991D01*
X140463557Y-89046466D01*
X140412037Y-88876627D01*
X140394641Y-88700000D01*
X140412037Y-88523373D01*
X140463557Y-88353534D01*
X140547222Y-88197009D01*
X140576552Y-88161271D01*
X140659814Y-88059814D01*
X140761271Y-87976552D01*
X140797009Y-87947222D01*
X140953534Y-87863557D01*
X141123373Y-87812037D01*
X141189557Y-87805519D01*
X141255740Y-87799000D01*
X141644260Y-87799000D01*
X141710443Y-87805519D01*
G37*
G36*
X148610443Y-87805519D02*
G01*
X148676627Y-87812037D01*
X148846466Y-87863557D01*
X149002991Y-87947222D01*
X149038729Y-87976552D01*
X149140186Y-88059814D01*
X149223448Y-88161271D01*
X149252778Y-88197009D01*
X149336443Y-88353534D01*
X149387963Y-88523373D01*
X149405359Y-88700000D01*
X149387963Y-88876627D01*
X149336443Y-89046466D01*
X149252778Y-89202991D01*
X149223448Y-89238729D01*
X149140186Y-89340186D01*
X149063916Y-89402778D01*
X149002991Y-89452778D01*
X148846466Y-89536443D01*
X148676627Y-89587963D01*
X148610443Y-89594481D01*
X148544260Y-89601000D01*
X148155740Y-89601000D01*
X148089557Y-89594481D01*
X148023373Y-89587963D01*
X147853534Y-89536443D01*
X147697009Y-89452778D01*
X147636084Y-89402778D01*
X147559814Y-89340186D01*
X147476552Y-89238729D01*
X147447222Y-89202991D01*
X147363557Y-89046466D01*
X147312037Y-88876627D01*
X147294641Y-88700000D01*
X147312037Y-88523373D01*
X147363557Y-88353534D01*
X147447222Y-88197009D01*
X147476552Y-88161271D01*
X147559814Y-88059814D01*
X147661271Y-87976552D01*
X147697009Y-87947222D01*
X147853534Y-87863557D01*
X148023373Y-87812037D01*
X148089557Y-87805519D01*
X148155740Y-87799000D01*
X148544260Y-87799000D01*
X148610443Y-87805519D01*
G37*
G36*
X134810443Y-87805519D02*
G01*
X134876627Y-87812037D01*
X135046466Y-87863557D01*
X135202991Y-87947222D01*
X135238729Y-87976552D01*
X135340186Y-88059814D01*
X135423448Y-88161271D01*
X135452778Y-88197009D01*
X135536443Y-88353534D01*
X135587963Y-88523373D01*
X135605359Y-88700000D01*
X135587963Y-88876627D01*
X135536443Y-89046466D01*
X135452778Y-89202991D01*
X135423448Y-89238729D01*
X135340186Y-89340186D01*
X135263916Y-89402778D01*
X135202991Y-89452778D01*
X135046466Y-89536443D01*
X134876627Y-89587963D01*
X134810443Y-89594481D01*
X134744260Y-89601000D01*
X134355740Y-89601000D01*
X134289557Y-89594481D01*
X134223373Y-89587963D01*
X134053534Y-89536443D01*
X133897009Y-89452778D01*
X133836084Y-89402778D01*
X133759814Y-89340186D01*
X133676552Y-89238729D01*
X133647222Y-89202991D01*
X133563557Y-89046466D01*
X133512037Y-88876627D01*
X133494641Y-88700000D01*
X133512037Y-88523373D01*
X133563557Y-88353534D01*
X133647222Y-88197009D01*
X133676552Y-88161271D01*
X133759814Y-88059814D01*
X133861271Y-87976552D01*
X133897009Y-87947222D01*
X134053534Y-87863557D01*
X134223373Y-87812037D01*
X134289557Y-87805519D01*
X134355740Y-87799000D01*
X134744260Y-87799000D01*
X134810443Y-87805519D01*
G37*
G36*
X155510443Y-87805519D02*
G01*
X155576627Y-87812037D01*
X155746466Y-87863557D01*
X155902991Y-87947222D01*
X155938729Y-87976552D01*
X156040186Y-88059814D01*
X156123448Y-88161271D01*
X156152778Y-88197009D01*
X156236443Y-88353534D01*
X156287963Y-88523373D01*
X156305359Y-88700000D01*
X156287963Y-88876627D01*
X156236443Y-89046466D01*
X156152778Y-89202991D01*
X156123448Y-89238729D01*
X156040186Y-89340186D01*
X155963916Y-89402778D01*
X155902991Y-89452778D01*
X155746466Y-89536443D01*
X155576627Y-89587963D01*
X155510443Y-89594481D01*
X155444260Y-89601000D01*
X155055740Y-89601000D01*
X154989557Y-89594481D01*
X154923373Y-89587963D01*
X154753534Y-89536443D01*
X154597009Y-89452778D01*
X154536084Y-89402778D01*
X154459814Y-89340186D01*
X154376552Y-89238729D01*
X154347222Y-89202991D01*
X154263557Y-89046466D01*
X154212037Y-88876627D01*
X154194641Y-88700000D01*
X154212037Y-88523373D01*
X154263557Y-88353534D01*
X154347222Y-88197009D01*
X154376552Y-88161271D01*
X154459814Y-88059814D01*
X154561271Y-87976552D01*
X154597009Y-87947222D01*
X154753534Y-87863557D01*
X154923373Y-87812037D01*
X154989557Y-87805519D01*
X155055740Y-87799000D01*
X155444260Y-87799000D01*
X155510443Y-87805519D01*
G37*
G36*
X164876626Y-87462037D02*
G01*
X165046465Y-87513557D01*
X165046467Y-87513558D01*
X165202989Y-87597221D01*
X165340186Y-87709814D01*
X165413378Y-87799000D01*
X165452778Y-87847009D01*
X165536443Y-88003534D01*
X165587963Y-88173373D01*
X165587963Y-88173375D01*
X165601000Y-88305740D01*
X165601000Y-88694259D01*
X165594482Y-88760441D01*
X165587963Y-88826626D01*
X165536443Y-88996466D01*
X165452778Y-89152991D01*
X165423448Y-89188729D01*
X165340186Y-89290186D01*
X165245250Y-89368097D01*
X165202991Y-89402778D01*
X165046466Y-89486443D01*
X164876627Y-89537963D01*
X164700000Y-89555359D01*
X164523374Y-89537963D01*
X164353535Y-89486443D01*
X164197010Y-89402778D01*
X164059815Y-89290185D01*
X163947222Y-89152991D01*
X163863557Y-88996466D01*
X163812037Y-88826627D01*
X163805518Y-88760442D01*
X163799000Y-88694260D01*
X163799000Y-88305741D01*
X163812037Y-88173376D01*
X163812037Y-88173374D01*
X163863557Y-88003535D01*
X163893657Y-87947222D01*
X163947221Y-87847011D01*
X164059814Y-87709814D01*
X164161271Y-87626552D01*
X164197009Y-87597222D01*
X164353534Y-87513557D01*
X164523373Y-87462037D01*
X164700000Y-87444641D01*
X164876626Y-87462037D01*
G37*
G36*
X173376626Y-87462037D02*
G01*
X173546465Y-87513557D01*
X173546467Y-87513558D01*
X173702989Y-87597221D01*
X173840186Y-87709814D01*
X173913378Y-87799000D01*
X173952778Y-87847009D01*
X174036443Y-88003534D01*
X174087963Y-88173373D01*
X174087963Y-88173375D01*
X174101000Y-88305740D01*
X174101000Y-88694259D01*
X174094482Y-88760441D01*
X174087963Y-88826626D01*
X174036443Y-88996466D01*
X173952778Y-89152991D01*
X173923448Y-89188729D01*
X173840186Y-89290186D01*
X173745250Y-89368097D01*
X173702991Y-89402778D01*
X173546466Y-89486443D01*
X173376627Y-89537963D01*
X173200000Y-89555359D01*
X173023374Y-89537963D01*
X172853535Y-89486443D01*
X172697010Y-89402778D01*
X172559815Y-89290185D01*
X172447222Y-89152991D01*
X172363557Y-88996466D01*
X172312037Y-88826627D01*
X172305518Y-88760442D01*
X172299000Y-88694260D01*
X172299000Y-88305741D01*
X172312037Y-88173376D01*
X172312037Y-88173374D01*
X172363557Y-88003535D01*
X172393657Y-87947222D01*
X172447221Y-87847011D01*
X172559814Y-87709814D01*
X172661271Y-87626552D01*
X172697009Y-87597222D01*
X172853534Y-87513557D01*
X173023373Y-87462037D01*
X173200000Y-87444641D01*
X173376626Y-87462037D01*
G37*
G36*
X162958600Y-87452989D02*
G01*
X162991652Y-87463015D01*
X163022103Y-87479292D01*
X163048799Y-87501201D01*
X163070708Y-87527897D01*
X163086985Y-87558348D01*
X163097011Y-87591400D01*
X163101000Y-87631903D01*
X163101000Y-89368097D01*
X163097011Y-89408600D01*
X163086985Y-89441652D01*
X163070708Y-89472103D01*
X163048799Y-89498799D01*
X163022103Y-89520708D01*
X162991652Y-89536985D01*
X162958600Y-89547011D01*
X162918097Y-89551000D01*
X161481903Y-89551000D01*
X161441400Y-89547011D01*
X161408348Y-89536985D01*
X161377897Y-89520708D01*
X161351201Y-89498799D01*
X161329292Y-89472103D01*
X161313015Y-89441652D01*
X161302989Y-89408600D01*
X161299000Y-89368097D01*
X161299000Y-87631903D01*
X161302989Y-87591400D01*
X161313015Y-87558348D01*
X161329292Y-87527897D01*
X161351201Y-87501201D01*
X161377897Y-87479292D01*
X161408348Y-87463015D01*
X161441400Y-87452989D01*
X161481903Y-87449000D01*
X162918097Y-87449000D01*
X162958600Y-87452989D01*
G37*
G36*
X171458600Y-87452989D02*
G01*
X171491652Y-87463015D01*
X171522103Y-87479292D01*
X171548799Y-87501201D01*
X171570708Y-87527897D01*
X171586985Y-87558348D01*
X171597011Y-87591400D01*
X171601000Y-87631903D01*
X171601000Y-89368097D01*
X171597011Y-89408600D01*
X171586985Y-89441652D01*
X171570708Y-89472103D01*
X171548799Y-89498799D01*
X171522103Y-89520708D01*
X171491652Y-89536985D01*
X171458600Y-89547011D01*
X171418097Y-89551000D01*
X169981903Y-89551000D01*
X169941400Y-89547011D01*
X169908348Y-89536985D01*
X169877897Y-89520708D01*
X169851201Y-89498799D01*
X169829292Y-89472103D01*
X169813015Y-89441652D01*
X169802989Y-89408600D01*
X169799000Y-89368097D01*
X169799000Y-87631903D01*
X169802989Y-87591400D01*
X169813015Y-87558348D01*
X169829292Y-87527897D01*
X169851201Y-87501201D01*
X169877897Y-87479292D01*
X169908348Y-87463015D01*
X169941400Y-87452989D01*
X169981903Y-87449000D01*
X171418097Y-87449000D01*
X171458600Y-87452989D01*
G37*
M02*
