%TF.GenerationSoftware,KiCad,Pcbnew,(6.0.7)*%
%TF.CreationDate,2023-03-18T19:29:26-05:00*%
%TF.ProjectId,CS4334Breakout,43533433-3334-4427-9265-616b6f75742e,rev?*%
%TF.SameCoordinates,Original*%
%TF.FileFunction,Soldermask,Top*%
%TF.FilePolarity,Negative*%
%FSLAX46Y46*%
G04 Gerber Fmt 4.6, Leading zero omitted, Abs format (unit mm)*
G04 Created by KiCad (PCBNEW (6.0.7)) date 2023-03-18 19:29:26*
%MOMM*%
%LPD*%
G01*
G04 APERTURE LIST*
G04 Aperture macros list*
%AMRoundRect*
0 Rectangle with rounded corners*
0 $1 Rounding radius*
0 $2 $3 $4 $5 $6 $7 $8 $9 X,Y pos of 4 corners*
0 Add a 4 corners polygon primitive as box body*
4,1,4,$2,$3,$4,$5,$6,$7,$8,$9,$2,$3,0*
0 Add four circle primitives for the rounded corners*
1,1,$1+$1,$2,$3*
1,1,$1+$1,$4,$5*
1,1,$1+$1,$6,$7*
1,1,$1+$1,$8,$9*
0 Add four rect primitives between the rounded corners*
20,1,$1+$1,$2,$3,$4,$5,0*
20,1,$1+$1,$4,$5,$6,$7,0*
20,1,$1+$1,$6,$7,$8,$9,0*
20,1,$1+$1,$8,$9,$2,$3,0*%
G04 Aperture macros list end*
%ADD10R,1.397000X0.558800*%
%ADD11RoundRect,0.250000X0.350000X0.450000X-0.350000X0.450000X-0.350000X-0.450000X0.350000X-0.450000X0*%
%ADD12RoundRect,0.250000X0.450000X-0.350000X0.450000X0.350000X-0.450000X0.350000X-0.450000X-0.350000X0*%
%ADD13RoundRect,0.250000X-0.350000X-0.450000X0.350000X-0.450000X0.350000X0.450000X-0.350000X0.450000X0*%
%ADD14R,1.700000X1.700000*%
%ADD15O,1.700000X1.700000*%
%ADD16RoundRect,0.250000X0.475000X-0.337500X0.475000X0.337500X-0.475000X0.337500X-0.475000X-0.337500X0*%
%ADD17RoundRect,0.250000X-0.475000X0.337500X-0.475000X-0.337500X0.475000X-0.337500X0.475000X0.337500X0*%
%ADD18RoundRect,0.250000X-0.337500X-0.475000X0.337500X-0.475000X0.337500X0.475000X-0.337500X0.475000X0*%
G04 APERTURE END LIST*
D10*
%TO.C,U1*%
X165976300Y-98933000D03*
X165976300Y-100203000D03*
X165976300Y-101473000D03*
X165976300Y-102743000D03*
X160667700Y-102743000D03*
X160667700Y-101473000D03*
X160667700Y-100203000D03*
X160667700Y-98933000D03*
%TD*%
D11*
%TO.C,R8*%
X168418000Y-96266000D03*
X170418000Y-96266000D03*
%TD*%
D12*
%TO.C,R7*%
X172974000Y-106664000D03*
X172974000Y-104664000D03*
%TD*%
D13*
%TO.C,R6*%
X168418000Y-99568000D03*
X170418000Y-99568000D03*
%TD*%
%TO.C,R5*%
X168164000Y-108712000D03*
X170164000Y-108712000D03*
%TD*%
%TO.C,R4*%
X168418000Y-102108000D03*
X170418000Y-102108000D03*
%TD*%
%TO.C,R3*%
X168164000Y-110998000D03*
X170164000Y-110998000D03*
%TD*%
D11*
%TO.C,R2*%
X161020000Y-105156000D03*
X159020000Y-105156000D03*
%TD*%
%TO.C,R1*%
X159020000Y-108712000D03*
X161020000Y-108712000D03*
%TD*%
D14*
%TO.C,J2*%
X177800000Y-99060000D03*
D15*
X177800000Y-101600000D03*
X177800000Y-104140000D03*
X177800000Y-106680000D03*
%TD*%
D14*
%TO.C,J1*%
X154940000Y-96520000D03*
D15*
X154940000Y-99060000D03*
X154940000Y-101600000D03*
X154940000Y-104140000D03*
X154940000Y-106680000D03*
X154940000Y-109220000D03*
%TD*%
D16*
%TO.C,C6*%
X164592000Y-96541500D03*
X164592000Y-94466500D03*
%TD*%
%TO.C,C5*%
X161798000Y-96541500D03*
X161798000Y-94466500D03*
%TD*%
%TO.C,C4*%
X172974000Y-99589500D03*
X172974000Y-97514500D03*
%TD*%
D17*
%TO.C,C3*%
X172974000Y-108712000D03*
X172974000Y-110787000D03*
%TD*%
D18*
%TO.C,C2*%
X163554500Y-105156000D03*
X165629500Y-105156000D03*
%TD*%
%TO.C,C1*%
X163554500Y-108712000D03*
X165629500Y-108712000D03*
%TD*%
M02*
