G04 #@! TF.GenerationSoftware,KiCad,Pcbnew,(5.1.6)-1*
G04 #@! TF.CreationDate,2020-08-20T21:44:59-05:00*
G04 #@! TF.ProjectId,ControlBoardT4_28PinSound_Power,436f6e74-726f-46c4-926f-61726454345f,rev?*
G04 #@! TF.SameCoordinates,Original*
G04 #@! TF.FileFunction,Soldermask,Bot*
G04 #@! TF.FilePolarity,Negative*
%FSLAX46Y46*%
G04 Gerber Fmt 4.6, Leading zero omitted, Abs format (unit mm)*
G04 Created by KiCad (PCBNEW (5.1.6)-1) date 2020-08-20 21:44:59*
%MOMM*%
%LPD*%
G01*
G04 APERTURE LIST*
%ADD10C,0.100000*%
G04 APERTURE END LIST*
D10*
G36*
X166797642Y-145077742D02*
G01*
X166945601Y-145139029D01*
X167078755Y-145227999D01*
X167192001Y-145341245D01*
X167280971Y-145474399D01*
X167342258Y-145622358D01*
X167373500Y-145779425D01*
X167373500Y-145939575D01*
X167342258Y-146096642D01*
X167280971Y-146244601D01*
X167192001Y-146377755D01*
X167078755Y-146491001D01*
X166945601Y-146579971D01*
X166797642Y-146641258D01*
X166640575Y-146672500D01*
X166480425Y-146672500D01*
X166323358Y-146641258D01*
X166175399Y-146579971D01*
X166042245Y-146491001D01*
X165928999Y-146377755D01*
X165840029Y-146244601D01*
X165778742Y-146096642D01*
X165747500Y-145939575D01*
X165747500Y-145779425D01*
X165778742Y-145622358D01*
X165840029Y-145474399D01*
X165928999Y-145341245D01*
X166042245Y-145227999D01*
X166175399Y-145139029D01*
X166323358Y-145077742D01*
X166480425Y-145046500D01*
X166640575Y-145046500D01*
X166797642Y-145077742D01*
G37*
G36*
X126157642Y-145077742D02*
G01*
X126305601Y-145139029D01*
X126438755Y-145227999D01*
X126552001Y-145341245D01*
X126640971Y-145474399D01*
X126702258Y-145622358D01*
X126733500Y-145779425D01*
X126733500Y-145939575D01*
X126702258Y-146096642D01*
X126640971Y-146244601D01*
X126552001Y-146377755D01*
X126438755Y-146491001D01*
X126305601Y-146579971D01*
X126157642Y-146641258D01*
X126000575Y-146672500D01*
X125840425Y-146672500D01*
X125683358Y-146641258D01*
X125535399Y-146579971D01*
X125402245Y-146491001D01*
X125288999Y-146377755D01*
X125200029Y-146244601D01*
X125138742Y-146096642D01*
X125107500Y-145939575D01*
X125107500Y-145779425D01*
X125138742Y-145622358D01*
X125200029Y-145474399D01*
X125288999Y-145341245D01*
X125402245Y-145227999D01*
X125535399Y-145139029D01*
X125683358Y-145077742D01*
X125840425Y-145046500D01*
X126000575Y-145046500D01*
X126157642Y-145077742D01*
G37*
G36*
X120129500Y-139052500D02*
G01*
X117741500Y-139052500D01*
X117741500Y-136664500D01*
X120129500Y-136664500D01*
X120129500Y-139052500D01*
G37*
G36*
X119283776Y-131630384D02*
G01*
X119501069Y-131720390D01*
X119501071Y-131720391D01*
X119696630Y-131851060D01*
X119862940Y-132017370D01*
X119993610Y-132212931D01*
X120083616Y-132430224D01*
X120129500Y-132660900D01*
X120129500Y-132896100D01*
X120083616Y-133126776D01*
X119993610Y-133344069D01*
X119993609Y-133344071D01*
X119862940Y-133539630D01*
X119696630Y-133705940D01*
X119501071Y-133836609D01*
X119501070Y-133836610D01*
X119501069Y-133836610D01*
X119283776Y-133926616D01*
X119053100Y-133972500D01*
X118817900Y-133972500D01*
X118587224Y-133926616D01*
X118369931Y-133836610D01*
X118369930Y-133836610D01*
X118369929Y-133836609D01*
X118174370Y-133705940D01*
X118008060Y-133539630D01*
X117877391Y-133344071D01*
X117877390Y-133344069D01*
X117787384Y-133126776D01*
X117741500Y-132896100D01*
X117741500Y-132660900D01*
X117787384Y-132430224D01*
X117877390Y-132212931D01*
X118008060Y-132017370D01*
X118174370Y-131851060D01*
X118369929Y-131720391D01*
X118369931Y-131720390D01*
X118587224Y-131630384D01*
X118817900Y-131584500D01*
X119053100Y-131584500D01*
X119283776Y-131630384D01*
G37*
G36*
X166797642Y-127297742D02*
G01*
X166945601Y-127359029D01*
X167078755Y-127447999D01*
X167192001Y-127561245D01*
X167280971Y-127694399D01*
X167342258Y-127842358D01*
X167373500Y-127999425D01*
X167373500Y-128159575D01*
X167342258Y-128316642D01*
X167280971Y-128464601D01*
X167192001Y-128597755D01*
X167078755Y-128711001D01*
X166945601Y-128799971D01*
X166797642Y-128861258D01*
X166640575Y-128892500D01*
X166480425Y-128892500D01*
X166323358Y-128861258D01*
X166175399Y-128799971D01*
X166042245Y-128711001D01*
X165928999Y-128597755D01*
X165840029Y-128464601D01*
X165778742Y-128316642D01*
X165747500Y-128159575D01*
X165747500Y-127999425D01*
X165778742Y-127842358D01*
X165840029Y-127694399D01*
X165928999Y-127561245D01*
X166042245Y-127447999D01*
X166175399Y-127359029D01*
X166323358Y-127297742D01*
X166480425Y-127266500D01*
X166640575Y-127266500D01*
X166797642Y-127297742D01*
G37*
G36*
X126157642Y-127297742D02*
G01*
X126305601Y-127359029D01*
X126438755Y-127447999D01*
X126552001Y-127561245D01*
X126640971Y-127694399D01*
X126702258Y-127842358D01*
X126733500Y-127999425D01*
X126733500Y-128159575D01*
X126702258Y-128316642D01*
X126640971Y-128464601D01*
X126552001Y-128597755D01*
X126438755Y-128711001D01*
X126305601Y-128799971D01*
X126157642Y-128861258D01*
X126000575Y-128892500D01*
X125840425Y-128892500D01*
X125683358Y-128861258D01*
X125535399Y-128799971D01*
X125402245Y-128711001D01*
X125288999Y-128597755D01*
X125200029Y-128464601D01*
X125138742Y-128316642D01*
X125107500Y-128159575D01*
X125107500Y-127999425D01*
X125138742Y-127842358D01*
X125200029Y-127694399D01*
X125288999Y-127561245D01*
X125402245Y-127447999D01*
X125535399Y-127359029D01*
X125683358Y-127297742D01*
X125840425Y-127266500D01*
X126000575Y-127266500D01*
X126157642Y-127297742D01*
G37*
G36*
X112336585Y-118642802D02*
G01*
X112486410Y-118672604D01*
X112768674Y-118789521D01*
X113022705Y-118959259D01*
X113238741Y-119175295D01*
X113408479Y-119429326D01*
X113525396Y-119711590D01*
X113585000Y-120011240D01*
X113585000Y-120316760D01*
X113525396Y-120616410D01*
X113408479Y-120898674D01*
X113238741Y-121152705D01*
X113022705Y-121368741D01*
X112768674Y-121538479D01*
X112486410Y-121655396D01*
X112336585Y-121685198D01*
X112186761Y-121715000D01*
X111881239Y-121715000D01*
X111731415Y-121685198D01*
X111581590Y-121655396D01*
X111299326Y-121538479D01*
X111045295Y-121368741D01*
X110829259Y-121152705D01*
X110659521Y-120898674D01*
X110542604Y-120616410D01*
X110483000Y-120316760D01*
X110483000Y-120011240D01*
X110542604Y-119711590D01*
X110659521Y-119429326D01*
X110829259Y-119175295D01*
X111045295Y-118959259D01*
X111299326Y-118789521D01*
X111581590Y-118672604D01*
X111731415Y-118642802D01*
X111881239Y-118613000D01*
X112186761Y-118613000D01*
X112336585Y-118642802D01*
G37*
G36*
X173226585Y-118642802D02*
G01*
X173376410Y-118672604D01*
X173658674Y-118789521D01*
X173912705Y-118959259D01*
X174128741Y-119175295D01*
X174298479Y-119429326D01*
X174415396Y-119711590D01*
X174475000Y-120011240D01*
X174475000Y-120316760D01*
X174415396Y-120616410D01*
X174298479Y-120898674D01*
X174128741Y-121152705D01*
X173912705Y-121368741D01*
X173658674Y-121538479D01*
X173376410Y-121655396D01*
X173226585Y-121685198D01*
X173076761Y-121715000D01*
X172771239Y-121715000D01*
X172621415Y-121685198D01*
X172471590Y-121655396D01*
X172189326Y-121538479D01*
X171935295Y-121368741D01*
X171719259Y-121152705D01*
X171549521Y-120898674D01*
X171432604Y-120616410D01*
X171373000Y-120316760D01*
X171373000Y-120011240D01*
X171432604Y-119711590D01*
X171549521Y-119429326D01*
X171719259Y-119175295D01*
X171935295Y-118959259D01*
X172189326Y-118789521D01*
X172471590Y-118672604D01*
X172621415Y-118642802D01*
X172771239Y-118613000D01*
X173076761Y-118613000D01*
X173226585Y-118642802D01*
G37*
G36*
X158673012Y-118356927D02*
G01*
X158822312Y-118386624D01*
X158986284Y-118454544D01*
X159133854Y-118553147D01*
X159259353Y-118678646D01*
X159357956Y-118826216D01*
X159425876Y-118990188D01*
X159460500Y-119164259D01*
X159460500Y-119341741D01*
X159425876Y-119515812D01*
X159357956Y-119679784D01*
X159259353Y-119827354D01*
X159133854Y-119952853D01*
X158986284Y-120051456D01*
X158822312Y-120119376D01*
X158673012Y-120149073D01*
X158648242Y-120154000D01*
X158470758Y-120154000D01*
X158445988Y-120149073D01*
X158296688Y-120119376D01*
X158132716Y-120051456D01*
X157985146Y-119952853D01*
X157859647Y-119827354D01*
X157761044Y-119679784D01*
X157693124Y-119515812D01*
X157658500Y-119341741D01*
X157658500Y-119164259D01*
X157693124Y-118990188D01*
X157761044Y-118826216D01*
X157859647Y-118678646D01*
X157985146Y-118553147D01*
X158132716Y-118454544D01*
X158296688Y-118386624D01*
X158445988Y-118356927D01*
X158470758Y-118352000D01*
X158648242Y-118352000D01*
X158673012Y-118356927D01*
G37*
G36*
X161213012Y-118356927D02*
G01*
X161362312Y-118386624D01*
X161526284Y-118454544D01*
X161673854Y-118553147D01*
X161799353Y-118678646D01*
X161897956Y-118826216D01*
X161965876Y-118990188D01*
X162000500Y-119164259D01*
X162000500Y-119341741D01*
X161965876Y-119515812D01*
X161897956Y-119679784D01*
X161799353Y-119827354D01*
X161673854Y-119952853D01*
X161526284Y-120051456D01*
X161362312Y-120119376D01*
X161213012Y-120149073D01*
X161188242Y-120154000D01*
X161010758Y-120154000D01*
X160985988Y-120149073D01*
X160836688Y-120119376D01*
X160672716Y-120051456D01*
X160525146Y-119952853D01*
X160399647Y-119827354D01*
X160301044Y-119679784D01*
X160233124Y-119515812D01*
X160198500Y-119341741D01*
X160198500Y-119164259D01*
X160233124Y-118990188D01*
X160301044Y-118826216D01*
X160399647Y-118678646D01*
X160525146Y-118553147D01*
X160672716Y-118454544D01*
X160836688Y-118386624D01*
X160985988Y-118356927D01*
X161010758Y-118352000D01*
X161188242Y-118352000D01*
X161213012Y-118356927D01*
G37*
G36*
X163753012Y-118356927D02*
G01*
X163902312Y-118386624D01*
X164066284Y-118454544D01*
X164213854Y-118553147D01*
X164339353Y-118678646D01*
X164437956Y-118826216D01*
X164505876Y-118990188D01*
X164540500Y-119164259D01*
X164540500Y-119341741D01*
X164505876Y-119515812D01*
X164437956Y-119679784D01*
X164339353Y-119827354D01*
X164213854Y-119952853D01*
X164066284Y-120051456D01*
X163902312Y-120119376D01*
X163753012Y-120149073D01*
X163728242Y-120154000D01*
X163550758Y-120154000D01*
X163525988Y-120149073D01*
X163376688Y-120119376D01*
X163212716Y-120051456D01*
X163065146Y-119952853D01*
X162939647Y-119827354D01*
X162841044Y-119679784D01*
X162773124Y-119515812D01*
X162738500Y-119341741D01*
X162738500Y-119164259D01*
X162773124Y-118990188D01*
X162841044Y-118826216D01*
X162939647Y-118678646D01*
X163065146Y-118553147D01*
X163212716Y-118454544D01*
X163376688Y-118386624D01*
X163525988Y-118356927D01*
X163550758Y-118352000D01*
X163728242Y-118352000D01*
X163753012Y-118356927D01*
G37*
G36*
X167080500Y-120154000D02*
G01*
X165278500Y-120154000D01*
X165278500Y-118352000D01*
X167080500Y-118352000D01*
X167080500Y-120154000D01*
G37*
G36*
X153593012Y-118356927D02*
G01*
X153742312Y-118386624D01*
X153906284Y-118454544D01*
X154053854Y-118553147D01*
X154179353Y-118678646D01*
X154277956Y-118826216D01*
X154345876Y-118990188D01*
X154380500Y-119164259D01*
X154380500Y-119341741D01*
X154345876Y-119515812D01*
X154277956Y-119679784D01*
X154179353Y-119827354D01*
X154053854Y-119952853D01*
X153906284Y-120051456D01*
X153742312Y-120119376D01*
X153593012Y-120149073D01*
X153568242Y-120154000D01*
X153390758Y-120154000D01*
X153365988Y-120149073D01*
X153216688Y-120119376D01*
X153052716Y-120051456D01*
X152905146Y-119952853D01*
X152779647Y-119827354D01*
X152681044Y-119679784D01*
X152613124Y-119515812D01*
X152578500Y-119341741D01*
X152578500Y-119164259D01*
X152613124Y-118990188D01*
X152681044Y-118826216D01*
X152779647Y-118678646D01*
X152905146Y-118553147D01*
X153052716Y-118454544D01*
X153216688Y-118386624D01*
X153365988Y-118356927D01*
X153390758Y-118352000D01*
X153568242Y-118352000D01*
X153593012Y-118356927D01*
G37*
G36*
X156133012Y-118356927D02*
G01*
X156282312Y-118386624D01*
X156446284Y-118454544D01*
X156593854Y-118553147D01*
X156719353Y-118678646D01*
X156817956Y-118826216D01*
X156885876Y-118990188D01*
X156920500Y-119164259D01*
X156920500Y-119341741D01*
X156885876Y-119515812D01*
X156817956Y-119679784D01*
X156719353Y-119827354D01*
X156593854Y-119952853D01*
X156446284Y-120051456D01*
X156282312Y-120119376D01*
X156133012Y-120149073D01*
X156108242Y-120154000D01*
X155930758Y-120154000D01*
X155905988Y-120149073D01*
X155756688Y-120119376D01*
X155592716Y-120051456D01*
X155445146Y-119952853D01*
X155319647Y-119827354D01*
X155221044Y-119679784D01*
X155153124Y-119515812D01*
X155118500Y-119341741D01*
X155118500Y-119164259D01*
X155153124Y-118990188D01*
X155221044Y-118826216D01*
X155319647Y-118678646D01*
X155445146Y-118553147D01*
X155592716Y-118454544D01*
X155756688Y-118386624D01*
X155905988Y-118356927D01*
X155930758Y-118352000D01*
X156108242Y-118352000D01*
X156133012Y-118356927D01*
G37*
G36*
X150679728Y-113672203D02*
G01*
X150834600Y-113736353D01*
X150973981Y-113829485D01*
X151092515Y-113948019D01*
X151185647Y-114087400D01*
X151249797Y-114242272D01*
X151282500Y-114406684D01*
X151282500Y-114574316D01*
X151249797Y-114738728D01*
X151185647Y-114893600D01*
X151092515Y-115032981D01*
X150973981Y-115151515D01*
X150834600Y-115244647D01*
X150679728Y-115308797D01*
X150515316Y-115341500D01*
X150347684Y-115341500D01*
X150183272Y-115308797D01*
X150028400Y-115244647D01*
X149889019Y-115151515D01*
X149770485Y-115032981D01*
X149677353Y-114893600D01*
X149613203Y-114738728D01*
X149580500Y-114574316D01*
X149580500Y-114406684D01*
X149613203Y-114242272D01*
X149677353Y-114087400D01*
X149770485Y-113948019D01*
X149889019Y-113829485D01*
X150028400Y-113736353D01*
X150183272Y-113672203D01*
X150347684Y-113639500D01*
X150515316Y-113639500D01*
X150679728Y-113672203D01*
G37*
G36*
X135439728Y-113672203D02*
G01*
X135594600Y-113736353D01*
X135733981Y-113829485D01*
X135852515Y-113948019D01*
X135945647Y-114087400D01*
X136009797Y-114242272D01*
X136042500Y-114406684D01*
X136042500Y-114574316D01*
X136009797Y-114738728D01*
X135945647Y-114893600D01*
X135852515Y-115032981D01*
X135733981Y-115151515D01*
X135594600Y-115244647D01*
X135439728Y-115308797D01*
X135275316Y-115341500D01*
X135107684Y-115341500D01*
X134943272Y-115308797D01*
X134788400Y-115244647D01*
X134649019Y-115151515D01*
X134530485Y-115032981D01*
X134437353Y-114893600D01*
X134373203Y-114738728D01*
X134340500Y-114574316D01*
X134340500Y-114406684D01*
X134373203Y-114242272D01*
X134437353Y-114087400D01*
X134530485Y-113948019D01*
X134649019Y-113829485D01*
X134788400Y-113736353D01*
X134943272Y-113672203D01*
X135107684Y-113639500D01*
X135275316Y-113639500D01*
X135439728Y-113672203D01*
G37*
G36*
X150679728Y-111132203D02*
G01*
X150834600Y-111196353D01*
X150973981Y-111289485D01*
X151092515Y-111408019D01*
X151185647Y-111547400D01*
X151249797Y-111702272D01*
X151282500Y-111866684D01*
X151282500Y-112034316D01*
X151249797Y-112198728D01*
X151185647Y-112353600D01*
X151092515Y-112492981D01*
X150973981Y-112611515D01*
X150834600Y-112704647D01*
X150679728Y-112768797D01*
X150515316Y-112801500D01*
X150347684Y-112801500D01*
X150183272Y-112768797D01*
X150028400Y-112704647D01*
X149889019Y-112611515D01*
X149770485Y-112492981D01*
X149677353Y-112353600D01*
X149613203Y-112198728D01*
X149580500Y-112034316D01*
X149580500Y-111866684D01*
X149613203Y-111702272D01*
X149677353Y-111547400D01*
X149770485Y-111408019D01*
X149889019Y-111289485D01*
X150028400Y-111196353D01*
X150183272Y-111132203D01*
X150347684Y-111099500D01*
X150515316Y-111099500D01*
X150679728Y-111132203D01*
G37*
G36*
X135439728Y-111132203D02*
G01*
X135594600Y-111196353D01*
X135733981Y-111289485D01*
X135852515Y-111408019D01*
X135945647Y-111547400D01*
X136009797Y-111702272D01*
X136042500Y-111866684D01*
X136042500Y-112034316D01*
X136009797Y-112198728D01*
X135945647Y-112353600D01*
X135852515Y-112492981D01*
X135733981Y-112611515D01*
X135594600Y-112704647D01*
X135439728Y-112768797D01*
X135275316Y-112801500D01*
X135107684Y-112801500D01*
X134943272Y-112768797D01*
X134788400Y-112704647D01*
X134649019Y-112611515D01*
X134530485Y-112492981D01*
X134437353Y-112353600D01*
X134373203Y-112198728D01*
X134340500Y-112034316D01*
X134340500Y-111866684D01*
X134373203Y-111702272D01*
X134437353Y-111547400D01*
X134530485Y-111408019D01*
X134649019Y-111289485D01*
X134788400Y-111196353D01*
X134943272Y-111132203D01*
X135107684Y-111099500D01*
X135275316Y-111099500D01*
X135439728Y-111132203D01*
G37*
G36*
X131992512Y-110927427D02*
G01*
X132141812Y-110957124D01*
X132305784Y-111025044D01*
X132453354Y-111123647D01*
X132578853Y-111249146D01*
X132677456Y-111396716D01*
X132745376Y-111560688D01*
X132780000Y-111734759D01*
X132780000Y-111912241D01*
X132745376Y-112086312D01*
X132677456Y-112250284D01*
X132578853Y-112397854D01*
X132453354Y-112523353D01*
X132305784Y-112621956D01*
X132141812Y-112689876D01*
X131992512Y-112719573D01*
X131967742Y-112724500D01*
X131790258Y-112724500D01*
X131765488Y-112719573D01*
X131616188Y-112689876D01*
X131452216Y-112621956D01*
X131304646Y-112523353D01*
X131179147Y-112397854D01*
X131080544Y-112250284D01*
X131012624Y-112086312D01*
X130978000Y-111912241D01*
X130978000Y-111734759D01*
X131012624Y-111560688D01*
X131080544Y-111396716D01*
X131179147Y-111249146D01*
X131304646Y-111123647D01*
X131452216Y-111025044D01*
X131616188Y-110957124D01*
X131765488Y-110927427D01*
X131790258Y-110922500D01*
X131967742Y-110922500D01*
X131992512Y-110927427D01*
G37*
G36*
X111492512Y-110927427D02*
G01*
X111641812Y-110957124D01*
X111805784Y-111025044D01*
X111953354Y-111123647D01*
X112078853Y-111249146D01*
X112177456Y-111396716D01*
X112245376Y-111560688D01*
X112280000Y-111734759D01*
X112280000Y-111912241D01*
X112245376Y-112086312D01*
X112177456Y-112250284D01*
X112078853Y-112397854D01*
X111953354Y-112523353D01*
X111805784Y-112621956D01*
X111641812Y-112689876D01*
X111492512Y-112719573D01*
X111467742Y-112724500D01*
X111290258Y-112724500D01*
X111265488Y-112719573D01*
X111116188Y-112689876D01*
X110952216Y-112621956D01*
X110804646Y-112523353D01*
X110679147Y-112397854D01*
X110580544Y-112250284D01*
X110512624Y-112086312D01*
X110478000Y-111912241D01*
X110478000Y-111734759D01*
X110512624Y-111560688D01*
X110580544Y-111396716D01*
X110679147Y-111249146D01*
X110804646Y-111123647D01*
X110952216Y-111025044D01*
X111116188Y-110957124D01*
X111265488Y-110927427D01*
X111290258Y-110922500D01*
X111467742Y-110922500D01*
X111492512Y-110927427D01*
G37*
G36*
X158063500Y-112407000D02*
G01*
X156261500Y-112407000D01*
X156261500Y-110605000D01*
X158063500Y-110605000D01*
X158063500Y-112407000D01*
G37*
G36*
X155523500Y-112407000D02*
G01*
X153721500Y-112407000D01*
X153721500Y-110605000D01*
X155523500Y-110605000D01*
X155523500Y-112407000D01*
G37*
G36*
X150679728Y-108592203D02*
G01*
X150834600Y-108656353D01*
X150973981Y-108749485D01*
X151092515Y-108868019D01*
X151185647Y-109007400D01*
X151249797Y-109162272D01*
X151282500Y-109326684D01*
X151282500Y-109494316D01*
X151249797Y-109658728D01*
X151185647Y-109813600D01*
X151092515Y-109952981D01*
X150973981Y-110071515D01*
X150834600Y-110164647D01*
X150679728Y-110228797D01*
X150515316Y-110261500D01*
X150347684Y-110261500D01*
X150183272Y-110228797D01*
X150028400Y-110164647D01*
X149889019Y-110071515D01*
X149770485Y-109952981D01*
X149677353Y-109813600D01*
X149613203Y-109658728D01*
X149580500Y-109494316D01*
X149580500Y-109326684D01*
X149613203Y-109162272D01*
X149677353Y-109007400D01*
X149770485Y-108868019D01*
X149889019Y-108749485D01*
X150028400Y-108656353D01*
X150183272Y-108592203D01*
X150347684Y-108559500D01*
X150515316Y-108559500D01*
X150679728Y-108592203D01*
G37*
G36*
X135439728Y-108592203D02*
G01*
X135594600Y-108656353D01*
X135733981Y-108749485D01*
X135852515Y-108868019D01*
X135945647Y-109007400D01*
X136009797Y-109162272D01*
X136042500Y-109326684D01*
X136042500Y-109494316D01*
X136009797Y-109658728D01*
X135945647Y-109813600D01*
X135852515Y-109952981D01*
X135733981Y-110071515D01*
X135594600Y-110164647D01*
X135439728Y-110228797D01*
X135275316Y-110261500D01*
X135107684Y-110261500D01*
X134943272Y-110228797D01*
X134788400Y-110164647D01*
X134649019Y-110071515D01*
X134530485Y-109952981D01*
X134437353Y-109813600D01*
X134373203Y-109658728D01*
X134340500Y-109494316D01*
X134340500Y-109326684D01*
X134373203Y-109162272D01*
X134437353Y-109007400D01*
X134530485Y-108868019D01*
X134649019Y-108749485D01*
X134788400Y-108656353D01*
X134943272Y-108592203D01*
X135107684Y-108559500D01*
X135275316Y-108559500D01*
X135439728Y-108592203D01*
G37*
G36*
X131992512Y-108387427D02*
G01*
X132141812Y-108417124D01*
X132305784Y-108485044D01*
X132453354Y-108583647D01*
X132578853Y-108709146D01*
X132677456Y-108856716D01*
X132745376Y-109020688D01*
X132780000Y-109194759D01*
X132780000Y-109372241D01*
X132745376Y-109546312D01*
X132677456Y-109710284D01*
X132578853Y-109857854D01*
X132453354Y-109983353D01*
X132305784Y-110081956D01*
X132141812Y-110149876D01*
X131992512Y-110179573D01*
X131967742Y-110184500D01*
X131790258Y-110184500D01*
X131765488Y-110179573D01*
X131616188Y-110149876D01*
X131452216Y-110081956D01*
X131304646Y-109983353D01*
X131179147Y-109857854D01*
X131080544Y-109710284D01*
X131012624Y-109546312D01*
X130978000Y-109372241D01*
X130978000Y-109194759D01*
X131012624Y-109020688D01*
X131080544Y-108856716D01*
X131179147Y-108709146D01*
X131304646Y-108583647D01*
X131452216Y-108485044D01*
X131616188Y-108417124D01*
X131765488Y-108387427D01*
X131790258Y-108382500D01*
X131967742Y-108382500D01*
X131992512Y-108387427D01*
G37*
G36*
X111492512Y-108387427D02*
G01*
X111641812Y-108417124D01*
X111805784Y-108485044D01*
X111953354Y-108583647D01*
X112078853Y-108709146D01*
X112177456Y-108856716D01*
X112245376Y-109020688D01*
X112280000Y-109194759D01*
X112280000Y-109372241D01*
X112245376Y-109546312D01*
X112177456Y-109710284D01*
X112078853Y-109857854D01*
X111953354Y-109983353D01*
X111805784Y-110081956D01*
X111641812Y-110149876D01*
X111492512Y-110179573D01*
X111467742Y-110184500D01*
X111290258Y-110184500D01*
X111265488Y-110179573D01*
X111116188Y-110149876D01*
X110952216Y-110081956D01*
X110804646Y-109983353D01*
X110679147Y-109857854D01*
X110580544Y-109710284D01*
X110512624Y-109546312D01*
X110478000Y-109372241D01*
X110478000Y-109194759D01*
X110512624Y-109020688D01*
X110580544Y-108856716D01*
X110679147Y-108709146D01*
X110804646Y-108583647D01*
X110952216Y-108485044D01*
X111116188Y-108417124D01*
X111265488Y-108387427D01*
X111290258Y-108382500D01*
X111467742Y-108382500D01*
X111492512Y-108387427D01*
G37*
G36*
X173303500Y-109867000D02*
G01*
X171501500Y-109867000D01*
X171501500Y-108065000D01*
X173303500Y-108065000D01*
X173303500Y-109867000D01*
G37*
G36*
X157276012Y-108069927D02*
G01*
X157425312Y-108099624D01*
X157589284Y-108167544D01*
X157736854Y-108266147D01*
X157862353Y-108391646D01*
X157960956Y-108539216D01*
X158028876Y-108703188D01*
X158063500Y-108877259D01*
X158063500Y-109054741D01*
X158028876Y-109228812D01*
X157960956Y-109392784D01*
X157862353Y-109540354D01*
X157736854Y-109665853D01*
X157589284Y-109764456D01*
X157425312Y-109832376D01*
X157276012Y-109862073D01*
X157251242Y-109867000D01*
X157073758Y-109867000D01*
X157048988Y-109862073D01*
X156899688Y-109832376D01*
X156735716Y-109764456D01*
X156588146Y-109665853D01*
X156462647Y-109540354D01*
X156364044Y-109392784D01*
X156296124Y-109228812D01*
X156261500Y-109054741D01*
X156261500Y-108877259D01*
X156296124Y-108703188D01*
X156364044Y-108539216D01*
X156462647Y-108391646D01*
X156588146Y-108266147D01*
X156735716Y-108167544D01*
X156899688Y-108099624D01*
X157048988Y-108069927D01*
X157073758Y-108065000D01*
X157251242Y-108065000D01*
X157276012Y-108069927D01*
G37*
G36*
X154736012Y-108069927D02*
G01*
X154885312Y-108099624D01*
X155049284Y-108167544D01*
X155196854Y-108266147D01*
X155322353Y-108391646D01*
X155420956Y-108539216D01*
X155488876Y-108703188D01*
X155523500Y-108877259D01*
X155523500Y-109054741D01*
X155488876Y-109228812D01*
X155420956Y-109392784D01*
X155322353Y-109540354D01*
X155196854Y-109665853D01*
X155049284Y-109764456D01*
X154885312Y-109832376D01*
X154736012Y-109862073D01*
X154711242Y-109867000D01*
X154533758Y-109867000D01*
X154508988Y-109862073D01*
X154359688Y-109832376D01*
X154195716Y-109764456D01*
X154048146Y-109665853D01*
X153922647Y-109540354D01*
X153824044Y-109392784D01*
X153756124Y-109228812D01*
X153721500Y-109054741D01*
X153721500Y-108877259D01*
X153756124Y-108703188D01*
X153824044Y-108539216D01*
X153922647Y-108391646D01*
X154048146Y-108266147D01*
X154195716Y-108167544D01*
X154359688Y-108099624D01*
X154508988Y-108069927D01*
X154533758Y-108065000D01*
X154711242Y-108065000D01*
X154736012Y-108069927D01*
G37*
G36*
X168223500Y-109867000D02*
G01*
X166421500Y-109867000D01*
X166421500Y-108065000D01*
X168223500Y-108065000D01*
X168223500Y-109867000D01*
G37*
G36*
X163143500Y-109867000D02*
G01*
X161341500Y-109867000D01*
X161341500Y-108065000D01*
X163143500Y-108065000D01*
X163143500Y-109867000D01*
G37*
G36*
X135439728Y-106052203D02*
G01*
X135594600Y-106116353D01*
X135733981Y-106209485D01*
X135852515Y-106328019D01*
X135945647Y-106467400D01*
X136009797Y-106622272D01*
X136042500Y-106786684D01*
X136042500Y-106954316D01*
X136009797Y-107118728D01*
X135945647Y-107273600D01*
X135852515Y-107412981D01*
X135733981Y-107531515D01*
X135594600Y-107624647D01*
X135439728Y-107688797D01*
X135275316Y-107721500D01*
X135107684Y-107721500D01*
X134943272Y-107688797D01*
X134788400Y-107624647D01*
X134649019Y-107531515D01*
X134530485Y-107412981D01*
X134437353Y-107273600D01*
X134373203Y-107118728D01*
X134340500Y-106954316D01*
X134340500Y-106786684D01*
X134373203Y-106622272D01*
X134437353Y-106467400D01*
X134530485Y-106328019D01*
X134649019Y-106209485D01*
X134788400Y-106116353D01*
X134943272Y-106052203D01*
X135107684Y-106019500D01*
X135275316Y-106019500D01*
X135439728Y-106052203D01*
G37*
G36*
X150679728Y-106052203D02*
G01*
X150834600Y-106116353D01*
X150973981Y-106209485D01*
X151092515Y-106328019D01*
X151185647Y-106467400D01*
X151249797Y-106622272D01*
X151282500Y-106786684D01*
X151282500Y-106954316D01*
X151249797Y-107118728D01*
X151185647Y-107273600D01*
X151092515Y-107412981D01*
X150973981Y-107531515D01*
X150834600Y-107624647D01*
X150679728Y-107688797D01*
X150515316Y-107721500D01*
X150347684Y-107721500D01*
X150183272Y-107688797D01*
X150028400Y-107624647D01*
X149889019Y-107531515D01*
X149770485Y-107412981D01*
X149677353Y-107273600D01*
X149613203Y-107118728D01*
X149580500Y-106954316D01*
X149580500Y-106786684D01*
X149613203Y-106622272D01*
X149677353Y-106467400D01*
X149770485Y-106328019D01*
X149889019Y-106209485D01*
X150028400Y-106116353D01*
X150183272Y-106052203D01*
X150347684Y-106019500D01*
X150515316Y-106019500D01*
X150679728Y-106052203D01*
G37*
G36*
X131992512Y-105847427D02*
G01*
X132141812Y-105877124D01*
X132305784Y-105945044D01*
X132453354Y-106043647D01*
X132578853Y-106169146D01*
X132677456Y-106316716D01*
X132745376Y-106480688D01*
X132780000Y-106654759D01*
X132780000Y-106832241D01*
X132745376Y-107006312D01*
X132677456Y-107170284D01*
X132578853Y-107317854D01*
X132453354Y-107443353D01*
X132305784Y-107541956D01*
X132141812Y-107609876D01*
X131992512Y-107639573D01*
X131967742Y-107644500D01*
X131790258Y-107644500D01*
X131765488Y-107639573D01*
X131616188Y-107609876D01*
X131452216Y-107541956D01*
X131304646Y-107443353D01*
X131179147Y-107317854D01*
X131080544Y-107170284D01*
X131012624Y-107006312D01*
X130978000Y-106832241D01*
X130978000Y-106654759D01*
X131012624Y-106480688D01*
X131080544Y-106316716D01*
X131179147Y-106169146D01*
X131304646Y-106043647D01*
X131452216Y-105945044D01*
X131616188Y-105877124D01*
X131765488Y-105847427D01*
X131790258Y-105842500D01*
X131967742Y-105842500D01*
X131992512Y-105847427D01*
G37*
G36*
X111492512Y-105847427D02*
G01*
X111641812Y-105877124D01*
X111805784Y-105945044D01*
X111953354Y-106043647D01*
X112078853Y-106169146D01*
X112177456Y-106316716D01*
X112245376Y-106480688D01*
X112280000Y-106654759D01*
X112280000Y-106832241D01*
X112245376Y-107006312D01*
X112177456Y-107170284D01*
X112078853Y-107317854D01*
X111953354Y-107443353D01*
X111805784Y-107541956D01*
X111641812Y-107609876D01*
X111492512Y-107639573D01*
X111467742Y-107644500D01*
X111290258Y-107644500D01*
X111265488Y-107639573D01*
X111116188Y-107609876D01*
X110952216Y-107541956D01*
X110804646Y-107443353D01*
X110679147Y-107317854D01*
X110580544Y-107170284D01*
X110512624Y-107006312D01*
X110478000Y-106832241D01*
X110478000Y-106654759D01*
X110512624Y-106480688D01*
X110580544Y-106316716D01*
X110679147Y-106169146D01*
X110804646Y-106043647D01*
X110952216Y-105945044D01*
X111116188Y-105877124D01*
X111265488Y-105847427D01*
X111290258Y-105842500D01*
X111467742Y-105842500D01*
X111492512Y-105847427D01*
G37*
G36*
X167436012Y-105529927D02*
G01*
X167585312Y-105559624D01*
X167749284Y-105627544D01*
X167896854Y-105726147D01*
X168022353Y-105851646D01*
X168120956Y-105999216D01*
X168188876Y-106163188D01*
X168223500Y-106337259D01*
X168223500Y-106514741D01*
X168188876Y-106688812D01*
X168120956Y-106852784D01*
X168022353Y-107000354D01*
X167896854Y-107125853D01*
X167749284Y-107224456D01*
X167585312Y-107292376D01*
X167436012Y-107322073D01*
X167411242Y-107327000D01*
X167233758Y-107327000D01*
X167208988Y-107322073D01*
X167059688Y-107292376D01*
X166895716Y-107224456D01*
X166748146Y-107125853D01*
X166622647Y-107000354D01*
X166524044Y-106852784D01*
X166456124Y-106688812D01*
X166421500Y-106514741D01*
X166421500Y-106337259D01*
X166456124Y-106163188D01*
X166524044Y-105999216D01*
X166622647Y-105851646D01*
X166748146Y-105726147D01*
X166895716Y-105627544D01*
X167059688Y-105559624D01*
X167208988Y-105529927D01*
X167233758Y-105525000D01*
X167411242Y-105525000D01*
X167436012Y-105529927D01*
G37*
G36*
X154736012Y-105529927D02*
G01*
X154885312Y-105559624D01*
X155049284Y-105627544D01*
X155196854Y-105726147D01*
X155322353Y-105851646D01*
X155420956Y-105999216D01*
X155488876Y-106163188D01*
X155523500Y-106337259D01*
X155523500Y-106514741D01*
X155488876Y-106688812D01*
X155420956Y-106852784D01*
X155322353Y-107000354D01*
X155196854Y-107125853D01*
X155049284Y-107224456D01*
X154885312Y-107292376D01*
X154736012Y-107322073D01*
X154711242Y-107327000D01*
X154533758Y-107327000D01*
X154508988Y-107322073D01*
X154359688Y-107292376D01*
X154195716Y-107224456D01*
X154048146Y-107125853D01*
X153922647Y-107000354D01*
X153824044Y-106852784D01*
X153756124Y-106688812D01*
X153721500Y-106514741D01*
X153721500Y-106337259D01*
X153756124Y-106163188D01*
X153824044Y-105999216D01*
X153922647Y-105851646D01*
X154048146Y-105726147D01*
X154195716Y-105627544D01*
X154359688Y-105559624D01*
X154508988Y-105529927D01*
X154533758Y-105525000D01*
X154711242Y-105525000D01*
X154736012Y-105529927D01*
G37*
G36*
X172516012Y-105529927D02*
G01*
X172665312Y-105559624D01*
X172829284Y-105627544D01*
X172976854Y-105726147D01*
X173102353Y-105851646D01*
X173200956Y-105999216D01*
X173268876Y-106163188D01*
X173303500Y-106337259D01*
X173303500Y-106514741D01*
X173268876Y-106688812D01*
X173200956Y-106852784D01*
X173102353Y-107000354D01*
X172976854Y-107125853D01*
X172829284Y-107224456D01*
X172665312Y-107292376D01*
X172516012Y-107322073D01*
X172491242Y-107327000D01*
X172313758Y-107327000D01*
X172288988Y-107322073D01*
X172139688Y-107292376D01*
X171975716Y-107224456D01*
X171828146Y-107125853D01*
X171702647Y-107000354D01*
X171604044Y-106852784D01*
X171536124Y-106688812D01*
X171501500Y-106514741D01*
X171501500Y-106337259D01*
X171536124Y-106163188D01*
X171604044Y-105999216D01*
X171702647Y-105851646D01*
X171828146Y-105726147D01*
X171975716Y-105627544D01*
X172139688Y-105559624D01*
X172288988Y-105529927D01*
X172313758Y-105525000D01*
X172491242Y-105525000D01*
X172516012Y-105529927D01*
G37*
G36*
X157276012Y-105529927D02*
G01*
X157425312Y-105559624D01*
X157589284Y-105627544D01*
X157736854Y-105726147D01*
X157862353Y-105851646D01*
X157960956Y-105999216D01*
X158028876Y-106163188D01*
X158063500Y-106337259D01*
X158063500Y-106514741D01*
X158028876Y-106688812D01*
X157960956Y-106852784D01*
X157862353Y-107000354D01*
X157736854Y-107125853D01*
X157589284Y-107224456D01*
X157425312Y-107292376D01*
X157276012Y-107322073D01*
X157251242Y-107327000D01*
X157073758Y-107327000D01*
X157048988Y-107322073D01*
X156899688Y-107292376D01*
X156735716Y-107224456D01*
X156588146Y-107125853D01*
X156462647Y-107000354D01*
X156364044Y-106852784D01*
X156296124Y-106688812D01*
X156261500Y-106514741D01*
X156261500Y-106337259D01*
X156296124Y-106163188D01*
X156364044Y-105999216D01*
X156462647Y-105851646D01*
X156588146Y-105726147D01*
X156735716Y-105627544D01*
X156899688Y-105559624D01*
X157048988Y-105529927D01*
X157073758Y-105525000D01*
X157251242Y-105525000D01*
X157276012Y-105529927D01*
G37*
G36*
X162356012Y-105529927D02*
G01*
X162505312Y-105559624D01*
X162669284Y-105627544D01*
X162816854Y-105726147D01*
X162942353Y-105851646D01*
X163040956Y-105999216D01*
X163108876Y-106163188D01*
X163143500Y-106337259D01*
X163143500Y-106514741D01*
X163108876Y-106688812D01*
X163040956Y-106852784D01*
X162942353Y-107000354D01*
X162816854Y-107125853D01*
X162669284Y-107224456D01*
X162505312Y-107292376D01*
X162356012Y-107322073D01*
X162331242Y-107327000D01*
X162153758Y-107327000D01*
X162128988Y-107322073D01*
X161979688Y-107292376D01*
X161815716Y-107224456D01*
X161668146Y-107125853D01*
X161542647Y-107000354D01*
X161444044Y-106852784D01*
X161376124Y-106688812D01*
X161341500Y-106514741D01*
X161341500Y-106337259D01*
X161376124Y-106163188D01*
X161444044Y-105999216D01*
X161542647Y-105851646D01*
X161668146Y-105726147D01*
X161815716Y-105627544D01*
X161979688Y-105559624D01*
X162128988Y-105529927D01*
X162153758Y-105525000D01*
X162331242Y-105525000D01*
X162356012Y-105529927D01*
G37*
G36*
X135439728Y-103512203D02*
G01*
X135594600Y-103576353D01*
X135733981Y-103669485D01*
X135852515Y-103788019D01*
X135945647Y-103927400D01*
X136009797Y-104082272D01*
X136042500Y-104246684D01*
X136042500Y-104414316D01*
X136009797Y-104578728D01*
X135945647Y-104733600D01*
X135852515Y-104872981D01*
X135733981Y-104991515D01*
X135594600Y-105084647D01*
X135439728Y-105148797D01*
X135275316Y-105181500D01*
X135107684Y-105181500D01*
X134943272Y-105148797D01*
X134788400Y-105084647D01*
X134649019Y-104991515D01*
X134530485Y-104872981D01*
X134437353Y-104733600D01*
X134373203Y-104578728D01*
X134340500Y-104414316D01*
X134340500Y-104246684D01*
X134373203Y-104082272D01*
X134437353Y-103927400D01*
X134530485Y-103788019D01*
X134649019Y-103669485D01*
X134788400Y-103576353D01*
X134943272Y-103512203D01*
X135107684Y-103479500D01*
X135275316Y-103479500D01*
X135439728Y-103512203D01*
G37*
G36*
X150679728Y-103512203D02*
G01*
X150834600Y-103576353D01*
X150973981Y-103669485D01*
X151092515Y-103788019D01*
X151185647Y-103927400D01*
X151249797Y-104082272D01*
X151282500Y-104246684D01*
X151282500Y-104414316D01*
X151249797Y-104578728D01*
X151185647Y-104733600D01*
X151092515Y-104872981D01*
X150973981Y-104991515D01*
X150834600Y-105084647D01*
X150679728Y-105148797D01*
X150515316Y-105181500D01*
X150347684Y-105181500D01*
X150183272Y-105148797D01*
X150028400Y-105084647D01*
X149889019Y-104991515D01*
X149770485Y-104872981D01*
X149677353Y-104733600D01*
X149613203Y-104578728D01*
X149580500Y-104414316D01*
X149580500Y-104246684D01*
X149613203Y-104082272D01*
X149677353Y-103927400D01*
X149770485Y-103788019D01*
X149889019Y-103669485D01*
X150028400Y-103576353D01*
X150183272Y-103512203D01*
X150347684Y-103479500D01*
X150515316Y-103479500D01*
X150679728Y-103512203D01*
G37*
G36*
X111492512Y-103307427D02*
G01*
X111641812Y-103337124D01*
X111805784Y-103405044D01*
X111953354Y-103503647D01*
X112078853Y-103629146D01*
X112177456Y-103776716D01*
X112245376Y-103940688D01*
X112280000Y-104114759D01*
X112280000Y-104292241D01*
X112245376Y-104466312D01*
X112177456Y-104630284D01*
X112078853Y-104777854D01*
X111953354Y-104903353D01*
X111805784Y-105001956D01*
X111641812Y-105069876D01*
X111492512Y-105099573D01*
X111467742Y-105104500D01*
X111290258Y-105104500D01*
X111265488Y-105099573D01*
X111116188Y-105069876D01*
X110952216Y-105001956D01*
X110804646Y-104903353D01*
X110679147Y-104777854D01*
X110580544Y-104630284D01*
X110512624Y-104466312D01*
X110478000Y-104292241D01*
X110478000Y-104114759D01*
X110512624Y-103940688D01*
X110580544Y-103776716D01*
X110679147Y-103629146D01*
X110804646Y-103503647D01*
X110952216Y-103405044D01*
X111116188Y-103337124D01*
X111265488Y-103307427D01*
X111290258Y-103302500D01*
X111467742Y-103302500D01*
X111492512Y-103307427D01*
G37*
G36*
X131992512Y-103307427D02*
G01*
X132141812Y-103337124D01*
X132305784Y-103405044D01*
X132453354Y-103503647D01*
X132578853Y-103629146D01*
X132677456Y-103776716D01*
X132745376Y-103940688D01*
X132780000Y-104114759D01*
X132780000Y-104292241D01*
X132745376Y-104466312D01*
X132677456Y-104630284D01*
X132578853Y-104777854D01*
X132453354Y-104903353D01*
X132305784Y-105001956D01*
X132141812Y-105069876D01*
X131992512Y-105099573D01*
X131967742Y-105104500D01*
X131790258Y-105104500D01*
X131765488Y-105099573D01*
X131616188Y-105069876D01*
X131452216Y-105001956D01*
X131304646Y-104903353D01*
X131179147Y-104777854D01*
X131080544Y-104630284D01*
X131012624Y-104466312D01*
X130978000Y-104292241D01*
X130978000Y-104114759D01*
X131012624Y-103940688D01*
X131080544Y-103776716D01*
X131179147Y-103629146D01*
X131304646Y-103503647D01*
X131452216Y-103405044D01*
X131616188Y-103337124D01*
X131765488Y-103307427D01*
X131790258Y-103302500D01*
X131967742Y-103302500D01*
X131992512Y-103307427D01*
G37*
G36*
X118231228Y-103321703D02*
G01*
X118386100Y-103385853D01*
X118525481Y-103478985D01*
X118644015Y-103597519D01*
X118737147Y-103736900D01*
X118801297Y-103891772D01*
X118834000Y-104056184D01*
X118834000Y-104223816D01*
X118801297Y-104388228D01*
X118737147Y-104543100D01*
X118644015Y-104682481D01*
X118525481Y-104801015D01*
X118386100Y-104894147D01*
X118231228Y-104958297D01*
X118066816Y-104991000D01*
X117899184Y-104991000D01*
X117734772Y-104958297D01*
X117579900Y-104894147D01*
X117440519Y-104801015D01*
X117321985Y-104682481D01*
X117228853Y-104543100D01*
X117164703Y-104388228D01*
X117132000Y-104223816D01*
X117132000Y-104056184D01*
X117164703Y-103891772D01*
X117228853Y-103736900D01*
X117321985Y-103597519D01*
X117440519Y-103478985D01*
X117579900Y-103385853D01*
X117734772Y-103321703D01*
X117899184Y-103289000D01*
X118066816Y-103289000D01*
X118231228Y-103321703D01*
G37*
G36*
X125851228Y-103321703D02*
G01*
X126006100Y-103385853D01*
X126145481Y-103478985D01*
X126264015Y-103597519D01*
X126357147Y-103736900D01*
X126421297Y-103891772D01*
X126454000Y-104056184D01*
X126454000Y-104223816D01*
X126421297Y-104388228D01*
X126357147Y-104543100D01*
X126264015Y-104682481D01*
X126145481Y-104801015D01*
X126006100Y-104894147D01*
X125851228Y-104958297D01*
X125686816Y-104991000D01*
X125519184Y-104991000D01*
X125354772Y-104958297D01*
X125199900Y-104894147D01*
X125060519Y-104801015D01*
X124941985Y-104682481D01*
X124848853Y-104543100D01*
X124784703Y-104388228D01*
X124752000Y-104223816D01*
X124752000Y-104056184D01*
X124784703Y-103891772D01*
X124848853Y-103736900D01*
X124941985Y-103597519D01*
X125060519Y-103478985D01*
X125199900Y-103385853D01*
X125354772Y-103321703D01*
X125519184Y-103289000D01*
X125686816Y-103289000D01*
X125851228Y-103321703D01*
G37*
G36*
X154736012Y-102989927D02*
G01*
X154885312Y-103019624D01*
X155049284Y-103087544D01*
X155196854Y-103186147D01*
X155322353Y-103311646D01*
X155420956Y-103459216D01*
X155488876Y-103623188D01*
X155523500Y-103797259D01*
X155523500Y-103974741D01*
X155488876Y-104148812D01*
X155420956Y-104312784D01*
X155322353Y-104460354D01*
X155196854Y-104585853D01*
X155049284Y-104684456D01*
X154885312Y-104752376D01*
X154736012Y-104782073D01*
X154711242Y-104787000D01*
X154533758Y-104787000D01*
X154508988Y-104782073D01*
X154359688Y-104752376D01*
X154195716Y-104684456D01*
X154048146Y-104585853D01*
X153922647Y-104460354D01*
X153824044Y-104312784D01*
X153756124Y-104148812D01*
X153721500Y-103974741D01*
X153721500Y-103797259D01*
X153756124Y-103623188D01*
X153824044Y-103459216D01*
X153922647Y-103311646D01*
X154048146Y-103186147D01*
X154195716Y-103087544D01*
X154359688Y-103019624D01*
X154508988Y-102989927D01*
X154533758Y-102985000D01*
X154711242Y-102985000D01*
X154736012Y-102989927D01*
G37*
G36*
X157276012Y-102989927D02*
G01*
X157425312Y-103019624D01*
X157589284Y-103087544D01*
X157736854Y-103186147D01*
X157862353Y-103311646D01*
X157960956Y-103459216D01*
X158028876Y-103623188D01*
X158063500Y-103797259D01*
X158063500Y-103974741D01*
X158028876Y-104148812D01*
X157960956Y-104312784D01*
X157862353Y-104460354D01*
X157736854Y-104585853D01*
X157589284Y-104684456D01*
X157425312Y-104752376D01*
X157276012Y-104782073D01*
X157251242Y-104787000D01*
X157073758Y-104787000D01*
X157048988Y-104782073D01*
X156899688Y-104752376D01*
X156735716Y-104684456D01*
X156588146Y-104585853D01*
X156462647Y-104460354D01*
X156364044Y-104312784D01*
X156296124Y-104148812D01*
X156261500Y-103974741D01*
X156261500Y-103797259D01*
X156296124Y-103623188D01*
X156364044Y-103459216D01*
X156462647Y-103311646D01*
X156588146Y-103186147D01*
X156735716Y-103087544D01*
X156899688Y-103019624D01*
X157048988Y-102989927D01*
X157073758Y-102985000D01*
X157251242Y-102985000D01*
X157276012Y-102989927D01*
G37*
G36*
X172516012Y-102989927D02*
G01*
X172665312Y-103019624D01*
X172829284Y-103087544D01*
X172976854Y-103186147D01*
X173102353Y-103311646D01*
X173200956Y-103459216D01*
X173268876Y-103623188D01*
X173303500Y-103797259D01*
X173303500Y-103974741D01*
X173268876Y-104148812D01*
X173200956Y-104312784D01*
X173102353Y-104460354D01*
X172976854Y-104585853D01*
X172829284Y-104684456D01*
X172665312Y-104752376D01*
X172516012Y-104782073D01*
X172491242Y-104787000D01*
X172313758Y-104787000D01*
X172288988Y-104782073D01*
X172139688Y-104752376D01*
X171975716Y-104684456D01*
X171828146Y-104585853D01*
X171702647Y-104460354D01*
X171604044Y-104312784D01*
X171536124Y-104148812D01*
X171501500Y-103974741D01*
X171501500Y-103797259D01*
X171536124Y-103623188D01*
X171604044Y-103459216D01*
X171702647Y-103311646D01*
X171828146Y-103186147D01*
X171975716Y-103087544D01*
X172139688Y-103019624D01*
X172288988Y-102989927D01*
X172313758Y-102985000D01*
X172491242Y-102985000D01*
X172516012Y-102989927D01*
G37*
G36*
X167436012Y-102989927D02*
G01*
X167585312Y-103019624D01*
X167749284Y-103087544D01*
X167896854Y-103186147D01*
X168022353Y-103311646D01*
X168120956Y-103459216D01*
X168188876Y-103623188D01*
X168223500Y-103797259D01*
X168223500Y-103974741D01*
X168188876Y-104148812D01*
X168120956Y-104312784D01*
X168022353Y-104460354D01*
X167896854Y-104585853D01*
X167749284Y-104684456D01*
X167585312Y-104752376D01*
X167436012Y-104782073D01*
X167411242Y-104787000D01*
X167233758Y-104787000D01*
X167208988Y-104782073D01*
X167059688Y-104752376D01*
X166895716Y-104684456D01*
X166748146Y-104585853D01*
X166622647Y-104460354D01*
X166524044Y-104312784D01*
X166456124Y-104148812D01*
X166421500Y-103974741D01*
X166421500Y-103797259D01*
X166456124Y-103623188D01*
X166524044Y-103459216D01*
X166622647Y-103311646D01*
X166748146Y-103186147D01*
X166895716Y-103087544D01*
X167059688Y-103019624D01*
X167208988Y-102989927D01*
X167233758Y-102985000D01*
X167411242Y-102985000D01*
X167436012Y-102989927D01*
G37*
G36*
X162356012Y-102989927D02*
G01*
X162505312Y-103019624D01*
X162669284Y-103087544D01*
X162816854Y-103186147D01*
X162942353Y-103311646D01*
X163040956Y-103459216D01*
X163108876Y-103623188D01*
X163143500Y-103797259D01*
X163143500Y-103974741D01*
X163108876Y-104148812D01*
X163040956Y-104312784D01*
X162942353Y-104460354D01*
X162816854Y-104585853D01*
X162669284Y-104684456D01*
X162505312Y-104752376D01*
X162356012Y-104782073D01*
X162331242Y-104787000D01*
X162153758Y-104787000D01*
X162128988Y-104782073D01*
X161979688Y-104752376D01*
X161815716Y-104684456D01*
X161668146Y-104585853D01*
X161542647Y-104460354D01*
X161444044Y-104312784D01*
X161376124Y-104148812D01*
X161341500Y-103974741D01*
X161341500Y-103797259D01*
X161376124Y-103623188D01*
X161444044Y-103459216D01*
X161542647Y-103311646D01*
X161668146Y-103186147D01*
X161815716Y-103087544D01*
X161979688Y-103019624D01*
X162128988Y-102989927D01*
X162153758Y-102985000D01*
X162331242Y-102985000D01*
X162356012Y-102989927D01*
G37*
G36*
X150679728Y-100972203D02*
G01*
X150834600Y-101036353D01*
X150973981Y-101129485D01*
X151092515Y-101248019D01*
X151185647Y-101387400D01*
X151249797Y-101542272D01*
X151282500Y-101706684D01*
X151282500Y-101874316D01*
X151249797Y-102038728D01*
X151185647Y-102193600D01*
X151092515Y-102332981D01*
X150973981Y-102451515D01*
X150834600Y-102544647D01*
X150679728Y-102608797D01*
X150515316Y-102641500D01*
X150347684Y-102641500D01*
X150183272Y-102608797D01*
X150028400Y-102544647D01*
X149889019Y-102451515D01*
X149770485Y-102332981D01*
X149677353Y-102193600D01*
X149613203Y-102038728D01*
X149580500Y-101874316D01*
X149580500Y-101706684D01*
X149613203Y-101542272D01*
X149677353Y-101387400D01*
X149770485Y-101248019D01*
X149889019Y-101129485D01*
X150028400Y-101036353D01*
X150183272Y-100972203D01*
X150347684Y-100939500D01*
X150515316Y-100939500D01*
X150679728Y-100972203D01*
G37*
G36*
X135439728Y-100972203D02*
G01*
X135594600Y-101036353D01*
X135733981Y-101129485D01*
X135852515Y-101248019D01*
X135945647Y-101387400D01*
X136009797Y-101542272D01*
X136042500Y-101706684D01*
X136042500Y-101874316D01*
X136009797Y-102038728D01*
X135945647Y-102193600D01*
X135852515Y-102332981D01*
X135733981Y-102451515D01*
X135594600Y-102544647D01*
X135439728Y-102608797D01*
X135275316Y-102641500D01*
X135107684Y-102641500D01*
X134943272Y-102608797D01*
X134788400Y-102544647D01*
X134649019Y-102451515D01*
X134530485Y-102332981D01*
X134437353Y-102193600D01*
X134373203Y-102038728D01*
X134340500Y-101874316D01*
X134340500Y-101706684D01*
X134373203Y-101542272D01*
X134437353Y-101387400D01*
X134530485Y-101248019D01*
X134649019Y-101129485D01*
X134788400Y-101036353D01*
X134943272Y-100972203D01*
X135107684Y-100939500D01*
X135275316Y-100939500D01*
X135439728Y-100972203D01*
G37*
G36*
X111492512Y-100767427D02*
G01*
X111641812Y-100797124D01*
X111805784Y-100865044D01*
X111953354Y-100963647D01*
X112078853Y-101089146D01*
X112177456Y-101236716D01*
X112245376Y-101400688D01*
X112280000Y-101574759D01*
X112280000Y-101752241D01*
X112245376Y-101926312D01*
X112177456Y-102090284D01*
X112078853Y-102237854D01*
X111953354Y-102363353D01*
X111805784Y-102461956D01*
X111641812Y-102529876D01*
X111492512Y-102559573D01*
X111467742Y-102564500D01*
X111290258Y-102564500D01*
X111265488Y-102559573D01*
X111116188Y-102529876D01*
X110952216Y-102461956D01*
X110804646Y-102363353D01*
X110679147Y-102237854D01*
X110580544Y-102090284D01*
X110512624Y-101926312D01*
X110478000Y-101752241D01*
X110478000Y-101574759D01*
X110512624Y-101400688D01*
X110580544Y-101236716D01*
X110679147Y-101089146D01*
X110804646Y-100963647D01*
X110952216Y-100865044D01*
X111116188Y-100797124D01*
X111265488Y-100767427D01*
X111290258Y-100762500D01*
X111467742Y-100762500D01*
X111492512Y-100767427D01*
G37*
G36*
X131992512Y-100767427D02*
G01*
X132141812Y-100797124D01*
X132305784Y-100865044D01*
X132453354Y-100963647D01*
X132578853Y-101089146D01*
X132677456Y-101236716D01*
X132745376Y-101400688D01*
X132780000Y-101574759D01*
X132780000Y-101752241D01*
X132745376Y-101926312D01*
X132677456Y-102090284D01*
X132578853Y-102237854D01*
X132453354Y-102363353D01*
X132305784Y-102461956D01*
X132141812Y-102529876D01*
X131992512Y-102559573D01*
X131967742Y-102564500D01*
X131790258Y-102564500D01*
X131765488Y-102559573D01*
X131616188Y-102529876D01*
X131452216Y-102461956D01*
X131304646Y-102363353D01*
X131179147Y-102237854D01*
X131080544Y-102090284D01*
X131012624Y-101926312D01*
X130978000Y-101752241D01*
X130978000Y-101574759D01*
X131012624Y-101400688D01*
X131080544Y-101236716D01*
X131179147Y-101089146D01*
X131304646Y-100963647D01*
X131452216Y-100865044D01*
X131616188Y-100797124D01*
X131765488Y-100767427D01*
X131790258Y-100762500D01*
X131967742Y-100762500D01*
X131992512Y-100767427D01*
G37*
G36*
X125851228Y-100781703D02*
G01*
X126006100Y-100845853D01*
X126145481Y-100938985D01*
X126264015Y-101057519D01*
X126357147Y-101196900D01*
X126421297Y-101351772D01*
X126454000Y-101516184D01*
X126454000Y-101683816D01*
X126421297Y-101848228D01*
X126357147Y-102003100D01*
X126264015Y-102142481D01*
X126145481Y-102261015D01*
X126006100Y-102354147D01*
X125851228Y-102418297D01*
X125686816Y-102451000D01*
X125519184Y-102451000D01*
X125354772Y-102418297D01*
X125199900Y-102354147D01*
X125060519Y-102261015D01*
X124941985Y-102142481D01*
X124848853Y-102003100D01*
X124784703Y-101848228D01*
X124752000Y-101683816D01*
X124752000Y-101516184D01*
X124784703Y-101351772D01*
X124848853Y-101196900D01*
X124941985Y-101057519D01*
X125060519Y-100938985D01*
X125199900Y-100845853D01*
X125354772Y-100781703D01*
X125519184Y-100749000D01*
X125686816Y-100749000D01*
X125851228Y-100781703D01*
G37*
G36*
X118231228Y-100781703D02*
G01*
X118386100Y-100845853D01*
X118525481Y-100938985D01*
X118644015Y-101057519D01*
X118737147Y-101196900D01*
X118801297Y-101351772D01*
X118834000Y-101516184D01*
X118834000Y-101683816D01*
X118801297Y-101848228D01*
X118737147Y-102003100D01*
X118644015Y-102142481D01*
X118525481Y-102261015D01*
X118386100Y-102354147D01*
X118231228Y-102418297D01*
X118066816Y-102451000D01*
X117899184Y-102451000D01*
X117734772Y-102418297D01*
X117579900Y-102354147D01*
X117440519Y-102261015D01*
X117321985Y-102142481D01*
X117228853Y-102003100D01*
X117164703Y-101848228D01*
X117132000Y-101683816D01*
X117132000Y-101516184D01*
X117164703Y-101351772D01*
X117228853Y-101196900D01*
X117321985Y-101057519D01*
X117440519Y-100938985D01*
X117579900Y-100845853D01*
X117734772Y-100781703D01*
X117899184Y-100749000D01*
X118066816Y-100749000D01*
X118231228Y-100781703D01*
G37*
G36*
X154736012Y-100449927D02*
G01*
X154885312Y-100479624D01*
X155049284Y-100547544D01*
X155196854Y-100646147D01*
X155322353Y-100771646D01*
X155420956Y-100919216D01*
X155488876Y-101083188D01*
X155523500Y-101257259D01*
X155523500Y-101434741D01*
X155488876Y-101608812D01*
X155420956Y-101772784D01*
X155322353Y-101920354D01*
X155196854Y-102045853D01*
X155049284Y-102144456D01*
X154885312Y-102212376D01*
X154736012Y-102242073D01*
X154711242Y-102247000D01*
X154533758Y-102247000D01*
X154508988Y-102242073D01*
X154359688Y-102212376D01*
X154195716Y-102144456D01*
X154048146Y-102045853D01*
X153922647Y-101920354D01*
X153824044Y-101772784D01*
X153756124Y-101608812D01*
X153721500Y-101434741D01*
X153721500Y-101257259D01*
X153756124Y-101083188D01*
X153824044Y-100919216D01*
X153922647Y-100771646D01*
X154048146Y-100646147D01*
X154195716Y-100547544D01*
X154359688Y-100479624D01*
X154508988Y-100449927D01*
X154533758Y-100445000D01*
X154711242Y-100445000D01*
X154736012Y-100449927D01*
G37*
G36*
X162356012Y-100449927D02*
G01*
X162505312Y-100479624D01*
X162669284Y-100547544D01*
X162816854Y-100646147D01*
X162942353Y-100771646D01*
X163040956Y-100919216D01*
X163108876Y-101083188D01*
X163143500Y-101257259D01*
X163143500Y-101434741D01*
X163108876Y-101608812D01*
X163040956Y-101772784D01*
X162942353Y-101920354D01*
X162816854Y-102045853D01*
X162669284Y-102144456D01*
X162505312Y-102212376D01*
X162356012Y-102242073D01*
X162331242Y-102247000D01*
X162153758Y-102247000D01*
X162128988Y-102242073D01*
X161979688Y-102212376D01*
X161815716Y-102144456D01*
X161668146Y-102045853D01*
X161542647Y-101920354D01*
X161444044Y-101772784D01*
X161376124Y-101608812D01*
X161341500Y-101434741D01*
X161341500Y-101257259D01*
X161376124Y-101083188D01*
X161444044Y-100919216D01*
X161542647Y-100771646D01*
X161668146Y-100646147D01*
X161815716Y-100547544D01*
X161979688Y-100479624D01*
X162128988Y-100449927D01*
X162153758Y-100445000D01*
X162331242Y-100445000D01*
X162356012Y-100449927D01*
G37*
G36*
X157276012Y-100449927D02*
G01*
X157425312Y-100479624D01*
X157589284Y-100547544D01*
X157736854Y-100646147D01*
X157862353Y-100771646D01*
X157960956Y-100919216D01*
X158028876Y-101083188D01*
X158063500Y-101257259D01*
X158063500Y-101434741D01*
X158028876Y-101608812D01*
X157960956Y-101772784D01*
X157862353Y-101920354D01*
X157736854Y-102045853D01*
X157589284Y-102144456D01*
X157425312Y-102212376D01*
X157276012Y-102242073D01*
X157251242Y-102247000D01*
X157073758Y-102247000D01*
X157048988Y-102242073D01*
X156899688Y-102212376D01*
X156735716Y-102144456D01*
X156588146Y-102045853D01*
X156462647Y-101920354D01*
X156364044Y-101772784D01*
X156296124Y-101608812D01*
X156261500Y-101434741D01*
X156261500Y-101257259D01*
X156296124Y-101083188D01*
X156364044Y-100919216D01*
X156462647Y-100771646D01*
X156588146Y-100646147D01*
X156735716Y-100547544D01*
X156899688Y-100479624D01*
X157048988Y-100449927D01*
X157073758Y-100445000D01*
X157251242Y-100445000D01*
X157276012Y-100449927D01*
G37*
G36*
X135439728Y-98432203D02*
G01*
X135594600Y-98496353D01*
X135733981Y-98589485D01*
X135852515Y-98708019D01*
X135945647Y-98847400D01*
X136009797Y-99002272D01*
X136042500Y-99166684D01*
X136042500Y-99334316D01*
X136009797Y-99498728D01*
X135945647Y-99653600D01*
X135852515Y-99792981D01*
X135733981Y-99911515D01*
X135594600Y-100004647D01*
X135439728Y-100068797D01*
X135275316Y-100101500D01*
X135107684Y-100101500D01*
X134943272Y-100068797D01*
X134788400Y-100004647D01*
X134649019Y-99911515D01*
X134530485Y-99792981D01*
X134437353Y-99653600D01*
X134373203Y-99498728D01*
X134340500Y-99334316D01*
X134340500Y-99166684D01*
X134373203Y-99002272D01*
X134437353Y-98847400D01*
X134530485Y-98708019D01*
X134649019Y-98589485D01*
X134788400Y-98496353D01*
X134943272Y-98432203D01*
X135107684Y-98399500D01*
X135275316Y-98399500D01*
X135439728Y-98432203D01*
G37*
G36*
X150679728Y-98432203D02*
G01*
X150834600Y-98496353D01*
X150973981Y-98589485D01*
X151092515Y-98708019D01*
X151185647Y-98847400D01*
X151249797Y-99002272D01*
X151282500Y-99166684D01*
X151282500Y-99334316D01*
X151249797Y-99498728D01*
X151185647Y-99653600D01*
X151092515Y-99792981D01*
X150973981Y-99911515D01*
X150834600Y-100004647D01*
X150679728Y-100068797D01*
X150515316Y-100101500D01*
X150347684Y-100101500D01*
X150183272Y-100068797D01*
X150028400Y-100004647D01*
X149889019Y-99911515D01*
X149770485Y-99792981D01*
X149677353Y-99653600D01*
X149613203Y-99498728D01*
X149580500Y-99334316D01*
X149580500Y-99166684D01*
X149613203Y-99002272D01*
X149677353Y-98847400D01*
X149770485Y-98708019D01*
X149889019Y-98589485D01*
X150028400Y-98496353D01*
X150183272Y-98432203D01*
X150347684Y-98399500D01*
X150515316Y-98399500D01*
X150679728Y-98432203D01*
G37*
G36*
X131992512Y-98227427D02*
G01*
X132141812Y-98257124D01*
X132305784Y-98325044D01*
X132453354Y-98423647D01*
X132578853Y-98549146D01*
X132677456Y-98696716D01*
X132745376Y-98860688D01*
X132780000Y-99034759D01*
X132780000Y-99212241D01*
X132745376Y-99386312D01*
X132677456Y-99550284D01*
X132578853Y-99697854D01*
X132453354Y-99823353D01*
X132305784Y-99921956D01*
X132141812Y-99989876D01*
X131992512Y-100019573D01*
X131967742Y-100024500D01*
X131790258Y-100024500D01*
X131765488Y-100019573D01*
X131616188Y-99989876D01*
X131452216Y-99921956D01*
X131304646Y-99823353D01*
X131179147Y-99697854D01*
X131080544Y-99550284D01*
X131012624Y-99386312D01*
X130978000Y-99212241D01*
X130978000Y-99034759D01*
X131012624Y-98860688D01*
X131080544Y-98696716D01*
X131179147Y-98549146D01*
X131304646Y-98423647D01*
X131452216Y-98325044D01*
X131616188Y-98257124D01*
X131765488Y-98227427D01*
X131790258Y-98222500D01*
X131967742Y-98222500D01*
X131992512Y-98227427D01*
G37*
G36*
X111492512Y-98227427D02*
G01*
X111641812Y-98257124D01*
X111805784Y-98325044D01*
X111953354Y-98423647D01*
X112078853Y-98549146D01*
X112177456Y-98696716D01*
X112245376Y-98860688D01*
X112280000Y-99034759D01*
X112280000Y-99212241D01*
X112245376Y-99386312D01*
X112177456Y-99550284D01*
X112078853Y-99697854D01*
X111953354Y-99823353D01*
X111805784Y-99921956D01*
X111641812Y-99989876D01*
X111492512Y-100019573D01*
X111467742Y-100024500D01*
X111290258Y-100024500D01*
X111265488Y-100019573D01*
X111116188Y-99989876D01*
X110952216Y-99921956D01*
X110804646Y-99823353D01*
X110679147Y-99697854D01*
X110580544Y-99550284D01*
X110512624Y-99386312D01*
X110478000Y-99212241D01*
X110478000Y-99034759D01*
X110512624Y-98860688D01*
X110580544Y-98696716D01*
X110679147Y-98549146D01*
X110804646Y-98423647D01*
X110952216Y-98325044D01*
X111116188Y-98257124D01*
X111265488Y-98227427D01*
X111290258Y-98222500D01*
X111467742Y-98222500D01*
X111492512Y-98227427D01*
G37*
G36*
X125851228Y-98241703D02*
G01*
X126006100Y-98305853D01*
X126145481Y-98398985D01*
X126264015Y-98517519D01*
X126357147Y-98656900D01*
X126421297Y-98811772D01*
X126454000Y-98976184D01*
X126454000Y-99143816D01*
X126421297Y-99308228D01*
X126357147Y-99463100D01*
X126264015Y-99602481D01*
X126145481Y-99721015D01*
X126006100Y-99814147D01*
X125851228Y-99878297D01*
X125686816Y-99911000D01*
X125519184Y-99911000D01*
X125354772Y-99878297D01*
X125199900Y-99814147D01*
X125060519Y-99721015D01*
X124941985Y-99602481D01*
X124848853Y-99463100D01*
X124784703Y-99308228D01*
X124752000Y-99143816D01*
X124752000Y-98976184D01*
X124784703Y-98811772D01*
X124848853Y-98656900D01*
X124941985Y-98517519D01*
X125060519Y-98398985D01*
X125199900Y-98305853D01*
X125354772Y-98241703D01*
X125519184Y-98209000D01*
X125686816Y-98209000D01*
X125851228Y-98241703D01*
G37*
G36*
X118231228Y-98241703D02*
G01*
X118386100Y-98305853D01*
X118525481Y-98398985D01*
X118644015Y-98517519D01*
X118737147Y-98656900D01*
X118801297Y-98811772D01*
X118834000Y-98976184D01*
X118834000Y-99143816D01*
X118801297Y-99308228D01*
X118737147Y-99463100D01*
X118644015Y-99602481D01*
X118525481Y-99721015D01*
X118386100Y-99814147D01*
X118231228Y-99878297D01*
X118066816Y-99911000D01*
X117899184Y-99911000D01*
X117734772Y-99878297D01*
X117579900Y-99814147D01*
X117440519Y-99721015D01*
X117321985Y-99602481D01*
X117228853Y-99463100D01*
X117164703Y-99308228D01*
X117132000Y-99143816D01*
X117132000Y-98976184D01*
X117164703Y-98811772D01*
X117228853Y-98656900D01*
X117321985Y-98517519D01*
X117440519Y-98398985D01*
X117579900Y-98305853D01*
X117734772Y-98241703D01*
X117899184Y-98209000D01*
X118066816Y-98209000D01*
X118231228Y-98241703D01*
G37*
G36*
X135439728Y-95892203D02*
G01*
X135594600Y-95956353D01*
X135733981Y-96049485D01*
X135852515Y-96168019D01*
X135945647Y-96307400D01*
X136009797Y-96462272D01*
X136042500Y-96626684D01*
X136042500Y-96794316D01*
X136009797Y-96958728D01*
X135945647Y-97113600D01*
X135852515Y-97252981D01*
X135733981Y-97371515D01*
X135594600Y-97464647D01*
X135439728Y-97528797D01*
X135275316Y-97561500D01*
X135107684Y-97561500D01*
X134943272Y-97528797D01*
X134788400Y-97464647D01*
X134649019Y-97371515D01*
X134530485Y-97252981D01*
X134437353Y-97113600D01*
X134373203Y-96958728D01*
X134340500Y-96794316D01*
X134340500Y-96626684D01*
X134373203Y-96462272D01*
X134437353Y-96307400D01*
X134530485Y-96168019D01*
X134649019Y-96049485D01*
X134788400Y-95956353D01*
X134943272Y-95892203D01*
X135107684Y-95859500D01*
X135275316Y-95859500D01*
X135439728Y-95892203D01*
G37*
G36*
X150679728Y-95892203D02*
G01*
X150834600Y-95956353D01*
X150973981Y-96049485D01*
X151092515Y-96168019D01*
X151185647Y-96307400D01*
X151249797Y-96462272D01*
X151282500Y-96626684D01*
X151282500Y-96794316D01*
X151249797Y-96958728D01*
X151185647Y-97113600D01*
X151092515Y-97252981D01*
X150973981Y-97371515D01*
X150834600Y-97464647D01*
X150679728Y-97528797D01*
X150515316Y-97561500D01*
X150347684Y-97561500D01*
X150183272Y-97528797D01*
X150028400Y-97464647D01*
X149889019Y-97371515D01*
X149770485Y-97252981D01*
X149677353Y-97113600D01*
X149613203Y-96958728D01*
X149580500Y-96794316D01*
X149580500Y-96626684D01*
X149613203Y-96462272D01*
X149677353Y-96307400D01*
X149770485Y-96168019D01*
X149889019Y-96049485D01*
X150028400Y-95956353D01*
X150183272Y-95892203D01*
X150347684Y-95859500D01*
X150515316Y-95859500D01*
X150679728Y-95892203D01*
G37*
G36*
X131992512Y-95687427D02*
G01*
X132141812Y-95717124D01*
X132305784Y-95785044D01*
X132453354Y-95883647D01*
X132578853Y-96009146D01*
X132677456Y-96156716D01*
X132745376Y-96320688D01*
X132780000Y-96494759D01*
X132780000Y-96672241D01*
X132745376Y-96846312D01*
X132677456Y-97010284D01*
X132578853Y-97157854D01*
X132453354Y-97283353D01*
X132305784Y-97381956D01*
X132141812Y-97449876D01*
X131992512Y-97479573D01*
X131967742Y-97484500D01*
X131790258Y-97484500D01*
X131765488Y-97479573D01*
X131616188Y-97449876D01*
X131452216Y-97381956D01*
X131304646Y-97283353D01*
X131179147Y-97157854D01*
X131080544Y-97010284D01*
X131012624Y-96846312D01*
X130978000Y-96672241D01*
X130978000Y-96494759D01*
X131012624Y-96320688D01*
X131080544Y-96156716D01*
X131179147Y-96009146D01*
X131304646Y-95883647D01*
X131452216Y-95785044D01*
X131616188Y-95717124D01*
X131765488Y-95687427D01*
X131790258Y-95682500D01*
X131967742Y-95682500D01*
X131992512Y-95687427D01*
G37*
G36*
X111492512Y-95687427D02*
G01*
X111641812Y-95717124D01*
X111805784Y-95785044D01*
X111953354Y-95883647D01*
X112078853Y-96009146D01*
X112177456Y-96156716D01*
X112245376Y-96320688D01*
X112280000Y-96494759D01*
X112280000Y-96672241D01*
X112245376Y-96846312D01*
X112177456Y-97010284D01*
X112078853Y-97157854D01*
X111953354Y-97283353D01*
X111805784Y-97381956D01*
X111641812Y-97449876D01*
X111492512Y-97479573D01*
X111467742Y-97484500D01*
X111290258Y-97484500D01*
X111265488Y-97479573D01*
X111116188Y-97449876D01*
X110952216Y-97381956D01*
X110804646Y-97283353D01*
X110679147Y-97157854D01*
X110580544Y-97010284D01*
X110512624Y-96846312D01*
X110478000Y-96672241D01*
X110478000Y-96494759D01*
X110512624Y-96320688D01*
X110580544Y-96156716D01*
X110679147Y-96009146D01*
X110804646Y-95883647D01*
X110952216Y-95785044D01*
X111116188Y-95717124D01*
X111265488Y-95687427D01*
X111290258Y-95682500D01*
X111467742Y-95682500D01*
X111492512Y-95687427D01*
G37*
G36*
X125851228Y-95701703D02*
G01*
X126006100Y-95765853D01*
X126145481Y-95858985D01*
X126264015Y-95977519D01*
X126357147Y-96116900D01*
X126421297Y-96271772D01*
X126454000Y-96436184D01*
X126454000Y-96603816D01*
X126421297Y-96768228D01*
X126357147Y-96923100D01*
X126264015Y-97062481D01*
X126145481Y-97181015D01*
X126006100Y-97274147D01*
X125851228Y-97338297D01*
X125686816Y-97371000D01*
X125519184Y-97371000D01*
X125354772Y-97338297D01*
X125199900Y-97274147D01*
X125060519Y-97181015D01*
X124941985Y-97062481D01*
X124848853Y-96923100D01*
X124784703Y-96768228D01*
X124752000Y-96603816D01*
X124752000Y-96436184D01*
X124784703Y-96271772D01*
X124848853Y-96116900D01*
X124941985Y-95977519D01*
X125060519Y-95858985D01*
X125199900Y-95765853D01*
X125354772Y-95701703D01*
X125519184Y-95669000D01*
X125686816Y-95669000D01*
X125851228Y-95701703D01*
G37*
G36*
X118834000Y-97371000D02*
G01*
X117132000Y-97371000D01*
X117132000Y-95669000D01*
X118834000Y-95669000D01*
X118834000Y-97371000D01*
G37*
G36*
X173303500Y-97167000D02*
G01*
X171501500Y-97167000D01*
X171501500Y-95365000D01*
X173303500Y-95365000D01*
X173303500Y-97167000D01*
G37*
G36*
X155523500Y-97167000D02*
G01*
X153721500Y-97167000D01*
X153721500Y-95365000D01*
X155523500Y-95365000D01*
X155523500Y-97167000D01*
G37*
G36*
X165683500Y-97167000D02*
G01*
X163881500Y-97167000D01*
X163881500Y-95365000D01*
X165683500Y-95365000D01*
X165683500Y-97167000D01*
G37*
G36*
X158063500Y-97167000D02*
G01*
X156261500Y-97167000D01*
X156261500Y-95365000D01*
X158063500Y-95365000D01*
X158063500Y-97167000D01*
G37*
G36*
X170763500Y-97167000D02*
G01*
X168961500Y-97167000D01*
X168961500Y-95365000D01*
X170763500Y-95365000D01*
X170763500Y-97167000D01*
G37*
G36*
X150679728Y-93352203D02*
G01*
X150834600Y-93416353D01*
X150973981Y-93509485D01*
X151092515Y-93628019D01*
X151185647Y-93767400D01*
X151249797Y-93922272D01*
X151282500Y-94086684D01*
X151282500Y-94254316D01*
X151249797Y-94418728D01*
X151185647Y-94573600D01*
X151092515Y-94712981D01*
X150973981Y-94831515D01*
X150834600Y-94924647D01*
X150679728Y-94988797D01*
X150515316Y-95021500D01*
X150347684Y-95021500D01*
X150183272Y-94988797D01*
X150028400Y-94924647D01*
X149889019Y-94831515D01*
X149770485Y-94712981D01*
X149677353Y-94573600D01*
X149613203Y-94418728D01*
X149580500Y-94254316D01*
X149580500Y-94086684D01*
X149613203Y-93922272D01*
X149677353Y-93767400D01*
X149770485Y-93628019D01*
X149889019Y-93509485D01*
X150028400Y-93416353D01*
X150183272Y-93352203D01*
X150347684Y-93319500D01*
X150515316Y-93319500D01*
X150679728Y-93352203D01*
G37*
G36*
X135439728Y-93352203D02*
G01*
X135594600Y-93416353D01*
X135733981Y-93509485D01*
X135852515Y-93628019D01*
X135945647Y-93767400D01*
X136009797Y-93922272D01*
X136042500Y-94086684D01*
X136042500Y-94254316D01*
X136009797Y-94418728D01*
X135945647Y-94573600D01*
X135852515Y-94712981D01*
X135733981Y-94831515D01*
X135594600Y-94924647D01*
X135439728Y-94988797D01*
X135275316Y-95021500D01*
X135107684Y-95021500D01*
X134943272Y-94988797D01*
X134788400Y-94924647D01*
X134649019Y-94831515D01*
X134530485Y-94712981D01*
X134437353Y-94573600D01*
X134373203Y-94418728D01*
X134340500Y-94254316D01*
X134340500Y-94086684D01*
X134373203Y-93922272D01*
X134437353Y-93767400D01*
X134530485Y-93628019D01*
X134649019Y-93509485D01*
X134788400Y-93416353D01*
X134943272Y-93352203D01*
X135107684Y-93319500D01*
X135275316Y-93319500D01*
X135439728Y-93352203D01*
G37*
G36*
X111492512Y-93147427D02*
G01*
X111641812Y-93177124D01*
X111805784Y-93245044D01*
X111953354Y-93343647D01*
X112078853Y-93469146D01*
X112177456Y-93616716D01*
X112245376Y-93780688D01*
X112280000Y-93954759D01*
X112280000Y-94132241D01*
X112245376Y-94306312D01*
X112177456Y-94470284D01*
X112078853Y-94617854D01*
X111953354Y-94743353D01*
X111805784Y-94841956D01*
X111641812Y-94909876D01*
X111492512Y-94939573D01*
X111467742Y-94944500D01*
X111290258Y-94944500D01*
X111265488Y-94939573D01*
X111116188Y-94909876D01*
X110952216Y-94841956D01*
X110804646Y-94743353D01*
X110679147Y-94617854D01*
X110580544Y-94470284D01*
X110512624Y-94306312D01*
X110478000Y-94132241D01*
X110478000Y-93954759D01*
X110512624Y-93780688D01*
X110580544Y-93616716D01*
X110679147Y-93469146D01*
X110804646Y-93343647D01*
X110952216Y-93245044D01*
X111116188Y-93177124D01*
X111265488Y-93147427D01*
X111290258Y-93142500D01*
X111467742Y-93142500D01*
X111492512Y-93147427D01*
G37*
G36*
X131992512Y-93147427D02*
G01*
X132141812Y-93177124D01*
X132305784Y-93245044D01*
X132453354Y-93343647D01*
X132578853Y-93469146D01*
X132677456Y-93616716D01*
X132745376Y-93780688D01*
X132780000Y-93954759D01*
X132780000Y-94132241D01*
X132745376Y-94306312D01*
X132677456Y-94470284D01*
X132578853Y-94617854D01*
X132453354Y-94743353D01*
X132305784Y-94841956D01*
X132141812Y-94909876D01*
X131992512Y-94939573D01*
X131967742Y-94944500D01*
X131790258Y-94944500D01*
X131765488Y-94939573D01*
X131616188Y-94909876D01*
X131452216Y-94841956D01*
X131304646Y-94743353D01*
X131179147Y-94617854D01*
X131080544Y-94470284D01*
X131012624Y-94306312D01*
X130978000Y-94132241D01*
X130978000Y-93954759D01*
X131012624Y-93780688D01*
X131080544Y-93616716D01*
X131179147Y-93469146D01*
X131304646Y-93343647D01*
X131452216Y-93245044D01*
X131616188Y-93177124D01*
X131765488Y-93147427D01*
X131790258Y-93142500D01*
X131967742Y-93142500D01*
X131992512Y-93147427D01*
G37*
G36*
X157276012Y-92829927D02*
G01*
X157425312Y-92859624D01*
X157589284Y-92927544D01*
X157736854Y-93026147D01*
X157862353Y-93151646D01*
X157960956Y-93299216D01*
X158028876Y-93463188D01*
X158063500Y-93637259D01*
X158063500Y-93814741D01*
X158028876Y-93988812D01*
X157960956Y-94152784D01*
X157862353Y-94300354D01*
X157736854Y-94425853D01*
X157589284Y-94524456D01*
X157425312Y-94592376D01*
X157276012Y-94622073D01*
X157251242Y-94627000D01*
X157073758Y-94627000D01*
X157048988Y-94622073D01*
X156899688Y-94592376D01*
X156735716Y-94524456D01*
X156588146Y-94425853D01*
X156462647Y-94300354D01*
X156364044Y-94152784D01*
X156296124Y-93988812D01*
X156261500Y-93814741D01*
X156261500Y-93637259D01*
X156296124Y-93463188D01*
X156364044Y-93299216D01*
X156462647Y-93151646D01*
X156588146Y-93026147D01*
X156735716Y-92927544D01*
X156899688Y-92859624D01*
X157048988Y-92829927D01*
X157073758Y-92825000D01*
X157251242Y-92825000D01*
X157276012Y-92829927D01*
G37*
G36*
X164896012Y-92829927D02*
G01*
X165045312Y-92859624D01*
X165209284Y-92927544D01*
X165356854Y-93026147D01*
X165482353Y-93151646D01*
X165580956Y-93299216D01*
X165648876Y-93463188D01*
X165683500Y-93637259D01*
X165683500Y-93814741D01*
X165648876Y-93988812D01*
X165580956Y-94152784D01*
X165482353Y-94300354D01*
X165356854Y-94425853D01*
X165209284Y-94524456D01*
X165045312Y-94592376D01*
X164896012Y-94622073D01*
X164871242Y-94627000D01*
X164693758Y-94627000D01*
X164668988Y-94622073D01*
X164519688Y-94592376D01*
X164355716Y-94524456D01*
X164208146Y-94425853D01*
X164082647Y-94300354D01*
X163984044Y-94152784D01*
X163916124Y-93988812D01*
X163881500Y-93814741D01*
X163881500Y-93637259D01*
X163916124Y-93463188D01*
X163984044Y-93299216D01*
X164082647Y-93151646D01*
X164208146Y-93026147D01*
X164355716Y-92927544D01*
X164519688Y-92859624D01*
X164668988Y-92829927D01*
X164693758Y-92825000D01*
X164871242Y-92825000D01*
X164896012Y-92829927D01*
G37*
G36*
X172516012Y-92829927D02*
G01*
X172665312Y-92859624D01*
X172829284Y-92927544D01*
X172976854Y-93026147D01*
X173102353Y-93151646D01*
X173200956Y-93299216D01*
X173268876Y-93463188D01*
X173303500Y-93637259D01*
X173303500Y-93814741D01*
X173268876Y-93988812D01*
X173200956Y-94152784D01*
X173102353Y-94300354D01*
X172976854Y-94425853D01*
X172829284Y-94524456D01*
X172665312Y-94592376D01*
X172516012Y-94622073D01*
X172491242Y-94627000D01*
X172313758Y-94627000D01*
X172288988Y-94622073D01*
X172139688Y-94592376D01*
X171975716Y-94524456D01*
X171828146Y-94425853D01*
X171702647Y-94300354D01*
X171604044Y-94152784D01*
X171536124Y-93988812D01*
X171501500Y-93814741D01*
X171501500Y-93637259D01*
X171536124Y-93463188D01*
X171604044Y-93299216D01*
X171702647Y-93151646D01*
X171828146Y-93026147D01*
X171975716Y-92927544D01*
X172139688Y-92859624D01*
X172288988Y-92829927D01*
X172313758Y-92825000D01*
X172491242Y-92825000D01*
X172516012Y-92829927D01*
G37*
G36*
X169976012Y-92829927D02*
G01*
X170125312Y-92859624D01*
X170289284Y-92927544D01*
X170436854Y-93026147D01*
X170562353Y-93151646D01*
X170660956Y-93299216D01*
X170728876Y-93463188D01*
X170763500Y-93637259D01*
X170763500Y-93814741D01*
X170728876Y-93988812D01*
X170660956Y-94152784D01*
X170562353Y-94300354D01*
X170436854Y-94425853D01*
X170289284Y-94524456D01*
X170125312Y-94592376D01*
X169976012Y-94622073D01*
X169951242Y-94627000D01*
X169773758Y-94627000D01*
X169748988Y-94622073D01*
X169599688Y-94592376D01*
X169435716Y-94524456D01*
X169288146Y-94425853D01*
X169162647Y-94300354D01*
X169064044Y-94152784D01*
X168996124Y-93988812D01*
X168961500Y-93814741D01*
X168961500Y-93637259D01*
X168996124Y-93463188D01*
X169064044Y-93299216D01*
X169162647Y-93151646D01*
X169288146Y-93026147D01*
X169435716Y-92927544D01*
X169599688Y-92859624D01*
X169748988Y-92829927D01*
X169773758Y-92825000D01*
X169951242Y-92825000D01*
X169976012Y-92829927D01*
G37*
G36*
X154736012Y-92829927D02*
G01*
X154885312Y-92859624D01*
X155049284Y-92927544D01*
X155196854Y-93026147D01*
X155322353Y-93151646D01*
X155420956Y-93299216D01*
X155488876Y-93463188D01*
X155523500Y-93637259D01*
X155523500Y-93814741D01*
X155488876Y-93988812D01*
X155420956Y-94152784D01*
X155322353Y-94300354D01*
X155196854Y-94425853D01*
X155049284Y-94524456D01*
X154885312Y-94592376D01*
X154736012Y-94622073D01*
X154711242Y-94627000D01*
X154533758Y-94627000D01*
X154508988Y-94622073D01*
X154359688Y-94592376D01*
X154195716Y-94524456D01*
X154048146Y-94425853D01*
X153922647Y-94300354D01*
X153824044Y-94152784D01*
X153756124Y-93988812D01*
X153721500Y-93814741D01*
X153721500Y-93637259D01*
X153756124Y-93463188D01*
X153824044Y-93299216D01*
X153922647Y-93151646D01*
X154048146Y-93026147D01*
X154195716Y-92927544D01*
X154359688Y-92859624D01*
X154508988Y-92829927D01*
X154533758Y-92825000D01*
X154711242Y-92825000D01*
X154736012Y-92829927D01*
G37*
G36*
X150679728Y-90812203D02*
G01*
X150834600Y-90876353D01*
X150973981Y-90969485D01*
X151092515Y-91088019D01*
X151185647Y-91227400D01*
X151249797Y-91382272D01*
X151282500Y-91546684D01*
X151282500Y-91714316D01*
X151249797Y-91878728D01*
X151185647Y-92033600D01*
X151092515Y-92172981D01*
X150973981Y-92291515D01*
X150834600Y-92384647D01*
X150679728Y-92448797D01*
X150515316Y-92481500D01*
X150347684Y-92481500D01*
X150183272Y-92448797D01*
X150028400Y-92384647D01*
X149889019Y-92291515D01*
X149770485Y-92172981D01*
X149677353Y-92033600D01*
X149613203Y-91878728D01*
X149580500Y-91714316D01*
X149580500Y-91546684D01*
X149613203Y-91382272D01*
X149677353Y-91227400D01*
X149770485Y-91088019D01*
X149889019Y-90969485D01*
X150028400Y-90876353D01*
X150183272Y-90812203D01*
X150347684Y-90779500D01*
X150515316Y-90779500D01*
X150679728Y-90812203D01*
G37*
G36*
X135439728Y-90812203D02*
G01*
X135594600Y-90876353D01*
X135733981Y-90969485D01*
X135852515Y-91088019D01*
X135945647Y-91227400D01*
X136009797Y-91382272D01*
X136042500Y-91546684D01*
X136042500Y-91714316D01*
X136009797Y-91878728D01*
X135945647Y-92033600D01*
X135852515Y-92172981D01*
X135733981Y-92291515D01*
X135594600Y-92384647D01*
X135439728Y-92448797D01*
X135275316Y-92481500D01*
X135107684Y-92481500D01*
X134943272Y-92448797D01*
X134788400Y-92384647D01*
X134649019Y-92291515D01*
X134530485Y-92172981D01*
X134437353Y-92033600D01*
X134373203Y-91878728D01*
X134340500Y-91714316D01*
X134340500Y-91546684D01*
X134373203Y-91382272D01*
X134437353Y-91227400D01*
X134530485Y-91088019D01*
X134649019Y-90969485D01*
X134788400Y-90876353D01*
X134943272Y-90812203D01*
X135107684Y-90779500D01*
X135275316Y-90779500D01*
X135439728Y-90812203D01*
G37*
G36*
X111492512Y-90607427D02*
G01*
X111641812Y-90637124D01*
X111805784Y-90705044D01*
X111953354Y-90803647D01*
X112078853Y-90929146D01*
X112177456Y-91076716D01*
X112245376Y-91240688D01*
X112280000Y-91414759D01*
X112280000Y-91592241D01*
X112245376Y-91766312D01*
X112177456Y-91930284D01*
X112078853Y-92077854D01*
X111953354Y-92203353D01*
X111805784Y-92301956D01*
X111641812Y-92369876D01*
X111492512Y-92399573D01*
X111467742Y-92404500D01*
X111290258Y-92404500D01*
X111265488Y-92399573D01*
X111116188Y-92369876D01*
X110952216Y-92301956D01*
X110804646Y-92203353D01*
X110679147Y-92077854D01*
X110580544Y-91930284D01*
X110512624Y-91766312D01*
X110478000Y-91592241D01*
X110478000Y-91414759D01*
X110512624Y-91240688D01*
X110580544Y-91076716D01*
X110679147Y-90929146D01*
X110804646Y-90803647D01*
X110952216Y-90705044D01*
X111116188Y-90637124D01*
X111265488Y-90607427D01*
X111290258Y-90602500D01*
X111467742Y-90602500D01*
X111492512Y-90607427D01*
G37*
G36*
X131992512Y-90607427D02*
G01*
X132141812Y-90637124D01*
X132305784Y-90705044D01*
X132453354Y-90803647D01*
X132578853Y-90929146D01*
X132677456Y-91076716D01*
X132745376Y-91240688D01*
X132780000Y-91414759D01*
X132780000Y-91592241D01*
X132745376Y-91766312D01*
X132677456Y-91930284D01*
X132578853Y-92077854D01*
X132453354Y-92203353D01*
X132305784Y-92301956D01*
X132141812Y-92369876D01*
X131992512Y-92399573D01*
X131967742Y-92404500D01*
X131790258Y-92404500D01*
X131765488Y-92399573D01*
X131616188Y-92369876D01*
X131452216Y-92301956D01*
X131304646Y-92203353D01*
X131179147Y-92077854D01*
X131080544Y-91930284D01*
X131012624Y-91766312D01*
X130978000Y-91592241D01*
X130978000Y-91414759D01*
X131012624Y-91240688D01*
X131080544Y-91076716D01*
X131179147Y-90929146D01*
X131304646Y-90803647D01*
X131452216Y-90705044D01*
X131616188Y-90637124D01*
X131765488Y-90607427D01*
X131790258Y-90602500D01*
X131967742Y-90602500D01*
X131992512Y-90607427D01*
G37*
G36*
X157276012Y-90289927D02*
G01*
X157425312Y-90319624D01*
X157589284Y-90387544D01*
X157736854Y-90486147D01*
X157862353Y-90611646D01*
X157960956Y-90759216D01*
X158028876Y-90923188D01*
X158063500Y-91097259D01*
X158063500Y-91274741D01*
X158028876Y-91448812D01*
X157960956Y-91612784D01*
X157862353Y-91760354D01*
X157736854Y-91885853D01*
X157589284Y-91984456D01*
X157425312Y-92052376D01*
X157276012Y-92082073D01*
X157251242Y-92087000D01*
X157073758Y-92087000D01*
X157048988Y-92082073D01*
X156899688Y-92052376D01*
X156735716Y-91984456D01*
X156588146Y-91885853D01*
X156462647Y-91760354D01*
X156364044Y-91612784D01*
X156296124Y-91448812D01*
X156261500Y-91274741D01*
X156261500Y-91097259D01*
X156296124Y-90923188D01*
X156364044Y-90759216D01*
X156462647Y-90611646D01*
X156588146Y-90486147D01*
X156735716Y-90387544D01*
X156899688Y-90319624D01*
X157048988Y-90289927D01*
X157073758Y-90285000D01*
X157251242Y-90285000D01*
X157276012Y-90289927D01*
G37*
G36*
X164896012Y-90289927D02*
G01*
X165045312Y-90319624D01*
X165209284Y-90387544D01*
X165356854Y-90486147D01*
X165482353Y-90611646D01*
X165580956Y-90759216D01*
X165648876Y-90923188D01*
X165683500Y-91097259D01*
X165683500Y-91274741D01*
X165648876Y-91448812D01*
X165580956Y-91612784D01*
X165482353Y-91760354D01*
X165356854Y-91885853D01*
X165209284Y-91984456D01*
X165045312Y-92052376D01*
X164896012Y-92082073D01*
X164871242Y-92087000D01*
X164693758Y-92087000D01*
X164668988Y-92082073D01*
X164519688Y-92052376D01*
X164355716Y-91984456D01*
X164208146Y-91885853D01*
X164082647Y-91760354D01*
X163984044Y-91612784D01*
X163916124Y-91448812D01*
X163881500Y-91274741D01*
X163881500Y-91097259D01*
X163916124Y-90923188D01*
X163984044Y-90759216D01*
X164082647Y-90611646D01*
X164208146Y-90486147D01*
X164355716Y-90387544D01*
X164519688Y-90319624D01*
X164668988Y-90289927D01*
X164693758Y-90285000D01*
X164871242Y-90285000D01*
X164896012Y-90289927D01*
G37*
G36*
X154736012Y-90289927D02*
G01*
X154885312Y-90319624D01*
X155049284Y-90387544D01*
X155196854Y-90486147D01*
X155322353Y-90611646D01*
X155420956Y-90759216D01*
X155488876Y-90923188D01*
X155523500Y-91097259D01*
X155523500Y-91274741D01*
X155488876Y-91448812D01*
X155420956Y-91612784D01*
X155322353Y-91760354D01*
X155196854Y-91885853D01*
X155049284Y-91984456D01*
X154885312Y-92052376D01*
X154736012Y-92082073D01*
X154711242Y-92087000D01*
X154533758Y-92087000D01*
X154508988Y-92082073D01*
X154359688Y-92052376D01*
X154195716Y-91984456D01*
X154048146Y-91885853D01*
X153922647Y-91760354D01*
X153824044Y-91612784D01*
X153756124Y-91448812D01*
X153721500Y-91274741D01*
X153721500Y-91097259D01*
X153756124Y-90923188D01*
X153824044Y-90759216D01*
X153922647Y-90611646D01*
X154048146Y-90486147D01*
X154195716Y-90387544D01*
X154359688Y-90319624D01*
X154508988Y-90289927D01*
X154533758Y-90285000D01*
X154711242Y-90285000D01*
X154736012Y-90289927D01*
G37*
G36*
X169976012Y-90289927D02*
G01*
X170125312Y-90319624D01*
X170289284Y-90387544D01*
X170436854Y-90486147D01*
X170562353Y-90611646D01*
X170660956Y-90759216D01*
X170728876Y-90923188D01*
X170763500Y-91097259D01*
X170763500Y-91274741D01*
X170728876Y-91448812D01*
X170660956Y-91612784D01*
X170562353Y-91760354D01*
X170436854Y-91885853D01*
X170289284Y-91984456D01*
X170125312Y-92052376D01*
X169976012Y-92082073D01*
X169951242Y-92087000D01*
X169773758Y-92087000D01*
X169748988Y-92082073D01*
X169599688Y-92052376D01*
X169435716Y-91984456D01*
X169288146Y-91885853D01*
X169162647Y-91760354D01*
X169064044Y-91612784D01*
X168996124Y-91448812D01*
X168961500Y-91274741D01*
X168961500Y-91097259D01*
X168996124Y-90923188D01*
X169064044Y-90759216D01*
X169162647Y-90611646D01*
X169288146Y-90486147D01*
X169435716Y-90387544D01*
X169599688Y-90319624D01*
X169748988Y-90289927D01*
X169773758Y-90285000D01*
X169951242Y-90285000D01*
X169976012Y-90289927D01*
G37*
G36*
X172516012Y-90289927D02*
G01*
X172665312Y-90319624D01*
X172829284Y-90387544D01*
X172976854Y-90486147D01*
X173102353Y-90611646D01*
X173200956Y-90759216D01*
X173268876Y-90923188D01*
X173303500Y-91097259D01*
X173303500Y-91274741D01*
X173268876Y-91448812D01*
X173200956Y-91612784D01*
X173102353Y-91760354D01*
X172976854Y-91885853D01*
X172829284Y-91984456D01*
X172665312Y-92052376D01*
X172516012Y-92082073D01*
X172491242Y-92087000D01*
X172313758Y-92087000D01*
X172288988Y-92082073D01*
X172139688Y-92052376D01*
X171975716Y-91984456D01*
X171828146Y-91885853D01*
X171702647Y-91760354D01*
X171604044Y-91612784D01*
X171536124Y-91448812D01*
X171501500Y-91274741D01*
X171501500Y-91097259D01*
X171536124Y-90923188D01*
X171604044Y-90759216D01*
X171702647Y-90611646D01*
X171828146Y-90486147D01*
X171975716Y-90387544D01*
X172139688Y-90319624D01*
X172288988Y-90289927D01*
X172313758Y-90285000D01*
X172491242Y-90285000D01*
X172516012Y-90289927D01*
G37*
G36*
X150679728Y-88272203D02*
G01*
X150834600Y-88336353D01*
X150973981Y-88429485D01*
X151092515Y-88548019D01*
X151185647Y-88687400D01*
X151249797Y-88842272D01*
X151282500Y-89006684D01*
X151282500Y-89174316D01*
X151249797Y-89338728D01*
X151185647Y-89493600D01*
X151092515Y-89632981D01*
X150973981Y-89751515D01*
X150834600Y-89844647D01*
X150679728Y-89908797D01*
X150515316Y-89941500D01*
X150347684Y-89941500D01*
X150183272Y-89908797D01*
X150028400Y-89844647D01*
X149889019Y-89751515D01*
X149770485Y-89632981D01*
X149677353Y-89493600D01*
X149613203Y-89338728D01*
X149580500Y-89174316D01*
X149580500Y-89006684D01*
X149613203Y-88842272D01*
X149677353Y-88687400D01*
X149770485Y-88548019D01*
X149889019Y-88429485D01*
X150028400Y-88336353D01*
X150183272Y-88272203D01*
X150347684Y-88239500D01*
X150515316Y-88239500D01*
X150679728Y-88272203D01*
G37*
G36*
X135439728Y-88272203D02*
G01*
X135594600Y-88336353D01*
X135733981Y-88429485D01*
X135852515Y-88548019D01*
X135945647Y-88687400D01*
X136009797Y-88842272D01*
X136042500Y-89006684D01*
X136042500Y-89174316D01*
X136009797Y-89338728D01*
X135945647Y-89493600D01*
X135852515Y-89632981D01*
X135733981Y-89751515D01*
X135594600Y-89844647D01*
X135439728Y-89908797D01*
X135275316Y-89941500D01*
X135107684Y-89941500D01*
X134943272Y-89908797D01*
X134788400Y-89844647D01*
X134649019Y-89751515D01*
X134530485Y-89632981D01*
X134437353Y-89493600D01*
X134373203Y-89338728D01*
X134340500Y-89174316D01*
X134340500Y-89006684D01*
X134373203Y-88842272D01*
X134437353Y-88687400D01*
X134530485Y-88548019D01*
X134649019Y-88429485D01*
X134788400Y-88336353D01*
X134943272Y-88272203D01*
X135107684Y-88239500D01*
X135275316Y-88239500D01*
X135439728Y-88272203D01*
G37*
G36*
X111492512Y-88067427D02*
G01*
X111641812Y-88097124D01*
X111805784Y-88165044D01*
X111953354Y-88263647D01*
X112078853Y-88389146D01*
X112177456Y-88536716D01*
X112245376Y-88700688D01*
X112280000Y-88874759D01*
X112280000Y-89052241D01*
X112245376Y-89226312D01*
X112177456Y-89390284D01*
X112078853Y-89537854D01*
X111953354Y-89663353D01*
X111805784Y-89761956D01*
X111641812Y-89829876D01*
X111492512Y-89859573D01*
X111467742Y-89864500D01*
X111290258Y-89864500D01*
X111265488Y-89859573D01*
X111116188Y-89829876D01*
X110952216Y-89761956D01*
X110804646Y-89663353D01*
X110679147Y-89537854D01*
X110580544Y-89390284D01*
X110512624Y-89226312D01*
X110478000Y-89052241D01*
X110478000Y-88874759D01*
X110512624Y-88700688D01*
X110580544Y-88536716D01*
X110679147Y-88389146D01*
X110804646Y-88263647D01*
X110952216Y-88165044D01*
X111116188Y-88097124D01*
X111265488Y-88067427D01*
X111290258Y-88062500D01*
X111467742Y-88062500D01*
X111492512Y-88067427D01*
G37*
G36*
X131992512Y-88067427D02*
G01*
X132141812Y-88097124D01*
X132305784Y-88165044D01*
X132453354Y-88263647D01*
X132578853Y-88389146D01*
X132677456Y-88536716D01*
X132745376Y-88700688D01*
X132780000Y-88874759D01*
X132780000Y-89052241D01*
X132745376Y-89226312D01*
X132677456Y-89390284D01*
X132578853Y-89537854D01*
X132453354Y-89663353D01*
X132305784Y-89761956D01*
X132141812Y-89829876D01*
X131992512Y-89859573D01*
X131967742Y-89864500D01*
X131790258Y-89864500D01*
X131765488Y-89859573D01*
X131616188Y-89829876D01*
X131452216Y-89761956D01*
X131304646Y-89663353D01*
X131179147Y-89537854D01*
X131080544Y-89390284D01*
X131012624Y-89226312D01*
X130978000Y-89052241D01*
X130978000Y-88874759D01*
X131012624Y-88700688D01*
X131080544Y-88536716D01*
X131179147Y-88389146D01*
X131304646Y-88263647D01*
X131452216Y-88165044D01*
X131616188Y-88097124D01*
X131765488Y-88067427D01*
X131790258Y-88062500D01*
X131967742Y-88062500D01*
X131992512Y-88067427D01*
G37*
G36*
X150679728Y-85732203D02*
G01*
X150834600Y-85796353D01*
X150973981Y-85889485D01*
X151092515Y-86008019D01*
X151185647Y-86147400D01*
X151249797Y-86302272D01*
X151282500Y-86466684D01*
X151282500Y-86634316D01*
X151249797Y-86798728D01*
X151185647Y-86953600D01*
X151092515Y-87092981D01*
X150973981Y-87211515D01*
X150834600Y-87304647D01*
X150679728Y-87368797D01*
X150515316Y-87401500D01*
X150347684Y-87401500D01*
X150183272Y-87368797D01*
X150028400Y-87304647D01*
X149889019Y-87211515D01*
X149770485Y-87092981D01*
X149677353Y-86953600D01*
X149613203Y-86798728D01*
X149580500Y-86634316D01*
X149580500Y-86466684D01*
X149613203Y-86302272D01*
X149677353Y-86147400D01*
X149770485Y-86008019D01*
X149889019Y-85889485D01*
X150028400Y-85796353D01*
X150183272Y-85732203D01*
X150347684Y-85699500D01*
X150515316Y-85699500D01*
X150679728Y-85732203D01*
G37*
G36*
X135439728Y-85732203D02*
G01*
X135594600Y-85796353D01*
X135733981Y-85889485D01*
X135852515Y-86008019D01*
X135945647Y-86147400D01*
X136009797Y-86302272D01*
X136042500Y-86466684D01*
X136042500Y-86634316D01*
X136009797Y-86798728D01*
X135945647Y-86953600D01*
X135852515Y-87092981D01*
X135733981Y-87211515D01*
X135594600Y-87304647D01*
X135439728Y-87368797D01*
X135275316Y-87401500D01*
X135107684Y-87401500D01*
X134943272Y-87368797D01*
X134788400Y-87304647D01*
X134649019Y-87211515D01*
X134530485Y-87092981D01*
X134437353Y-86953600D01*
X134373203Y-86798728D01*
X134340500Y-86634316D01*
X134340500Y-86466684D01*
X134373203Y-86302272D01*
X134437353Y-86147400D01*
X134530485Y-86008019D01*
X134649019Y-85889485D01*
X134788400Y-85796353D01*
X134943272Y-85732203D01*
X135107684Y-85699500D01*
X135275316Y-85699500D01*
X135439728Y-85732203D01*
G37*
G36*
X131992512Y-85527427D02*
G01*
X132141812Y-85557124D01*
X132305784Y-85625044D01*
X132453354Y-85723647D01*
X132578853Y-85849146D01*
X132677456Y-85996716D01*
X132745376Y-86160688D01*
X132780000Y-86334759D01*
X132780000Y-86512241D01*
X132745376Y-86686312D01*
X132677456Y-86850284D01*
X132578853Y-86997854D01*
X132453354Y-87123353D01*
X132305784Y-87221956D01*
X132141812Y-87289876D01*
X131992512Y-87319573D01*
X131967742Y-87324500D01*
X131790258Y-87324500D01*
X131765488Y-87319573D01*
X131616188Y-87289876D01*
X131452216Y-87221956D01*
X131304646Y-87123353D01*
X131179147Y-86997854D01*
X131080544Y-86850284D01*
X131012624Y-86686312D01*
X130978000Y-86512241D01*
X130978000Y-86334759D01*
X131012624Y-86160688D01*
X131080544Y-85996716D01*
X131179147Y-85849146D01*
X131304646Y-85723647D01*
X131452216Y-85625044D01*
X131616188Y-85557124D01*
X131765488Y-85527427D01*
X131790258Y-85522500D01*
X131967742Y-85522500D01*
X131992512Y-85527427D01*
G37*
G36*
X111492512Y-85527427D02*
G01*
X111641812Y-85557124D01*
X111805784Y-85625044D01*
X111953354Y-85723647D01*
X112078853Y-85849146D01*
X112177456Y-85996716D01*
X112245376Y-86160688D01*
X112280000Y-86334759D01*
X112280000Y-86512241D01*
X112245376Y-86686312D01*
X112177456Y-86850284D01*
X112078853Y-86997854D01*
X111953354Y-87123353D01*
X111805784Y-87221956D01*
X111641812Y-87289876D01*
X111492512Y-87319573D01*
X111467742Y-87324500D01*
X111290258Y-87324500D01*
X111265488Y-87319573D01*
X111116188Y-87289876D01*
X110952216Y-87221956D01*
X110804646Y-87123353D01*
X110679147Y-86997854D01*
X110580544Y-86850284D01*
X110512624Y-86686312D01*
X110478000Y-86512241D01*
X110478000Y-86334759D01*
X110512624Y-86160688D01*
X110580544Y-85996716D01*
X110679147Y-85849146D01*
X110804646Y-85723647D01*
X110952216Y-85625044D01*
X111116188Y-85557124D01*
X111265488Y-85527427D01*
X111290258Y-85522500D01*
X111467742Y-85522500D01*
X111492512Y-85527427D01*
G37*
G36*
X159237642Y-85653281D02*
G01*
X159383414Y-85713662D01*
X159383416Y-85713663D01*
X159514608Y-85801322D01*
X159626178Y-85912892D01*
X159682187Y-85996716D01*
X159713838Y-86044086D01*
X159774219Y-86189858D01*
X159805000Y-86344607D01*
X159805000Y-86502393D01*
X159774219Y-86657142D01*
X159762136Y-86686312D01*
X159713837Y-86802916D01*
X159626178Y-86934108D01*
X159514608Y-87045678D01*
X159383416Y-87133337D01*
X159383415Y-87133338D01*
X159383414Y-87133338D01*
X159237642Y-87193719D01*
X159082893Y-87224500D01*
X158925107Y-87224500D01*
X158770358Y-87193719D01*
X158624586Y-87133338D01*
X158624585Y-87133338D01*
X158624584Y-87133337D01*
X158493392Y-87045678D01*
X158381822Y-86934108D01*
X158294163Y-86802916D01*
X158245864Y-86686312D01*
X158233781Y-86657142D01*
X158203000Y-86502393D01*
X158203000Y-86344607D01*
X158233781Y-86189858D01*
X158294162Y-86044086D01*
X158325813Y-85996716D01*
X158381822Y-85912892D01*
X158493392Y-85801322D01*
X158624584Y-85713663D01*
X158624586Y-85713662D01*
X158770358Y-85653281D01*
X158925107Y-85622500D01*
X159082893Y-85622500D01*
X159237642Y-85653281D01*
G37*
G36*
X156697642Y-85653281D02*
G01*
X156843414Y-85713662D01*
X156843416Y-85713663D01*
X156974608Y-85801322D01*
X157086178Y-85912892D01*
X157142187Y-85996716D01*
X157173838Y-86044086D01*
X157234219Y-86189858D01*
X157265000Y-86344607D01*
X157265000Y-86502393D01*
X157234219Y-86657142D01*
X157222136Y-86686312D01*
X157173837Y-86802916D01*
X157086178Y-86934108D01*
X156974608Y-87045678D01*
X156843416Y-87133337D01*
X156843415Y-87133338D01*
X156843414Y-87133338D01*
X156697642Y-87193719D01*
X156542893Y-87224500D01*
X156385107Y-87224500D01*
X156230358Y-87193719D01*
X156084586Y-87133338D01*
X156084585Y-87133338D01*
X156084584Y-87133337D01*
X155953392Y-87045678D01*
X155841822Y-86934108D01*
X155754163Y-86802916D01*
X155705864Y-86686312D01*
X155693781Y-86657142D01*
X155663000Y-86502393D01*
X155663000Y-86344607D01*
X155693781Y-86189858D01*
X155754162Y-86044086D01*
X155785813Y-85996716D01*
X155841822Y-85912892D01*
X155953392Y-85801322D01*
X156084584Y-85713663D01*
X156084586Y-85713662D01*
X156230358Y-85653281D01*
X156385107Y-85622500D01*
X156542893Y-85622500D01*
X156697642Y-85653281D01*
G37*
G36*
X161777642Y-85653281D02*
G01*
X161923414Y-85713662D01*
X161923416Y-85713663D01*
X162054608Y-85801322D01*
X162166178Y-85912892D01*
X162222187Y-85996716D01*
X162253838Y-86044086D01*
X162314219Y-86189858D01*
X162345000Y-86344607D01*
X162345000Y-86502393D01*
X162314219Y-86657142D01*
X162302136Y-86686312D01*
X162253837Y-86802916D01*
X162166178Y-86934108D01*
X162054608Y-87045678D01*
X161923416Y-87133337D01*
X161923415Y-87133338D01*
X161923414Y-87133338D01*
X161777642Y-87193719D01*
X161622893Y-87224500D01*
X161465107Y-87224500D01*
X161310358Y-87193719D01*
X161164586Y-87133338D01*
X161164585Y-87133338D01*
X161164584Y-87133337D01*
X161033392Y-87045678D01*
X160921822Y-86934108D01*
X160834163Y-86802916D01*
X160785864Y-86686312D01*
X160773781Y-86657142D01*
X160743000Y-86502393D01*
X160743000Y-86344607D01*
X160773781Y-86189858D01*
X160834162Y-86044086D01*
X160865813Y-85996716D01*
X160921822Y-85912892D01*
X161033392Y-85801322D01*
X161164584Y-85713663D01*
X161164586Y-85713662D01*
X161310358Y-85653281D01*
X161465107Y-85622500D01*
X161622893Y-85622500D01*
X161777642Y-85653281D01*
G37*
G36*
X164317642Y-85653281D02*
G01*
X164463414Y-85713662D01*
X164463416Y-85713663D01*
X164594608Y-85801322D01*
X164706178Y-85912892D01*
X164762187Y-85996716D01*
X164793838Y-86044086D01*
X164854219Y-86189858D01*
X164885000Y-86344607D01*
X164885000Y-86502393D01*
X164854219Y-86657142D01*
X164842136Y-86686312D01*
X164793837Y-86802916D01*
X164706178Y-86934108D01*
X164594608Y-87045678D01*
X164463416Y-87133337D01*
X164463415Y-87133338D01*
X164463414Y-87133338D01*
X164317642Y-87193719D01*
X164162893Y-87224500D01*
X164005107Y-87224500D01*
X163850358Y-87193719D01*
X163704586Y-87133338D01*
X163704585Y-87133338D01*
X163704584Y-87133337D01*
X163573392Y-87045678D01*
X163461822Y-86934108D01*
X163374163Y-86802916D01*
X163325864Y-86686312D01*
X163313781Y-86657142D01*
X163283000Y-86502393D01*
X163283000Y-86344607D01*
X163313781Y-86189858D01*
X163374162Y-86044086D01*
X163405813Y-85996716D01*
X163461822Y-85912892D01*
X163573392Y-85801322D01*
X163704584Y-85713663D01*
X163704586Y-85713662D01*
X163850358Y-85653281D01*
X164005107Y-85622500D01*
X164162893Y-85622500D01*
X164317642Y-85653281D01*
G37*
G36*
X150679728Y-83192203D02*
G01*
X150834600Y-83256353D01*
X150973981Y-83349485D01*
X151092515Y-83468019D01*
X151185647Y-83607400D01*
X151249797Y-83762272D01*
X151282500Y-83926684D01*
X151282500Y-84094316D01*
X151249797Y-84258728D01*
X151185647Y-84413600D01*
X151092515Y-84552981D01*
X150973981Y-84671515D01*
X150834600Y-84764647D01*
X150679728Y-84828797D01*
X150515316Y-84861500D01*
X150347684Y-84861500D01*
X150183272Y-84828797D01*
X150028400Y-84764647D01*
X149889019Y-84671515D01*
X149770485Y-84552981D01*
X149677353Y-84413600D01*
X149613203Y-84258728D01*
X149580500Y-84094316D01*
X149580500Y-83926684D01*
X149613203Y-83762272D01*
X149677353Y-83607400D01*
X149770485Y-83468019D01*
X149889019Y-83349485D01*
X150028400Y-83256353D01*
X150183272Y-83192203D01*
X150347684Y-83159500D01*
X150515316Y-83159500D01*
X150679728Y-83192203D01*
G37*
G36*
X135439728Y-83192203D02*
G01*
X135594600Y-83256353D01*
X135733981Y-83349485D01*
X135852515Y-83468019D01*
X135945647Y-83607400D01*
X136009797Y-83762272D01*
X136042500Y-83926684D01*
X136042500Y-84094316D01*
X136009797Y-84258728D01*
X135945647Y-84413600D01*
X135852515Y-84552981D01*
X135733981Y-84671515D01*
X135594600Y-84764647D01*
X135439728Y-84828797D01*
X135275316Y-84861500D01*
X135107684Y-84861500D01*
X134943272Y-84828797D01*
X134788400Y-84764647D01*
X134649019Y-84671515D01*
X134530485Y-84552981D01*
X134437353Y-84413600D01*
X134373203Y-84258728D01*
X134340500Y-84094316D01*
X134340500Y-83926684D01*
X134373203Y-83762272D01*
X134437353Y-83607400D01*
X134530485Y-83468019D01*
X134649019Y-83349485D01*
X134788400Y-83256353D01*
X134943272Y-83192203D01*
X135107684Y-83159500D01*
X135275316Y-83159500D01*
X135439728Y-83192203D01*
G37*
G36*
X131992512Y-82987427D02*
G01*
X132141812Y-83017124D01*
X132305784Y-83085044D01*
X132453354Y-83183647D01*
X132578853Y-83309146D01*
X132677456Y-83456716D01*
X132745376Y-83620688D01*
X132780000Y-83794759D01*
X132780000Y-83972241D01*
X132745376Y-84146312D01*
X132677456Y-84310284D01*
X132578853Y-84457854D01*
X132453354Y-84583353D01*
X132305784Y-84681956D01*
X132141812Y-84749876D01*
X131992512Y-84779573D01*
X131967742Y-84784500D01*
X131790258Y-84784500D01*
X131765488Y-84779573D01*
X131616188Y-84749876D01*
X131452216Y-84681956D01*
X131304646Y-84583353D01*
X131179147Y-84457854D01*
X131080544Y-84310284D01*
X131012624Y-84146312D01*
X130978000Y-83972241D01*
X130978000Y-83794759D01*
X131012624Y-83620688D01*
X131080544Y-83456716D01*
X131179147Y-83309146D01*
X131304646Y-83183647D01*
X131452216Y-83085044D01*
X131616188Y-83017124D01*
X131765488Y-82987427D01*
X131790258Y-82982500D01*
X131967742Y-82982500D01*
X131992512Y-82987427D01*
G37*
G36*
X111492512Y-82987427D02*
G01*
X111641812Y-83017124D01*
X111805784Y-83085044D01*
X111953354Y-83183647D01*
X112078853Y-83309146D01*
X112177456Y-83456716D01*
X112245376Y-83620688D01*
X112280000Y-83794759D01*
X112280000Y-83972241D01*
X112245376Y-84146312D01*
X112177456Y-84310284D01*
X112078853Y-84457854D01*
X111953354Y-84583353D01*
X111805784Y-84681956D01*
X111641812Y-84749876D01*
X111492512Y-84779573D01*
X111467742Y-84784500D01*
X111290258Y-84784500D01*
X111265488Y-84779573D01*
X111116188Y-84749876D01*
X110952216Y-84681956D01*
X110804646Y-84583353D01*
X110679147Y-84457854D01*
X110580544Y-84310284D01*
X110512624Y-84146312D01*
X110478000Y-83972241D01*
X110478000Y-83794759D01*
X110512624Y-83620688D01*
X110580544Y-83456716D01*
X110679147Y-83309146D01*
X110804646Y-83183647D01*
X110952216Y-83085044D01*
X111116188Y-83017124D01*
X111265488Y-82987427D01*
X111290258Y-82982500D01*
X111467742Y-82982500D01*
X111492512Y-82987427D01*
G37*
G36*
X160507642Y-83113281D02*
G01*
X160653414Y-83173662D01*
X160653416Y-83173663D01*
X160784608Y-83261322D01*
X160896178Y-83372892D01*
X160952187Y-83456716D01*
X160983838Y-83504086D01*
X161044219Y-83649858D01*
X161075000Y-83804607D01*
X161075000Y-83962393D01*
X161044219Y-84117142D01*
X161032136Y-84146312D01*
X160983837Y-84262916D01*
X160896178Y-84394108D01*
X160784608Y-84505678D01*
X160653416Y-84593337D01*
X160653415Y-84593338D01*
X160653414Y-84593338D01*
X160507642Y-84653719D01*
X160352893Y-84684500D01*
X160195107Y-84684500D01*
X160040358Y-84653719D01*
X159894586Y-84593338D01*
X159894585Y-84593338D01*
X159894584Y-84593337D01*
X159763392Y-84505678D01*
X159651822Y-84394108D01*
X159564163Y-84262916D01*
X159515864Y-84146312D01*
X159503781Y-84117142D01*
X159473000Y-83962393D01*
X159473000Y-83804607D01*
X159503781Y-83649858D01*
X159564162Y-83504086D01*
X159595813Y-83456716D01*
X159651822Y-83372892D01*
X159763392Y-83261322D01*
X159894584Y-83173663D01*
X159894586Y-83173662D01*
X160040358Y-83113281D01*
X160195107Y-83082500D01*
X160352893Y-83082500D01*
X160507642Y-83113281D01*
G37*
G36*
X166155000Y-84684500D02*
G01*
X164553000Y-84684500D01*
X164553000Y-83082500D01*
X166155000Y-83082500D01*
X166155000Y-84684500D01*
G37*
G36*
X163047642Y-83113281D02*
G01*
X163193414Y-83173662D01*
X163193416Y-83173663D01*
X163324608Y-83261322D01*
X163436178Y-83372892D01*
X163492187Y-83456716D01*
X163523838Y-83504086D01*
X163584219Y-83649858D01*
X163615000Y-83804607D01*
X163615000Y-83962393D01*
X163584219Y-84117142D01*
X163572136Y-84146312D01*
X163523837Y-84262916D01*
X163436178Y-84394108D01*
X163324608Y-84505678D01*
X163193416Y-84593337D01*
X163193415Y-84593338D01*
X163193414Y-84593338D01*
X163047642Y-84653719D01*
X162892893Y-84684500D01*
X162735107Y-84684500D01*
X162580358Y-84653719D01*
X162434586Y-84593338D01*
X162434585Y-84593338D01*
X162434584Y-84593337D01*
X162303392Y-84505678D01*
X162191822Y-84394108D01*
X162104163Y-84262916D01*
X162055864Y-84146312D01*
X162043781Y-84117142D01*
X162013000Y-83962393D01*
X162013000Y-83804607D01*
X162043781Y-83649858D01*
X162104162Y-83504086D01*
X162135813Y-83456716D01*
X162191822Y-83372892D01*
X162303392Y-83261322D01*
X162434584Y-83173663D01*
X162434586Y-83173662D01*
X162580358Y-83113281D01*
X162735107Y-83082500D01*
X162892893Y-83082500D01*
X163047642Y-83113281D01*
G37*
G36*
X157967642Y-83113281D02*
G01*
X158113414Y-83173662D01*
X158113416Y-83173663D01*
X158244608Y-83261322D01*
X158356178Y-83372892D01*
X158412187Y-83456716D01*
X158443838Y-83504086D01*
X158504219Y-83649858D01*
X158535000Y-83804607D01*
X158535000Y-83962393D01*
X158504219Y-84117142D01*
X158492136Y-84146312D01*
X158443837Y-84262916D01*
X158356178Y-84394108D01*
X158244608Y-84505678D01*
X158113416Y-84593337D01*
X158113415Y-84593338D01*
X158113414Y-84593338D01*
X157967642Y-84653719D01*
X157812893Y-84684500D01*
X157655107Y-84684500D01*
X157500358Y-84653719D01*
X157354586Y-84593338D01*
X157354585Y-84593338D01*
X157354584Y-84593337D01*
X157223392Y-84505678D01*
X157111822Y-84394108D01*
X157024163Y-84262916D01*
X156975864Y-84146312D01*
X156963781Y-84117142D01*
X156933000Y-83962393D01*
X156933000Y-83804607D01*
X156963781Y-83649858D01*
X157024162Y-83504086D01*
X157055813Y-83456716D01*
X157111822Y-83372892D01*
X157223392Y-83261322D01*
X157354584Y-83173663D01*
X157354586Y-83173662D01*
X157500358Y-83113281D01*
X157655107Y-83082500D01*
X157812893Y-83082500D01*
X157967642Y-83113281D01*
G37*
G36*
X121955722Y-80533367D02*
G01*
X122097286Y-80576310D01*
X122227752Y-80646046D01*
X122257540Y-80670492D01*
X122342107Y-80739893D01*
X122399218Y-80809485D01*
X122435954Y-80854248D01*
X122505690Y-80984714D01*
X122548633Y-81126278D01*
X122548633Y-81126280D01*
X122558088Y-81222271D01*
X122559500Y-81236613D01*
X122559500Y-81910387D01*
X122548633Y-82020722D01*
X122505690Y-82162286D01*
X122435954Y-82292752D01*
X122412361Y-82321500D01*
X122342107Y-82407106D01*
X122277915Y-82459786D01*
X122227751Y-82500954D01*
X122097285Y-82570690D01*
X121955721Y-82613633D01*
X121808500Y-82628133D01*
X121661278Y-82613633D01*
X121519714Y-82570690D01*
X121389248Y-82500954D01*
X121344566Y-82464284D01*
X121274894Y-82407107D01*
X121181047Y-82292752D01*
X121181046Y-82292751D01*
X121111310Y-82162285D01*
X121068367Y-82020721D01*
X121061122Y-81947164D01*
X121057500Y-81910387D01*
X121057500Y-81236612D01*
X121068367Y-81126280D01*
X121068367Y-81126278D01*
X121111310Y-80984714D01*
X121181047Y-80854248D01*
X121274894Y-80739893D01*
X121359461Y-80670492D01*
X121389249Y-80646046D01*
X121519715Y-80576310D01*
X121661279Y-80533367D01*
X121808500Y-80518867D01*
X121955722Y-80533367D01*
G37*
G36*
X136042500Y-82321500D02*
G01*
X134340500Y-82321500D01*
X134340500Y-80619500D01*
X136042500Y-80619500D01*
X136042500Y-82321500D01*
G37*
G36*
X150679728Y-80652203D02*
G01*
X150834600Y-80716353D01*
X150973981Y-80809485D01*
X151092515Y-80928019D01*
X151185647Y-81067400D01*
X151249797Y-81222272D01*
X151282500Y-81386684D01*
X151282500Y-81554316D01*
X151249797Y-81718728D01*
X151185647Y-81873600D01*
X151092515Y-82012981D01*
X150973981Y-82131515D01*
X150834600Y-82224647D01*
X150679728Y-82288797D01*
X150515316Y-82321500D01*
X150347684Y-82321500D01*
X150183272Y-82288797D01*
X150028400Y-82224647D01*
X149889019Y-82131515D01*
X149770485Y-82012981D01*
X149677353Y-81873600D01*
X149613203Y-81718728D01*
X149580500Y-81554316D01*
X149580500Y-81386684D01*
X149613203Y-81222272D01*
X149677353Y-81067400D01*
X149770485Y-80928019D01*
X149889019Y-80809485D01*
X150028400Y-80716353D01*
X150183272Y-80652203D01*
X150347684Y-80619500D01*
X150515316Y-80619500D01*
X150679728Y-80652203D01*
G37*
G36*
X131992512Y-80447427D02*
G01*
X132141812Y-80477124D01*
X132305784Y-80545044D01*
X132453354Y-80643647D01*
X132578853Y-80769146D01*
X132677456Y-80916716D01*
X132745376Y-81080688D01*
X132780000Y-81254759D01*
X132780000Y-81432241D01*
X132745376Y-81606312D01*
X132677456Y-81770284D01*
X132578853Y-81917854D01*
X132453354Y-82043353D01*
X132305784Y-82141956D01*
X132141812Y-82209876D01*
X131992512Y-82239573D01*
X131967742Y-82244500D01*
X131790258Y-82244500D01*
X131765488Y-82239573D01*
X131616188Y-82209876D01*
X131452216Y-82141956D01*
X131304646Y-82043353D01*
X131179147Y-81917854D01*
X131080544Y-81770284D01*
X131012624Y-81606312D01*
X130978000Y-81432241D01*
X130978000Y-81254759D01*
X131012624Y-81080688D01*
X131080544Y-80916716D01*
X131179147Y-80769146D01*
X131304646Y-80643647D01*
X131452216Y-80545044D01*
X131616188Y-80477124D01*
X131765488Y-80447427D01*
X131790258Y-80442500D01*
X131967742Y-80442500D01*
X131992512Y-80447427D01*
G37*
G36*
X111492512Y-80447427D02*
G01*
X111641812Y-80477124D01*
X111805784Y-80545044D01*
X111953354Y-80643647D01*
X112078853Y-80769146D01*
X112177456Y-80916716D01*
X112245376Y-81080688D01*
X112280000Y-81254759D01*
X112280000Y-81432241D01*
X112245376Y-81606312D01*
X112177456Y-81770284D01*
X112078853Y-81917854D01*
X111953354Y-82043353D01*
X111805784Y-82141956D01*
X111641812Y-82209876D01*
X111492512Y-82239573D01*
X111467742Y-82244500D01*
X111290258Y-82244500D01*
X111265488Y-82239573D01*
X111116188Y-82209876D01*
X110952216Y-82141956D01*
X110804646Y-82043353D01*
X110679147Y-81917854D01*
X110580544Y-81770284D01*
X110512624Y-81606312D01*
X110478000Y-81432241D01*
X110478000Y-81254759D01*
X110512624Y-81080688D01*
X110580544Y-80916716D01*
X110679147Y-80769146D01*
X110804646Y-80643647D01*
X110952216Y-80545044D01*
X111116188Y-80477124D01*
X111265488Y-80447427D01*
X111290258Y-80442500D01*
X111467742Y-80442500D01*
X111492512Y-80447427D01*
G37*
G36*
X127059500Y-81124500D02*
G01*
X125557500Y-81124500D01*
X125557500Y-79022500D01*
X127059500Y-79022500D01*
X127059500Y-81124500D01*
G37*
G36*
X172795500Y-80212500D02*
G01*
X170993500Y-80212500D01*
X170993500Y-78410500D01*
X172795500Y-78410500D01*
X172795500Y-80212500D01*
G37*
G36*
X174548012Y-78415427D02*
G01*
X174697312Y-78445124D01*
X174861284Y-78513044D01*
X175008854Y-78611647D01*
X175134353Y-78737146D01*
X175232956Y-78884716D01*
X175300876Y-79048688D01*
X175335500Y-79222759D01*
X175335500Y-79400241D01*
X175300876Y-79574312D01*
X175232956Y-79738284D01*
X175134353Y-79885854D01*
X175008854Y-80011353D01*
X174861284Y-80109956D01*
X174697312Y-80177876D01*
X174548012Y-80207573D01*
X174523242Y-80212500D01*
X174345758Y-80212500D01*
X174320988Y-80207573D01*
X174171688Y-80177876D01*
X174007716Y-80109956D01*
X173860146Y-80011353D01*
X173734647Y-79885854D01*
X173636044Y-79738284D01*
X173568124Y-79574312D01*
X173533500Y-79400241D01*
X173533500Y-79222759D01*
X173568124Y-79048688D01*
X173636044Y-78884716D01*
X173734647Y-78737146D01*
X173860146Y-78611647D01*
X174007716Y-78513044D01*
X174171688Y-78445124D01*
X174320988Y-78415427D01*
X174345758Y-78410500D01*
X174523242Y-78410500D01*
X174548012Y-78415427D01*
G37*
G36*
X131992512Y-77907427D02*
G01*
X132141812Y-77937124D01*
X132305784Y-78005044D01*
X132453354Y-78103647D01*
X132578853Y-78229146D01*
X132677456Y-78376716D01*
X132745376Y-78540688D01*
X132780000Y-78714759D01*
X132780000Y-78892241D01*
X132745376Y-79066312D01*
X132677456Y-79230284D01*
X132578853Y-79377854D01*
X132453354Y-79503353D01*
X132305784Y-79601956D01*
X132141812Y-79669876D01*
X131992512Y-79699573D01*
X131967742Y-79704500D01*
X131790258Y-79704500D01*
X131765488Y-79699573D01*
X131616188Y-79669876D01*
X131452216Y-79601956D01*
X131304646Y-79503353D01*
X131179147Y-79377854D01*
X131080544Y-79230284D01*
X131012624Y-79066312D01*
X130978000Y-78892241D01*
X130978000Y-78714759D01*
X131012624Y-78540688D01*
X131080544Y-78376716D01*
X131179147Y-78229146D01*
X131304646Y-78103647D01*
X131452216Y-78005044D01*
X131616188Y-77937124D01*
X131765488Y-77907427D01*
X131790258Y-77902500D01*
X131967742Y-77902500D01*
X131992512Y-77907427D01*
G37*
G36*
X112280000Y-79704500D02*
G01*
X110478000Y-79704500D01*
X110478000Y-77902500D01*
X112280000Y-77902500D01*
X112280000Y-79704500D01*
G37*
G36*
X123946140Y-77937124D02*
G01*
X123998390Y-77947517D01*
X124116864Y-77996591D01*
X124223488Y-78067835D01*
X124314165Y-78158512D01*
X124385409Y-78265136D01*
X124434483Y-78383610D01*
X124459500Y-78509382D01*
X124459500Y-78637618D01*
X124434483Y-78763390D01*
X124385409Y-78881864D01*
X124314165Y-78988488D01*
X124223488Y-79079165D01*
X124116864Y-79150409D01*
X124116863Y-79150410D01*
X124116862Y-79150410D01*
X123998390Y-79199483D01*
X123872619Y-79224500D01*
X123744381Y-79224500D01*
X123618610Y-79199483D01*
X123500138Y-79150410D01*
X123500137Y-79150410D01*
X123500136Y-79150409D01*
X123393512Y-79079165D01*
X123302835Y-78988488D01*
X123231591Y-78881864D01*
X123182517Y-78763390D01*
X123157500Y-78637618D01*
X123157500Y-78509382D01*
X123182517Y-78383610D01*
X123231591Y-78265136D01*
X123302835Y-78158512D01*
X123393512Y-78067835D01*
X123500136Y-77996591D01*
X123618610Y-77947517D01*
X123670860Y-77937124D01*
X123744381Y-77922500D01*
X123872619Y-77922500D01*
X123946140Y-77937124D01*
G37*
G36*
X166999256Y-75924798D02*
G01*
X167105579Y-75945947D01*
X167406042Y-76070403D01*
X167676451Y-76251085D01*
X167906415Y-76481049D01*
X168087097Y-76751458D01*
X168211553Y-77051921D01*
X168275000Y-77370891D01*
X168275000Y-77696109D01*
X168211553Y-78015079D01*
X168087097Y-78315542D01*
X167906415Y-78585951D01*
X167676451Y-78815915D01*
X167406042Y-78996597D01*
X167105579Y-79121053D01*
X166999256Y-79142202D01*
X166786611Y-79184500D01*
X166461389Y-79184500D01*
X166248744Y-79142202D01*
X166142421Y-79121053D01*
X165841958Y-78996597D01*
X165571549Y-78815915D01*
X165341585Y-78585951D01*
X165160903Y-78315542D01*
X165036447Y-78015079D01*
X164973000Y-77696109D01*
X164973000Y-77370891D01*
X165036447Y-77051921D01*
X165160903Y-76751458D01*
X165341585Y-76481049D01*
X165571549Y-76251085D01*
X165841958Y-76070403D01*
X166142421Y-75945947D01*
X166248744Y-75924798D01*
X166461389Y-75882500D01*
X166786611Y-75882500D01*
X166999256Y-75924798D01*
G37*
G36*
X155569256Y-75924798D02*
G01*
X155675579Y-75945947D01*
X155976042Y-76070403D01*
X156246451Y-76251085D01*
X156476415Y-76481049D01*
X156657097Y-76751458D01*
X156781553Y-77051921D01*
X156845000Y-77370891D01*
X156845000Y-77696109D01*
X156781553Y-78015079D01*
X156657097Y-78315542D01*
X156476415Y-78585951D01*
X156246451Y-78815915D01*
X155976042Y-78996597D01*
X155675579Y-79121053D01*
X155569256Y-79142202D01*
X155356611Y-79184500D01*
X155031389Y-79184500D01*
X154818744Y-79142202D01*
X154712421Y-79121053D01*
X154411958Y-78996597D01*
X154141549Y-78815915D01*
X153911585Y-78585951D01*
X153730903Y-78315542D01*
X153606447Y-78015079D01*
X153543000Y-77696109D01*
X153543000Y-77370891D01*
X153606447Y-77051921D01*
X153730903Y-76751458D01*
X153911585Y-76481049D01*
X154141549Y-76251085D01*
X154411958Y-76070403D01*
X154712421Y-75945947D01*
X154818744Y-75924798D01*
X155031389Y-75882500D01*
X155356611Y-75882500D01*
X155569256Y-75924798D01*
G37*
G36*
X126455722Y-75033367D02*
G01*
X126597286Y-75076310D01*
X126727752Y-75146046D01*
X126757540Y-75170492D01*
X126842107Y-75239893D01*
X126911508Y-75324460D01*
X126935954Y-75354248D01*
X127005690Y-75484714D01*
X127048633Y-75626278D01*
X127059500Y-75736613D01*
X127059500Y-76410387D01*
X127048633Y-76520722D01*
X127005690Y-76662286D01*
X126935954Y-76792752D01*
X126899284Y-76837434D01*
X126842107Y-76907106D01*
X126777915Y-76959786D01*
X126727751Y-77000954D01*
X126597285Y-77070690D01*
X126455721Y-77113633D01*
X126308500Y-77128133D01*
X126161278Y-77113633D01*
X126019714Y-77070690D01*
X125889248Y-77000954D01*
X125844566Y-76964284D01*
X125774894Y-76907107D01*
X125681047Y-76792752D01*
X125681046Y-76792751D01*
X125611310Y-76662285D01*
X125568367Y-76520721D01*
X125557500Y-76410386D01*
X125557500Y-75736613D01*
X125568367Y-75626278D01*
X125611310Y-75484714D01*
X125681047Y-75354248D01*
X125774894Y-75239893D01*
X125859461Y-75170492D01*
X125889249Y-75146046D01*
X126019715Y-75076310D01*
X126161279Y-75033367D01*
X126308500Y-75018867D01*
X126455722Y-75033367D01*
G37*
G36*
X168455279Y-73400543D02*
G01*
X168536437Y-73408536D01*
X168653496Y-73444045D01*
X168703118Y-73470569D01*
X168761377Y-73501709D01*
X168855938Y-73579312D01*
X168933540Y-73673872D01*
X168991205Y-73781754D01*
X169026714Y-73898813D01*
X169035700Y-73990050D01*
X169035700Y-75273050D01*
X169026714Y-75364287D01*
X168991205Y-75481346D01*
X168964681Y-75530968D01*
X168933541Y-75589227D01*
X168855938Y-75683787D01*
X168761376Y-75761391D01*
X168703117Y-75792531D01*
X168653495Y-75819055D01*
X168536436Y-75854564D01*
X168414700Y-75866554D01*
X168414699Y-75866554D01*
X168374121Y-75862557D01*
X168292963Y-75854564D01*
X168175904Y-75819055D01*
X168126282Y-75792531D01*
X168068023Y-75761391D01*
X167973463Y-75683788D01*
X167895859Y-75589226D01*
X167839995Y-75484712D01*
X167838195Y-75481345D01*
X167802686Y-75364286D01*
X167793700Y-75273049D01*
X167793701Y-73990050D01*
X167802687Y-73898813D01*
X167838196Y-73781754D01*
X167895861Y-73673872D01*
X167973463Y-73579312D01*
X168068024Y-73501709D01*
X168126283Y-73470569D01*
X168175905Y-73444045D01*
X168292964Y-73408536D01*
X168414700Y-73396546D01*
X168414701Y-73396546D01*
X168455279Y-73400543D01*
G37*
G36*
X153456579Y-73400543D02*
G01*
X153537737Y-73408536D01*
X153654796Y-73444045D01*
X153704418Y-73470569D01*
X153762677Y-73501709D01*
X153857238Y-73579312D01*
X153934840Y-73673872D01*
X153992505Y-73781754D01*
X154028014Y-73898813D01*
X154037000Y-73990050D01*
X154037000Y-75273050D01*
X154028014Y-75364287D01*
X153992505Y-75481346D01*
X153965981Y-75530968D01*
X153934841Y-75589227D01*
X153857238Y-75683787D01*
X153762676Y-75761391D01*
X153704417Y-75792531D01*
X153654795Y-75819055D01*
X153537736Y-75854564D01*
X153416000Y-75866554D01*
X153415999Y-75866554D01*
X153375421Y-75862557D01*
X153294263Y-75854564D01*
X153177204Y-75819055D01*
X153127582Y-75792531D01*
X153069323Y-75761391D01*
X152974763Y-75683788D01*
X152897159Y-75589226D01*
X152841295Y-75484712D01*
X152839495Y-75481345D01*
X152803986Y-75364286D01*
X152795000Y-75273049D01*
X152795001Y-73990050D01*
X152803987Y-73898813D01*
X152839496Y-73781754D01*
X152897161Y-73673872D01*
X152974763Y-73579312D01*
X153069324Y-73501709D01*
X153127583Y-73470569D01*
X153177205Y-73444045D01*
X153294264Y-73408536D01*
X153416000Y-73396546D01*
X153416001Y-73396546D01*
X153456579Y-73400543D01*
G37*
G36*
X173226585Y-71142802D02*
G01*
X173376410Y-71172604D01*
X173658674Y-71289521D01*
X173912705Y-71459259D01*
X174128741Y-71675295D01*
X174298479Y-71929326D01*
X174415396Y-72211590D01*
X174475000Y-72511240D01*
X174475000Y-72816760D01*
X174415396Y-73116410D01*
X174298479Y-73398674D01*
X174128741Y-73652705D01*
X173912705Y-73868741D01*
X173658674Y-74038479D01*
X173376410Y-74155396D01*
X173226585Y-74185198D01*
X173076761Y-74215000D01*
X172771239Y-74215000D01*
X172621415Y-74185198D01*
X172471590Y-74155396D01*
X172189326Y-74038479D01*
X171935295Y-73868741D01*
X171719259Y-73652705D01*
X171549521Y-73398674D01*
X171432604Y-73116410D01*
X171373000Y-72816760D01*
X171373000Y-72511240D01*
X171432604Y-72211590D01*
X171549521Y-71929326D01*
X171719259Y-71675295D01*
X171935295Y-71459259D01*
X172189326Y-71289521D01*
X172471590Y-71172604D01*
X172621415Y-71142802D01*
X172771239Y-71113000D01*
X173076761Y-71113000D01*
X173226585Y-71142802D01*
G37*
G36*
X112336585Y-71142802D02*
G01*
X112486410Y-71172604D01*
X112768674Y-71289521D01*
X113022705Y-71459259D01*
X113238741Y-71675295D01*
X113408479Y-71929326D01*
X113525396Y-72211590D01*
X113585000Y-72511240D01*
X113585000Y-72816760D01*
X113525396Y-73116410D01*
X113408479Y-73398674D01*
X113238741Y-73652705D01*
X113022705Y-73868741D01*
X112768674Y-74038479D01*
X112486410Y-74155396D01*
X112336585Y-74185198D01*
X112186761Y-74215000D01*
X111881239Y-74215000D01*
X111731415Y-74185198D01*
X111581590Y-74155396D01*
X111299326Y-74038479D01*
X111045295Y-73868741D01*
X110829259Y-73652705D01*
X110659521Y-73398674D01*
X110542604Y-73116410D01*
X110483000Y-72816760D01*
X110483000Y-72511240D01*
X110542604Y-72211590D01*
X110659521Y-71929326D01*
X110829259Y-71675295D01*
X111045295Y-71459259D01*
X111299326Y-71289521D01*
X111581590Y-71172604D01*
X111731415Y-71142802D01*
X111881239Y-71113000D01*
X112186761Y-71113000D01*
X112336585Y-71142802D01*
G37*
G36*
X126455722Y-72033367D02*
G01*
X126597286Y-72076310D01*
X126727752Y-72146046D01*
X126757540Y-72170492D01*
X126842107Y-72239893D01*
X126911508Y-72324460D01*
X126935954Y-72354248D01*
X127005690Y-72484714D01*
X127048633Y-72626278D01*
X127059500Y-72736613D01*
X127059500Y-73410387D01*
X127048633Y-73520722D01*
X127005690Y-73662286D01*
X126935954Y-73792752D01*
X126899284Y-73837434D01*
X126842107Y-73907106D01*
X126777915Y-73959786D01*
X126727751Y-74000954D01*
X126597285Y-74070690D01*
X126455721Y-74113633D01*
X126308500Y-74128133D01*
X126161278Y-74113633D01*
X126019714Y-74070690D01*
X125889248Y-74000954D01*
X125844566Y-73964284D01*
X125774894Y-73907107D01*
X125681047Y-73792752D01*
X125681046Y-73792751D01*
X125611310Y-73662285D01*
X125568367Y-73520721D01*
X125557500Y-73410386D01*
X125557500Y-72736613D01*
X125568367Y-72626278D01*
X125611310Y-72484714D01*
X125681047Y-72354248D01*
X125774894Y-72239893D01*
X125859461Y-72170492D01*
X125889249Y-72146046D01*
X126019715Y-72076310D01*
X126161279Y-72033367D01*
X126308500Y-72018867D01*
X126455722Y-72033367D01*
G37*
G36*
X123998390Y-70947517D02*
G01*
X124116864Y-70996591D01*
X124223488Y-71067835D01*
X124314165Y-71158512D01*
X124385409Y-71265136D01*
X124434483Y-71383610D01*
X124459500Y-71509382D01*
X124459500Y-71637618D01*
X124434483Y-71763390D01*
X124385409Y-71881864D01*
X124314165Y-71988488D01*
X124223488Y-72079165D01*
X124116864Y-72150409D01*
X124116863Y-72150410D01*
X124116862Y-72150410D01*
X123998390Y-72199483D01*
X123872619Y-72224500D01*
X123744381Y-72224500D01*
X123618610Y-72199483D01*
X123500138Y-72150410D01*
X123500137Y-72150410D01*
X123500136Y-72150409D01*
X123393512Y-72079165D01*
X123302835Y-71988488D01*
X123231591Y-71881864D01*
X123182517Y-71763390D01*
X123157500Y-71637618D01*
X123157500Y-71509382D01*
X123182517Y-71383610D01*
X123231591Y-71265136D01*
X123302835Y-71158512D01*
X123393512Y-71067835D01*
X123500136Y-70996591D01*
X123618610Y-70947517D01*
X123744381Y-70922500D01*
X123872619Y-70922500D01*
X123998390Y-70947517D01*
G37*
M02*
