G04 #@! TF.GenerationSoftware,KiCad,Pcbnew,(5.1.6)-1*
G04 #@! TF.CreationDate,2021-11-18T20:59:38-06:00*
G04 #@! TF.ProjectId,RJ45Breakout,524a3435-4272-4656-916b-6f75742e6b69,rev?*
G04 #@! TF.SameCoordinates,Original*
G04 #@! TF.FileFunction,Soldermask,Bot*
G04 #@! TF.FilePolarity,Negative*
%FSLAX46Y46*%
G04 Gerber Fmt 4.6, Leading zero omitted, Abs format (unit mm)*
G04 Created by KiCad (PCBNEW (5.1.6)-1) date 2021-11-18 20:59:38*
%MOMM*%
%LPD*%
G01*
G04 APERTURE LIST*
G04 #@! TA.AperFunction,Profile*
%ADD10C,0.050000*%
G04 #@! TD*
%ADD11C,0.100000*%
G04 APERTURE END LIST*
D10*
X140410000Y-114160000D02*
X140410000Y-92530000D01*
X161200000Y-114160000D02*
X140410000Y-114160000D01*
X161190000Y-92530000D02*
X161200000Y-114160000D01*
X140410000Y-92530000D02*
X161190000Y-92530000D01*
D11*
G36*
X157717951Y-107311228D02*
G01*
X158022963Y-107437568D01*
X158297467Y-107620986D01*
X158530914Y-107854433D01*
X158714332Y-108128937D01*
X158840672Y-108433949D01*
X158905080Y-108757748D01*
X158905080Y-109087892D01*
X158840672Y-109411691D01*
X158714332Y-109716703D01*
X158530914Y-109991207D01*
X158297467Y-110224654D01*
X158022963Y-110408072D01*
X157717951Y-110534412D01*
X157394153Y-110598820D01*
X157064007Y-110598820D01*
X156740209Y-110534412D01*
X156435197Y-110408072D01*
X156160693Y-110224654D01*
X155927246Y-109991207D01*
X155743828Y-109716703D01*
X155617488Y-109411691D01*
X155553080Y-109087892D01*
X155553080Y-108757748D01*
X155617488Y-108433949D01*
X155743828Y-108128937D01*
X155927246Y-107854433D01*
X156160693Y-107620986D01*
X156435197Y-107437568D01*
X156740209Y-107311228D01*
X157064007Y-107246820D01*
X157394153Y-107246820D01*
X157717951Y-107311228D01*
G37*
G36*
X145017951Y-107311228D02*
G01*
X145322963Y-107437568D01*
X145597467Y-107620986D01*
X145830914Y-107854433D01*
X146014332Y-108128937D01*
X146140672Y-108433949D01*
X146205080Y-108757748D01*
X146205080Y-109087892D01*
X146140672Y-109411691D01*
X146014332Y-109716703D01*
X145830914Y-109991207D01*
X145597467Y-110224654D01*
X145322963Y-110408072D01*
X145017951Y-110534412D01*
X144694153Y-110598820D01*
X144364007Y-110598820D01*
X144040209Y-110534412D01*
X143735197Y-110408072D01*
X143460693Y-110224654D01*
X143227246Y-109991207D01*
X143043828Y-109716703D01*
X142917488Y-109411691D01*
X142853080Y-109087892D01*
X142853080Y-108757748D01*
X142917488Y-108433949D01*
X143043828Y-108128937D01*
X143227246Y-107854433D01*
X143460693Y-107620986D01*
X143735197Y-107437568D01*
X144040209Y-107311228D01*
X144364007Y-107246820D01*
X144694153Y-107246820D01*
X145017951Y-107311228D01*
G37*
G36*
X159142482Y-104798716D02*
G01*
X159270755Y-104837628D01*
X159388974Y-104900817D01*
X159492594Y-104985856D01*
X159577633Y-105089476D01*
X159640822Y-105207695D01*
X159679734Y-105335968D01*
X159689580Y-105435942D01*
X159689580Y-106605798D01*
X159679734Y-106705772D01*
X159640822Y-106834045D01*
X159577633Y-106952264D01*
X159492594Y-107055883D01*
X159388972Y-107140923D01*
X159270754Y-107204112D01*
X159142481Y-107243024D01*
X159009080Y-107256162D01*
X158875678Y-107243024D01*
X158747405Y-107204112D01*
X158629186Y-107140923D01*
X158525567Y-107055884D01*
X158440527Y-106952262D01*
X158377338Y-106834044D01*
X158338426Y-106705771D01*
X158328580Y-106605797D01*
X158328581Y-105435942D01*
X158338427Y-105335968D01*
X158377339Y-105207695D01*
X158440528Y-105089476D01*
X158525567Y-104985856D01*
X158629187Y-104900817D01*
X158747406Y-104837628D01*
X158875679Y-104798716D01*
X159009080Y-104785578D01*
X159142482Y-104798716D01*
G37*
G36*
X142882482Y-104798716D02*
G01*
X143010755Y-104837628D01*
X143128974Y-104900817D01*
X143232594Y-104985856D01*
X143317633Y-105089476D01*
X143380822Y-105207695D01*
X143419734Y-105335968D01*
X143429580Y-105435942D01*
X143429580Y-106605798D01*
X143419734Y-106705772D01*
X143380822Y-106834045D01*
X143317633Y-106952264D01*
X143232594Y-107055883D01*
X143128972Y-107140923D01*
X143010754Y-107204112D01*
X142882481Y-107243024D01*
X142749080Y-107256162D01*
X142615678Y-107243024D01*
X142487405Y-107204112D01*
X142369186Y-107140923D01*
X142265567Y-107055884D01*
X142180527Y-106952262D01*
X142117338Y-106834044D01*
X142078426Y-106705771D01*
X142068580Y-106605797D01*
X142068581Y-105435942D01*
X142078427Y-105335968D01*
X142117339Y-105207695D01*
X142180528Y-105089476D01*
X142265567Y-104985856D01*
X142369187Y-104900817D01*
X142487406Y-104837628D01*
X142615679Y-104798716D01*
X142749080Y-104785578D01*
X142882482Y-104798716D01*
G37*
G36*
X153642022Y-103832601D02*
G01*
X153787794Y-103892982D01*
X153787796Y-103892983D01*
X153918988Y-103980642D01*
X154030558Y-104092212D01*
X154118217Y-104223404D01*
X154118218Y-104223406D01*
X154178599Y-104369178D01*
X154209380Y-104523927D01*
X154209380Y-104681713D01*
X154178599Y-104836462D01*
X154118218Y-104982234D01*
X154118217Y-104982236D01*
X154030558Y-105113428D01*
X153918988Y-105224998D01*
X153787796Y-105312657D01*
X153787795Y-105312658D01*
X153787794Y-105312658D01*
X153718557Y-105341337D01*
X153696946Y-105352888D01*
X153678004Y-105368433D01*
X153662459Y-105387375D01*
X153650908Y-105408986D01*
X153643795Y-105432435D01*
X153641393Y-105456821D01*
X153643795Y-105481207D01*
X153650908Y-105504656D01*
X153662459Y-105526267D01*
X153678004Y-105545209D01*
X153696946Y-105560754D01*
X153718557Y-105572305D01*
X153742006Y-105579418D01*
X153766392Y-105581820D01*
X155229380Y-105581820D01*
X155229380Y-107183820D01*
X153627380Y-107183820D01*
X153627380Y-105528262D01*
X153624978Y-105503876D01*
X153617865Y-105480427D01*
X153606314Y-105458816D01*
X153590769Y-105439874D01*
X153571827Y-105424329D01*
X153550216Y-105412778D01*
X153526767Y-105405665D01*
X153502381Y-105403263D01*
X153496731Y-105403820D01*
X153329487Y-105403820D01*
X153174738Y-105373039D01*
X153028966Y-105312658D01*
X153028965Y-105312658D01*
X153028964Y-105312657D01*
X152897772Y-105224998D01*
X152786202Y-105113428D01*
X152698543Y-104982236D01*
X152698542Y-104982234D01*
X152638161Y-104836462D01*
X152607380Y-104681713D01*
X152607380Y-104523927D01*
X152638161Y-104369178D01*
X152698542Y-104223406D01*
X152698543Y-104223404D01*
X152786202Y-104092212D01*
X152897772Y-103980642D01*
X153028964Y-103892983D01*
X153028966Y-103892982D01*
X153174738Y-103832601D01*
X153329487Y-103801820D01*
X153487273Y-103801820D01*
X153642022Y-103832601D01*
G37*
G36*
X148572022Y-105612601D02*
G01*
X148717794Y-105672982D01*
X148717796Y-105672983D01*
X148848988Y-105760642D01*
X148960558Y-105872212D01*
X149048217Y-106003404D01*
X149048218Y-106003406D01*
X149108599Y-106149178D01*
X149139380Y-106303927D01*
X149139380Y-106461713D01*
X149108599Y-106616462D01*
X149071606Y-106705770D01*
X149048217Y-106762236D01*
X148960558Y-106893428D01*
X148848988Y-107004998D01*
X148717796Y-107092657D01*
X148717795Y-107092658D01*
X148717794Y-107092658D01*
X148572022Y-107153039D01*
X148417273Y-107183820D01*
X148259487Y-107183820D01*
X148104738Y-107153039D01*
X147958966Y-107092658D01*
X147958965Y-107092658D01*
X147958964Y-107092657D01*
X147827772Y-107004998D01*
X147716202Y-106893428D01*
X147628543Y-106762236D01*
X147605154Y-106705770D01*
X147568161Y-106616462D01*
X147537380Y-106461713D01*
X147537380Y-106303927D01*
X147568161Y-106149178D01*
X147628542Y-106003406D01*
X147628543Y-106003404D01*
X147716202Y-105872212D01*
X147827772Y-105760642D01*
X147958964Y-105672983D01*
X147958966Y-105672982D01*
X148104738Y-105612601D01*
X148259487Y-105581820D01*
X148417273Y-105581820D01*
X148572022Y-105612601D01*
G37*
G36*
X150602022Y-105612601D02*
G01*
X150747794Y-105672982D01*
X150747796Y-105672983D01*
X150878988Y-105760642D01*
X150990558Y-105872212D01*
X151078217Y-106003404D01*
X151078218Y-106003406D01*
X151138599Y-106149178D01*
X151169380Y-106303927D01*
X151169380Y-106461713D01*
X151138599Y-106616462D01*
X151101606Y-106705770D01*
X151078217Y-106762236D01*
X150990558Y-106893428D01*
X150878988Y-107004998D01*
X150747796Y-107092657D01*
X150747795Y-107092658D01*
X150747794Y-107092658D01*
X150602022Y-107153039D01*
X150447273Y-107183820D01*
X150289487Y-107183820D01*
X150134738Y-107153039D01*
X149988966Y-107092658D01*
X149988965Y-107092658D01*
X149988964Y-107092657D01*
X149857772Y-107004998D01*
X149746202Y-106893428D01*
X149658543Y-106762236D01*
X149635154Y-106705770D01*
X149598161Y-106616462D01*
X149567380Y-106461713D01*
X149567380Y-106303927D01*
X149598161Y-106149178D01*
X149658542Y-106003406D01*
X149658543Y-106003404D01*
X149746202Y-105872212D01*
X149857772Y-105760642D01*
X149988964Y-105672983D01*
X149988966Y-105672982D01*
X150134738Y-105612601D01*
X150289487Y-105581820D01*
X150447273Y-105581820D01*
X150602022Y-105612601D01*
G37*
G36*
X152632022Y-105612601D02*
G01*
X152777794Y-105672982D01*
X152777796Y-105672983D01*
X152908988Y-105760642D01*
X153020558Y-105872212D01*
X153108217Y-106003404D01*
X153108218Y-106003406D01*
X153168599Y-106149178D01*
X153199380Y-106303927D01*
X153199380Y-106461713D01*
X153168599Y-106616462D01*
X153131606Y-106705770D01*
X153108217Y-106762236D01*
X153020558Y-106893428D01*
X152908988Y-107004998D01*
X152777796Y-107092657D01*
X152777795Y-107092658D01*
X152777794Y-107092658D01*
X152632022Y-107153039D01*
X152477273Y-107183820D01*
X152319487Y-107183820D01*
X152164738Y-107153039D01*
X152018966Y-107092658D01*
X152018965Y-107092658D01*
X152018964Y-107092657D01*
X151887772Y-107004998D01*
X151776202Y-106893428D01*
X151688543Y-106762236D01*
X151665154Y-106705770D01*
X151628161Y-106616462D01*
X151597380Y-106461713D01*
X151597380Y-106303927D01*
X151628161Y-106149178D01*
X151688542Y-106003406D01*
X151688543Y-106003404D01*
X151776202Y-105872212D01*
X151887772Y-105760642D01*
X152018964Y-105672983D01*
X152018966Y-105672982D01*
X152164738Y-105612601D01*
X152319487Y-105581820D01*
X152477273Y-105581820D01*
X152632022Y-105612601D01*
G37*
G36*
X149582022Y-103832601D02*
G01*
X149727794Y-103892982D01*
X149727796Y-103892983D01*
X149858988Y-103980642D01*
X149970558Y-104092212D01*
X150058217Y-104223404D01*
X150058218Y-104223406D01*
X150118599Y-104369178D01*
X150149380Y-104523927D01*
X150149380Y-104681713D01*
X150118599Y-104836462D01*
X150058218Y-104982234D01*
X150058217Y-104982236D01*
X149970558Y-105113428D01*
X149858988Y-105224998D01*
X149727796Y-105312657D01*
X149727795Y-105312658D01*
X149727794Y-105312658D01*
X149582022Y-105373039D01*
X149427273Y-105403820D01*
X149269487Y-105403820D01*
X149114738Y-105373039D01*
X148968966Y-105312658D01*
X148968965Y-105312658D01*
X148968964Y-105312657D01*
X148837772Y-105224998D01*
X148726202Y-105113428D01*
X148638543Y-104982236D01*
X148638542Y-104982234D01*
X148578161Y-104836462D01*
X148547380Y-104681713D01*
X148547380Y-104523927D01*
X148578161Y-104369178D01*
X148638542Y-104223406D01*
X148638543Y-104223404D01*
X148726202Y-104092212D01*
X148837772Y-103980642D01*
X148968964Y-103892983D01*
X148968966Y-103892982D01*
X149114738Y-103832601D01*
X149269487Y-103801820D01*
X149427273Y-103801820D01*
X149582022Y-103832601D01*
G37*
G36*
X151612022Y-103832601D02*
G01*
X151757794Y-103892982D01*
X151757796Y-103892983D01*
X151888988Y-103980642D01*
X152000558Y-104092212D01*
X152088217Y-104223404D01*
X152088218Y-104223406D01*
X152148599Y-104369178D01*
X152179380Y-104523927D01*
X152179380Y-104681713D01*
X152148599Y-104836462D01*
X152088218Y-104982234D01*
X152088217Y-104982236D01*
X152000558Y-105113428D01*
X151888988Y-105224998D01*
X151757796Y-105312657D01*
X151757795Y-105312658D01*
X151757794Y-105312658D01*
X151612022Y-105373039D01*
X151457273Y-105403820D01*
X151299487Y-105403820D01*
X151144738Y-105373039D01*
X150998966Y-105312658D01*
X150998965Y-105312658D01*
X150998964Y-105312657D01*
X150867772Y-105224998D01*
X150756202Y-105113428D01*
X150668543Y-104982236D01*
X150668542Y-104982234D01*
X150608161Y-104836462D01*
X150577380Y-104681713D01*
X150577380Y-104523927D01*
X150608161Y-104369178D01*
X150668542Y-104223406D01*
X150668543Y-104223404D01*
X150756202Y-104092212D01*
X150867772Y-103980642D01*
X150998964Y-103892983D01*
X150998966Y-103892982D01*
X151144738Y-103832601D01*
X151299487Y-103801820D01*
X151457273Y-103801820D01*
X151612022Y-103832601D01*
G37*
G36*
X147552022Y-103832601D02*
G01*
X147697794Y-103892982D01*
X147697796Y-103892983D01*
X147828988Y-103980642D01*
X147940558Y-104092212D01*
X148028217Y-104223404D01*
X148028218Y-104223406D01*
X148088599Y-104369178D01*
X148119380Y-104523927D01*
X148119380Y-104681713D01*
X148088599Y-104836462D01*
X148028218Y-104982234D01*
X148028217Y-104982236D01*
X147940558Y-105113428D01*
X147828988Y-105224998D01*
X147697796Y-105312657D01*
X147697795Y-105312658D01*
X147697794Y-105312658D01*
X147552022Y-105373039D01*
X147397273Y-105403820D01*
X147239487Y-105403820D01*
X147084738Y-105373039D01*
X146938966Y-105312658D01*
X146938965Y-105312658D01*
X146938964Y-105312657D01*
X146807772Y-105224998D01*
X146696202Y-105113428D01*
X146608543Y-104982236D01*
X146608542Y-104982234D01*
X146548161Y-104836462D01*
X146517380Y-104681713D01*
X146517380Y-104523927D01*
X146548161Y-104369178D01*
X146608542Y-104223406D01*
X146608543Y-104223404D01*
X146696202Y-104092212D01*
X146807772Y-103980642D01*
X146938964Y-103892983D01*
X146938966Y-103892982D01*
X147084738Y-103832601D01*
X147239487Y-103801820D01*
X147397273Y-103801820D01*
X147552022Y-103832601D01*
G37*
G36*
X147103512Y-93593927D02*
G01*
X147252812Y-93623624D01*
X147416784Y-93691544D01*
X147564354Y-93790147D01*
X147689853Y-93915646D01*
X147788456Y-94063216D01*
X147856376Y-94227188D01*
X147891000Y-94401259D01*
X147891000Y-94578741D01*
X147856376Y-94752812D01*
X147788456Y-94916784D01*
X147689853Y-95064354D01*
X147564354Y-95189853D01*
X147416784Y-95288456D01*
X147252812Y-95356376D01*
X147103512Y-95386073D01*
X147078742Y-95391000D01*
X146901258Y-95391000D01*
X146876488Y-95386073D01*
X146727188Y-95356376D01*
X146563216Y-95288456D01*
X146415646Y-95189853D01*
X146290147Y-95064354D01*
X146191544Y-94916784D01*
X146123624Y-94752812D01*
X146089000Y-94578741D01*
X146089000Y-94401259D01*
X146123624Y-94227188D01*
X146191544Y-94063216D01*
X146290147Y-93915646D01*
X146415646Y-93790147D01*
X146563216Y-93691544D01*
X146727188Y-93623624D01*
X146876488Y-93593927D01*
X146901258Y-93589000D01*
X147078742Y-93589000D01*
X147103512Y-93593927D01*
G37*
G36*
X159803512Y-93593927D02*
G01*
X159952812Y-93623624D01*
X160116784Y-93691544D01*
X160264354Y-93790147D01*
X160389853Y-93915646D01*
X160488456Y-94063216D01*
X160556376Y-94227188D01*
X160591000Y-94401259D01*
X160591000Y-94578741D01*
X160556376Y-94752812D01*
X160488456Y-94916784D01*
X160389853Y-95064354D01*
X160264354Y-95189853D01*
X160116784Y-95288456D01*
X159952812Y-95356376D01*
X159803512Y-95386073D01*
X159778742Y-95391000D01*
X159601258Y-95391000D01*
X159576488Y-95386073D01*
X159427188Y-95356376D01*
X159263216Y-95288456D01*
X159115646Y-95189853D01*
X158990147Y-95064354D01*
X158891544Y-94916784D01*
X158823624Y-94752812D01*
X158789000Y-94578741D01*
X158789000Y-94401259D01*
X158823624Y-94227188D01*
X158891544Y-94063216D01*
X158990147Y-93915646D01*
X159115646Y-93790147D01*
X159263216Y-93691544D01*
X159427188Y-93623624D01*
X159576488Y-93593927D01*
X159601258Y-93589000D01*
X159778742Y-93589000D01*
X159803512Y-93593927D01*
G37*
G36*
X149643512Y-93593927D02*
G01*
X149792812Y-93623624D01*
X149956784Y-93691544D01*
X150104354Y-93790147D01*
X150229853Y-93915646D01*
X150328456Y-94063216D01*
X150396376Y-94227188D01*
X150431000Y-94401259D01*
X150431000Y-94578741D01*
X150396376Y-94752812D01*
X150328456Y-94916784D01*
X150229853Y-95064354D01*
X150104354Y-95189853D01*
X149956784Y-95288456D01*
X149792812Y-95356376D01*
X149643512Y-95386073D01*
X149618742Y-95391000D01*
X149441258Y-95391000D01*
X149416488Y-95386073D01*
X149267188Y-95356376D01*
X149103216Y-95288456D01*
X148955646Y-95189853D01*
X148830147Y-95064354D01*
X148731544Y-94916784D01*
X148663624Y-94752812D01*
X148629000Y-94578741D01*
X148629000Y-94401259D01*
X148663624Y-94227188D01*
X148731544Y-94063216D01*
X148830147Y-93915646D01*
X148955646Y-93790147D01*
X149103216Y-93691544D01*
X149267188Y-93623624D01*
X149416488Y-93593927D01*
X149441258Y-93589000D01*
X149618742Y-93589000D01*
X149643512Y-93593927D01*
G37*
G36*
X157263512Y-93593927D02*
G01*
X157412812Y-93623624D01*
X157576784Y-93691544D01*
X157724354Y-93790147D01*
X157849853Y-93915646D01*
X157948456Y-94063216D01*
X158016376Y-94227188D01*
X158051000Y-94401259D01*
X158051000Y-94578741D01*
X158016376Y-94752812D01*
X157948456Y-94916784D01*
X157849853Y-95064354D01*
X157724354Y-95189853D01*
X157576784Y-95288456D01*
X157412812Y-95356376D01*
X157263512Y-95386073D01*
X157238742Y-95391000D01*
X157061258Y-95391000D01*
X157036488Y-95386073D01*
X156887188Y-95356376D01*
X156723216Y-95288456D01*
X156575646Y-95189853D01*
X156450147Y-95064354D01*
X156351544Y-94916784D01*
X156283624Y-94752812D01*
X156249000Y-94578741D01*
X156249000Y-94401259D01*
X156283624Y-94227188D01*
X156351544Y-94063216D01*
X156450147Y-93915646D01*
X156575646Y-93790147D01*
X156723216Y-93691544D01*
X156887188Y-93623624D01*
X157036488Y-93593927D01*
X157061258Y-93589000D01*
X157238742Y-93589000D01*
X157263512Y-93593927D01*
G37*
G36*
X144563512Y-93593927D02*
G01*
X144712812Y-93623624D01*
X144876784Y-93691544D01*
X145024354Y-93790147D01*
X145149853Y-93915646D01*
X145248456Y-94063216D01*
X145316376Y-94227188D01*
X145351000Y-94401259D01*
X145351000Y-94578741D01*
X145316376Y-94752812D01*
X145248456Y-94916784D01*
X145149853Y-95064354D01*
X145024354Y-95189853D01*
X144876784Y-95288456D01*
X144712812Y-95356376D01*
X144563512Y-95386073D01*
X144538742Y-95391000D01*
X144361258Y-95391000D01*
X144336488Y-95386073D01*
X144187188Y-95356376D01*
X144023216Y-95288456D01*
X143875646Y-95189853D01*
X143750147Y-95064354D01*
X143651544Y-94916784D01*
X143583624Y-94752812D01*
X143549000Y-94578741D01*
X143549000Y-94401259D01*
X143583624Y-94227188D01*
X143651544Y-94063216D01*
X143750147Y-93915646D01*
X143875646Y-93790147D01*
X144023216Y-93691544D01*
X144187188Y-93623624D01*
X144336488Y-93593927D01*
X144361258Y-93589000D01*
X144538742Y-93589000D01*
X144563512Y-93593927D01*
G37*
G36*
X142811000Y-95391000D02*
G01*
X141009000Y-95391000D01*
X141009000Y-93589000D01*
X142811000Y-93589000D01*
X142811000Y-95391000D01*
G37*
G36*
X154723512Y-93593927D02*
G01*
X154872812Y-93623624D01*
X155036784Y-93691544D01*
X155184354Y-93790147D01*
X155309853Y-93915646D01*
X155408456Y-94063216D01*
X155476376Y-94227188D01*
X155511000Y-94401259D01*
X155511000Y-94578741D01*
X155476376Y-94752812D01*
X155408456Y-94916784D01*
X155309853Y-95064354D01*
X155184354Y-95189853D01*
X155036784Y-95288456D01*
X154872812Y-95356376D01*
X154723512Y-95386073D01*
X154698742Y-95391000D01*
X154521258Y-95391000D01*
X154496488Y-95386073D01*
X154347188Y-95356376D01*
X154183216Y-95288456D01*
X154035646Y-95189853D01*
X153910147Y-95064354D01*
X153811544Y-94916784D01*
X153743624Y-94752812D01*
X153709000Y-94578741D01*
X153709000Y-94401259D01*
X153743624Y-94227188D01*
X153811544Y-94063216D01*
X153910147Y-93915646D01*
X154035646Y-93790147D01*
X154183216Y-93691544D01*
X154347188Y-93623624D01*
X154496488Y-93593927D01*
X154521258Y-93589000D01*
X154698742Y-93589000D01*
X154723512Y-93593927D01*
G37*
G36*
X152183512Y-93593927D02*
G01*
X152332812Y-93623624D01*
X152496784Y-93691544D01*
X152644354Y-93790147D01*
X152769853Y-93915646D01*
X152868456Y-94063216D01*
X152936376Y-94227188D01*
X152971000Y-94401259D01*
X152971000Y-94578741D01*
X152936376Y-94752812D01*
X152868456Y-94916784D01*
X152769853Y-95064354D01*
X152644354Y-95189853D01*
X152496784Y-95288456D01*
X152332812Y-95356376D01*
X152183512Y-95386073D01*
X152158742Y-95391000D01*
X151981258Y-95391000D01*
X151956488Y-95386073D01*
X151807188Y-95356376D01*
X151643216Y-95288456D01*
X151495646Y-95189853D01*
X151370147Y-95064354D01*
X151271544Y-94916784D01*
X151203624Y-94752812D01*
X151169000Y-94578741D01*
X151169000Y-94401259D01*
X151203624Y-94227188D01*
X151271544Y-94063216D01*
X151370147Y-93915646D01*
X151495646Y-93790147D01*
X151643216Y-93691544D01*
X151807188Y-93623624D01*
X151956488Y-93593927D01*
X151981258Y-93589000D01*
X152158742Y-93589000D01*
X152183512Y-93593927D01*
G37*
M02*
