G04 #@! TF.GenerationSoftware,KiCad,Pcbnew,7.0.1*
G04 #@! TF.CreationDate,2023-08-14T23:40:13-05:00*
G04 #@! TF.ProjectId,ButtonToActionChallenge,42757474-6f6e-4546-9f41-6374696f6e43,rev?*
G04 #@! TF.SameCoordinates,Original*
G04 #@! TF.FileFunction,Legend,Top*
G04 #@! TF.FilePolarity,Positive*
%FSLAX46Y46*%
G04 Gerber Fmt 4.6, Leading zero omitted, Abs format (unit mm)*
G04 Created by KiCad (PCBNEW 7.0.1) date 2023-08-14 23:40:13*
%MOMM*%
%LPD*%
G01*
G04 APERTURE LIST*
%ADD10C,0.150000*%
%ADD11C,0.200000*%
%ADD12C,0.120000*%
G04 APERTURE END LIST*
D10*
X155849619Y-73453714D02*
X155849619Y-73929904D01*
X155849619Y-73929904D02*
X156325809Y-73977523D01*
X156325809Y-73977523D02*
X156278190Y-73929904D01*
X156278190Y-73929904D02*
X156230571Y-73834666D01*
X156230571Y-73834666D02*
X156230571Y-73596571D01*
X156230571Y-73596571D02*
X156278190Y-73501333D01*
X156278190Y-73501333D02*
X156325809Y-73453714D01*
X156325809Y-73453714D02*
X156421047Y-73406095D01*
X156421047Y-73406095D02*
X156659142Y-73406095D01*
X156659142Y-73406095D02*
X156754380Y-73453714D01*
X156754380Y-73453714D02*
X156802000Y-73501333D01*
X156802000Y-73501333D02*
X156849619Y-73596571D01*
X156849619Y-73596571D02*
X156849619Y-73834666D01*
X156849619Y-73834666D02*
X156802000Y-73929904D01*
X156802000Y-73929904D02*
X156754380Y-73977523D01*
X156182952Y-73072761D02*
X156849619Y-72834666D01*
X156849619Y-72834666D02*
X156182952Y-72596571D01*
X142870380Y-70357904D02*
X142870380Y-69786476D01*
X142870380Y-70072190D02*
X143870380Y-70072190D01*
X143870380Y-70072190D02*
X143727523Y-69976952D01*
X143727523Y-69976952D02*
X143632285Y-69881714D01*
X143632285Y-69881714D02*
X143584666Y-69786476D01*
X143775142Y-70738857D02*
X143822761Y-70786476D01*
X143822761Y-70786476D02*
X143870380Y-70881714D01*
X143870380Y-70881714D02*
X143870380Y-71119809D01*
X143870380Y-71119809D02*
X143822761Y-71215047D01*
X143822761Y-71215047D02*
X143775142Y-71262666D01*
X143775142Y-71262666D02*
X143679904Y-71310285D01*
X143679904Y-71310285D02*
X143584666Y-71310285D01*
X143584666Y-71310285D02*
X143441809Y-71262666D01*
X143441809Y-71262666D02*
X142870380Y-70691238D01*
X142870380Y-70691238D02*
X142870380Y-71310285D01*
X143537047Y-71643619D02*
X142870380Y-71881714D01*
X142870380Y-71881714D02*
X143537047Y-72119809D01*
X156849619Y-71374095D02*
X156849619Y-71945523D01*
X156849619Y-71659809D02*
X155849619Y-71659809D01*
X155849619Y-71659809D02*
X155992476Y-71755047D01*
X155992476Y-71755047D02*
X156087714Y-71850285D01*
X156087714Y-71850285D02*
X156135333Y-71945523D01*
X155944857Y-70993142D02*
X155897238Y-70945523D01*
X155897238Y-70945523D02*
X155849619Y-70850285D01*
X155849619Y-70850285D02*
X155849619Y-70612190D01*
X155849619Y-70612190D02*
X155897238Y-70516952D01*
X155897238Y-70516952D02*
X155944857Y-70469333D01*
X155944857Y-70469333D02*
X156040095Y-70421714D01*
X156040095Y-70421714D02*
X156135333Y-70421714D01*
X156135333Y-70421714D02*
X156278190Y-70469333D01*
X156278190Y-70469333D02*
X156849619Y-71040761D01*
X156849619Y-71040761D02*
X156849619Y-70421714D01*
X156182952Y-70088380D02*
X156849619Y-69850285D01*
X156849619Y-69850285D02*
X156182952Y-69612190D01*
X143870380Y-73612285D02*
X143870380Y-73136095D01*
X143870380Y-73136095D02*
X143394190Y-73088476D01*
X143394190Y-73088476D02*
X143441809Y-73136095D01*
X143441809Y-73136095D02*
X143489428Y-73231333D01*
X143489428Y-73231333D02*
X143489428Y-73469428D01*
X143489428Y-73469428D02*
X143441809Y-73564666D01*
X143441809Y-73564666D02*
X143394190Y-73612285D01*
X143394190Y-73612285D02*
X143298952Y-73659904D01*
X143298952Y-73659904D02*
X143060857Y-73659904D01*
X143060857Y-73659904D02*
X142965619Y-73612285D01*
X142965619Y-73612285D02*
X142918000Y-73564666D01*
X142918000Y-73564666D02*
X142870380Y-73469428D01*
X142870380Y-73469428D02*
X142870380Y-73231333D01*
X142870380Y-73231333D02*
X142918000Y-73136095D01*
X142918000Y-73136095D02*
X142965619Y-73088476D01*
X143537047Y-73993238D02*
X142870380Y-74231333D01*
X142870380Y-74231333D02*
X143537047Y-74469428D01*
D11*
X142918000Y-78422476D02*
X142870380Y-78565333D01*
X142870380Y-78565333D02*
X142870380Y-78803428D01*
X142870380Y-78803428D02*
X142918000Y-78898666D01*
X142918000Y-78898666D02*
X142965619Y-78946285D01*
X142965619Y-78946285D02*
X143060857Y-78993904D01*
X143060857Y-78993904D02*
X143156095Y-78993904D01*
X143156095Y-78993904D02*
X143251333Y-78946285D01*
X143251333Y-78946285D02*
X143298952Y-78898666D01*
X143298952Y-78898666D02*
X143346571Y-78803428D01*
X143346571Y-78803428D02*
X143394190Y-78612952D01*
X143394190Y-78612952D02*
X143441809Y-78517714D01*
X143441809Y-78517714D02*
X143489428Y-78470095D01*
X143489428Y-78470095D02*
X143584666Y-78422476D01*
X143584666Y-78422476D02*
X143679904Y-78422476D01*
X143679904Y-78422476D02*
X143775142Y-78470095D01*
X143775142Y-78470095D02*
X143822761Y-78517714D01*
X143822761Y-78517714D02*
X143870380Y-78612952D01*
X143870380Y-78612952D02*
X143870380Y-78851047D01*
X143870380Y-78851047D02*
X143822761Y-78993904D01*
X148843904Y-71061238D02*
X148748666Y-71013619D01*
X148748666Y-71013619D02*
X148605809Y-71013619D01*
X148605809Y-71013619D02*
X148462952Y-71061238D01*
X148462952Y-71061238D02*
X148367714Y-71156476D01*
X148367714Y-71156476D02*
X148320095Y-71251714D01*
X148320095Y-71251714D02*
X148272476Y-71442190D01*
X148272476Y-71442190D02*
X148272476Y-71585047D01*
X148272476Y-71585047D02*
X148320095Y-71775523D01*
X148320095Y-71775523D02*
X148367714Y-71870761D01*
X148367714Y-71870761D02*
X148462952Y-71966000D01*
X148462952Y-71966000D02*
X148605809Y-72013619D01*
X148605809Y-72013619D02*
X148701047Y-72013619D01*
X148701047Y-72013619D02*
X148843904Y-71966000D01*
X148843904Y-71966000D02*
X148891523Y-71918380D01*
X148891523Y-71918380D02*
X148891523Y-71585047D01*
X148891523Y-71585047D02*
X148701047Y-71585047D01*
X146494476Y-71966000D02*
X146637333Y-72013619D01*
X146637333Y-72013619D02*
X146875428Y-72013619D01*
X146875428Y-72013619D02*
X146970666Y-71966000D01*
X146970666Y-71966000D02*
X147018285Y-71918380D01*
X147018285Y-71918380D02*
X147065904Y-71823142D01*
X147065904Y-71823142D02*
X147065904Y-71727904D01*
X147065904Y-71727904D02*
X147018285Y-71632666D01*
X147018285Y-71632666D02*
X146970666Y-71585047D01*
X146970666Y-71585047D02*
X146875428Y-71537428D01*
X146875428Y-71537428D02*
X146684952Y-71489809D01*
X146684952Y-71489809D02*
X146589714Y-71442190D01*
X146589714Y-71442190D02*
X146542095Y-71394571D01*
X146542095Y-71394571D02*
X146494476Y-71299333D01*
X146494476Y-71299333D02*
X146494476Y-71204095D01*
X146494476Y-71204095D02*
X146542095Y-71108857D01*
X146542095Y-71108857D02*
X146589714Y-71061238D01*
X146589714Y-71061238D02*
X146684952Y-71013619D01*
X146684952Y-71013619D02*
X146923047Y-71013619D01*
X146923047Y-71013619D02*
X147065904Y-71061238D01*
D10*
X152352285Y-73807619D02*
X151876095Y-73807619D01*
X151876095Y-73807619D02*
X151828476Y-74283809D01*
X151828476Y-74283809D02*
X151876095Y-74236190D01*
X151876095Y-74236190D02*
X151971333Y-74188571D01*
X151971333Y-74188571D02*
X152209428Y-74188571D01*
X152209428Y-74188571D02*
X152304666Y-74236190D01*
X152304666Y-74236190D02*
X152352285Y-74283809D01*
X152352285Y-74283809D02*
X152399904Y-74379047D01*
X152399904Y-74379047D02*
X152399904Y-74617142D01*
X152399904Y-74617142D02*
X152352285Y-74712380D01*
X152352285Y-74712380D02*
X152304666Y-74760000D01*
X152304666Y-74760000D02*
X152209428Y-74807619D01*
X152209428Y-74807619D02*
X151971333Y-74807619D01*
X151971333Y-74807619D02*
X151876095Y-74760000D01*
X151876095Y-74760000D02*
X151828476Y-74712380D01*
X152733238Y-74140952D02*
X152971333Y-74807619D01*
X152971333Y-74807619D02*
X153209428Y-74140952D01*
X150574285Y-71013619D02*
X150098095Y-71013619D01*
X150098095Y-71013619D02*
X150050476Y-71489809D01*
X150050476Y-71489809D02*
X150098095Y-71442190D01*
X150098095Y-71442190D02*
X150193333Y-71394571D01*
X150193333Y-71394571D02*
X150431428Y-71394571D01*
X150431428Y-71394571D02*
X150526666Y-71442190D01*
X150526666Y-71442190D02*
X150574285Y-71489809D01*
X150574285Y-71489809D02*
X150621904Y-71585047D01*
X150621904Y-71585047D02*
X150621904Y-71823142D01*
X150621904Y-71823142D02*
X150574285Y-71918380D01*
X150574285Y-71918380D02*
X150526666Y-71966000D01*
X150526666Y-71966000D02*
X150431428Y-72013619D01*
X150431428Y-72013619D02*
X150193333Y-72013619D01*
X150193333Y-72013619D02*
X150098095Y-71966000D01*
X150098095Y-71966000D02*
X150050476Y-71918380D01*
X150955238Y-71346952D02*
X151193333Y-72013619D01*
X151193333Y-72013619D02*
X151431428Y-71346952D01*
D11*
X149796476Y-74760000D02*
X149939333Y-74807619D01*
X149939333Y-74807619D02*
X150177428Y-74807619D01*
X150177428Y-74807619D02*
X150272666Y-74760000D01*
X150272666Y-74760000D02*
X150320285Y-74712380D01*
X150320285Y-74712380D02*
X150367904Y-74617142D01*
X150367904Y-74617142D02*
X150367904Y-74521904D01*
X150367904Y-74521904D02*
X150320285Y-74426666D01*
X150320285Y-74426666D02*
X150272666Y-74379047D01*
X150272666Y-74379047D02*
X150177428Y-74331428D01*
X150177428Y-74331428D02*
X149986952Y-74283809D01*
X149986952Y-74283809D02*
X149891714Y-74236190D01*
X149891714Y-74236190D02*
X149844095Y-74188571D01*
X149844095Y-74188571D02*
X149796476Y-74093333D01*
X149796476Y-74093333D02*
X149796476Y-73998095D01*
X149796476Y-73998095D02*
X149844095Y-73902857D01*
X149844095Y-73902857D02*
X149891714Y-73855238D01*
X149891714Y-73855238D02*
X149986952Y-73807619D01*
X149986952Y-73807619D02*
X150225047Y-73807619D01*
X150225047Y-73807619D02*
X150367904Y-73855238D01*
X156802000Y-77533523D02*
X156849619Y-77390666D01*
X156849619Y-77390666D02*
X156849619Y-77152571D01*
X156849619Y-77152571D02*
X156802000Y-77057333D01*
X156802000Y-77057333D02*
X156754380Y-77009714D01*
X156754380Y-77009714D02*
X156659142Y-76962095D01*
X156659142Y-76962095D02*
X156563904Y-76962095D01*
X156563904Y-76962095D02*
X156468666Y-77009714D01*
X156468666Y-77009714D02*
X156421047Y-77057333D01*
X156421047Y-77057333D02*
X156373428Y-77152571D01*
X156373428Y-77152571D02*
X156325809Y-77343047D01*
X156325809Y-77343047D02*
X156278190Y-77438285D01*
X156278190Y-77438285D02*
X156230571Y-77485904D01*
X156230571Y-77485904D02*
X156135333Y-77533523D01*
X156135333Y-77533523D02*
X156040095Y-77533523D01*
X156040095Y-77533523D02*
X155944857Y-77485904D01*
X155944857Y-77485904D02*
X155897238Y-77438285D01*
X155897238Y-77438285D02*
X155849619Y-77343047D01*
X155849619Y-77343047D02*
X155849619Y-77104952D01*
X155849619Y-77104952D02*
X155897238Y-76962095D01*
X147573904Y-73855238D02*
X147478666Y-73807619D01*
X147478666Y-73807619D02*
X147335809Y-73807619D01*
X147335809Y-73807619D02*
X147192952Y-73855238D01*
X147192952Y-73855238D02*
X147097714Y-73950476D01*
X147097714Y-73950476D02*
X147050095Y-74045714D01*
X147050095Y-74045714D02*
X147002476Y-74236190D01*
X147002476Y-74236190D02*
X147002476Y-74379047D01*
X147002476Y-74379047D02*
X147050095Y-74569523D01*
X147050095Y-74569523D02*
X147097714Y-74664761D01*
X147097714Y-74664761D02*
X147192952Y-74760000D01*
X147192952Y-74760000D02*
X147335809Y-74807619D01*
X147335809Y-74807619D02*
X147431047Y-74807619D01*
X147431047Y-74807619D02*
X147573904Y-74760000D01*
X147573904Y-74760000D02*
X147621523Y-74712380D01*
X147621523Y-74712380D02*
X147621523Y-74379047D01*
X147621523Y-74379047D02*
X147431047Y-74379047D01*
X143822761Y-76453904D02*
X143870380Y-76358666D01*
X143870380Y-76358666D02*
X143870380Y-76215809D01*
X143870380Y-76215809D02*
X143822761Y-76072952D01*
X143822761Y-76072952D02*
X143727523Y-75977714D01*
X143727523Y-75977714D02*
X143632285Y-75930095D01*
X143632285Y-75930095D02*
X143441809Y-75882476D01*
X143441809Y-75882476D02*
X143298952Y-75882476D01*
X143298952Y-75882476D02*
X143108476Y-75930095D01*
X143108476Y-75930095D02*
X143013238Y-75977714D01*
X143013238Y-75977714D02*
X142918000Y-76072952D01*
X142918000Y-76072952D02*
X142870380Y-76215809D01*
X142870380Y-76215809D02*
X142870380Y-76311047D01*
X142870380Y-76311047D02*
X142918000Y-76453904D01*
X142918000Y-76453904D02*
X142965619Y-76501523D01*
X142965619Y-76501523D02*
X143298952Y-76501523D01*
X143298952Y-76501523D02*
X143298952Y-76311047D01*
X155897238Y-75184095D02*
X155849619Y-75279333D01*
X155849619Y-75279333D02*
X155849619Y-75422190D01*
X155849619Y-75422190D02*
X155897238Y-75565047D01*
X155897238Y-75565047D02*
X155992476Y-75660285D01*
X155992476Y-75660285D02*
X156087714Y-75707904D01*
X156087714Y-75707904D02*
X156278190Y-75755523D01*
X156278190Y-75755523D02*
X156421047Y-75755523D01*
X156421047Y-75755523D02*
X156611523Y-75707904D01*
X156611523Y-75707904D02*
X156706761Y-75660285D01*
X156706761Y-75660285D02*
X156802000Y-75565047D01*
X156802000Y-75565047D02*
X156849619Y-75422190D01*
X156849619Y-75422190D02*
X156849619Y-75326952D01*
X156849619Y-75326952D02*
X156802000Y-75184095D01*
X156802000Y-75184095D02*
X156754380Y-75136476D01*
X156754380Y-75136476D02*
X156421047Y-75136476D01*
X156421047Y-75136476D02*
X156421047Y-75326952D01*
D10*
X152653904Y-72013619D02*
X152082476Y-72013619D01*
X152368190Y-72013619D02*
X152368190Y-71013619D01*
X152368190Y-71013619D02*
X152272952Y-71156476D01*
X152272952Y-71156476D02*
X152177714Y-71251714D01*
X152177714Y-71251714D02*
X152082476Y-71299333D01*
X153034857Y-71108857D02*
X153082476Y-71061238D01*
X153082476Y-71061238D02*
X153177714Y-71013619D01*
X153177714Y-71013619D02*
X153415809Y-71013619D01*
X153415809Y-71013619D02*
X153511047Y-71061238D01*
X153511047Y-71061238D02*
X153558666Y-71108857D01*
X153558666Y-71108857D02*
X153606285Y-71204095D01*
X153606285Y-71204095D02*
X153606285Y-71299333D01*
X153606285Y-71299333D02*
X153558666Y-71442190D01*
X153558666Y-71442190D02*
X152987238Y-72013619D01*
X152987238Y-72013619D02*
X153606285Y-72013619D01*
X153939619Y-71346952D02*
X154177714Y-72013619D01*
X154177714Y-72013619D02*
X154415809Y-71346952D01*
D12*
X155172000Y-70732000D02*
X155172000Y-69482000D01*
X154872000Y-70432000D02*
X154872000Y-65712000D01*
X154872000Y-69122000D02*
X154262000Y-69122000D01*
X154872000Y-67822000D02*
X154262000Y-67822000D01*
X154872000Y-65712000D02*
X144752000Y-65712000D01*
X154262000Y-69822000D02*
X154262000Y-66322000D01*
X154262000Y-66322000D02*
X145362000Y-66322000D01*
X153922000Y-70732000D02*
X155172000Y-70732000D01*
X153412000Y-70632000D02*
X153412000Y-70432000D01*
X153112000Y-70632000D02*
X153412000Y-70632000D01*
X153112000Y-70532000D02*
X153412000Y-70532000D01*
X153112000Y-70432000D02*
X153112000Y-70632000D01*
X152312000Y-70432000D02*
X152312000Y-69822000D01*
X152312000Y-69822000D02*
X154262000Y-69822000D01*
X151912000Y-66822000D02*
X151712000Y-66822000D01*
X151912000Y-66322000D02*
X151912000Y-66822000D01*
X151812000Y-66322000D02*
X151812000Y-66822000D01*
X151712000Y-66822000D02*
X151712000Y-66322000D01*
X149912000Y-66822000D02*
X149712000Y-66822000D01*
X149912000Y-66322000D02*
X149912000Y-66822000D01*
X149812000Y-66322000D02*
X149812000Y-66822000D01*
X149712000Y-66822000D02*
X149712000Y-66322000D01*
X147912000Y-66822000D02*
X147712000Y-66822000D01*
X147912000Y-66322000D02*
X147912000Y-66822000D01*
X147812000Y-66322000D02*
X147812000Y-66822000D01*
X147712000Y-66822000D02*
X147712000Y-66322000D01*
X147312000Y-69822000D02*
X147312000Y-70432000D01*
X145362000Y-69822000D02*
X147312000Y-69822000D01*
X145362000Y-66322000D02*
X145362000Y-69822000D01*
X144752000Y-70432000D02*
X154872000Y-70432000D01*
X144752000Y-69122000D02*
X145362000Y-69122000D01*
X144752000Y-67822000D02*
X145362000Y-67822000D01*
X144752000Y-65712000D02*
X144752000Y-70432000D01*
X144550000Y-75228000D02*
X144550000Y-76478000D01*
X144840000Y-75518000D02*
X144840000Y-81488000D01*
X144840000Y-81488000D02*
X154960000Y-81488000D01*
X144850000Y-75528000D02*
X144850000Y-76278000D01*
X144850000Y-76278000D02*
X146650000Y-76278000D01*
X144850000Y-77778000D02*
X145600000Y-77778000D01*
X145600000Y-77778000D02*
X145600000Y-80728000D01*
X145600000Y-80728000D02*
X149900000Y-80728000D01*
X145800000Y-75228000D02*
X144550000Y-75228000D01*
X146650000Y-75528000D02*
X144850000Y-75528000D01*
X146650000Y-76278000D02*
X146650000Y-75528000D01*
X148150000Y-75528000D02*
X148150000Y-76278000D01*
X148150000Y-76278000D02*
X151650000Y-76278000D01*
X151650000Y-75528000D02*
X148150000Y-75528000D01*
X151650000Y-76278000D02*
X151650000Y-75528000D01*
X153150000Y-75528000D02*
X153150000Y-76278000D01*
X153150000Y-76278000D02*
X154950000Y-76278000D01*
X154200000Y-77778000D02*
X154200000Y-80728000D01*
X154200000Y-80728000D02*
X149900000Y-80728000D01*
X154950000Y-75528000D02*
X153150000Y-75528000D01*
X154950000Y-76278000D02*
X154950000Y-75528000D01*
X154950000Y-77778000D02*
X154200000Y-77778000D01*
X154960000Y-75518000D02*
X144840000Y-75518000D01*
X154960000Y-81488000D02*
X154960000Y-75518000D01*
X142467000Y-68270000D02*
X141217000Y-68270000D01*
X142177000Y-68560000D02*
X136207000Y-68560000D01*
X136207000Y-68560000D02*
X136207000Y-81180000D01*
X142167000Y-68570000D02*
X141417000Y-68570000D01*
X141417000Y-68570000D02*
X141417000Y-70370000D01*
X139917000Y-68570000D02*
X139917000Y-69320000D01*
X139917000Y-69320000D02*
X136967000Y-69320000D01*
X136967000Y-69320000D02*
X136967000Y-74870000D01*
X142467000Y-69520000D02*
X142467000Y-68270000D01*
X142167000Y-70370000D02*
X142167000Y-68570000D01*
X141417000Y-70370000D02*
X142167000Y-70370000D01*
X142167000Y-71870000D02*
X141417000Y-71870000D01*
X141417000Y-71870000D02*
X141417000Y-77870000D01*
X142167000Y-77870000D02*
X142167000Y-71870000D01*
X141417000Y-77870000D02*
X142167000Y-77870000D01*
X142167000Y-79370000D02*
X141417000Y-79370000D01*
X141417000Y-79370000D02*
X141417000Y-81170000D01*
X139917000Y-80420000D02*
X136967000Y-80420000D01*
X136967000Y-80420000D02*
X136967000Y-74870000D01*
X142167000Y-81170000D02*
X142167000Y-79370000D01*
X141417000Y-81170000D02*
X142167000Y-81170000D01*
X139917000Y-81170000D02*
X139917000Y-80420000D01*
X142177000Y-81180000D02*
X142177000Y-68560000D01*
X136207000Y-81180000D02*
X142177000Y-81180000D01*
X162384000Y-69014000D02*
X161134000Y-69014000D01*
X162084000Y-69314000D02*
X157364000Y-69314000D01*
X160774000Y-69314000D02*
X160774000Y-69924000D01*
X159474000Y-69314000D02*
X159474000Y-69924000D01*
X157364000Y-69314000D02*
X157364000Y-79434000D01*
X161474000Y-69924000D02*
X157974000Y-69924000D01*
X157974000Y-69924000D02*
X157974000Y-78824000D01*
X162384000Y-70264000D02*
X162384000Y-69014000D01*
X162284000Y-70774000D02*
X162084000Y-70774000D01*
X162284000Y-71074000D02*
X162284000Y-70774000D01*
X162184000Y-71074000D02*
X162184000Y-70774000D01*
X162084000Y-71074000D02*
X162284000Y-71074000D01*
X162084000Y-71874000D02*
X161474000Y-71874000D01*
X161474000Y-71874000D02*
X161474000Y-69924000D01*
X158474000Y-72274000D02*
X158474000Y-72474000D01*
X157974000Y-72274000D02*
X158474000Y-72274000D01*
X157974000Y-72374000D02*
X158474000Y-72374000D01*
X158474000Y-72474000D02*
X157974000Y-72474000D01*
X158474000Y-74274000D02*
X158474000Y-74474000D01*
X157974000Y-74274000D02*
X158474000Y-74274000D01*
X157974000Y-74374000D02*
X158474000Y-74374000D01*
X158474000Y-74474000D02*
X157974000Y-74474000D01*
X158474000Y-76274000D02*
X158474000Y-76474000D01*
X157974000Y-76274000D02*
X158474000Y-76274000D01*
X157974000Y-76374000D02*
X158474000Y-76374000D01*
X158474000Y-76474000D02*
X157974000Y-76474000D01*
X161474000Y-76874000D02*
X162084000Y-76874000D01*
X161474000Y-78824000D02*
X161474000Y-76874000D01*
X157974000Y-78824000D02*
X161474000Y-78824000D01*
X162084000Y-79434000D02*
X162084000Y-69314000D01*
X160774000Y-79434000D02*
X160774000Y-78824000D01*
X159474000Y-79434000D02*
X159474000Y-78824000D01*
X157364000Y-79434000D02*
X162084000Y-79434000D01*
M02*
