G04 #@! TF.GenerationSoftware,KiCad,Pcbnew,7.0.2*
G04 #@! TF.CreationDate,2023-08-07T19:19:30-05:00*
G04 #@! TF.ProjectId,RJ45GoButton,524a3435-476f-4427-9574-746f6e2e6b69,rev?*
G04 #@! TF.SameCoordinates,Original*
G04 #@! TF.FileFunction,Legend,Bot*
G04 #@! TF.FilePolarity,Positive*
%FSLAX46Y46*%
G04 Gerber Fmt 4.6, Leading zero omitted, Abs format (unit mm)*
G04 Created by KiCad (PCBNEW 7.0.2) date 2023-08-07 19:19:30*
%MOMM*%
%LPD*%
G01*
G04 APERTURE LIST*
%ADD10C,0.150000*%
%ADD11C,0.120000*%
G04 #@! TA.AperFunction,Profile*
%ADD12C,0.050000*%
G04 #@! TD*
G04 APERTURE END LIST*
D10*
X150799523Y-102655952D02*
X150799523Y-103322619D01*
X151037618Y-102275000D02*
X151275713Y-102989285D01*
X151275713Y-102989285D02*
X150656666Y-102989285D01*
X148949523Y-102222619D02*
X149139999Y-102222619D01*
X149139999Y-102222619D02*
X149235237Y-102270238D01*
X149235237Y-102270238D02*
X149282856Y-102317857D01*
X149282856Y-102317857D02*
X149378094Y-102460714D01*
X149378094Y-102460714D02*
X149425713Y-102651190D01*
X149425713Y-102651190D02*
X149425713Y-103032142D01*
X149425713Y-103032142D02*
X149378094Y-103127380D01*
X149378094Y-103127380D02*
X149330475Y-103175000D01*
X149330475Y-103175000D02*
X149235237Y-103222619D01*
X149235237Y-103222619D02*
X149044761Y-103222619D01*
X149044761Y-103222619D02*
X148949523Y-103175000D01*
X148949523Y-103175000D02*
X148901904Y-103127380D01*
X148901904Y-103127380D02*
X148854285Y-103032142D01*
X148854285Y-103032142D02*
X148854285Y-102794047D01*
X148854285Y-102794047D02*
X148901904Y-102698809D01*
X148901904Y-102698809D02*
X148949523Y-102651190D01*
X148949523Y-102651190D02*
X149044761Y-102603571D01*
X149044761Y-102603571D02*
X149235237Y-102603571D01*
X149235237Y-102603571D02*
X149330475Y-102651190D01*
X149330475Y-102651190D02*
X149378094Y-102698809D01*
X149378094Y-102698809D02*
X149425713Y-102794047D01*
X148753332Y-107942619D02*
X148086666Y-107942619D01*
X148086666Y-107942619D02*
X148515237Y-108942619D01*
X153790476Y-98062619D02*
X154123809Y-97586428D01*
X154361904Y-98062619D02*
X154361904Y-97062619D01*
X154361904Y-97062619D02*
X153980952Y-97062619D01*
X153980952Y-97062619D02*
X153885714Y-97110238D01*
X153885714Y-97110238D02*
X153838095Y-97157857D01*
X153838095Y-97157857D02*
X153790476Y-97253095D01*
X153790476Y-97253095D02*
X153790476Y-97395952D01*
X153790476Y-97395952D02*
X153838095Y-97491190D01*
X153838095Y-97491190D02*
X153885714Y-97538809D01*
X153885714Y-97538809D02*
X153980952Y-97586428D01*
X153980952Y-97586428D02*
X154361904Y-97586428D01*
X153076190Y-97062619D02*
X153076190Y-97776904D01*
X153076190Y-97776904D02*
X153123809Y-97919761D01*
X153123809Y-97919761D02*
X153219047Y-98015000D01*
X153219047Y-98015000D02*
X153361904Y-98062619D01*
X153361904Y-98062619D02*
X153457142Y-98062619D01*
X152171428Y-97395952D02*
X152171428Y-98062619D01*
X152409523Y-97015000D02*
X152647618Y-97729285D01*
X152647618Y-97729285D02*
X152028571Y-97729285D01*
X151171428Y-97062619D02*
X151647618Y-97062619D01*
X151647618Y-97062619D02*
X151695237Y-97538809D01*
X151695237Y-97538809D02*
X151647618Y-97491190D01*
X151647618Y-97491190D02*
X151552380Y-97443571D01*
X151552380Y-97443571D02*
X151314285Y-97443571D01*
X151314285Y-97443571D02*
X151219047Y-97491190D01*
X151219047Y-97491190D02*
X151171428Y-97538809D01*
X151171428Y-97538809D02*
X151123809Y-97634047D01*
X151123809Y-97634047D02*
X151123809Y-97872142D01*
X151123809Y-97872142D02*
X151171428Y-97967380D01*
X151171428Y-97967380D02*
X151219047Y-98015000D01*
X151219047Y-98015000D02*
X151314285Y-98062619D01*
X151314285Y-98062619D02*
X151552380Y-98062619D01*
X151552380Y-98062619D02*
X151647618Y-98015000D01*
X151647618Y-98015000D02*
X151695237Y-97967380D01*
X149361904Y-98062619D02*
X149695237Y-97586428D01*
X149933332Y-98062619D02*
X149933332Y-97062619D01*
X149933332Y-97062619D02*
X149552380Y-97062619D01*
X149552380Y-97062619D02*
X149457142Y-97110238D01*
X149457142Y-97110238D02*
X149409523Y-97157857D01*
X149409523Y-97157857D02*
X149361904Y-97253095D01*
X149361904Y-97253095D02*
X149361904Y-97395952D01*
X149361904Y-97395952D02*
X149409523Y-97491190D01*
X149409523Y-97491190D02*
X149457142Y-97538809D01*
X149457142Y-97538809D02*
X149552380Y-97586428D01*
X149552380Y-97586428D02*
X149933332Y-97586428D01*
X148552380Y-98015000D02*
X148647618Y-98062619D01*
X148647618Y-98062619D02*
X148838094Y-98062619D01*
X148838094Y-98062619D02*
X148933332Y-98015000D01*
X148933332Y-98015000D02*
X148980951Y-97919761D01*
X148980951Y-97919761D02*
X148980951Y-97538809D01*
X148980951Y-97538809D02*
X148933332Y-97443571D01*
X148933332Y-97443571D02*
X148838094Y-97395952D01*
X148838094Y-97395952D02*
X148647618Y-97395952D01*
X148647618Y-97395952D02*
X148552380Y-97443571D01*
X148552380Y-97443571D02*
X148504761Y-97538809D01*
X148504761Y-97538809D02*
X148504761Y-97634047D01*
X148504761Y-97634047D02*
X148980951Y-97729285D01*
X148171427Y-97395952D02*
X147933332Y-98062619D01*
X147933332Y-98062619D02*
X147695237Y-97395952D01*
X147409522Y-97062619D02*
X146790475Y-97062619D01*
X146790475Y-97062619D02*
X147123808Y-97443571D01*
X147123808Y-97443571D02*
X146980951Y-97443571D01*
X146980951Y-97443571D02*
X146885713Y-97491190D01*
X146885713Y-97491190D02*
X146838094Y-97538809D01*
X146838094Y-97538809D02*
X146790475Y-97634047D01*
X146790475Y-97634047D02*
X146790475Y-97872142D01*
X146790475Y-97872142D02*
X146838094Y-97967380D01*
X146838094Y-97967380D02*
X146885713Y-98015000D01*
X146885713Y-98015000D02*
X146980951Y-98062619D01*
X146980951Y-98062619D02*
X147266665Y-98062619D01*
X147266665Y-98062619D02*
X147361903Y-98015000D01*
X147361903Y-98015000D02*
X147409522Y-97967380D01*
X152733332Y-107872619D02*
X152114285Y-107872619D01*
X152114285Y-107872619D02*
X152447618Y-108253571D01*
X152447618Y-108253571D02*
X152304761Y-108253571D01*
X152304761Y-108253571D02*
X152209523Y-108301190D01*
X152209523Y-108301190D02*
X152161904Y-108348809D01*
X152161904Y-108348809D02*
X152114285Y-108444047D01*
X152114285Y-108444047D02*
X152114285Y-108682142D01*
X152114285Y-108682142D02*
X152161904Y-108777380D01*
X152161904Y-108777380D02*
X152209523Y-108825000D01*
X152209523Y-108825000D02*
X152304761Y-108872619D01*
X152304761Y-108872619D02*
X152590475Y-108872619D01*
X152590475Y-108872619D02*
X152685713Y-108825000D01*
X152685713Y-108825000D02*
X152733332Y-108777380D01*
X147175237Y-102751190D02*
X147270475Y-102703571D01*
X147270475Y-102703571D02*
X147318094Y-102655952D01*
X147318094Y-102655952D02*
X147365713Y-102560714D01*
X147365713Y-102560714D02*
X147365713Y-102513095D01*
X147365713Y-102513095D02*
X147318094Y-102417857D01*
X147318094Y-102417857D02*
X147270475Y-102370238D01*
X147270475Y-102370238D02*
X147175237Y-102322619D01*
X147175237Y-102322619D02*
X146984761Y-102322619D01*
X146984761Y-102322619D02*
X146889523Y-102370238D01*
X146889523Y-102370238D02*
X146841904Y-102417857D01*
X146841904Y-102417857D02*
X146794285Y-102513095D01*
X146794285Y-102513095D02*
X146794285Y-102560714D01*
X146794285Y-102560714D02*
X146841904Y-102655952D01*
X146841904Y-102655952D02*
X146889523Y-102703571D01*
X146889523Y-102703571D02*
X146984761Y-102751190D01*
X146984761Y-102751190D02*
X147175237Y-102751190D01*
X147175237Y-102751190D02*
X147270475Y-102798809D01*
X147270475Y-102798809D02*
X147318094Y-102846428D01*
X147318094Y-102846428D02*
X147365713Y-102941666D01*
X147365713Y-102941666D02*
X147365713Y-103132142D01*
X147365713Y-103132142D02*
X147318094Y-103227380D01*
X147318094Y-103227380D02*
X147270475Y-103275000D01*
X147270475Y-103275000D02*
X147175237Y-103322619D01*
X147175237Y-103322619D02*
X146984761Y-103322619D01*
X146984761Y-103322619D02*
X146889523Y-103275000D01*
X146889523Y-103275000D02*
X146841904Y-103227380D01*
X146841904Y-103227380D02*
X146794285Y-103132142D01*
X146794285Y-103132142D02*
X146794285Y-102941666D01*
X146794285Y-102941666D02*
X146841904Y-102846428D01*
X146841904Y-102846428D02*
X146889523Y-102798809D01*
X146889523Y-102798809D02*
X146984761Y-102751190D01*
X154174285Y-108872619D02*
X154745713Y-108872619D01*
X154459999Y-108872619D02*
X154459999Y-107872619D01*
X154459999Y-107872619D02*
X154555237Y-108015476D01*
X154555237Y-108015476D02*
X154650475Y-108110714D01*
X154650475Y-108110714D02*
X154745713Y-108158333D01*
X150161904Y-107962619D02*
X150638094Y-107962619D01*
X150638094Y-107962619D02*
X150685713Y-108438809D01*
X150685713Y-108438809D02*
X150638094Y-108391190D01*
X150638094Y-108391190D02*
X150542856Y-108343571D01*
X150542856Y-108343571D02*
X150304761Y-108343571D01*
X150304761Y-108343571D02*
X150209523Y-108391190D01*
X150209523Y-108391190D02*
X150161904Y-108438809D01*
X150161904Y-108438809D02*
X150114285Y-108534047D01*
X150114285Y-108534047D02*
X150114285Y-108772142D01*
X150114285Y-108772142D02*
X150161904Y-108867380D01*
X150161904Y-108867380D02*
X150209523Y-108915000D01*
X150209523Y-108915000D02*
X150304761Y-108962619D01*
X150304761Y-108962619D02*
X150542856Y-108962619D01*
X150542856Y-108962619D02*
X150638094Y-108915000D01*
X150638094Y-108915000D02*
X150685713Y-108867380D01*
X153385713Y-102297857D02*
X153338094Y-102250238D01*
X153338094Y-102250238D02*
X153242856Y-102202619D01*
X153242856Y-102202619D02*
X153004761Y-102202619D01*
X153004761Y-102202619D02*
X152909523Y-102250238D01*
X152909523Y-102250238D02*
X152861904Y-102297857D01*
X152861904Y-102297857D02*
X152814285Y-102393095D01*
X152814285Y-102393095D02*
X152814285Y-102488333D01*
X152814285Y-102488333D02*
X152861904Y-102631190D01*
X152861904Y-102631190D02*
X153433332Y-103202619D01*
X153433332Y-103202619D02*
X152814285Y-103202619D01*
X149180619Y-100163333D02*
X148704428Y-99830000D01*
X149180619Y-99591905D02*
X148180619Y-99591905D01*
X148180619Y-99591905D02*
X148180619Y-99972857D01*
X148180619Y-99972857D02*
X148228238Y-100068095D01*
X148228238Y-100068095D02*
X148275857Y-100115714D01*
X148275857Y-100115714D02*
X148371095Y-100163333D01*
X148371095Y-100163333D02*
X148513952Y-100163333D01*
X148513952Y-100163333D02*
X148609190Y-100115714D01*
X148609190Y-100115714D02*
X148656809Y-100068095D01*
X148656809Y-100068095D02*
X148704428Y-99972857D01*
X148704428Y-99972857D02*
X148704428Y-99591905D01*
X148275857Y-100544286D02*
X148228238Y-100591905D01*
X148228238Y-100591905D02*
X148180619Y-100687143D01*
X148180619Y-100687143D02*
X148180619Y-100925238D01*
X148180619Y-100925238D02*
X148228238Y-101020476D01*
X148228238Y-101020476D02*
X148275857Y-101068095D01*
X148275857Y-101068095D02*
X148371095Y-101115714D01*
X148371095Y-101115714D02*
X148466333Y-101115714D01*
X148466333Y-101115714D02*
X148609190Y-101068095D01*
X148609190Y-101068095D02*
X149180619Y-100496667D01*
X149180619Y-100496667D02*
X149180619Y-101115714D01*
X145878619Y-100147333D02*
X145402428Y-99814000D01*
X145878619Y-99575905D02*
X144878619Y-99575905D01*
X144878619Y-99575905D02*
X144878619Y-99956857D01*
X144878619Y-99956857D02*
X144926238Y-100052095D01*
X144926238Y-100052095D02*
X144973857Y-100099714D01*
X144973857Y-100099714D02*
X145069095Y-100147333D01*
X145069095Y-100147333D02*
X145211952Y-100147333D01*
X145211952Y-100147333D02*
X145307190Y-100099714D01*
X145307190Y-100099714D02*
X145354809Y-100052095D01*
X145354809Y-100052095D02*
X145402428Y-99956857D01*
X145402428Y-99956857D02*
X145402428Y-99575905D01*
X145878619Y-101099714D02*
X145878619Y-100528286D01*
X145878619Y-100814000D02*
X144878619Y-100814000D01*
X144878619Y-100814000D02*
X145021476Y-100718762D01*
X145021476Y-100718762D02*
X145116714Y-100623524D01*
X145116714Y-100623524D02*
X145164333Y-100528286D01*
X152736619Y-100179333D02*
X152260428Y-99846000D01*
X152736619Y-99607905D02*
X151736619Y-99607905D01*
X151736619Y-99607905D02*
X151736619Y-99988857D01*
X151736619Y-99988857D02*
X151784238Y-100084095D01*
X151784238Y-100084095D02*
X151831857Y-100131714D01*
X151831857Y-100131714D02*
X151927095Y-100179333D01*
X151927095Y-100179333D02*
X152069952Y-100179333D01*
X152069952Y-100179333D02*
X152165190Y-100131714D01*
X152165190Y-100131714D02*
X152212809Y-100084095D01*
X152212809Y-100084095D02*
X152260428Y-99988857D01*
X152260428Y-99988857D02*
X152260428Y-99607905D01*
X151736619Y-100512667D02*
X151736619Y-101131714D01*
X151736619Y-101131714D02*
X152117571Y-100798381D01*
X152117571Y-100798381D02*
X152117571Y-100941238D01*
X152117571Y-100941238D02*
X152165190Y-101036476D01*
X152165190Y-101036476D02*
X152212809Y-101084095D01*
X152212809Y-101084095D02*
X152308047Y-101131714D01*
X152308047Y-101131714D02*
X152546142Y-101131714D01*
X152546142Y-101131714D02*
X152641380Y-101084095D01*
X152641380Y-101084095D02*
X152689000Y-101036476D01*
X152689000Y-101036476D02*
X152736619Y-100941238D01*
X152736619Y-100941238D02*
X152736619Y-100655524D01*
X152736619Y-100655524D02*
X152689000Y-100560286D01*
X152689000Y-100560286D02*
X152641380Y-100512667D01*
D11*
X151103000Y-100102936D02*
X151103000Y-100557064D01*
X149633000Y-100102936D02*
X149633000Y-100557064D01*
X147801000Y-100086936D02*
X147801000Y-100541064D01*
X146331000Y-100086936D02*
X146331000Y-100541064D01*
X153189000Y-100118936D02*
X153189000Y-100573064D01*
X154659000Y-100118936D02*
X154659000Y-100573064D01*
D12*
X161190000Y-92530000D02*
X161200000Y-114160000D01*
X140410000Y-114160000D02*
X140410000Y-92530000D01*
X161200000Y-114160000D02*
X140410000Y-114160000D01*
X140410000Y-92530000D02*
X161190000Y-92530000D01*
M02*
