M48
; DRILL file {KiCad 7.0.5} date Wed Jun 28 23:38:23 2023
; FORMAT={-:-/ absolute / inch / decimal}
; #@! TF.CreationDate,2023-06-28T23:38:23-05:00
; #@! TF.GenerationSoftware,Kicad,Pcbnew,7.0.5
; #@! TF.FileFunction,Plated,1,2,PTH
FMAT,2
INCH
; #@! TA.AperFunction,Plated,PTH,ViaDrill
T1C0.0157
; #@! TA.AperFunction,Plated,PTH,ComponentDrill
T2C0.0197
; #@! TA.AperFunction,Plated,PTH,ComponentDrill
T3C0.0299
; #@! TA.AperFunction,Plated,PTH,ComponentDrill
T4C0.0394
%
G90
G05
T1
X5.58Y-4.42
X5.63Y-3.99
X5.9Y-3.75
X5.95Y-4.42
X5.99Y-3.92
X6.02Y-3.84
X6.27Y-3.96
X6.27Y-4.43
T3
X5.7999Y-4.1182
X5.8401Y-4.1883
X5.8799Y-4.1182
X5.92Y-4.1883
X5.9598Y-4.1182
X5.9999Y-4.1883
X6.0397Y-4.1182
X6.0799Y-4.1883
T4
X5.6673Y-3.7201
X5.7657Y-3.7201
X6.0409Y-3.7165
X6.1394Y-3.7165
T2
G00X5.62Y-4.1957
M15
G01X5.62Y-4.1524
M16
G05
G00X6.2602Y-4.1957
M15
G01X6.2602Y-4.1524
M16
G05
T0
M30
