G04 #@! TF.GenerationSoftware,KiCad,Pcbnew,7.0.5*
G04 #@! TF.CreationDate,2023-06-28T23:38:25-05:00*
G04 #@! TF.ProjectId,RJ45GoButton,524a3435-476f-4427-9574-746f6e2e6b69,rev?*
G04 #@! TF.SameCoordinates,Original*
G04 #@! TF.FileFunction,Legend,Bot*
G04 #@! TF.FilePolarity,Positive*
%FSLAX46Y46*%
G04 Gerber Fmt 4.6, Leading zero omitted, Abs format (unit mm)*
G04 Created by KiCad (PCBNEW 7.0.5) date 2023-06-28 23:38:25*
%MOMM*%
%LPD*%
G01*
G04 APERTURE LIST*
%ADD10C,0.150000*%
%ADD11C,0.120000*%
G04 #@! TA.AperFunction,Profile*
%ADD12C,0.050000*%
G04 #@! TD*
G04 APERTURE END LIST*
D10*
X150799523Y-102648152D02*
X150799523Y-103314819D01*
X151037618Y-102267200D02*
X151275713Y-102981485D01*
X151275713Y-102981485D02*
X150656666Y-102981485D01*
X148949523Y-102214819D02*
X149139999Y-102214819D01*
X149139999Y-102214819D02*
X149235237Y-102262438D01*
X149235237Y-102262438D02*
X149282856Y-102310057D01*
X149282856Y-102310057D02*
X149378094Y-102452914D01*
X149378094Y-102452914D02*
X149425713Y-102643390D01*
X149425713Y-102643390D02*
X149425713Y-103024342D01*
X149425713Y-103024342D02*
X149378094Y-103119580D01*
X149378094Y-103119580D02*
X149330475Y-103167200D01*
X149330475Y-103167200D02*
X149235237Y-103214819D01*
X149235237Y-103214819D02*
X149044761Y-103214819D01*
X149044761Y-103214819D02*
X148949523Y-103167200D01*
X148949523Y-103167200D02*
X148901904Y-103119580D01*
X148901904Y-103119580D02*
X148854285Y-103024342D01*
X148854285Y-103024342D02*
X148854285Y-102786247D01*
X148854285Y-102786247D02*
X148901904Y-102691009D01*
X148901904Y-102691009D02*
X148949523Y-102643390D01*
X148949523Y-102643390D02*
X149044761Y-102595771D01*
X149044761Y-102595771D02*
X149235237Y-102595771D01*
X149235237Y-102595771D02*
X149330475Y-102643390D01*
X149330475Y-102643390D02*
X149378094Y-102691009D01*
X149378094Y-102691009D02*
X149425713Y-102786247D01*
X148753332Y-107934819D02*
X148086666Y-107934819D01*
X148086666Y-107934819D02*
X148515237Y-108934819D01*
X153740476Y-100294819D02*
X154073809Y-99818628D01*
X154311904Y-100294819D02*
X154311904Y-99294819D01*
X154311904Y-99294819D02*
X153930952Y-99294819D01*
X153930952Y-99294819D02*
X153835714Y-99342438D01*
X153835714Y-99342438D02*
X153788095Y-99390057D01*
X153788095Y-99390057D02*
X153740476Y-99485295D01*
X153740476Y-99485295D02*
X153740476Y-99628152D01*
X153740476Y-99628152D02*
X153788095Y-99723390D01*
X153788095Y-99723390D02*
X153835714Y-99771009D01*
X153835714Y-99771009D02*
X153930952Y-99818628D01*
X153930952Y-99818628D02*
X154311904Y-99818628D01*
X153026190Y-99294819D02*
X153026190Y-100009104D01*
X153026190Y-100009104D02*
X153073809Y-100151961D01*
X153073809Y-100151961D02*
X153169047Y-100247200D01*
X153169047Y-100247200D02*
X153311904Y-100294819D01*
X153311904Y-100294819D02*
X153407142Y-100294819D01*
X152121428Y-99628152D02*
X152121428Y-100294819D01*
X152359523Y-99247200D02*
X152597618Y-99961485D01*
X152597618Y-99961485D02*
X151978571Y-99961485D01*
X151121428Y-99294819D02*
X151597618Y-99294819D01*
X151597618Y-99294819D02*
X151645237Y-99771009D01*
X151645237Y-99771009D02*
X151597618Y-99723390D01*
X151597618Y-99723390D02*
X151502380Y-99675771D01*
X151502380Y-99675771D02*
X151264285Y-99675771D01*
X151264285Y-99675771D02*
X151169047Y-99723390D01*
X151169047Y-99723390D02*
X151121428Y-99771009D01*
X151121428Y-99771009D02*
X151073809Y-99866247D01*
X151073809Y-99866247D02*
X151073809Y-100104342D01*
X151073809Y-100104342D02*
X151121428Y-100199580D01*
X151121428Y-100199580D02*
X151169047Y-100247200D01*
X151169047Y-100247200D02*
X151264285Y-100294819D01*
X151264285Y-100294819D02*
X151502380Y-100294819D01*
X151502380Y-100294819D02*
X151597618Y-100247200D01*
X151597618Y-100247200D02*
X151645237Y-100199580D01*
X149311904Y-100294819D02*
X149645237Y-99818628D01*
X149883332Y-100294819D02*
X149883332Y-99294819D01*
X149883332Y-99294819D02*
X149502380Y-99294819D01*
X149502380Y-99294819D02*
X149407142Y-99342438D01*
X149407142Y-99342438D02*
X149359523Y-99390057D01*
X149359523Y-99390057D02*
X149311904Y-99485295D01*
X149311904Y-99485295D02*
X149311904Y-99628152D01*
X149311904Y-99628152D02*
X149359523Y-99723390D01*
X149359523Y-99723390D02*
X149407142Y-99771009D01*
X149407142Y-99771009D02*
X149502380Y-99818628D01*
X149502380Y-99818628D02*
X149883332Y-99818628D01*
X148502380Y-100247200D02*
X148597618Y-100294819D01*
X148597618Y-100294819D02*
X148788094Y-100294819D01*
X148788094Y-100294819D02*
X148883332Y-100247200D01*
X148883332Y-100247200D02*
X148930951Y-100151961D01*
X148930951Y-100151961D02*
X148930951Y-99771009D01*
X148930951Y-99771009D02*
X148883332Y-99675771D01*
X148883332Y-99675771D02*
X148788094Y-99628152D01*
X148788094Y-99628152D02*
X148597618Y-99628152D01*
X148597618Y-99628152D02*
X148502380Y-99675771D01*
X148502380Y-99675771D02*
X148454761Y-99771009D01*
X148454761Y-99771009D02*
X148454761Y-99866247D01*
X148454761Y-99866247D02*
X148930951Y-99961485D01*
X148121427Y-99628152D02*
X147883332Y-100294819D01*
X147883332Y-100294819D02*
X147645237Y-99628152D01*
X147359522Y-99294819D02*
X146740475Y-99294819D01*
X146740475Y-99294819D02*
X147073808Y-99675771D01*
X147073808Y-99675771D02*
X146930951Y-99675771D01*
X146930951Y-99675771D02*
X146835713Y-99723390D01*
X146835713Y-99723390D02*
X146788094Y-99771009D01*
X146788094Y-99771009D02*
X146740475Y-99866247D01*
X146740475Y-99866247D02*
X146740475Y-100104342D01*
X146740475Y-100104342D02*
X146788094Y-100199580D01*
X146788094Y-100199580D02*
X146835713Y-100247200D01*
X146835713Y-100247200D02*
X146930951Y-100294819D01*
X146930951Y-100294819D02*
X147216665Y-100294819D01*
X147216665Y-100294819D02*
X147311903Y-100247200D01*
X147311903Y-100247200D02*
X147359522Y-100199580D01*
X152733332Y-107864819D02*
X152114285Y-107864819D01*
X152114285Y-107864819D02*
X152447618Y-108245771D01*
X152447618Y-108245771D02*
X152304761Y-108245771D01*
X152304761Y-108245771D02*
X152209523Y-108293390D01*
X152209523Y-108293390D02*
X152161904Y-108341009D01*
X152161904Y-108341009D02*
X152114285Y-108436247D01*
X152114285Y-108436247D02*
X152114285Y-108674342D01*
X152114285Y-108674342D02*
X152161904Y-108769580D01*
X152161904Y-108769580D02*
X152209523Y-108817200D01*
X152209523Y-108817200D02*
X152304761Y-108864819D01*
X152304761Y-108864819D02*
X152590475Y-108864819D01*
X152590475Y-108864819D02*
X152685713Y-108817200D01*
X152685713Y-108817200D02*
X152733332Y-108769580D01*
X147175237Y-102743390D02*
X147270475Y-102695771D01*
X147270475Y-102695771D02*
X147318094Y-102648152D01*
X147318094Y-102648152D02*
X147365713Y-102552914D01*
X147365713Y-102552914D02*
X147365713Y-102505295D01*
X147365713Y-102505295D02*
X147318094Y-102410057D01*
X147318094Y-102410057D02*
X147270475Y-102362438D01*
X147270475Y-102362438D02*
X147175237Y-102314819D01*
X147175237Y-102314819D02*
X146984761Y-102314819D01*
X146984761Y-102314819D02*
X146889523Y-102362438D01*
X146889523Y-102362438D02*
X146841904Y-102410057D01*
X146841904Y-102410057D02*
X146794285Y-102505295D01*
X146794285Y-102505295D02*
X146794285Y-102552914D01*
X146794285Y-102552914D02*
X146841904Y-102648152D01*
X146841904Y-102648152D02*
X146889523Y-102695771D01*
X146889523Y-102695771D02*
X146984761Y-102743390D01*
X146984761Y-102743390D02*
X147175237Y-102743390D01*
X147175237Y-102743390D02*
X147270475Y-102791009D01*
X147270475Y-102791009D02*
X147318094Y-102838628D01*
X147318094Y-102838628D02*
X147365713Y-102933866D01*
X147365713Y-102933866D02*
X147365713Y-103124342D01*
X147365713Y-103124342D02*
X147318094Y-103219580D01*
X147318094Y-103219580D02*
X147270475Y-103267200D01*
X147270475Y-103267200D02*
X147175237Y-103314819D01*
X147175237Y-103314819D02*
X146984761Y-103314819D01*
X146984761Y-103314819D02*
X146889523Y-103267200D01*
X146889523Y-103267200D02*
X146841904Y-103219580D01*
X146841904Y-103219580D02*
X146794285Y-103124342D01*
X146794285Y-103124342D02*
X146794285Y-102933866D01*
X146794285Y-102933866D02*
X146841904Y-102838628D01*
X146841904Y-102838628D02*
X146889523Y-102791009D01*
X146889523Y-102791009D02*
X146984761Y-102743390D01*
X154174285Y-108864819D02*
X154745713Y-108864819D01*
X154459999Y-108864819D02*
X154459999Y-107864819D01*
X154459999Y-107864819D02*
X154555237Y-108007676D01*
X154555237Y-108007676D02*
X154650475Y-108102914D01*
X154650475Y-108102914D02*
X154745713Y-108150533D01*
X150161904Y-107954819D02*
X150638094Y-107954819D01*
X150638094Y-107954819D02*
X150685713Y-108431009D01*
X150685713Y-108431009D02*
X150638094Y-108383390D01*
X150638094Y-108383390D02*
X150542856Y-108335771D01*
X150542856Y-108335771D02*
X150304761Y-108335771D01*
X150304761Y-108335771D02*
X150209523Y-108383390D01*
X150209523Y-108383390D02*
X150161904Y-108431009D01*
X150161904Y-108431009D02*
X150114285Y-108526247D01*
X150114285Y-108526247D02*
X150114285Y-108764342D01*
X150114285Y-108764342D02*
X150161904Y-108859580D01*
X150161904Y-108859580D02*
X150209523Y-108907200D01*
X150209523Y-108907200D02*
X150304761Y-108954819D01*
X150304761Y-108954819D02*
X150542856Y-108954819D01*
X150542856Y-108954819D02*
X150638094Y-108907200D01*
X150638094Y-108907200D02*
X150685713Y-108859580D01*
X153385713Y-102290057D02*
X153338094Y-102242438D01*
X153338094Y-102242438D02*
X153242856Y-102194819D01*
X153242856Y-102194819D02*
X153004761Y-102194819D01*
X153004761Y-102194819D02*
X152909523Y-102242438D01*
X152909523Y-102242438D02*
X152861904Y-102290057D01*
X152861904Y-102290057D02*
X152814285Y-102385295D01*
X152814285Y-102385295D02*
X152814285Y-102480533D01*
X152814285Y-102480533D02*
X152861904Y-102623390D01*
X152861904Y-102623390D02*
X153433332Y-103194819D01*
X153433332Y-103194819D02*
X152814285Y-103194819D01*
X149172819Y-100163333D02*
X148696628Y-99830000D01*
X149172819Y-99591905D02*
X148172819Y-99591905D01*
X148172819Y-99591905D02*
X148172819Y-99972857D01*
X148172819Y-99972857D02*
X148220438Y-100068095D01*
X148220438Y-100068095D02*
X148268057Y-100115714D01*
X148268057Y-100115714D02*
X148363295Y-100163333D01*
X148363295Y-100163333D02*
X148506152Y-100163333D01*
X148506152Y-100163333D02*
X148601390Y-100115714D01*
X148601390Y-100115714D02*
X148649009Y-100068095D01*
X148649009Y-100068095D02*
X148696628Y-99972857D01*
X148696628Y-99972857D02*
X148696628Y-99591905D01*
X148268057Y-100544286D02*
X148220438Y-100591905D01*
X148220438Y-100591905D02*
X148172819Y-100687143D01*
X148172819Y-100687143D02*
X148172819Y-100925238D01*
X148172819Y-100925238D02*
X148220438Y-101020476D01*
X148220438Y-101020476D02*
X148268057Y-101068095D01*
X148268057Y-101068095D02*
X148363295Y-101115714D01*
X148363295Y-101115714D02*
X148458533Y-101115714D01*
X148458533Y-101115714D02*
X148601390Y-101068095D01*
X148601390Y-101068095D02*
X149172819Y-100496667D01*
X149172819Y-100496667D02*
X149172819Y-101115714D01*
X145870819Y-100147333D02*
X145394628Y-99814000D01*
X145870819Y-99575905D02*
X144870819Y-99575905D01*
X144870819Y-99575905D02*
X144870819Y-99956857D01*
X144870819Y-99956857D02*
X144918438Y-100052095D01*
X144918438Y-100052095D02*
X144966057Y-100099714D01*
X144966057Y-100099714D02*
X145061295Y-100147333D01*
X145061295Y-100147333D02*
X145204152Y-100147333D01*
X145204152Y-100147333D02*
X145299390Y-100099714D01*
X145299390Y-100099714D02*
X145347009Y-100052095D01*
X145347009Y-100052095D02*
X145394628Y-99956857D01*
X145394628Y-99956857D02*
X145394628Y-99575905D01*
X145870819Y-101099714D02*
X145870819Y-100528286D01*
X145870819Y-100814000D02*
X144870819Y-100814000D01*
X144870819Y-100814000D02*
X145013676Y-100718762D01*
X145013676Y-100718762D02*
X145108914Y-100623524D01*
X145108914Y-100623524D02*
X145156533Y-100528286D01*
X152728819Y-100179333D02*
X152252628Y-99846000D01*
X152728819Y-99607905D02*
X151728819Y-99607905D01*
X151728819Y-99607905D02*
X151728819Y-99988857D01*
X151728819Y-99988857D02*
X151776438Y-100084095D01*
X151776438Y-100084095D02*
X151824057Y-100131714D01*
X151824057Y-100131714D02*
X151919295Y-100179333D01*
X151919295Y-100179333D02*
X152062152Y-100179333D01*
X152062152Y-100179333D02*
X152157390Y-100131714D01*
X152157390Y-100131714D02*
X152205009Y-100084095D01*
X152205009Y-100084095D02*
X152252628Y-99988857D01*
X152252628Y-99988857D02*
X152252628Y-99607905D01*
X151728819Y-100512667D02*
X151728819Y-101131714D01*
X151728819Y-101131714D02*
X152109771Y-100798381D01*
X152109771Y-100798381D02*
X152109771Y-100941238D01*
X152109771Y-100941238D02*
X152157390Y-101036476D01*
X152157390Y-101036476D02*
X152205009Y-101084095D01*
X152205009Y-101084095D02*
X152300247Y-101131714D01*
X152300247Y-101131714D02*
X152538342Y-101131714D01*
X152538342Y-101131714D02*
X152633580Y-101084095D01*
X152633580Y-101084095D02*
X152681200Y-101036476D01*
X152681200Y-101036476D02*
X152728819Y-100941238D01*
X152728819Y-100941238D02*
X152728819Y-100655524D01*
X152728819Y-100655524D02*
X152681200Y-100560286D01*
X152681200Y-100560286D02*
X152633580Y-100512667D01*
D11*
X151103000Y-100102936D02*
X151103000Y-100557064D01*
X149633000Y-100102936D02*
X149633000Y-100557064D01*
X147801000Y-100086936D02*
X147801000Y-100541064D01*
X146331000Y-100086936D02*
X146331000Y-100541064D01*
X154659000Y-100118936D02*
X154659000Y-100573064D01*
X153189000Y-100118936D02*
X153189000Y-100573064D01*
D12*
X161190000Y-92530000D02*
X161200000Y-114160000D01*
X140410000Y-114160000D02*
X140410000Y-92530000D01*
X161200000Y-114160000D02*
X140410000Y-114160000D01*
X140410000Y-92530000D02*
X161190000Y-92530000D01*
M02*
