G04 #@! TF.GenerationSoftware,KiCad,Pcbnew,7.0.5*
G04 #@! TF.CreationDate,2023-06-28T23:38:25-05:00*
G04 #@! TF.ProjectId,RJ45GoButton,524a3435-476f-4427-9574-746f6e2e6b69,rev?*
G04 #@! TF.SameCoordinates,Original*
G04 #@! TF.FileFunction,Copper,L1,Top*
G04 #@! TF.FilePolarity,Positive*
%FSLAX46Y46*%
G04 Gerber Fmt 4.6, Leading zero omitted, Abs format (unit mm)*
G04 Created by KiCad (PCBNEW 7.0.5) date 2023-06-28 23:38:25*
%MOMM*%
%LPD*%
G01*
G04 APERTURE LIST*
G04 Aperture macros list*
%AMRoundRect*
0 Rectangle with rounded corners*
0 $1 Rounding radius*
0 $2 $3 $4 $5 $6 $7 $8 $9 X,Y pos of 4 corners*
0 Add a 4 corners polygon primitive as box body*
4,1,4,$2,$3,$4,$5,$6,$7,$8,$9,$2,$3,0*
0 Add four circle primitives for the rounded corners*
1,1,$1+$1,$2,$3*
1,1,$1+$1,$4,$5*
1,1,$1+$1,$6,$7*
1,1,$1+$1,$8,$9*
0 Add four rect primitives between the rounded corners*
20,1,$1+$1,$2,$3,$4,$5,0*
20,1,$1+$1,$4,$5,$6,$7,0*
20,1,$1+$1,$6,$7,$8,$9,0*
20,1,$1+$1,$8,$9,$2,$3,0*%
G04 Aperture macros list end*
G04 #@! TA.AperFunction,WasherPad*
%ADD10C,3.250000*%
G04 #@! TD*
G04 #@! TA.AperFunction,ComponentPad*
%ADD11R,1.500000X1.500000*%
G04 #@! TD*
G04 #@! TA.AperFunction,ComponentPad*
%ADD12C,1.500000*%
G04 #@! TD*
G04 #@! TA.AperFunction,ComponentPad*
%ADD13O,1.259000X2.362000*%
G04 #@! TD*
G04 #@! TA.AperFunction,ComponentPad*
%ADD14RoundRect,0.250000X0.600000X0.750000X-0.600000X0.750000X-0.600000X-0.750000X0.600000X-0.750000X0*%
G04 #@! TD*
G04 #@! TA.AperFunction,ComponentPad*
%ADD15O,1.700000X2.000000*%
G04 #@! TD*
G04 #@! TA.AperFunction,ViaPad*
%ADD16C,0.800000*%
G04 #@! TD*
G04 #@! TA.AperFunction,Conductor*
%ADD17C,0.250000*%
G04 #@! TD*
G04 #@! TA.AperFunction,Profile*
%ADD18C,0.050000*%
G04 #@! TD*
G04 APERTURE END LIST*
D10*
X144529080Y-108922820D03*
X157229080Y-108922820D03*
D11*
X154428380Y-106382820D03*
D12*
X153408380Y-104602820D03*
X152398380Y-106382820D03*
X151378380Y-104602820D03*
X150368380Y-106382820D03*
X149348380Y-104602820D03*
X148338380Y-106382820D03*
X147318380Y-104602820D03*
D13*
X142749080Y-106020870D03*
X159009080Y-106020870D03*
D14*
X155940000Y-94400000D03*
D15*
X153440000Y-94400000D03*
D14*
X146450000Y-94490000D03*
D15*
X143950000Y-94490000D03*
D16*
X149860000Y-95250000D03*
X159258000Y-112522000D03*
X152146000Y-99568000D03*
X159258000Y-100584000D03*
X151130000Y-112268000D03*
X141732000Y-112268000D03*
X143002000Y-101346000D03*
X152908000Y-97536000D03*
D17*
X151378380Y-104602820D02*
X151378380Y-101918380D01*
X151378380Y-101918380D02*
X143950000Y-94490000D01*
X152908000Y-97432000D02*
X155940000Y-94400000D01*
X152908000Y-97536000D02*
X152908000Y-97432000D01*
G04 #@! TA.AperFunction,Conductor*
G36*
X161107608Y-92575185D02*
G01*
X161153363Y-92627989D01*
X161164569Y-92679443D01*
X161168747Y-101715676D01*
X161172956Y-110821550D01*
X161174431Y-114010443D01*
X161154777Y-114077491D01*
X161101995Y-114123271D01*
X161050431Y-114134500D01*
X140559500Y-114134500D01*
X140492461Y-114114815D01*
X140446706Y-114062011D01*
X140435500Y-114010500D01*
X140435500Y-106624976D01*
X141611080Y-106624976D01*
X141625664Y-106782368D01*
X141625664Y-106782370D01*
X141625665Y-106782373D01*
X141661355Y-106907809D01*
X141683382Y-106985227D01*
X141777388Y-107174016D01*
X141904486Y-107342322D01*
X142060343Y-107484403D01*
X142060345Y-107484405D01*
X142239653Y-107595428D01*
X142239654Y-107595428D01*
X142239657Y-107595430D01*
X142436317Y-107671616D01*
X142580506Y-107698570D01*
X142642785Y-107730237D01*
X142678058Y-107790550D01*
X142675124Y-107860358D01*
X142667817Y-107877506D01*
X142567636Y-108070846D01*
X142469897Y-108345859D01*
X142469892Y-108345878D01*
X142410513Y-108631627D01*
X142410512Y-108631629D01*
X142390595Y-108922820D01*
X142410512Y-109214010D01*
X142410513Y-109214012D01*
X142469892Y-109499761D01*
X142469897Y-109499780D01*
X142567636Y-109774793D01*
X142701917Y-110033943D01*
X142701921Y-110033949D01*
X142870227Y-110272385D01*
X142870231Y-110272389D01*
X142870233Y-110272392D01*
X143069450Y-110485702D01*
X143069455Y-110485706D01*
X143069457Y-110485708D01*
X143295851Y-110669893D01*
X143295854Y-110669895D01*
X143295858Y-110669898D01*
X143426685Y-110749455D01*
X143545239Y-110821550D01*
X143728075Y-110900966D01*
X143812945Y-110937831D01*
X144093992Y-111016577D01*
X144348203Y-111051517D01*
X144383144Y-111056320D01*
X144383145Y-111056320D01*
X144675016Y-111056320D01*
X144706189Y-111052035D01*
X144964168Y-111016577D01*
X145245215Y-110937831D01*
X145512922Y-110821549D01*
X145762302Y-110669898D01*
X145988710Y-110485702D01*
X146187927Y-110272392D01*
X146356243Y-110033942D01*
X146490523Y-109774795D01*
X146588264Y-109499776D01*
X146647647Y-109214010D01*
X146667565Y-108922820D01*
X146647647Y-108631630D01*
X146588264Y-108345864D01*
X146490523Y-108070845D01*
X146356243Y-107811698D01*
X146356242Y-107811696D01*
X146356238Y-107811690D01*
X146187932Y-107573254D01*
X146187928Y-107573250D01*
X146187927Y-107573248D01*
X145988710Y-107359938D01*
X145988703Y-107359933D01*
X145988702Y-107359931D01*
X145762308Y-107175746D01*
X145762297Y-107175739D01*
X145512920Y-107024089D01*
X145245218Y-106907810D01*
X145245216Y-106907809D01*
X145245215Y-106907809D01*
X145165256Y-106885405D01*
X144964173Y-106829064D01*
X144964169Y-106829063D01*
X144964168Y-106829063D01*
X144796532Y-106806022D01*
X144675016Y-106789320D01*
X144675015Y-106789320D01*
X144383145Y-106789320D01*
X144383144Y-106789320D01*
X144093992Y-106829063D01*
X144093977Y-106829066D01*
X144035703Y-106845393D01*
X143965839Y-106844525D01*
X143907535Y-106806022D01*
X143879302Y-106742111D01*
X143878779Y-106714557D01*
X143887080Y-106624979D01*
X143887080Y-105416761D01*
X143872495Y-105259367D01*
X143814779Y-105056516D01*
X143720772Y-104867724D01*
X143593675Y-104699420D01*
X143593673Y-104699417D01*
X143437816Y-104557336D01*
X143437814Y-104557334D01*
X143258506Y-104446311D01*
X143258500Y-104446309D01*
X143061843Y-104370124D01*
X142854531Y-104331370D01*
X142643629Y-104331370D01*
X142436317Y-104370124D01*
X142436314Y-104370124D01*
X142436314Y-104370125D01*
X142239659Y-104446309D01*
X142239653Y-104446311D01*
X142060345Y-104557334D01*
X142060343Y-104557336D01*
X141904486Y-104699417D01*
X141777388Y-104867723D01*
X141683382Y-105056512D01*
X141625664Y-105259371D01*
X141614397Y-105380957D01*
X141611257Y-105414858D01*
X141611080Y-105416763D01*
X141611080Y-106624976D01*
X140435500Y-106624976D01*
X140435500Y-94697730D01*
X142591500Y-94697730D01*
X142606197Y-94870413D01*
X142664469Y-95094206D01*
X142664470Y-95094210D01*
X142759716Y-95304919D01*
X142759723Y-95304931D01*
X142889209Y-95496513D01*
X142889214Y-95496518D01*
X142889217Y-95496523D01*
X143049228Y-95663476D01*
X143235153Y-95800985D01*
X143441643Y-95905095D01*
X143662757Y-95972811D01*
X143892135Y-96002184D01*
X144123178Y-95992369D01*
X144349238Y-95943649D01*
X144386310Y-95928751D01*
X144455853Y-95922021D01*
X144517997Y-95953956D01*
X144520225Y-95956129D01*
X150708561Y-102144465D01*
X150742046Y-102205788D01*
X150744880Y-102232146D01*
X150744880Y-103445506D01*
X150725195Y-103512545D01*
X150692004Y-103547080D01*
X150566341Y-103635071D01*
X150451061Y-103750352D01*
X150389738Y-103783837D01*
X150320046Y-103778853D01*
X150275699Y-103750352D01*
X150160418Y-103635071D01*
X150160409Y-103635065D01*
X149980034Y-103508764D01*
X149844376Y-103445506D01*
X149780461Y-103415702D01*
X149780459Y-103415701D01*
X149780456Y-103415700D01*
X149629157Y-103375159D01*
X149567752Y-103358705D01*
X149567745Y-103358704D01*
X149348382Y-103339513D01*
X149348378Y-103339513D01*
X149129014Y-103358704D01*
X149129007Y-103358705D01*
X148916300Y-103415701D01*
X148716726Y-103508764D01*
X148716722Y-103508766D01*
X148536347Y-103635067D01*
X148536346Y-103635067D01*
X148421061Y-103750352D01*
X148359738Y-103783836D01*
X148290046Y-103778852D01*
X148245699Y-103750352D01*
X148245699Y-103750351D01*
X148130418Y-103635071D01*
X147950034Y-103508764D01*
X147814376Y-103445506D01*
X147750461Y-103415702D01*
X147750459Y-103415701D01*
X147750456Y-103415700D01*
X147599157Y-103375159D01*
X147537752Y-103358705D01*
X147537745Y-103358704D01*
X147318382Y-103339513D01*
X147318378Y-103339513D01*
X147099014Y-103358704D01*
X147099007Y-103358705D01*
X146886300Y-103415701D01*
X146686726Y-103508764D01*
X146686722Y-103508766D01*
X146506347Y-103635067D01*
X146506340Y-103635072D01*
X146350632Y-103790780D01*
X146350627Y-103790787D01*
X146224326Y-103971162D01*
X146224324Y-103971166D01*
X146131261Y-104170740D01*
X146074265Y-104383447D01*
X146074264Y-104383454D01*
X146068765Y-104446311D01*
X146055073Y-104602820D01*
X146074265Y-104822191D01*
X146131260Y-105034896D01*
X146131261Y-105034899D01*
X146131262Y-105034901D01*
X146141341Y-105056516D01*
X146224324Y-105234474D01*
X146350631Y-105414858D01*
X146506342Y-105570569D01*
X146686726Y-105696876D01*
X146886304Y-105789940D01*
X147053941Y-105834858D01*
X147113598Y-105871222D01*
X147144127Y-105934069D01*
X147141619Y-105986726D01*
X147094265Y-106163447D01*
X147094264Y-106163454D01*
X147075073Y-106382817D01*
X147075073Y-106382822D01*
X147094264Y-106602185D01*
X147094265Y-106602192D01*
X147110719Y-106663597D01*
X147151260Y-106814896D01*
X147151261Y-106814899D01*
X147151262Y-106814901D01*
X147230686Y-106985227D01*
X147244324Y-107014474D01*
X147370631Y-107194858D01*
X147526342Y-107350569D01*
X147706726Y-107476876D01*
X147906304Y-107569940D01*
X148119009Y-107626935D01*
X148275702Y-107640643D01*
X148338378Y-107646127D01*
X148338380Y-107646127D01*
X148338382Y-107646127D01*
X148393222Y-107641329D01*
X148557751Y-107626935D01*
X148770456Y-107569940D01*
X148970034Y-107476876D01*
X149150418Y-107350569D01*
X149265698Y-107235287D01*
X149327022Y-107201803D01*
X149396714Y-107206787D01*
X149441061Y-107235288D01*
X149556342Y-107350569D01*
X149736726Y-107476876D01*
X149936304Y-107569940D01*
X150149009Y-107626935D01*
X150305702Y-107640643D01*
X150368378Y-107646127D01*
X150368380Y-107646127D01*
X150368382Y-107646127D01*
X150423222Y-107641329D01*
X150587751Y-107626935D01*
X150800456Y-107569940D01*
X151000034Y-107476876D01*
X151180418Y-107350569D01*
X151295698Y-107235288D01*
X151357022Y-107201803D01*
X151426714Y-107206787D01*
X151471061Y-107235288D01*
X151586342Y-107350569D01*
X151766726Y-107476876D01*
X151966304Y-107569940D01*
X152179009Y-107626935D01*
X152335702Y-107640643D01*
X152398378Y-107646127D01*
X152398380Y-107646127D01*
X152398382Y-107646127D01*
X152453222Y-107641329D01*
X152617751Y-107626935D01*
X152830456Y-107569940D01*
X153030034Y-107476876D01*
X153116207Y-107416536D01*
X153182414Y-107394208D01*
X153250181Y-107411218D01*
X153286599Y-107443799D01*
X153321193Y-107490011D01*
X153436286Y-107576170D01*
X153436293Y-107576174D01*
X153571000Y-107626416D01*
X153571007Y-107626418D01*
X153630535Y-107632819D01*
X153630552Y-107632820D01*
X154178380Y-107632820D01*
X154178380Y-106669773D01*
X154245019Y-106721641D01*
X154364969Y-106762820D01*
X154459866Y-106762820D01*
X154553472Y-106747200D01*
X154665008Y-106686840D01*
X154678380Y-106672314D01*
X154678380Y-107632820D01*
X155226208Y-107632820D01*
X155226219Y-107632819D01*
X155280912Y-107626938D01*
X155349672Y-107639342D01*
X155400810Y-107686951D01*
X155418091Y-107754650D01*
X155402379Y-107807166D01*
X155403866Y-107807937D01*
X155267636Y-108070846D01*
X155169897Y-108345859D01*
X155169892Y-108345878D01*
X155110513Y-108631627D01*
X155110512Y-108631629D01*
X155090595Y-108922820D01*
X155110512Y-109214010D01*
X155110513Y-109214012D01*
X155169892Y-109499761D01*
X155169897Y-109499780D01*
X155267636Y-109774793D01*
X155401917Y-110033943D01*
X155401921Y-110033949D01*
X155570227Y-110272385D01*
X155570231Y-110272389D01*
X155570233Y-110272392D01*
X155769450Y-110485702D01*
X155769455Y-110485706D01*
X155769457Y-110485708D01*
X155995851Y-110669893D01*
X155995854Y-110669895D01*
X155995858Y-110669898D01*
X156126685Y-110749455D01*
X156245239Y-110821550D01*
X156428075Y-110900966D01*
X156512945Y-110937831D01*
X156793992Y-111016577D01*
X157048203Y-111051517D01*
X157083144Y-111056320D01*
X157083145Y-111056320D01*
X157375016Y-111056320D01*
X157406189Y-111052035D01*
X157664168Y-111016577D01*
X157945215Y-110937831D01*
X158212922Y-110821549D01*
X158462302Y-110669898D01*
X158688710Y-110485702D01*
X158887927Y-110272392D01*
X159056243Y-110033942D01*
X159190523Y-109774795D01*
X159288264Y-109499776D01*
X159347647Y-109214010D01*
X159367565Y-108922820D01*
X159347647Y-108631630D01*
X159288264Y-108345864D01*
X159190523Y-108070845D01*
X159090341Y-107877504D01*
X159076977Y-107808927D01*
X159102811Y-107744009D01*
X159159641Y-107703362D01*
X159177643Y-107698571D01*
X159321843Y-107671616D01*
X159518503Y-107595430D01*
X159697816Y-107484404D01*
X159853675Y-107342320D01*
X159980772Y-107174016D01*
X160074779Y-106985224D01*
X160132495Y-106782373D01*
X160147080Y-106624979D01*
X160147080Y-105416761D01*
X160132495Y-105259367D01*
X160074779Y-105056516D01*
X159980772Y-104867724D01*
X159853675Y-104699420D01*
X159853673Y-104699417D01*
X159697816Y-104557336D01*
X159697814Y-104557334D01*
X159518506Y-104446311D01*
X159518500Y-104446309D01*
X159321843Y-104370124D01*
X159114531Y-104331370D01*
X158903629Y-104331370D01*
X158696317Y-104370124D01*
X158696314Y-104370124D01*
X158696314Y-104370125D01*
X158499659Y-104446309D01*
X158499653Y-104446311D01*
X158320345Y-104557334D01*
X158320343Y-104557336D01*
X158164486Y-104699417D01*
X158037388Y-104867723D01*
X157943382Y-105056512D01*
X157885664Y-105259371D01*
X157874397Y-105380957D01*
X157871257Y-105414858D01*
X157871080Y-105416763D01*
X157871080Y-106624976D01*
X157879380Y-106714550D01*
X157865965Y-106783120D01*
X157817608Y-106833551D01*
X157749662Y-106849834D01*
X157722456Y-106845393D01*
X157664182Y-106829066D01*
X157664170Y-106829063D01*
X157664168Y-106829063D01*
X157496532Y-106806022D01*
X157375016Y-106789320D01*
X157375015Y-106789320D01*
X157083145Y-106789320D01*
X157083144Y-106789320D01*
X156793992Y-106829063D01*
X156793986Y-106829064D01*
X156512941Y-106907810D01*
X156245239Y-107024089D01*
X155995862Y-107175739D01*
X155995851Y-107175746D01*
X155880635Y-107269482D01*
X155816209Y-107296520D01*
X155747392Y-107284435D01*
X155696034Y-107237063D01*
X155678380Y-107173294D01*
X155678380Y-106632820D01*
X154714737Y-106632820D01*
X154750902Y-106593534D01*
X154801845Y-106477394D01*
X154812318Y-106351006D01*
X154781185Y-106228065D01*
X154718959Y-106132820D01*
X155678380Y-106132820D01*
X155678380Y-105584992D01*
X155678379Y-105584975D01*
X155671978Y-105525447D01*
X155671976Y-105525440D01*
X155621734Y-105390733D01*
X155621730Y-105390726D01*
X155535570Y-105275632D01*
X155535567Y-105275629D01*
X155420473Y-105189469D01*
X155420466Y-105189465D01*
X155285759Y-105139223D01*
X155285752Y-105139221D01*
X155226224Y-105132820D01*
X154730862Y-105132820D01*
X154663823Y-105113135D01*
X154618068Y-105060331D01*
X154608124Y-104991173D01*
X154611087Y-104976726D01*
X154640294Y-104867724D01*
X154652495Y-104822191D01*
X154671687Y-104602820D01*
X154652495Y-104383449D01*
X154595500Y-104170744D01*
X154502436Y-103971167D01*
X154502434Y-103971164D01*
X154502433Y-103971162D01*
X154423380Y-103858263D01*
X154376129Y-103790782D01*
X154220418Y-103635071D01*
X154040034Y-103508764D01*
X153904376Y-103445506D01*
X153840461Y-103415702D01*
X153840459Y-103415701D01*
X153840456Y-103415700D01*
X153689157Y-103375159D01*
X153627752Y-103358705D01*
X153627745Y-103358704D01*
X153408382Y-103339513D01*
X153408378Y-103339513D01*
X153189014Y-103358704D01*
X153189007Y-103358705D01*
X152976300Y-103415701D01*
X152776726Y-103508764D01*
X152776722Y-103508766D01*
X152596347Y-103635067D01*
X152596346Y-103635067D01*
X152481061Y-103750352D01*
X152419738Y-103783836D01*
X152350046Y-103778852D01*
X152305699Y-103750352D01*
X152190418Y-103635071D01*
X152190413Y-103635068D01*
X152190410Y-103635065D01*
X152064756Y-103547080D01*
X152021131Y-103492503D01*
X152011880Y-103445506D01*
X152011880Y-102002012D01*
X152013619Y-101986260D01*
X152013348Y-101986235D01*
X152014082Y-101978473D01*
X152011911Y-101909375D01*
X152011880Y-101907427D01*
X152011880Y-101878527D01*
X152011880Y-101878524D01*
X152010994Y-101871521D01*
X152010537Y-101865702D01*
X152009054Y-101818491D01*
X152003356Y-101798879D01*
X151999413Y-101779846D01*
X151996854Y-101759583D01*
X151979465Y-101715666D01*
X151977576Y-101710146D01*
X151964398Y-101664787D01*
X151954006Y-101647215D01*
X151945446Y-101629742D01*
X151937932Y-101610763D01*
X151910174Y-101572559D01*
X151906967Y-101567676D01*
X151897253Y-101551251D01*
X151882922Y-101527018D01*
X151868488Y-101512584D01*
X151855851Y-101497789D01*
X151843852Y-101481273D01*
X151843850Y-101481270D01*
X151807453Y-101451161D01*
X151803131Y-101447227D01*
X147891904Y-97536000D01*
X151994496Y-97536000D01*
X152014458Y-97725928D01*
X152014459Y-97725931D01*
X152073470Y-97907549D01*
X152073473Y-97907556D01*
X152168960Y-98072944D01*
X152296747Y-98214866D01*
X152451248Y-98327118D01*
X152625712Y-98404794D01*
X152812513Y-98444500D01*
X153003487Y-98444500D01*
X153190288Y-98404794D01*
X153364752Y-98327118D01*
X153519253Y-98214866D01*
X153647040Y-98072944D01*
X153742527Y-97907556D01*
X153801542Y-97725928D01*
X153821504Y-97536000D01*
X153816120Y-97484783D01*
X153828689Y-97416056D01*
X153851757Y-97384145D01*
X155291084Y-95944817D01*
X155352408Y-95911333D01*
X155378766Y-95908499D01*
X156590537Y-95908499D01*
X156590544Y-95908499D01*
X156694426Y-95897887D01*
X156862738Y-95842115D01*
X157013652Y-95749030D01*
X157139030Y-95623652D01*
X157232115Y-95472738D01*
X157287887Y-95304426D01*
X157298500Y-95200545D01*
X157298499Y-93599456D01*
X157287887Y-93495574D01*
X157232115Y-93327262D01*
X157139030Y-93176348D01*
X157013652Y-93050970D01*
X156862738Y-92957885D01*
X156827930Y-92946351D01*
X156694427Y-92902113D01*
X156590545Y-92891500D01*
X155289462Y-92891500D01*
X155289446Y-92891501D01*
X155185572Y-92902113D01*
X155017264Y-92957884D01*
X155017259Y-92957886D01*
X154866346Y-93050971D01*
X154740970Y-93176347D01*
X154740967Y-93176351D01*
X154649583Y-93324507D01*
X154597635Y-93371232D01*
X154528672Y-93382453D01*
X154464591Y-93354610D01*
X154454531Y-93345218D01*
X154340772Y-93226524D01*
X154154847Y-93089015D01*
X154154846Y-93089014D01*
X154154844Y-93089013D01*
X153948358Y-92984905D01*
X153820888Y-92945867D01*
X153727243Y-92917189D01*
X153727241Y-92917188D01*
X153727242Y-92917188D01*
X153497859Y-92887815D01*
X153266827Y-92897630D01*
X153266821Y-92897630D01*
X153040759Y-92946351D01*
X152826190Y-93032572D01*
X152629270Y-93153820D01*
X152455679Y-93306599D01*
X152455672Y-93306605D01*
X152310404Y-93486517D01*
X152310399Y-93486523D01*
X152197621Y-93688405D01*
X152120582Y-93906446D01*
X152120579Y-93906456D01*
X152081500Y-94134365D01*
X152081500Y-94607730D01*
X152096197Y-94780413D01*
X152154469Y-95004206D01*
X152154470Y-95004210D01*
X152249716Y-95214919D01*
X152249723Y-95214931D01*
X152379209Y-95406513D01*
X152379214Y-95406518D01*
X152379217Y-95406523D01*
X152539228Y-95573476D01*
X152725153Y-95710985D01*
X152931643Y-95815095D01*
X153152757Y-95882811D01*
X153264381Y-95897105D01*
X153328377Y-95925146D01*
X153367055Y-95983334D01*
X153368133Y-96053195D01*
X153336312Y-96107782D01*
X152843669Y-96600425D01*
X152782346Y-96633910D01*
X152781770Y-96634034D01*
X152625713Y-96667205D01*
X152451246Y-96744883D01*
X152296745Y-96857135D01*
X152168959Y-96999057D01*
X152073473Y-97164443D01*
X152073470Y-97164450D01*
X152014459Y-97346068D01*
X152014458Y-97346072D01*
X151994496Y-97536000D01*
X147891904Y-97536000D01*
X146557584Y-96201680D01*
X146524099Y-96140357D01*
X146529083Y-96070665D01*
X146570955Y-96014732D01*
X146636419Y-95990315D01*
X146645265Y-95989999D01*
X147099972Y-95989999D01*
X147099986Y-95989998D01*
X147202697Y-95979505D01*
X147369119Y-95924358D01*
X147369124Y-95924356D01*
X147518345Y-95832315D01*
X147642315Y-95708345D01*
X147734356Y-95559124D01*
X147734358Y-95559119D01*
X147789505Y-95392697D01*
X147789506Y-95392690D01*
X147799999Y-95289986D01*
X147800000Y-95289973D01*
X147800000Y-94740000D01*
X146883686Y-94740000D01*
X146909493Y-94699844D01*
X146950000Y-94561889D01*
X146950000Y-94418111D01*
X146909493Y-94280156D01*
X146883686Y-94240000D01*
X147799999Y-94240000D01*
X147799999Y-93690028D01*
X147799998Y-93690013D01*
X147789505Y-93587302D01*
X147734358Y-93420880D01*
X147734356Y-93420875D01*
X147642315Y-93271654D01*
X147518345Y-93147684D01*
X147369124Y-93055643D01*
X147369119Y-93055641D01*
X147202697Y-93000494D01*
X147202690Y-93000493D01*
X147099986Y-92990000D01*
X146700000Y-92990000D01*
X146700000Y-94054498D01*
X146592315Y-94005320D01*
X146485763Y-93990000D01*
X146414237Y-93990000D01*
X146307685Y-94005320D01*
X146200000Y-94054498D01*
X146200000Y-92990000D01*
X145800028Y-92990000D01*
X145800012Y-92990001D01*
X145697302Y-93000494D01*
X145530880Y-93055641D01*
X145530875Y-93055643D01*
X145381654Y-93147684D01*
X145257683Y-93271655D01*
X145257680Y-93271659D01*
X145165660Y-93420847D01*
X145113712Y-93467572D01*
X145044750Y-93478793D01*
X144980668Y-93450950D01*
X144970599Y-93441550D01*
X144850776Y-93316528D01*
X144850775Y-93316527D01*
X144850772Y-93316524D01*
X144664847Y-93179015D01*
X144664846Y-93179014D01*
X144664844Y-93179013D01*
X144458358Y-93074905D01*
X144320126Y-93032572D01*
X144237243Y-93007189D01*
X144237241Y-93007188D01*
X144237242Y-93007188D01*
X144007859Y-92977815D01*
X143776827Y-92987630D01*
X143776821Y-92987630D01*
X143550759Y-93036351D01*
X143336190Y-93122572D01*
X143139270Y-93243820D01*
X142965679Y-93396599D01*
X142965672Y-93396605D01*
X142820404Y-93576517D01*
X142820399Y-93576523D01*
X142707621Y-93778405D01*
X142630582Y-93996446D01*
X142630579Y-93996456D01*
X142591500Y-94224365D01*
X142591500Y-94697730D01*
X140435500Y-94697730D01*
X140435500Y-92679500D01*
X140455185Y-92612461D01*
X140507989Y-92566706D01*
X140559500Y-92555500D01*
X161040569Y-92555500D01*
X161107608Y-92575185D01*
G37*
G04 #@! TD.AperFunction*
D18*
X161190000Y-92530000D02*
X161200000Y-114160000D01*
X140410000Y-114160000D02*
X140410000Y-92530000D01*
X161200000Y-114160000D02*
X140410000Y-114160000D01*
X140410000Y-92530000D02*
X161190000Y-92530000D01*
M02*
