G04 #@! TF.GenerationSoftware,KiCad,Pcbnew,(5.1.5)-3*
G04 #@! TF.CreationDate,2021-07-17T20:23:40-05:00*
G04 #@! TF.ProjectId,InputBoardSTM32,496e7075-7442-46f6-9172-6453544d3332,rev?*
G04 #@! TF.SameCoordinates,Original*
G04 #@! TF.FileFunction,Copper,L1,Top*
G04 #@! TF.FilePolarity,Positive*
%FSLAX46Y46*%
G04 Gerber Fmt 4.6, Leading zero omitted, Abs format (unit mm)*
G04 Created by KiCad (PCBNEW (5.1.5)-3) date 2021-07-17 20:23:40*
%MOMM*%
%LPD*%
G04 APERTURE LIST*
%ADD10C,0.050000*%
%ADD11O,1.700000X1.700000*%
%ADD12R,1.700000X1.700000*%
%ADD13C,0.100000*%
%ADD14R,0.740000X2.400000*%
%ADD15O,1.259000X2.362000*%
%ADD16R,1.500000X1.500000*%
%ADD17C,1.500000*%
%ADD18C,3.250000*%
%ADD19R,0.450000X1.450000*%
%ADD20C,0.800000*%
%ADD21C,0.250000*%
%ADD22C,0.254000*%
G04 APERTURE END LIST*
D10*
X171279873Y-85389743D02*
G75*
G02X172239940Y-86360000I-5095J-965162D01*
G01*
X132588000Y-86296602D02*
G75*
G02X133489685Y-85389720I901685J5182D01*
G01*
X132588000Y-110680500D02*
X132588000Y-86296602D01*
X136652000Y-114744500D02*
G75*
G02X132588000Y-110680500I0J4064000D01*
G01*
X168153080Y-114744500D02*
X136652000Y-114744500D01*
X172239940Y-86360000D02*
X172250164Y-110667800D01*
X172250164Y-110670340D02*
G75*
G02X168153080Y-114744500I-4074224J0D01*
G01*
X171279820Y-85389720D02*
X133489685Y-85389720D01*
D11*
X168569640Y-95250000D03*
X166029640Y-95250000D03*
X163489640Y-95250000D03*
D12*
X160949640Y-95250000D03*
D11*
X168569640Y-97790000D03*
X166029640Y-97790000D03*
X163489640Y-97790000D03*
D12*
X160949640Y-97790000D03*
D11*
X168569640Y-92710000D03*
X166029640Y-92710000D03*
X163489640Y-92710000D03*
D12*
X160949640Y-92710000D03*
X160949640Y-90170000D03*
D11*
X163489640Y-90170000D03*
X166029640Y-90170000D03*
X168569640Y-90170000D03*
X168569640Y-102870000D03*
X166029640Y-102870000D03*
X163489640Y-102870000D03*
D12*
X160949640Y-102870000D03*
X160949640Y-105410000D03*
D11*
X163489640Y-105410000D03*
X166029640Y-105410000D03*
X168569640Y-105410000D03*
G04 #@! TA.AperFunction,SMDPad,CuDef*
D13*
G36*
X150627445Y-96232684D02*
G01*
X150651713Y-96236284D01*
X150675512Y-96242245D01*
X150698611Y-96250510D01*
X150720790Y-96261000D01*
X150741833Y-96273612D01*
X150761539Y-96288227D01*
X150779717Y-96304703D01*
X150796193Y-96322881D01*
X150810808Y-96342587D01*
X150823420Y-96363630D01*
X150833910Y-96385809D01*
X150842175Y-96408908D01*
X150848136Y-96432707D01*
X150851736Y-96456975D01*
X150852940Y-96481479D01*
X150852940Y-97381481D01*
X150851736Y-97405985D01*
X150848136Y-97430253D01*
X150842175Y-97454052D01*
X150833910Y-97477151D01*
X150823420Y-97499330D01*
X150810808Y-97520373D01*
X150796193Y-97540079D01*
X150779717Y-97558257D01*
X150761539Y-97574733D01*
X150741833Y-97589348D01*
X150720790Y-97601960D01*
X150698611Y-97612450D01*
X150675512Y-97620715D01*
X150651713Y-97626676D01*
X150627445Y-97630276D01*
X150602941Y-97631480D01*
X149952939Y-97631480D01*
X149928435Y-97630276D01*
X149904167Y-97626676D01*
X149880368Y-97620715D01*
X149857269Y-97612450D01*
X149835090Y-97601960D01*
X149814047Y-97589348D01*
X149794341Y-97574733D01*
X149776163Y-97558257D01*
X149759687Y-97540079D01*
X149745072Y-97520373D01*
X149732460Y-97499330D01*
X149721970Y-97477151D01*
X149713705Y-97454052D01*
X149707744Y-97430253D01*
X149704144Y-97405985D01*
X149702940Y-97381481D01*
X149702940Y-96481479D01*
X149704144Y-96456975D01*
X149707744Y-96432707D01*
X149713705Y-96408908D01*
X149721970Y-96385809D01*
X149732460Y-96363630D01*
X149745072Y-96342587D01*
X149759687Y-96322881D01*
X149776163Y-96304703D01*
X149794341Y-96288227D01*
X149814047Y-96273612D01*
X149835090Y-96261000D01*
X149857269Y-96250510D01*
X149880368Y-96242245D01*
X149904167Y-96236284D01*
X149928435Y-96232684D01*
X149952939Y-96231480D01*
X150602941Y-96231480D01*
X150627445Y-96232684D01*
G37*
G04 #@! TD.AperFunction*
G04 #@! TA.AperFunction,SMDPad,CuDef*
G36*
X148577445Y-96232684D02*
G01*
X148601713Y-96236284D01*
X148625512Y-96242245D01*
X148648611Y-96250510D01*
X148670790Y-96261000D01*
X148691833Y-96273612D01*
X148711539Y-96288227D01*
X148729717Y-96304703D01*
X148746193Y-96322881D01*
X148760808Y-96342587D01*
X148773420Y-96363630D01*
X148783910Y-96385809D01*
X148792175Y-96408908D01*
X148798136Y-96432707D01*
X148801736Y-96456975D01*
X148802940Y-96481479D01*
X148802940Y-97381481D01*
X148801736Y-97405985D01*
X148798136Y-97430253D01*
X148792175Y-97454052D01*
X148783910Y-97477151D01*
X148773420Y-97499330D01*
X148760808Y-97520373D01*
X148746193Y-97540079D01*
X148729717Y-97558257D01*
X148711539Y-97574733D01*
X148691833Y-97589348D01*
X148670790Y-97601960D01*
X148648611Y-97612450D01*
X148625512Y-97620715D01*
X148601713Y-97626676D01*
X148577445Y-97630276D01*
X148552941Y-97631480D01*
X147902939Y-97631480D01*
X147878435Y-97630276D01*
X147854167Y-97626676D01*
X147830368Y-97620715D01*
X147807269Y-97612450D01*
X147785090Y-97601960D01*
X147764047Y-97589348D01*
X147744341Y-97574733D01*
X147726163Y-97558257D01*
X147709687Y-97540079D01*
X147695072Y-97520373D01*
X147682460Y-97499330D01*
X147671970Y-97477151D01*
X147663705Y-97454052D01*
X147657744Y-97430253D01*
X147654144Y-97405985D01*
X147652940Y-97381481D01*
X147652940Y-96481479D01*
X147654144Y-96456975D01*
X147657744Y-96432707D01*
X147663705Y-96408908D01*
X147671970Y-96385809D01*
X147682460Y-96363630D01*
X147695072Y-96342587D01*
X147709687Y-96322881D01*
X147726163Y-96304703D01*
X147744341Y-96288227D01*
X147764047Y-96273612D01*
X147785090Y-96261000D01*
X147807269Y-96250510D01*
X147830368Y-96242245D01*
X147854167Y-96236284D01*
X147878435Y-96232684D01*
X147902939Y-96231480D01*
X148552941Y-96231480D01*
X148577445Y-96232684D01*
G37*
G04 #@! TD.AperFunction*
G04 #@! TA.AperFunction,SMDPad,CuDef*
G36*
X152755745Y-96237764D02*
G01*
X152780013Y-96241364D01*
X152803812Y-96247325D01*
X152826911Y-96255590D01*
X152849090Y-96266080D01*
X152870133Y-96278692D01*
X152889839Y-96293307D01*
X152908017Y-96309783D01*
X152924493Y-96327961D01*
X152939108Y-96347667D01*
X152951720Y-96368710D01*
X152962210Y-96390889D01*
X152970475Y-96413988D01*
X152976436Y-96437787D01*
X152980036Y-96462055D01*
X152981240Y-96486559D01*
X152981240Y-97386561D01*
X152980036Y-97411065D01*
X152976436Y-97435333D01*
X152970475Y-97459132D01*
X152962210Y-97482231D01*
X152951720Y-97504410D01*
X152939108Y-97525453D01*
X152924493Y-97545159D01*
X152908017Y-97563337D01*
X152889839Y-97579813D01*
X152870133Y-97594428D01*
X152849090Y-97607040D01*
X152826911Y-97617530D01*
X152803812Y-97625795D01*
X152780013Y-97631756D01*
X152755745Y-97635356D01*
X152731241Y-97636560D01*
X152081239Y-97636560D01*
X152056735Y-97635356D01*
X152032467Y-97631756D01*
X152008668Y-97625795D01*
X151985569Y-97617530D01*
X151963390Y-97607040D01*
X151942347Y-97594428D01*
X151922641Y-97579813D01*
X151904463Y-97563337D01*
X151887987Y-97545159D01*
X151873372Y-97525453D01*
X151860760Y-97504410D01*
X151850270Y-97482231D01*
X151842005Y-97459132D01*
X151836044Y-97435333D01*
X151832444Y-97411065D01*
X151831240Y-97386561D01*
X151831240Y-96486559D01*
X151832444Y-96462055D01*
X151836044Y-96437787D01*
X151842005Y-96413988D01*
X151850270Y-96390889D01*
X151860760Y-96368710D01*
X151873372Y-96347667D01*
X151887987Y-96327961D01*
X151904463Y-96309783D01*
X151922641Y-96293307D01*
X151942347Y-96278692D01*
X151963390Y-96266080D01*
X151985569Y-96255590D01*
X152008668Y-96247325D01*
X152032467Y-96241364D01*
X152056735Y-96237764D01*
X152081239Y-96236560D01*
X152731241Y-96236560D01*
X152755745Y-96237764D01*
G37*
G04 #@! TD.AperFunction*
G04 #@! TA.AperFunction,SMDPad,CuDef*
G36*
X154805745Y-96237764D02*
G01*
X154830013Y-96241364D01*
X154853812Y-96247325D01*
X154876911Y-96255590D01*
X154899090Y-96266080D01*
X154920133Y-96278692D01*
X154939839Y-96293307D01*
X154958017Y-96309783D01*
X154974493Y-96327961D01*
X154989108Y-96347667D01*
X155001720Y-96368710D01*
X155012210Y-96390889D01*
X155020475Y-96413988D01*
X155026436Y-96437787D01*
X155030036Y-96462055D01*
X155031240Y-96486559D01*
X155031240Y-97386561D01*
X155030036Y-97411065D01*
X155026436Y-97435333D01*
X155020475Y-97459132D01*
X155012210Y-97482231D01*
X155001720Y-97504410D01*
X154989108Y-97525453D01*
X154974493Y-97545159D01*
X154958017Y-97563337D01*
X154939839Y-97579813D01*
X154920133Y-97594428D01*
X154899090Y-97607040D01*
X154876911Y-97617530D01*
X154853812Y-97625795D01*
X154830013Y-97631756D01*
X154805745Y-97635356D01*
X154781241Y-97636560D01*
X154131239Y-97636560D01*
X154106735Y-97635356D01*
X154082467Y-97631756D01*
X154058668Y-97625795D01*
X154035569Y-97617530D01*
X154013390Y-97607040D01*
X153992347Y-97594428D01*
X153972641Y-97579813D01*
X153954463Y-97563337D01*
X153937987Y-97545159D01*
X153923372Y-97525453D01*
X153910760Y-97504410D01*
X153900270Y-97482231D01*
X153892005Y-97459132D01*
X153886044Y-97435333D01*
X153882444Y-97411065D01*
X153881240Y-97386561D01*
X153881240Y-96486559D01*
X153882444Y-96462055D01*
X153886044Y-96437787D01*
X153892005Y-96413988D01*
X153900270Y-96390889D01*
X153910760Y-96368710D01*
X153923372Y-96347667D01*
X153937987Y-96327961D01*
X153954463Y-96309783D01*
X153972641Y-96293307D01*
X153992347Y-96278692D01*
X154013390Y-96266080D01*
X154035569Y-96255590D01*
X154058668Y-96247325D01*
X154082467Y-96241364D01*
X154106735Y-96237764D01*
X154131239Y-96236560D01*
X154781241Y-96236560D01*
X154805745Y-96237764D01*
G37*
G04 #@! TD.AperFunction*
G04 #@! TA.AperFunction,SMDPad,CuDef*
G36*
X146691744Y-91624424D02*
G01*
X146716013Y-91628024D01*
X146739811Y-91633985D01*
X146762911Y-91642250D01*
X146785089Y-91652740D01*
X146806133Y-91665353D01*
X146825838Y-91679967D01*
X146844017Y-91696443D01*
X146860493Y-91714622D01*
X146875107Y-91734327D01*
X146887720Y-91755371D01*
X146898210Y-91777549D01*
X146906475Y-91800649D01*
X146912436Y-91824447D01*
X146916036Y-91848716D01*
X146917240Y-91873220D01*
X146917240Y-92373220D01*
X146916036Y-92397724D01*
X146912436Y-92421993D01*
X146906475Y-92445791D01*
X146898210Y-92468891D01*
X146887720Y-92491069D01*
X146875107Y-92512113D01*
X146860493Y-92531818D01*
X146844017Y-92549997D01*
X146825838Y-92566473D01*
X146806133Y-92581087D01*
X146785089Y-92593700D01*
X146762911Y-92604190D01*
X146739811Y-92612455D01*
X146716013Y-92618416D01*
X146691744Y-92622016D01*
X146667240Y-92623220D01*
X145717240Y-92623220D01*
X145692736Y-92622016D01*
X145668467Y-92618416D01*
X145644669Y-92612455D01*
X145621569Y-92604190D01*
X145599391Y-92593700D01*
X145578347Y-92581087D01*
X145558642Y-92566473D01*
X145540463Y-92549997D01*
X145523987Y-92531818D01*
X145509373Y-92512113D01*
X145496760Y-92491069D01*
X145486270Y-92468891D01*
X145478005Y-92445791D01*
X145472044Y-92421993D01*
X145468444Y-92397724D01*
X145467240Y-92373220D01*
X145467240Y-91873220D01*
X145468444Y-91848716D01*
X145472044Y-91824447D01*
X145478005Y-91800649D01*
X145486270Y-91777549D01*
X145496760Y-91755371D01*
X145509373Y-91734327D01*
X145523987Y-91714622D01*
X145540463Y-91696443D01*
X145558642Y-91679967D01*
X145578347Y-91665353D01*
X145599391Y-91652740D01*
X145621569Y-91642250D01*
X145644669Y-91633985D01*
X145668467Y-91628024D01*
X145692736Y-91624424D01*
X145717240Y-91623220D01*
X146667240Y-91623220D01*
X146691744Y-91624424D01*
G37*
G04 #@! TD.AperFunction*
G04 #@! TA.AperFunction,SMDPad,CuDef*
G36*
X146691744Y-93524424D02*
G01*
X146716013Y-93528024D01*
X146739811Y-93533985D01*
X146762911Y-93542250D01*
X146785089Y-93552740D01*
X146806133Y-93565353D01*
X146825838Y-93579967D01*
X146844017Y-93596443D01*
X146860493Y-93614622D01*
X146875107Y-93634327D01*
X146887720Y-93655371D01*
X146898210Y-93677549D01*
X146906475Y-93700649D01*
X146912436Y-93724447D01*
X146916036Y-93748716D01*
X146917240Y-93773220D01*
X146917240Y-94273220D01*
X146916036Y-94297724D01*
X146912436Y-94321993D01*
X146906475Y-94345791D01*
X146898210Y-94368891D01*
X146887720Y-94391069D01*
X146875107Y-94412113D01*
X146860493Y-94431818D01*
X146844017Y-94449997D01*
X146825838Y-94466473D01*
X146806133Y-94481087D01*
X146785089Y-94493700D01*
X146762911Y-94504190D01*
X146739811Y-94512455D01*
X146716013Y-94518416D01*
X146691744Y-94522016D01*
X146667240Y-94523220D01*
X145717240Y-94523220D01*
X145692736Y-94522016D01*
X145668467Y-94518416D01*
X145644669Y-94512455D01*
X145621569Y-94504190D01*
X145599391Y-94493700D01*
X145578347Y-94481087D01*
X145558642Y-94466473D01*
X145540463Y-94449997D01*
X145523987Y-94431818D01*
X145509373Y-94412113D01*
X145496760Y-94391069D01*
X145486270Y-94368891D01*
X145478005Y-94345791D01*
X145472044Y-94321993D01*
X145468444Y-94297724D01*
X145467240Y-94273220D01*
X145467240Y-93773220D01*
X145468444Y-93748716D01*
X145472044Y-93724447D01*
X145478005Y-93700649D01*
X145486270Y-93677549D01*
X145496760Y-93655371D01*
X145509373Y-93634327D01*
X145523987Y-93614622D01*
X145540463Y-93596443D01*
X145558642Y-93579967D01*
X145578347Y-93565353D01*
X145599391Y-93552740D01*
X145621569Y-93542250D01*
X145644669Y-93533985D01*
X145668467Y-93528024D01*
X145692736Y-93524424D01*
X145717240Y-93523220D01*
X146667240Y-93523220D01*
X146691744Y-93524424D01*
G37*
G04 #@! TD.AperFunction*
G04 #@! TA.AperFunction,SMDPad,CuDef*
G36*
X148985364Y-91545684D02*
G01*
X149009633Y-91549284D01*
X149033431Y-91555245D01*
X149056531Y-91563510D01*
X149078709Y-91574000D01*
X149099753Y-91586613D01*
X149119458Y-91601227D01*
X149137637Y-91617703D01*
X149154113Y-91635882D01*
X149168727Y-91655587D01*
X149181340Y-91676631D01*
X149191830Y-91698809D01*
X149200095Y-91721909D01*
X149206056Y-91745707D01*
X149209656Y-91769976D01*
X149210860Y-91794480D01*
X149210860Y-92294480D01*
X149209656Y-92318984D01*
X149206056Y-92343253D01*
X149200095Y-92367051D01*
X149191830Y-92390151D01*
X149181340Y-92412329D01*
X149168727Y-92433373D01*
X149154113Y-92453078D01*
X149137637Y-92471257D01*
X149119458Y-92487733D01*
X149099753Y-92502347D01*
X149078709Y-92514960D01*
X149056531Y-92525450D01*
X149033431Y-92533715D01*
X149009633Y-92539676D01*
X148985364Y-92543276D01*
X148960860Y-92544480D01*
X148010860Y-92544480D01*
X147986356Y-92543276D01*
X147962087Y-92539676D01*
X147938289Y-92533715D01*
X147915189Y-92525450D01*
X147893011Y-92514960D01*
X147871967Y-92502347D01*
X147852262Y-92487733D01*
X147834083Y-92471257D01*
X147817607Y-92453078D01*
X147802993Y-92433373D01*
X147790380Y-92412329D01*
X147779890Y-92390151D01*
X147771625Y-92367051D01*
X147765664Y-92343253D01*
X147762064Y-92318984D01*
X147760860Y-92294480D01*
X147760860Y-91794480D01*
X147762064Y-91769976D01*
X147765664Y-91745707D01*
X147771625Y-91721909D01*
X147779890Y-91698809D01*
X147790380Y-91676631D01*
X147802993Y-91655587D01*
X147817607Y-91635882D01*
X147834083Y-91617703D01*
X147852262Y-91601227D01*
X147871967Y-91586613D01*
X147893011Y-91574000D01*
X147915189Y-91563510D01*
X147938289Y-91555245D01*
X147962087Y-91549284D01*
X147986356Y-91545684D01*
X148010860Y-91544480D01*
X148960860Y-91544480D01*
X148985364Y-91545684D01*
G37*
G04 #@! TD.AperFunction*
G04 #@! TA.AperFunction,SMDPad,CuDef*
G36*
X148985364Y-93445684D02*
G01*
X149009633Y-93449284D01*
X149033431Y-93455245D01*
X149056531Y-93463510D01*
X149078709Y-93474000D01*
X149099753Y-93486613D01*
X149119458Y-93501227D01*
X149137637Y-93517703D01*
X149154113Y-93535882D01*
X149168727Y-93555587D01*
X149181340Y-93576631D01*
X149191830Y-93598809D01*
X149200095Y-93621909D01*
X149206056Y-93645707D01*
X149209656Y-93669976D01*
X149210860Y-93694480D01*
X149210860Y-94194480D01*
X149209656Y-94218984D01*
X149206056Y-94243253D01*
X149200095Y-94267051D01*
X149191830Y-94290151D01*
X149181340Y-94312329D01*
X149168727Y-94333373D01*
X149154113Y-94353078D01*
X149137637Y-94371257D01*
X149119458Y-94387733D01*
X149099753Y-94402347D01*
X149078709Y-94414960D01*
X149056531Y-94425450D01*
X149033431Y-94433715D01*
X149009633Y-94439676D01*
X148985364Y-94443276D01*
X148960860Y-94444480D01*
X148010860Y-94444480D01*
X147986356Y-94443276D01*
X147962087Y-94439676D01*
X147938289Y-94433715D01*
X147915189Y-94425450D01*
X147893011Y-94414960D01*
X147871967Y-94402347D01*
X147852262Y-94387733D01*
X147834083Y-94371257D01*
X147817607Y-94353078D01*
X147802993Y-94333373D01*
X147790380Y-94312329D01*
X147779890Y-94290151D01*
X147771625Y-94267051D01*
X147765664Y-94243253D01*
X147762064Y-94218984D01*
X147760860Y-94194480D01*
X147760860Y-93694480D01*
X147762064Y-93669976D01*
X147765664Y-93645707D01*
X147771625Y-93621909D01*
X147779890Y-93598809D01*
X147790380Y-93576631D01*
X147802993Y-93555587D01*
X147817607Y-93535882D01*
X147834083Y-93517703D01*
X147852262Y-93501227D01*
X147871967Y-93486613D01*
X147893011Y-93474000D01*
X147915189Y-93463510D01*
X147938289Y-93455245D01*
X147962087Y-93449284D01*
X147986356Y-93445684D01*
X148010860Y-93444480D01*
X148960860Y-93444480D01*
X148985364Y-93445684D01*
G37*
G04 #@! TD.AperFunction*
G04 #@! TA.AperFunction,SMDPad,CuDef*
G36*
X148010004Y-86940664D02*
G01*
X148034273Y-86944264D01*
X148058071Y-86950225D01*
X148081171Y-86958490D01*
X148103349Y-86968980D01*
X148124393Y-86981593D01*
X148144098Y-86996207D01*
X148162277Y-87012683D01*
X148178753Y-87030862D01*
X148193367Y-87050567D01*
X148205980Y-87071611D01*
X148216470Y-87093789D01*
X148224735Y-87116889D01*
X148230696Y-87140687D01*
X148234296Y-87164956D01*
X148235500Y-87189460D01*
X148235500Y-87689460D01*
X148234296Y-87713964D01*
X148230696Y-87738233D01*
X148224735Y-87762031D01*
X148216470Y-87785131D01*
X148205980Y-87807309D01*
X148193367Y-87828353D01*
X148178753Y-87848058D01*
X148162277Y-87866237D01*
X148144098Y-87882713D01*
X148124393Y-87897327D01*
X148103349Y-87909940D01*
X148081171Y-87920430D01*
X148058071Y-87928695D01*
X148034273Y-87934656D01*
X148010004Y-87938256D01*
X147985500Y-87939460D01*
X147035500Y-87939460D01*
X147010996Y-87938256D01*
X146986727Y-87934656D01*
X146962929Y-87928695D01*
X146939829Y-87920430D01*
X146917651Y-87909940D01*
X146896607Y-87897327D01*
X146876902Y-87882713D01*
X146858723Y-87866237D01*
X146842247Y-87848058D01*
X146827633Y-87828353D01*
X146815020Y-87807309D01*
X146804530Y-87785131D01*
X146796265Y-87762031D01*
X146790304Y-87738233D01*
X146786704Y-87713964D01*
X146785500Y-87689460D01*
X146785500Y-87189460D01*
X146786704Y-87164956D01*
X146790304Y-87140687D01*
X146796265Y-87116889D01*
X146804530Y-87093789D01*
X146815020Y-87071611D01*
X146827633Y-87050567D01*
X146842247Y-87030862D01*
X146858723Y-87012683D01*
X146876902Y-86996207D01*
X146896607Y-86981593D01*
X146917651Y-86968980D01*
X146939829Y-86958490D01*
X146962929Y-86950225D01*
X146986727Y-86944264D01*
X147010996Y-86940664D01*
X147035500Y-86939460D01*
X147985500Y-86939460D01*
X148010004Y-86940664D01*
G37*
G04 #@! TD.AperFunction*
G04 #@! TA.AperFunction,SMDPad,CuDef*
G36*
X148010004Y-88840664D02*
G01*
X148034273Y-88844264D01*
X148058071Y-88850225D01*
X148081171Y-88858490D01*
X148103349Y-88868980D01*
X148124393Y-88881593D01*
X148144098Y-88896207D01*
X148162277Y-88912683D01*
X148178753Y-88930862D01*
X148193367Y-88950567D01*
X148205980Y-88971611D01*
X148216470Y-88993789D01*
X148224735Y-89016889D01*
X148230696Y-89040687D01*
X148234296Y-89064956D01*
X148235500Y-89089460D01*
X148235500Y-89589460D01*
X148234296Y-89613964D01*
X148230696Y-89638233D01*
X148224735Y-89662031D01*
X148216470Y-89685131D01*
X148205980Y-89707309D01*
X148193367Y-89728353D01*
X148178753Y-89748058D01*
X148162277Y-89766237D01*
X148144098Y-89782713D01*
X148124393Y-89797327D01*
X148103349Y-89809940D01*
X148081171Y-89820430D01*
X148058071Y-89828695D01*
X148034273Y-89834656D01*
X148010004Y-89838256D01*
X147985500Y-89839460D01*
X147035500Y-89839460D01*
X147010996Y-89838256D01*
X146986727Y-89834656D01*
X146962929Y-89828695D01*
X146939829Y-89820430D01*
X146917651Y-89809940D01*
X146896607Y-89797327D01*
X146876902Y-89782713D01*
X146858723Y-89766237D01*
X146842247Y-89748058D01*
X146827633Y-89728353D01*
X146815020Y-89707309D01*
X146804530Y-89685131D01*
X146796265Y-89662031D01*
X146790304Y-89638233D01*
X146786704Y-89613964D01*
X146785500Y-89589460D01*
X146785500Y-89089460D01*
X146786704Y-89064956D01*
X146790304Y-89040687D01*
X146796265Y-89016889D01*
X146804530Y-88993789D01*
X146815020Y-88971611D01*
X146827633Y-88950567D01*
X146842247Y-88930862D01*
X146858723Y-88912683D01*
X146876902Y-88896207D01*
X146896607Y-88881593D01*
X146917651Y-88868980D01*
X146939829Y-88858490D01*
X146962929Y-88850225D01*
X146986727Y-88844264D01*
X147010996Y-88840664D01*
X147035500Y-88839460D01*
X147985500Y-88839460D01*
X148010004Y-88840664D01*
G37*
G04 #@! TD.AperFunction*
D14*
X141724380Y-88992160D03*
X141724380Y-92892160D03*
X140454380Y-88992160D03*
X140454380Y-92892160D03*
X139184380Y-88992160D03*
X139184380Y-92892160D03*
X137914380Y-88992160D03*
X137914380Y-92892160D03*
X136644380Y-88992160D03*
X136644380Y-92892160D03*
G04 #@! TA.AperFunction,SMDPad,CuDef*
D13*
G36*
X135570703Y-99458322D02*
G01*
X135585264Y-99460482D01*
X135599543Y-99464059D01*
X135613403Y-99469018D01*
X135626710Y-99475312D01*
X135639336Y-99482880D01*
X135651159Y-99491648D01*
X135662066Y-99501534D01*
X135671952Y-99512441D01*
X135680720Y-99524264D01*
X135688288Y-99536890D01*
X135694582Y-99550197D01*
X135699541Y-99564057D01*
X135703118Y-99578336D01*
X135705278Y-99592897D01*
X135706000Y-99607600D01*
X135706000Y-100857600D01*
X135705278Y-100872303D01*
X135703118Y-100886864D01*
X135699541Y-100901143D01*
X135694582Y-100915003D01*
X135688288Y-100928310D01*
X135680720Y-100940936D01*
X135671952Y-100952759D01*
X135662066Y-100963666D01*
X135651159Y-100973552D01*
X135639336Y-100982320D01*
X135626710Y-100989888D01*
X135613403Y-100996182D01*
X135599543Y-101001141D01*
X135585264Y-101004718D01*
X135570703Y-101006878D01*
X135556000Y-101007600D01*
X135256000Y-101007600D01*
X135241297Y-101006878D01*
X135226736Y-101004718D01*
X135212457Y-101001141D01*
X135198597Y-100996182D01*
X135185290Y-100989888D01*
X135172664Y-100982320D01*
X135160841Y-100973552D01*
X135149934Y-100963666D01*
X135140048Y-100952759D01*
X135131280Y-100940936D01*
X135123712Y-100928310D01*
X135117418Y-100915003D01*
X135112459Y-100901143D01*
X135108882Y-100886864D01*
X135106722Y-100872303D01*
X135106000Y-100857600D01*
X135106000Y-99607600D01*
X135106722Y-99592897D01*
X135108882Y-99578336D01*
X135112459Y-99564057D01*
X135117418Y-99550197D01*
X135123712Y-99536890D01*
X135131280Y-99524264D01*
X135140048Y-99512441D01*
X135149934Y-99501534D01*
X135160841Y-99491648D01*
X135172664Y-99482880D01*
X135185290Y-99475312D01*
X135198597Y-99469018D01*
X135212457Y-99464059D01*
X135226736Y-99460482D01*
X135241297Y-99458322D01*
X135256000Y-99457600D01*
X135556000Y-99457600D01*
X135570703Y-99458322D01*
G37*
G04 #@! TD.AperFunction*
G04 #@! TA.AperFunction,SMDPad,CuDef*
G36*
X136570703Y-99458322D02*
G01*
X136585264Y-99460482D01*
X136599543Y-99464059D01*
X136613403Y-99469018D01*
X136626710Y-99475312D01*
X136639336Y-99482880D01*
X136651159Y-99491648D01*
X136662066Y-99501534D01*
X136671952Y-99512441D01*
X136680720Y-99524264D01*
X136688288Y-99536890D01*
X136694582Y-99550197D01*
X136699541Y-99564057D01*
X136703118Y-99578336D01*
X136705278Y-99592897D01*
X136706000Y-99607600D01*
X136706000Y-100857600D01*
X136705278Y-100872303D01*
X136703118Y-100886864D01*
X136699541Y-100901143D01*
X136694582Y-100915003D01*
X136688288Y-100928310D01*
X136680720Y-100940936D01*
X136671952Y-100952759D01*
X136662066Y-100963666D01*
X136651159Y-100973552D01*
X136639336Y-100982320D01*
X136626710Y-100989888D01*
X136613403Y-100996182D01*
X136599543Y-101001141D01*
X136585264Y-101004718D01*
X136570703Y-101006878D01*
X136556000Y-101007600D01*
X136256000Y-101007600D01*
X136241297Y-101006878D01*
X136226736Y-101004718D01*
X136212457Y-101001141D01*
X136198597Y-100996182D01*
X136185290Y-100989888D01*
X136172664Y-100982320D01*
X136160841Y-100973552D01*
X136149934Y-100963666D01*
X136140048Y-100952759D01*
X136131280Y-100940936D01*
X136123712Y-100928310D01*
X136117418Y-100915003D01*
X136112459Y-100901143D01*
X136108882Y-100886864D01*
X136106722Y-100872303D01*
X136106000Y-100857600D01*
X136106000Y-99607600D01*
X136106722Y-99592897D01*
X136108882Y-99578336D01*
X136112459Y-99564057D01*
X136117418Y-99550197D01*
X136123712Y-99536890D01*
X136131280Y-99524264D01*
X136140048Y-99512441D01*
X136149934Y-99501534D01*
X136160841Y-99491648D01*
X136172664Y-99482880D01*
X136185290Y-99475312D01*
X136198597Y-99469018D01*
X136212457Y-99464059D01*
X136226736Y-99460482D01*
X136241297Y-99458322D01*
X136256000Y-99457600D01*
X136556000Y-99457600D01*
X136570703Y-99458322D01*
G37*
G04 #@! TD.AperFunction*
G04 #@! TA.AperFunction,SMDPad,CuDef*
G36*
X137570703Y-99458322D02*
G01*
X137585264Y-99460482D01*
X137599543Y-99464059D01*
X137613403Y-99469018D01*
X137626710Y-99475312D01*
X137639336Y-99482880D01*
X137651159Y-99491648D01*
X137662066Y-99501534D01*
X137671952Y-99512441D01*
X137680720Y-99524264D01*
X137688288Y-99536890D01*
X137694582Y-99550197D01*
X137699541Y-99564057D01*
X137703118Y-99578336D01*
X137705278Y-99592897D01*
X137706000Y-99607600D01*
X137706000Y-100857600D01*
X137705278Y-100872303D01*
X137703118Y-100886864D01*
X137699541Y-100901143D01*
X137694582Y-100915003D01*
X137688288Y-100928310D01*
X137680720Y-100940936D01*
X137671952Y-100952759D01*
X137662066Y-100963666D01*
X137651159Y-100973552D01*
X137639336Y-100982320D01*
X137626710Y-100989888D01*
X137613403Y-100996182D01*
X137599543Y-101001141D01*
X137585264Y-101004718D01*
X137570703Y-101006878D01*
X137556000Y-101007600D01*
X137256000Y-101007600D01*
X137241297Y-101006878D01*
X137226736Y-101004718D01*
X137212457Y-101001141D01*
X137198597Y-100996182D01*
X137185290Y-100989888D01*
X137172664Y-100982320D01*
X137160841Y-100973552D01*
X137149934Y-100963666D01*
X137140048Y-100952759D01*
X137131280Y-100940936D01*
X137123712Y-100928310D01*
X137117418Y-100915003D01*
X137112459Y-100901143D01*
X137108882Y-100886864D01*
X137106722Y-100872303D01*
X137106000Y-100857600D01*
X137106000Y-99607600D01*
X137106722Y-99592897D01*
X137108882Y-99578336D01*
X137112459Y-99564057D01*
X137117418Y-99550197D01*
X137123712Y-99536890D01*
X137131280Y-99524264D01*
X137140048Y-99512441D01*
X137149934Y-99501534D01*
X137160841Y-99491648D01*
X137172664Y-99482880D01*
X137185290Y-99475312D01*
X137198597Y-99469018D01*
X137212457Y-99464059D01*
X137226736Y-99460482D01*
X137241297Y-99458322D01*
X137256000Y-99457600D01*
X137556000Y-99457600D01*
X137570703Y-99458322D01*
G37*
G04 #@! TD.AperFunction*
G04 #@! TA.AperFunction,SMDPad,CuDef*
G36*
X138570703Y-99458322D02*
G01*
X138585264Y-99460482D01*
X138599543Y-99464059D01*
X138613403Y-99469018D01*
X138626710Y-99475312D01*
X138639336Y-99482880D01*
X138651159Y-99491648D01*
X138662066Y-99501534D01*
X138671952Y-99512441D01*
X138680720Y-99524264D01*
X138688288Y-99536890D01*
X138694582Y-99550197D01*
X138699541Y-99564057D01*
X138703118Y-99578336D01*
X138705278Y-99592897D01*
X138706000Y-99607600D01*
X138706000Y-100857600D01*
X138705278Y-100872303D01*
X138703118Y-100886864D01*
X138699541Y-100901143D01*
X138694582Y-100915003D01*
X138688288Y-100928310D01*
X138680720Y-100940936D01*
X138671952Y-100952759D01*
X138662066Y-100963666D01*
X138651159Y-100973552D01*
X138639336Y-100982320D01*
X138626710Y-100989888D01*
X138613403Y-100996182D01*
X138599543Y-101001141D01*
X138585264Y-101004718D01*
X138570703Y-101006878D01*
X138556000Y-101007600D01*
X138256000Y-101007600D01*
X138241297Y-101006878D01*
X138226736Y-101004718D01*
X138212457Y-101001141D01*
X138198597Y-100996182D01*
X138185290Y-100989888D01*
X138172664Y-100982320D01*
X138160841Y-100973552D01*
X138149934Y-100963666D01*
X138140048Y-100952759D01*
X138131280Y-100940936D01*
X138123712Y-100928310D01*
X138117418Y-100915003D01*
X138112459Y-100901143D01*
X138108882Y-100886864D01*
X138106722Y-100872303D01*
X138106000Y-100857600D01*
X138106000Y-99607600D01*
X138106722Y-99592897D01*
X138108882Y-99578336D01*
X138112459Y-99564057D01*
X138117418Y-99550197D01*
X138123712Y-99536890D01*
X138131280Y-99524264D01*
X138140048Y-99512441D01*
X138149934Y-99501534D01*
X138160841Y-99491648D01*
X138172664Y-99482880D01*
X138185290Y-99475312D01*
X138198597Y-99469018D01*
X138212457Y-99464059D01*
X138226736Y-99460482D01*
X138241297Y-99458322D01*
X138256000Y-99457600D01*
X138556000Y-99457600D01*
X138570703Y-99458322D01*
G37*
G04 #@! TD.AperFunction*
G04 #@! TA.AperFunction,SMDPad,CuDef*
G36*
X134480505Y-96808804D02*
G01*
X134504773Y-96812404D01*
X134528572Y-96818365D01*
X134551671Y-96826630D01*
X134573850Y-96837120D01*
X134594893Y-96849732D01*
X134614599Y-96864347D01*
X134632777Y-96880823D01*
X134649253Y-96899001D01*
X134663868Y-96918707D01*
X134676480Y-96939750D01*
X134686970Y-96961929D01*
X134695235Y-96985028D01*
X134701196Y-97008827D01*
X134704796Y-97033095D01*
X134706000Y-97057599D01*
X134706000Y-98357601D01*
X134704796Y-98382105D01*
X134701196Y-98406373D01*
X134695235Y-98430172D01*
X134686970Y-98453271D01*
X134676480Y-98475450D01*
X134663868Y-98496493D01*
X134649253Y-98516199D01*
X134632777Y-98534377D01*
X134614599Y-98550853D01*
X134594893Y-98565468D01*
X134573850Y-98578080D01*
X134551671Y-98588570D01*
X134528572Y-98596835D01*
X134504773Y-98602796D01*
X134480505Y-98606396D01*
X134456001Y-98607600D01*
X133755999Y-98607600D01*
X133731495Y-98606396D01*
X133707227Y-98602796D01*
X133683428Y-98596835D01*
X133660329Y-98588570D01*
X133638150Y-98578080D01*
X133617107Y-98565468D01*
X133597401Y-98550853D01*
X133579223Y-98534377D01*
X133562747Y-98516199D01*
X133548132Y-98496493D01*
X133535520Y-98475450D01*
X133525030Y-98453271D01*
X133516765Y-98430172D01*
X133510804Y-98406373D01*
X133507204Y-98382105D01*
X133506000Y-98357601D01*
X133506000Y-97057599D01*
X133507204Y-97033095D01*
X133510804Y-97008827D01*
X133516765Y-96985028D01*
X133525030Y-96961929D01*
X133535520Y-96939750D01*
X133548132Y-96918707D01*
X133562747Y-96899001D01*
X133579223Y-96880823D01*
X133597401Y-96864347D01*
X133617107Y-96849732D01*
X133638150Y-96837120D01*
X133660329Y-96826630D01*
X133683428Y-96818365D01*
X133707227Y-96812404D01*
X133731495Y-96808804D01*
X133755999Y-96807600D01*
X134456001Y-96807600D01*
X134480505Y-96808804D01*
G37*
G04 #@! TD.AperFunction*
G04 #@! TA.AperFunction,SMDPad,CuDef*
G36*
X140080505Y-96808804D02*
G01*
X140104773Y-96812404D01*
X140128572Y-96818365D01*
X140151671Y-96826630D01*
X140173850Y-96837120D01*
X140194893Y-96849732D01*
X140214599Y-96864347D01*
X140232777Y-96880823D01*
X140249253Y-96899001D01*
X140263868Y-96918707D01*
X140276480Y-96939750D01*
X140286970Y-96961929D01*
X140295235Y-96985028D01*
X140301196Y-97008827D01*
X140304796Y-97033095D01*
X140306000Y-97057599D01*
X140306000Y-98357601D01*
X140304796Y-98382105D01*
X140301196Y-98406373D01*
X140295235Y-98430172D01*
X140286970Y-98453271D01*
X140276480Y-98475450D01*
X140263868Y-98496493D01*
X140249253Y-98516199D01*
X140232777Y-98534377D01*
X140214599Y-98550853D01*
X140194893Y-98565468D01*
X140173850Y-98578080D01*
X140151671Y-98588570D01*
X140128572Y-98596835D01*
X140104773Y-98602796D01*
X140080505Y-98606396D01*
X140056001Y-98607600D01*
X139355999Y-98607600D01*
X139331495Y-98606396D01*
X139307227Y-98602796D01*
X139283428Y-98596835D01*
X139260329Y-98588570D01*
X139238150Y-98578080D01*
X139217107Y-98565468D01*
X139197401Y-98550853D01*
X139179223Y-98534377D01*
X139162747Y-98516199D01*
X139148132Y-98496493D01*
X139135520Y-98475450D01*
X139125030Y-98453271D01*
X139116765Y-98430172D01*
X139110804Y-98406373D01*
X139107204Y-98382105D01*
X139106000Y-98357601D01*
X139106000Y-97057599D01*
X139107204Y-97033095D01*
X139110804Y-97008827D01*
X139116765Y-96985028D01*
X139125030Y-96961929D01*
X139135520Y-96939750D01*
X139148132Y-96918707D01*
X139162747Y-96899001D01*
X139179223Y-96880823D01*
X139197401Y-96864347D01*
X139217107Y-96849732D01*
X139238150Y-96837120D01*
X139260329Y-96826630D01*
X139283428Y-96818365D01*
X139307227Y-96812404D01*
X139331495Y-96808804D01*
X139355999Y-96807600D01*
X140056001Y-96807600D01*
X140080505Y-96808804D01*
G37*
G04 #@! TD.AperFunction*
G04 #@! TA.AperFunction,SMDPad,CuDef*
G36*
X140105905Y-102371404D02*
G01*
X140130173Y-102375004D01*
X140153972Y-102380965D01*
X140177071Y-102389230D01*
X140199250Y-102399720D01*
X140220293Y-102412332D01*
X140239999Y-102426947D01*
X140258177Y-102443423D01*
X140274653Y-102461601D01*
X140289268Y-102481307D01*
X140301880Y-102502350D01*
X140312370Y-102524529D01*
X140320635Y-102547628D01*
X140326596Y-102571427D01*
X140330196Y-102595695D01*
X140331400Y-102620199D01*
X140331400Y-103920201D01*
X140330196Y-103944705D01*
X140326596Y-103968973D01*
X140320635Y-103992772D01*
X140312370Y-104015871D01*
X140301880Y-104038050D01*
X140289268Y-104059093D01*
X140274653Y-104078799D01*
X140258177Y-104096977D01*
X140239999Y-104113453D01*
X140220293Y-104128068D01*
X140199250Y-104140680D01*
X140177071Y-104151170D01*
X140153972Y-104159435D01*
X140130173Y-104165396D01*
X140105905Y-104168996D01*
X140081401Y-104170200D01*
X139381399Y-104170200D01*
X139356895Y-104168996D01*
X139332627Y-104165396D01*
X139308828Y-104159435D01*
X139285729Y-104151170D01*
X139263550Y-104140680D01*
X139242507Y-104128068D01*
X139222801Y-104113453D01*
X139204623Y-104096977D01*
X139188147Y-104078799D01*
X139173532Y-104059093D01*
X139160920Y-104038050D01*
X139150430Y-104015871D01*
X139142165Y-103992772D01*
X139136204Y-103968973D01*
X139132604Y-103944705D01*
X139131400Y-103920201D01*
X139131400Y-102620199D01*
X139132604Y-102595695D01*
X139136204Y-102571427D01*
X139142165Y-102547628D01*
X139150430Y-102524529D01*
X139160920Y-102502350D01*
X139173532Y-102481307D01*
X139188147Y-102461601D01*
X139204623Y-102443423D01*
X139222801Y-102426947D01*
X139242507Y-102412332D01*
X139263550Y-102399720D01*
X139285729Y-102389230D01*
X139308828Y-102380965D01*
X139332627Y-102375004D01*
X139356895Y-102371404D01*
X139381399Y-102370200D01*
X140081401Y-102370200D01*
X140105905Y-102371404D01*
G37*
G04 #@! TD.AperFunction*
G04 #@! TA.AperFunction,SMDPad,CuDef*
G36*
X134505905Y-102371404D02*
G01*
X134530173Y-102375004D01*
X134553972Y-102380965D01*
X134577071Y-102389230D01*
X134599250Y-102399720D01*
X134620293Y-102412332D01*
X134639999Y-102426947D01*
X134658177Y-102443423D01*
X134674653Y-102461601D01*
X134689268Y-102481307D01*
X134701880Y-102502350D01*
X134712370Y-102524529D01*
X134720635Y-102547628D01*
X134726596Y-102571427D01*
X134730196Y-102595695D01*
X134731400Y-102620199D01*
X134731400Y-103920201D01*
X134730196Y-103944705D01*
X134726596Y-103968973D01*
X134720635Y-103992772D01*
X134712370Y-104015871D01*
X134701880Y-104038050D01*
X134689268Y-104059093D01*
X134674653Y-104078799D01*
X134658177Y-104096977D01*
X134639999Y-104113453D01*
X134620293Y-104128068D01*
X134599250Y-104140680D01*
X134577071Y-104151170D01*
X134553972Y-104159435D01*
X134530173Y-104165396D01*
X134505905Y-104168996D01*
X134481401Y-104170200D01*
X133781399Y-104170200D01*
X133756895Y-104168996D01*
X133732627Y-104165396D01*
X133708828Y-104159435D01*
X133685729Y-104151170D01*
X133663550Y-104140680D01*
X133642507Y-104128068D01*
X133622801Y-104113453D01*
X133604623Y-104096977D01*
X133588147Y-104078799D01*
X133573532Y-104059093D01*
X133560920Y-104038050D01*
X133550430Y-104015871D01*
X133542165Y-103992772D01*
X133536204Y-103968973D01*
X133532604Y-103944705D01*
X133531400Y-103920201D01*
X133531400Y-102620199D01*
X133532604Y-102595695D01*
X133536204Y-102571427D01*
X133542165Y-102547628D01*
X133550430Y-102524529D01*
X133560920Y-102502350D01*
X133573532Y-102481307D01*
X133588147Y-102461601D01*
X133604623Y-102443423D01*
X133622801Y-102426947D01*
X133642507Y-102412332D01*
X133663550Y-102399720D01*
X133685729Y-102389230D01*
X133708828Y-102380965D01*
X133732627Y-102375004D01*
X133756895Y-102371404D01*
X133781399Y-102370200D01*
X134481401Y-102370200D01*
X134505905Y-102371404D01*
G37*
G04 #@! TD.AperFunction*
G04 #@! TA.AperFunction,SMDPad,CuDef*
G36*
X138596103Y-105020922D02*
G01*
X138610664Y-105023082D01*
X138624943Y-105026659D01*
X138638803Y-105031618D01*
X138652110Y-105037912D01*
X138664736Y-105045480D01*
X138676559Y-105054248D01*
X138687466Y-105064134D01*
X138697352Y-105075041D01*
X138706120Y-105086864D01*
X138713688Y-105099490D01*
X138719982Y-105112797D01*
X138724941Y-105126657D01*
X138728518Y-105140936D01*
X138730678Y-105155497D01*
X138731400Y-105170200D01*
X138731400Y-106420200D01*
X138730678Y-106434903D01*
X138728518Y-106449464D01*
X138724941Y-106463743D01*
X138719982Y-106477603D01*
X138713688Y-106490910D01*
X138706120Y-106503536D01*
X138697352Y-106515359D01*
X138687466Y-106526266D01*
X138676559Y-106536152D01*
X138664736Y-106544920D01*
X138652110Y-106552488D01*
X138638803Y-106558782D01*
X138624943Y-106563741D01*
X138610664Y-106567318D01*
X138596103Y-106569478D01*
X138581400Y-106570200D01*
X138281400Y-106570200D01*
X138266697Y-106569478D01*
X138252136Y-106567318D01*
X138237857Y-106563741D01*
X138223997Y-106558782D01*
X138210690Y-106552488D01*
X138198064Y-106544920D01*
X138186241Y-106536152D01*
X138175334Y-106526266D01*
X138165448Y-106515359D01*
X138156680Y-106503536D01*
X138149112Y-106490910D01*
X138142818Y-106477603D01*
X138137859Y-106463743D01*
X138134282Y-106449464D01*
X138132122Y-106434903D01*
X138131400Y-106420200D01*
X138131400Y-105170200D01*
X138132122Y-105155497D01*
X138134282Y-105140936D01*
X138137859Y-105126657D01*
X138142818Y-105112797D01*
X138149112Y-105099490D01*
X138156680Y-105086864D01*
X138165448Y-105075041D01*
X138175334Y-105064134D01*
X138186241Y-105054248D01*
X138198064Y-105045480D01*
X138210690Y-105037912D01*
X138223997Y-105031618D01*
X138237857Y-105026659D01*
X138252136Y-105023082D01*
X138266697Y-105020922D01*
X138281400Y-105020200D01*
X138581400Y-105020200D01*
X138596103Y-105020922D01*
G37*
G04 #@! TD.AperFunction*
G04 #@! TA.AperFunction,SMDPad,CuDef*
G36*
X137596103Y-105020922D02*
G01*
X137610664Y-105023082D01*
X137624943Y-105026659D01*
X137638803Y-105031618D01*
X137652110Y-105037912D01*
X137664736Y-105045480D01*
X137676559Y-105054248D01*
X137687466Y-105064134D01*
X137697352Y-105075041D01*
X137706120Y-105086864D01*
X137713688Y-105099490D01*
X137719982Y-105112797D01*
X137724941Y-105126657D01*
X137728518Y-105140936D01*
X137730678Y-105155497D01*
X137731400Y-105170200D01*
X137731400Y-106420200D01*
X137730678Y-106434903D01*
X137728518Y-106449464D01*
X137724941Y-106463743D01*
X137719982Y-106477603D01*
X137713688Y-106490910D01*
X137706120Y-106503536D01*
X137697352Y-106515359D01*
X137687466Y-106526266D01*
X137676559Y-106536152D01*
X137664736Y-106544920D01*
X137652110Y-106552488D01*
X137638803Y-106558782D01*
X137624943Y-106563741D01*
X137610664Y-106567318D01*
X137596103Y-106569478D01*
X137581400Y-106570200D01*
X137281400Y-106570200D01*
X137266697Y-106569478D01*
X137252136Y-106567318D01*
X137237857Y-106563741D01*
X137223997Y-106558782D01*
X137210690Y-106552488D01*
X137198064Y-106544920D01*
X137186241Y-106536152D01*
X137175334Y-106526266D01*
X137165448Y-106515359D01*
X137156680Y-106503536D01*
X137149112Y-106490910D01*
X137142818Y-106477603D01*
X137137859Y-106463743D01*
X137134282Y-106449464D01*
X137132122Y-106434903D01*
X137131400Y-106420200D01*
X137131400Y-105170200D01*
X137132122Y-105155497D01*
X137134282Y-105140936D01*
X137137859Y-105126657D01*
X137142818Y-105112797D01*
X137149112Y-105099490D01*
X137156680Y-105086864D01*
X137165448Y-105075041D01*
X137175334Y-105064134D01*
X137186241Y-105054248D01*
X137198064Y-105045480D01*
X137210690Y-105037912D01*
X137223997Y-105031618D01*
X137237857Y-105026659D01*
X137252136Y-105023082D01*
X137266697Y-105020922D01*
X137281400Y-105020200D01*
X137581400Y-105020200D01*
X137596103Y-105020922D01*
G37*
G04 #@! TD.AperFunction*
G04 #@! TA.AperFunction,SMDPad,CuDef*
G36*
X136596103Y-105020922D02*
G01*
X136610664Y-105023082D01*
X136624943Y-105026659D01*
X136638803Y-105031618D01*
X136652110Y-105037912D01*
X136664736Y-105045480D01*
X136676559Y-105054248D01*
X136687466Y-105064134D01*
X136697352Y-105075041D01*
X136706120Y-105086864D01*
X136713688Y-105099490D01*
X136719982Y-105112797D01*
X136724941Y-105126657D01*
X136728518Y-105140936D01*
X136730678Y-105155497D01*
X136731400Y-105170200D01*
X136731400Y-106420200D01*
X136730678Y-106434903D01*
X136728518Y-106449464D01*
X136724941Y-106463743D01*
X136719982Y-106477603D01*
X136713688Y-106490910D01*
X136706120Y-106503536D01*
X136697352Y-106515359D01*
X136687466Y-106526266D01*
X136676559Y-106536152D01*
X136664736Y-106544920D01*
X136652110Y-106552488D01*
X136638803Y-106558782D01*
X136624943Y-106563741D01*
X136610664Y-106567318D01*
X136596103Y-106569478D01*
X136581400Y-106570200D01*
X136281400Y-106570200D01*
X136266697Y-106569478D01*
X136252136Y-106567318D01*
X136237857Y-106563741D01*
X136223997Y-106558782D01*
X136210690Y-106552488D01*
X136198064Y-106544920D01*
X136186241Y-106536152D01*
X136175334Y-106526266D01*
X136165448Y-106515359D01*
X136156680Y-106503536D01*
X136149112Y-106490910D01*
X136142818Y-106477603D01*
X136137859Y-106463743D01*
X136134282Y-106449464D01*
X136132122Y-106434903D01*
X136131400Y-106420200D01*
X136131400Y-105170200D01*
X136132122Y-105155497D01*
X136134282Y-105140936D01*
X136137859Y-105126657D01*
X136142818Y-105112797D01*
X136149112Y-105099490D01*
X136156680Y-105086864D01*
X136165448Y-105075041D01*
X136175334Y-105064134D01*
X136186241Y-105054248D01*
X136198064Y-105045480D01*
X136210690Y-105037912D01*
X136223997Y-105031618D01*
X136237857Y-105026659D01*
X136252136Y-105023082D01*
X136266697Y-105020922D01*
X136281400Y-105020200D01*
X136581400Y-105020200D01*
X136596103Y-105020922D01*
G37*
G04 #@! TD.AperFunction*
G04 #@! TA.AperFunction,SMDPad,CuDef*
G36*
X135596103Y-105020922D02*
G01*
X135610664Y-105023082D01*
X135624943Y-105026659D01*
X135638803Y-105031618D01*
X135652110Y-105037912D01*
X135664736Y-105045480D01*
X135676559Y-105054248D01*
X135687466Y-105064134D01*
X135697352Y-105075041D01*
X135706120Y-105086864D01*
X135713688Y-105099490D01*
X135719982Y-105112797D01*
X135724941Y-105126657D01*
X135728518Y-105140936D01*
X135730678Y-105155497D01*
X135731400Y-105170200D01*
X135731400Y-106420200D01*
X135730678Y-106434903D01*
X135728518Y-106449464D01*
X135724941Y-106463743D01*
X135719982Y-106477603D01*
X135713688Y-106490910D01*
X135706120Y-106503536D01*
X135697352Y-106515359D01*
X135687466Y-106526266D01*
X135676559Y-106536152D01*
X135664736Y-106544920D01*
X135652110Y-106552488D01*
X135638803Y-106558782D01*
X135624943Y-106563741D01*
X135610664Y-106567318D01*
X135596103Y-106569478D01*
X135581400Y-106570200D01*
X135281400Y-106570200D01*
X135266697Y-106569478D01*
X135252136Y-106567318D01*
X135237857Y-106563741D01*
X135223997Y-106558782D01*
X135210690Y-106552488D01*
X135198064Y-106544920D01*
X135186241Y-106536152D01*
X135175334Y-106526266D01*
X135165448Y-106515359D01*
X135156680Y-106503536D01*
X135149112Y-106490910D01*
X135142818Y-106477603D01*
X135137859Y-106463743D01*
X135134282Y-106449464D01*
X135132122Y-106434903D01*
X135131400Y-106420200D01*
X135131400Y-105170200D01*
X135132122Y-105155497D01*
X135134282Y-105140936D01*
X135137859Y-105126657D01*
X135142818Y-105112797D01*
X135149112Y-105099490D01*
X135156680Y-105086864D01*
X135165448Y-105075041D01*
X135175334Y-105064134D01*
X135186241Y-105054248D01*
X135198064Y-105045480D01*
X135210690Y-105037912D01*
X135223997Y-105031618D01*
X135237857Y-105026659D01*
X135252136Y-105023082D01*
X135266697Y-105020922D01*
X135281400Y-105020200D01*
X135581400Y-105020200D01*
X135596103Y-105020922D01*
G37*
G04 #@! TD.AperFunction*
D15*
X158323280Y-106097070D03*
X142063280Y-106097070D03*
D16*
X153742580Y-106459020D03*
D17*
X152722580Y-104679020D03*
X151712580Y-106459020D03*
X150692580Y-104679020D03*
X149682580Y-106459020D03*
X148662580Y-104679020D03*
X147652580Y-106459020D03*
X146632580Y-104679020D03*
D18*
X156543280Y-108999020D03*
X143843280Y-108999020D03*
D19*
X150706900Y-93671180D03*
X151356900Y-93671180D03*
X152006900Y-93671180D03*
X152656900Y-93671180D03*
X153306900Y-93671180D03*
X153956900Y-93671180D03*
X154606900Y-93671180D03*
X155256900Y-93671180D03*
X155906900Y-93671180D03*
X156556900Y-93671180D03*
X156556900Y-87771180D03*
X155906900Y-87771180D03*
X155256900Y-87771180D03*
X154606900Y-87771180D03*
X153956900Y-87771180D03*
X153306900Y-87771180D03*
X152656900Y-87771180D03*
X152006900Y-87771180D03*
X151356900Y-87771180D03*
X150706900Y-87771180D03*
D20*
X152280620Y-98686620D03*
X135437880Y-92913200D03*
X136461500Y-98623120D03*
X136410700Y-104167940D03*
X145775680Y-89540080D03*
X143085820Y-87787480D03*
X143156940Y-90307160D03*
X152112980Y-95244920D03*
X156532580Y-89344500D03*
X151104600Y-89496900D03*
X144805400Y-103273860D03*
D21*
X148407120Y-94023220D02*
X148485860Y-93944480D01*
X146192240Y-94023220D02*
X148407120Y-94023220D01*
X153231899Y-92621179D02*
X150083761Y-92621179D01*
X153306900Y-92696180D02*
X153231899Y-92621179D01*
X153306900Y-93671180D02*
X153306900Y-92696180D01*
X148984689Y-93445651D02*
X148485860Y-93944480D01*
X149259289Y-93445651D02*
X148984689Y-93445651D01*
X150083761Y-92621179D02*
X149259289Y-93445651D01*
X137914380Y-92892160D02*
X139184380Y-92892160D01*
X139259381Y-94417161D02*
X141649379Y-94417161D01*
X141649379Y-94417161D02*
X141724380Y-94342160D01*
X139184380Y-94342160D02*
X139259381Y-94417161D01*
X141724380Y-94342160D02*
X141724380Y-92892160D01*
X139184380Y-92892160D02*
X139184380Y-94342160D01*
X145061180Y-92892160D02*
X146192240Y-94023220D01*
X141724380Y-92892160D02*
X145061180Y-92892160D01*
X162639641Y-91860001D02*
X163489640Y-92710000D01*
X162124641Y-91345001D02*
X162639641Y-91860001D01*
X147510500Y-87439460D02*
X151416041Y-91345001D01*
X162298380Y-91361260D02*
X162148520Y-91361260D01*
X163489640Y-90170000D02*
X162298380Y-91361260D01*
X151416041Y-91345001D02*
X162148520Y-91361260D01*
X162148520Y-91361260D02*
X162124641Y-91345001D01*
X154131230Y-97961570D02*
X154456240Y-97636560D01*
X150277940Y-97631480D02*
X150608030Y-97961570D01*
X154456240Y-97636560D02*
X154456240Y-96936560D01*
X150277940Y-96931480D02*
X150277940Y-97631480D01*
X152656900Y-94437220D02*
X152656900Y-93671180D01*
X154456240Y-96236560D02*
X152656900Y-94437220D01*
X154456240Y-96936560D02*
X154456240Y-96236560D01*
X147510500Y-91069120D02*
X148485860Y-92044480D01*
X147510500Y-89339460D02*
X147510500Y-91069120D01*
X152297250Y-98669990D02*
X152280620Y-98686620D01*
X152297250Y-97961570D02*
X152297250Y-98669990D01*
X150608030Y-97961570D02*
X152297250Y-97961570D01*
X152297250Y-97961570D02*
X154131230Y-97961570D01*
X136644380Y-92892160D02*
X135458920Y-92892160D01*
X135458920Y-92892160D02*
X135437880Y-92913200D01*
X136406000Y-100232600D02*
X136406000Y-98678620D01*
X136406000Y-98678620D02*
X136461500Y-98623120D01*
X136431400Y-105795200D02*
X136431400Y-104188640D01*
X136431400Y-104188640D02*
X136410700Y-104167940D01*
X147510500Y-89339460D02*
X145976300Y-89339460D01*
X145976300Y-89339460D02*
X145775680Y-89540080D01*
X152006900Y-93671180D02*
X152006900Y-95138840D01*
X152006900Y-95138840D02*
X152112980Y-95244920D01*
X156556900Y-87771180D02*
X156556900Y-89320180D01*
X156556900Y-89320180D02*
X156532580Y-89344500D01*
X150706900Y-89099200D02*
X151104600Y-89496900D01*
X150706900Y-87771180D02*
X150706900Y-89099200D01*
X148607579Y-107534021D02*
X148932581Y-107209019D01*
X148932581Y-107209019D02*
X149682580Y-106459020D01*
X147136579Y-107534021D02*
X148607579Y-107534021D01*
X144805400Y-105202842D02*
X147136579Y-107534021D01*
X144805400Y-103273860D02*
X144805400Y-105202842D01*
X151442579Y-103929021D02*
X150692580Y-104679020D01*
X151767581Y-103604019D02*
X151442579Y-103929021D01*
X153238581Y-103604019D02*
X151767581Y-103604019D01*
X153869561Y-104234999D02*
X153238581Y-103604019D01*
X164854639Y-104234999D02*
X153869561Y-104234999D01*
X166029640Y-105410000D02*
X164854639Y-104234999D01*
X165465639Y-93885001D02*
X164664641Y-93084003D01*
X164664641Y-93084003D02*
X164664641Y-89605999D01*
X157955085Y-88994999D02*
X156880582Y-90069502D01*
X153306900Y-88746180D02*
X153306900Y-87771180D01*
X154630222Y-90069502D02*
X153306900Y-88746180D01*
X164053641Y-88994999D02*
X157955085Y-88994999D01*
X166813481Y-93885001D02*
X165465639Y-93885001D01*
X164664641Y-89605999D02*
X164053641Y-88994999D01*
X156880582Y-90069502D02*
X154630222Y-90069502D01*
X167204641Y-94276161D02*
X166813481Y-93885001D01*
X167204641Y-96614999D02*
X167204641Y-94276161D01*
X166029640Y-97790000D02*
X167204641Y-96614999D01*
X167204641Y-91534999D02*
X167204641Y-89394281D01*
X166029640Y-92710000D02*
X167204641Y-91534999D01*
X152656900Y-86796180D02*
X152656900Y-87771180D01*
X153181912Y-86271168D02*
X152656900Y-86796180D01*
X164081528Y-86271168D02*
X153181912Y-86271168D01*
X167204641Y-89394281D02*
X164081528Y-86271168D01*
X154606900Y-92696180D02*
X154606900Y-93671180D01*
X154681901Y-92621179D02*
X154606900Y-92696180D01*
X157041901Y-92621179D02*
X154681901Y-92621179D01*
X158495721Y-94074999D02*
X157041901Y-92621179D01*
X164854639Y-94074999D02*
X158495721Y-94074999D01*
X166029640Y-95250000D02*
X164854639Y-94074999D01*
X155906900Y-86796180D02*
X155906900Y-87771180D01*
X155981901Y-86721179D02*
X155906900Y-86796180D01*
X163782900Y-86721179D02*
X155981901Y-86721179D01*
X166029640Y-88967919D02*
X163782900Y-86721179D01*
X166029640Y-90170000D02*
X166029640Y-88967919D01*
X151831240Y-96936560D02*
X152406240Y-96936560D01*
X151356900Y-96462220D02*
X151831240Y-96936560D01*
X151356900Y-93671180D02*
X151356900Y-96462220D01*
X145415000Y-101332610D02*
X137731010Y-101332610D01*
X149377930Y-97369680D02*
X145415000Y-101332610D01*
X149377930Y-96243300D02*
X149377930Y-97369680D01*
X149714760Y-95906470D02*
X149377930Y-96243300D01*
X137731010Y-101332610D02*
X137406000Y-101007600D01*
X151376150Y-95906470D02*
X149714760Y-95906470D01*
X137406000Y-101007600D02*
X137406000Y-100232600D01*
X138706000Y-100232600D02*
X138406000Y-100232600D01*
X144351820Y-100232600D02*
X138706000Y-100232600D01*
X147652940Y-96931480D02*
X144351820Y-100232600D01*
X148227940Y-96931480D02*
X147652940Y-96931480D01*
X150706900Y-93671180D02*
X150706900Y-94171180D01*
X148227940Y-96650140D02*
X148227940Y-96931480D01*
X150706900Y-94171180D02*
X148227940Y-96650140D01*
X151198370Y-101782620D02*
X143032170Y-101782620D01*
X143032170Y-101782620D02*
X140319580Y-104495210D01*
X137431400Y-105020200D02*
X137431400Y-105795200D01*
X140319580Y-104495210D02*
X137956390Y-104495210D01*
X155906900Y-93671180D02*
X155906900Y-97074090D01*
X155906900Y-97074090D02*
X151198370Y-101782620D01*
X137956390Y-104495210D02*
X137431400Y-105020200D01*
X139656001Y-105795200D02*
X138731400Y-105795200D01*
X151384770Y-102232631D02*
X143218570Y-102232631D01*
X156556900Y-97060501D02*
X151384770Y-102232631D01*
X156556900Y-93671180D02*
X156556900Y-97060501D01*
X143218570Y-102232631D02*
X139656001Y-105795200D01*
X138731400Y-105795200D02*
X138431400Y-105795200D01*
X142344380Y-88992160D02*
X141724380Y-88992160D01*
X143561180Y-88992160D02*
X142344380Y-88992160D01*
X146192240Y-91623220D02*
X143561180Y-88992160D01*
X146192240Y-92123220D02*
X146192240Y-91623220D01*
X153956900Y-92696180D02*
X153956900Y-93671180D01*
X153383940Y-92123220D02*
X153956900Y-92696180D01*
X149945310Y-92123220D02*
X153383940Y-92123220D01*
X149199040Y-92869490D02*
X149945310Y-92123220D01*
X146192240Y-92123220D02*
X146938510Y-92869490D01*
X146938510Y-92869490D02*
X149199040Y-92869490D01*
X138022101Y-86164439D02*
X136644380Y-87542160D01*
X151375159Y-86164439D02*
X138022101Y-86164439D01*
X136644380Y-87542160D02*
X136644380Y-88992160D01*
X152006900Y-86796180D02*
X151375159Y-86164439D01*
X152006900Y-87771180D02*
X152006900Y-86796180D01*
X151187851Y-86627131D02*
X148236361Y-86627131D01*
X137914380Y-87542160D02*
X137914380Y-88992160D01*
X148236361Y-86627131D02*
X148223680Y-86614450D01*
X138829409Y-86627131D02*
X137914380Y-87542160D01*
X146797320Y-86614450D02*
X146784639Y-86627131D01*
X148223680Y-86614450D02*
X146797320Y-86614450D01*
X151356900Y-87771180D02*
X151356900Y-86796180D01*
X146784639Y-86627131D02*
X138829409Y-86627131D01*
X151356900Y-86796180D02*
X151187851Y-86627131D01*
D22*
G36*
X136133383Y-86978356D02*
G01*
X136104379Y-87002159D01*
X136063963Y-87051407D01*
X136009406Y-87117884D01*
X135970362Y-87190930D01*
X135938834Y-87249914D01*
X135938262Y-87251801D01*
X135919886Y-87261623D01*
X135823195Y-87340975D01*
X135743843Y-87437666D01*
X135684878Y-87547980D01*
X135648568Y-87667678D01*
X135636308Y-87792160D01*
X135636308Y-90192160D01*
X135648568Y-90316642D01*
X135684878Y-90436340D01*
X135743843Y-90546654D01*
X135823195Y-90643345D01*
X135919886Y-90722697D01*
X136030200Y-90781662D01*
X136149898Y-90817972D01*
X136274380Y-90830232D01*
X137014380Y-90830232D01*
X137138862Y-90817972D01*
X137258560Y-90781662D01*
X137279380Y-90770533D01*
X137300200Y-90781662D01*
X137419898Y-90817972D01*
X137544380Y-90830232D01*
X138284380Y-90830232D01*
X138408862Y-90817972D01*
X138528560Y-90781662D01*
X138549380Y-90770533D01*
X138570200Y-90781662D01*
X138689898Y-90817972D01*
X138814380Y-90830232D01*
X139554380Y-90830232D01*
X139678862Y-90817972D01*
X139798560Y-90781662D01*
X139819380Y-90770533D01*
X139840200Y-90781662D01*
X139959898Y-90817972D01*
X140084380Y-90830232D01*
X140824380Y-90830232D01*
X140948862Y-90817972D01*
X141068560Y-90781662D01*
X141089380Y-90770533D01*
X141110200Y-90781662D01*
X141229898Y-90817972D01*
X141354380Y-90830232D01*
X142094380Y-90830232D01*
X142218862Y-90817972D01*
X142338560Y-90781662D01*
X142448874Y-90722697D01*
X142545565Y-90643345D01*
X142624917Y-90546654D01*
X142683882Y-90436340D01*
X142720192Y-90316642D01*
X142732452Y-90192160D01*
X142732452Y-89752160D01*
X143246379Y-89752160D01*
X144942336Y-91448118D01*
X144896768Y-91533370D01*
X144846232Y-91699966D01*
X144829168Y-91873220D01*
X144829168Y-92373220D01*
X144846232Y-92546474D01*
X144896768Y-92713070D01*
X144978835Y-92866606D01*
X145089278Y-93001182D01*
X145223854Y-93111625D01*
X145377390Y-93193692D01*
X145543986Y-93244228D01*
X145717240Y-93261292D01*
X146255510Y-93261292D01*
X146374711Y-93380492D01*
X146398509Y-93409491D01*
X146427507Y-93433289D01*
X146514233Y-93504464D01*
X146571358Y-93534998D01*
X146646263Y-93575036D01*
X146789524Y-93618493D01*
X146901177Y-93629490D01*
X146901186Y-93629490D01*
X146938509Y-93633166D01*
X146975832Y-93629490D01*
X149161718Y-93629490D01*
X149199040Y-93633166D01*
X149236362Y-93629490D01*
X149236373Y-93629490D01*
X149348026Y-93618493D01*
X149491287Y-93575036D01*
X149623316Y-93504464D01*
X149739041Y-93409491D01*
X149762843Y-93380488D01*
X149843828Y-93299503D01*
X149843828Y-93959450D01*
X148209871Y-95593408D01*
X147902939Y-95593408D01*
X147729685Y-95610472D01*
X147563089Y-95661008D01*
X147409553Y-95743075D01*
X147274978Y-95853518D01*
X147164535Y-95988093D01*
X147082468Y-96141629D01*
X147031932Y-96308225D01*
X147014868Y-96481479D01*
X147014868Y-96494750D01*
X144037019Y-99472600D01*
X139330775Y-99472600D01*
X139328929Y-99453855D01*
X139284084Y-99306018D01*
X139246039Y-99234842D01*
X139355999Y-99245672D01*
X140056001Y-99245672D01*
X140229255Y-99228608D01*
X140395851Y-99178072D01*
X140549387Y-99096005D01*
X140683962Y-98985562D01*
X140794405Y-98850987D01*
X140876472Y-98697451D01*
X140927008Y-98530855D01*
X140944072Y-98357601D01*
X140944072Y-97057599D01*
X140927008Y-96884345D01*
X140876472Y-96717749D01*
X140794405Y-96564213D01*
X140683962Y-96429638D01*
X140549387Y-96319195D01*
X140395851Y-96237128D01*
X140229255Y-96186592D01*
X140056001Y-96169528D01*
X139355999Y-96169528D01*
X139182745Y-96186592D01*
X139016149Y-96237128D01*
X138862613Y-96319195D01*
X138728038Y-96429638D01*
X138617595Y-96564213D01*
X138535528Y-96717749D01*
X138484992Y-96884345D01*
X138467928Y-97057599D01*
X138467928Y-98357601D01*
X138484992Y-98530855D01*
X138535528Y-98697451D01*
X138603268Y-98824184D01*
X138556000Y-98819528D01*
X138256000Y-98819528D01*
X138102255Y-98834671D01*
X137954418Y-98879516D01*
X137906000Y-98905396D01*
X137857582Y-98879516D01*
X137709745Y-98834671D01*
X137556000Y-98819528D01*
X137477709Y-98819528D01*
X137496500Y-98725059D01*
X137496500Y-98521181D01*
X137456726Y-98321222D01*
X137378705Y-98132864D01*
X137265437Y-97963346D01*
X137121274Y-97819183D01*
X136951756Y-97705915D01*
X136763398Y-97627894D01*
X136563439Y-97588120D01*
X136359561Y-97588120D01*
X136159602Y-97627894D01*
X135971244Y-97705915D01*
X135801726Y-97819183D01*
X135657563Y-97963346D01*
X135544295Y-98132864D01*
X135466274Y-98321222D01*
X135426500Y-98521181D01*
X135426500Y-98725059D01*
X135466274Y-98925018D01*
X135544295Y-99113376D01*
X135592402Y-99185374D01*
X135527916Y-99306018D01*
X135483071Y-99453855D01*
X135467928Y-99607600D01*
X135467928Y-100857600D01*
X135483071Y-101011345D01*
X135527916Y-101159182D01*
X135600742Y-101295429D01*
X135698749Y-101414851D01*
X135818171Y-101512858D01*
X135954418Y-101585684D01*
X136102255Y-101630529D01*
X136256000Y-101645672D01*
X136556000Y-101645672D01*
X136709745Y-101630529D01*
X136857582Y-101585684D01*
X136890781Y-101567939D01*
X136895003Y-101571404D01*
X137167206Y-101843607D01*
X137191009Y-101872611D01*
X137306734Y-101967584D01*
X137352858Y-101992238D01*
X137438763Y-102038156D01*
X137582024Y-102081613D01*
X137731010Y-102096287D01*
X137768343Y-102092610D01*
X138671065Y-102092610D01*
X138642995Y-102126813D01*
X138560928Y-102280349D01*
X138510392Y-102446945D01*
X138493328Y-102620199D01*
X138493328Y-103735210D01*
X137993713Y-103735210D01*
X137956390Y-103731534D01*
X137919067Y-103735210D01*
X137919057Y-103735210D01*
X137807404Y-103746207D01*
X137664143Y-103789664D01*
X137532113Y-103860236D01*
X137488055Y-103896394D01*
X137422642Y-103950078D01*
X137405926Y-103866042D01*
X137327905Y-103677684D01*
X137214637Y-103508166D01*
X137070474Y-103364003D01*
X136900956Y-103250735D01*
X136712598Y-103172714D01*
X136512639Y-103132940D01*
X136308761Y-103132940D01*
X136108802Y-103172714D01*
X135920444Y-103250735D01*
X135750926Y-103364003D01*
X135606763Y-103508166D01*
X135493495Y-103677684D01*
X135415474Y-103866042D01*
X135375700Y-104066001D01*
X135375700Y-104269879D01*
X135415474Y-104469838D01*
X135493495Y-104658196D01*
X135589216Y-104801454D01*
X135553316Y-104868618D01*
X135508471Y-105016455D01*
X135493328Y-105170200D01*
X135493328Y-106420200D01*
X135508471Y-106573945D01*
X135553316Y-106721782D01*
X135626142Y-106858029D01*
X135724149Y-106977451D01*
X135843571Y-107075458D01*
X135979818Y-107148284D01*
X136127655Y-107193129D01*
X136281400Y-107208272D01*
X136581400Y-107208272D01*
X136735145Y-107193129D01*
X136882982Y-107148284D01*
X136931400Y-107122404D01*
X136979818Y-107148284D01*
X137127655Y-107193129D01*
X137281400Y-107208272D01*
X137581400Y-107208272D01*
X137735145Y-107193129D01*
X137882982Y-107148284D01*
X137931400Y-107122404D01*
X137979818Y-107148284D01*
X138127655Y-107193129D01*
X138281400Y-107208272D01*
X138581400Y-107208272D01*
X138735145Y-107193129D01*
X138882982Y-107148284D01*
X139019229Y-107075458D01*
X139138651Y-106977451D01*
X139236658Y-106858029D01*
X139309484Y-106721782D01*
X139354329Y-106573945D01*
X139356175Y-106555200D01*
X139618679Y-106555200D01*
X139656001Y-106558876D01*
X139693323Y-106555200D01*
X139693334Y-106555200D01*
X139804987Y-106544203D01*
X139948248Y-106500746D01*
X140080277Y-106430174D01*
X140196002Y-106335201D01*
X140219805Y-106306197D01*
X140798780Y-105727222D01*
X140798780Y-106710685D01*
X140817077Y-106896454D01*
X140889382Y-107134813D01*
X141006800Y-107354487D01*
X141164817Y-107547033D01*
X141357362Y-107705050D01*
X141577036Y-107822468D01*
X141815395Y-107894773D01*
X141860094Y-107899176D01*
X141840494Y-107928509D01*
X141670131Y-108339802D01*
X141583280Y-108776429D01*
X141583280Y-109221611D01*
X141670131Y-109658238D01*
X141840494Y-110069531D01*
X142087824Y-110439686D01*
X142402614Y-110754476D01*
X142772769Y-111001806D01*
X143184062Y-111172169D01*
X143620689Y-111259020D01*
X144065871Y-111259020D01*
X144502498Y-111172169D01*
X144913791Y-111001806D01*
X145283946Y-110754476D01*
X145598736Y-110439686D01*
X145846066Y-110069531D01*
X146016429Y-109658238D01*
X146103280Y-109221611D01*
X146103280Y-108776429D01*
X146016429Y-108339802D01*
X145846066Y-107928509D01*
X145598736Y-107558354D01*
X145283946Y-107243564D01*
X144913791Y-106996234D01*
X144502498Y-106825871D01*
X144065871Y-106739020D01*
X143620689Y-106739020D01*
X143319080Y-106799014D01*
X143327780Y-106710686D01*
X143327780Y-105483454D01*
X143309483Y-105297685D01*
X143237178Y-105059326D01*
X143119760Y-104839652D01*
X142961743Y-104647107D01*
X142769198Y-104489090D01*
X142549524Y-104371672D01*
X142311165Y-104299367D01*
X142234215Y-104291788D01*
X143533373Y-102992631D01*
X143806063Y-102992631D01*
X143770400Y-103171921D01*
X143770400Y-103375799D01*
X143810174Y-103575758D01*
X143888195Y-103764116D01*
X144001463Y-103933634D01*
X144045400Y-103977571D01*
X144045401Y-105165510D01*
X144041724Y-105202842D01*
X144056398Y-105351827D01*
X144099854Y-105495088D01*
X144170426Y-105627118D01*
X144232083Y-105702246D01*
X144265400Y-105742843D01*
X144294398Y-105766641D01*
X146572780Y-108045024D01*
X146596578Y-108074022D01*
X146625576Y-108097820D01*
X146712302Y-108168995D01*
X146844332Y-108239567D01*
X146987593Y-108283024D01*
X147099246Y-108294021D01*
X147099256Y-108294021D01*
X147136579Y-108297697D01*
X147173902Y-108294021D01*
X148570257Y-108294021D01*
X148607579Y-108297697D01*
X148644901Y-108294021D01*
X148644912Y-108294021D01*
X148756565Y-108283024D01*
X148899826Y-108239567D01*
X149031855Y-108168995D01*
X149147580Y-108074022D01*
X149171383Y-108045018D01*
X149401214Y-107815187D01*
X149546169Y-107844020D01*
X149818991Y-107844020D01*
X150086569Y-107790795D01*
X150338623Y-107686391D01*
X150565466Y-107534819D01*
X150697580Y-107402705D01*
X150829694Y-107534819D01*
X151056537Y-107686391D01*
X151308591Y-107790795D01*
X151576169Y-107844020D01*
X151848991Y-107844020D01*
X152116569Y-107790795D01*
X152368623Y-107686391D01*
X152595466Y-107534819D01*
X152788379Y-107341906D01*
X152939951Y-107115063D01*
X153044355Y-106863009D01*
X153097580Y-106595431D01*
X153097580Y-106322609D01*
X153044355Y-106055031D01*
X153033685Y-106029271D01*
X153126569Y-106010795D01*
X153378623Y-105906391D01*
X153605466Y-105754819D01*
X153798379Y-105561906D01*
X153949951Y-105335063D01*
X154054355Y-105083009D01*
X154071861Y-104994999D01*
X157183765Y-104994999D01*
X157149382Y-105059326D01*
X157077077Y-105297685D01*
X157058780Y-105483454D01*
X157058780Y-106710685D01*
X157067480Y-106799014D01*
X156765871Y-106739020D01*
X156320689Y-106739020D01*
X155884062Y-106825871D01*
X155472769Y-106996234D01*
X155102614Y-107243564D01*
X154787824Y-107558354D01*
X154540494Y-107928509D01*
X154370131Y-108339802D01*
X154283280Y-108776429D01*
X154283280Y-109221611D01*
X154370131Y-109658238D01*
X154540494Y-110069531D01*
X154787824Y-110439686D01*
X155102614Y-110754476D01*
X155472769Y-111001806D01*
X155884062Y-111172169D01*
X156320689Y-111259020D01*
X156765871Y-111259020D01*
X157202498Y-111172169D01*
X157613791Y-111001806D01*
X157983946Y-110754476D01*
X158270701Y-110467721D01*
X162203000Y-110467721D01*
X162203000Y-110888279D01*
X162285047Y-111300756D01*
X162445988Y-111689302D01*
X162679637Y-112038983D01*
X162977017Y-112336363D01*
X163326698Y-112570012D01*
X163715244Y-112730953D01*
X164127721Y-112813000D01*
X164548279Y-112813000D01*
X164960756Y-112730953D01*
X165349302Y-112570012D01*
X165698983Y-112336363D01*
X165996363Y-112038983D01*
X166230012Y-111689302D01*
X166390953Y-111300756D01*
X166473000Y-110888279D01*
X166473000Y-110467721D01*
X166390953Y-110055244D01*
X166230012Y-109666698D01*
X165996363Y-109317017D01*
X165698983Y-109019637D01*
X165349302Y-108785988D01*
X164960756Y-108625047D01*
X164548279Y-108543000D01*
X164127721Y-108543000D01*
X163715244Y-108625047D01*
X163326698Y-108785988D01*
X162977017Y-109019637D01*
X162679637Y-109317017D01*
X162445988Y-109666698D01*
X162285047Y-110055244D01*
X162203000Y-110467721D01*
X158270701Y-110467721D01*
X158298736Y-110439686D01*
X158546066Y-110069531D01*
X158716429Y-109658238D01*
X158803280Y-109221611D01*
X158803280Y-108776429D01*
X158716429Y-108339802D01*
X158546066Y-107928509D01*
X158526466Y-107899175D01*
X158571164Y-107894773D01*
X158809523Y-107822468D01*
X159029197Y-107705050D01*
X159221743Y-107547033D01*
X159379760Y-107354488D01*
X159497178Y-107134814D01*
X159569483Y-106896455D01*
X159587780Y-106710686D01*
X159587780Y-106637252D01*
X159648455Y-106711185D01*
X159745146Y-106790537D01*
X159855460Y-106849502D01*
X159975158Y-106885812D01*
X160099640Y-106898072D01*
X161799640Y-106898072D01*
X161924122Y-106885812D01*
X162043820Y-106849502D01*
X162154134Y-106790537D01*
X162250825Y-106711185D01*
X162330177Y-106614494D01*
X162389142Y-106504180D01*
X162425452Y-106384482D01*
X162437712Y-106260000D01*
X162437712Y-104994999D01*
X164539838Y-104994999D01*
X164588431Y-105043592D01*
X164544640Y-105263740D01*
X164544640Y-105556260D01*
X164601708Y-105843158D01*
X164713650Y-106113411D01*
X164876165Y-106356632D01*
X165083008Y-106563475D01*
X165326229Y-106725990D01*
X165596482Y-106837932D01*
X165883380Y-106895000D01*
X166175900Y-106895000D01*
X166462798Y-106837932D01*
X166733051Y-106725990D01*
X166976272Y-106563475D01*
X167183115Y-106356632D01*
X167299640Y-106182240D01*
X167416165Y-106356632D01*
X167623008Y-106563475D01*
X167866229Y-106725990D01*
X168136482Y-106837932D01*
X168423380Y-106895000D01*
X168715900Y-106895000D01*
X169002798Y-106837932D01*
X169273051Y-106725990D01*
X169516272Y-106563475D01*
X169723115Y-106356632D01*
X169885630Y-106113411D01*
X169997572Y-105843158D01*
X170054640Y-105556260D01*
X170054640Y-105263740D01*
X169997572Y-104976842D01*
X169885630Y-104706589D01*
X169723115Y-104463368D01*
X169516272Y-104256525D01*
X169341880Y-104140000D01*
X169516272Y-104023475D01*
X169723115Y-103816632D01*
X169885630Y-103573411D01*
X169997572Y-103303158D01*
X170054640Y-103016260D01*
X170054640Y-102723740D01*
X169997572Y-102436842D01*
X169885630Y-102166589D01*
X169723115Y-101923368D01*
X169516272Y-101716525D01*
X169273051Y-101554010D01*
X169002798Y-101442068D01*
X168715900Y-101385000D01*
X168423380Y-101385000D01*
X168136482Y-101442068D01*
X167866229Y-101554010D01*
X167623008Y-101716525D01*
X167416165Y-101923368D01*
X167299640Y-102097760D01*
X167183115Y-101923368D01*
X166976272Y-101716525D01*
X166733051Y-101554010D01*
X166462798Y-101442068D01*
X166175900Y-101385000D01*
X165883380Y-101385000D01*
X165596482Y-101442068D01*
X165326229Y-101554010D01*
X165083008Y-101716525D01*
X164876165Y-101923368D01*
X164713650Y-102166589D01*
X164601708Y-102436842D01*
X164544640Y-102723740D01*
X164544640Y-103016260D01*
X164601708Y-103303158D01*
X164672887Y-103474999D01*
X162437712Y-103474999D01*
X162437712Y-102020000D01*
X162425452Y-101895518D01*
X162389142Y-101775820D01*
X162330177Y-101665506D01*
X162250825Y-101568815D01*
X162154134Y-101489463D01*
X162043820Y-101430498D01*
X161924122Y-101394188D01*
X161799640Y-101381928D01*
X160099640Y-101381928D01*
X159975158Y-101394188D01*
X159855460Y-101430498D01*
X159745146Y-101489463D01*
X159648455Y-101568815D01*
X159569103Y-101665506D01*
X159510138Y-101775820D01*
X159473828Y-101895518D01*
X159461568Y-102020000D01*
X159461568Y-103474999D01*
X154184363Y-103474999D01*
X153802384Y-103093021D01*
X153778582Y-103064018D01*
X153662857Y-102969045D01*
X153530828Y-102898473D01*
X153387567Y-102855016D01*
X153275914Y-102844019D01*
X153275903Y-102844019D01*
X153238581Y-102840343D01*
X153201259Y-102844019D01*
X151837786Y-102844019D01*
X151924771Y-102772632D01*
X151948574Y-102743628D01*
X157067908Y-97624296D01*
X157096901Y-97600502D01*
X157120695Y-97571509D01*
X157120699Y-97571505D01*
X157181224Y-97497754D01*
X157191874Y-97484777D01*
X157262446Y-97352748D01*
X157305903Y-97209487D01*
X157316900Y-97097834D01*
X157316900Y-97097825D01*
X157320576Y-97060502D01*
X157316900Y-97023179D01*
X157316900Y-94742324D01*
X157371402Y-94640360D01*
X157407712Y-94520662D01*
X157419972Y-94396180D01*
X157419972Y-94074052D01*
X157931921Y-94586001D01*
X157955720Y-94615000D01*
X157984718Y-94638798D01*
X158071444Y-94709973D01*
X158203474Y-94780545D01*
X158346735Y-94824002D01*
X158458388Y-94834999D01*
X158458398Y-94834999D01*
X158495721Y-94838675D01*
X158533044Y-94834999D01*
X159461568Y-94834999D01*
X159461568Y-96100000D01*
X159473828Y-96224482D01*
X159510138Y-96344180D01*
X159569103Y-96454494D01*
X159622862Y-96520000D01*
X159569103Y-96585506D01*
X159510138Y-96695820D01*
X159473828Y-96815518D01*
X159461568Y-96940000D01*
X159461568Y-98640000D01*
X159473828Y-98764482D01*
X159510138Y-98884180D01*
X159569103Y-98994494D01*
X159648455Y-99091185D01*
X159745146Y-99170537D01*
X159855460Y-99229502D01*
X159975158Y-99265812D01*
X160099640Y-99278072D01*
X161799640Y-99278072D01*
X161924122Y-99265812D01*
X162043820Y-99229502D01*
X162154134Y-99170537D01*
X162250825Y-99091185D01*
X162330177Y-98994494D01*
X162389142Y-98884180D01*
X162425452Y-98764482D01*
X162437712Y-98640000D01*
X162437712Y-96940000D01*
X162425452Y-96815518D01*
X162389142Y-96695820D01*
X162330177Y-96585506D01*
X162276418Y-96520000D01*
X162330177Y-96454494D01*
X162389142Y-96344180D01*
X162425452Y-96224482D01*
X162437712Y-96100000D01*
X162437712Y-94834999D01*
X164539838Y-94834999D01*
X164588431Y-94883592D01*
X164544640Y-95103740D01*
X164544640Y-95396260D01*
X164601708Y-95683158D01*
X164713650Y-95953411D01*
X164876165Y-96196632D01*
X165083008Y-96403475D01*
X165257400Y-96520000D01*
X165083008Y-96636525D01*
X164876165Y-96843368D01*
X164713650Y-97086589D01*
X164601708Y-97356842D01*
X164544640Y-97643740D01*
X164544640Y-97936260D01*
X164601708Y-98223158D01*
X164713650Y-98493411D01*
X164876165Y-98736632D01*
X165083008Y-98943475D01*
X165326229Y-99105990D01*
X165596482Y-99217932D01*
X165883380Y-99275000D01*
X166175900Y-99275000D01*
X166462798Y-99217932D01*
X166733051Y-99105990D01*
X166976272Y-98943475D01*
X167183115Y-98736632D01*
X167299640Y-98562240D01*
X167416165Y-98736632D01*
X167623008Y-98943475D01*
X167866229Y-99105990D01*
X168136482Y-99217932D01*
X168423380Y-99275000D01*
X168715900Y-99275000D01*
X169002798Y-99217932D01*
X169273051Y-99105990D01*
X169516272Y-98943475D01*
X169723115Y-98736632D01*
X169885630Y-98493411D01*
X169997572Y-98223158D01*
X170054640Y-97936260D01*
X170054640Y-97643740D01*
X169997572Y-97356842D01*
X169885630Y-97086589D01*
X169723115Y-96843368D01*
X169516272Y-96636525D01*
X169341880Y-96520000D01*
X169516272Y-96403475D01*
X169723115Y-96196632D01*
X169885630Y-95953411D01*
X169997572Y-95683158D01*
X170054640Y-95396260D01*
X170054640Y-95103740D01*
X169997572Y-94816842D01*
X169885630Y-94546589D01*
X169723115Y-94303368D01*
X169516272Y-94096525D01*
X169341880Y-93980000D01*
X169516272Y-93863475D01*
X169723115Y-93656632D01*
X169885630Y-93413411D01*
X169997572Y-93143158D01*
X170054640Y-92856260D01*
X170054640Y-92563740D01*
X169997572Y-92276842D01*
X169885630Y-92006589D01*
X169723115Y-91763368D01*
X169516272Y-91556525D01*
X169341880Y-91440000D01*
X169516272Y-91323475D01*
X169723115Y-91116632D01*
X169885630Y-90873411D01*
X169997572Y-90603158D01*
X170054640Y-90316260D01*
X170054640Y-90023740D01*
X169997572Y-89736842D01*
X169885630Y-89466589D01*
X169723115Y-89223368D01*
X169516272Y-89016525D01*
X169273051Y-88854010D01*
X169002798Y-88742068D01*
X168715900Y-88685000D01*
X168423380Y-88685000D01*
X168136482Y-88742068D01*
X167866229Y-88854010D01*
X167787560Y-88906575D01*
X167744642Y-88854280D01*
X167715644Y-88830482D01*
X164934881Y-86049720D01*
X171245625Y-86049720D01*
X171335001Y-86058960D01*
X171391338Y-86076294D01*
X171443234Y-86104240D01*
X171488715Y-86141736D01*
X171526044Y-86187346D01*
X171553803Y-86239340D01*
X171570937Y-86295742D01*
X171579951Y-86386096D01*
X171590152Y-110638186D01*
X171522036Y-111332885D01*
X171329620Y-111970196D01*
X171017084Y-112557991D01*
X170596331Y-113073886D01*
X170083378Y-113498237D01*
X169497781Y-113814868D01*
X168861825Y-114011730D01*
X168169575Y-114084488D01*
X168152630Y-114084500D01*
X136684278Y-114084500D01*
X135991442Y-114016567D01*
X135356042Y-113824728D01*
X134770009Y-113513130D01*
X134255653Y-113093630D01*
X133832581Y-112582225D01*
X133516897Y-111998378D01*
X133320625Y-111364330D01*
X133248000Y-110673345D01*
X133248000Y-110467721D01*
X134503000Y-110467721D01*
X134503000Y-110888279D01*
X134585047Y-111300756D01*
X134745988Y-111689302D01*
X134979637Y-112038983D01*
X135277017Y-112336363D01*
X135626698Y-112570012D01*
X136015244Y-112730953D01*
X136427721Y-112813000D01*
X136848279Y-112813000D01*
X137260756Y-112730953D01*
X137649302Y-112570012D01*
X137998983Y-112336363D01*
X138296363Y-112038983D01*
X138530012Y-111689302D01*
X138690953Y-111300756D01*
X138773000Y-110888279D01*
X138773000Y-110467721D01*
X138690953Y-110055244D01*
X138530012Y-109666698D01*
X138296363Y-109317017D01*
X137998983Y-109019637D01*
X137649302Y-108785988D01*
X137260756Y-108625047D01*
X136848279Y-108543000D01*
X136427721Y-108543000D01*
X136015244Y-108625047D01*
X135626698Y-108785988D01*
X135277017Y-109019637D01*
X134979637Y-109317017D01*
X134745988Y-109666698D01*
X134585047Y-110055244D01*
X134503000Y-110467721D01*
X133248000Y-110467721D01*
X133248000Y-104625767D01*
X133288013Y-104658605D01*
X133441549Y-104740672D01*
X133608145Y-104791208D01*
X133781399Y-104808272D01*
X134481401Y-104808272D01*
X134654655Y-104791208D01*
X134821251Y-104740672D01*
X134974787Y-104658605D01*
X135109362Y-104548162D01*
X135219805Y-104413587D01*
X135301872Y-104260051D01*
X135352408Y-104093455D01*
X135369472Y-103920201D01*
X135369472Y-102620199D01*
X135352408Y-102446945D01*
X135301872Y-102280349D01*
X135219805Y-102126813D01*
X135109362Y-101992238D01*
X134974787Y-101881795D01*
X134821251Y-101799728D01*
X134654655Y-101749192D01*
X134481401Y-101732128D01*
X133781399Y-101732128D01*
X133608145Y-101749192D01*
X133441549Y-101799728D01*
X133288013Y-101881795D01*
X133248000Y-101914633D01*
X133248000Y-99084012D01*
X133262613Y-99096005D01*
X133416149Y-99178072D01*
X133582745Y-99228608D01*
X133755999Y-99245672D01*
X134456001Y-99245672D01*
X134629255Y-99228608D01*
X134795851Y-99178072D01*
X134949387Y-99096005D01*
X135083962Y-98985562D01*
X135194405Y-98850987D01*
X135276472Y-98697451D01*
X135327008Y-98530855D01*
X135344072Y-98357601D01*
X135344072Y-97057599D01*
X135327008Y-96884345D01*
X135276472Y-96717749D01*
X135194405Y-96564213D01*
X135083962Y-96429638D01*
X134949387Y-96319195D01*
X134795851Y-96237128D01*
X134629255Y-96186592D01*
X134456001Y-96169528D01*
X133755999Y-96169528D01*
X133582745Y-96186592D01*
X133416149Y-96237128D01*
X133262613Y-96319195D01*
X133248000Y-96331188D01*
X133248000Y-92811261D01*
X134402880Y-92811261D01*
X134402880Y-93015139D01*
X134442654Y-93215098D01*
X134520675Y-93403456D01*
X134633943Y-93572974D01*
X134778106Y-93717137D01*
X134947624Y-93830405D01*
X135135982Y-93908426D01*
X135335941Y-93948200D01*
X135539819Y-93948200D01*
X135636308Y-93929007D01*
X135636308Y-94092160D01*
X135648568Y-94216642D01*
X135684878Y-94336340D01*
X135743843Y-94446654D01*
X135823195Y-94543345D01*
X135919886Y-94622697D01*
X136030200Y-94681662D01*
X136149898Y-94717972D01*
X136274380Y-94730232D01*
X137014380Y-94730232D01*
X137138862Y-94717972D01*
X137258560Y-94681662D01*
X137368874Y-94622697D01*
X137465565Y-94543345D01*
X137544917Y-94446654D01*
X137603882Y-94336340D01*
X137640192Y-94216642D01*
X137652452Y-94092160D01*
X137652452Y-91692160D01*
X139446308Y-91692160D01*
X139446308Y-94092160D01*
X139458568Y-94216642D01*
X139494878Y-94336340D01*
X139553843Y-94446654D01*
X139633195Y-94543345D01*
X139729886Y-94622697D01*
X139840200Y-94681662D01*
X139959898Y-94717972D01*
X140084380Y-94730232D01*
X140824380Y-94730232D01*
X140948862Y-94717972D01*
X141068560Y-94681662D01*
X141178874Y-94622697D01*
X141275565Y-94543345D01*
X141354917Y-94446654D01*
X141413882Y-94336340D01*
X141450192Y-94216642D01*
X141462452Y-94092160D01*
X141462452Y-91692160D01*
X141450192Y-91567678D01*
X141413882Y-91447980D01*
X141354917Y-91337666D01*
X141275565Y-91240975D01*
X141178874Y-91161623D01*
X141068560Y-91102658D01*
X140948862Y-91066348D01*
X140824380Y-91054088D01*
X140084380Y-91054088D01*
X139959898Y-91066348D01*
X139840200Y-91102658D01*
X139729886Y-91161623D01*
X139633195Y-91240975D01*
X139553843Y-91337666D01*
X139494878Y-91447980D01*
X139458568Y-91567678D01*
X139446308Y-91692160D01*
X137652452Y-91692160D01*
X137640192Y-91567678D01*
X137603882Y-91447980D01*
X137544917Y-91337666D01*
X137465565Y-91240975D01*
X137368874Y-91161623D01*
X137258560Y-91102658D01*
X137138862Y-91066348D01*
X137014380Y-91054088D01*
X136274380Y-91054088D01*
X136149898Y-91066348D01*
X136030200Y-91102658D01*
X135919886Y-91161623D01*
X135823195Y-91240975D01*
X135743843Y-91337666D01*
X135684878Y-91447980D01*
X135648568Y-91567678D01*
X135636308Y-91692160D01*
X135636308Y-91897393D01*
X135539819Y-91878200D01*
X135335941Y-91878200D01*
X135135982Y-91917974D01*
X134947624Y-91995995D01*
X134778106Y-92109263D01*
X134633943Y-92253426D01*
X134520675Y-92422944D01*
X134442654Y-92611302D01*
X134402880Y-92811261D01*
X133248000Y-92811261D01*
X133248000Y-86326977D01*
X133255430Y-86246437D01*
X133268630Y-86201791D01*
X133290250Y-86160560D01*
X133319465Y-86124316D01*
X133355162Y-86094437D01*
X133395987Y-86072059D01*
X133440380Y-86058037D01*
X133515359Y-86049720D01*
X137062018Y-86049720D01*
X136133383Y-86978356D01*
G37*
X136133383Y-86978356D02*
X136104379Y-87002159D01*
X136063963Y-87051407D01*
X136009406Y-87117884D01*
X135970362Y-87190930D01*
X135938834Y-87249914D01*
X135938262Y-87251801D01*
X135919886Y-87261623D01*
X135823195Y-87340975D01*
X135743843Y-87437666D01*
X135684878Y-87547980D01*
X135648568Y-87667678D01*
X135636308Y-87792160D01*
X135636308Y-90192160D01*
X135648568Y-90316642D01*
X135684878Y-90436340D01*
X135743843Y-90546654D01*
X135823195Y-90643345D01*
X135919886Y-90722697D01*
X136030200Y-90781662D01*
X136149898Y-90817972D01*
X136274380Y-90830232D01*
X137014380Y-90830232D01*
X137138862Y-90817972D01*
X137258560Y-90781662D01*
X137279380Y-90770533D01*
X137300200Y-90781662D01*
X137419898Y-90817972D01*
X137544380Y-90830232D01*
X138284380Y-90830232D01*
X138408862Y-90817972D01*
X138528560Y-90781662D01*
X138549380Y-90770533D01*
X138570200Y-90781662D01*
X138689898Y-90817972D01*
X138814380Y-90830232D01*
X139554380Y-90830232D01*
X139678862Y-90817972D01*
X139798560Y-90781662D01*
X139819380Y-90770533D01*
X139840200Y-90781662D01*
X139959898Y-90817972D01*
X140084380Y-90830232D01*
X140824380Y-90830232D01*
X140948862Y-90817972D01*
X141068560Y-90781662D01*
X141089380Y-90770533D01*
X141110200Y-90781662D01*
X141229898Y-90817972D01*
X141354380Y-90830232D01*
X142094380Y-90830232D01*
X142218862Y-90817972D01*
X142338560Y-90781662D01*
X142448874Y-90722697D01*
X142545565Y-90643345D01*
X142624917Y-90546654D01*
X142683882Y-90436340D01*
X142720192Y-90316642D01*
X142732452Y-90192160D01*
X142732452Y-89752160D01*
X143246379Y-89752160D01*
X144942336Y-91448118D01*
X144896768Y-91533370D01*
X144846232Y-91699966D01*
X144829168Y-91873220D01*
X144829168Y-92373220D01*
X144846232Y-92546474D01*
X144896768Y-92713070D01*
X144978835Y-92866606D01*
X145089278Y-93001182D01*
X145223854Y-93111625D01*
X145377390Y-93193692D01*
X145543986Y-93244228D01*
X145717240Y-93261292D01*
X146255510Y-93261292D01*
X146374711Y-93380492D01*
X146398509Y-93409491D01*
X146427507Y-93433289D01*
X146514233Y-93504464D01*
X146571358Y-93534998D01*
X146646263Y-93575036D01*
X146789524Y-93618493D01*
X146901177Y-93629490D01*
X146901186Y-93629490D01*
X146938509Y-93633166D01*
X146975832Y-93629490D01*
X149161718Y-93629490D01*
X149199040Y-93633166D01*
X149236362Y-93629490D01*
X149236373Y-93629490D01*
X149348026Y-93618493D01*
X149491287Y-93575036D01*
X149623316Y-93504464D01*
X149739041Y-93409491D01*
X149762843Y-93380488D01*
X149843828Y-93299503D01*
X149843828Y-93959450D01*
X148209871Y-95593408D01*
X147902939Y-95593408D01*
X147729685Y-95610472D01*
X147563089Y-95661008D01*
X147409553Y-95743075D01*
X147274978Y-95853518D01*
X147164535Y-95988093D01*
X147082468Y-96141629D01*
X147031932Y-96308225D01*
X147014868Y-96481479D01*
X147014868Y-96494750D01*
X144037019Y-99472600D01*
X139330775Y-99472600D01*
X139328929Y-99453855D01*
X139284084Y-99306018D01*
X139246039Y-99234842D01*
X139355999Y-99245672D01*
X140056001Y-99245672D01*
X140229255Y-99228608D01*
X140395851Y-99178072D01*
X140549387Y-99096005D01*
X140683962Y-98985562D01*
X140794405Y-98850987D01*
X140876472Y-98697451D01*
X140927008Y-98530855D01*
X140944072Y-98357601D01*
X140944072Y-97057599D01*
X140927008Y-96884345D01*
X140876472Y-96717749D01*
X140794405Y-96564213D01*
X140683962Y-96429638D01*
X140549387Y-96319195D01*
X140395851Y-96237128D01*
X140229255Y-96186592D01*
X140056001Y-96169528D01*
X139355999Y-96169528D01*
X139182745Y-96186592D01*
X139016149Y-96237128D01*
X138862613Y-96319195D01*
X138728038Y-96429638D01*
X138617595Y-96564213D01*
X138535528Y-96717749D01*
X138484992Y-96884345D01*
X138467928Y-97057599D01*
X138467928Y-98357601D01*
X138484992Y-98530855D01*
X138535528Y-98697451D01*
X138603268Y-98824184D01*
X138556000Y-98819528D01*
X138256000Y-98819528D01*
X138102255Y-98834671D01*
X137954418Y-98879516D01*
X137906000Y-98905396D01*
X137857582Y-98879516D01*
X137709745Y-98834671D01*
X137556000Y-98819528D01*
X137477709Y-98819528D01*
X137496500Y-98725059D01*
X137496500Y-98521181D01*
X137456726Y-98321222D01*
X137378705Y-98132864D01*
X137265437Y-97963346D01*
X137121274Y-97819183D01*
X136951756Y-97705915D01*
X136763398Y-97627894D01*
X136563439Y-97588120D01*
X136359561Y-97588120D01*
X136159602Y-97627894D01*
X135971244Y-97705915D01*
X135801726Y-97819183D01*
X135657563Y-97963346D01*
X135544295Y-98132864D01*
X135466274Y-98321222D01*
X135426500Y-98521181D01*
X135426500Y-98725059D01*
X135466274Y-98925018D01*
X135544295Y-99113376D01*
X135592402Y-99185374D01*
X135527916Y-99306018D01*
X135483071Y-99453855D01*
X135467928Y-99607600D01*
X135467928Y-100857600D01*
X135483071Y-101011345D01*
X135527916Y-101159182D01*
X135600742Y-101295429D01*
X135698749Y-101414851D01*
X135818171Y-101512858D01*
X135954418Y-101585684D01*
X136102255Y-101630529D01*
X136256000Y-101645672D01*
X136556000Y-101645672D01*
X136709745Y-101630529D01*
X136857582Y-101585684D01*
X136890781Y-101567939D01*
X136895003Y-101571404D01*
X137167206Y-101843607D01*
X137191009Y-101872611D01*
X137306734Y-101967584D01*
X137352858Y-101992238D01*
X137438763Y-102038156D01*
X137582024Y-102081613D01*
X137731010Y-102096287D01*
X137768343Y-102092610D01*
X138671065Y-102092610D01*
X138642995Y-102126813D01*
X138560928Y-102280349D01*
X138510392Y-102446945D01*
X138493328Y-102620199D01*
X138493328Y-103735210D01*
X137993713Y-103735210D01*
X137956390Y-103731534D01*
X137919067Y-103735210D01*
X137919057Y-103735210D01*
X137807404Y-103746207D01*
X137664143Y-103789664D01*
X137532113Y-103860236D01*
X137488055Y-103896394D01*
X137422642Y-103950078D01*
X137405926Y-103866042D01*
X137327905Y-103677684D01*
X137214637Y-103508166D01*
X137070474Y-103364003D01*
X136900956Y-103250735D01*
X136712598Y-103172714D01*
X136512639Y-103132940D01*
X136308761Y-103132940D01*
X136108802Y-103172714D01*
X135920444Y-103250735D01*
X135750926Y-103364003D01*
X135606763Y-103508166D01*
X135493495Y-103677684D01*
X135415474Y-103866042D01*
X135375700Y-104066001D01*
X135375700Y-104269879D01*
X135415474Y-104469838D01*
X135493495Y-104658196D01*
X135589216Y-104801454D01*
X135553316Y-104868618D01*
X135508471Y-105016455D01*
X135493328Y-105170200D01*
X135493328Y-106420200D01*
X135508471Y-106573945D01*
X135553316Y-106721782D01*
X135626142Y-106858029D01*
X135724149Y-106977451D01*
X135843571Y-107075458D01*
X135979818Y-107148284D01*
X136127655Y-107193129D01*
X136281400Y-107208272D01*
X136581400Y-107208272D01*
X136735145Y-107193129D01*
X136882982Y-107148284D01*
X136931400Y-107122404D01*
X136979818Y-107148284D01*
X137127655Y-107193129D01*
X137281400Y-107208272D01*
X137581400Y-107208272D01*
X137735145Y-107193129D01*
X137882982Y-107148284D01*
X137931400Y-107122404D01*
X137979818Y-107148284D01*
X138127655Y-107193129D01*
X138281400Y-107208272D01*
X138581400Y-107208272D01*
X138735145Y-107193129D01*
X138882982Y-107148284D01*
X139019229Y-107075458D01*
X139138651Y-106977451D01*
X139236658Y-106858029D01*
X139309484Y-106721782D01*
X139354329Y-106573945D01*
X139356175Y-106555200D01*
X139618679Y-106555200D01*
X139656001Y-106558876D01*
X139693323Y-106555200D01*
X139693334Y-106555200D01*
X139804987Y-106544203D01*
X139948248Y-106500746D01*
X140080277Y-106430174D01*
X140196002Y-106335201D01*
X140219805Y-106306197D01*
X140798780Y-105727222D01*
X140798780Y-106710685D01*
X140817077Y-106896454D01*
X140889382Y-107134813D01*
X141006800Y-107354487D01*
X141164817Y-107547033D01*
X141357362Y-107705050D01*
X141577036Y-107822468D01*
X141815395Y-107894773D01*
X141860094Y-107899176D01*
X141840494Y-107928509D01*
X141670131Y-108339802D01*
X141583280Y-108776429D01*
X141583280Y-109221611D01*
X141670131Y-109658238D01*
X141840494Y-110069531D01*
X142087824Y-110439686D01*
X142402614Y-110754476D01*
X142772769Y-111001806D01*
X143184062Y-111172169D01*
X143620689Y-111259020D01*
X144065871Y-111259020D01*
X144502498Y-111172169D01*
X144913791Y-111001806D01*
X145283946Y-110754476D01*
X145598736Y-110439686D01*
X145846066Y-110069531D01*
X146016429Y-109658238D01*
X146103280Y-109221611D01*
X146103280Y-108776429D01*
X146016429Y-108339802D01*
X145846066Y-107928509D01*
X145598736Y-107558354D01*
X145283946Y-107243564D01*
X144913791Y-106996234D01*
X144502498Y-106825871D01*
X144065871Y-106739020D01*
X143620689Y-106739020D01*
X143319080Y-106799014D01*
X143327780Y-106710686D01*
X143327780Y-105483454D01*
X143309483Y-105297685D01*
X143237178Y-105059326D01*
X143119760Y-104839652D01*
X142961743Y-104647107D01*
X142769198Y-104489090D01*
X142549524Y-104371672D01*
X142311165Y-104299367D01*
X142234215Y-104291788D01*
X143533373Y-102992631D01*
X143806063Y-102992631D01*
X143770400Y-103171921D01*
X143770400Y-103375799D01*
X143810174Y-103575758D01*
X143888195Y-103764116D01*
X144001463Y-103933634D01*
X144045400Y-103977571D01*
X144045401Y-105165510D01*
X144041724Y-105202842D01*
X144056398Y-105351827D01*
X144099854Y-105495088D01*
X144170426Y-105627118D01*
X144232083Y-105702246D01*
X144265400Y-105742843D01*
X144294398Y-105766641D01*
X146572780Y-108045024D01*
X146596578Y-108074022D01*
X146625576Y-108097820D01*
X146712302Y-108168995D01*
X146844332Y-108239567D01*
X146987593Y-108283024D01*
X147099246Y-108294021D01*
X147099256Y-108294021D01*
X147136579Y-108297697D01*
X147173902Y-108294021D01*
X148570257Y-108294021D01*
X148607579Y-108297697D01*
X148644901Y-108294021D01*
X148644912Y-108294021D01*
X148756565Y-108283024D01*
X148899826Y-108239567D01*
X149031855Y-108168995D01*
X149147580Y-108074022D01*
X149171383Y-108045018D01*
X149401214Y-107815187D01*
X149546169Y-107844020D01*
X149818991Y-107844020D01*
X150086569Y-107790795D01*
X150338623Y-107686391D01*
X150565466Y-107534819D01*
X150697580Y-107402705D01*
X150829694Y-107534819D01*
X151056537Y-107686391D01*
X151308591Y-107790795D01*
X151576169Y-107844020D01*
X151848991Y-107844020D01*
X152116569Y-107790795D01*
X152368623Y-107686391D01*
X152595466Y-107534819D01*
X152788379Y-107341906D01*
X152939951Y-107115063D01*
X153044355Y-106863009D01*
X153097580Y-106595431D01*
X153097580Y-106322609D01*
X153044355Y-106055031D01*
X153033685Y-106029271D01*
X153126569Y-106010795D01*
X153378623Y-105906391D01*
X153605466Y-105754819D01*
X153798379Y-105561906D01*
X153949951Y-105335063D01*
X154054355Y-105083009D01*
X154071861Y-104994999D01*
X157183765Y-104994999D01*
X157149382Y-105059326D01*
X157077077Y-105297685D01*
X157058780Y-105483454D01*
X157058780Y-106710685D01*
X157067480Y-106799014D01*
X156765871Y-106739020D01*
X156320689Y-106739020D01*
X155884062Y-106825871D01*
X155472769Y-106996234D01*
X155102614Y-107243564D01*
X154787824Y-107558354D01*
X154540494Y-107928509D01*
X154370131Y-108339802D01*
X154283280Y-108776429D01*
X154283280Y-109221611D01*
X154370131Y-109658238D01*
X154540494Y-110069531D01*
X154787824Y-110439686D01*
X155102614Y-110754476D01*
X155472769Y-111001806D01*
X155884062Y-111172169D01*
X156320689Y-111259020D01*
X156765871Y-111259020D01*
X157202498Y-111172169D01*
X157613791Y-111001806D01*
X157983946Y-110754476D01*
X158270701Y-110467721D01*
X162203000Y-110467721D01*
X162203000Y-110888279D01*
X162285047Y-111300756D01*
X162445988Y-111689302D01*
X162679637Y-112038983D01*
X162977017Y-112336363D01*
X163326698Y-112570012D01*
X163715244Y-112730953D01*
X164127721Y-112813000D01*
X164548279Y-112813000D01*
X164960756Y-112730953D01*
X165349302Y-112570012D01*
X165698983Y-112336363D01*
X165996363Y-112038983D01*
X166230012Y-111689302D01*
X166390953Y-111300756D01*
X166473000Y-110888279D01*
X166473000Y-110467721D01*
X166390953Y-110055244D01*
X166230012Y-109666698D01*
X165996363Y-109317017D01*
X165698983Y-109019637D01*
X165349302Y-108785988D01*
X164960756Y-108625047D01*
X164548279Y-108543000D01*
X164127721Y-108543000D01*
X163715244Y-108625047D01*
X163326698Y-108785988D01*
X162977017Y-109019637D01*
X162679637Y-109317017D01*
X162445988Y-109666698D01*
X162285047Y-110055244D01*
X162203000Y-110467721D01*
X158270701Y-110467721D01*
X158298736Y-110439686D01*
X158546066Y-110069531D01*
X158716429Y-109658238D01*
X158803280Y-109221611D01*
X158803280Y-108776429D01*
X158716429Y-108339802D01*
X158546066Y-107928509D01*
X158526466Y-107899175D01*
X158571164Y-107894773D01*
X158809523Y-107822468D01*
X159029197Y-107705050D01*
X159221743Y-107547033D01*
X159379760Y-107354488D01*
X159497178Y-107134814D01*
X159569483Y-106896455D01*
X159587780Y-106710686D01*
X159587780Y-106637252D01*
X159648455Y-106711185D01*
X159745146Y-106790537D01*
X159855460Y-106849502D01*
X159975158Y-106885812D01*
X160099640Y-106898072D01*
X161799640Y-106898072D01*
X161924122Y-106885812D01*
X162043820Y-106849502D01*
X162154134Y-106790537D01*
X162250825Y-106711185D01*
X162330177Y-106614494D01*
X162389142Y-106504180D01*
X162425452Y-106384482D01*
X162437712Y-106260000D01*
X162437712Y-104994999D01*
X164539838Y-104994999D01*
X164588431Y-105043592D01*
X164544640Y-105263740D01*
X164544640Y-105556260D01*
X164601708Y-105843158D01*
X164713650Y-106113411D01*
X164876165Y-106356632D01*
X165083008Y-106563475D01*
X165326229Y-106725990D01*
X165596482Y-106837932D01*
X165883380Y-106895000D01*
X166175900Y-106895000D01*
X166462798Y-106837932D01*
X166733051Y-106725990D01*
X166976272Y-106563475D01*
X167183115Y-106356632D01*
X167299640Y-106182240D01*
X167416165Y-106356632D01*
X167623008Y-106563475D01*
X167866229Y-106725990D01*
X168136482Y-106837932D01*
X168423380Y-106895000D01*
X168715900Y-106895000D01*
X169002798Y-106837932D01*
X169273051Y-106725990D01*
X169516272Y-106563475D01*
X169723115Y-106356632D01*
X169885630Y-106113411D01*
X169997572Y-105843158D01*
X170054640Y-105556260D01*
X170054640Y-105263740D01*
X169997572Y-104976842D01*
X169885630Y-104706589D01*
X169723115Y-104463368D01*
X169516272Y-104256525D01*
X169341880Y-104140000D01*
X169516272Y-104023475D01*
X169723115Y-103816632D01*
X169885630Y-103573411D01*
X169997572Y-103303158D01*
X170054640Y-103016260D01*
X170054640Y-102723740D01*
X169997572Y-102436842D01*
X169885630Y-102166589D01*
X169723115Y-101923368D01*
X169516272Y-101716525D01*
X169273051Y-101554010D01*
X169002798Y-101442068D01*
X168715900Y-101385000D01*
X168423380Y-101385000D01*
X168136482Y-101442068D01*
X167866229Y-101554010D01*
X167623008Y-101716525D01*
X167416165Y-101923368D01*
X167299640Y-102097760D01*
X167183115Y-101923368D01*
X166976272Y-101716525D01*
X166733051Y-101554010D01*
X166462798Y-101442068D01*
X166175900Y-101385000D01*
X165883380Y-101385000D01*
X165596482Y-101442068D01*
X165326229Y-101554010D01*
X165083008Y-101716525D01*
X164876165Y-101923368D01*
X164713650Y-102166589D01*
X164601708Y-102436842D01*
X164544640Y-102723740D01*
X164544640Y-103016260D01*
X164601708Y-103303158D01*
X164672887Y-103474999D01*
X162437712Y-103474999D01*
X162437712Y-102020000D01*
X162425452Y-101895518D01*
X162389142Y-101775820D01*
X162330177Y-101665506D01*
X162250825Y-101568815D01*
X162154134Y-101489463D01*
X162043820Y-101430498D01*
X161924122Y-101394188D01*
X161799640Y-101381928D01*
X160099640Y-101381928D01*
X159975158Y-101394188D01*
X159855460Y-101430498D01*
X159745146Y-101489463D01*
X159648455Y-101568815D01*
X159569103Y-101665506D01*
X159510138Y-101775820D01*
X159473828Y-101895518D01*
X159461568Y-102020000D01*
X159461568Y-103474999D01*
X154184363Y-103474999D01*
X153802384Y-103093021D01*
X153778582Y-103064018D01*
X153662857Y-102969045D01*
X153530828Y-102898473D01*
X153387567Y-102855016D01*
X153275914Y-102844019D01*
X153275903Y-102844019D01*
X153238581Y-102840343D01*
X153201259Y-102844019D01*
X151837786Y-102844019D01*
X151924771Y-102772632D01*
X151948574Y-102743628D01*
X157067908Y-97624296D01*
X157096901Y-97600502D01*
X157120695Y-97571509D01*
X157120699Y-97571505D01*
X157181224Y-97497754D01*
X157191874Y-97484777D01*
X157262446Y-97352748D01*
X157305903Y-97209487D01*
X157316900Y-97097834D01*
X157316900Y-97097825D01*
X157320576Y-97060502D01*
X157316900Y-97023179D01*
X157316900Y-94742324D01*
X157371402Y-94640360D01*
X157407712Y-94520662D01*
X157419972Y-94396180D01*
X157419972Y-94074052D01*
X157931921Y-94586001D01*
X157955720Y-94615000D01*
X157984718Y-94638798D01*
X158071444Y-94709973D01*
X158203474Y-94780545D01*
X158346735Y-94824002D01*
X158458388Y-94834999D01*
X158458398Y-94834999D01*
X158495721Y-94838675D01*
X158533044Y-94834999D01*
X159461568Y-94834999D01*
X159461568Y-96100000D01*
X159473828Y-96224482D01*
X159510138Y-96344180D01*
X159569103Y-96454494D01*
X159622862Y-96520000D01*
X159569103Y-96585506D01*
X159510138Y-96695820D01*
X159473828Y-96815518D01*
X159461568Y-96940000D01*
X159461568Y-98640000D01*
X159473828Y-98764482D01*
X159510138Y-98884180D01*
X159569103Y-98994494D01*
X159648455Y-99091185D01*
X159745146Y-99170537D01*
X159855460Y-99229502D01*
X159975158Y-99265812D01*
X160099640Y-99278072D01*
X161799640Y-99278072D01*
X161924122Y-99265812D01*
X162043820Y-99229502D01*
X162154134Y-99170537D01*
X162250825Y-99091185D01*
X162330177Y-98994494D01*
X162389142Y-98884180D01*
X162425452Y-98764482D01*
X162437712Y-98640000D01*
X162437712Y-96940000D01*
X162425452Y-96815518D01*
X162389142Y-96695820D01*
X162330177Y-96585506D01*
X162276418Y-96520000D01*
X162330177Y-96454494D01*
X162389142Y-96344180D01*
X162425452Y-96224482D01*
X162437712Y-96100000D01*
X162437712Y-94834999D01*
X164539838Y-94834999D01*
X164588431Y-94883592D01*
X164544640Y-95103740D01*
X164544640Y-95396260D01*
X164601708Y-95683158D01*
X164713650Y-95953411D01*
X164876165Y-96196632D01*
X165083008Y-96403475D01*
X165257400Y-96520000D01*
X165083008Y-96636525D01*
X164876165Y-96843368D01*
X164713650Y-97086589D01*
X164601708Y-97356842D01*
X164544640Y-97643740D01*
X164544640Y-97936260D01*
X164601708Y-98223158D01*
X164713650Y-98493411D01*
X164876165Y-98736632D01*
X165083008Y-98943475D01*
X165326229Y-99105990D01*
X165596482Y-99217932D01*
X165883380Y-99275000D01*
X166175900Y-99275000D01*
X166462798Y-99217932D01*
X166733051Y-99105990D01*
X166976272Y-98943475D01*
X167183115Y-98736632D01*
X167299640Y-98562240D01*
X167416165Y-98736632D01*
X167623008Y-98943475D01*
X167866229Y-99105990D01*
X168136482Y-99217932D01*
X168423380Y-99275000D01*
X168715900Y-99275000D01*
X169002798Y-99217932D01*
X169273051Y-99105990D01*
X169516272Y-98943475D01*
X169723115Y-98736632D01*
X169885630Y-98493411D01*
X169997572Y-98223158D01*
X170054640Y-97936260D01*
X170054640Y-97643740D01*
X169997572Y-97356842D01*
X169885630Y-97086589D01*
X169723115Y-96843368D01*
X169516272Y-96636525D01*
X169341880Y-96520000D01*
X169516272Y-96403475D01*
X169723115Y-96196632D01*
X169885630Y-95953411D01*
X169997572Y-95683158D01*
X170054640Y-95396260D01*
X170054640Y-95103740D01*
X169997572Y-94816842D01*
X169885630Y-94546589D01*
X169723115Y-94303368D01*
X169516272Y-94096525D01*
X169341880Y-93980000D01*
X169516272Y-93863475D01*
X169723115Y-93656632D01*
X169885630Y-93413411D01*
X169997572Y-93143158D01*
X170054640Y-92856260D01*
X170054640Y-92563740D01*
X169997572Y-92276842D01*
X169885630Y-92006589D01*
X169723115Y-91763368D01*
X169516272Y-91556525D01*
X169341880Y-91440000D01*
X169516272Y-91323475D01*
X169723115Y-91116632D01*
X169885630Y-90873411D01*
X169997572Y-90603158D01*
X170054640Y-90316260D01*
X170054640Y-90023740D01*
X169997572Y-89736842D01*
X169885630Y-89466589D01*
X169723115Y-89223368D01*
X169516272Y-89016525D01*
X169273051Y-88854010D01*
X169002798Y-88742068D01*
X168715900Y-88685000D01*
X168423380Y-88685000D01*
X168136482Y-88742068D01*
X167866229Y-88854010D01*
X167787560Y-88906575D01*
X167744642Y-88854280D01*
X167715644Y-88830482D01*
X164934881Y-86049720D01*
X171245625Y-86049720D01*
X171335001Y-86058960D01*
X171391338Y-86076294D01*
X171443234Y-86104240D01*
X171488715Y-86141736D01*
X171526044Y-86187346D01*
X171553803Y-86239340D01*
X171570937Y-86295742D01*
X171579951Y-86386096D01*
X171590152Y-110638186D01*
X171522036Y-111332885D01*
X171329620Y-111970196D01*
X171017084Y-112557991D01*
X170596331Y-113073886D01*
X170083378Y-113498237D01*
X169497781Y-113814868D01*
X168861825Y-114011730D01*
X168169575Y-114084488D01*
X168152630Y-114084500D01*
X136684278Y-114084500D01*
X135991442Y-114016567D01*
X135356042Y-113824728D01*
X134770009Y-113513130D01*
X134255653Y-113093630D01*
X133832581Y-112582225D01*
X133516897Y-111998378D01*
X133320625Y-111364330D01*
X133248000Y-110673345D01*
X133248000Y-110467721D01*
X134503000Y-110467721D01*
X134503000Y-110888279D01*
X134585047Y-111300756D01*
X134745988Y-111689302D01*
X134979637Y-112038983D01*
X135277017Y-112336363D01*
X135626698Y-112570012D01*
X136015244Y-112730953D01*
X136427721Y-112813000D01*
X136848279Y-112813000D01*
X137260756Y-112730953D01*
X137649302Y-112570012D01*
X137998983Y-112336363D01*
X138296363Y-112038983D01*
X138530012Y-111689302D01*
X138690953Y-111300756D01*
X138773000Y-110888279D01*
X138773000Y-110467721D01*
X138690953Y-110055244D01*
X138530012Y-109666698D01*
X138296363Y-109317017D01*
X137998983Y-109019637D01*
X137649302Y-108785988D01*
X137260756Y-108625047D01*
X136848279Y-108543000D01*
X136427721Y-108543000D01*
X136015244Y-108625047D01*
X135626698Y-108785988D01*
X135277017Y-109019637D01*
X134979637Y-109317017D01*
X134745988Y-109666698D01*
X134585047Y-110055244D01*
X134503000Y-110467721D01*
X133248000Y-110467721D01*
X133248000Y-104625767D01*
X133288013Y-104658605D01*
X133441549Y-104740672D01*
X133608145Y-104791208D01*
X133781399Y-104808272D01*
X134481401Y-104808272D01*
X134654655Y-104791208D01*
X134821251Y-104740672D01*
X134974787Y-104658605D01*
X135109362Y-104548162D01*
X135219805Y-104413587D01*
X135301872Y-104260051D01*
X135352408Y-104093455D01*
X135369472Y-103920201D01*
X135369472Y-102620199D01*
X135352408Y-102446945D01*
X135301872Y-102280349D01*
X135219805Y-102126813D01*
X135109362Y-101992238D01*
X134974787Y-101881795D01*
X134821251Y-101799728D01*
X134654655Y-101749192D01*
X134481401Y-101732128D01*
X133781399Y-101732128D01*
X133608145Y-101749192D01*
X133441549Y-101799728D01*
X133288013Y-101881795D01*
X133248000Y-101914633D01*
X133248000Y-99084012D01*
X133262613Y-99096005D01*
X133416149Y-99178072D01*
X133582745Y-99228608D01*
X133755999Y-99245672D01*
X134456001Y-99245672D01*
X134629255Y-99228608D01*
X134795851Y-99178072D01*
X134949387Y-99096005D01*
X135083962Y-98985562D01*
X135194405Y-98850987D01*
X135276472Y-98697451D01*
X135327008Y-98530855D01*
X135344072Y-98357601D01*
X135344072Y-97057599D01*
X135327008Y-96884345D01*
X135276472Y-96717749D01*
X135194405Y-96564213D01*
X135083962Y-96429638D01*
X134949387Y-96319195D01*
X134795851Y-96237128D01*
X134629255Y-96186592D01*
X134456001Y-96169528D01*
X133755999Y-96169528D01*
X133582745Y-96186592D01*
X133416149Y-96237128D01*
X133262613Y-96319195D01*
X133248000Y-96331188D01*
X133248000Y-92811261D01*
X134402880Y-92811261D01*
X134402880Y-93015139D01*
X134442654Y-93215098D01*
X134520675Y-93403456D01*
X134633943Y-93572974D01*
X134778106Y-93717137D01*
X134947624Y-93830405D01*
X135135982Y-93908426D01*
X135335941Y-93948200D01*
X135539819Y-93948200D01*
X135636308Y-93929007D01*
X135636308Y-94092160D01*
X135648568Y-94216642D01*
X135684878Y-94336340D01*
X135743843Y-94446654D01*
X135823195Y-94543345D01*
X135919886Y-94622697D01*
X136030200Y-94681662D01*
X136149898Y-94717972D01*
X136274380Y-94730232D01*
X137014380Y-94730232D01*
X137138862Y-94717972D01*
X137258560Y-94681662D01*
X137368874Y-94622697D01*
X137465565Y-94543345D01*
X137544917Y-94446654D01*
X137603882Y-94336340D01*
X137640192Y-94216642D01*
X137652452Y-94092160D01*
X137652452Y-91692160D01*
X139446308Y-91692160D01*
X139446308Y-94092160D01*
X139458568Y-94216642D01*
X139494878Y-94336340D01*
X139553843Y-94446654D01*
X139633195Y-94543345D01*
X139729886Y-94622697D01*
X139840200Y-94681662D01*
X139959898Y-94717972D01*
X140084380Y-94730232D01*
X140824380Y-94730232D01*
X140948862Y-94717972D01*
X141068560Y-94681662D01*
X141178874Y-94622697D01*
X141275565Y-94543345D01*
X141354917Y-94446654D01*
X141413882Y-94336340D01*
X141450192Y-94216642D01*
X141462452Y-94092160D01*
X141462452Y-91692160D01*
X141450192Y-91567678D01*
X141413882Y-91447980D01*
X141354917Y-91337666D01*
X141275565Y-91240975D01*
X141178874Y-91161623D01*
X141068560Y-91102658D01*
X140948862Y-91066348D01*
X140824380Y-91054088D01*
X140084380Y-91054088D01*
X139959898Y-91066348D01*
X139840200Y-91102658D01*
X139729886Y-91161623D01*
X139633195Y-91240975D01*
X139553843Y-91337666D01*
X139494878Y-91447980D01*
X139458568Y-91567678D01*
X139446308Y-91692160D01*
X137652452Y-91692160D01*
X137640192Y-91567678D01*
X137603882Y-91447980D01*
X137544917Y-91337666D01*
X137465565Y-91240975D01*
X137368874Y-91161623D01*
X137258560Y-91102658D01*
X137138862Y-91066348D01*
X137014380Y-91054088D01*
X136274380Y-91054088D01*
X136149898Y-91066348D01*
X136030200Y-91102658D01*
X135919886Y-91161623D01*
X135823195Y-91240975D01*
X135743843Y-91337666D01*
X135684878Y-91447980D01*
X135648568Y-91567678D01*
X135636308Y-91692160D01*
X135636308Y-91897393D01*
X135539819Y-91878200D01*
X135335941Y-91878200D01*
X135135982Y-91917974D01*
X134947624Y-91995995D01*
X134778106Y-92109263D01*
X134633943Y-92253426D01*
X134520675Y-92422944D01*
X134442654Y-92611302D01*
X134402880Y-92811261D01*
X133248000Y-92811261D01*
X133248000Y-86326977D01*
X133255430Y-86246437D01*
X133268630Y-86201791D01*
X133290250Y-86160560D01*
X133319465Y-86124316D01*
X133355162Y-86094437D01*
X133395987Y-86072059D01*
X133440380Y-86058037D01*
X133515359Y-86049720D01*
X137062018Y-86049720D01*
X136133383Y-86978356D01*
G36*
X148087375Y-87376134D02*
G01*
X148199028Y-87387131D01*
X148199036Y-87387131D01*
X148236361Y-87390807D01*
X148273686Y-87387131D01*
X149843828Y-87387131D01*
X149843828Y-88496180D01*
X149856088Y-88620662D01*
X149892398Y-88740360D01*
X149946901Y-88842326D01*
X149946901Y-89061868D01*
X149943224Y-89099200D01*
X149957898Y-89248185D01*
X150001354Y-89391446D01*
X150069600Y-89519124D01*
X150069600Y-89598839D01*
X150109374Y-89798798D01*
X150187395Y-89987156D01*
X150300663Y-90156674D01*
X150444826Y-90300837D01*
X150614344Y-90414105D01*
X150802702Y-90492126D01*
X151002661Y-90531900D01*
X151206539Y-90531900D01*
X151406498Y-90492126D01*
X151594856Y-90414105D01*
X151764374Y-90300837D01*
X151908537Y-90156674D01*
X152021805Y-89987156D01*
X152099826Y-89798798D01*
X152139600Y-89598839D01*
X152139600Y-89394961D01*
X152099826Y-89195002D01*
X152074662Y-89134252D01*
X152231900Y-89134252D01*
X152331900Y-89124403D01*
X152431900Y-89134252D01*
X152652574Y-89134252D01*
X152671926Y-89170456D01*
X152692071Y-89195002D01*
X152766899Y-89286181D01*
X152795903Y-89309984D01*
X154066423Y-90580505D01*
X154090221Y-90609503D01*
X154119219Y-90633301D01*
X154205945Y-90704476D01*
X154331006Y-90771323D01*
X154337975Y-90775048D01*
X154481236Y-90818505D01*
X154592889Y-90829502D01*
X154592899Y-90829502D01*
X154630222Y-90833178D01*
X154667545Y-90829502D01*
X156843260Y-90829502D01*
X156880582Y-90833178D01*
X156917904Y-90829502D01*
X156917915Y-90829502D01*
X157029568Y-90818505D01*
X157172829Y-90775048D01*
X157304858Y-90704476D01*
X157420583Y-90609503D01*
X157444386Y-90580500D01*
X158269887Y-89754999D01*
X159461568Y-89754999D01*
X159461568Y-91020000D01*
X159473828Y-91144482D01*
X159510138Y-91264180D01*
X159569103Y-91374494D01*
X159622862Y-91440000D01*
X159569103Y-91505506D01*
X159510138Y-91615820D01*
X159473828Y-91735518D01*
X159461568Y-91860000D01*
X159461568Y-93314999D01*
X158810523Y-93314999D01*
X157605705Y-92110182D01*
X157581902Y-92081178D01*
X157466177Y-91986205D01*
X157334148Y-91915633D01*
X157190887Y-91872176D01*
X157079234Y-91861179D01*
X157079223Y-91861179D01*
X157041901Y-91857503D01*
X157004579Y-91861179D01*
X154719223Y-91861179D01*
X154681900Y-91857503D01*
X154644578Y-91861179D01*
X154644568Y-91861179D01*
X154532915Y-91872176D01*
X154389654Y-91915633D01*
X154299398Y-91963876D01*
X153947743Y-91612222D01*
X153923941Y-91583219D01*
X153808216Y-91488246D01*
X153676187Y-91417674D01*
X153532926Y-91374217D01*
X153421273Y-91363220D01*
X153421262Y-91363220D01*
X153383940Y-91359544D01*
X153346618Y-91363220D01*
X149982632Y-91363220D01*
X149945309Y-91359544D01*
X149907986Y-91363220D01*
X149907977Y-91363220D01*
X149796324Y-91374217D01*
X149746439Y-91389349D01*
X149699265Y-91301094D01*
X149588822Y-91166518D01*
X149454246Y-91056075D01*
X149300710Y-90974008D01*
X149134114Y-90923472D01*
X148960860Y-90906408D01*
X148422589Y-90906408D01*
X148270500Y-90754319D01*
X148270500Y-90426570D01*
X148325350Y-90409932D01*
X148478886Y-90327865D01*
X148613462Y-90217422D01*
X148723905Y-90082846D01*
X148805972Y-89929310D01*
X148856508Y-89762714D01*
X148873572Y-89589460D01*
X148873572Y-89089460D01*
X148856508Y-88916206D01*
X148805972Y-88749610D01*
X148723905Y-88596074D01*
X148613462Y-88461498D01*
X148478886Y-88351055D01*
X148325350Y-88268988D01*
X148158754Y-88218452D01*
X147985500Y-88201388D01*
X147035500Y-88201388D01*
X146862246Y-88218452D01*
X146695650Y-88268988D01*
X146542114Y-88351055D01*
X146407538Y-88461498D01*
X146310730Y-88579460D01*
X146161124Y-88579460D01*
X146077578Y-88544854D01*
X145877619Y-88505080D01*
X145673741Y-88505080D01*
X145473782Y-88544854D01*
X145285424Y-88622875D01*
X145115906Y-88736143D01*
X144971743Y-88880306D01*
X144858475Y-89049824D01*
X144810197Y-89166376D01*
X144124984Y-88481163D01*
X144101181Y-88452159D01*
X143985456Y-88357186D01*
X143853427Y-88286614D01*
X143710166Y-88243157D01*
X143598513Y-88232160D01*
X143598502Y-88232160D01*
X143561180Y-88228484D01*
X143523858Y-88232160D01*
X142732452Y-88232160D01*
X142732452Y-87792160D01*
X142720192Y-87667678D01*
X142683882Y-87547980D01*
X142624917Y-87437666D01*
X142583444Y-87387131D01*
X146747317Y-87387131D01*
X146784639Y-87390807D01*
X146821961Y-87387131D01*
X146821972Y-87387131D01*
X146933625Y-87376134D01*
X146939176Y-87374450D01*
X148081824Y-87374450D01*
X148087375Y-87376134D01*
G37*
X148087375Y-87376134D02*
X148199028Y-87387131D01*
X148199036Y-87387131D01*
X148236361Y-87390807D01*
X148273686Y-87387131D01*
X149843828Y-87387131D01*
X149843828Y-88496180D01*
X149856088Y-88620662D01*
X149892398Y-88740360D01*
X149946901Y-88842326D01*
X149946901Y-89061868D01*
X149943224Y-89099200D01*
X149957898Y-89248185D01*
X150001354Y-89391446D01*
X150069600Y-89519124D01*
X150069600Y-89598839D01*
X150109374Y-89798798D01*
X150187395Y-89987156D01*
X150300663Y-90156674D01*
X150444826Y-90300837D01*
X150614344Y-90414105D01*
X150802702Y-90492126D01*
X151002661Y-90531900D01*
X151206539Y-90531900D01*
X151406498Y-90492126D01*
X151594856Y-90414105D01*
X151764374Y-90300837D01*
X151908537Y-90156674D01*
X152021805Y-89987156D01*
X152099826Y-89798798D01*
X152139600Y-89598839D01*
X152139600Y-89394961D01*
X152099826Y-89195002D01*
X152074662Y-89134252D01*
X152231900Y-89134252D01*
X152331900Y-89124403D01*
X152431900Y-89134252D01*
X152652574Y-89134252D01*
X152671926Y-89170456D01*
X152692071Y-89195002D01*
X152766899Y-89286181D01*
X152795903Y-89309984D01*
X154066423Y-90580505D01*
X154090221Y-90609503D01*
X154119219Y-90633301D01*
X154205945Y-90704476D01*
X154331006Y-90771323D01*
X154337975Y-90775048D01*
X154481236Y-90818505D01*
X154592889Y-90829502D01*
X154592899Y-90829502D01*
X154630222Y-90833178D01*
X154667545Y-90829502D01*
X156843260Y-90829502D01*
X156880582Y-90833178D01*
X156917904Y-90829502D01*
X156917915Y-90829502D01*
X157029568Y-90818505D01*
X157172829Y-90775048D01*
X157304858Y-90704476D01*
X157420583Y-90609503D01*
X157444386Y-90580500D01*
X158269887Y-89754999D01*
X159461568Y-89754999D01*
X159461568Y-91020000D01*
X159473828Y-91144482D01*
X159510138Y-91264180D01*
X159569103Y-91374494D01*
X159622862Y-91440000D01*
X159569103Y-91505506D01*
X159510138Y-91615820D01*
X159473828Y-91735518D01*
X159461568Y-91860000D01*
X159461568Y-93314999D01*
X158810523Y-93314999D01*
X157605705Y-92110182D01*
X157581902Y-92081178D01*
X157466177Y-91986205D01*
X157334148Y-91915633D01*
X157190887Y-91872176D01*
X157079234Y-91861179D01*
X157079223Y-91861179D01*
X157041901Y-91857503D01*
X157004579Y-91861179D01*
X154719223Y-91861179D01*
X154681900Y-91857503D01*
X154644578Y-91861179D01*
X154644568Y-91861179D01*
X154532915Y-91872176D01*
X154389654Y-91915633D01*
X154299398Y-91963876D01*
X153947743Y-91612222D01*
X153923941Y-91583219D01*
X153808216Y-91488246D01*
X153676187Y-91417674D01*
X153532926Y-91374217D01*
X153421273Y-91363220D01*
X153421262Y-91363220D01*
X153383940Y-91359544D01*
X153346618Y-91363220D01*
X149982632Y-91363220D01*
X149945309Y-91359544D01*
X149907986Y-91363220D01*
X149907977Y-91363220D01*
X149796324Y-91374217D01*
X149746439Y-91389349D01*
X149699265Y-91301094D01*
X149588822Y-91166518D01*
X149454246Y-91056075D01*
X149300710Y-90974008D01*
X149134114Y-90923472D01*
X148960860Y-90906408D01*
X148422589Y-90906408D01*
X148270500Y-90754319D01*
X148270500Y-90426570D01*
X148325350Y-90409932D01*
X148478886Y-90327865D01*
X148613462Y-90217422D01*
X148723905Y-90082846D01*
X148805972Y-89929310D01*
X148856508Y-89762714D01*
X148873572Y-89589460D01*
X148873572Y-89089460D01*
X148856508Y-88916206D01*
X148805972Y-88749610D01*
X148723905Y-88596074D01*
X148613462Y-88461498D01*
X148478886Y-88351055D01*
X148325350Y-88268988D01*
X148158754Y-88218452D01*
X147985500Y-88201388D01*
X147035500Y-88201388D01*
X146862246Y-88218452D01*
X146695650Y-88268988D01*
X146542114Y-88351055D01*
X146407538Y-88461498D01*
X146310730Y-88579460D01*
X146161124Y-88579460D01*
X146077578Y-88544854D01*
X145877619Y-88505080D01*
X145673741Y-88505080D01*
X145473782Y-88544854D01*
X145285424Y-88622875D01*
X145115906Y-88736143D01*
X144971743Y-88880306D01*
X144858475Y-89049824D01*
X144810197Y-89166376D01*
X144124984Y-88481163D01*
X144101181Y-88452159D01*
X143985456Y-88357186D01*
X143853427Y-88286614D01*
X143710166Y-88243157D01*
X143598513Y-88232160D01*
X143598502Y-88232160D01*
X143561180Y-88228484D01*
X143523858Y-88232160D01*
X142732452Y-88232160D01*
X142732452Y-87792160D01*
X142720192Y-87667678D01*
X142683882Y-87547980D01*
X142624917Y-87437666D01*
X142583444Y-87387131D01*
X146747317Y-87387131D01*
X146784639Y-87390807D01*
X146821961Y-87387131D01*
X146821972Y-87387131D01*
X146933625Y-87376134D01*
X146939176Y-87374450D01*
X148081824Y-87374450D01*
X148087375Y-87376134D01*
G36*
X163904642Y-89920802D02*
G01*
X163904641Y-93046680D01*
X163900965Y-93084003D01*
X163904641Y-93121325D01*
X163904641Y-93121335D01*
X163915638Y-93232988D01*
X163940515Y-93314999D01*
X162437712Y-93314999D01*
X162437712Y-91860000D01*
X162425452Y-91735518D01*
X162389142Y-91615820D01*
X162330177Y-91505506D01*
X162276418Y-91440000D01*
X162330177Y-91374494D01*
X162389142Y-91264180D01*
X162425452Y-91144482D01*
X162437712Y-91020000D01*
X162437712Y-89754999D01*
X163738839Y-89754999D01*
X163904642Y-89920802D01*
G37*
X163904642Y-89920802D02*
X163904641Y-93046680D01*
X163900965Y-93084003D01*
X163904641Y-93121325D01*
X163904641Y-93121335D01*
X163915638Y-93232988D01*
X163940515Y-93314999D01*
X162437712Y-93314999D01*
X162437712Y-91860000D01*
X162425452Y-91735518D01*
X162389142Y-91615820D01*
X162330177Y-91505506D01*
X162276418Y-91440000D01*
X162330177Y-91374494D01*
X162389142Y-91264180D01*
X162425452Y-91144482D01*
X162437712Y-91020000D01*
X162437712Y-89754999D01*
X163738839Y-89754999D01*
X163904642Y-89920802D01*
M02*
